# vtk DataFile Version 4.1
Generated by LIGGGHTS
ASCII
DATASET POLYDATA
POINTS 102 float
-0.0208226 -0.00599195 -0.0463143 -0.00462371 0.0206347 -0.0468878 -0.00174714 0.0260627 -0.0459256 
-0.00894204 -0.016163 -0.0444173 -0.0299058 -0.00882918 -0.0452403 -0.0190478 0.013684 -0.043516 
-0.0160886 0.0216478 -0.0438533 -0.00953586 0.00971988 -0.0401535 -0.00217367 0.0240852 -0.0399399 
-0.0106535 -0.0244251 -0.0359145 -0.0134792 -0.0343741 -0.0336323 -0.00618745 -0.0313193 -0.0346532 
-0.0124546 0.031784 -0.0346901 -0.0214597 -0.00448395 -0.028816 -0.0244429 0.0229939 -0.0290981 
-0.028663 -0.019004 -0.0270191 -0.0101549 -0.0158816 -0.0258303 -0.0275046 -0.000700049 -0.0249831 
-0.0083641 0.00277185 -0.0243659 -0.0202974 -0.0199605 -0.0227068 -0.0219947 -0.0107694 -0.0219613 
-0.00857183 -0.027925 -0.0192039 -0.00454319 0.0203252 -0.0183131 -0.0159102 -0.0341757 -0.0139427 
-0.00408721 -0.0194644 -0.0168737 -0.00174502 0.0344165 -0.0166953 -0.0327631 -0.0200888 -0.0113012 
-0.0159539 -0.00381092 -0.0119293 -0.0300659 -0.00019371 -0.0117188 -0.0235267 0.0224168 -0.0114182 
-0.0230202 -0.021037 -0.00863782 -0.0229734 0.000876534 -0.00805162 -0.020721 -0.0135944 -0.00489549 
-0.0127396 -0.0137041 -0.00461206 -0.000459601 -0.00791581 -0.00587588 -0.0221714 0.00979368 -0.0056663 
-0.0240929 0.0291618 -0.00385853 -0.0160817 -0.000243398 -0.00102235 -0.0175025 -0.0228838 0.00643714 
-0.022804 -0.0140579 0.00740554 -0.0251247 -0.00571197 0.00699451 -0.024531 -1.04943e-05 0.0055249 
-0.0306884 0.0042356 0.00477336 -0.018642 0.00531382 0.00657495 -0.027916 0.0296421 0.00504504 
-0.0105626 -0.00654333 0.00962368 -0.027846 0.00485213 0.0111361 -0.00180681 0.0181929 0.0115323 
-0.0178022 0.0256262 0.0111522 -0.0294843 -0.0242442 0.0129191 -0.021213 0.0304724 0.0120402 
-0.0262531 0.00245318 0.0185179 -0.0274253 0.00637934 0.0179412 -0.0337701 0.0102173 0.0160933 
-0.0284955 0.0109203 0.01761 -0.0264294 0.0258143 0.0170878 -0.0315539 0.028352 0.0153881 
-0.0046838 -0.0346092 0.0224653 -0.0221544 -0.0267021 0.0190755 -0.00322644 -0.0143029 0.0222441 
-0.0188291 -0.0129094 0.0192632 -0.0205837 -0.0294247 0.0234379 -0.0181818 0.00594264 0.0259146 
-0.00206763 0.0123655 0.0239585 -0.0315184 0.0323336 0.0250033 -0.00317446 -0.00327501 0.0278529 
-0.0113639 0.00609324 0.0275778 -0.0237558 0.020832 0.0275657 -0.0233787 0.0259916 0.0289011 
-0.0101315 -0.0171842 0.0314441 -0.00618278 0.0247152 0.0300065 -0.00512449 -0.0296766 0.0349688 
-0.0132118 -0.0121788 0.0348464 -0.0226093 -0.00790771 0.0353631 -0.0176419 0.0252752 0.0358377 
-0.00331379 -0.00673963 0.0370078 -0.0255344 0.010562 0.0402673 -0.0156099 0.0123479 0.0405895 
-0.0203284 0.0149576 0.0370099 -0.0332492 0.0212435 0.0373824 -0.025261 0.030812 0.0378822 
-0.0088354 0.0340944 0.0370038 -0.0166674 -0.0199684 0.0431312 -0.006758 -0.00417797 0.0415092 
-0.016039 -0.000886859 0.0433341 -0.0199892 0.00645928 0.0441893 -0.0136151 0.0110949 0.0431261 
-0.0302008 0.015853 0.0431844 -0.0138041 -0.0299263 0.0456656 -0.0118987 0.0289343 0.0450893 
-0.0179545 0.0159092 0.0528714 -0.00471042 0.0296342 0.050881 -0.016986 -0.0318376 0.0580691 
-0.0227935 0.0274334 0.0584263 -0.020149 -0.00685329 0.0514181 -0.0141771 0.0177987 0.0506312 
-0.00439906 -0.0328903 0.0557281 -0.0135716 -0.00811727 0.0487074 -0.00739645 0.00376164 0.0487599 
-0.0267621 -0.0219194 0.0505478 -0.00791609 -0.0196794 0.0531843 -0.0296076 0.00722911 0.0558084 

VERTICES 102 204
1 0 
1 1 
1 2 
1 3 
1 4 
1 5 
1 6 
1 7 
1 8 
1 9 
1 10 
1 11 
1 12 
1 13 
1 14 
1 15 
1 16 
1 17 
1 18 
1 19 
1 20 
1 21 
1 22 
1 23 
1 24 
1 25 
1 26 
1 27 
1 28 
1 29 
1 30 
1 31 
1 32 
1 33 
1 34 
1 35 
1 36 
1 37 
1 38 
1 39 
1 40 
1 41 
1 42 
1 43 
1 44 
1 45 
1 46 
1 47 
1 48 
1 49 
1 50 
1 51 
1 52 
1 53 
1 54 
1 55 
1 56 
1 57 
1 58 
1 59 
1 60 
1 61 
1 62 
1 63 
1 64 
1 65 
1 66 
1 67 
1 68 
1 69 
1 70 
1 71 
1 72 
1 73 
1 74 
1 75 
1 76 
1 77 
1 78 
1 79 
1 80 
1 81 
1 82 
1 83 
1 84 
1 85 
1 86 
1 87 
1 88 
1 89 
1 90 
1 91 
1 92 
1 93 
1 94 
1 95 
1 96 
1 97 
1 98 
1 99 
1 100 
1 101 

POINT_DATA 102
FIELD FieldData 7
id 1 102 int
2 7 1 12 10 6 4 8 9 
5 3 13 11 19 22 20 18 16 
21 23 25 24 14 38 15 17 30 
29 28 33 35 31 32 36 26 37 
34 27 50 47 51 49 42 48 44 
45 43 39 46 40 41 59 64 60 
55 61 56 52 54 63 53 62 73 
58 57 72 65 67 69 75 71 76 
70 77 74 68 85 82 86 66 80 
84 87 81 78 89 90 88 79 83 
91 92 93 94 95 96 97 98 99 
100 101 102 
type 1 102 int
1 1 1 1 1 1 1 1 1 
1 1 1 1 1 1 1 1 1 
1 1 1 1 1 1 1 1 1 
1 1 1 1 1 1 1 1 1 
1 1 1 1 1 1 1 1 1 
1 1 1 1 1 1 1 1 1 
1 1 1 1 1 1 1 1 1 
1 1 1 1 1 1 1 1 1 
1 1 1 1 1 1 1 1 1 
1 1 1 1 1 1 1 1 1 
1 1 1 1 1 1 1 1 1 
1 1 1 
i 3 102 int
0 0 0 0 0 0 0 0 0 
0 0 0 0 0 0 0 0 0 
0 0 0 0 0 0 0 0 0 
0 0 0 0 0 0 0 0 0 
0 0 0 0 0 0 0 0 0 
0 0 0 0 0 0 0 0 0 
0 0 0 0 0 0 0 0 0 
0 0 0 0 0 0 0 0 0 
0 0 0 0 0 0 0 0 0 
0 0 0 0 0 0 0 0 0 
0 0 0 0 0 0 0 0 0 
0 0 0 0 0 0 0 0 0 
0 0 0 0 0 0 0 0 0 
0 0 0 0 0 0 0 0 0 
0 0 0 0 0 0 0 0 0 
0 0 0 0 0 0 0 0 0 
0 0 0 0 0 0 0 0 0 
0 0 0 0 0 0 0 0 0 
0 0 0 0 0 0 0 0 0 
0 0 0 0 0 0 0 0 0 
0 0 0 0 0 0 0 0 0 
0 0 0 0 0 0 0 0 0 
0 0 0 0 0 0 0 0 0 
0 0 0 0 0 0 0 0 0 
0 0 0 0 0 0 0 0 0 
0 0 0 0 0 0 0 0 0 
0 0 0 0 0 0 0 0 0 
0 0 0 0 0 0 0 0 0 
0 0 0 0 0 0 0 0 0 
0 0 0 0 0 0 0 0 0 
0 0 0 0 0 0 0 0 0 
0 0 0 0 0 0 0 0 0 
0 0 0 0 0 0 0 0 0 
0 0 0 0 0 0 0 0 0 

v 3 102 double
0 0 -1.69989445 0 0 -1.70322985 0 0 -1.69763815 
0 0 -1.68890725 0 0 -1.69371415 0 0 -1.68370795 
0 0 -1.68566995 0 0 -1.66398985 0 0 -1.66271455 
0 0 -1.63877815 0 0 -1.62504415 0 0 -1.63122445 
0 0 -1.63142065 0 0 -1.59571225 0 0 -1.59747805 
0 0 -1.58462695 0 0 -1.57726945 0 0 -1.57197205 
0 0 -1.56814615 0 0 -1.55774755 0 0 -1.55303875 
0 0 -1.53547885 0 0 -1.52978905 0 0 -1.50153625 
0 0 -1.52056765 0 0 -1.51939045 0 0 -1.48417255 
0 0 -1.48829275 0 0 -1.48691935 0 0 -1.48495735 
0 0 -1.46641645 0 0 -1.46249245 0 0 -1.44120475 
0 0 -1.43924275 0 0 -1.44787555 0 0 -1.44640405 
0 0 -1.43414155 0 0 -1.41461965 0 0 -1.36184185 
0 0 -1.35487675 0 0 -1.35781975 0 0 -1.36841455 
0 0 -1.37381005 0 0 -1.36086085 0 0 -1.37184805 
0 0 -1.33869025 0 0 -1.32760495 0 0 -1.32466195 
0 0 -1.32750685 0 0 -1.31436145 0 0 -1.32093415 
0 0 -1.27188415 0 0 -1.27629865 0 0 -1.29042505 
0 0 -1.27884925 0 0 -1.28287135 0 0 -1.29582055 
0 0 -1.24108075 0 0 -1.26756775 0 0 -1.24284655 
0 0 -1.26609625 0 0 -1.23333085 0 0 -1.21351465 
0 0 -1.22921065 0 0 -1.22087215 0 0 -1.19772055 
0 0 -1.19997685 0 0 -1.20007495 0 0 -1.18908775 
0 0 -1.16789815 0 0 -1.17996445 0 0 -1.13797765 
0 0 -1.13895865 0 0 -1.13454415 0 0 -1.13042395 
0 0 -1.12022155 0 0 -1.09128205 0 0 -1.08843715 
0 0 -1.12022155 0 0 -1.11698425 0 0 -1.11256975 
0 0 -1.12022155 0 0 -1.06528555 0 0 -1.08009865 
0 0 -1.06342165 0 0 -1.05547555 0 0 -1.06528555 
0 0 -1.06479505 0 0 -1.04164345 0 0 -1.04703895 
0 0 -1 0 0 -1 0 0 -1 
0 0 -1 0 0 -1 0 0 -1 
0 0 -1 0 0 -1.01260585 0 0 -1.01211535 
0 0 -1 0 0 -1 0 0 -1 

f 3 102 double
0 0 -0.0016051574964 0 0 -0.00034671401923 0 0 -0.0016051574964 
0 0 -0.00034671401923 0 0 -0.00034671401923 0 0 -0.00034671401923 
0 0 -0.0016051574964 0 0 -0.00034671401923 0 0 -0.00034671401923 
0 0 -0.0016051574964 0 0 -0.0016051574964 0 0 -0.00034671401923 
0 0 -0.00034671401923 0 0 -0.00034671401923 0 0 -0.00034671401923 
0 0 -0.00034671401923 0 0 -0.00034671401923 0 0 -0.0016051574964 
0 0 -0.00034671401923 0 0 -0.00034671401923 0 0 -0.00034671401923 
0 0 -0.00034671401923 0 0 -0.0016051574964 0 0 -0.00034671401923 
0 0 -0.0016051574964 0 0 -0.0016051574964 0 0 -0.0016051574964 
0 0 -0.0016051574964 0 0 -0.0016051574964 0 0 -0.00034671401923 
0 0 -0.00034671401923 0 0 -0.00034671401923 0 0 -0.00034671401923 
0 0 -0.00034671401923 0 0 -0.0016051574964 0 0 -0.00034671401923 
0 0 -0.00034671401923 0 0 -0.0016051574964 0 0 -0.00034671401923 
0 0 -0.00034671401923 0 0 -0.00034671401923 0 0 -0.00034671401923 
0 0 -0.0016051574964 0 0 -0.00034671401923 0 0 -0.00034671401923 
0 0 -0.00034671401923 0 0 -0.0016051574964 0 0 -0.0016051574964 
0 0 -0.00034671401923 0 0 -0.0016051574964 0 0 -0.0016051574964 
0 0 -0.00034671401923 0 0 -0.00034671401923 0 0 -0.00034671401923 
0 0 -0.0016051574964 0 0 -0.00034671401923 0 0 -0.00034671401923 
0 0 -0.0016051574964 0 0 -0.0016051574964 0 0 -0.00034671401923 
0 0 -0.0016051574964 0 0 -0.00034671401923 0 0 -0.00034671401923 
0 0 -0.00034671401923 0 0 -0.00034671401923 0 0 -0.00034671401923 
0 0 -0.0016051574964 0 0 -0.0016051574964 0 0 -0.00034671401923 
0 0 -0.00034671401923 0 0 -0.00034671401923 0 0 -0.00034671401923 
0 0 -0.00034671401923 0 0 -0.00034671401923 0 0 -0.00034671401923 
0 0 -0.0016051574964 0 0 -0.00034671401923 0 0 -0.00034671401923 
0 0 -0.00034671401923 0 0 -0.0016051574964 0 0 -0.0016051574964 
0 0 -0.00034671401923 0 0 -0.00034671401923 0 0 -0.0016051574964 
0 0 -0.0016051574964 0 0 -0.00034671401923 0 0 -0.00034671401923 
0 0 -0.00034671401923 0 0 -0.0016051574964 0 0 -0.00034671401923 
0 0 0 0 0 0 0 0 0 
0 0 0 0 0 0 0 0 0 
0 0 0 0 0 -0.00034671401923 0 0 -0.00034671401923 
0 0 0 0 0 0 0 0 0 

radius 1 102 double
0.0025 0.0015 0.0025 0.0015 0.0015 0.0015 0.0025 0.0015 0.0015 
0.0025 0.0025 0.0015 0.0015 0.0015 0.0015 0.0015 0.0015 0.0025 
0.0015 0.0015 0.0015 0.0015 0.0025 0.0015 0.0025 0.0025 0.0025 
0.0025 0.0025 0.0015 0.0015 0.0015 0.0015 0.0015 0.0025 0.0015 
0.0015 0.0025 0.0015 0.0015 0.0015 0.0015 0.0025 0.0015 0.0015 
0.0015 0.0025 0.0025 0.0015 0.0025 0.0025 0.0015 0.0015 0.0015 
0.0025 0.0015 0.0015 0.0025 0.0025 0.0015 0.0025 0.0015 0.0015 
0.0015 0.0015 0.0015 0.0025 0.0025 0.0015 0.0015 0.0015 0.0015 
0.0015 0.0015 0.0015 0.0025 0.0015 0.0015 0.0015 0.0025 0.0025 
0.0015 0.0015 0.0025 0.0025 0.0015 0.0015 0.0015 0.0025 0.0015 
0.0025 0.0025 0.0025 0.0025 0.0015 0.0015 0.0015 0.0015 0.0015 
0.0015 0.0015 0.0015 
omega 3 102 double
0 0 0 0 0 0 0 0 0 
0 0 0 0 0 0 0 0 0 
0 0 0 0 0 0 0 0 0 
0 0 0 0 0 0 0 0 0 
0 0 0 0 0 0 0 0 0 
0 0 0 0 0 0 0 0 0 
0 0 0 0 0 0 0 0 0 
0 0 0 0 0 0 0 0 0 
0 0 0 0 0 0 0 0 0 
0 0 0 0 0 0 0 0 0 
0 0 0 0 0 0 0 0 0 
0 0 0 0 0 0 0 0 0 
0 0 0 0 0 0 0 0 0 
0 0 0 0 0 0 0 0 0 
0 0 0 0 0 0 0 0 0 
0 0 0 0 0 0 0 0 0 
0 0 0 0 0 0 0 0 0 
0 0 0 0 0 0 0 0 0 
0 0 0 0 0 0 0 0 0 
0 0 0 0 0 0 0 0 0 
0 0 0 0 0 0 0 0 0 
0 0 0 0 0 0 0 0 0 
0 0 0 0 0 0 0 0 0 
0 0 0 0 0 0 0 0 0 
0 0 0 0 0 0 0 0 0 
0 0 0 0 0 0 0 0 0 
0 0 0 0 0 0 0 0 0 
0 0 0 0 0 0 0 0 0 
0 0 0 0 0 0 0 0 0 
0 0 0 0 0 0 0 0 0 
0 0 0 0 0 0 0 0 0 
0 0 0 0 0 0 0 0 0 
0 0 0 0 0 0 0 0 0 
0 0 0 0 0 0 0 0 0 

