# vtk DataFile Version 4.1
Generated by LIGGGHTS
ASCII
DATASET POLYDATA
POINTS 51 float
-0.0299058 -0.00882918 0.0172433 -0.0208226 -0.00599195 0.0164288 -0.00462371 0.0206347 0.0159954 
-0.00174714 0.0260627 0.0167228 -0.00894204 -0.016163 0.0178644 -0.00953586 0.00971988 0.0210817 
-0.0190478 0.013684 0.0185473 -0.0160886 0.0216478 0.0182924 -0.00217367 0.0240852 0.0212417 
-0.0106535 -0.0244251 0.0242618 -0.0134792 -0.0343741 0.0259672 -0.00618745 -0.0313193 0.0252058 
-0.0124546 0.031784 0.0251771 -0.028663 -0.019004 0.0308828 -0.0101549 -0.0158816 0.0317626 
-0.0214597 -0.00448395 0.0295515 -0.0244429 0.0229939 0.0293435 -0.0202974 -0.0199605 0.0340662 
-0.0219947 -0.0107694 0.0346139 -0.0275046 -0.000700049 0.0323873 -0.0083641 0.00277185 0.0328438 
-0.00857183 -0.027925 0.0366338 -0.00408721 -0.0194644 0.0383377 -0.00454319 0.0203252 0.0372856 
-0.00174502 0.0344165 0.0384667 -0.0159102 -0.0341757 0.0404694 -0.0327631 -0.0200888 0.0423816 
-0.0159539 -0.00381092 0.0419266 -0.0300659 -0.00019371 0.0420794 -0.0235267 0.0224168 0.0422976 
-0.0230202 -0.021037 0.0442993 -0.000459601 -0.00791581 0.0462825 -0.0229734 0.000876534 0.0447206 
-0.020721 -0.0135944 0.0469827 -0.0127396 -0.0137041 0.0471837 -0.0160817 -0.000243398 0.0497393 
-0.0221714 0.00979368 0.0464302 -0.0240929 0.0291618 0.047723 -0.0175025 -0.0228838 0.0551104 
-0.022804 -0.0140579 0.0558244 -0.0251247 -0.00571197 0.0555202 -0.024531 -1.04943e-05 0.0544428 
-0.0306884 0.0042356 0.0538954 -0.018642 0.00531382 0.0552121 -0.027916 0.0296421 0.0540925 
-0.0294843 -0.0242442 0.059956 -0.0105626 -0.00654333 0.0574703 -0.027846 0.00485213 0.0586063 
-0.00180681 0.0181929 0.0589047 -0.0178022 0.0256262 0.0586191 -0.021213 0.0304724 0.0592899 

VERTICES 51 102
1 0 
1 1 
1 2 
1 3 
1 4 
1 5 
1 6 
1 7 
1 8 
1 9 
1 10 
1 11 
1 12 
1 13 
1 14 
1 15 
1 16 
1 17 
1 18 
1 19 
1 20 
1 21 
1 22 
1 23 
1 24 
1 25 
1 26 
1 27 
1 28 
1 29 
1 30 
1 31 
1 32 
1 33 
1 34 
1 35 
1 36 
1 37 
1 38 
1 39 
1 40 
1 41 
1 42 
1 43 
1 44 
1 45 
1 46 
1 47 
1 48 
1 49 
1 50 

POINT_DATA 51
FIELD FieldData 7
id 1 51 int
10 2 7 1 12 8 6 4 9 
5 3 13 11 20 18 19 22 23 
25 16 21 24 15 14 17 38 30 
29 28 33 35 26 31 32 36 27 
37 34 50 47 51 49 42 48 44 
40 45 43 39 46 41 
type 1 51 int
1 1 1 1 1 1 1 1 1 
1 1 1 1 1 1 1 1 1 
1 1 1 1 1 1 1 1 1 
1 1 1 1 1 1 1 1 1 
1 1 1 1 1 1 1 1 1 
1 1 1 1 1 1 
i 3 51 int
0 0 0 0 0 0 0 0 0 
0 0 0 0 0 0 0 0 0 
0 0 0 0 0 0 0 0 0 
0 0 0 0 0 0 0 0 0 
0 0 0 0 0 0 0 0 0 
0 0 0 0 0 0 0 0 0 
0 0 0 0 0 0 0 0 0 
0 0 0 0 0 0 0 0 0 
0 0 0 0 0 0 0 0 0 
0 0 0 0 0 0 0 0 0 
0 0 0 0 0 0 0 0 0 
0 0 0 0 0 0 0 0 0 
0 0 0 0 0 0 0 0 0 
0 0 0 0 0 0 0 0 0 
0 0 0 0 0 0 0 0 0 
0 0 0 0 0 0 0 0 0 
0 0 0 0 0 0 0 0 0 

v 3 51 double
0 0 -1.28169415 0 0 -1.28787445 0 0 -1.29120985 
0 0 -1.28561815 0 0 -1.27688725 0 0 -1.25196985 
0 0 -1.27168795 0 0 -1.27364995 0 0 -1.25069455 
0 0 -1.22675815 0 0 -1.21302415 0 0 -1.21920445 
0 0 -1.21940065 0 0 -1.17260695 0 0 -1.16524945 
0 0 -1.18369225 0 0 -1.18545805 0 0 -1.14572755 
0 0 -1.14101875 0 0 -1.15995205 0 0 -1.15612615 
0 0 -1.12345885 0 0 -1.10854765 0 0 -1.11776905 
0 0 -1.10737045 0 0 -1.08951625 0 0 -1.07215255 
0 0 -1.07627275 0 0 -1.07489935 0 0 -1.07293735 
0 0 -1.05439645 0 0 -1.03585555 0 0 -1.05047245 
0 0 -1.02918475 0 0 -1.02722275 0 0 -1.00259965 
0 0 -1.03438405 0 0 -1.02212155 0 0 -1 
0 0 -1 0 0 -1 0 0 -1 
0 0 -1 0 0 -1 0 0 -1 
0 0 -1 0 0 -1 0 0 -1 
0 0 -1 0 0 -1 0 0 -1 

f 3 51 double
0 0 -0.00034671401923 0 0 -0.0016051574964 0 0 -0.00034671401923 
0 0 -0.0016051574964 0 0 -0.00034671401923 0 0 -0.00034671401923 
0 0 -0.00034671401923 0 0 -0.0016051574964 0 0 -0.00034671401923 
0 0 -0.0016051574964 0 0 -0.0016051574964 0 0 -0.00034671401923 
0 0 -0.00034671401923 0 0 -0.00034671401923 0 0 -0.00034671401923 
0 0 -0.00034671401923 0 0 -0.00034671401923 0 0 -0.00034671401923 
0 0 -0.00034671401923 0 0 -0.0016051574964 0 0 -0.00034671401923 
0 0 -0.00034671401923 0 0 -0.0016051574964 0 0 -0.0016051574964 
0 0 -0.0016051574964 0 0 -0.00034671401923 0 0 -0.0016051574964 
0 0 -0.0016051574964 0 0 -0.0016051574964 0 0 -0.00034671401923 
0 0 -0.00034671401923 0 0 -0.0016051574964 0 0 -0.00034671401923 
0 0 -0.00034671401923 0 0 -0.00034671401923 0 0 -0.0016051574964 
0 0 -0.00034671401923 0 0 -0.00034671401923 0 0 0 
0 0 0 0 0 0 0 0 0 
0 0 0 0 0 0 0 0 0 
0 0 0 0 0 0 0 0 0 
0 0 0 0 0 0 0 0 0 

radius 1 51 double
0.0015 0.0025 0.0015 0.0025 0.0015 0.0015 0.0015 0.0025 0.0015 
0.0025 0.0025 0.0015 0.0015 0.0015 0.0015 0.0015 0.0015 0.0015 
0.0015 0.0025 0.0015 0.0015 0.0025 0.0025 0.0025 0.0015 0.0025 
0.0025 0.0025 0.0015 0.0015 0.0025 0.0015 0.0015 0.0015 0.0025 
0.0015 0.0015 0.0015 0.0015 0.0015 0.0015 0.0025 0.0015 0.0015 
0.0025 0.0015 0.0025 0.0025 0.0015 0.0025 
omega 3 51 double
0 0 0 0 0 0 0 0 0 
0 0 0 0 0 0 0 0 0 
0 0 0 0 0 0 0 0 0 
0 0 0 0 0 0 0 0 0 
0 0 0 0 0 0 0 0 0 
0 0 0 0 0 0 0 0 0 
0 0 0 0 0 0 0 0 0 
0 0 0 0 0 0 0 0 0 
0 0 0 0 0 0 0 0 0 
0 0 0 0 0 0 0 0 0 
0 0 0 0 0 0 0 0 0 
0 0 0 0 0 0 0 0 0 
0 0 0 0 0 0 0 0 0 
0 0 0 0 0 0 0 0 0 
0 0 0 0 0 0 0 0 0 
0 0 0 0 0 0 0 0 0 
0 0 0 0 0 0 0 0 0 

