# vtk DataFile Version 4.1
Generated by LIGGGHTS
ASCII
DATASET POLYDATA
POINTS 166 float
-0.0424085 -0.00800775 -0.114765 -0.0322316 -0.0183229 -0.116127 -0.0352756 -0.00580553 -0.109643 
-0.0278011 -0.00440216 -0.112821 -0.0211329 0.00900294 -0.110811 -0.0328805 0.0111856 -0.110093 
-0.036931 0.029028 -0.117905 -0.0241579 -0.0299805 -0.104754 -0.0220344 -0.0200248 -0.106058 
-0.0240619 -0.0134615 -0.105183 -0.0169568 -0.0146663 -0.107373 -0.0316371 -0.000582645 -0.115351 
-0.0147575 0.00262803 -0.107552 -0.0285774 0.0176187 -0.109164 -0.0195995 0.025624 -0.109914 
-0.0236061 0.0277318 -0.105939 -0.0182029 -0.0269082 -0.103279 -0.0243054 -0.0190295 -0.112122 
-0.0252461 -0.0101624 -0.114076 -0.00210063 0.00682968 -0.105095 -0.02197 0.0165834 -0.103509 
-0.0130586 -0.0262778 -0.106279 -0.0092794 0.019219 -0.104423 -0.00801771 -0.0187621 -0.104495 
-0.00531546 0.0327101 -0.102169 -0.0171591 -0.0336619 -0.10922 -0.0327631 -0.0200888 -0.109797 
-0.0159539 -0.00381092 -0.110656 -0.0300659 -0.00019371 -0.110368 -0.0235267 0.0224168 -0.109958 
-0.0253254 -0.0212191 -0.102326 -0.0229734 0.000876534 -0.105333 -0.020721 -0.0135944 -0.100985 
-0.0127396 -0.0137041 -0.100592 -0.000459601 -0.00791581 -0.102339 -0.0221714 0.00979368 -0.102047 
-0.0240929 0.0291618 -0.0995525 -0.0160817 -0.000243398 -0.0956231 -0.024531 -1.04943e-05 -0.0864884 
-0.0306884 0.0042356 -0.0875421 -0.027916 0.0296421 -0.0871605 -0.0175025 -0.0228838 -0.0852081 
-0.022804 -0.0140579 -0.0838496 -0.0251247 -0.00571197 -0.0844255 -0.018642 0.00531382 -0.0850153 
-0.0105626 -0.00654333 -0.0807251 -0.027846 0.00485213 -0.0785918 -0.0178022 0.0256262 -0.0785703 
-0.0294843 -0.0242442 -0.0760672 -0.00180681 0.0181929 -0.0780308 -0.021213 0.0304724 -0.0773142 
-0.0337701 0.0102173 -0.0715526 -0.0315539 0.028352 -0.07256 -0.0262531 0.00245318 -0.0680897 
-0.0274253 0.00637934 -0.0689136 -0.0284955 0.0109203 -0.0693876 -0.0264294 0.0258143 -0.070135 
-0.0221544 -0.0267021 -0.0672903 -0.0188291 -0.0129094 -0.0670203 -0.0046838 -0.0346092 -0.0624173 
-0.0205837 -0.0294247 -0.0610107 -0.00322644 -0.0143029 -0.0627374 -0.00206763 0.0123655 -0.0602594 
-0.0181818 0.00594264 -0.0574243 -0.0315184 0.0323336 -0.0587477 -0.00317446 -0.00327501 -0.0546016 
-0.0113639 0.00609324 -0.055003 -0.0237558 0.020832 -0.0550206 -0.0233787 0.0259916 -0.0530699 
-0.0101315 -0.0171842 -0.0493403 -0.00618278 0.0247152 -0.0514536 -0.00512449 -0.0296766 -0.04414 
-0.0132118 -0.0121788 -0.0443173 -0.0226093 -0.00790771 -0.0435534 -0.0176419 0.0252752 -0.0428481 
-0.00331379 -0.00673963 -0.0411067 -0.0203284 0.0149576 -0.0411046 -0.0332492 0.0212435 -0.0405508 
-0.025261 0.030812 -0.0398038 -0.0088354 0.0340944 -0.0411107 -0.006758 -0.00417797 -0.0343584 
-0.0255344 0.010562 -0.0362265 -0.0156099 0.0123479 -0.035745 -0.0166674 -0.0199684 -0.0319069 
-0.016039 -0.000886859 -0.0315995 -0.0199892 0.00645928 -0.0302994 -0.0136151 0.0110949 -0.031912 
-0.0302008 0.015853 -0.0318262 -0.0138041 -0.0299263 -0.0280485 -0.0118987 0.0289343 -0.028927 
-0.0135716 -0.00811727 -0.0233806 -0.00739645 0.00376164 -0.0233006 -0.0267621 -0.0219194 -0.0205364 
-0.020149 -0.00685329 -0.0191965 -0.0141771 0.0177987 -0.020404 -0.00471042 0.0296342 -0.0200187 
-0.00791609 -0.0196794 -0.0164978 -0.0179545 0.0159092 -0.0169718 -0.00439906 -0.0328903 -0.0126697 
-0.0296076 0.00722911 -0.01255 -0.016986 -0.0318376 -0.00920143 -0.0281298 -0.0148599 -0.00809179 
-0.0161861 -0.00599108 -0.00804841 -0.0227935 0.0274334 -0.00867554 -0.0292679 0.0147935 -0.00508554 
-0.00205293 0.0165512 -0.00522686 -0.0305301 0.00502779 -0.00201872 -0.00405648 0.032442 -0.000957725 
-0.0135333 -0.0276689 0.00273913 -0.0112712 -0.0202504 0.000843611 -2.29018e-06 -0.0149558 0.00259448 
-0.00301846 0.00510814 0.00267556 -0.0331337 -0.0163611 0.00394647 -0.0273798 -0.00441029 0.00379295 
-0.00794441 0.0258079 0.00515656 -0.0143544 -0.0272787 0.00913175 -0.0191843 -0.0221491 0.00809667 
-0.0125841 -0.0140137 0.00851001 -0.0125785 -0.0040947 0.00970012 -0.0148309 0.00369911 0.0110451 
-0.00193271 0.00892872 0.0106585 -0.0336091 0.0316877 0.00875643 -0.00679321 -0.00970412 0.0130509 
-0.0316214 0.000145103 0.0125017 -0.0217323 0.00352617 0.0115761 -0.0227292 -0.0342527 0.0172498 
-0.00618246 0.0122116 0.0178754 -0.026321 0.0295451 0.0174602 -0.0331578 -0.0347183 0.0198427 
-0.0076982 -0.0269483 0.0196227 -0.0188235 -0.00412326 0.0222556 -0.0142543 -0.00491395 0.0203726 
-0.0238018 0.0141125 0.0224875 -0.030786 0.0122027 0.0233928 -0.00584464 -0.0345985 0.0293771 
-0.0115686 -0.0259344 0.028176 -0.00401145 -0.0205873 0.0286511 -0.0301844 0.00679958 0.0300503 
-0.004829 0.0333632 0.0294565 -0.010147 -0.0216422 0.0308773 -0.0322463 -0.00737998 0.0306264 
-0.00623706 -0.00658451 0.0333584 -0.0210131 0.0295222 0.0307928 -0.0237179 -0.0330481 0.035181 
-0.0251936 -0.0129184 0.0372816 -0.00679915 -0.000720285 0.0341543 -0.0230582 0.0203811 0.0341427 
-0.0214963 -0.0163735 0.0407158 -0.0152079 -0.0146465 0.0388685 -0.00240788 -0.00904262 0.0400943 
-0.00372425 0.000239952 0.0386229 -0.0043072 0.0165241 0.0401863 -0.0326006 -0.0307471 0.0416074 
-0.0234861 -0.027537 0.0452234 -0.0322856 0.00186917 0.04206 -0.00943139 0.0192376 0.0445876 
-0.0103743 0.0339743 0.0446188 -0.0180071 -0.0232682 0.0475354 -0.000114354 -0.0212937 0.0472516 
-0.0280789 0.0137467 0.0464772 -0.0345391 -0.0114622 0.0490589 -0.00596878 -0.0130405 0.051366 
-0.0303036 -0.0103215 0.0510724 -0.0287704 0.0101406 0.0514017 -0.010941 0.0209557 0.0515532 
-0.0148889 0.0293808 0.0491967 
VERTICES 166 332
1 0 
1 1 
1 2 
1 3 
1 4 
1 5 
1 6 
1 7 
1 8 
1 9 
1 10 
1 11 
1 12 
1 13 
1 14 
1 15 
1 16 
1 17 
1 18 
1 19 
1 20 
1 21 
1 22 
1 23 
1 24 
1 25 
1 26 
1 27 
1 28 
1 29 
1 30 
1 31 
1 32 
1 33 
1 34 
1 35 
1 36 
1 37 
1 38 
1 39 
1 40 
1 41 
1 42 
1 43 
1 44 
1 45 
1 46 
1 47 
1 48 
1 49 
1 50 
1 51 
1 52 
1 53 
1 54 
1 55 
1 56 
1 57 
1 58 
1 59 
1 60 
1 61 
1 62 
1 63 
1 64 
1 65 
1 66 
1 67 
1 68 
1 69 
1 70 
1 71 
1 72 
1 73 
1 74 
1 75 
1 76 
1 77 
1 78 
1 79 
1 80 
1 81 
1 82 
1 83 
1 84 
1 85 
1 86 
1 87 
1 88 
1 89 
1 90 
1 91 
1 92 
1 93 
1 94 
1 95 
1 96 
1 97 
1 98 
1 99 
1 100 
1 101 
1 102 
1 103 
1 104 
1 105 
1 106 
1 107 
1 108 
1 109 
1 110 
1 111 
1 112 
1 113 
1 114 
1 115 
1 116 
1 117 
1 118 
1 119 
1 120 
1 121 
1 122 
1 123 
1 124 
1 125 
1 126 
1 127 
1 128 
1 129 
1 130 
1 131 
1 132 
1 133 
1 134 
1 135 
1 136 
1 137 
1 138 
1 139 
1 140 
1 141 
1 142 
1 143 
1 144 
1 145 
1 146 
1 147 
1 148 
1 149 
1 150 
1 151 
1 152 
1 153 
1 154 
1 155 
1 156 
1 157 
1 158 
1 159 
1 160 
1 161 
1 162 
1 163 
1 164 
1 165 

POINT_DATA 166
FIELD FieldData 7
id 1 166 int
10 20 2 19 8 6 22 3 5 
12 18 16 21 4 1 11 13 23 
25 9 7 24 14 15 17 38 30 
29 28 33 35 31 32 36 26 37 
34 27 49 42 44 50 47 51 48 
45 43 46 40 39 41 60 56 59 
64 55 61 54 53 52 62 63 58 
73 57 72 65 67 69 75 71 76 
70 77 74 68 86 66 80 84 81 
85 82 87 78 89 90 88 79 83 
98 99 100 95 96 92 101 91 97 
102 93 110 113 94 114 104 106 107 
109 111 108 103 112 105 127 115 120 
121 118 124 116 117 123 126 119 125 
139 122 135 140 136 128 131 133 132 
134 137 147 138 129 153 146 130 145 
143 149 151 150 144 142 152 148 160 
164 141 161 158 166 165 163 155 157 
162 159 156 154 
type 1 166 int
1 1 1 1 1 1 1 1 1 
1 1 1 1 1 1 1 1 1 
1 1 1 1 1 1 1 1 1 
1 1 1 1 1 1 1 1 1 
1 1 1 1 1 1 1 1 1 
1 1 1 1 1 1 1 1 1 
1 1 1 1 1 1 1 1 1 
1 1 1 1 1 1 1 1 1 
1 1 1 1 1 1 1 1 1 
1 1 1 1 1 1 1 1 1 
1 1 1 1 1 1 1 1 1 
1 1 1 1 1 1 1 1 1 
1 1 1 1 1 1 1 1 1 
1 1 1 1 1 1 1 1 1 
1 1 1 1 1 1 1 1 1 
1 1 1 1 1 1 1 1 1 
1 1 1 1 1 1 1 1 1 
1 1 1 1 1 1 1 1 1 
1 1 1 1 
i 3 166 int
0 0 0 0 0 0 0 0 0 
0 0 0 0 0 0 0 0 0 
0 0 0 0 0 0 0 0 0 
0 0 0 0 0 0 0 0 0 
0 0 0 0 0 0 0 0 0 
0 0 0 0 0 0 0 0 0 
0 0 0 0 0 0 0 0 0 
0 0 0 0 0 0 0 0 0 
0 0 0 0 0 0 0 0 0 
0 0 0 0 0 0 0 0 0 
0 0 0 0 0 0 0 0 0 
0 0 0 0 0 0 0 0 0 
0 0 0 0 0 0 0 0 0 
0 0 0 0 0 0 0 0 0 
0 0 0 0 0 0 0 0 0 
0 0 0 0 0 0 0 0 0 
0 0 0 0 0 0 0 0 0 
0 0 0 0 0 0 0 0 0 
0 0 0 0 0 0 0 0 0 
0 0 0 0 0 0 0 0 0 
0 0 0 0 0 0 0 0 0 
0 0 0 0 0 0 0 0 0 
0 0 0 0 0 0 0 0 0 
0 0 0 0 0 0 0 0 0 
0 0 0 0 0 0 0 0 0 
0 0 0 0 0 0 0 0 0 
0 0 0 0 0 0 0 0 0 
0 0 0 0 0 0 0 0 0 
0 0 0 0 0 0 0 0 0 
0 0 0 0 0 0 0 0 0 
0 0 0 0 0 0 0 0 0 
0 0 0 0 0 0 0 0 0 
0 0 0 0 0 0 0 0 0 
0 0 0 0 0 0 0 0 0 
0 0 0 0 0 0 0 0 0 
0 0 0 0 0 0 0 0 0 
0 0 0 0 0 0 0 0 0 
0 0 0 0 0 0 0 0 0 
0 0 0 0 0 0 0 0 0 
0 0 0 0 0 0 0 0 0 
0 0 0 0 0 0 0 0 0 
0 0 0 0 0 0 0 0 0 
0 0 0 0 0 0 0 0 0 
0 0 0 0 0 0 0 0 0 
0 0 0 0 0 0 0 0 0 
0 0 0 0 0 0 0 0 0 
0 0 0 0 0 0 0 0 0 
0 0 0 0 0 0 0 0 0 
0 0 0 0 0 0 0 0 0 
0 0 0 0 0 0 0 0 0 
0 0 0 0 0 0 0 0 0 
0 0 0 0 0 0 0 0 0 
0 0 0 0 0 0 0 0 0 
0 0 0 0 0 0 0 0 0 
0 0 0 0 0 0 0 0 0 
0 0 0 
v 3 166 double
-0.73437412757 0.048248182168 0.14192559408 -0.53817191313 0.10279990275 0.11841208948 -0.72615218482 0.009366097318 0.11621777591 
-0.726997883 0.0093770053503 0.22076745035 -0.63591859651 -0.039450297487 -0.13739095405 -0.75112202757 -0.13566800949 0.10153526184 
-1.1700848973 0.45784193006 -0.17132536008 -0.69695482414 0.28675055182 0.11626867349 -0.46622543204 0.28658564139 -0.32541906229 
-0.71584803948 0.12790338348 0.086211307253 -0.71724740569 0.12815341374 0.2003940789 -0.75583993988 0.021473267826 0.23426046335 
-0.74228825994 -0.016696984948 0.19452297316 -0.55576444893 -0.24210604252 -0.075765247521 -0.73007221792 -0.0070138229157 -0.38160529148 
-0.72097167049 -0.26198189066 0.10769621826 -0.71666648092 0.26310328876 0.08642699787 -0.72111450957 0.16751643526 0.25055881085 
-0.74833531134 0.13968932231 0.23105077025 0.0053772640319 -0.75568784498 -0.31688601368 -0.73198125343 -0.17095954075 0.027782823506 
-0.71914082141 0.26401167102 0.19003622726 -0.73200731853 -0.17096562844 0.20518198232 -0.7129792142 0.12739079919 0.24264549279 
-0.50336110421 -0.24057639546 0.032659971254 -0.70278434049 0.28914901005 0.25276800196 0 0 -2.03353255 
0 0 -2.03765275 0 0 -2.03627935 0 0 -2.03431735 
-1.1733083124 -0.10362666163 -0.073358319567 0 0 -2.01185245 0 0 -1.99056475 
0 0 -1.98860275 0 0 -1.99723555 0 0 -1.99576405 
0 0 -1.98350155 0 0 -1.96397965 0 0 -1.91777455 
0 0 -1.92317005 0 0 -1.92120805 0 0 -1.91120185 
0 0 -1.90423675 0 0 -1.90717975 0 0 -1.91022085 
0 0 -1.88805025 0 0 -1.87696495 0 0 -1.87686685 
0 0 -1.86372145 0 0 -1.87402195 0 0 -1.87029415 
0 0 -1.83978505 0 0 -1.84518055 0 0 -1.82124415 
0 0 -1.82565865 0 0 -1.82820925 0 0 -1.83223135 
0 0 -1.81692775 0 0 -1.81545625 0 0 -1.79044075 
0 0 -1.78269085 0 0 -1.79220655 0 0 -1.77857065 
0 0 -1.76287465 0 0 -1.77023215 0 0 -1.74708055 
0 0 -1.74933685 0 0 -1.74943495 0 0 -1.73844775 
0 0 -1.71725815 0 0 -1.72932445 0 0 -1.68733765 
0 0 -1.68831865 0 0 -1.68390415 0 0 -1.67978395 
0 0 -1.66958155 0 0 -1.66958155 0 0 -1.66634425 
0 0 -1.66192975 0 0 -1.66958155 0 0 -1.62945865 
0 0 -1.64064205 0 0 -1.63779715 0 0 -1.61464555 
0 0 -1.61278165 0 0 -1.60483555 0 0 -1.61464555 
0 0 -1.61415505 0 0 -1.59100345 0 0 -1.59639895 
0 0 -1.56196585 0 0 -1.56147535 0 0 -1.54401355 
0 0 -1.53547885 0 0 -1.54313065 0 0 -1.54067815 
0 0 -1.51811515 0 0 -1.52115625 0 0 -1.49319775 
0 0 -1.49241295 0 0 -1.47024235 0 0 -1.46278675 
0 0 -1.46249245 0 0 -1.46671075 0 0 -1.44248005 
0 0 -1.44346105 0 0 -1.42148665 0 0 -1.41412915 
0 0 -1.38823075 0 0 -1.40157235 0 0 -1.38930985 
0 0 -1.38872125 0 0 -1.37969605 0 0 -1.38077515 
0 0 -1.37106325 0 0 -1.34231995 0 0 -1.34987365 
0 0 -1.34683255 0 0 -1.33819975 0 0 -1.32829165 
0 0 -1.33113655 0 0 -1.34506675 0 0 -1.31338045 
0 0 -1.31750065 0 0 -1.32436765 0 0 -1.28159605 
0 0 -1.27678915 0 0 -1.28002645 0 0 -1.26158365 
0 0 -1.26334945 0 0 -1.24274845 0 0 -1.25746345 
0 0 -1.24088455 0 0 -1.23372325 0 0 -1.18516375 
0 0 -1.19507185 0 0 -1.19114785 0 0 -1.17957205 
0 0 -1.18447705 0 0 -1.17270505 0 0 -1.17476515 
0 0 -1.15171165 0 0 -1.17339175 0 0 -1.13611375 
0 0 -1.11786715 0 0 -1.14494275 0 0 -1.14504085 
0 0 -1.08725995 0 0 -1.10383885 0 0 -1.09285165 
0 0 -1.10599705 0 0 -1.09206685 0 0 -1.07921575 
0 0 -1.04576365 0 0 -1.07509555 0 0 -1.05174775 
0 0 -1.05145345 0 0 -1.02388735 0 0 -1.02663415 
0 0 -1.03399165 0 0 -1.00917235 0 0 -1 
0 0 -1 0 0 -1 0 0 -1 
0 0 -1.00789705 
f 3 166 double
0 0 -0.00034671401923 0 0 -0.00034671401923 0 0 -0.0016051574964 
0 0 -0.00034671401923 0 0 -0.00034671401923 0 0 -0.00034671401923 
0 0 -0.00034671401923 0 0 -0.0016051574964 0 0 -0.0016051574964 
0 0 -0.00034671401923 0 0 -0.00034671401923 0 0 -0.0016051574964 
0 0 -0.00034671401923 0 0 -0.0016051574964 0 0 -0.0016051574964 
0 0 -0.00034671401923 0 0 -0.00034671401923 0 0 -0.00034671401923 
0 0 -0.00034671401923 0 0 -0.00034671401923 0 0 -0.00034671401923 
0 0 -0.00034671401923 0 0 -0.0016051574964 0 0 -0.0016051574964 
0 0 -0.0016051574964 0 0 -0.00034671401923 0 0 -0.0016051574964 
0 0 -0.0016051574964 0 0 -0.0016051574964 0 0 -0.00034671401923 
0 0 -0.00034671401923 0 0 -0.00034671401923 0 0 -0.00034671401923 
0 0 -0.00034671401923 0 0 -0.0016051574964 0 0 -0.00034671401923 
0 0 -0.00034671401923 0 0 -0.0016051574964 0 0 -0.00034671401923 
0 0 -0.0016051574964 0 0 -0.00034671401923 0 0 -0.00034671401923 
0 0 -0.00034671401923 0 0 -0.00034671401923 0 0 -0.00034671401923 
0 0 -0.00034671401923 0 0 -0.0016051574964 0 0 -0.00034671401923 
0 0 -0.0016051574964 0 0 -0.0016051574964 0 0 -0.0016051574964 
0 0 -0.00034671401923 0 0 -0.00034671401923 0 0 -0.00034671401923 
0 0 -0.00034671401923 0 0 -0.0016051574964 0 0 -0.00034671401923 
0 0 -0.0016051574964 0 0 -0.0016051574964 0 0 -0.0016051574964 
0 0 -0.00034671401923 0 0 -0.00034671401923 0 0 -0.00034671401923 
0 0 -0.00034671401923 0 0 -0.00034671401923 0 0 -0.00034671401923 
0 0 -0.0016051574964 0 0 -0.0016051574964 0 0 -0.00034671401923 
0 0 -0.00034671401923 0 0 -0.00034671401923 0 0 -0.00034671401923 
0 0 -0.00034671401923 0 0 -0.00034671401923 0 0 -0.00034671401923 
0 0 -0.0016051574964 0 0 -0.00034671401923 0 0 -0.0016051574964 
0 0 -0.0016051574964 0 0 -0.00034671401923 0 0 -0.0016051574964 
0 0 -0.00034671401923 0 0 -0.00034671401923 0 0 -0.00034671401923 
0 0 -0.0016051574964 0 0 -0.00034671401923 0 0 -0.00034671401923 
0 0 -0.00034671401923 0 0 -0.0016051574964 0 0 -0.00034671401923 
0 0 -0.00034671401923 0 0 -0.00034671401923 0 0 -0.00034671401923 
0 0 -0.00034671401923 0 0 -0.00034671401923 0 0 -0.0016051574964 
0 0 -0.00034671401923 0 0 -0.0016051574964 0 0 -0.00034671401923 
0 0 -0.00034671401923 0 0 -0.0016051574964 0 0 -0.00034671401923 
0 0 -0.00034671401923 0 0 -0.0016051574964 0 0 -0.00034671401923 
0 0 -0.0016051574964 0 0 -0.0016051574964 0 0 -0.00034671401923 
0 0 -0.00034671401923 0 0 -0.00034671401923 0 0 -0.00034671401923 
0 0 -0.0016051574964 0 0 -0.00034671401923 0 0 -0.0016051574964 
0 0 -0.00034671401923 0 0 -0.0016051574964 0 0 -0.00034671401923 
0 0 -0.00034671401923 0 0 -0.0016051574964 0 0 -0.00034671401923 
0 0 -0.0016051574964 0 0 -0.0016051574964 0 0 -0.00034671401923 
0 0 -0.00034671401923 0 0 -0.0016051574964 0 0 -0.00034671401923 
0 0 -0.00034671401923 0 0 -0.00034671401923 0 0 -0.00034671401923 
0 0 -0.00034671401923 0 0 -0.00034671401923 0 0 -0.0016051574964 
0 0 -0.0016051574964 0 0 -0.00034671401923 0 0 -0.0016051574964 
0 0 -0.00034671401923 0 0 -0.00034671401923 0 0 -0.00034671401923 
0 0 -0.00034671401923 0 0 -0.0016051574964 0 0 -0.00034671401923 
0 0 -0.00034671401923 0 0 -0.0016051574964 0 0 -0.0016051574964 
0 0 -0.0016051574964 0 0 -0.00034671401923 0 0 -0.00034671401923 
0 0 -0.00034671401923 0 0 -0.0016051574964 0 0 -0.0016051574964 
0 0 -0.00034671401923 0 0 -0.00034671401923 0 0 -0.00034671401923 
0 0 -0.00034671401923 0 0 -0.0016051574964 0 0 -0.00034671401923 
0 0 -0.0016051574964 0 0 -0.00034671401923 0 0 -0.00034671401923 
0 0 -0.00034671401923 0 0 -0.0016051574964 0 0 0 
0 0 0 0 0 0 0 0 0 
0 0 -0.0016051574964 
radius 1 166 double
0.0015 0.0015 0.0025 0.0015 0.0015 0.0015 0.0015 0.0025 0.0025 
0.0015 0.0015 0.0025 0.0015 0.0025 0.0025 0.0015 0.0015 0.0015 
0.0015 0.0015 0.0015 0.0015 0.0025 0.0025 0.0025 0.0015 0.0025 
0.0025 0.0025 0.0015 0.0015 0.0015 0.0015 0.0015 0.0025 0.0015 
0.0015 0.0025 0.0015 0.0025 0.0015 0.0015 0.0015 0.0015 0.0015 
0.0015 0.0025 0.0015 0.0025 0.0025 0.0025 0.0015 0.0015 0.0015 
0.0015 0.0025 0.0015 0.0025 0.0025 0.0025 0.0015 0.0015 0.0015 
0.0015 0.0015 0.0015 0.0025 0.0025 0.0015 0.0015 0.0015 0.0015 
0.0015 0.0015 0.0015 0.0025 0.0015 0.0025 0.0025 0.0015 0.0025 
0.0015 0.0015 0.0015 0.0025 0.0015 0.0015 0.0015 0.0025 0.0015 
0.0015 0.0015 0.0015 0.0015 0.0015 0.0025 0.0015 0.0025 0.0015 
0.0015 0.0025 0.0015 0.0015 0.0025 0.0015 0.0025 0.0025 0.0015 
0.0015 0.0015 0.0015 0.0025 0.0015 0.0025 0.0015 0.0025 0.0015 
0.0015 0.0025 0.0015 0.0025 0.0025 0.0015 0.0015 0.0025 0.0015 
0.0015 0.0015 0.0015 0.0015 0.0015 0.0025 0.0025 0.0015 0.0025 
0.0015 0.0015 0.0015 0.0015 0.0025 0.0015 0.0015 0.0025 0.0025 
0.0025 0.0015 0.0015 0.0015 0.0025 0.0025 0.0015 0.0015 0.0015 
0.0015 0.0025 0.0015 0.0025 0.0015 0.0015 0.0015 0.0025 0.0025 
0.0015 0.0015 0.0025 0.0025 
omega 3 166 double
-24.449373837 -372.13811534 4.7501171527e-15 -52.644118941 -279.10449441 10.19644167 -2.88476401 -223.6553409 -1.9133269531e-16 
-4.7986786633 -372.04087009 1.1459708785e-15 19.36541976 -380.14301931 -13.907942885 68.910007313 -381.51827101 3.9403029229e-15 
-273.17216518 -747.79938375 -209.93997845 -88.749016132 -215.70683836 -3.2855428141e-15 -53.209441266 -219.19956266 17.367152927 
-65.881516809 -368.72484029 -1.4284031096e-14 -65.754446804 -368.01365649 1.6881416973e-14 -6.6281877198 -233.30631594 3.0365059305e-15 
8.6128711383 -382.89746024 2.8534537832e-15 -17.703055782 -284.21009239 -31.747699086 90.90835954 -150.35114984 28.8696814 
133.93957814 -368.60044468 6.0095095217e-15 -135.70422402 -369.6444432 8.7748112008e-15 -85.075029757 -366.22578713 2.1138113508e-14 
-71.727473351 -384.25414494 1.4902541031e-14 291.92446398 572.56011813 220.35598303 87.775431565 -375.81974153 6.0377299216e-14 
-136.47776377 -371.75148646 -5.9980058188e-15 52.851364984 -226.28867752 -1.3468433071e-14 -39.16014058 -219.17097967 3.2977689665e-15 
80.09158567 -167.22056971 0.906336676 -147.37071394 -358.18843021 4.7652212389e-14 0 0 0 
0 0 0 0 0 0 0 0 0 
223.79222031 43.931201703 132.35689657 0 0 0 0 0 0 
0 0 0 0 0 0 0 0 0 
0 0 0 0 0 0 0 0 0 
0 0 0 0 0 0 0 0 0 
0 0 0 0 0 0 0 0 0 
0 0 0 0 0 0 0 0 0 
0 0 0 0 0 0 0 0 0 
0 0 0 0 0 0 0 0 0 
0 0 0 0 0 0 0 0 0 
0 0 0 0 0 0 0 0 0 
0 0 0 0 0 0 0 0 0 
0 0 0 0 0 0 0 0 0 
0 0 0 0 0 0 0 0 0 
0 0 0 0 0 0 0 0 0 
0 0 0 0 0 0 0 0 0 
0 0 0 0 0 0 0 0 0 
0 0 0 0 0 0 0 0 0 
0 0 0 0 0 0 0 0 0 
0 0 0 0 0 0 0 0 0 
0 0 0 0 0 0 0 0 0 
0 0 0 0 0 0 0 0 0 
0 0 0 0 0 0 0 0 0 
0 0 0 0 0 0 0 0 0 
0 0 0 0 0 0 0 0 0 
0 0 0 0 0 0 0 0 0 
0 0 0 0 0 0 0 0 0 
0 0 0 0 0 0 0 0 0 
0 0 0 0 0 0 0 0 0 
0 0 0 0 0 0 0 0 0 
0 0 0 0 0 0 0 0 0 
0 0 0 0 0 0 0 0 0 
0 0 0 0 0 0 0 0 0 
0 0 0 0 0 0 0 0 0 
0 0 0 0 0 0 0 0 0 
0 0 0 0 0 0 0 0 0 
0 0 0 0 0 0 0 0 0 
0 0 0 0 0 0 0 0 0 
0 0 0 0 0 0 0 0 0 
0 0 0 0 0 0 0 0 0 
0 0 0 0 0 0 0 0 0 
0 0 0 0 0 0 0 0 0 
0 0 0 0 0 0 0 0 0 
0 0 0 0 0 0 0 0 0 
0 0 0 0 0 0 0 0 0 
0 0 0 0 0 0 0 0 0 
0 0 0 
