# vtk DataFile Version 4.1
Generated by LIGGGHTS
ASCII
DATASET POLYDATA
POINTS 114 float
-0.0208226 -0.00599195 -0.0747683 -0.00462371 0.0206347 -0.0753952 -0.00894204 -0.016163 -0.0726955 
-0.0299058 -0.00882918 -0.0735954 -0.0190478 0.013684 -0.071711 -0.0160886 0.0216478 -0.0720797 
-0.00174714 0.0260627 -0.0743435 -0.00953586 0.00971988 -0.068033 -0.00217367 0.0240852 -0.067799 
-0.0134792 -0.0343741 -0.0608887 -0.00618745 -0.0313193 -0.0620085 -0.0106535 -0.0244251 -0.0633906 
-0.0124546 0.031784 -0.0620485 -0.028663 -0.019004 -0.0536288 -0.0214597 -0.00448395 -0.0556031 
-0.0244429 0.0229939 -0.0559134 -0.0202974 -0.0199605 -0.0488864 -0.0101549 -0.0158816 -0.0523223 
-0.0275046 -0.000700049 -0.0513903 -0.0083641 0.00277185 -0.0507119 -0.0219947 -0.0107694 -0.0480656 
-0.00857183 -0.027925 -0.0450273 -0.00408721 -0.0194644 -0.0424585 -0.00454319 0.0203252 -0.0440454 
-0.00174502 0.0344165 -0.0422612 -0.0159102 -0.0341757 -0.0392229 -0.0327631 -0.0200888 -0.0363037 
-0.0159539 -0.00381092 -0.0369976 -0.0300659 -0.00019371 -0.0367652 -0.0235267 0.0224168 -0.0364332 
-0.0230202 -0.021037 -0.0333562 -0.000459601 -0.00791581 -0.0302976 -0.0229734 0.000876534 -0.0327072 
-0.020721 -0.0135944 -0.0292105 -0.0127396 -0.0137041 -0.0288956 -0.0221714 0.00979368 -0.0300644 
-0.0240929 0.0291618 -0.0280605 -0.0160817 -0.000243398 -0.0249119 -0.0175025 -0.0228838 -0.016608 
-0.022804 -0.0140579 -0.0155282 -0.0251247 -0.00571197 -0.0159863 -0.024531 -1.04943e-05 -0.0176254 
-0.0306884 0.0042356 -0.0184633 -0.018642 0.00531382 -0.0164545 -0.027916 0.0296421 -0.0181602 
-0.0105626 -0.00654333 -0.013051 -0.0294843 -0.0242442 -0.00936633 -0.027846 0.00485213 -0.0113612 
-0.00180681 0.0181929 -0.0109179 -0.0178022 0.0256262 -0.0113436 -0.021213 0.0304724 -0.0103504 
-0.0337701 0.0102173 -0.00580915 -0.0284955 0.0109203 -0.00410726 -0.0264294 0.0258143 -0.00469378 
-0.0315539 0.028352 -0.00660073 -0.0221544 -0.0267021 -0.00246122 -0.0188291 -0.0129094 -0.00225003 
-0.0262531 0.00245318 -0.0030879 -0.0274253 0.00637934 -0.00373524 -0.0046838 -0.0346092 0.00135236 
-0.0205837 -0.0294247 0.00244893 -0.00322644 -0.0143029 0.00110283 -0.00206763 0.0123655 0.00303544 
-0.0181818 0.00594264 0.00524273 -0.0113639 0.00609324 0.00712249 -0.0237558 0.020832 0.00710878 
-0.0315184 0.0323336 0.00421362 -0.00317446 -0.00327501 0.00743364 -0.0233787 0.0259916 0.00862002 
-0.00618278 0.0247152 0.00987139 -0.0101315 -0.0171842 0.011502 -0.00512449 -0.0296766 0.0155055 
-0.0132118 -0.0121788 0.0153674 -0.0226093 -0.00790771 0.0159547 -0.00331379 -0.00673963 0.0178286 
-0.0203284 0.0149576 0.0178307 -0.0332492 0.0212435 0.0182549 -0.0176419 0.0252752 0.0164952 
-0.0088354 0.0340944 0.0178246 -0.0255344 0.010562 0.0215511 -0.0156099 0.0123479 0.0219189 
-0.025261 0.030812 0.0188254 -0.0166674 -0.0199684 0.0248309 -0.006758 -0.00417797 0.0229719 
-0.016039 -0.000886859 0.0250637 -0.0199892 0.00645928 0.026046 -0.0136151 0.0110949 0.0248258 
-0.0302008 0.015853 0.024892 -0.0138041 -0.0299263 0.0277436 -0.0118987 0.0289343 0.027081 
-0.0267621 -0.0219194 0.0333762 -0.0135716 -0.00811727 0.0312501 -0.00739645 0.00376164 0.0313104 
-0.0141771 0.0177987 0.0334732 -0.00471042 0.0296342 0.0337604 -0.00791609 -0.0196794 0.0363788 
-0.020149 -0.00685329 0.0343747 -0.0179545 0.0159092 0.0360265 -0.00439906 -0.0328903 0.0392102 
-0.0296076 0.00722911 0.0392986 -0.016986 -0.0318376 0.0417603 -0.0281298 -0.0148599 0.0425717 
-0.0161861 -0.00599108 0.0426033 -0.0292679 0.0147935 0.0447657 -0.00205293 0.0165512 0.0446636 
-0.0227935 0.0274334 0.0421449 -0.0305301 0.00502779 0.0469927 -0.00405648 0.032442 0.0477594 
-0.0135333 -0.0276689 0.0504212 -0.0112712 -0.0202504 0.0490585 -0.0331337 -0.0163611 0.0512945 
-2.29018e-06 -0.0149558 0.0503194 -0.0273798 -0.00441029 0.0511828 -0.00301846 0.00510814 0.0503771 

VERTICES 114 228
1 0 
1 1 
1 2 
1 3 
1 4 
1 5 
1 6 
1 7 
1 8 
1 9 
1 10 
1 11 
1 12 
1 13 
1 14 
1 15 
1 16 
1 17 
1 18 
1 19 
1 20 
1 21 
1 22 
1 23 
1 24 
1 25 
1 26 
1 27 
1 28 
1 29 
1 30 
1 31 
1 32 
1 33 
1 34 
1 35 
1 36 
1 37 
1 38 
1 39 
1 40 
1 41 
1 42 
1 43 
1 44 
1 45 
1 46 
1 47 
1 48 
1 49 
1 50 
1 51 
1 52 
1 53 
1 54 
1 55 
1 56 
1 57 
1 58 
1 59 
1 60 
1 61 
1 62 
1 63 
1 64 
1 65 
1 66 
1 67 
1 68 
1 69 
1 70 
1 71 
1 72 
1 73 
1 74 
1 75 
1 76 
1 77 
1 78 
1 79 
1 80 
1 81 
1 82 
1 83 
1 84 
1 85 
1 86 
1 87 
1 88 
1 89 
1 90 
1 91 
1 92 
1 93 
1 94 
1 95 
1 96 
1 97 
1 98 
1 99 
1 100 
1 101 
1 102 
1 103 
1 104 
1 105 
1 106 
1 107 
1 108 
1 109 
1 110 
1 111 
1 112 
1 113 

POINT_DATA 114
FIELD FieldData 7
id 1 114 int
2 7 12 10 6 4 1 8 9 
3 13 5 11 20 19 22 23 18 
16 21 25 24 15 14 17 38 30 
29 28 33 35 26 31 32 36 37 
34 27 50 47 51 49 42 48 44 
45 40 43 39 46 41 60 55 61 
56 54 53 59 64 52 62 63 58 
73 65 67 57 72 69 71 75 76 
70 77 68 86 66 74 84 85 82 
80 87 81 78 89 90 88 79 83 
100 98 99 96 92 101 95 91 97 
102 93 110 113 114 104 94 106 107 
109 111 112 108 105 103 
type 1 114 int
1 1 1 1 1 1 1 1 1 
1 1 1 1 1 1 1 1 1 
1 1 1 1 1 1 1 1 1 
1 1 1 1 1 1 1 1 1 
1 1 1 1 1 1 1 1 1 
1 1 1 1 1 1 1 1 1 
1 1 1 1 1 1 1 1 1 
1 1 1 1 1 1 1 1 1 
1 1 1 1 1 1 1 1 1 
1 1 1 1 1 1 1 1 1 
1 1 1 1 1 1 1 1 1 
1 1 1 1 1 1 1 1 1 
1 1 1 1 1 1 
i 3 114 int
0 0 0 0 0 0 0 0 0 
0 0 0 0 0 0 0 0 0 
0 0 0 0 0 0 0 0 0 
0 0 0 0 0 0 0 0 0 
0 0 0 0 0 0 0 0 0 
0 0 0 0 0 0 0 0 0 
0 0 0 0 0 0 0 0 0 
0 0 0 0 0 0 0 0 0 
0 0 0 0 0 0 0 0 0 
0 0 0 0 0 0 0 0 0 
0 0 0 0 0 0 0 0 0 
0 0 0 0 0 0 0 0 0 
0 0 0 0 0 0 0 0 0 
0 0 0 0 0 0 0 0 0 
0 0 0 0 0 0 0 0 0 
0 0 0 0 0 0 0 0 0 
0 0 0 0 0 0 0 0 0 
0 0 0 0 0 0 0 0 0 
0 0 0 0 0 0 0 0 0 
0 0 0 0 0 0 0 0 0 
0 0 0 0 0 0 0 0 0 
0 0 0 0 0 0 0 0 0 
0 0 0 0 0 0 0 0 0 
0 0 0 0 0 0 0 0 0 
0 0 0 0 0 0 0 0 0 
0 0 0 0 0 0 0 0 0 
0 0 0 0 0 0 0 0 0 
0 0 0 0 0 0 0 0 0 
0 0 0 0 0 0 0 0 0 
0 0 0 0 0 0 0 0 0 
0 0 0 0 0 0 0 0 0 
0 0 0 0 0 0 0 0 0 
0 0 0 0 0 0 0 0 0 
0 0 0 0 0 0 0 0 0 
0 0 0 0 0 0 0 0 0 
0 0 0 0 0 0 0 0 0 
0 0 0 0 0 0 0 0 0 
0 0 0 0 0 0 0 0 0 

v 3 114 double
0 0 -1.85685445 0 0 -1.86018985 0 0 -1.84586725 
0 0 -1.85067415 0 0 -1.84066795 0 0 -1.84262995 
0 0 -1.85459815 0 0 -1.82094985 0 0 -1.81967455 
0 0 -1.78200415 0 0 -1.78818445 0 0 -1.79573815 
0 0 -1.78838065 0 0 -1.74158695 0 0 -1.75267225 
0 0 -1.75443805 0 0 -1.71470755 0 0 -1.73422945 
0 0 -1.72893205 0 0 -1.72510615 0 0 -1.70999875 
0 0 -1.69243885 0 0 -1.67752765 0 0 -1.68674905 
0 0 -1.67635045 0 0 -1.65849625 0 0 -1.64113255 
0 0 -1.64525275 0 0 -1.64387935 0 0 -1.64191735 
0 0 -1.62337645 0 0 -1.60483555 0 0 -1.61945245 
0 0 -1.59816475 0 0 -1.59620275 0 0 -1.60336405 
0 0 -1.59110155 0 0 -1.57157965 0 0 -1.51880185 
0 0 -1.51183675 0 0 -1.51477975 0 0 -1.52537455 
0 0 -1.53077005 0 0 -1.51782085 0 0 -1.52880805 
0 0 -1.49565025 0 0 -1.47132145 0 0 -1.48456495 
0 0 -1.48162195 0 0 -1.48446685 0 0 -1.47789415 
0 0 -1.44738505 0 0 -1.43580925 0 0 -1.43983135 
0 0 -1.45278055 0 0 -1.42452775 0 0 -1.42305625 
0 0 -1.42884415 0 0 -1.43325865 0 0 -1.39804075 
0 0 -1.39029085 0 0 -1.39980655 0 0 -1.38617065 
0 0 -1.37047465 0 0 -1.35693685 0 0 -1.35703495 
0 0 -1.37783215 0 0 -1.35468055 0 0 -1.34604775 
0 0 -1.33692445 0 0 -1.32485815 0 0 -1.29493765 
0 0 -1.29591865 0 0 -1.29150415 0 0 -1.27718155 
0 0 -1.27718155 0 0 -1.27394425 0 0 -1.28738395 
0 0 -1.27718155 0 0 -1.24824205 0 0 -1.24539715 
0 0 -1.26952975 0 0 -1.22224555 0 0 -1.23705865 
0 0 -1.22038165 0 0 -1.21243555 0 0 -1.22224555 
0 0 -1.22175505 0 0 -1.19860345 0 0 -1.20399895 
0 0 -1.15161355 0 0 -1.16956585 0 0 -1.16907535 
0 0 -1.15073065 0 0 -1.14827815 0 0 -1.12571515 
0 0 -1.14307885 0 0 -1.12875625 0 0 -1.10079775 
0 0 -1.10001295 0 0 -1.07784235 0 0 -1.07038675 
0 0 -1.07009245 0 0 -1.05008005 0 0 -1.05106105 
0 0 -1.07431075 0 0 -1.02908665 0 0 -1.02172915 
0 0 -1 0 0 -1.00917235 0 0 -1 
0 0 -1 0 0 -1 0 0 -1 

f 3 114 double
0 0 -0.0016051574964 0 0 -0.00034671401923 0 0 -0.00034671401923 
0 0 -0.00034671401923 0 0 -0.00034671401923 0 0 -0.0016051574964 
0 0 -0.0016051574964 0 0 -0.00034671401923 0 0 -0.00034671401923 
0 0 -0.0016051574964 0 0 -0.00034671401923 0 0 -0.0016051574964 
0 0 -0.00034671401923 0 0 -0.00034671401923 0 0 -0.00034671401923 
0 0 -0.00034671401923 0 0 -0.00034671401923 0 0 -0.00034671401923 
0 0 -0.0016051574964 0 0 -0.00034671401923 0 0 -0.00034671401923 
0 0 -0.00034671401923 0 0 -0.0016051574964 0 0 -0.0016051574964 
0 0 -0.0016051574964 0 0 -0.00034671401923 0 0 -0.0016051574964 
0 0 -0.0016051574964 0 0 -0.0016051574964 0 0 -0.00034671401923 
0 0 -0.00034671401923 0 0 -0.0016051574964 0 0 -0.00034671401923 
0 0 -0.00034671401923 0 0 -0.00034671401923 0 0 -0.00034671401923 
0 0 -0.00034671401923 0 0 -0.0016051574964 0 0 -0.00034671401923 
0 0 -0.00034671401923 0 0 -0.00034671401923 0 0 -0.00034671401923 
0 0 -0.0016051574964 0 0 -0.00034671401923 0 0 -0.00034671401923 
0 0 -0.00034671401923 0 0 -0.0016051574964 0 0 -0.0016051574964 
0 0 -0.0016051574964 0 0 -0.00034671401923 0 0 -0.0016051574964 
0 0 -0.00034671401923 0 0 -0.0016051574964 0 0 -0.00034671401923 
0 0 -0.00034671401923 0 0 -0.0016051574964 0 0 -0.0016051574964 
0 0 -0.00034671401923 0 0 -0.00034671401923 0 0 -0.0016051574964 
0 0 -0.00034671401923 0 0 -0.00034671401923 0 0 -0.00034671401923 
0 0 -0.00034671401923 0 0 -0.0016051574964 0 0 -0.0016051574964 
0 0 -0.00034671401923 0 0 -0.00034671401923 0 0 -0.00034671401923 
0 0 -0.00034671401923 0 0 -0.00034671401923 0 0 -0.00034671401923 
0 0 -0.00034671401923 0 0 -0.00034671401923 0 0 -0.0016051574964 
0 0 -0.00034671401923 0 0 -0.0016051574964 0 0 -0.00034671401923 
0 0 -0.00034671401923 0 0 -0.00034671401923 0 0 -0.00034671401923 
0 0 -0.0016051574964 0 0 -0.00034671401923 0 0 -0.0016051574964 
0 0 -0.0016051574964 0 0 -0.00034671401923 0 0 -0.00034671401923 
0 0 -0.00034671401923 0 0 -0.0016051574964 0 0 -0.00034671401923 
0 0 -0.00034671401923 0 0 -0.00034671401923 0 0 -0.00034671401923 
0 0 -0.00034671401923 0 0 -0.0016051574964 0 0 -0.00034671401923 
0 0 -0.00034671401923 0 0 -0.0016051574964 0 0 -0.00034671401923 
0 0 -0.00034671401923 0 0 -0.0016051574964 0 0 -0.00034671401923 
0 0 -0.00034671401923 0 0 -0.00034671401923 0 0 -0.0016051574964 
0 0 -0.0016051574964 0 0 -0.0016051574964 0 0 -0.00034671401923 
0 0 0 0 0 -0.00034671401923 0 0 0 
0 0 0 0 0 0 0 0 0 

radius 1 114 double
0.0025 0.0015 0.0015 0.0015 0.0015 0.0025 0.0025 0.0015 0.0015 
0.0025 0.0015 0.0025 0.0015 0.0015 0.0015 0.0015 0.0015 0.0015 
0.0025 0.0015 0.0015 0.0015 0.0025 0.0025 0.0025 0.0015 0.0025 
0.0025 0.0025 0.0015 0.0015 0.0025 0.0015 0.0015 0.0015 0.0015 
0.0015 0.0025 0.0015 0.0015 0.0015 0.0015 0.0025 0.0015 0.0015 
0.0015 0.0025 0.0025 0.0025 0.0015 0.0025 0.0015 0.0025 0.0015 
0.0015 0.0025 0.0025 0.0015 0.0015 0.0025 0.0015 0.0015 0.0015 
0.0015 0.0025 0.0025 0.0015 0.0015 0.0015 0.0015 0.0015 0.0015 
0.0015 0.0015 0.0025 0.0015 0.0025 0.0015 0.0015 0.0015 0.0015 
0.0025 0.0015 0.0025 0.0025 0.0015 0.0015 0.0015 0.0025 0.0015 
0.0015 0.0015 0.0015 0.0015 0.0025 0.0015 0.0015 0.0025 0.0015 
0.0015 0.0025 0.0015 0.0015 0.0015 0.0025 0.0025 0.0025 0.0015 
0.0015 0.0015 0.0015 0.0015 0.0025 0.0025 
omega 3 114 double
0 0 0 0 0 0 0 0 0 
0 0 0 0 0 0 0 0 0 
0 0 0 0 0 0 0 0 0 
0 0 0 0 0 0 0 0 0 
0 0 0 0 0 0 0 0 0 
0 0 0 0 0 0 0 0 0 
0 0 0 0 0 0 0 0 0 
0 0 0 0 0 0 0 0 0 
0 0 0 0 0 0 0 0 0 
0 0 0 0 0 0 0 0 0 
0 0 0 0 0 0 0 0 0 
0 0 0 0 0 0 0 0 0 
0 0 0 0 0 0 0 0 0 
0 0 0 0 0 0 0 0 0 
0 0 0 0 0 0 0 0 0 
0 0 0 0 0 0 0 0 0 
0 0 0 0 0 0 0 0 0 
0 0 0 0 0 0 0 0 0 
0 0 0 0 0 0 0 0 0 
0 0 0 0 0 0 0 0 0 
0 0 0 0 0 0 0 0 0 
0 0 0 0 0 0 0 0 0 
0 0 0 0 0 0 0 0 0 
0 0 0 0 0 0 0 0 0 
0 0 0 0 0 0 0 0 0 
0 0 0 0 0 0 0 0 0 
0 0 0 0 0 0 0 0 0 
0 0 0 0 0 0 0 0 0 
0 0 0 0 0 0 0 0 0 
0 0 0 0 0 0 0 0 0 
0 0 0 0 0 0 0 0 0 
0 0 0 0 0 0 0 0 0 
0 0 0 0 0 0 0 0 0 
0 0 0 0 0 0 0 0 0 
0 0 0 0 0 0 0 0 0 
0 0 0 0 0 0 0 0 0 
0 0 0 0 0 0 0 0 0 
0 0 0 0 0 0 0 0 0 

