# vtk DataFile Version 4.1
Generated by LIGGGHTS
ASCII
DATASET POLYDATA
POINTS 102 float
-0.0208226 -0.00599195 -0.0566903 -0.00462371 0.0206347 -0.0572838 -0.00174714 0.0260627 -0.056288 
-0.00894204 -0.016163 -0.0547273 -0.0299058 -0.00882918 -0.0555791 -0.0190478 0.013684 -0.0537949 
-0.0160886 0.0216478 -0.0541439 -0.00953586 0.00971988 -0.050314 -0.00217367 0.0240852 -0.0500928 
-0.0106535 -0.0244251 -0.0459238 -0.0134792 -0.0343741 -0.0435591 -0.00618745 -0.0313193 -0.0446171 
-0.0124546 0.031784 -0.0446552 -0.0214597 -0.00448395 -0.0385669 -0.0244429 0.0229939 -0.0388596 
-0.028663 -0.019004 -0.0367034 -0.0101549 -0.0158816 -0.0354705 -0.0275046 -0.000700049 -0.0345915 
-0.0083641 0.00277185 -0.0339514 -0.0202974 -0.0199605 -0.0322298 -0.0219947 -0.0107694 -0.0314561 
-0.00857183 -0.027925 -0.0285934 -0.00454319 0.0203252 -0.0276684 -0.0159102 -0.0341757 -0.0231285 
-0.00408721 -0.0194644 -0.0261737 -0.00174502 0.0344165 -0.0259882 -0.0327631 -0.0200888 -0.0203829 
-0.0159539 -0.00381092 -0.0210356 -0.0300659 -0.00019371 -0.0208169 -0.0235267 0.0224168 -0.0205045 
-0.0230202 -0.021037 -0.0176129 -0.0229734 0.000876534 -0.0170032 -0.020721 -0.0135944 -0.0137193 
-0.0127396 -0.0137041 -0.0134241 -0.000459601 -0.00791581 -0.0147397 -0.0221714 0.00979368 -0.0145213 
-0.0240929 0.0291618 -0.01264 -0.0160817 -0.000243398 -0.00968665 -0.0175025 -0.0228838 -0.00191049 
-0.022804 -0.0140579 -0.000900299 -0.0251247 -0.00571197 -0.00132899 -0.024531 -1.04943e-05 -0.00286217 
-0.0306884 0.0042356 -0.00364608 -0.018642 0.00531382 -0.00176679 -0.027916 0.0296421 -0.00336263 
-0.0105626 -0.00654333 0.00141496 -0.027846 0.00485213 0.00299391 -0.00180681 0.0181929 0.00340779 
-0.0178022 0.0256262 0.00301055 -0.0294843 -0.0242442 0.00485639 -0.021213 0.0304724 0.00393801 
-0.0262531 0.00245318 0.01071 -0.0274253 0.00637934 0.0101068 -0.0337701 0.0102173 0.0081742 
-0.0284955 0.0109203 0.00976033 -0.0264294 0.0258143 0.00921403 -0.0315539 0.028352 0.00743657 
-0.0046838 -0.0346092 0.0148423 -0.0221544 -0.0267021 0.0112936 -0.00322644 -0.0143029 0.0146104 
-0.0188291 -0.0129094 0.01149 -0.0205837 -0.0294247 0.0158613 -0.0181818 0.00594264 0.018457 
-0.00206763 0.0123655 0.0164066 -0.0315184 0.0323336 0.0175014 -0.00317446 -0.00327501 0.0204899 
-0.0113639 0.00609324 0.0202014 -0.0237558 0.020832 0.0201886 -0.0233787 0.0259916 0.02159 
-0.0101315 -0.0171842 0.0242601 -0.00618278 0.0247152 0.0227501 -0.00512449 -0.0296766 0.0279644 
-0.0132118 -0.0121788 0.0278361 -0.0226093 -0.00790771 0.0283793 -0.0176419 0.0252752 0.0288786 
-0.00331379 -0.00673963 0.0301099 -0.0255344 0.010562 0.0335431 -0.0156099 0.0123479 0.0338823 
-0.0203284 0.0149576 0.030112 -0.0332492 0.0212435 0.0305039 -0.025261 0.030812 0.0310302 
-0.0088354 0.0340944 0.0301059 -0.0166674 -0.0199684 0.0365629 -0.006758 -0.00417797 0.034852 
-0.016039 -0.000886859 0.036777 -0.0199892 0.00645928 0.0376799 -0.0136151 0.0110949 0.0365578 
-0.0302008 0.015853 0.0366191 -0.0138041 -0.0299263 0.0392392 -0.0118987 0.0289343 0.0386305 
-0.0179545 0.0159092 0.0468235 -0.00471042 0.0296342 0.0447527 -0.016986 -0.0318376 0.0520691 
-0.0227935 0.0274334 0.0524263 -0.020149 -0.00685329 0.045315 -0.0141771 0.0177987 0.04449 
-0.00439906 -0.0328903 0.0497277 -0.0135716 -0.00811727 0.0424552 -0.00739645 0.00376164 0.0425106 
-0.0267621 -0.0219194 0.0444018 -0.00791609 -0.0196794 0.0471455 -0.0296076 0.00722911 0.0498082 

VERTICES 102 204
1 0 
1 1 
1 2 
1 3 
1 4 
1 5 
1 6 
1 7 
1 8 
1 9 
1 10 
1 11 
1 12 
1 13 
1 14 
1 15 
1 16 
1 17 
1 18 
1 19 
1 20 
1 21 
1 22 
1 23 
1 24 
1 25 
1 26 
1 27 
1 28 
1 29 
1 30 
1 31 
1 32 
1 33 
1 34 
1 35 
1 36 
1 37 
1 38 
1 39 
1 40 
1 41 
1 42 
1 43 
1 44 
1 45 
1 46 
1 47 
1 48 
1 49 
1 50 
1 51 
1 52 
1 53 
1 54 
1 55 
1 56 
1 57 
1 58 
1 59 
1 60 
1 61 
1 62 
1 63 
1 64 
1 65 
1 66 
1 67 
1 68 
1 69 
1 70 
1 71 
1 72 
1 73 
1 74 
1 75 
1 76 
1 77 
1 78 
1 79 
1 80 
1 81 
1 82 
1 83 
1 84 
1 85 
1 86 
1 87 
1 88 
1 89 
1 90 
1 91 
1 92 
1 93 
1 94 
1 95 
1 96 
1 97 
1 98 
1 99 
1 100 
1 101 

POINT_DATA 102
FIELD FieldData 7
id 1 102 int
2 7 1 12 10 6 4 8 9 
5 3 13 11 19 22 20 18 16 
21 23 25 24 14 38 15 17 30 
29 28 33 35 31 32 36 26 37 
34 27 50 47 51 49 42 48 44 
45 43 39 46 40 41 59 64 60 
55 61 56 52 54 63 53 62 73 
58 57 72 65 67 69 75 71 76 
70 77 74 68 85 82 86 66 80 
84 87 81 78 89 90 88 79 83 
91 92 93 94 95 96 97 98 99 
100 101 102 
type 1 102 int
1 1 1 1 1 1 1 1 1 
1 1 1 1 1 1 1 1 1 
1 1 1 1 1 1 1 1 1 
1 1 1 1 1 1 1 1 1 
1 1 1 1 1 1 1 1 1 
1 1 1 1 1 1 1 1 1 
1 1 1 1 1 1 1 1 1 
1 1 1 1 1 1 1 1 1 
1 1 1 1 1 1 1 1 1 
1 1 1 1 1 1 1 1 1 
1 1 1 1 1 1 1 1 1 
1 1 1 
i 3 102 int
0 0 0 0 0 0 0 0 0 
0 0 0 0 0 0 0 0 0 
0 0 0 0 0 0 0 0 0 
0 0 0 0 0 0 0 0 0 
0 0 0 0 0 0 0 0 0 
0 0 0 0 0 0 0 0 0 
0 0 0 0 0 0 0 0 0 
0 0 0 0 0 0 0 0 0 
0 0 0 0 0 0 0 0 0 
0 0 0 0 0 0 0 0 0 
0 0 0 0 0 0 0 0 0 
0 0 0 0 0 0 0 0 0 
0 0 0 0 0 0 0 0 0 
0 0 0 0 0 0 0 0 0 
0 0 0 0 0 0 0 0 0 
0 0 0 0 0 0 0 0 0 
0 0 0 0 0 0 0 0 0 
0 0 0 0 0 0 0 0 0 
0 0 0 0 0 0 0 0 0 
0 0 0 0 0 0 0 0 0 
0 0 0 0 0 0 0 0 0 
0 0 0 0 0 0 0 0 0 
0 0 0 0 0 0 0 0 0 
0 0 0 0 0 0 0 0 0 
0 0 0 0 0 0 0 0 0 
0 0 0 0 0 0 0 0 0 
0 0 0 0 0 0 0 0 0 
0 0 0 0 0 0 0 0 0 
0 0 0 0 0 0 0 0 0 
0 0 0 0 0 0 0 0 0 
0 0 0 0 0 0 0 0 0 
0 0 0 0 0 0 0 0 0 
0 0 0 0 0 0 0 0 0 
0 0 0 0 0 0 0 0 0 

v 3 102 double
0 0 -1.75875445 0 0 -1.76208985 0 0 -1.75649815 
0 0 -1.74776725 0 0 -1.75257415 0 0 -1.74256795 
0 0 -1.74452995 0 0 -1.72284985 0 0 -1.72157455 
0 0 -1.69763815 0 0 -1.68390415 0 0 -1.69008445 
0 0 -1.69028065 0 0 -1.65457225 0 0 -1.65633805 
0 0 -1.64348695 0 0 -1.63612945 0 0 -1.63083205 
0 0 -1.62700615 0 0 -1.61660755 0 0 -1.61189875 
0 0 -1.59433885 0 0 -1.58864905 0 0 -1.56039625 
0 0 -1.57942765 0 0 -1.57825045 0 0 -1.54303255 
0 0 -1.54715275 0 0 -1.54577935 0 0 -1.54381735 
0 0 -1.52527645 0 0 -1.52135245 0 0 -1.50006475 
0 0 -1.49810275 0 0 -1.50673555 0 0 -1.50526405 
0 0 -1.49300155 0 0 -1.47347965 0 0 -1.42070185 
0 0 -1.41373675 0 0 -1.41667975 0 0 -1.42727455 
0 0 -1.43267005 0 0 -1.41972085 0 0 -1.43070805 
0 0 -1.39755025 0 0 -1.38646495 0 0 -1.38352195 
0 0 -1.38636685 0 0 -1.37322145 0 0 -1.37979415 
0 0 -1.33074415 0 0 -1.33515865 0 0 -1.34928505 
0 0 -1.33770925 0 0 -1.34173135 0 0 -1.35468055 
0 0 -1.29994075 0 0 -1.32642775 0 0 -1.30170655 
0 0 -1.32495625 0 0 -1.29219085 0 0 -1.27237465 
0 0 -1.28807065 0 0 -1.27973215 0 0 -1.25658055 
0 0 -1.25883685 0 0 -1.25893495 0 0 -1.24794775 
0 0 -1.22675815 0 0 -1.23882445 0 0 -1.19683765 
0 0 -1.19781865 0 0 -1.19340415 0 0 -1.18928395 
0 0 -1.17908155 0 0 -1.15014205 0 0 -1.14729715 
0 0 -1.17908155 0 0 -1.17584425 0 0 -1.17142975 
0 0 -1.17908155 0 0 -1.12414555 0 0 -1.13895865 
0 0 -1.12228165 0 0 -1.11433555 0 0 -1.12414555 
0 0 -1.12365505 0 0 -1.10050345 0 0 -1.10589895 
0 0 -1.03065625 0 0 -1.05017815 0 0 -1 
0 0 -1 0 0 -1.04497885 0 0 -1.05263065 
0 0 -1.00269775 0 0 -1.07146585 0 0 -1.07097535 
0 0 -1.05351355 0 0 -1.02761515 0 0 -1.00191295 

f 3 102 double
0 0 -0.0016051574964 0 0 -0.00034671401923 0 0 -0.0016051574964 
0 0 -0.00034671401923 0 0 -0.00034671401923 0 0 -0.00034671401923 
0 0 -0.0016051574964 0 0 -0.00034671401923 0 0 -0.00034671401923 
0 0 -0.0016051574964 0 0 -0.0016051574964 0 0 -0.00034671401923 
0 0 -0.00034671401923 0 0 -0.00034671401923 0 0 -0.00034671401923 
0 0 -0.00034671401923 0 0 -0.00034671401923 0 0 -0.0016051574964 
0 0 -0.00034671401923 0 0 -0.00034671401923 0 0 -0.00034671401923 
0 0 -0.00034671401923 0 0 -0.0016051574964 0 0 -0.00034671401923 
0 0 -0.0016051574964 0 0 -0.0016051574964 0 0 -0.0016051574964 
0 0 -0.0016051574964 0 0 -0.0016051574964 0 0 -0.00034671401923 
0 0 -0.00034671401923 0 0 -0.00034671401923 0 0 -0.00034671401923 
0 0 -0.00034671401923 0 0 -0.0016051574964 0 0 -0.00034671401923 
0 0 -0.00034671401923 0 0 -0.0016051574964 0 0 -0.00034671401923 
0 0 -0.00034671401923 0 0 -0.00034671401923 0 0 -0.00034671401923 
0 0 -0.0016051574964 0 0 -0.00034671401923 0 0 -0.00034671401923 
0 0 -0.00034671401923 0 0 -0.0016051574964 0 0 -0.0016051574964 
0 0 -0.00034671401923 0 0 -0.0016051574964 0 0 -0.0016051574964 
0 0 -0.00034671401923 0 0 -0.00034671401923 0 0 -0.00034671401923 
0 0 -0.0016051574964 0 0 -0.00034671401923 0 0 -0.00034671401923 
0 0 -0.0016051574964 0 0 -0.0016051574964 0 0 -0.00034671401923 
0 0 -0.0016051574964 0 0 -0.00034671401923 0 0 -0.00034671401923 
0 0 -0.00034671401923 0 0 -0.00034671401923 0 0 -0.00034671401923 
0 0 -0.0016051574964 0 0 -0.0016051574964 0 0 -0.00034671401923 
0 0 -0.00034671401923 0 0 -0.00034671401923 0 0 -0.00034671401923 
0 0 -0.00034671401923 0 0 -0.00034671401923 0 0 -0.00034671401923 
0 0 -0.0016051574964 0 0 -0.00034671401923 0 0 -0.00034671401923 
0 0 -0.00034671401923 0 0 -0.0016051574964 0 0 -0.0016051574964 
0 0 -0.00034671401923 0 0 -0.00034671401923 0 0 -0.0016051574964 
0 0 -0.0016051574964 0 0 -0.00034671401923 0 0 -0.00034671401923 
0 0 -0.00034671401923 0 0 -0.0016051574964 0 0 -0.00034671401923 
0 0 -0.0016051574964 0 0 -0.0016051574964 0 0 0 
0 0 0 0 0 -0.00034671401923 0 0 -0.00034671401923 
0 0 -0.00034671401923 0 0 -0.00034671401923 0 0 -0.00034671401923 
0 0 -0.00034671401923 0 0 -0.00034671401923 0 0 -0.00034671401923 

radius 1 102 double
0.0025 0.0015 0.0025 0.0015 0.0015 0.0015 0.0025 0.0015 0.0015 
0.0025 0.0025 0.0015 0.0015 0.0015 0.0015 0.0015 0.0015 0.0025 
0.0015 0.0015 0.0015 0.0015 0.0025 0.0015 0.0025 0.0025 0.0025 
0.0025 0.0025 0.0015 0.0015 0.0015 0.0015 0.0015 0.0025 0.0015 
0.0015 0.0025 0.0015 0.0015 0.0015 0.0015 0.0025 0.0015 0.0015 
0.0015 0.0025 0.0025 0.0015 0.0025 0.0025 0.0015 0.0015 0.0015 
0.0025 0.0015 0.0015 0.0025 0.0025 0.0015 0.0025 0.0015 0.0015 
0.0015 0.0015 0.0015 0.0025 0.0025 0.0015 0.0015 0.0015 0.0015 
0.0015 0.0015 0.0015 0.0025 0.0015 0.0015 0.0015 0.0025 0.0025 
0.0015 0.0015 0.0025 0.0025 0.0015 0.0015 0.0015 0.0025 0.0015 
0.0025 0.0025 0.0025 0.0025 0.0015 0.0015 0.0015 0.0015 0.0015 
0.0015 0.0015 0.0015 
omega 3 102 double
0 0 0 0 0 0 0 0 0 
0 0 0 0 0 0 0 0 0 
0 0 0 0 0 0 0 0 0 
0 0 0 0 0 0 0 0 0 
0 0 0 0 0 0 0 0 0 
0 0 0 0 0 0 0 0 0 
0 0 0 0 0 0 0 0 0 
0 0 0 0 0 0 0 0 0 
0 0 0 0 0 0 0 0 0 
0 0 0 0 0 0 0 0 0 
0 0 0 0 0 0 0 0 0 
0 0 0 0 0 0 0 0 0 
0 0 0 0 0 0 0 0 0 
0 0 0 0 0 0 0 0 0 
0 0 0 0 0 0 0 0 0 
0 0 0 0 0 0 0 0 0 
0 0 0 0 0 0 0 0 0 
0 0 0 0 0 0 0 0 0 
0 0 0 0 0 0 0 0 0 
0 0 0 0 0 0 0 0 0 
0 0 0 0 0 0 0 0 0 
0 0 0 0 0 0 0 0 0 
0 0 0 0 0 0 0 0 0 
0 0 0 0 0 0 0 0 0 
0 0 0 0 0 0 0 0 0 
0 0 0 0 0 0 0 0 0 
0 0 0 0 0 0 0 0 0 
0 0 0 0 0 0 0 0 0 
0 0 0 0 0 0 0 0 0 
0 0 0 0 0 0 0 0 0 
0 0 0 0 0 0 0 0 0 
0 0 0 0 0 0 0 0 0 
0 0 0 0 0 0 0 0 0 
0 0 0 0 0 0 0 0 0 

