# vtk DataFile Version 4.1
Generated by LIGGGHTS
ASCII
DATASET POLYDATA
POINTS 166 float
-0.0365335 -0.00839374 -0.116215 -0.028663 -0.019004 -0.114382 -0.0294664 -0.00588046 -0.110886 
-0.0219852 -0.00447717 -0.114901 -0.0160456 0.00931855 -0.110026 -0.0268715 0.0122709 -0.111219 
-0.0283655 0.0252462 -0.113744 -0.0185822 -0.0322745 -0.105998 -0.0167751 -0.0221777 -0.106301 
-0.0183351 -0.0144847 -0.106186 -0.0112188 -0.0156915 -0.109291 -0.0275046 -0.000700049 -0.111739 
-0.00881916 0.00276161 -0.109422 -0.0241313 0.0195556 -0.108872 -0.0137589 0.0256801 -0.107175 
-0.0178384 0.0298277 -0.107114 -0.0124696 -0.029013 -0.104284 -0.0202974 -0.0199605 -0.10878 
-0.0219947 -0.0107694 -0.107808 -0.00214365 0.0128752 -0.102873 -0.0161141 0.0179511 -0.104046 
-0.00857183 -0.027925 -0.104208 -0.00454319 0.0203252 -0.103044 -0.00408721 -0.0194644 -0.101162 
-0.00174502 0.0344165 -0.100927 -0.0159102 -0.0341757 -0.0973175 -0.0327631 -0.0200888 -0.0938426 
-0.0159539 -0.00381092 -0.0946685 -0.0300659 -0.00019371 -0.0943921 -0.0235267 0.0224168 -0.0939973 
-0.0230202 -0.021037 -0.0903269 -0.0229734 0.000876534 -0.0895524 -0.020721 -0.0135944 -0.0853744 
-0.0127396 -0.0137041 -0.0849968 -0.000459601 -0.00791581 -0.086675 -0.0221714 0.00979368 -0.0863948 
-0.0240929 0.0291618 -0.0839984 -0.0160817 -0.000243398 -0.0802252 -0.024531 -1.04943e-05 -0.0714601 
-0.0306884 0.0042356 -0.0724706 -0.027916 0.0296421 -0.0721048 -0.0175025 -0.0228838 -0.0702324 
-0.022804 -0.0140579 -0.0689297 -0.0251247 -0.00571197 -0.069482 -0.018642 0.00531382 -0.0700475 
-0.0105626 -0.00654333 -0.0659346 -0.027846 0.00485213 -0.06389 -0.0178022 0.0256262 -0.0638693 
-0.0294843 -0.0242442 -0.0614713 -0.00180681 0.0181929 -0.0633526 -0.021213 0.0304724 -0.0626658 
-0.0337701 0.0102173 -0.0571482 -0.0315539 0.028352 -0.0581124 -0.0262531 0.00245318 -0.0538336 
-0.0274253 0.00637934 -0.0546222 -0.0284955 0.0109203 -0.0550759 -0.0264294 0.0258143 -0.0557911 
-0.0221544 -0.0267021 -0.0530688 -0.0188291 -0.0129094 -0.0528105 -0.0046838 -0.0346092 -0.0484077 
-0.0205837 -0.0294247 -0.0470631 -0.00322644 -0.0143029 -0.0487137 -0.00206763 0.0123655 -0.0463447 
-0.0181818 0.00594264 -0.0436352 -0.0315184 0.0323336 -0.0448997 -0.00317446 -0.00327501 -0.0409389 
-0.0113639 0.00609324 -0.0413222 -0.0237558 0.020832 -0.0413391 -0.0233787 0.0259916 -0.0394762 
-0.0101315 -0.0171842 -0.0359161 -0.00618278 0.0247152 -0.0379329 -0.00512449 -0.0296766 -0.0309552 
-0.0132118 -0.0121788 -0.0311247 -0.0226093 -0.00790771 -0.0303961 -0.0176419 0.0252752 -0.0297238 
-0.00331379 -0.00673963 -0.028064 -0.0203284 0.0149576 -0.0280619 -0.0332492 0.0212435 -0.027534 
-0.025261 0.030812 -0.0268223 -0.0088354 0.0340944 -0.028068 -0.006758 -0.00417797 -0.0216367 
-0.0255344 0.010562 -0.0234153 -0.0156099 0.0123479 -0.0229566 -0.0166674 -0.0199684 -0.0193037 
-0.016039 -0.000886859 -0.0190112 -0.0199892 0.00645928 -0.0177746 -0.0136151 0.0110949 -0.0193087 
-0.0302008 0.015853 -0.0192268 -0.0138041 -0.0299263 -0.0156344 -0.0118987 0.0289343 -0.0164697 
-0.0135716 -0.00811727 -0.0111988 -0.00739645 0.00376164 -0.0111227 -0.0267621 -0.0219194 -0.00849818 
-0.020149 -0.00685329 -0.00722656 -0.0141771 0.0177987 -0.00837288 -0.00471042 0.0296342 -0.00800722 
-0.00791609 -0.0196794 -0.0046668 -0.0179545 0.0159092 -0.00511646 -0.00439906 -0.0328903 -0.00103802 
-0.0296076 0.00722911 -0.00092458 -0.016986 -0.0318376 0.00224659 -0.0281298 -0.0148599 0.00329658 
-0.0161861 -0.00599108 0.00333761 -0.0227935 0.0274334 0.00274422 -0.0292679 0.0147935 0.00614038 
-0.00205293 0.0165512 0.00600691 -0.0305301 0.00502779 0.00903925 -0.00405648 0.032442 0.0100414 
-0.0135333 -0.0276689 0.0135311 -0.0112712 -0.0202504 0.0117423 -2.29018e-06 -0.0149558 0.013395 
-0.00301846 0.00510814 0.0134714 -0.0331337 -0.0163611 0.0146701 -0.0273798 -0.00441029 0.0145252 
-0.00794441 0.0258079 0.0158111 -0.0143544 -0.0272787 0.0195564 -0.0191843 -0.0221491 0.0185817 
-0.0125841 -0.0140137 0.0189708 -0.0125785 -0.0040947 0.0200918 -0.0148309 0.00369911 0.0213575 
-0.00193271 0.00892872 0.0209937 -0.0336091 0.0316877 0.019203 -0.00679321 -0.00970412 0.023244 
-0.0316214 0.000145103 0.0227278 -0.0217323 0.00352617 0.0218571 -0.0227292 -0.0342527 0.0271886 
-0.00618246 0.0122116 0.0277758 -0.026321 0.0295451 0.0273865 -0.0331578 -0.0347183 0.0296215 
-0.0076982 -0.0269483 0.0294155 -0.0188235 -0.00412326 0.0318836 -0.0142543 -0.00491395 0.0301184 
-0.0238018 0.0141125 0.0321007 -0.030786 0.0122027 0.0329487 -0.00584464 -0.0345985 0.0385445 
-0.0115686 -0.0259344 0.0374226 -0.00401145 -0.0205873 0.0378664 -0.0301844 0.00679958 0.0391729 
-0.004829 0.0333632 0.0386184 -0.010147 -0.0216422 0.039945 -0.0322463 -0.00737998 0.0397106 
-0.00623706 -0.00658451 0.0422582 -0.0210131 0.0295222 0.039866 -0.0237179 -0.0330481 0.043956 
-0.0251936 -0.0129184 0.0459106 -0.00679915 -0.000720285 0.043 -0.0230582 0.0203811 0.0429891 
-0.0214963 -0.0163735 0.0490999 -0.0152079 -0.0146465 0.0473853 -0.00240788 -0.00904262 0.0485232 
-0.00372425 0.000239952 0.0471569 -0.0043072 0.0165241 0.0486089 -0.0326006 -0.0307471 0.0499273 
-0.0234861 -0.027537 0.0533302 -0.0322856 0.00186917 0.0503475 -0.00943139 0.0192376 0.0527241 
-0.0103743 0.0339743 0.0527537 -0.0180071 -0.0232682 0.0555645 -0.000114354 -0.0212937 0.0552877 
-0.0280789 0.0137467 0.0545361 -0.0345391 -0.0114622 0.0570632 -0.00596878 -0.0130405 0.059366 
-0.0303036 -0.0103215 0.0590724 -0.0287704 0.0101406 0.0594017 -0.010941 0.0209557 0.0595532 
-0.0148889 0.0293808 0.0571999 
VERTICES 166 332
1 0 
1 1 
1 2 
1 3 
1 4 
1 5 
1 6 
1 7 
1 8 
1 9 
1 10 
1 11 
1 12 
1 13 
1 14 
1 15 
1 16 
1 17 
1 18 
1 19 
1 20 
1 21 
1 22 
1 23 
1 24 
1 25 
1 26 
1 27 
1 28 
1 29 
1 30 
1 31 
1 32 
1 33 
1 34 
1 35 
1 36 
1 37 
1 38 
1 39 
1 40 
1 41 
1 42 
1 43 
1 44 
1 45 
1 46 
1 47 
1 48 
1 49 
1 50 
1 51 
1 52 
1 53 
1 54 
1 55 
1 56 
1 57 
1 58 
1 59 
1 60 
1 61 
1 62 
1 63 
1 64 
1 65 
1 66 
1 67 
1 68 
1 69 
1 70 
1 71 
1 72 
1 73 
1 74 
1 75 
1 76 
1 77 
1 78 
1 79 
1 80 
1 81 
1 82 
1 83 
1 84 
1 85 
1 86 
1 87 
1 88 
1 89 
1 90 
1 91 
1 92 
1 93 
1 94 
1 95 
1 96 
1 97 
1 98 
1 99 
1 100 
1 101 
1 102 
1 103 
1 104 
1 105 
1 106 
1 107 
1 108 
1 109 
1 110 
1 111 
1 112 
1 113 
1 114 
1 115 
1 116 
1 117 
1 118 
1 119 
1 120 
1 121 
1 122 
1 123 
1 124 
1 125 
1 126 
1 127 
1 128 
1 129 
1 130 
1 131 
1 132 
1 133 
1 134 
1 135 
1 136 
1 137 
1 138 
1 139 
1 140 
1 141 
1 142 
1 143 
1 144 
1 145 
1 146 
1 147 
1 148 
1 149 
1 150 
1 151 
1 152 
1 153 
1 154 
1 155 
1 156 
1 157 
1 158 
1 159 
1 160 
1 161 
1 162 
1 163 
1 164 
1 165 

POINT_DATA 166
FIELD FieldData 7
id 1 166 int
10 20 2 19 8 6 22 3 5 
12 18 16 21 4 1 11 13 23 
25 9 7 24 14 15 17 38 30 
29 28 33 35 31 32 36 26 37 
34 27 49 42 44 50 47 51 48 
45 43 46 40 39 41 60 56 59 
64 55 61 54 53 52 62 63 58 
73 57 72 65 67 69 75 71 76 
70 77 74 68 86 66 80 84 81 
85 82 87 78 89 90 88 79 83 
98 99 100 95 96 92 101 91 97 
102 93 110 113 94 114 104 106 107 
109 111 108 103 112 105 127 115 120 
121 118 124 116 117 123 126 119 125 
139 122 135 140 136 128 131 133 132 
134 137 147 138 129 153 146 130 145 
143 149 151 150 144 142 152 148 160 
164 141 161 158 166 165 163 155 157 
162 159 156 154 
type 1 166 int
1 1 1 1 1 1 1 1 1 
1 1 1 1 1 1 1 1 1 
1 1 1 1 1 1 1 1 1 
1 1 1 1 1 1 1 1 1 
1 1 1 1 1 1 1 1 1 
1 1 1 1 1 1 1 1 1 
1 1 1 1 1 1 1 1 1 
1 1 1 1 1 1 1 1 1 
1 1 1 1 1 1 1 1 1 
1 1 1 1 1 1 1 1 1 
1 1 1 1 1 1 1 1 1 
1 1 1 1 1 1 1 1 1 
1 1 1 1 1 1 1 1 1 
1 1 1 1 1 1 1 1 1 
1 1 1 1 1 1 1 1 1 
1 1 1 1 1 1 1 1 1 
1 1 1 1 1 1 1 1 1 
1 1 1 1 1 1 1 1 1 
1 1 1 1 
i 3 166 int
0 0 0 0 0 0 0 0 0 
0 0 0 0 0 0 0 0 0 
0 0 0 0 0 0 0 0 0 
0 0 0 0 0 0 0 0 0 
0 0 0 0 0 0 0 0 0 
0 0 0 0 0 0 0 0 0 
0 0 0 0 0 0 0 0 0 
0 0 0 0 0 0 0 0 0 
0 0 0 0 0 0 0 0 0 
0 0 0 0 0 0 0 0 0 
0 0 0 0 0 0 0 0 0 
0 0 0 0 0 0 0 0 0 
0 0 0 0 0 0 0 0 0 
0 0 0 0 0 0 0 0 0 
0 0 0 0 0 0 0 0 0 
0 0 0 0 0 0 0 0 0 
0 0 0 0 0 0 0 0 0 
0 0 0 0 0 0 0 0 0 
0 0 0 0 0 0 0 0 0 
0 0 0 0 0 0 0 0 0 
0 0 0 0 0 0 0 0 0 
0 0 0 0 0 0 0 0 0 
0 0 0 0 0 0 0 0 0 
0 0 0 0 0 0 0 0 0 
0 0 0 0 0 0 0 0 0 
0 0 0 0 0 0 0 0 0 
0 0 0 0 0 0 0 0 0 
0 0 0 0 0 0 0 0 0 
0 0 0 0 0 0 0 0 0 
0 0 0 0 0 0 0 0 0 
0 0 0 0 0 0 0 0 0 
0 0 0 0 0 0 0 0 0 
0 0 0 0 0 0 0 0 0 
0 0 0 0 0 0 0 0 0 
0 0 0 0 0 0 0 0 0 
0 0 0 0 0 0 0 0 0 
0 0 0 0 0 0 0 0 0 
0 0 0 0 0 0 0 0 0 
0 0 0 0 0 0 0 0 0 
0 0 0 0 0 0 0 0 0 
0 0 0 0 0 0 0 0 0 
0 0 0 0 0 0 0 0 0 
0 0 0 0 0 0 0 0 0 
0 0 0 0 0 0 0 0 0 
0 0 0 0 0 0 0 0 0 
0 0 0 0 0 0 0 0 0 
0 0 0 0 0 0 0 0 0 
0 0 0 0 0 0 0 0 0 
0 0 0 0 0 0 0 0 0 
0 0 0 0 0 0 0 0 0 
0 0 0 0 0 0 0 0 0 
0 0 0 0 0 0 0 0 0 
0 0 0 0 0 0 0 0 0 
0 0 0 0 0 0 0 0 0 
0 0 0 0 0 0 0 0 0 
0 0 0 
v 3 166 double
-0.73437412757 0.048248182168 0.22040559408 0 0 -2.05550695 -0.72615218482 0.009366097318 0.19469777591 
-0.726997883 0.0093770053503 0.29924745035 -0.63591859651 -0.039450297487 -0.058910954054 -0.75112202757 -0.13566800949 0.18001526184 
-0.86141698322 0.50053828671 -1.3445105841 -0.69695482414 0.28675055182 0.19474867349 -0.71966002753 0.26420228247 0.17262325388 
-0.71584803948 0.12790338348 0.16469130725 -0.71724740569 0.12815341374 0.2788740789 0 0 -2.04285205 
-0.74228825994 -0.016696984948 0.27300297316 -0.55576444893 -0.24210604252 0.0027147524792 -0.73007221792 -0.0070138229157 -0.30312529148 
-0.72097167049 -0.26198189066 0.18617621826 -0.71666648092 0.26310328876 0.16490699787 0 0 -2.02862755 
0 0 -2.02391875 0.0053772640319 -0.75568784498 -0.23840601368 -0.73198125343 -0.17095954075 0.10626282351 
0 0 -2.00635885 0 0 -2.00066905 0 0 -1.99144765 
0 0 -1.99027045 0 0 -1.97241625 0 0 -1.95505255 
0 0 -1.95917275 0 0 -1.95779935 0 0 -1.95583735 
0 0 -1.93729645 0 0 -1.93337245 0 0 -1.91208475 
0 0 -1.91012275 0 0 -1.91875555 0 0 -1.91728405 
0 0 -1.90502155 0 0 -1.88549965 0 0 -1.83929455 
0 0 -1.84469005 0 0 -1.84272805 0 0 -1.83272185 
0 0 -1.82575675 0 0 -1.82869975 0 0 -1.83174085 
0 0 -1.80957025 0 0 -1.79848495 0 0 -1.79838685 
0 0 -1.78524145 0 0 -1.79554195 0 0 -1.79181415 
0 0 -1.76130505 0 0 -1.76670055 0 0 -1.74276415 
0 0 -1.74717865 0 0 -1.74972925 0 0 -1.75375135 
0 0 -1.73844775 0 0 -1.73697625 0 0 -1.71196075 
0 0 -1.70421085 0 0 -1.71372655 0 0 -1.70009065 
0 0 -1.68439465 0 0 -1.69175215 0 0 -1.66860055 
0 0 -1.67085685 0 0 -1.67095495 0 0 -1.65996775 
0 0 -1.63877815 0 0 -1.65084445 0 0 -1.60885765 
0 0 -1.60983865 0 0 -1.60542415 0 0 -1.60130395 
0 0 -1.59110155 0 0 -1.59110155 0 0 -1.58786425 
0 0 -1.58344975 0 0 -1.59110155 0 0 -1.55097865 
0 0 -1.56216205 0 0 -1.55931715 0 0 -1.53616555 
0 0 -1.53430165 0 0 -1.52635555 0 0 -1.53616555 
0 0 -1.53567505 0 0 -1.51252345 0 0 -1.51791895 
0 0 -1.48348585 0 0 -1.48299535 0 0 -1.46553355 
0 0 -1.45699885 0 0 -1.46465065 0 0 -1.46219815 
0 0 -1.43963515 0 0 -1.44267625 0 0 -1.41471775 
0 0 -1.41393295 0 0 -1.39176235 0 0 -1.38430675 
0 0 -1.38401245 0 0 -1.38823075 0 0 -1.36400005 
0 0 -1.36498105 0 0 -1.34300665 0 0 -1.33564915 
0 0 -1.30975075 0 0 -1.32309235 0 0 -1.31082985 
0 0 -1.31024125 0 0 -1.30121605 0 0 -1.30229515 
0 0 -1.29258325 0 0 -1.26383995 0 0 -1.27139365 
0 0 -1.26835255 0 0 -1.25971975 0 0 -1.24981165 
0 0 -1.25265655 0 0 -1.26658675 0 0 -1.23490045 
0 0 -1.23902065 0 0 -1.24588765 0 0 -1.20311605 
0 0 -1.19830915 0 0 -1.20154645 0 0 -1.18310365 
0 0 -1.18486945 0 0 -1.16426845 0 0 -1.17898345 
0 0 -1.16240455 0 0 -1.15524325 0 0 -1.10668375 
0 0 -1.11659185 0 0 -1.11266785 0 0 -1.10109205 
0 0 -1.10599705 0 0 -1.09422505 0 0 -1.09628515 
0 0 -1.07323165 0 0 -1.09491175 0 0 -1.05763375 
0 0 -1.03938715 0 0 -1.06646275 0 0 -1.06656085 
0 0 -1.00877995 0 0 -1.02535885 0 0 -1.01437165 
0 0 -1.02751705 0 0 -1.01358685 0 0 -1.00073575 
0 0 -1 0 0 -1 0 0 -1 
0 0 -1 0 0 -1 0 0 -1 
0 0 -1 0 0 -1 0 0 -1 
0 0 -1 0 0 -1 0 0 -1 
0 0 -1 
f 3 166 double
0 0 -0.00034671401923 0 0 -0.00034671401923 0 0 -0.0016051574964 
0 0 -0.00034671401923 0 0 -0.00034671401923 0 0 -0.00034671401923 
0 0 -0.00034671401923 0 0 -0.0016051574964 0 0 -0.0016051574964 
0 0 -0.00034671401923 0 0 -0.00034671401923 0 0 -0.0016051574964 
0 0 -0.00034671401923 0 0 -0.0016051574964 0 0 -0.0016051574964 
0 0 -0.00034671401923 0 0 -0.00034671401923 0 0 -0.00034671401923 
0 0 -0.00034671401923 0 0 -0.00034671401923 0 0 -0.00034671401923 
0 0 -0.00034671401923 0 0 -0.0016051574964 0 0 -0.0016051574964 
0 0 -0.0016051574964 0 0 -0.00034671401923 0 0 -0.0016051574964 
0 0 -0.0016051574964 0 0 -0.0016051574964 0 0 -0.00034671401923 
0 0 -0.00034671401923 0 0 -0.00034671401923 0 0 -0.00034671401923 
0 0 -0.00034671401923 0 0 -0.0016051574964 0 0 -0.00034671401923 
0 0 -0.00034671401923 0 0 -0.0016051574964 0 0 -0.00034671401923 
0 0 -0.0016051574964 0 0 -0.00034671401923 0 0 -0.00034671401923 
0 0 -0.00034671401923 0 0 -0.00034671401923 0 0 -0.00034671401923 
0 0 -0.00034671401923 0 0 -0.0016051574964 0 0 -0.00034671401923 
0 0 -0.0016051574964 0 0 -0.0016051574964 0 0 -0.0016051574964 
0 0 -0.00034671401923 0 0 -0.00034671401923 0 0 -0.00034671401923 
0 0 -0.00034671401923 0 0 -0.0016051574964 0 0 -0.00034671401923 
0 0 -0.0016051574964 0 0 -0.0016051574964 0 0 -0.0016051574964 
0 0 -0.00034671401923 0 0 -0.00034671401923 0 0 -0.00034671401923 
0 0 -0.00034671401923 0 0 -0.00034671401923 0 0 -0.00034671401923 
0 0 -0.0016051574964 0 0 -0.0016051574964 0 0 -0.00034671401923 
0 0 -0.00034671401923 0 0 -0.00034671401923 0 0 -0.00034671401923 
0 0 -0.00034671401923 0 0 -0.00034671401923 0 0 -0.00034671401923 
0 0 -0.0016051574964 0 0 -0.00034671401923 0 0 -0.0016051574964 
0 0 -0.0016051574964 0 0 -0.00034671401923 0 0 -0.0016051574964 
0 0 -0.00034671401923 0 0 -0.00034671401923 0 0 -0.00034671401923 
0 0 -0.0016051574964 0 0 -0.00034671401923 0 0 -0.00034671401923 
0 0 -0.00034671401923 0 0 -0.0016051574964 0 0 -0.00034671401923 
0 0 -0.00034671401923 0 0 -0.00034671401923 0 0 -0.00034671401923 
0 0 -0.00034671401923 0 0 -0.00034671401923 0 0 -0.0016051574964 
0 0 -0.00034671401923 0 0 -0.0016051574964 0 0 -0.00034671401923 
0 0 -0.00034671401923 0 0 -0.0016051574964 0 0 -0.00034671401923 
0 0 -0.00034671401923 0 0 -0.0016051574964 0 0 -0.00034671401923 
0 0 -0.0016051574964 0 0 -0.0016051574964 0 0 -0.00034671401923 
0 0 -0.00034671401923 0 0 -0.00034671401923 0 0 -0.00034671401923 
0 0 -0.0016051574964 0 0 -0.00034671401923 0 0 -0.0016051574964 
0 0 -0.00034671401923 0 0 -0.0016051574964 0 0 -0.00034671401923 
0 0 -0.00034671401923 0 0 -0.0016051574964 0 0 -0.00034671401923 
0 0 -0.0016051574964 0 0 -0.0016051574964 0 0 -0.00034671401923 
0 0 -0.00034671401923 0 0 -0.0016051574964 0 0 -0.00034671401923 
0 0 -0.00034671401923 0 0 -0.00034671401923 0 0 -0.00034671401923 
0 0 -0.00034671401923 0 0 -0.00034671401923 0 0 -0.0016051574964 
0 0 -0.0016051574964 0 0 -0.00034671401923 0 0 -0.0016051574964 
0 0 -0.00034671401923 0 0 -0.00034671401923 0 0 -0.00034671401923 
0 0 -0.00034671401923 0 0 -0.0016051574964 0 0 -0.00034671401923 
0 0 -0.00034671401923 0 0 -0.0016051574964 0 0 -0.0016051574964 
0 0 -0.0016051574964 0 0 -0.00034671401923 0 0 -0.00034671401923 
0 0 -0.00034671401923 0 0 -0.0016051574964 0 0 -0.0016051574964 
0 0 -0.00034671401923 0 0 -0.00034671401923 0 0 -0.00034671401923 
0 0 0 0 0 0 0 0 0 
0 0 0 0 0 0 0 0 0 
0 0 0 0 0 0 0 0 0 
0 0 0 0 0 0 0 0 0 
0 0 0 
radius 1 166 double
0.0015 0.0015 0.0025 0.0015 0.0015 0.0015 0.0015 0.0025 0.0025 
0.0015 0.0015 0.0025 0.0015 0.0025 0.0025 0.0015 0.0015 0.0015 
0.0015 0.0015 0.0015 0.0015 0.0025 0.0025 0.0025 0.0015 0.0025 
0.0025 0.0025 0.0015 0.0015 0.0015 0.0015 0.0015 0.0025 0.0015 
0.0015 0.0025 0.0015 0.0025 0.0015 0.0015 0.0015 0.0015 0.0015 
0.0015 0.0025 0.0015 0.0025 0.0025 0.0025 0.0015 0.0015 0.0015 
0.0015 0.0025 0.0015 0.0025 0.0025 0.0025 0.0015 0.0015 0.0015 
0.0015 0.0015 0.0015 0.0025 0.0025 0.0015 0.0015 0.0015 0.0015 
0.0015 0.0015 0.0015 0.0025 0.0015 0.0025 0.0025 0.0015 0.0025 
0.0015 0.0015 0.0015 0.0025 0.0015 0.0015 0.0015 0.0025 0.0015 
0.0015 0.0015 0.0015 0.0015 0.0015 0.0025 0.0015 0.0025 0.0015 
0.0015 0.0025 0.0015 0.0015 0.0025 0.0015 0.0025 0.0025 0.0015 
0.0015 0.0015 0.0015 0.0025 0.0015 0.0025 0.0015 0.0025 0.0015 
0.0015 0.0025 0.0015 0.0025 0.0025 0.0015 0.0015 0.0025 0.0015 
0.0015 0.0015 0.0015 0.0015 0.0015 0.0025 0.0025 0.0015 0.0025 
0.0015 0.0015 0.0015 0.0015 0.0025 0.0015 0.0015 0.0025 0.0025 
0.0025 0.0015 0.0015 0.0015 0.0025 0.0025 0.0015 0.0015 0.0015 
0.0015 0.0025 0.0015 0.0025 0.0015 0.0015 0.0015 0.0025 0.0025 
0.0015 0.0015 0.0025 0.0025 
omega 3 166 double
-24.449373837 -372.13811534 4.7501171527e-15 0 0 0 -2.88476401 -223.6553409 -1.9133269531e-16 
-4.7986786633 -372.04087009 1.1459708785e-15 19.36541976 -380.14301931 -13.907942885 68.910007313 -381.51827101 3.9403029229e-15 
-453.56357329 -413.6399923 -243.0651494 -88.749016132 -215.70683836 -3.2855428141e-15 -82.580150371 -224.93989353 -7.2171120977e-15 
-65.881516809 -368.72484029 -1.4284031096e-14 -65.754446804 -368.01365649 1.6881416973e-14 0 0 0 
8.6128711383 -382.89746024 2.8534537832e-15 -17.703055782 -284.21009239 -31.747699086 90.90835954 -150.35114984 28.8696814 
133.93957814 -368.60044468 6.0095095217e-15 -135.70422402 -369.6444432 8.7748112008e-15 0 0 0 
0 0 0 291.92446398 572.56011813 220.35598303 87.775431565 -375.81974153 6.0377299216e-14 
0 0 0 0 0 0 0 0 0 
0 0 0 0 0 0 0 0 0 
0 0 0 0 0 0 0 0 0 
0 0 0 0 0 0 0 0 0 
0 0 0 0 0 0 0 0 0 
0 0 0 0 0 0 0 0 0 
0 0 0 0 0 0 0 0 0 
0 0 0 0 0 0 0 0 0 
0 0 0 0 0 0 0 0 0 
0 0 0 0 0 0 0 0 0 
0 0 0 0 0 0 0 0 0 
0 0 0 0 0 0 0 0 0 
0 0 0 0 0 0 0 0 0 
0 0 0 0 0 0 0 0 0 
0 0 0 0 0 0 0 0 0 
0 0 0 0 0 0 0 0 0 
0 0 0 0 0 0 0 0 0 
0 0 0 0 0 0 0 0 0 
0 0 0 0 0 0 0 0 0 
0 0 0 0 0 0 0 0 0 
0 0 0 0 0 0 0 0 0 
0 0 0 0 0 0 0 0 0 
0 0 0 0 0 0 0 0 0 
0 0 0 0 0 0 0 0 0 
0 0 0 0 0 0 0 0 0 
0 0 0 0 0 0 0 0 0 
0 0 0 0 0 0 0 0 0 
0 0 0 0 0 0 0 0 0 
0 0 0 0 0 0 0 0 0 
0 0 0 0 0 0 0 0 0 
0 0 0 0 0 0 0 0 0 
0 0 0 0 0 0 0 0 0 
0 0 0 0 0 0 0 0 0 
0 0 0 0 0 0 0 0 0 
0 0 0 0 0 0 0 0 0 
0 0 0 0 0 0 0 0 0 
0 0 0 0 0 0 0 0 0 
0 0 0 0 0 0 0 0 0 
0 0 0 0 0 0 0 0 0 
0 0 0 0 0 0 0 0 0 
0 0 0 0 0 0 0 0 0 
0 0 0 0 0 0 0 0 0 
0 0 0 0 0 0 0 0 0 
0 0 0 0 0 0 0 0 0 
0 0 0 0 0 0 0 0 0 
0 0 0 0 0 0 0 0 0 
0 0 0 0 0 0 0 0 0 
0 0 0 0 0 0 0 0 0 
0 0 0 
