# vtk DataFile Version 4.1
Generated by LIGGGHTS
ASCII
DATASET POLYDATA
POINTS 153 float
-0.0280141 -0.0058992 -0.111295 -0.0350647 -0.00849024 -0.116675 -0.0253693 0.0125423 -0.111599 
-0.0230197 0.0200398 -0.108897 -0.0169034 -0.0147405 -0.106535 -0.0147738 0.00939745 -0.109927 
-0.0146502 0.018293 -0.104278 -0.0122988 0.0256942 -0.106588 -0.0110362 -0.0295392 -0.104634 
-0.0153357 -0.0227062 -0.106666 -0.0021544 0.0143866 -0.102416 -0.0163964 0.0303517 -0.107506 
-0.0171883 -0.032848 -0.106407 -0.0214597 -0.00448395 -0.112598 -0.0266427 0.0242451 -0.111074 
-0.028663 -0.019004 -0.110291 -0.0101549 -0.0158816 -0.108764 -0.0202974 -0.0199605 -0.104742 
-0.0275046 -0.000700049 -0.107673 -0.0083641 0.00277185 -0.10688 -0.0219947 -0.0107694 -0.10378 
-0.00857183 -0.027925 -0.100215 -0.00408721 -0.0194644 -0.0971988 -0.00454319 0.0203252 -0.0990624 
-0.00174502 0.0344165 -0.0969662 -0.0159102 -0.0341757 -0.0933923 -0.0327631 -0.0200888 -0.0899522 
-0.0159539 -0.00381092 -0.0907697 -0.0300659 -0.00019371 -0.0904961 -0.0235267 0.0224168 -0.0901052 
-0.0230202 -0.021037 -0.086472 -0.000459601 -0.00791581 -0.0828571 -0.0229734 0.000876534 -0.0857053 
-0.0221714 0.00979368 -0.0825799 -0.020721 -0.0135944 -0.0815699 -0.0127396 -0.0137041 -0.0811962 
-0.0240929 0.0291618 -0.080208 -0.0160817 -0.000243398 -0.0764738 -0.024531 -1.04943e-05 -0.0678012 
-0.0306884 0.0042356 -0.0688009 -0.027916 0.0296421 -0.0684389 -0.0175025 -0.0228838 -0.0665866 
-0.022804 -0.0140579 -0.0652978 -0.0251247 -0.00571197 -0.0658442 -0.018642 0.00531382 -0.0664036 
-0.0105626 -0.00654333 -0.0623351 -0.027846 0.00485213 -0.0603127 -0.0178022 0.0256262 -0.0602921 
-0.0294843 -0.0242442 -0.0579205 -0.00180681 0.0181929 -0.0597811 -0.021213 0.0304724 -0.0591018 
-0.0337701 0.0102173 -0.0536452 -0.0315539 0.028352 -0.0545986 -0.0221544 -0.0267021 -0.0496116 
-0.0188291 -0.0129094 -0.0493562 -0.0262531 0.00245318 -0.0503677 -0.0274253 0.00637934 -0.0511475 
-0.0284955 0.0109203 -0.051596 -0.0264294 0.0258143 -0.0523032 -0.00322644 -0.0143029 -0.0453059 
-0.0046838 -0.0346092 -0.0450034 -0.0205837 -0.0294247 -0.0436743 -0.00206763 0.0123655 -0.0429642 
-0.0315184 0.0323336 -0.0415358 -0.0181818 0.00594264 -0.040286 -0.0113639 0.00609324 -0.0380001 
-0.0237558 0.020832 -0.0380168 -0.00317446 -0.00327501 -0.0376213 -0.0233787 0.0259916 -0.0361759 
-0.00618278 0.0247152 -0.0346508 -0.0101315 -0.0171842 -0.0326582 -0.00512449 -0.0296766 -0.0277571 
-0.0132118 -0.0121788 -0.0279247 -0.0226093 -0.00790771 -0.0272049 -0.0176419 0.0252752 -0.0265408 
-0.00331379 -0.00673963 -0.0249014 -0.0203284 0.0149576 -0.0248993 -0.0332492 0.0212435 -0.0243779 
-0.025261 0.030812 -0.023675 -0.0088354 0.0340944 -0.0249054 -0.0255344 0.010562 -0.0203106 
-0.0156099 0.0123479 -0.0198575 -0.0166674 -0.0199684 -0.016251 -0.006758 -0.00417797 -0.0185543 
-0.016039 -0.000886859 -0.0159622 -0.0136151 0.0110949 -0.016256 -0.0302008 0.015853 -0.0161751 
-0.0138041 -0.0299263 -0.012629 -0.0199892 0.00645928 -0.0147415 -0.0118987 0.0289343 -0.0134535 
-0.0135716 -0.00811727 -0.00825142 -0.00739645 0.00376164 -0.00817637 -0.0267621 -0.0219194 -0.00558674 
-0.020149 -0.00685329 -0.00433219 -0.0141771 0.0177987 -0.0054632 -0.00471042 0.0296342 -0.00510245 
-0.00791609 -0.0196794 -0.00180715 -0.0179545 0.0159092 -0.00225073 -0.00439906 -0.0328903 0.0017718 
-0.0296076 0.00722911 0.00188367 -0.016986 -0.0318376 0.0050105 -0.0281298 -0.0148599 0.00604557 
-0.0161861 -0.00599108 0.00608601 -0.0227935 0.0274334 0.00550106 -0.0292679 0.0147935 0.00884876 
-0.00205293 0.0165512 0.00871725 -0.0112712 -0.0202504 0.0143688 -0.0305301 0.00502779 0.0117056 
-0.00405648 0.032442 0.0126931 -0.0135333 -0.0276689 0.0161309 -0.0331337 -0.0163611 0.0172529 
-2.29018e-06 -0.0149558 0.0159971 -0.0273798 -0.00441029 0.0171102 -0.00301846 0.00510814 0.0160723 
-0.00794441 0.0258079 0.0183767 -0.0143544 -0.0272787 0.0220645 -0.0191843 -0.0221491 0.0211049 
-0.0125841 -0.0140137 0.0214878 -0.0336091 0.0316877 0.0217166 -0.00679321 -0.00970412 0.0256942 
-0.0125785 -0.0040947 0.0225916 -0.0316214 0.000145103 0.0251862 -0.0217323 0.00352617 0.0243292 
-0.0148309 0.00369911 0.0238375 -0.00193271 0.00892872 0.0234794 -0.0227292 -0.0342527 0.0295753 
-0.026321 0.0295451 0.0297699 -0.0331578 -0.0347183 0.0319681 -0.0076982 -0.0269483 0.0317657 
-0.0142543 -0.00491395 0.0324567 -0.00618246 0.0122116 0.0301528 -0.0188235 -0.00412326 0.0341926 
-0.030786 0.0122027 0.0352395 -0.0238018 0.0141125 0.0344059 -0.00584464 -0.0345985 0.0407382 
-0.0115686 -0.0259344 0.0396362 -0.00401145 -0.0205873 0.0400721 -0.0301844 0.00679958 0.0413555 
-0.004829 0.0333632 0.0408108 -0.010147 -0.0216422 0.0421139 -0.0322463 -0.00737998 0.0418835 
-0.00623706 -0.00658451 0.044385 -0.00679915 -0.000720285 0.0451133 -0.0230582 0.0203811 0.0451026 
-0.0210131 0.0295222 0.0420362 -0.0237179 -0.0330481 0.0460517 -0.0251936 -0.0129184 0.0479698 
-0.0214963 -0.0163735 0.0511038 -0.0152079 -0.0146465 0.0494164 -0.00240788 -0.00904262 0.0505338 
-0.0322856 0.00186917 0.0523475 -0.00372425 0.000239952 0.0491924 -0.0043072 0.0165241 0.0506183 

VERTICES 153 306
1 0 
1 1 
1 2 
1 3 
1 4 
1 5 
1 6 
1 7 
1 8 
1 9 
1 10 
1 11 
1 12 
1 13 
1 14 
1 15 
1 16 
1 17 
1 18 
1 19 
1 20 
1 21 
1 22 
1 23 
1 24 
1 25 
1 26 
1 27 
1 28 
1 29 
1 30 
1 31 
1 32 
1 33 
1 34 
1 35 
1 36 
1 37 
1 38 
1 39 
1 40 
1 41 
1 42 
1 43 
1 44 
1 45 
1 46 
1 47 
1 48 
1 49 
1 50 
1 51 
1 52 
1 53 
1 54 
1 55 
1 56 
1 57 
1 58 
1 59 
1 60 
1 61 
1 62 
1 63 
1 64 
1 65 
1 66 
1 67 
1 68 
1 69 
1 70 
1 71 
1 72 
1 73 
1 74 
1 75 
1 76 
1 77 
1 78 
1 79 
1 80 
1 81 
1 82 
1 83 
1 84 
1 85 
1 86 
1 87 
1 88 
1 89 
1 90 
1 91 
1 92 
1 93 
1 94 
1 95 
1 96 
1 97 
1 98 
1 99 
1 100 
1 101 
1 102 
1 103 
1 104 
1 105 
1 106 
1 107 
1 108 
1 109 
1 110 
1 111 
1 112 
1 113 
1 114 
1 115 
1 116 
1 117 
1 118 
1 119 
1 120 
1 121 
1 122 
1 123 
1 124 
1 125 
1 126 
1 127 
1 128 
1 129 
1 130 
1 131 
1 132 
1 133 
1 134 
1 135 
1 136 
1 137 
1 138 
1 139 
1 140 
1 141 
1 142 
1 143 
1 144 
1 145 
1 146 
1 147 
1 148 
1 149 
1 150 
1 151 
1 152 

POINT_DATA 153
FIELD FieldData 7
id 1 153 int
2 10 6 4 12 8 7 1 13 
5 9 11 3 19 22 20 18 23 
16 21 25 24 15 14 17 38 30 
29 28 33 35 26 31 37 32 36 
34 27 49 42 44 50 47 51 48 
45 43 46 40 39 41 60 56 54 
53 59 64 55 61 63 52 62 58 
57 73 65 67 72 69 71 75 76 
70 77 74 68 86 66 80 84 85 
82 87 81 78 90 88 79 89 83 
98 99 100 95 96 92 101 91 97 
102 93 110 113 94 114 104 111 106 
107 109 112 108 105 103 127 115 120 
121 117 123 118 126 119 124 116 125 
122 135 140 128 139 136 133 131 132 
134 137 147 138 129 153 146 149 151 
130 145 143 150 144 142 141 152 148 

type 1 153 int
1 1 1 1 1 1 1 1 1 
1 1 1 1 1 1 1 1 1 
1 1 1 1 1 1 1 1 1 
1 1 1 1 1 1 1 1 1 
1 1 1 1 1 1 1 1 1 
1 1 1 1 1 1 1 1 1 
1 1 1 1 1 1 1 1 1 
1 1 1 1 1 1 1 1 1 
1 1 1 1 1 1 1 1 1 
1 1 1 1 1 1 1 1 1 
1 1 1 1 1 1 1 1 1 
1 1 1 1 1 1 1 1 1 
1 1 1 1 1 1 1 1 1 
1 1 1 1 1 1 1 1 1 
1 1 1 1 1 1 1 1 1 
1 1 1 1 1 1 1 1 1 
1 1 1 1 1 1 1 1 1 

i 3 153 int
0 0 0 0 0 0 0 0 0 
0 0 0 0 0 0 0 0 0 
0 0 0 0 0 0 0 0 0 
0 0 0 0 0 0 0 0 0 
0 0 0 0 0 0 0 0 0 
0 0 0 0 0 0 0 0 0 
0 0 0 0 0 0 0 0 0 
0 0 0 0 0 0 0 0 0 
0 0 0 0 0 0 0 0 0 
0 0 0 0 0 0 0 0 0 
0 0 0 0 0 0 0 0 0 
0 0 0 0 0 0 0 0 0 
0 0 0 0 0 0 0 0 0 
0 0 0 0 0 0 0 0 0 
0 0 0 0 0 0 0 0 0 
0 0 0 0 0 0 0 0 0 
0 0 0 0 0 0 0 0 0 
0 0 0 0 0 0 0 0 0 
0 0 0 0 0 0 0 0 0 
0 0 0 0 0 0 0 0 0 
0 0 0 0 0 0 0 0 0 
0 0 0 0 0 0 0 0 0 
0 0 0 0 0 0 0 0 0 
0 0 0 0 0 0 0 0 0 
0 0 0 0 0 0 0 0 0 
0 0 0 0 0 0 0 0 0 
0 0 0 0 0 0 0 0 0 
0 0 0 0 0 0 0 0 0 
0 0 0 0 0 0 0 0 0 
0 0 0 0 0 0 0 0 0 
0 0 0 0 0 0 0 0 0 
0 0 0 0 0 0 0 0 0 
0 0 0 0 0 0 0 0 0 
0 0 0 0 0 0 0 0 0 
0 0 0 0 0 0 0 0 0 
0 0 0 0 0 0 0 0 0 
0 0 0 0 0 0 0 0 0 
0 0 0 0 0 0 0 0 0 
0 0 0 0 0 0 0 0 0 
0 0 0 0 0 0 0 0 0 
0 0 0 0 0 0 0 0 0 
0 0 0 0 0 0 0 0 0 
0 0 0 0 0 0 0 0 0 
0 0 0 0 0 0 0 0 0 
0 0 0 0 0 0 0 0 0 
0 0 0 0 0 0 0 0 0 
0 0 0 0 0 0 0 0 0 
0 0 0 0 0 0 0 0 0 
0 0 0 0 0 0 0 0 0 
0 0 0 0 0 0 0 0 0 
0 0 0 0 0 0 0 0 0 

v 3 153 double
-0.72615218482 0.009366097318 0.21431777591 -0.73437412757 0.048248182168 0.24002559408 -0.75112202757 -0.13566800949 0.19963526184 
-0.55576444893 -0.24210604252 0.022334752479 -0.71584803948 0.12790338348 0.18431130725 -0.63591859651 -0.039450297487 -0.039290954054 
-0.73198125343 -0.17095954075 0.12588282351 -0.73007221792 -0.0070138229157 -0.28350529148 -0.71666648092 0.26310328876 0.18452699787 
-0.71966002753 0.26420228247 0.19224325388 0.0053772640319 -0.75568784498 -0.21878601368 -0.72097167049 -0.26198189066 0.20579621826 
-0.69695482414 0.28675055182 0.21436867349 0 0 -2.04697225 -0.86141698322 0.50053828671 -1.3248905841 
0 0 -2.03588695 0 0 -2.02852945 0 0 -2.00900755 
0 0 -2.02323205 0 0 -2.01940615 0 0 -2.00429875 
0 0 -1.98673885 0 0 -1.97182765 0 0 -1.98104905 
0 0 -1.97065045 0 0 -1.95279625 0 0 -1.93543255 
0 0 -1.93955275 0 0 -1.93817935 0 0 -1.93621735 
0 0 -1.91767645 0 0 -1.89913555 0 0 -1.91375245 
0 0 -1.89766405 0 0 -1.89246475 0 0 -1.89050275 
0 0 -1.88540155 0 0 -1.86587965 0 0 -1.81967455 
0 0 -1.82507005 0 0 -1.82310805 0 0 -1.81310185 
0 0 -1.80613675 0 0 -1.80907975 0 0 -1.81212085 
0 0 -1.78995025 0 0 -1.77886495 0 0 -1.77876685 
0 0 -1.76562145 0 0 -1.77592195 0 0 -1.77219415 
0 0 -1.74168505 0 0 -1.74708055 0 0 -1.71882775 
0 0 -1.71735625 0 0 -1.72314415 0 0 -1.72755865 
0 0 -1.73010925 0 0 -1.73413135 0 0 -1.69410655 
0 0 -1.69234075 0 0 -1.68459085 0 0 -1.68047065 
0 0 -1.67213215 0 0 -1.66477465 0 0 -1.65123685 
0 0 -1.65133495 0 0 -1.64898055 0 0 -1.64034775 
0 0 -1.63122445 0 0 -1.61915815 0 0 -1.58923765 
0 0 -1.59021865 0 0 -1.58580415 0 0 -1.58168395 
0 0 -1.57148155 0 0 -1.57148155 0 0 -1.56824425 
0 0 -1.56382975 0 0 -1.57148155 0 0 -1.54254205 
0 0 -1.53969715 0 0 -1.51654555 0 0 -1.53135865 
0 0 -1.51468165 0 0 -1.51654555 0 0 -1.51605505 
0 0 -1.49290345 0 0 -1.50673555 0 0 -1.49829895 
0 0 -1.46386585 0 0 -1.46337535 0 0 -1.44591355 
0 0 -1.43737885 0 0 -1.44503065 0 0 -1.44257815 
0 0 -1.42001515 0 0 -1.42305625 0 0 -1.39509775 
0 0 -1.39431295 0 0 -1.37214235 0 0 -1.36468675 
0 0 -1.36439245 0 0 -1.36861075 0 0 -1.34438005 
0 0 -1.34536105 0 0 -1.30347235 0 0 -1.32338665 
0 0 -1.31602915 0 0 -1.29013075 0 0 -1.28159605 
0 0 -1.29120985 0 0 -1.28267515 0 0 -1.29062125 
0 0 -1.27296325 0 0 -1.24421995 0 0 -1.25177365 
0 0 -1.24873255 0 0 -1.24696675 0 0 -1.21528045 
0 0 -1.24009975 0 0 -1.21940065 0 0 -1.22626765 
0 0 -1.23019165 0 0 -1.23303655 0 0 -1.18349605 
0 0 -1.18192645 0 0 -1.16348365 0 0 -1.16524945 
0 0 -1.15936345 0 0 -1.17868915 0 0 -1.14464845 
0 0 -1.13562325 0 0 -1.14278455 0 0 -1.08706375 
0 0 -1.09697185 0 0 -1.09304785 0 0 -1.08147205 
0 0 -1.08637705 0 0 -1.07460505 0 0 -1.07666515 
0 0 -1.05361165 0 0 -1.04684275 0 0 -1.04694085 
0 0 -1.07529175 0 0 -1.03801375 0 0 -1.01976715 
0 0 -1 0 0 -1.00573885 0 0 -1 
0 0 -1 0 0 -1.00789705 0 0 -1 

f 3 153 double
0 0 -0.0016051574964 0 0 -0.00034671401923 0 0 -0.00034671401923 
0 0 -0.0016051574964 0 0 -0.00034671401923 0 0 -0.00034671401923 
0 0 -0.00034671401923 0 0 -0.0016051574964 0 0 -0.00034671401923 
0 0 -0.0016051574964 0 0 -0.00034671401923 0 0 -0.00034671401923 
0 0 -0.0016051574964 0 0 -0.00034671401923 0 0 -0.00034671401923 
0 0 -0.00034671401923 0 0 -0.00034671401923 0 0 -0.00034671401923 
0 0 -0.0016051574964 0 0 -0.00034671401923 0 0 -0.00034671401923 
0 0 -0.00034671401923 0 0 -0.0016051574964 0 0 -0.0016051574964 
0 0 -0.0016051574964 0 0 -0.00034671401923 0 0 -0.0016051574964 
0 0 -0.0016051574964 0 0 -0.0016051574964 0 0 -0.00034671401923 
0 0 -0.00034671401923 0 0 -0.0016051574964 0 0 -0.00034671401923 
0 0 -0.00034671401923 0 0 -0.00034671401923 0 0 -0.00034671401923 
0 0 -0.00034671401923 0 0 -0.0016051574964 0 0 -0.00034671401923 
0 0 -0.0016051574964 0 0 -0.00034671401923 0 0 -0.00034671401923 
0 0 -0.00034671401923 0 0 -0.00034671401923 0 0 -0.00034671401923 
0 0 -0.00034671401923 0 0 -0.0016051574964 0 0 -0.00034671401923 
0 0 -0.0016051574964 0 0 -0.0016051574964 0 0 -0.0016051574964 
0 0 -0.00034671401923 0 0 -0.00034671401923 0 0 -0.0016051574964 
0 0 -0.0016051574964 0 0 -0.00034671401923 0 0 -0.00034671401923 
0 0 -0.0016051574964 0 0 -0.00034671401923 0 0 -0.00034671401923 
0 0 -0.0016051574964 0 0 -0.00034671401923 0 0 -0.00034671401923 
0 0 -0.00034671401923 0 0 -0.00034671401923 0 0 -0.0016051574964 
0 0 -0.0016051574964 0 0 -0.00034671401923 0 0 -0.00034671401923 
0 0 -0.00034671401923 0 0 -0.00034671401923 0 0 -0.00034671401923 
0 0 -0.00034671401923 0 0 -0.00034671401923 0 0 -0.00034671401923 
0 0 -0.0016051574964 0 0 -0.00034671401923 0 0 -0.0016051574964 
0 0 -0.0016051574964 0 0 -0.00034671401923 0 0 -0.00034671401923 
0 0 -0.00034671401923 0 0 -0.00034671401923 0 0 -0.0016051574964 
0 0 -0.0016051574964 0 0 -0.00034671401923 0 0 -0.00034671401923 
0 0 -0.0016051574964 0 0 -0.00034671401923 0 0 -0.00034671401923 
0 0 -0.00034671401923 0 0 -0.00034671401923 0 0 -0.00034671401923 
0 0 -0.00034671401923 0 0 -0.00034671401923 0 0 -0.0016051574964 
0 0 -0.00034671401923 0 0 -0.0016051574964 0 0 -0.00034671401923 
0 0 -0.00034671401923 0 0 -0.0016051574964 0 0 -0.00034671401923 
0 0 -0.00034671401923 0 0 -0.0016051574964 0 0 -0.00034671401923 
0 0 -0.0016051574964 0 0 -0.00034671401923 0 0 -0.0016051574964 
0 0 -0.00034671401923 0 0 -0.00034671401923 0 0 -0.00034671401923 
0 0 -0.00034671401923 0 0 -0.0016051574964 0 0 -0.0016051574964 
0 0 -0.00034671401923 0 0 -0.0016051574964 0 0 -0.00034671401923 
0 0 -0.00034671401923 0 0 -0.0016051574964 0 0 -0.00034671401923 
0 0 -0.0016051574964 0 0 -0.00034671401923 0 0 -0.0016051574964 
0 0 -0.00034671401923 0 0 -0.0016051574964 0 0 -0.00034671401923 
0 0 -0.00034671401923 0 0 -0.00034671401923 0 0 -0.00034671401923 
0 0 -0.0016051574964 0 0 -0.00034671401923 0 0 -0.00034671401923 
0 0 -0.00034671401923 0 0 -0.0016051574964 0 0 -0.0016051574964 
0 0 -0.00034671401923 0 0 -0.00034671401923 0 0 -0.00034671401923 
0 0 -0.00034671401923 0 0 -0.0016051574964 0 0 -0.00034671401923 
0 0 -0.00034671401923 0 0 -0.00034671401923 0 0 -0.00034671401923 
0 0 -0.0016051574964 0 0 -0.0016051574964 0 0 -0.0016051574964 
0 0 0 0 0 -0.0016051574964 0 0 0 
0 0 0 0 0 -0.00034671401923 0 0 0 

radius 1 153 double
0.0025 0.0015 0.0015 0.0025 0.0015 0.0015 0.0015 0.0025 0.0015 
0.0025 0.0015 0.0015 0.0025 0.0015 0.0015 0.0015 0.0015 0.0015 
0.0025 0.0015 0.0015 0.0015 0.0025 0.0025 0.0025 0.0015 0.0025 
0.0025 0.0025 0.0015 0.0015 0.0025 0.0015 0.0015 0.0015 0.0015 
0.0015 0.0025 0.0015 0.0025 0.0015 0.0015 0.0015 0.0015 0.0015 
0.0015 0.0025 0.0015 0.0025 0.0025 0.0025 0.0015 0.0015 0.0025 
0.0025 0.0015 0.0015 0.0025 0.0015 0.0015 0.0025 0.0015 0.0015 
0.0015 0.0015 0.0025 0.0025 0.0015 0.0015 0.0015 0.0015 0.0015 
0.0015 0.0015 0.0015 0.0025 0.0015 0.0025 0.0025 0.0015 0.0015 
0.0015 0.0015 0.0025 0.0025 0.0015 0.0015 0.0025 0.0015 0.0015 
0.0015 0.0015 0.0015 0.0015 0.0015 0.0025 0.0015 0.0025 0.0015 
0.0015 0.0025 0.0015 0.0015 0.0025 0.0015 0.0025 0.0015 0.0025 
0.0015 0.0015 0.0015 0.0015 0.0025 0.0025 0.0015 0.0025 0.0015 
0.0015 0.0025 0.0015 0.0025 0.0015 0.0025 0.0015 0.0025 0.0015 
0.0015 0.0015 0.0015 0.0025 0.0015 0.0015 0.0015 0.0025 0.0025 
0.0015 0.0015 0.0015 0.0015 0.0025 0.0015 0.0015 0.0015 0.0015 
0.0025 0.0025 0.0025 0.0015 0.0025 0.0025 0.0025 0.0015 0.0015 

omega 3 153 double
-2.88476401 -223.6553409 -1.9133269531e-16 -24.449373837 -372.13811534 4.7501171527e-15 68.910007313 -381.51827101 3.9403029229e-15 
-17.703055782 -284.21009239 -31.747699086 -65.881516809 -368.72484029 -1.4284031096e-14 19.36541976 -380.14301931 -13.907942885 
87.775431565 -375.81974153 6.0377299216e-14 90.90835954 -150.35114984 28.8696814 -135.70422402 -369.6444432 8.7748112008e-15 
-82.580150371 -224.93989353 -7.2171120977e-15 291.92446398 572.56011813 220.35598303 133.93957814 -368.60044468 6.0095095217e-15 
-88.749016132 -215.70683836 -3.2855428141e-15 0 0 0 -453.56357329 -413.6399923 -243.0651494 
0 0 0 0 0 0 0 0 0 
0 0 0 0 0 0 0 0 0 
0 0 0 0 0 0 0 0 0 
0 0 0 0 0 0 0 0 0 
0 0 0 0 0 0 0 0 0 
0 0 0 0 0 0 0 0 0 
0 0 0 0 0 0 0 0 0 
0 0 0 0 0 0 0 0 0 
0 0 0 0 0 0 0 0 0 
0 0 0 0 0 0 0 0 0 
0 0 0 0 0 0 0 0 0 
0 0 0 0 0 0 0 0 0 
0 0 0 0 0 0 0 0 0 
0 0 0 0 0 0 0 0 0 
0 0 0 0 0 0 0 0 0 
0 0 0 0 0 0 0 0 0 
0 0 0 0 0 0 0 0 0 
0 0 0 0 0 0 0 0 0 
0 0 0 0 0 0 0 0 0 
0 0 0 0 0 0 0 0 0 
0 0 0 0 0 0 0 0 0 
0 0 0 0 0 0 0 0 0 
0 0 0 0 0 0 0 0 0 
0 0 0 0 0 0 0 0 0 
0 0 0 0 0 0 0 0 0 
0 0 0 0 0 0 0 0 0 
0 0 0 0 0 0 0 0 0 
0 0 0 0 0 0 0 0 0 
0 0 0 0 0 0 0 0 0 
0 0 0 0 0 0 0 0 0 
0 0 0 0 0 0 0 0 0 
0 0 0 0 0 0 0 0 0 
0 0 0 0 0 0 0 0 0 
0 0 0 0 0 0 0 0 0 
0 0 0 0 0 0 0 0 0 
0 0 0 0 0 0 0 0 0 
0 0 0 0 0 0 0 0 0 
0 0 0 0 0 0 0 0 0 
0 0 0 0 0 0 0 0 0 
0 0 0 0 0 0 0 0 0 
0 0 0 0 0 0 0 0 0 
0 0 0 0 0 0 0 0 0 
0 0 0 0 0 0 0 0 0 
0 0 0 0 0 0 0 0 0 
0 0 0 0 0 0 0 0 0 
0 0 0 0 0 0 0 0 0 

