# vtk DataFile Version 4.1
Generated by LIGGGHTS
ASCII
DATASET POLYDATA
POINTS 102 float
-0.0208226 -0.00599195 -0.0429341 -0.00462371 0.0206347 -0.043501 -0.00174714 0.0260627 -0.0425499 
-0.00894204 -0.016163 -0.0410591 -0.0299058 -0.00882918 -0.0418725 -0.0190478 0.013684 -0.0401682 
-0.0160886 0.0216478 -0.0405016 -0.00953586 0.00971988 -0.0368451 -0.00217367 0.0240852 -0.0366341 
-0.0106535 -0.0244251 -0.0326566 -0.0134792 -0.0343741 -0.0304018 -0.00618745 -0.0313193 -0.0314104 
-0.0124546 0.031784 -0.0314469 -0.0214597 -0.00448395 -0.0256442 -0.0244429 0.0229939 -0.0259228 
-0.028663 -0.019004 -0.0238695 -0.0101549 -0.0158816 -0.0226954 -0.0275046 -0.000700049 -0.0218588 
-0.0083641 0.00277185 -0.0212493 -0.0202974 -0.0199605 -0.0196109 -0.0219947 -0.0107694 -0.0188748 
-0.00857183 -0.027925 -0.0161526 -0.00454319 0.0203252 -0.0152732 -0.0159102 -0.0341757 -0.0109592 
-0.00408721 -0.0194644 -0.0138522 -0.00174502 0.0344165 -0.0136761 -0.0327631 -0.0200888 -0.00835252 
-0.0159539 -0.00381092 -0.00897232 -0.0300659 -0.00019371 -0.00876462 -0.0235267 0.0224168 -0.0084679 
-0.0230202 -0.021037 -0.0057246 -0.0229734 0.000876534 -0.00514625 -0.020721 -0.0135944 -0.0020327 
-0.0127396 -0.0137041 -0.00175319 -0.000459601 -0.00791581 -0.00299975 -0.0221714 0.00979368 -0.00279311 
-0.0240929 0.0291618 -0.00100987 -0.0160817 -0.000243398 0.00178727 -0.0175025 -0.0228838 0.0091412 
-0.022804 -0.0140579 0.0100957 -0.0251247 -0.00571197 0.00969053 -0.024531 -1.04943e-05 0.00824211 
-0.0306884 0.0042356 0.00750137 -0.018642 0.00531382 0.00927705 -0.027916 0.0296421 0.00776912 
-0.0105626 -0.00654333 0.0122814 -0.027846 0.00485213 0.0137717 -0.00180681 0.0181929 0.014162 
-0.0178022 0.0256262 0.0137876 -0.0294843 -0.0242442 0.0155282 -0.021213 0.0304724 0.0146624 
-0.0262531 0.00245318 0.0210421 -0.0274253 0.00637934 0.0204742 -0.0337701 0.0102173 0.0186546 
-0.0284955 0.0109203 0.0201481 -0.0264294 0.0258143 0.019634 -0.0315539 0.028352 0.0179601 
-0.0046838 -0.0346092 0.0249279 -0.0221544 -0.0267021 0.0215911 -0.00322644 -0.0143029 0.0247101 
-0.0188291 -0.0129094 0.0217758 -0.0205837 -0.0294247 0.0258849 -0.0181818 0.00594264 0.0283221 
-0.00206763 0.0123655 0.0263973 -0.0315184 0.0323336 0.0274254 -0.00317446 -0.00327501 0.0302287 
-0.0113639 0.00609324 0.0299581 -0.0237558 0.020832 0.0299462 -0.0233787 0.0259916 0.0312597 
-0.0101315 -0.0171842 0.0337603 -0.00618278 0.0247152 0.0323468 -0.00512449 -0.0296766 0.0372252 
-0.0132118 -0.0121788 0.0371047 -0.0226093 -0.00790771 0.0376126 -0.0176419 0.0252752 0.0380789 
-0.00331379 -0.00673963 0.0392286 -0.0255344 0.010562 0.0424303 -0.0156099 0.0123479 0.0427468 
-0.0203284 0.0149576 0.0392307 -0.0332492 0.0212435 0.0395967 -0.025261 0.030812 0.0400877 
-0.0088354 0.0340944 0.0392246 -0.0166674 -0.0199684 0.0452421 -0.006758 -0.00417797 0.0436498 
-0.016039 -0.000886859 0.0454414 -0.0199892 0.00645928 0.0462807 -0.0136151 0.0110949 0.045237 
-0.0302008 0.015853 0.0452944 -0.0138041 -0.0299263 0.0477293 -0.0118987 0.0289343 0.0471637 
-0.0179545 0.0159092 0.0548714 -0.00471042 0.0296342 0.052881 -0.016986 -0.0318376 0.0600691 
-0.0227935 0.0274334 0.0604263 -0.020149 -0.00685329 0.0534181 -0.0141771 0.0177987 0.0526312 
-0.00439906 -0.0328903 0.0577281 -0.0135716 -0.00811727 0.0507155 -0.00739645 0.00376164 0.0507674 
-0.0267621 -0.0219194 0.0525478 -0.00791609 -0.0196794 0.0551843 -0.0296076 0.00722911 0.0578084 

VERTICES 102 204
1 0 
1 1 
1 2 
1 3 
1 4 
1 5 
1 6 
1 7 
1 8 
1 9 
1 10 
1 11 
1 12 
1 13 
1 14 
1 15 
1 16 
1 17 
1 18 
1 19 
1 20 
1 21 
1 22 
1 23 
1 24 
1 25 
1 26 
1 27 
1 28 
1 29 
1 30 
1 31 
1 32 
1 33 
1 34 
1 35 
1 36 
1 37 
1 38 
1 39 
1 40 
1 41 
1 42 
1 43 
1 44 
1 45 
1 46 
1 47 
1 48 
1 49 
1 50 
1 51 
1 52 
1 53 
1 54 
1 55 
1 56 
1 57 
1 58 
1 59 
1 60 
1 61 
1 62 
1 63 
1 64 
1 65 
1 66 
1 67 
1 68 
1 69 
1 70 
1 71 
1 72 
1 73 
1 74 
1 75 
1 76 
1 77 
1 78 
1 79 
1 80 
1 81 
1 82 
1 83 
1 84 
1 85 
1 86 
1 87 
1 88 
1 89 
1 90 
1 91 
1 92 
1 93 
1 94 
1 95 
1 96 
1 97 
1 98 
1 99 
1 100 
1 101 

POINT_DATA 102
FIELD FieldData 7
id 1 102 int
2 7 1 12 10 6 4 8 9 
5 3 13 11 19 22 20 18 16 
21 23 25 24 14 38 15 17 30 
29 28 33 35 31 32 36 26 37 
34 27 50 47 51 49 42 48 44 
45 43 39 46 40 41 59 64 60 
55 61 56 52 54 63 53 62 73 
58 57 72 65 67 69 75 71 76 
70 77 74 68 85 82 86 66 80 
84 87 81 78 89 90 88 79 83 
91 92 93 94 95 96 97 98 99 
100 101 102 
type 1 102 int
1 1 1 1 1 1 1 1 1 
1 1 1 1 1 1 1 1 1 
1 1 1 1 1 1 1 1 1 
1 1 1 1 1 1 1 1 1 
1 1 1 1 1 1 1 1 1 
1 1 1 1 1 1 1 1 1 
1 1 1 1 1 1 1 1 1 
1 1 1 1 1 1 1 1 1 
1 1 1 1 1 1 1 1 1 
1 1 1 1 1 1 1 1 1 
1 1 1 1 1 1 1 1 1 
1 1 1 
i 3 102 int
0 0 0 0 0 0 0 0 0 
0 0 0 0 0 0 0 0 0 
0 0 0 0 0 0 0 0 0 
0 0 0 0 0 0 0 0 0 
0 0 0 0 0 0 0 0 0 
0 0 0 0 0 0 0 0 0 
0 0 0 0 0 0 0 0 0 
0 0 0 0 0 0 0 0 0 
0 0 0 0 0 0 0 0 0 
0 0 0 0 0 0 0 0 0 
0 0 0 0 0 0 0 0 0 
0 0 0 0 0 0 0 0 0 
0 0 0 0 0 0 0 0 0 
0 0 0 0 0 0 0 0 0 
0 0 0 0 0 0 0 0 0 
0 0 0 0 0 0 0 0 0 
0 0 0 0 0 0 0 0 0 
0 0 0 0 0 0 0 0 0 
0 0 0 0 0 0 0 0 0 
0 0 0 0 0 0 0 0 0 
0 0 0 0 0 0 0 0 0 
0 0 0 0 0 0 0 0 0 
0 0 0 0 0 0 0 0 0 
0 0 0 0 0 0 0 0 0 
0 0 0 0 0 0 0 0 0 
0 0 0 0 0 0 0 0 0 
0 0 0 0 0 0 0 0 0 
0 0 0 0 0 0 0 0 0 
0 0 0 0 0 0 0 0 0 
0 0 0 0 0 0 0 0 0 
0 0 0 0 0 0 0 0 0 
0 0 0 0 0 0 0 0 0 
0 0 0 0 0 0 0 0 0 
0 0 0 0 0 0 0 0 0 

v 3 102 double
0 0 -1.68027445 0 0 -1.68360985 0 0 -1.67801815 
0 0 -1.66928725 0 0 -1.67409415 0 0 -1.66408795 
0 0 -1.66604995 0 0 -1.64436985 0 0 -1.64309455 
0 0 -1.61915815 0 0 -1.60542415 0 0 -1.61160445 
0 0 -1.61180065 0 0 -1.57609225 0 0 -1.57785805 
0 0 -1.56500695 0 0 -1.55764945 0 0 -1.55235205 
0 0 -1.54852615 0 0 -1.53812755 0 0 -1.53341875 
0 0 -1.51585885 0 0 -1.51016905 0 0 -1.48191625 
0 0 -1.50094765 0 0 -1.49977045 0 0 -1.46455255 
0 0 -1.46867275 0 0 -1.46729935 0 0 -1.46533735 
0 0 -1.44679645 0 0 -1.44287245 0 0 -1.42158475 
0 0 -1.41962275 0 0 -1.42825555 0 0 -1.42678405 
0 0 -1.41452155 0 0 -1.39499965 0 0 -1.34222185 
0 0 -1.33525675 0 0 -1.33819975 0 0 -1.34879455 
0 0 -1.35419005 0 0 -1.34124085 0 0 -1.35222805 
0 0 -1.31907025 0 0 -1.30798495 0 0 -1.30504195 
0 0 -1.30788685 0 0 -1.29474145 0 0 -1.30131415 
0 0 -1.25226415 0 0 -1.25667865 0 0 -1.27080505 
0 0 -1.25922925 0 0 -1.26325135 0 0 -1.27620055 
0 0 -1.22146075 0 0 -1.24794775 0 0 -1.22322655 
0 0 -1.24647625 0 0 -1.21371085 0 0 -1.19389465 
0 0 -1.20959065 0 0 -1.20125215 0 0 -1.17810055 
0 0 -1.18035685 0 0 -1.18045495 0 0 -1.16946775 
0 0 -1.14827815 0 0 -1.16034445 0 0 -1.11835765 
0 0 -1.11933865 0 0 -1.11492415 0 0 -1.11080395 
0 0 -1.10060155 0 0 -1.07166205 0 0 -1.06881715 
0 0 -1.10060155 0 0 -1.09736425 0 0 -1.09294975 
0 0 -1.10060155 0 0 -1.04566555 0 0 -1.06047865 
0 0 -1.04380165 0 0 -1.03585555 0 0 -1.04566555 
0 0 -1.04517505 0 0 -1.02202345 0 0 -1.02741895 
0 0 -1 0 0 -1 0 0 -1 
0 0 -1 0 0 -1 0 0 -1 
0 0 -1 0 0 -1 0 0 -1 
0 0 -1 0 0 -1 0 0 -1 

f 3 102 double
0 0 -0.0016051574964 0 0 -0.00034671401923 0 0 -0.0016051574964 
0 0 -0.00034671401923 0 0 -0.00034671401923 0 0 -0.00034671401923 
0 0 -0.0016051574964 0 0 -0.00034671401923 0 0 -0.00034671401923 
0 0 -0.0016051574964 0 0 -0.0016051574964 0 0 -0.00034671401923 
0 0 -0.00034671401923 0 0 -0.00034671401923 0 0 -0.00034671401923 
0 0 -0.00034671401923 0 0 -0.00034671401923 0 0 -0.0016051574964 
0 0 -0.00034671401923 0 0 -0.00034671401923 0 0 -0.00034671401923 
0 0 -0.00034671401923 0 0 -0.0016051574964 0 0 -0.00034671401923 
0 0 -0.0016051574964 0 0 -0.0016051574964 0 0 -0.0016051574964 
0 0 -0.0016051574964 0 0 -0.0016051574964 0 0 -0.00034671401923 
0 0 -0.00034671401923 0 0 -0.00034671401923 0 0 -0.00034671401923 
0 0 -0.00034671401923 0 0 -0.0016051574964 0 0 -0.00034671401923 
0 0 -0.00034671401923 0 0 -0.0016051574964 0 0 -0.00034671401923 
0 0 -0.00034671401923 0 0 -0.00034671401923 0 0 -0.00034671401923 
0 0 -0.0016051574964 0 0 -0.00034671401923 0 0 -0.00034671401923 
0 0 -0.00034671401923 0 0 -0.0016051574964 0 0 -0.0016051574964 
0 0 -0.00034671401923 0 0 -0.0016051574964 0 0 -0.0016051574964 
0 0 -0.00034671401923 0 0 -0.00034671401923 0 0 -0.00034671401923 
0 0 -0.0016051574964 0 0 -0.00034671401923 0 0 -0.00034671401923 
0 0 -0.0016051574964 0 0 -0.0016051574964 0 0 -0.00034671401923 
0 0 -0.0016051574964 0 0 -0.00034671401923 0 0 -0.00034671401923 
0 0 -0.00034671401923 0 0 -0.00034671401923 0 0 -0.00034671401923 
0 0 -0.0016051574964 0 0 -0.0016051574964 0 0 -0.00034671401923 
0 0 -0.00034671401923 0 0 -0.00034671401923 0 0 -0.00034671401923 
0 0 -0.00034671401923 0 0 -0.00034671401923 0 0 -0.00034671401923 
0 0 -0.0016051574964 0 0 -0.00034671401923 0 0 -0.00034671401923 
0 0 -0.00034671401923 0 0 -0.0016051574964 0 0 -0.0016051574964 
0 0 -0.00034671401923 0 0 -0.00034671401923 0 0 -0.0016051574964 
0 0 -0.0016051574964 0 0 -0.00034671401923 0 0 -0.00034671401923 
0 0 -0.00034671401923 0 0 -0.0016051574964 0 0 -0.00034671401923 
0 0 0 0 0 0 0 0 0 
0 0 0 0 0 0 0 0 0 
0 0 0 0 0 0 0 0 0 
0 0 0 0 0 0 0 0 0 

radius 1 102 double
0.0025 0.0015 0.0025 0.0015 0.0015 0.0015 0.0025 0.0015 0.0015 
0.0025 0.0025 0.0015 0.0015 0.0015 0.0015 0.0015 0.0015 0.0025 
0.0015 0.0015 0.0015 0.0015 0.0025 0.0015 0.0025 0.0025 0.0025 
0.0025 0.0025 0.0015 0.0015 0.0015 0.0015 0.0015 0.0025 0.0015 
0.0015 0.0025 0.0015 0.0015 0.0015 0.0015 0.0025 0.0015 0.0015 
0.0015 0.0025 0.0025 0.0015 0.0025 0.0025 0.0015 0.0015 0.0015 
0.0025 0.0015 0.0015 0.0025 0.0025 0.0015 0.0025 0.0015 0.0015 
0.0015 0.0015 0.0015 0.0025 0.0025 0.0015 0.0015 0.0015 0.0015 
0.0015 0.0015 0.0015 0.0025 0.0015 0.0015 0.0015 0.0025 0.0025 
0.0015 0.0015 0.0025 0.0025 0.0015 0.0015 0.0015 0.0025 0.0015 
0.0025 0.0025 0.0025 0.0025 0.0015 0.0015 0.0015 0.0015 0.0015 
0.0015 0.0015 0.0015 
omega 3 102 double
0 0 0 0 0 0 0 0 0 
0 0 0 0 0 0 0 0 0 
0 0 0 0 0 0 0 0 0 
0 0 0 0 0 0 0 0 0 
0 0 0 0 0 0 0 0 0 
0 0 0 0 0 0 0 0 0 
0 0 0 0 0 0 0 0 0 
0 0 0 0 0 0 0 0 0 
0 0 0 0 0 0 0 0 0 
0 0 0 0 0 0 0 0 0 
0 0 0 0 0 0 0 0 0 
0 0 0 0 0 0 0 0 0 
0 0 0 0 0 0 0 0 0 
0 0 0 0 0 0 0 0 0 
0 0 0 0 0 0 0 0 0 
0 0 0 0 0 0 0 0 0 
0 0 0 0 0 0 0 0 0 
0 0 0 0 0 0 0 0 0 
0 0 0 0 0 0 0 0 0 
0 0 0 0 0 0 0 0 0 
0 0 0 0 0 0 0 0 0 
0 0 0 0 0 0 0 0 0 
0 0 0 0 0 0 0 0 0 
0 0 0 0 0 0 0 0 0 
0 0 0 0 0 0 0 0 0 
0 0 0 0 0 0 0 0 0 
0 0 0 0 0 0 0 0 0 
0 0 0 0 0 0 0 0 0 
0 0 0 0 0 0 0 0 0 
0 0 0 0 0 0 0 0 0 
0 0 0 0 0 0 0 0 0 
0 0 0 0 0 0 0 0 0 
0 0 0 0 0 0 0 0 0 
0 0 0 0 0 0 0 0 0 

