# vtk DataFile Version 4.1
Generated by LIGGGHTS
ASCII
DATASET POLYDATA
POINTS 179 float
-0.0439515 0.0317751 -0.119109 -0.0357391 -0.0153981 -0.119556 -0.0468147 -0.00771826 -0.11409 
-0.0297361 -0.0093243 -0.112866 -0.0321631 -0.00434589 -0.111673 -0.0368281 -0.000858556 -0.120389 
-0.0337232 -0.0205483 -0.117469 -0.0286321 -0.0180244 -0.110795 -0.0396325 -0.00574934 -0.109122 
-0.0197976 -0.00376134 -0.110395 -0.0292898 0.000249286 -0.115891 -0.0251643 0.00824568 -0.11413 
-0.0373872 0.0103716 -0.109661 -0.0261057 0.0215772 -0.113865 -0.02398 0.0255819 -0.11238 
-0.0213758 -0.031927 -0.10788 -0.0173734 -0.0246937 -0.105316 -0.0248318 -0.0183053 -0.108187 
-0.0180567 -0.0149464 -0.109245 -0.0192967 0.0028701 -0.107224 -0.031912 0.0161661 -0.109795 
-0.0279071 0.0253679 -0.10775 -0.0283396 -0.02826 -0.104233 -0.0225029 -0.0253296 -0.102937 
-0.0323653 -0.0218408 -0.102942 -0.0122956 -0.0179978 -0.103215 -0.028357 -0.0126941 -0.104842 
-0.00373607 -0.007441 -0.104048 -0.0235873 0.000893974 -0.115571 -0.00197672 0.00235262 -0.106693 
-0.0263619 0.0155576 -0.103519 -0.0136714 0.0181932 -0.103369 -0.0239245 -0.0125453 -0.110207 
-0.013322 -0.0136 -0.110711 -0.0219556 0.0103142 -0.11188 -0.0241177 0.0299539 -0.109349 
-0.00833563 0.0312667 -0.102149 -0.0160633 -0.000317324 -0.107441 -0.0175025 -0.0228838 -0.0968519 
-0.024531 -1.04943e-05 -0.0981716 -0.0306884 0.0042356 -0.0992577 -0.018642 0.00531382 -0.0966532 
-0.027916 0.0296421 -0.0988644 -0.022804 -0.0140579 -0.0954516 -0.0251247 -0.00571197 -0.0960451 
-0.0105626 -0.00654333 -0.0922299 -0.027846 0.00485213 -0.0900302 -0.00180681 0.0181929 -0.0894515 
-0.0178022 0.0256262 -0.0900081 -0.0294843 -0.0242442 -0.0874261 -0.021213 0.0304724 -0.0887125 
-0.0337701 0.0102173 -0.0827678 -0.0315539 0.028352 -0.0838076 -0.0221544 -0.0267021 -0.0783685 
-0.0262531 0.00245318 -0.0791937 -0.0274253 0.00637934 -0.0800441 -0.0284955 0.0109203 -0.0805335 
-0.0264294 0.0258143 -0.081305 -0.0188291 -0.0129094 -0.0780896 -0.0046838 -0.0346092 -0.0733365 
-0.0205837 -0.0294247 -0.0718834 -0.00322644 -0.0143029 -0.0736673 -0.00206763 0.0123655 -0.0711074 
-0.0181818 0.00594264 -0.0681781 -0.0315184 0.0323336 -0.0695456 -0.00317446 -0.00327501 -0.0652606 
-0.0113639 0.00609324 -0.0656756 -0.0237558 0.020832 -0.0656938 -0.0233787 0.0259916 -0.0636772 
-0.00618278 0.0247152 -0.0620061 -0.0101315 -0.0171842 -0.0598204 -0.00512449 -0.0296766 -0.0544406 
-0.0132118 -0.0121788 -0.0546238 -0.0226093 -0.00790771 -0.0538334 -0.0176419 0.0252752 -0.0531034 
-0.00331379 -0.00673963 -0.0513008 -0.0203284 0.0149576 -0.0512987 -0.0332492 0.0212435 -0.0507255 
-0.025261 0.030812 -0.049952 -0.0088354 0.0340944 -0.0513048 -0.0255344 0.010562 -0.046247 
-0.0156099 0.0123479 -0.0457484 -0.006758 -0.00417797 -0.0443117 -0.0166674 -0.0199684 -0.0417714 
-0.016039 -0.000886859 -0.0414528 -0.0199892 0.00645928 -0.040105 -0.0136151 0.0110949 -0.0417764 
-0.0302008 0.015853 -0.0416877 -0.0118987 0.0289343 -0.038682 -0.0138041 -0.0299263 -0.0377711 
-0.0135716 -0.00811727 -0.032929 -0.00739645 0.00376164 -0.0328461 -0.0267621 -0.0219194 -0.029977 
-0.020149 -0.00685329 -0.0285859 -0.0141771 0.0177987 -0.0298394 -0.00471042 0.0296342 -0.0294394 
-0.00791609 -0.0196794 -0.0257831 -0.0179545 0.0159092 -0.0262753 -0.00439906 -0.0328903 -0.0218054 
-0.0296076 0.00722911 -0.021681 -0.016986 -0.0318376 -0.0181995 -0.0281298 -0.0148599 -0.0170451 
-0.0161861 -0.00599108 -0.0169999 -0.0227935 0.0274334 -0.0176524 -0.0292679 0.0147935 -0.013917 
-0.00205293 0.0165512 -0.0140642 -0.0305301 0.00502779 -0.0107242 -0.00405648 0.032442 -0.00961908 
-0.0135333 -0.0276689 -0.00576683 -0.0112712 -0.0202504 -0.0077424 -2.29018e-06 -0.0149558 -0.00591796 
-0.00301846 0.00510814 -0.00583335 -0.0331337 -0.0163611 -0.00450828 -0.0273798 -0.00441029 -0.00466828 
-0.00794441 0.0258079 -0.0032464 -0.0143544 -0.0272787 0.000901253 -0.0191843 -0.0221491 -0.000179149 
-0.0125841 -0.0140137 0.000252439 -0.0125785 -0.0040947 0.00149434 -0.0336091 0.0316877 0.000509445 
-0.00679321 -0.00970412 0.00499405 -0.0316214 0.000145103 0.00442016 -0.0217323 0.00352617 0.00345329 
-0.0148309 0.00369911 0.00289878 -0.00193271 0.00892872 0.00249511 -0.0331578 -0.0347183 0.0120967 
-0.0227292 -0.0342527 0.00938364 -0.0076982 -0.0269483 0.011866 -0.0142543 -0.00491395 0.0126512 
-0.00618246 0.0122116 0.0100381 -0.026321 0.0295451 0.00960342 -0.0188235 -0.00412326 0.0146225 
-0.030786 0.0122027 0.0158139 -0.0238018 0.0141125 0.0148657 -0.00584464 -0.0345985 0.0220895 
-0.0115686 -0.0259344 0.0208289 -0.010147 -0.0216422 0.0236645 -0.00401145 -0.0205873 0.0213276 
-0.0322463 -0.00737998 0.0234012 -0.0301844 0.00679958 0.0227963 -0.0210131 0.0295222 0.0235759 
-0.004829 0.0333632 0.0221731 -0.00623706 -0.00658451 0.0262715 -0.00679915 -0.000720285 0.0271081 
-0.0230582 0.0203811 0.0270958 -0.0237179 -0.0330481 0.0281878 -0.0251936 -0.0129184 0.0303978 
-0.0214963 -0.0163735 0.0340156 -0.0152079 -0.0146465 0.0320688 -0.00240788 -0.00904262 0.0333607 
-0.00372425 0.000239952 0.0318103 -0.0043072 0.0165241 0.0334573 -0.0326006 -0.0307471 0.0349556 
-0.0322856 0.00186917 0.0354329 -0.00943139 0.0192376 0.0381006 -0.0103743 0.0339743 0.0381335 
-0.0234861 -0.027537 0.0387723 -0.0180071 -0.0232682 0.0412155 -0.000114354 -0.0212937 0.0409152 
-0.0280789 0.0137467 0.0400967 -0.0345391 -0.0114622 0.0428273 -0.00596878 -0.0130405 0.0452606 
-0.0303036 -0.0103215 0.0449534 -0.0287704 0.0101406 0.0452982 -0.010941 0.0209557 0.0454563 
-0.0148889 0.0293808 0.0429727 -0.0326237 -0.0246784 0.0482001 -0.0234232 0.00199937 0.0465072 
-0.0252839 0.0329346 0.0463019 -0.0233162 -0.0208835 0.0498257 -0.01426 -0.0134546 0.0524308 
-0.0199625 -0.00318577 0.0520314 -0.0192935 0.0147617 0.0512808 -0.0264666 -0.0274673 0.0545598 
-0.0337354 -0.0145959 0.0529758 -0.0282271 0.00282044 0.0541512 -0.00243205 0.0227147 0.0544149 
-0.0334843 0.027503 0.0539873 -0.00169906 0.0312398 0.0547157 
VERTICES 179 358
1 0 
1 1 
1 2 
1 3 
1 4 
1 5 
1 6 
1 7 
1 8 
1 9 
1 10 
1 11 
1 12 
1 13 
1 14 
1 15 
1 16 
1 17 
1 18 
1 19 
1 20 
1 21 
1 22 
1 23 
1 24 
1 25 
1 26 
1 27 
1 28 
1 29 
1 30 
1 31 
1 32 
1 33 
1 34 
1 35 
1 36 
1 37 
1 38 
1 39 
1 40 
1 41 
1 42 
1 43 
1 44 
1 45 
1 46 
1 47 
1 48 
1 49 
1 50 
1 51 
1 52 
1 53 
1 54 
1 55 
1 56 
1 57 
1 58 
1 59 
1 60 
1 61 
1 62 
1 63 
1 64 
1 65 
1 66 
1 67 
1 68 
1 69 
1 70 
1 71 
1 72 
1 73 
1 74 
1 75 
1 76 
1 77 
1 78 
1 79 
1 80 
1 81 
1 82 
1 83 
1 84 
1 85 
1 86 
1 87 
1 88 
1 89 
1 90 
1 91 
1 92 
1 93 
1 94 
1 95 
1 96 
1 97 
1 98 
1 99 
1 100 
1 101 
1 102 
1 103 
1 104 
1 105 
1 106 
1 107 
1 108 
1 109 
1 110 
1 111 
1 112 
1 113 
1 114 
1 115 
1 116 
1 117 
1 118 
1 119 
1 120 
1 121 
1 122 
1 123 
1 124 
1 125 
1 126 
1 127 
1 128 
1 129 
1 130 
1 131 
1 132 
1 133 
1 134 
1 135 
1 136 
1 137 
1 138 
1 139 
1 140 
1 141 
1 142 
1 143 
1 144 
1 145 
1 146 
1 147 
1 148 
1 149 
1 150 
1 151 
1 152 
1 153 
1 154 
1 155 
1 156 
1 157 
1 158 
1 159 
1 160 
1 161 
1 162 
1 163 
1 164 
1 165 
1 166 
1 167 
1 168 
1 169 
1 170 
1 171 
1 172 
1 173 
1 174 
1 175 
1 176 
1 177 
1 178 

POINT_DATA 179
FIELD FieldData 7
id 1 179 int
22 20 10 25 19 16 30 23 2 
29 28 8 6 33 1 38 24 5 
18 21 4 11 3 13 35 15 12 
26 31 9 7 14 32 36 37 34 
17 27 50 49 42 48 44 47 51 
45 43 39 46 40 41 60 56 54 
59 64 55 61 53 52 62 63 58 
73 57 72 65 67 69 71 75 76 
70 77 74 68 86 66 80 84 85 
82 81 87 78 89 90 88 83 79 
98 99 100 95 96 92 101 91 97 
102 93 110 113 94 114 104 106 107 
109 111 108 103 112 105 127 115 120 
121 118 117 123 126 119 124 116 135 
125 140 128 139 122 136 133 131 132 
134 129 137 153 147 130 138 146 149 
151 145 143 150 144 142 152 148 160 
141 161 158 164 166 165 163 155 157 
162 159 156 154 174 168 178 167 172 
169 175 176 171 173 170 179 177 
type 1 179 int
1 1 1 1 1 1 1 1 1 
1 1 1 1 1 1 1 1 1 
1 1 1 1 1 1 1 1 1 
1 1 1 1 1 1 1 1 1 
1 1 1 1 1 1 1 1 1 
1 1 1 1 1 1 1 1 1 
1 1 1 1 1 1 1 1 1 
1 1 1 1 1 1 1 1 1 
1 1 1 1 1 1 1 1 1 
1 1 1 1 1 1 1 1 1 
1 1 1 1 1 1 1 1 1 
1 1 1 1 1 1 1 1 1 
1 1 1 1 1 1 1 1 1 
1 1 1 1 1 1 1 1 1 
1 1 1 1 1 1 1 1 1 
1 1 1 1 1 1 1 1 1 
1 1 1 1 1 1 1 1 1 
1 1 1 1 1 1 1 1 1 
1 1 1 1 1 1 1 1 1 
1 1 1 1 1 1 1 1 
i 3 179 int
0 0 0 0 0 0 0 0 0 
0 0 0 0 0 0 0 0 0 
0 0 0 0 0 0 0 0 0 
0 0 0 0 0 0 0 0 0 
0 0 0 0 0 0 0 0 0 
0 0 0 0 0 0 0 0 0 
0 0 0 0 0 0 0 0 0 
0 0 0 0 0 0 0 0 0 
0 0 0 0 0 0 0 0 0 
0 0 0 0 0 0 0 0 0 
0 0 0 0 0 0 0 0 0 
0 0 0 0 0 0 0 0 0 
0 0 0 0 0 0 0 0 0 
0 0 0 0 0 0 0 0 0 
0 0 0 0 0 0 0 0 0 
0 0 0 0 0 0 0 0 0 
0 0 0 0 0 0 0 0 0 
0 0 0 0 0 0 0 0 0 
0 0 0 0 0 0 0 0 0 
0 0 0 0 0 0 0 0 0 
0 0 0 0 0 0 0 0 0 
0 0 0 0 0 0 0 0 0 
0 0 0 0 0 0 0 0 0 
0 0 0 0 0 0 0 0 0 
0 0 0 0 0 0 0 0 0 
0 0 0 0 0 0 0 0 0 
0 0 0 0 0 0 0 0 0 
0 0 0 0 0 0 0 0 0 
0 0 0 0 0 0 0 0 0 
0 0 0 0 0 0 0 0 0 
0 0 0 0 0 0 0 0 0 
0 0 0 0 0 0 0 0 0 
0 0 0 0 0 0 0 0 0 
0 0 0 0 0 0 0 0 0 
0 0 0 0 0 0 0 0 0 
0 0 0 0 0 0 0 0 0 
0 0 0 0 0 0 0 0 0 
0 0 0 0 0 0 0 0 0 
0 0 0 0 0 0 0 0 0 
0 0 0 0 0 0 0 0 0 
0 0 0 0 0 0 0 0 0 
0 0 0 0 0 0 0 0 0 
0 0 0 0 0 0 0 0 0 
0 0 0 0 0 0 0 0 0 
0 0 0 0 0 0 0 0 0 
0 0 0 0 0 0 0 0 0 
0 0 0 0 0 0 0 0 0 
0 0 0 0 0 0 0 0 0 
0 0 0 0 0 0 0 0 0 
0 0 0 0 0 0 0 0 0 
0 0 0 0 0 0 0 0 0 
0 0 0 0 0 0 0 0 0 
0 0 0 0 0 0 0 0 0 
0 0 0 0 0 0 0 0 0 
0 0 0 0 0 0 0 0 0 
0 0 0 0 0 0 0 0 0 
0 0 0 0 0 0 0 0 0 
0 0 0 0 0 0 0 0 0 
0 0 0 0 0 0 0 0 0 
0 0 0 0 0 0 
v 3 179 double
-1.1700848973 0.45784193006 -0.23018536008 -0.79501852681 0.48457721002 0.012722549057 -0.73437412757 0.048248182168 0.083065594082 
-0.74833531134 0.13968932231 0.17219077025 -0.726997883 0.0093770053503 0.16190745035 -0.78883817524 -0.0078517211555 -0.1771448949 
-0.6071627898 -0.0031648268454 0.23095883933 -0.72111450957 0.16751643526 0.19169881085 -0.72615218482 0.009366097318 0.057357775914 
-0.72403545984 0.0093387952557 0.25797591719 0.14426441153 0.077850621076 -0.8986453209 -0.72795229012 -0.24108042092 -1.0759367685 
-0.75112202757 -0.13566800949 0.04267526184 -0.71938232997 -0.23419674247 0.2431097927 -0.73007221792 -0.0070138229157 -0.44046529148 
-0.70278434049 0.28914901005 0.19390800196 -0.71914082141 0.26401167102 0.13117622726 -0.46622543204 0.28658564139 -0.38427906229 
0.12333799577 -0.14795807854 -0.61421426052 -0.80429538578 0.25052372398 -0.39586786789 -0.55576444893 -0.24210604252 -0.13462524752 
-0.71554283395 -0.46988977011 -0.54765990864 -0.69695482414 0.28675055182 0.057408673485 -0.71666648092 0.26310328876 0.02756699787 
-1.1733083124 -0.10362666163 -0.13221831957 -0.7129792142 0.12739079919 0.18378549279 -0.71584803948 0.12790338348 0.027351307253 
-0.73003979251 0.10579511908 0.23668273642 -0.75357815795 0.021409011035 0.27475645597 0.1055844837 -0.69518325897 0.13226609876 
-0.73198125343 -0.17095954075 -0.031077176494 -0.73200731853 -0.17096562844 0.14632198232 -0.84058540145 0.27611149228 -1.2936764106 
-0.72048252638 0.12873144548 0.28703157279 0.092033693617 0.20163012343 -1.1749382355 -0.0054288365451 0.20790787945 -1.4458654231 
-0.50336110421 -0.24057639546 -0.026200028746 0.01339353918 -0.057719673129 -1.9080289883 0 0 -1.97006185 
0 0 -1.97663455 0 0 -1.98203005 0 0 -1.96908085 
0 0 -1.98006805 0 0 -1.96309675 0 0 -1.96603975 
0 0 -1.94691025 0 0 -1.93582495 0 0 -1.93288195 
0 0 -1.93572685 0 0 -1.92258145 0 0 -1.92915415 
0 0 -1.89864505 0 0 -1.90404055 0 0 -1.87578775 
0 0 -1.88010415 0 0 -1.88451865 0 0 -1.88706925 
0 0 -1.89109135 0 0 -1.87431625 0 0 -1.84930075 
0 0 -1.84155085 0 0 -1.85106655 0 0 -1.83743065 
0 0 -1.82173465 0 0 -1.82909215 0 0 -1.80594055 
0 0 -1.80819685 0 0 -1.80829495 0 0 -1.79730775 
0 0 -1.78818445 0 0 -1.77611815 0 0 -1.74619765 
0 0 -1.74717865 0 0 -1.74276415 0 0 -1.73864395 
0 0 -1.72844155 0 0 -1.72844155 0 0 -1.72520425 
0 0 -1.72078975 0 0 -1.72844155 0 0 -1.69950205 
0 0 -1.69665715 0 0 -1.68831865 0 0 -1.67350555 
0 0 -1.67164165 0 0 -1.66369555 0 0 -1.67350555 
0 0 -1.67301505 0 0 -1.65525895 0 0 -1.64986345 
0 0 -1.62082585 0 0 -1.62033535 0 0 -1.60287355 
0 0 -1.59433885 0 0 -1.60199065 0 0 -1.59953815 
0 0 -1.57697515 0 0 -1.58001625 0 0 -1.55205775 
0 0 -1.55127295 0 0 -1.52910235 0 0 -1.52164675 
0 0 -1.52135245 0 0 -1.52557075 0 0 -1.50134005 
0 0 -1.50232105 0 0 -1.48034665 0 0 -1.47298915 
0 0 -1.44709075 0 0 -1.46043235 0 0 -1.44816985 
0 0 -1.44758125 0 0 -1.43855605 0 0 -1.43963515 
0 0 -1.42992325 0 0 -1.40117995 0 0 -1.40873365 
0 0 -1.40569255 0 0 -1.39705975 0 0 -1.40392675 
0 0 -1.37224045 0 0 -1.37636065 0 0 -1.38322765 
0 0 -1.38715165 0 0 -1.38999655 0 0 -1.32044365 
0 0 -1.34045605 0 0 -1.32220945 0 0 -1.31632345 
0 0 -1.33564915 0 0 -1.33888645 0 0 -1.30160845 
0 0 -1.29258325 0 0 -1.29974455 0 0 -1.24402375 
0 0 -1.25393185 0 0 -1.23156505 0 0 -1.25000785 
0 0 -1.23362515 0 0 -1.23843205 0 0 -1.23225175 
0 0 -1.24333705 0 0 -1.21057165 0 0 -1.20380275 
0 0 -1.20390085 0 0 -1.19497375 0 0 -1.17672715 
0 0 -1.14611995 0 0 -1.16269885 0 0 -1.15171165 
0 0 -1.16485705 0 0 -1.15092685 0 0 -1.13807575 
0 0 -1.13395555 0 0 -1.11060775 0 0 -1.11031345 
0 0 -1.10462365 0 0 -1.08274735 0 0 -1.08549415 
0 0 -1.09285165 0 0 -1.06803235 0 0 -1.04546935 
0 0 -1.04831425 0 0 -1.04507695 0 0 -1.04360545 
0 0 -1.06675705 0 0 -1.01751085 0 0 -1.03369735 
0 0 -1.03565935 0 0 -1.00171675 0 0 -1 
0 0 -1 0 0 -1 0 0 -1 
0 0 -1 0 0 -1 0 0 -1 
0 0 -1 0 0 -1 
f 3 179 double
0 0 -0.00034671401923 0 0 -0.00034671401923 0 0 -0.00034671401923 
0 0 -0.00034671401923 0 0 -0.00034671401923 0 0 -0.0016051574964 
0 0 -0.0016051574964 0 0 -0.00034671401923 0 0 -0.0016051574964 
0 0 -0.0016051574964 0 0 -0.0016051574964 0 0 -0.00034671401923 
0 0 -0.00034671401923 0 0 -0.00034671401923 0 0 -0.0016051574964 
0 0 -0.00034671401923 0 0 -0.00034671401923 0 0 -0.0016051574964 
0 0 -0.00034671401923 0 0 -0.00034671401923 0 0 -0.0016051574964 
0 0 -0.00034671401923 0 0 -0.0016051574964 0 0 -0.00034671401923 
0 0 -0.00034671401923 0 0 -0.0016051574964 0 0 -0.00034671401923 
0 0 -0.0016051574964 0 0 -0.00034671401923 0 0 -0.00034671401923 
0 0 -0.00034671401923 0 0 -0.0016051574964 0 0 -0.00034671401923 
0 0 -0.00034671401923 0 0 -0.00034671401923 0 0 -0.00034671401923 
0 0 -0.0016051574964 0 0 -0.0016051574964 0 0 -0.00034671401923 
0 0 -0.00034671401923 0 0 -0.0016051574964 0 0 -0.00034671401923 
0 0 -0.00034671401923 0 0 -0.00034671401923 0 0 -0.00034671401923 
0 0 -0.00034671401923 0 0 -0.0016051574964 0 0 -0.0016051574964 
0 0 -0.00034671401923 0 0 -0.0016051574964 0 0 -0.0016051574964 
0 0 -0.00034671401923 0 0 -0.00034671401923 0 0 -0.0016051574964 
0 0 -0.00034671401923 0 0 -0.00034671401923 0 0 -0.0016051574964 
0 0 -0.00034671401923 0 0 -0.0016051574964 0 0 -0.0016051574964 
0 0 -0.00034671401923 0 0 -0.00034671401923 0 0 -0.00034671401923 
0 0 -0.00034671401923 0 0 -0.00034671401923 0 0 -0.00034671401923 
0 0 -0.0016051574964 0 0 -0.0016051574964 0 0 -0.00034671401923 
0 0 -0.00034671401923 0 0 -0.00034671401923 0 0 -0.00034671401923 
0 0 -0.00034671401923 0 0 -0.00034671401923 0 0 -0.00034671401923 
0 0 -0.0016051574964 0 0 -0.00034671401923 0 0 -0.0016051574964 
0 0 -0.0016051574964 0 0 -0.00034671401923 0 0 -0.00034671401923 
0 0 -0.00034671401923 0 0 -0.0016051574964 0 0 -0.00034671401923 
0 0 -0.0016051574964 0 0 -0.00034671401923 0 0 -0.00034671401923 
0 0 -0.00034671401923 0 0 -0.00034671401923 0 0 -0.0016051574964 
0 0 -0.00034671401923 0 0 -0.00034671401923 0 0 -0.00034671401923 
0 0 -0.00034671401923 0 0 -0.00034671401923 0 0 -0.0016051574964 
0 0 -0.00034671401923 0 0 -0.0016051574964 0 0 -0.00034671401923 
0 0 -0.00034671401923 0 0 -0.0016051574964 0 0 -0.00034671401923 
0 0 -0.00034671401923 0 0 -0.0016051574964 0 0 -0.00034671401923 
0 0 -0.0016051574964 0 0 -0.0016051574964 0 0 -0.00034671401923 
0 0 -0.00034671401923 0 0 -0.00034671401923 0 0 -0.00034671401923 
0 0 -0.0016051574964 0 0 -0.00034671401923 0 0 -0.0016051574964 
0 0 -0.00034671401923 0 0 -0.0016051574964 0 0 -0.00034671401923 
0 0 -0.00034671401923 0 0 -0.0016051574964 0 0 -0.0016051574964 
0 0 -0.00034671401923 0 0 -0.00034671401923 0 0 -0.0016051574964 
0 0 -0.00034671401923 0 0 -0.0016051574964 0 0 -0.00034671401923 
0 0 -0.00034671401923 0 0 -0.00034671401923 0 0 -0.0016051574964 
0 0 -0.00034671401923 0 0 -0.00034671401923 0 0 -0.00034671401923 
0 0 -0.00034671401923 0 0 -0.0016051574964 0 0 -0.0016051574964 
0 0 -0.00034671401923 0 0 -0.0016051574964 0 0 -0.00034671401923 
0 0 -0.00034671401923 0 0 -0.00034671401923 0 0 -0.0016051574964 
0 0 -0.00034671401923 0 0 -0.00034671401923 0 0 -0.00034671401923 
0 0 -0.00034671401923 0 0 -0.0016051574964 0 0 -0.0016051574964 
0 0 -0.00034671401923 0 0 -0.0016051574964 0 0 -0.0016051574964 
0 0 -0.00034671401923 0 0 -0.00034671401923 0 0 -0.00034671401923 
0 0 -0.0016051574964 0 0 -0.00034671401923 0 0 -0.0016051574964 
0 0 -0.00034671401923 0 0 -0.00034671401923 0 0 -0.00034671401923 
0 0 -0.00034671401923 0 0 -0.0016051574964 0 0 -0.0016051574964 
0 0 -0.00034671401923 0 0 -0.00034671401923 0 0 -0.0016051574964 
0 0 -0.0016051574964 0 0 -0.00034671401923 0 0 -0.0016051574964 
0 0 -0.00034671401923 0 0 -0.0016051574964 0 0 0 
0 0 0 0 0 0 0 0 0 
0 0 0 0 0 0 0 0 0 
0 0 0 0 0 0 
radius 1 179 double
0.0015 0.0015 0.0015 0.0015 0.0015 0.0025 0.0025 0.0015 0.0025 
0.0025 0.0025 0.0015 0.0015 0.0015 0.0025 0.0015 0.0015 0.0025 
0.0015 0.0015 0.0025 0.0015 0.0025 0.0015 0.0015 0.0025 0.0015 
0.0025 0.0015 0.0015 0.0015 0.0025 0.0015 0.0015 0.0015 0.0015 
0.0025 0.0025 0.0015 0.0015 0.0025 0.0015 0.0015 0.0015 0.0015 
0.0015 0.0025 0.0025 0.0015 0.0025 0.0025 0.0015 0.0015 0.0025 
0.0015 0.0015 0.0025 0.0015 0.0025 0.0025 0.0015 0.0015 0.0015 
0.0015 0.0015 0.0015 0.0025 0.0025 0.0015 0.0015 0.0015 0.0015 
0.0015 0.0015 0.0015 0.0025 0.0015 0.0025 0.0025 0.0015 0.0015 
0.0015 0.0025 0.0015 0.0025 0.0015 0.0015 0.0015 0.0015 0.0025 
0.0015 0.0015 0.0015 0.0015 0.0015 0.0025 0.0015 0.0025 0.0015 
0.0015 0.0025 0.0015 0.0015 0.0025 0.0015 0.0025 0.0025 0.0015 
0.0015 0.0015 0.0015 0.0025 0.0015 0.0025 0.0015 0.0025 0.0015 
0.0015 0.0025 0.0025 0.0015 0.0015 0.0025 0.0015 0.0025 0.0015 
0.0015 0.0015 0.0025 0.0015 0.0015 0.0015 0.0015 0.0025 0.0025 
0.0015 0.0025 0.0015 0.0015 0.0015 0.0025 0.0015 0.0015 0.0015 
0.0015 0.0025 0.0025 0.0015 0.0025 0.0025 0.0015 0.0015 0.0015 
0.0025 0.0015 0.0025 0.0015 0.0015 0.0015 0.0015 0.0025 0.0025 
0.0015 0.0015 0.0025 0.0025 0.0015 0.0025 0.0015 0.0025 0.0015 
0.0025 0.0015 0.0015 0.0015 0.0015 0.0025 0.0015 0.0015 
omega 3 179 double
-273.17216518 -747.79938375 -209.93997845 -290.88162689 -478.02561509 -81.376448921 -24.449373837 -372.13811534 4.7501171527e-15 
-71.727473351 -384.25414494 1.4902541031e-14 -4.7986786633 -372.04087009 1.1459708785e-15 7.1557567492 -332.87939263 -0.74443307965 
11.17424032 -184.32316125 22.64449902 -85.075029757 -366.22578713 2.1138113508e-14 -2.88476401 -223.6553409 -1.9133269531e-16 
-2.8546194518 -221.31823762 -4.3621651395e-16 -23.161861039 294.28175194 -15.875789803 -151.26080449 31.078473615 -88.392864499 
68.910007313 -381.51827101 3.9403029229e-15 119.95740606 -368.47326467 8.2853241415e-14 90.90835954 -150.35114984 28.8696814 
-147.37071394 -358.18843021 4.7652212389e-14 -136.47776377 -371.75148646 -5.9980058188e-15 -53.209441266 -219.19956266 17.367152927 
-150.80400164 -536.22728549 -31.259906118 434.22235883 55.845936494 170.73069492 -17.703055782 -284.21009239 -31.747699086 
-318.43648713 -2.3031045673 -130.64547777 -88.749016132 -215.70683836 -3.2855428141e-15 -135.70422402 -369.6444432 8.7748112008e-15 
223.79222031 43.931201703 132.35689657 -39.16014058 -219.17097967 3.2977689665e-15 -65.881516809 -368.72484029 -1.4284031096e-14 
-32.701549324 -225.65721832 1.3509158052e-14 -10.964187999 -385.9296715 1.5159768305e-15 396.14152963 97.987295481 256.30386421 
87.775431565 -375.81974153 6.0377299216e-14 52.851364984 -226.28867752 -1.3468433071e-14 -85.049554835 -168.213629 -31.259906118 
-65.785988552 -368.19018895 -7.3217318043e-15 -170.62622425 411.22149293 -74.484921614 -452.37606526 366.29734011 -130.64547777 
80.09158567 -167.22056971 0.906336676 55.413183831 57.122556397 22.228427951 0 0 0 
0 0 0 0 0 0 0 0 0 
0 0 0 0 0 0 0 0 0 
0 0 0 0 0 0 0 0 0 
0 0 0 0 0 0 0 0 0 
0 0 0 0 0 0 0 0 0 
0 0 0 0 0 0 0 0 0 
0 0 0 0 0 0 0 0 0 
0 0 0 0 0 0 0 0 0 
0 0 0 0 0 0 0 0 0 
0 0 0 0 0 0 0 0 0 
0 0 0 0 0 0 0 0 0 
0 0 0 0 0 0 0 0 0 
0 0 0 0 0 0 0 0 0 
0 0 0 0 0 0 0 0 0 
0 0 0 0 0 0 0 0 0 
0 0 0 0 0 0 0 0 0 
0 0 0 0 0 0 0 0 0 
0 0 0 0 0 0 0 0 0 
0 0 0 0 0 0 0 0 0 
0 0 0 0 0 0 0 0 0 
0 0 0 0 0 0 0 0 0 
0 0 0 0 0 0 0 0 0 
0 0 0 0 0 0 0 0 0 
0 0 0 0 0 0 0 0 0 
0 0 0 0 0 0 0 0 0 
0 0 0 0 0 0 0 0 0 
0 0 0 0 0 0 0 0 0 
0 0 0 0 0 0 0 0 0 
0 0 0 0 0 0 0 0 0 
0 0 0 0 0 0 0 0 0 
0 0 0 0 0 0 0 0 0 
0 0 0 0 0 0 0 0 0 
0 0 0 0 0 0 0 0 0 
0 0 0 0 0 0 0 0 0 
0 0 0 0 0 0 0 0 0 
0 0 0 0 0 0 0 0 0 
0 0 0 0 0 0 0 0 0 
0 0 0 0 0 0 0 0 0 
0 0 0 0 0 0 0 0 0 
0 0 0 0 0 0 0 0 0 
0 0 0 0 0 0 0 0 0 
0 0 0 0 0 0 0 0 0 
0 0 0 0 0 0 0 0 0 
0 0 0 0 0 0 0 0 0 
0 0 0 0 0 0 0 0 0 
0 0 0 0 0 0 0 0 0 
0 0 0 0 0 0 
