# vtk DataFile Version 4.1
Generated by LIGGGHTS
ASCII
DATASET POLYDATA
POINTS 64 float
-0.0208226 -0.00599195 -0.00543284 -0.00462371 0.0206347 -0.00591963 -0.00174714 0.0260627 -0.00510277 
-0.00894204 -0.016163 -0.00382147 -0.0299058 -0.00882918 -0.00451949 -0.0190478 0.013684 -0.00305541 
-0.0160886 0.0216478 -0.00334169 -0.00953586 0.00971988 -0.000205537 -0.00217367 0.0240852 -2.50879e-05 
-0.0134792 -0.0343741 0.0053031 -0.00618745 -0.0313193 0.00444287 -0.0106535 -0.0244251 0.00337794 
-0.0124546 0.031784 0.00441102 -0.0214597 -0.00448395 0.00935671 -0.0244429 0.0229939 0.00912053 
-0.028663 -0.019004 0.0108654 -0.0101549 -0.0158816 0.0118629 -0.0275046 -0.000700049 0.0125724 
-0.0083641 0.00277185 0.0130901 -0.00857183 -0.027925 0.0174028 -0.0202974 -0.0199605 0.0144789 
-0.0219947 -0.0107694 0.015102 -0.00408721 -0.0194644 0.0193452 -0.00454319 0.0203252 0.0181456 
-0.00174502 0.0344165 0.0194931 -0.0159102 -0.0341757 0.0217815 -0.0327631 -0.0200888 0.0239715 
-0.0159539 -0.00381092 0.0234505 -0.0300659 -0.00019371 0.0236253 -0.0235267 0.0224168 0.0238749 
-0.0230202 -0.021037 0.0261732 -0.000459601 -0.00791581 0.0284531 -0.0229734 0.000876534 0.0266574 
-0.0221714 0.00979368 0.0286244 -0.020721 -0.0135944 0.0292601 -0.0127396 -0.0137041 0.0294925 
-0.0160817 -0.000243398 0.032442 -0.0240929 0.0291618 0.0301134 -0.0175025 -0.0228838 0.0385292 
-0.022804 -0.0140579 0.0393166 -0.0251247 -0.00571197 0.038982 -0.024531 -1.04943e-05 0.0377879 
-0.0306884 0.0042356 0.0371766 -0.018642 0.00531382 0.0386416 -0.027916 0.0296421 0.0373973 
-0.0105626 -0.00654333 0.0411138 -0.027846 0.00485213 0.0423381 -0.00180681 0.0181929 0.0426578 
-0.0178022 0.0256262 0.0423516 -0.021213 0.0304724 0.0430687 -0.0294843 -0.0242442 0.0437768 
-0.0337701 0.0102173 0.0463286 -0.0264294 0.0258143 0.0471267 -0.0315539 0.028352 0.0457636 
-0.0221544 -0.0267021 0.0487165 -0.0188291 -0.0129094 0.0488659 -0.0262531 0.00245318 0.0482711 
-0.0274253 0.00637934 0.0478092 -0.0284955 0.0109203 0.0475443 -0.0046838 -0.0346092 0.0514276 
-0.0205837 -0.0294247 0.0522128 -0.00322644 -0.0143029 0.0512499 -0.00206763 0.0123655 0.0526362 
-0.0315184 0.0323336 0.0534897 
VERTICES 64 128
1 0 
1 1 
1 2 
1 3 
1 4 
1 5 
1 6 
1 7 
1 8 
1 9 
1 10 
1 11 
1 12 
1 13 
1 14 
1 15 
1 16 
1 17 
1 18 
1 19 
1 20 
1 21 
1 22 
1 23 
1 24 
1 25 
1 26 
1 27 
1 28 
1 29 
1 30 
1 31 
1 32 
1 33 
1 34 
1 35 
1 36 
1 37 
1 38 
1 39 
1 40 
1 41 
1 42 
1 43 
1 44 
1 45 
1 46 
1 47 
1 48 
1 49 
1 50 
1 51 
1 52 
1 53 
1 54 
1 55 
1 56 
1 57 
1 58 
1 59 
1 60 
1 61 
1 62 
1 63 

POINT_DATA 64
FIELD FieldData 7
id 1 64 int
2 7 1 12 10 6 4 8 9 
3 13 5 11 19 22 20 18 16 
21 24 23 25 15 14 17 38 30 
29 28 33 35 26 31 37 32 36 
27 34 50 47 51 49 42 48 44 
45 43 39 46 41 40 60 61 56 
54 53 59 64 55 52 62 63 58 
57 
type 1 64 int
1 1 1 1 1 1 1 1 1 
1 1 1 1 1 1 1 1 1 
1 1 1 1 1 1 1 1 1 
1 1 1 1 1 1 1 1 1 
1 1 1 1 1 1 1 1 1 
1 1 1 1 1 1 1 1 1 
1 1 1 1 1 1 1 1 1 
1 
i 3 64 int
0 0 0 0 0 0 0 0 0 
0 0 0 0 0 0 0 0 0 
0 0 0 0 0 0 0 0 0 
0 0 0 0 0 0 0 0 0 
0 0 0 0 0 0 0 0 0 
0 0 0 0 0 0 0 0 0 
0 0 0 0 0 0 0 0 0 
0 0 0 0 0 0 0 0 0 
0 0 0 0 0 0 0 0 0 
0 0 0 0 0 0 0 0 0 
0 0 0 0 0 0 0 0 0 
0 0 0 0 0 0 0 0 0 
0 0 0 0 0 0 0 0 0 
0 0 0 0 0 0 0 0 0 
0 0 0 0 0 0 0 0 0 
0 0 0 0 0 0 0 0 0 
0 0 0 0 0 0 0 0 0 
0 0 0 0 0 0 0 0 0 
0 0 0 0 0 0 0 0 0 
0 0 0 0 0 0 0 0 0 
0 0 0 0 0 0 0 0 0 
0 0 0 
v 3 64 double
0 0 -1.44483445 0 0 -1.44816985 0 0 -1.44257815 
0 0 -1.43384725 0 0 -1.43865415 0 0 -1.42864795 
0 0 -1.43060995 0 0 -1.40892985 0 0 -1.40765455 
0 0 -1.36998415 0 0 -1.37616445 0 0 -1.38371815 
0 0 -1.37636065 0 0 -1.34065225 0 0 -1.34241805 
0 0 -1.32956695 0 0 -1.32220945 0 0 -1.31691205 
0 0 -1.31308615 0 0 -1.28041885 0 0 -1.30268755 
0 0 -1.29797875 0 0 -1.26550765 0 0 -1.27472905 
0 0 -1.26433045 0 0 -1.24647625 0 0 -1.22911255 
0 0 -1.23323275 0 0 -1.23185935 0 0 -1.22989735 
0 0 -1.21135645 0 0 -1.19281555 0 0 -1.20743245 
0 0 -1.19134405 0 0 -1.18614475 0 0 -1.18418275 
0 0 -1.15955965 0 0 -1.17908155 0 0 -1.10678185 
0 0 -1.09981675 0 0 -1.10275975 0 0 -1.11335455 
0 0 -1.11875005 0 0 -1.10580085 0 0 -1.11678805 
0 0 -1.08363025 0 0 -1.07254495 0 0 -1.06960195 
0 0 -1.07244685 0 0 -1.06587415 0 0 -1.05930145 
0 0 -1.03536505 0 0 -1.02781135 0 0 -1.04076055 
0 0 -1.01250775 0 0 -1.01103625 0 0 -1.01682415 
0 0 -1.02123865 0 0 -1.02378925 0 0 -1 
0 0 -1 0 0 -1 0 0 -1 
0 0 -1 
f 3 64 double
0 0 -0.0016051574964 0 0 -0.00034671401923 0 0 -0.0016051574964 
0 0 -0.00034671401923 0 0 -0.00034671401923 0 0 -0.00034671401923 
0 0 -0.0016051574964 0 0 -0.00034671401923 0 0 -0.00034671401923 
0 0 -0.0016051574964 0 0 -0.00034671401923 0 0 -0.0016051574964 
0 0 -0.00034671401923 0 0 -0.00034671401923 0 0 -0.00034671401923 
0 0 -0.00034671401923 0 0 -0.00034671401923 0 0 -0.0016051574964 
0 0 -0.00034671401923 0 0 -0.00034671401923 0 0 -0.00034671401923 
0 0 -0.00034671401923 0 0 -0.0016051574964 0 0 -0.0016051574964 
0 0 -0.0016051574964 0 0 -0.00034671401923 0 0 -0.0016051574964 
0 0 -0.0016051574964 0 0 -0.0016051574964 0 0 -0.00034671401923 
0 0 -0.00034671401923 0 0 -0.0016051574964 0 0 -0.00034671401923 
0 0 -0.00034671401923 0 0 -0.00034671401923 0 0 -0.00034671401923 
0 0 -0.0016051574964 0 0 -0.00034671401923 0 0 -0.00034671401923 
0 0 -0.00034671401923 0 0 -0.00034671401923 0 0 -0.00034671401923 
0 0 -0.0016051574964 0 0 -0.00034671401923 0 0 -0.00034671401923 
0 0 -0.00034671401923 0 0 -0.0016051574964 0 0 -0.0016051574964 
0 0 -0.00034671401923 0 0 -0.0016051574964 0 0 -0.0016051574964 
0 0 -0.00034671401923 0 0 -0.00034671401923 0 0 -0.00034671401923 
0 0 -0.0016051574964 0 0 -0.0016051574964 0 0 -0.00034671401923 
0 0 -0.00034671401923 0 0 -0.0016051574964 0 0 0 
0 0 0 0 0 0 0 0 0 
0 0 0 
radius 1 64 double
0.0025 0.0015 0.0025 0.0015 0.0015 0.0015 0.0025 0.0015 0.0015 
0.0025 0.0015 0.0025 0.0015 0.0015 0.0015 0.0015 0.0015 0.0025 
0.0015 0.0015 0.0015 0.0015 0.0025 0.0025 0.0025 0.0015 0.0025 
0.0025 0.0025 0.0015 0.0015 0.0025 0.0015 0.0015 0.0015 0.0015 
0.0025 0.0015 0.0015 0.0015 0.0015 0.0015 0.0025 0.0015 0.0015 
0.0015 0.0025 0.0025 0.0015 0.0025 0.0025 0.0015 0.0015 0.0015 
0.0025 0.0025 0.0015 0.0015 0.0025 0.0025 0.0015 0.0015 0.0015 
0.0015 
omega 3 64 double
0 0 0 0 0 0 0 0 0 
0 0 0 0 0 0 0 0 0 
0 0 0 0 0 0 0 0 0 
0 0 0 0 0 0 0 0 0 
0 0 0 0 0 0 0 0 0 
0 0 0 0 0 0 0 0 0 
0 0 0 0 0 0 0 0 0 
0 0 0 0 0 0 0 0 0 
0 0 0 0 0 0 0 0 0 
0 0 0 0 0 0 0 0 0 
0 0 0 0 0 0 0 0 0 
0 0 0 0 0 0 0 0 0 
0 0 0 0 0 0 0 0 0 
0 0 0 0 0 0 0 0 0 
0 0 0 0 0 0 0 0 0 
0 0 0 0 0 0 0 0 0 
0 0 0 0 0 0 0 0 0 
0 0 0 0 0 0 0 0 0 
0 0 0 0 0 0 0 0 0 
0 0 0 0 0 0 0 0 0 
0 0 0 0 0 0 0 0 0 
0 0 0 
