# vtk DataFile Version 4.1
Generated by LIGGGHTS
ASCII
DATASET POLYDATA
POINTS 179 float
-0.0392712 0.0299437 -0.118267 -0.0332015 -0.0177509 -0.116977 -0.0438772 -0.00791126 -0.114501 
-0.0267427 -0.00988306 -0.113633 -0.0292551 -0.0043834 -0.1124 -0.0333479 -0.000671292 -0.116987 
-0.0327861 -0.0201679 -0.113653 -0.0257476 -0.0186944 -0.11164 -0.0367279 -0.0057868 -0.10943 
-0.0169015 -0.0037987 -0.111506 -0.0298669 -6.21167e-05 -0.112375 -0.0224048 0.00892404 -0.111105 
-0.0343827 0.0109142 -0.10991 -0.0235267 0.0224168 -0.114046 -0.0210597 0.02561 -0.110697 
-0.0185647 -0.0330836 -0.108734 -0.0144969 -0.0257498 -0.105919 -0.0229669 -0.0194516 -0.106728 
-0.0183913 -0.01441 -0.106992 -0.016242 0.00259464 -0.107183 -0.0296889 0.0171345 -0.109335 
-0.0250481 0.0272079 -0.105743 -0.0255518 -0.029407 -0.104541 -0.0196362 -0.026382 -0.103126 
-0.0276721 -0.0214263 -0.102492 -0.00944367 -0.0185073 -0.104029 -0.0254936 -0.0132057 -0.10503 
-0.000815622 -0.00786422 -0.105074 -0.0229734 0.000876534 -0.109377 -0.00208987 0.0053183 -0.105748 
-0.023434 0.0162415 -0.103473 -0.0107434 0.018877 -0.104033 -0.020721 -0.0135944 -0.104986 
-0.0127396 -0.0137041 -0.104589 -0.0221714 0.00979368 -0.106058 -0.0240929 0.0291618 -0.103539 
-0.00632218 0.032229 -0.102123 -0.0160817 -0.000243398 -0.0995707 -0.0175025 -0.0228838 -0.0890501 
-0.024531 -1.04943e-05 -0.0903436 -0.0306884 0.0042356 -0.091408 -0.018642 0.00531382 -0.0888554 
-0.027916 0.0296421 -0.0910226 -0.022804 -0.0140579 -0.0876777 -0.0251247 -0.00571197 -0.0882595 
-0.0105626 -0.00654333 -0.0845208 -0.027846 0.00485213 -0.0823654 -0.00180681 0.0181929 -0.0817985 
-0.0178022 0.0256262 -0.0823436 -0.0294843 -0.0242442 -0.0798142 -0.021213 0.0304724 -0.0810744 
-0.0337701 0.0102173 -0.0752517 -0.0315539 0.028352 -0.0762699 -0.0221544 -0.0267021 -0.0709438 
-0.0262531 0.00245318 -0.0717518 -0.0274253 0.00637934 -0.0725845 -0.0284955 0.0109203 -0.0730637 
-0.0264294 0.0258143 -0.0738191 -0.0188291 -0.0129094 -0.0706708 -0.0046838 -0.0346092 -0.0660178 
-0.0205837 -0.0294247 -0.0645957 -0.00322644 -0.0143029 -0.0663415 -0.00206763 0.0123655 -0.0638361 
-0.0181818 0.00594264 -0.0609696 -0.0315184 0.0323336 -0.0623078 -0.00317446 -0.00327501 -0.0581154 
-0.0113639 0.00609324 -0.0585213 -0.0237558 0.020832 -0.0585391 -0.0233787 0.0259916 -0.0565664 
-0.00618278 0.0247152 -0.0549319 -0.0101315 -0.0171842 -0.0527944 -0.00512449 -0.0296766 -0.0475343 
-0.0132118 -0.0121788 -0.0477136 -0.0226093 -0.00790771 -0.0469409 -0.0176419 0.0252752 -0.0462273 
-0.00331379 -0.00673963 -0.0444655 -0.0203284 0.0149576 -0.0444634 -0.0332492 0.0212435 -0.0439031 
-0.025261 0.030812 -0.0431473 -0.0088354 0.0340944 -0.0444695 -0.0255344 0.010562 -0.0395274 
-0.0156099 0.0123479 -0.0390402 -0.006758 -0.00417797 -0.0376369 -0.0166674 -0.0199684 -0.0351558 
-0.016039 -0.000886859 -0.0348447 -0.0199892 0.00645928 -0.0335287 -0.0136151 0.0110949 -0.0351609 
-0.0302008 0.015853 -0.0350741 -0.0118987 0.0289343 -0.0321394 -0.0138041 -0.0299263 -0.0312501 
-0.0135716 -0.00811727 -0.0265241 -0.00739645 0.00376164 -0.0264432 -0.0267621 -0.0219194 -0.023644 
-0.020149 -0.00685329 -0.0222871 -0.0141771 0.0177987 -0.0235099 -0.00471042 0.0296342 -0.0231197 
-0.00791609 -0.0196794 -0.0195537 -0.0179545 0.0159092 -0.0200337 -0.00439906 -0.0328903 -0.0156757 
-0.0296076 0.00722911 -0.0155544 -0.016986 -0.0318376 -0.0121615 -0.0281298 -0.0148599 -0.011037 
-0.0161861 -0.00599108 -0.010993 -0.0227935 0.0274334 -0.0116286 -0.0292679 0.0147935 -0.00799012 
-0.00205293 0.0165512 -0.0081334 -0.0305301 0.00502779 -0.00488131 -0.00405648 0.032442 -0.0038056 
-0.0135333 -0.0276689 -5.69512e-05 -0.0112712 -0.0202504 -0.00197915 -2.29018e-06 -0.0149558 -0.00020376 
-0.00301846 0.00510814 -0.000121506 -0.0331337 -0.0163611 0.00116746 -0.0273798 -0.00441029 0.00101178 
-0.00794441 0.0258079 0.00239482 -0.0143544 -0.0272787 0.00642749 -0.0191843 -0.0221491 0.00537731 
-0.0125841 -0.0140137 0.00579673 -0.0125785 -0.0040947 0.0070041 -0.0336091 0.0316877 0.00604667 
-0.00679321 -0.00970412 0.0104045 -0.0316214 0.000145103 0.00984712 -0.0217323 0.00352617 0.00890772 
-0.0148309 0.00369911 0.00836891 -0.00193271 0.00892872 0.00797662 -0.0331578 -0.0347183 0.0172999 
-0.0227292 -0.0342527 0.014667 -0.0076982 -0.0269483 0.0170764 -0.0142543 -0.00491395 0.017838 
-0.00618246 0.0122116 0.0153022 -0.026321 0.0295451 0.0148805 -0.0188235 -0.00412326 0.0197505 
-0.030786 0.0122027 0.0209057 -0.0238018 0.0141125 0.0199862 -0.00584464 -0.0345985 0.0269871 
-0.0115686 -0.0259344 0.0257662 -0.010147 -0.0216422 0.0285123 -0.00401145 -0.0205873 0.0262492 
-0.0322463 -0.00737998 0.0282572 -0.0301844 0.00679958 0.0276715 -0.0210131 0.0295222 0.0284264 
-0.004829 0.0333632 0.0270679 -0.00623706 -0.00658451 0.0310354 -0.00679915 -0.000720285 0.0318448 
-0.0230582 0.0203811 0.0318329 -0.0237179 -0.0330481 0.0328892 -0.0251936 -0.0129184 0.0350262 
-0.0214963 -0.0163735 0.0385216 -0.0152079 -0.0146465 0.0366412 -0.00240788 -0.00904262 0.037889 
-0.00372425 0.000239952 0.0363913 -0.0043072 0.0165241 0.0379826 -0.0326006 -0.0307471 0.0394294 
-0.0322856 0.00186917 0.0398902 -0.00943139 0.0192376 0.0424645 -0.0103743 0.0339743 0.0424962 
-0.0234861 -0.027537 0.0431123 -0.0180071 -0.0232682 0.045468 -0.000114354 -0.0212937 0.0451787 
-0.0280789 0.0137467 0.0443896 -0.0345391 -0.0114622 0.0470209 -0.00596878 -0.0130405 0.049364 
-0.0303036 -0.0103215 0.0490682 -0.0287704 0.0101406 0.0494 -0.010941 0.0209557 0.0495522 
-0.0148889 0.0293808 0.0471613 -0.0326237 -0.0246784 0.0522158 -0.0234232 0.00199937 0.0505651 
-0.0252839 0.0329346 0.0503667 -0.0233162 -0.0208835 0.0538259 -0.01426 -0.0134546 0.0564308 
-0.0199625 -0.00318577 0.0560314 -0.0192935 0.0147617 0.0552808 -0.0264666 -0.0274673 0.0585598 
-0.0337354 -0.0145959 0.0569758 -0.0282271 0.00282044 0.0581512 -0.00243205 0.0227147 0.0584149 
-0.0334843 0.027503 0.0579873 -0.00169906 0.0312398 0.0587157 
VERTICES 179 358
1 0 
1 1 
1 2 
1 3 
1 4 
1 5 
1 6 
1 7 
1 8 
1 9 
1 10 
1 11 
1 12 
1 13 
1 14 
1 15 
1 16 
1 17 
1 18 
1 19 
1 20 
1 21 
1 22 
1 23 
1 24 
1 25 
1 26 
1 27 
1 28 
1 29 
1 30 
1 31 
1 32 
1 33 
1 34 
1 35 
1 36 
1 37 
1 38 
1 39 
1 40 
1 41 
1 42 
1 43 
1 44 
1 45 
1 46 
1 47 
1 48 
1 49 
1 50 
1 51 
1 52 
1 53 
1 54 
1 55 
1 56 
1 57 
1 58 
1 59 
1 60 
1 61 
1 62 
1 63 
1 64 
1 65 
1 66 
1 67 
1 68 
1 69 
1 70 
1 71 
1 72 
1 73 
1 74 
1 75 
1 76 
1 77 
1 78 
1 79 
1 80 
1 81 
1 82 
1 83 
1 84 
1 85 
1 86 
1 87 
1 88 
1 89 
1 90 
1 91 
1 92 
1 93 
1 94 
1 95 
1 96 
1 97 
1 98 
1 99 
1 100 
1 101 
1 102 
1 103 
1 104 
1 105 
1 106 
1 107 
1 108 
1 109 
1 110 
1 111 
1 112 
1 113 
1 114 
1 115 
1 116 
1 117 
1 118 
1 119 
1 120 
1 121 
1 122 
1 123 
1 124 
1 125 
1 126 
1 127 
1 128 
1 129 
1 130 
1 131 
1 132 
1 133 
1 134 
1 135 
1 136 
1 137 
1 138 
1 139 
1 140 
1 141 
1 142 
1 143 
1 144 
1 145 
1 146 
1 147 
1 148 
1 149 
1 150 
1 151 
1 152 
1 153 
1 154 
1 155 
1 156 
1 157 
1 158 
1 159 
1 160 
1 161 
1 162 
1 163 
1 164 
1 165 
1 166 
1 167 
1 168 
1 169 
1 170 
1 171 
1 172 
1 173 
1 174 
1 175 
1 176 
1 177 
1 178 

POINT_DATA 179
FIELD FieldData 7
id 1 179 int
22 20 10 25 19 16 30 23 2 
29 28 8 6 33 1 38 24 5 
18 21 4 11 3 13 35 15 12 
26 31 9 7 14 32 36 37 34 
17 27 50 49 42 48 44 47 51 
45 43 39 46 40 41 60 56 54 
59 64 55 61 53 52 62 63 58 
73 57 72 65 67 69 71 75 76 
70 77 74 68 86 66 80 84 85 
82 81 87 78 89 90 88 83 79 
98 99 100 95 96 92 101 91 97 
102 93 110 113 94 114 104 106 107 
109 111 108 103 112 105 127 115 120 
121 118 117 123 126 119 124 116 135 
125 140 128 139 122 136 133 131 132 
134 129 137 153 147 130 138 146 149 
151 145 143 150 144 142 152 148 160 
141 161 158 164 166 165 163 155 157 
162 159 156 154 174 168 178 167 172 
169 175 176 171 173 170 179 177 
type 1 179 int
1 1 1 1 1 1 1 1 1 
1 1 1 1 1 1 1 1 1 
1 1 1 1 1 1 1 1 1 
1 1 1 1 1 1 1 1 1 
1 1 1 1 1 1 1 1 1 
1 1 1 1 1 1 1 1 1 
1 1 1 1 1 1 1 1 1 
1 1 1 1 1 1 1 1 1 
1 1 1 1 1 1 1 1 1 
1 1 1 1 1 1 1 1 1 
1 1 1 1 1 1 1 1 1 
1 1 1 1 1 1 1 1 1 
1 1 1 1 1 1 1 1 1 
1 1 1 1 1 1 1 1 1 
1 1 1 1 1 1 1 1 1 
1 1 1 1 1 1 1 1 1 
1 1 1 1 1 1 1 1 1 
1 1 1 1 1 1 1 1 1 
1 1 1 1 1 1 1 1 1 
1 1 1 1 1 1 1 1 
i 3 179 int
0 0 0 0 0 0 0 0 0 
0 0 0 0 0 0 0 0 0 
0 0 0 0 0 0 0 0 0 
0 0 0 0 0 0 0 0 0 
0 0 0 0 0 0 0 0 0 
0 0 0 0 0 0 0 0 0 
0 0 0 0 0 0 0 0 0 
0 0 0 0 0 0 0 0 0 
0 0 0 0 0 0 0 0 0 
0 0 0 0 0 0 0 0 0 
0 0 0 0 0 0 0 0 0 
0 0 0 0 0 0 0 0 0 
0 0 0 0 0 0 0 0 0 
0 0 0 0 0 0 0 0 0 
0 0 0 0 0 0 0 0 0 
0 0 0 0 0 0 0 0 0 
0 0 0 0 0 0 0 0 0 
0 0 0 0 0 0 0 0 0 
0 0 0 0 0 0 0 0 0 
0 0 0 0 0 0 0 0 0 
0 0 0 0 0 0 0 0 0 
0 0 0 0 0 0 0 0 0 
0 0 0 0 0 0 0 0 0 
0 0 0 0 0 0 0 0 0 
0 0 0 0 0 0 0 0 0 
0 0 0 0 0 0 0 0 0 
0 0 0 0 0 0 0 0 0 
0 0 0 0 0 0 0 0 0 
0 0 0 0 0 0 0 0 0 
0 0 0 0 0 0 0 0 0 
0 0 0 0 0 0 0 0 0 
0 0 0 0 0 0 0 0 0 
0 0 0 0 0 0 0 0 0 
0 0 0 0 0 0 0 0 0 
0 0 0 0 0 0 0 0 0 
0 0 0 0 0 0 0 0 0 
0 0 0 0 0 0 0 0 0 
0 0 0 0 0 0 0 0 0 
0 0 0 0 0 0 0 0 0 
0 0 0 0 0 0 0 0 0 
0 0 0 0 0 0 0 0 0 
0 0 0 0 0 0 0 0 0 
0 0 0 0 0 0 0 0 0 
0 0 0 0 0 0 0 0 0 
0 0 0 0 0 0 0 0 0 
0 0 0 0 0 0 0 0 0 
0 0 0 0 0 0 0 0 0 
0 0 0 0 0 0 0 0 0 
0 0 0 0 0 0 0 0 0 
0 0 0 0 0 0 0 0 0 
0 0 0 0 0 0 0 0 0 
0 0 0 0 0 0 0 0 0 
0 0 0 0 0 0 0 0 0 
0 0 0 0 0 0 0 0 0 
0 0 0 0 0 0 0 0 0 
0 0 0 0 0 0 0 0 0 
0 0 0 0 0 0 0 0 0 
0 0 0 0 0 0 0 0 0 
0 0 0 0 0 0 0 0 0 
0 0 0 0 0 0 
v 3 179 double
-1.1700848973 0.45784193006 -0.19094536008 -0.4093900219 0.78253287497 -1.6813343341 -0.73437412757 0.048248182168 0.12230559408 
-0.74833531134 0.13968932231 0.21143077025 -0.726997883 0.0093770053503 0.20114745035 -0.90010435141 -0.05637735325 -0.98185356575 
-0.027816888505 -0.146822322 -1.6686452425 -0.72111450957 0.16751643526 0.23093881085 -0.72615218482 0.009366097318 0.096597775914 
-0.72403545984 0.0093387952557 0.29721591719 0.14426441153 0.077850621076 -0.8594053209 -0.63591859651 -0.039450297487 -0.15701095405 
-0.75112202757 -0.13566800949 0.08191526184 0 0 -2.05393735 -0.73007221792 -0.0070138229157 -0.40122529148 
-0.70278434049 0.28914901005 0.23314800196 -0.71914082141 0.26401167102 0.17041622726 -0.46622543204 0.28658564139 -0.34503906229 
-0.71724740569 0.12815341374 0.1807740789 -0.74228825994 -0.016696984948 0.17490297316 -0.55576444893 -0.24210604252 -0.095385247521 
-0.72097167049 -0.26198189066 0.088076218258 -0.69695482414 0.28675055182 0.096648673485 -0.71666648092 0.26310328876 0.06680699787 
-1.1733083124 -0.10362666163 -0.092978319567 -0.7129792142 0.12739079919 0.22302549279 -0.71584803948 0.12790338348 0.066591307253 
-0.74422722328 0.10785111786 0.31245433302 0 0 -2.03147245 0.0053772640319 -0.75568784498 -0.33650601368 
-0.73198125343 -0.17095954075 0.0081628235061 -0.73200731853 -0.17096562844 0.18556198232 0 0 -2.01018475 
0 0 -2.00822275 0 0 -2.01538405 0 0 -2.00312155 
-0.50336110421 -0.24057639546 0.013039971254 0 0 -1.98359965 0 0 -1.93082185 
0 0 -1.93739455 0 0 -1.94279005 0 0 -1.92984085 
0 0 -1.94082805 0 0 -1.92385675 0 0 -1.92679975 
0 0 -1.90767025 0 0 -1.89658495 0 0 -1.89364195 
0 0 -1.89648685 0 0 -1.88334145 0 0 -1.88991415 
0 0 -1.85940505 0 0 -1.86480055 0 0 -1.83654775 
0 0 -1.84086415 0 0 -1.84527865 0 0 -1.84782925 
0 0 -1.85185135 0 0 -1.83507625 0 0 -1.81006075 
0 0 -1.80231085 0 0 -1.81182655 0 0 -1.79819065 
0 0 -1.78249465 0 0 -1.78985215 0 0 -1.76670055 
0 0 -1.76895685 0 0 -1.76905495 0 0 -1.75806775 
0 0 -1.74894445 0 0 -1.73687815 0 0 -1.70695765 
0 0 -1.70793865 0 0 -1.70352415 0 0 -1.69940395 
0 0 -1.68920155 0 0 -1.68920155 0 0 -1.68596425 
0 0 -1.68154975 0 0 -1.68920155 0 0 -1.66026205 
0 0 -1.65741715 0 0 -1.64907865 0 0 -1.63426555 
0 0 -1.63240165 0 0 -1.62445555 0 0 -1.63426555 
0 0 -1.63377505 0 0 -1.61601895 0 0 -1.61062345 
0 0 -1.58158585 0 0 -1.58109535 0 0 -1.56363355 
0 0 -1.55509885 0 0 -1.56275065 0 0 -1.56029815 
0 0 -1.53773515 0 0 -1.54077625 0 0 -1.51281775 
0 0 -1.51203295 0 0 -1.48986235 0 0 -1.48240675 
0 0 -1.48211245 0 0 -1.48633075 0 0 -1.46210005 
0 0 -1.46308105 0 0 -1.44110665 0 0 -1.43374915 
0 0 -1.40785075 0 0 -1.42119235 0 0 -1.40892985 
0 0 -1.40834125 0 0 -1.39931605 0 0 -1.40039515 
0 0 -1.39068325 0 0 -1.36193995 0 0 -1.36949365 
0 0 -1.36645255 0 0 -1.35781975 0 0 -1.36468675 
0 0 -1.33300045 0 0 -1.33712065 0 0 -1.34398765 
0 0 -1.34791165 0 0 -1.35075655 0 0 -1.28120365 
0 0 -1.30121605 0 0 -1.28296945 0 0 -1.27708345 
0 0 -1.29640915 0 0 -1.29964645 0 0 -1.26236845 
0 0 -1.25334325 0 0 -1.26050455 0 0 -1.20478375 
0 0 -1.21469185 0 0 -1.19232505 0 0 -1.21076785 
0 0 -1.19438515 0 0 -1.19919205 0 0 -1.19301175 
0 0 -1.20409705 0 0 -1.17133165 0 0 -1.16456275 
0 0 -1.16466085 0 0 -1.15573375 0 0 -1.13748715 
0 0 -1.10687995 0 0 -1.12345885 0 0 -1.11247165 
0 0 -1.12561705 0 0 -1.11168685 0 0 -1.09883575 
0 0 -1.09471555 0 0 -1.07136775 0 0 -1.07107345 
0 0 -1.06538365 0 0 -1.04350735 0 0 -1.04625415 
0 0 -1.05361165 0 0 -1.02879235 0 0 -1.00622935 
0 0 -1.00907425 0 0 -1.00583695 0 0 -1.00436545 
0 0 -1.02751705 0 0 -1 0 0 -1 
0 0 -1 0 0 -1 0 0 -1 
0 0 -1 0 0 -1 0 0 -1 
0 0 -1 0 0 -1 0 0 -1 
0 0 -1 0 0 -1 
f 3 179 double
0 0 -0.00034671401923 0 0 -0.00034671401923 0 0 -0.00034671401923 
0 0 -0.00034671401923 0 0 -0.00034671401923 0 0 -0.0016051574964 
0 0 -0.0016051574964 0 0 -0.00034671401923 0 0 -0.0016051574964 
0 0 -0.0016051574964 0 0 -0.0016051574964 0 0 -0.00034671401923 
0 0 -0.00034671401923 0 0 -0.00034671401923 0 0 -0.0016051574964 
0 0 -0.00034671401923 0 0 -0.00034671401923 0 0 -0.0016051574964 
0 0 -0.00034671401923 0 0 -0.00034671401923 0 0 -0.0016051574964 
0 0 -0.00034671401923 0 0 -0.0016051574964 0 0 -0.00034671401923 
0 0 -0.00034671401923 0 0 -0.0016051574964 0 0 -0.00034671401923 
0.059885921554 -0.0086784833742 -0.16019126229 0 0 -0.00034671401923 0 0 -0.00034671401923 
0 0 -0.00034671401923 0 0 -0.0016051574964 0 0 -0.00034671401923 
0 0 -0.00034671401923 0 0 -0.00034671401923 0 0 -0.00034671401923 
0 0 -0.0016051574964 0 0 -0.0016051574964 0 0 -0.00034671401923 
0 0 -0.00034671401923 0 0 -0.0016051574964 0 0 -0.00034671401923 
0 0 -0.00034671401923 0 0 -0.00034671401923 0 0 -0.00034671401923 
0 0 -0.00034671401923 0 0 -0.0016051574964 0 0 -0.0016051574964 
0 0 -0.00034671401923 0 0 -0.0016051574964 0 0 -0.0016051574964 
0 0 -0.00034671401923 0 0 -0.00034671401923 0 0 -0.0016051574964 
0 0 -0.00034671401923 0 0 -0.00034671401923 0 0 -0.0016051574964 
0 0 -0.00034671401923 0 0 -0.0016051574964 0 0 -0.0016051574964 
0 0 -0.00034671401923 0 0 -0.00034671401923 0 0 -0.00034671401923 
0 0 -0.00034671401923 0 0 -0.00034671401923 0 0 -0.00034671401923 
0 0 -0.0016051574964 0 0 -0.0016051574964 0 0 -0.00034671401923 
0 0 -0.00034671401923 0 0 -0.00034671401923 0 0 -0.00034671401923 
0 0 -0.00034671401923 0 0 -0.00034671401923 0 0 -0.00034671401923 
0 0 -0.0016051574964 0 0 -0.00034671401923 0 0 -0.0016051574964 
0 0 -0.0016051574964 0 0 -0.00034671401923 0 0 -0.00034671401923 
0 0 -0.00034671401923 0 0 -0.0016051574964 0 0 -0.00034671401923 
0 0 -0.0016051574964 0 0 -0.00034671401923 0 0 -0.00034671401923 
0 0 -0.00034671401923 0 0 -0.00034671401923 0 0 -0.0016051574964 
0 0 -0.00034671401923 0 0 -0.00034671401923 0 0 -0.00034671401923 
0 0 -0.00034671401923 0 0 -0.00034671401923 0 0 -0.0016051574964 
0 0 -0.00034671401923 0 0 -0.0016051574964 0 0 -0.00034671401923 
0 0 -0.00034671401923 0 0 -0.0016051574964 0 0 -0.00034671401923 
0 0 -0.00034671401923 0 0 -0.0016051574964 0 0 -0.00034671401923 
0 0 -0.0016051574964 0 0 -0.0016051574964 0 0 -0.00034671401923 
0 0 -0.00034671401923 0 0 -0.00034671401923 0 0 -0.00034671401923 
0 0 -0.0016051574964 0 0 -0.00034671401923 0 0 -0.0016051574964 
0 0 -0.00034671401923 0 0 -0.0016051574964 0 0 -0.00034671401923 
0 0 -0.00034671401923 0 0 -0.0016051574964 0 0 -0.0016051574964 
0 0 -0.00034671401923 0 0 -0.00034671401923 0 0 -0.0016051574964 
0 0 -0.00034671401923 0 0 -0.0016051574964 0 0 -0.00034671401923 
0 0 -0.00034671401923 0 0 -0.00034671401923 0 0 -0.0016051574964 
0 0 -0.00034671401923 0 0 -0.00034671401923 0 0 -0.00034671401923 
0 0 -0.00034671401923 0 0 -0.0016051574964 0 0 -0.0016051574964 
0 0 -0.00034671401923 0 0 -0.0016051574964 0 0 -0.00034671401923 
0 0 -0.00034671401923 0 0 -0.00034671401923 0 0 -0.0016051574964 
0 0 -0.00034671401923 0 0 -0.00034671401923 0 0 -0.00034671401923 
0 0 -0.00034671401923 0 0 -0.0016051574964 0 0 -0.0016051574964 
0 0 -0.00034671401923 0 0 -0.0016051574964 0 0 -0.0016051574964 
0 0 -0.00034671401923 0 0 -0.00034671401923 0 0 -0.00034671401923 
0 0 -0.0016051574964 0 0 -0.00034671401923 0 0 -0.0016051574964 
0 0 -0.00034671401923 0 0 -0.00034671401923 0 0 -0.00034671401923 
0 0 -0.00034671401923 0 0 -0.0016051574964 0 0 -0.0016051574964 
0 0 -0.00034671401923 0 0 -0.00034671401923 0 0 -0.0016051574964 
0 0 -0.0016051574964 0 0 0 0 0 0 
0 0 0 0 0 0 0 0 0 
0 0 0 0 0 0 0 0 0 
0 0 0 0 0 0 0 0 0 
0 0 0 0 0 0 
radius 1 179 double
0.0015 0.0015 0.0015 0.0015 0.0015 0.0025 0.0025 0.0015 0.0025 
0.0025 0.0025 0.0015 0.0015 0.0015 0.0025 0.0015 0.0015 0.0025 
0.0015 0.0015 0.0025 0.0015 0.0025 0.0015 0.0015 0.0025 0.0015 
0.0025 0.0015 0.0015 0.0015 0.0025 0.0015 0.0015 0.0015 0.0015 
0.0025 0.0025 0.0015 0.0015 0.0025 0.0015 0.0015 0.0015 0.0015 
0.0015 0.0025 0.0025 0.0015 0.0025 0.0025 0.0015 0.0015 0.0025 
0.0015 0.0015 0.0025 0.0015 0.0025 0.0025 0.0015 0.0015 0.0015 
0.0015 0.0015 0.0015 0.0025 0.0025 0.0015 0.0015 0.0015 0.0015 
0.0015 0.0015 0.0015 0.0025 0.0015 0.0025 0.0025 0.0015 0.0015 
0.0015 0.0025 0.0015 0.0025 0.0015 0.0015 0.0015 0.0015 0.0025 
0.0015 0.0015 0.0015 0.0015 0.0015 0.0025 0.0015 0.0025 0.0015 
0.0015 0.0025 0.0015 0.0015 0.0025 0.0015 0.0025 0.0025 0.0015 
0.0015 0.0015 0.0015 0.0025 0.0015 0.0025 0.0015 0.0025 0.0015 
0.0015 0.0025 0.0025 0.0015 0.0015 0.0025 0.0015 0.0025 0.0015 
0.0015 0.0015 0.0025 0.0015 0.0015 0.0015 0.0015 0.0025 0.0025 
0.0015 0.0025 0.0015 0.0015 0.0015 0.0025 0.0015 0.0015 0.0015 
0.0015 0.0025 0.0025 0.0015 0.0025 0.0025 0.0015 0.0015 0.0015 
0.0025 0.0015 0.0025 0.0015 0.0015 0.0015 0.0015 0.0025 0.0025 
0.0015 0.0015 0.0025 0.0025 0.0015 0.0025 0.0015 0.0025 0.0015 
0.0025 0.0015 0.0015 0.0015 0.0015 0.0025 0.0015 0.0015 
omega 3 179 double
-273.17216518 -747.79938375 -209.93997845 421.20386758 61.276681162 169.80254759 -24.449373837 -372.13811534 4.7501171527e-15 
-71.727473351 -384.25414494 1.4902541031e-14 -4.7986786633 -372.04087009 1.1459708785e-15 -29.790048759 60.975435997 -15.875789803 
62.069377986 44.57032582 20.89741737 -85.075029757 -366.22578713 2.1138113508e-14 -2.88476401 -223.6553409 -1.9133269531e-16 
-2.8546194518 -221.31823762 -4.3621651395e-16 -23.161861039 294.28175194 -15.875789803 19.36541976 -380.14301931 -13.907942885 
68.910007313 -381.51827101 3.9403029229e-15 0 0 0 90.90835954 -150.35114984 28.8696814 
-147.37071394 -358.18843021 4.7652212389e-14 -136.47776377 -371.75148646 -5.9980058188e-15 -53.209441266 -219.19956266 17.367152927 
-65.754446804 -368.01365649 1.6881416973e-14 8.6128711383 -382.89746024 2.8534537832e-15 -17.703055782 -284.21009239 -31.747699086 
133.93957814 -368.60044468 6.0095095217e-15 -88.749016132 -215.70683836 -3.2855428141e-15 -135.70422402 -369.6444432 8.7748112008e-15 
223.79222031 43.931201703 132.35689657 -39.16014058 -219.17097967 3.2977689665e-15 -65.881516809 -368.72484029 -1.4284031096e-14 
-32.897029457 -227.00613004 1.2711148908e-14 0 0 0 291.92446398 572.56011813 220.35598303 
87.775431565 -375.81974153 6.0377299216e-14 52.851364984 -226.28867752 -1.3468433071e-14 0 0 0 
0 0 0 0 0 0 0 0 0 
80.09158567 -167.22056971 0.906336676 0 0 0 0 0 0 
0 0 0 0 0 0 0 0 0 
0 0 0 0 0 0 0 0 0 
0 0 0 0 0 0 0 0 0 
0 0 0 0 0 0 0 0 0 
0 0 0 0 0 0 0 0 0 
0 0 0 0 0 0 0 0 0 
0 0 0 0 0 0 0 0 0 
0 0 0 0 0 0 0 0 0 
0 0 0 0 0 0 0 0 0 
0 0 0 0 0 0 0 0 0 
0 0 0 0 0 0 0 0 0 
0 0 0 0 0 0 0 0 0 
0 0 0 0 0 0 0 0 0 
0 0 0 0 0 0 0 0 0 
0 0 0 0 0 0 0 0 0 
0 0 0 0 0 0 0 0 0 
0 0 0 0 0 0 0 0 0 
0 0 0 0 0 0 0 0 0 
0 0 0 0 0 0 0 0 0 
0 0 0 0 0 0 0 0 0 
0 0 0 0 0 0 0 0 0 
0 0 0 0 0 0 0 0 0 
0 0 0 0 0 0 0 0 0 
0 0 0 0 0 0 0 0 0 
0 0 0 0 0 0 0 0 0 
0 0 0 0 0 0 0 0 0 
0 0 0 0 0 0 0 0 0 
0 0 0 0 0 0 0 0 0 
0 0 0 0 0 0 0 0 0 
0 0 0 0 0 0 0 0 0 
0 0 0 0 0 0 0 0 0 
0 0 0 0 0 0 0 0 0 
0 0 0 0 0 0 0 0 0 
0 0 0 0 0 0 0 0 0 
0 0 0 0 0 0 0 0 0 
0 0 0 0 0 0 0 0 0 
0 0 0 0 0 0 0 0 0 
0 0 0 0 0 0 0 0 0 
0 0 0 0 0 0 0 0 0 
0 0 0 0 0 0 0 0 0 
0 0 0 0 0 0 0 0 0 
0 0 0 0 0 0 0 0 0 
0 0 0 0 0 0 0 0 0 
0 0 0 0 0 0 0 0 0 
0 0 0 0 0 0 0 0 0 
0 0 0 0 0 0 0 0 0 
0 0 0 0 0 0 
