# vtk DataFile Version 4.1
Generated by LIGGGHTS
ASCII
DATASET POLYDATA
POINTS 153 float
-0.0265618 -0.00591793 -0.111743 -0.033596 -0.00858673 -0.117175 -0.023867 0.0128136 -0.112018 
-0.0219082 0.020524 -0.108961 -0.0154717 -0.0149963 -0.106924 -0.0135019 0.00947635 -0.109869 
-0.0131862 0.0186349 -0.104549 -0.0108387 0.0257082 -0.106041 -0.00960291 -0.0300654 -0.105023 
-0.0138964 -0.0232346 -0.10707 -0.00216516 0.0158979 -0.101998 -0.0149545 0.0308756 -0.107937 
-0.0157944 -0.0334215 -0.106855 -0.0214597 -0.00448395 -0.108523 -0.0249199 0.0232441 -0.108444 
-0.028663 -0.019004 -0.106239 -0.0101549 -0.0158816 -0.104726 -0.0202974 -0.0199605 -0.100744 
-0.0275046 -0.000700049 -0.103646 -0.0083641 0.00277185 -0.10286 -0.0219947 -0.0107694 -0.099791 
-0.00857183 -0.027925 -0.0962611 -0.00408721 -0.0194644 -0.0932748 -0.00454319 0.0203252 -0.0951199 
-0.00174502 0.0344165 -0.0930445 -0.0159102 -0.0341757 -0.0895064 -0.0327631 -0.0200888 -0.0861009 
-0.0159539 -0.00381092 -0.0869102 -0.0300659 -0.00019371 -0.0866394 -0.0235267 0.0224168 -0.0862524 
-0.0230202 -0.021037 -0.0826562 -0.000459601 -0.00791581 -0.0790785 -0.0229734 0.000876534 -0.0818974 
-0.0221714 0.00979368 -0.0788042 -0.020721 -0.0135944 -0.0778046 -0.0127396 -0.0137041 -0.0774348 
-0.0240929 0.0291618 -0.0764568 -0.0160817 -0.000243398 -0.0727617 -0.024531 -1.04943e-05 -0.0641814 
-0.0306884 0.0042356 -0.0651704 -0.027916 0.0296421 -0.0648124 -0.0175025 -0.0228838 -0.06298 
-0.022804 -0.0140579 -0.0617051 -0.0251247 -0.00571197 -0.0622456 -0.018642 0.00531382 -0.062799 
-0.0105626 -0.00654333 -0.0587748 -0.027846 0.00485213 -0.0567746 -0.0178022 0.0256262 -0.0567542 
-0.0294843 -0.0242442 -0.0544088 -0.00180681 0.0181929 -0.0562489 -0.021213 0.0304724 -0.055577 
-0.0337701 0.0102173 -0.0501814 -0.0315539 0.028352 -0.0511241 -0.0221544 -0.0267021 -0.0461935 
-0.0188291 -0.0129094 -0.0459411 -0.0262531 0.00245318 -0.0469411 -0.0274253 0.00637934 -0.047712 
-0.0284955 0.0109203 -0.0481554 -0.0264294 0.0258143 -0.0488546 -0.00322644 -0.0143029 -0.0419373 
-0.0046838 -0.0346092 -0.0416383 -0.0205837 -0.0294247 -0.0403247 -0.00206763 0.0123655 -0.0396229 
-0.0315184 0.0323336 -0.0382112 -0.0181818 0.00594264 -0.0369761 -0.0113639 0.00609324 -0.0347173 
-0.0237558 0.020832 -0.0347337 -0.00317446 -0.00327501 -0.0343429 -0.0233787 0.0259916 -0.0329148 
-0.00618278 0.0247152 -0.031408 -0.0101315 -0.0171842 -0.0294395 -0.00512449 -0.0296766 -0.0245983 
-0.0132118 -0.0121788 -0.0247638 -0.0226093 -0.00790771 -0.0240529 -0.0176419 0.0252752 -0.023397 
-0.00331379 -0.00673963 -0.021778 -0.0203284 0.0149576 -0.0217759 -0.0332492 0.0212435 -0.021261 
-0.025261 0.030812 -0.020567 -0.0088354 0.0340944 -0.021782 -0.0255344 0.010562 -0.0172452 
-0.0156099 0.0123479 -0.0167978 -0.0166674 -0.0199684 -0.0132375 -0.006758 -0.00417797 -0.0155112 
-0.016039 -0.000886859 -0.0129525 -0.0136151 0.0110949 -0.0132425 -0.0302008 0.015853 -0.0131626 
-0.0138041 -0.0299263 -0.00966277 -0.0199892 0.00645928 -0.0117477 -0.0118987 0.0289343 -0.0104765 
-0.0135716 -0.00811727 -0.00534331 -0.00739645 0.00376164 -0.00526924 -0.0267621 -0.0219194 -0.00271453 
-0.020149 -0.00685329 -0.00147705 -0.0141771 0.0177987 -0.00259275 -0.00471042 0.0296342 -0.00223691 
-0.00791609 -0.0196794 0.00101326 -0.0179545 0.0159092 0.000575761 -0.00439906 -0.0328903 0.00454237 
-0.0296076 0.00722911 0.00465267 -0.016986 -0.0318376 0.00773516 -0.0281298 -0.0148599 0.00875533 
-0.0161861 -0.00599108 0.00879518 -0.0227935 0.0274334 0.00821867 -0.0292679 0.0147935 0.0115179 
-0.00205293 0.0165512 0.0113884 -0.0112712 -0.0202504 0.0169562 -0.0305301 0.00502779 0.0143328 
-0.00405648 0.032442 0.0153055 -0.0135333 -0.0276689 0.0186916 -0.0331337 -0.0163611 0.0197965 
-2.29018e-06 -0.0149558 0.0185599 -0.0273798 -0.00441029 0.0196559 -0.00301846 0.00510814 0.0186339 
-0.00794441 0.0258079 0.020903 -0.0143544 -0.0272787 0.0245333 -0.0191843 -0.0221491 0.0235888 
-0.0125841 -0.0140137 0.0239657 -0.0336091 0.0316877 0.0241909 -0.00679321 -0.00970412 0.0281052 
-0.0125785 -0.0040947 0.0250522 -0.0316214 0.000145103 0.0276054 -0.0217323 0.00352617 0.0267622 
-0.0148309 0.00369911 0.0262783 -0.00193271 0.00892872 0.0259258 -0.0227292 -0.0342527 0.0319226 
-0.026321 0.0295451 0.0321142 -0.0331578 -0.0347183 0.0342754 -0.0076982 -0.0269483 0.0340765 
-0.0142543 -0.00491395 0.0347558 -0.00618246 0.0122116 0.0324906 -0.0188235 -0.00412326 0.0364622 
-0.030786 0.0122027 0.0374912 -0.0238018 0.0141125 0.0366718 -0.00584464 -0.0345985 0.0428927 
-0.0115686 -0.0259344 0.0418105 -0.00401145 -0.0205873 0.0422386 -0.0301844 0.00679958 0.0434988 
-0.004829 0.0333632 0.0429639 -0.010147 -0.0216422 0.0442434 -0.0322463 -0.00737998 0.0440172 
-0.00623706 -0.00658451 0.0464726 -0.00679915 -0.000720285 0.0471873 -0.0230582 0.0203811 0.0471768 
-0.0210131 0.0295222 0.0441672 -0.0237179 -0.0330481 0.0481081 -0.0251936 -0.0129184 0.0499897 
-0.0214963 -0.0163735 0.0531038 -0.0152079 -0.0146465 0.051418 -0.00240788 -0.00904262 0.0525338 
-0.0322856 0.00186917 0.0543475 -0.00372425 0.000239952 0.0511955 -0.0043072 0.0165241 0.0526183 

VERTICES 153 306
1 0 
1 1 
1 2 
1 3 
1 4 
1 5 
1 6 
1 7 
1 8 
1 9 
1 10 
1 11 
1 12 
1 13 
1 14 
1 15 
1 16 
1 17 
1 18 
1 19 
1 20 
1 21 
1 22 
1 23 
1 24 
1 25 
1 26 
1 27 
1 28 
1 29 
1 30 
1 31 
1 32 
1 33 
1 34 
1 35 
1 36 
1 37 
1 38 
1 39 
1 40 
1 41 
1 42 
1 43 
1 44 
1 45 
1 46 
1 47 
1 48 
1 49 
1 50 
1 51 
1 52 
1 53 
1 54 
1 55 
1 56 
1 57 
1 58 
1 59 
1 60 
1 61 
1 62 
1 63 
1 64 
1 65 
1 66 
1 67 
1 68 
1 69 
1 70 
1 71 
1 72 
1 73 
1 74 
1 75 
1 76 
1 77 
1 78 
1 79 
1 80 
1 81 
1 82 
1 83 
1 84 
1 85 
1 86 
1 87 
1 88 
1 89 
1 90 
1 91 
1 92 
1 93 
1 94 
1 95 
1 96 
1 97 
1 98 
1 99 
1 100 
1 101 
1 102 
1 103 
1 104 
1 105 
1 106 
1 107 
1 108 
1 109 
1 110 
1 111 
1 112 
1 113 
1 114 
1 115 
1 116 
1 117 
1 118 
1 119 
1 120 
1 121 
1 122 
1 123 
1 124 
1 125 
1 126 
1 127 
1 128 
1 129 
1 130 
1 131 
1 132 
1 133 
1 134 
1 135 
1 136 
1 137 
1 138 
1 139 
1 140 
1 141 
1 142 
1 143 
1 144 
1 145 
1 146 
1 147 
1 148 
1 149 
1 150 
1 151 
1 152 

POINT_DATA 153
FIELD FieldData 7
id 1 153 int
2 10 6 4 12 8 7 1 13 
5 9 11 3 19 22 20 18 23 
16 21 25 24 15 14 17 38 30 
29 28 33 35 26 31 37 32 36 
34 27 49 42 44 50 47 51 48 
45 43 46 40 39 41 60 56 54 
53 59 64 55 61 63 52 62 58 
57 73 65 67 72 69 71 75 76 
70 77 74 68 86 66 80 84 85 
82 87 81 78 90 88 79 89 83 
98 99 100 95 96 92 101 91 97 
102 93 110 113 94 114 104 111 106 
107 109 112 108 105 103 127 115 120 
121 117 123 118 126 119 124 116 125 
122 135 140 128 139 136 133 131 132 
134 137 147 138 129 153 146 149 151 
130 145 143 150 144 142 141 152 148 

type 1 153 int
1 1 1 1 1 1 1 1 1 
1 1 1 1 1 1 1 1 1 
1 1 1 1 1 1 1 1 1 
1 1 1 1 1 1 1 1 1 
1 1 1 1 1 1 1 1 1 
1 1 1 1 1 1 1 1 1 
1 1 1 1 1 1 1 1 1 
1 1 1 1 1 1 1 1 1 
1 1 1 1 1 1 1 1 1 
1 1 1 1 1 1 1 1 1 
1 1 1 1 1 1 1 1 1 
1 1 1 1 1 1 1 1 1 
1 1 1 1 1 1 1 1 1 
1 1 1 1 1 1 1 1 1 
1 1 1 1 1 1 1 1 1 
1 1 1 1 1 1 1 1 1 
1 1 1 1 1 1 1 1 1 

i 3 153 int
0 0 0 0 0 0 0 0 0 
0 0 0 0 0 0 0 0 0 
0 0 0 0 0 0 0 0 0 
0 0 0 0 0 0 0 0 0 
0 0 0 0 0 0 0 0 0 
0 0 0 0 0 0 0 0 0 
0 0 0 0 0 0 0 0 0 
0 0 0 0 0 0 0 0 0 
0 0 0 0 0 0 0 0 0 
0 0 0 0 0 0 0 0 0 
0 0 0 0 0 0 0 0 0 
0 0 0 0 0 0 0 0 0 
0 0 0 0 0 0 0 0 0 
0 0 0 0 0 0 0 0 0 
0 0 0 0 0 0 0 0 0 
0 0 0 0 0 0 0 0 0 
0 0 0 0 0 0 0 0 0 
0 0 0 0 0 0 0 0 0 
0 0 0 0 0 0 0 0 0 
0 0 0 0 0 0 0 0 0 
0 0 0 0 0 0 0 0 0 
0 0 0 0 0 0 0 0 0 
0 0 0 0 0 0 0 0 0 
0 0 0 0 0 0 0 0 0 
0 0 0 0 0 0 0 0 0 
0 0 0 0 0 0 0 0 0 
0 0 0 0 0 0 0 0 0 
0 0 0 0 0 0 0 0 0 
0 0 0 0 0 0 0 0 0 
0 0 0 0 0 0 0 0 0 
0 0 0 0 0 0 0 0 0 
0 0 0 0 0 0 0 0 0 
0 0 0 0 0 0 0 0 0 
0 0 0 0 0 0 0 0 0 
0 0 0 0 0 0 0 0 0 
0 0 0 0 0 0 0 0 0 
0 0 0 0 0 0 0 0 0 
0 0 0 0 0 0 0 0 0 
0 0 0 0 0 0 0 0 0 
0 0 0 0 0 0 0 0 0 
0 0 0 0 0 0 0 0 0 
0 0 0 0 0 0 0 0 0 
0 0 0 0 0 0 0 0 0 
0 0 0 0 0 0 0 0 0 
0 0 0 0 0 0 0 0 0 
0 0 0 0 0 0 0 0 0 
0 0 0 0 0 0 0 0 0 
0 0 0 0 0 0 0 0 0 
0 0 0 0 0 0 0 0 0 
0 0 0 0 0 0 0 0 0 
0 0 0 0 0 0 0 0 0 

v 3 153 double
-0.72615218482 0.009366097318 0.23393777591 -0.73437412757 0.048248182168 0.25964559408 -0.75112202757 -0.13566800949 0.21925526184 
-0.55576444893 -0.24210604252 0.041954752479 -0.71584803948 0.12790338348 0.20393130725 -0.63591859651 -0.039450297487 -0.019670954054 
-0.73198125343 -0.17095954075 0.14550282351 -0.73007221792 -0.0070138229157 -0.26388529148 -0.71666648092 0.26310328876 0.20414699787 
-0.71966002753 0.26420228247 0.21186325388 0.0053772640319 -0.75568784498 -0.19916601368 -0.72097167049 -0.26198189066 0.22541621826 
-0.69695482414 0.28675055182 0.23398867349 0 0 -2.02735225 -0.86141698322 0.50053828671 -1.3052705841 
0 0 -2.01626695 0 0 -2.00890945 0 0 -1.98938755 
0 0 -2.00361205 0 0 -1.99978615 0 0 -1.98467875 
0 0 -1.96711885 0 0 -1.95220765 0 0 -1.96142905 
0 0 -1.95103045 0 0 -1.93317625 0 0 -1.91581255 
0 0 -1.91993275 0 0 -1.91855935 0 0 -1.91659735 
0 0 -1.89805645 0 0 -1.87951555 0 0 -1.89413245 
0 0 -1.87804405 0 0 -1.87284475 0 0 -1.87088275 
0 0 -1.86578155 0 0 -1.84625965 0 0 -1.80005455 
0 0 -1.80545005 0 0 -1.80348805 0 0 -1.79348185 
0 0 -1.78651675 0 0 -1.78945975 0 0 -1.79250085 
0 0 -1.77033025 0 0 -1.75924495 0 0 -1.75914685 
0 0 -1.74600145 0 0 -1.75630195 0 0 -1.75257415 
0 0 -1.72206505 0 0 -1.72746055 0 0 -1.69920775 
0 0 -1.69773625 0 0 -1.70352415 0 0 -1.70793865 
0 0 -1.71048925 0 0 -1.71451135 0 0 -1.67448655 
0 0 -1.67272075 0 0 -1.66497085 0 0 -1.66085065 
0 0 -1.65251215 0 0 -1.64515465 0 0 -1.63161685 
0 0 -1.63171495 0 0 -1.62936055 0 0 -1.62072775 
0 0 -1.61160445 0 0 -1.59953815 0 0 -1.56961765 
0 0 -1.57059865 0 0 -1.56618415 0 0 -1.56206395 
0 0 -1.55186155 0 0 -1.55186155 0 0 -1.54862425 
0 0 -1.54420975 0 0 -1.55186155 0 0 -1.52292205 
0 0 -1.52007715 0 0 -1.49692555 0 0 -1.51173865 
0 0 -1.49506165 0 0 -1.49692555 0 0 -1.49643505 
0 0 -1.47328345 0 0 -1.48711555 0 0 -1.47867895 
0 0 -1.44424585 0 0 -1.44375535 0 0 -1.42629355 
0 0 -1.41775885 0 0 -1.42541065 0 0 -1.42295815 
0 0 -1.40039515 0 0 -1.40343625 0 0 -1.37547775 
0 0 -1.37469295 0 0 -1.35252235 0 0 -1.34506675 
0 0 -1.34477245 0 0 -1.34899075 0 0 -1.32476005 
0 0 -1.32574105 0 0 -1.28385235 0 0 -1.30376665 
0 0 -1.29640915 0 0 -1.27051075 0 0 -1.26197605 
0 0 -1.27158985 0 0 -1.26305515 0 0 -1.27100125 
0 0 -1.25334325 0 0 -1.22459995 0 0 -1.23215365 
0 0 -1.22911255 0 0 -1.22734675 0 0 -1.19566045 
0 0 -1.22047975 0 0 -1.19978065 0 0 -1.20664765 
0 0 -1.21057165 0 0 -1.21341655 0 0 -1.16387605 
0 0 -1.16230645 0 0 -1.14386365 0 0 -1.14562945 
0 0 -1.13974345 0 0 -1.15906915 0 0 -1.12502845 
0 0 -1.11600325 0 0 -1.12316455 0 0 -1.06744375 
0 0 -1.07735185 0 0 -1.07342785 0 0 -1.06185205 
0 0 -1.06675705 0 0 -1.05498505 0 0 -1.05704515 
0 0 -1.03399165 0 0 -1.02722275 0 0 -1.02732085 
0 0 -1.05567175 0 0 -1.01839375 0 0 -1.00014715 
0 0 -1 0 0 -1 0 0 -1 
0 0 -1 0 0 -1 0 0 -1 

f 3 153 double
0 0 -0.0016051574964 0 0 -0.00034671401923 0 0 -0.00034671401923 
0 0 -0.0016051574964 0 0 -0.00034671401923 0 0 -0.00034671401923 
0 0 -0.00034671401923 0 0 -0.0016051574964 0 0 -0.00034671401923 
0 0 -0.0016051574964 0 0 -0.00034671401923 0 0 -0.00034671401923 
0 0 -0.0016051574964 0 0 -0.00034671401923 0 0 -0.00034671401923 
0 0 -0.00034671401923 0 0 -0.00034671401923 0 0 -0.00034671401923 
0 0 -0.0016051574964 0 0 -0.00034671401923 0 0 -0.00034671401923 
0 0 -0.00034671401923 0 0 -0.0016051574964 0 0 -0.0016051574964 
0 0 -0.0016051574964 0 0 -0.00034671401923 0 0 -0.0016051574964 
0 0 -0.0016051574964 0 0 -0.0016051574964 0 0 -0.00034671401923 
0 0 -0.00034671401923 0 0 -0.0016051574964 0 0 -0.00034671401923 
0 0 -0.00034671401923 0 0 -0.00034671401923 0 0 -0.00034671401923 
0 0 -0.00034671401923 0 0 -0.0016051574964 0 0 -0.00034671401923 
0 0 -0.0016051574964 0 0 -0.00034671401923 0 0 -0.00034671401923 
0 0 -0.00034671401923 0 0 -0.00034671401923 0 0 -0.00034671401923 
0 0 -0.00034671401923 0 0 -0.0016051574964 0 0 -0.00034671401923 
0 0 -0.0016051574964 0 0 -0.0016051574964 0 0 -0.0016051574964 
0 0 -0.00034671401923 0 0 -0.00034671401923 0 0 -0.0016051574964 
0 0 -0.0016051574964 0 0 -0.00034671401923 0 0 -0.00034671401923 
0 0 -0.0016051574964 0 0 -0.00034671401923 0 0 -0.00034671401923 
0 0 -0.0016051574964 0 0 -0.00034671401923 0 0 -0.00034671401923 
0 0 -0.00034671401923 0 0 -0.00034671401923 0 0 -0.0016051574964 
0 0 -0.0016051574964 0 0 -0.00034671401923 0 0 -0.00034671401923 
0 0 -0.00034671401923 0 0 -0.00034671401923 0 0 -0.00034671401923 
0 0 -0.00034671401923 0 0 -0.00034671401923 0 0 -0.00034671401923 
0 0 -0.0016051574964 0 0 -0.00034671401923 0 0 -0.0016051574964 
0 0 -0.0016051574964 0 0 -0.00034671401923 0 0 -0.00034671401923 
0 0 -0.00034671401923 0 0 -0.00034671401923 0 0 -0.0016051574964 
0 0 -0.0016051574964 0 0 -0.00034671401923 0 0 -0.00034671401923 
0 0 -0.0016051574964 0 0 -0.00034671401923 0 0 -0.00034671401923 
0 0 -0.00034671401923 0 0 -0.00034671401923 0 0 -0.00034671401923 
0 0 -0.00034671401923 0 0 -0.00034671401923 0 0 -0.0016051574964 
0 0 -0.00034671401923 0 0 -0.0016051574964 0 0 -0.00034671401923 
0 0 -0.00034671401923 0 0 -0.0016051574964 0 0 -0.00034671401923 
0 0 -0.00034671401923 0 0 -0.0016051574964 0 0 -0.00034671401923 
0 0 -0.0016051574964 0 0 -0.00034671401923 0 0 -0.0016051574964 
0 0 -0.00034671401923 0 0 -0.00034671401923 0 0 -0.00034671401923 
0 0 -0.00034671401923 0 0 -0.0016051574964 0 0 -0.0016051574964 
0 0 -0.00034671401923 0 0 -0.0016051574964 0 0 -0.00034671401923 
0 0 -0.00034671401923 0 0 -0.0016051574964 0 0 -0.00034671401923 
0 0 -0.0016051574964 0 0 -0.00034671401923 0 0 -0.0016051574964 
0 0 -0.00034671401923 0 0 -0.0016051574964 0 0 -0.00034671401923 
0 0 -0.00034671401923 0 0 -0.00034671401923 0 0 -0.00034671401923 
0 0 -0.0016051574964 0 0 -0.00034671401923 0 0 -0.00034671401923 
0 0 -0.00034671401923 0 0 -0.0016051574964 0 0 -0.0016051574964 
0 0 -0.00034671401923 0 0 -0.00034671401923 0 0 -0.00034671401923 
0 0 -0.00034671401923 0 0 -0.0016051574964 0 0 -0.00034671401923 
0 0 -0.00034671401923 0 0 -0.00034671401923 0 0 -0.00034671401923 
0 0 -0.0016051574964 0 0 -0.0016051574964 0 0 -0.0016051574964 
0 0 0 0 0 0 0 0 0 
0 0 0 0 0 0 0 0 0 

radius 1 153 double
0.0025 0.0015 0.0015 0.0025 0.0015 0.0015 0.0015 0.0025 0.0015 
0.0025 0.0015 0.0015 0.0025 0.0015 0.0015 0.0015 0.0015 0.0015 
0.0025 0.0015 0.0015 0.0015 0.0025 0.0025 0.0025 0.0015 0.0025 
0.0025 0.0025 0.0015 0.0015 0.0025 0.0015 0.0015 0.0015 0.0015 
0.0015 0.0025 0.0015 0.0025 0.0015 0.0015 0.0015 0.0015 0.0015 
0.0015 0.0025 0.0015 0.0025 0.0025 0.0025 0.0015 0.0015 0.0025 
0.0025 0.0015 0.0015 0.0025 0.0015 0.0015 0.0025 0.0015 0.0015 
0.0015 0.0015 0.0025 0.0025 0.0015 0.0015 0.0015 0.0015 0.0015 
0.0015 0.0015 0.0015 0.0025 0.0015 0.0025 0.0025 0.0015 0.0015 
0.0015 0.0015 0.0025 0.0025 0.0015 0.0015 0.0025 0.0015 0.0015 
0.0015 0.0015 0.0015 0.0015 0.0015 0.0025 0.0015 0.0025 0.0015 
0.0015 0.0025 0.0015 0.0015 0.0025 0.0015 0.0025 0.0015 0.0025 
0.0015 0.0015 0.0015 0.0015 0.0025 0.0025 0.0015 0.0025 0.0015 
0.0015 0.0025 0.0015 0.0025 0.0015 0.0025 0.0015 0.0025 0.0015 
0.0015 0.0015 0.0015 0.0025 0.0015 0.0015 0.0015 0.0025 0.0025 
0.0015 0.0015 0.0015 0.0015 0.0025 0.0015 0.0015 0.0015 0.0015 
0.0025 0.0025 0.0025 0.0015 0.0025 0.0025 0.0025 0.0015 0.0015 

omega 3 153 double
-2.88476401 -223.6553409 -1.9133269531e-16 -24.449373837 -372.13811534 4.7501171527e-15 68.910007313 -381.51827101 3.9403029229e-15 
-17.703055782 -284.21009239 -31.747699086 -65.881516809 -368.72484029 -1.4284031096e-14 19.36541976 -380.14301931 -13.907942885 
87.775431565 -375.81974153 6.0377299216e-14 90.90835954 -150.35114984 28.8696814 -135.70422402 -369.6444432 8.7748112008e-15 
-82.580150371 -224.93989353 -7.2171120977e-15 291.92446398 572.56011813 220.35598303 133.93957814 -368.60044468 6.0095095217e-15 
-88.749016132 -215.70683836 -3.2855428141e-15 0 0 0 -453.56357329 -413.6399923 -243.0651494 
0 0 0 0 0 0 0 0 0 
0 0 0 0 0 0 0 0 0 
0 0 0 0 0 0 0 0 0 
0 0 0 0 0 0 0 0 0 
0 0 0 0 0 0 0 0 0 
0 0 0 0 0 0 0 0 0 
0 0 0 0 0 0 0 0 0 
0 0 0 0 0 0 0 0 0 
0 0 0 0 0 0 0 0 0 
0 0 0 0 0 0 0 0 0 
0 0 0 0 0 0 0 0 0 
0 0 0 0 0 0 0 0 0 
0 0 0 0 0 0 0 0 0 
0 0 0 0 0 0 0 0 0 
0 0 0 0 0 0 0 0 0 
0 0 0 0 0 0 0 0 0 
0 0 0 0 0 0 0 0 0 
0 0 0 0 0 0 0 0 0 
0 0 0 0 0 0 0 0 0 
0 0 0 0 0 0 0 0 0 
0 0 0 0 0 0 0 0 0 
0 0 0 0 0 0 0 0 0 
0 0 0 0 0 0 0 0 0 
0 0 0 0 0 0 0 0 0 
0 0 0 0 0 0 0 0 0 
0 0 0 0 0 0 0 0 0 
0 0 0 0 0 0 0 0 0 
0 0 0 0 0 0 0 0 0 
0 0 0 0 0 0 0 0 0 
0 0 0 0 0 0 0 0 0 
0 0 0 0 0 0 0 0 0 
0 0 0 0 0 0 0 0 0 
0 0 0 0 0 0 0 0 0 
0 0 0 0 0 0 0 0 0 
0 0 0 0 0 0 0 0 0 
0 0 0 0 0 0 0 0 0 
0 0 0 0 0 0 0 0 0 
0 0 0 0 0 0 0 0 0 
0 0 0 0 0 0 0 0 0 
0 0 0 0 0 0 0 0 0 
0 0 0 0 0 0 0 0 0 
0 0 0 0 0 0 0 0 0 
0 0 0 0 0 0 0 0 0 
0 0 0 0 0 0 0 0 0 
0 0 0 0 0 0 0 0 0 
0 0 0 0 0 0 0 0 0 

