# vtk DataFile Version 4.1
Generated by LIGGGHTS
ASCII
DATASET POLYDATA
POINTS 179 float
-0.0416113 0.0308594 -0.118668 -0.0341491 -0.0163673 -0.119601 -0.045346 -0.00781476 -0.114276 
-0.0282394 -0.00960368 -0.11323 -0.0307091 -0.00436465 -0.112017 -0.0351481 -0.000784047 -0.118971 
-0.0328417 -0.0204616 -0.11701 -0.0271898 -0.0183594 -0.111198 -0.0381802 -0.00576807 -0.109256 
-0.0183495 -0.00378002 -0.110931 -0.0295783 9.35845e-05 -0.114114 -0.0237084 0.00872785 -0.111998 
-0.035885 0.0106429 -0.109766 -0.0246669 0.0220456 -0.114371 -0.0225198 0.025596 -0.111519 
-0.0199703 -0.0325053 -0.108287 -0.0159351 -0.0252218 -0.105598 -0.0238993 -0.0188785 -0.107438 
-0.0183034 -0.0146505 -0.108037 -0.0177266 0.00256125 -0.106853 -0.0308004 0.0166503 -0.109545 
-0.026476 0.0263076 -0.106674 -0.0269457 -0.0288335 -0.104367 -0.0210696 -0.0258558 -0.103012 
-0.0300187 -0.0216336 -0.102698 -0.0108696 -0.0182525 -0.103603 -0.0269253 -0.0129499 -0.104916 
-0.00227599 -0.00765259 -0.104541 -0.0229734 0.000876534 -0.113459 -0.00207912 0.00380693 -0.106441 
-0.0248979 0.0158995 -0.103477 -0.0122074 0.0185351 -0.103681 -0.0222433 -0.0130975 -0.10764 
-0.0127396 -0.0137041 -0.108625 -0.0221397 0.00991098 -0.10955 -0.0241069 0.0295381 -0.106477 
-0.00732891 0.0317478 -0.102117 -0.0160817 -0.000243398 -0.103558 -0.0175025 -0.0228838 -0.0929314 
-0.024531 -1.04943e-05 -0.094238 -0.0306884 0.0042356 -0.0953132 -0.018642 0.00531382 -0.0927347 
-0.027916 0.0296421 -0.0949238 -0.022804 -0.0140579 -0.0915451 -0.0251247 -0.00571197 -0.0921327 
-0.0105626 -0.00654333 -0.0883557 -0.027846 0.00485213 -0.0861782 -0.00180681 0.0181929 -0.0856054 
-0.0178022 0.0256262 -0.0861562 -0.0294843 -0.0242442 -0.0836006 -0.021213 0.0304724 -0.0848739 
-0.0337701 0.0102173 -0.0789902 -0.0315539 0.028352 -0.0800192 -0.0221544 -0.0267021 -0.0746365 
-0.0262531 0.00245318 -0.0754531 -0.0274253 0.00637934 -0.0762947 -0.0284955 0.0109203 -0.0767789 
-0.0264294 0.0258143 -0.0775424 -0.0188291 -0.0129094 -0.0743606 -0.0046838 -0.0346092 -0.0696575 
-0.0205837 -0.0294247 -0.06822 -0.00322644 -0.0143029 -0.0699847 -0.00206763 0.0123655 -0.0674521 
-0.0181818 0.00594264 -0.0645542 -0.0315184 0.0323336 -0.0659071 -0.00317446 -0.00327501 -0.0616684 
-0.0113639 0.00609324 -0.0620788 -0.0237558 0.020832 -0.0620968 -0.0233787 0.0259916 -0.0601022 
-0.00618278 0.0247152 -0.0584494 -0.0101315 -0.0171842 -0.0562878 -0.00512449 -0.0296766 -0.0509678 
-0.0132118 -0.0121788 -0.0511491 -0.0226093 -0.00790771 -0.0503675 -0.0176419 0.0252752 -0.0496457 
-0.00331379 -0.00673963 -0.0478635 -0.0203284 0.0149576 -0.0478614 -0.0332492 0.0212435 -0.0472947 
-0.025261 0.030812 -0.04653 -0.0088354 0.0340944 -0.0478675 -0.0255344 0.010562 -0.0428676 
-0.0156099 0.0123479 -0.0423747 -0.006758 -0.00417797 -0.0409547 -0.0166674 -0.0199684 -0.038444 
-0.016039 -0.000886859 -0.0381292 -0.0199892 0.00645928 -0.0367972 -0.0136151 0.0110949 -0.038449 
-0.0302008 0.015853 -0.0383613 -0.0118987 0.0289343 -0.0353911 -0.0138041 -0.0299263 -0.034491 
-0.0135716 -0.00811727 -0.0297069 -0.00739645 0.00376164 -0.029625 -0.0267621 -0.0219194 -0.0267909 
-0.020149 -0.00685329 -0.0254169 -0.0141771 0.0177987 -0.026655 -0.00471042 0.0296342 -0.0262599 
-0.00791609 -0.0196794 -0.0226487 -0.0179545 0.0159092 -0.0231349 -0.00439906 -0.0328903 -0.018721 
-0.0296076 0.00722911 -0.0185981 -0.016986 -0.0318376 -0.0151609 -0.0281298 -0.0148599 -0.0140214 
-0.0161861 -0.00599108 -0.0139769 -0.0227935 0.0274334 -0.0146209 -0.0292679 0.0147935 -0.0109339 
-0.00205293 0.0165512 -0.0110792 -0.0305301 0.00502779 -0.00778314 -0.00405648 0.032442 -0.00669272 
-0.0135333 -0.0276689 -0.00289227 -0.0112712 -0.0202504 -0.00484116 -2.29018e-06 -0.0149558 -0.00304124 
-0.00301846 0.00510814 -0.00295781 -0.0331337 -0.0163611 -0.00165079 -0.0273798 -0.00441029 -0.00180863 
-0.00794441 0.0258079 -0.00040617 -0.0143544 -0.0272787 0.00368399 -0.0191843 -0.0221491 0.0026187 
-0.0125841 -0.0140137 0.0030442 -0.0125785 -0.0040947 0.00426884 -0.0336091 0.0316877 0.00329768 
-0.00679321 -0.00970412 0.00771891 -0.0316214 0.000145103 0.00715326 -0.0217323 0.00352617 0.00620012 
-0.0148309 0.00369911 0.00565346 -0.00193271 0.00892872 0.00525549 -0.0331578 -0.0347183 0.0147179 
-0.0227292 -0.0342527 0.0120449 -0.0076982 -0.0269483 0.0144908 -0.0142543 -0.00491395 0.0152642 
-0.00618246 0.0122116 0.0126898 -0.026321 0.0295451 0.0122616 -0.0188235 -0.00412326 0.0172061 
-0.030786 0.0122027 0.0183794 -0.0238018 0.0141125 0.0174455 -0.00584464 -0.0345985 0.0245579 
-0.0115686 -0.0259344 0.0233172 -0.010147 -0.0216422 0.026108 -0.00401145 -0.0205873 0.023808 
-0.0322463 -0.00737998 0.0258488 -0.0301844 0.00679958 0.0252535 -0.0210131 0.0295222 0.0260207 
-0.004829 0.0333632 0.0246401 -0.00623706 -0.00658451 0.0286731 -0.00679915 -0.000720285 0.0294961 
-0.0230582 0.0203811 0.029484 -0.0237179 -0.0330481 0.0305581 -0.0251936 -0.0129184 0.0327316 
-0.0214963 -0.0163735 0.0362882 -0.0152079 -0.0146465 0.0343746 -0.00240788 -0.00904262 0.0356445 
-0.00372425 0.000239952 0.0341204 -0.0043072 0.0165241 0.0357396 -0.0326006 -0.0307471 0.0372121 
-0.0322856 0.00186917 0.0376812 -0.00943139 0.0192376 0.0403022 -0.0103743 0.0339743 0.0403345 
-0.0234861 -0.027537 0.0409619 -0.0180071 -0.0232682 0.0433614 -0.000114354 -0.0212937 0.0430665 
-0.0280789 0.0137467 0.0422628 -0.0345391 -0.0114622 0.0449437 -0.00596878 -0.0130405 0.0473319 
-0.0303036 -0.0103215 0.0470304 -0.0287704 0.0101406 0.0473687 -0.010941 0.0209557 0.0475239 
-0.0148889 0.0293808 0.0450866 -0.0326237 -0.0246784 0.0502158 -0.0234232 0.00199937 0.048555 
-0.0252839 0.0329346 0.0483536 -0.0233162 -0.0208835 0.0518259 -0.01426 -0.0134546 0.0544308 
-0.0199625 -0.00318577 0.0540314 -0.0192935 0.0147617 0.0532808 -0.0264666 -0.0274673 0.0565598 
-0.0337354 -0.0145959 0.0549758 -0.0282271 0.00282044 0.0561512 -0.00243205 0.0227147 0.0564149 
-0.0334843 0.027503 0.0559873 -0.00169906 0.0312398 0.0567157 
VERTICES 179 358
1 0 
1 1 
1 2 
1 3 
1 4 
1 5 
1 6 
1 7 
1 8 
1 9 
1 10 
1 11 
1 12 
1 13 
1 14 
1 15 
1 16 
1 17 
1 18 
1 19 
1 20 
1 21 
1 22 
1 23 
1 24 
1 25 
1 26 
1 27 
1 28 
1 29 
1 30 
1 31 
1 32 
1 33 
1 34 
1 35 
1 36 
1 37 
1 38 
1 39 
1 40 
1 41 
1 42 
1 43 
1 44 
1 45 
1 46 
1 47 
1 48 
1 49 
1 50 
1 51 
1 52 
1 53 
1 54 
1 55 
1 56 
1 57 
1 58 
1 59 
1 60 
1 61 
1 62 
1 63 
1 64 
1 65 
1 66 
1 67 
1 68 
1 69 
1 70 
1 71 
1 72 
1 73 
1 74 
1 75 
1 76 
1 77 
1 78 
1 79 
1 80 
1 81 
1 82 
1 83 
1 84 
1 85 
1 86 
1 87 
1 88 
1 89 
1 90 
1 91 
1 92 
1 93 
1 94 
1 95 
1 96 
1 97 
1 98 
1 99 
1 100 
1 101 
1 102 
1 103 
1 104 
1 105 
1 106 
1 107 
1 108 
1 109 
1 110 
1 111 
1 112 
1 113 
1 114 
1 115 
1 116 
1 117 
1 118 
1 119 
1 120 
1 121 
1 122 
1 123 
1 124 
1 125 
1 126 
1 127 
1 128 
1 129 
1 130 
1 131 
1 132 
1 133 
1 134 
1 135 
1 136 
1 137 
1 138 
1 139 
1 140 
1 141 
1 142 
1 143 
1 144 
1 145 
1 146 
1 147 
1 148 
1 149 
1 150 
1 151 
1 152 
1 153 
1 154 
1 155 
1 156 
1 157 
1 158 
1 159 
1 160 
1 161 
1 162 
1 163 
1 164 
1 165 
1 166 
1 167 
1 168 
1 169 
1 170 
1 171 
1 172 
1 173 
1 174 
1 175 
1 176 
1 177 
1 178 

POINT_DATA 179
FIELD FieldData 7
id 1 179 int
22 20 10 25 19 16 30 23 2 
29 28 8 6 33 1 38 24 5 
18 21 4 11 3 13 35 15 12 
26 31 9 7 14 32 36 37 34 
17 27 50 49 42 48 44 47 51 
45 43 39 46 40 41 60 56 54 
59 64 55 61 53 52 62 63 58 
73 57 72 65 67 69 71 75 76 
70 77 74 68 86 66 80 84 85 
82 81 87 78 89 90 88 83 79 
98 99 100 95 96 92 101 91 97 
102 93 110 113 94 114 104 106 107 
109 111 108 103 112 105 127 115 120 
121 118 117 123 126 119 124 116 135 
125 140 128 139 122 136 133 131 132 
134 129 137 153 147 130 138 146 149 
151 145 143 150 144 142 152 148 160 
141 161 158 164 166 165 163 155 157 
162 159 156 154 174 168 178 167 172 
169 175 176 171 173 170 179 177 
type 1 179 int
1 1 1 1 1 1 1 1 1 
1 1 1 1 1 1 1 1 1 
1 1 1 1 1 1 1 1 1 
1 1 1 1 1 1 1 1 1 
1 1 1 1 1 1 1 1 1 
1 1 1 1 1 1 1 1 1 
1 1 1 1 1 1 1 1 1 
1 1 1 1 1 1 1 1 1 
1 1 1 1 1 1 1 1 1 
1 1 1 1 1 1 1 1 1 
1 1 1 1 1 1 1 1 1 
1 1 1 1 1 1 1 1 1 
1 1 1 1 1 1 1 1 1 
1 1 1 1 1 1 1 1 1 
1 1 1 1 1 1 1 1 1 
1 1 1 1 1 1 1 1 1 
1 1 1 1 1 1 1 1 1 
1 1 1 1 1 1 1 1 1 
1 1 1 1 1 1 1 1 1 
1 1 1 1 1 1 1 1 
i 3 179 int
0 0 0 0 0 0 0 0 0 
0 0 0 0 0 0 0 0 0 
0 0 0 0 0 0 0 0 0 
0 0 0 0 0 0 0 0 0 
0 0 0 0 0 0 0 0 0 
0 0 0 0 0 0 0 0 0 
0 0 0 0 0 0 0 0 0 
0 0 0 0 0 0 0 0 0 
0 0 0 0 0 0 0 0 0 
0 0 0 0 0 0 0 0 0 
0 0 0 0 0 0 0 0 0 
0 0 0 0 0 0 0 0 0 
0 0 0 0 0 0 0 0 0 
0 0 0 0 0 0 0 0 0 
0 0 0 0 0 0 0 0 0 
0 0 0 0 0 0 0 0 0 
0 0 0 0 0 0 0 0 0 
0 0 0 0 0 0 0 0 0 
0 0 0 0 0 0 0 0 0 
0 0 0 0 0 0 0 0 0 
0 0 0 0 0 0 0 0 0 
0 0 0 0 0 0 0 0 0 
0 0 0 0 0 0 0 0 0 
0 0 0 0 0 0 0 0 0 
0 0 0 0 0 0 0 0 0 
0 0 0 0 0 0 0 0 0 
0 0 0 0 0 0 0 0 0 
0 0 0 0 0 0 0 0 0 
0 0 0 0 0 0 0 0 0 
0 0 0 0 0 0 0 0 0 
0 0 0 0 0 0 0 0 0 
0 0 0 0 0 0 0 0 0 
0 0 0 0 0 0 0 0 0 
0 0 0 0 0 0 0 0 0 
0 0 0 0 0 0 0 0 0 
0 0 0 0 0 0 0 0 0 
0 0 0 0 0 0 0 0 0 
0 0 0 0 0 0 0 0 0 
0 0 0 0 0 0 0 0 0 
0 0 0 0 0 0 0 0 0 
0 0 0 0 0 0 0 0 0 
0 0 0 0 0 0 0 0 0 
0 0 0 0 0 0 0 0 0 
0 0 0 0 0 0 0 0 0 
0 0 0 0 0 0 0 0 0 
0 0 0 0 0 0 0 0 0 
0 0 0 0 0 0 0 0 0 
0 0 0 0 0 0 0 0 0 
0 0 0 0 0 0 0 0 0 
0 0 0 0 0 0 0 0 0 
0 0 0 0 0 0 0 0 0 
0 0 0 0 0 0 0 0 0 
0 0 0 0 0 0 0 0 0 
0 0 0 0 0 0 0 0 0 
0 0 0 0 0 0 0 0 0 
0 0 0 0 0 0 0 0 0 
0 0 0 0 0 0 0 0 0 
0 0 0 0 0 0 0 0 0 
0 0 0 0 0 0 0 0 0 
0 0 0 0 0 0 
v 3 179 double
-1.1700848973 0.45784193006 -0.21056536008 -0.79501852681 0.48457721002 0.032342549057 -0.73437412757 0.048248182168 0.10268559408 
-0.74833531134 0.13968932231 0.19181077025 -0.726997883 0.0093770053503 0.18152745035 -0.90010435141 -0.05637735325 -1.0014735658 
-0.027816888505 -0.146822322 -1.6882652425 -0.72111450957 0.16751643526 0.21131881085 -0.72615218482 0.009366097318 0.076977775914 
-0.72403545984 0.0093387952557 0.27759591719 0.14426441153 0.077850621076 -0.8790253209 -0.72795229012 -0.24108042092 -1.0563167685 
-0.75112202757 -0.13566800949 0.06229526184 -0.71938232997 -0.23419674247 0.2627297927 -0.73007221792 -0.0070138229157 -0.42084529148 
-0.70278434049 0.28914901005 0.21352800196 -0.71914082141 0.26401167102 0.15079622726 -0.46622543204 0.28658564139 -0.36465906229 
0.12333799577 -0.14795807854 -0.59459426052 -0.74228825994 -0.016696984948 0.15528297316 -0.55576444893 -0.24210604252 -0.11500524752 
-0.71554283395 -0.46988977011 -0.52803990864 -0.69695482414 0.28675055182 0.077028673485 -0.71666648092 0.26310328876 0.04718699787 
-1.1733083124 -0.10362666163 -0.11259831957 -0.7129792142 0.12739079919 0.20340549279 -0.71584803948 0.12790338348 0.046971307253 
-0.73003979251 0.10579511908 0.25630273642 0 0 -2.05109245 0.0053772640319 -0.75568784498 -0.35612601368 
-0.73198125343 -0.17095954075 -0.011457176494 -0.73200731853 -0.17096562844 0.16594198232 -0.84058540145 0.27611149228 -1.2740564106 
0 0 -2.02784275 0.092033693617 0.20163012343 -1.1553182355 -0.0054288365451 0.20790787945 -1.4262454231 
-0.50336110421 -0.24057639546 -0.006580028746 0 0 -2.00321965 0 0 -1.95044185 
0 0 -1.95701455 0 0 -1.96241005 0 0 -1.94946085 
0 0 -1.96044805 0 0 -1.94347675 0 0 -1.94641975 
0 0 -1.92729025 0 0 -1.91620495 0 0 -1.91326195 
0 0 -1.91610685 0 0 -1.90296145 0 0 -1.90953415 
0 0 -1.87902505 0 0 -1.88442055 0 0 -1.85616775 
0 0 -1.86048415 0 0 -1.86489865 0 0 -1.86744925 
0 0 -1.87147135 0 0 -1.85469625 0 0 -1.82968075 
0 0 -1.82193085 0 0 -1.83144655 0 0 -1.81781065 
0 0 -1.80211465 0 0 -1.80947215 0 0 -1.78632055 
0 0 -1.78857685 0 0 -1.78867495 0 0 -1.77768775 
0 0 -1.76856445 0 0 -1.75649815 0 0 -1.72657765 
0 0 -1.72755865 0 0 -1.72314415 0 0 -1.71902395 
0 0 -1.70882155 0 0 -1.70882155 0 0 -1.70558425 
0 0 -1.70116975 0 0 -1.70882155 0 0 -1.67988205 
0 0 -1.67703715 0 0 -1.66869865 0 0 -1.65388555 
0 0 -1.65202165 0 0 -1.64407555 0 0 -1.65388555 
0 0 -1.65339505 0 0 -1.63563895 0 0 -1.63024345 
0 0 -1.60120585 0 0 -1.60071535 0 0 -1.58325355 
0 0 -1.57471885 0 0 -1.58237065 0 0 -1.57991815 
0 0 -1.55735515 0 0 -1.56039625 0 0 -1.53243775 
0 0 -1.53165295 0 0 -1.50948235 0 0 -1.50202675 
0 0 -1.50173245 0 0 -1.50595075 0 0 -1.48172005 
0 0 -1.48270105 0 0 -1.46072665 0 0 -1.45336915 
0 0 -1.42747075 0 0 -1.44081235 0 0 -1.42854985 
0 0 -1.42796125 0 0 -1.41893605 0 0 -1.42001515 
0 0 -1.41030325 0 0 -1.38155995 0 0 -1.38911365 
0 0 -1.38607255 0 0 -1.37743975 0 0 -1.38430675 
0 0 -1.35262045 0 0 -1.35674065 0 0 -1.36360765 
0 0 -1.36753165 0 0 -1.37037655 0 0 -1.30082365 
0 0 -1.32083605 0 0 -1.30258945 0 0 -1.29670345 
0 0 -1.31602915 0 0 -1.31926645 0 0 -1.28198845 
0 0 -1.27296325 0 0 -1.28012455 0 0 -1.22440375 
0 0 -1.23431185 0 0 -1.21194505 0 0 -1.23038785 
0 0 -1.21400515 0 0 -1.21881205 0 0 -1.21263175 
0 0 -1.22371705 0 0 -1.19095165 0 0 -1.18418275 
0 0 -1.18428085 0 0 -1.17535375 0 0 -1.15710715 
0 0 -1.12649995 0 0 -1.14307885 0 0 -1.13209165 
0 0 -1.14523705 0 0 -1.13130685 0 0 -1.11845575 
0 0 -1.11433555 0 0 -1.09098775 0 0 -1.09069345 
0 0 -1.08500365 0 0 -1.06312735 0 0 -1.06587415 
0 0 -1.07323165 0 0 -1.04841235 0 0 -1.02584935 
0 0 -1.02869425 0 0 -1.02545695 0 0 -1.02398545 
0 0 -1.04713705 0 0 -1 0 0 -1.01407735 
0 0 -1.01603935 0 0 -1 0 0 -1 
0 0 -1 0 0 -1 0 0 -1 
0 0 -1 0 0 -1 0 0 -1 
0 0 -1 0 0 -1 
f 3 179 double
0 0 -0.00034671401923 0 0 -0.00034671401923 0 0 -0.00034671401923 
0 0 -0.00034671401923 0 0 -0.00034671401923 0 0 -0.0016051574964 
0 0 -0.0016051574964 0 0 -0.00034671401923 0 0 -0.0016051574964 
0 0 -0.0016051574964 0 0 -0.0016051574964 0 0 -0.00034671401923 
0 0 -0.00034671401923 0 0 -0.00034671401923 0 0 -0.0016051574964 
0 0 -0.00034671401923 0 0 -0.00034671401923 0 0 -0.0016051574964 
0 0 -0.00034671401923 0 0 -0.00034671401923 0 0 -0.0016051574964 
0 0 -0.00034671401923 0 0 -0.0016051574964 0 0 -0.00034671401923 
0 0 -0.00034671401923 0 0 -0.0016051574964 0 0 -0.00034671401923 
0 0 -0.0016051574964 0 0 -0.00034671401923 0 0 -0.00034671401923 
0 0 -0.00034671401923 0 0 -0.0016051574964 0 0 -0.00034671401923 
0 0 -0.00034671401923 0 0 -0.00034671401923 0 0 -0.00034671401923 
0 0 -0.0016051574964 0 0 -0.0016051574964 0 0 -0.00034671401923 
0 0 -0.00034671401923 0 0 -0.0016051574964 0 0 -0.00034671401923 
0 0 -0.00034671401923 0 0 -0.00034671401923 0 0 -0.00034671401923 
0 0 -0.00034671401923 0 0 -0.0016051574964 0 0 -0.0016051574964 
0 0 -0.00034671401923 0 0 -0.0016051574964 0 0 -0.0016051574964 
0 0 -0.00034671401923 0 0 -0.00034671401923 0 0 -0.0016051574964 
0 0 -0.00034671401923 0 0 -0.00034671401923 0 0 -0.0016051574964 
0 0 -0.00034671401923 0 0 -0.0016051574964 0 0 -0.0016051574964 
0 0 -0.00034671401923 0 0 -0.00034671401923 0 0 -0.00034671401923 
0 0 -0.00034671401923 0 0 -0.00034671401923 0 0 -0.00034671401923 
0 0 -0.0016051574964 0 0 -0.0016051574964 0 0 -0.00034671401923 
0 0 -0.00034671401923 0 0 -0.00034671401923 0 0 -0.00034671401923 
0 0 -0.00034671401923 0 0 -0.00034671401923 0 0 -0.00034671401923 
0 0 -0.0016051574964 0 0 -0.00034671401923 0 0 -0.0016051574964 
0 0 -0.0016051574964 0 0 -0.00034671401923 0 0 -0.00034671401923 
0 0 -0.00034671401923 0 0 -0.0016051574964 0 0 -0.00034671401923 
0 0 -0.0016051574964 0 0 -0.00034671401923 0 0 -0.00034671401923 
0 0 -0.00034671401923 0 0 -0.00034671401923 0 0 -0.0016051574964 
0 0 -0.00034671401923 0 0 -0.00034671401923 0 0 -0.00034671401923 
0 0 -0.00034671401923 0 0 -0.00034671401923 0 0 -0.0016051574964 
0 0 -0.00034671401923 0 0 -0.0016051574964 0 0 -0.00034671401923 
0 0 -0.00034671401923 0 0 -0.0016051574964 0 0 -0.00034671401923 
0 0 -0.00034671401923 0 0 -0.0016051574964 0 0 -0.00034671401923 
0 0 -0.0016051574964 0 0 -0.0016051574964 0 0 -0.00034671401923 
0 0 -0.00034671401923 0 0 -0.00034671401923 0 0 -0.00034671401923 
0 0 -0.0016051574964 0 0 -0.00034671401923 0 0 -0.0016051574964 
0 0 -0.00034671401923 0 0 -0.0016051574964 0 0 -0.00034671401923 
0 0 -0.00034671401923 0 0 -0.0016051574964 0 0 -0.0016051574964 
0 0 -0.00034671401923 0 0 -0.00034671401923 0 0 -0.0016051574964 
0 0 -0.00034671401923 0 0 -0.0016051574964 0 0 -0.00034671401923 
0 0 -0.00034671401923 0 0 -0.00034671401923 0 0 -0.0016051574964 
0 0 -0.00034671401923 0 0 -0.00034671401923 0 0 -0.00034671401923 
0 0 -0.00034671401923 0 0 -0.0016051574964 0 0 -0.0016051574964 
0 0 -0.00034671401923 0 0 -0.0016051574964 0 0 -0.00034671401923 
0 0 -0.00034671401923 0 0 -0.00034671401923 0 0 -0.0016051574964 
0 0 -0.00034671401923 0 0 -0.00034671401923 0 0 -0.00034671401923 
0 0 -0.00034671401923 0 0 -0.0016051574964 0 0 -0.0016051574964 
0 0 -0.00034671401923 0 0 -0.0016051574964 0 0 -0.0016051574964 
0 0 -0.00034671401923 0 0 -0.00034671401923 0 0 -0.00034671401923 
0 0 -0.0016051574964 0 0 -0.00034671401923 0 0 -0.0016051574964 
0 0 -0.00034671401923 0 0 -0.00034671401923 0 0 -0.00034671401923 
0 0 -0.00034671401923 0 0 -0.0016051574964 0 0 -0.0016051574964 
0 0 -0.00034671401923 0 0 -0.00034671401923 0 0 -0.0016051574964 
0 0 -0.0016051574964 0 0 0 0 0 -0.0016051574964 
0 0 -0.00034671401923 0 0 0 0 0 0 
0 0 0 0 0 0 0 0 0 
0 0 0 0 0 0 0 0 0 
0 0 0 0 0 0 
radius 1 179 double
0.0015 0.0015 0.0015 0.0015 0.0015 0.0025 0.0025 0.0015 0.0025 
0.0025 0.0025 0.0015 0.0015 0.0015 0.0025 0.0015 0.0015 0.0025 
0.0015 0.0015 0.0025 0.0015 0.0025 0.0015 0.0015 0.0025 0.0015 
0.0025 0.0015 0.0015 0.0015 0.0025 0.0015 0.0015 0.0015 0.0015 
0.0025 0.0025 0.0015 0.0015 0.0025 0.0015 0.0015 0.0015 0.0015 
0.0015 0.0025 0.0025 0.0015 0.0025 0.0025 0.0015 0.0015 0.0025 
0.0015 0.0015 0.0025 0.0015 0.0025 0.0025 0.0015 0.0015 0.0015 
0.0015 0.0015 0.0015 0.0025 0.0025 0.0015 0.0015 0.0015 0.0015 
0.0015 0.0015 0.0015 0.0025 0.0015 0.0025 0.0025 0.0015 0.0015 
0.0015 0.0025 0.0015 0.0025 0.0015 0.0015 0.0015 0.0015 0.0025 
0.0015 0.0015 0.0015 0.0015 0.0015 0.0025 0.0015 0.0025 0.0015 
0.0015 0.0025 0.0015 0.0015 0.0025 0.0015 0.0025 0.0025 0.0015 
0.0015 0.0015 0.0015 0.0025 0.0015 0.0025 0.0015 0.0025 0.0015 
0.0015 0.0025 0.0025 0.0015 0.0015 0.0025 0.0015 0.0025 0.0015 
0.0015 0.0015 0.0025 0.0015 0.0015 0.0015 0.0015 0.0025 0.0025 
0.0015 0.0025 0.0015 0.0015 0.0015 0.0025 0.0015 0.0015 0.0015 
0.0015 0.0025 0.0025 0.0015 0.0025 0.0025 0.0015 0.0015 0.0015 
0.0025 0.0015 0.0025 0.0015 0.0015 0.0015 0.0015 0.0025 0.0025 
0.0015 0.0015 0.0025 0.0025 0.0015 0.0025 0.0015 0.0025 0.0015 
0.0025 0.0015 0.0015 0.0015 0.0015 0.0025 0.0015 0.0015 
omega 3 179 double
-273.17216518 -747.79938375 -209.93997845 -290.88162689 -478.02561509 -81.376448921 -24.449373837 -372.13811534 4.7501171527e-15 
-71.727473351 -384.25414494 1.4902541031e-14 -4.7986786633 -372.04087009 1.1459708785e-15 -29.790048759 60.975435997 -15.875789803 
62.069377986 44.57032582 20.89741737 -85.075029757 -366.22578713 2.1138113508e-14 -2.88476401 -223.6553409 -1.9133269531e-16 
-2.8546194518 -221.31823762 -4.3621651395e-16 -23.161861039 294.28175194 -15.875789803 -151.26080449 31.078473615 -88.392864499 
68.910007313 -381.51827101 3.9403029229e-15 119.95740606 -368.47326467 8.2853241415e-14 90.90835954 -150.35114984 28.8696814 
-147.37071394 -358.18843021 4.7652212389e-14 -136.47776377 -371.75148646 -5.9980058188e-15 -53.209441266 -219.19956266 17.367152927 
-150.80400164 -536.22728549 -31.259906118 8.6128711383 -382.89746024 2.8534537832e-15 -17.703055782 -284.21009239 -31.747699086 
-318.43648713 -2.3031045673 -130.64547777 -88.749016132 -215.70683836 -3.2855428141e-15 -135.70422402 -369.6444432 8.7748112008e-15 
223.79222031 43.931201703 132.35689657 -39.16014058 -219.17097967 3.2977689665e-15 -65.881516809 -368.72484029 -1.4284031096e-14 
-32.701549324 -225.65721832 1.3509158052e-14 0 0 0 291.92446398 572.56011813 220.35598303 
87.775431565 -375.81974153 6.0377299216e-14 52.851364984 -226.28867752 -1.3468433071e-14 -85.049554835 -168.213629 -31.259906118 
0 0 0 -170.62622425 411.22149293 -74.484921614 -452.37606526 366.29734011 -130.64547777 
80.09158567 -167.22056971 0.906336676 0 0 0 0 0 0 
0 0 0 0 0 0 0 0 0 
0 0 0 0 0 0 0 0 0 
0 0 0 0 0 0 0 0 0 
0 0 0 0 0 0 0 0 0 
0 0 0 0 0 0 0 0 0 
0 0 0 0 0 0 0 0 0 
0 0 0 0 0 0 0 0 0 
0 0 0 0 0 0 0 0 0 
0 0 0 0 0 0 0 0 0 
0 0 0 0 0 0 0 0 0 
0 0 0 0 0 0 0 0 0 
0 0 0 0 0 0 0 0 0 
0 0 0 0 0 0 0 0 0 
0 0 0 0 0 0 0 0 0 
0 0 0 0 0 0 0 0 0 
0 0 0 0 0 0 0 0 0 
0 0 0 0 0 0 0 0 0 
0 0 0 0 0 0 0 0 0 
0 0 0 0 0 0 0 0 0 
0 0 0 0 0 0 0 0 0 
0 0 0 0 0 0 0 0 0 
0 0 0 0 0 0 0 0 0 
0 0 0 0 0 0 0 0 0 
0 0 0 0 0 0 0 0 0 
0 0 0 0 0 0 0 0 0 
0 0 0 0 0 0 0 0 0 
0 0 0 0 0 0 0 0 0 
0 0 0 0 0 0 0 0 0 
0 0 0 0 0 0 0 0 0 
0 0 0 0 0 0 0 0 0 
0 0 0 0 0 0 0 0 0 
0 0 0 0 0 0 0 0 0 
0 0 0 0 0 0 0 0 0 
0 0 0 0 0 0 0 0 0 
0 0 0 0 0 0 0 0 0 
0 0 0 0 0 0 0 0 0 
0 0 0 0 0 0 0 0 0 
0 0 0 0 0 0 0 0 0 
0 0 0 0 0 0 0 0 0 
0 0 0 0 0 0 0 0 0 
0 0 0 0 0 0 0 0 0 
0 0 0 0 0 0 0 0 0 
0 0 0 0 0 0 0 0 0 
0 0 0 0 0 0 0 0 0 
0 0 0 0 0 0 0 0 0 
0 0 0 0 0 0 0 0 0 
0 0 0 0 0 0 
