# vtk DataFile Version 4.1
Generated by LIGGGHTS
ASCII
DATASET POLYDATA
POINTS 25 float
-0.00894204 -0.016163 0.0370389 -0.0299058 -0.00882918 0.0364947 -0.0208226 -0.00599195 0.0357791 
-0.0190478 0.013684 0.0376386 -0.00462371 0.0206347 0.0353991 -0.0160886 0.0216478 0.0374151 
-0.00174714 0.0260627 0.036037 -0.00953586 0.00971988 0.0398575 -0.00217367 0.0240852 0.0399971 
-0.0134792 -0.0343741 0.0441199 -0.00618745 -0.0313193 0.0434574 -0.0106535 -0.0244251 0.0426342 
-0.0124546 0.031784 0.0434318 -0.028663 -0.019004 0.0483888 -0.0101549 -0.0158816 0.0491509 
-0.0214597 -0.00448395 0.0472349 -0.0244429 0.0229939 0.0470552 -0.0202974 -0.0199605 0.0511486 
-0.0219947 -0.0107694 0.0516275 -0.0275046 -0.000700049 0.0496909 -0.0083641 0.00277185 0.0500862 
-0.00857183 -0.027925 0.0534106 -0.00408721 -0.0194644 0.0549382 -0.00454319 0.0203252 0.0539925 
-0.00174502 0.0344165 0.0550543 
VERTICES 25 50
1 0 
1 1 
1 2 
1 3 
1 4 
1 5 
1 6 
1 7 
1 8 
1 9 
1 10 
1 11 
1 12 
1 13 
1 14 
1 15 
1 16 
1 17 
1 18 
1 19 
1 20 
1 21 
1 22 
1 23 
1 24 

POINT_DATA 25
FIELD FieldData 7
id 1 25 int
12 10 2 6 7 4 1 8 9 
3 13 5 11 20 18 19 22 23 
25 16 21 24 15 14 17 
type 1 25 int
1 1 1 1 1 1 1 1 1 
1 1 1 1 1 1 1 1 1 
1 1 1 1 1 1 1 
i 3 25 int
0 0 0 0 0 0 0 0 0 
0 0 0 0 0 0 0 0 0 
0 0 0 0 0 0 0 0 0 
0 0 0 0 0 0 0 0 0 
0 0 0 0 0 0 0 0 0 
0 0 0 0 0 0 0 0 0 
0 0 0 0 0 0 0 0 0 
0 0 0 0 0 0 0 0 0 
0 0 0 
v 3 25 double
0 0 -1.11992725 0 0 -1.12473415 0 0 -1.13091445 
0 0 -1.11472795 0 0 -1.13424985 0 0 -1.11668995 
0 0 -1.12865815 0 0 -1.09500985 0 0 -1.09373455 
0 0 -1.05606415 0 0 -1.06224445 0 0 -1.06979815 
0 0 -1.06244065 0 0 -1.01564695 0 0 -1.00828945 
0 0 -1.02673225 0 0 -1.02849805 0 0 -1 
0 0 -1 0 0 -1.00299205 0 0 -1 
0 0 -1 0 0 -1 0 0 -1 
0 0 -1 
f 3 25 double
0 0 -0.00034671401923 0 0 -0.00034671401923 0 0 -0.0016051574964 
0 0 -0.00034671401923 0 0 -0.00034671401923 0 0 -0.0016051574964 
0 0 -0.0016051574964 0 0 -0.00034671401923 0 0 -0.00034671401923 
0 0 -0.0016051574964 0 0 -0.00034671401923 0 0 -0.0016051574964 
0 0 -0.00034671401923 0 0 -0.00034671401923 0 0 -0.00034671401923 
0 0 -0.00034671401923 0 0 -0.00034671401923 0 0 0 
0 0 0 0 0 -0.0016051574964 0 0 0 
0 0 0 0 0 0 0 0 0 
0 0 0 
radius 1 25 double
0.0015 0.0015 0.0025 0.0015 0.0015 0.0025 0.0025 0.0015 0.0015 
0.0025 0.0015 0.0025 0.0015 0.0015 0.0015 0.0015 0.0015 0.0015 
0.0015 0.0025 0.0015 0.0015 0.0025 0.0025 0.0025 
omega 3 25 double
0 0 0 0 0 0 0 0 0 
0 0 0 0 0 0 0 0 0 
0 0 0 0 0 0 0 0 0 
0 0 0 0 0 0 0 0 0 
0 0 0 0 0 0 0 0 0 
0 0 0 0 0 0 0 0 0 
0 0 0 0 0 0 0 0 0 
0 0 0 0 0 0 0 0 0 
0 0 0 
