# vtk DataFile Version 4.1
Generated by LIGGGHTS
ASCII
DATASET POLYDATA
POINTS 166 float
-0.0409397 -0.00810425 -0.115069 -0.0311552 -0.0185285 -0.116384 -0.0338233 -0.00582427 -0.109895 
-0.0263471 -0.00442091 -0.113283 -0.0198611 0.00908184 -0.110556 -0.0313783 0.0114569 -0.110316 
-0.0345908 0.0281123 -0.117582 -0.0227639 -0.030554 -0.105006 -0.0210911 -0.020593 -0.105445 
-0.0226302 -0.0137173 -0.105375 -0.0155223 -0.0149226 -0.107794 -0.0301255 -0.000625592 -0.115839 
-0.0132729 0.00266143 -0.107961 -0.0274658 0.0181029 -0.109032 -0.0181394 0.025638 -0.10917 
-0.0221642 0.0282558 -0.106174 -0.0167696 -0.0274344 -0.103472 -0.0228632 -0.0193645 -0.112643 
-0.0237494 -0.0104418 -0.114558 -0.00211138 0.00834105 -0.10448 -0.020506 0.0169253 -0.103585 
-0.0116203 -0.0268058 -0.106679 -0.00781539 0.0195609 -0.104853 -0.00659175 -0.0190169 -0.105 
-0.00430874 0.0331913 -0.102254 -0.0159102 -0.0341757 -0.109329 -0.0327631 -0.0200888 -0.10575 
-0.0159539 -0.00381092 -0.1066 -0.0300659 -0.00019371 -0.106315 -0.0235267 0.0224168 -0.105909 
-0.0230293 -0.0210348 -0.102113 -0.0229734 0.000876534 -0.101329 -0.020721 -0.0135944 -0.0970235 
-0.0127396 -0.0137041 -0.0966341 -0.000459601 -0.00791581 -0.0983641 -0.0221714 0.00979368 -0.0980751 
-0.0240929 0.0291618 -0.0956052 -0.0160817 -0.000243398 -0.0917148 -0.024531 -1.04943e-05 -0.0826725 
-0.0306884 0.0042356 -0.0837154 -0.027916 0.0296421 -0.0833377 -0.0175025 -0.0228838 -0.0814053 
-0.022804 -0.0140579 -0.0800608 -0.0251247 -0.00571197 -0.0806307 -0.018642 0.00531382 -0.0812145 
-0.0105626 -0.00654333 -0.0769686 -0.027846 0.00485213 -0.0748575 -0.0178022 0.0256262 -0.0748362 
-0.0294843 -0.0242442 -0.0723594 -0.00180681 0.0181929 -0.0743024 -0.021213 0.0304724 -0.0735932 
-0.0337701 0.0102173 -0.0678926 -0.0315539 0.028352 -0.0688892 -0.0262531 0.00245318 -0.0644668 
-0.0274253 0.00637934 -0.0652819 -0.0284955 0.0109203 -0.0657508 -0.0264294 0.0258143 -0.0664902 
-0.0221544 -0.0267021 -0.0636761 -0.0188291 -0.0129094 -0.063409 -0.0046838 -0.0346092 -0.058856 
-0.0205837 -0.0294247 -0.0574649 -0.00322644 -0.0143029 -0.0591726 -0.00206763 0.0123655 -0.0567219 
-0.0181818 0.00594264 -0.0539181 -0.0315184 0.0323336 -0.0552268 -0.00317446 -0.00327501 -0.051127 
-0.0113639 0.00609324 -0.0515239 -0.0237558 0.020832 -0.0515414 -0.0233787 0.0259916 -0.0496126 
-0.0101315 -0.0171842 -0.0459254 -0.00618278 0.0247152 -0.0480146 -0.00512449 -0.0296766 -0.0407849 
-0.0132118 -0.0121788 -0.0409603 -0.0226093 -0.00790771 -0.0402052 -0.0176419 0.0252752 -0.0395082 
-0.00331379 -0.00673963 -0.0377872 -0.0203284 0.0149576 -0.037785 -0.0332492 0.0212435 -0.0372378 
-0.025261 0.030812 -0.0364996 -0.0088354 0.0340944 -0.0377912 -0.006758 -0.00417797 -0.0311191 
-0.0255344 0.010562 -0.0329649 -0.0156099 0.0123479 -0.032489 -0.0166674 -0.0199684 -0.0286972 
-0.016039 -0.000886859 -0.0283936 -0.0199892 0.00645928 -0.0271093 -0.0136151 0.0110949 -0.0287023 
-0.0302008 0.015853 -0.0286175 -0.0138041 -0.0299263 -0.0248861 -0.0118987 0.0289343 -0.0257538 
-0.0135716 -0.00811727 -0.0202763 -0.00739645 0.00376164 -0.0201973 -0.0267621 -0.0219194 -0.017468 
-0.020149 -0.00685329 -0.0161451 -0.0141771 0.0177987 -0.0173374 -0.00471042 0.0296342 -0.016957 
-0.00791609 -0.0196794 -0.0134812 -0.0179545 0.0159092 -0.0139491 -0.00439906 -0.0328903 -0.00970291 
-0.0296076 0.00722911 -0.00958476 -0.016986 -0.0318376 -0.00628056 -0.0281298 -0.0148599 -0.00518584 
-0.0161861 -0.00599108 -0.00514305 -0.0227935 0.0274334 -0.00576174 -0.0292679 0.0147935 -0.0022202 
-0.00205293 0.0165512 -0.00235956 -0.0305301 0.00502779 0.000804635 -0.00405648 0.032442 0.00185091 
-0.0135333 -0.0276689 0.00549597 -0.0112712 -0.0202504 0.00362714 -2.29018e-06 -0.0149558 0.00535348 
-0.00301846 0.00510814 0.00543338 -0.0331337 -0.0163611 0.00668625 -0.0273798 -0.00441029 0.00653488 
-0.00794441 0.0258079 0.00787907 -0.0143544 -0.0272787 0.0117968 -0.0191843 -0.0221491 0.0107768 
-0.0125841 -0.0140137 0.0111841 -0.0125785 -0.0040947 0.0123569 -0.0148309 0.00369911 0.0136821 
-0.00193271 0.00892872 0.0133012 -0.0336091 0.0316877 0.0114269 -0.00679321 -0.00970412 0.0156581 
-0.0316214 0.000145103 0.0151171 -0.0217323 0.00352617 0.0142052 -0.0227292 -0.0342527 0.0197934 
-0.00618246 0.0122116 0.0204094 -0.026321 0.0295451 0.0200006 -0.0331578 -0.0347183 0.0223463 
-0.0076982 -0.0269483 0.0221298 -0.0188235 -0.00412326 0.0247214 -0.0142543 -0.00491395 0.0228679 
-0.0238018 0.0141125 0.0249497 -0.030786 0.0122027 0.0258406 -0.00584464 -0.0345985 0.0317278 
-0.0115686 -0.0259344 0.0305465 -0.00401145 -0.0205873 0.0310138 -0.0301844 0.00679958 0.0323898 
-0.004829 0.0333632 0.0318058 -0.010147 -0.0216422 0.0332031 -0.0322463 -0.00737998 0.0329563 
-0.00623706 -0.00658451 0.0356422 -0.0210131 0.0295222 0.0331199 -0.0237179 -0.0330481 0.0374337 
-0.0251936 -0.0129184 0.0394977 -0.00679915 -0.000720285 0.0364246 -0.0230582 0.0203811 0.0364131 
-0.0214963 -0.0163735 0.0428707 -0.0152079 -0.0146465 0.0410565 -0.00240788 -0.00904262 0.0422604 
-0.00372425 0.000239952 0.0408153 -0.0043072 0.0165241 0.0423508 -0.0326006 -0.0307471 0.0437463 
-0.0234861 -0.027537 0.0472953 -0.0322856 0.00186917 0.0441906 -0.00943139 0.0192376 0.0466715 
-0.0103743 0.0339743 0.0467021 -0.0180071 -0.0232682 0.0495636 -0.000114354 -0.0212937 0.0492852 
-0.0280789 0.0137467 0.0485256 -0.0345391 -0.0114622 0.0510632 -0.00596878 -0.0130405 0.053366 
-0.0303036 -0.0103215 0.0530724 -0.0287704 0.0101406 0.0534017 -0.010941 0.0209557 0.0535532 
-0.0148889 0.0293808 0.0511999 
VERTICES 166 332
1 0 
1 1 
1 2 
1 3 
1 4 
1 5 
1 6 
1 7 
1 8 
1 9 
1 10 
1 11 
1 12 
1 13 
1 14 
1 15 
1 16 
1 17 
1 18 
1 19 
1 20 
1 21 
1 22 
1 23 
1 24 
1 25 
1 26 
1 27 
1 28 
1 29 
1 30 
1 31 
1 32 
1 33 
1 34 
1 35 
1 36 
1 37 
1 38 
1 39 
1 40 
1 41 
1 42 
1 43 
1 44 
1 45 
1 46 
1 47 
1 48 
1 49 
1 50 
1 51 
1 52 
1 53 
1 54 
1 55 
1 56 
1 57 
1 58 
1 59 
1 60 
1 61 
1 62 
1 63 
1 64 
1 65 
1 66 
1 67 
1 68 
1 69 
1 70 
1 71 
1 72 
1 73 
1 74 
1 75 
1 76 
1 77 
1 78 
1 79 
1 80 
1 81 
1 82 
1 83 
1 84 
1 85 
1 86 
1 87 
1 88 
1 89 
1 90 
1 91 
1 92 
1 93 
1 94 
1 95 
1 96 
1 97 
1 98 
1 99 
1 100 
1 101 
1 102 
1 103 
1 104 
1 105 
1 106 
1 107 
1 108 
1 109 
1 110 
1 111 
1 112 
1 113 
1 114 
1 115 
1 116 
1 117 
1 118 
1 119 
1 120 
1 121 
1 122 
1 123 
1 124 
1 125 
1 126 
1 127 
1 128 
1 129 
1 130 
1 131 
1 132 
1 133 
1 134 
1 135 
1 136 
1 137 
1 138 
1 139 
1 140 
1 141 
1 142 
1 143 
1 144 
1 145 
1 146 
1 147 
1 148 
1 149 
1 150 
1 151 
1 152 
1 153 
1 154 
1 155 
1 156 
1 157 
1 158 
1 159 
1 160 
1 161 
1 162 
1 163 
1 164 
1 165 

POINT_DATA 166
FIELD FieldData 7
id 1 166 int
10 20 2 19 8 6 22 3 5 
12 18 16 21 4 1 11 13 23 
25 9 7 24 14 15 17 38 30 
29 28 33 35 31 32 36 26 37 
34 27 49 42 44 50 47 51 48 
45 43 46 40 39 41 60 56 59 
64 55 61 54 53 52 62 63 58 
73 57 72 65 67 69 75 71 76 
70 77 74 68 86 66 80 84 81 
85 82 87 78 89 90 88 79 83 
98 99 100 95 96 92 101 91 97 
102 93 110 113 94 114 104 106 107 
109 111 108 103 112 105 127 115 120 
121 118 124 116 117 123 126 119 125 
139 122 135 140 136 128 131 133 132 
134 137 147 138 129 153 146 130 145 
143 149 151 150 144 142 152 148 160 
164 141 161 158 166 165 163 155 157 
162 159 156 154 
type 1 166 int
1 1 1 1 1 1 1 1 1 
1 1 1 1 1 1 1 1 1 
1 1 1 1 1 1 1 1 1 
1 1 1 1 1 1 1 1 1 
1 1 1 1 1 1 1 1 1 
1 1 1 1 1 1 1 1 1 
1 1 1 1 1 1 1 1 1 
1 1 1 1 1 1 1 1 1 
1 1 1 1 1 1 1 1 1 
1 1 1 1 1 1 1 1 1 
1 1 1 1 1 1 1 1 1 
1 1 1 1 1 1 1 1 1 
1 1 1 1 1 1 1 1 1 
1 1 1 1 1 1 1 1 1 
1 1 1 1 1 1 1 1 1 
1 1 1 1 1 1 1 1 1 
1 1 1 1 1 1 1 1 1 
1 1 1 1 1 1 1 1 1 
1 1 1 1 
i 3 166 int
0 0 0 0 0 0 0 0 0 
0 0 0 0 0 0 0 0 0 
0 0 0 0 0 0 0 0 0 
0 0 0 0 0 0 0 0 0 
0 0 0 0 0 0 0 0 0 
0 0 0 0 0 0 0 0 0 
0 0 0 0 0 0 0 0 0 
0 0 0 0 0 0 0 0 0 
0 0 0 0 0 0 0 0 0 
0 0 0 0 0 0 0 0 0 
0 0 0 0 0 0 0 0 0 
0 0 0 0 0 0 0 0 0 
0 0 0 0 0 0 0 0 0 
0 0 0 0 0 0 0 0 0 
0 0 0 0 0 0 0 0 0 
0 0 0 0 0 0 0 0 0 
0 0 0 0 0 0 0 0 0 
0 0 0 0 0 0 0 0 0 
0 0 0 0 0 0 0 0 0 
0 0 0 0 0 0 0 0 0 
0 0 0 0 0 0 0 0 0 
0 0 0 0 0 0 0 0 0 
0 0 0 0 0 0 0 0 0 
0 0 0 0 0 0 0 0 0 
0 0 0 0 0 0 0 0 0 
0 0 0 0 0 0 0 0 0 
0 0 0 0 0 0 0 0 0 
0 0 0 0 0 0 0 0 0 
0 0 0 0 0 0 0 0 0 
0 0 0 0 0 0 0 0 0 
0 0 0 0 0 0 0 0 0 
0 0 0 0 0 0 0 0 0 
0 0 0 0 0 0 0 0 0 
0 0 0 0 0 0 0 0 0 
0 0 0 0 0 0 0 0 0 
0 0 0 0 0 0 0 0 0 
0 0 0 0 0 0 0 0 0 
0 0 0 0 0 0 0 0 0 
0 0 0 0 0 0 0 0 0 
0 0 0 0 0 0 0 0 0 
0 0 0 0 0 0 0 0 0 
0 0 0 0 0 0 0 0 0 
0 0 0 0 0 0 0 0 0 
0 0 0 0 0 0 0 0 0 
0 0 0 0 0 0 0 0 0 
0 0 0 0 0 0 0 0 0 
0 0 0 0 0 0 0 0 0 
0 0 0 0 0 0 0 0 0 
0 0 0 0 0 0 0 0 0 
0 0 0 0 0 0 0 0 0 
0 0 0 0 0 0 0 0 0 
0 0 0 0 0 0 0 0 0 
0 0 0 0 0 0 0 0 0 
0 0 0 0 0 0 0 0 0 
0 0 0 0 0 0 0 0 0 
0 0 0 
v 3 166 double
-0.73437412757 0.048248182168 0.16154559408 -0.53817191313 0.10279990275 0.13803208948 -0.72615218482 0.009366097318 0.13583777591 
-0.726997883 0.0093770053503 0.24038745035 -0.63591859651 -0.039450297487 -0.11777095405 -0.75112202757 -0.13566800949 0.12115526184 
-1.1700848973 0.45784193006 -0.15170536008 -0.69695482414 0.28675055182 0.13588867349 -0.65097567254 0.24983288302 0.0039050686792 
-0.71584803948 0.12790338348 0.10583130725 -0.71724740569 0.12815341374 0.2200140789 -0.75583993988 0.021473267826 0.25388046335 
-0.74228825994 -0.016696984948 0.21414297316 -0.55576444893 -0.24210604252 -0.056145247521 -0.73007221792 -0.0070138229157 -0.36198529148 
-0.72097167049 -0.26198189066 0.12731621826 -0.71666648092 0.26310328876 0.10604699787 -0.72111450957 0.16751643526 0.27017881085 
-0.74833531134 0.13968932231 0.25067077025 0.0053772640319 -0.75568784498 -0.29726601368 -0.73198125343 -0.17095954075 0.047402823506 
-0.71914082141 0.26401167102 0.20965622726 -0.73200731853 -0.17096562844 0.22480198232 -0.7129792142 0.12739079919 0.26226549279 
-0.50336110421 -0.24057639546 0.052279971254 0 0 -2.03127625 0 0 -2.01391255 
0 0 -2.01803275 0 0 -2.01665935 0 0 -2.01469735 
-0.31798312494 0.066524997454 -1.4875537407 0 0 -1.99223245 0 0 -1.97094475 
0 0 -1.96898275 0 0 -1.97761555 0 0 -1.97614405 
0 0 -1.96388155 0 0 -1.94435965 0 0 -1.89815455 
0 0 -1.90355005 0 0 -1.90158805 0 0 -1.89158185 
0 0 -1.88461675 0 0 -1.88755975 0 0 -1.89060085 
0 0 -1.86843025 0 0 -1.85734495 0 0 -1.85724685 
0 0 -1.84410145 0 0 -1.85440195 0 0 -1.85067415 
0 0 -1.82016505 0 0 -1.82556055 0 0 -1.80162415 
0 0 -1.80603865 0 0 -1.80858925 0 0 -1.81261135 
0 0 -1.79730775 0 0 -1.79583625 0 0 -1.77082075 
0 0 -1.76307085 0 0 -1.77258655 0 0 -1.75895065 
0 0 -1.74325465 0 0 -1.75061215 0 0 -1.72746055 
0 0 -1.72971685 0 0 -1.72981495 0 0 -1.71882775 
0 0 -1.69763815 0 0 -1.70970445 0 0 -1.66771765 
0 0 -1.66869865 0 0 -1.66428415 0 0 -1.66016395 
0 0 -1.64996155 0 0 -1.64996155 0 0 -1.64672425 
0 0 -1.64230975 0 0 -1.64996155 0 0 -1.60983865 
0 0 -1.62102205 0 0 -1.61817715 0 0 -1.59502555 
0 0 -1.59316165 0 0 -1.58521555 0 0 -1.59502555 
0 0 -1.59453505 0 0 -1.57138345 0 0 -1.57677895 
0 0 -1.54234585 0 0 -1.54185535 0 0 -1.52439355 
0 0 -1.51585885 0 0 -1.52351065 0 0 -1.52105815 
0 0 -1.49849515 0 0 -1.50153625 0 0 -1.47357775 
0 0 -1.47279295 0 0 -1.45062235 0 0 -1.44316675 
0 0 -1.44287245 0 0 -1.44709075 0 0 -1.42286005 
0 0 -1.42384105 0 0 -1.40186665 0 0 -1.39450915 
0 0 -1.36861075 0 0 -1.38195235 0 0 -1.36968985 
0 0 -1.36910125 0 0 -1.36007605 0 0 -1.36115515 
0 0 -1.35144325 0 0 -1.32269995 0 0 -1.33025365 
0 0 -1.32721255 0 0 -1.31857975 0 0 -1.30867165 
0 0 -1.31151655 0 0 -1.32544675 0 0 -1.29376045 
0 0 -1.29788065 0 0 -1.30474765 0 0 -1.26197605 
0 0 -1.25716915 0 0 -1.26040645 0 0 -1.24196365 
0 0 -1.24372945 0 0 -1.22312845 0 0 -1.23784345 
0 0 -1.22126455 0 0 -1.21410325 0 0 -1.16554375 
0 0 -1.17545185 0 0 -1.17152785 0 0 -1.15995205 
0 0 -1.16485705 0 0 -1.15308505 0 0 -1.15514515 
0 0 -1.13209165 0 0 -1.15377175 0 0 -1.11649375 
0 0 -1.09824715 0 0 -1.12532275 0 0 -1.12542085 
0 0 -1.06763995 0 0 -1.08421885 0 0 -1.07323165 
0 0 -1.08637705 0 0 -1.07244685 0 0 -1.05959575 
0 0 -1.02614365 0 0 -1.05547555 0 0 -1.03212775 
0 0 -1.03183345 0 0 -1.00426735 0 0 -1.00701415 
0 0 -1.01437165 0 0 -1 0 0 -1 
0 0 -1 0 0 -1 0 0 -1 
0 0 -1 
f 3 166 double
0 0 -0.00034671401923 0 0 -0.00034671401923 0 0 -0.0016051574964 
0 0 -0.00034671401923 0 0 -0.00034671401923 0 0 -0.00034671401923 
0 0 -0.00034671401923 0 0 -0.0016051574964 0.21665890832 -0.023491478586 -0.35528474393 
0 0 -0.00034671401923 0 0 -0.00034671401923 0 0 -0.0016051574964 
0 0 -0.00034671401923 0 0 -0.0016051574964 0 0 -0.0016051574964 
0 0 -0.00034671401923 0 0 -0.00034671401923 0 0 -0.00034671401923 
0 0 -0.00034671401923 0 0 -0.00034671401923 0 0 -0.00034671401923 
0 0 -0.00034671401923 0 0 -0.0016051574964 0 0 -0.0016051574964 
0 0 -0.0016051574964 0 0 -0.00034671401923 0 0 -0.0016051574964 
0 0 -0.0016051574964 0 0 -0.0016051574964 0 0 -0.00034671401923 
-0.21665890832 0.023491478586 0.35333287242 0 0 -0.00034671401923 0 0 -0.00034671401923 
0 0 -0.00034671401923 0 0 -0.0016051574964 0 0 -0.00034671401923 
0 0 -0.00034671401923 0 0 -0.0016051574964 0 0 -0.00034671401923 
0 0 -0.0016051574964 0 0 -0.00034671401923 0 0 -0.00034671401923 
0 0 -0.00034671401923 0 0 -0.00034671401923 0 0 -0.00034671401923 
0 0 -0.00034671401923 0 0 -0.0016051574964 0 0 -0.00034671401923 
0 0 -0.0016051574964 0 0 -0.0016051574964 0 0 -0.0016051574964 
0 0 -0.00034671401923 0 0 -0.00034671401923 0 0 -0.00034671401923 
0 0 -0.00034671401923 0 0 -0.0016051574964 0 0 -0.00034671401923 
0 0 -0.0016051574964 0 0 -0.0016051574964 0 0 -0.0016051574964 
0 0 -0.00034671401923 0 0 -0.00034671401923 0 0 -0.00034671401923 
0 0 -0.00034671401923 0 0 -0.00034671401923 0 0 -0.00034671401923 
0 0 -0.0016051574964 0 0 -0.0016051574964 0 0 -0.00034671401923 
0 0 -0.00034671401923 0 0 -0.00034671401923 0 0 -0.00034671401923 
0 0 -0.00034671401923 0 0 -0.00034671401923 0 0 -0.00034671401923 
0 0 -0.0016051574964 0 0 -0.00034671401923 0 0 -0.0016051574964 
0 0 -0.0016051574964 0 0 -0.00034671401923 0 0 -0.0016051574964 
0 0 -0.00034671401923 0 0 -0.00034671401923 0 0 -0.00034671401923 
0 0 -0.0016051574964 0 0 -0.00034671401923 0 0 -0.00034671401923 
0 0 -0.00034671401923 0 0 -0.0016051574964 0 0 -0.00034671401923 
0 0 -0.00034671401923 0 0 -0.00034671401923 0 0 -0.00034671401923 
0 0 -0.00034671401923 0 0 -0.00034671401923 0 0 -0.0016051574964 
0 0 -0.00034671401923 0 0 -0.0016051574964 0 0 -0.00034671401923 
0 0 -0.00034671401923 0 0 -0.0016051574964 0 0 -0.00034671401923 
0 0 -0.00034671401923 0 0 -0.0016051574964 0 0 -0.00034671401923 
0 0 -0.0016051574964 0 0 -0.0016051574964 0 0 -0.00034671401923 
0 0 -0.00034671401923 0 0 -0.00034671401923 0 0 -0.00034671401923 
0 0 -0.0016051574964 0 0 -0.00034671401923 0 0 -0.0016051574964 
0 0 -0.00034671401923 0 0 -0.0016051574964 0 0 -0.00034671401923 
0 0 -0.00034671401923 0 0 -0.0016051574964 0 0 -0.00034671401923 
0 0 -0.0016051574964 0 0 -0.0016051574964 0 0 -0.00034671401923 
0 0 -0.00034671401923 0 0 -0.0016051574964 0 0 -0.00034671401923 
0 0 -0.00034671401923 0 0 -0.00034671401923 0 0 -0.00034671401923 
0 0 -0.00034671401923 0 0 -0.00034671401923 0 0 -0.0016051574964 
0 0 -0.0016051574964 0 0 -0.00034671401923 0 0 -0.0016051574964 
0 0 -0.00034671401923 0 0 -0.00034671401923 0 0 -0.00034671401923 
0 0 -0.00034671401923 0 0 -0.0016051574964 0 0 -0.00034671401923 
0 0 -0.00034671401923 0 0 -0.0016051574964 0 0 -0.0016051574964 
0 0 -0.0016051574964 0 0 -0.00034671401923 0 0 -0.00034671401923 
0 0 -0.00034671401923 0 0 -0.0016051574964 0 0 -0.0016051574964 
0 0 -0.00034671401923 0 0 -0.00034671401923 0 0 -0.00034671401923 
0 0 -0.00034671401923 0 0 -0.0016051574964 0 0 -0.00034671401923 
0 0 -0.0016051574964 0 0 -0.00034671401923 0 0 -0.00034671401923 
0 0 -0.00034671401923 0 0 0 0 0 0 
0 0 0 0 0 0 0 0 0 
0 0 0 
radius 1 166 double
0.0015 0.0015 0.0025 0.0015 0.0015 0.0015 0.0015 0.0025 0.0025 
0.0015 0.0015 0.0025 0.0015 0.0025 0.0025 0.0015 0.0015 0.0015 
0.0015 0.0015 0.0015 0.0015 0.0025 0.0025 0.0025 0.0015 0.0025 
0.0025 0.0025 0.0015 0.0015 0.0015 0.0015 0.0015 0.0025 0.0015 
0.0015 0.0025 0.0015 0.0025 0.0015 0.0015 0.0015 0.0015 0.0015 
0.0015 0.0025 0.0015 0.0025 0.0025 0.0025 0.0015 0.0015 0.0015 
0.0015 0.0025 0.0015 0.0025 0.0025 0.0025 0.0015 0.0015 0.0015 
0.0015 0.0015 0.0015 0.0025 0.0025 0.0015 0.0015 0.0015 0.0015 
0.0015 0.0015 0.0015 0.0025 0.0015 0.0025 0.0025 0.0015 0.0025 
0.0015 0.0015 0.0015 0.0025 0.0015 0.0015 0.0015 0.0025 0.0015 
0.0015 0.0015 0.0015 0.0015 0.0015 0.0025 0.0015 0.0025 0.0015 
0.0015 0.0025 0.0015 0.0015 0.0025 0.0015 0.0025 0.0025 0.0015 
0.0015 0.0015 0.0015 0.0025 0.0015 0.0025 0.0015 0.0025 0.0015 
0.0015 0.0025 0.0015 0.0025 0.0025 0.0015 0.0015 0.0025 0.0015 
0.0015 0.0015 0.0015 0.0015 0.0015 0.0025 0.0025 0.0015 0.0025 
0.0015 0.0015 0.0015 0.0015 0.0025 0.0015 0.0015 0.0025 0.0025 
0.0025 0.0015 0.0015 0.0015 0.0025 0.0025 0.0015 0.0015 0.0015 
0.0015 0.0025 0.0015 0.0025 0.0015 0.0015 0.0015 0.0025 0.0025 
0.0015 0.0015 0.0025 0.0025 
omega 3 166 double
-24.449373837 -372.13811534 4.7501171527e-15 -52.644118941 -279.10449441 10.19644167 -2.88476401 -223.6553409 -1.9133269531e-16 
-4.7986786633 -372.04087009 1.1459708785e-15 19.36541976 -380.14301931 -13.907942885 68.910007313 -381.51827101 3.9403029229e-15 
-273.17216518 -747.79938375 -209.93997845 -88.749016132 -215.70683836 -3.2855428141e-15 -58.343326069 -220.46195473 14.555652211 
-65.881516809 -368.72484029 -1.4284031096e-14 -65.754446804 -368.01365649 1.6881416973e-14 -6.6281877198 -233.30631594 3.0365059305e-15 
8.6128711383 -382.89746024 2.8534537832e-15 -17.703055782 -284.21009239 -31.747699086 90.90835954 -150.35114984 28.8696814 
133.93957814 -368.60044468 6.0095095217e-15 -135.70422402 -369.6444432 8.7748112008e-15 -85.075029757 -366.22578713 2.1138113508e-14 
-71.727473351 -384.25414494 1.4902541031e-14 291.92446398 572.56011813 220.35598303 87.775431565 -375.81974153 6.0377299216e-14 
-136.47776377 -371.75148646 -5.9980058188e-15 52.851364984 -226.28867752 -1.3468433071e-14 -39.16014058 -219.17097967 3.2977689665e-15 
80.09158567 -167.22056971 0.906336676 0 0 0 0 0 0 
0 0 0 0 0 0 0 0 0 
185.31533688 34.252327969 111.29195253 0 0 0 0 0 0 
0 0 0 0 0 0 0 0 0 
0 0 0 0 0 0 0 0 0 
0 0 0 0 0 0 0 0 0 
0 0 0 0 0 0 0 0 0 
0 0 0 0 0 0 0 0 0 
0 0 0 0 0 0 0 0 0 
0 0 0 0 0 0 0 0 0 
0 0 0 0 0 0 0 0 0 
0 0 0 0 0 0 0 0 0 
0 0 0 0 0 0 0 0 0 
0 0 0 0 0 0 0 0 0 
0 0 0 0 0 0 0 0 0 
0 0 0 0 0 0 0 0 0 
0 0 0 0 0 0 0 0 0 
0 0 0 0 0 0 0 0 0 
0 0 0 0 0 0 0 0 0 
0 0 0 0 0 0 0 0 0 
0 0 0 0 0 0 0 0 0 
0 0 0 0 0 0 0 0 0 
0 0 0 0 0 0 0 0 0 
0 0 0 0 0 0 0 0 0 
0 0 0 0 0 0 0 0 0 
0 0 0 0 0 0 0 0 0 
0 0 0 0 0 0 0 0 0 
0 0 0 0 0 0 0 0 0 
0 0 0 0 0 0 0 0 0 
0 0 0 0 0 0 0 0 0 
0 0 0 0 0 0 0 0 0 
0 0 0 0 0 0 0 0 0 
0 0 0 0 0 0 0 0 0 
0 0 0 0 0 0 0 0 0 
0 0 0 0 0 0 0 0 0 
0 0 0 0 0 0 0 0 0 
0 0 0 0 0 0 0 0 0 
0 0 0 0 0 0 0 0 0 
0 0 0 0 0 0 0 0 0 
0 0 0 0 0 0 0 0 0 
0 0 0 0 0 0 0 0 0 
0 0 0 0 0 0 0 0 0 
0 0 0 0 0 0 0 0 0 
0 0 0 0 0 0 0 0 0 
0 0 0 0 0 0 0 0 0 
0 0 0 0 0 0 0 0 0 
0 0 0 0 0 0 0 0 0 
0 0 0 
