# vtk DataFile Version 4.1
Generated by LIGGGHTS
ASCII
DATASET POLYDATA
POINTS 77 float
-0.0208226 -0.00599195 -0.0203717 -0.00462371 0.0206347 -0.0208918 -0.00174714 0.0260627 -0.0200191 
-0.00894204 -0.016163 -0.0186504 -0.0299058 -0.00882918 -0.0193965 -0.0190478 0.013684 -0.0178324 
-0.0160886 0.0216478 -0.0181383 -0.00953586 0.00971988 -0.0147853 -0.00217367 0.0240852 -0.0145921 
-0.0134792 -0.0343741 -0.00888725 -0.00618745 -0.0313193 -0.00980928 -0.0106535 -0.0244251 -0.0109497 
-0.0124546 0.031784 -0.00984308 -0.028663 -0.019004 -0.00292074 -0.0101549 -0.0158816 -0.00184966 
-0.0214597 -0.00448395 -0.00454031 -0.0244429 0.0229939 -0.00479415 -0.0202974 -0.0199605 0.000961509 
-0.0219947 -0.0107694 0.00163168 -0.0275046 -0.000700049 -0.00108722 -0.0083641 0.00277185 -0.00053127 
-0.00857183 -0.027925 0.00410807 -0.00408721 -0.0194644 0.00619967 -0.00454319 0.0203252 0.00490782 
-0.0159102 -0.0341757 0.00882622 -0.00174502 0.0344165 0.00635928 -0.0327631 -0.0200888 0.0111898 
-0.0230202 -0.021037 0.0135692 -0.0159539 -0.00381092 0.0106277 -0.0300659 -0.00019371 0.0108162 
-0.0235267 0.0224168 0.0110854 -0.020721 -0.0135944 0.0169081 -0.0127396 -0.0137041 0.0171601 
-0.000459601 -0.00791581 0.0160344 -0.0229734 0.000876534 0.0140926 -0.0221714 0.00979368 0.0162205 
-0.0160817 -0.000243398 0.0203559 -0.0240929 0.0291618 0.0178321 -0.0175025 -0.0228838 0.0269709 
-0.022804 -0.0140579 0.0278279 -0.0251247 -0.00571197 0.0274639 -0.024531 -1.04943e-05 0.0261638 
-0.0306884 0.0042356 0.0254986 -0.018642 0.00531382 0.027093 -0.027916 0.0296421 0.0257389 
-0.0105626 -0.00654333 0.029787 -0.027846 0.00485213 0.0311221 -0.00180681 0.0181929 0.0314713 
-0.0178022 0.0256262 0.0311366 -0.021213 0.0304724 0.0319195 -0.0294843 -0.0242442 0.0326932 
-0.0337701 0.0102173 0.0354845 -0.0315539 0.028352 0.0348655 -0.0221544 -0.0267021 0.0381009 
-0.0188291 -0.0129094 0.0382651 -0.0262531 0.00245318 0.0376124 -0.0274253 0.00637934 0.0371063 
-0.0284955 0.0109203 0.0368159 -0.0264294 0.0258143 0.0363581 -0.0046838 -0.0346092 0.0410669 
-0.0205837 -0.0294247 0.0419155 -0.00322644 -0.0143029 0.0408739 -0.00206763 0.0123655 0.0423702 
-0.0315184 0.0323336 0.0432815 -0.00317446 -0.00327501 0.0457607 -0.0181818 0.00594264 0.0440752 
-0.0113639 0.00609324 0.0455217 -0.0237558 0.020832 0.0455112 -0.0233787 0.0259916 0.0466708 
-0.0101315 -0.0171842 0.0488748 -0.00618278 0.0247152 0.0476302 -0.00512449 -0.0296766 0.0519392 
-0.0132118 -0.0121788 0.0518306 -0.0226093 -0.00790771 0.0522858 -0.00331379 -0.00673963 0.0537444 
-0.0332492 0.0212435 0.0540799 -0.0176419 0.0252752 0.0527047 
VERTICES 77 154
1 0 
1 1 
1 2 
1 3 
1 4 
1 5 
1 6 
1 7 
1 8 
1 9 
1 10 
1 11 
1 12 
1 13 
1 14 
1 15 
1 16 
1 17 
1 18 
1 19 
1 20 
1 21 
1 22 
1 23 
1 24 
1 25 
1 26 
1 27 
1 28 
1 29 
1 30 
1 31 
1 32 
1 33 
1 34 
1 35 
1 36 
1 37 
1 38 
1 39 
1 40 
1 41 
1 42 
1 43 
1 44 
1 45 
1 46 
1 47 
1 48 
1 49 
1 50 
1 51 
1 52 
1 53 
1 54 
1 55 
1 56 
1 57 
1 58 
1 59 
1 60 
1 61 
1 62 
1 63 
1 64 
1 65 
1 66 
1 67 
1 68 
1 69 
1 70 
1 71 
1 72 
1 73 
1 74 
1 75 
1 76 

POINT_DATA 77
FIELD FieldData 7
id 1 77 int
2 7 1 12 10 6 4 8 9 
3 13 5 11 20 18 19 22 23 
25 16 21 24 15 14 38 17 30 
35 29 28 33 32 36 26 31 37 
27 34 50 47 51 49 42 48 44 
45 43 39 46 41 40 60 56 54 
53 59 64 55 61 52 62 63 58 
57 72 73 65 67 69 75 71 76 
70 77 68 66 74 
type 1 77 int
1 1 1 1 1 1 1 1 1 
1 1 1 1 1 1 1 1 1 
1 1 1 1 1 1 1 1 1 
1 1 1 1 1 1 1 1 1 
1 1 1 1 1 1 1 1 1 
1 1 1 1 1 1 1 1 1 
1 1 1 1 1 1 1 1 1 
1 1 1 1 1 1 1 1 1 
1 1 1 1 1 
i 3 77 int
0 0 0 0 0 0 0 0 0 
0 0 0 0 0 0 0 0 0 
0 0 0 0 0 0 0 0 0 
0 0 0 0 0 0 0 0 0 
0 0 0 0 0 0 0 0 0 
0 0 0 0 0 0 0 0 0 
0 0 0 0 0 0 0 0 0 
0 0 0 0 0 0 0 0 0 
0 0 0 0 0 0 0 0 0 
0 0 0 0 0 0 0 0 0 
0 0 0 0 0 0 0 0 0 
0 0 0 0 0 0 0 0 0 
0 0 0 0 0 0 0 0 0 
0 0 0 0 0 0 0 0 0 
0 0 0 0 0 0 0 0 0 
0 0 0 0 0 0 0 0 0 
0 0 0 0 0 0 0 0 0 
0 0 0 0 0 0 0 0 0 
0 0 0 0 0 0 0 0 0 
0 0 0 0 0 0 0 0 0 
0 0 0 0 0 0 0 0 0 
0 0 0 0 0 0 0 0 0 
0 0 0 0 0 0 0 0 0 
0 0 0 0 0 0 0 0 0 
0 0 0 0 0 0 0 0 0 
0 0 0 0 0 0 
v 3 77 double
0 0 -1.54293445 0 0 -1.54626985 0 0 -1.54067815 
0 0 -1.53194725 0 0 -1.53675415 0 0 -1.52674795 
0 0 -1.52870995 0 0 -1.50702985 0 0 -1.50575455 
0 0 -1.46808415 0 0 -1.47426445 0 0 -1.48181815 
0 0 -1.47446065 0 0 -1.42766695 0 0 -1.42030945 
0 0 -1.43875225 0 0 -1.44051805 0 0 -1.40078755 
0 0 -1.39607875 0 0 -1.41501205 0 0 -1.41118615 
0 0 -1.37851885 0 0 -1.36360765 0 0 -1.37282905 
0 0 -1.34457625 0 0 -1.36243045 0 0 -1.32721255 
0 0 -1.30945645 0 0 -1.33133275 0 0 -1.32995935 
0 0 -1.32799735 0 0 -1.28424475 0 0 -1.28228275 
0 0 -1.29091555 0 0 -1.30553245 0 0 -1.28944405 
0 0 -1.25765965 0 0 -1.27718155 0 0 -1.20488185 
0 0 -1.19791675 0 0 -1.20085975 0 0 -1.21145455 
0 0 -1.21685005 0 0 -1.20390085 0 0 -1.21488805 
0 0 -1.18173025 0 0 -1.17064495 0 0 -1.16770195 
0 0 -1.17054685 0 0 -1.16397415 0 0 -1.15740145 
0 0 -1.13346505 0 0 -1.13886055 0 0 -1.11060775 
0 0 -1.10913625 0 0 -1.11492415 0 0 -1.11933865 
0 0 -1.12188925 0 0 -1.12591135 0 0 -1.08412075 
0 0 -1.07637085 0 0 -1.08588655 0 0 -1.07225065 
0 0 -1.06391215 0 0 -1.04076055 0 0 -1.05655465 
0 0 -1.04301685 0 0 -1.04311495 0 0 -1.03212775 
0 0 -1.01093815 0 0 -1.02300445 0 0 -1 
0 0 -1 0 0 -1 0 0 -1 
0 0 -1 0 0 -1 
f 3 77 double
0 0 -0.0016051574964 0 0 -0.00034671401923 0 0 -0.0016051574964 
0 0 -0.00034671401923 0 0 -0.00034671401923 0 0 -0.00034671401923 
0 0 -0.0016051574964 0 0 -0.00034671401923 0 0 -0.00034671401923 
0 0 -0.0016051574964 0 0 -0.00034671401923 0 0 -0.0016051574964 
0 0 -0.00034671401923 0 0 -0.00034671401923 0 0 -0.00034671401923 
0 0 -0.00034671401923 0 0 -0.00034671401923 0 0 -0.00034671401923 
0 0 -0.00034671401923 0 0 -0.0016051574964 0 0 -0.00034671401923 
0 0 -0.00034671401923 0 0 -0.0016051574964 0 0 -0.0016051574964 
0 0 -0.00034671401923 0 0 -0.0016051574964 0 0 -0.0016051574964 
0 0 -0.00034671401923 0 0 -0.0016051574964 0 0 -0.0016051574964 
0 0 -0.00034671401923 0 0 -0.00034671401923 0 0 -0.00034671401923 
0 0 -0.0016051574964 0 0 -0.00034671401923 0 0 -0.00034671401923 
0 0 -0.0016051574964 0 0 -0.00034671401923 0 0 -0.00034671401923 
0 0 -0.00034671401923 0 0 -0.00034671401923 0 0 -0.00034671401923 
0 0 -0.0016051574964 0 0 -0.00034671401923 0 0 -0.00034671401923 
0 0 -0.00034671401923 0 0 -0.0016051574964 0 0 -0.0016051574964 
0 0 -0.00034671401923 0 0 -0.0016051574964 0 0 -0.0016051574964 
0 0 -0.00034671401923 0 0 -0.00034671401923 0 0 -0.0016051574964 
0 0 -0.0016051574964 0 0 -0.00034671401923 0 0 -0.00034671401923 
0 0 -0.0016051574964 0 0 -0.00034671401923 0 0 -0.0016051574964 
0 0 -0.00034671401923 0 0 -0.00034671401923 0 0 -0.00034671401923 
0 0 -0.00034671401923 0 0 -0.00034671401923 0 0 -0.00034671401923 
0 0 -0.0016051574964 0 0 -0.0016051574964 0 0 -0.00034671401923 
0 0 -0.00034671401923 0 0 -0.00034671401923 0 0 0 
0 0 0 0 0 0 0 0 0 
0 0 0 0 0 0 
radius 1 77 double
0.0025 0.0015 0.0025 0.0015 0.0015 0.0015 0.0025 0.0015 0.0015 
0.0025 0.0015 0.0025 0.0015 0.0015 0.0015 0.0015 0.0015 0.0015 
0.0015 0.0025 0.0015 0.0015 0.0025 0.0025 0.0015 0.0025 0.0025 
0.0015 0.0025 0.0025 0.0015 0.0015 0.0015 0.0025 0.0015 0.0015 
0.0025 0.0015 0.0015 0.0015 0.0015 0.0015 0.0025 0.0015 0.0015 
0.0015 0.0025 0.0025 0.0015 0.0025 0.0025 0.0015 0.0015 0.0025 
0.0025 0.0015 0.0015 0.0025 0.0015 0.0025 0.0015 0.0015 0.0015 
0.0015 0.0015 0.0015 0.0025 0.0025 0.0015 0.0015 0.0015 0.0015 
0.0015 0.0015 0.0025 0.0025 0.0015 
omega 3 77 double
0 0 0 0 0 0 0 0 0 
0 0 0 0 0 0 0 0 0 
0 0 0 0 0 0 0 0 0 
0 0 0 0 0 0 0 0 0 
0 0 0 0 0 0 0 0 0 
0 0 0 0 0 0 0 0 0 
0 0 0 0 0 0 0 0 0 
0 0 0 0 0 0 0 0 0 
0 0 0 0 0 0 0 0 0 
0 0 0 0 0 0 0 0 0 
0 0 0 0 0 0 0 0 0 
0 0 0 0 0 0 0 0 0 
0 0 0 0 0 0 0 0 0 
0 0 0 0 0 0 0 0 0 
0 0 0 0 0 0 0 0 0 
0 0 0 0 0 0 0 0 0 
0 0 0 0 0 0 0 0 0 
0 0 0 0 0 0 0 0 0 
0 0 0 0 0 0 0 0 0 
0 0 0 0 0 0 0 0 0 
0 0 0 0 0 0 0 0 0 
0 0 0 0 0 0 0 0 0 
0 0 0 0 0 0 0 0 0 
0 0 0 0 0 0 0 0 0 
0 0 0 0 0 0 0 0 0 
0 0 0 0 0 0 
