# vtk DataFile Version 4.1
Generated by LIGGGHTS
ASCII
DATASET POLYDATA
POINTS 153 float
-0.0251095 -0.00593666 -0.112231 -0.0321272 -0.00868323 -0.117714 -0.0223648 0.0130849 -0.112476 
-0.0205276 0.020846 -0.109282 -0.01404 -0.0152521 -0.107351 -0.0122301 0.00955525 -0.109849 
-0.0117223 0.0189768 -0.10486 -0.00937851 0.0257222 -0.105533 -0.00816958 -0.0305916 -0.10545 
-0.0124571 -0.023763 -0.107514 -0.00217591 0.0174093 -0.10162 -0.0135125 0.0313996 -0.108408 
-0.0144005 -0.033995 -0.107343 -0.0214597 -0.00448395 -0.104488 -0.0244429 0.0229939 -0.104845 
-0.028663 -0.019004 -0.102226 -0.0101549 -0.0158816 -0.100728 -0.0202974 -0.0199605 -0.0967846 
-0.0275046 -0.000700049 -0.0996583 -0.0083641 0.00277185 -0.0988805 -0.0219947 -0.0107694 -0.0958413 
-0.00857183 -0.027925 -0.0923464 -0.00408721 -0.0194644 -0.08939 -0.00454319 0.0203252 -0.0912167 
-0.00174502 0.0344165 -0.0891621 -0.0159102 -0.0341757 -0.0856596 -0.0327631 -0.0200888 -0.0822889 
-0.0159539 -0.00381092 -0.08309 -0.0300659 -0.00019371 -0.0828219 -0.0235267 0.0224168 -0.0824388 
-0.0230202 -0.021037 -0.0788797 -0.000459601 -0.00791581 -0.0753391 -0.0229734 0.000876534 -0.0781287 
-0.0221714 0.00979368 -0.0750677 -0.020721 -0.0135944 -0.0740785 -0.0127396 -0.0137041 -0.0737127 
-0.0240929 0.0291618 -0.0727449 -0.0160817 -0.000243398 -0.0690888 -0.024531 -1.04943e-05 -0.0606009 
-0.0306884 0.0042356 -0.0615791 -0.027916 0.0296421 -0.061225 -0.0175025 -0.0228838 -0.0594126 
-0.022804 -0.0140579 -0.0581517 -0.0251247 -0.00571197 -0.0586863 -0.018642 0.00531382 -0.0592336 
-0.0105626 -0.00654333 -0.0552537 -0.027846 0.00485213 -0.0532757 -0.0178022 0.0256262 -0.0532555 
-0.0294843 -0.0242442 -0.0509365 -0.00180681 0.0181929 -0.0527559 -0.021213 0.0304724 -0.0520915 
-0.0337701 0.0102173 -0.0467569 -0.0315539 0.028352 -0.0476888 -0.0221544 -0.0267021 -0.0428147 
-0.0188291 -0.0129094 -0.0425653 -0.0262531 0.00245318 -0.0435536 -0.0274253 0.00637934 -0.0443157 
-0.0284955 0.0109203 -0.0447541 -0.0264294 0.0258143 -0.0454452 -0.00322644 -0.0143029 -0.0386079 
-0.0046838 -0.0346092 -0.0383125 -0.0205837 -0.0294247 -0.0370144 -0.00206763 0.0123655 -0.0363208 
-0.0315184 0.0323336 -0.0349258 -0.0181818 0.00594264 -0.0337054 -0.0113639 0.00609324 -0.0314737 
-0.0237558 0.020832 -0.0314899 -0.00317446 -0.00327501 -0.0311038 -0.0233787 0.0259916 -0.029693 
-0.00618278 0.0247152 -0.0282044 -0.0101315 -0.0171842 -0.02626 -0.00512449 -0.0296766 -0.0214787 
-0.0132118 -0.0121788 -0.0216423 -0.0226093 -0.00790771 -0.0209402 -0.0176419 0.0252752 -0.0202925 
-0.00331379 -0.00673963 -0.0186939 -0.0203284 0.0149576 -0.0186918 -0.0332492 0.0212435 -0.0181834 
-0.025261 0.030812 -0.0174982 -0.0088354 0.0340944 -0.0186979 -0.0255344 0.010562 -0.0142189 
-0.0156099 0.0123479 -0.0137772 -0.0166674 -0.0199684 -0.0102633 -0.006758 -0.00417797 -0.0125074 
-0.016039 -0.000886859 -0.00998198 -0.0136151 0.0110949 -0.0102683 -0.0302008 0.015853 -0.0101894 
-0.0138041 -0.0299263 -0.00673583 -0.0199892 0.00645928 -0.00879306 -0.0118987 0.0289343 -0.00753878 
-0.0135716 -0.00811727 -0.00247444 -0.00739645 0.00376164 -0.00240135 -0.0267621 -0.0219194 0.000118437 
-0.020149 -0.00685329 0.00133885 -0.0141771 0.0177987 0.000238447 -0.00471042 0.0296342 0.000589386 
-0.00791609 -0.0196794 0.00379443 -0.0179545 0.0159092 0.00336301 -0.00439906 -0.0328903 0.00727371 
-0.0296076 0.00722911 0.00738244 -0.016986 -0.0318376 0.0104206 -0.0281298 -0.0148599 0.0114258 
-0.0161861 -0.00599108 0.0114651 -0.0227935 0.0274334 0.010897 -0.0292679 0.0147935 0.0141478 
-0.00205293 0.0165512 0.0140202 -0.0112712 -0.0202504 0.0195042 -0.0305301 0.00502779 0.0169207 
-0.00405648 0.032442 0.0178787 -0.0135333 -0.0276689 0.021213 -0.0331337 -0.0163611 0.0223008 
-2.29018e-06 -0.0149558 0.0210834 -0.0273798 -0.00441029 0.0221624 -0.00301846 0.00510814 0.0211563 
-0.00794441 0.0258079 0.0233901 -0.0143544 -0.0272787 0.0269629 -0.0191843 -0.0221491 0.0260335 
-0.0125841 -0.0140137 0.0264043 -0.0336091 0.0316877 0.026626 -0.00679321 -0.00970412 0.0304769 
-0.0125785 -0.0040947 0.0274735 -0.0316214 0.000145103 0.0299854 -0.0217323 0.00352617 0.0291558 
-0.0148309 0.00369911 0.0286798 -0.00193271 0.00892872 0.028333 -0.0227292 -0.0342527 0.0342308 
-0.026321 0.0295451 0.0344192 -0.0331578 -0.0347183 0.0365435 -0.0076982 -0.0269483 0.0363482 
-0.0142543 -0.00491395 0.0370157 -0.00618246 0.0122116 0.0347891 -0.0188235 -0.00412326 0.0386927 
-0.030786 0.0122027 0.0397035 -0.0238018 0.0141125 0.0388985 -0.00584464 -0.0345985 0.045008 
-0.0115686 -0.0259344 0.0439456 -0.00401145 -0.0205873 0.0443658 -0.0301844 0.00679958 0.0456029 
-0.004829 0.0333632 0.0450778 -0.010147 -0.0216422 0.0463338 -0.0322463 -0.00737998 0.0461117 
-0.00623706 -0.00658451 0.048521 -0.00679915 -0.000720285 0.0492221 -0.0230582 0.0203811 0.0492118 
-0.0210131 0.0295222 0.0462589 -0.0237179 -0.0330481 0.0501253 -0.0251936 -0.0129184 0.0519897 
-0.0214963 -0.0163735 0.0551038 -0.0152079 -0.0146465 0.053418 -0.00240788 -0.00904262 0.0545338 
-0.0322856 0.00186917 0.0563474 -0.00372425 0.000239952 0.0531955 -0.0043072 0.0165241 0.0546183 

VERTICES 153 306
1 0 
1 1 
1 2 
1 3 
1 4 
1 5 
1 6 
1 7 
1 8 
1 9 
1 10 
1 11 
1 12 
1 13 
1 14 
1 15 
1 16 
1 17 
1 18 
1 19 
1 20 
1 21 
1 22 
1 23 
1 24 
1 25 
1 26 
1 27 
1 28 
1 29 
1 30 
1 31 
1 32 
1 33 
1 34 
1 35 
1 36 
1 37 
1 38 
1 39 
1 40 
1 41 
1 42 
1 43 
1 44 
1 45 
1 46 
1 47 
1 48 
1 49 
1 50 
1 51 
1 52 
1 53 
1 54 
1 55 
1 56 
1 57 
1 58 
1 59 
1 60 
1 61 
1 62 
1 63 
1 64 
1 65 
1 66 
1 67 
1 68 
1 69 
1 70 
1 71 
1 72 
1 73 
1 74 
1 75 
1 76 
1 77 
1 78 
1 79 
1 80 
1 81 
1 82 
1 83 
1 84 
1 85 
1 86 
1 87 
1 88 
1 89 
1 90 
1 91 
1 92 
1 93 
1 94 
1 95 
1 96 
1 97 
1 98 
1 99 
1 100 
1 101 
1 102 
1 103 
1 104 
1 105 
1 106 
1 107 
1 108 
1 109 
1 110 
1 111 
1 112 
1 113 
1 114 
1 115 
1 116 
1 117 
1 118 
1 119 
1 120 
1 121 
1 122 
1 123 
1 124 
1 125 
1 126 
1 127 
1 128 
1 129 
1 130 
1 131 
1 132 
1 133 
1 134 
1 135 
1 136 
1 137 
1 138 
1 139 
1 140 
1 141 
1 142 
1 143 
1 144 
1 145 
1 146 
1 147 
1 148 
1 149 
1 150 
1 151 
1 152 

POINT_DATA 153
FIELD FieldData 7
id 1 153 int
2 10 6 4 12 8 7 1 13 
5 9 11 3 19 22 20 18 23 
16 21 25 24 15 14 17 38 30 
29 28 33 35 26 31 37 32 36 
34 27 49 42 44 50 47 51 48 
45 43 46 40 39 41 60 56 54 
53 59 64 55 61 63 52 62 58 
57 73 65 67 72 69 71 75 76 
70 77 74 68 86 66 80 84 85 
82 87 81 78 90 88 79 89 83 
98 99 100 95 96 92 101 91 97 
102 93 110 113 94 114 104 111 106 
107 109 112 108 105 103 127 115 120 
121 117 123 118 126 119 124 116 125 
122 135 140 128 139 136 133 131 132 
134 137 147 138 129 153 146 149 151 
130 145 143 150 144 142 141 152 148 

type 1 153 int
1 1 1 1 1 1 1 1 1 
1 1 1 1 1 1 1 1 1 
1 1 1 1 1 1 1 1 1 
1 1 1 1 1 1 1 1 1 
1 1 1 1 1 1 1 1 1 
1 1 1 1 1 1 1 1 1 
1 1 1 1 1 1 1 1 1 
1 1 1 1 1 1 1 1 1 
1 1 1 1 1 1 1 1 1 
1 1 1 1 1 1 1 1 1 
1 1 1 1 1 1 1 1 1 
1 1 1 1 1 1 1 1 1 
1 1 1 1 1 1 1 1 1 
1 1 1 1 1 1 1 1 1 
1 1 1 1 1 1 1 1 1 
1 1 1 1 1 1 1 1 1 
1 1 1 1 1 1 1 1 1 

i 3 153 int
0 0 0 0 0 0 0 0 0 
0 0 0 0 0 0 0 0 0 
0 0 0 0 0 0 0 0 0 
0 0 0 0 0 0 0 0 0 
0 0 0 0 0 0 0 0 0 
0 0 0 0 0 0 0 0 0 
0 0 0 0 0 0 0 0 0 
0 0 0 0 0 0 0 0 0 
0 0 0 0 0 0 0 0 0 
0 0 0 0 0 0 0 0 0 
0 0 0 0 0 0 0 0 0 
0 0 0 0 0 0 0 0 0 
0 0 0 0 0 0 0 0 0 
0 0 0 0 0 0 0 0 0 
0 0 0 0 0 0 0 0 0 
0 0 0 0 0 0 0 0 0 
0 0 0 0 0 0 0 0 0 
0 0 0 0 0 0 0 0 0 
0 0 0 0 0 0 0 0 0 
0 0 0 0 0 0 0 0 0 
0 0 0 0 0 0 0 0 0 
0 0 0 0 0 0 0 0 0 
0 0 0 0 0 0 0 0 0 
0 0 0 0 0 0 0 0 0 
0 0 0 0 0 0 0 0 0 
0 0 0 0 0 0 0 0 0 
0 0 0 0 0 0 0 0 0 
0 0 0 0 0 0 0 0 0 
0 0 0 0 0 0 0 0 0 
0 0 0 0 0 0 0 0 0 
0 0 0 0 0 0 0 0 0 
0 0 0 0 0 0 0 0 0 
0 0 0 0 0 0 0 0 0 
0 0 0 0 0 0 0 0 0 
0 0 0 0 0 0 0 0 0 
0 0 0 0 0 0 0 0 0 
0 0 0 0 0 0 0 0 0 
0 0 0 0 0 0 0 0 0 
0 0 0 0 0 0 0 0 0 
0 0 0 0 0 0 0 0 0 
0 0 0 0 0 0 0 0 0 
0 0 0 0 0 0 0 0 0 
0 0 0 0 0 0 0 0 0 
0 0 0 0 0 0 0 0 0 
0 0 0 0 0 0 0 0 0 
0 0 0 0 0 0 0 0 0 
0 0 0 0 0 0 0 0 0 
0 0 0 0 0 0 0 0 0 
0 0 0 0 0 0 0 0 0 
0 0 0 0 0 0 0 0 0 
0 0 0 0 0 0 0 0 0 

v 3 153 double
-0.72615218482 0.009366097318 0.25355777591 -0.73437412757 0.048248182168 0.27926559408 -0.75112202757 -0.13566800949 0.23887526184 
-0.7418305173 -0.13398977259 0.21792580511 -0.71584803948 0.12790338348 0.22355130725 -0.63591859651 -0.039450297487 -5.095405447e-05 
-0.73198125343 -0.17095954075 0.16512282351 -0.73007221792 -0.0070138229157 -0.24426529148 -0.71666648092 0.26310328876 0.22376699787 
-0.71966002753 0.26420228247 0.23148325388 0.0053772640319 -0.75568784498 -0.17954601368 -0.72097167049 -0.26198189066 0.24503621826 
-0.69695482414 0.28675055182 0.25360867349 0 0 -2.00773225 0 0 -2.00949805 
0 0 -1.99664695 0 0 -1.98928945 0 0 -1.96976755 
0 0 -1.98399205 0 0 -1.98016615 0 0 -1.96505875 
0 0 -1.94749885 0 0 -1.93258765 0 0 -1.94180905 
0 0 -1.93141045 0 0 -1.91355625 0 0 -1.89619255 
0 0 -1.90031275 0 0 -1.89893935 0 0 -1.89697735 
0 0 -1.87843645 0 0 -1.85989555 0 0 -1.87451245 
0 0 -1.85842405 0 0 -1.85322475 0 0 -1.85126275 
0 0 -1.84616155 0 0 -1.82663965 0 0 -1.78043455 
0 0 -1.78583005 0 0 -1.78386805 0 0 -1.77386185 
0 0 -1.76689675 0 0 -1.76983975 0 0 -1.77288085 
0 0 -1.75071025 0 0 -1.73962495 0 0 -1.73952685 
0 0 -1.72638145 0 0 -1.73668195 0 0 -1.73295415 
0 0 -1.70244505 0 0 -1.70784055 0 0 -1.67958775 
0 0 -1.67811625 0 0 -1.68390415 0 0 -1.68831865 
0 0 -1.69086925 0 0 -1.69489135 0 0 -1.65486655 
0 0 -1.65310075 0 0 -1.64535085 0 0 -1.64123065 
0 0 -1.63289215 0 0 -1.62553465 0 0 -1.61199685 
0 0 -1.61209495 0 0 -1.60974055 0 0 -1.60110775 
0 0 -1.59198445 0 0 -1.57991815 0 0 -1.54999765 
0 0 -1.55097865 0 0 -1.54656415 0 0 -1.54244395 
0 0 -1.53224155 0 0 -1.53224155 0 0 -1.52900425 
0 0 -1.52458975 0 0 -1.53224155 0 0 -1.50330205 
0 0 -1.50045715 0 0 -1.47730555 0 0 -1.49211865 
0 0 -1.47544165 0 0 -1.47730555 0 0 -1.47681505 
0 0 -1.45366345 0 0 -1.46749555 0 0 -1.45905895 
0 0 -1.42462585 0 0 -1.42413535 0 0 -1.40667355 
0 0 -1.39813885 0 0 -1.40579065 0 0 -1.40333815 
0 0 -1.38077515 0 0 -1.38381625 0 0 -1.35585775 
0 0 -1.35507295 0 0 -1.33290235 0 0 -1.32544675 
0 0 -1.32515245 0 0 -1.32937075 0 0 -1.30514005 
0 0 -1.30612105 0 0 -1.26423235 0 0 -1.28414665 
0 0 -1.27678915 0 0 -1.25089075 0 0 -1.24235605 
0 0 -1.25196985 0 0 -1.24343515 0 0 -1.25138125 
0 0 -1.23372325 0 0 -1.20497995 0 0 -1.21253365 
0 0 -1.20949255 0 0 -1.20772675 0 0 -1.17604045 
0 0 -1.20085975 0 0 -1.18016065 0 0 -1.18702765 
0 0 -1.19095165 0 0 -1.19379655 0 0 -1.14425605 
0 0 -1.14268645 0 0 -1.12424365 0 0 -1.12600945 
0 0 -1.12012345 0 0 -1.13944915 0 0 -1.10540845 
0 0 -1.09638325 0 0 -1.10354455 0 0 -1.04782375 
0 0 -1.05773185 0 0 -1.05380785 0 0 -1.04223205 
0 0 -1.04713705 0 0 -1.03536505 0 0 -1.03742515 
0 0 -1.01437165 0 0 -1.00760275 0 0 -1.00770085 
0 0 -1.03605175 0 0 -1 0 0 -1 
0 0 -1 0 0 -1 0 0 -1 
0 0 -1 0 0 -1 0 0 -1 

f 3 153 double
0 0 -0.0016051574964 0 0 -0.00034671401923 0 0 -0.00034671401923 
0 0 -0.0016051574964 0 0 -0.00034671401923 0 0 -0.00034671401923 
0 0 -0.00034671401923 0 0 -0.0016051574964 0 0 -0.00034671401923 
0 0 -0.0016051574964 0 0 -0.00034671401923 0 0 -0.00034671401923 
0 0 -0.0016051574964 0 0 -0.00034671401923 0 0 -0.00034671401923 
0 0 -0.00034671401923 0 0 -0.00034671401923 0 0 -0.00034671401923 
0 0 -0.0016051574964 0 0 -0.00034671401923 0 0 -0.00034671401923 
0 0 -0.00034671401923 0 0 -0.0016051574964 0 0 -0.0016051574964 
0 0 -0.0016051574964 0 0 -0.00034671401923 0 0 -0.0016051574964 
0 0 -0.0016051574964 0 0 -0.0016051574964 0 0 -0.00034671401923 
0 0 -0.00034671401923 0 0 -0.0016051574964 0 0 -0.00034671401923 
0 0 -0.00034671401923 0 0 -0.00034671401923 0 0 -0.00034671401923 
0 0 -0.00034671401923 0 0 -0.0016051574964 0 0 -0.00034671401923 
0 0 -0.0016051574964 0 0 -0.00034671401923 0 0 -0.00034671401923 
0 0 -0.00034671401923 0 0 -0.00034671401923 0 0 -0.00034671401923 
0 0 -0.00034671401923 0 0 -0.0016051574964 0 0 -0.00034671401923 
0 0 -0.0016051574964 0 0 -0.0016051574964 0 0 -0.0016051574964 
0 0 -0.00034671401923 0 0 -0.00034671401923 0 0 -0.0016051574964 
0 0 -0.0016051574964 0 0 -0.00034671401923 0 0 -0.00034671401923 
0 0 -0.0016051574964 0 0 -0.00034671401923 0 0 -0.00034671401923 
0 0 -0.0016051574964 0 0 -0.00034671401923 0 0 -0.00034671401923 
0 0 -0.00034671401923 0 0 -0.00034671401923 0 0 -0.0016051574964 
0 0 -0.0016051574964 0 0 -0.00034671401923 0 0 -0.00034671401923 
0 0 -0.00034671401923 0 0 -0.00034671401923 0 0 -0.00034671401923 
0 0 -0.00034671401923 0 0 -0.00034671401923 0 0 -0.00034671401923 
0 0 -0.0016051574964 0 0 -0.00034671401923 0 0 -0.0016051574964 
0 0 -0.0016051574964 0 0 -0.00034671401923 0 0 -0.00034671401923 
0 0 -0.00034671401923 0 0 -0.00034671401923 0 0 -0.0016051574964 
0 0 -0.0016051574964 0 0 -0.00034671401923 0 0 -0.00034671401923 
0 0 -0.0016051574964 0 0 -0.00034671401923 0 0 -0.00034671401923 
0 0 -0.00034671401923 0 0 -0.00034671401923 0 0 -0.00034671401923 
0 0 -0.00034671401923 0 0 -0.00034671401923 0 0 -0.0016051574964 
0 0 -0.00034671401923 0 0 -0.0016051574964 0 0 -0.00034671401923 
0 0 -0.00034671401923 0 0 -0.0016051574964 0 0 -0.00034671401923 
0 0 -0.00034671401923 0 0 -0.0016051574964 0 0 -0.00034671401923 
0 0 -0.0016051574964 0 0 -0.00034671401923 0 0 -0.0016051574964 
0 0 -0.00034671401923 0 0 -0.00034671401923 0 0 -0.00034671401923 
0 0 -0.00034671401923 0 0 -0.0016051574964 0 0 -0.0016051574964 
0 0 -0.00034671401923 0 0 -0.0016051574964 0 0 -0.00034671401923 
0 0 -0.00034671401923 0 0 -0.0016051574964 0 0 -0.00034671401923 
0 0 -0.0016051574964 0 0 -0.00034671401923 0 0 -0.0016051574964 
0 0 -0.00034671401923 0 0 -0.0016051574964 0 0 -0.00034671401923 
0 0 -0.00034671401923 0 0 -0.00034671401923 0 0 -0.00034671401923 
0 0 -0.0016051574964 0 0 -0.00034671401923 0 0 -0.00034671401923 
0 0 -0.00034671401923 0 0 -0.0016051574964 0 0 -0.0016051574964 
0 0 -0.00034671401923 0 0 -0.00034671401923 0 0 -0.00034671401923 
0 0 -0.00034671401923 0 0 -0.0016051574964 0 0 -0.00034671401923 
0 0 -0.00034671401923 0 0 -0.00034671401923 0 0 -0.00034671401923 
0 0 -0.0016051574964 0 0 0 0 0 0 
0 0 0 0 0 0 0 0 0 
0 0 0 0 0 0 0 0 0 

radius 1 153 double
0.0025 0.0015 0.0015 0.0025 0.0015 0.0015 0.0015 0.0025 0.0015 
0.0025 0.0015 0.0015 0.0025 0.0015 0.0015 0.0015 0.0015 0.0015 
0.0025 0.0015 0.0015 0.0015 0.0025 0.0025 0.0025 0.0015 0.0025 
0.0025 0.0025 0.0015 0.0015 0.0025 0.0015 0.0015 0.0015 0.0015 
0.0015 0.0025 0.0015 0.0025 0.0015 0.0015 0.0015 0.0015 0.0015 
0.0015 0.0025 0.0015 0.0025 0.0025 0.0025 0.0015 0.0015 0.0025 
0.0025 0.0015 0.0015 0.0025 0.0015 0.0015 0.0025 0.0015 0.0015 
0.0015 0.0015 0.0025 0.0025 0.0015 0.0015 0.0015 0.0015 0.0015 
0.0015 0.0015 0.0015 0.0025 0.0015 0.0025 0.0025 0.0015 0.0015 
0.0015 0.0015 0.0025 0.0025 0.0015 0.0015 0.0025 0.0015 0.0015 
0.0015 0.0015 0.0015 0.0015 0.0015 0.0025 0.0015 0.0025 0.0015 
0.0015 0.0025 0.0015 0.0015 0.0025 0.0015 0.0025 0.0015 0.0025 
0.0015 0.0015 0.0015 0.0015 0.0025 0.0025 0.0015 0.0025 0.0015 
0.0015 0.0025 0.0015 0.0025 0.0015 0.0025 0.0015 0.0025 0.0015 
0.0015 0.0015 0.0015 0.0025 0.0015 0.0015 0.0015 0.0025 0.0025 
0.0015 0.0015 0.0015 0.0015 0.0025 0.0015 0.0015 0.0015 0.0015 
0.0025 0.0025 0.0025 0.0015 0.0025 0.0025 0.0025 0.0015 0.0015 

omega 3 153 double
-2.88476401 -223.6553409 -1.9133269531e-16 -24.449373837 -372.13811534 4.7501171527e-15 68.910007313 -381.51827101 3.9403029229e-15 
41.568987285 -230.14550099 1.4176486841e-14 -65.881516809 -368.72484029 -1.4284031096e-14 19.36541976 -380.14301931 -13.907942885 
87.775431565 -375.81974153 6.0377299216e-14 90.90835954 -150.35114984 28.8696814 -135.70422402 -369.6444432 8.7748112008e-15 
-82.580150371 -224.93989353 -7.2171120977e-15 291.92446398 572.56011813 220.35598303 133.93957814 -368.60044468 6.0095095217e-15 
-88.749016132 -215.70683836 -3.2855428141e-15 0 0 0 0 0 0 
0 0 0 0 0 0 0 0 0 
0 0 0 0 0 0 0 0 0 
0 0 0 0 0 0 0 0 0 
0 0 0 0 0 0 0 0 0 
0 0 0 0 0 0 0 0 0 
0 0 0 0 0 0 0 0 0 
0 0 0 0 0 0 0 0 0 
0 0 0 0 0 0 0 0 0 
0 0 0 0 0 0 0 0 0 
0 0 0 0 0 0 0 0 0 
0 0 0 0 0 0 0 0 0 
0 0 0 0 0 0 0 0 0 
0 0 0 0 0 0 0 0 0 
0 0 0 0 0 0 0 0 0 
0 0 0 0 0 0 0 0 0 
0 0 0 0 0 0 0 0 0 
0 0 0 0 0 0 0 0 0 
0 0 0 0 0 0 0 0 0 
0 0 0 0 0 0 0 0 0 
0 0 0 0 0 0 0 0 0 
0 0 0 0 0 0 0 0 0 
0 0 0 0 0 0 0 0 0 
0 0 0 0 0 0 0 0 0 
0 0 0 0 0 0 0 0 0 
0 0 0 0 0 0 0 0 0 
0 0 0 0 0 0 0 0 0 
0 0 0 0 0 0 0 0 0 
0 0 0 0 0 0 0 0 0 
0 0 0 0 0 0 0 0 0 
0 0 0 0 0 0 0 0 0 
0 0 0 0 0 0 0 0 0 
0 0 0 0 0 0 0 0 0 
0 0 0 0 0 0 0 0 0 
0 0 0 0 0 0 0 0 0 
0 0 0 0 0 0 0 0 0 
0 0 0 0 0 0 0 0 0 
0 0 0 0 0 0 0 0 0 
0 0 0 0 0 0 0 0 0 
0 0 0 0 0 0 0 0 0 
0 0 0 0 0 0 0 0 0 
0 0 0 0 0 0 0 0 0 
0 0 0 0 0 0 0 0 0 
0 0 0 0 0 0 0 0 0 
0 0 0 0 0 0 0 0 0 
0 0 0 0 0 0 0 0 0 
0 0 0 0 0 0 0 0 0 

