# vtk DataFile Version 4.1
Generated by LIGGGHTS
ASCII
DATASET POLYDATA
POINTS 140 float
-0.0299058 -0.00882918 -0.112571 -0.0208283 -0.00599188 -0.113811 -0.00733037 0.0200026 -0.106027 
-0.00499808 0.0257643 -0.104244 -0.00974491 -0.0160195 -0.108869 -0.0190478 0.013684 -0.110486 
-0.0161107 0.0216438 -0.110744 -0.00953586 0.00971988 -0.106414 -0.00220817 0.0219434 -0.100719 
-0.0106535 -0.0244251 -0.101267 -0.0134792 -0.0343741 -0.0984907 -0.00618745 -0.0313193 -0.0997341 
-0.0124546 0.031784 -0.0997782 -0.028663 -0.019004 -0.0904225 -0.0214597 -0.00448395 -0.0926185 
-0.0244429 0.0229939 -0.0929642 -0.0101549 -0.0158816 -0.0889689 -0.0275046 -0.000700049 -0.087931 
-0.0083641 0.00277185 -0.0871761 -0.0202974 -0.0199605 -0.0851426 -0.0219947 -0.0107694 -0.0842275 
-0.00857183 -0.027925 -0.080838 -0.00454319 0.0203252 -0.0797424 -0.00408721 -0.0194644 -0.077971 
-0.00174502 0.0344165 -0.0777502 -0.0159102 -0.0341757 -0.0743549 -0.0327631 -0.0200888 -0.0710883 
-0.0159539 -0.00381092 -0.0718647 -0.0300659 -0.00019371 -0.0716048 -0.0235267 0.0224168 -0.0712335 
-0.0230202 -0.021037 -0.0677857 -0.000459601 -0.00791581 -0.0643563 -0.0229734 0.000876534 -0.0670582 
-0.0221714 0.00979368 -0.0640937 -0.020721 -0.0135944 -0.0631357 -0.0127396 -0.0137041 -0.0627817 
-0.0240929 0.0291618 -0.0618445 -0.0160817 -0.000243398 -0.0583055 -0.0175025 -0.0228838 -0.048946 
-0.024531 -1.04943e-05 -0.0500949 -0.0306884 0.0042356 -0.0510407 -0.027916 0.0296421 -0.0506984 
-0.022804 -0.0140579 -0.0477269 -0.0251247 -0.00571197 -0.0482439 -0.018642 0.00531382 -0.0487729 
-0.0105626 -0.00654333 -0.044926 -0.027846 0.00485213 -0.0430145 -0.00180681 0.0181929 -0.0425124 
-0.0178022 0.0256262 -0.042995 -0.021213 0.0304724 -0.0418703 -0.0294843 -0.0242442 -0.0407548 
-0.0274253 0.00637934 -0.0343624 -0.0337701 0.0102173 -0.0367188 -0.0284955 0.0109203 -0.0347854 
-0.0264294 0.0258143 -0.0354524 -0.0315539 0.028352 -0.0376183 -0.0221544 -0.0267021 -0.0329138 
-0.0188291 -0.0129094 -0.0326732 -0.0262531 0.00245318 -0.0336268 -0.0046838 -0.0346092 -0.0285705 
-0.0205837 -0.0294247 -0.0273189 -0.00322644 -0.0143029 -0.0288553 -0.00206763 0.0123655 -0.02665 
-0.0181818 0.00594264 -0.0241288 -0.0315184 0.0323336 -0.025305 -0.00317446 -0.00327501 -0.021622 
-0.0113639 0.00609324 -0.0219782 -0.0237558 0.020832 -0.0219939 -0.0233787 0.0259916 -0.0202629 
-0.0101315 -0.0171842 -0.0169571 -0.00618278 0.0247152 -0.0188291 -0.00512449 -0.0296766 -0.0123553 
-0.0132118 -0.0121788 -0.012513 -0.0226093 -0.00790771 -0.0118373 -0.00331379 -0.00673963 -0.00967707 
-0.0203284 0.0149576 -0.00967496 -0.0332492 0.0212435 -0.00918594 -0.0176419 0.0252752 -0.0112144 
-0.025261 0.030812 -0.00852721 -0.0088354 0.0340944 -0.00968106 -0.0255344 0.010562 -0.0053757 
-0.0156099 0.0123479 -0.00495107 -0.0166674 -0.0199684 -0.001576 -0.006758 -0.00417797 -0.00373123 
-0.016039 -0.000886859 -0.00130591 -0.0136151 0.0110949 -0.00158106 -0.0302008 0.015853 -0.00150506 
-0.0138041 -0.0299263 0.00180957 -0.0199892 0.00645928 -0.000164668 -0.0118987 0.0289343 0.00103899 
-0.0135716 -0.00811727 0.00589674 -0.00739645 0.00376164 0.00596688 -0.0267621 -0.0219194 0.0083819 
-0.020149 -0.00685329 0.0095511 -0.0141771 0.0177987 0.00849661 -0.00471042 0.0296342 0.00883283 
-0.00791609 -0.0196794 0.0119025 -0.0179545 0.0159092 0.0114893 -0.016986 -0.0318376 0.0182414 
-0.00439906 -0.0328903 0.0152323 -0.0296076 0.00722911 0.0153363 -0.0281298 -0.0148599 0.0192019 
-0.0161861 -0.00599108 0.0192394 -0.0292679 0.0147935 0.0218021 -0.00205293 0.0165512 0.0216804 
-0.0227935 0.0274334 0.0186967 -0.0305301 0.00502779 0.024449 -0.00405648 0.032442 0.0253629 
-0.0135333 -0.0276689 0.0285417 -0.0112712 -0.0202504 0.0269131 -0.0331337 -0.0163611 0.0295784 
-2.29018e-06 -0.0149558 0.0284187 -0.0273798 -0.00441029 0.0294465 -0.00301846 0.00510814 0.028488 
-0.0191843 -0.0221491 0.0331321 -0.0125841 -0.0140137 0.0334847 -0.00794441 0.0258079 0.0306158 
-0.0336091 0.0316877 0.0336958 -0.0143544 -0.0272787 0.0340162 -0.00679321 -0.00970412 0.0373565 
-0.0125785 -0.0040947 0.0345021 -0.0316214 0.000145103 0.0368898 -0.0217323 0.00352617 0.0361014 
-0.0148309 0.00369911 0.0356489 -0.00193271 0.00892872 0.0353192 -0.0227292 -0.0342527 0.0409197 
-0.00618246 0.0122116 0.0414492 -0.026321 0.0295451 0.0410987 -0.0331578 -0.0347183 0.0431124 
-0.0076982 -0.0269483 0.0429277 -0.0188235 -0.00412326 0.0451485 -0.0142543 -0.00491395 0.0435598 
-0.030786 0.0122027 0.0461053 -0.0238018 0.0141125 0.0453432 -0.00584464 -0.0345985 0.0511245 
-0.0115686 -0.0259344 0.0501155 -0.010147 -0.0216422 0.0523975 -0.00401145 -0.0205873 0.0505134 
-0.0210131 0.0295222 0.0523251 -0.004829 0.0333632 0.051191 
VERTICES 140 280
1 0 
1 1 
1 2 
1 3 
1 4 
1 5 
1 6 
1 7 
1 8 
1 9 
1 10 
1 11 
1 12 
1 13 
1 14 
1 15 
1 16 
1 17 
1 18 
1 19 
1 20 
1 21 
1 22 
1 23 
1 24 
1 25 
1 26 
1 27 
1 28 
1 29 
1 30 
1 31 
1 32 
1 33 
1 34 
1 35 
1 36 
1 37 
1 38 
1 39 
1 40 
1 41 
1 42 
1 43 
1 44 
1 45 
1 46 
1 47 
1 48 
1 49 
1 50 
1 51 
1 52 
1 53 
1 54 
1 55 
1 56 
1 57 
1 58 
1 59 
1 60 
1 61 
1 62 
1 63 
1 64 
1 65 
1 66 
1 67 
1 68 
1 69 
1 70 
1 71 
1 72 
1 73 
1 74 
1 75 
1 76 
1 77 
1 78 
1 79 
1 80 
1 81 
1 82 
1 83 
1 84 
1 85 
1 86 
1 87 
1 88 
1 89 
1 90 
1 91 
1 92 
1 93 
1 94 
1 95 
1 96 
1 97 
1 98 
1 99 
1 100 
1 101 
1 102 
1 103 
1 104 
1 105 
1 106 
1 107 
1 108 
1 109 
1 110 
1 111 
1 112 
1 113 
1 114 
1 115 
1 116 
1 117 
1 118 
1 119 
1 120 
1 121 
1 122 
1 123 
1 124 
1 125 
1 126 
1 127 
1 128 
1 129 
1 130 
1 131 
1 132 
1 133 
1 134 
1 135 
1 136 
1 137 
1 138 
1 139 

POINT_DATA 140
FIELD FieldData 7
id 1 140 int
10 2 7 1 12 6 4 8 9 
5 3 13 11 20 19 22 18 16 
21 23 25 24 14 15 17 38 30 
29 28 33 35 26 31 37 32 36 
34 27 50 49 42 44 47 51 48 
45 43 39 46 41 40 64 60 55 
61 56 54 53 59 52 62 63 58 
73 57 72 65 67 69 75 71 76 
70 77 68 86 66 74 80 84 85 
82 87 81 78 90 88 79 89 83 
98 99 100 95 96 92 101 91 93 
97 102 110 113 114 104 94 106 107 
109 111 112 108 105 103 120 121 127 
117 115 123 118 126 119 124 116 125 
139 122 135 140 136 128 133 131 132 
134 129 137 130 138 
type 1 140 int
1 1 1 1 1 1 1 1 1 
1 1 1 1 1 1 1 1 1 
1 1 1 1 1 1 1 1 1 
1 1 1 1 1 1 1 1 1 
1 1 1 1 1 1 1 1 1 
1 1 1 1 1 1 1 1 1 
1 1 1 1 1 1 1 1 1 
1 1 1 1 1 1 1 1 1 
1 1 1 1 1 1 1 1 1 
1 1 1 1 1 1 1 1 1 
1 1 1 1 1 1 1 1 1 
1 1 1 1 1 1 1 1 1 
1 1 1 1 1 1 1 1 1 
1 1 1 1 1 1 1 1 1 
1 1 1 1 1 1 1 1 1 
1 1 1 1 1 
i 3 140 int
0 0 0 0 0 0 0 0 0 
0 0 0 0 0 0 0 0 0 
0 0 0 0 0 0 0 0 0 
0 0 0 0 0 0 0 0 0 
0 0 0 0 0 0 0 0 0 
0 0 0 0 0 0 0 0 0 
0 0 0 0 0 0 0 0 0 
0 0 0 0 0 0 0 0 0 
0 0 0 0 0 0 0 0 0 
0 0 0 0 0 0 0 0 0 
0 0 0 0 0 0 0 0 0 
0 0 0 0 0 0 0 0 0 
0 0 0 0 0 0 0 0 0 
0 0 0 0 0 0 0 0 0 
0 0 0 0 0 0 0 0 0 
0 0 0 0 0 0 0 0 0 
0 0 0 0 0 0 0 0 0 
0 0 0 0 0 0 0 0 0 
0 0 0 0 0 0 0 0 0 
0 0 0 0 0 0 0 0 0 
0 0 0 0 0 0 0 0 0 
0 0 0 0 0 0 0 0 0 
0 0 0 0 0 0 0 0 0 
0 0 0 0 0 0 0 0 0 
0 0 0 0 0 0 0 0 0 
0 0 0 0 0 0 0 0 0 
0 0 0 0 0 0 0 0 0 
0 0 0 0 0 0 0 0 0 
0 0 0 0 0 0 0 0 0 
0 0 0 0 0 0 0 0 0 
0 0 0 0 0 0 0 0 0 
0 0 0 0 0 0 0 0 0 
0 0 0 0 0 0 0 0 0 
0 0 0 0 0 0 0 0 0 
0 0 0 0 0 0 0 0 0 
0 0 0 0 0 0 0 0 0 
0 0 0 0 0 0 0 0 0 
0 0 0 0 0 0 0 0 0 
0 0 0 0 0 0 0 0 0 
0 0 0 0 0 0 0 0 0 
0 0 0 0 0 0 0 0 0 
0 0 0 0 0 0 0 0 0 
0 0 0 0 0 0 0 0 0 
0 0 0 0 0 0 0 0 0 
0 0 0 0 0 0 0 0 0 
0 0 0 0 0 0 0 0 0 
0 0 0 0 0 0 
v 3 140 double
0 0 -2.04687415 -0.11882703573 0.0015326616155 -1.1606897799 -0.73198125343 -0.17095954075 0.22398282351 
-0.73007221792 -0.0070138229157 -0.18540529148 -0.71584803948 0.12790338348 0.28241130725 0 0 -2.03686795 
-0.29100787169 -0.052561976949 -0.57252698542 0 0 -2.01714985 0.0053772640319 -0.75568784498 -0.12068601368 
0 0 -1.99193815 0 0 -1.97820415 0 0 -1.98438445 
0 0 -1.98458065 0 0 -1.93778695 0 0 -1.94887225 
0 0 -1.95063805 0 0 -1.93042945 0 0 -1.92513205 
0 0 -1.92130615 0 0 -1.91090755 0 0 -1.90619875 
0 0 -1.88863885 0 0 -1.88294905 0 0 -1.87372765 
0 0 -1.87255045 0 0 -1.85469625 0 0 -1.83733255 
0 0 -1.84145275 0 0 -1.84007935 0 0 -1.83811735 
0 0 -1.81957645 0 0 -1.80103555 0 0 -1.81565245 
0 0 -1.79956405 0 0 -1.79436475 0 0 -1.79240275 
0 0 -1.78730155 0 0 -1.76777965 0 0 -1.71500185 
0 0 -1.72157455 0 0 -1.72697005 0 0 -1.72500805 
0 0 -1.70803675 0 0 -1.71097975 0 0 -1.71402085 
0 0 -1.69185025 0 0 -1.68076495 0 0 -1.67782195 
0 0 -1.68066685 0 0 -1.67409415 0 0 -1.66752145 
0 0 -1.62945865 0 0 -1.64358505 0 0 -1.63200925 
0 0 -1.63603135 0 0 -1.64898055 0 0 -1.62072775 
0 0 -1.61925625 0 0 -1.62504415 0 0 -1.59424075 
0 0 -1.58649085 0 0 -1.59600655 0 0 -1.58237065 
0 0 -1.56667465 0 0 -1.57403215 0 0 -1.55088055 
0 0 -1.55313685 0 0 -1.55323495 0 0 -1.54224775 
0 0 -1.52105815 0 0 -1.53312445 0 0 -1.49113765 
0 0 -1.49211865 0 0 -1.48770415 0 0 -1.47338155 
0 0 -1.47338155 0 0 -1.47014425 0 0 -1.48358395 
0 0 -1.46572975 0 0 -1.47338155 0 0 -1.44444205 
0 0 -1.44159715 0 0 -1.41844555 0 0 -1.43325865 
0 0 -1.41658165 0 0 -1.41844555 0 0 -1.41795505 
0 0 -1.39480345 0 0 -1.40863555 0 0 -1.40019895 
0 0 -1.36576585 0 0 -1.36527535 0 0 -1.34781355 
0 0 -1.33927885 0 0 -1.34693065 0 0 -1.34447815 
0 0 -1.32191515 0 0 -1.32495625 0 0 -1.27404235 
0 0 -1.29699775 0 0 -1.29621295 0 0 -1.26658675 
0 0 -1.26629245 0 0 -1.24628005 0 0 -1.24726105 
0 0 -1.27051075 0 0 -1.22528665 0 0 -1.21792915 
0 0 -1.19203075 0 0 -1.20537235 0 0 -1.18349605 
0 0 -1.19310985 0 0 -1.18457515 0 0 -1.19252125 
0 0 -1.15367365 0 0 -1.15063255 0 0 -1.17486325 
0 0 -1.14886675 0 0 -1.14611995 0 0 -1.11718045 
0 0 -1.14199975 0 0 -1.12130065 0 0 -1.12816765 
0 0 -1.13209165 0 0 -1.13493655 0 0 -1.08539605 
0 0 -1.08058915 0 0 -1.08382645 0 0 -1.06538365 
0 0 -1.06714945 0 0 -1.04654845 0 0 -1.06126345 
0 0 -1.03752325 0 0 -1.04468455 0 0 -1 
0 0 -1 0 0 -1 0 0 -1 
0 0 -1 0 0 -1 
f 3 140 double
0 0 -0.00034671401923 -0.27578609033 0.0035571598006 1.2483280211 0 0 -0.00034671401923 
0 0 -0.0016051574964 0 0 -0.00034671401923 0 0 -0.00034671401923 
-0.38849962166 -0.07017098211 1.1184622156 0 0 -0.00034671401923 0 0 -0.00034671401923 
0 0 -0.0016051574964 0 0 -0.0016051574964 0 0 -0.00034671401923 
0 0 -0.00034671401923 0 0 -0.00034671401923 0 0 -0.00034671401923 
0 0 -0.00034671401923 0 0 -0.00034671401923 0 0 -0.0016051574964 
0 0 -0.00034671401923 0 0 -0.00034671401923 0 0 -0.00034671401923 
0 0 -0.00034671401923 0 0 -0.0016051574964 0 0 -0.0016051574964 
0 0 -0.0016051574964 0 0 -0.00034671401923 0 0 -0.0016051574964 
0 0 -0.0016051574964 0 0 -0.0016051574964 0 0 -0.00034671401923 
0 0 -0.00034671401923 0 0 -0.0016051574964 0 0 -0.00034671401923 
0 0 -0.00034671401923 0 0 -0.00034671401923 0 0 -0.00034671401923 
0 0 -0.00034671401923 0 0 -0.0016051574964 0 0 -0.00034671401923 
0 0 -0.00034671401923 0 0 -0.0016051574964 0 0 -0.00034671401923 
0 0 -0.00034671401923 0 0 -0.00034671401923 0 0 -0.00034671401923 
0 0 -0.00034671401923 0 0 -0.0016051574964 0 0 -0.0016051574964 
0 0 -0.00034671401923 0 0 -0.0016051574964 0 0 -0.0016051574964 
0 0 -0.00034671401923 0 0 -0.00034671401923 0 0 -0.0016051574964 
0 0 -0.00034671401923 0 0 -0.00034671401923 0 0 -0.0016051574964 
0 0 -0.0016051574964 0 0 -0.00034671401923 0 0 -0.0016051574964 
0 0 -0.00034671401923 0 0 -0.00034671401923 0 0 -0.00034671401923 
0 0 -0.00034671401923 0 0 -0.00034671401923 0 0 -0.00034671401923 
0 0 -0.0016051574964 0 0 -0.0016051574964 0 0 -0.00034671401923 
0 0 -0.00034671401923 0 0 -0.00034671401923 0 0 -0.00034671401923 
0 0 -0.00034671401923 0 0 -0.00034671401923 0 0 -0.0016051574964 
0 0 -0.00034671401923 0 0 -0.0016051574964 0 0 -0.00034671401923 
0 0 -0.0016051574964 0 0 -0.00034671401923 0 0 -0.00034671401923 
0 0 -0.00034671401923 0 0 -0.00034671401923 0 0 -0.0016051574964 
0 0 -0.0016051574964 0 0 -0.00034671401923 0 0 -0.00034671401923 
0 0 -0.0016051574964 0 0 -0.00034671401923 0 0 -0.00034671401923 
0 0 -0.00034671401923 0 0 -0.00034671401923 0 0 -0.00034671401923 
0 0 -0.00034671401923 0 0 -0.00034671401923 0 0 -0.0016051574964 
0 0 -0.00034671401923 0 0 -0.0016051574964 0 0 -0.0016051574964 
0 0 -0.00034671401923 0 0 -0.00034671401923 0 0 -0.00034671401923 
0 0 -0.00034671401923 0 0 -0.00034671401923 0 0 -0.0016051574964 
0 0 -0.0016051574964 0 0 -0.0016051574964 0 0 -0.00034671401923 
0 0 -0.00034671401923 0 0 -0.00034671401923 0 0 -0.00034671401923 
0 0 -0.00034671401923 0 0 -0.0016051574964 0 0 -0.0016051574964 
0 0 -0.00034671401923 0 0 -0.00034671401923 0 0 -0.00034671401923 
0 0 -0.0016051574964 0 0 -0.0016051574964 0 0 -0.00034671401923 
0 0 -0.0016051574964 0 0 -0.00034671401923 0 0 -0.0016051574964 
0 0 -0.00034671401923 0 0 -0.0016051574964 0 0 -0.00034671401923 
0 0 -0.00034671401923 0 0 -0.00034671401923 0 0 -0.00034671401923 
0 0 -0.00034671401923 0 0 -0.00034671401923 0 0 -0.0016051574964 
0 0 -0.00034671401923 0 0 -0.0016051574964 0 0 0 
0 0 0 0 0 0 0 0 0 
0 0 0 0 0 0 
radius 1 140 double
0.0015 0.0025 0.0015 0.0025 0.0015 0.0015 0.0025 0.0015 0.0015 
0.0025 0.0025 0.0015 0.0015 0.0015 0.0015 0.0015 0.0015 0.0025 
0.0015 0.0015 0.0015 0.0015 0.0025 0.0025 0.0025 0.0015 0.0025 
0.0025 0.0025 0.0015 0.0015 0.0025 0.0015 0.0015 0.0015 0.0015 
0.0015 0.0025 0.0015 0.0015 0.0025 0.0015 0.0015 0.0015 0.0015 
0.0015 0.0025 0.0025 0.0015 0.0025 0.0025 0.0015 0.0015 0.0025 
0.0015 0.0015 0.0025 0.0025 0.0015 0.0025 0.0015 0.0015 0.0015 
0.0015 0.0015 0.0015 0.0025 0.0025 0.0015 0.0015 0.0015 0.0015 
0.0015 0.0015 0.0025 0.0015 0.0025 0.0015 0.0025 0.0015 0.0015 
0.0015 0.0015 0.0025 0.0025 0.0015 0.0015 0.0025 0.0015 0.0015 
0.0015 0.0015 0.0015 0.0015 0.0015 0.0025 0.0015 0.0025 0.0025 
0.0015 0.0015 0.0015 0.0015 0.0015 0.0025 0.0025 0.0025 0.0015 
0.0015 0.0015 0.0015 0.0015 0.0025 0.0025 0.0015 0.0015 0.0015 
0.0025 0.0025 0.0015 0.0025 0.0015 0.0025 0.0015 0.0025 0.0015 
0.0015 0.0015 0.0015 0.0015 0.0015 0.0025 0.0015 0.0025 0.0025 
0.0015 0.0025 0.0015 0.0025 0.0015 
omega 3 140 double
0 0 0 -2.8981389079 -224.69229482 2.9017596692e-16 87.775431565 -375.81974153 6.0377299216e-14 
90.90835954 -150.35114984 28.8696814 -65.881516809 -368.72484029 -1.4284031096e-14 0 0 0 
54.949019301 -304.22366293 -1.2070902496e-15 0 0 0 291.92446398 572.56011813 220.35598303 
0 0 0 0 0 0 0 0 0 
0 0 0 0 0 0 0 0 0 
0 0 0 0 0 0 0 0 0 
0 0 0 0 0 0 0 0 0 
0 0 0 0 0 0 0 0 0 
0 0 0 0 0 0 0 0 0 
0 0 0 0 0 0 0 0 0 
0 0 0 0 0 0 0 0 0 
0 0 0 0 0 0 0 0 0 
0 0 0 0 0 0 0 0 0 
0 0 0 0 0 0 0 0 0 
0 0 0 0 0 0 0 0 0 
0 0 0 0 0 0 0 0 0 
0 0 0 0 0 0 0 0 0 
0 0 0 0 0 0 0 0 0 
0 0 0 0 0 0 0 0 0 
0 0 0 0 0 0 0 0 0 
0 0 0 0 0 0 0 0 0 
0 0 0 0 0 0 0 0 0 
0 0 0 0 0 0 0 0 0 
0 0 0 0 0 0 0 0 0 
0 0 0 0 0 0 0 0 0 
0 0 0 0 0 0 0 0 0 
0 0 0 0 0 0 0 0 0 
0 0 0 0 0 0 0 0 0 
0 0 0 0 0 0 0 0 0 
0 0 0 0 0 0 0 0 0 
0 0 0 0 0 0 0 0 0 
0 0 0 0 0 0 0 0 0 
0 0 0 0 0 0 0 0 0 
0 0 0 0 0 0 0 0 0 
0 0 0 0 0 0 0 0 0 
0 0 0 0 0 0 0 0 0 
0 0 0 0 0 0 0 0 0 
0 0 0 0 0 0 0 0 0 
0 0 0 0 0 0 0 0 0 
0 0 0 0 0 0 0 0 0 
0 0 0 0 0 0 0 0 0 
0 0 0 0 0 0 0 0 0 
0 0 0 0 0 0 0 0 0 
0 0 0 0 0 0 0 0 0 
0 0 0 0 0 0 0 0 0 
0 0 0 0 0 0 0 0 0 
0 0 0 0 0 0 
