# vtk DataFile Version 4.1
Generated by LIGGGHTS
ASCII
DATASET POLYDATA
POINTS 38 float
-0.00462371 0.0206347 0.0235661 -0.00894204 -0.016163 0.0253492 -0.0299058 -0.00882918 0.0247569 
-0.0208226 -0.00599195 0.0239795 -0.0190478 0.013684 0.0260008 -0.0160886 0.0216478 0.0257577 
-0.00174714 0.0260627 0.0242599 -0.00953586 0.00971988 0.0284169 -0.00217367 0.0240852 0.0285693 
-0.0134792 -0.0343741 0.0330687 -0.00618745 -0.0313193 0.0323445 -0.0106535 -0.0244251 0.0314457 
-0.0124546 0.031784 0.0323169 -0.028663 -0.019004 0.0377419 -0.0214597 -0.00448395 0.036477 
-0.0244429 0.0229939 0.0362797 -0.0202974 -0.0199605 0.040764 -0.0101549 -0.0158816 0.0385775 
-0.0219947 -0.0107694 0.0412835 -0.0275046 -0.000700049 0.0391704 -0.0083641 0.00277185 0.039604 
-0.00857183 -0.027925 0.043198 -0.00408721 -0.0194644 0.0448124 -0.00454319 0.0203252 0.0438156 
-0.00174502 0.0344165 0.0449343 -0.0159102 -0.0341757 0.0468299 -0.0327631 -0.0200888 0.0486379 
-0.0159539 -0.00381092 0.0482077 -0.0300659 -0.00019371 0.0483522 -0.0235267 0.0224168 0.0485586 
-0.0230202 -0.021037 0.0504501 -0.000459601 -0.00791581 0.052348 -0.0229734 0.000876534 0.0508505 
-0.0221714 0.00979368 0.0524905 -0.020721 -0.0135944 0.0530261 -0.0127396 -0.0137041 0.0532215 
-0.0160817 -0.000243398 0.0557396 -0.0240929 0.0291618 0.0537479 
VERTICES 38 76
1 0 
1 1 
1 2 
1 3 
1 4 
1 5 
1 6 
1 7 
1 8 
1 9 
1 10 
1 11 
1 12 
1 13 
1 14 
1 15 
1 16 
1 17 
1 18 
1 19 
1 20 
1 21 
1 22 
1 23 
1 24 
1 25 
1 26 
1 27 
1 28 
1 29 
1 30 
1 31 
1 32 
1 33 
1 34 
1 35 
1 36 
1 37 

POINT_DATA 38
FIELD FieldData 7
id 1 38 int
7 12 10 2 6 4 1 8 9 
3 13 5 11 20 19 22 23 18 
25 16 21 24 15 14 17 38 30 
29 28 33 35 26 31 37 32 36 
27 34 
type 1 38 int
1 1 1 1 1 1 1 1 1 
1 1 1 1 1 1 1 1 1 
1 1 1 1 1 1 1 1 1 
1 1 1 1 1 1 1 1 1 
1 1 
i 3 38 int
0 0 0 0 0 0 0 0 0 
0 0 0 0 0 0 0 0 0 
0 0 0 0 0 0 0 0 0 
0 0 0 0 0 0 0 0 0 
0 0 0 0 0 0 0 0 0 
0 0 0 0 0 0 0 0 0 
0 0 0 0 0 0 0 0 0 
0 0 0 0 0 0 0 0 0 
0 0 0 0 0 0 0 0 0 
0 0 0 0 0 0 0 0 0 
0 0 0 0 0 0 0 0 0 
0 0 0 0 0 0 0 0 0 
0 0 0 0 0 0 
v 3 38 double
0 0 -1.23234985 0 0 -1.21802725 0 0 -1.22283415 
0 0 -1.22901445 0 0 -1.21282795 0 0 -1.21478995 
0 0 -1.22675815 0 0 -1.19310985 0 0 -1.19183455 
0 0 -1.15416415 0 0 -1.16034445 0 0 -1.16789815 
0 0 -1.16054065 0 0 -1.11374695 0 0 -1.12483225 
0 0 -1.12659805 0 0 -1.08686755 0 0 -1.10638945 
0 0 -1.08215875 0 0 -1.10109205 0 0 -1.09726615 
0 0 -1.06459885 0 0 -1.04968765 0 0 -1.05890905 
0 0 -1.04851045 0 0 -1.03065625 0 0 -1.01329255 
0 0 -1.01741275 0 0 -1.01603935 0 0 -1.01407735 
0 0 -1 0 0 -1 0 0 -1 
0 0 -1 0 0 -1 0 0 -1 
0 0 -1 0 0 -1 
f 3 38 double
0 0 -0.00034671401923 0 0 -0.00034671401923 0 0 -0.00034671401923 
0 0 -0.0016051574964 0 0 -0.00034671401923 0 0 -0.0016051574964 
0 0 -0.0016051574964 0 0 -0.00034671401923 0 0 -0.00034671401923 
0 0 -0.0016051574964 0 0 -0.00034671401923 0 0 -0.0016051574964 
0 0 -0.00034671401923 0 0 -0.00034671401923 0 0 -0.00034671401923 
0 0 -0.00034671401923 0 0 -0.00034671401923 0 0 -0.00034671401923 
0 0 -0.00034671401923 0 0 -0.0016051574964 0 0 -0.00034671401923 
0 0 -0.00034671401923 0 0 -0.0016051574964 0 0 -0.0016051574964 
0 0 -0.0016051574964 0 0 -0.00034671401923 0 0 -0.0016051574964 
0 0 -0.0016051574964 0 0 -0.0016051574964 0 0 -0.00034671401923 
0 0 0 0 0 0 0 0 0 
0 0 0 0 0 0 0 0 0 
0 0 0 0 0 0 
radius 1 38 double
0.0015 0.0015 0.0015 0.0025 0.0015 0.0025 0.0025 0.0015 0.0015 
0.0025 0.0015 0.0025 0.0015 0.0015 0.0015 0.0015 0.0015 0.0015 
0.0015 0.0025 0.0015 0.0015 0.0025 0.0025 0.0025 0.0015 0.0025 
0.0025 0.0025 0.0015 0.0015 0.0025 0.0015 0.0015 0.0015 0.0015 
0.0025 0.0015 
omega 3 38 double
0 0 0 0 0 0 0 0 0 
0 0 0 0 0 0 0 0 0 
0 0 0 0 0 0 0 0 0 
0 0 0 0 0 0 0 0 0 
0 0 0 0 0 0 0 0 0 
0 0 0 0 0 0 0 0 0 
0 0 0 0 0 0 0 0 0 
0 0 0 0 0 0 0 0 0 
0 0 0 0 0 0 0 0 0 
0 0 0 0 0 0 0 0 0 
0 0 0 0 0 0 0 0 0 
0 0 0 0 0 0 0 0 0 
0 0 0 0 0 0 
