# vtk DataFile Version 4.1
Generated by LIGGGHTS
ASCII
DATASET POLYDATA
POINTS 127 float
-0.0208226 -0.00599195 -0.0899371 -0.00462371 0.0206347 -0.0905906 -0.00174714 0.0260627 -0.0894942 
-0.00894204 -0.016163 -0.0877763 -0.0299058 -0.00882918 -0.0887147 -0.0190478 0.013684 -0.0867503 
-0.0160886 0.0216478 -0.0871347 -0.00953586 0.00971988 -0.0829145 -0.00217367 0.0240852 -0.0826703 
-0.0134792 -0.0343741 -0.0754586 -0.00618745 -0.0313193 -0.0766279 -0.0106535 -0.0244251 -0.0780705 
-0.0124546 0.031784 -0.0766695 -0.028663 -0.019004 -0.0678754 -0.0214597 -0.00448395 -0.0699384 
-0.0244429 0.0229939 -0.0702629 -0.0101549 -0.0158816 -0.06651 -0.0275046 -0.000700049 -0.0655357 
-0.0083641 0.00277185 -0.0648267 -0.0202974 -0.0199605 -0.062918 -0.0219947 -0.0107694 -0.0620595 
-0.00857183 -0.027925 -0.0588807 -0.00454319 0.0203252 -0.0578533 -0.0159102 -0.0341757 -0.0528048 
-0.00408721 -0.0194644 -0.0561926 -0.00174502 0.0344165 -0.0559859 -0.0327631 -0.0200888 -0.0497467 
-0.0159539 -0.00381092 -0.0504736 -0.0300659 -0.00019371 -0.0502302 -0.0235267 0.0224168 -0.0498824 
-0.0230202 -0.021037 -0.0466571 -0.0229734 0.000876534 -0.0459767 -0.020721 -0.0135944 -0.0423097 
-0.0127396 -0.0137041 -0.0419792 -0.000459601 -0.00791581 -0.0434502 -0.0221714 0.00979368 -0.0432053 
-0.0240929 0.0291618 -0.0411032 -0.0160817 -0.000243398 -0.0377985 -0.0306884 0.0042356 -0.0310234 
-0.027916 0.0296421 -0.0307046 -0.0175025 -0.0228838 -0.0290723 -0.022804 -0.0140579 -0.0279368 
-0.0251247 -0.00571197 -0.0284184 -0.024531 -1.04943e-05 -0.0301423 -0.018642 0.00531382 -0.028911 
-0.0105626 -0.00654333 -0.0253302 -0.027846 0.00485213 -0.0235517 -0.0178022 0.0256262 -0.0235333 
-0.0294843 -0.0242442 -0.0214508 -0.00180681 0.0181929 -0.0230848 -0.021213 0.0304724 -0.0224875 
-0.0337701 0.0102173 -0.0177021 -0.0264294 0.0258143 -0.0165264 -0.0315539 0.028352 -0.0185369 
-0.0221544 -0.0267021 -0.0141714 -0.0188291 -0.0129094 -0.0139484 -0.0262531 0.00245318 -0.0148326 
-0.0274253 0.00637934 -0.0155152 -0.0284955 0.0109203 -0.0159077 -0.0046838 -0.0346092 -0.0101459 
-0.0205837 -0.0294247 -0.00898732 -0.00322644 -0.0143029 -0.0104095 -0.0181818 0.00594264 -0.00603498 
-0.00206763 0.0123655 -0.00836785 -0.0315184 0.0323336 -0.00712296 -0.00317446 -0.00327501 -0.00371772 
-0.0113639 0.00609324 -0.00404693 -0.0237558 0.020832 -0.00406142 -0.0233787 0.0259916 -0.00246228 
-0.00618278 0.0247152 -0.00113793 -0.0101315 -0.0171842 0.000589259 -0.00512449 -0.0296766 0.00483208 
-0.0132118 -0.0121788 0.00468613 -0.0226093 -0.00790771 0.00530878 -0.0176419 0.0252752 0.00588225 
-0.00331379 -0.00673963 0.00729718 -0.0203284 0.0149576 0.0072993 -0.0332492 0.0212435 0.00774947 
-0.025261 0.030812 0.00835522 -0.0088354 0.0340944 0.0072932 -0.006758 -0.00417797 0.0127616 
-0.0255344 0.010562 0.0112513 -0.0156099 0.0123479 0.0116418 -0.0166674 -0.0199684 0.014739 
-0.016039 -0.000886859 0.0149867 -0.0199892 0.00645928 0.0160326 -0.0136151 0.0110949 0.014734 
-0.0302008 0.015853 0.0148041 -0.0118987 0.0289343 0.0171351 -0.0138041 -0.0299263 0.0178409 
-0.0267621 -0.0219194 0.0238493 -0.0135716 -0.00811727 0.0215796 -0.020149 -0.00685329 0.0249161 
-0.00739645 0.00376164 0.0216439 -0.0141771 0.0177987 0.0239535 -0.00471042 0.0296342 0.0242603 
-0.00791609 -0.0196794 0.0270592 -0.0179545 0.0159092 0.0266825 -0.00439906 -0.0328903 0.0300899 
-0.0296076 0.00722911 0.0301845 -0.016986 -0.0318376 0.0328236 -0.0281298 -0.0148599 0.0336947 
-0.0161861 -0.00599108 0.0337286 -0.0292679 0.0147935 0.0360511 -0.00205293 0.0165512 0.0359412 
-0.0227935 0.0274334 0.0332365 -0.0305301 0.00502779 0.0384461 -0.00405648 0.032442 0.0392717 
-0.0135333 -0.0276689 0.0421398 -0.0112712 -0.0202504 0.0406712 -0.0331337 -0.0163611 0.043074 
-2.29018e-06 -0.0149558 0.0420297 -0.0273798 -0.00441029 0.042955 -0.00301846 0.00510814 0.0420919 
-0.0143544 -0.0272787 0.0470633 -0.0191843 -0.0221491 0.0462699 -0.0125841 -0.0140137 0.0465859 
-0.00794441 0.0258079 0.0440079 -0.0336091 0.0316877 0.0467758 -0.00679321 -0.00970412 0.0500564 
-0.0125785 -0.0040947 0.0474998 -0.0316214 0.000145103 0.049639 -0.0217323 0.00352617 0.0489331 
-0.0148309 0.00369911 0.0485277 -0.00193271 0.00892872 0.0482322 -0.0227292 -0.0342527 0.0532914 
-0.026321 0.0295451 0.0534568 
VERTICES 127 254
1 0 
1 1 
1 2 
1 3 
1 4 
1 5 
1 6 
1 7 
1 8 
1 9 
1 10 
1 11 
1 12 
1 13 
1 14 
1 15 
1 16 
1 17 
1 18 
1 19 
1 20 
1 21 
1 22 
1 23 
1 24 
1 25 
1 26 
1 27 
1 28 
1 29 
1 30 
1 31 
1 32 
1 33 
1 34 
1 35 
1 36 
1 37 
1 38 
1 39 
1 40 
1 41 
1 42 
1 43 
1 44 
1 45 
1 46 
1 47 
1 48 
1 49 
1 50 
1 51 
1 52 
1 53 
1 54 
1 55 
1 56 
1 57 
1 58 
1 59 
1 60 
1 61 
1 62 
1 63 
1 64 
1 65 
1 66 
1 67 
1 68 
1 69 
1 70 
1 71 
1 72 
1 73 
1 74 
1 75 
1 76 
1 77 
1 78 
1 79 
1 80 
1 81 
1 82 
1 83 
1 84 
1 85 
1 86 
1 87 
1 88 
1 89 
1 90 
1 91 
1 92 
1 93 
1 94 
1 95 
1 96 
1 97 
1 98 
1 99 
1 100 
1 101 
1 102 
1 103 
1 104 
1 105 
1 106 
1 107 
1 108 
1 109 
1 110 
1 111 
1 112 
1 113 
1 114 
1 115 
1 116 
1 117 
1 118 
1 119 
1 120 
1 121 
1 122 
1 123 
1 124 
1 125 
1 126 

POINT_DATA 127
FIELD FieldData 7
id 1 127 int
2 7 1 12 10 6 4 8 9 
3 13 5 11 20 19 22 18 16 
21 23 25 24 14 38 15 17 30 
29 28 33 35 31 32 36 26 37 
34 27 42 44 50 47 51 49 48 
45 43 46 40 39 41 60 61 56 
54 53 59 64 55 52 62 63 73 
58 57 72 65 67 69 71 75 76 
70 77 74 68 86 66 80 84 81 
85 82 87 78 89 90 88 83 79 
100 98 95 99 96 92 101 91 97 
102 93 110 113 114 104 94 106 107 
109 111 112 108 105 103 115 120 121 
127 117 123 118 126 119 124 116 125 
122 
type 1 127 int
1 1 1 1 1 1 1 1 1 
1 1 1 1 1 1 1 1 1 
1 1 1 1 1 1 1 1 1 
1 1 1 1 1 1 1 1 1 
1 1 1 1 1 1 1 1 1 
1 1 1 1 1 1 1 1 1 
1 1 1 1 1 1 1 1 1 
1 1 1 1 1 1 1 1 1 
1 1 1 1 1 1 1 1 1 
1 1 1 1 1 1 1 1 1 
1 1 1 1 1 1 1 1 1 
1 1 1 1 1 1 1 1 1 
1 1 1 1 1 1 1 1 1 
1 1 1 1 1 1 1 1 1 
1 
i 3 127 int
0 0 0 0 0 0 0 0 0 
0 0 0 0 0 0 0 0 0 
0 0 0 0 0 0 0 0 0 
0 0 0 0 0 0 0 0 0 
0 0 0 0 0 0 0 0 0 
0 0 0 0 0 0 0 0 0 
0 0 0 0 0 0 0 0 0 
0 0 0 0 0 0 0 0 0 
0 0 0 0 0 0 0 0 0 
0 0 0 0 0 0 0 0 0 
0 0 0 0 0 0 0 0 0 
0 0 0 0 0 0 0 0 0 
0 0 0 0 0 0 0 0 0 
0 0 0 0 0 0 0 0 0 
0 0 0 0 0 0 0 0 0 
0 0 0 0 0 0 0 0 0 
0 0 0 0 0 0 0 0 0 
0 0 0 0 0 0 0 0 0 
0 0 0 0 0 0 0 0 0 
0 0 0 0 0 0 0 0 0 
0 0 0 0 0 0 0 0 0 
0 0 0 0 0 0 0 0 0 
0 0 0 0 0 0 0 0 0 
0 0 0 0 0 0 0 0 0 
0 0 0 0 0 0 0 0 0 
0 0 0 0 0 0 0 0 0 
0 0 0 0 0 0 0 0 0 
0 0 0 0 0 0 0 0 0 
0 0 0 0 0 0 0 0 0 
0 0 0 0 0 0 0 0 0 
0 0 0 0 0 0 0 0 0 
0 0 0 0 0 0 0 0 0 
0 0 0 0 0 0 0 0 0 
0 0 0 0 0 0 0 0 0 
0 0 0 0 0 0 0 0 0 
0 0 0 0 0 0 0 0 0 
0 0 0 0 0 0 0 0 0 
0 0 0 0 0 0 0 0 0 
0 0 0 0 0 0 0 0 0 
0 0 0 0 0 0 0 0 0 
0 0 0 0 0 0 0 0 0 
0 0 0 0 0 0 0 0 0 
0 0 0 
v 3 127 double
0 0 -1.93533445 0 0 -1.93866985 0 0 -1.93307815 
0 0 -1.92434725 0 0 -1.92915415 0 0 -1.91914795 
0 0 -1.92110995 0 0 -1.89942985 0 0 -1.89815455 
0 0 -1.86048415 0 0 -1.86666445 0 0 -1.87421815 
0 0 -1.86686065 0 0 -1.82006695 0 0 -1.83115225 
0 0 -1.83291805 0 0 -1.81270945 0 0 -1.80741205 
0 0 -1.80358615 0 0 -1.79318755 0 0 -1.78847875 
0 0 -1.77091885 0 0 -1.76522905 0 0 -1.73697625 
0 0 -1.75600765 0 0 -1.75483045 0 0 -1.71961255 
0 0 -1.72373275 0 0 -1.72235935 0 0 -1.72039735 
0 0 -1.70185645 0 0 -1.69793245 0 0 -1.67664475 
0 0 -1.67468275 0 0 -1.68331555 0 0 -1.68184405 
0 0 -1.66958155 0 0 -1.65005965 0 0 -1.60925005 
0 0 -1.60728805 0 0 -1.59728185 0 0 -1.59031675 
0 0 -1.59325975 0 0 -1.60385455 0 0 -1.59630085 
0 0 -1.57413025 0 0 -1.56304495 0 0 -1.56294685 
0 0 -1.54980145 0 0 -1.56010195 0 0 -1.55637415 
0 0 -1.52586505 0 0 -1.51831135 0 0 -1.53126055 
0 0 -1.50300775 0 0 -1.50153625 0 0 -1.50732415 
0 0 -1.51173865 0 0 -1.51428925 0 0 -1.47652075 
0 0 -1.46877085 0 0 -1.47828655 0 0 -1.44895465 
0 0 -1.46465065 0 0 -1.45631215 0 0 -1.43316055 
0 0 -1.43541685 0 0 -1.43551495 0 0 -1.42452775 
0 0 -1.41540445 0 0 -1.40333815 0 0 -1.37341765 
0 0 -1.37439865 0 0 -1.36998415 0 0 -1.36586395 
0 0 -1.35566155 0 0 -1.35566155 0 0 -1.35242425 
0 0 -1.34800975 0 0 -1.35566155 0 0 -1.31553865 
0 0 -1.32672205 0 0 -1.32387715 0 0 -1.30072555 
0 0 -1.29886165 0 0 -1.29091555 0 0 -1.30072555 
0 0 -1.30023505 0 0 -1.28247895 0 0 -1.27708345 
0 0 -1.23009355 0 0 -1.24804585 0 0 -1.22155885 
0 0 -1.24755535 0 0 -1.22921065 0 0 -1.22675815 
0 0 -1.20419515 0 0 -1.20723625 0 0 -1.17927775 
0 0 -1.17849295 0 0 -1.15632235 0 0 -1.14886675 
0 0 -1.14857245 0 0 -1.12856005 0 0 -1.12954105 
0 0 -1.15279075 0 0 -1.10756665 0 0 -1.10020915 
0 0 -1.07431075 0 0 -1.08765235 0 0 -1.06577605 
0 0 -1.07538985 0 0 -1.06685515 0 0 -1.07480125 
0 0 -1.02839995 0 0 -1.03595365 0 0 -1.03291255 
0 0 -1.05714325 0 0 -1.03114675 0 0 -1 
0 0 -1.02427975 0 0 -1.00358065 0 0 -1.01044765 
0 0 -1.01437165 0 0 -1.01721655 0 0 -1 
0 0 -1 
f 3 127 double
0 0 -0.0016051574964 0 0 -0.00034671401923 0 0 -0.0016051574964 
0 0 -0.00034671401923 0 0 -0.00034671401923 0 0 -0.00034671401923 
0 0 -0.0016051574964 0 0 -0.00034671401923 0 0 -0.00034671401923 
0 0 -0.0016051574964 0 0 -0.00034671401923 0 0 -0.0016051574964 
0 0 -0.00034671401923 0 0 -0.00034671401923 0 0 -0.00034671401923 
0 0 -0.00034671401923 0 0 -0.00034671401923 0 0 -0.0016051574964 
0 0 -0.00034671401923 0 0 -0.00034671401923 0 0 -0.00034671401923 
0 0 -0.00034671401923 0 0 -0.0016051574964 0 0 -0.00034671401923 
0 0 -0.0016051574964 0 0 -0.0016051574964 0 0 -0.0016051574964 
0 0 -0.0016051574964 0 0 -0.0016051574964 0 0 -0.00034671401923 
0 0 -0.00034671401923 0 0 -0.00034671401923 0 0 -0.00034671401923 
0 0 -0.00034671401923 0 0 -0.0016051574964 0 0 -0.00034671401923 
0 0 -0.00034671401923 0 0 -0.0016051574964 0 0 -0.0016051574964 
0 0 -0.00034671401923 0 0 -0.00034671401923 0 0 -0.00034671401923 
0 0 -0.00034671401923 0 0 -0.00034671401923 0 0 -0.00034671401923 
0 0 -0.00034671401923 0 0 -0.0016051574964 0 0 -0.00034671401923 
0 0 -0.0016051574964 0 0 -0.0016051574964 0 0 -0.0016051574964 
0 0 -0.00034671401923 0 0 -0.00034671401923 0 0 -0.00034671401923 
0 0 -0.0016051574964 0 0 -0.0016051574964 0 0 -0.00034671401923 
0 0 -0.00034671401923 0 0 -0.0016051574964 0 0 -0.0016051574964 
0 0 -0.00034671401923 0 0 -0.00034671401923 0 0 -0.00034671401923 
0 0 -0.00034671401923 0 0 -0.00034671401923 0 0 -0.00034671401923 
0 0 -0.0016051574964 0 0 -0.0016051574964 0 0 -0.00034671401923 
0 0 -0.00034671401923 0 0 -0.00034671401923 0 0 -0.00034671401923 
0 0 -0.00034671401923 0 0 -0.00034671401923 0 0 -0.00034671401923 
0 0 -0.0016051574964 0 0 -0.00034671401923 0 0 -0.0016051574964 
0 0 -0.0016051574964 0 0 -0.00034671401923 0 0 -0.0016051574964 
0 0 -0.00034671401923 0 0 -0.00034671401923 0 0 -0.00034671401923 
0 0 -0.0016051574964 0 0 -0.00034671401923 0 0 -0.00034671401923 
0 0 -0.00034671401923 0 0 -0.00034671401923 0 0 -0.0016051574964 
0 0 -0.00034671401923 0 0 -0.00034671401923 0 0 -0.00034671401923 
0 0 -0.00034671401923 0 0 -0.00034671401923 0 0 -0.0016051574964 
0 0 -0.00034671401923 0 0 -0.0016051574964 0 0 -0.00034671401923 
0 0 -0.00034671401923 0 0 -0.0016051574964 0 0 -0.00034671401923 
0 0 -0.00034671401923 0 0 -0.00034671401923 0 0 -0.0016051574964 
0 0 -0.0016051574964 0 0 -0.0016051574964 0 0 -0.00034671401923 
0 0 -0.00034671401923 0 0 -0.00034671401923 0 0 -0.00034671401923 
0 0 -0.00034671401923 0 0 -0.0016051574964 0 0 -0.0016051574964 
0 0 -0.0016051574964 0 0 -0.00034671401923 0 0 -0.00034671401923 
0 0 -0.00034671401923 0 0 -0.0016051574964 0 0 0 
0 0 -0.0016051574964 0 0 -0.00034671401923 0 0 -0.0016051574964 
0 0 -0.00034671401923 0 0 -0.0016051574964 0 0 0 
0 0 0 
radius 1 127 double
0.0025 0.0015 0.0025 0.0015 0.0015 0.0015 0.0025 0.0015 0.0015 
0.0025 0.0015 0.0025 0.0015 0.0015 0.0015 0.0015 0.0015 0.0025 
0.0015 0.0015 0.0015 0.0015 0.0025 0.0015 0.0025 0.0025 0.0025 
0.0025 0.0025 0.0015 0.0015 0.0015 0.0015 0.0015 0.0025 0.0015 
0.0015 0.0025 0.0025 0.0015 0.0015 0.0015 0.0015 0.0015 0.0015 
0.0015 0.0025 0.0015 0.0025 0.0025 0.0025 0.0015 0.0015 0.0015 
0.0025 0.0025 0.0015 0.0015 0.0025 0.0025 0.0015 0.0015 0.0015 
0.0015 0.0015 0.0015 0.0025 0.0025 0.0015 0.0015 0.0015 0.0015 
0.0015 0.0015 0.0015 0.0025 0.0015 0.0025 0.0025 0.0015 0.0025 
0.0015 0.0015 0.0015 0.0025 0.0015 0.0015 0.0015 0.0015 0.0025 
0.0015 0.0015 0.0015 0.0015 0.0015 0.0025 0.0015 0.0025 0.0015 
0.0015 0.0025 0.0015 0.0015 0.0015 0.0025 0.0025 0.0025 0.0015 
0.0015 0.0015 0.0015 0.0015 0.0025 0.0025 0.0025 0.0015 0.0015 
0.0015 0.0025 0.0015 0.0025 0.0015 0.0025 0.0015 0.0025 0.0015 
0.0015 
omega 3 127 double
0 0 0 0 0 0 0 0 0 
0 0 0 0 0 0 0 0 0 
0 0 0 0 0 0 0 0 0 
0 0 0 0 0 0 0 0 0 
0 0 0 0 0 0 0 0 0 
0 0 0 0 0 0 0 0 0 
0 0 0 0 0 0 0 0 0 
0 0 0 0 0 0 0 0 0 
0 0 0 0 0 0 0 0 0 
0 0 0 0 0 0 0 0 0 
0 0 0 0 0 0 0 0 0 
0 0 0 0 0 0 0 0 0 
0 0 0 0 0 0 0 0 0 
0 0 0 0 0 0 0 0 0 
0 0 0 0 0 0 0 0 0 
0 0 0 0 0 0 0 0 0 
0 0 0 0 0 0 0 0 0 
0 0 0 0 0 0 0 0 0 
0 0 0 0 0 0 0 0 0 
0 0 0 0 0 0 0 0 0 
0 0 0 0 0 0 0 0 0 
0 0 0 0 0 0 0 0 0 
0 0 0 0 0 0 0 0 0 
0 0 0 0 0 0 0 0 0 
0 0 0 0 0 0 0 0 0 
0 0 0 0 0 0 0 0 0 
0 0 0 0 0 0 0 0 0 
0 0 0 0 0 0 0 0 0 
0 0 0 0 0 0 0 0 0 
0 0 0 0 0 0 0 0 0 
0 0 0 0 0 0 0 0 0 
0 0 0 0 0 0 0 0 0 
0 0 0 0 0 0 0 0 0 
0 0 0 0 0 0 0 0 0 
0 0 0 0 0 0 0 0 0 
0 0 0 0 0 0 0 0 0 
0 0 0 0 0 0 0 0 0 
0 0 0 0 0 0 0 0 0 
0 0 0 0 0 0 0 0 0 
0 0 0 0 0 0 0 0 0 
0 0 0 0 0 0 0 0 0 
0 0 0 0 0 0 0 0 0 
0 0 0 
