# vtk DataFile Version 4.1
Generated by LIGGGHTS
ASCII
DATASET POLYDATA
POINTS 38 float
-0.00462371 0.0206347 0.0185582 -0.00894204 -0.016163 0.0203986 -0.0299058 -0.00882918 0.0197871 
-0.0208226 -0.00599195 0.018985 -0.0190478 0.013684 0.021071 -0.0160886 0.0216478 0.0208201 
-0.00174714 0.0260627 0.0192744 -0.00953586 0.00971988 0.023566 -0.00217367 0.0240852 0.0237235 
-0.0134792 -0.0343741 0.0283736 -0.00618745 -0.0313193 0.0276246 -0.0106535 -0.0244251 0.0266957 
-0.0124546 0.031784 0.0275963 -0.028663 -0.019004 0.0332084 -0.0214597 -0.00448395 0.0318992 
-0.0244429 0.0229939 0.0316948 -0.0202974 -0.0199605 0.036338 -0.0101549 -0.0158816 0.0340735 
-0.0219947 -0.0107694 0.0368764 -0.0275046 -0.000700049 0.0346876 -0.0083641 0.00277185 0.0351364 
-0.00857183 -0.027925 0.0388611 -0.00408721 -0.0194644 0.0405352 -0.00454319 0.0203252 0.0395015 
-0.00174502 0.0344165 0.0406618 -0.0159102 -0.0341757 0.0426288 -0.0327631 -0.0200888 0.0445063 
-0.0159539 -0.00381092 0.0440595 -0.0300659 -0.00019371 0.0442095 -0.0235267 0.0224168 0.0444238 
-0.0230202 -0.021037 0.0463884 -0.000459601 -0.00791581 0.0483346 -0.0229734 0.000876534 0.046802 
-0.0221714 0.00979368 0.0484794 -0.020721 -0.0135944 0.0490214 -0.0127396 -0.0137041 0.0492185 
-0.0160817 -0.000243398 0.0517396 -0.0240929 0.0291618 0.0497476 
VERTICES 38 76
1 0 
1 1 
1 2 
1 3 
1 4 
1 5 
1 6 
1 7 
1 8 
1 9 
1 10 
1 11 
1 12 
1 13 
1 14 
1 15 
1 16 
1 17 
1 18 
1 19 
1 20 
1 21 
1 22 
1 23 
1 24 
1 25 
1 26 
1 27 
1 28 
1 29 
1 30 
1 31 
1 32 
1 33 
1 34 
1 35 
1 36 
1 37 

POINT_DATA 38
FIELD FieldData 7
id 1 38 int
7 12 10 2 6 4 1 8 9 
3 13 5 11 20 19 22 23 18 
25 16 21 24 15 14 17 38 30 
29 28 33 35 26 31 37 32 36 
27 34 
type 1 38 int
1 1 1 1 1 1 1 1 1 
1 1 1 1 1 1 1 1 1 
1 1 1 1 1 1 1 1 1 
1 1 1 1 1 1 1 1 1 
1 1 
i 3 38 int
0 0 0 0 0 0 0 0 0 
0 0 0 0 0 0 0 0 0 
0 0 0 0 0 0 0 0 0 
0 0 0 0 0 0 0 0 0 
0 0 0 0 0 0 0 0 0 
0 0 0 0 0 0 0 0 0 
0 0 0 0 0 0 0 0 0 
0 0 0 0 0 0 0 0 0 
0 0 0 0 0 0 0 0 0 
0 0 0 0 0 0 0 0 0 
0 0 0 0 0 0 0 0 0 
0 0 0 0 0 0 0 0 0 
0 0 0 0 0 0 
v 3 38 double
0 0 -1.27158985 0 0 -1.25726725 0 0 -1.26207415 
0 0 -1.26825445 0 0 -1.25206795 0 0 -1.25402995 
0 0 -1.26599815 0 0 -1.23234985 0 0 -1.23107455 
0 0 -1.19340415 0 0 -1.19958445 0 0 -1.20713815 
0 0 -1.19978065 0 0 -1.15298695 0 0 -1.16407225 
0 0 -1.16583805 0 0 -1.12610755 0 0 -1.14562945 
0 0 -1.12139875 0 0 -1.14033205 0 0 -1.13650615 
0 0 -1.10383885 0 0 -1.08892765 0 0 -1.09814905 
0 0 -1.08775045 0 0 -1.06989625 0 0 -1.05253255 
0 0 -1.05665275 0 0 -1.05527935 0 0 -1.05331735 
0 0 -1.03477645 0 0 -1.01623555 0 0 -1.03085245 
0 0 -1.01476405 0 0 -1.00956475 0 0 -1.00760275 
0 0 -1 0 0 -1.00250155 
f 3 38 double
0 0 -0.00034671401923 0 0 -0.00034671401923 0 0 -0.00034671401923 
0 0 -0.0016051574964 0 0 -0.00034671401923 0 0 -0.0016051574964 
0 0 -0.0016051574964 0 0 -0.00034671401923 0 0 -0.00034671401923 
0 0 -0.0016051574964 0 0 -0.00034671401923 0 0 -0.0016051574964 
0 0 -0.00034671401923 0 0 -0.00034671401923 0 0 -0.00034671401923 
0 0 -0.00034671401923 0 0 -0.00034671401923 0 0 -0.00034671401923 
0 0 -0.00034671401923 0 0 -0.0016051574964 0 0 -0.00034671401923 
0 0 -0.00034671401923 0 0 -0.0016051574964 0 0 -0.0016051574964 
0 0 -0.0016051574964 0 0 -0.00034671401923 0 0 -0.0016051574964 
0 0 -0.0016051574964 0 0 -0.0016051574964 0 0 -0.00034671401923 
0 0 -0.00034671401923 0 0 -0.0016051574964 0 0 -0.00034671401923 
0 0 -0.00034671401923 0 0 -0.00034671401923 0 0 -0.00034671401923 
0 0 0 0 0 -0.00034671401923 
radius 1 38 double
0.0015 0.0015 0.0015 0.0025 0.0015 0.0025 0.0025 0.0015 0.0015 
0.0025 0.0015 0.0025 0.0015 0.0015 0.0015 0.0015 0.0015 0.0015 
0.0015 0.0025 0.0015 0.0015 0.0025 0.0025 0.0025 0.0015 0.0025 
0.0025 0.0025 0.0015 0.0015 0.0025 0.0015 0.0015 0.0015 0.0015 
0.0025 0.0015 
omega 3 38 double
0 0 0 0 0 0 0 0 0 
0 0 0 0 0 0 0 0 0 
0 0 0 0 0 0 0 0 0 
0 0 0 0 0 0 0 0 0 
0 0 0 0 0 0 0 0 0 
0 0 0 0 0 0 0 0 0 
0 0 0 0 0 0 0 0 0 
0 0 0 0 0 0 0 0 0 
0 0 0 0 0 0 0 0 0 
0 0 0 0 0 0 0 0 0 
0 0 0 0 0 0 0 0 0 
0 0 0 0 0 0 0 0 0 
0 0 0 0 0 0 
