# vtk DataFile Version 4.1
Generated by LIGGGHTS
ASCII
DATASET POLYDATA
POINTS 100 float
-0.116841 -0.148187 0.0130052 -0.126719 -0.144988 0.0117687 -0.136497 -0.142846 0.0123419 
-0.123982 -0.15435 0.0179068 -0.110336 -0.154504 0.0182824 -0.132371 -0.151957 0.0169282 
-0.142993 -0.148355 0.0155628 -0.116435 -0.158794 0.0173279 -0.145282 -0.141026 0.011861 
-0.119678 -0.138413 0.00873518 -0.13023 -0.159778 0.0199449 -0.139515 -0.153963 0.0177712 
-0.124348 -0.135171 0.0116978 -0.125165 -0.163093 0.0201621 -0.13055 -0.135538 0.0122304 
-0.135988 -0.158021 0.0188552 -0.116936 -0.15609 0.0229904 -0.141915 -0.135689 0.0147947 
-0.11605 -0.142237 0.00427339 -0.149247 -0.146114 0.0131613 -0.120859 -0.145864 0.00363509 
-0.12953 -0.165243 0.0215792 -0.113158 -0.15813 0.0118585 -0.102945 -0.153064 0.0199341 
-0.106863 -0.151798 0.0123736 -0.120376 -0.137752 0.0148372 -0.108062 -0.147787 0.0204605 
-0.10518 -0.1525 0.0232251 -0.13365 -0.1638 0.0214324 -0.127763 -0.147507 0.0213026 
-0.136629 -0.162187 0.0209168 -0.110228 -0.161939 0.0171763 -0.133068 -0.144555 0.0042609 
-0.1204 -0.163881 0.0186282 -0.150988 -0.141231 0.0100278 -0.109934 -0.156151 0.0108103 
-0.140701 -0.159194 0.0196455 -0.120552 -0.161508 0.0212397 -0.146214 -0.153846 0.016992 
-0.125187 -0.136576 0.00646252 -0.137331 -0.151919 0.0115462 -0.122137 -0.16251 0.0158756 
-0.117537 -0.151683 0.0231657 -0.119112 -0.158416 0.0112081 -0.143894 -0.142067 0.0176645 
-0.149144 -0.150683 0.0153519 -0.106618 -0.148206 0.0108098 -0.128067 -0.13602 0.00775655 
-0.140401 -0.161721 0.0213967 -0.134771 -0.133683 0.0139516 -0.0473666 -0.118598 0.0127905 
-0.0575047 -0.116218 0.0118476 -0.067422 -0.114979 0.0126515 -0.0538622 -0.125623 0.0174238 
-0.0402501 -0.124596 0.0176332 -0.0624422 -0.123928 0.0166763 -0.0733594 -0.121205 0.0156357 
-0.0459661 -0.129347 0.0165119 -0.0763389 -0.113916 0.0123737 -0.0511147 -0.108894 0.00910351 
-0.0595785 -0.131682 0.0192286 -0.0693693 -0.126597 0.0174886 -0.0560001 -0.106241 0.0122954 
-0.0542408 -0.134546 0.0192029 -0.0621377 -0.10718 0.0128781 -0.0654844 -0.130382 0.0183046 
-0.0466091 -0.12701 0.0223213 -0.0734024 -0.10847 0.0155606 -0.0472398 -0.112136 0.00439454 
-0.0798233 -0.119396 0.0134346 -0.0517242 -0.116132 0.00361095 -0.058378 -0.137145 0.0205484 
-0.0428493 -0.128101 0.0110505 -0.0329863 -0.122603 0.0192773 -0.037123 -0.121277 0.0118444 
-0.0517681 -0.10863 0.0152404 -0.0385348 -0.117833 0.020155 -0.0352081 -0.122418 0.02262 
-0.0626102 -0.136064 0.0205295 -0.0581689 -0.119334 0.021238 -0.0657265 -0.134694 0.0201387 
-0.0395125 -0.131921 0.0161142 -0.0639889 -0.115938 0.00444903 -0.0494504 -0.134827 0.0175728 
-0.0820341 -0.114522 0.0105976 -0.039828 -0.125792 0.0100769 -0.0700639 -0.132007 0.0190827 
-0.0497668 -0.132622 0.0203138 -0.0760647 -0.127027 0.0167943 -0.0567995 -0.107427 0.00700008 
-0.0674738 -0.124034 0.0113621 -0.0513452 -0.133466 0.0149209 -0.0475885 -0.122689 0.0227483 
-0.0487658 -0.128874 0.0104538 -0.0747708 -0.115144 0.018094 -0.0792862 -0.12405 0.0153664 
-0.0372178 -0.117598 0.01048 -0.0596948 -0.107199 0.00835604 -0.0695165 -0.134588 0.0206872 
-0.0664754 -0.105801 0.0147482 
VERTICES 100 200
1 0 
1 1 
1 2 
1 3 
1 4 
1 5 
1 6 
1 7 
1 8 
1 9 
1 10 
1 11 
1 12 
1 13 
1 14 
1 15 
1 16 
1 17 
1 18 
1 19 
1 20 
1 21 
1 22 
1 23 
1 24 
1 25 
1 26 
1 27 
1 28 
1 29 
1 30 
1 31 
1 32 
1 33 
1 34 
1 35 
1 36 
1 37 
1 38 
1 39 
1 40 
1 41 
1 42 
1 43 
1 44 
1 45 
1 46 
1 47 
1 48 
1 49 
1 50 
1 51 
1 52 
1 53 
1 54 
1 55 
1 56 
1 57 
1 58 
1 59 
1 60 
1 61 
1 62 
1 63 
1 64 
1 65 
1 66 
1 67 
1 68 
1 69 
1 70 
1 71 
1 72 
1 73 
1 74 
1 75 
1 76 
1 77 
1 78 
1 79 
1 80 
1 81 
1 82 
1 83 
1 84 
1 85 
1 86 
1 87 
1 88 
1 89 
1 90 
1 91 
1 92 
1 93 
1 94 
1 95 
1 96 
1 97 
1 98 
1 99 

POINT_DATA 100
FIELD FieldData 7
id 1 100 int
1 2 3 4 5 6 7 8 9 
10 11 12 13 14 15 16 17 18 
19 20 21 22 23 24 25 26 27 
28 29 30 31 32 33 34 35 36 
37 38 39 40 41 42 43 44 45 
46 47 48 49 50 51 52 53 54 
55 56 57 58 59 60 61 62 63 
64 65 66 67 68 69 70 71 72 
73 74 75 76 77 78 79 80 81 
82 83 84 85 86 87 88 89 90 
91 92 93 94 95 96 97 98 99 
100 
mol 1 100 int
1 1 1 1 1 1 1 1 1 
1 1 1 1 1 1 1 1 1 
1 1 1 1 1 1 1 1 1 
1 1 1 1 1 1 1 1 1 
1 1 1 1 1 1 1 1 1 
1 1 1 1 1 2 2 2 2 
2 2 2 2 2 2 2 2 2 
2 2 2 2 2 2 2 2 2 
2 2 2 2 2 2 2 2 2 
2 2 2 2 2 2 2 2 2 
2 2 2 2 2 2 2 2 2 
2 
type 1 100 int
1 1 1 1 1 1 1 1 1 
1 1 1 1 1 1 1 1 1 
1 1 1 1 1 1 1 1 1 
1 1 1 1 1 1 1 1 1 
1 1 1 1 1 1 1 1 1 
1 1 1 1 1 1 1 1 1 
1 1 1 1 1 1 1 1 1 
1 1 1 1 1 1 1 1 1 
1 1 1 1 1 1 1 1 1 
1 1 1 1 1 1 1 1 1 
1 1 1 1 1 1 1 1 1 
1 
v 3 100 double
0.015368452474 -0.16071193666 -0.035217665608 0.017329913963 -0.134663131 0.016514910274 0.020519435709 -0.13050467267 0.055387224548 
0.014965172645 -0.21162447448 -0.099819171051 0.015293968984 -0.23157447209 -0.11995189486 0.016360056167 -0.19036283958 -0.059787459737 
0.018604720974 -0.16192004312 -0.0022048830488 0.0091652956983 -0.21319193639 -0.16340449485 0.021932793863 -0.11478403699 0.089051872237 
0.020700650225 -0.10611780708 0.08620380711 0.011557560401 -0.22908636012 -0.15677145505 0.015221318753 -0.19242983551 -0.074355631282 
0.028334891285 -0.13649065305 0.131476948 0.0081003507031 -0.23742781679 -0.20344784 0.028633764088 -0.13588638244 0.13537367503 
0.012084244367 -0.20946241582 -0.12792001765 0.019806614513 -0.28076815017 -0.13019670356 0.031897064026 -0.15389559848 0.14877209774 
0.010400724642 -0.056526664931 0.03532495029 0.017921784058 -0.12594831317 0.033137526249 0.0054448503473 -0.043407398452 -0.0018801559477 
0.0075678354571 -0.24954566381 -0.22346985717 0.0025902357763 -0.1510769421 -0.15980395066 0.019135283832 -0.25980915651 -0.11251437593 
0.010439739809 -0.16439431867 -0.092036384423 0.029621295291 -0.17876062317 0.095096593576 0.025806242512 -0.26035724646 -0.042164074069 
0.024180565095 -0.29688567499 -0.10273669941 0.0090025441301 -0.24312040964 -0.20058898615 0.027250719975 -0.24821491776 -0.012406969203 
0.010135533607 -0.23354685584 -0.17718996173 0.0054064170819 -0.21838491222 -0.20956197665 0.0077632745074 -0.037133765865 0.030226564253 
0.0051542759736 -0.22435629638 -0.21931904571 0.019245788571 -0.08627119385 0.09422926103 0.003424437153 -0.14210767412 -0.14030076979 
0.011816587327 -0.2136444878 -0.13572266199 0.011335410319 -0.25561192951 -0.19055715833 0.014310462146 -0.17547772171 -0.063969019286 
0.019734381532 -0.072538960596 0.11569616012 0.0091943230744 -0.11998602698 -0.052686811762 0.0030182076563 -0.18926705248 -0.20048779599 
0.025024450558 -0.28219931726 -0.076358168162 0.0013961572792 -0.13651824511 -0.15526685718 0.02852913466 -0.18619384882 0.074667478206 
0.01568979667 -0.15242705403 -0.021983566134 0.012406828748 -0.14585138347 -0.049135129475 0.022095617588 -0.0848559286 0.12623669929 
0.011305419293 -0.23505774428 -0.16652852411 0.033035725297 -0.15182802772 0.16334013982 0.050602302615 -0.13752836822 -0.043361193151 
0.048296534985 -0.12101096912 0.023129649416 0.052390791286 -0.12300583454 0.07671322854 0.064974932959 -0.18201890829 -0.090666457547 
0.066499913007 -0.1930853053 -0.13553476078 0.06302224878 -0.16857148595 -0.037752503541 0.06053979268 -0.15051875636 0.035526562101 
0.058820319782 -0.17757182863 -0.16212001075 0.051946828873 -0.11427697342 0.12435811681 0.041843981629 -0.096316611838 0.074009678305 
0.068409761268 -0.19727502712 -0.13100589259 0.064605870424 -0.17260227404 -0.037493222459 0.056624575855 -0.12669883295 0.12188622201 
0.066439959585 -0.20048081223 -0.18294353686 0.058395909603 -0.12882941872 0.1371089938 0.065477559635 -0.18371235758 -0.093184633128 
0.084099701357 -0.23824222768 -0.13491527777 0.068525837941 -0.14970143154 0.16961075856 0.020475888422 -0.049323042311 0.024076252777 
0.052716698897 -0.12316371857 0.080984256294 0.014669245994 -0.038162852223 0.00039696426894 0.070249693307 -0.21193516374 -0.19335581048 
0.037297682322 -0.1221722781 -0.1617628269 0.074521545442 -0.21510411236 -0.14427732076 0.0449883366 -0.13425030995 -0.11342581151 
0.067112825323 -0.160423774 0.079462815233 0.081216890281 -0.22072067953 -0.071436395256 0.088311862006 -0.24880729922 -0.13324520273 
0.070875977632 -0.20898008218 -0.16468643389 0.084668564495 -0.2193226848 -0.0069229276186 0.070169884284 -0.20284070571 -0.13753509272 
0.055518157241 -0.17759322765 -0.21557484643 0.018222828659 -0.038988497312 0.05259243033 0.059590195989 -0.18645862753 -0.20549410898 
0.044289320651 -0.09189255312 0.1412761377 0.034820346878 -0.11390240068 -0.14983331024 0.067601817495 -0.18891227801 -0.091537290611 
0.072235500548 -0.21507623505 -0.18101533452 0.061486187071 -0.16094035458 -0.014635173323 0.034197223056 -0.07049596922 0.11267931869 
0.041221259522 -0.10941367228 -0.018289577657 0.049631708781 -0.15733870362 -0.18343414804 0.0886598248 -0.24209442381 -0.085472542307 
0.034354554574 -0.11204524596 -0.14569236333 0.074539482687 -0.17544975576 0.1050251409 0.057585742611 -0.14382763196 0.029844593365 
0.041804778738 -0.11984088324 -0.074345952594 0.039891318641 -0.082869053946 0.12692482569 0.072481800016 -0.206140427 -0.12092515515 
0.066942023017 -0.14567014971 0.16935145705 
f 3 100 double
0 0 0 0 0 0 0 0 0 
0 0 0 0 0 0 0 0 0 
0 0 0 0 0 0 0 0 0 
0 0 0 0 0 0 0 0 0 
0 0 0 0 0 0 0 0 0 
0 0 0 0 0 0 0 0 0 
0 0 0 0 0 0 -0.060049586325 -0.038113063969 0.30181725886 
0 0 0 0 0 0 0 0 0 
0 0 0 0 0 0 0 0 0 
0 0 0 0 0 0 0 0 0 
0 0 0 0 0 0 0 0 0 
0 0 0 0 0 0 0 0 0 
0 0 0 0 0 0 0 0 0 
0 0 0 0 0 0 0 0 0 
0 0 0 0 0 0 0 0 0 
0 0 0 0 0 0 0 0 0 
0 0 0 0 0 0 0 0 0 
0 0 0 0 0 0 0 0 0 
0 0 0 0 0 0 0 0 0 
0 0 0 0 0 0 0 0 0 
0 0 0 0 0 0 0 0 0 
0 0 0 0 0 0 0 0 0 
0 0 0 0 0 0 0 0 0 
0 0 0 -0.10467706412 -0.089313326298 0.44032200596 0 0 0 
0 0 0 0 0 0 0 0 0 
0 0 0 0 0 0 0 0 0 
0 0 0 0 0 0 0 0 0 
0 0 0 0 0 0 0 0 0 
0 0 0 0 0 0 0 0 0 
0 0 0 0 0 0 0 0 0 
0 0 0 0 0 0 0 0 0 
0 0 0 0 0 0 0 0 0 
0 0 0 0 0 0 0 0 0 
0 0 0 
radius 1 100 double
0.010434 0.00981478 0.00892069 0.00845937 0.00731974 0.00728422 0.00643447 0.00619172 0.00585956 
0.00577566 0.00537241 0.00522549 0.00513666 0.00473175 0.00466912 0.00444866 0.00441894 0.00400812 
0.00385622 0.00379948 0.00370243 0.00366942 0.00364039 0.00363813 0.00363644 0.00358692 0.0035797 
0.00341284 0.00337012 0.00336273 0.00332772 0.00323261 0.00320584 0.00320311 0.00318808 0.00313116 
0.00306026 0.00305632 0.00304383 0.00300958 0.00300137 0.00298994 0.0029567 0.00295111 0.00290849 
0.00284552 0.00282964 0.0028207 0.00281971 0.00281899 0.010434 0.00981478 0.00892069 0.00845937 
0.00731974 0.00728422 0.00643447 0.00619172 0.00585956 0.00577566 0.00537241 0.00522549 0.00513666 
0.00473175 0.00466912 0.00444866 0.00441894 0.00400812 0.00385622 0.00379948 0.00370243 0.00366942 
0.00364039 0.00363813 0.00363644 0.00358692 0.0035797 0.00341284 0.00337012 0.00336273 0.00332772 
0.00323261 0.00320584 0.00320311 0.00318808 0.00313116 0.00306026 0.00305632 0.00304383 0.00300958 
0.00300137 0.00298994 0.0029567 0.00295111 0.00290849 0.00284552 0.00282964 0.0028207 0.00281971 
0.00281899 
omega 3 100 double
12.034187846 1.3393973804 -1.1307053064 12.034187846 1.3393973804 -1.1307053064 12.034187846 1.3393973804 -1.1307053064 
12.034187846 1.3393973804 -1.1307053064 12.034187846 1.3393973804 -1.1307053064 12.034187846 1.3393973804 -1.1307053064 
12.034187846 1.3393973804 -1.1307053064 12.034187846 1.3393973804 -1.1307053064 12.034187846 1.3393973804 -1.1307053064 
12.034187846 1.3393973804 -1.1307053064 12.034187846 1.3393973804 -1.1307053064 12.034187846 1.3393973804 -1.1307053064 
12.034187846 1.3393973804 -1.1307053064 12.034187846 1.3393973804 -1.1307053064 12.034187846 1.3393973804 -1.1307053064 
12.034187846 1.3393973804 -1.1307053064 12.034187846 1.3393973804 -1.1307053064 12.034187846 1.3393973804 -1.1307053064 
12.034187846 1.3393973804 -1.1307053064 12.034187846 1.3393973804 -1.1307053064 12.034187846 1.3393973804 -1.1307053064 
12.034187846 1.3393973804 -1.1307053064 12.034187846 1.3393973804 -1.1307053064 12.034187846 1.3393973804 -1.1307053064 
12.034187846 1.3393973804 -1.1307053064 12.034187846 1.3393973804 -1.1307053064 12.034187846 1.3393973804 -1.1307053064 
12.034187846 1.3393973804 -1.1307053064 12.034187846 1.3393973804 -1.1307053064 12.034187846 1.3393973804 -1.1307053064 
12.034187846 1.3393973804 -1.1307053064 12.034187846 1.3393973804 -1.1307053064 12.034187846 1.3393973804 -1.1307053064 
12.034187846 1.3393973804 -1.1307053064 12.034187846 1.3393973804 -1.1307053064 12.034187846 1.3393973804 -1.1307053064 
12.034187846 1.3393973804 -1.1307053064 12.034187846 1.3393973804 -1.1307053064 12.034187846 1.3393973804 -1.1307053064 
12.034187846 1.3393973804 -1.1307053064 12.034187846 1.3393973804 -1.1307053064 12.034187846 1.3393973804 -1.1307053064 
12.034187846 1.3393973804 -1.1307053064 12.034187846 1.3393973804 -1.1307053064 12.034187846 1.3393973804 -1.1307053064 
12.034187846 1.3393973804 -1.1307053064 12.034187846 1.3393973804 -1.1307053064 12.034187846 1.3393973804 -1.1307053064 
12.034187846 1.3393973804 -1.1307053064 12.034187846 1.3393973804 -1.1307053064 10.515468786 4.089441673 -0.65122821435 
10.515468786 4.089441673 -0.65122821435 10.515468786 4.089441673 -0.65122821435 10.515468786 4.089441673 -0.65122821435 
10.515468786 4.089441673 -0.65122821435 10.515468786 4.089441673 -0.65122821435 10.515468786 4.089441673 -0.65122821435 
10.515468786 4.089441673 -0.65122821435 10.515468786 4.089441673 -0.65122821435 10.515468786 4.089441673 -0.65122821435 
10.515468786 4.089441673 -0.65122821435 10.515468786 4.089441673 -0.65122821435 10.515468786 4.089441673 -0.65122821435 
10.515468786 4.089441673 -0.65122821435 10.515468786 4.089441673 -0.65122821435 10.515468786 4.089441673 -0.65122821435 
10.515468786 4.089441673 -0.65122821435 10.515468786 4.089441673 -0.65122821435 10.515468786 4.089441673 -0.65122821435 
10.515468786 4.089441673 -0.65122821435 10.515468786 4.089441673 -0.65122821435 10.515468786 4.089441673 -0.65122821435 
10.515468786 4.089441673 -0.65122821435 10.515468786 4.089441673 -0.65122821435 10.515468786 4.089441673 -0.65122821435 
10.515468786 4.089441673 -0.65122821435 10.515468786 4.089441673 -0.65122821435 10.515468786 4.089441673 -0.65122821435 
10.515468786 4.089441673 -0.65122821435 10.515468786 4.089441673 -0.65122821435 10.515468786 4.089441673 -0.65122821435 
10.515468786 4.089441673 -0.65122821435 10.515468786 4.089441673 -0.65122821435 10.515468786 4.089441673 -0.65122821435 
10.515468786 4.089441673 -0.65122821435 10.515468786 4.089441673 -0.65122821435 10.515468786 4.089441673 -0.65122821435 
10.515468786 4.089441673 -0.65122821435 10.515468786 4.089441673 -0.65122821435 10.515468786 4.089441673 -0.65122821435 
10.515468786 4.089441673 -0.65122821435 10.515468786 4.089441673 -0.65122821435 10.515468786 4.089441673 -0.65122821435 
10.515468786 4.089441673 -0.65122821435 10.515468786 4.089441673 -0.65122821435 10.515468786 4.089441673 -0.65122821435 
10.515468786 4.089441673 -0.65122821435 10.515468786 4.089441673 -0.65122821435 10.515468786 4.089441673 -0.65122821435 
10.515468786 4.089441673 -0.65122821435 
