# vtk DataFile Version 4.1
Generated by LIGGGHTS
ASCII
DATASET POLYDATA
POINTS 100 float
-0.117579 -0.155994 0.0104274 -0.127294 -0.152168 0.0109905 -0.137046 -0.150282 0.0123559 
-0.125136 -0.163469 0.0103103 -0.111548 -0.164556 0.0110555 -0.133397 -0.160521 0.0106491 
-0.14384 -0.156257 0.0113244 -0.117653 -0.167063 0.00745861 -0.145746 -0.148069 0.0127277 
-0.119949 -0.145487 0.0128378 -0.131604 -0.16868 0.00839725 -0.140618 -0.16224 0.00982236 
-0.124736 -0.144443 0.016971 -0.126628 -0.171722 0.00676353 -0.130966 -0.14472 0.0169271 
-0.137246 -0.166313 0.00836664 -0.118466 -0.168301 0.0135769 -0.142473 -0.145774 0.0184242 
-0.116115 -0.146035 0.00711948 -0.149883 -0.152687 0.0105244 -0.120942 -0.148276 0.00422609 
-0.131115 -0.174052 0.00641597 -0.11402 -0.163413 0.0036423 -0.104251 -0.164805 0.0135332 
-0.107651 -0.159025 0.00813418 -0.121025 -0.148605 0.0180612 -0.10929 -0.160648 0.0169434 
-0.106682 -0.166221 0.0164022 -0.135189 -0.172592 0.00700969 -0.128996 -0.159868 0.0170028 
-0.138098 -0.170837 0.00745831 -0.111511 -0.16981 0.00567983 -0.133138 -0.146952 0.00503303 
-0.12179 -0.171682 0.00525536 -0.151325 -0.146818 0.0109206 -0.110698 -0.161379 0.00413493 
-0.142021 -0.167469 0.00809834 -0.122064 -0.171361 0.00876199 -0.147249 -0.161314 0.00900899 
-0.125265 -0.142357 0.0119256 -0.138 -0.156976 0.00619746 -0.12332 -0.168836 0.00382876 
-0.118992 -0.164868 0.0163604 -0.119924 -0.162926 0.00271679 -0.144754 -0.152473 0.0167659 
-0.150008 -0.15765 0.00950393 -0.107238 -0.155237 0.00907538 -0.12821 -0.14254 0.0131766 
-0.141883 -0.170552 0.00797278 -0.135253 -0.144055 0.0192509 -0.0465673 -0.125585 0.0105901 
-0.0566336 -0.123048 0.0118416 -0.0664335 -0.12244 0.0138729 -0.0530918 -0.133973 0.010885 
-0.0394571 -0.133299 0.0107148 -0.0616216 -0.132117 0.0118058 -0.0724562 -0.129238 0.0132227 
-0.0454176 -0.136562 0.00750079 -0.0753005 -0.121369 0.0148469 -0.0501008 -0.115481 0.0132776 
-0.0589502 -0.139968 0.00934279 -0.0686002 -0.13475 0.011439 -0.0546937 -0.115076 0.0177313 
-0.0537452 -0.142338 0.00734657 -0.060825 -0.116155 0.0180971 -0.0648379 -0.13835 0.00971444 
-0.0456507 -0.137914 0.0136442 -0.0719738 -0.11869 0.0203409 -0.0466218 -0.115509 0.00731159 
-0.0789479 -0.126476 0.0128677 -0.0513039 -0.118345 0.00471796 -0.0579089 -0.145226 0.00726943 
-0.0425487 -0.13246 0.0034959 -0.0320391 -0.132613 0.0127002 -0.0365093 -0.127302 0.00760781 
-0.050413 -0.118728 0.0185232 -0.0373296 -0.129152 0.0164863 -0.0340691 -0.13434 0.0157068 
-0.0620875 -0.144306 0.00814928 -0.0569228 -0.130922 0.0178611 -0.0651605 -0.142943 0.00881064 
-0.0391071 -0.138486 0.00528611 -0.0634875 -0.118609 0.00634737 -0.0490649 -0.141668 0.0055216 
-0.081103 -0.120843 0.0134287 -0.0394905 -0.130017 0.00379151 -0.0694328 -0.140111 0.00974954 
-0.049142 -0.141397 0.0090423 -0.0753353 -0.134686 0.0110782 -0.0558242 -0.113059 0.0127573 
-0.0669307 -0.129181 0.0077117 -0.0510407 -0.139039 0.00423366 -0.0464254 -0.134587 0.0164974 
-0.0485156 -0.132736 0.0029697 -0.0734808 -0.125622 0.0187576 -0.0785021 -0.13141 0.0117986 
-0.036524 -0.123495 0.00856471 -0.0586306 -0.113625 0.0141985 -0.068908 -0.14315 0.00957828 
-0.0649952 -0.116057 0.0207077 
VERTICES 100 200
1 0 
1 1 
1 2 
1 3 
1 4 
1 5 
1 6 
1 7 
1 8 
1 9 
1 10 
1 11 
1 12 
1 13 
1 14 
1 15 
1 16 
1 17 
1 18 
1 19 
1 20 
1 21 
1 22 
1 23 
1 24 
1 25 
1 26 
1 27 
1 28 
1 29 
1 30 
1 31 
1 32 
1 33 
1 34 
1 35 
1 36 
1 37 
1 38 
1 39 
1 40 
1 41 
1 42 
1 43 
1 44 
1 45 
1 46 
1 47 
1 48 
1 49 
1 50 
1 51 
1 52 
1 53 
1 54 
1 55 
1 56 
1 57 
1 58 
1 59 
1 60 
1 61 
1 62 
1 63 
1 64 
1 65 
1 66 
1 67 
1 68 
1 69 
1 70 
1 71 
1 72 
1 73 
1 74 
1 75 
1 76 
1 77 
1 78 
1 79 
1 80 
1 81 
1 82 
1 83 
1 84 
1 85 
1 86 
1 87 
1 88 
1 89 
1 90 
1 91 
1 92 
1 93 
1 94 
1 95 
1 96 
1 97 
1 98 
1 99 

POINT_DATA 100
FIELD FieldData 7
id 1 100 int
1 2 3 4 5 6 7 8 9 
10 11 12 13 14 15 16 17 18 
19 20 21 22 23 24 25 26 27 
28 29 30 31 32 33 34 35 36 
37 38 39 40 41 42 43 44 45 
46 47 48 49 50 51 52 53 54 
55 56 57 58 59 60 61 62 63 
64 65 66 67 68 69 70 71 72 
73 74 75 76 77 78 79 80 81 
82 83 84 85 86 87 88 89 90 
91 92 93 94 95 96 97 98 99 
100 
mol 1 100 int
1 1 1 1 1 1 1 1 1 
1 1 1 1 1 1 1 1 1 
1 1 1 1 1 1 1 1 1 
1 1 1 1 1 1 1 1 1 
1 1 1 1 1 1 1 1 1 
1 1 1 1 1 2 2 2 2 
2 2 2 2 2 2 2 2 2 
2 2 2 2 2 2 2 2 2 
2 2 2 2 2 2 2 2 2 
2 2 2 2 2 2 2 2 2 
2 2 2 2 2 2 2 2 2 
2 
type 1 100 int
1 1 1 1 1 1 1 1 1 
1 1 1 1 1 1 1 1 1 
1 1 1 1 1 1 1 1 1 
1 1 1 1 1 1 1 1 1 
1 1 1 1 1 1 1 1 1 
1 1 1 1 1 1 1 1 1 
1 1 1 1 1 1 1 1 1 
1 1 1 1 1 1 1 1 1 
1 1 1 1 1 1 1 1 1 
1 1 1 1 1 1 1 1 1 
1 1 1 1 1 1 1 1 1 
1 
v 3 100 double
-0.088518462775 -0.19171954951 0.09599002579 -0.090193399966 -0.19188117588 0.068192182722 -0.10115906679 -0.20517241981 0.0082379761674 
-0.0944125283 -0.18273618888 -0.097120743904 -0.10237517213 -0.20766276941 0.011727819863 -0.094816226932 -0.18057529848 -0.12576606683 
-0.097126322459 -0.18189727587 -0.15314112796 -0.071186517658 -0.14293577216 -0.086339572269 -0.1025565184 -0.2031419436 -0.036555650819 
-0.10117099115 -0.22905650135 0.24629331284 -0.081447471737 -0.14530041843 -0.24292215379 -0.088714689068 -0.16026182088 -0.2212740164 
-0.13872623209 -0.29240428507 0.21881099828 -0.069060420742 -0.12314355471 -0.24645222806 -0.13857599381 -0.28586101826 0.15617419066 
-0.078950813395 -0.13952645789 -0.25668368454 -0.12938005175 -0.24256976153 -0.11422269445 -0.15351684729 -0.29967345126 0.031619033851 
-0.048373760793 -0.13880856537 0.273056919 -0.086332779741 -0.16312370689 -0.15090026062 -0.023494556194 -0.086821038211 0.1912893659 
-0.067997193755 -0.11324722096 -0.32650766594 -0.032197706285 -0.083710191776 0.0074373969256 -0.12570620431 -0.25513682359 0.075653857597 
-0.069972911349 -0.16336791464 0.13879871961 -0.15277888318 -0.31376107147 0.18511333948 -0.15361243798 -0.30638541048 0.096898253416 
-0.15377495964 -0.29994129596 0.029758827803 -0.072168418591 -0.11918215272 -0.34054400491 -0.15343790386 -0.28894540608 -0.074016483719 
-0.074710312167 -0.12382577086 -0.33885291861 -0.05717030226 -0.11948789414 -0.074142165246 -0.029780018485 -0.088664140235 0.099309549198 
-0.054962756741 -0.1029174948 -0.20068419687 -0.08454103068 -0.16827669754 -0.068033340636 -0.034890190349 -0.094897703609 0.071765360184 
-0.077529387395 -0.13066095841 -0.32016603061 -0.087353067861 -0.16020032951 -0.19797875135 -0.080267106694 -0.14071812786 -0.2679085118 
-0.089741515381 -0.20912121567 0.24811137777 -0.050003059347 -0.1032278099 -0.11050124551 -0.039004130288 -0.078078779838 -0.16825483183 
-0.15212133254 -0.28775324475 -0.062791676442 -0.023114761736 -0.063005791885 -0.039619851051 -0.14431872745 -0.27033245364 -0.099573509285 
-0.081456850661 -0.1462620018 -0.23349419853 -0.07520684411 -0.17919825395 0.20481769317 -0.10157499558 -0.22689623174 0.2176488134 
-0.079239926217 -0.12873001908 -0.36946418542 -0.15961794404 -0.31998615058 0.12712696491 -0.052592448323 -0.1808001982 0.10160357896 
-0.059736163425 -0.19414011652 0.071194501672 -0.074052819331 -0.22086059471 0.010121111794 -0.061242546259 -0.18072395664 -0.087601239281 
-0.059480908553 -0.18841965668 0.023044324646 -0.0665074078 -0.18966769483 -0.11834732697 -0.074590233966 -0.20520486661 -0.14858887482 
-0.038612734274 -0.1294979837 -0.075475425552 -0.080313647098 -0.23044080099 -0.036351342137 -0.064323008841 -0.2234656099 0.24659720936 
-0.054663851179 -0.15012603705 -0.23154823024 -0.065878813615 -0.1780600649 -0.21363990219 -0.096432100314 -0.29514893126 0.21999861135 
-0.041968307871 -0.12043574819 -0.23368455288 -0.099931995027 -0.29657513373 0.15712589799 -0.056114641395 -0.15184013818 -0.24706694601 
-0.084385755781 -0.2331101187 -0.10002058202 -0.11823255328 -0.32584078081 0.033139622382 -0.02091262715 -0.12536780781 0.27143638807 
-0.069864216975 -0.19417467476 -0.14917518047 -0.0042294622898 -0.077918379915 0.18944236616 -0.043645891157 -0.11590425324 -0.31278822366 
-0.0062767317751 -0.064060061708 0.014708850682 -0.073402738963 -0.22771432023 0.088639692695 -0.032212577463 -0.13821298754 0.14581600343 
-0.10502915475 -0.31184803649 0.18946181083 -0.098282284353 -0.28757837217 0.10859860029 -0.09663050303 -0.27693744624 0.044678535534 
-0.049338530257 -0.12752940241 -0.32767863017 -0.10966384461 -0.29561432789 -0.063956322543 -0.053095788697 -0.13632031864 -0.32700839113 
-0.023981991406 -0.096973885468 -0.062051071842 -0.016296346585 -0.096000689562 0.096284246652 -0.028163271256 -0.093231780502 -0.18829926976 
-0.069580771153 -0.20198172693 -0.0696944428 -0.0065344194952 -0.071425533043 0.078251856369 -0.057735747374 -0.1488705098 -0.31027480284 
-0.053583851156 -0.15265402022 -0.18427810882 -0.063201483751 -0.1667409985 -0.26158027389 -0.058657325491 -0.2102368668 0.2458432887 
-0.034425511353 -0.11638141784 -0.1073922767 -0.016748602806 -0.069940258981 -0.15826509717 -0.10257678791 -0.28071296656 -0.049443028402 
-0.0026601861607 -0.050543497387 -0.033399064639 -0.11208109211 -0.29792300102 -0.094951776876 -0.065906061769 -0.17645695672 -0.22928604006 
-0.036227128185 -0.15436845053 0.2100291836 -0.069588147866 -0.23241007595 0.21585190942 -0.058845131028 -0.14638393208 -0.35779642816 
-0.11886082313 -0.33744765268 0.12843214724 
f 3 100 double
-0.11578547364 0.2040585224 -0.75635885281 0 0 0 0 0 0 
0 0 0 0 0 0 0 0 0 
0 0 0 0 0 0 0 0 0 
0 0 0 0 0 0 0 0 0 
0 0 0 0 0 0 0 0 0 
0 0 0 0 0 0 0 0 0 
0 0 0 0 0 0 0 0 0 
0 0 0 0 0 0 0 0 0 
0 0 0 0 0 0 0 0 0 
0 0 0 0 0 0 0 0 0 
0 0 0 0 0 0 0 0 0 
0 0 0 0 0 0 0 0 0 
0 0 0 0 0 0 0 0 0 
0 0 0 0 0 0 0 0 0 
0 0 0 -0.26673277483 0.39826623744 2.1982891749 0 0 0 
0 0 0 0 0 0 0 0 0 
0 0 0 0 0 0 0 0 0 
0 0 0 0 0 0 0 0 0 
0 0 0 0 0 0 0 0 0 
0 0 0 0 0 0 0 0 0 
0 0 0 0 0 0 0 0 0 
0 0 0 0 0 0 0 0 0 
0 0 0 0 0 0 0 0 0 
0 0 0 0 0 0 0 0 0 
-0.28034460411 0.1927407874 0.68041783687 0 0 0 0 0 0 
0 0 0 0 0 0 0 0 0 
0 0 0 0 0 0 0 0 0 
0 0 0 0 0 0 0 0 0 
0 0 0 0 0 0 0 0 0 
0 0 0 0 0 0 0 0 0 
0 0 0 0 0 0 0 0 0 
0 0 0 0 0 0 0 0 0 
0 0 0 0 0 0 0 0 0 
0 0 0 
radius 1 100 double
0.010434 0.00981478 0.00892069 0.00845937 0.00731974 0.00728422 0.00643447 0.00619172 0.00585956 
0.00577566 0.00537241 0.00522549 0.00513666 0.00473175 0.00466912 0.00444866 0.00441894 0.00400812 
0.00385622 0.00379948 0.00370243 0.00366942 0.00364039 0.00363813 0.00363644 0.00358692 0.0035797 
0.00341284 0.00337012 0.00336273 0.00332772 0.00323261 0.00320584 0.00320311 0.00318808 0.00313116 
0.00306026 0.00305632 0.00304383 0.00300958 0.00300137 0.00298994 0.0029567 0.00295111 0.00290849 
0.00284552 0.00282964 0.0028207 0.00281971 0.00281899 0.010434 0.00981478 0.00892069 0.00845937 
0.00731974 0.00728422 0.00643447 0.00619172 0.00585956 0.00577566 0.00537241 0.00522549 0.00513666 
0.00473175 0.00466912 0.00444866 0.00441894 0.00400812 0.00385622 0.00379948 0.00370243 0.00366942 
0.00364039 0.00363813 0.00363644 0.00358692 0.0035797 0.00341284 0.00337012 0.00336273 0.00332772 
0.00323261 0.00320584 0.00320311 0.00318808 0.00313116 0.00306026 0.00305632 0.00304383 0.00300958 
0.00300137 0.00298994 0.0029567 0.00295111 0.00290849 0.00284552 0.00282964 0.0028207 0.00281971 
0.00281899 
omega 3 100 double
16.408800387 -9.3224153309 -0.93449559472 16.408800387 -9.3224153309 -0.93449559472 16.408800387 -9.3224153309 -0.93449559472 
16.408800387 -9.3224153309 -0.93449559472 16.408800387 -9.3224153309 -0.93449559472 16.408800387 -9.3224153309 -0.93449559472 
16.408800387 -9.3224153309 -0.93449559472 16.408800387 -9.3224153309 -0.93449559472 16.408800387 -9.3224153309 -0.93449559472 
16.408800387 -9.3224153309 -0.93449559472 16.408800387 -9.3224153309 -0.93449559472 16.408800387 -9.3224153309 -0.93449559472 
16.408800387 -9.3224153309 -0.93449559472 16.408800387 -9.3224153309 -0.93449559472 16.408800387 -9.3224153309 -0.93449559472 
16.408800387 -9.3224153309 -0.93449559472 16.408800387 -9.3224153309 -0.93449559472 16.408800387 -9.3224153309 -0.93449559472 
16.408800387 -9.3224153309 -0.93449559472 16.408800387 -9.3224153309 -0.93449559472 16.408800387 -9.3224153309 -0.93449559472 
16.408800387 -9.3224153309 -0.93449559472 16.408800387 -9.3224153309 -0.93449559472 16.408800387 -9.3224153309 -0.93449559472 
16.408800387 -9.3224153309 -0.93449559472 16.408800387 -9.3224153309 -0.93449559472 16.408800387 -9.3224153309 -0.93449559472 
16.408800387 -9.3224153309 -0.93449559472 16.408800387 -9.3224153309 -0.93449559472 16.408800387 -9.3224153309 -0.93449559472 
16.408800387 -9.3224153309 -0.93449559472 16.408800387 -9.3224153309 -0.93449559472 16.408800387 -9.3224153309 -0.93449559472 
16.408800387 -9.3224153309 -0.93449559472 16.408800387 -9.3224153309 -0.93449559472 16.408800387 -9.3224153309 -0.93449559472 
16.408800387 -9.3224153309 -0.93449559472 16.408800387 -9.3224153309 -0.93449559472 16.408800387 -9.3224153309 -0.93449559472 
16.408800387 -9.3224153309 -0.93449559472 16.408800387 -9.3224153309 -0.93449559472 16.408800387 -9.3224153309 -0.93449559472 
16.408800387 -9.3224153309 -0.93449559472 16.408800387 -9.3224153309 -0.93449559472 16.408800387 -9.3224153309 -0.93449559472 
16.408800387 -9.3224153309 -0.93449559472 16.408800387 -9.3224153309 -0.93449559472 16.408800387 -9.3224153309 -0.93449559472 
16.408800387 -9.3224153309 -0.93449559472 16.408800387 -9.3224153309 -0.93449559472 16.8949222 -7.2800433389 -0.77533846587 
16.8949222 -7.2800433389 -0.77533846587 16.8949222 -7.2800433389 -0.77533846587 16.8949222 -7.2800433389 -0.77533846587 
16.8949222 -7.2800433389 -0.77533846587 16.8949222 -7.2800433389 -0.77533846587 16.8949222 -7.2800433389 -0.77533846587 
16.8949222 -7.2800433389 -0.77533846587 16.8949222 -7.2800433389 -0.77533846587 16.8949222 -7.2800433389 -0.77533846587 
16.8949222 -7.2800433389 -0.77533846587 16.8949222 -7.2800433389 -0.77533846587 16.8949222 -7.2800433389 -0.77533846587 
16.8949222 -7.2800433389 -0.77533846587 16.8949222 -7.2800433389 -0.77533846587 16.8949222 -7.2800433389 -0.77533846587 
16.8949222 -7.2800433389 -0.77533846587 16.8949222 -7.2800433389 -0.77533846587 16.8949222 -7.2800433389 -0.77533846587 
16.8949222 -7.2800433389 -0.77533846587 16.8949222 -7.2800433389 -0.77533846587 16.8949222 -7.2800433389 -0.77533846587 
16.8949222 -7.2800433389 -0.77533846587 16.8949222 -7.2800433389 -0.77533846587 16.8949222 -7.2800433389 -0.77533846587 
16.8949222 -7.2800433389 -0.77533846587 16.8949222 -7.2800433389 -0.77533846587 16.8949222 -7.2800433389 -0.77533846587 
16.8949222 -7.2800433389 -0.77533846587 16.8949222 -7.2800433389 -0.77533846587 16.8949222 -7.2800433389 -0.77533846587 
16.8949222 -7.2800433389 -0.77533846587 16.8949222 -7.2800433389 -0.77533846587 16.8949222 -7.2800433389 -0.77533846587 
16.8949222 -7.2800433389 -0.77533846587 16.8949222 -7.2800433389 -0.77533846587 16.8949222 -7.2800433389 -0.77533846587 
16.8949222 -7.2800433389 -0.77533846587 16.8949222 -7.2800433389 -0.77533846587 16.8949222 -7.2800433389 -0.77533846587 
16.8949222 -7.2800433389 -0.77533846587 16.8949222 -7.2800433389 -0.77533846587 16.8949222 -7.2800433389 -0.77533846587 
16.8949222 -7.2800433389 -0.77533846587 16.8949222 -7.2800433389 -0.77533846587 16.8949222 -7.2800433389 -0.77533846587 
16.8949222 -7.2800433389 -0.77533846587 16.8949222 -7.2800433389 -0.77533846587 16.8949222 -7.2800433389 -0.77533846587 
16.8949222 -7.2800433389 -0.77533846587 
