# vtk DataFile Version 4.1
Generated by LIGGGHTS
ASCII
DATASET POLYDATA
POINTS 100 float
-0.11726 -0.154755 0.0105609 -0.126986 -0.150945 0.0110512 -0.136699 -0.148969 0.0125616 
-0.124742 -0.162237 0.0115894 -0.111125 -0.163153 0.0119364 -0.133014 -0.159316 0.0119023 
-0.143466 -0.155062 0.0124813 -0.117334 -0.166093 0.00888572 -0.1454 -0.146778 0.0130082 
-0.119644 -0.144055 0.0118394 -0.131224 -0.167669 0.010534 -0.140242 -0.161159 0.0115535 
-0.124285 -0.142569 0.0160048 -0.126282 -0.170851 0.00907155 -0.130509 -0.142885 0.0162302 
-0.136886 -0.165354 0.0104471 -0.117906 -0.166623 0.015132 -0.141941 -0.143824 0.0182752 
-0.11602 -0.145234 0.00607969 -0.14957 -0.151642 0.011508 -0.120928 -0.14782 0.00364817 
-0.130755 -0.17323 0.00916444 -0.113882 -0.162884 0.00454049 -0.103739 -0.163075 0.0141467 
-0.107395 -0.157974 0.00825402 -0.120494 -0.146557 0.0174229 -0.108689 -0.158582 0.0172471 
-0.106047 -0.164166 0.0172495 -0.134819 -0.171736 0.00974162 -0.128385 -0.157913 0.017967 
-0.137726 -0.169957 0.0100965 -0.111235 -0.16899 0.00720096 -0.133099 -0.146481 0.00476179 
-0.121503 -0.170957 0.00738557 -0.151055 -0.145774 0.0112833 -0.110565 -0.160789 0.00466996 
-0.141657 -0.16656 0.010495 -0.121651 -0.170237 0.0108402 -0.146908 -0.160371 0.0108924 
-0.125021 -0.14108 0.0107773 -0.137814 -0.156332 0.00725203 -0.123114 -0.168303 0.00570144 
-0.118363 -0.162896 0.0175216 -0.119821 -0.16254 0.00379075 -0.144215 -0.150683 0.017484 
-0.149683 -0.15669 0.0110687 -0.106985 -0.1541 0.00873826 -0.127916 -0.141134 0.0121523 
-0.141492 -0.169636 0.0107186 -0.134712 -0.141982 0.0186239 -0.0463863 -0.124441 0.0102805 
-0.0564366 -0.121838 0.0115265 -0.0661831 -0.121067 0.0137501 -0.0528284 -0.132782 0.011668 
-0.0392095 -0.132055 0.0110478 -0.0613459 -0.130885 0.0126171 -0.0721627 -0.127929 0.0140115 
-0.0452261 -0.135682 0.00837472 -0.0750296 -0.119946 0.014847 -0.0499326 -0.114123 0.011948 
-0.0586746 -0.138943 0.010951 -0.068309 -0.133581 0.0127328 -0.0544072 -0.11326 0.0164566 
-0.0535051 -0.141487 0.00908139 -0.060517 -0.114328 0.0171075 -0.0645638 -0.137327 0.0113071 
-0.0452822 -0.136357 0.014633 -0.0715791 -0.116664 0.0199221 -0.0466154 -0.114783 0.0059266 
-0.078685 -0.125258 0.0135377 -0.0513412 -0.117911 0.00378802 -0.0576444 -0.144389 0.00943469 
-0.0425014 -0.132026 0.0038689 -0.0317469 -0.131115 0.0127404 -0.0363979 -0.126417 0.00722556 
-0.0500756 -0.11678 0.0175228 -0.0369629 -0.127291 0.016272 -0.0336802 -0.132515 0.0159724 
-0.0618055 -0.143403 0.0103246 -0.0564962 -0.12901 0.0183737 -0.0648712 -0.141992 0.0109183 
-0.0389613 -0.137802 0.00620894 -0.0634738 -0.118064 0.00577335 -0.0488815 -0.140995 0.00706539 
-0.0808724 -0.11961 0.0135411 -0.0394574 -0.129548 0.00381174 -0.0691408 -0.139099 0.0116611 
-0.0488662 -0.140341 0.0105364 -0.0750517 -0.133594 0.0125537 -0.0556884 -0.111805 0.0113257 
-0.0667882 -0.128443 0.00837613 -0.0509138 -0.138533 0.00555393 -0.0460083 -0.132743 0.017127 
-0.0484777 -0.132392 0.00354141 -0.0730688 -0.123736 0.0191458 -0.0782259 -0.130277 0.0130004 
-0.0364194 -0.122528 0.00776206 -0.0584501 -0.112226 0.0128972 -0.0685948 -0.142136 0.0118075 
-0.064616 -0.113968 0.0198063 
VERTICES 100 200
1 0 
1 1 
1 2 
1 3 
1 4 
1 5 
1 6 
1 7 
1 8 
1 9 
1 10 
1 11 
1 12 
1 13 
1 14 
1 15 
1 16 
1 17 
1 18 
1 19 
1 20 
1 21 
1 22 
1 23 
1 24 
1 25 
1 26 
1 27 
1 28 
1 29 
1 30 
1 31 
1 32 
1 33 
1 34 
1 35 
1 36 
1 37 
1 38 
1 39 
1 40 
1 41 
1 42 
1 43 
1 44 
1 45 
1 46 
1 47 
1 48 
1 49 
1 50 
1 51 
1 52 
1 53 
1 54 
1 55 
1 56 
1 57 
1 58 
1 59 
1 60 
1 61 
1 62 
1 63 
1 64 
1 65 
1 66 
1 67 
1 68 
1 69 
1 70 
1 71 
1 72 
1 73 
1 74 
1 75 
1 76 
1 77 
1 78 
1 79 
1 80 
1 81 
1 82 
1 83 
1 84 
1 85 
1 86 
1 87 
1 88 
1 89 
1 90 
1 91 
1 92 
1 93 
1 94 
1 95 
1 96 
1 97 
1 98 
1 99 

POINT_DATA 100
FIELD FieldData 7
id 1 100 int
1 2 3 4 5 6 7 8 9 
10 11 12 13 14 15 16 17 18 
19 20 21 22 23 24 25 26 27 
28 29 30 31 32 33 34 35 36 
37 38 39 40 41 42 43 44 45 
46 47 48 49 50 51 52 53 54 
55 56 57 58 59 60 61 62 63 
64 65 66 67 68 69 70 71 72 
73 74 75 76 77 78 79 80 81 
82 83 84 85 86 87 88 89 90 
91 92 93 94 95 96 97 98 99 
100 
mol 1 100 int
1 1 1 1 1 1 1 1 1 
1 1 1 1 1 1 1 1 1 
1 1 1 1 1 1 1 1 1 
1 1 1 1 1 1 1 1 1 
1 1 1 1 1 1 1 1 1 
1 1 1 1 1 2 2 2 2 
2 2 2 2 2 2 2 2 2 
2 2 2 2 2 2 2 2 2 
2 2 2 2 2 2 2 2 2 
2 2 2 2 2 2 2 2 2 
2 2 2 2 2 2 2 2 2 
2 
type 1 100 int
1 1 1 1 1 1 1 1 1 
1 1 1 1 1 1 1 1 1 
1 1 1 1 1 1 1 1 1 
1 1 1 1 1 1 1 1 1 
1 1 1 1 1 1 1 1 1 
1 1 1 1 1 1 1 1 1 
1 1 1 1 1 1 1 1 1 
1 1 1 1 1 1 1 1 1 
1 1 1 1 1 1 1 1 1 
1 1 1 1 1 1 1 1 1 
1 1 1 1 1 1 1 1 1 
1 
v 3 100 double
-0.0361136622 -0.20537554337 -0.12041916328 -0.031884797025 -0.20074144158 -0.072549293704 -0.032769527871 -0.21532294327 -0.059162040147 
-0.049298485237 -0.2140684841 -0.27956338232 -0.051455639885 -0.24000878724 -0.26344846749 -0.045902707363 -0.2081666271 -0.24487298008 
-0.041257216431 -0.20416542723 -0.19041397014 -0.048169141972 -0.17374213552 -0.33398229223 -0.030740021067 -0.2113238025 -0.039240355496 
-0.023994472943 -0.22603969438 0.075126431779 -0.05445594735 -0.18496476383 -0.39769750986 -0.047674857005 -0.19129839429 -0.2972725154 
-0.032084199857 -0.29782177476 0.091721825064 -0.055407508067 -0.16448583423 -0.44546981318 -0.033087381192 -0.29319191477 0.070516223363 
-0.050943040517 -0.17525900757 -0.36800036318 -0.0642330095 -0.29048652551 -0.3453748415 -0.039438024031 -0.3153848815 0.024818709341 
-0.011560335914 -0.12280361631 0.06181681097 -0.033997379851 -0.17714691047 -0.14100792531 -0.0092876629817 -0.07004424488 0.0011188699681 
-0.059026648511 -0.1598574049 -0.50121349023 -0.032947281046 -0.096882452063 -0.26513619131 -0.056760770542 -0.29213648296 -0.24387641492 
-0.035048207821 -0.17602056581 -0.1568192733 -0.041244278708 -0.32991436275 0.025948934332 -0.057954142057 -0.34343378888 -0.17144125649 
-0.065919160197 -0.34724396158 -0.27005897691 -0.058310598464 -0.16492831022 -0.48304084445 -0.058764011584 -0.32890661845 -0.20711022351 
-0.056644608117 -0.16746269266 -0.45668628195 -0.048170736695 -0.15072694429 -0.3735718904 -0.010108437124 -0.073654902565 -0.0035108748527 
-0.051426515342 -0.1395652213 -0.43575009279 -0.025082353342 -0.17080031842 -0.034207211366 -0.030278129523 -0.10404733031 -0.21757520012 
-0.052779123936 -0.16936143148 -0.40238291941 -0.058865696543 -0.20437365251 -0.42255438802 -0.044931075233 -0.16935493589 -0.29877021904 
-0.017151016888 -0.19838664926 0.11794377804 -0.030253502243 -0.11380306723 -0.20047761445 -0.043516056038 -0.10557276443 -0.38974321982 
-0.064775908089 -0.33481012826 -0.2763404255 -0.030620007632 -0.074305603835 -0.273222324 -0.047275181995 -0.29725286137 -0.1098345786 
-0.040115650751 -0.16871715183 -0.23628493977 -0.030713022867 -0.18571900337 -0.08290456587 -0.020598651419 -0.22013838436 0.10981835076 
-0.057711725998 -0.17380304084 -0.45987571225 -0.037665745172 -0.33225220005 0.077218379003 -0.0042924318161 -0.18714110842 0.0011958848017 
-0.0038438849993 -0.19656203014 0.024494466089 -0.0084380928077 -0.22477981861 0.014144381541 -0.019444932546 -0.20424632466 -0.17198930875 
-0.016851159491 -0.21155479159 -0.12360586409 -0.019221995381 -0.21022231542 -0.15804149289 -0.018660581326 -0.22136482601 -0.13006829121 
-0.015088777941 -0.1529409487 -0.20711391053 -0.0096735404748 -0.23307402465 0.012653511083 0.0058246585833 -0.21354114197 0.18606035295 
-0.026196433826 -0.18263089652 -0.30267393433 -0.023271775855 -0.20270060706 -0.22646538316 -0.0044663998046 -0.29204106879 0.19086795214 
-0.024973166776 -0.15469300158 -0.33730532599 -0.0076117074152 -0.29576570788 0.15523721905 -0.024853052888 -0.18112172221 -0.28730637345 
-0.031981309155 -0.27047668189 -0.21994377253 -0.018040186984 -0.33325665599 0.083123050791 0.020253724805 -0.10499821412 0.18210495572 
-0.013733266983 -0.20337731623 -0.096496061808 0.021349428909 -0.058226465213 0.1112765225 -0.029915277472 -0.15556859895 -0.40240068925 
0.0014878636856 -0.072055956534 -0.13145788685 -0.01985647763 -0.25375596824 -0.086915814984 0.00074279874388 -0.14363792115 -0.010482040527 
-0.012085612975 -0.31811068536 0.13576050876 -0.023533669233 -0.31286304626 -0.028346951927 -0.03004468106 -0.31180355902 -0.118158204 
-0.030810017616 -0.16649795335 -0.39446975808 -0.031285269973 -0.32516106339 -0.11045006636 -0.030358964066 -0.17338667225 -0.37577255654 
-0.012519727528 -0.12096280472 -0.23097846385 0.016076221441 -0.078642535992 0.07748165333 -0.019148508399 -0.12324417997 -0.31626364712 
-0.0058764430333 -0.20039644944 0.0040822245643 0.0050841675255 -0.075220793613 -0.077129339634 -0.028223810208 -0.18140154614 -0.3322855014 
-0.027086167857 -0.18849667146 -0.30394434957 -0.02283307188 -0.18994592781 -0.24389219177 0.01063932767 -0.19383053548 0.2149581977 
-0.0050110339189 -0.12294176988 -0.12601950588 -0.011867706155 -0.092008901 -0.27517912976 -0.033305180498 -0.31633630157 -0.15386431497 
0.0018137840702 -0.057579333221 -0.15355883712 -0.025909270479 -0.31659332268 -0.053579498664 -0.019352124328 -0.1939201662 -0.18963886626 
0.0047902369476 -0.15369053445 0.062543073325 0.0060476065374 -0.21951778173 0.20000950244 -0.032825214697 -0.18491227177 -0.3879591176 
-0.013990285088 -0.34077749761 0.15154699321 
f 3 100 double
0 0 0 0 0 0 0 0 0 
0 0 0 0 0 0 0 0 0 
0 0 0 0 0 0 0 0 0 
0 0 0 0 0 0 0 0 0 
0 0 0 0 0 0 0 0 0 
0 0 0 0 0 0 0 0 0 
0 0 0 0 0 0 -0.053314437806 -0.023219302206 0.1914279474 
0 0 0 0 0 0 0 0 0 
0 0 0 0 0 0 0 0 0 
0 0 0 0 0 0 0 0 0 
0 0 0 0 0 0 0 0 0 
0 0 0 0 0 0 0 0 0 
0 0 0 0 0 0 0 0 0 
0 0 0 0 0 0 0 0 0 
0 0 0 0 0 0 0 0 0 
0 0 0 0 0 0 0 0 0 
0 0 0 0 0 0 -0.68712432084 -0.15748771375 1.6059508568 
0 0 0 0 0 0 0 0 0 
0 0 0 0 0 0 0 0 0 
0 0 0 0 0 0 0 0 0 
0 0 0 0 0 0 0 0 0 
0 0 0 0 0 0 0 0 0 
0 0 0 0 0 0 0 0 0 
0 0 0 0 0 0 0 0 0 
0 0 0 0 0 0 0 0 0 
0 0 0 0 0 0 0 0 0 
0 0 0 0 0 0 0 0 0 
0 0 0 0 0 0 0 0 0 
0 0 0 0 0 0 0 0 0 
0 0 0 0 0 0 0 0 0 
0 0 0 0 0 0 0 0 0 
0 0 0 0 0 0 0 0 0 
0 0 0 0 0 0 0 0 0 
0 0 0 
radius 1 100 double
0.010434 0.00981478 0.00892069 0.00845937 0.00731974 0.00728422 0.00643447 0.00619172 0.00585956 
0.00577566 0.00537241 0.00522549 0.00513666 0.00473175 0.00466912 0.00444866 0.00441894 0.00400812 
0.00385622 0.00379948 0.00370243 0.00366942 0.00364039 0.00363813 0.00363644 0.00358692 0.0035797 
0.00341284 0.00337012 0.00336273 0.00332772 0.00323261 0.00320584 0.00320311 0.00318808 0.00313116 
0.00306026 0.00305632 0.00304383 0.00300958 0.00300137 0.00298994 0.0029567 0.00295111 0.00290849 
0.00284552 0.00282964 0.0028207 0.00281971 0.00281899 0.010434 0.00981478 0.00892069 0.00845937 
0.00731974 0.00728422 0.00643447 0.00619172 0.00585956 0.00577566 0.00537241 0.00522549 0.00513666 
0.00473175 0.00466912 0.00444866 0.00441894 0.00400812 0.00385622 0.00379948 0.00370243 0.00366942 
0.00364039 0.00363813 0.00363644 0.00358692 0.0035797 0.00341284 0.00337012 0.00336273 0.00332772 
0.00323261 0.00320584 0.00320311 0.00318808 0.00313116 0.00306026 0.00305632 0.00304383 0.00300958 
0.00300137 0.00298994 0.0029567 0.00295111 0.00290849 0.00284552 0.00282964 0.0028207 0.00281971 
0.00281899 
omega 3 100 double
18.820783296 -2.4506147499 -1.4254092908 18.820783296 -2.4506147499 -1.4254092908 18.820783296 -2.4506147499 -1.4254092908 
18.820783296 -2.4506147499 -1.4254092908 18.820783296 -2.4506147499 -1.4254092908 18.820783296 -2.4506147499 -1.4254092908 
18.820783296 -2.4506147499 -1.4254092908 18.820783296 -2.4506147499 -1.4254092908 18.820783296 -2.4506147499 -1.4254092908 
18.820783296 -2.4506147499 -1.4254092908 18.820783296 -2.4506147499 -1.4254092908 18.820783296 -2.4506147499 -1.4254092908 
18.820783296 -2.4506147499 -1.4254092908 18.820783296 -2.4506147499 -1.4254092908 18.820783296 -2.4506147499 -1.4254092908 
18.820783296 -2.4506147499 -1.4254092908 18.820783296 -2.4506147499 -1.4254092908 18.820783296 -2.4506147499 -1.4254092908 
18.820783296 -2.4506147499 -1.4254092908 18.820783296 -2.4506147499 -1.4254092908 18.820783296 -2.4506147499 -1.4254092908 
18.820783296 -2.4506147499 -1.4254092908 18.820783296 -2.4506147499 -1.4254092908 18.820783296 -2.4506147499 -1.4254092908 
18.820783296 -2.4506147499 -1.4254092908 18.820783296 -2.4506147499 -1.4254092908 18.820783296 -2.4506147499 -1.4254092908 
18.820783296 -2.4506147499 -1.4254092908 18.820783296 -2.4506147499 -1.4254092908 18.820783296 -2.4506147499 -1.4254092908 
18.820783296 -2.4506147499 -1.4254092908 18.820783296 -2.4506147499 -1.4254092908 18.820783296 -2.4506147499 -1.4254092908 
18.820783296 -2.4506147499 -1.4254092908 18.820783296 -2.4506147499 -1.4254092908 18.820783296 -2.4506147499 -1.4254092908 
18.820783296 -2.4506147499 -1.4254092908 18.820783296 -2.4506147499 -1.4254092908 18.820783296 -2.4506147499 -1.4254092908 
18.820783296 -2.4506147499 -1.4254092908 18.820783296 -2.4506147499 -1.4254092908 18.820783296 -2.4506147499 -1.4254092908 
18.820783296 -2.4506147499 -1.4254092908 18.820783296 -2.4506147499 -1.4254092908 18.820783296 -2.4506147499 -1.4254092908 
18.820783296 -2.4506147499 -1.4254092908 18.820783296 -2.4506147499 -1.4254092908 18.820783296 -2.4506147499 -1.4254092908 
18.820783296 -2.4506147499 -1.4254092908 18.820783296 -2.4506147499 -1.4254092908 18.793290238 -2.5490154491 -1.3925202186 
18.793290238 -2.5490154491 -1.3925202186 18.793290238 -2.5490154491 -1.3925202186 18.793290238 -2.5490154491 -1.3925202186 
18.793290238 -2.5490154491 -1.3925202186 18.793290238 -2.5490154491 -1.3925202186 18.793290238 -2.5490154491 -1.3925202186 
18.793290238 -2.5490154491 -1.3925202186 18.793290238 -2.5490154491 -1.3925202186 18.793290238 -2.5490154491 -1.3925202186 
18.793290238 -2.5490154491 -1.3925202186 18.793290238 -2.5490154491 -1.3925202186 18.793290238 -2.5490154491 -1.3925202186 
18.793290238 -2.5490154491 -1.3925202186 18.793290238 -2.5490154491 -1.3925202186 18.793290238 -2.5490154491 -1.3925202186 
18.793290238 -2.5490154491 -1.3925202186 18.793290238 -2.5490154491 -1.3925202186 18.793290238 -2.5490154491 -1.3925202186 
18.793290238 -2.5490154491 -1.3925202186 18.793290238 -2.5490154491 -1.3925202186 18.793290238 -2.5490154491 -1.3925202186 
18.793290238 -2.5490154491 -1.3925202186 18.793290238 -2.5490154491 -1.3925202186 18.793290238 -2.5490154491 -1.3925202186 
18.793290238 -2.5490154491 -1.3925202186 18.793290238 -2.5490154491 -1.3925202186 18.793290238 -2.5490154491 -1.3925202186 
18.793290238 -2.5490154491 -1.3925202186 18.793290238 -2.5490154491 -1.3925202186 18.793290238 -2.5490154491 -1.3925202186 
18.793290238 -2.5490154491 -1.3925202186 18.793290238 -2.5490154491 -1.3925202186 18.793290238 -2.5490154491 -1.3925202186 
18.793290238 -2.5490154491 -1.3925202186 18.793290238 -2.5490154491 -1.3925202186 18.793290238 -2.5490154491 -1.3925202186 
18.793290238 -2.5490154491 -1.3925202186 18.793290238 -2.5490154491 -1.3925202186 18.793290238 -2.5490154491 -1.3925202186 
18.793290238 -2.5490154491 -1.3925202186 18.793290238 -2.5490154491 -1.3925202186 18.793290238 -2.5490154491 -1.3925202186 
18.793290238 -2.5490154491 -1.3925202186 18.793290238 -2.5490154491 -1.3925202186 18.793290238 -2.5490154491 -1.3925202186 
18.793290238 -2.5490154491 -1.3925202186 18.793290238 -2.5490154491 -1.3925202186 18.793290238 -2.5490154491 -1.3925202186 
18.793290238 -2.5490154491 -1.3925202186 
