# vtk DataFile Version 4.1
Generated by LIGGGHTS
ASCII
DATASET POLYDATA
POINTS 100 float
-0.116998 -0.146917 0.0131965 -0.126883 -0.14394 0.011534 -0.136686 -0.141846 0.0117733 
-0.124159 -0.152662 0.0185573 -0.110518 -0.152652 0.0191282 -0.132551 -0.15045 0.0172469 
-0.143182 -0.14709 0.0154083 -0.116568 -0.157069 0.0184977 -0.145477 -0.140161 0.0110067 
-0.119853 -0.137612 0.00799305 -0.130391 -0.157934 0.0210104 -0.13969 -0.152435 0.0181781 
-0.124591 -0.134151 0.0105765 -0.125302 -0.161166 0.0216047 -0.130797 -0.134524 0.011058 
-0.136146 -0.156341 0.0196842 -0.117172 -0.153853 0.0238752 -0.142195 -0.134542 0.0134729 
-0.116131 -0.141802 0.0039576 -0.149419 -0.145142 0.0127242 -0.120901 -0.145518 0.00359717 
-0.12967 -0.163215 0.0231581 -0.113219 -0.156889 0.0130345 -0.103163 -0.150994 0.0207366 
-0.106983 -0.150478 0.0130391 -0.120644 -0.13639 0.0139965 -0.108329 -0.14574 0.0206984 
-0.105449 -0.150147 0.0239302 -0.133799 -0.161831 0.0228219 -0.128042 -0.145567 0.0212469 
-0.136783 -0.160301 0.0221178 -0.110335 -0.160156 0.0187241 -0.133128 -0.14427 0.00393429 
-0.12051 -0.16205 0.0202151 -0.151155 -0.14059 0.00912453 -0.109997 -0.154986 0.0118489 
-0.140861 -0.157479 0.0205177 -0.120718 -0.159445 0.0225909 -0.146378 -0.152453 0.0173017 
-0.125344 -0.136047 0.0054849 -0.137434 -0.150961 0.011819 -0.122218 -0.160958 0.0173233 
-0.11781 -0.149455 0.0236293 -0.119161 -0.15729 0.0123341 -0.144164 -0.140642 0.0169002 
-0.14931 -0.149485 0.0153338 -0.106745 -0.147045 0.0111494 -0.128246 -0.1354 0.00668263 
-0.140565 -0.159828 0.0225015 -0.135057 -0.132557 0.0125416 -0.0478409 -0.117544 0.0131569 
-0.0579469 -0.11531 0.0116689 -0.0678905 -0.114071 0.0120208 -0.0544739 -0.124213 0.0181096 
-0.0408813 -0.123089 0.0187146 -0.0630274 -0.122637 0.0169264 -0.0739097 -0.120073 0.015286 
-0.0465381 -0.12795 0.0177792 -0.0767954 -0.113089 0.0113444 -0.0514876 -0.108191 0.00857028 
-0.0602307 -0.130143 0.0201944 -0.0699702 -0.125275 0.0177068 -0.0564922 -0.10532 0.011364 
-0.054886 -0.132966 0.0205874 -0.0626436 -0.106247 0.0118041 -0.0661042 -0.128958 0.0189613 
-0.0473951 -0.125157 0.0233552 -0.0739923 -0.107387 0.0141836 -0.0474368 -0.111777 0.00427715 
-0.0802971 -0.118487 0.0127201 -0.0518772 -0.11585 0.00366071 -0.0590598 -0.135474 0.0219915 
-0.0432331 -0.127128 0.0123483 -0.0336874 -0.120925 0.0204474 -0.0375613 -0.120227 0.0127909 
-0.0523599 -0.107438 0.0146391 -0.0392794 -0.116135 0.0207421 -0.0360273 -0.120485 0.023684 
-0.0632922 -0.134425 0.0217366 -0.0589344 -0.117665 0.0212507 -0.0663971 -0.13311 0.0211272 
-0.0400659 -0.130507 0.0178177 -0.0641646 -0.115665 0.00404817 -0.0500397 -0.133348 0.0191549 
-0.0824217 -0.113871 0.00942367 -0.0401867 -0.124886 0.0112988 -0.0707032 -0.130543 0.0197061 
-0.0504608 -0.130932 0.0216966 -0.0766352 -0.1258 0.0168141 -0.0570987 -0.106933 0.00615671 
-0.0678664 -0.1232 0.0114642 -0.0518434 -0.132217 0.0163369 -0.0484035 -0.120822 0.0233979 
-0.0491219 -0.127983 0.0116079 -0.0754278 -0.113844 0.0171968 -0.0798137 -0.122968 0.0150384 
-0.0376197 -0.11667 0.0111319 -0.0600412 -0.106614 0.00738707 -0.0702046 -0.132984 0.0215317 
-0.0670496 -0.104749 0.0134032 
VERTICES 100 200
1 0 
1 1 
1 2 
1 3 
1 4 
1 5 
1 6 
1 7 
1 8 
1 9 
1 10 
1 11 
1 12 
1 13 
1 14 
1 15 
1 16 
1 17 
1 18 
1 19 
1 20 
1 21 
1 22 
1 23 
1 24 
1 25 
1 26 
1 27 
1 28 
1 29 
1 30 
1 31 
1 32 
1 33 
1 34 
1 35 
1 36 
1 37 
1 38 
1 39 
1 40 
1 41 
1 42 
1 43 
1 44 
1 45 
1 46 
1 47 
1 48 
1 49 
1 50 
1 51 
1 52 
1 53 
1 54 
1 55 
1 56 
1 57 
1 58 
1 59 
1 60 
1 61 
1 62 
1 63 
1 64 
1 65 
1 66 
1 67 
1 68 
1 69 
1 70 
1 71 
1 72 
1 73 
1 74 
1 75 
1 76 
1 77 
1 78 
1 79 
1 80 
1 81 
1 82 
1 83 
1 84 
1 85 
1 86 
1 87 
1 88 
1 89 
1 90 
1 91 
1 92 
1 93 
1 94 
1 95 
1 96 
1 97 
1 98 
1 99 

POINT_DATA 100
FIELD FieldData 7
id 1 100 int
1 2 3 4 5 6 7 8 9 
10 11 12 13 14 15 16 17 18 
19 20 21 22 23 24 25 26 27 
28 29 30 31 32 33 34 35 36 
37 38 39 40 41 42 43 44 45 
46 47 48 49 50 51 52 53 54 
55 56 57 58 59 60 61 62 63 
64 65 66 67 68 69 70 71 72 
73 74 75 76 77 78 79 80 81 
82 83 84 85 86 87 88 89 90 
91 92 93 94 95 96 97 98 99 
100 
mol 1 100 int
1 1 1 1 1 1 1 1 1 
1 1 1 1 1 1 1 1 1 
1 1 1 1 1 1 1 1 1 
1 1 1 1 1 1 1 1 1 
1 1 1 1 1 1 1 1 1 
1 1 1 1 1 2 2 2 2 
2 2 2 2 2 2 2 2 2 
2 2 2 2 2 2 2 2 2 
2 2 2 2 2 2 2 2 2 
2 2 2 2 2 2 2 2 2 
2 2 2 2 2 2 2 2 2 
2 
type 1 100 int
1 1 1 1 1 1 1 1 1 
1 1 1 1 1 1 1 1 1 
1 1 1 1 1 1 1 1 1 
1 1 1 1 1 1 1 1 1 
1 1 1 1 1 1 1 1 1 
1 1 1 1 1 1 1 1 1 
1 1 1 1 1 1 1 1 1 
1 1 1 1 1 1 1 1 1 
1 1 1 1 1 1 1 1 1 
1 1 1 1 1 1 1 1 1 
1 1 1 1 1 1 1 1 1 
1 
v 3 100 double
0.025618455375 -0.15685591485 -0.015387333996 0.025356411929 -0.12731398105 0.039074669816 0.028093392156 -0.1195574609 0.083293937011 
0.030588346847 -0.21035432352 -0.066077668962 0.031782371454 -0.23146152181 -0.094253720353 0.030238036882 -0.18642564144 -0.02343615789 
0.030020027832 -0.15407673539 0.036935709388 0.02574958765 -0.21779635522 -0.13209994611 0.028305902822 -0.10140590754 0.12074027264 
0.024784192263 -0.094438120604 0.096690686586 0.030034851767 -0.23167434422 -0.1133010517 0.03004546388 -0.18941271382 -0.031279036565 
0.033844021863 -0.11884377208 0.14599958338 0.027808672896 -0.24389716907 -0.16072964991 0.034443067357 -0.11769673842 0.15461067435 
0.028989232908 -0.21038611133 -0.083191590731 0.040340695547 -0.27849915161 -0.094156564541 0.039431572864 -0.13305270895 0.17804412272 
0.011933796491 -0.052381990511 0.041169760451 0.026538337462 -0.11678188297 0.072090906331 0.0072113125908 -0.043166420321 0.0086721199727 
0.028838166322 -0.25694752301 -0.17504492375 0.014614597098 -0.15905176045 -0.13698393621 0.036891240997 -0.25768069081 -0.090591130567 
0.021483056176 -0.1657759354 -0.076773806583 0.03853989185 -0.16208326678 0.11227037884 0.042433353606 -0.25171739018 -0.019934557619 
0.044420228341 -0.29166857315 -0.076178205641 0.029621652205 -0.24869347553 -0.15069266392 0.043755622107 -0.23688472852 0.022913323925 
0.029798132457 -0.23746795564 -0.12705414761 0.022916430679 -0.22704746668 -0.18024152722 0.0092449566385 -0.033931583354 0.048256472252 
0.023982020745 -0.23317242894 -0.18074951938 0.023944464306 -0.073858768927 0.12762177666 0.014192104154 -0.14897320654 -0.12195560873 
0.029499973703 -0.21485141389 -0.086399625244 0.031695470861 -0.26005338411 -0.15059535484 0.028208342152 -0.17225910718 -0.017623320488 
0.021258270175 -0.059949198572 0.12593593517 0.018435834323 -0.1192770972 -0.0191470206 0.019153901193 -0.19835258927 -0.16474902077 
0.044536445716 -0.27501147275 -0.042655158581 0.012733378977 -0.14470453853 -0.12923760598 0.040011752966 -0.17004748798 0.11252996218 
0.027303177766 -0.14667109302 0.022317458362 0.021236948804 -0.14447184263 -0.038107935686 0.024433928311 -0.070509101027 0.13933334245 
0.031100441833 -0.23779930647 -0.11380904386 0.0396240355 -0.13006510508 0.18588685458 0.064930739543 -0.12850443839 -0.040315883063 
0.05899895653 -0.10855210388 0.029932966997 0.061377625572 -0.10645637107 0.089781287413 0.085098905168 -0.1726678931 -0.072776895039 
0.088633844199 -0.18601986111 -0.12738315847 0.080271550933 -0.15651624853 -0.016355509433 0.073787397248 -0.13466327355 0.060806917019 
0.081443489157 -0.17386209581 -0.14708338496 0.058662947467 -0.095005246564 0.14215487526 0.048008076768 -0.082196763919 0.067568227042 
0.091863963207 -0.18962099204 -0.1023142968 0.082572705602 -0.16021704481 -0.008393605131 0.063049210198 -0.10641099911 0.11939580165 
0.092197060412 -0.19636906386 -0.15531841306 0.064656506435 -0.10726257169 0.14006741642 0.086579869813 -0.17446808987 -0.062583202891 
0.1098412072 -0.22723618361 -0.11598745181 0.07548711806 -0.12397197953 0.18371950769 0.025350679572 -0.042975851958 0.013431124498 
0.06230612491 -0.10635564019 0.10688940538 0.020131324963 -0.034569673677 -0.0045210014102 0.097573766547 -0.20762245704 -0.15943652472 
0.0557414163 -0.12324126925 -0.15506161876 0.098174792666 -0.20672795871 -0.14113287626 0.06168558347 -0.13064924686 -0.11573805157 
0.077652601519 -0.1403218312 0.079041247071 0.10224065605 -0.20648490289 -0.067943506137 0.11400573815 -0.23669142353 -0.12561868111 
0.096925912001 -0.2028227187 -0.12891898391 0.10384486906 -0.20053736179 0.011945766008 0.09471728239 -0.19522204629 -0.10126623806 
0.080215788071 -0.17780908826 -0.20295143533 0.022099652323 -0.031523092285 0.056443685611 0.085086685936 -0.18521255599 -0.18234909696 
0.048980177499 -0.073347874947 0.16170091522 0.051925549689 -0.11478903195 -0.14807951917 0.089291324933 -0.17911965824 -0.055737719029 
0.098662521872 -0.20952478639 -0.15698892193 0.077982735317 -0.14791384637 0.018628220321 0.037078752452 -0.055788905072 0.10673730012 
0.0536533049 -0.1010945026 0.0015039342601 0.072139989095 -0.15700266616 -0.16273403435 0.11244187986 -0.2270913758 -0.069265818708 
0.051703628534 -0.11283825995 -0.13495272418 0.086431579207 -0.15227697929 0.12827662001 0.070996002794 -0.12901052426 0.061291944387 
0.055660986779 -0.11459625298 -0.081104228495 0.043180683103 -0.066044907498 0.12399077025 0.096734861072 -0.19702445976 -0.081711958426 
0.073185737896 -0.1202707342 0.17575757632 
f 3 100 double
0 0 0 0 0 0 0 0 0 
0 0 0 0 0 0 0 0 0 
0 0 0 0 0 0 0 0 0 
0 0 0 0 0 0 0 0 0 
0 0 0 0 0 0 0 0 0 
0 0 0 0 0 0 0 0 0 
0 0 0 0 0 0 -0.11022605603 -0.04153830321 0.44184255463 
0 0 0 0 0 0 0 0 0 
0 0 0 0 0 0 0 0 0 
0 0 0 0 0 0 0 0 0 
0 0 0 0 0 0 0 0 0 
0 0 0 0 0 0 0 0 0 
0 0 0 0 0 0 0 0 0 
0 0 0 0 0 0 0 0 0 
0 0 0 0 0 0 0 0 0 
0 0 0 0 0 0 0 0 0 
0 0 0 0 0 0 0 0 0 
0 0 0 0 0 0 0 0 0 
0 0 0 0 0 0 0 0 0 
0 0 0 0 0 0 0 0 0 
0 0 0 0 0 0 0 0 0 
0 0 0 0 0 0 0 0 0 
0 0 0 0 0 0 0 0 0 
0 0 0 -0.01167295963 -0.016963362026 0.18131800356 0 0 0 
0 0 0 0 0 0 0 0 0 
0 0 0 0 0 0 0 0 0 
0 0 0 0 0 0 0 0 0 
0 0 0 0 0 0 0 0 0 
0 0 0 0 0 0 0 0 0 
0 0 0 0 0 0 0 0 0 
0 0 0 0 0 0 0 0 0 
0 0 0 0 0 0 0 0 0 
0 0 0 0 0 0 0 0 0 
0 0 0 
radius 1 100 double
0.010434 0.00981478 0.00892069 0.00845937 0.00731974 0.00728422 0.00643447 0.00619172 0.00585956 
0.00577566 0.00537241 0.00522549 0.00513666 0.00473175 0.00466912 0.00444866 0.00441894 0.00400812 
0.00385622 0.00379948 0.00370243 0.00366942 0.00364039 0.00363813 0.00363644 0.00358692 0.0035797 
0.00341284 0.00337012 0.00336273 0.00332772 0.00323261 0.00320584 0.00320311 0.00318808 0.00313116 
0.00306026 0.00305632 0.00304383 0.00300958 0.00300137 0.00298994 0.0029567 0.00295111 0.00290849 
0.00284552 0.00282964 0.0028207 0.00281971 0.00281899 0.010434 0.00981478 0.00892069 0.00845937 
0.00731974 0.00728422 0.00643447 0.00619172 0.00585956 0.00577566 0.00537241 0.00522549 0.00513666 
0.00473175 0.00466912 0.00444866 0.00441894 0.00400812 0.00385622 0.00379948 0.00370243 0.00366942 
0.00364039 0.00363813 0.00363644 0.00358692 0.0035797 0.00341284 0.00337012 0.00336273 0.00332772 
0.00323261 0.00320584 0.00320311 0.00318808 0.00313116 0.00306026 0.00305632 0.00304383 0.00300958 
0.00300137 0.00298994 0.0029567 0.00295111 0.00290849 0.00284552 0.00282964 0.0028207 0.00281971 
0.00281899 
omega 3 100 double
11.408541001 2.0735323779 -1.0698582272 11.408541001 2.0735323779 -1.0698582272 11.408541001 2.0735323779 -1.0698582272 
11.408541001 2.0735323779 -1.0698582272 11.408541001 2.0735323779 -1.0698582272 11.408541001 2.0735323779 -1.0698582272 
11.408541001 2.0735323779 -1.0698582272 11.408541001 2.0735323779 -1.0698582272 11.408541001 2.0735323779 -1.0698582272 
11.408541001 2.0735323779 -1.0698582272 11.408541001 2.0735323779 -1.0698582272 11.408541001 2.0735323779 -1.0698582272 
11.408541001 2.0735323779 -1.0698582272 11.408541001 2.0735323779 -1.0698582272 11.408541001 2.0735323779 -1.0698582272 
11.408541001 2.0735323779 -1.0698582272 11.408541001 2.0735323779 -1.0698582272 11.408541001 2.0735323779 -1.0698582272 
11.408541001 2.0735323779 -1.0698582272 11.408541001 2.0735323779 -1.0698582272 11.408541001 2.0735323779 -1.0698582272 
11.408541001 2.0735323779 -1.0698582272 11.408541001 2.0735323779 -1.0698582272 11.408541001 2.0735323779 -1.0698582272 
11.408541001 2.0735323779 -1.0698582272 11.408541001 2.0735323779 -1.0698582272 11.408541001 2.0735323779 -1.0698582272 
11.408541001 2.0735323779 -1.0698582272 11.408541001 2.0735323779 -1.0698582272 11.408541001 2.0735323779 -1.0698582272 
11.408541001 2.0735323779 -1.0698582272 11.408541001 2.0735323779 -1.0698582272 11.408541001 2.0735323779 -1.0698582272 
11.408541001 2.0735323779 -1.0698582272 11.408541001 2.0735323779 -1.0698582272 11.408541001 2.0735323779 -1.0698582272 
11.408541001 2.0735323779 -1.0698582272 11.408541001 2.0735323779 -1.0698582272 11.408541001 2.0735323779 -1.0698582272 
11.408541001 2.0735323779 -1.0698582272 11.408541001 2.0735323779 -1.0698582272 11.408541001 2.0735323779 -1.0698582272 
11.408541001 2.0735323779 -1.0698582272 11.408541001 2.0735323779 -1.0698582272 11.408541001 2.0735323779 -1.0698582272 
11.408541001 2.0735323779 -1.0698582272 11.408541001 2.0735323779 -1.0698582272 11.408541001 2.0735323779 -1.0698582272 
11.408541001 2.0735323779 -1.0698582272 11.408541001 2.0735323779 -1.0698582272 9.6570164319 4.8161526876 -0.55246688631 
9.6570164319 4.8161526876 -0.55246688631 9.6570164319 4.8161526876 -0.55246688631 9.6570164319 4.8161526876 -0.55246688631 
9.6570164319 4.8161526876 -0.55246688631 9.6570164319 4.8161526876 -0.55246688631 9.6570164319 4.8161526876 -0.55246688631 
9.6570164319 4.8161526876 -0.55246688631 9.6570164319 4.8161526876 -0.55246688631 9.6570164319 4.8161526876 -0.55246688631 
9.6570164319 4.8161526876 -0.55246688631 9.6570164319 4.8161526876 -0.55246688631 9.6570164319 4.8161526876 -0.55246688631 
9.6570164319 4.8161526876 -0.55246688631 9.6570164319 4.8161526876 -0.55246688631 9.6570164319 4.8161526876 -0.55246688631 
9.6570164319 4.8161526876 -0.55246688631 9.6570164319 4.8161526876 -0.55246688631 9.6570164319 4.8161526876 -0.55246688631 
9.6570164319 4.8161526876 -0.55246688631 9.6570164319 4.8161526876 -0.55246688631 9.6570164319 4.8161526876 -0.55246688631 
9.6570164319 4.8161526876 -0.55246688631 9.6570164319 4.8161526876 -0.55246688631 9.6570164319 4.8161526876 -0.55246688631 
9.6570164319 4.8161526876 -0.55246688631 9.6570164319 4.8161526876 -0.55246688631 9.6570164319 4.8161526876 -0.55246688631 
9.6570164319 4.8161526876 -0.55246688631 9.6570164319 4.8161526876 -0.55246688631 9.6570164319 4.8161526876 -0.55246688631 
9.6570164319 4.8161526876 -0.55246688631 9.6570164319 4.8161526876 -0.55246688631 9.6570164319 4.8161526876 -0.55246688631 
9.6570164319 4.8161526876 -0.55246688631 9.6570164319 4.8161526876 -0.55246688631 9.6570164319 4.8161526876 -0.55246688631 
9.6570164319 4.8161526876 -0.55246688631 9.6570164319 4.8161526876 -0.55246688631 9.6570164319 4.8161526876 -0.55246688631 
9.6570164319 4.8161526876 -0.55246688631 9.6570164319 4.8161526876 -0.55246688631 9.6570164319 4.8161526876 -0.55246688631 
9.6570164319 4.8161526876 -0.55246688631 9.6570164319 4.8161526876 -0.55246688631 9.6570164319 4.8161526876 -0.55246688631 
9.6570164319 4.8161526876 -0.55246688631 9.6570164319 4.8161526876 -0.55246688631 9.6570164319 4.8161526876 -0.55246688631 
9.6570164319 4.8161526876 -0.55246688631 
