# vtk DataFile Version 4.1
Generated by LIGGGHTS
ASCII
DATASET POLYDATA
POINTS 100 float
-0.109406 -0.129523 0.0180675 -0.119809 -0.130425 0.0186188 -0.129549 -0.130538 0.0209973 
-0.113077 -0.130758 0.0279672 -0.10051 -0.127986 0.0234115 -0.121777 -0.131664 0.028705 
-0.133031 -0.132565 0.029163 -0.104465 -0.132453 0.0279845 -0.138342 -0.131475 0.0225859 
-0.116235 -0.12751 0.00963406 -0.116465 -0.13361 0.0352501 -0.127441 -0.13356 0.0331873 
-0.121539 -0.124141 0.0109045 -0.110502 -0.134476 0.0358707 -0.127019 -0.125116 0.013717 
-0.122516 -0.134488 0.0354166 -0.105517 -0.126523 0.0298169 -0.137132 -0.125357 0.0194991 
-0.111779 -0.132589 0.00820643 -0.13984 -0.134266 0.0283533 -0.114791 -0.136169 0.0120536 
-0.11352 -0.135488 0.0398137 -0.102194 -0.135688 0.0229373 -0.0941841 -0.124444 0.0207882 
-0.0989062 -0.1303 0.0166013 -0.116621 -0.122501 0.0132297 -0.100909 -0.121833 0.0192874 
-0.096173 -0.121969 0.0232505 -0.117871 -0.135513 0.0401985 -0.118959 -0.124724 0.0266875 
-0.121277 -0.135507 0.0398257 -0.097557 -0.133288 0.0278473 -0.126419 -0.137198 0.0159155 
-0.105962 -0.135243 0.0337519 -0.143631 -0.134099 0.0236326 -0.10012 -0.134707 0.019752 
-0.126293 -0.135467 0.0384155 -0.106822 -0.131818 0.0337866 -0.133678 -0.135358 0.0350237 
-0.122192 -0.129212 0.0089176 -0.126781 -0.13676 0.0271028 -0.108326 -0.136887 0.0317064 
-0.107798 -0.123855 0.0270804 -0.107579 -0.137487 0.0248669 -0.13617 -0.127328 0.0264291 
-0.137749 -0.135286 0.0328558 -0.100238 -0.129313 0.0130431 -0.124935 -0.128415 0.0103718 
-0.12487 -0.135565 0.0411547 -0.131468 -0.123461 0.0150168 -0.0405462 -0.101739 0.0192415 
-0.0509595 -0.102651 0.0195036 -0.0607599 -0.102787 0.021617 -0.0444826 -0.103062 0.0290273 
-0.0317979 -0.100246 0.024837 -0.0531985 -0.103977 0.0295218 -0.0644606 -0.104887 0.0296678 
-0.0358724 -0.104753 0.0292627 -0.069592 -0.103742 0.0229592 -0.0471461 -0.0996559 0.0106443 
-0.0480637 -0.105978 0.0361911 -0.0589807 -0.105914 0.0338329 -0.0524844 -0.0963003 0.0118 
-0.0421193 -0.106847 0.036965 -0.0580379 -0.097302 0.0144548 -0.0541173 -0.10686 0.0361863 
-0.0369775 -0.0988402 0.0311171 -0.0683028 -0.0975961 0.0199593 -0.0426497 -0.104721 0.00929375 
-0.0712434 -0.106583 0.0286598 -0.0457627 -0.108335 0.013027 -0.0452426 -0.107894 0.0408162 
-0.0334643 -0.107944 0.024251 -0.0254061 -0.0966789 0.0224163 -0.0300098 -0.1025 0.0180529 
-0.0476313 -0.0946791 0.0142713 -0.03209 -0.094057 0.020757 -0.0274624 -0.0942261 0.0248452 
-0.0496023 -0.107924 0.0410831 -0.0503315 -0.0970192 0.0276413 -0.0529972 -0.107916 0.0406184 
-0.0289632 -0.105585 0.029305 -0.0574894 -0.109402 0.0165642 -0.0375238 -0.107594 0.0349632 
-0.0749062 -0.106376 0.0238399 -0.0313058 -0.106934 0.0211314 -0.0579733 -0.107865 0.0390735 
-0.0383863 -0.10417 0.0350042 -0.0652632 -0.10773 0.0354845 -0.0530802 -0.101354 0.00975243 
-0.058154 -0.109061 0.0277411 -0.0398308 -0.109221 0.0328404 -0.0391855 -0.0961491 0.0283432 
-0.0388982 -0.109762 0.0260187 -0.0675276 -0.0996267 0.0268954 -0.0692745 -0.107641 0.0332081 
-0.031246 -0.101483 0.0144687 -0.0558621 -0.100571 0.0111388 -0.0566243 -0.107987 0.0418493 
-0.0625206 -0.0956598 0.0156482 
VERTICES 100 200
1 0 
1 1 
1 2 
1 3 
1 4 
1 5 
1 6 
1 7 
1 8 
1 9 
1 10 
1 11 
1 12 
1 13 
1 14 
1 15 
1 16 
1 17 
1 18 
1 19 
1 20 
1 21 
1 22 
1 23 
1 24 
1 25 
1 26 
1 27 
1 28 
1 29 
1 30 
1 31 
1 32 
1 33 
1 34 
1 35 
1 36 
1 37 
1 38 
1 39 
1 40 
1 41 
1 42 
1 43 
1 44 
1 45 
1 46 
1 47 
1 48 
1 49 
1 50 
1 51 
1 52 
1 53 
1 54 
1 55 
1 56 
1 57 
1 58 
1 59 
1 60 
1 61 
1 62 
1 63 
1 64 
1 65 
1 66 
1 67 
1 68 
1 69 
1 70 
1 71 
1 72 
1 73 
1 74 
1 75 
1 76 
1 77 
1 78 
1 79 
1 80 
1 81 
1 82 
1 83 
1 84 
1 85 
1 86 
1 87 
1 88 
1 89 
1 90 
1 91 
1 92 
1 93 
1 94 
1 95 
1 96 
1 97 
1 98 
1 99 

POINT_DATA 100
FIELD FieldData 7
id 1 100 int
1 2 3 4 5 6 7 8 9 
10 11 12 13 14 15 16 17 18 
19 20 21 22 23 24 25 26 27 
28 29 30 31 32 33 34 35 36 
37 38 39 40 41 42 43 44 45 
46 47 48 49 50 51 52 53 54 
55 56 57 58 59 60 61 62 63 
64 65 66 67 68 69 70 71 72 
73 74 75 76 77 78 79 80 81 
82 83 84 85 86 87 88 89 90 
91 92 93 94 95 96 97 98 99 
100 
mol 1 100 int
1 1 1 1 1 1 1 1 1 
1 1 1 1 1 1 1 1 1 
1 1 1 1 1 1 1 1 1 
1 1 1 1 1 1 1 1 1 
1 1 1 1 1 1 1 1 1 
1 1 1 1 1 2 2 2 2 
2 2 2 2 2 2 2 2 2 
2 2 2 2 2 2 2 2 2 
2 2 2 2 2 2 2 2 2 
2 2 2 2 2 2 2 2 2 
2 2 2 2 2 2 2 2 2 
2 
type 1 100 int
1 1 1 1 1 1 1 1 1 
1 1 1 1 1 1 1 1 1 
1 1 1 1 1 1 1 1 1 
1 1 1 1 1 1 1 1 1 
1 1 1 1 1 1 1 1 1 
1 1 1 1 1 1 1 1 1 
1 1 1 1 1 1 1 1 1 
1 1 1 1 1 1 1 1 1 
1 1 1 1 1 1 1 1 1 
1 1 1 1 1 1 1 1 1 
1 1 1 1 1 1 1 1 1 
1 
v 3 100 double
-0.10281109942 -0.05912364624 0.32585000163 -0.10659697289 -0.061140416977 0.25110562736 -0.12323267302 -0.067041830462 0.18270470433 
-0.17199052582 -0.080748963501 0.29749715412 -0.14033081562 -0.069930606741 0.39142059786 -0.17708153852 -0.083032005038 0.23466492524 
-0.18021513129 -0.084915735236 0.15396396034 -0.17197662357 -0.080100041653 0.35411797835 -0.13427508211 -0.071165710558 0.11915074387 
-0.043953878039 -0.041494375193 0.28239788712 -0.22272958248 -0.096712957137 0.26764726208 -0.20829801733 -0.09314234496 0.19094092195 
-0.053113070222 -0.044654713334 0.25254026493 -0.22700313117 -0.097575081278 0.3075090466 -0.072717176413 -0.051151979353 0.21208895965 
-0.22382438949 -0.097553797168 0.22340443235 -0.18527231245 -0.084132565823 0.35953158691 -0.11316153846 -0.064417667346 0.14080348513 
-0.03355860466 -0.038062901606 0.30263842388 -0.17441355954 -0.083713408782 0.10265542253 -0.060195761914 -0.046593157622 0.27384317664 
-0.25451611198 -0.10631250875 0.28420530742 -0.13639897624 -0.069043029291 0.3630365223 -0.12225472408 -0.063773541541 0.44331856012 
-0.092488518372 -0.055127480744 0.39765527056 -0.069515276322 -0.049273346996 0.29049468652 -0.11196070829 -0.061075447779 0.40188272759 
-0.13968326396 -0.069238078792 0.4347334379 -0.25720716482 -0.10748843623 0.25370367741 -0.16351645115 -0.078460126743 0.26933816833 
-0.25459832495 -0.10695633357 0.22987974259 -0.17095020684 -0.079254120922 0.40065678413 -0.087139459618 -0.055841603052 0.19025797857 
-0.21211512384 -0.092647744536 0.33762286559 -0.14139100458 -0.07384272588 0.076481433997 -0.11418596427 -0.062013647494 0.37966326157 
-0.24473286732 -0.10431710434 0.19486468274 -0.21263061377 -0.092790944054 0.33898744002 -0.22100582249 -0.097596459904 0.14342465747 
-0.038804495405 -0.040425069598 0.23704519142 -0.16546375222 -0.079978206037 0.18866834087 -0.19766958371 -0.088428195788 0.31753667577 
-0.16633500793 -0.078417461588 0.34931787912 -0.14975897574 -0.073630166826 0.32147608906 -0.16150074765 -0.079274569294 0.14328526711 
-0.20584047216 -0.093249200527 0.1150872928 -0.067666729045 -0.047566008584 0.39045868484 -0.049044546884 -0.043777317649 0.21956506074 
-0.26389449948 -0.11010658075 0.20461334354 -0.081945019771 -0.054307318735 0.184527173 -0.1023271038 -0.058829900797 0.27840097895 
-0.10402096156 -0.06061724296 0.20489444164 -0.1185324345 -0.066237214071 0.13723618612 -0.16944007369 -0.07994029176 0.24855061218 
-0.14096920058 -0.069597085461 0.34168868503 -0.17273144896 -0.082016809705 0.18670457692 -0.17362681524 -0.083659654903 0.10736727204 
-0.17085781598 -0.079416262145 0.3041710829 -0.12764619189 -0.070115716248 0.074508149638 -0.043474627562 -0.041475782334 0.23742645927 
-0.21834039235 -0.09547741791 0.21778155737 -0.20213733506 -0.091796756419 0.14287106098 -0.05181724801 -0.044546700225 0.20780818975 
-0.22355764486 -0.096405468852 0.25681139478 -0.069948451608 -0.050805545523 0.1675192488 -0.21820317803 -0.09618496115 0.17430780853 
-0.18430690348 -0.083459413411 0.30904882265 -0.10775253569 -0.063634360904 0.096335231095 -0.033590395803 -0.038093758949 0.25765091291 
-0.16649636627 -0.082337176623 0.057162664885 -0.058825239263 -0.046338329902 0.22862646977 -0.24990731044 -0.10489998339 0.23313227238 
-0.13602803937 -0.068558287827 0.31399474636 -0.12475118348 -0.063732666074 0.39315230119 -0.094066254325 -0.055073513735 0.34922617672 
-0.068997909556 -0.049184857577 0.24458967112 -0.11365560941 -0.061024562581 0.35273707282 -0.14173925117 -0.069100486294 0.3841917068 
-0.25173836518 -0.10597977842 0.20309940071 -0.16062926917 -0.077709926531 0.22109152604 -0.24854474825 -0.10540185673 0.179778705 
-0.17105030796 -0.078686580464 0.34991243649 -0.083014641524 -0.055190451959 0.14576367331 -0.20970801832 -0.09163772758 0.28682580233 
-0.13338792236 -0.072603512568 0.032419254033 -0.11470313866 -0.061721506884 0.3309623734 -0.23793113047 -0.10273275595 0.14567881274 
-0.21039594149 -0.091826498507 0.28812129801 -0.21327539851 -0.096025596546 0.095851995241 -0.037142556475 -0.040297778771 0.19305188803 
-0.1598875576 -0.078847603017 0.14191552788 -0.19492261446 -0.08743302058 0.26753511686 -0.16555703567 -0.077869288218 0.29954727693 
-0.14796448809 -0.072931605133 0.2728057052 -0.15519267058 -0.078174787951 0.097380392903 -0.19763710907 -0.091698779037 0.068464278946 
-0.069547812544 -0.047658824071 0.34287370547 -0.046765650728 -0.043552202174 0.17557984696 -0.25699810272 -0.10842856503 0.15469492321 
-0.078346599937 -0.053854404267 0.14016843887 
f 3 100 double
0 0 0 0 0 0 0 0 0 
0 0 0 0 0 0 0 0 0 
0 0 0 0 0 0 0 0 0 
0 0 0 0 0 0 0 0 0 
0 0 0 0 0 0 0 0 0 
0 0 0 0 0 0 0 0 0 
0 0 0 0 0 0 0 0 0 
0 0 0 0 0 0 0 0 0 
0 0 0 0 0 0 0 0 0 
0 0 0 0 0 0 0 0 0 
0 0 0 0 0 0 0 0 0 
0 0 0 0 0 0 0 0 0 
0 0 0 0 0 0 0 0 0 
0 0 0 0 0 0 0 0 0 
0 0 0 0 0 0 0 0 0 
0 0 0 0 0 0 0 0 0 
0 0 0 0 0 0 0 0 0 
0 0 0 0 0 0 0 0 0 
0 0 0 0 0 0 0 0 0 
0 0 0 0 0 0 0 0 0 
0 0 0 0 0 0 0 0 0 
0 0 0 0 0 0 0 0 0 
0 0 0 0 0 0 0 0 0 
0 0 0 0 0 0 0 0 0 
0 0 0 0 0 0 0 0 0 
0 0 0 0 0 0 0 0 0 
0 0 0 0 0 0 0 0 0 
0 0 0 0 0 0 0 0 0 
0 0 0 0 0 0 0 0 0 
0 0 0 0 0 0 0 0 0 
0 0 0 0 0 0 0 0 0 
0 0 0 0 0 0 0 0 0 
0 0 0 0 0 0 0 0 0 
0 0 0 
radius 1 100 double
0.010434 0.00981478 0.00892069 0.00845937 0.00731974 0.00728422 0.00643447 0.00619172 0.00585956 
0.00577566 0.00537241 0.00522549 0.00513666 0.00473175 0.00466912 0.00444866 0.00441894 0.00400812 
0.00385622 0.00379948 0.00370243 0.00366942 0.00364039 0.00363813 0.00363644 0.00358692 0.0035797 
0.00341284 0.00337012 0.00336273 0.00332772 0.00323261 0.00320584 0.00320311 0.00318808 0.00313116 
0.00306026 0.00305632 0.00304383 0.00300958 0.00300137 0.00298994 0.0029567 0.00295111 0.00290849 
0.00284552 0.00282964 0.0028207 0.00281971 0.00281899 0.010434 0.00981478 0.00892069 0.00845937 
0.00731974 0.00728422 0.00643447 0.00619172 0.00585956 0.00577566 0.00537241 0.00522549 0.00513666 
0.00473175 0.00466912 0.00444866 0.00441894 0.00400812 0.00385622 0.00379948 0.00370243 0.00366942 
0.00364039 0.00363813 0.00363644 0.00358692 0.0035797 0.00341284 0.00337012 0.00336273 0.00332772 
0.00323261 0.00320584 0.00320311 0.00318808 0.00313116 0.00306026 0.00305632 0.00304383 0.00300958 
0.00300137 0.00298994 0.0029567 0.00295111 0.00290849 0.00284552 0.00282964 0.0028207 0.00281971 
0.00281899 
omega 3 100 double
2.1549110957 -6.9980245461 0.079674094804 2.1549110957 -6.9980245461 0.079674094804 2.1549110957 -6.9980245461 0.079674094804 
2.1549110957 -6.9980245461 0.079674094804 2.1549110957 -6.9980245461 0.079674094804 2.1549110957 -6.9980245461 0.079674094804 
2.1549110957 -6.9980245461 0.079674094804 2.1549110957 -6.9980245461 0.079674094804 2.1549110957 -6.9980245461 0.079674094804 
2.1549110957 -6.9980245461 0.079674094804 2.1549110957 -6.9980245461 0.079674094804 2.1549110957 -6.9980245461 0.079674094804 
2.1549110957 -6.9980245461 0.079674094804 2.1549110957 -6.9980245461 0.079674094804 2.1549110957 -6.9980245461 0.079674094804 
2.1549110957 -6.9980245461 0.079674094804 2.1549110957 -6.9980245461 0.079674094804 2.1549110957 -6.9980245461 0.079674094804 
2.1549110957 -6.9980245461 0.079674094804 2.1549110957 -6.9980245461 0.079674094804 2.1549110957 -6.9980245461 0.079674094804 
2.1549110957 -6.9980245461 0.079674094804 2.1549110957 -6.9980245461 0.079674094804 2.1549110957 -6.9980245461 0.079674094804 
2.1549110957 -6.9980245461 0.079674094804 2.1549110957 -6.9980245461 0.079674094804 2.1549110957 -6.9980245461 0.079674094804 
2.1549110957 -6.9980245461 0.079674094804 2.1549110957 -6.9980245461 0.079674094804 2.1549110957 -6.9980245461 0.079674094804 
2.1549110957 -6.9980245461 0.079674094804 2.1549110957 -6.9980245461 0.079674094804 2.1549110957 -6.9980245461 0.079674094804 
2.1549110957 -6.9980245461 0.079674094804 2.1549110957 -6.9980245461 0.079674094804 2.1549110957 -6.9980245461 0.079674094804 
2.1549110957 -6.9980245461 0.079674094804 2.1549110957 -6.9980245461 0.079674094804 2.1549110957 -6.9980245461 0.079674094804 
2.1549110957 -6.9980245461 0.079674094804 2.1549110957 -6.9980245461 0.079674094804 2.1549110957 -6.9980245461 0.079674094804 
2.1549110957 -6.9980245461 0.079674094804 2.1549110957 -6.9980245461 0.079674094804 2.1549110957 -6.9980245461 0.079674094804 
2.1549110957 -6.9980245461 0.079674094804 2.1549110957 -6.9980245461 0.079674094804 2.1549110957 -6.9980245461 0.079674094804 
2.1549110957 -6.9980245461 0.079674094804 2.1549110957 -6.9980245461 0.079674094804 2.1095722492 -6.8742479397 0.11853799897 
2.1095722492 -6.8742479397 0.11853799897 2.1095722492 -6.8742479397 0.11853799897 2.1095722492 -6.8742479397 0.11853799897 
2.1095722492 -6.8742479397 0.11853799897 2.1095722492 -6.8742479397 0.11853799897 2.1095722492 -6.8742479397 0.11853799897 
2.1095722492 -6.8742479397 0.11853799897 2.1095722492 -6.8742479397 0.11853799897 2.1095722492 -6.8742479397 0.11853799897 
2.1095722492 -6.8742479397 0.11853799897 2.1095722492 -6.8742479397 0.11853799897 2.1095722492 -6.8742479397 0.11853799897 
2.1095722492 -6.8742479397 0.11853799897 2.1095722492 -6.8742479397 0.11853799897 2.1095722492 -6.8742479397 0.11853799897 
2.1095722492 -6.8742479397 0.11853799897 2.1095722492 -6.8742479397 0.11853799897 2.1095722492 -6.8742479397 0.11853799897 
2.1095722492 -6.8742479397 0.11853799897 2.1095722492 -6.8742479397 0.11853799897 2.1095722492 -6.8742479397 0.11853799897 
2.1095722492 -6.8742479397 0.11853799897 2.1095722492 -6.8742479397 0.11853799897 2.1095722492 -6.8742479397 0.11853799897 
2.1095722492 -6.8742479397 0.11853799897 2.1095722492 -6.8742479397 0.11853799897 2.1095722492 -6.8742479397 0.11853799897 
2.1095722492 -6.8742479397 0.11853799897 2.1095722492 -6.8742479397 0.11853799897 2.1095722492 -6.8742479397 0.11853799897 
2.1095722492 -6.8742479397 0.11853799897 2.1095722492 -6.8742479397 0.11853799897 2.1095722492 -6.8742479397 0.11853799897 
2.1095722492 -6.8742479397 0.11853799897 2.1095722492 -6.8742479397 0.11853799897 2.1095722492 -6.8742479397 0.11853799897 
2.1095722492 -6.8742479397 0.11853799897 2.1095722492 -6.8742479397 0.11853799897 2.1095722492 -6.8742479397 0.11853799897 
2.1095722492 -6.8742479397 0.11853799897 2.1095722492 -6.8742479397 0.11853799897 2.1095722492 -6.8742479397 0.11853799897 
2.1095722492 -6.8742479397 0.11853799897 2.1095722492 -6.8742479397 0.11853799897 2.1095722492 -6.8742479397 0.11853799897 
2.1095722492 -6.8742479397 0.11853799897 2.1095722492 -6.8742479397 0.11853799897 2.1095722492 -6.8742479397 0.11853799897 
2.1095722492 -6.8742479397 0.11853799897 
