# vtk DataFile Version 4.1
Generated by LIGGGHTS
ASCII
DATASET POLYDATA
POINTS 100 float
-0.116845 -0.151627 0.0120274 -0.126647 -0.147996 0.0117649 -0.13637 -0.145863 0.0129696 
-0.124117 -0.158701 0.0152016 -0.110477 -0.159252 0.0153996 -0.132448 -0.15595 0.0149624 
-0.142986 -0.151879 0.0146883 -0.116679 -0.163003 0.0134067 -0.14511 -0.143787 0.0130636 
-0.11946 -0.141013 0.0105021 -0.130486 -0.164334 0.0157981 -0.139636 -0.157947 0.0153135 
-0.124043 -0.138561 0.014255 -0.125501 -0.167701 0.0150905 -0.130251 -0.138917 0.0147288 
-0.136203 -0.162225 0.0152606 -0.117099 -0.161873 0.019585 -0.141608 -0.139485 0.0172662 
-0.115937 -0.143609 0.00515944 -0.149192 -0.148947 0.013017 -0.120833 -0.146833 0.00363406 
-0.129912 -0.17005 0.0159324 -0.113403 -0.160997 0.00827447 -0.103048 -0.158461 0.0173047 
-0.106957 -0.155166 0.0103785 -0.120125 -0.141965 0.0165695 -0.108036 -0.153397 0.0192457 
-0.10526 -0.158733 0.0206483 -0.133997 -0.168528 0.0162073 -0.127723 -0.15291 0.0203105 
-0.136938 -0.166771 0.0161607 -0.110549 -0.166135 0.0123776 -0.133006 -0.145463 0.00469272 
-0.12076 -0.168164 0.01336 -0.150825 -0.143375 0.0112929 -0.110136 -0.158884 0.00775411 
-0.140941 -0.163459 0.0157577 -0.120848 -0.166559 0.0165048 -0.146332 -0.15748 0.0146534 
-0.124931 -0.138521 0.00884241 -0.137422 -0.154387 0.00982483 -0.122472 -0.166079 0.0110805 
-0.117594 -0.157655 0.0209178 -0.119364 -0.16097 0.00762599 -0.143731 -0.146347 0.0183767 
-0.149191 -0.153933 0.0139288 -0.106631 -0.151295 0.00981151 -0.127792 -0.138261 0.010263 
-0.140696 -0.166364 0.0167806 -0.134421 -0.137487 0.0169151 -0.0466278 -0.121613 0.0116588 
-0.0567471 -0.118999 0.0119782 -0.0665633 -0.11791 0.0137067 -0.0529822 -0.129486 0.0149219 
-0.0393634 -0.128643 0.014466 -0.0615505 -0.127596 0.0151657 -0.0724454 -0.124619 0.0155227 
-0.045247 -0.132949 0.0126355 -0.0754531 -0.116742 0.0142789 -0.050373 -0.111283 0.0106241 
-0.0587135 -0.135756 0.0156193 -0.0684733 -0.130328 0.0157816 -0.0549865 -0.109425 0.0146684 
-0.0534556 -0.138573 0.0145648 -0.0610958 -0.110428 0.015418 -0.0646338 -0.134229 0.0154216 
-0.0454713 -0.132051 0.018862 -0.0721977 -0.112231 0.0184599 -0.0468762 -0.113345 0.00503688 
-0.0789905 -0.12229 0.0142441 -0.0514922 -0.117006 0.0036306 -0.0575598 -0.141385 0.0155294 
-0.0424496 -0.130467 0.00742877 -0.0319669 -0.127153 0.0160496 -0.0365282 -0.124071 0.00943063 
-0.0506353 -0.112476 0.0166793 -0.0373376 -0.122685 0.0183942 -0.0339705 -0.127748 0.0194811 
-0.0617587 -0.140298 0.0160465 -0.0568951 -0.124248 0.0203899 -0.0648607 -0.13885 0.0161975 
-0.0388923 -0.135404 0.011215 -0.0636728 -0.116922 0.00530102 -0.0487843 -0.138497 0.0126008 
-0.0812607 -0.116866 0.0127911 -0.0394423 -0.128016 0.00683023 -0.0691922 -0.135956 0.0160956 
-0.0488776 -0.137002 0.0157997 -0.0752072 -0.130529 0.0154502 -0.0561426 -0.109316 0.00930765 
-0.0669055 -0.126399 0.010322 -0.0508091 -0.136531 0.0104767 -0.0463217 -0.127947 0.0203612 
-0.0484081 -0.13103 0.00705966 -0.0735595 -0.119304 0.0194305 -0.0784418 -0.127274 0.0149823 
-0.0366228 -0.120172 0.00898302 -0.0589414 -0.109393 0.0108679 -0.0686055 -0.138849 0.0170051 
-0.065275 -0.109498 0.017844 
VERTICES 100 200
1 0 
1 1 
1 2 
1 3 
1 4 
1 5 
1 6 
1 7 
1 8 
1 9 
1 10 
1 11 
1 12 
1 13 
1 14 
1 15 
1 16 
1 17 
1 18 
1 19 
1 20 
1 21 
1 22 
1 23 
1 24 
1 25 
1 26 
1 27 
1 28 
1 29 
1 30 
1 31 
1 32 
1 33 
1 34 
1 35 
1 36 
1 37 
1 38 
1 39 
1 40 
1 41 
1 42 
1 43 
1 44 
1 45 
1 46 
1 47 
1 48 
1 49 
1 50 
1 51 
1 52 
1 53 
1 54 
1 55 
1 56 
1 57 
1 58 
1 59 
1 60 
1 61 
1 62 
1 63 
1 64 
1 65 
1 66 
1 67 
1 68 
1 69 
1 70 
1 71 
1 72 
1 73 
1 74 
1 75 
1 76 
1 77 
1 78 
1 79 
1 80 
1 81 
1 82 
1 83 
1 84 
1 85 
1 86 
1 87 
1 88 
1 89 
1 90 
1 91 
1 92 
1 93 
1 94 
1 95 
1 96 
1 97 
1 98 
1 99 

POINT_DATA 100
FIELD FieldData 7
id 1 100 int
1 2 3 4 5 6 7 8 9 
10 11 12 13 14 15 16 17 18 
19 20 21 22 23 24 25 26 27 
28 29 30 31 32 33 34 35 36 
37 38 39 40 41 42 43 44 45 
46 47 48 49 50 51 52 53 54 
55 56 57 58 59 60 61 62 63 
64 65 66 67 68 69 70 71 72 
73 74 75 76 77 78 79 80 81 
82 83 84 85 86 87 88 89 90 
91 92 93 94 95 96 97 98 99 
100 
mol 1 100 int
1 1 1 1 1 1 1 1 1 
1 1 1 1 1 1 1 1 1 
1 1 1 1 1 1 1 1 1 
1 1 1 1 1 1 1 1 1 
1 1 1 1 1 1 1 1 1 
1 1 1 1 1 2 2 2 2 
2 2 2 2 2 2 2 2 2 
2 2 2 2 2 2 2 2 2 
2 2 2 2 2 2 2 2 2 
2 2 2 2 2 2 2 2 2 
2 2 2 2 2 2 2 2 2 
2 
type 1 100 int
1 1 1 1 1 1 1 1 1 
1 1 1 1 1 1 1 1 1 
1 1 1 1 1 1 1 1 1 
1 1 1 1 1 1 1 1 1 
1 1 1 1 1 1 1 1 1 
1 1 1 1 1 1 1 1 1 
1 1 1 1 1 1 1 1 1 
1 1 1 1 1 1 1 1 1 
1 1 1 1 1 1 1 1 1 
1 1 1 1 1 1 1 1 1 
1 1 1 1 1 1 1 1 1 
1 
v 3 100 double
-0.014949393137 -0.18457468948 -0.068083753259 -0.010046490167 -0.16795054019 -0.021219197369 -0.0081630245045 -0.17327089606 0.0034002738232 
-0.026455324227 -0.22239547976 -0.17873730375 -0.027315201385 -0.24303908014 -0.17693696309 -0.022709712568 -0.20802587752 -0.14387829205 
-0.01722818152 -0.19027380998 -0.091011530168 -0.03072017457 -0.20532397706 -0.23732434581 -0.0055373558994 -0.16333046526 0.027911358499 
-6.1484829187e-05 -0.15847469588 0.088001882618 -0.034200114999 -0.22301205651 -0.26725928331 -0.025558481652 -0.2039273693 -0.17888393109 
0.00036815537652 -0.20839945538 0.12114834536 -0.038049743605 -0.21894573111 -0.31373146469 -0.00044071391692 -0.20739879922 0.11130112731 
-0.031069959053 -0.20759394672 -0.24005513884 -0.033784431763 -0.29675583344 -0.22081097975 -0.0030378069386 -0.23043842256 0.094521324955 
0.00048821243422 -0.083508114816 0.051940090772 -0.012198896336 -0.15734145964 -0.051913798695 -0.0025754267194 -0.054447294117 0.00036068501636 
-0.041714529111 -0.22575641137 -0.35193514667 -0.024354818678 -0.13317008107 -0.20506255085 -0.027685979839 -0.28103866488 -0.15971505091 
-0.018331319965 -0.17285525753 -0.1135144891 -0.0057444256082 -0.2479381518 0.073353701459 -0.02253839727 -0.3034624683 -0.087973767661 
-0.030490441084 -0.32794571501 -0.16538502123 -0.03994177273 -0.22454981354 -0.33227494345 -0.022687744793 -0.29377484031 -0.095162749355 
-0.037627500465 -0.22004076863 -0.30826738859 -0.034028222091 -0.19795521258 -0.27944842286 -0.0015747631634 -0.054415620438 0.011825266425 
-0.037381735268 -0.19933501092 -0.3171497132 -0.0037052420812 -0.12955558163 0.029845787412 -0.021231616597 -0.12966197948 -0.17120692115 
-0.033035923692 -0.20884732846 -0.26190594014 -0.037604573178 -0.24603625897 -0.2933122102 -0.024468293399 -0.18541207217 -0.17683861111 
0.0043892473607 -0.12666890228 0.12109750016 -0.016915821253 -0.12508907806 -0.12426824254 -0.033004887062 -0.16317882901 -0.28736065035 
-0.02928940343 -0.3159562961 -0.15837943323 -0.023843183946 -0.11578215185 -0.20901889237 -0.012755556112 -0.2442175295 -0.0092009144232 
-0.019335200742 -0.17091618493 -0.12612981102 -0.012893903802 -0.16483768429 -0.055652213379 0.0036842396593 -0.14410517395 0.12286223441 
-0.037553628176 -0.22439185485 -0.30496057365 -0.00018900589784 -0.23453619339 0.12952691394 0.024340757455 -0.16522466368 -0.074314290483 
0.027828179512 -0.15919073241 -0.013196542107 0.033274264013 -0.17276326495 0.026284572988 0.024411062192 -0.20336614404 -0.16620117945 
0.024136847639 -0.21112865063 -0.18874342255 0.026965084047 -0.19789357398 -0.11887734371 0.030919079095 -0.19157841866 -0.050863008862 
0.015128680324 -0.18001670286 -0.23296711426 0.035906584195 -0.17145495789 0.064516558844 0.032373958216 -0.14720627792 0.076494178191 
0.019708796755 -0.20702136399 -0.23770501209 0.025696810588 -0.1992071888 -0.13896064716 0.044405714124 -0.19783481619 0.11347891549 
0.014173458882 -0.19799040483 -0.28942708498 0.045249834468 -0.20181489998 0.11503183007 0.020784623183 -0.19822559536 -0.2019751112 
0.031633666669 -0.26503519961 -0.2201166271 0.051008936373 -0.23204655709 0.11813815958 0.016271140262 -0.074305410051 0.039508311042 
0.030114505697 -0.16734151291 -0.0025913886406 0.0089869660179 -0.050304821855 0.00093217404234 0.013695775876 -0.2069769813 -0.31765736471 
0.0046504037093 -0.11160549666 -0.20599128657 0.029632702433 -0.24041668192 -0.18684564294 0.016237564305 -0.1451028177 -0.1332347501 
0.046300205775 -0.22984104507 0.060811208904 0.040094148224 -0.26699385217 -0.11223622036 0.03760738987 -0.28533755296 -0.18998828593 
0.016107265561 -0.20973830522 -0.29226967826 0.043481234882 -0.27420668555 -0.084692358251 0.017973817876 -0.20861556106 -0.26468510332 
0.0090484860393 -0.16710177122 -0.28249145335 0.013253958609 -0.060649786443 0.032569036585 0.0093365854836 -0.17590326771 -0.30007530326 
0.032056402945 -0.14511369816 0.077358692488 0.0056729696118 -0.10650302103 -0.17995870038 0.020695415149 -0.20276664976 -0.21421420236 
0.018878668748 -0.21960550724 -0.27938313412 0.024660359795 -0.18774566135 -0.12486714034 0.031102617035 -0.12324941477 0.11786949362 
0.016073578932 -0.12606981545 -0.089098493455 0.0060422984077 -0.14473974693 -0.26809602783 0.039605418813 -0.28468623448 -0.1618004499 
0.0031473549414 -0.10042477541 -0.19879368196 0.046163913731 -0.24393508492 0.024696607775 0.026837019697 -0.17801268197 -0.072199350874 
0.019126522105 -0.13887711724 -0.079618555045 0.034928110348 -0.14173386571 0.12381936439 0.0199968962 -0.21582286048 -0.255288862 
0.052277093745 -0.23073229064 0.13822150324 
f 3 100 double
0 0 0 0 0 0 0 0 0 
0 0 0 0 0 0 0 0 0 
0 0 0 0 0 0 0 0 0 
0 0 0 0 0 0 0 0 0 
0 0 0 0 0 0 0 0 0 
0 0 0 0 0 0 0 0 0 
0 0 0 0 0 0 -0.072842468941 -0.060273377677 0.28342088778 
0 0 0 0 0 0 0 0 0 
0 0 0 0 0 0 0 0 0 
0 0 0 0 0 0 0 0 0 
0 0 0 0 0 0 0 0 0 
0 0 0 0 0 0 0 0 0 
0 0 0 0 0 0 0 0 0 
0 0 0 0 0 0 0 0 0 
0 0 0 0 0 0 0 0 0 
0 0 0 0 0 0 0 0 0 
0 0 0 0 0 0 0 0 0 
0 0 0 0 0 0 0 0 0 
0 0 0 0 0 0 0 0 0 
0 0 0 0 0 0 0 0 0 
0 0 0 0 0 0 0 0 0 
0 0 0 0 0 0 0 0 0 
0 0 0 0 0 0 0 0 0 
0 0 0 -0.063581167336 -0.079271531855 0.29904091865 0 0 0 
0 0 0 0 0 0 0 0 0 
0 0 0 0 0 0 0 0 0 
0 0 0 0 0 0 0 0 0 
0 0 0 0 0 0 0 0 0 
0 0 0 0 0 0 0 0 0 
0 0 0 0 0 0 0 0 0 
0 0 0 0 0 0 0 0 0 
0 0 0 0 0 0 0 0 0 
0 0 0 0 0 0 0 0 0 
0 0 0 
radius 1 100 double
0.010434 0.00981478 0.00892069 0.00845937 0.00731974 0.00728422 0.00643447 0.00619172 0.00585956 
0.00577566 0.00537241 0.00522549 0.00513666 0.00473175 0.00466912 0.00444866 0.00441894 0.00400812 
0.00385622 0.00379948 0.00370243 0.00366942 0.00364039 0.00363813 0.00363644 0.00358692 0.0035797 
0.00341284 0.00337012 0.00336273 0.00332772 0.00323261 0.00320584 0.00320311 0.00318808 0.00313116 
0.00306026 0.00305632 0.00304383 0.00300958 0.00300137 0.00298994 0.0029567 0.00295111 0.00290849 
0.00284552 0.00282964 0.0028207 0.00281971 0.00281899 0.010434 0.00981478 0.00892069 0.00845937 
0.00731974 0.00728422 0.00643447 0.00619172 0.00585956 0.00577566 0.00537241 0.00522549 0.00513666 
0.00473175 0.00466912 0.00444866 0.00441894 0.00400812 0.00385622 0.00379948 0.00370243 0.00366942 
0.00364039 0.00363813 0.00363644 0.00358692 0.0035797 0.00341284 0.00337012 0.00336273 0.00332772 
0.00323261 0.00320584 0.00320311 0.00318808 0.00313116 0.00306026 0.00305632 0.00304383 0.00300958 
0.00300137 0.00298994 0.0029567 0.00295111 0.00290849 0.00284552 0.00282964 0.0028207 0.00281971 
0.00281899 
omega 3 100 double
14.887200014 -0.73324801596 -1.2973743491 14.887200014 -0.73324801596 -1.2973743491 14.887200014 -0.73324801596 -1.2973743491 
14.887200014 -0.73324801596 -1.2973743491 14.887200014 -0.73324801596 -1.2973743491 14.887200014 -0.73324801596 -1.2973743491 
14.887200014 -0.73324801596 -1.2973743491 14.887200014 -0.73324801596 -1.2973743491 14.887200014 -0.73324801596 -1.2973743491 
14.887200014 -0.73324801596 -1.2973743491 14.887200014 -0.73324801596 -1.2973743491 14.887200014 -0.73324801596 -1.2973743491 
14.887200014 -0.73324801596 -1.2973743491 14.887200014 -0.73324801596 -1.2973743491 14.887200014 -0.73324801596 -1.2973743491 
14.887200014 -0.73324801596 -1.2973743491 14.887200014 -0.73324801596 -1.2973743491 14.887200014 -0.73324801596 -1.2973743491 
14.887200014 -0.73324801596 -1.2973743491 14.887200014 -0.73324801596 -1.2973743491 14.887200014 -0.73324801596 -1.2973743491 
14.887200014 -0.73324801596 -1.2973743491 14.887200014 -0.73324801596 -1.2973743491 14.887200014 -0.73324801596 -1.2973743491 
14.887200014 -0.73324801596 -1.2973743491 14.887200014 -0.73324801596 -1.2973743491 14.887200014 -0.73324801596 -1.2973743491 
14.887200014 -0.73324801596 -1.2973743491 14.887200014 -0.73324801596 -1.2973743491 14.887200014 -0.73324801596 -1.2973743491 
14.887200014 -0.73324801596 -1.2973743491 14.887200014 -0.73324801596 -1.2973743491 14.887200014 -0.73324801596 -1.2973743491 
14.887200014 -0.73324801596 -1.2973743491 14.887200014 -0.73324801596 -1.2973743491 14.887200014 -0.73324801596 -1.2973743491 
14.887200014 -0.73324801596 -1.2973743491 14.887200014 -0.73324801596 -1.2973743491 14.887200014 -0.73324801596 -1.2973743491 
14.887200014 -0.73324801596 -1.2973743491 14.887200014 -0.73324801596 -1.2973743491 14.887200014 -0.73324801596 -1.2973743491 
14.887200014 -0.73324801596 -1.2973743491 14.887200014 -0.73324801596 -1.2973743491 14.887200014 -0.73324801596 -1.2973743491 
14.887200014 -0.73324801596 -1.2973743491 14.887200014 -0.73324801596 -1.2973743491 14.887200014 -0.73324801596 -1.2973743491 
14.887200014 -0.73324801596 -1.2973743491 14.887200014 -0.73324801596 -1.2973743491 13.691376069 2.5025347878 -1.0283057126 
13.691376069 2.5025347878 -1.0283057126 13.691376069 2.5025347878 -1.0283057126 13.691376069 2.5025347878 -1.0283057126 
13.691376069 2.5025347878 -1.0283057126 13.691376069 2.5025347878 -1.0283057126 13.691376069 2.5025347878 -1.0283057126 
13.691376069 2.5025347878 -1.0283057126 13.691376069 2.5025347878 -1.0283057126 13.691376069 2.5025347878 -1.0283057126 
13.691376069 2.5025347878 -1.0283057126 13.691376069 2.5025347878 -1.0283057126 13.691376069 2.5025347878 -1.0283057126 
13.691376069 2.5025347878 -1.0283057126 13.691376069 2.5025347878 -1.0283057126 13.691376069 2.5025347878 -1.0283057126 
13.691376069 2.5025347878 -1.0283057126 13.691376069 2.5025347878 -1.0283057126 13.691376069 2.5025347878 -1.0283057126 
13.691376069 2.5025347878 -1.0283057126 13.691376069 2.5025347878 -1.0283057126 13.691376069 2.5025347878 -1.0283057126 
13.691376069 2.5025347878 -1.0283057126 13.691376069 2.5025347878 -1.0283057126 13.691376069 2.5025347878 -1.0283057126 
13.691376069 2.5025347878 -1.0283057126 13.691376069 2.5025347878 -1.0283057126 13.691376069 2.5025347878 -1.0283057126 
13.691376069 2.5025347878 -1.0283057126 13.691376069 2.5025347878 -1.0283057126 13.691376069 2.5025347878 -1.0283057126 
13.691376069 2.5025347878 -1.0283057126 13.691376069 2.5025347878 -1.0283057126 13.691376069 2.5025347878 -1.0283057126 
13.691376069 2.5025347878 -1.0283057126 13.691376069 2.5025347878 -1.0283057126 13.691376069 2.5025347878 -1.0283057126 
13.691376069 2.5025347878 -1.0283057126 13.691376069 2.5025347878 -1.0283057126 13.691376069 2.5025347878 -1.0283057126 
13.691376069 2.5025347878 -1.0283057126 13.691376069 2.5025347878 -1.0283057126 13.691376069 2.5025347878 -1.0283057126 
13.691376069 2.5025347878 -1.0283057126 13.691376069 2.5025347878 -1.0283057126 13.691376069 2.5025347878 -1.0283057126 
13.691376069 2.5025347878 -1.0283057126 13.691376069 2.5025347878 -1.0283057126 13.691376069 2.5025347878 -1.0283057126 
13.691376069 2.5025347878 -1.0283057126 
