# vtk DataFile Version 4.1
Generated by LIGGGHTS
ASCII
DATASET POLYDATA
POINTS 100 float
-0.118734 -0.157702 0.0118347 -0.128464 -0.153873 0.0118876 -0.138312 -0.152077 0.012443 
-0.126211 -0.164982 0.00980778 -0.112783 -0.166342 0.0118621 -0.134468 -0.162007 0.0096706 
-0.144934 -0.15775 0.00981852 -0.118449 -0.168222 0.00729501 -0.147007 -0.149828 0.0121834 
-0.121385 -0.147627 0.0154771 -0.132415 -0.169775 0.00646322 -0.141549 -0.163493 0.00782101 
-0.1266 -0.14713 0.0191723 -0.12728 -0.172613 0.00495556 -0.132787 -0.147317 0.0184101 
-0.138025 -0.167356 0.00616343 -0.119924 -0.170324 0.0130425 -0.144385 -0.148427 0.0184757 
-0.116946 -0.147388 0.010192 -0.150863 -0.154023 0.00889375 -0.121419 -0.149123 0.00649483 
-0.131695 -0.174809 0.00378582 -0.11443 -0.164104 0.0044698 -0.105801 -0.167044 0.0150568 
-0.108606 -0.160498 0.0102194 -0.123018 -0.151455 0.0200422 -0.111196 -0.16336 0.0184669 
-0.108527 -0.16883 0.0174069 -0.135814 -0.173398 0.00413849 -0.130791 -0.16234 0.0164928 
-0.138759 -0.171689 0.00451859 -0.112141 -0.170761 0.0058148 -0.133635 -0.147771 0.00615287 
-0.122306 -0.172417 0.00400533 -0.152358 -0.148255 0.00998119 -0.111189 -0.162207 0.0056121 
-0.14274 -0.168398 0.0052112 -0.122964 -0.172605 0.00747031 -0.148054 -0.162373 0.00643381 
-0.126578 -0.144328 0.0144573 -0.138565 -0.157794 0.00530831 -0.123679 -0.169375 0.00285037 
-0.120762 -0.167324 0.0162224 -0.120199 -0.163411 0.00298759 -0.14645 -0.154784 0.0156209 
-0.150861 -0.158783 0.00715385 -0.108309 -0.156892 0.0117417 -0.129642 -0.144652 0.01534 
-0.142579 -0.171432 0.00465375 -0.137304 -0.146941 0.0203252 -0.0473681 -0.127378 0.0116442 
-0.0575023 -0.124944 0.0124887 -0.0674322 -0.124542 0.013818 -0.0538943 -0.135627 0.0101048 
-0.0402889 -0.135102 0.0111091 -0.0624705 -0.133834 0.0106366 -0.0733837 -0.13108 0.0116374 
-0.0459759 -0.137747 0.00696576 -0.0763487 -0.123529 0.0142521 -0.0511046 -0.117777 0.0156035 
-0.0596114 -0.141234 0.00718534 -0.0693978 -0.136291 0.0093157 -0.0560356 -0.118019 0.0196926 
-0.0542644 -0.143325 0.00525425 -0.0621765 -0.119067 0.0194036 -0.0655103 -0.139621 0.00734564 
-0.0466943 -0.140044 0.0127827 -0.0734675 -0.121785 0.0203423 -0.0471645 -0.116913 0.00999768 
-0.0798273 -0.128216 0.0112152 -0.0516263 -0.119248 0.00663226 -0.0584085 -0.146113 0.00439848 
-0.0427997 -0.133104 0.00389276 -0.0330514 -0.134828 0.0137514 -0.0371054 -0.12873 0.00922429 
-0.0518305 -0.121803 0.0202322 -0.0386254 -0.131938 0.0176096 -0.0353127 -0.13698 0.0162808 
-0.0626437 -0.145292 0.00508264 -0.0582657 -0.133662 0.0171529 -0.0657597 -0.144011 0.00570809 
-0.0395097 -0.139378 0.00497598 -0.0639006 -0.119615 0.00724244 -0.0494545 -0.142435 0.00392885 
-0.0820208 -0.122715 0.0124853 -0.0397748 -0.130775 0.00480724 -0.0700933 -0.14131 0.00674392 
-0.04981 -0.142718 0.00743144 -0.0760833 -0.136087 0.00844414 -0.0567693 -0.115234 0.0150249 
-0.0674393 -0.130227 0.00665309 -0.0513226 -0.139612 0.00292015 -0.0476928 -0.137195 0.0160544 
-0.0487063 -0.133221 0.00286486 -0.0748435 -0.128364 0.0175752 -0.0792976 -0.132926 0.00942126 
-0.0371963 -0.12512 0.0107642 -0.0596809 -0.115984 0.0161353 -0.0695561 -0.14429 0.00613821 
-0.0665402 -0.119328 0.0216631 
VERTICES 100 200
1 0 
1 1 
1 2 
1 3 
1 4 
1 5 
1 6 
1 7 
1 8 
1 9 
1 10 
1 11 
1 12 
1 13 
1 14 
1 15 
1 16 
1 17 
1 18 
1 19 
1 20 
1 21 
1 22 
1 23 
1 24 
1 25 
1 26 
1 27 
1 28 
1 29 
1 30 
1 31 
1 32 
1 33 
1 34 
1 35 
1 36 
1 37 
1 38 
1 39 
1 40 
1 41 
1 42 
1 43 
1 44 
1 45 
1 46 
1 47 
1 48 
1 49 
1 50 
1 51 
1 52 
1 53 
1 54 
1 55 
1 56 
1 57 
1 58 
1 59 
1 60 
1 61 
1 62 
1 63 
1 64 
1 65 
1 66 
1 67 
1 68 
1 69 
1 70 
1 71 
1 72 
1 73 
1 74 
1 75 
1 76 
1 77 
1 78 
1 79 
1 80 
1 81 
1 82 
1 83 
1 84 
1 85 
1 86 
1 87 
1 88 
1 89 
1 90 
1 91 
1 92 
1 93 
1 94 
1 95 
1 96 
1 97 
1 98 
1 99 

POINT_DATA 100
FIELD FieldData 7
id 1 100 int
1 2 3 4 5 6 7 8 9 
10 11 12 13 14 15 16 17 18 
19 20 21 22 23 24 25 26 27 
28 29 30 31 32 33 34 35 36 
37 38 39 40 41 42 43 44 45 
46 47 48 49 50 51 52 53 54 
55 56 57 58 59 60 61 62 63 
64 65 66 67 68 69 70 71 72 
73 74 75 76 77 78 79 80 81 
82 83 84 85 86 87 88 89 90 
91 92 93 94 95 96 97 98 99 
100 
mol 1 100 int
1 1 1 1 1 1 1 1 1 
1 1 1 1 1 1 1 1 1 
1 1 1 1 1 1 1 1 1 
1 1 1 1 1 1 1 1 1 
1 1 1 1 1 1 1 1 1 
1 1 1 1 1 2 2 2 2 
2 2 2 2 2 2 2 2 2 
2 2 2 2 2 2 2 2 2 
2 2 2 2 2 2 2 2 2 
2 2 2 2 2 2 2 2 2 
2 2 2 2 2 2 2 2 2 
2 
type 1 100 int
1 1 1 1 1 1 1 1 1 
1 1 1 1 1 1 1 1 1 
1 1 1 1 1 1 1 1 1 
1 1 1 1 1 1 1 1 1 
1 1 1 1 1 1 1 1 1 
1 1 1 1 1 1 1 1 1 
1 1 1 1 1 1 1 1 1 
1 1 1 1 1 1 1 1 1 
1 1 1 1 1 1 1 1 1 
1 1 1 1 1 1 1 1 1 
1 1 1 1 1 1 1 1 1 
1 
v 3 100 double
-0.12763831363 -0.16359947466 0.1384278858 -0.12715346475 -0.16142071081 0.06990246846 -0.13294935858 -0.16470918249 -0.022241058954 
-0.10669200702 -0.13928962462 -0.026146293267 -0.13039902473 -0.16558684291 0.11139698181 -0.10429136869 -0.13544705573 -0.087313654274 
-0.10476372836 -0.13409951104 -0.15951896604 -0.079085317994 -0.11398075973 0.026491449992 -0.12936466802 -0.15940223177 -0.096323388304 
-0.16613106442 -0.20272396689 0.21863485312 -0.070083046375 -0.10091568827 -0.14904711897 -0.083715901181 -0.1131909799 -0.18396474132 
-0.20793805257 -0.24169924806 0.16487367852 -0.053772409638 -0.085865781153 -0.12182701103 -0.19933898696 -0.23160150992 0.092592219782 
-0.065994089414 -0.096043174433 -0.18625785353 -0.14492677618 -0.17648427883 -0.013257776817 -0.20039768292 -0.2290313917 -0.051215537083 
-0.10606641663 -0.1461225273 0.2716409647 -0.093209258756 -0.1222945728 -0.18603116001 -0.064587287592 -0.10437863475 0.2018698789 
-0.041115856726 -0.071808226415 -0.19598504954 -0.045845868938 -0.084190480119 0.11720054875 -0.16686344334 -0.20253966128 0.18297040652 
-0.11009329828 -0.14878622789 0.22279579738 -0.21903947567 -0.25223839905 0.1581929479 -0.20453121954 -0.23834355302 0.16206180452 
-0.1940485328 -0.22749540608 0.1324735669 -0.044719516176 -0.074501545461 -0.22729966403 -0.18183228302 -0.21117700749 -0.049225377704 
-0.048549809534 -0.077827854607 -0.24201822623 -0.063001539104 -0.099564047523 0.070307163599 -0.060322094627 -0.09717209024 0.077997622706 
-0.042929875197 -0.076873071638 -0.063216192849 -0.1039187359 -0.13377584574 -0.13984747146 -0.05827567616 -0.097614947681 0.17476296451 
-0.055479596548 -0.084282007057 -0.25118019473 -0.082317801877 -0.11461998136 -0.072746205304 -0.067650740166 -0.096160269931 -0.24554707572 
-0.15361846629 -0.19008691755 0.19580236358 -0.053575945782 -0.086528543596 -0.087699048859 -0.028956264913 -0.063839703191 -0.045496518561 
-0.1801752958 -0.21105958879 0.010063895699 -0.028823274686 -0.066328324867 0.059297730439 -0.16979226924 -0.19719263958 -0.14426280067 
-0.074807161087 -0.10324741248 -0.23811299192 -0.12635283845 -0.16553647658 0.26564014879 -0.16373092964 -0.19888188668 0.15746761447 
-0.050011382468 -0.078224712382 -0.28257047542 -0.22097262318 -0.25128695799 0.045435506461 -0.10069200023 -0.17471390586 0.12221696935 
-0.10736256334 -0.18247702292 0.064541079503 -0.11911785449 -0.19690163599 -0.018903963623 -0.0899291884 -0.15141190428 -0.048285056397 
-0.098728721122 -0.17003571958 0.080657379889 -0.094033683817 -0.15549602524 -0.10071394144 -0.10198679276 -0.16509786423 -0.16101420604 
-0.062598882249 -0.11166420158 -0.006194375108 -0.12263374009 -0.19953483726 -0.084975436496 -0.13262807262 -0.22713615043 0.21919385331 
-0.065841366378 -0.10965540679 -0.17565067035 -0.083106427287 -0.13501501927 -0.19611965026 -0.16932939049 -0.28088377277 0.17175046465 
-0.049316234901 -0.085377727438 -0.15617888921 -0.16712552977 -0.27470956948 0.10253021073 -0.06668634883 -0.10967364558 -0.20656139165 
-0.11552262629 -0.19042768028 -0.043822532096 -0.17652552266 -0.28332898883 -0.035490360177 -0.082118372021 -0.15241968891 0.26621732774 
-0.097158011789 -0.15700284408 -0.17980319358 -0.052840340974 -0.10506467087 0.194532689 -0.042674751805 -0.072234293826 -0.23117003709 
-0.033383969333 -0.071078186279 0.085330090113 -0.12228670041 -0.20858293157 0.14919475321 -0.079519837941 -0.14559536202 0.19574291238 
-0.17554644329 -0.2897548469 0.15800168416 -0.15577466768 -0.25895900965 0.13853808581 -0.14572270527 -0.24211925776 0.099705899023 
-0.048499980117 -0.079978639591 -0.25793515416 -0.15231651487 -0.24556443032 -0.060726882129 -0.053631123585 -0.087335013253 -0.26843194007 
-0.045379903763 -0.086998897942 0.029545417977 -0.058437909349 -0.108860827 0.079653925457 -0.037123109028 -0.069132143987 -0.10102204029 
-0.106516099 -0.17345492443 -0.12470310452 -0.040719387524 -0.084609377304 0.14405321318 -0.061916726997 -0.09982096342 -0.27053336718 
-0.068588291004 -0.11658715237 -0.10805577049 -0.075228271108 -0.1207267669 -0.25321775133 -0.12651607284 -0.21720138197 0.20302911127 
-0.057045974314 -0.099558580473 -0.09619982624 -0.02705810162 -0.054744401578 -0.079400658121 -0.14377432833 -0.23451090962 -0.014070483843 
-0.024223152809 -0.054951027293 0.03085609606 -0.15415773854 -0.24523168554 -0.13719162104 -0.082819789677 -0.13282474496 -0.23905084729 
-0.091985897512 -0.16648217951 0.24396960735 -0.13673300953 -0.23122095322 0.16676526045 -0.057584571644 -0.091788652831 -0.30621812862 
-0.18745238369 -0.30380939358 0.059915321081 
f 3 100 double
0 0 0 0 0 0 0 0 0 
0 0 0 0 0 0 0 0 0 
0 0 0 0 0 0 0 0 0 
0 0 0 0 0 0 0 0 0 
0 0 0 0 0 0 0 0 0 
0 0 0 0 0 0 0 0 0 
0 0 0 0 0 0 0 0 0 
0 0 0 0 0 0 0 0 0 
0 0 0 0 0 0 0 0 0 
0 0 0 0 0 0 0 0 0 
0 0 0 0 0 0 0 0 0 
0 0 0 0 0 0 0 0 0 
0 0 0 0 0 0 0 0 0 
0 0 0 0 0 0 -0.041091402381 0.48717609721 1.3301778342 
0 0 0 0 0 0 0 0 0 
0 0 0 0 0 0 0 0 0 
0 0 0 0 0 0 0 0 0 
0 0 0 0 0 0 0 0 0 
0 0 0 0 0 0 0 0 0 
0 0 0 0 0 0 0 0 0 
0 0 0 0 0 0 0 0 0 
0 0 0 0 0 0 0 0 0 
0 0 0 0 0 0 0 0 0 
0 0 0 0 0 0 0 0 0 
0 0 0 0 0 0 0 0 0 
0 0 0 0 0 0 0 0 0 
0 0 0 0 0 0 0 0 0 
0 0 0 0 0 0 0 0 0 
0 0 0 0 0 0 0 0 0 
0 0 0 0 0 0 0 0 0 
0 0 0 0.016776536541 0.14977016243 1.1107676953 0 0 0 
-0.0061626046943 0.0087216840367 0.021358414647 0 0 0 0 0 0 
0 0 0 0 0 0 0 0 0 
0 0 0 
radius 1 100 double
0.010434 0.00981478 0.00892069 0.00845937 0.00731974 0.00728422 0.00643447 0.00619172 0.00585956 
0.00577566 0.00537241 0.00522549 0.00513666 0.00473175 0.00466912 0.00444866 0.00441894 0.00400812 
0.00385622 0.00379948 0.00370243 0.00366942 0.00364039 0.00363813 0.00363644 0.00358692 0.0035797 
0.00341284 0.00337012 0.00336273 0.00332772 0.00323261 0.00320584 0.00320311 0.00318808 0.00313116 
0.00306026 0.00305632 0.00304383 0.00300958 0.00300137 0.00298994 0.0029567 0.00295111 0.00290849 
0.00284552 0.00282964 0.0028207 0.00281971 0.00281899 0.010434 0.00981478 0.00892069 0.00845937 
0.00731974 0.00728422 0.00643447 0.00619172 0.00585956 0.00577566 0.00537241 0.00522549 0.00513666 
0.00473175 0.00466912 0.00444866 0.00441894 0.00400812 0.00385622 0.00379948 0.00370243 0.00366942 
0.00364039 0.00363813 0.00363644 0.00358692 0.0035797 0.00341284 0.00337012 0.00336273 0.00332772 
0.00323261 0.00320584 0.00320311 0.00318808 0.00313116 0.00306026 0.00305632 0.00304383 0.00300958 
0.00300137 0.00298994 0.0029567 0.00295111 0.00290849 0.00284552 0.00282964 0.0028207 0.00281971 
0.00281899 
omega 3 100 double
10.947707008 -11.352079566 -0.2834790038 10.947707008 -11.352079566 -0.2834790038 10.947707008 -11.352079566 -0.2834790038 
10.947707008 -11.352079566 -0.2834790038 10.947707008 -11.352079566 -0.2834790038 10.947707008 -11.352079566 -0.2834790038 
10.947707008 -11.352079566 -0.2834790038 10.947707008 -11.352079566 -0.2834790038 10.947707008 -11.352079566 -0.2834790038 
10.947707008 -11.352079566 -0.2834790038 10.947707008 -11.352079566 -0.2834790038 10.947707008 -11.352079566 -0.2834790038 
10.947707008 -11.352079566 -0.2834790038 10.947707008 -11.352079566 -0.2834790038 10.947707008 -11.352079566 -0.2834790038 
10.947707008 -11.352079566 -0.2834790038 10.947707008 -11.352079566 -0.2834790038 10.947707008 -11.352079566 -0.2834790038 
10.947707008 -11.352079566 -0.2834790038 10.947707008 -11.352079566 -0.2834790038 10.947707008 -11.352079566 -0.2834790038 
10.947707008 -11.352079566 -0.2834790038 10.947707008 -11.352079566 -0.2834790038 10.947707008 -11.352079566 -0.2834790038 
10.947707008 -11.352079566 -0.2834790038 10.947707008 -11.352079566 -0.2834790038 10.947707008 -11.352079566 -0.2834790038 
10.947707008 -11.352079566 -0.2834790038 10.947707008 -11.352079566 -0.2834790038 10.947707008 -11.352079566 -0.2834790038 
10.947707008 -11.352079566 -0.2834790038 10.947707008 -11.352079566 -0.2834790038 10.947707008 -11.352079566 -0.2834790038 
10.947707008 -11.352079566 -0.2834790038 10.947707008 -11.352079566 -0.2834790038 10.947707008 -11.352079566 -0.2834790038 
10.947707008 -11.352079566 -0.2834790038 10.947707008 -11.352079566 -0.2834790038 10.947707008 -11.352079566 -0.2834790038 
10.947707008 -11.352079566 -0.2834790038 10.947707008 -11.352079566 -0.2834790038 10.947707008 -11.352079566 -0.2834790038 
10.947707008 -11.352079566 -0.2834790038 10.947707008 -11.352079566 -0.2834790038 10.947707008 -11.352079566 -0.2834790038 
10.947707008 -11.352079566 -0.2834790038 10.947707008 -11.352079566 -0.2834790038 10.947707008 -11.352079566 -0.2834790038 
10.947707008 -11.352079566 -0.2834790038 10.947707008 -11.352079566 -0.2834790038 13.58568759 -8.953767164 -0.36609827416 
13.58568759 -8.953767164 -0.36609827416 13.58568759 -8.953767164 -0.36609827416 13.58568759 -8.953767164 -0.36609827416 
13.58568759 -8.953767164 -0.36609827416 13.58568759 -8.953767164 -0.36609827416 13.58568759 -8.953767164 -0.36609827416 
13.58568759 -8.953767164 -0.36609827416 13.58568759 -8.953767164 -0.36609827416 13.58568759 -8.953767164 -0.36609827416 
13.58568759 -8.953767164 -0.36609827416 13.58568759 -8.953767164 -0.36609827416 13.58568759 -8.953767164 -0.36609827416 
13.58568759 -8.953767164 -0.36609827416 13.58568759 -8.953767164 -0.36609827416 13.58568759 -8.953767164 -0.36609827416 
13.58568759 -8.953767164 -0.36609827416 13.58568759 -8.953767164 -0.36609827416 13.58568759 -8.953767164 -0.36609827416 
13.58568759 -8.953767164 -0.36609827416 13.58568759 -8.953767164 -0.36609827416 13.58568759 -8.953767164 -0.36609827416 
13.58568759 -8.953767164 -0.36609827416 13.58568759 -8.953767164 -0.36609827416 13.58568759 -8.953767164 -0.36609827416 
13.58568759 -8.953767164 -0.36609827416 13.58568759 -8.953767164 -0.36609827416 13.58568759 -8.953767164 -0.36609827416 
13.58568759 -8.953767164 -0.36609827416 13.58568759 -8.953767164 -0.36609827416 13.58568759 -8.953767164 -0.36609827416 
13.58568759 -8.953767164 -0.36609827416 13.58568759 -8.953767164 -0.36609827416 13.58568759 -8.953767164 -0.36609827416 
13.58568759 -8.953767164 -0.36609827416 13.58568759 -8.953767164 -0.36609827416 13.58568759 -8.953767164 -0.36609827416 
13.58568759 -8.953767164 -0.36609827416 13.58568759 -8.953767164 -0.36609827416 13.58568759 -8.953767164 -0.36609827416 
13.58568759 -8.953767164 -0.36609827416 13.58568759 -8.953767164 -0.36609827416 13.58568759 -8.953767164 -0.36609827416 
13.58568759 -8.953767164 -0.36609827416 13.58568759 -8.953767164 -0.36609827416 13.58568759 -8.953767164 -0.36609827416 
13.58568759 -8.953767164 -0.36609827416 13.58568759 -8.953767164 -0.36609827416 13.58568759 -8.953767164 -0.36609827416 
13.58568759 -8.953767164 -0.36609827416 
