# vtk DataFile Version 4.1
Generated by LIGGGHTS
ASCII
DATASET POLYDATA
POINTS 100 float
-0.117428 -0.155583 0.0102803 -0.127143 -0.151762 0.0108845 -0.136874 -0.14985 0.0123609 
-0.124964 -0.163075 0.0105722 -0.111361 -0.164103 0.0111051 -0.133227 -0.160136 0.010957 
-0.143667 -0.155874 0.0116709 -0.117524 -0.166753 0.00771422 -0.145572 -0.147645 0.0128132 
-0.119785 -0.145002 0.0123539 -0.131451 -0.168366 0.00896789 -0.140456 -0.1619 0.0103262 
-0.124498 -0.14382 0.0165345 -0.126496 -0.171454 0.00735327 -0.130727 -0.144113 0.0166156 
-0.137099 -0.166016 0.00895618 -0.11822 -0.167771 0.0138871 -0.142201 -0.145139 0.0183619 
-0.116055 -0.145746 0.00658925 -0.149734 -0.15235 0.0108545 -0.120927 -0.148101 0.00386809 
-0.130982 -0.173805 0.00717277 -0.113972 -0.163234 0.00370242 -0.10402 -0.164246 0.0134551 
-0.107535 -0.158672 0.00791495 -0.120755 -0.147931 0.0177053 -0.109007 -0.15998 0.0168057 
-0.106393 -0.165563 0.0164175 -0.135049 -0.172335 0.00778863 -0.128711 -0.159244 0.0172007 
-0.137954 -0.170571 0.00822733 -0.111408 -0.169547 0.00592246 -0.133111 -0.146777 0.00485183 
-0.121687 -0.171457 0.00575555 -0.151187 -0.146473 0.0110655 -0.110648 -0.161176 0.00406006 
-0.141875 -0.167191 0.00881791 -0.121898 -0.17101 0.00925281 -0.147104 -0.16102 0.00960255 
-0.125126 -0.141918 0.0114278 -0.137921 -0.156765 0.00646626 -0.123251 -0.168668 0.00425584 
-0.118706 -0.16424 0.0165544 -0.119894 -0.162794 0.00286913 -0.144492 -0.151899 0.0169885 
-0.149863 -0.157346 0.010016 -0.107116 -0.154851 0.00871124 -0.128047 -0.142063 0.0127388 
-0.14173 -0.170276 0.00880099 -0.134972 -0.143375 0.0189927 -0.0464801 -0.125214 0.0104215 
-0.0565347 -0.122651 0.0117147 -0.066309 -0.121989 0.0138498 -0.0529834 -0.133597 0.011087 
-0.0393534 -0.132908 0.0107187 -0.0615045 -0.131724 0.0120533 -0.0723259 -0.128816 0.0135099 
-0.0453479 -0.136288 0.00769505 -0.075165 -0.1209 0.0149004 -0.0499993 -0.115029 0.0128069 
-0.058849 -0.139651 0.00982622 -0.0684819 -0.134379 0.0118665 -0.0545357 -0.114479 0.0173028 
-0.0536651 -0.142079 0.00784553 -0.0606596 -0.115555 0.017784 -0.0647347 -0.13803 0.0102179 
-0.0454998 -0.13743 0.0138837 -0.0717737 -0.118029 0.0202563 -0.0465968 -0.115256 0.0068012 
-0.0788271 -0.126077 0.0131441 -0.051306 -0.118186 0.00436647 -0.0578237 -0.144974 0.00792073 
-0.0425387 -0.132321 0.00351566 -0.0319121 -0.132142 0.012584 -0.0364576 -0.127016 0.00737077 
-0.0502379 -0.118095 0.0181642 -0.0371606 -0.128562 0.0163171 -0.0338999 -0.133769 0.0156738 
-0.0619925 -0.144032 0.00882223 -0.0567311 -0.130315 0.0180033 -0.0650596 -0.142651 0.00947595 
-0.0390624 -0.138277 0.00546663 -0.0634672 -0.118414 0.00616033 -0.0490099 -0.141465 0.00593874 
-0.0809862 -0.120431 0.0135397 -0.0394819 -0.129864 0.00368819 -0.0693252 -0.139796 0.0103722 
-0.0490426 -0.141073 0.0094488 -0.0752212 -0.134338 0.0115902 -0.0557337 -0.112635 0.0122776 
-0.0668713 -0.128938 0.00792968 -0.0510074 -0.138884 0.0045871 -0.0462446 -0.134008 0.016631 
-0.0485113 -0.132625 0.00307591 -0.0732869 -0.125014 0.0189306 -0.0783851 -0.131044 0.0122387 
-0.0364677 -0.123179 0.00819698 -0.0585204 -0.113156 0.0137733 -0.0687965 -0.142838 0.0102983 
-0.0647963 -0.115374 0.0204431 
VERTICES 100 200
1 0 
1 1 
1 2 
1 3 
1 4 
1 5 
1 6 
1 7 
1 8 
1 9 
1 10 
1 11 
1 12 
1 13 
1 14 
1 15 
1 16 
1 17 
1 18 
1 19 
1 20 
1 21 
1 22 
1 23 
1 24 
1 25 
1 26 
1 27 
1 28 
1 29 
1 30 
1 31 
1 32 
1 33 
1 34 
1 35 
1 36 
1 37 
1 38 
1 39 
1 40 
1 41 
1 42 
1 43 
1 44 
1 45 
1 46 
1 47 
1 48 
1 49 
1 50 
1 51 
1 52 
1 53 
1 54 
1 55 
1 56 
1 57 
1 58 
1 59 
1 60 
1 61 
1 62 
1 63 
1 64 
1 65 
1 66 
1 67 
1 68 
1 69 
1 70 
1 71 
1 72 
1 73 
1 74 
1 75 
1 76 
1 77 
1 78 
1 79 
1 80 
1 81 
1 82 
1 83 
1 84 
1 85 
1 86 
1 87 
1 88 
1 89 
1 90 
1 91 
1 92 
1 93 
1 94 
1 95 
1 96 
1 97 
1 98 
1 99 

POINT_DATA 100
FIELD FieldData 7
id 1 100 int
1 2 3 4 5 6 7 8 9 
10 11 12 13 14 15 16 17 18 
19 20 21 22 23 24 25 26 27 
28 29 30 31 32 33 34 35 36 
37 38 39 40 41 42 43 44 45 
46 47 48 49 50 51 52 53 54 
55 56 57 58 59 60 61 62 63 
64 65 66 67 68 69 70 71 72 
73 74 75 76 77 78 79 80 81 
82 83 84 85 86 87 88 89 90 
91 92 93 94 95 96 97 98 99 
100 
mol 1 100 int
1 1 1 1 1 1 1 1 1 
1 1 1 1 1 1 1 1 1 
1 1 1 1 1 1 1 1 1 
1 1 1 1 1 1 1 1 1 
1 1 1 1 1 1 1 1 1 
1 1 1 1 1 2 2 2 2 
2 2 2 2 2 2 2 2 2 
2 2 2 2 2 2 2 2 2 
2 2 2 2 2 2 2 2 2 
2 2 2 2 2 2 2 2 2 
2 2 2 2 2 2 2 2 2 
2 
type 1 100 int
1 1 1 1 1 1 1 1 1 
1 1 1 1 1 1 1 1 1 
1 1 1 1 1 1 1 1 1 
1 1 1 1 1 1 1 1 1 
1 1 1 1 1 1 1 1 1 
1 1 1 1 1 1 1 1 1 
1 1 1 1 1 1 1 1 1 
1 1 1 1 1 1 1 1 1 
1 1 1 1 1 1 1 1 1 
1 1 1 1 1 1 1 1 1 
1 1 1 1 1 1 1 1 1 
1 
v 3 100 double
-0.062396388307 -0.2111472904 0.032934481173 -0.06174289298 -0.20857324376 0.027163640631 -0.071268069033 -0.22326688381 -0.016587146081 
-0.076069812469 -0.20564474587 -0.17885627178 -0.082081724805 -0.23659004026 -0.085068177077 -0.07489640473 -0.20089664102 -0.18992517606 
-0.074502480375 -0.19940853726 -0.19304797124 -0.057593598777 -0.16012371559 -0.18933422028 -0.071761018876 -0.21920391295 -0.045871927504 
-0.063947276902 -0.24873117187 0.2229527356 -0.070532539655 -0.16411684843 -0.33820964022 -0.072244252749 -0.1775579678 -0.28556705966 
-0.097261319892 -0.32455984874 0.2068370619 -0.061607935215 -0.13952560152 -0.35785348614 -0.09838172097 -0.31683610182 0.14874048006 
-0.066912764938 -0.15542360958 -0.33900180869 -0.11092408095 -0.28147244012 -0.21536209329 -0.11457298724 -0.33427010301 0.032116471984 
-0.01668219953 -0.140019582 0.23949885768 -0.062370735776 -0.17413242889 -0.17408239723 0.0026269790713 -0.078766404058 0.15191394725 
-0.063614934348 -0.1292262785 -0.44211237124 -0.018652621171 -0.085900892629 -0.089750992162 -0.10201784473 -0.29418156438 -0.026293235622 
-0.047172954176 -0.17906828475 0.0547084111 -0.11324647434 -0.35338047168 0.15672849934 -0.12374675335 -0.35314397759 0.016434116546 
-0.12885378236 -0.34936467517 -0.072328176129 -0.066580881952 -0.13534467761 -0.44709109509 -0.12596034713 -0.33145887253 -0.13434190021 
-0.06762040197 -0.13969124096 -0.4364996339 -0.046742680034 -0.13376095804 -0.19340755912 -0.0036455546551 -0.080018732597 0.075913460704 
-0.048203306576 -0.11505219348 -0.31754478273 -0.055337321652 -0.17614007313 -0.069749486775 -0.018572019288 -0.097971924565 -0.021062601196 
-0.067513172337 -0.1455260496 -0.40239400541 -0.076884873686 -0.18407764858 -0.3104618523 -0.064852315754 -0.15325040603 -0.32390632172 
-0.051555239084 -0.22236743764 0.23927039506 -0.032156525491 -0.10482339013 -0.16246966424 -0.031438919262 -0.082972607701 -0.27537982862 
-0.12802054748 -0.33363148127 -0.14943742601 -0.011000894703 -0.060506920012 -0.1307380293 -0.11317460346 -0.30360750251 -0.12114730622 
-0.062818658534 -0.1573133789 -0.2742305082 -0.048131510187 -0.19548496008 0.13398790238 -0.06277407052 -0.2439837567 0.21188502999 
-0.071993166198 -0.14540808387 -0.46234686384 -0.11722473359 -0.35760782292 0.12775838361 -0.036781731019 -0.19080437471 0.061202149596 
-0.040669257402 -0.20263848477 0.054432725044 -0.050967501126 -0.22959429513 0.015640369694 -0.049326175606 -0.19544964245 -0.11989991923 
-0.046676708739 -0.20378017544 -0.037437541899 -0.052277274851 -0.20319660036 -0.13090997957 -0.056632815739 -0.21707342572 -0.13555994934 
-0.034747852958 -0.14404651254 -0.12786929901 -0.055205501765 -0.23846131756 -0.010892991763 -0.038021624006 -0.22896464341 0.22231014911 
-0.049399914449 -0.16688374915 -0.25672738241 -0.054199016898 -0.19232561173 -0.21364909714 -0.060623788284 -0.30316524704 0.20857714921 
-0.041817905304 -0.13765570779 -0.27271338632 -0.064276399748 -0.30497999396 0.1580394123 -0.049659323762 -0.16738083603 -0.25856832482 
-0.067923133918 -0.25280603997 -0.14874602147 -0.079722636883 -0.33641565516 0.057145637853 -0.0072780923821 -0.12695659431 0.23586110015 
-0.051768725481 -0.20356881792 -0.12090666546 0.0021012378642 -0.078985181931 0.15998774413 -0.045352776574 -0.13445991441 -0.34513477788 
-0.0088701163715 -0.073538562644 -0.043555138413 -0.055470308114 -0.24469847385 0.01443299139 -0.022997906326 -0.14800085063 0.081197467562 
-0.068998617605 -0.3229972131 0.16711001931 -0.070843073552 -0.30470057911 0.050364968766 -0.073182213789 -0.2969213514 -0.024454002597 
-0.048980692635 -0.14579624065 -0.35006331375 -0.081449724689 -0.31310944439 -0.081484517856 -0.05085339073 -0.15396917405 -0.34158602191 
-0.025410730753 -0.1116554911 -0.13044921438 -0.0074025586683 -0.097341952654 0.093232557207 -0.031311060278 -0.10915394134 -0.23788304693 
-0.047674443793 -0.20818498672 -0.032681520025 -0.0070904084134 -0.079897510345 0.015460178034 -0.052375462748 -0.16510871282 -0.31334462424 
-0.048998320802 -0.17089857244 -0.23116082644 -0.052727862198 -0.1801376808 -0.24769295837 -0.032689110695 -0.21341594301 0.23484405524 
-0.027970654234 -0.1247842672 -0.1095708307 -0.021531944984 -0.083193086767 -0.20277388059 -0.078381035496 -0.30035207692 -0.092359924602 
-0.0069308510631 -0.059307632228 -0.079718247322 -0.08047284837 -0.31143785353 -0.073600788603 -0.05249471625 -0.18811382673 -0.20604573299 
-0.0230906408 -0.16253179628 0.14868977471 -0.040972868563 -0.23671231024 0.21130110145 -0.055300243975 -0.16438219939 -0.36416121495 
-0.07780065997 -0.34728584417 0.13988476247 
f 3 100 double
-0.85159212708 0.08137498483 1.0502626242 0 0 0 0 0 0 
0 0 0 0 0 0 0 0 0 
0 0 0 0 0 0 0 0 0 
0 0 0 0 0 0 0 0 0 
0 0 0 0 0 0 0 0 0 
0 0 0 0 0 0 0 0 0 
0 0 0 0 0 0 0 0 0 
0 0 0 0 0 0 0 0 0 
0 0 0 0 0 0 0 0 0 
0 0 0 0 0 0 0 0 0 
0 0 0 0 0 0 0 0 0 
0 0 0 0 0 0 0 0 0 
0 0 0 0 0 0 0 0 0 
0 0 0 0 0 0 0 0 0 
0 0 0 -0.15923872073 0.019539756336 1.7799625476 0 0 0 
0 0 0 0 0 0 0 0 0 
0 0 0 0 0 0 -0.20944566035 0.077391180663 -0.53864218229 
0 0 0 0 0 0 0 0 0 
0 0 0 0 0 0 0 0 0 
0 0 0 0 0 0 0 0 0 
0 0 0 0 0 0 0 0 0 
0 0 0 0 0 0 0 0 0 
0 0 0 0 0 0 0 0 0 
0 0 0 0 0 0 0 0 0 
-0.16743671633 0.20576958616 1.2651029759 0 0 0 0 0 0 
0 0 0 0 0 0 0 0 0 
0 0 0 0 0 0 0 0 0 
0 0 0 0 0 0 0 0 0 
0 0 0 0 0 0 0 0 0 
0 0 0 0 0 0 0 0 0 
0 0 0 0 0 0 0 0 0 
0 0 0 0 0 0 0 0 0 
0 0 0 0 0 0 0 0 0 
0 0 0 
radius 1 100 double
0.010434 0.00981478 0.00892069 0.00845937 0.00731974 0.00728422 0.00643447 0.00619172 0.00585956 
0.00577566 0.00537241 0.00522549 0.00513666 0.00473175 0.00466912 0.00444866 0.00441894 0.00400812 
0.00385622 0.00379948 0.00370243 0.00366942 0.00364039 0.00363813 0.00363644 0.00358692 0.0035797 
0.00341284 0.00337012 0.00336273 0.00332772 0.00323261 0.00320584 0.00320311 0.00318808 0.00313116 
0.00306026 0.00305632 0.00304383 0.00300958 0.00300137 0.00298994 0.0029567 0.00295111 0.00290849 
0.00284552 0.00282964 0.0028207 0.00281971 0.00281899 0.010434 0.00981478 0.00892069 0.00845937 
0.00731974 0.00728422 0.00643447 0.00619172 0.00585956 0.00577566 0.00537241 0.00522549 0.00513666 
0.00473175 0.00466912 0.00444866 0.00441894 0.00400812 0.00385622 0.00379948 0.00370243 0.00366942 
0.00364039 0.00363813 0.00363644 0.00358692 0.0035797 0.00341284 0.00337012 0.00336273 0.00332772 
0.00323261 0.00320584 0.00320311 0.00318808 0.00313116 0.00306026 0.00305632 0.00304383 0.00300958 
0.00300137 0.00298994 0.0029567 0.00295111 0.00290849 0.00284552 0.00282964 0.0028207 0.00281971 
0.00281899 
omega 3 100 double
19.827491997 -8.3924789663 -1.4981281898 19.827491997 -8.3924789663 -1.4981281898 19.827491997 -8.3924789663 -1.4981281898 
19.827491997 -8.3924789663 -1.4981281898 19.827491997 -8.3924789663 -1.4981281898 19.827491997 -8.3924789663 -1.4981281898 
19.827491997 -8.3924789663 -1.4981281898 19.827491997 -8.3924789663 -1.4981281898 19.827491997 -8.3924789663 -1.4981281898 
19.827491997 -8.3924789663 -1.4981281898 19.827491997 -8.3924789663 -1.4981281898 19.827491997 -8.3924789663 -1.4981281898 
19.827491997 -8.3924789663 -1.4981281898 19.827491997 -8.3924789663 -1.4981281898 19.827491997 -8.3924789663 -1.4981281898 
19.827491997 -8.3924789663 -1.4981281898 19.827491997 -8.3924789663 -1.4981281898 19.827491997 -8.3924789663 -1.4981281898 
19.827491997 -8.3924789663 -1.4981281898 19.827491997 -8.3924789663 -1.4981281898 19.827491997 -8.3924789663 -1.4981281898 
19.827491997 -8.3924789663 -1.4981281898 19.827491997 -8.3924789663 -1.4981281898 19.827491997 -8.3924789663 -1.4981281898 
19.827491997 -8.3924789663 -1.4981281898 19.827491997 -8.3924789663 -1.4981281898 19.827491997 -8.3924789663 -1.4981281898 
19.827491997 -8.3924789663 -1.4981281898 19.827491997 -8.3924789663 -1.4981281898 19.827491997 -8.3924789663 -1.4981281898 
19.827491997 -8.3924789663 -1.4981281898 19.827491997 -8.3924789663 -1.4981281898 19.827491997 -8.3924789663 -1.4981281898 
19.827491997 -8.3924789663 -1.4981281898 19.827491997 -8.3924789663 -1.4981281898 19.827491997 -8.3924789663 -1.4981281898 
19.827491997 -8.3924789663 -1.4981281898 19.827491997 -8.3924789663 -1.4981281898 19.827491997 -8.3924789663 -1.4981281898 
19.827491997 -8.3924789663 -1.4981281898 19.827491997 -8.3924789663 -1.4981281898 19.827491997 -8.3924789663 -1.4981281898 
19.827491997 -8.3924789663 -1.4981281898 19.827491997 -8.3924789663 -1.4981281898 19.827491997 -8.3924789663 -1.4981281898 
19.827491997 -8.3924789663 -1.4981281898 19.827491997 -8.3924789663 -1.4981281898 19.827491997 -8.3924789663 -1.4981281898 
19.827491997 -8.3924789663 -1.4981281898 19.827491997 -8.3924789663 -1.4981281898 17.600853896 -5.1602319457 -1.0868030315 
17.600853896 -5.1602319457 -1.0868030315 17.600853896 -5.1602319457 -1.0868030315 17.600853896 -5.1602319457 -1.0868030315 
17.600853896 -5.1602319457 -1.0868030315 17.600853896 -5.1602319457 -1.0868030315 17.600853896 -5.1602319457 -1.0868030315 
17.600853896 -5.1602319457 -1.0868030315 17.600853896 -5.1602319457 -1.0868030315 17.600853896 -5.1602319457 -1.0868030315 
17.600853896 -5.1602319457 -1.0868030315 17.600853896 -5.1602319457 -1.0868030315 17.600853896 -5.1602319457 -1.0868030315 
17.600853896 -5.1602319457 -1.0868030315 17.600853896 -5.1602319457 -1.0868030315 17.600853896 -5.1602319457 -1.0868030315 
17.600853896 -5.1602319457 -1.0868030315 17.600853896 -5.1602319457 -1.0868030315 17.600853896 -5.1602319457 -1.0868030315 
17.600853896 -5.1602319457 -1.0868030315 17.600853896 -5.1602319457 -1.0868030315 17.600853896 -5.1602319457 -1.0868030315 
17.600853896 -5.1602319457 -1.0868030315 17.600853896 -5.1602319457 -1.0868030315 17.600853896 -5.1602319457 -1.0868030315 
17.600853896 -5.1602319457 -1.0868030315 17.600853896 -5.1602319457 -1.0868030315 17.600853896 -5.1602319457 -1.0868030315 
17.600853896 -5.1602319457 -1.0868030315 17.600853896 -5.1602319457 -1.0868030315 17.600853896 -5.1602319457 -1.0868030315 
17.600853896 -5.1602319457 -1.0868030315 17.600853896 -5.1602319457 -1.0868030315 17.600853896 -5.1602319457 -1.0868030315 
17.600853896 -5.1602319457 -1.0868030315 17.600853896 -5.1602319457 -1.0868030315 17.600853896 -5.1602319457 -1.0868030315 
17.600853896 -5.1602319457 -1.0868030315 17.600853896 -5.1602319457 -1.0868030315 17.600853896 -5.1602319457 -1.0868030315 
17.600853896 -5.1602319457 -1.0868030315 17.600853896 -5.1602319457 -1.0868030315 17.600853896 -5.1602319457 -1.0868030315 
17.600853896 -5.1602319457 -1.0868030315 17.600853896 -5.1602319457 -1.0868030315 17.600853896 -5.1602319457 -1.0868030315 
17.600853896 -5.1602319457 -1.0868030315 17.600853896 -5.1602319457 -1.0868030315 17.600853896 -5.1602319457 -1.0868030315 
17.600853896 -5.1602319457 -1.0868030315 
