# vtk DataFile Version 4.1
Generated by LIGGGHTS
ASCII
DATASET POLYDATA
POINTS 100 float
-0.109201 -0.129405 0.0173967 -0.119596 -0.130303 0.0180974 -0.129301 -0.130403 0.0206124 
-0.112734 -0.130597 0.027352 -0.100231 -0.127847 0.022609 -0.121422 -0.131498 0.0282154 
-0.132669 -0.132395 0.0288347 -0.104122 -0.132293 0.0272561 -0.138071 -0.131333 0.0223279 
-0.116148 -0.127427 0.009051 -0.116019 -0.133417 0.0346939 -0.127024 -0.133373 0.0327847 
-0.121433 -0.124052 0.010381 -0.110048 -0.134281 0.0352347 -0.126873 -0.125014 0.0132741 
-0.122068 -0.134293 0.0349488 -0.105148 -0.126355 0.0290774 -0.136904 -0.125228 0.0191981 
-0.111712 -0.132513 0.00758313 -0.139488 -0.134098 0.0281278 -0.114671 -0.136076 0.0114875 
-0.113011 -0.135275 0.0392239 -0.101922 -0.13555 0.0221917 -0.0939422 -0.124317 0.0198821 
-0.098723 -0.13019 0.0157871 -0.116482 -0.122403 0.01263 -0.100687 -0.121711 0.0184643 
-0.0958962 -0.121831 0.0223613 -0.117357 -0.135298 0.0396697 -0.118632 -0.124567 0.0261287 
-0.120768 -0.135293 0.0393445 -0.097217 -0.13313 0.0270259 -0.126243 -0.137086 0.0155161 
-0.105539 -0.135058 0.033056 -0.143346 -0.133951 0.0234599 -0.0998933 -0.134583 0.0189735 
-0.125803 -0.135258 0.0380045 -0.106398 -0.131632 0.0330879 -0.133234 -0.135162 0.0347159 
-0.122114 -0.129131 0.00842533 -0.126449 -0.136599 0.0267054 -0.107932 -0.13671 0.0310509 
-0.107467 -0.123698 0.0263616 -0.10728 -0.13734 0.0242043 -0.135846 -0.127169 0.0261224 
-0.137335 -0.135099 0.0326049 -0.100105 -0.129218 0.0122436 -0.124836 -0.128328 0.00991433 
-0.124341 -0.135345 0.0407239 -0.131303 -0.123352 0.0146288 -0.0403423 -0.101622 0.0186655 
-0.0507512 -0.102529 0.0190746 -0.0605217 -0.102655 0.021323 -0.0441441 -0.102902 0.02851 
-0.0315177 -0.100107 0.0241339 -0.0528525 -0.103813 0.0291282 -0.0641117 -0.104719 0.0294328 
-0.0355318 -0.104595 0.0286342 -0.0693347 -0.103601 0.0227906 -0.0470594 -0.0995731 0.0101511 
-0.0476269 -0.105787 0.0357347 -0.0585753 -0.10573 0.0335265 -0.0523807 -0.0962113 0.0113659 
-0.0416726 -0.106654 0.0364305 -0.0578973 -0.0972005 0.014101 -0.0536802 -0.106667 0.0358168 
-0.0366102 -0.0986734 0.0304786 -0.0680857 -0.0974687 0.0197472 -0.0425829 -0.104645 0.00876036 
-0.0709081 -0.106418 0.0285253 -0.0456451 -0.108243 0.0125513 -0.0447429 -0.107684 0.0403286 
-0.0331935 -0.107807 0.0236034 -0.0251591 -0.0965518 0.0216105 -0.0298234 -0.10239 0.0173355 
-0.0474938 -0.0945809 0.0137634 -0.0318646 -0.0939353 0.0200321 -0.0271813 -0.0940883 0.0240571 
-0.0490986 -0.107712 0.0406555 -0.0500104 -0.0968637 0.027179 -0.0524995 -0.107705 0.0402375 
-0.0286228 -0.105428 0.0285851 -0.0573222 -0.109292 0.0162539 -0.0371052 -0.107411 0.0343689 
-0.0746368 -0.106231 0.0237554 -0.0310779 -0.106811 0.0204503 -0.0574964 -0.10766 0.038761 
-0.0379665 -0.103986 0.0344072 -0.0648349 -0.107537 0.035272 -0.0530055 -0.101273 0.0093481 
-0.057833 -0.108903 0.0274373 -0.0394415 -0.109046 0.0322849 -0.0388556 -0.0959934 0.0277239 
-0.0386029 -0.109616 0.0254534 -0.0672156 -0.0994701 0.0266806 -0.0688771 -0.107458 0.0330505 
-0.0311086 -0.101388 0.0137643 -0.0557679 -0.100484 0.0107693 -0.0561094 -0.10777 0.0415184 
-0.0623629 -0.0955521 0.0153489 
VERTICES 100 200
1 0 
1 1 
1 2 
1 3 
1 4 
1 5 
1 6 
1 7 
1 8 
1 9 
1 10 
1 11 
1 12 
1 13 
1 14 
1 15 
1 16 
1 17 
1 18 
1 19 
1 20 
1 21 
1 22 
1 23 
1 24 
1 25 
1 26 
1 27 
1 28 
1 29 
1 30 
1 31 
1 32 
1 33 
1 34 
1 35 
1 36 
1 37 
1 38 
1 39 
1 40 
1 41 
1 42 
1 43 
1 44 
1 45 
1 46 
1 47 
1 48 
1 49 
1 50 
1 51 
1 52 
1 53 
1 54 
1 55 
1 56 
1 57 
1 58 
1 59 
1 60 
1 61 
1 62 
1 63 
1 64 
1 65 
1 66 
1 67 
1 68 
1 69 
1 70 
1 71 
1 72 
1 73 
1 74 
1 75 
1 76 
1 77 
1 78 
1 79 
1 80 
1 81 
1 82 
1 83 
1 84 
1 85 
1 86 
1 87 
1 88 
1 89 
1 90 
1 91 
1 92 
1 93 
1 94 
1 95 
1 96 
1 97 
1 98 
1 99 

POINT_DATA 100
FIELD FieldData 7
id 1 100 int
1 2 3 4 5 6 7 8 9 
10 11 12 13 14 15 16 17 18 
19 20 21 22 23 24 25 26 27 
28 29 30 31 32 33 34 35 36 
37 38 39 40 41 42 43 44 45 
46 47 48 49 50 51 52 53 54 
55 56 57 58 59 60 61 62 63 
64 65 66 67 68 69 70 71 72 
73 74 75 76 77 78 79 80 81 
82 83 84 85 86 87 88 89 90 
91 92 93 94 95 96 97 98 99 
100 
mol 1 100 int
1 1 1 1 1 1 1 1 1 
1 1 1 1 1 1 1 1 1 
1 1 1 1 1 1 1 1 1 
1 1 1 1 1 1 1 1 1 
1 1 1 1 1 1 1 1 1 
1 1 1 1 1 2 2 2 2 
2 2 2 2 2 2 2 2 2 
2 2 2 2 2 2 2 2 2 
2 2 2 2 2 2 2 2 2 
2 2 2 2 2 2 2 2 2 
2 2 2 2 2 2 2 2 2 
2 
type 1 100 int
1 1 1 1 1 1 1 1 1 
1 1 1 1 1 1 1 1 1 
1 1 1 1 1 1 1 1 1 
1 1 1 1 1 1 1 1 1 
1 1 1 1 1 1 1 1 1 
1 1 1 1 1 1 1 1 1 
1 1 1 1 1 1 1 1 1 
1 1 1 1 1 1 1 1 1 
1 1 1 1 1 1 1 1 1 
1 1 1 1 1 1 1 1 1 
1 1 1 1 1 1 1 1 1 
1 
v 3 100 double
-0.10200296528 -0.058963538036 0.34495993734 -0.10684873936 -0.061125329767 0.27030280829 -0.12443547807 -0.067176767855 0.20219298039 
-0.17156870238 -0.080758691975 0.31766664667 -0.13856047072 -0.069705255986 0.41108971206 -0.17755242565 -0.083167564214 0.25493507581 
-0.18182952225 -0.085205912296 0.17431465362 -0.17079302901 -0.080017972317 0.37423381763 -0.13637848067 -0.071437595638 0.13883086348 
-0.043745158556 -0.041305291783 0.30065618208 -0.22275249471 -0.096874447691 0.28857325126 -0.20939977306 -0.093417460675 0.21168858785 
-0.053257573677 -0.044514886232 0.27099969003 -0.2264819074 -0.097677040178 0.32846721004 -0.073435772945 -0.051121835582 0.23085824118 
-0.22448135186 -0.09780121249 0.24435997589 -0.18390089169 -0.084028857627 0.37992625954 -0.11486267098 -0.064582016943 0.16022864956 
-0.033162312923 -0.037849435599 0.32065941874 -0.17677875274 -0.084095628484 0.12292303697 -0.06025372816 -0.046494620608 0.29224112585 
-0.25432606362 -0.10650648005 0.30558462831 -0.13516503357 -0.068905615592 0.38255962392 -0.11970362087 -0.063405996514 0.46272872265 
-0.090694652597 -0.054826509219 0.41655728586 -0.069091911298 -0.049082903706 0.30920619351 -0.10994740829 -0.060750635495 0.42119228716 
-0.13719990612 -0.068900163306 0.45444800263 -0.25744296883 -0.10774150411 0.27514068847 -0.1633847432 -0.078472438895 0.28947269652 
-0.25516850495 -0.10724778421 0.25128994874 -0.16913100914 -0.079091807155 0.42072030199 -0.08837242212 -0.055942154499 0.20910128009 
-0.21119332099 -0.092676009485 0.35832619993 -0.14413479288 -0.074217336543 0.096259547118 -0.11271231283 -0.06180493409 0.3988497016 
-0.24579674109 -0.10465501243 0.21614348425 -0.21162831512 -0.092798251707 0.35974301046 -0.22279841361 -0.097987375835 0.16436954683 
-0.039262987046 -0.040318433638 0.25522710787 -0.16667447764 -0.080206052061 0.20871866937 -0.19706486252 -0.08847828912 0.33800803295 
-0.16506767266 -0.078286273399 0.36946306096 -0.14913227642 -0.073598957841 0.34120311536 -0.16317974347 -0.079523945393 0.16342396079 
-0.20803528064 -0.093665860095 0.13581628246 -0.065967522638 -0.047232119364 0.40899723373 -0.049728545924 -0.043714065274 0.23792400919 
-0.26481480656 -0.11045865002 0.2261791492 -0.083015289008 -0.054332112575 0.20347482101 -0.10153335411 -0.058672286086 0.29755145197 
-0.10425190579 -0.060600449422 0.22410072527 -0.11968896509 -0.066367229071 0.15669819285 -0.16904858158 -0.079952504456 0.26871034477 
-0.13926333687 -0.069379329025 0.36140401516 -0.17320375065 -0.082151323472 0.20693734443 -0.17520426892 -0.083944251597 0.1276472415 
-0.16972963699 -0.079339083014 0.32429710209 -0.12967668361 -0.070379266728 0.094130775561 -0.043235502896 -0.041285946813 0.25574327367 
-0.21839864902 -0.095640203535 0.23865557265 -0.20323126792 -0.09206869358 0.16354557782 -0.051925205031 -0.044406000303 0.22631293744 
-0.22309173969 -0.096510654727 0.27772956539 -0.07061873373 -0.050772574575 0.18630665042 -0.21887371724 -0.096431029702 0.19519307483 
-0.18300659913 -0.083363391328 0.32945408992 -0.10938904164 -0.063793137159 0.11572873774 -0.033162616312 -0.03787849897 0.27573899685 
-0.16879538513 -0.082710307799 0.077341586979 -0.058845551024 -0.046235926126 0.2470623403 -0.24977253242 -0.10509635007 0.25444651449 
-0.13483393407 -0.068424074775 0.33354800748 -0.1222855923 -0.063376245978 0.41264186962 -0.092315615854 -0.054778290628 0.3682010449 
-0.068565516067 -0.048996614442 0.26335345415 -0.11170649638 -0.060709318227 0.37211847387 -0.13934808901 -0.068774619152 0.40397514217 
-0.25201600034 -0.10623368369 0.22445820169 -0.16051786965 -0.077725155866 0.24121607777 -0.24914418028 -0.10569280441 0.20110307735 
-0.16930735974 -0.078531306417 0.37000362268 -0.084180738537 -0.055283071641 0.16459714889 -0.20884836365 -0.091670128821 0.30750811799 
-0.13603838717 -0.072966771883 0.052117152907 -0.11326851314 -0.061516608106 0.35019855152 -0.23900310241 -0.10306803306 0.16686394622 
-0.20946080347 -0.091839262227 0.30885938574 -0.21504092965 -0.096410513277 0.11669686808 -0.037544550512 -0.040187217603 0.21127626123 
-0.1610663072 -0.079069793261 0.16191247642 -0.19436195803 -0.087485182527 0.28798421986 -0.1643506456 -0.077745669626 0.31971222156 
-0.14736153374 -0.072901111233 0.29253792942 -0.156827531 -0.078419373231 0.11745970696 -0.19978456379 -0.092107529027 0.089090925427 
-0.067878443147 -0.047329956915 0.36149706226 -0.047390327407 -0.043484668027 0.19396969175 -0.25793965293 -0.10877902594 0.17616006796 
-0.079361479812 -0.053875757875 0.15912019495 
f 3 100 double
0 0 0 0 0 0 0 0 0 
0 0 0 0 0 0 0 0 0 
0 0 0 0 0 0 0 0 0 
0 0 0 0 0 0 0 0 0 
0 0 0 0 0 0 0 0 0 
0 0 0 0 0 0 0 0 0 
0 0 0 0 0 0 0 0 0 
0 0 0 0 0 0 0 0 0 
0 0 0 0 0 0 0 0 0 
0 0 0 0 0 0 0 0 0 
0 0 0 0 0 0 0 0 0 
0 0 0 0 0 0 0 0 0 
0 0 0 0 0 0 0 0 0 
0 0 0 0 0 0 0 0 0 
0 0 0 0 0 0 0 0 0 
0 0 0 0 0 0 0 0 0 
0 0 0 0 0 0 0 0 0 
0 0 0 0 0 0 0 0 0 
0 0 0 0 0 0 0 0 0 
0 0 0 0 0 0 0 0 0 
0 0 0 0 0 0 0 0 0 
0 0 0 0 0 0 0 0 0 
0 0 0 0 0 0 0 0 0 
0 0 0 0 0 0 0 0 0 
0 0 0 0 0 0 0 0 0 
0 0 0 0 0 0 0 0 0 
0 0 0 0 0 0 0 0 0 
0 0 0 0 0 0 0 0 0 
0 0 0 0 0 0 0 0 0 
0 0 0 0 0 0 0 0 0 
0 0 0 0 0 0 0 0 0 
0 0 0 0 0 0 0 0 0 
0 0 0 0 0 0 0 0 0 
0 0 0 
radius 1 100 double
0.010434 0.00981478 0.00892069 0.00845937 0.00731974 0.00728422 0.00643447 0.00619172 0.00585956 
0.00577566 0.00537241 0.00522549 0.00513666 0.00473175 0.00466912 0.00444866 0.00441894 0.00400812 
0.00385622 0.00379948 0.00370243 0.00366942 0.00364039 0.00363813 0.00363644 0.00358692 0.0035797 
0.00341284 0.00337012 0.00336273 0.00332772 0.00323261 0.00320584 0.00320311 0.00318808 0.00313116 
0.00306026 0.00305632 0.00304383 0.00300958 0.00300137 0.00298994 0.0029567 0.00295111 0.00290849 
0.00284552 0.00282964 0.0028207 0.00281971 0.00281899 0.010434 0.00981478 0.00892069 0.00845937 
0.00731974 0.00728422 0.00643447 0.00619172 0.00585956 0.00577566 0.00537241 0.00522549 0.00513666 
0.00473175 0.00466912 0.00444866 0.00441894 0.00400812 0.00385622 0.00379948 0.00370243 0.00366942 
0.00364039 0.00363813 0.00363644 0.00358692 0.0035797 0.00341284 0.00337012 0.00336273 0.00332772 
0.00323261 0.00320584 0.00320311 0.00318808 0.00313116 0.00306026 0.00305632 0.00304383 0.00300958 
0.00300137 0.00298994 0.0029567 0.00295111 0.00290849 0.00284552 0.00282964 0.0028207 0.00281971 
0.00281899 
omega 3 100 double
2.1673498843 -6.9952334048 0.061879553868 2.1673498843 -6.9952334048 0.061879553868 2.1673498843 -6.9952334048 0.061879553868 
2.1673498843 -6.9952334048 0.061879553868 2.1673498843 -6.9952334048 0.061879553868 2.1673498843 -6.9952334048 0.061879553868 
2.1673498843 -6.9952334048 0.061879553868 2.1673498843 -6.9952334048 0.061879553868 2.1673498843 -6.9952334048 0.061879553868 
2.1673498843 -6.9952334048 0.061879553868 2.1673498843 -6.9952334048 0.061879553868 2.1673498843 -6.9952334048 0.061879553868 
2.1673498843 -6.9952334048 0.061879553868 2.1673498843 -6.9952334048 0.061879553868 2.1673498843 -6.9952334048 0.061879553868 
2.1673498843 -6.9952334048 0.061879553868 2.1673498843 -6.9952334048 0.061879553868 2.1673498843 -6.9952334048 0.061879553868 
2.1673498843 -6.9952334048 0.061879553868 2.1673498843 -6.9952334048 0.061879553868 2.1673498843 -6.9952334048 0.061879553868 
2.1673498843 -6.9952334048 0.061879553868 2.1673498843 -6.9952334048 0.061879553868 2.1673498843 -6.9952334048 0.061879553868 
2.1673498843 -6.9952334048 0.061879553868 2.1673498843 -6.9952334048 0.061879553868 2.1673498843 -6.9952334048 0.061879553868 
2.1673498843 -6.9952334048 0.061879553868 2.1673498843 -6.9952334048 0.061879553868 2.1673498843 -6.9952334048 0.061879553868 
2.1673498843 -6.9952334048 0.061879553868 2.1673498843 -6.9952334048 0.061879553868 2.1673498843 -6.9952334048 0.061879553868 
2.1673498843 -6.9952334048 0.061879553868 2.1673498843 -6.9952334048 0.061879553868 2.1673498843 -6.9952334048 0.061879553868 
2.1673498843 -6.9952334048 0.061879553868 2.1673498843 -6.9952334048 0.061879553868 2.1673498843 -6.9952334048 0.061879553868 
2.1673498843 -6.9952334048 0.061879553868 2.1673498843 -6.9952334048 0.061879553868 2.1673498843 -6.9952334048 0.061879553868 
2.1673498843 -6.9952334048 0.061879553868 2.1673498843 -6.9952334048 0.061879553868 2.1673498843 -6.9952334048 0.061879553868 
2.1673498843 -6.9952334048 0.061879553868 2.1673498843 -6.9952334048 0.061879553868 2.1673498843 -6.9952334048 0.061879553868 
2.1673498843 -6.9952334048 0.061879553868 2.1673498843 -6.9952334048 0.061879553868 2.1223187994 -6.8714417963 0.10183192374 
2.1223187994 -6.8714417963 0.10183192374 2.1223187994 -6.8714417963 0.10183192374 2.1223187994 -6.8714417963 0.10183192374 
2.1223187994 -6.8714417963 0.10183192374 2.1223187994 -6.8714417963 0.10183192374 2.1223187994 -6.8714417963 0.10183192374 
2.1223187994 -6.8714417963 0.10183192374 2.1223187994 -6.8714417963 0.10183192374 2.1223187994 -6.8714417963 0.10183192374 
2.1223187994 -6.8714417963 0.10183192374 2.1223187994 -6.8714417963 0.10183192374 2.1223187994 -6.8714417963 0.10183192374 
2.1223187994 -6.8714417963 0.10183192374 2.1223187994 -6.8714417963 0.10183192374 2.1223187994 -6.8714417963 0.10183192374 
2.1223187994 -6.8714417963 0.10183192374 2.1223187994 -6.8714417963 0.10183192374 2.1223187994 -6.8714417963 0.10183192374 
2.1223187994 -6.8714417963 0.10183192374 2.1223187994 -6.8714417963 0.10183192374 2.1223187994 -6.8714417963 0.10183192374 
2.1223187994 -6.8714417963 0.10183192374 2.1223187994 -6.8714417963 0.10183192374 2.1223187994 -6.8714417963 0.10183192374 
2.1223187994 -6.8714417963 0.10183192374 2.1223187994 -6.8714417963 0.10183192374 2.1223187994 -6.8714417963 0.10183192374 
2.1223187994 -6.8714417963 0.10183192374 2.1223187994 -6.8714417963 0.10183192374 2.1223187994 -6.8714417963 0.10183192374 
2.1223187994 -6.8714417963 0.10183192374 2.1223187994 -6.8714417963 0.10183192374 2.1223187994 -6.8714417963 0.10183192374 
2.1223187994 -6.8714417963 0.10183192374 2.1223187994 -6.8714417963 0.10183192374 2.1223187994 -6.8714417963 0.10183192374 
2.1223187994 -6.8714417963 0.10183192374 2.1223187994 -6.8714417963 0.10183192374 2.1223187994 -6.8714417963 0.10183192374 
2.1223187994 -6.8714417963 0.10183192374 2.1223187994 -6.8714417963 0.10183192374 2.1223187994 -6.8714417963 0.10183192374 
2.1223187994 -6.8714417963 0.10183192374 2.1223187994 -6.8714417963 0.10183192374 2.1223187994 -6.8714417963 0.10183192374 
2.1223187994 -6.8714417963 0.10183192374 2.1223187994 -6.8714417963 0.10183192374 2.1223187994 -6.8714417963 0.10183192374 
2.1223187994 -6.8714417963 0.10183192374 
