# vtk DataFile Version 4.1
Generated by LIGGGHTS
ASCII
DATASET POLYDATA
POINTS 100 float
-0.120109 -0.141017 0.0159131 -0.129436 -0.139768 0.0113545 -0.139084 -0.138639 0.00886627 
-0.128189 -0.145055 0.021519 -0.114995 -0.143586 0.0247063 -0.136126 -0.14425 0.0178583 
-0.146148 -0.142779 0.0128507 -0.120712 -0.148466 0.0246027 -0.147522 -0.138163 0.00581784 
-0.121884 -0.134541 0.00715418 -0.13474 -0.149624 0.0244945 -0.143273 -0.146408 0.0180463 
-0.127109 -0.130829 0.00727161 -0.129862 -0.151939 0.0272404 -0.133268 -0.13157 0.00663131 
-0.140091 -0.149157 0.0215681 -0.122502 -0.143587 0.0281542 -0.144918 -0.131756 0.00659268 
-0.117328 -0.13955 0.00579478 -0.151681 -0.14252 0.00846636 -0.121862 -0.143564 0.00592408 
-0.134437 -0.153675 0.0285593 -0.116264 -0.149975 0.0202399 -0.108182 -0.14079 0.0269851 
-0.110255 -0.143456 0.0190663 -0.123968 -0.131301 0.011983 -0.113281 -0.136406 0.0239709 
-0.111114 -0.139054 0.0291141 -0.138412 -0.152893 0.0269271 -0.132647 -0.137856 0.0205398 
-0.141192 -0.152004 0.0251315 -0.114638 -0.150674 0.027185 -0.133887 -0.143407 0.00336631 
-0.124872 -0.152823 0.0272512 -0.152652 -0.139765 0.00315971 -0.112885 -0.148345 0.0190845 
-0.144861 -0.150343 0.0218256 -0.12562 -0.149563 0.0283883 -0.149613 -0.147357 0.0159481 
-0.126722 -0.134505 0.00321875 -0.139715 -0.147143 0.0121732 -0.125928 -0.153017 0.0238865 
-0.123126 -0.139657 0.0261598 -0.121909 -0.151147 0.0185906 -0.147507 -0.136348 0.0115968 
-0.152086 -0.145589 0.0124788 -0.109655 -0.140938 0.0161153 -0.129822 -0.133736 0.00349341 
-0.144973 -0.151773 0.0245607 -0.137771 -0.129598 0.00640466 -0.0513954 -0.112722 0.0155182 
-0.0608552 -0.111633 0.0111983 -0.0705939 -0.110904 0.00892676 -0.0591001 -0.117865 0.0207323 
-0.0459847 -0.115851 0.0239445 -0.0671298 -0.117218 0.0172459 -0.0773049 -0.115909 0.0125091 
-0.0513657 -0.121069 0.0233718 -0.0790916 -0.110681 0.00601858 -0.0537337 -0.105493 0.00751267 
-0.0652855 -0.123156 0.0232614 -0.0741138 -0.119863 0.0172647 -0.059191 -0.102176 0.00806869 
-0.0602221 -0.125412 0.0257038 -0.0652965 -0.103261 0.00740603 -0.0707017 -0.122747 0.0204471 
-0.0534202 -0.116724 0.0274369 -0.0769074 -0.10423 0.00744762 -0.0488764 -0.11001 0.00558971 
-0.0829106 -0.115564 0.00822465 -0.0531318 -0.114313 0.00533053 -0.0646502 -0.127583 0.0268699 
-0.0468965 -0.121805 0.0188355 -0.039337 -0.112856 0.0264491 -0.0413522 -0.114807 0.0183098 
-0.0559517 -0.102928 0.0126762 -0.0447626 -0.108534 0.0239617 -0.0423444 -0.111557 0.0287756 
-0.0686939 -0.126904 0.0253641 -0.0640411 -0.110922 0.0205618 -0.0715543 -0.126021 0.023697 
-0.0451192 -0.12312 0.0256528 -0.0651792 -0.114702 0.00290695 -0.0551846 -0.125952 0.0255779 
-0.0841457 -0.112338 0.00324927 -0.0436516 -0.119837 0.0178309 -0.075377 -0.124273 0.0206179 
-0.0561302 -0.122889 0.0270613 -0.0804087 -0.121013 0.015132 -0.0586243 -0.105369 0.00364499 
-0.0706068 -0.119732 0.0113165 -0.0562786 -0.125862 0.0222208 -0.0543341 -0.112656 0.0258769 
-0.0524763 -0.123175 0.0171195 -0.0791066 -0.109489 0.0119574 -0.0830481 -0.11906 0.0118915 
-0.0409676 -0.111957 0.0156382 -0.0617635 -0.104846 0.00402627 -0.075351 -0.125988 0.0231864 
-0.0699234 -0.101586 0.00742877 
VERTICES 100 200
1 0 
1 1 
1 2 
1 3 
1 4 
1 5 
1 6 
1 7 
1 8 
1 9 
1 10 
1 11 
1 12 
1 13 
1 14 
1 15 
1 16 
1 17 
1 18 
1 19 
1 20 
1 21 
1 22 
1 23 
1 24 
1 25 
1 26 
1 27 
1 28 
1 29 
1 30 
1 31 
1 32 
1 33 
1 34 
1 35 
1 36 
1 37 
1 38 
1 39 
1 40 
1 41 
1 42 
1 43 
1 44 
1 45 
1 46 
1 47 
1 48 
1 49 
1 50 
1 51 
1 52 
1 53 
1 54 
1 55 
1 56 
1 57 
1 58 
1 59 
1 60 
1 61 
1 62 
1 63 
1 64 
1 65 
1 66 
1 67 
1 68 
1 69 
1 70 
1 71 
1 72 
1 73 
1 74 
1 75 
1 76 
1 77 
1 78 
1 79 
1 80 
1 81 
1 82 
1 83 
1 84 
1 85 
1 86 
1 87 
1 88 
1 89 
1 90 
1 91 
1 92 
1 93 
1 94 
1 95 
1 96 
1 97 
1 98 
1 99 

POINT_DATA 100
FIELD FieldData 7
id 1 100 int
1 2 3 4 5 6 7 8 9 
10 11 12 13 14 15 16 17 18 
19 20 21 22 23 24 25 26 27 
28 29 30 31 32 33 34 35 36 
37 38 39 40 41 42 43 44 45 
46 47 48 49 50 51 52 53 54 
55 56 57 58 59 60 61 62 63 
64 65 66 67 68 69 70 71 72 
73 74 75 76 77 78 79 80 81 
82 83 84 85 86 87 88 89 90 
91 92 93 94 95 96 97 98 99 
100 
mol 1 100 int
1 1 1 1 1 1 1 1 1 
1 1 1 1 1 1 1 1 1 
1 1 1 1 1 1 1 1 1 
1 1 1 1 1 1 1 1 1 
1 1 1 1 1 1 1 1 1 
1 1 1 1 1 2 2 2 2 
2 2 2 2 2 2 2 2 2 
2 2 2 2 2 2 2 2 2 
2 2 2 2 2 2 2 2 2 
2 2 2 2 2 2 2 2 2 
2 2 2 2 2 2 2 2 2 
2 
type 1 100 int
1 1 1 1 1 1 1 1 1 
1 1 1 1 1 1 1 1 1 
1 1 1 1 1 1 1 1 1 
1 1 1 1 1 1 1 1 1 
1 1 1 1 1 1 1 1 1 
1 1 1 1 1 1 1 1 1 
1 1 1 1 1 1 1 1 1 
1 1 1 1 1 1 1 1 1 
1 1 1 1 1 1 1 1 1 
1 1 1 1 1 1 1 1 1 
1 1 1 1 1 1 1 1 1 
1 
v 3 100 double
0.036201470464 -0.1504544706 -0.19369409557 0.010433529721 -0.099078892525 -0.12689262485 -0.0027347173171 -0.061893075984 -0.058969287994 
0.062869809781 -0.17440011397 -0.17250248587 0.085586401755 -0.22371136211 -0.24381643823 0.041779310809 -0.13224623839 -0.11750524325 
0.013672416919 -0.076259540314 -0.044801656966 0.075150721277 -0.21149639908 -0.24331673947 -0.020687009685 -0.023120811817 -0.0032208715284 
-0.0051296278902 -0.084143372002 -0.13628859951 0.072155523001 -0.18257084392 -0.16460769451 0.038615094702 -0.11925048856 -0.088634458707 
0.0030486862855 -0.07449943143 -0.077286506926 0.084542512943 -0.21203140172 -0.21144321401 -0.0024100590772 -0.057552437337 -0.044394525919 
0.054941594366 -0.1508659722 -0.12806692328 0.10697069206 -0.23334643286 -0.19725770648 -0.0030229492989 -0.03389674499 0.026531169901 
-0.023612749502 -0.083548987769 -0.20043307509 -0.013002120922 -0.033747443082 -0.0086313018263 -0.030866022622 -0.075375333325 -0.20106336625 
0.089238475312 -0.21229922741 -0.19550721629 0.04506232303 -0.18916745145 -0.28171415806 0.10533273341 -0.25370985368 -0.26604298815 
0.0508645676 -0.19282008306 -0.27229048033 0.031324417564 -0.11455606069 -0.10015166257 0.095434507488 -0.22188373048 -0.20301166044 
0.12202138682 -0.26307732867 -0.23541980286 0.08068427722 -0.19262838967 -0.16524677465 0.071241999377 -0.15843902827 -0.093283634573 
0.071330027561 -0.17418604986 -0.14163934786 0.086737433152 -0.24218494944 -0.29680452037 -0.046416635742 -0.032919925946 -0.12535772801 
0.082835691939 -0.22212319181 -0.24872737646 -0.04038943402 0.0062184106888 0.017124790314 0.041166685226 -0.18767166605 -0.29099782991 
0.054159697845 -0.14313978036 -0.10697850459 0.09642893912 -0.228766856 -0.22073566607 0.023695881746 -0.091496783441 -0.056113978411 
-0.029465849448 -0.046241668581 -0.10602038895 0.00071061639781 -0.084317611236 -0.11597846083 0.061575948636 -0.19589861619 -0.24356764083 
0.10248757251 -0.21780811849 -0.16523677284 0.032481650736 -0.16602422957 -0.25509529776 0.018799296415 -0.06455126353 0.0096876667048 
0.0057255004628 -0.06167901188 -0.028106149985 0.037614767149 -0.1728823647 -0.25796767221 -0.026220406942 -0.041988898792 -0.081290509586 
0.068253781788 -0.1625090863 -0.1165305506 0.0001409524269 -0.046892169127 -0.0023397302859 0.085953060264 -0.11792206105 -0.033994152861 
0.070332175138 -0.085949028309 0.0082702153573 0.06210905809 -0.069425057212 0.048830085996 0.10503806479 -0.15766717733 -0.045000327282 
0.11648283369 -0.18107423223 -0.077053337125 0.092445606543 -0.13188803788 -0.01121173238 0.075310425831 -0.096817882763 0.035290292077 
0.11473590779 -0.17708493903 -0.096982765996 0.051624037626 -0.048029735344 0.081106079495 0.056690443824 -0.05775354281 0.028883321608 
0.11446422815 -0.17709359979 -0.062586992751 0.092673076337 -0.13245163187 -0.0059856334412 0.05849214705 -0.062271999241 0.073522087988 
0.12339524142 -0.19518817598 -0.097809913444 0.056171596924 -0.057648669235 0.087334746345 0.10430598056 -0.15621943594 -0.039997756146 
0.12911082482 -0.20783351798 -0.056852299297 0.056379904595 -0.058663425812 0.1218415755 0.050039274034 -0.042973536696 -0.022637577623 
0.059862474729 -0.064879776559 0.058070848582 0.049365971175 -0.0412780654 -0.039730997442 0.12772495222 -0.20423987911 -0.098223925972 
0.098446128289 -0.14264036906 -0.11861827749 0.12532032523 -0.19954110359 -0.078423402548 0.096130758149 -0.13834565772 -0.085864568053 
0.075128010123 -0.096786876525 0.056190174114 0.11610270152 -0.18112992477 -0.02632980636 0.13361874183 -0.21724897893 -0.057807897855 
0.12226223681 -0.19314084294 -0.078549053979 0.10400493161 -0.15668167456 0.025095585289 0.11620589619 -0.18075410705 -0.061598874577 
0.12307313858 -0.19389149583 -0.1349298197 0.040662831048 -0.023747914744 0.0007172859507 0.12297439792 -0.1939350887 -0.12001814531 
0.041752561757 -0.027472516583 0.086824940036 0.09471021945 -0.13487672714 -0.11548006705 0.10501345397 -0.15778916767 -0.034660134866 
0.12813066871 -0.20516729969 -0.093540362079 0.085062956925 -0.11676462602 0.00801749158 0.042756471702 -0.028911893409 0.04742603347 
0.071247195226 -0.087428858398 -0.017632584622 0.11088093183 -0.16871056279 -0.11539866513 0.12324789685 -0.19613635903 -0.022919857153 
0.092350069312 -0.13004999863 -0.10885250874 0.072936013928 -0.092770357006 0.090140021644 0.073276889495 -0.092511986933 0.032231538701 
0.086338607575 -0.11819547413 -0.065776932512 0.044097768805 -0.031973962561 0.062672676567 0.11436548749 -0.17713719265 -0.047675318369 
0.05615228444 -0.058099514278 0.11661530044 
f 3 100 double
0 0 0 0 0 0 1.0136482859 0.0013060166157 1.0902912479 
0 0 0 0 0 0 0 0 0 
0 0 0 0 0 0 0.10209496289 -0.02088219951 0.20841734769 
0 0 0 0 0 0 0 0 0 
0 0 0 0 0 0 0 0 0 
0 0 0 0 0 0 0 0 0 
0 0 0 0 0 0 0 0 0 
0 0 0 0 0 0 0 0 0 
0 0 0 0 0 0 0 0 0 
0 0 0 0 0 0 0 0 0 
0 0 0 0 0 0 0 0 0 
0 0 0 0.035128357858 -0.014313397406 -0.0758650083 0 0 0 
0 0 0 0 0 0 0 0 0 
0 0 0 0 0 0 0 0 0 
0 0 0 0 0 0 0 0 0 
0 0 0 0 0 0 0 0 0 
0 0 0 0 0 0 0 0 0 
0 0 0 0 0 0 0 0 0 
0 0 0 0 0 0 0 0 0 
0 0 0 0 0 0 0 0 0 
0 0 0 0 0 0 0 0 0 
0 0 0 0 0 0 0 0 0 
0 0 0 0 0 0 0 0 0 
0 0 0 0 0 0 0 0 0 
0 0 0 0 0 0 0 0 0 
0 0 0 0 0 0 0 0 0 
0 0 0 0 0 0 0 0 0 
0 0 0 0.66920235132 0.092792767306 2.4380231784 0 0 0 
0 0 0 0 0 0 0 0 0 
0 0 0 0 0 0 0 0 0 
0 0 0 0 0 0 0 0 0 
0 0 0 0 0 0 0 0 0 
0 0 0 0 0 0 0 0 0 
0 0 0 
radius 1 100 double
0.010434 0.00981478 0.00892069 0.00845937 0.00731974 0.00728422 0.00643447 0.00619172 0.00585956 
0.00577566 0.00537241 0.00522549 0.00513666 0.00473175 0.00466912 0.00444866 0.00441894 0.00400812 
0.00385622 0.00379948 0.00370243 0.00366942 0.00364039 0.00363813 0.00363644 0.00358692 0.0035797 
0.00341284 0.00337012 0.00336273 0.00332772 0.00323261 0.00320584 0.00320311 0.00318808 0.00313116 
0.00306026 0.00305632 0.00304383 0.00300958 0.00300137 0.00298994 0.0029567 0.00295111 0.00290849 
0.00284552 0.00282964 0.0028207 0.00281971 0.00281899 0.010434 0.00981478 0.00892069 0.00845937 
0.00731974 0.00728422 0.00643447 0.00619172 0.00585956 0.00577566 0.00537241 0.00522549 0.00513666 
0.00473175 0.00466912 0.00444866 0.00441894 0.00400812 0.00385622 0.00379948 0.00370243 0.00366942 
0.00364039 0.00363813 0.00363644 0.00358692 0.0035797 0.00341284 0.00337012 0.00336273 0.00332772 
0.00323261 0.00320584 0.00320311 0.00318808 0.00313116 0.00306026 0.00305632 0.00304383 0.00300958 
0.00300137 0.00298994 0.0029567 0.00295111 0.00290849 0.00284552 0.00282964 0.0028207 0.00281971 
0.00281899 
omega 3 100 double
7.1639747505 6.2025364227 -2.0068123642 7.1639747505 6.2025364227 -2.0068123642 7.1639747505 6.2025364227 -2.0068123642 
7.1639747505 6.2025364227 -2.0068123642 7.1639747505 6.2025364227 -2.0068123642 7.1639747505 6.2025364227 -2.0068123642 
7.1639747505 6.2025364227 -2.0068123642 7.1639747505 6.2025364227 -2.0068123642 7.1639747505 6.2025364227 -2.0068123642 
7.1639747505 6.2025364227 -2.0068123642 7.1639747505 6.2025364227 -2.0068123642 7.1639747505 6.2025364227 -2.0068123642 
7.1639747505 6.2025364227 -2.0068123642 7.1639747505 6.2025364227 -2.0068123642 7.1639747505 6.2025364227 -2.0068123642 
7.1639747505 6.2025364227 -2.0068123642 7.1639747505 6.2025364227 -2.0068123642 7.1639747505 6.2025364227 -2.0068123642 
7.1639747505 6.2025364227 -2.0068123642 7.1639747505 6.2025364227 -2.0068123642 7.1639747505 6.2025364227 -2.0068123642 
7.1639747505 6.2025364227 -2.0068123642 7.1639747505 6.2025364227 -2.0068123642 7.1639747505 6.2025364227 -2.0068123642 
7.1639747505 6.2025364227 -2.0068123642 7.1639747505 6.2025364227 -2.0068123642 7.1639747505 6.2025364227 -2.0068123642 
7.1639747505 6.2025364227 -2.0068123642 7.1639747505 6.2025364227 -2.0068123642 7.1639747505 6.2025364227 -2.0068123642 
7.1639747505 6.2025364227 -2.0068123642 7.1639747505 6.2025364227 -2.0068123642 7.1639747505 6.2025364227 -2.0068123642 
7.1639747505 6.2025364227 -2.0068123642 7.1639747505 6.2025364227 -2.0068123642 7.1639747505 6.2025364227 -2.0068123642 
7.1639747505 6.2025364227 -2.0068123642 7.1639747505 6.2025364227 -2.0068123642 7.1639747505 6.2025364227 -2.0068123642 
7.1639747505 6.2025364227 -2.0068123642 7.1639747505 6.2025364227 -2.0068123642 7.1639747505 6.2025364227 -2.0068123642 
7.1639747505 6.2025364227 -2.0068123642 7.1639747505 6.2025364227 -2.0068123642 7.1639747505 6.2025364227 -2.0068123642 
7.1639747505 6.2025364227 -2.0068123642 7.1639747505 6.2025364227 -2.0068123642 7.1639747505 6.2025364227 -2.0068123642 
7.1639747505 6.2025364227 -2.0068123642 7.1639747505 6.2025364227 -2.0068123642 7.5334692968 3.6007292833 0.060410774487 
7.5334692968 3.6007292833 0.060410774487 7.5334692968 3.6007292833 0.060410774487 7.5334692968 3.6007292833 0.060410774487 
7.5334692968 3.6007292833 0.060410774487 7.5334692968 3.6007292833 0.060410774487 7.5334692968 3.6007292833 0.060410774487 
7.5334692968 3.6007292833 0.060410774487 7.5334692968 3.6007292833 0.060410774487 7.5334692968 3.6007292833 0.060410774487 
7.5334692968 3.6007292833 0.060410774487 7.5334692968 3.6007292833 0.060410774487 7.5334692968 3.6007292833 0.060410774487 
7.5334692968 3.6007292833 0.060410774487 7.5334692968 3.6007292833 0.060410774487 7.5334692968 3.6007292833 0.060410774487 
7.5334692968 3.6007292833 0.060410774487 7.5334692968 3.6007292833 0.060410774487 7.5334692968 3.6007292833 0.060410774487 
7.5334692968 3.6007292833 0.060410774487 7.5334692968 3.6007292833 0.060410774487 7.5334692968 3.6007292833 0.060410774487 
7.5334692968 3.6007292833 0.060410774487 7.5334692968 3.6007292833 0.060410774487 7.5334692968 3.6007292833 0.060410774487 
7.5334692968 3.6007292833 0.060410774487 7.5334692968 3.6007292833 0.060410774487 7.5334692968 3.6007292833 0.060410774487 
7.5334692968 3.6007292833 0.060410774487 7.5334692968 3.6007292833 0.060410774487 7.5334692968 3.6007292833 0.060410774487 
7.5334692968 3.6007292833 0.060410774487 7.5334692968 3.6007292833 0.060410774487 7.5334692968 3.6007292833 0.060410774487 
7.5334692968 3.6007292833 0.060410774487 7.5334692968 3.6007292833 0.060410774487 7.5334692968 3.6007292833 0.060410774487 
7.5334692968 3.6007292833 0.060410774487 7.5334692968 3.6007292833 0.060410774487 7.5334692968 3.6007292833 0.060410774487 
7.5334692968 3.6007292833 0.060410774487 7.5334692968 3.6007292833 0.060410774487 7.5334692968 3.6007292833 0.060410774487 
7.5334692968 3.6007292833 0.060410774487 7.5334692968 3.6007292833 0.060410774487 7.5334692968 3.6007292833 0.060410774487 
7.5334692968 3.6007292833 0.060410774487 7.5334692968 3.6007292833 0.060410774487 7.5334692968 3.6007292833 0.060410774487 
7.5334692968 3.6007292833 0.060410774487 
