# vtk DataFile Version 4.1
Generated by LIGGGHTS
ASCII
DATASET POLYDATA
POINTS 100 float
-0.119805 -0.141634 0.015356 -0.129225 -0.140175 0.0110598 -0.138919 -0.138899 0.00883605 
-0.127783 -0.14579 0.0210202 -0.114508 -0.144517 0.0239409 -0.135797 -0.144813 0.0175745 
-0.145921 -0.143112 0.012853 -0.120264 -0.149351 0.0238179 -0.147421 -0.138266 0.00600357 
-0.121732 -0.134871 0.0068499 -0.134299 -0.150405 0.0240034 -0.142954 -0.146924 0.0178624 
-0.126924 -0.131127 0.00720731 -0.129376 -0.15284 0.0265593 -0.133101 -0.131804 0.00668905 
-0.139713 -0.149807 0.0212199 -0.121932 -0.144574 0.0275627 -0.14475 -0.131905 0.00691871 
-0.117248 -0.139866 0.00522629 -0.151552 -0.142675 0.00861045 -0.12181 -0.14385 0.00533553 
-0.133933 -0.154584 0.0279301 -0.115931 -0.150752 0.0193062 -0.107621 -0.141843 0.0261458 
-0.109899 -0.144242 0.0181978 -0.123677 -0.131771 0.0118263 -0.112754 -0.13733 0.0233923 
-0.110489 -0.140155 0.0283969 -0.137939 -0.153723 0.0264174 -0.132206 -0.138533 0.0203738 
-0.140753 -0.152758 0.0247166 -0.114149 -0.151682 0.0261857 -0.133889 -0.143527 0.00306764 
-0.124394 -0.153759 0.0264248 -0.152625 -0.139746 0.00341767 -0.112567 -0.14911 0.0181236 
-0.144484 -0.150966 0.021552 -0.125091 -0.150533 0.0276815 -0.149349 -0.147762 0.0158851 
-0.12666 -0.134675 0.0030325 -0.139539 -0.147499 0.0118869 -0.12553 -0.153839 0.0230815 
-0.122571 -0.140578 0.0257086 -0.121621 -0.15183 0.0177541 -0.147258 -0.136636 0.011835 
-0.151888 -0.145867 0.0125324 -0.109348 -0.141636 0.0153145 -0.129746 -0.133894 0.00340412 
-0.144544 -0.152482 0.0242425 -0.137593 -0.129794 0.00663074 -0.0510036 -0.113188 0.015526 
-0.0605337 -0.111969 0.0113994 -0.0703085 -0.111171 0.00931398 -0.0586231 -0.118486 0.0207107 
-0.0454548 -0.11657 0.0237625 -0.0667095 -0.117733 0.0173801 -0.0769615 -0.116281 0.0128556 
-0.0508475 -0.121768 0.0231229 -0.0788535 -0.11086 0.00655624 -0.0534712 -0.105721 0.00778199 
-0.0647684 -0.12385 0.0231822 -0.0736937 -0.120376 0.0174359 -0.0589166 -0.102422 0.0085288 
-0.0596662 -0.126178 0.0254707 -0.0650329 -0.103486 0.00793588 -0.0702306 -0.123355 0.0204725 
-0.0528313 -0.117547 0.0273509 -0.076642 -0.104455 0.00814228 -0.0486493 -0.110178 0.00564291 
-0.0826378 -0.115807 0.00867771 -0.0529108 -0.114471 0.00532537 -0.0640754 -0.128383 0.0266446 
-0.0464551 -0.122367 0.0184924 -0.0387644 -0.113652 0.0262448 -0.0409163 -0.115357 0.0180853 
-0.0556012 -0.103313 0.0130568 -0.0442284 -0.109257 0.0239797 -0.0417318 -0.112423 0.0286593 
-0.0681433 -0.127659 0.0252278 -0.0635623 -0.11154 0.0208321 -0.0710307 -0.126726 0.0236361 
-0.0445649 -0.123887 0.0252364 -0.0649972 -0.114786 0.00309283 -0.0546318 -0.126715 0.0252444 
-0.083954 -0.112432 0.00382312 -0.0432263 -0.12037 0.0174935 -0.0749032 -0.124885 0.0206754 
-0.0555508 -0.123698 0.026835 -0.080024 -0.121461 0.015375 -0.0584257 -0.10548 0.00400205 
-0.0702865 -0.120067 0.0114365 -0.0557816 -0.126523 0.0219103 -0.0537689 -0.113434 0.0259296 
-0.0520635 -0.123685 0.0168294 -0.0787686 -0.109847 0.0125277 -0.082716 -0.119411 0.0122393 
-0.0405748 -0.112427 0.0154946 -0.0615577 -0.104968 0.00445134 -0.0748353 -0.126677 0.0231903 
-0.0696578 -0.101812 0.00808639 
VERTICES 100 200
1 0 
1 1 
1 2 
1 3 
1 4 
1 5 
1 6 
1 7 
1 8 
1 9 
1 10 
1 11 
1 12 
1 13 
1 14 
1 15 
1 16 
1 17 
1 18 
1 19 
1 20 
1 21 
1 22 
1 23 
1 24 
1 25 
1 26 
1 27 
1 28 
1 29 
1 30 
1 31 
1 32 
1 33 
1 34 
1 35 
1 36 
1 37 
1 38 
1 39 
1 40 
1 41 
1 42 
1 43 
1 44 
1 45 
1 46 
1 47 
1 48 
1 49 
1 50 
1 51 
1 52 
1 53 
1 54 
1 55 
1 56 
1 57 
1 58 
1 59 
1 60 
1 61 
1 62 
1 63 
1 64 
1 65 
1 66 
1 67 
1 68 
1 69 
1 70 
1 71 
1 72 
1 73 
1 74 
1 75 
1 76 
1 77 
1 78 
1 79 
1 80 
1 81 
1 82 
1 83 
1 84 
1 85 
1 86 
1 87 
1 88 
1 89 
1 90 
1 91 
1 92 
1 93 
1 94 
1 95 
1 96 
1 97 
1 98 
1 99 

POINT_DATA 100
FIELD FieldData 7
id 1 100 int
1 2 3 4 5 6 7 8 9 
10 11 12 13 14 15 16 17 18 
19 20 21 22 23 24 25 26 27 
28 29 30 31 32 33 34 35 36 
37 38 39 40 41 42 43 44 45 
46 47 48 49 50 51 52 53 54 
55 56 57 58 59 60 61 62 63 
64 65 66 67 68 69 70 71 72 
73 74 75 76 77 78 79 80 81 
82 83 84 85 86 87 88 89 90 
91 92 93 94 95 96 97 98 99 
100 
mol 1 100 int
1 1 1 1 1 1 1 1 1 
1 1 1 1 1 1 1 1 1 
1 1 1 1 1 1 1 1 1 
1 1 1 1 1 1 1 1 1 
1 1 1 1 1 1 1 1 1 
1 1 1 1 1 2 2 2 2 
2 2 2 2 2 2 2 2 2 
2 2 2 2 2 2 2 2 2 
2 2 2 2 2 2 2 2 2 
2 2 2 2 2 2 2 2 2 
2 2 2 2 2 2 2 2 2 
2 
type 1 100 int
1 1 1 1 1 1 1 1 1 
1 1 1 1 1 1 1 1 1 
1 1 1 1 1 1 1 1 1 
1 1 1 1 1 1 1 1 1 
1 1 1 1 1 1 1 1 1 
1 1 1 1 1 1 1 1 1 
1 1 1 1 1 1 1 1 1 
1 1 1 1 1 1 1 1 1 
1 1 1 1 1 1 1 1 1 
1 1 1 1 1 1 1 1 1 
1 1 1 1 1 1 1 1 1 
1 
v 3 100 double
0.099004723595 -0.15625204482 -0.094594503907 0.074155120945 -0.1026175416 -0.021880956031 0.062318578949 -0.06536162611 0.051091847877 
0.12737010895 -0.18675893046 -0.077020543451 0.14872822176 -0.23676473509 -0.15231110729 0.10705819656 -0.14283909946 -0.017325220998 
0.079939514682 -0.084346971972 0.061897413705 0.13840807222 -0.22441581533 -0.15461328023 0.04528561923 -0.025483489606 0.11113174502 
0.057439105175 -0.083024789767 -0.0269502684 0.13752717893 -0.19826655769 -0.072639006054 0.10475438093 -0.13108204898 0.011631244217 
0.067125035714 -0.075710046868 0.037111495124 0.14922331789 -0.22883041569 -0.12428101069 0.062446893574 -0.059303277059 0.071460448839 
0.12074143156 -0.16487483555 -0.032814247339 0.17199137294 -0.2516929089 -0.10485577329 0.063728726605 -0.038218238631 0.14580874882 
0.037114833105 -0.07861096803 -0.096663145254 0.053420581906 -0.038619482011 0.10180762654 0.0299681565 -0.070511437671 -0.099737616719 
0.15463098971 -0.23103802685 -0.10911569131 0.1065285205 -0.19613099605 -0.19401569146 0.16822920245 -0.26833510367 -0.17492797529 
0.11220531315 -0.19897261232 -0.17981187222 0.095666452466 -0.11980965568 0.010906913143 0.15935436662 -0.23574282007 -0.10496080265 
0.18608502377 -0.28105594706 -0.14263746382 0.14656693903 -0.21079508535 -0.076227186059 0.13750263984 -0.17276563915 0.010758639549 
0.13749219827 -0.19136693096 -0.050191982557 0.14909330512 -0.25579393354 -0.21310775581 0.015968800761 -0.028191528027 -0.019139937513 
0.14654311435 -0.23755197783 -0.16393762665 0.025678863906 0.0058796516728 0.13263204972 0.1021318036 -0.19310916478 -0.20232846892 
0.12060038082 -0.15818173913 -0.0114827284 0.16101307597 -0.24643668964 -0.13310749268 0.090343175789 -0.10234003133 0.046064456359 
0.03318860009 -0.042154109528 0.0064508266629 0.065057752511 -0.089040192263 -0.015097116359 0.12480806363 -0.20802382709 -0.15725928236 
0.16790074905 -0.23530032306 -0.068120277083 0.09438598319 -0.17224591535 -0.16609101926 0.086133864271 -0.073403518732 0.12338182243 
0.072440668266 -0.069969626603 0.077920408771 0.098733924931 -0.17652303323 -0.16209048991 0.037126921347 -0.039104323306 0.032746010747 
0.13497698816 -0.18002460198 -0.023468876894 0.066032218526 -0.049974918485 0.11685215666 0.099482184918 -0.11633800217 0.00042480289253 
0.080577273331 -0.083517378306 0.053780371481 0.07105787911 -0.06598647916 0.10510725761 0.12251772837 -0.15384378546 -0.0040459164297 
0.13703553583 -0.17928218944 -0.050722998768 0.10721527077 -0.12727870379 0.039109313392 0.086509006486 -0.091330111497 0.097564897189 
0.13307960422 -0.17344940579 -0.064765782549 0.058327919509 -0.043638310092 0.14707040174 0.064991004793 -0.057681734435 0.067972623174 
0.13295817032 -0.17124420265 -0.015852638649 0.10697087977 -0.12636829983 0.051637818249 0.069082617835 -0.062256173525 0.11801431751 
0.14312776437 -0.18941092085 -0.057008599114 0.06613033522 -0.056636406887 0.13838551824 0.1204857208 -0.14984354819 0.013195871757 
0.15349056669 -0.2048393048 -0.023852682598 0.06690295448 -0.055976551528 0.18494118283 0.054222101149 -0.042527471721 0.012117027242 
0.067224290258 -0.058857882046 0.12744957413 0.05193199532 -0.039330001672 -0.00037543447267 0.14815189028 -0.19739177554 -0.053130564966 
0.11149126713 -0.13949321711 -0.089637008638 0.1491029555 -0.1992074813 -0.059822669494 0.11093798289 -0.13748871314 -0.062651450076 
0.089911652688 -0.096909648244 0.095943766818 0.13943542703 -0.18114767859 -0.001460115919 0.16053405966 -0.21678404644 -0.036829941546 
0.14171931437 -0.18597163215 -0.028823761598 0.12440324977 -0.15381535145 0.071044959324 0.13451498971 -0.17346154964 -0.0084244675195 
0.14247726773 -0.19052586328 -0.10982859326 0.041518492438 -0.020253693493 0.053308232563 0.14197603804 -0.18866908727 -0.084386788765 
0.045353614521 -0.022131063945 0.15891272394 0.10723910022 -0.13260266663 -0.089608128835 0.12113541 -0.15047850977 0.023367532001 
0.14992687737 -0.20044531916 -0.05745839447 0.097206468912 -0.10967722233 0.072844216288 0.047507216913 -0.028336789874 0.092757187844 
0.079207287633 -0.081939153784 0.038159297602 0.12655044155 -0.16339848319 -0.077615538944 0.14768241628 -0.19398154682 0.011396423682 
0.10352791333 -0.12592961245 -0.07353022158 0.086213493245 -0.088522310177 0.15428470356 0.083055140452 -0.085604243345 0.10072870652 
0.099481587734 -0.11808827127 -0.042224126349 0.04968830217 -0.031116221209 0.11112869514 0.13245694063 -0.16938742665 0.0095891658476 
0.067147140097 -0.056886628477 0.17241253806 
f 3 100 double
0 0 0 0 0 0 -0.07013350435 -0.10046752923 -0.13182719084 
0 0 0 0 0 0 0 0 0 
0 0 0 0 0 0 0 0 0 
0 0 0 0 0 0 0 0 0 
0 0 0 0 0 0 0 0 0 
0 0 0 0 0 0 0 0 0 
0 0 0 0 0 0 0 0 0 
0 0 0 0 0 0 0 0 0 
0 0 0 0 0 0 0 0 0 
0 0 0 0 0 0 0 0 0 
0 0 0 0 0 0 0.14655464964 0.086915920675 1.0147542228 
0 0 0 0 0 0 0 0 0 
0 0 0 0 0 0 0 0 0 
0 0 0 0 0 0 0 0 0 
0 0 0 0 0 0 0 0 0 
0 0 0 0 0 0 0 0 0 
0 0 0 0 0 0 0 0 0 
0 0 0 0 0 0 0 0 0 
0 0 0 0 0 0 0 0 0 
0 0 0 0 0 0 0 0 0 
0 0 0 0 0 0 0 0 0 
0 0 0 0 0 0 0 0 0 
0 0 0 0 0 0 0 0 0 
0 0 0 0 0 0 0 0 0 
0 0 0 0 0 0 0 0 0 
0 0 0 0 0 0 0 0 0 
0 0 0 0 0 0 0 0 0 
0 0 0 -0.040229896372 -0.005038982416 -0.081088492548 0 0 0 
0 0 0 0 0 0 0 0 0 
0 0 0 0 0 0 0 0 0 
0 0 0 0 0 0 0 0 0 
0 0 0 0 0 0 0 0 0 
0 0 0 0 0 0 0 0 0 
0 0 0 
radius 1 100 double
0.010434 0.00981478 0.00892069 0.00845937 0.00731974 0.00728422 0.00643447 0.00619172 0.00585956 
0.00577566 0.00537241 0.00522549 0.00513666 0.00473175 0.00466912 0.00444866 0.00441894 0.00400812 
0.00385622 0.00379948 0.00370243 0.00366942 0.00364039 0.00363813 0.00363644 0.00358692 0.0035797 
0.00341284 0.00337012 0.00336273 0.00332772 0.00323261 0.00320584 0.00320311 0.00318808 0.00313116 
0.00306026 0.00305632 0.00304383 0.00300958 0.00300137 0.00298994 0.0029567 0.00295111 0.00290849 
0.00284552 0.00282964 0.0028207 0.00281971 0.00281899 0.010434 0.00981478 0.00892069 0.00845937 
0.00731974 0.00728422 0.00643447 0.00619172 0.00585956 0.00577566 0.00537241 0.00522549 0.00513666 
0.00473175 0.00466912 0.00444866 0.00441894 0.00400812 0.00385622 0.00379948 0.00370243 0.00366942 
0.00364039 0.00363813 0.00363644 0.00358692 0.0035797 0.00341284 0.00337012 0.00336273 0.00332772 
0.00323261 0.00320584 0.00320311 0.00318808 0.00313116 0.00306026 0.00305632 0.00304383 0.00300958 
0.00300137 0.00298994 0.0029567 0.00295111 0.00290849 0.00284552 0.00282964 0.0028207 0.00281971 
0.00281899 
omega 3 100 double
8.1621893537 6.4537963278 -1.9710081809 8.1621893537 6.4537963278 -1.9710081809 8.1621893537 6.4537963278 -1.9710081809 
8.1621893537 6.4537963278 -1.9710081809 8.1621893537 6.4537963278 -1.9710081809 8.1621893537 6.4537963278 -1.9710081809 
8.1621893537 6.4537963278 -1.9710081809 8.1621893537 6.4537963278 -1.9710081809 8.1621893537 6.4537963278 -1.9710081809 
8.1621893537 6.4537963278 -1.9710081809 8.1621893537 6.4537963278 -1.9710081809 8.1621893537 6.4537963278 -1.9710081809 
8.1621893537 6.4537963278 -1.9710081809 8.1621893537 6.4537963278 -1.9710081809 8.1621893537 6.4537963278 -1.9710081809 
8.1621893537 6.4537963278 -1.9710081809 8.1621893537 6.4537963278 -1.9710081809 8.1621893537 6.4537963278 -1.9710081809 
8.1621893537 6.4537963278 -1.9710081809 8.1621893537 6.4537963278 -1.9710081809 8.1621893537 6.4537963278 -1.9710081809 
8.1621893537 6.4537963278 -1.9710081809 8.1621893537 6.4537963278 -1.9710081809 8.1621893537 6.4537963278 -1.9710081809 
8.1621893537 6.4537963278 -1.9710081809 8.1621893537 6.4537963278 -1.9710081809 8.1621893537 6.4537963278 -1.9710081809 
8.1621893537 6.4537963278 -1.9710081809 8.1621893537 6.4537963278 -1.9710081809 8.1621893537 6.4537963278 -1.9710081809 
8.1621893537 6.4537963278 -1.9710081809 8.1621893537 6.4537963278 -1.9710081809 8.1621893537 6.4537963278 -1.9710081809 
8.1621893537 6.4537963278 -1.9710081809 8.1621893537 6.4537963278 -1.9710081809 8.1621893537 6.4537963278 -1.9710081809 
8.1621893537 6.4537963278 -1.9710081809 8.1621893537 6.4537963278 -1.9710081809 8.1621893537 6.4537963278 -1.9710081809 
8.1621893537 6.4537963278 -1.9710081809 8.1621893537 6.4537963278 -1.9710081809 8.1621893537 6.4537963278 -1.9710081809 
8.1621893537 6.4537963278 -1.9710081809 8.1621893537 6.4537963278 -1.9710081809 8.1621893537 6.4537963278 -1.9710081809 
8.1621893537 6.4537963278 -1.9710081809 8.1621893537 6.4537963278 -1.9710081809 8.1621893537 6.4537963278 -1.9710081809 
8.1621893537 6.4537963278 -1.9710081809 8.1621893537 6.4537963278 -1.9710081809 7.5137535523 4.6375443878 -0.19042536078 
7.5137535523 4.6375443878 -0.19042536078 7.5137535523 4.6375443878 -0.19042536078 7.5137535523 4.6375443878 -0.19042536078 
7.5137535523 4.6375443878 -0.19042536078 7.5137535523 4.6375443878 -0.19042536078 7.5137535523 4.6375443878 -0.19042536078 
7.5137535523 4.6375443878 -0.19042536078 7.5137535523 4.6375443878 -0.19042536078 7.5137535523 4.6375443878 -0.19042536078 
7.5137535523 4.6375443878 -0.19042536078 7.5137535523 4.6375443878 -0.19042536078 7.5137535523 4.6375443878 -0.19042536078 
7.5137535523 4.6375443878 -0.19042536078 7.5137535523 4.6375443878 -0.19042536078 7.5137535523 4.6375443878 -0.19042536078 
7.5137535523 4.6375443878 -0.19042536078 7.5137535523 4.6375443878 -0.19042536078 7.5137535523 4.6375443878 -0.19042536078 
7.5137535523 4.6375443878 -0.19042536078 7.5137535523 4.6375443878 -0.19042536078 7.5137535523 4.6375443878 -0.19042536078 
7.5137535523 4.6375443878 -0.19042536078 7.5137535523 4.6375443878 -0.19042536078 7.5137535523 4.6375443878 -0.19042536078 
7.5137535523 4.6375443878 -0.19042536078 7.5137535523 4.6375443878 -0.19042536078 7.5137535523 4.6375443878 -0.19042536078 
7.5137535523 4.6375443878 -0.19042536078 7.5137535523 4.6375443878 -0.19042536078 7.5137535523 4.6375443878 -0.19042536078 
7.5137535523 4.6375443878 -0.19042536078 7.5137535523 4.6375443878 -0.19042536078 7.5137535523 4.6375443878 -0.19042536078 
7.5137535523 4.6375443878 -0.19042536078 7.5137535523 4.6375443878 -0.19042536078 7.5137535523 4.6375443878 -0.19042536078 
7.5137535523 4.6375443878 -0.19042536078 7.5137535523 4.6375443878 -0.19042536078 7.5137535523 4.6375443878 -0.19042536078 
7.5137535523 4.6375443878 -0.19042536078 7.5137535523 4.6375443878 -0.19042536078 7.5137535523 4.6375443878 -0.19042536078 
7.5137535523 4.6375443878 -0.19042536078 7.5137535523 4.6375443878 -0.19042536078 7.5137535523 4.6375443878 -0.19042536078 
7.5137535523 4.6375443878 -0.19042536078 7.5137535523 4.6375443878 -0.19042536078 7.5137535523 4.6375443878 -0.19042536078 
7.5137535523 4.6375443878 -0.19042536078 
