# vtk DataFile Version 4.1
Generated by LIGGGHTS
ASCII
DATASET POLYDATA
POINTS 100 float
-0.115848 -0.132968 0.0212332 -0.12563 -0.133872 0.0176499 -0.135527 -0.134192 0.0160791 
-0.122977 -0.135259 0.028779 -0.109735 -0.132072 0.0297122 -0.131257 -0.136195 0.0260208 
-0.14179 -0.137082 0.0220249 -0.114969 -0.13699 0.0319292 -0.144218 -0.135252 0.0140624 
-0.119003 -0.13001 0.011079 -0.128783 -0.138872 0.0338667 -0.138131 -0.138539 0.0277625 
-0.124511 -0.126773 0.0105537 -0.123483 -0.139832 0.0366376 -0.13061 -0.128021 0.0109287 
-0.134402 -0.139731 0.0316043 -0.116862 -0.131291 0.0338161 -0.142148 -0.128839 0.0123244 
-0.114154 -0.134927 0.0109586 -0.147703 -0.138648 0.0184917 -0.118273 -0.138889 0.012963 
-0.12774 -0.141252 0.0389918 -0.110822 -0.139666 0.0278379 -0.103023 -0.128297 0.0300994 
-0.105564 -0.133636 0.0238416 -0.12092 -0.125423 0.0147452 -0.108756 -0.125502 0.0264076 
-0.105893 -0.126096 0.0318492 -0.131903 -0.141296 0.0376709 -0.128143 -0.129091 0.025966 
-0.134906 -0.141232 0.0360209 -0.108508 -0.137842 0.034371 -0.130447 -0.140274 0.0119339 
-0.118453 -0.140386 0.0363586 -0.149404 -0.137947 0.012721 -0.107726 -0.138354 0.0258128 
-0.138999 -0.141011 0.0328043 -0.119388 -0.136981 0.0364124 -0.144524 -0.140494 0.0268668 
-0.124165 -0.131593 0.00795827 -0.135075 -0.141058 0.0221045 -0.119793 -0.141784 0.0334045 
-0.118021 -0.128328 0.0307035 -0.116465 -0.141638 0.0273546 -0.143837 -0.13156 0.0188495 
-0.147456 -0.140165 0.023321 -0.10547 -0.132259 0.0201666 -0.127284 -0.130946 0.00832069 
-0.138729 -0.141416 0.0358543 -0.135275 -0.126495 0.0105827 -0.0469444 -0.105166 0.019722 
-0.0566501 -0.106068 0.0159374 -0.0665133 -0.106401 0.014166 -0.0542184 -0.107516 0.0271093 
-0.0410047 -0.104306 0.0283274 -0.0624396 -0.108453 0.0241796 -0.0728875 -0.109339 0.0199675 
-0.0462714 -0.109249 0.0304097 -0.0751594 -0.107467 0.0119687 -0.0499013 -0.102154 0.00952393 
-0.0601176 -0.111171 0.0320578 -0.0693412 -0.110822 0.0257689 -0.0554047 -0.0989255 0.00890699 
-0.0548721 -0.112136 0.0349291 -0.0615069 -0.100189 0.0091519 -0.0656875 -0.112029 0.0296778 
-0.0482143 -0.103565 0.0322917 -0.0730693 -0.101039 0.0103105 -0.0450397 -0.107059 0.00947217 
-0.0787246 -0.110896 0.016307 -0.0491896 -0.111043 0.0113699 -0.0591724 -0.11358 0.0371888 
-0.0420374 -0.111892 0.0263869 -0.0343109 -0.10052 0.0288717 -0.0367137 -0.105827 0.0225328 
-0.0519015 -0.0975929 0.0131778 -0.0399741 -0.0977154 0.0250818 -0.0372202 -0.0983351 0.0305763 
-0.0633082 -0.113625 0.0357841 -0.0593401 -0.101342 0.0242293 -0.0662769 -0.113557 0.0340745 
-0.0398589 -0.110101 0.0329758 -0.0613366 -0.112447 0.0100881 -0.0498366 -0.112679 0.034748 
-0.0803116 -0.110164 0.0105074 -0.0389041 -0.110561 0.0244323 -0.0703053 -0.113326 0.0307775 
-0.0507795 -0.109275 0.034803 -0.0757105 -0.112785 0.0247332 -0.0549962 -0.103729 0.00629076 
-0.0661669 -0.113301 0.0201587 -0.0511132 -0.114062 0.0317594 -0.0493171 -0.100586 0.0291738 
-0.0476646 -0.113872 0.0257787 -0.0748829 -0.103803 0.0167841 -0.0785719 -0.112442 0.0211312 
-0.036549 -0.104428 0.0188686 -0.0581226 -0.103091 0.00659418 -0.0700953 -0.113749 0.0338299 
-0.0661677 -0.0986702 0.00872117 
VERTICES 100 200
1 0 
1 1 
1 2 
1 3 
1 4 
1 5 
1 6 
1 7 
1 8 
1 9 
1 10 
1 11 
1 12 
1 13 
1 14 
1 15 
1 16 
1 17 
1 18 
1 19 
1 20 
1 21 
1 22 
1 23 
1 24 
1 25 
1 26 
1 27 
1 28 
1 29 
1 30 
1 31 
1 32 
1 33 
1 34 
1 35 
1 36 
1 37 
1 38 
1 39 
1 40 
1 41 
1 42 
1 43 
1 44 
1 45 
1 46 
1 47 
1 48 
1 49 
1 50 
1 51 
1 52 
1 53 
1 54 
1 55 
1 56 
1 57 
1 58 
1 59 
1 60 
1 61 
1 62 
1 63 
1 64 
1 65 
1 66 
1 67 
1 68 
1 69 
1 70 
1 71 
1 72 
1 73 
1 74 
1 75 
1 76 
1 77 
1 78 
1 79 
1 80 
1 81 
1 82 
1 83 
1 84 
1 85 
1 86 
1 87 
1 88 
1 89 
1 90 
1 91 
1 92 
1 93 
1 94 
1 95 
1 96 
1 97 
1 98 
1 99 

POINT_DATA 100
FIELD FieldData 7
id 1 100 int
1 2 3 4 5 6 7 8 9 
10 11 12 13 14 15 16 17 18 
19 20 21 22 23 24 25 26 27 
28 29 30 31 32 33 34 35 36 
37 38 39 40 41 42 43 44 45 
46 47 48 49 50 51 52 53 54 
55 56 57 58 59 60 61 62 63 
64 65 66 67 68 69 70 71 72 
73 74 75 76 77 78 79 80 81 
82 83 84 85 86 87 88 89 90 
91 92 93 94 95 96 97 98 99 
100 
mol 1 100 int
1 1 1 1 1 1 1 1 1 
1 1 1 1 1 1 1 1 1 
1 1 1 1 1 1 1 1 1 
1 1 1 1 1 1 1 1 1 
1 1 1 1 1 1 1 1 1 
1 1 1 1 1 2 2 2 2 
2 2 2 2 2 2 2 2 2 
2 2 2 2 2 2 2 2 2 
2 2 2 2 2 2 2 2 2 
2 2 2 2 2 2 2 2 2 
2 2 2 2 2 2 2 2 2 
2 
type 1 100 int
1 1 1 1 1 1 1 1 1 
1 1 1 1 1 1 1 1 1 
1 1 1 1 1 1 1 1 1 
1 1 1 1 1 1 1 1 1 
1 1 1 1 1 1 1 1 1 
1 1 1 1 1 1 1 1 1 
1 1 1 1 1 1 1 1 1 
1 1 1 1 1 1 1 1 1 
1 1 1 1 1 1 1 1 1 
1 1 1 1 1 1 1 1 1 
1 1 1 1 1 1 1 1 1 
1 
v 3 100 double
-0.12792107645 -0.064055930922 -0.2145769382 -0.10213265504 -0.062116280494 -0.28546257197 -0.090859562918 -0.063617111728 -0.35618826577 
-0.18046933835 -0.079761329464 -0.26898916581 -0.18842262326 -0.075784083657 -0.16971412618 -0.16051837977 -0.078583133126 -0.32928385503 
-0.13181127774 -0.076262801319 -0.40546552941 -0.20208232444 -0.081714311784 -0.21511982192 -0.076114651428 -0.063860591437 -0.41960165496 
-0.057155574793 -0.048264378103 -0.2319642183 -0.21503275239 -0.09076953671 -0.31625063691 -0.17188645934 -0.08439920608 -0.38197344214 
-0.054787288778 -0.049687461932 -0.26556548416 -0.23427946603 -0.093218244842 -0.2802841678 -0.056923433676 -0.052875544689 -0.31091566628 
-0.19862941926 -0.089311217394 -0.35753972336 -0.21785160618 -0.085687815635 -0.21893573789 -0.066478290055 -0.060063917374 -0.39411520528 
-0.054241360631 -0.0460290994 -0.20586371872 -0.10610034241 -0.072786153475 -0.45003457204 -0.066793812562 -0.051133694318 -0.24175283139 
-0.25037806668 -0.09897017155 -0.31286554696 -0.17194841972 -0.073080913015 -0.1902261306 -0.19275065952 -0.073623936763 -0.11576146845 
-0.14613811706 -0.064142015829 -0.14277705762 -0.085076186507 -0.055246789795 -0.23782462212 -0.16774263511 -0.0698042599 -0.15170006012 
-0.20608113837 -0.077775759664 -0.13240161092 -0.24099292321 -0.098488830363 -0.34246214575 -0.16310740078 -0.077185347213 -0.29522296941 
-0.22931944359 -0.09696627845 -0.36364424775 -0.21904037504 -0.083121767274 -0.17073946133 -0.058916113245 -0.054501267048 -0.33040864636 
-0.23206811762 -0.090639887152 -0.24555255355 -0.06547302604 -0.063773380777 -0.4609193899 -0.15813849591 -0.068370241467 -0.16605863006 
-0.20660209223 -0.093260546333 -0.39229920218 -0.2338773219 -0.091122288628 -0.24643909983 -0.16471535566 -0.085569003556 -0.43060289009 
-0.034362923339 -0.045168353422 -0.27123783068 -0.1307086829 -0.073582627107 -0.36455260325 -0.21053448377 -0.086222496927 -0.25740662021 
-0.19702142298 -0.080927553494 -0.22215984129 -0.16769561458 -0.074631339879 -0.23356019473 -0.11160802938 -0.071769042716 -0.41067759939 
-0.13970966815 -0.080822060714 -0.45084334771 -0.12065499911 -0.057908826728 -0.13979109236 -0.037204073772 -0.04708607849 -0.29225934147 
-0.22806049497 -0.098287656589 -0.39106372913 -0.055110039286 -0.054247818495 -0.34142586796 -0.126770198 -0.063650285612 -0.26295220191 
-0.10001714563 -0.061612143352 -0.33204657444 -0.087534004795 -0.062949406959 -0.40130198701 -0.17721919836 -0.07891951049 -0.31748554522 
-0.18708704067 -0.075230339951 -0.22016268517 -0.15640717847 -0.07764672105 -0.376295182 -0.12668364669 -0.075225945576 -0.45053248065 
-0.19946424787 -0.08091947536 -0.26497178302 -0.071767974069 -0.063062774246 -0.46328374929 -0.057025192062 -0.048168945475 -0.27860252007 
-0.21011762087 -0.089590058134 -0.36458582452 -0.16645810768 -0.083229885788 -0.42826490299 -0.054117875185 -0.049525382395 -0.31163600918 
-0.22970391702 -0.092048398861 -0.32963006666 -0.055279983959 -0.052555631342 -0.3562204118 -0.19316869739 -0.088078527608 -0.40479570364 
-0.21502239346 -0.084848175521 -0.26916836297 -0.062984508733 -0.059438343421 -0.43816346633 -0.054552266186 -0.045990305992 -0.2527947237 
-0.10051242215 -0.071725630349 -0.49375477268 -0.066057075438 -0.050895314442 -0.28824786041 -0.24482379671 -0.097612823068 -0.3619584291 
-0.17030251184 -0.072487016402 -0.23981967463 -0.19250981907 -0.073242061704 -0.16731184412 -0.14606601886 -0.063862334555 -0.19276817237 
-0.084443317845 -0.055033424324 -0.28504261211 -0.16731643463 -0.069454379717 -0.20215514543 -0.20532539063 -0.077295491027 -0.18398907439 
-0.23501961156 -0.097086201071 -0.39084297114 -0.15981557705 -0.076393585555 -0.3430210737 -0.22313895916 -0.095555843256 -0.41141268017 
-0.21697374411 -0.082374038172 -0.22170178032 -0.056522630333 -0.054020342394 -0.3751731214 -0.22820879997 -0.089582344861 -0.29544262633 
-0.060426513474 -0.062880720693 -0.50360685116 -0.15725944614 -0.067926372675 -0.21580554489 -0.2002709168 -0.091873925434 -0.43909558837 
-0.23005809168 -0.090078905805 -0.29641998386 -0.15839827521 -0.084271393365 -0.47586104677 -0.033824042957 -0.045051204639 -0.31668247564 
-0.12630898169 -0.072645866823 -0.41022599376 -0.20679400362 -0.085222095287 -0.30660853076 -0.19458595703 -0.0802007121 -0.27195576704 
-0.16521276985 -0.073911104834 -0.28227352908 -0.1068912851 -0.070855121605 -0.45533769114 -0.13345376559 -0.079585739725 -0.49522912196 
-0.12114259122 -0.057771367412 -0.18932319998 -0.036212631968 -0.046896054332 -0.33741257258 -0.22135267673 -0.096798364823 -0.43832667053 
-0.052933405176 -0.053855152456 -0.38619398622 
f 3 100 double
0 0 0 0 0 0 0 0 0 
0 0 0 0 0 0 0 0 0 
0 0 0 0 0 0 0 0 0 
0 0 0 0 0 0 0 0 0 
0 0 0 0 0 0 0 0 0 
0 0 0 0 0 0 0 0 0 
0 0 0 0 0 0 0 0 0 
0 0 0 0 0 0 0 0 0 
0 0 0 0 0 0 0 0 0 
0 0 0 0 0 0 0 0 0 
0 0 0 0 0 0 0 0 0 
0 0 0 0 0 0 0 0 0 
0 0 0 0 0 0 0 0 0 
0 0 0 0 0 0 0 0 0 
0 0 0 0 0 0 0 0 0 
0 0 0 0 0 0 0 0 0 
0 0 0 0 0 0 0 0 0 
0 0 0 0 0 0 0 0 0 
0 0 0 0 0 0 0 0 0 
0 0 0 0 0 0 0 0 0 
0 0 0 0 0 0 0 0 0 
0 0 0 0 0 0 0 0 0 
0 0 0 0 0 0 0 0 0 
0 0 0 0 0 0 0 0 0 
0 0 0 0 0 0 0 0 0 
0 0 0 0 0 0 0 0 0 
0 0 0 0 0 0 0 0 0 
0 0 0 0 0 0 0 0 0 
0 0 0 0 0 0 0 0 0 
0 0 0 0 0 0 0 0 0 
0 0 0 0 0 0 0 0 0 
0 0 0 0 0 0 0 0 0 
0 0 0 0 0 0 0 0 0 
0 0 0 
radius 1 100 double
0.010434 0.00981478 0.00892069 0.00845937 0.00731974 0.00728422 0.00643447 0.00619172 0.00585956 
0.00577566 0.00537241 0.00522549 0.00513666 0.00473175 0.00466912 0.00444866 0.00441894 0.00400812 
0.00385622 0.00379948 0.00370243 0.00366942 0.00364039 0.00363813 0.00363644 0.00358692 0.0035797 
0.00341284 0.00337012 0.00336273 0.00332772 0.00323261 0.00320584 0.00320311 0.00318808 0.00313116 
0.00306026 0.00305632 0.00304383 0.00300958 0.00300137 0.00298994 0.0029567 0.00295111 0.00290849 
0.00284552 0.00282964 0.0028207 0.00281971 0.00281899 0.010434 0.00981478 0.00892069 0.00845937 
0.00731974 0.00728422 0.00643447 0.00619172 0.00585956 0.00577566 0.00537241 0.00522549 0.00513666 
0.00473175 0.00466912 0.00444866 0.00441894 0.00400812 0.00385622 0.00379948 0.00370243 0.00366942 
0.00364039 0.00363813 0.00363644 0.00358692 0.0035797 0.00341284 0.00337012 0.00336273 0.00332772 
0.00323261 0.00320584 0.00320311 0.00318808 0.00313116 0.00306026 0.00305632 0.00304383 0.00300958 
0.00300137 0.00298994 0.0029567 0.00295111 0.00290849 0.00284552 0.00282964 0.0028207 0.00281971 
0.00281899 
omega 3 100 double
1.6853912076 -7.0911510478 0.41911488914 1.6853912076 -7.0911510478 0.41911488914 1.6853912076 -7.0911510478 0.41911488914 
1.6853912076 -7.0911510478 0.41911488914 1.6853912076 -7.0911510478 0.41911488914 1.6853912076 -7.0911510478 0.41911488914 
1.6853912076 -7.0911510478 0.41911488914 1.6853912076 -7.0911510478 0.41911488914 1.6853912076 -7.0911510478 0.41911488914 
1.6853912076 -7.0911510478 0.41911488914 1.6853912076 -7.0911510478 0.41911488914 1.6853912076 -7.0911510478 0.41911488914 
1.6853912076 -7.0911510478 0.41911488914 1.6853912076 -7.0911510478 0.41911488914 1.6853912076 -7.0911510478 0.41911488914 
1.6853912076 -7.0911510478 0.41911488914 1.6853912076 -7.0911510478 0.41911488914 1.6853912076 -7.0911510478 0.41911488914 
1.6853912076 -7.0911510478 0.41911488914 1.6853912076 -7.0911510478 0.41911488914 1.6853912076 -7.0911510478 0.41911488914 
1.6853912076 -7.0911510478 0.41911488914 1.6853912076 -7.0911510478 0.41911488914 1.6853912076 -7.0911510478 0.41911488914 
1.6853912076 -7.0911510478 0.41911488914 1.6853912076 -7.0911510478 0.41911488914 1.6853912076 -7.0911510478 0.41911488914 
1.6853912076 -7.0911510478 0.41911488914 1.6853912076 -7.0911510478 0.41911488914 1.6853912076 -7.0911510478 0.41911488914 
1.6853912076 -7.0911510478 0.41911488914 1.6853912076 -7.0911510478 0.41911488914 1.6853912076 -7.0911510478 0.41911488914 
1.6853912076 -7.0911510478 0.41911488914 1.6853912076 -7.0911510478 0.41911488914 1.6853912076 -7.0911510478 0.41911488914 
1.6853912076 -7.0911510478 0.41911488914 1.6853912076 -7.0911510478 0.41911488914 1.6853912076 -7.0911510478 0.41911488914 
1.6853912076 -7.0911510478 0.41911488914 1.6853912076 -7.0911510478 0.41911488914 1.6853912076 -7.0911510478 0.41911488914 
1.6853912076 -7.0911510478 0.41911488914 1.6853912076 -7.0911510478 0.41911488914 1.6853912076 -7.0911510478 0.41911488914 
1.6853912076 -7.0911510478 0.41911488914 1.6853912076 -7.0911510478 0.41911488914 1.6853912076 -7.0911510478 0.41911488914 
1.6853912076 -7.0911510478 0.41911488914 1.6853912076 -7.0911510478 0.41911488914 1.642927785 -6.966209786 0.430645875 
1.642927785 -6.966209786 0.430645875 1.642927785 -6.966209786 0.430645875 1.642927785 -6.966209786 0.430645875 
1.642927785 -6.966209786 0.430645875 1.642927785 -6.966209786 0.430645875 1.642927785 -6.966209786 0.430645875 
1.642927785 -6.966209786 0.430645875 1.642927785 -6.966209786 0.430645875 1.642927785 -6.966209786 0.430645875 
1.642927785 -6.966209786 0.430645875 1.642927785 -6.966209786 0.430645875 1.642927785 -6.966209786 0.430645875 
1.642927785 -6.966209786 0.430645875 1.642927785 -6.966209786 0.430645875 1.642927785 -6.966209786 0.430645875 
1.642927785 -6.966209786 0.430645875 1.642927785 -6.966209786 0.430645875 1.642927785 -6.966209786 0.430645875 
1.642927785 -6.966209786 0.430645875 1.642927785 -6.966209786 0.430645875 1.642927785 -6.966209786 0.430645875 
1.642927785 -6.966209786 0.430645875 1.642927785 -6.966209786 0.430645875 1.642927785 -6.966209786 0.430645875 
1.642927785 -6.966209786 0.430645875 1.642927785 -6.966209786 0.430645875 1.642927785 -6.966209786 0.430645875 
1.642927785 -6.966209786 0.430645875 1.642927785 -6.966209786 0.430645875 1.642927785 -6.966209786 0.430645875 
1.642927785 -6.966209786 0.430645875 1.642927785 -6.966209786 0.430645875 1.642927785 -6.966209786 0.430645875 
1.642927785 -6.966209786 0.430645875 1.642927785 -6.966209786 0.430645875 1.642927785 -6.966209786 0.430645875 
1.642927785 -6.966209786 0.430645875 1.642927785 -6.966209786 0.430645875 1.642927785 -6.966209786 0.430645875 
1.642927785 -6.966209786 0.430645875 1.642927785 -6.966209786 0.430645875 1.642927785 -6.966209786 0.430645875 
1.642927785 -6.966209786 0.430645875 1.642927785 -6.966209786 0.430645875 1.642927785 -6.966209786 0.430645875 
1.642927785 -6.966209786 0.430645875 1.642927785 -6.966209786 0.430645875 1.642927785 -6.966209786 0.430645875 
1.642927785 -6.966209786 0.430645875 
