# vtk DataFile Version 4.1
Generated by LIGGGHTS
ASCII
DATASET POLYDATA
POINTS 100 float
-0.118994 -0.157992 0.012153 -0.128722 -0.154158 0.0120522 -0.13858 -0.152366 0.0124181 
-0.126425 -0.165234 0.00984309 -0.113046 -0.166635 0.0121724 -0.134677 -0.162252 0.00957106 
-0.145143 -0.157992 0.00955582 -0.118611 -0.168437 0.00745087 -0.147266 -0.150108 0.0120022 
-0.121723 -0.147975 0.0158985 -0.132555 -0.169969 0.00628457 -0.141715 -0.163704 0.00754109 
-0.127018 -0.147536 0.0194846 -0.127388 -0.172785 0.00484536 -0.133187 -0.147707 0.0185825 
-0.138157 -0.167542 0.00589968 -0.120213 -0.170631 0.0131294 -0.144784 -0.148811 0.0183729 
-0.117168 -0.147654 0.0107176 -0.151049 -0.154248 0.0085603 -0.121558 -0.149326 0.00689454 
-0.131777 -0.174959 0.00354259 -0.114529 -0.164276 0.00478256 -0.106138 -0.167392 0.0155092 
-0.108833 -0.160767 0.0107175 -0.123457 -0.151876 0.0203636 -0.111606 -0.163761 0.0188581 
-0.108916 -0.169214 0.0177691 -0.135902 -0.173551 0.00382665 -0.131152 -0.162698 0.0164668 
-0.138855 -0.171847 0.004169 -0.112272 -0.170955 0.00606996 -0.133763 -0.147961 0.00630375 
-0.122394 -0.172576 0.00400896 -0.152566 -0.148497 0.00970763 -0.111314 -0.1624 0.00602703 
-0.142849 -0.168565 0.0048264 -0.123129 -0.17282 0.00745499 -0.148188 -0.162558 0.00602832 
-0.126891 -0.144657 0.0148173 -0.138675 -0.157967 0.00518782 -0.123741 -0.169515 0.00287327 
-0.121121 -0.167682 0.0163382 -0.120264 -0.163556 0.00318422 -0.146787 -0.15512 0.0153705 
-0.151009 -0.158979 0.006744 -0.10857 -0.157186 0.0123043 -0.129975 -0.144994 0.0156265 
-0.142677 -0.17159 0.00422357 -0.137745 -0.147359 0.0204029 -0.0475762 -0.127704 0.0119128 
-0.0577246 -0.125288 0.012628 -0.0676775 -0.124915 0.0137823 -0.0540716 -0.135911 0.0100528 
-0.0404874 -0.135416 0.0113216 -0.0626565 -0.134129 0.0104688 -0.0735867 -0.131396 0.0113336 
-0.0460962 -0.137957 0.0070106 -0.0766007 -0.12391 0.0140755 -0.0513867 -0.118201 0.016034 
-0.0597329 -0.141444 0.00689254 -0.0695578 -0.136551 0.00896042 -0.0563926 -0.118541 0.0200239 
-0.0543508 -0.143489 0.00501075 -0.062527 -0.11958 0.0195957 -0.065634 -0.139834 0.00698251 
-0.046922 -0.140394 0.0127557 -0.0738331 -0.122316 0.0202586 -0.0473433 -0.117202 0.0105249 
-0.0800217 -0.128521 0.0108616 -0.0517417 -0.119454 0.00702158 -0.058478 -0.146254 0.00401082 
-0.0428641 -0.133242 0.00411068 -0.0333002 -0.135207 0.0141036 -0.0372702 -0.129 0.00965153 
-0.0521978 -0.122338 0.0205494 -0.038945 -0.132411 0.0179268 -0.0356076 -0.13742 0.0165377 
-0.0627253 -0.145449 0.00463605 -0.0585733 -0.134116 0.0170643 -0.0658524 -0.144182 0.00523452 
-0.039594 -0.139542 0.00510207 -0.0640251 -0.119831 0.00739494 -0.0495172 -0.142569 0.00379678 
-0.0822391 -0.123051 0.012224 -0.039857 -0.130937 0.00513737 -0.0702049 -0.141505 0.00625508 
-0.0499376 -0.142937 0.00728427 -0.076226 -0.136324 0.00797021 -0.0570399 -0.115642 0.0154124 
-0.067551 -0.130424 0.0064826 -0.0513667 -0.139722 0.00282244 -0.0479814 -0.137626 0.0160765 
-0.0487505 -0.133332 0.00297087 -0.0751567 -0.128825 0.0173075 -0.0794583 -0.133186 0.00896401 
-0.0373901 -0.125429 0.0112766 -0.0599716 -0.116419 0.01645 -0.0696562 -0.144471 0.00558725 
-0.0669318 -0.119894 0.0217669 
VERTICES 100 200
1 0 
1 1 
1 2 
1 3 
1 4 
1 5 
1 6 
1 7 
1 8 
1 9 
1 10 
1 11 
1 12 
1 13 
1 14 
1 15 
1 16 
1 17 
1 18 
1 19 
1 20 
1 21 
1 22 
1 23 
1 24 
1 25 
1 26 
1 27 
1 28 
1 29 
1 30 
1 31 
1 32 
1 33 
1 34 
1 35 
1 36 
1 37 
1 38 
1 39 
1 40 
1 41 
1 42 
1 43 
1 44 
1 45 
1 46 
1 47 
1 48 
1 49 
1 50 
1 51 
1 52 
1 53 
1 54 
1 55 
1 56 
1 57 
1 58 
1 59 
1 60 
1 61 
1 62 
1 63 
1 64 
1 65 
1 66 
1 67 
1 68 
1 69 
1 70 
1 71 
1 72 
1 73 
1 74 
1 75 
1 76 
1 77 
1 78 
1 79 
1 80 
1 81 
1 82 
1 83 
1 84 
1 85 
1 86 
1 87 
1 88 
1 89 
1 90 
1 91 
1 92 
1 93 
1 94 
1 95 
1 96 
1 97 
1 98 
1 99 

POINT_DATA 100
FIELD FieldData 7
id 1 100 int
1 2 3 4 5 6 7 8 9 
10 11 12 13 14 15 16 17 18 
19 20 21 22 23 24 25 26 27 
28 29 30 31 32 33 34 35 36 
37 38 39 40 41 42 43 44 45 
46 47 48 49 50 51 52 53 54 
55 56 57 58 59 60 61 62 63 
64 65 66 67 68 69 70 71 72 
73 74 75 76 77 78 79 80 81 
82 83 84 85 86 87 88 89 90 
91 92 93 94 95 96 97 98 99 
100 
mol 1 100 int
1 1 1 1 1 1 1 1 1 
1 1 1 1 1 1 1 1 1 
1 1 1 1 1 1 1 1 1 
1 1 1 1 1 1 1 1 1 
1 1 1 1 1 1 1 1 1 
1 1 1 1 1 2 2 2 2 
2 2 2 2 2 2 2 2 2 
2 2 2 2 2 2 2 2 2 
2 2 2 2 2 2 2 2 2 
2 2 2 2 2 2 2 2 2 
2 2 2 2 2 2 2 2 2 
2 
type 1 100 int
1 1 1 1 1 1 1 1 1 
1 1 1 1 1 1 1 1 1 
1 1 1 1 1 1 1 1 1 
1 1 1 1 1 1 1 1 1 
1 1 1 1 1 1 1 1 1 
1 1 1 1 1 1 1 1 1 
1 1 1 1 1 1 1 1 1 
1 1 1 1 1 1 1 1 1 
1 1 1 1 1 1 1 1 1 
1 1 1 1 1 1 1 1 1 
1 1 1 1 1 1 1 1 1 
1 
v 3 100 double
-0.12990954715 -0.11908210306 0.17501621444 -0.12816230149 -0.11675493652 0.094906431745 -0.13160983992 -0.11687782258 0.0026243566682 
-0.10739547205 -0.10546696517 0.059897050831 -0.13170283286 -0.12028111203 0.19060216195 -0.10403742573 -0.10250411102 -0.0094904112877 
-0.10309493878 -0.10049444568 -0.094962091574 -0.083287165205 -0.094225308251 0.12359760145 -0.1268999833 -0.11307224488 -0.075088649957 
-0.16673403293 -0.13843506787 0.19993962043 -0.07152788454 -0.085472557107 -0.028484630541 -0.083346302497 -0.090445359144 -0.08985664933 
-0.20367897612 -0.15647066121 0.14759883917 -0.057187515389 -0.078794938279 0.0099256067038 -0.19439684444 -0.15055156406 0.083004691036 
-0.06710674124 -0.082399603349 -0.073460603233 -0.14232030134 -0.12403383834 0.095425872403 -0.19243614377 -0.14730301768 -0.04258100903 
-0.11318477177 -0.1118094417 0.24867796795 -0.092126450919 -0.094128275737 -0.13609438927 -0.074021012197 -0.090732801807 0.19448174202 
-0.044137624608 -0.071079739409 -0.046909273665 -0.054970931019 -0.080831947396 0.18779768945 -0.16629404358 -0.13924410935 0.25791822482 
-0.11560045056 -0.11334495908 0.26521243199 -0.21355386993 -0.16178663364 0.1613554564 -0.200201004 -0.15598998775 0.22071302584 
-0.18996211414 -0.15071239848 0.21957674375 -0.046811115788 -0.07182531866 -0.082043042583 -0.17531578792 -0.13971037586 0.024534011741 
-0.050031494522 -0.073096044071 -0.10348891964 -0.069493879209 -0.088072924661 0.17569509441 -0.067669904678 -0.085351481286 0.075704930906 
-0.048513604632 -0.075281327988 0.062592049905 -0.10291235991 -0.099931063091 -0.12127109155 -0.06747384026 -0.088021963021 0.23094530384 
-0.056214162342 -0.075845006057 -0.12733209497 -0.08413739967 -0.093414345511 0.053710937783 -0.067516307018 -0.081232793335 -0.15060633033 
-0.15495994701 -0.13175095847 0.16416881206 -0.057992357396 -0.078530234862 -0.028053859611 -0.036223911346 -0.069012562184 0.064919945585 
-0.17490591729 -0.1408770299 0.10167976965 -0.038335965968 -0.071301761498 0.13240931098 -0.16259942591 -0.13101672001 -0.096707881848 
-0.074245862393 -0.084506901481 -0.1607616138 -0.13132323808 -0.12180545507 0.28691483629 -0.16337644858 -0.13547244615 0.13055189041 
-0.050547609964 -0.072680960434 -0.14158767505 -0.21312678712 -0.15936152072 0.0377850926 -0.10834385974 -0.15017997549 0.1466953081 
-0.11571920272 -0.16017768235 0.07581679183 -0.1268279065 -0.17486538842 -0.015218423942 -0.088731558974 -0.13158960612 -0.0038292929188 
-0.10096116976 -0.14220983348 0.13125231635 -0.093105757714 -0.1380081475 -0.066602632109 -0.10198112614 -0.14979483992 -0.14153458244 
-0.059214843016 -0.096991871975 0.050280269023 -0.12985393677 -0.18003581767 -0.089602835931 -0.14984579476 -0.19547356159 0.21276273032 
-0.057301963589 -0.09879066509 -0.11755178001 -0.078153998583 -0.12329942939 -0.15862892984 -0.1878751572 -0.23961915543 0.16128680398 
-0.038868834952 -0.077289078948 -0.088196750121 -0.183551784 -0.23638433605 0.091501452487 -0.058523966144 -0.10109000164 -0.15655226747 
-0.1135361771 -0.15912112937 0.016122074537 -0.18926650116 -0.24607819603 -0.045981631565 -0.09745425237 -0.13516365826 0.26215112445 
-0.098120901924 -0.14615537619 -0.17199361749 -0.063487656463 -0.098381980144 0.19586225913 -0.028695688201 -0.067437494039 -0.15743410301 
-0.032580600264 -0.064997153107 0.13199361451 -0.12757811602 -0.17058595409 0.20214155543 -0.086455430978 -0.1234781037 0.23115316255 
-0.19203919624 -0.24434053913 0.1604143127 -0.16472250885 -0.21307888159 0.17837943798 -0.15032691822 -0.19734956843 0.15624858617 
-0.034848658276 -0.075135445187 -0.18931208592 -0.15610038823 -0.20820021312 -0.027470512799 -0.040849716071 -0.082292437469 -0.20552458631 
-0.040630069822 -0.074949640631 0.095300296802 -0.066968600823 -0.10517438877 0.074480060543 -0.027481755632 -0.063111367831 -0.032110370592 
-0.11236482547 -0.16134402291 -0.13419794558 -0.042905484157 -0.07538948801 0.18556595803 -0.051199873853 -0.094276476186 -0.21823157091 
-0.060706993696 -0.10080785749 -0.040095982743 -0.068747818096 -0.11412513992 -0.21987221524 -0.14448485192 -0.19004433627 0.18635685408 
-0.055868855819 -0.096131756959 -0.073410068573 -0.01881734239 -0.053022711652 -0.01907844311 -0.14587625852 -0.19516476046 0.0358494694 
-0.021674291698 -0.054033772578 0.074803324442 -0.15961491644 -0.21455778573 -0.12880790064 -0.078946063599 -0.12556821977 -0.21691371733 
-0.10278082718 -0.14102680284 0.26851352473 -0.15422050937 -0.20189268452 0.14998942579 -0.044153649399 -0.08695239229 -0.2449624474 
-0.2042178499 -0.26078645283 0.046044581602 
f 3 100 double
0 0 0 0 0 0 0 0 0 
0 0 0 0 0 0 0 0 0 
0 0 0 0 0 0 0 0 0 
0 0 0 0 0 0 0 0 0 
0 0 0 0 0 0 0 0 0 
0 0 0 0 0 0 0 0 0 
0 0 0 0 0 0 0 0 0 
0.093807683392 0.99096813069 1.3326962142 0 0 0 0 0 0 
0 0 0 0 0 0 0 0 0 
0 0 0 0 0 0 0 0 0 
0 0 0 0 0 0 0 0 0 
0 0 0 0 0 0 0 0 0 
0 0 0 0 0 0 0 0 0 
0 0 0 0 0 0 0.070468592289 0.64432920135 -0.20603021681 
0 0 0 0 0 0 0 0 0 
0 0 0 0 0 0 0 0 0 
0 0 0 0 0 0 0 0 0 
0 0 0 0 0 0 0 0 0 
0 0 0 0 0 0 0 0 0 
0 0 0 0 0 0 0 0 0 
0 0 0 0 0 0 0 0 0 
0 0 0 0 0 0 0 0 0 
0 0 0 0 0 0 0 0 0 
0 0 0 0 0 0 0 0 0 
0 0 0 0 0 0 0 0 0 
0 0 0 0 0 0 0 0 0 
0 0 0 0 0 0 0 0 0 
0 0 0 0 0 0 0 0 0 
0 0 0 0 0 0 0 0 0 
0 0 0 0 0 0 0 0 0 
0 0 0 -0.14646907201 0.51483316317 1.2450019535 0 0 0 
0 0 0 0 0 0 0 0 0 
0 0 0 0 0 0 0 0 0 
0 0 0 
radius 1 100 double
0.010434 0.00981478 0.00892069 0.00845937 0.00731974 0.00728422 0.00643447 0.00619172 0.00585956 
0.00577566 0.00537241 0.00522549 0.00513666 0.00473175 0.00466912 0.00444866 0.00441894 0.00400812 
0.00385622 0.00379948 0.00370243 0.00366942 0.00364039 0.00363813 0.00363644 0.00358692 0.0035797 
0.00341284 0.00337012 0.00336273 0.00332772 0.00323261 0.00320584 0.00320311 0.00318808 0.00313116 
0.00306026 0.00305632 0.00304383 0.00300958 0.00300137 0.00298994 0.0029567 0.00295111 0.00290849 
0.00284552 0.00282964 0.0028207 0.00281971 0.00281899 0.010434 0.00981478 0.00892069 0.00845937 
0.00731974 0.00728422 0.00643447 0.00619172 0.00585956 0.00577566 0.00537241 0.00522549 0.00513666 
0.00473175 0.00466912 0.00444866 0.00441894 0.00400812 0.00385622 0.00379948 0.00370243 0.00366942 
0.00364039 0.00363813 0.00363644 0.00358692 0.0035797 0.00341284 0.00337012 0.00336273 0.00332772 
0.00323261 0.00320584 0.00320311 0.00318808 0.00313116 0.00306026 0.00305632 0.00304383 0.00300958 
0.00300137 0.00298994 0.0029567 0.00295111 0.00290849 0.00284552 0.00282964 0.0028207 0.00281971 
0.00281899 
omega 3 100 double
5.3013215969 -10.324612999 -0.1843018696 5.3013215969 -10.324612999 -0.1843018696 5.3013215969 -10.324612999 -0.1843018696 
5.3013215969 -10.324612999 -0.1843018696 5.3013215969 -10.324612999 -0.1843018696 5.3013215969 -10.324612999 -0.1843018696 
5.3013215969 -10.324612999 -0.1843018696 5.3013215969 -10.324612999 -0.1843018696 5.3013215969 -10.324612999 -0.1843018696 
5.3013215969 -10.324612999 -0.1843018696 5.3013215969 -10.324612999 -0.1843018696 5.3013215969 -10.324612999 -0.1843018696 
5.3013215969 -10.324612999 -0.1843018696 5.3013215969 -10.324612999 -0.1843018696 5.3013215969 -10.324612999 -0.1843018696 
5.3013215969 -10.324612999 -0.1843018696 5.3013215969 -10.324612999 -0.1843018696 5.3013215969 -10.324612999 -0.1843018696 
5.3013215969 -10.324612999 -0.1843018696 5.3013215969 -10.324612999 -0.1843018696 5.3013215969 -10.324612999 -0.1843018696 
5.3013215969 -10.324612999 -0.1843018696 5.3013215969 -10.324612999 -0.1843018696 5.3013215969 -10.324612999 -0.1843018696 
5.3013215969 -10.324612999 -0.1843018696 5.3013215969 -10.324612999 -0.1843018696 5.3013215969 -10.324612999 -0.1843018696 
5.3013215969 -10.324612999 -0.1843018696 5.3013215969 -10.324612999 -0.1843018696 5.3013215969 -10.324612999 -0.1843018696 
5.3013215969 -10.324612999 -0.1843018696 5.3013215969 -10.324612999 -0.1843018696 5.3013215969 -10.324612999 -0.1843018696 
5.3013215969 -10.324612999 -0.1843018696 5.3013215969 -10.324612999 -0.1843018696 5.3013215969 -10.324612999 -0.1843018696 
5.3013215969 -10.324612999 -0.1843018696 5.3013215969 -10.324612999 -0.1843018696 5.3013215969 -10.324612999 -0.1843018696 
5.3013215969 -10.324612999 -0.1843018696 5.3013215969 -10.324612999 -0.1843018696 5.3013215969 -10.324612999 -0.1843018696 
5.3013215969 -10.324612999 -0.1843018696 5.3013215969 -10.324612999 -0.1843018696 5.3013215969 -10.324612999 -0.1843018696 
5.3013215969 -10.324612999 -0.1843018696 5.3013215969 -10.324612999 -0.1843018696 5.3013215969 -10.324612999 -0.1843018696 
5.3013215969 -10.324612999 -0.1843018696 5.3013215969 -10.324612999 -0.1843018696 10.78191942 -9.5507728124 0.2252512344 
10.78191942 -9.5507728124 0.2252512344 10.78191942 -9.5507728124 0.2252512344 10.78191942 -9.5507728124 0.2252512344 
10.78191942 -9.5507728124 0.2252512344 10.78191942 -9.5507728124 0.2252512344 10.78191942 -9.5507728124 0.2252512344 
10.78191942 -9.5507728124 0.2252512344 10.78191942 -9.5507728124 0.2252512344 10.78191942 -9.5507728124 0.2252512344 
10.78191942 -9.5507728124 0.2252512344 10.78191942 -9.5507728124 0.2252512344 10.78191942 -9.5507728124 0.2252512344 
10.78191942 -9.5507728124 0.2252512344 10.78191942 -9.5507728124 0.2252512344 10.78191942 -9.5507728124 0.2252512344 
10.78191942 -9.5507728124 0.2252512344 10.78191942 -9.5507728124 0.2252512344 10.78191942 -9.5507728124 0.2252512344 
10.78191942 -9.5507728124 0.2252512344 10.78191942 -9.5507728124 0.2252512344 10.78191942 -9.5507728124 0.2252512344 
10.78191942 -9.5507728124 0.2252512344 10.78191942 -9.5507728124 0.2252512344 10.78191942 -9.5507728124 0.2252512344 
10.78191942 -9.5507728124 0.2252512344 10.78191942 -9.5507728124 0.2252512344 10.78191942 -9.5507728124 0.2252512344 
10.78191942 -9.5507728124 0.2252512344 10.78191942 -9.5507728124 0.2252512344 10.78191942 -9.5507728124 0.2252512344 
10.78191942 -9.5507728124 0.2252512344 10.78191942 -9.5507728124 0.2252512344 10.78191942 -9.5507728124 0.2252512344 
10.78191942 -9.5507728124 0.2252512344 10.78191942 -9.5507728124 0.2252512344 10.78191942 -9.5507728124 0.2252512344 
10.78191942 -9.5507728124 0.2252512344 10.78191942 -9.5507728124 0.2252512344 10.78191942 -9.5507728124 0.2252512344 
10.78191942 -9.5507728124 0.2252512344 10.78191942 -9.5507728124 0.2252512344 10.78191942 -9.5507728124 0.2252512344 
10.78191942 -9.5507728124 0.2252512344 10.78191942 -9.5507728124 0.2252512344 10.78191942 -9.5507728124 0.2252512344 
10.78191942 -9.5507728124 0.2252512344 10.78191942 -9.5507728124 0.2252512344 10.78191942 -9.5507728124 0.2252512344 
10.78191942 -9.5507728124 0.2252512344 
