# vtk DataFile Version 4.1
Generated by LIGGGHTS
ASCII
DATASET POLYDATA
POINTS 100 float
-0.118482 -0.157362 0.011593 -0.128212 -0.153537 0.011759 -0.138048 -0.151731 0.0124837 
-0.125994 -0.164696 0.00992551 -0.112522 -0.165996 0.0117184 -0.134255 -0.16173 0.00989169 
-0.14472 -0.157475 0.0101575 -0.118287 -0.167998 0.00732894 -0.146748 -0.149494 0.0123565 
-0.121062 -0.147194 0.0150243 -0.132265 -0.169579 0.0068471 -0.141374 -0.163267 0.00823893 
-0.126195 -0.146602 0.0188192 -0.127162 -0.172454 0.00530234 -0.132397 -0.146812 0.018199 
-0.137884 -0.167172 0.00660712 -0.119632 -0.169947 0.0131613 -0.14399 -0.147925 0.0185499 
-0.116741 -0.147095 0.00963802 -0.150672 -0.153777 0.00926525 -0.121293 -0.148928 0.00608781 
-0.1316 -0.174682 0.00428902 -0.114335 -0.163955 0.0043074 -0.105471 -0.166609 0.0147756 
-0.108389 -0.160195 0.00982927 -0.12259 -0.150901 0.0197243 -0.110793 -0.162838 0.018205 
-0.108143 -0.168333 0.0172319 -0.135711 -0.173264 0.00469495 -0.130429 -0.16188 0.0166375 
-0.138649 -0.171547 0.00509445 -0.11201 -0.170573 0.00577777 -0.133515 -0.147592 0.00597978 
-0.12221 -0.172281 0.0042377 -0.152148 -0.147982 0.0102319 -0.111071 -0.162027 0.00532713 
-0.142617 -0.168241 0.00578716 -0.122792 -0.172377 0.00772012 -0.147909 -0.162187 0.0069664 
-0.12628 -0.143926 0.0140321 -0.138452 -0.157636 0.0055106 -0.123612 -0.169271 0.00303298 
-0.120403 -0.166865 0.0162782 -0.120136 -0.163304 0.002935 -0.146111 -0.154357 0.0159112 
-0.150703 -0.158581 0.00765268 -0.108063 -0.15655 0.0112484 -0.129324 -0.144228 0.0149905 
-0.142465 -0.171288 0.00530702 -0.136871 -0.146387 0.0202026 -0.0471721 -0.127025 0.0114183 
-0.0572933 -0.124574 0.0123635 -0.0671996 -0.124139 0.0138499 -0.0537137 -0.13532 0.0102363 
-0.0400938 -0.134757 0.0109916 -0.0622817 -0.133518 0.0108612 -0.0731795 -0.130743 0.0119664 
-0.0458476 -0.137528 0.00702649 -0.0761086 -0.12312 0.0144063 -0.050852 -0.117313 0.0151544 
-0.0594731 -0.141016 0.00758262 -0.0692276 -0.136018 0.00973247 -0.0557121 -0.117438 0.0193326 
-0.0541573 -0.143159 0.00562323 -0.0618558 -0.118498 0.0191799 -0.0653704 -0.139403 0.00779589 
-0.0464637 -0.139651 0.0129204 -0.0731258 -0.121195 0.0203918 -0.0470092 -0.116613 0.00945881 
-0.0796328 -0.127898 0.0115697 -0.0515251 -0.119051 0.00624099 -0.0583121 -0.145975 0.00492158 
-0.0427299 -0.132975 0.00376319 -0.0328126 -0.134399 0.0135004 -0.0369506 -0.128441 0.00886441 
-0.0514939 -0.1212 0.0199123 -0.0383233 -0.1314 0.017366 -0.0350277 -0.136477 0.0161309 
-0.062536 -0.145137 0.00565343 -0.0579665 -0.13315 0.0172967 -0.0656424 -0.14384 0.0062938 
-0.0394143 -0.139212 0.00497565 -0.0637867 -0.119407 0.00707164 -0.0493718 -0.142306 0.00418993 
-0.081811 -0.122363 0.0127133 -0.0396926 -0.130618 0.00455629 -0.0699609 -0.141112 0.007323 
-0.0496672 -0.142485 0.00770496 -0.0759272 -0.135845 0.00896975 -0.0565288 -0.114792 0.0145975 
-0.0673222 -0.130034 0.00685801 -0.0512603 -0.139515 0.00313003 -0.0474097 -0.136707 0.0161228 
-0.048653 -0.133127 0.00284039 -0.074541 -0.127854 0.0178451 -0.0791282 -0.132659 0.00990748 
-0.0370196 -0.124787 0.0102978 -0.0594201 -0.115511 0.0157794 -0.0694306 -0.144109 0.0067969 
-0.06618 -0.118695 0.0215205 
VERTICES 100 200
1 0 
1 1 
1 2 
1 3 
1 4 
1 5 
1 6 
1 7 
1 8 
1 9 
1 10 
1 11 
1 12 
1 13 
1 14 
1 15 
1 16 
1 17 
1 18 
1 19 
1 20 
1 21 
1 22 
1 23 
1 24 
1 25 
1 26 
1 27 
1 28 
1 29 
1 30 
1 31 
1 32 
1 33 
1 34 
1 35 
1 36 
1 37 
1 38 
1 39 
1 40 
1 41 
1 42 
1 43 
1 44 
1 45 
1 46 
1 47 
1 48 
1 49 
1 50 
1 51 
1 52 
1 53 
1 54 
1 55 
1 56 
1 57 
1 58 
1 59 
1 60 
1 61 
1 62 
1 63 
1 64 
1 65 
1 66 
1 67 
1 68 
1 69 
1 70 
1 71 
1 72 
1 73 
1 74 
1 75 
1 76 
1 77 
1 78 
1 79 
1 80 
1 81 
1 82 
1 83 
1 84 
1 85 
1 86 
1 87 
1 88 
1 89 
1 90 
1 91 
1 92 
1 93 
1 94 
1 95 
1 96 
1 97 
1 98 
1 99 

POINT_DATA 100
FIELD FieldData 7
id 1 100 int
1 2 3 4 5 6 7 8 9 
10 11 12 13 14 15 16 17 18 
19 20 21 22 23 24 25 26 27 
28 29 30 31 32 33 34 35 36 
37 38 39 40 41 42 43 44 45 
46 47 48 49 50 51 52 53 54 
55 56 57 58 59 60 61 62 63 
64 65 66 67 68 69 70 71 72 
73 74 75 76 77 78 79 80 81 
82 83 84 85 86 87 88 89 90 
91 92 93 94 95 96 97 98 99 
100 
mol 1 100 int
1 1 1 1 1 1 1 1 1 
1 1 1 1 1 1 1 1 1 
1 1 1 1 1 1 1 1 1 
1 1 1 1 1 1 1 1 1 
1 1 1 1 1 1 1 1 1 
1 1 1 1 1 2 2 2 2 
2 2 2 2 2 2 2 2 2 
2 2 2 2 2 2 2 2 2 
2 2 2 2 2 2 2 2 2 
2 2 2 2 2 2 2 2 2 
2 2 2 2 2 2 2 2 2 
2 
type 1 100 int
1 1 1 1 1 1 1 1 1 
1 1 1 1 1 1 1 1 1 
1 1 1 1 1 1 1 1 1 
1 1 1 1 1 1 1 1 1 
1 1 1 1 1 1 1 1 1 
1 1 1 1 1 1 1 1 1 
1 1 1 1 1 1 1 1 1 
1 1 1 1 1 1 1 1 1 
1 1 1 1 1 1 1 1 1 
1 1 1 1 1 1 1 1 1 
1 1 1 1 1 1 1 1 1 
1 
v 3 100 double
-0.1248265721 -0.17176874198 0.11531200028 -0.12497224012 -0.17001203065 0.066285321979 -0.13208030332 -0.17652510273 -0.013953051744 
-0.10985475405 -0.14369065639 -0.075638320325 -0.12994271882 -0.17622377128 0.051721800247 -0.10819778552 -0.13959861772 -0.12145194242 
-0.10924413452 -0.13900866327 -0.17208604769 -0.083013967933 -0.10839755721 -0.040849093636 -0.12972271584 -0.17085180466 -0.075403451201 
-0.15777484417 -0.22171123098 0.23851928853 -0.07845381629 -0.095154662635 -0.21659616684 -0.090868118926 -0.11191053998 -0.22185151535 
-0.19884161196 -0.27595555304 0.1914428828 -0.062880956027 -0.074382843538 -0.20380605437 -0.19217934327 -0.26403198626 0.1207815833 
-0.074794594459 -0.089142611943 -0.24194740797 -0.14737187177 -0.19460833431 -0.084503077681 -0.19648419323 -0.26421875081 -0.022010470656 
-0.099077892178 -0.14343192178 0.28706514866 -0.097921360203 -0.12314461545 -0.1818678501 -0.061214700797 -0.088621462053 0.2102030663 
-0.052814331713 -0.05737536921 -0.2852834253 -0.048354527186 -0.065148585536 0.062354190106 -0.16350085945 -0.22478352643 0.11937471625 
-0.10685146513 -0.14990621455 0.18305591248 -0.21056529238 -0.2909914637 0.16673124161 -0.19920681324 -0.27350643517 0.11753859095 
-0.19099739386 -0.2601765935 0.064627083522 -0.056618788911 -0.061630120169 -0.30895879062 -0.18172173788 -0.24165024854 -0.082021316193 
-0.060222927895 -0.066299092512 -0.31538822299 -0.067241002805 -0.088040242854 -0.010813253821 -0.059457599304 -0.081704735414 0.097011760857 
-0.05121258074 -0.060690327111 -0.14731343624 -0.10593060863 -0.13688886927 -0.11171067241 -0.058621364528 -0.081741702219 0.12658581572 
-0.066329984385 -0.074884185821 -0.30939403123 -0.089175949189 -0.11226185902 -0.15507515274 -0.07654173888 -0.090134224156 -0.27694307912 
-0.14555049954 -0.20467921138 0.23034492464 -0.058711595685 -0.072577689279 -0.10622460748 -0.036786310603 -0.042153388634 -0.11777976367 
-0.17997426897 -0.24065819502 -0.047025591165 -0.033127246853 -0.04220520779 0.0088699195618 -0.17054396156 -0.22402857953 -0.14082965161 
-0.082448477157 -0.09913353885 -0.25370295441 -0.12072190362 -0.17116757891 0.24085836521 -0.15611833804 -0.21761984373 0.19270615518 
-0.062425394225 -0.067804746891 -0.35309634926 -0.21381335056 -0.29190613392 0.07838913579 -0.094441615177 -0.17784661399 0.11024511028 
-0.10095715883 -0.18663022436 0.063248010412 -0.11306965121 -0.20372375067 -0.012474290997 -0.089146368137 -0.15638833441 -0.069652858037 
-0.095114404716 -0.17524968251 0.052026761492 -0.093355087975 -0.16117240963 -0.11356105206 -0.10102360962 -0.17195493908 -0.16210348845 
-0.063683702295 -0.11210042271 -0.037707164961 -0.11713531654 -0.20728343284 -0.071061220982 -0.12018327026 -0.23238343916 0.22665208359 
-0.070206716928 -0.11308470354 -0.2036970525 -0.085341565227 -0.14030095216 -0.20910317247 -0.15496348184 -0.29296800443 0.18439319033 
-0.055097376609 -0.086329694964 -0.19197386255 -0.15427337557 -0.28730590837 0.1173051836 -0.071098995389 -0.11309558994 -0.22828746957 
-0.11380806863 -0.20096631774 -0.074957954397 -0.16581305805 -0.29950038033 -0.017138213295 -0.072482546563 -0.14827908285 0.2691783171 
-0.096175628669 -0.16243071074 -0.17265260367 -0.047078829189 -0.097115136611 0.19476496838 -0.05080404643 -0.073444094707 -0.26910616878 
-0.034089023889 -0.064412252347 0.057094313552 -0.11576202348 -0.21719136006 0.11794063624 -0.073996202918 -0.14476994159 0.17373700659 
-0.16183184288 -0.30404195204 0.16248953105 -0.14624154513 -0.27268968785 0.11753964474 -0.13874959259 -0.25579463821 0.068088152506 
-0.056426983044 -0.082216222873 -0.29151280926 -0.14661994112 -0.26092521923 -0.072134379134 -0.061039805463 -0.090213582232 -0.29769378349 
-0.047564464549 -0.084571027679 -0.0097584997278 -0.054174413276 -0.10299816239 0.087498135202 -0.042723974034 -0.067247630594 -0.13929849353 
-0.10265765548 -0.17855131834 -0.10697569772 -0.039392333642 -0.078072388012 0.11800113391 -0.068102298779 -0.10343448405 -0.29228504763 
-0.07202466818 -0.12028528191 -0.1444696216 -0.07891070941 -0.12510286548 -0.26214961856 -0.1141816797 -0.2208591379 0.21764825581 
-0.058196557718 -0.097836324258 -0.10271198386 -0.032396373258 -0.050176349865 -0.11275911139 -0.13880798066 -0.24891749684 -0.038272198399 
-0.026505078269 -0.047215033125 0.005593055344 -0.14828698403 -0.26018366088 -0.12968049466 -0.084963088531 -0.13754899849 -0.24051521645 
-0.083911871884 -0.16642660742 0.22846307543 -0.12439237784 -0.23716825182 0.18274436295 -0.065366226413 -0.095761306451 -0.33323704631 
-0.17382621045 -0.32037116306 0.078403905909 
f 3 100 double
0 0 0 0 0 0 0 0 0 
0 0 0 0 0 0 0 0 0 
0 0 0 0 0 0 0 0 0 
0 0 0 0 0 0 0 0 0 
0 0 0 0 0 0 0 0 0 
0 0 0 0 0 0 0 0 0 
0 0 0 0 0 0 0 0 0 
0 0 0 0 0 0 0 0 0 
0 0 0 0 0 0 0 0 0 
0 0 0 0 0 0 0 0 0 
0 0 0 0 0 0 0 0 0 
0 0 0 0 0 0 0 0 0 
0 0 0 0 0 0 0 0 0 
0 0 0 0 0 0 0 0 0 
0 0 0 -0.0090946901159 -0.016647016722 -0.036042388849 0 0 0 
0 0 0 0 0 0 0 0 0 
0 0 0 0 0 0 0 0 0 
0 0 0 0 0 0 0 0 0 
0 0 0 0 0 0 0 0 0 
0 0 0 0 0 0 0 0 0 
0 0 0 0 0 0 0 0 0 
0 0 0 0 0 0 0 0 0 
0 0 0 0 0 0 0 0 0 
0 0 0 0 0 0 0 0 0 
0 0 0 0 0 0 0 0 0 
0 0 0 0 0 0 0 0 0 
0 0 0 0 0 0 0 0 0 
0 0 0 0 0 0 0 0 0 
0 0 0 0 0 0 0 0 0 
0 0 0 0 0 0 0 0 0 
0 0 0 0 0 0 0 0 0 
-0.13487698771 0.11648883315 0.46283018412 0 0 0 0 0 0 
0 0 0 0 0 0 0 0 0 
0 0 0 
radius 1 100 double
0.010434 0.00981478 0.00892069 0.00845937 0.00731974 0.00728422 0.00643447 0.00619172 0.00585956 
0.00577566 0.00537241 0.00522549 0.00513666 0.00473175 0.00466912 0.00444866 0.00441894 0.00400812 
0.00385622 0.00379948 0.00370243 0.00366942 0.00364039 0.00363813 0.00363644 0.00358692 0.0035797 
0.00341284 0.00337012 0.00336273 0.00332772 0.00323261 0.00320584 0.00320311 0.00318808 0.00313116 
0.00306026 0.00305632 0.00304383 0.00300958 0.00300137 0.00298994 0.0029567 0.00295111 0.00290849 
0.00284552 0.00282964 0.0028207 0.00281971 0.00281899 0.010434 0.00981478 0.00892069 0.00845937 
0.00731974 0.00728422 0.00643447 0.00619172 0.00585956 0.00577566 0.00537241 0.00522549 0.00513666 
0.00473175 0.00466912 0.00444866 0.00441894 0.00400812 0.00385622 0.00379948 0.00370243 0.00366942 
0.00364039 0.00363813 0.00363644 0.00358692 0.0035797 0.00341284 0.00337012 0.00336273 0.00332772 
0.00323261 0.00320584 0.00320311 0.00318808 0.00313116 0.00306026 0.00305632 0.00304383 0.00300958 
0.00300137 0.00298994 0.0029567 0.00295111 0.00290849 0.00284552 0.00282964 0.0028207 0.00281971 
0.00281899 
omega 3 100 double
14.881631448 -10.889440683 -0.43440392729 14.881631448 -10.889440683 -0.43440392729 14.881631448 -10.889440683 -0.43440392729 
14.881631448 -10.889440683 -0.43440392729 14.881631448 -10.889440683 -0.43440392729 14.881631448 -10.889440683 -0.43440392729 
14.881631448 -10.889440683 -0.43440392729 14.881631448 -10.889440683 -0.43440392729 14.881631448 -10.889440683 -0.43440392729 
14.881631448 -10.889440683 -0.43440392729 14.881631448 -10.889440683 -0.43440392729 14.881631448 -10.889440683 -0.43440392729 
14.881631448 -10.889440683 -0.43440392729 14.881631448 -10.889440683 -0.43440392729 14.881631448 -10.889440683 -0.43440392729 
14.881631448 -10.889440683 -0.43440392729 14.881631448 -10.889440683 -0.43440392729 14.881631448 -10.889440683 -0.43440392729 
14.881631448 -10.889440683 -0.43440392729 14.881631448 -10.889440683 -0.43440392729 14.881631448 -10.889440683 -0.43440392729 
14.881631448 -10.889440683 -0.43440392729 14.881631448 -10.889440683 -0.43440392729 14.881631448 -10.889440683 -0.43440392729 
14.881631448 -10.889440683 -0.43440392729 14.881631448 -10.889440683 -0.43440392729 14.881631448 -10.889440683 -0.43440392729 
14.881631448 -10.889440683 -0.43440392729 14.881631448 -10.889440683 -0.43440392729 14.881631448 -10.889440683 -0.43440392729 
14.881631448 -10.889440683 -0.43440392729 14.881631448 -10.889440683 -0.43440392729 14.881631448 -10.889440683 -0.43440392729 
14.881631448 -10.889440683 -0.43440392729 14.881631448 -10.889440683 -0.43440392729 14.881631448 -10.889440683 -0.43440392729 
14.881631448 -10.889440683 -0.43440392729 14.881631448 -10.889440683 -0.43440392729 14.881631448 -10.889440683 -0.43440392729 
14.881631448 -10.889440683 -0.43440392729 14.881631448 -10.889440683 -0.43440392729 14.881631448 -10.889440683 -0.43440392729 
14.881631448 -10.889440683 -0.43440392729 14.881631448 -10.889440683 -0.43440392729 14.881631448 -10.889440683 -0.43440392729 
14.881631448 -10.889440683 -0.43440392729 14.881631448 -10.889440683 -0.43440392729 14.881631448 -10.889440683 -0.43440392729 
14.881631448 -10.889440683 -0.43440392729 14.881631448 -10.889440683 -0.43440392729 15.134645722 -8.3079624694 -0.5454919495 
15.134645722 -8.3079624694 -0.5454919495 15.134645722 -8.3079624694 -0.5454919495 15.134645722 -8.3079624694 -0.5454919495 
15.134645722 -8.3079624694 -0.5454919495 15.134645722 -8.3079624694 -0.5454919495 15.134645722 -8.3079624694 -0.5454919495 
15.134645722 -8.3079624694 -0.5454919495 15.134645722 -8.3079624694 -0.5454919495 15.134645722 -8.3079624694 -0.5454919495 
15.134645722 -8.3079624694 -0.5454919495 15.134645722 -8.3079624694 -0.5454919495 15.134645722 -8.3079624694 -0.5454919495 
15.134645722 -8.3079624694 -0.5454919495 15.134645722 -8.3079624694 -0.5454919495 15.134645722 -8.3079624694 -0.5454919495 
15.134645722 -8.3079624694 -0.5454919495 15.134645722 -8.3079624694 -0.5454919495 15.134645722 -8.3079624694 -0.5454919495 
15.134645722 -8.3079624694 -0.5454919495 15.134645722 -8.3079624694 -0.5454919495 15.134645722 -8.3079624694 -0.5454919495 
15.134645722 -8.3079624694 -0.5454919495 15.134645722 -8.3079624694 -0.5454919495 15.134645722 -8.3079624694 -0.5454919495 
15.134645722 -8.3079624694 -0.5454919495 15.134645722 -8.3079624694 -0.5454919495 15.134645722 -8.3079624694 -0.5454919495 
15.134645722 -8.3079624694 -0.5454919495 15.134645722 -8.3079624694 -0.5454919495 15.134645722 -8.3079624694 -0.5454919495 
15.134645722 -8.3079624694 -0.5454919495 15.134645722 -8.3079624694 -0.5454919495 15.134645722 -8.3079624694 -0.5454919495 
15.134645722 -8.3079624694 -0.5454919495 15.134645722 -8.3079624694 -0.5454919495 15.134645722 -8.3079624694 -0.5454919495 
15.134645722 -8.3079624694 -0.5454919495 15.134645722 -8.3079624694 -0.5454919495 15.134645722 -8.3079624694 -0.5454919495 
15.134645722 -8.3079624694 -0.5454919495 15.134645722 -8.3079624694 -0.5454919495 15.134645722 -8.3079624694 -0.5454919495 
15.134645722 -8.3079624694 -0.5454919495 15.134645722 -8.3079624694 -0.5454919495 15.134645722 -8.3079624694 -0.5454919495 
15.134645722 -8.3079624694 -0.5454919495 15.134645722 -8.3079624694 -0.5454919495 15.134645722 -8.3079624694 -0.5454919495 
15.134645722 -8.3079624694 -0.5454919495 
