# vtk DataFile Version 4.1
Generated by LIGGGHTS
ASCII
DATASET POLYDATA
POINTS 100 float
-0.116916 -0.152376 0.0117349 -0.126698 -0.148684 0.0116596 -0.136415 -0.146577 0.0129574 
-0.124237 -0.159593 0.0144444 -0.110601 -0.160228 0.0146575 -0.132553 -0.156787 0.0143439 
-0.143069 -0.152651 0.0142811 -0.116814 -0.163817 0.0124166 -0.145145 -0.144463 0.0131467 
-0.119471 -0.141676 0.0108521 -0.130637 -0.165217 0.0146724 -0.139752 -0.158763 0.0145462 
-0.124055 -0.139433 0.0147313 -0.125666 -0.168561 0.0137782 -0.130267 -0.139784 0.0151601 
-0.136341 -0.163048 0.0142443 -0.117253 -0.163064 0.0186509 -0.141637 -0.140445 0.017617 
-0.11594 -0.143959 0.00537339 -0.149252 -0.149589 0.0127698 -0.120847 -0.147057 0.00363611 
-0.130092 -0.170934 0.014459 -0.113507 -0.161518 0.00742852 -0.103176 -0.159595 0.0166342 
-0.10704 -0.155861 0.00990842 -0.120164 -0.142992 0.0168474 -0.108145 -0.154631 0.0188632 
-0.105402 -0.160059 0.0199469 -0.134171 -0.169409 0.0148117 -0.127833 -0.154105 0.0198848 
-0.137103 -0.167637 0.0148621 -0.110697 -0.166912 0.0112201 -0.133016 -0.145689 0.00473262 
-0.120921 -0.168943 0.0120398 -0.15085 -0.143913 0.0113838 -0.110228 -0.159395 0.00705014 
-0.141087 -0.164285 0.0146478 -0.121014 -0.167532 0.0152765 -0.146443 -0.158221 0.0138917 
-0.124922 -0.139057 0.00932813 -0.137498 -0.154887 0.0092935 -0.122613 -0.166713 0.00988591 
-0.117731 -0.158933 0.0202373 -0.119466 -0.161419 0.00676146 -0.143799 -0.147351 0.0182982 
-0.149281 -0.154621 0.0133751 -0.106692 -0.151964 0.00958037 -0.127788 -0.13887 0.0107516 
-0.140861 -0.167248 0.0154921 -0.134439 -0.138468 0.0174146 -0.0465398 -0.122286 0.0113429 
-0.0566436 -0.119654 0.0119064 -0.0664382 -0.118624 0.0137878 -0.0528992 -0.130305 0.0142175 
-0.0392816 -0.129493 0.0136792 -0.0614561 -0.128397 0.0146498 -0.0723335 -0.125402 0.0152788 
-0.0452016 -0.133664 0.0116653 -0.0753168 -0.117455 0.0145102 -0.0502474 -0.111899 0.0109286 
-0.0586522 -0.136582 0.0146151 -0.0683852 -0.131132 0.015177 -0.0548144 -0.110254 0.0151155 
-0.0534173 -0.139355 0.0133529 -0.0609209 -0.111273 0.0158658 -0.0645671 -0.135022 0.0145606 
-0.0453634 -0.133119 0.0179343 -0.072002 -0.1132 0.0189077 -0.0468125 -0.113657 0.00520066 
-0.0788796 -0.122978 0.0141965 -0.0514581 -0.117214 0.00363445 -0.057525 -0.142201 0.0141967 
-0.0424418 -0.130904 0.00658018 -0.0318638 -0.128124 0.0152733 -0.0364728 -0.124655 0.00888277 
-0.0504584 -0.113432 0.0169091 -0.0371919 -0.123774 0.0179176 -0.0338379 -0.128904 0.0186847 
-0.061714 -0.141128 0.0148145 -0.0567368 -0.125369 0.0200096 -0.0648077 -0.139679 0.0150767 
-0.0388716 -0.136061 0.0100475 -0.063622 -0.117175 0.00542383 -0.0487643 -0.139187 0.0113515 
-0.0811386 -0.117471 0.0130737 -0.0394291 -0.128435 0.00609202 -0.0691268 -0.136766 0.0151799 
-0.0488208 -0.137876 0.0146304 -0.0751228 -0.131287 0.0148995 -0.05602 -0.109837 0.00978074 
-0.0668507 -0.126908 0.00993295 -0.0507999 -0.137097 0.00936126 -0.0461811 -0.129103 0.0196707 
-0.048406 -0.131422 0.0062371 -0.0733868 -0.120312 0.0194907 -0.0783467 -0.127998 0.014647 
-0.0365538 -0.120737 0.00865676 -0.0588044 -0.109991 0.011361 -0.0685448 -0.139708 0.0159191 
-0.0650729 -0.110465 0.0183804 
VERTICES 100 200
1 0 
1 1 
1 2 
1 3 
1 4 
1 5 
1 6 
1 7 
1 8 
1 9 
1 10 
1 11 
1 12 
1 13 
1 14 
1 15 
1 16 
1 17 
1 18 
1 19 
1 20 
1 21 
1 22 
1 23 
1 24 
1 25 
1 26 
1 27 
1 28 
1 29 
1 30 
1 31 
1 32 
1 33 
1 34 
1 35 
1 36 
1 37 
1 38 
1 39 
1 40 
1 41 
1 42 
1 43 
1 44 
1 45 
1 46 
1 47 
1 48 
1 49 
1 50 
1 51 
1 52 
1 53 
1 54 
1 55 
1 56 
1 57 
1 58 
1 59 
1 60 
1 61 
1 62 
1 63 
1 64 
1 65 
1 66 
1 67 
1 68 
1 69 
1 70 
1 71 
1 72 
1 73 
1 74 
1 75 
1 76 
1 77 
1 78 
1 79 
1 80 
1 81 
1 82 
1 83 
1 84 
1 85 
1 86 
1 87 
1 88 
1 89 
1 90 
1 91 
1 92 
1 93 
1 94 
1 95 
1 96 
1 97 
1 98 
1 99 

POINT_DATA 100
FIELD FieldData 7
id 1 100 int
1 2 3 4 5 6 7 8 9 
10 11 12 13 14 15 16 17 18 
19 20 21 22 23 24 25 26 27 
28 29 30 31 32 33 34 35 36 
37 38 39 40 41 42 43 44 45 
46 47 48 49 50 51 52 53 54 
55 56 57 58 59 60 61 62 63 
64 65 66 67 68 69 70 71 72 
73 74 75 76 77 78 79 80 81 
82 83 84 85 86 87 88 89 90 
91 92 93 94 95 96 97 98 99 
100 
mol 1 100 int
1 1 1 1 1 1 1 1 1 
1 1 1 1 1 1 1 1 1 
1 1 1 1 1 1 1 1 1 
1 1 1 1 1 1 1 1 1 
1 1 1 1 1 1 1 1 1 
1 1 1 1 1 2 2 2 2 
2 2 2 2 2 2 2 2 2 
2 2 2 2 2 2 2 2 2 
2 2 2 2 2 2 2 2 2 
2 2 2 2 2 2 2 2 2 
2 2 2 2 2 2 2 2 2 
2 
type 1 100 int
1 1 1 1 1 1 1 1 1 
1 1 1 1 1 1 1 1 1 
1 1 1 1 1 1 1 1 1 
1 1 1 1 1 1 1 1 1 
1 1 1 1 1 1 1 1 1 
1 1 1 1 1 1 1 1 1 
1 1 1 1 1 1 1 1 1 
1 1 1 1 1 1 1 1 1 
1 1 1 1 1 1 1 1 1 
1 1 1 1 1 1 1 1 1 
1 1 1 1 1 1 1 1 1 
1 
v 3 100 double
-0.020687732821 -0.19021436593 -0.078357045808 -0.015685457771 -0.17600879702 -0.031609342711 -0.014376849939 -0.18346824462 -0.0097001809061 
-0.033418068746 -0.22304752586 -0.20020023266 -0.034509231968 -0.24454907485 -0.19445777215 -0.029566871413 -0.21039754015 -0.16569364056 
-0.023989054648 -0.19541346583 -0.11282596651 -0.036702725843 -0.20106323835 -0.2580174287 -0.01178074774 -0.17482139242 0.013457329102 
-0.0054252150297 -0.17293911743 0.086854126223 -0.041167772917 -0.21811017752 -0.29596208479 -0.032431322401 -0.20399418342 -0.20505481142 
-0.0069124897703 -0.22779742027 0.11681257502 -0.044588678478 -0.21067554688 -0.34278545046 -0.0078737026926 -0.22626650368 0.10413943563 
-0.037787532608 -0.20378957222 -0.26846215985 -0.042889305636 -0.29844842101 -0.24669949887 -0.011586323571 -0.249740709 0.080644182478 
-0.0021477304329 -0.091543797618 0.055043979276 -0.018170640466 -0.16343190142 -0.071840483025 -0.0042685955786 -0.057711326075 0.00070300743897 
-0.048531645156 -0.21548148308 -0.38516953642 -0.027892178407 -0.1270780567 -0.21809138307 -0.035945528411 -0.28549646903 -0.17594651465 
-0.023219911841 -0.17465797828 -0.12172367756 -0.014090784436 -0.2662319245 0.065362926978 -0.03190858569 -0.31390876354 -0.10368093342 
-0.040382685031 -0.33459093145 -0.1858038297 -0.046909582055 -0.21559591807 -0.36592194438 -0.032385959064 -0.30375520123 -0.11811088134 
-0.04460773017 -0.21248457444 -0.34144345925 -0.039443782531 -0.19040288865 -0.29960914036 -0.0037123476386 -0.058743007822 0.0081631162028 
-0.043092638722 -0.18967377459 -0.34331545514 -0.0090166582913 -0.13952382777 0.015514306481 -0.024629067692 -0.12549798992 -0.18093890458 
-0.039899616614 -0.20381383099 -0.2933743242 -0.044946526409 -0.24041373894 -0.32125199223 -0.030954413704 -0.18480181528 -0.20424343564 
-0.00018222501009 -0.14173463263 0.1217197915 -0.021214513294 -0.12444960194 -0.14153811587 -0.037640785214 -0.15357355253 -0.3102246169 
-0.039219056698 -0.32274250711 -0.18232974514 -0.026990722977 -0.10866365211 -0.22339940344 -0.021565240728 -0.25756718396 -0.03037811681 
-0.025566511363 -0.17290529321 -0.1509434075 -0.017654988059 -0.16996605727 -0.060093614444 -0.0015739131703 -0.16028930502 0.12136210234 
-0.044816629108 -0.21738106345 -0.33966839957 -0.0087218169798 -0.25614328673 0.12000533501 0.019725273671 -0.17131299124 -0.083971306166 
0.023942342656 -0.16818180963 -0.022979161745 0.029317927649 -0.18458383486 0.01398071195 0.017179663445 -0.20602475308 -0.18643418406 
0.016883238166 -0.21346234022 -0.20515685759 0.020289642524 -0.20272024462 -0.13946331054 0.025060133496 -0.19967512375 -0.071460921147 
0.0076862931542 -0.17750604842 -0.25260102403 0.032249845476 -0.18514099121 0.050917118803 0.030446678021 -0.16112339713 0.075552083037 
0.011031624303 -0.20535927163 -0.26489311229 0.018404880589 -0.20262262354 -0.16372871127 0.041684743972 -0.21694827371 0.10974774664 
0.0050889288364 -0.19285775538 -0.31701426723 0.042224699258 -0.22102197068 0.10860770066 0.012659337889 -0.19793237738 -0.22891421824 
0.022362041594 -0.26858280889 -0.24429668089 0.046887704078 -0.25287241919 0.1054218297 0.015625327342 -0.081594535991 0.042261586334 
0.025351154381 -0.17657762651 -0.021487599413 0.0081214999677 -0.0535845181 0.00089784950492 0.0037901803922 -0.20053330388 -0.34922113912 
-0.00062532659275 -0.10657840988 -0.21861048867 0.021995018673 -0.2449879365 -0.20186874347 0.011549781773 -0.14679221934 -0.14103068688 
0.042144463462 -0.24794434346 0.053719983915 0.032806109513 -0.27750459808 -0.1265965411 0.028772739565 -0.29243382868 -0.20880144544 
0.0063794392082 -0.20482846107 -0.32420803128 0.035710782032 -0.28603540595 -0.10596152218 0.0085933196528 -0.2051748955 -0.29616893616 
0.0013683080726 -0.16105595837 -0.30169533775 0.012179323946 -0.065988715161 0.028751578128 0.00078758267596 -0.16894268068 -0.32500598774 
0.029009236412 -0.1576996873 0.06374443784 0.0010487356124 -0.10285157403 -0.18943042236 0.012092312822 -0.20183244561 -0.24407350953 
0.0096146312422 -0.21661017195 -0.30578550025 0.017607969059 -0.19102514993 -0.15087545406 0.030184111297 -0.13793859748 0.11851549373 
0.011378373567 -0.12800610068 -0.10568184441 -0.0013324425725 -0.1376874769 -0.29000757276 0.030762078425 -0.29294221681 -0.18400039326 
-0.0019756679353 -0.094894469057 -0.21276676503 0.040218714106 -0.2598058919 0.0050035665123 0.020731583857 -0.18373397728 -0.095754040151 
0.01543756323 -0.14341125235 -0.083812486285 0.033556802466 -0.15781913502 0.12252435042 0.010450898906 -0.21324599394 -0.28820376227 
0.048772364668 -0.25296934901 0.12968729776 
f 3 100 double
0 0 0 0 0 0 0 0 0 
0 0 0 0 0 0 0 0 0 
0 0 0 0 0 0 0 0 0 
0 0 0 0 0 0 0 0 0 
0 0 0 0 0 0 0 0 0 
0 0 0 0 0 0 0 0 0 
0 0 0 0 0 0 -0.071189426905 -0.058538431577 0.26684666093 
0 0 0 0 0 0 0 0 0 
0 0 0 0 0 0 0 0 0 
0 0 0 0 0 0 0 0 0 
0 0 0 0 0 0 0 0 0 
0 0 0 0 0 0 0 0 0 
0 0 0 0 0 0 0 0 0 
0 0 0 0 0 0 0 0 0 
0 0 0 0 0 0 0 0 0 
0 0 0 0 0 0 0 0 0 
0 0 0 0 0 0 0 0 0 
0 0 0 0 0 0 0 0 0 
0 0 0 0 0 0 0 0 0 
0 0 0 0 0 0 0 0 0 
0 0 0 0 0 0 0 0 0 
0 0 0 0 0 0 0 0 0 
0 0 0 0 0 0 0 0 0 
0 0 0 -0.059666023708 -0.073248639889 0.27499332277 0 0 0 
0 0 0 0 0 0 0 0 0 
0 0 0 0 0 0 0 0 0 
0 0 0 0 0 0 0 0 0 
0 0 0 0 0 0 0 0 0 
0 0 0 0 0 0 0 0 0 
0 0 0 0 0 0 0 0 0 
0 0 0 0 0 0 0 0 0 
0 0 0 0 0 0 0 0 0 
0 0 0 0 0 0 0 0 0 
0 0 0 
radius 1 100 double
0.010434 0.00981478 0.00892069 0.00845937 0.00731974 0.00728422 0.00643447 0.00619172 0.00585956 
0.00577566 0.00537241 0.00522549 0.00513666 0.00473175 0.00466912 0.00444866 0.00441894 0.00400812 
0.00385622 0.00379948 0.00370243 0.00366942 0.00364039 0.00363813 0.00363644 0.00358692 0.0035797 
0.00341284 0.00337012 0.00336273 0.00332772 0.00323261 0.00320584 0.00320311 0.00318808 0.00313116 
0.00306026 0.00305632 0.00304383 0.00300958 0.00300137 0.00298994 0.0029567 0.00295111 0.00290849 
0.00284552 0.00282964 0.0028207 0.00281971 0.00281899 0.010434 0.00981478 0.00892069 0.00845937 
0.00731974 0.00728422 0.00643447 0.00619172 0.00585956 0.00577566 0.00537241 0.00522549 0.00513666 
0.00473175 0.00466912 0.00444866 0.00441894 0.00400812 0.00385622 0.00379948 0.00370243 0.00366942 
0.00364039 0.00363813 0.00363644 0.00358692 0.0035797 0.00341284 0.00337012 0.00336273 0.00332772 
0.00323261 0.00320584 0.00320311 0.00318808 0.00313116 0.00306026 0.00305632 0.00304383 0.00300958 
0.00300137 0.00298994 0.0029567 0.00295111 0.00290849 0.00284552 0.00282964 0.0028207 0.00281971 
0.00281899 
omega 3 100 double
15.714699366 -1.1530146582 -1.3311888125 15.714699366 -1.1530146582 -1.3311888125 15.714699366 -1.1530146582 -1.3311888125 
15.714699366 -1.1530146582 -1.3311888125 15.714699366 -1.1530146582 -1.3311888125 15.714699366 -1.1530146582 -1.3311888125 
15.714699366 -1.1530146582 -1.3311888125 15.714699366 -1.1530146582 -1.3311888125 15.714699366 -1.1530146582 -1.3311888125 
15.714699366 -1.1530146582 -1.3311888125 15.714699366 -1.1530146582 -1.3311888125 15.714699366 -1.1530146582 -1.3311888125 
15.714699366 -1.1530146582 -1.3311888125 15.714699366 -1.1530146582 -1.3311888125 15.714699366 -1.1530146582 -1.3311888125 
15.714699366 -1.1530146582 -1.3311888125 15.714699366 -1.1530146582 -1.3311888125 15.714699366 -1.1530146582 -1.3311888125 
15.714699366 -1.1530146582 -1.3311888125 15.714699366 -1.1530146582 -1.3311888125 15.714699366 -1.1530146582 -1.3311888125 
15.714699366 -1.1530146582 -1.3311888125 15.714699366 -1.1530146582 -1.3311888125 15.714699366 -1.1530146582 -1.3311888125 
15.714699366 -1.1530146582 -1.3311888125 15.714699366 -1.1530146582 -1.3311888125 15.714699366 -1.1530146582 -1.3311888125 
15.714699366 -1.1530146582 -1.3311888125 15.714699366 -1.1530146582 -1.3311888125 15.714699366 -1.1530146582 -1.3311888125 
15.714699366 -1.1530146582 -1.3311888125 15.714699366 -1.1530146582 -1.3311888125 15.714699366 -1.1530146582 -1.3311888125 
15.714699366 -1.1530146582 -1.3311888125 15.714699366 -1.1530146582 -1.3311888125 15.714699366 -1.1530146582 -1.3311888125 
15.714699366 -1.1530146582 -1.3311888125 15.714699366 -1.1530146582 -1.3311888125 15.714699366 -1.1530146582 -1.3311888125 
15.714699366 -1.1530146582 -1.3311888125 15.714699366 -1.1530146582 -1.3311888125 15.714699366 -1.1530146582 -1.3311888125 
15.714699366 -1.1530146582 -1.3311888125 15.714699366 -1.1530146582 -1.3311888125 15.714699366 -1.1530146582 -1.3311888125 
15.714699366 -1.1530146582 -1.3311888125 15.714699366 -1.1530146582 -1.3311888125 15.714699366 -1.1530146582 -1.3311888125 
15.714699366 -1.1530146582 -1.3311888125 15.714699366 -1.1530146582 -1.3311888125 14.556919456 2.2433725861 -1.1216516686 
14.556919456 2.2433725861 -1.1216516686 14.556919456 2.2433725861 -1.1216516686 14.556919456 2.2433725861 -1.1216516686 
14.556919456 2.2433725861 -1.1216516686 14.556919456 2.2433725861 -1.1216516686 14.556919456 2.2433725861 -1.1216516686 
14.556919456 2.2433725861 -1.1216516686 14.556919456 2.2433725861 -1.1216516686 14.556919456 2.2433725861 -1.1216516686 
14.556919456 2.2433725861 -1.1216516686 14.556919456 2.2433725861 -1.1216516686 14.556919456 2.2433725861 -1.1216516686 
14.556919456 2.2433725861 -1.1216516686 14.556919456 2.2433725861 -1.1216516686 14.556919456 2.2433725861 -1.1216516686 
14.556919456 2.2433725861 -1.1216516686 14.556919456 2.2433725861 -1.1216516686 14.556919456 2.2433725861 -1.1216516686 
14.556919456 2.2433725861 -1.1216516686 14.556919456 2.2433725861 -1.1216516686 14.556919456 2.2433725861 -1.1216516686 
14.556919456 2.2433725861 -1.1216516686 14.556919456 2.2433725861 -1.1216516686 14.556919456 2.2433725861 -1.1216516686 
14.556919456 2.2433725861 -1.1216516686 14.556919456 2.2433725861 -1.1216516686 14.556919456 2.2433725861 -1.1216516686 
14.556919456 2.2433725861 -1.1216516686 14.556919456 2.2433725861 -1.1216516686 14.556919456 2.2433725861 -1.1216516686 
14.556919456 2.2433725861 -1.1216516686 14.556919456 2.2433725861 -1.1216516686 14.556919456 2.2433725861 -1.1216516686 
14.556919456 2.2433725861 -1.1216516686 14.556919456 2.2433725861 -1.1216516686 14.556919456 2.2433725861 -1.1216516686 
14.556919456 2.2433725861 -1.1216516686 14.556919456 2.2433725861 -1.1216516686 14.556919456 2.2433725861 -1.1216516686 
14.556919456 2.2433725861 -1.1216516686 14.556919456 2.2433725861 -1.1216516686 14.556919456 2.2433725861 -1.1216516686 
14.556919456 2.2433725861 -1.1216516686 14.556919456 2.2433725861 -1.1216516686 14.556919456 2.2433725861 -1.1216516686 
14.556919456 2.2433725861 -1.1216516686 14.556919456 2.2433725861 -1.1216516686 14.556919456 2.2433725861 -1.1216516686 
14.556919456 2.2433725861 -1.1216516686 
