# vtk DataFile Version 4.1
Generated by LIGGGHTS
ASCII
DATASET POLYDATA
POINTS 100 float
-0.120059 -0.138108 0.0185445 -0.128994 -0.137731 0.0131247 -0.138419 -0.137229 0.0097413 
-0.128492 -0.141685 0.0239383 -0.115651 -0.13941 0.0279753 -0.136108 -0.141593 0.0195746 
-0.145702 -0.141073 0.0136268 -0.121229 -0.144448 0.0280203 -0.146578 -0.137404 0.00598364 
-0.121231 -0.132818 0.00892902 -0.135169 -0.146064 0.0269217 -0.143196 -0.143942 0.0194515 
-0.126527 -0.129291 0.00815714 -0.13049 -0.147864 0.0303218 -0.132592 -0.130304 0.00711771 
-0.140263 -0.146133 0.0235359 -0.12342 -0.13923 0.0307764 -0.14419 -0.13087 0.00615884 
-0.116466 -0.137806 0.00858091 -0.150849 -0.141534 0.00881078 -0.120906 -0.141918 0.00884374 
-0.135121 -0.149572 0.0314726 -0.116397 -0.146337 0.0242555 -0.109117 -0.136136 0.0304306 
-0.110455 -0.139821 0.0227661 -0.123785 -0.129078 0.0131295 -0.114039 -0.132323 0.0264883 
-0.112256 -0.134247 0.0320809 -0.13896 -0.149126 0.0294387 -0.133009 -0.13481 0.0217079 
-0.141597 -0.148555 0.0273266 -0.115348 -0.146124 0.0313423 -0.132673 -0.142466 0.00532063 
-0.1255 -0.148578 0.0308475 -0.151429 -0.139486 0.00314001 -0.112969 -0.144753 0.0231829 
-0.14501 -0.147432 0.0235524 -0.126414 -0.14523 0.0315033 -0.149314 -0.145346 0.0169819 
-0.125719 -0.133422 0.00464101 -0.139139 -0.145278 0.0140245 -0.126265 -0.149219 0.0274592 
-0.123959 -0.135596 0.0282618 -0.121855 -0.147884 0.022314 -0.147091 -0.134894 0.0114721 
-0.151524 -0.144099 0.0131297 -0.109664 -0.137666 0.0195815 -0.128847 -0.132726 0.00456528 
-0.145321 -0.148518 0.026427 -0.137102 -0.128521 0.00628195 -0.0512816 -0.110164 0.0184075 
-0.0602756 -0.109819 0.0130852 -0.0697461 -0.109522 0.00980589 -0.0594851 -0.114519 0.0235784 
-0.0467258 -0.111935 0.0276908 -0.0671384 -0.114473 0.0192804 -0.0768027 -0.11398 0.0134459 
-0.052061 -0.117222 0.027403 -0.0779236 -0.109812 0.00609613 -0.0527929 -0.104252 0.00921077 
-0.0659193 -0.119415 0.026276 -0.0741091 -0.117141 0.0190303 -0.0582565 -0.100933 0.008731 
-0.0611287 -0.121233 0.0295067 -0.0642771 -0.102156 0.00765812 -0.0710374 -0.119481 0.0229258 
-0.0544678 -0.112328 0.0305457 -0.0758445 -0.103201 0.00673248 -0.0478031 -0.108969 0.00847041 
-0.0819687 -0.114335 0.00864108 -0.0520421 -0.113296 0.00846026 -0.0656625 -0.123238 0.0305586 
-0.0471818 -0.118601 0.0234806 -0.0403298 -0.10854 0.0303377 -0.0415668 -0.111719 0.0224334 
-0.0554797 -0.100952 0.0136885 -0.045463 -0.10469 0.0267145 -0.0435381 -0.106928 0.0321408 
-0.0695383 -0.122828 0.0285865 -0.0643412 -0.107723 0.0218833 -0.0722196 -0.122232 0.0265381 
-0.046076 -0.118853 0.0305574 -0.0638033 -0.114146 0.00497963 -0.0561061 -0.121745 0.029948 
-0.0826992 -0.111911 0.00313845 -0.0438425 -0.116783 0.0225051 -0.0757174 -0.121001 0.0228771 
-0.0571696 -0.118501 0.0308518 -0.0801775 -0.118652 0.0165029 -0.0572886 -0.104756 0.00491806 
-0.0700463 -0.117886 0.0134953 -0.056872 -0.122174 0.0265268 -0.055201 -0.108552 0.0283061 
-0.0525798 -0.120262 0.0214653 -0.0785011 -0.107733 0.0117561 -0.0824806 -0.117235 0.0127656 
-0.0409088 -0.109304 0.0194095 -0.0604463 -0.104206 0.00491264 -0.0759494 -0.122307 0.0256666 
-0.0688738 -0.100534 0.0069825 
VERTICES 100 200
1 0 
1 1 
1 2 
1 3 
1 4 
1 5 
1 6 
1 7 
1 8 
1 9 
1 10 
1 11 
1 12 
1 13 
1 14 
1 15 
1 16 
1 17 
1 18 
1 19 
1 20 
1 21 
1 22 
1 23 
1 24 
1 25 
1 26 
1 27 
1 28 
1 29 
1 30 
1 31 
1 32 
1 33 
1 34 
1 35 
1 36 
1 37 
1 38 
1 39 
1 40 
1 41 
1 42 
1 43 
1 44 
1 45 
1 46 
1 47 
1 48 
1 49 
1 50 
1 51 
1 52 
1 53 
1 54 
1 55 
1 56 
1 57 
1 58 
1 59 
1 60 
1 61 
1 62 
1 63 
1 64 
1 65 
1 66 
1 67 
1 68 
1 69 
1 70 
1 71 
1 72 
1 73 
1 74 
1 75 
1 76 
1 77 
1 78 
1 79 
1 80 
1 81 
1 82 
1 83 
1 84 
1 85 
1 86 
1 87 
1 88 
1 89 
1 90 
1 91 
1 92 
1 93 
1 94 
1 95 
1 96 
1 97 
1 98 
1 99 

POINT_DATA 100
FIELD FieldData 7
id 1 100 int
1 2 3 4 5 6 7 8 9 
10 11 12 13 14 15 16 17 18 
19 20 21 22 23 24 25 26 27 
28 29 30 31 32 33 34 35 36 
37 38 39 40 41 42 43 44 45 
46 47 48 49 50 51 52 53 54 
55 56 57 58 59 60 61 62 63 
64 65 66 67 68 69 70 71 72 
73 74 75 76 77 78 79 80 81 
82 83 84 85 86 87 88 89 90 
91 92 93 94 95 96 97 98 99 
100 
mol 1 100 int
1 1 1 1 1 1 1 1 1 
1 1 1 1 1 1 1 1 1 
1 1 1 1 1 1 1 1 1 
1 1 1 1 1 1 1 1 1 
1 1 1 1 1 1 1 1 1 
1 1 1 1 1 2 2 2 2 
2 2 2 2 2 2 2 2 2 
2 2 2 2 2 2 2 2 2 
2 2 2 2 2 2 2 2 2 
2 2 2 2 2 2 2 2 2 
2 2 2 2 2 2 2 2 2 
2 
type 1 100 int
1 1 1 1 1 1 1 1 1 
1 1 1 1 1 1 1 1 1 
1 1 1 1 1 1 1 1 1 
1 1 1 1 1 1 1 1 1 
1 1 1 1 1 1 1 1 1 
1 1 1 1 1 1 1 1 1 
1 1 1 1 1 1 1 1 1 
1 1 1 1 1 1 1 1 1 
1 1 1 1 1 1 1 1 1 
1 1 1 1 1 1 1 1 1 
1 1 1 1 1 1 1 1 1 
1 
v 3 100 double
-0.022260102949 -0.14273253443 -0.045391113673 -0.03107194252 -0.10091832486 -0.027955121597 -0.036320172582 -0.071163296032 -0.00892206404 
-0.016528774952 -0.16790511848 -0.053123475965 -0.007539509599 -0.20492255282 -0.060857774603 -0.023824709455 -0.13383800024 -0.039674280341 
-0.033394589067 -0.088150083168 -0.020245168665 -0.01224426786 -0.19990538889 -0.082405439175 -0.042844108243 -0.040308016383 0.0038044717001 
-0.033508490521 -0.082478790657 -0.010872513702 -0.0156365134 -0.17991958209 -0.06876015144 -0.026261642307 -0.12635397895 -0.042125828027 
-0.031466628769 -0.072704666621 0.019786604391 -0.011592345966 -0.20527259998 -0.087748970428 -0.034186611189 -0.060555543806 0.023817580617 
-0.021430940172 -0.15425943987 -0.0605675167 -0.0026291041343 -0.21477802335 -0.046603084655 -0.036346140249 -0.043651132929 0.0399587536 
-0.038830855561 -0.084859109262 -0.04961134213 -0.041980426789 -0.053643526629 -0.014372619064 -0.042288697956 -0.082262279456 -0.067392541416 
-0.011266348976 -0.20795645989 -0.090420955931 -0.020406604155 -0.18133534022 -0.10219996206 -0.00027784513877 -0.22622516495 -0.051772317317 
-0.01674292078 -0.17781371568 -0.072176595181 -0.022852093093 -0.10589050534 0.016454647712 -0.0033295427034 -0.19730657095 -0.019994365865 
0.0043066664003 -0.2333969194 -0.034845230306 -0.014283820669 -0.19180231036 -0.081177833772 -0.013777591155 -0.14990003014 -0.0031928272395 
-0.017315479828 -0.17630916557 -0.073205112698 -0.0082143616469 -0.2259189799 -0.10266436777 -0.048769634345 -0.049426046928 -0.050855645985 
-0.011380559862 -0.21324103478 -0.10058259974 -0.049630947227 -0.018213549897 -0.00079182995839 -0.020718325201 -0.17799092773 -0.098257808151 
-0.022635181421 -0.14985660173 -0.060522961055 -0.007093522872 -0.21640778306 -0.078443308004 -0.031772988399 -0.10535890222 -0.040415451331 
-0.041336491494 -0.051845394974 -0.0069934267075 -0.036712021036 -0.096824511233 -0.057210920344 -0.017721255431 -0.19167527043 -0.10322994807 
-0.0034355870982 -0.19880050615 -0.023345068991 -0.025160042852 -0.1642134572 -0.10248264867 -0.031175339093 -0.073579231185 0.020115315135 
-0.037106877459 -0.07956734312 -0.029003700773 -0.020086271402 -0.15897652837 -0.060262188053 -0.040804505388 -0.048411131882 0.0025771247428 
-0.018802711615 -0.16724163697 -0.066678383407 -0.033909307557 -0.051134915842 0.042410077119 -0.031324855924 -0.12683871452 -0.075388096473 
-0.046531615543 -0.089850997346 -0.047299793567 -0.05593167065 -0.068470645929 -0.018215242772 -0.015108396524 -0.16885065258 -0.085049445761 
-0.0043810270376 -0.1953456713 -0.1016828712 -0.027305375199 -0.13912117571 -0.06301439357 -0.044017059581 -0.098504207245 -0.031899779067 
-0.0032999874304 -0.19508517875 -0.12651270994 -0.066341035695 -0.043374134334 0.0027690122577 -0.059508687495 -0.057893158216 -0.02643844642 
-0.0057071935174 -0.19154096474 -0.10380829481 -0.027057207522 -0.13973215072 -0.063414697971 -0.062058681687 -0.056227877496 0.014119031383 
0.0041005195236 -0.21423278565 -0.13111821114 -0.064660813168 -0.050281075045 0.021946845055 -0.01517804006 -0.16806358644 -0.089800968364 
0.0038507210965 -0.21969360258 -0.082710874661 -0.066908893759 -0.047436400678 0.046826338505 -0.059914861399 -0.050509468138 -0.076220409136 
-0.057506448928 -0.064053829352 -0.01993997437 -0.058391621605 -0.051953268256 -0.096899573034 0.0078008400616 -0.22380672642 -0.13342128942 
-0.013921252283 -0.16369889238 -0.15075980543 0.0019027625589 -0.21305100928 -0.09416035957 -0.01935750734 -0.15377238781 -0.11467546552 
-0.048002545915 -0.09268924252 0.0061095451573 -0.0097463480659 -0.18751649989 -0.050521890793 0.0064342494515 -0.22782522123 -0.072884784199 
0.0020648931023 -0.21029626101 -0.11934059899 -0.022350238108 -0.15778448644 -0.019935438327 -0.0039541434317 -0.19578103287 -0.10723526834 
0.0062244688454 -0.21677184494 -0.15579756126 -0.067950791049 -0.029873355301 -0.069990508619 0.0055346520355 -0.21576500086 -0.14922180255 
-0.073970381946 -0.022739752206 0.00044805385018 -0.017338307585 -0.15513013797 -0.14648172065 -0.014770766518 -0.16937409135 -0.088025857893 
0.0069323319206 -0.22297558149 -0.12169327891 -0.033677704897 -0.12281273048 -0.05763511602 -0.071493368847 -0.027071408005 -0.017505314256 
-0.042476058926 -0.096454150966 -0.080557713661 -0.0040071200656 -0.19019032102 -0.1502910451 -0.0038505986847 -0.20303524749 -0.052101505191 
-0.019037025969 -0.15040820491 -0.14800639631 -0.051046402767 -0.086346286284 0.020112169577 -0.044777417557 -0.095401026219 -0.040401065355 
-0.028793457398 -0.13068870233 -0.098292689408 -0.071705899911 -0.02816313625 -0.0044027773343 -0.0063970103272 -0.19053412066 -0.097232536099 
-0.067157156489 -0.046825140412 0.047226391357 
f 3 100 double
0 0 0 0 0 0 0 0 0 
0 0 0 0 0 0 0 0 0 
0 0 0 0 0 0 0 0 0 
0 0 0 0 0 0 0 0 0 
0 0 0 0 0 0 0 0 0 
0 0 0 0 0 0 0 0 0 
0 0 0 0 0 0 0 0 0 
0 0 0 0 0 0 0 0 0 
0 0 0 0 0 0 0 0 0 
0 0 0 0 0 0 0 0 0 
0 0 0 0 0 0 0 0 0 
0 0 0 0.082502689835 -0.001728868198 0.16504160464 0 0 0 
0 0 0 0 0 0 0 0 0 
0 0 0 0 0 0 0 0 0 
0 0 0 0 0 0 0 0 0 
0 0 0 0 0 0 0 0 0 
0 0 0 0 0 0 0 0 0 
0 0 0 0 0 0 0 0 0 
0 0 0 0 0 0 0 0 0 
0 0 0 0 0 0 0 0 0 
0 0 0 0 0 0 0 0 0 
0 0 0 0 0 0 0 0 0 
0 0 0 0 0 0 0 0 0 
0 0 0 0 0 0 0 0 0 
0 0 0 0 0 0 0 0 0 
0 0 0 0 0 0 0 0 0 
0 0 0 0 0 0 0 0 0 
0 0 0 0 0 0 0 0 0 
0.080278536692 -0.0010482338701 0.16057076007 0 0 0 0 0 0 
0 0 0 0 0 0 0 0 0 
0 0 0 0 0 0 0 0 0 
0 0 0 0 0 0 0 0 0 
0 0 0 0 0 0 0 0 0 
0 0 0 
radius 1 100 double
0.010434 0.00981478 0.00892069 0.00845937 0.00731974 0.00728422 0.00643447 0.00619172 0.00585956 
0.00577566 0.00537241 0.00522549 0.00513666 0.00473175 0.00466912 0.00444866 0.00441894 0.00400812 
0.00385622 0.00379948 0.00370243 0.00366942 0.00364039 0.00363813 0.00363644 0.00358692 0.0035797 
0.00341284 0.00337012 0.00336273 0.00332772 0.00323261 0.00320584 0.00320311 0.00318808 0.00313116 
0.00306026 0.00305632 0.00304383 0.00300958 0.00300137 0.00298994 0.0029567 0.00295111 0.00290849 
0.00284552 0.00282964 0.0028207 0.00281971 0.00281899 0.010434 0.00981478 0.00892069 0.00845937 
0.00731974 0.00728422 0.00643447 0.00619172 0.00585956 0.00577566 0.00537241 0.00522549 0.00513666 
0.00473175 0.00466912 0.00444866 0.00441894 0.00400812 0.00385622 0.00379948 0.00370243 0.00366942 
0.00364039 0.00363813 0.00363644 0.00358692 0.0035797 0.00341284 0.00337012 0.00336273 0.00332772 
0.00323261 0.00320584 0.00320311 0.00318808 0.00313116 0.00306026 0.00305632 0.00304383 0.00300958 
0.00300137 0.00298994 0.0029567 0.00295111 0.00290849 0.00284552 0.00282964 0.0028207 0.00281971 
0.00281899 
omega 3 100 double
6.1507214163 1.6919169255 -0.94901388252 6.1507214163 1.6919169255 -0.94901388252 6.1507214163 1.6919169255 -0.94901388252 
6.1507214163 1.6919169255 -0.94901388252 6.1507214163 1.6919169255 -0.94901388252 6.1507214163 1.6919169255 -0.94901388252 
6.1507214163 1.6919169255 -0.94901388252 6.1507214163 1.6919169255 -0.94901388252 6.1507214163 1.6919169255 -0.94901388252 
6.1507214163 1.6919169255 -0.94901388252 6.1507214163 1.6919169255 -0.94901388252 6.1507214163 1.6919169255 -0.94901388252 
6.1507214163 1.6919169255 -0.94901388252 6.1507214163 1.6919169255 -0.94901388252 6.1507214163 1.6919169255 -0.94901388252 
6.1507214163 1.6919169255 -0.94901388252 6.1507214163 1.6919169255 -0.94901388252 6.1507214163 1.6919169255 -0.94901388252 
6.1507214163 1.6919169255 -0.94901388252 6.1507214163 1.6919169255 -0.94901388252 6.1507214163 1.6919169255 -0.94901388252 
6.1507214163 1.6919169255 -0.94901388252 6.1507214163 1.6919169255 -0.94901388252 6.1507214163 1.6919169255 -0.94901388252 
6.1507214163 1.6919169255 -0.94901388252 6.1507214163 1.6919169255 -0.94901388252 6.1507214163 1.6919169255 -0.94901388252 
6.1507214163 1.6919169255 -0.94901388252 6.1507214163 1.6919169255 -0.94901388252 6.1507214163 1.6919169255 -0.94901388252 
6.1507214163 1.6919169255 -0.94901388252 6.1507214163 1.6919169255 -0.94901388252 6.1507214163 1.6919169255 -0.94901388252 
6.1507214163 1.6919169255 -0.94901388252 6.1507214163 1.6919169255 -0.94901388252 6.1507214163 1.6919169255 -0.94901388252 
6.1507214163 1.6919169255 -0.94901388252 6.1507214163 1.6919169255 -0.94901388252 6.1507214163 1.6919169255 -0.94901388252 
6.1507214163 1.6919169255 -0.94901388252 6.1507214163 1.6919169255 -0.94901388252 6.1507214163 1.6919169255 -0.94901388252 
6.1507214163 1.6919169255 -0.94901388252 6.1507214163 1.6919169255 -0.94901388252 6.1507214163 1.6919169255 -0.94901388252 
6.1507214163 1.6919169255 -0.94901388252 6.1507214163 1.6919169255 -0.94901388252 6.1507214163 1.6919169255 -0.94901388252 
6.1507214163 1.6919169255 -0.94901388252 6.1507214163 1.6919169255 -0.94901388252 7.5556705543 2.8339753736 0.35868974763 
7.5556705543 2.8339753736 0.35868974763 7.5556705543 2.8339753736 0.35868974763 7.5556705543 2.8339753736 0.35868974763 
7.5556705543 2.8339753736 0.35868974763 7.5556705543 2.8339753736 0.35868974763 7.5556705543 2.8339753736 0.35868974763 
7.5556705543 2.8339753736 0.35868974763 7.5556705543 2.8339753736 0.35868974763 7.5556705543 2.8339753736 0.35868974763 
7.5556705543 2.8339753736 0.35868974763 7.5556705543 2.8339753736 0.35868974763 7.5556705543 2.8339753736 0.35868974763 
7.5556705543 2.8339753736 0.35868974763 7.5556705543 2.8339753736 0.35868974763 7.5556705543 2.8339753736 0.35868974763 
7.5556705543 2.8339753736 0.35868974763 7.5556705543 2.8339753736 0.35868974763 7.5556705543 2.8339753736 0.35868974763 
7.5556705543 2.8339753736 0.35868974763 7.5556705543 2.8339753736 0.35868974763 7.5556705543 2.8339753736 0.35868974763 
7.5556705543 2.8339753736 0.35868974763 7.5556705543 2.8339753736 0.35868974763 7.5556705543 2.8339753736 0.35868974763 
7.5556705543 2.8339753736 0.35868974763 7.5556705543 2.8339753736 0.35868974763 7.5556705543 2.8339753736 0.35868974763 
7.5556705543 2.8339753736 0.35868974763 7.5556705543 2.8339753736 0.35868974763 7.5556705543 2.8339753736 0.35868974763 
7.5556705543 2.8339753736 0.35868974763 7.5556705543 2.8339753736 0.35868974763 7.5556705543 2.8339753736 0.35868974763 
7.5556705543 2.8339753736 0.35868974763 7.5556705543 2.8339753736 0.35868974763 7.5556705543 2.8339753736 0.35868974763 
7.5556705543 2.8339753736 0.35868974763 7.5556705543 2.8339753736 0.35868974763 7.5556705543 2.8339753736 0.35868974763 
7.5556705543 2.8339753736 0.35868974763 7.5556705543 2.8339753736 0.35868974763 7.5556705543 2.8339753736 0.35868974763 
7.5556705543 2.8339753736 0.35868974763 7.5556705543 2.8339753736 0.35868974763 7.5556705543 2.8339753736 0.35868974763 
7.5556705543 2.8339753736 0.35868974763 7.5556705543 2.8339753736 0.35868974763 7.5556705543 2.8339753736 0.35868974763 
7.5556705543 2.8339753736 0.35868974763 
