# vtk DataFile Version 4.1
Generated by LIGGGHTS
ASCII
DATASET POLYDATA
POINTS 100 float
-0.113622 -0.13183 0.0235198 -0.123784 -0.132758 0.0212375 -0.133803 -0.133038 0.0209462 
-0.119745 -0.133819 0.031979 -0.106476 -0.130723 0.0311213 -0.128314 -0.134766 0.0303252 
-0.139273 -0.135683 0.0277286 -0.111411 -0.135522 0.034142 -0.142684 -0.134083 0.0200836 
-0.118028 -0.129164 0.0137578 -0.124876 -0.137218 0.0378761 -0.134921 -0.136993 0.0329996 
-0.123542 -0.125895 0.0138313 -0.119271 -0.138138 0.0399817 -0.129549 -0.127076 0.0150171 
-0.13074 -0.138097 0.0363736 -0.11302 -0.12975 0.0360689 -0.140821 -0.127746 0.0178911 
-0.113257 -0.134125 0.0131818 -0.145594 -0.137307 0.0250265 -0.117108 -0.137986 0.0158194 
-0.123201 -0.139446 0.0429016 -0.107831 -0.138363 0.0296461 -0.0997517 -0.126999 0.030532 
-0.103094 -0.132508 0.0248226 -0.11944 -0.124447 0.0174877 -0.105893 -0.12427 0.027509 
-0.102365 -0.124718 0.0325598 -0.127499 -0.139494 0.0421216 -0.125196 -0.127696 0.0296466 
-0.130686 -0.139454 0.0408647 -0.104696 -0.136355 0.0357705 -0.12932 -0.139292 0.0163883 
-0.114321 -0.138746 0.0390848 -0.148012 -0.136771 0.0194986 -0.105011 -0.137142 0.0272033 
-0.135154 -0.139298 0.0381879 -0.115224 -0.135332 0.0391469 -0.141386 -0.138917 0.0329857 
-0.123552 -0.130797 0.0113699 -0.132622 -0.139716 0.0270839 -0.116031 -0.140224 0.0363712 
-0.11455 -0.126875 0.0330345 -0.113499 -0.140297 0.0299465 -0.14168 -0.130246 0.0246621 
-0.144744 -0.138674 0.0298319 -0.103461 -0.131248 0.0211229 -0.126596 -0.130111 0.012104 
-0.1345 -0.139609 0.0411904 -0.134213 -0.12552 0.0152168 -0.0447368 -0.104035 0.0228772 
-0.0548437 -0.104963 0.0203622 -0.0648526 -0.105259 0.0198453 -0.0510437 -0.106091 0.0311838 
-0.0377645 -0.102967 0.0306438 -0.0595713 -0.107041 0.0293327 -0.0704679 -0.10796 0.0264857 
-0.0427561 -0.107795 0.0335208 -0.0737109 -0.106312 0.0187775 -0.0489279 -0.101309 0.0130375 
-0.0562981 -0.109539 0.0369416 -0.0662328 -0.109297 0.0318436 -0.0544482 -0.0980505 0.01301 
-0.0507403 -0.110464 0.0391657 -0.0604786 -0.0992497 0.0140533 -0.062126 -0.110418 0.0353027 
-0.0444187 -0.102039 0.0354505 -0.0718101 -0.099958 0.0166702 -0.0441369 -0.106258 0.0125347 
-0.0767246 -0.109575 0.0236321 -0.0480384 -0.110143 0.0150593 -0.0547324 -0.111798 0.0419881 
-0.0390717 -0.110599 0.0290869 -0.0310352 -0.0992276 0.0302301 -0.0342388 -0.104703 0.0244103 
-0.0504321 -0.0966201 0.0167668 -0.0371124 -0.0964882 0.0270893 -0.0336973 -0.0969649 0.0322144 
-0.0590114 -0.111848 0.041112 -0.0564522 -0.0999612 0.0287718 -0.0621699 -0.111805 0.0397845 
-0.036078 -0.108628 0.0352933 -0.0602576 -0.111474 0.0153463 -0.0457698 -0.111058 0.0383755 
-0.0790194 -0.109006 0.0180554 -0.0361999 -0.109357 0.0267161 -0.0665772 -0.111638 0.0370097 
-0.0466804 -0.107646 0.0384405 -0.0726919 -0.111233 0.0316723 -0.054395 -0.102935 0.0105158 
-0.0637971 -0.111976 0.0259624 -0.0474169 -0.11252 0.0356144 -0.0458863 -0.0991462 0.0324022 
-0.0447412 -0.112545 0.0292475 -0.0728158 -0.102505 0.0234032 -0.0759788 -0.110973 0.0284459 
-0.0345255 -0.103419 0.0207119 -0.0574556 -0.102259 0.0111863 -0.0659899 -0.111969 0.0400239 
-0.0651486 -0.0977022 0.0141593 
VERTICES 100 200
1 0 
1 1 
1 2 
1 3 
1 4 
1 5 
1 6 
1 7 
1 8 
1 9 
1 10 
1 11 
1 12 
1 13 
1 14 
1 15 
1 16 
1 17 
1 18 
1 19 
1 20 
1 21 
1 22 
1 23 
1 24 
1 25 
1 26 
1 27 
1 28 
1 29 
1 30 
1 31 
1 32 
1 33 
1 34 
1 35 
1 36 
1 37 
1 38 
1 39 
1 40 
1 41 
1 42 
1 43 
1 44 
1 45 
1 46 
1 47 
1 48 
1 49 
1 50 
1 51 
1 52 
1 53 
1 54 
1 55 
1 56 
1 57 
1 58 
1 59 
1 60 
1 61 
1 62 
1 63 
1 64 
1 65 
1 66 
1 67 
1 68 
1 69 
1 70 
1 71 
1 72 
1 73 
1 74 
1 75 
1 76 
1 77 
1 78 
1 79 
1 80 
1 81 
1 82 
1 83 
1 84 
1 85 
1 86 
1 87 
1 88 
1 89 
1 90 
1 91 
1 92 
1 93 
1 94 
1 95 
1 96 
1 97 
1 98 
1 99 

POINT_DATA 100
FIELD FieldData 7
id 1 100 int
1 2 3 4 5 6 7 8 9 
10 11 12 13 14 15 16 17 18 
19 20 21 22 23 24 25 26 27 
28 29 30 31 32 33 34 35 36 
37 38 39 40 41 42 43 44 45 
46 47 48 49 50 51 52 53 54 
55 56 57 58 59 60 61 62 63 
64 65 66 67 68 69 70 71 72 
73 74 75 76 77 78 79 80 81 
82 83 84 85 86 87 88 89 90 
91 92 93 94 95 96 97 98 99 
100 
mol 1 100 int
1 1 1 1 1 1 1 1 1 
1 1 1 1 1 1 1 1 1 
1 1 1 1 1 1 1 1 1 
1 1 1 1 1 1 1 1 1 
1 1 1 1 1 1 1 1 1 
1 1 1 1 1 2 2 2 2 
2 2 2 2 2 2 2 2 2 
2 2 2 2 2 2 2 2 2 
2 2 2 2 2 2 2 2 2 
2 2 2 2 2 2 2 2 2 
2 2 2 2 2 2 2 2 2 
2 
type 1 100 int
1 1 1 1 1 1 1 1 1 
1 1 1 1 1 1 1 1 1 
1 1 1 1 1 1 1 1 1 
1 1 1 1 1 1 1 1 1 
1 1 1 1 1 1 1 1 1 
1 1 1 1 1 1 1 1 1 
1 1 1 1 1 1 1 1 1 
1 1 1 1 1 1 1 1 1 
1 1 1 1 1 1 1 1 1 
1 1 1 1 1 1 1 1 1 
1 1 1 1 1 1 1 1 1 
1 
v 3 100 double
-0.11944487177 -0.062399483506 -0.039685613025 -0.10301172404 -0.061688183784 -0.11314237937 -0.1008584272 -0.064623471597 -0.18438474443 
-0.17846922066 -0.080228115723 -0.086602007141 -0.17348878476 -0.074032035719 0.012813327112 -0.16646650081 -0.080130821422 -0.14884533946 
-0.14781826675 -0.079112580288 -0.22790938721 -0.19314678983 -0.081351702098 -0.030927097381 -0.094407025306 -0.066103684341 -0.24902030218 
-0.051458715512 -0.045805124912 -0.065833359373 -0.21891810202 -0.092955803465 -0.12912729138 -0.18457230062 -0.087388127354 -0.1996223645 
-0.053111939621 -0.047854759656 -0.098688894595 -0.23346268125 -0.0949202703 -0.091272343283 -0.061072782931 -0.052140506736 -0.14328976184 
-0.20800714268 -0.092201328325 -0.17215808872 -0.20875226847 -0.085487425802 -0.031571529418 -0.081128358936 -0.061386699197 -0.22409959295 
-0.045671666004 -0.043080806005 -0.04136967288 -0.1281806078 -0.076289560024 -0.27554789407 -0.062951101826 -0.049313366092 -0.075719058251 
-0.25362055583 -0.10170449706 -0.12144418023 -0.16042446133 -0.07176328963 -0.010930427111 -0.17062099185 -0.070604839197 0.067197654731 
-0.12840642463 -0.061165125133 0.033378890017 -0.079425082697 -0.053219620627 -0.067047671561 -0.1502282795 -0.067123521646 0.028912664774 
-0.18572667938 -0.075276017544 0.052984748921 -0.24809832263 -0.10174766389 -0.15187021425 -0.16412893265 -0.077789223947 -0.11371130766 
-0.23923893216 -0.10052004008 -0.17429711627 -0.20435396442 -0.082045344602 0.014926344443 -0.066513217925 -0.054606423055 -0.16435067235 
-0.22692044989 -0.091537588529 -0.057454492913 -0.089344688665 -0.066866223316 -0.29162176254 -0.14360400259 -0.066249889345 0.011242932359 
-0.22039751835 -0.09710086296 -0.20554588097 -0.22854307212 -0.091966188775 -0.057492549238 -0.18380670979 -0.089605363716 -0.24883022086 
-0.03403583526 -0.043288998078 -0.10786525472 -0.14186794879 -0.075608161587 -0.1884475569 -0.20725197031 -0.087093465111 -0.072275294533 
-0.18832933194 -0.080385182116 -0.037039224272 -0.16187366469 -0.074287425137 -0.054531705346 -0.12805811049 -0.074254898247 -0.23480654748 
-0.1616281387 -0.08491539595 -0.27207985357 -0.10272678917 -0.054424128271 0.033125936962 -0.039455511442 -0.045707727549 -0.12807718575 
-0.24148458749 -0.10244804739 -0.20150812873 -0.063022425562 -0.054129371784 -0.17332284554 -0.11855757234 -0.062037368919 -0.087814123158 
-0.10077608975 -0.061184000255 -0.15958553962 -0.097083432965 -0.063913199235 -0.22953084275 -0.17540934806 -0.079389200123 -0.1352757136 
-0.17280819129 -0.073548476096 -0.037529405766 -0.16222398326 -0.079159721786 -0.19613361436 -0.14214455257 -0.077994466274 -0.2733623451 
-0.19099216559 -0.080586377892 -0.080887964389 -0.089292410276 -0.065223309773 -0.29286903889 -0.051318931784 -0.045753596675 -0.11194368948 
-0.21407634292 -0.091740075042 -0.17795764084 -0.17881046345 -0.086146044698 -0.2464152478 -0.052321588987 -0.047725271669 -0.14432423243 
-0.22916075887 -0.0937322659 -0.14109022321 -0.0591172187 -0.051822768952 -0.18831564916 -0.20238830275 -0.090906176568 -0.21996475802 
-0.20648175935 -0.084689534741 -0.081993558477 -0.077005495801 -0.060711184435 -0.26818080754 -0.046019318679 -0.043088514071 -0.087680768152 
-0.12176380275 -0.075118110701 -0.31967697722 -0.062104710534 -0.049089069162 -0.12177226145 -0.24824500299 -0.10030515532 -0.17119057861 
-0.1592169605 -0.071207840876 -0.060414082934 -0.17130886513 -0.070335140701 0.015909129105 -0.12894419929 -0.060969228829 -0.016222606346 
-0.07889813365 -0.053057730572 -0.11388319308 -0.15053072008 -0.066872854554 -0.021274551595 -0.18589827076 -0.074903325519 0.0015454404947 
-0.24215151389 -0.10028567622 -0.20095494 -0.16092701278 -0.077001839664 -0.16168217578 -0.23296071286 -0.099038273668 -0.22278203764 
-0.20297901306 -0.081350611118 -0.036083904488 -0.063607661164 -0.05408341515 -0.20892098056 -0.22346363853 -0.090481189741 -0.10769571162 
-0.083298564623 -0.065859665315 -0.33456059737 -0.14323029654 -0.065862911318 -0.038250354271 -0.21377916386 -0.095627350243 -0.25304299101 
-0.22516393701 -0.090932400405 -0.10783232936 -0.17691365871 -0.08820111966 -0.29471347717 -0.033235810468 -0.043189078784 -0.15280165669 
-0.13704451038 -0.074603986809 -0.23437522209 -0.20378032003 -0.086084302989 -0.12176619085 -0.18640162182 -0.079706889891 -0.086933503211 
-0.15961780063 -0.073574759601 -0.10325568162 -0.122764764 -0.073272109346 -0.27976819012 -0.15463479777 -0.08356227278 -0.31703716679 
-0.10376695586 -0.054376924216 -0.015885400423 -0.038133081828 -0.045524016712 -0.17280206487 -0.23456096839 -0.10087065367 -0.24956944797 
-0.060418876802 -0.053724839467 -0.21789944284 
f 3 100 double
0 0 0 0 0 0 0 0 0 
0 0 0 0 0 0 0 0 0 
0 0 0 0 0 0 0 0 0 
0 0 0 0 0 0 0 0 0 
0 0 0 0 0 0 0 0 0 
0 0 0 0 0 0 0 0 0 
0 0 0 0 0 0 0 0 0 
0 0 0 0 0 0 0 0 0 
0 0 0 0 0 0 0 0 0 
0 0 0 0 0 0 0 0 0 
0 0 0 0 0 0 0 0 0 
0 0 0 0 0 0 0 0 0 
0 0 0 0 0 0 0 0 0 
0 0 0 0 0 0 0 0 0 
0 0 0 0 0 0 0 0 0 
0 0 0 0 0 0 0 0 0 
0 0 0 0 0 0 0 0 0 
0 0 0 0 0 0 0 0 0 
0 0 0 0 0 0 0 0 0 
0 0 0 0 0 0 0 0 0 
0 0 0 0 0 0 0 0 0 
0 0 0 0 0 0 0 0 0 
0 0 0 0 0 0 0 0 0 
0 0 0 0 0 0 0 0 0 
0 0 0 0 0 0 0 0 0 
0 0 0 0 0 0 0 0 0 
0 0 0 0 0 0 0 0 0 
0 0 0 0 0 0 0 0 0 
0 0 0 0 0 0 0 0 0 
0 0 0 0 0 0 0 0 0 
0 0 0 0 0 0 0 0 0 
0 0 0 0 0 0 0 0 0 
0 0 0 0 0 0 0 0 0 
0 0 0 
radius 1 100 double
0.010434 0.00981478 0.00892069 0.00845937 0.00731974 0.00728422 0.00643447 0.00619172 0.00585956 
0.00577566 0.00537241 0.00522549 0.00513666 0.00473175 0.00466912 0.00444866 0.00441894 0.00400812 
0.00385622 0.00379948 0.00370243 0.00366942 0.00364039 0.00363813 0.00363644 0.00358692 0.0035797 
0.00341284 0.00337012 0.00336273 0.00332772 0.00323261 0.00320584 0.00320311 0.00318808 0.00313116 
0.00306026 0.00305632 0.00304383 0.00300958 0.00300137 0.00298994 0.0029567 0.00295111 0.00290849 
0.00284552 0.00282964 0.0028207 0.00281971 0.00281899 0.010434 0.00981478 0.00892069 0.00845937 
0.00731974 0.00728422 0.00643447 0.00619172 0.00585956 0.00577566 0.00537241 0.00522549 0.00513666 
0.00473175 0.00466912 0.00444866 0.00441894 0.00400812 0.00385622 0.00379948 0.00370243 0.00366942 
0.00364039 0.00363813 0.00363644 0.00358692 0.0035797 0.00341284 0.00337012 0.00336273 0.00332772 
0.00323261 0.00320584 0.00320311 0.00318808 0.00313116 0.00306026 0.00305632 0.00304383 0.00300958 
0.00300137 0.00298994 0.0029567 0.00295111 0.00290849 0.00284552 0.00282964 0.0028207 0.00281971 
0.00281899 
omega 3 100 double
1.8564611951 -7.059116601 0.34695719217 1.8564611951 -7.059116601 0.34695719217 1.8564611951 -7.059116601 0.34695719217 
1.8564611951 -7.059116601 0.34695719217 1.8564611951 -7.059116601 0.34695719217 1.8564611951 -7.059116601 0.34695719217 
1.8564611951 -7.059116601 0.34695719217 1.8564611951 -7.059116601 0.34695719217 1.8564611951 -7.059116601 0.34695719217 
1.8564611951 -7.059116601 0.34695719217 1.8564611951 -7.059116601 0.34695719217 1.8564611951 -7.059116601 0.34695719217 
1.8564611951 -7.059116601 0.34695719217 1.8564611951 -7.059116601 0.34695719217 1.8564611951 -7.059116601 0.34695719217 
1.8564611951 -7.059116601 0.34695719217 1.8564611951 -7.059116601 0.34695719217 1.8564611951 -7.059116601 0.34695719217 
1.8564611951 -7.059116601 0.34695719217 1.8564611951 -7.059116601 0.34695719217 1.8564611951 -7.059116601 0.34695719217 
1.8564611951 -7.059116601 0.34695719217 1.8564611951 -7.059116601 0.34695719217 1.8564611951 -7.059116601 0.34695719217 
1.8564611951 -7.059116601 0.34695719217 1.8564611951 -7.059116601 0.34695719217 1.8564611951 -7.059116601 0.34695719217 
1.8564611951 -7.059116601 0.34695719217 1.8564611951 -7.059116601 0.34695719217 1.8564611951 -7.059116601 0.34695719217 
1.8564611951 -7.059116601 0.34695719217 1.8564611951 -7.059116601 0.34695719217 1.8564611951 -7.059116601 0.34695719217 
1.8564611951 -7.059116601 0.34695719217 1.8564611951 -7.059116601 0.34695719217 1.8564611951 -7.059116601 0.34695719217 
1.8564611951 -7.059116601 0.34695719217 1.8564611951 -7.059116601 0.34695719217 1.8564611951 -7.059116601 0.34695719217 
1.8564611951 -7.059116601 0.34695719217 1.8564611951 -7.059116601 0.34695719217 1.8564611951 -7.059116601 0.34695719217 
1.8564611951 -7.059116601 0.34695719217 1.8564611951 -7.059116601 0.34695719217 1.8564611951 -7.059116601 0.34695719217 
1.8564611951 -7.059116601 0.34695719217 1.8564611951 -7.059116601 0.34695719217 1.8564611951 -7.059116601 0.34695719217 
1.8564611951 -7.059116601 0.34695719217 1.8564611951 -7.059116601 0.34695719217 1.8108831539 -6.9348325448 0.36619339274 
1.8108831539 -6.9348325448 0.36619339274 1.8108831539 -6.9348325448 0.36619339274 1.8108831539 -6.9348325448 0.36619339274 
1.8108831539 -6.9348325448 0.36619339274 1.8108831539 -6.9348325448 0.36619339274 1.8108831539 -6.9348325448 0.36619339274 
1.8108831539 -6.9348325448 0.36619339274 1.8108831539 -6.9348325448 0.36619339274 1.8108831539 -6.9348325448 0.36619339274 
1.8108831539 -6.9348325448 0.36619339274 1.8108831539 -6.9348325448 0.36619339274 1.8108831539 -6.9348325448 0.36619339274 
1.8108831539 -6.9348325448 0.36619339274 1.8108831539 -6.9348325448 0.36619339274 1.8108831539 -6.9348325448 0.36619339274 
1.8108831539 -6.9348325448 0.36619339274 1.8108831539 -6.9348325448 0.36619339274 1.8108831539 -6.9348325448 0.36619339274 
1.8108831539 -6.9348325448 0.36619339274 1.8108831539 -6.9348325448 0.36619339274 1.8108831539 -6.9348325448 0.36619339274 
1.8108831539 -6.9348325448 0.36619339274 1.8108831539 -6.9348325448 0.36619339274 1.8108831539 -6.9348325448 0.36619339274 
1.8108831539 -6.9348325448 0.36619339274 1.8108831539 -6.9348325448 0.36619339274 1.8108831539 -6.9348325448 0.36619339274 
1.8108831539 -6.9348325448 0.36619339274 1.8108831539 -6.9348325448 0.36619339274 1.8108831539 -6.9348325448 0.36619339274 
1.8108831539 -6.9348325448 0.36619339274 1.8108831539 -6.9348325448 0.36619339274 1.8108831539 -6.9348325448 0.36619339274 
1.8108831539 -6.9348325448 0.36619339274 1.8108831539 -6.9348325448 0.36619339274 1.8108831539 -6.9348325448 0.36619339274 
1.8108831539 -6.9348325448 0.36619339274 1.8108831539 -6.9348325448 0.36619339274 1.8108831539 -6.9348325448 0.36619339274 
1.8108831539 -6.9348325448 0.36619339274 1.8108831539 -6.9348325448 0.36619339274 1.8108831539 -6.9348325448 0.36619339274 
1.8108831539 -6.9348325448 0.36619339274 1.8108831539 -6.9348325448 0.36619339274 1.8108831539 -6.9348325448 0.36619339274 
1.8108831539 -6.9348325448 0.36619339274 1.8108831539 -6.9348325448 0.36619339274 1.8108831539 -6.9348325448 0.36619339274 
1.8108831539 -6.9348325448 0.36619339274 
