# vtk DataFile Version 4.1
Generated by LIGGGHTS
ASCII
DATASET POLYDATA
POINTS 100 float
-0.117395 -0.1454 0.0135495 -0.127254 -0.142748 0.0112926 -0.137078 -0.140758 0.0110261 
-0.124654 -0.150594 0.0193233 -0.111036 -0.150356 0.0202635 -0.133025 -0.148644 0.0175429 
-0.143629 -0.14564 0.0150476 -0.117026 -0.154889 0.0199675 -0.145859 -0.139276 0.0098343 
-0.120183 -0.136772 0.00725734 -0.130907 -0.155633 0.0221813 -0.14017 -0.150598 0.0184951 
-0.125023 -0.133101 0.00930471 -0.125809 -0.158717 0.0232743 -0.131237 -0.133492 0.00965465 
-0.136636 -0.154268 0.0205271 -0.117812 -0.151098 0.024931 -0.142699 -0.133377 0.0117427 
-0.116309 -0.141343 0.00382179 -0.149804 -0.14408 0.0119916 -0.121034 -0.145132 0.00375032 
-0.130201 -0.160631 0.0249276 -0.113524 -0.155281 0.0146125 -0.103745 -0.14844 0.0218767 
-0.107348 -0.148835 0.0140679 -0.121155 -0.134895 0.0130615 -0.108955 -0.143286 0.0211067 
-0.106129 -0.147267 0.0248908 -0.134331 -0.159343 0.0243249 -0.128676 -0.14329 0.0210913 
-0.137307 -0.157938 0.0233718 -0.110775 -0.157855 0.0207101 -0.133276 -0.144003 0.00360965 
-0.120971 -0.159693 0.0221248 -0.151476 -0.139982 0.00785714 -0.110286 -0.153484 0.0133095 
-0.141362 -0.155362 0.0213535 -0.121271 -0.156841 0.0241863 -0.14683 -0.150795 0.0174432 
-0.125613 -0.135564 0.00443953 -0.137746 -0.149819 0.012075 -0.122606 -0.158952 0.0190828 
-0.118482 -0.146763 0.0241752 -0.119439 -0.155829 0.0137989 -0.14471 -0.139078 0.0157783 
-0.149731 -0.148102 0.0150747 -0.107087 -0.145633 0.0118118 -0.128554 -0.134822 0.00547695 
-0.141103 -0.15747 0.023596 -0.135554 -0.131423 0.0107904 -0.0485128 -0.116274 0.0133266 
-0.05853 -0.114259 0.011105 -0.0684806 -0.113062 0.0108149 -0.0553861 -0.122494 0.0185298 
-0.041847 -0.121223 0.0197405 -0.0638679 -0.121094 0.0167549 -0.0746528 -0.118772 0.01431 
-0.0474367 -0.12619 0.0189711 -0.077339 -0.112209 0.00958139 -0.0519292 -0.107419 0.00769347 
-0.0612338 -0.128241 0.0208584 -0.0708371 -0.123695 0.017414 -0.0570806 -0.104333 0.00993701 
-0.055912 -0.130977 0.0217963 -0.0632448 -0.105257 0.0101382 -0.067036 -0.127218 0.0192118 
-0.0485937 -0.122891 0.0242063 -0.0747015 -0.106246 0.0120141 -0.0476495 -0.111364 0.00397647 
-0.0808982 -0.117479 0.0112735 -0.0520431 -0.115508 0.00351386 -0.0601496 -0.133371 0.023209 
-0.0438499 -0.125859 0.0136683 -0.0347592 -0.118856 0.0216378 -0.038223 -0.118908 0.0137565 
-0.0531236 -0.106105 0.01361 -0.0403683 -0.114098 0.0211852 -0.0372684 -0.11813 0.024691 
-0.0643645 -0.13238 0.022634 -0.0600197 -0.11571 0.0208007 -0.0674353 -0.131149 0.0217408 
-0.0409707 -0.128687 0.0195909 -0.064334 -0.115373 0.00323511 -0.0509959 -0.131459 0.0206632 
-0.082854 -0.113207 0.00744948 -0.0407565 -0.123704 0.0125739 -0.0716649 -0.128757 0.0198596 
-0.0515558 -0.128818 0.0229402 -0.0774444 -0.124349 0.0162254 -0.0574069 -0.106432 0.00488024 
-0.0684092 -0.122203 0.0111231 -0.0526498 -0.13061 0.0176601 -0.0496113 -0.118579 0.0237871 
-0.0496895 -0.12682 0.0127029 -0.0762822 -0.112402 0.0155427 -0.0805298 -0.121718 0.0140259 
-0.0382002 -0.115523 0.0117689 -0.0604111 -0.106019 0.00591852 -0.0712591 -0.131012 0.0219307 
-0.0677323 -0.103645 0.0113549 
VERTICES 100 200
1 0 
1 1 
1 2 
1 3 
1 4 
1 5 
1 6 
1 7 
1 8 
1 9 
1 10 
1 11 
1 12 
1 13 
1 14 
1 15 
1 16 
1 17 
1 18 
1 19 
1 20 
1 21 
1 22 
1 23 
1 24 
1 25 
1 26 
1 27 
1 28 
1 29 
1 30 
1 31 
1 32 
1 33 
1 34 
1 35 
1 36 
1 37 
1 38 
1 39 
1 40 
1 41 
1 42 
1 43 
1 44 
1 45 
1 46 
1 47 
1 48 
1 49 
1 50 
1 51 
1 52 
1 53 
1 54 
1 55 
1 56 
1 57 
1 58 
1 59 
1 60 
1 61 
1 62 
1 63 
1 64 
1 65 
1 66 
1 67 
1 68 
1 69 
1 70 
1 71 
1 72 
1 73 
1 74 
1 75 
1 76 
1 77 
1 78 
1 79 
1 80 
1 81 
1 82 
1 83 
1 84 
1 85 
1 86 
1 87 
1 88 
1 89 
1 90 
1 91 
1 92 
1 93 
1 94 
1 95 
1 96 
1 97 
1 98 
1 99 

POINT_DATA 100
FIELD FieldData 7
id 1 100 int
1 2 3 4 5 6 7 8 9 
10 11 12 13 14 15 16 17 18 
19 20 21 22 23 24 25 26 27 
28 29 30 31 32 33 34 35 36 
37 38 39 40 41 42 43 44 45 
46 47 48 49 50 51 52 53 54 
55 56 57 58 59 60 61 62 63 
64 65 66 67 68 69 70 71 72 
73 74 75 76 77 78 79 80 81 
82 83 84 85 86 87 88 89 90 
91 92 93 94 95 96 97 98 99 
100 
mol 1 100 int
1 1 1 1 1 1 1 1 1 
1 1 1 1 1 1 1 1 1 
1 1 1 1 1 1 1 1 1 
1 1 1 1 1 1 1 1 1 
1 1 1 1 1 1 1 1 1 
1 1 1 1 1 2 2 2 2 
2 2 2 2 2 2 2 2 2 
2 2 2 2 2 2 2 2 2 
2 2 2 2 2 2 2 2 2 
2 2 2 2 2 2 2 2 2 
2 2 2 2 2 2 2 2 2 
2 
type 1 100 int
1 1 1 1 1 1 1 1 1 
1 1 1 1 1 1 1 1 1 
1 1 1 1 1 1 1 1 1 
1 1 1 1 1 1 1 1 1 
1 1 1 1 1 1 1 1 1 
1 1 1 1 1 1 1 1 1 
1 1 1 1 1 1 1 1 1 
1 1 1 1 1 1 1 1 1 
1 1 1 1 1 1 1 1 1 
1 1 1 1 1 1 1 1 1 
1 1 1 1 1 1 1 1 1 
1 
v 3 100 double
0.052322710277 -0.14458976194 -0.041244847357 0.047001251779 -0.10964306588 0.023076959337 0.047987828798 -0.09717701268 0.079796180335 
0.067470157299 -0.20270580245 -0.074477628631 0.070980609792 -0.22642481434 -0.11932040223 0.063135248556 -0.17456680438 -0.023272212426 
0.057320397236 -0.13621596346 0.047607480652 0.065582117485 -0.21731792521 -0.14952680522 0.045255611918 -0.075279807951 0.12714925342 
0.038674348278 -0.070951091809 0.0657824319 0.072591304483 -0.22891238551 -0.10947623947 0.064576239207 -0.17842286764 -0.020373395204 
0.049355697623 -0.089376876169 0.12407324963 0.073435205632 -0.24614696501 -0.16204281548 0.050199595584 -0.087337627552 0.14134220732 
0.068132975673 -0.20474049561 -0.074089952966 0.086555539124 -0.27253183937 -0.10403565664 0.057597913118 -0.099843212488 0.1826472709 
0.022282300137 -0.035940878827 0.00072364686935 0.048157177521 -0.095807060456 0.086742656474 0.018382660514 -0.030584264497 -0.025523202497 
0.077361698493 -0.26056147936 -0.1683014001 0.046515841167 -0.16030536814 -0.16617264967 0.078456079787 -0.25163846087 -0.12315765107 
0.050823878414 -0.16011287748 -0.11503814204 0.060738679973 -0.13546569305 0.090346066065 0.080733480897 -0.23793822622 -0.046854041288 
0.09010472943 -0.28333151007 -0.10161377639 0.076498446992 -0.24978636547 -0.13936619103 0.080675512577 -0.21876995171 0.021920399901 
0.07452553569 -0.23617220896 -0.11313569754 0.065316331709 -0.2317131417 -0.20479725351 0.018979964268 -0.017206797443 0.02994089758 
0.068483700362 -0.23784529691 -0.18993363183 0.037676188578 -0.047574177741 0.13879874773 0.043699065685 -0.14873029373 -0.15721011501 
0.069963209137 -0.20950789579 -0.069936092604 0.078425230995 -0.26080255776 -0.156723428 0.060715193543 -0.16014677496 0.00064322205512 
0.030004201244 -0.033945323399 0.098359633716 0.042920547638 -0.10836015392 -0.020050128208 0.058580568148 -0.20196758141 -0.17587912085 
0.088093203347 -0.26336344156 -0.052813008465 0.043148039387 -0.1454327922 -0.15171338663 0.06619066316 -0.14341397051 0.12537676262 
0.055043207189 -0.13064341918 0.041138111423 0.046034127395 -0.13492373614 -0.079846190536 0.034339398466 -0.04281163569 0.11698902691 
0.075758673135 -0.23504454071 -0.094612617793 0.056156752927 -0.095986645365 0.17974829442 0.087401986781 -0.11817886379 -0.036897876121 
0.075425102953 -0.094070894091 0.038967546756 0.074172625543 -0.088039705261 0.10681248853 0.11495275972 -0.16452425366 -0.055906829689 
0.12226997685 -0.18035805145 -0.12111946536 0.10531361304 -0.14510342918 0.0054651389927 0.092167698831 -0.11865162775 0.088577177533 
0.11623235423 -0.17130114154 -0.13571966423 0.06743380742 -0.073554210627 0.1652198097 0.058282642237 -0.064382786453 0.065326793427 
0.12629381972 -0.18434035562 -0.07633464454 0.10819893908 -0.14894010751 0.020832132361 0.07208617589 -0.083636297259 0.12350460222 
0.13072151753 -0.19488358155 -0.13221638351 0.072923615327 -0.083461120724 0.149961199 0.11725983685 -0.16701292975 -0.033735452317 
0.1471401929 -0.21985194141 -0.098299714726 0.083274338829 -0.097174623134 0.20594286681 0.035803032021 -0.031065080981 0.0040798005242 
0.075310481633 -0.088184192303 0.13623123781 0.031786682873 -0.025275166 -0.0096423092038 0.13796604439 -0.20667475278 -0.13046544604 
0.086150131567 -0.12292873473 -0.15304913999 0.13386211715 -0.20045751961 -0.13934809385 0.088970881018 -0.12563002644 -0.12011266182 
0.092408066185 -0.11929033183 0.084411177074 0.132872166 -0.19435555107 -0.062938583224 0.15148811307 -0.22816071723 -0.1182788592 
0.13502296817 -0.19989393531 -0.097199456237 0.13014581879 -0.18420661599 0.033888381276 0.13034795705 -0.19052052363 -0.068214567897 
0.11892802453 -0.17925156812 -0.19588159855 0.030244742364 -0.018569399798 0.061605170791 0.12410906937 -0.18593120529 -0.16470848989 
0.054962408658 -0.051786048957 0.18729159659 0.080637676034 -0.11373043126 -0.15051982189 0.12043458217 -0.17152411704 -0.021771057387 
0.13795459345 -0.20702883038 -0.136829802 0.10121313264 -0.13562497603 0.052342341272 0.042593951904 -0.03625834819 0.10573437286 
0.072878352645 -0.090944705787 0.020961278777 0.10729369061 -0.15730763992 -0.14735364141 0.14619239154 -0.21559436448 -0.05218959295 
0.08033308762 -0.11195695618 -0.12878488147 0.10131148214 -0.12963085509 0.15740733398 0.089567822871 -0.11403597523 0.094504750317 
0.078783375536 -0.10705831121 -0.088599542137 0.048643355113 -0.044961663154 0.12669992714 0.13147486457 -0.19101999279 -0.045161535878 
0.080388752767 -0.093337520678 0.19057582615 
f 3 100 double
0 0 0 0 0 0 0 0 0 
0 0 0 0 0 0 0 0 0 
0 0 0 0 0 0 0 0 0 
0 0 0 0 0 0 0 0 0 
0 0 0 0 0 0 0 0 0 
0 0 0 0 0 0 0 0 0 
-0.034928312195 -0.034146803402 0.097693217274 0 0 0 0 0 0 
0 0 0 0 0 0 0 0 0 
0 0 0 0 0 0 0 0 0 
0 0 0 0 0 0 0 0 0 
0 0 0 0 0 0 0 0 0 
0 0 0 0 0 0 0 0 0 
0 0 0 0 0 0 0 0 0 
0 0 0 0 0 0 0 0 0 
0 0 0 0 0 0 0 0 0 
0 0 0 0 0 0 0 0 0 
0 0 0 0 0 0 0 0 0 
0 0 0 0 0 0 0 0 0 
0 0 0 0 0 0 0 0 0 
0 0 0 0 0 0 0 0 0 
0 0 0 0 0 0 0 0 0 
0 0 0 0 0 0 0 0 0 
0 0 0 0 0 0 0 0 0 
0 0 0 -0.38597808209 -0.13168575112 1.4571708434 0 0 0 
0 0 0 0 0 0 0 0 0 
0 0 0 0 0 0 0 0 0 
0 0 0 0 0 0 0 0 0 
0 0 0 0 0 0 0 0 0 
0 0 0 0 0 0 0 0 0 
0 0 0 0 0 0 0 0 0 
0 0 0 0 0 0 0 0 0 
0 0 0 0 0 0 0 0 0 
0 0 0 0 0 0 0 0 0 
0 0 0 
radius 1 100 double
0.010434 0.00981478 0.00892069 0.00845937 0.00731974 0.00728422 0.00643447 0.00619172 0.00585956 
0.00577566 0.00537241 0.00522549 0.00513666 0.00473175 0.00466912 0.00444866 0.00441894 0.00400812 
0.00385622 0.00379948 0.00370243 0.00366942 0.00364039 0.00363813 0.00363644 0.00358692 0.0035797 
0.00341284 0.00337012 0.00336273 0.00332772 0.00323261 0.00320584 0.00320311 0.00318808 0.00313116 
0.00306026 0.00305632 0.00304383 0.00300958 0.00300137 0.00298994 0.0029567 0.00295111 0.00290849 
0.00284552 0.00282964 0.0028207 0.00281971 0.00281899 0.010434 0.00981478 0.00892069 0.00845937 
0.00731974 0.00728422 0.00643447 0.00619172 0.00585956 0.00577566 0.00537241 0.00522549 0.00513666 
0.00473175 0.00466912 0.00444866 0.00441894 0.00400812 0.00385622 0.00379948 0.00370243 0.00366942 
0.00364039 0.00363813 0.00363644 0.00358692 0.0035797 0.00341284 0.00337012 0.00336273 0.00332772 
0.00323261 0.00320584 0.00320311 0.00318808 0.00313116 0.00306026 0.00305632 0.00304383 0.00300958 
0.00300137 0.00298994 0.0029567 0.00295111 0.00290849 0.00284552 0.00282964 0.0028207 0.00281971 
0.00281899 
omega 3 100 double
11.276511602 3.4899022103 -0.96317355684 11.276511602 3.4899022103 -0.96317355684 11.276511602 3.4899022103 -0.96317355684 
11.276511602 3.4899022103 -0.96317355684 11.276511602 3.4899022103 -0.96317355684 11.276511602 3.4899022103 -0.96317355684 
11.276511602 3.4899022103 -0.96317355684 11.276511602 3.4899022103 -0.96317355684 11.276511602 3.4899022103 -0.96317355684 
11.276511602 3.4899022103 -0.96317355684 11.276511602 3.4899022103 -0.96317355684 11.276511602 3.4899022103 -0.96317355684 
11.276511602 3.4899022103 -0.96317355684 11.276511602 3.4899022103 -0.96317355684 11.276511602 3.4899022103 -0.96317355684 
11.276511602 3.4899022103 -0.96317355684 11.276511602 3.4899022103 -0.96317355684 11.276511602 3.4899022103 -0.96317355684 
11.276511602 3.4899022103 -0.96317355684 11.276511602 3.4899022103 -0.96317355684 11.276511602 3.4899022103 -0.96317355684 
11.276511602 3.4899022103 -0.96317355684 11.276511602 3.4899022103 -0.96317355684 11.276511602 3.4899022103 -0.96317355684 
11.276511602 3.4899022103 -0.96317355684 11.276511602 3.4899022103 -0.96317355684 11.276511602 3.4899022103 -0.96317355684 
11.276511602 3.4899022103 -0.96317355684 11.276511602 3.4899022103 -0.96317355684 11.276511602 3.4899022103 -0.96317355684 
11.276511602 3.4899022103 -0.96317355684 11.276511602 3.4899022103 -0.96317355684 11.276511602 3.4899022103 -0.96317355684 
11.276511602 3.4899022103 -0.96317355684 11.276511602 3.4899022103 -0.96317355684 11.276511602 3.4899022103 -0.96317355684 
11.276511602 3.4899022103 -0.96317355684 11.276511602 3.4899022103 -0.96317355684 11.276511602 3.4899022103 -0.96317355684 
11.276511602 3.4899022103 -0.96317355684 11.276511602 3.4899022103 -0.96317355684 11.276511602 3.4899022103 -0.96317355684 
11.276511602 3.4899022103 -0.96317355684 11.276511602 3.4899022103 -0.96317355684 11.276511602 3.4899022103 -0.96317355684 
11.276511602 3.4899022103 -0.96317355684 11.276511602 3.4899022103 -0.96317355684 11.276511602 3.4899022103 -0.96317355684 
11.276511602 3.4899022103 -0.96317355684 11.276511602 3.4899022103 -0.96317355684 9.3476928242 5.6937112919 -0.33358527931 
9.3476928242 5.6937112919 -0.33358527931 9.3476928242 5.6937112919 -0.33358527931 9.3476928242 5.6937112919 -0.33358527931 
9.3476928242 5.6937112919 -0.33358527931 9.3476928242 5.6937112919 -0.33358527931 9.3476928242 5.6937112919 -0.33358527931 
9.3476928242 5.6937112919 -0.33358527931 9.3476928242 5.6937112919 -0.33358527931 9.3476928242 5.6937112919 -0.33358527931 
9.3476928242 5.6937112919 -0.33358527931 9.3476928242 5.6937112919 -0.33358527931 9.3476928242 5.6937112919 -0.33358527931 
9.3476928242 5.6937112919 -0.33358527931 9.3476928242 5.6937112919 -0.33358527931 9.3476928242 5.6937112919 -0.33358527931 
9.3476928242 5.6937112919 -0.33358527931 9.3476928242 5.6937112919 -0.33358527931 9.3476928242 5.6937112919 -0.33358527931 
9.3476928242 5.6937112919 -0.33358527931 9.3476928242 5.6937112919 -0.33358527931 9.3476928242 5.6937112919 -0.33358527931 
9.3476928242 5.6937112919 -0.33358527931 9.3476928242 5.6937112919 -0.33358527931 9.3476928242 5.6937112919 -0.33358527931 
9.3476928242 5.6937112919 -0.33358527931 9.3476928242 5.6937112919 -0.33358527931 9.3476928242 5.6937112919 -0.33358527931 
9.3476928242 5.6937112919 -0.33358527931 9.3476928242 5.6937112919 -0.33358527931 9.3476928242 5.6937112919 -0.33358527931 
9.3476928242 5.6937112919 -0.33358527931 9.3476928242 5.6937112919 -0.33358527931 9.3476928242 5.6937112919 -0.33358527931 
9.3476928242 5.6937112919 -0.33358527931 9.3476928242 5.6937112919 -0.33358527931 9.3476928242 5.6937112919 -0.33358527931 
9.3476928242 5.6937112919 -0.33358527931 9.3476928242 5.6937112919 -0.33358527931 9.3476928242 5.6937112919 -0.33358527931 
9.3476928242 5.6937112919 -0.33358527931 9.3476928242 5.6937112919 -0.33358527931 9.3476928242 5.6937112919 -0.33358527931 
9.3476928242 5.6937112919 -0.33358527931 9.3476928242 5.6937112919 -0.33358527931 9.3476928242 5.6937112919 -0.33358527931 
9.3476928242 5.6937112919 -0.33358527931 9.3476928242 5.6937112919 -0.33358527931 9.3476928242 5.6937112919 -0.33358527931 
9.3476928242 5.6937112919 -0.33358527931 
