# vtk DataFile Version 4.1
Generated by LIGGGHTS
ASCII
DATASET POLYDATA
POINTS 100 float
-0.11677 -0.150192 0.0124977 -0.126609 -0.146711 0.0118566 -0.136351 -0.144552 0.0128424 
-0.123963 -0.156934 0.016474 -0.110318 -0.157324 0.0166909 -0.132323 -0.154309 0.0159509 
-0.142902 -0.1504 0.0152508 -0.116486 -0.161337 0.0151541 -0.145112 -0.142564 0.0127279 
-0.119496 -0.139846 0.00979009 -0.130274 -0.162525 0.0177233 -0.139489 -0.156325 0.0165478 
-0.124096 -0.13703 0.0132557 -0.125256 -0.165901 0.0173856 -0.130299 -0.137391 0.0137858 
-0.136013 -0.160547 0.0169685 -0.116906 -0.15952 0.0211663 -0.141645 -0.13778 0.0164062 
-0.115957 -0.142994 0.00476438 -0.149141 -0.147738 0.0132778 -0.120823 -0.146418 0.00362844 
-0.129641 -0.168184 0.0185014 -0.11324 -0.159893 0.00981795 -0.102894 -0.156249 0.0184715 
-0.10685 -0.153797 0.011229 -0.120139 -0.140111 0.0159281 -0.10793 -0.151047 0.0198426 
-0.105097 -0.156163 0.0218311 -0.133741 -0.166681 0.0186151 -0.127618 -0.150637 0.0209064 
-0.1367 -0.164969 0.0183791 -0.110327 -0.164504 0.0144668 -0.133007 -0.145058 0.00456299 
-0.120514 -0.16651 0.015704 -0.150833 -0.142412 0.0109396 -0.109996 -0.15782 0.00905187 
-0.140737 -0.161764 0.0176166 -0.120613 -0.16456 0.0186473 -0.146191 -0.156001 0.0158597 
-0.124995 -0.137611 0.00787604 -0.137322 -0.153387 0.010685 -0.122252 -0.164713 0.0132086 
-0.11744 -0.155183 0.0220151 -0.119203 -0.159997 0.00918888 -0.143696 -0.144494 0.0182922 
-0.149087 -0.152588 0.0147475 -0.106565 -0.150012 0.010227 -0.127856 -0.137221 0.009267 
-0.140461 -0.164531 0.0189605 -0.13448 -0.135765 0.0158093 -0.0468637 -0.120342 0.0121949 
-0.057004 -0.117796 0.0120217 -0.0668634 -0.116619 0.013414 -0.0532402 -0.127891 0.0161141 
-0.0396203 -0.126983 0.0158708 -0.0618237 -0.12606 0.0159745 -0.0727424 -0.123157 0.0157845 
-0.0454336 -0.131504 0.0143668 -0.075771 -0.115476 0.0136684 -0.0506498 -0.110206 0.0100175 
-0.058946 -0.134105 0.0173301 -0.0687412 -0.128774 0.016718 -0.0553652 -0.107981 0.0137467 
-0.053648 -0.13697 0.016687 -0.0614834 -0.108955 0.0144624 -0.06487 -0.132657 0.0168465 
-0.0458042 -0.129972 0.020461 -0.0726396 -0.110529 0.0174313 -0.0470147 -0.112804 0.00475073 
-0.0792716 -0.121028 0.0141296 -0.0515746 -0.11663 0.00362969 -0.0577551 -0.139703 0.0178471 
-0.0425351 -0.129549 0.00899391 -0.032271 -0.125273 0.0174531 -0.036701 -0.122929 0.0104533 
-0.0510412 -0.110771 0.0161564 -0.0377214 -0.120634 0.019206 -0.0343478 -0.125529 0.0208832 
-0.0619714 -0.138605 0.0181575 -0.0573087 -0.122151 0.0209253 -0.0650851 -0.137176 0.0180904 
-0.039033 -0.134039 0.0133464 -0.0637901 -0.116479 0.00501635 -0.0489341 -0.137057 0.014828 
-0.0815427 -0.115802 0.0120751 -0.0395306 -0.127147 0.00821121 -0.0694314 -0.134345 0.0175957 
-0.049109 -0.135241 0.0178528 -0.0754645 -0.129066 0.0162624 -0.0564005 -0.108435 0.00837938 
-0.0670754 -0.125416 0.0109174 -0.0509228 -0.135338 0.0124686 -0.0467142 -0.125742 0.0215094 
-0.0484801 -0.130199 0.00855506 -0.0739781 -0.117477 0.0190972 -0.0787082 -0.125904 0.0153903 
-0.0368101 -0.119098 0.00960347 -0.0592333 -0.108375 0.00987784 -0.0688471 -0.137123 0.0188117 
-0.0657221 -0.107816 0.0166877 
VERTICES 100 200
1 0 
1 1 
1 2 
1 3 
1 4 
1 5 
1 6 
1 7 
1 8 
1 9 
1 10 
1 11 
1 12 
1 13 
1 14 
1 15 
1 16 
1 17 
1 18 
1 19 
1 20 
1 21 
1 22 
1 23 
1 24 
1 25 
1 26 
1 27 
1 28 
1 29 
1 30 
1 31 
1 32 
1 33 
1 34 
1 35 
1 36 
1 37 
1 38 
1 39 
1 40 
1 41 
1 42 
1 43 
1 44 
1 45 
1 46 
1 47 
1 48 
1 49 
1 50 
1 51 
1 52 
1 53 
1 54 
1 55 
1 56 
1 57 
1 58 
1 59 
1 60 
1 61 
1 62 
1 63 
1 64 
1 65 
1 66 
1 67 
1 68 
1 69 
1 70 
1 71 
1 72 
1 73 
1 74 
1 75 
1 76 
1 77 
1 78 
1 79 
1 80 
1 81 
1 82 
1 83 
1 84 
1 85 
1 86 
1 87 
1 88 
1 89 
1 90 
1 91 
1 92 
1 93 
1 94 
1 95 
1 96 
1 97 
1 98 
1 99 

POINT_DATA 100
FIELD FieldData 7
id 1 100 int
1 2 3 4 5 6 7 8 9 
10 11 12 13 14 15 16 17 18 
19 20 21 22 23 24 25 26 27 
28 29 30 31 32 33 34 35 36 
37 38 39 40 41 42 43 44 45 
46 47 48 49 50 51 52 53 54 
55 56 57 58 59 60 61 62 63 
64 65 66 67 68 69 70 71 72 
73 74 75 76 77 78 79 80 81 
82 83 84 85 86 87 88 89 90 
91 92 93 94 95 96 97 98 99 
100 
mol 1 100 int
1 1 1 1 1 1 1 1 1 
1 1 1 1 1 1 1 1 1 
1 1 1 1 1 1 1 1 1 
1 1 1 1 1 1 1 1 1 
1 1 1 1 1 1 1 1 1 
1 1 1 1 1 2 2 2 2 
2 2 2 2 2 2 2 2 2 
2 2 2 2 2 2 2 2 2 
2 2 2 2 2 2 2 2 2 
2 2 2 2 2 2 2 2 2 
2 2 2 2 2 2 2 2 2 
2 
type 1 100 int
1 1 1 1 1 1 1 1 1 
1 1 1 1 1 1 1 1 1 
1 1 1 1 1 1 1 1 1 
1 1 1 1 1 1 1 1 1 
1 1 1 1 1 1 1 1 1 
1 1 1 1 1 1 1 1 1 
1 1 1 1 1 1 1 1 1 
1 1 1 1 1 1 1 1 1 
1 1 1 1 1 1 1 1 1 
1 1 1 1 1 1 1 1 1 
1 1 1 1 1 1 1 1 1 
1 
v 3 100 double
-0.0037876964436 -0.17436017876 -0.050037692416 0.00042227210635 -0.15361779025 -0.0020299269305 0.0031729059063 -0.15497056107 0.028114486473 
-0.011666351893 -0.21923721336 -0.14037757464 -0.012123664625 -0.23892395773 -0.14702182278 -0.00849572329 -0.20190536264 -0.10408155029 
-0.0037661357242 -0.17945717525 -0.050218431289 -0.017206862579 -0.21059164369 -0.20061103934 0.0056024766544 -0.14266506526 0.055847216077 
0.0086454099359 -0.1344388121 0.089992116262 -0.018407120049 -0.22836230504 -0.21527013841 -0.010911064383 -0.20116747612 -0.13058835797 
0.012451952189 -0.17560249965 0.12848686257 -0.022587172622 -0.22996341466 -0.2613794859 0.012061867026 -0.17514572165 0.12423360979 
-0.016054017724 -0.21111829725 -0.18797361565 -0.014369797681 -0.29128580803 -0.17602099845 0.011847686735 -0.19660703592 0.12011817901 
0.0042728064393 -0.07089952813 0.047105571464 -0.00069501690125 -0.145145702 -0.013624825206 -4.5846728267e-05 -0.049579911938 0.0013509308624 
-0.025277348205 -0.23964914544 -0.29176392266 -0.01597009865 -0.14249786217 -0.181424486 -0.010624620907 -0.27209130085 -0.13325257227 
-0.0083420194131 -0.16940560649 -0.099726301205 0.0089375601222 -0.21655913063 0.086472691308 -0.0040980886984 -0.28442829189 -0.062476114485 
-0.010180534021 -0.31476826492 -0.1318668925 -0.023420507329 -0.23615028212 -0.27105291918 -0.0034880411686 -0.27461939601 -0.054961742642 
-0.021342111843 -0.22932961416 -0.24763259867 -0.021165293549 -0.20887087025 -0.24401032649 0.0017187112307 -0.047241581087 0.020951727478 
-0.023504374332 -0.21307234014 -0.27008328568 0.0056090679506 -0.11148364564 0.058476226742 -0.013501538334 -0.1361341351 -0.15375004977 
-0.017483289312 -0.21407139176 -0.20393686637 -0.020813355071 -0.25270733955 -0.24373328983 -0.010583231184 -0.18364298893 -0.12554558688 
0.011196901235 -0.10183189264 0.12073037734 -0.0078938734088 -0.12463614016 -0.091126392839 -0.021548762358 -0.17723186315 -0.24563422662 
-0.008958846719 -0.30209434239 -0.11738995085 -0.016161842822 -0.12667861285 -0.18223656434 0.003792996051 -0.21956485017 0.029639133357 
-0.0065028540437 -0.16506296187 -0.079140537549 -0.0037951496154 -0.15622092791 -0.04863246722 0.011816152817 -0.11710688952 0.12628940351 
-0.020746200832 -0.23256377494 -0.24134309759 0.01426301434 -0.19734425948 0.1466248927 0.034781974899 -0.15267140339 -0.060448931894 
0.036449553812 -0.14179865716 0.0017466990176 0.041741270218 -0.15026746412 0.046380336844 0.040294204807 -0.19497743742 -0.13296767038 
0.040332241294 -0.20377513712 -0.16369989044 0.041447498533 -0.18585868283 -0.084269367713 0.043372085415 -0.17410849504 -0.015325389667 
0.031808182951 -0.18040414053 -0.20101696735 0.043510360104 -0.14567657775 0.087682162705 0.036852391456 -0.1228358772 0.07483475764 
0.03865974477 -0.20488356063 -0.19125992912 0.041386243639 -0.18895453668 -0.096137962395 0.050224872954 -0.16425957713 0.11646115358 
0.034210436007 -0.20161500775 -0.24247948702 0.051581534854 -0.16770572976 0.12337251525 0.038425790525 -0.19386659055 -0.15540673737 
0.051843540246 -0.25443295995 -0.18117924831 0.059336606419 -0.19428852349 0.13841371907 0.018437943872 -0.061721003666 0.031989232986 
0.040129921734 -0.1482790658 0.030690824207 0.011690446056 -0.044105109195 -0.00069295163254 0.035411481109 -0.21222022449 -0.26321112601 
0.017000642419 -0.1173579325 -0.18605823359 0.046667119699 -0.22942716577 -0.16540765752 0.027199656456 -0.14020189612 -0.12321280669 
0.05521315461 -0.19739324178 0.069143858123 0.056056794059 -0.24610455387 -0.092074729277 0.056977590058 -0.26948054056 -0.16215505086 
0.037312890548 -0.21236400908 -0.23686887287 0.060024832771 -0.25015962471 -0.050447569071 0.038341327258 -0.20885630697 -0.20987710346 
0.026485962403 -0.17348410839 -0.25158617474 0.016078510875 -0.050470037139 0.038656313692 0.028427735576 -0.1830066593 -0.25800854217 
0.038336195026 -0.12125144908 0.10142176488 0.016672540031 -0.11040430483 -0.1659768986 0.039268156289 -0.1990662136 -0.16199100606 
0.039282984402 -0.21975777587 -0.23532499752 0.039734536367 -0.17758791374 -0.079064709905 0.033352965449 -0.097882819303 0.11410283602 
0.026477095428 -0.11962593739 -0.060284900643 0.022668273533 -0.1525043459 -0.23093503818 0.05871599414 -0.26643797207 -0.12678973605 
0.015091864402 -0.10686831931 -0.17573268001 0.058450056422 -0.21345681083 0.057763839137 0.039788392669 -0.16414633366 -0.030529096236 
0.027899837045 -0.12974022945 -0.076140676043 0.038005779228 -0.11371713822 0.12353433302 0.040601517943 -0.21440611154 -0.19768229654 
0.059397715669 -0.19119208985 0.15028231755 
f 3 100 double
0 0 0 0 0 0 0 0 0 
0 0 0 0 0 0 0 0 0 
0 0 0 0 0 0 0 0 0 
0 0 0 0 0 0 0 0 0 
0 0 0 0 0 0 0 0 0 
0 0 0 0 0 0 0 0 0 
0 0 0 0 0 0 -0.073326143658 -0.057689947123 0.30827452133 
0 0 0 0 0 0 0 0 0 
0 0 0 0 0 0 0 0 0 
0 0 0 0 0 0 0 0 0 
0 0 0 0 0 0 0 0 0 
0 0 0 0 0 0 0 0 0 
0 0 0 0 0 0 0 0 0 
0 0 0 0 0 0 0 0 0 
0 0 0 0 0 0 0 0 0 
0 0 0 0 0 0 0 0 0 
0 0 0 0 0 0 0 0 0 
0 0 0 0 0 0 0 0 0 
0 0 0 0 0 0 0 0 0 
0 0 0 0 0 0 0 0 0 
0 0 0 0 0 0 0 0 0 
0 0 0 0 0 0 0 0 0 
0 0 0 0 0 0 0 0 0 
0 0 0 -0.066217055974 -0.075731596134 0.32331456361 0 0 0 
0 0 0 0 0 0 0 0 0 
0 0 0 0 0 0 0 0 0 
0 0 0 0 0 0 0 0 0 
0 0 0 0 0 0 0 0 0 
0 0 0 0 0 0 0 0 0 
0 0 0 0 0 0 0 0 0 
0 0 0 0 0 0 0 0 0 
0 0 0 0 0 0 0 0 0 
0 0 0 0 0 0 0 0 0 
0 0 0 
radius 1 100 double
0.010434 0.00981478 0.00892069 0.00845937 0.00731974 0.00728422 0.00643447 0.00619172 0.00585956 
0.00577566 0.00537241 0.00522549 0.00513666 0.00473175 0.00466912 0.00444866 0.00441894 0.00400812 
0.00385622 0.00379948 0.00370243 0.00366942 0.00364039 0.00363813 0.00363644 0.00358692 0.0035797 
0.00341284 0.00337012 0.00336273 0.00332772 0.00323261 0.00320584 0.00320311 0.00318808 0.00313116 
0.00306026 0.00305632 0.00304383 0.00300958 0.00300137 0.00298994 0.0029567 0.00295111 0.00290849 
0.00284552 0.00282964 0.0028207 0.00281971 0.00281899 0.010434 0.00981478 0.00892069 0.00845937 
0.00731974 0.00728422 0.00643447 0.00619172 0.00585956 0.00577566 0.00537241 0.00522549 0.00513666 
0.00473175 0.00466912 0.00444866 0.00441894 0.00400812 0.00385622 0.00379948 0.00370243 0.00366942 
0.00364039 0.00363813 0.00363644 0.00358692 0.0035797 0.00341284 0.00337012 0.00336273 0.00332772 
0.00323261 0.00320584 0.00320311 0.00318808 0.00313116 0.00306026 0.00305632 0.00304383 0.00300958 
0.00300137 0.00298994 0.0029567 0.00295111 0.00290849 0.00284552 0.00282964 0.0028207 0.00281971 
0.00281899 
omega 3 100 double
13.507639523 0.10068437791 -1.2280340787 13.507639523 0.10068437791 -1.2280340787 13.507639523 0.10068437791 -1.2280340787 
13.507639523 0.10068437791 -1.2280340787 13.507639523 0.10068437791 -1.2280340787 13.507639523 0.10068437791 -1.2280340787 
13.507639523 0.10068437791 -1.2280340787 13.507639523 0.10068437791 -1.2280340787 13.507639523 0.10068437791 -1.2280340787 
13.507639523 0.10068437791 -1.2280340787 13.507639523 0.10068437791 -1.2280340787 13.507639523 0.10068437791 -1.2280340787 
13.507639523 0.10068437791 -1.2280340787 13.507639523 0.10068437791 -1.2280340787 13.507639523 0.10068437791 -1.2280340787 
13.507639523 0.10068437791 -1.2280340787 13.507639523 0.10068437791 -1.2280340787 13.507639523 0.10068437791 -1.2280340787 
13.507639523 0.10068437791 -1.2280340787 13.507639523 0.10068437791 -1.2280340787 13.507639523 0.10068437791 -1.2280340787 
13.507639523 0.10068437791 -1.2280340787 13.507639523 0.10068437791 -1.2280340787 13.507639523 0.10068437791 -1.2280340787 
13.507639523 0.10068437791 -1.2280340787 13.507639523 0.10068437791 -1.2280340787 13.507639523 0.10068437791 -1.2280340787 
13.507639523 0.10068437791 -1.2280340787 13.507639523 0.10068437791 -1.2280340787 13.507639523 0.10068437791 -1.2280340787 
13.507639523 0.10068437791 -1.2280340787 13.507639523 0.10068437791 -1.2280340787 13.507639523 0.10068437791 -1.2280340787 
13.507639523 0.10068437791 -1.2280340787 13.507639523 0.10068437791 -1.2280340787 13.507639523 0.10068437791 -1.2280340787 
13.507639523 0.10068437791 -1.2280340787 13.507639523 0.10068437791 -1.2280340787 13.507639523 0.10068437791 -1.2280340787 
13.507639523 0.10068437791 -1.2280340787 13.507639523 0.10068437791 -1.2280340787 13.507639523 0.10068437791 -1.2280340787 
13.507639523 0.10068437791 -1.2280340787 13.507639523 0.10068437791 -1.2280340787 13.507639523 0.10068437791 -1.2280340787 
13.507639523 0.10068437791 -1.2280340787 13.507639523 0.10068437791 -1.2280340787 13.507639523 0.10068437791 -1.2280340787 
13.507639523 0.10068437791 -1.2280340787 13.507639523 0.10068437791 -1.2280340787 12.200098067 3.0703771389 -0.86385581999 
12.200098067 3.0703771389 -0.86385581999 12.200098067 3.0703771389 -0.86385581999 12.200098067 3.0703771389 -0.86385581999 
12.200098067 3.0703771389 -0.86385581999 12.200098067 3.0703771389 -0.86385581999 12.200098067 3.0703771389 -0.86385581999 
12.200098067 3.0703771389 -0.86385581999 12.200098067 3.0703771389 -0.86385581999 12.200098067 3.0703771389 -0.86385581999 
12.200098067 3.0703771389 -0.86385581999 12.200098067 3.0703771389 -0.86385581999 12.200098067 3.0703771389 -0.86385581999 
12.200098067 3.0703771389 -0.86385581999 12.200098067 3.0703771389 -0.86385581999 12.200098067 3.0703771389 -0.86385581999 
12.200098067 3.0703771389 -0.86385581999 12.200098067 3.0703771389 -0.86385581999 12.200098067 3.0703771389 -0.86385581999 
12.200098067 3.0703771389 -0.86385581999 12.200098067 3.0703771389 -0.86385581999 12.200098067 3.0703771389 -0.86385581999 
12.200098067 3.0703771389 -0.86385581999 12.200098067 3.0703771389 -0.86385581999 12.200098067 3.0703771389 -0.86385581999 
12.200098067 3.0703771389 -0.86385581999 12.200098067 3.0703771389 -0.86385581999 12.200098067 3.0703771389 -0.86385581999 
12.200098067 3.0703771389 -0.86385581999 12.200098067 3.0703771389 -0.86385581999 12.200098067 3.0703771389 -0.86385581999 
12.200098067 3.0703771389 -0.86385581999 12.200098067 3.0703771389 -0.86385581999 12.200098067 3.0703771389 -0.86385581999 
12.200098067 3.0703771389 -0.86385581999 12.200098067 3.0703771389 -0.86385581999 12.200098067 3.0703771389 -0.86385581999 
12.200098067 3.0703771389 -0.86385581999 12.200098067 3.0703771389 -0.86385581999 12.200098067 3.0703771389 -0.86385581999 
12.200098067 3.0703771389 -0.86385581999 12.200098067 3.0703771389 -0.86385581999 12.200098067 3.0703771389 -0.86385581999 
12.200098067 3.0703771389 -0.86385581999 12.200098067 3.0703771389 -0.86385581999 12.200098067 3.0703771389 -0.86385581999 
12.200098067 3.0703771389 -0.86385581999 12.200098067 3.0703771389 -0.86385581999 12.200098067 3.0703771389 -0.86385581999 
12.200098067 3.0703771389 -0.86385581999 
