# vtk DataFile Version 4.1
Generated by LIGGGHTS
ASCII
DATASET POLYDATA
POINTS 100 float
-0.120171 -0.140424 0.0167057 -0.129393 -0.13936 0.0118925 -0.138984 -0.138364 0.00914385 
-0.128358 -0.144374 0.0222175 -0.115256 -0.14273 0.0256832 -0.136209 -0.14372 0.0183468 
-0.146116 -0.14245 0.0130624 -0.120936 -0.147651 0.025568 -0.147348 -0.138027 0.00588142 
-0.121775 -0.134188 0.00774175 -0.134949 -0.148912 0.0251515 -0.143344 -0.145924 0.0184181 
-0.127025 -0.130512 0.00763696 -0.130124 -0.15112 0.0280732 -0.133162 -0.131313 0.00686764 
-0.140231 -0.148559 0.0220856 -0.122844 -0.142695 0.0289478 -0.144806 -0.131584 0.00655277 
-0.117154 -0.139198 0.00662277 -0.151542 -0.142344 0.00854068 -0.121664 -0.143239 0.00674646 
-0.134718 -0.152855 0.0293258 -0.116374 -0.14924 0.0213543 -0.108518 -0.139827 0.0280525 
-0.11038 -0.142711 0.0201577 -0.123996 -0.13084 0.0124334 -0.113571 -0.135559 0.0248038 
-0.111512 -0.138058 0.0300645 -0.138658 -0.152144 0.0275785 -0.132838 -0.137235 0.0209451 
-0.141399 -0.151321 0.0256939 -0.114913 -0.149748 0.0283524 -0.133624 -0.143235 0.00389612 
-0.12513 -0.151968 0.0282273 -0.152402 -0.139734 0.00314262 -0.112978 -0.147616 0.020239 
-0.144997 -0.149772 0.0222586 -0.125928 -0.148686 0.0292612 -0.149625 -0.146972 0.0161928 
-0.126516 -0.134288 0.00369111 -0.139639 -0.146785 0.0126536 -0.126103 -0.152256 0.0248442 
-0.123444 -0.138822 0.0268379 -0.121969 -0.150494 0.0196002 -0.147485 -0.136064 0.0116102 
-0.152025 -0.145312 0.0126202 -0.109726 -0.140265 0.0171579 -0.129626 -0.133535 0.00387092 
-0.145167 -0.151132 0.0250263 -0.137671 -0.12938 0.00648146 -0.0515544 -0.112223 0.0160746 
-0.0609258 -0.111273 0.0115345 -0.0706169 -0.110621 0.00904684 -0.0593616 -0.117211 0.0212874 
-0.0463136 -0.11509 0.0246992 -0.0673198 -0.116676 0.0176226 -0.0773979 -0.115519 0.0126448 
-0.0516813 -0.120326 0.0241781 -0.0790546 -0.110493 0.00596333 -0.0537325 -0.105243 0.00780689 
-0.0655959 -0.122427 0.0238521 -0.0743024 -0.119324 0.0175819 -0.0592003 -0.101915 0.00815188 
-0.0605822 -0.124603 0.0264634 -0.0652911 -0.103024 0.00740025 -0.0709545 -0.122107 0.0209186 
-0.0538175 -0.115861 0.0280668 -0.0769004 -0.104 0.00723844 -0.048837 -0.109814 0.00612046 
-0.0829165 -0.11531 0.00824026 -0.0530858 -0.114126 0.00590734 -0.0650325 -0.126741 0.027606 
-0.0471219 -0.121197 0.0197569 -0.0397179 -0.112015 0.0272442 -0.041569 -0.114214 0.0191294 
-0.0560541 -0.102524 0.0128443 -0.045093 -0.107775 0.0245177 -0.0427715 -0.110647 0.0294691 
-0.0690453 -0.126111 0.0259995 -0.0642991 -0.11028 0.0208062 -0.0718718 -0.125282 0.0242491 
-0.0454816 -0.122303 0.0266455 -0.065082 -0.114597 0.00325555 -0.0555431 -0.125143 0.0264551 
-0.0840519 -0.112237 0.003145 -0.0438577 -0.119259 0.0187581 -0.0756321 -0.123631 0.0210421 
-0.0565187 -0.122037 0.0278251 -0.080553 -0.120543 0.0153594 -0.0585445 -0.105241 0.00383989 
-0.0706767 -0.119373 0.011704 -0.0565695 -0.125156 0.0230755 -0.0547005 -0.111844 0.0263654 
-0.0526659 -0.122623 0.0179719 -0.079189 -0.109121 0.0118615 -0.0831271 -0.118692 0.0120085 
-0.0411312 -0.111447 0.0163803 -0.0616907 -0.104709 0.00414198 -0.0756574 -0.125267 0.0236617 
-0.0699178 -0.101352 0.00727905 
VERTICES 100 200
1 0 
1 1 
1 2 
1 3 
1 4 
1 5 
1 6 
1 7 
1 8 
1 9 
1 10 
1 11 
1 12 
1 13 
1 14 
1 15 
1 16 
1 17 
1 18 
1 19 
1 20 
1 21 
1 22 
1 23 
1 24 
1 25 
1 26 
1 27 
1 28 
1 29 
1 30 
1 31 
1 32 
1 33 
1 34 
1 35 
1 36 
1 37 
1 38 
1 39 
1 40 
1 41 
1 42 
1 43 
1 44 
1 45 
1 46 
1 47 
1 48 
1 49 
1 50 
1 51 
1 52 
1 53 
1 54 
1 55 
1 56 
1 57 
1 58 
1 59 
1 60 
1 61 
1 62 
1 63 
1 64 
1 65 
1 66 
1 67 
1 68 
1 69 
1 70 
1 71 
1 72 
1 73 
1 74 
1 75 
1 76 
1 77 
1 78 
1 79 
1 80 
1 81 
1 82 
1 83 
1 84 
1 85 
1 86 
1 87 
1 88 
1 89 
1 90 
1 91 
1 92 
1 93 
1 94 
1 95 
1 96 
1 97 
1 98 
1 99 

POINT_DATA 100
FIELD FieldData 7
id 1 100 int
1 2 3 4 5 6 7 8 9 
10 11 12 13 14 15 16 17 18 
19 20 21 22 23 24 25 26 27 
28 29 30 31 32 33 34 35 36 
37 38 39 40 41 42 43 44 45 
46 47 48 49 50 51 52 53 54 
55 56 57 58 59 60 61 62 63 
64 65 66 67 68 69 70 71 72 
73 74 75 76 77 78 79 80 81 
82 83 84 85 86 87 88 89 90 
91 92 93 94 95 96 97 98 99 
100 
mol 1 100 int
1 1 1 1 1 1 1 1 1 
1 1 1 1 1 1 1 1 1 
1 1 1 1 1 1 1 1 1 
1 1 1 1 1 1 1 1 1 
1 1 1 1 1 1 1 1 1 
1 1 1 1 1 2 2 2 2 
2 2 2 2 2 2 2 2 2 
2 2 2 2 2 2 2 2 2 
2 2 2 2 2 2 2 2 2 
2 2 2 2 2 2 2 2 2 
2 2 2 2 2 2 2 2 2 
2 
type 1 100 int
1 1 1 1 1 1 1 1 1 
1 1 1 1 1 1 1 1 1 
1 1 1 1 1 1 1 1 1 
1 1 1 1 1 1 1 1 1 
1 1 1 1 1 1 1 1 1 
1 1 1 1 1 1 1 1 1 
1 1 1 1 1 1 1 1 1 
1 1 1 1 1 1 1 1 1 
1 1 1 1 1 1 1 1 1 
1 1 1 1 1 1 1 1 1 
1 1 1 1 1 1 1 1 1 
1 
v 3 100 double
0.0063881486597 -0.14689143272 -0.18605633351 -0.019177051633 -0.10263236808 -0.12728446456 -0.033182749853 -0.070722343317 -0.066859571057 
0.031476338742 -0.1688155875 -0.16450176754 0.053583333953 -0.21059821631 -0.22825462419 0.010605614967 -0.13255474389 -0.11604698705 
-0.017307019793 -0.084296349669 -0.052116567144 0.045381925835 -0.20116289069 -0.22694566562 -0.051101189602 -0.037479970589 -0.017483635439 
-0.03469965362 -0.088350107819 -0.13797847244 0.041093366536 -0.17705952875 -0.15564909998 0.0076282452753 -0.12205471948 -0.089511770511 
-0.029651516877 -0.07964009392 -0.085307668449 0.054216746936 -0.20274054517 -0.19672735148 -0.035228349811 -0.065412837565 -0.055643996008 
0.024310714977 -0.14977582051 -0.12359029236 0.072083910548 -0.21938086839 -0.18515792323 -0.037422464481 -0.045579926798 0.0084635994821 
-0.048707495058 -0.088438506205 -0.19543010305 -0.042696053221 -0.04768290884 -0.0207892999 -0.054208833829 -0.082293602755 -0.19523030353 
0.05863423982 -0.2035296495 -0.18161887933 0.019133468167 -0.18179992405 -0.26266623516 0.071425842307 -0.23575785767 -0.24816707591 
0.022388017171 -0.18350871513 -0.25568812885 -0.003050262062 -0.11429490606 -0.10447661467 0.059615039557 -0.20768127204 -0.19291174382 
0.085509196188 -0.24375159429 -0.22017844099 0.049851536703 -0.18655418518 -0.15490605006 0.035237267274 -0.15398248002 -0.094525665603 
0.040463238334 -0.17055869902 -0.13427272447 0.057899475587 -0.22782344544 -0.27410276062 -0.070309003805 -0.046113354235 -0.12761738818 
0.053787144413 -0.21136596899 -0.23025151074 -0.069196188692 -0.012591911217 0.00039873662679 0.015321844527 -0.18003130837 -0.2716958058 
0.023427778447 -0.14354599288 -0.10424315567 0.064664666706 -0.21661152461 -0.20521366098 -0.006554795121 -0.098498182801 -0.060580593109 
-0.057741819133 -0.055735380289 -0.11180979656 -0.026267373911 -0.091674532865 -0.11583609683 0.03422737485 -0.18870802308 -0.22655741917 
0.066102661586 -0.20526003678 -0.1575355389 0.0072974724608 -0.16224216918 -0.2388931806 -0.015717143222 -0.073109906023 -0.0044269979407 
-0.024195850261 -0.072465454833 -0.036630527988 0.0091882147708 -0.16574497219 -0.24408520814 -0.055570673486 -0.052088737344 -0.089522958726 
0.036981035361 -0.1606020523 -0.11179785009 -0.034445369964 -0.056079676258 -0.018071726484 -0.0047427738102 -0.13052402052 -0.21795705446 
-0.034916941251 -0.091879054223 -0.1475917417 -0.051400398815 -0.068996949943 -0.077374780831 0.028441790732 -0.16793628423 -0.20405460287 
0.052179324296 -0.19922812831 -0.27538583321 0.0039978349894 -0.13659397399 -0.14640253634 -0.029041618074 -0.094297475525 -0.069680649513 
0.046712452239 -0.19318376887 -0.27981094655 -0.07208773641 -0.041973388853 -0.019647692003 -0.057722867922 -0.06573038676 -0.14930093906 
0.043733215948 -0.1854459199 -0.20249405763 0.0027320603839 -0.13366223002 -0.11993670867 -0.054155514854 -0.066350557636 -0.086776965761 
0.060476986015 -0.20753158152 -0.25304764886 -0.059625452695 -0.058251418386 -0.054400420623 0.024126188039 -0.16073672611 -0.1639854499 
0.07453546452 -0.22247443981 -0.23089141335 -0.061079378818 -0.05264799004 0.016113770298 -0.07077629687 -0.054515260322 -0.21758672989 
-0.058581638072 -0.058145432242 -0.030948631148 -0.0738256112 -0.051273592091 -0.22238295613 0.0673593487 -0.21470564165 -0.23966678173 
0.016655494477 -0.16068010183 -0.31720725346 0.070445522471 -0.22139364504 -0.29594051561 0.015052956322 -0.15790557435 -0.30051477785 
-0.022829807532 -0.10384060895 -0.11264751708 0.053700586727 -0.19828103849 -0.22698649717 0.085919570527 -0.2374661801 -0.26482646774 
0.056792054587 -0.20076970703 -0.20781035963 0.027803435769 -0.16236169076 -0.11721970231 0.045332533738 -0.18616550545 -0.18238515769 
0.062563699777 -0.21460077784 -0.33679494519 -0.091834421444 -0.026257076459 -0.1453643413 0.060218650908 -0.20935594012 -0.2911121083 
-0.091693316822 -0.01829142697 0.00046115807574 0.010665692966 -0.15417473487 -0.32415764243 0.024385727468 -0.15993935295 -0.14432134693 
0.070595381337 -0.21959172035 -0.26051811273 -0.012670622801 -0.11412059062 -0.087337926244 -0.084398217657 -0.033229169919 -0.11692553775 
-0.036812182799 -0.08953661206 -0.14469440676 0.037487861059 -0.18281934919 -0.28431029027 0.064600130674 -0.20897770466 -0.19386743817 
0.0041176465398 -0.1447894468 -0.29096451528 -0.031910916654 -0.087564523246 -0.0081229439855 -0.034509655808 -0.087226171162 -0.055705335651 
-0.0023961861811 -0.13679626991 -0.28204098984 -0.082167217621 -0.034387570183 -0.091647921786 0.04138816708 -0.18020108218 -0.15681122074 
-0.059813897771 -0.055579403509 -0.010352188439 
f 3 100 double
0 0 0 0 0 0 0 0 0 
0 0 0 0 0 0 0 0 0 
0 0 0 0 0 0 0 0 0 
0 0 0 0 0 0 0 0 0 
0 0 0 0 0 0 0 0 0 
0 0 0 0 0 0 0 0 0 
0 0 0 0 0 0 0 0 0 
0 0 0 0 0 0 0 0 0 
0 0 0 0 0 0 0 0 0 
0 0 0 0 0 0 0 0 0 
0 0 0 0 0 0 0 0 0 
0 0 0 0.070136738697 -0.0057460427168 0.14074344208 0 0 0 
0 0 0 0 0 0 0 0 0 
0 0 0 0 0 0 0 0 0 
0 0 0 0 0 0 0 0 0 
0 0 0 0 0 0 0 0 0 
0 0 0 0 0 0 0 0 0 
0 0 0 0 0 0 0 0 0 
0 0 0 0 0 0 0 0 0 
0 0 0 0 0 0 0 0 0 
0 0 0 0 0 0 0 0 0 
0 0 0 0 0 0 0 0 0 
0 0 0 0 0 0 0 0 0 
0 0 0 0 0 0 0 0 0 
0 0 0 0 0 0 0 0 0 
0 0 0 0 0 0 0 0 0 
0 0 0 0 0 0 0 0 0 
0 0 0 0 0 0 0 0 0 
0.064406597248 -0.0035156758789 0.12900495721 0 0 0 0 0 0 
0 0 0 0 0 0 0 0 0 
0 0 0 0 0 0 0 0 0 
0 0 0 0 0 0 0 0 0 
0 0 0 0 0 0 0 0 0 
0 0 0 
radius 1 100 double
0.010434 0.00981478 0.00892069 0.00845937 0.00731974 0.00728422 0.00643447 0.00619172 0.00585956 
0.00577566 0.00537241 0.00522549 0.00513666 0.00473175 0.00466912 0.00444866 0.00441894 0.00400812 
0.00385622 0.00379948 0.00370243 0.00366942 0.00364039 0.00363813 0.00363644 0.00358692 0.0035797 
0.00341284 0.00337012 0.00336273 0.00332772 0.00323261 0.00320584 0.00320311 0.00318808 0.00313116 
0.00306026 0.00305632 0.00304383 0.00300958 0.00300137 0.00298994 0.0029567 0.00295111 0.00290849 
0.00284552 0.00282964 0.0028207 0.00281971 0.00281899 0.010434 0.00981478 0.00892069 0.00845937 
0.00731974 0.00728422 0.00643447 0.00619172 0.00585956 0.00577566 0.00537241 0.00522549 0.00513666 
0.00473175 0.00466912 0.00444866 0.00441894 0.00400812 0.00385622 0.00379948 0.00370243 0.00366942 
0.00364039 0.00363813 0.00363644 0.00358692 0.0035797 0.00341284 0.00337012 0.00336273 0.00332772 
0.00323261 0.00320584 0.00320311 0.00318808 0.00313116 0.00306026 0.00305632 0.00304383 0.00300958 
0.00300137 0.00298994 0.0029567 0.00295111 0.00290849 0.00284552 0.00282964 0.0028207 0.00281971 
0.00281899 
omega 3 100 double
6.2562795247 5.6509310027 -1.5340992731 6.2562795247 5.6509310027 -1.5340992731 6.2562795247 5.6509310027 -1.5340992731 
6.2562795247 5.6509310027 -1.5340992731 6.2562795247 5.6509310027 -1.5340992731 6.2562795247 5.6509310027 -1.5340992731 
6.2562795247 5.6509310027 -1.5340992731 6.2562795247 5.6509310027 -1.5340992731 6.2562795247 5.6509310027 -1.5340992731 
6.2562795247 5.6509310027 -1.5340992731 6.2562795247 5.6509310027 -1.5340992731 6.2562795247 5.6509310027 -1.5340992731 
6.2562795247 5.6509310027 -1.5340992731 6.2562795247 5.6509310027 -1.5340992731 6.2562795247 5.6509310027 -1.5340992731 
6.2562795247 5.6509310027 -1.5340992731 6.2562795247 5.6509310027 -1.5340992731 6.2562795247 5.6509310027 -1.5340992731 
6.2562795247 5.6509310027 -1.5340992731 6.2562795247 5.6509310027 -1.5340992731 6.2562795247 5.6509310027 -1.5340992731 
6.2562795247 5.6509310027 -1.5340992731 6.2562795247 5.6509310027 -1.5340992731 6.2562795247 5.6509310027 -1.5340992731 
6.2562795247 5.6509310027 -1.5340992731 6.2562795247 5.6509310027 -1.5340992731 6.2562795247 5.6509310027 -1.5340992731 
6.2562795247 5.6509310027 -1.5340992731 6.2562795247 5.6509310027 -1.5340992731 6.2562795247 5.6509310027 -1.5340992731 
6.2562795247 5.6509310027 -1.5340992731 6.2562795247 5.6509310027 -1.5340992731 6.2562795247 5.6509310027 -1.5340992731 
6.2562795247 5.6509310027 -1.5340992731 6.2562795247 5.6509310027 -1.5340992731 6.2562795247 5.6509310027 -1.5340992731 
6.2562795247 5.6509310027 -1.5340992731 6.2562795247 5.6509310027 -1.5340992731 6.2562795247 5.6509310027 -1.5340992731 
6.2562795247 5.6509310027 -1.5340992731 6.2562795247 5.6509310027 -1.5340992731 6.2562795247 5.6509310027 -1.5340992731 
6.2562795247 5.6509310027 -1.5340992731 6.2562795247 5.6509310027 -1.5340992731 6.2562795247 5.6509310027 -1.5340992731 
6.2562795247 5.6509310027 -1.5340992731 6.2562795247 5.6509310027 -1.5340992731 6.2562795247 5.6509310027 -1.5340992731 
6.2562795247 5.6509310027 -1.5340992731 6.2562795247 5.6509310027 -1.5340992731 7.7382473316 6.7245214132 -0.3748115608 
7.7382473316 6.7245214132 -0.3748115608 7.7382473316 6.7245214132 -0.3748115608 7.7382473316 6.7245214132 -0.3748115608 
7.7382473316 6.7245214132 -0.3748115608 7.7382473316 6.7245214132 -0.3748115608 7.7382473316 6.7245214132 -0.3748115608 
7.7382473316 6.7245214132 -0.3748115608 7.7382473316 6.7245214132 -0.3748115608 7.7382473316 6.7245214132 -0.3748115608 
7.7382473316 6.7245214132 -0.3748115608 7.7382473316 6.7245214132 -0.3748115608 7.7382473316 6.7245214132 -0.3748115608 
7.7382473316 6.7245214132 -0.3748115608 7.7382473316 6.7245214132 -0.3748115608 7.7382473316 6.7245214132 -0.3748115608 
7.7382473316 6.7245214132 -0.3748115608 7.7382473316 6.7245214132 -0.3748115608 7.7382473316 6.7245214132 -0.3748115608 
7.7382473316 6.7245214132 -0.3748115608 7.7382473316 6.7245214132 -0.3748115608 7.7382473316 6.7245214132 -0.3748115608 
7.7382473316 6.7245214132 -0.3748115608 7.7382473316 6.7245214132 -0.3748115608 7.7382473316 6.7245214132 -0.3748115608 
7.7382473316 6.7245214132 -0.3748115608 7.7382473316 6.7245214132 -0.3748115608 7.7382473316 6.7245214132 -0.3748115608 
7.7382473316 6.7245214132 -0.3748115608 7.7382473316 6.7245214132 -0.3748115608 7.7382473316 6.7245214132 -0.3748115608 
7.7382473316 6.7245214132 -0.3748115608 7.7382473316 6.7245214132 -0.3748115608 7.7382473316 6.7245214132 -0.3748115608 
7.7382473316 6.7245214132 -0.3748115608 7.7382473316 6.7245214132 -0.3748115608 7.7382473316 6.7245214132 -0.3748115608 
7.7382473316 6.7245214132 -0.3748115608 7.7382473316 6.7245214132 -0.3748115608 7.7382473316 6.7245214132 -0.3748115608 
7.7382473316 6.7245214132 -0.3748115608 7.7382473316 6.7245214132 -0.3748115608 7.7382473316 6.7245214132 -0.3748115608 
7.7382473316 6.7245214132 -0.3748115608 7.7382473316 6.7245214132 -0.3748115608 7.7382473316 6.7245214132 -0.3748115608 
7.7382473316 6.7245214132 -0.3748115608 7.7382473316 6.7245214132 -0.3748115608 7.7382473316 6.7245214132 -0.3748115608 
7.7382473316 6.7245214132 -0.3748115608 
