# vtk DataFile Version 4.1
Generated by LIGGGHTS
ASCII
DATASET POLYDATA
POINTS 100 float
-0.108597 -0.129052 0.0151551 -0.118952 -0.129937 0.0163028 -0.128544 -0.129999 0.0192236 
-0.111708 -0.130112 0.0252645 -0.0994152 -0.127431 0.0199658 -0.120353 -0.130998 0.0265032 
-0.131564 -0.131882 0.0276054 -0.103108 -0.131813 0.0248299 -0.137234 -0.130902 0.0213174 
-0.115887 -0.127181 0.00708281 -0.114683 -0.132834 0.0327741 -0.125758 -0.13281 0.0313276 
-0.121112 -0.123786 0.00858888 -0.108694 -0.133694 0.0330753 -0.126426 -0.124708 0.0117199 
-0.120716 -0.133704 0.0332939 -0.104057 -0.125852 0.0266146 -0.136199 -0.124839 0.0180616 
-0.111517 -0.132288 0.00549706 -0.138407 -0.13359 0.0272073 -0.114309 -0.135798 0.00956842 
-0.111488 -0.134635 0.037198 -0.101123 -0.135138 0.0197209 -0.0932469 -0.12394 0.0169316 
-0.0981948 -0.129864 0.013118 -0.116071 -0.12211 0.0106065 -0.100046 -0.121349 0.0157638 
-0.0950953 -0.121421 0.0194577 -0.11581 -0.134649 0.0378258 -0.117653 -0.124096 0.0242107 
-0.119232 -0.134647 0.0376439 -0.0962186 -0.132657 0.0243214 -0.125702 -0.13675 0.0140917 
-0.10428 -0.134502 0.0307198 -0.142456 -0.133502 0.0227038 -0.0992302 -0.134214 0.0164079 
-0.124319 -0.134627 0.0365158 -0.105137 -0.131076 0.0307428 -0.131881 -0.134571 0.0335408 
-0.121874 -0.12889 0.00673026 -0.125438 -0.136116 0.0252724 -0.106755 -0.136179 0.0288386 
-0.106488 -0.12323 0.0239638 -0.106391 -0.136899 0.0219796 -0.134852 -0.126689 0.0249603 
-0.136067 -0.134534 0.031603 -0.0997241 -0.128938 0.00962314 -0.124532 -0.128066 0.00832144 
-0.122744 -0.134679 0.0391726 -0.130795 -0.123026 0.0132373 -0.0397401 -0.101271 0.016708 
-0.0501235 -0.102166 0.0175571 -0.0597931 -0.102255 0.0202075 -0.0431334 -0.102422 0.0267164 
-0.0306975 -0.0996927 0.0217884 -0.0518092 -0.103319 0.0277044 -0.0630465 -0.104213 0.0284841 
-0.0345237 -0.104119 0.0265075 -0.0685384 -0.103177 0.0220488 -0.0468019 -0.099327 0.00845186 
-0.0463163 -0.105212 0.0341148 -0.0573463 -0.105175 0.0323589 -0.052068 -0.0959461 0.0098415 
-0.0403385 -0.106074 0.0345759 -0.0574674 -0.0968961 0.012814 -0.0523612 -0.106086 0.0344576 
-0.035524 -0.0981741 0.0283185 -0.0674146 -0.0970845 0.018878 -0.0423875 -0.10442 0.00694321 
-0.0698747 -0.105918 0.0278791 -0.0452916 -0.107966 0.010903 -0.0432458 -0.107052 0.0386101 
-0.0323952 -0.107397 0.0214264 -0.0244476 -0.0961748 0.0189597 -0.0292851 -0.102064 0.0149558 
-0.0470861 -0.0942886 0.0120145 -0.0312119 -0.0935738 0.0176254 -0.0263667 -0.0936786 0.0214557 
-0.0475843 -0.107072 0.0391164 -0.0490484 -0.0963973 0.0255507 -0.0509995 -0.107069 0.0388388 
-0.0276227 -0.104958 0.0261846 -0.0568064 -0.108959 0.0150966 -0.03586 -0.106861 0.0323378 
-0.0737967 -0.10579 0.0232649 -0.0304111 -0.106444 0.0181762 -0.056053 -0.107038 0.0375689 
-0.0367183 -0.103435 0.0323676 -0.063529 -0.106956 0.0343838 -0.0527764 -0.101033 0.00791636 
-0.0568561 -0.108426 0.0262856 -0.0382805 -0.108521 0.030373 -0.0378805 -0.0955281 0.0256244 
-0.0377241 -0.109179 0.0235206 -0.06626 -0.0989974 0.0257948 -0.0676592 -0.106901 0.0323299 
-0.0307161 -0.101107 0.011428 -0.0554777 -0.100224 0.00943983 -0.0545536 -0.107114 0.0402681 
-0.0618775 -0.0952286 0.0142235 
VERTICES 100 200
1 0 
1 1 
1 2 
1 3 
1 4 
1 5 
1 6 
1 7 
1 8 
1 9 
1 10 
1 11 
1 12 
1 13 
1 14 
1 15 
1 16 
1 17 
1 18 
1 19 
1 20 
1 21 
1 22 
1 23 
1 24 
1 25 
1 26 
1 27 
1 28 
1 29 
1 30 
1 31 
1 32 
1 33 
1 34 
1 35 
1 36 
1 37 
1 38 
1 39 
1 40 
1 41 
1 42 
1 43 
1 44 
1 45 
1 46 
1 47 
1 48 
1 49 
1 50 
1 51 
1 52 
1 53 
1 54 
1 55 
1 56 
1 57 
1 58 
1 59 
1 60 
1 61 
1 62 
1 63 
1 64 
1 65 
1 66 
1 67 
1 68 
1 69 
1 70 
1 71 
1 72 
1 73 
1 74 
1 75 
1 76 
1 77 
1 78 
1 79 
1 80 
1 81 
1 82 
1 83 
1 84 
1 85 
1 86 
1 87 
1 88 
1 89 
1 90 
1 91 
1 92 
1 93 
1 94 
1 95 
1 96 
1 97 
1 98 
1 99 

POINT_DATA 100
FIELD FieldData 7
id 1 100 int
1 2 3 4 5 6 7 8 9 
10 11 12 13 14 15 16 17 18 
19 20 21 22 23 24 25 26 27 
28 29 30 31 32 33 34 35 36 
37 38 39 40 41 42 43 44 45 
46 47 48 49 50 51 52 53 54 
55 56 57 58 59 60 61 62 63 
64 65 66 67 68 69 70 71 72 
73 74 75 76 77 78 79 80 81 
82 83 84 85 86 87 88 89 90 
91 92 93 94 95 96 97 98 99 
100 
mol 1 100 int
1 1 1 1 1 1 1 1 1 
1 1 1 1 1 1 1 1 1 
1 1 1 1 1 1 1 1 1 
1 1 1 1 1 1 1 1 1 
1 1 1 1 1 1 1 1 1 
1 1 1 1 1 2 2 2 2 
2 2 2 2 2 2 2 2 2 
2 2 2 2 2 2 2 2 2 
2 2 2 2 2 2 2 2 2 
2 2 2 2 2 2 2 2 2 
2 2 2 2 2 2 2 2 2 
2 
type 1 100 int
1 1 1 1 1 1 1 1 1 
1 1 1 1 1 1 1 1 1 
1 1 1 1 1 1 1 1 1 
1 1 1 1 1 1 1 1 1 
1 1 1 1 1 1 1 1 1 
1 1 1 1 1 1 1 1 1 
1 1 1 1 1 1 1 1 1 
1 1 1 1 1 1 1 1 1 
1 1 1 1 1 1 1 1 1 
1 1 1 1 1 1 1 1 1 
1 1 1 1 1 1 1 1 1 
1 
v 3 100 double
-0.099627676981 -0.058492397215 0.40221830056 -0.10764050362 -0.061088411661 0.32791436177 -0.12804861218 -0.067584579919 0.26075857869 
-0.17025710791 -0.080777238166 0.37814219087 -0.13325138482 -0.069026234959 0.46994237006 -0.17890613602 -0.083562453901 0.31579008471 
-0.1866011834 -0.086063969505 0.23550972813 -0.16720871296 -0.079763003464 0.43448897768 -0.14267239038 -0.072253342836 0.19805047301 
-0.043237226996 -0.040762788748 0.35540217116 -0.22270970293 -0.097335395437 0.35136521322 -0.21260284087 -0.094223046733 0.27403535602 
-0.053782889371 -0.044114238071 0.32637017037 -0.22480873717 -0.097959144217 0.39131251331 -0.075653829239 -0.05104495338 0.28720983277 
-0.22633579846 -0.098520083421 0.30729615603 -0.17971828929 -0.083699798336 0.44098703249 -0.11996387312 -0.065076233042 0.21863260627 
-0.032123471128 -0.037241512604 0.37469077447 -0.18380882433 -0.085232705972 0.18393611599 -0.060547622365 -0.0462264683 0.34745200759 
-0.25360843684 -0.10705711545 0.36972498847 -0.13148916594 -0.06849818249 0.44103944073 -0.1120737653 -0.062303033077 0.52072892416 
-0.085388295024 -0.053937038061 0.4731108284 -0.067891435375 -0.048524303454 0.36528162061 -0.10393190354 -0.059776372952 0.47892846852 
-0.12974098032 -0.067878628302 0.51336126534 -0.25799516211 -0.10846844015 0.33949001892 -0.16293375484 -0.078495765354 0.34985138454 
-0.25672417974 -0.10809048491 0.31558679237 -0.16365000392 -0.078597461712 0.48076734517 -0.092146026197 -0.056263542856 0.26575061293 
-0.20834515804 -0.092742369909 0.42037482994 -0.15234198798 -0.075341155238 0.15583408554 -0.108347211 -0.061189502231 0.45629592016 
-0.24884220659 -0.10563976951 0.28008701693 -0.20852815992 -0.092798574967 0.42193256116 -0.2280553648 -0.099137822002 0.22737121263 
-0.040762604351 -0.040026011274 0.30980422084 -0.17027230308 -0.0808854656 0.26898927017 -0.19518986539 -0.088615775911 0.39939108394 
-0.16121418412 -0.077878025453 0.42977626197 -0.14725942765 -0.073507444251 0.40035095157 -0.16815422105 -0.080260515833 0.2239738412 
-0.21451568401 -0.094897826664 0.1982031802 -0.060975388953 -0.046250411835 0.46446469093 -0.051885943364 -0.043547906806 0.29304944996 
-0.26740485704 -0.11148030363 0.29097269799 -0.086267149835 -0.054415634702 0.26038701574 -0.099196700189 -0.058207872446 0.35493364653 
-0.10497967612 -0.06055799818 0.28173742338 -0.1231654243 -0.066760396533 0.21517960523 -0.16782978496 -0.079979022763 0.32915972958 
-0.13414357623 -0.068722735554 0.42040336182 -0.17456617937 -0.082543913175 0.26767967157 -0.17987274516 -0.084786754278 0.18862486407 
-0.16631151063 -0.079099085166 0.38458856436 -0.13575716956 -0.071170552905 0.15316907293 -0.042628761762 -0.040739607769 0.31066276385 
-0.21846880617 -0.096106514628 0.30129422723 -0.20641939154 -0.092866264061 0.22567056901 -0.052334762272 -0.044001435554 0.28181715336 
-0.22159042826 -0.09680383764 0.34045965531 -0.072688711569 -0.050686391617 0.24270857666 -0.22077752177 -0.097147518261 0.25791827929 
-0.17903762887 -0.083057922086 0.39055527002 -0.1142988146 -0.064270764426 0.17403128089 -0.032020624463 -0.037263340222 0.32996856527 
-0.17563606615 -0.083821391954 0.13807958164 -0.059021107353 -0.045954862768 0.30238222172 -0.24922959962 -0.10565611837 0.31839590482 
-0.13127477841 -0.068025893487 0.39212198067 -0.11490467771 -0.06230581755 0.47089169908 -0.087131173484 -0.053904865045 0.42497874113 
-0.067331606147 -0.048443460084 0.3195868741 -0.10587643146 -0.059762911432 0.43007968162 -0.13215957639 -0.067788727736 0.46310750818 
-0.25270385001 -0.10696523796 0.28857554365 -0.16012948078 -0.077757741478 0.30156802822 -0.25079841606 -0.10653614702 0.26514360158 
-0.16405339524 -0.078058185736 0.43014174918 -0.087753434208 -0.055580117982 0.22120829157 -0.2061904239 -0.091749927972 0.36949927822 
-0.14397315901 -0.074057347572 0.11143921679 -0.10901534701 -0.06091183583 0.40779799592 -0.24208415278 -0.10404701166 0.23052526724 
-0.20656562617 -0.09185700232 0.37100332434 -0.22022800302 -0.09754486669 0.17939339248 -0.038868426028 -0.039881514427 0.26597532531 
-0.16457383 -0.079733027971 0.22201759305 -0.19262268182 -0.087629727911 0.34930379243 -0.16067899207 -0.077360391172 0.38009285058 
-0.14555973696 -0.072811766348 0.35170264019 -0.1616757739 -0.079142503639 0.17782653049 -0.2061340554 -0.093317520787 0.15116347723 
-0.062966353796 -0.046361726462 0.4172234122 -0.049364834564 -0.043304401357 0.24918211121 -0.26060583483 -0.10979825686 0.24065175626 
-0.082445573317 -0.053948406656 0.21604007087 
f 3 100 double
0 0 0 0 0 0 0 0 0 
0 0 0 0 0 0 0 0 0 
0 0 0 0 0 0 0 0 0 
0 0 0 0 0 0 0 0 0 
0 0 0 0 0 0 0 0 0 
0 0 0 0 0 0 0 0 0 
0 0 0 0 0 0 0 0 0 
0 0 0 0 0 0 0 0 0 
0 0 0 0 0 0 0 0 0 
0 0 0 0 0 0 0 0 0 
0 0 0 0 0 0 0 0 0 
0 0 0 0 0 0 0 0 0 
0 0 0 0 0 0 0 0 0 
0 0 0 0 0 0 0 0 0 
0 0 0 0 0 0 0 0 0 
0 0 0 0 0 0 0 0 0 
0 0 0 0 0 0 0 0 0 
0 0 0 0 0 0 0 0 0 
0 0 0 0 0 0 0 0 0 
0 0 0 0 0 0 0 0 0 
0 0 0 0 0 0 0 0 0 
0 0 0 0 0 0 0 0 0 
0 0 0 0 0 0 0 0 0 
0 0 0 0 0 0 0 0 0 
0 0 0 0 0 0 0 0 0 
0 0 0 0 0 0 0 0 0 
0 0 0 0 0 0 0 0 0 
0 0 0 0 0 0 0 0 0 
0 0 0 0 0 0 0 0 0 
0 0 0 0 0 0 0 0 0 
0 0 0 0 0 0 0 0 0 
0 0 0 0 0 0 0 0 0 
0 0 0 0 0 0 0 0 0 
0 0 0 
radius 1 100 double
0.010434 0.00981478 0.00892069 0.00845937 0.00731974 0.00728422 0.00643447 0.00619172 0.00585956 
0.00577566 0.00537241 0.00522549 0.00513666 0.00473175 0.00466912 0.00444866 0.00441894 0.00400812 
0.00385622 0.00379948 0.00370243 0.00366942 0.00364039 0.00363813 0.00363644 0.00358692 0.0035797 
0.00341284 0.00337012 0.00336273 0.00332772 0.00323261 0.00320584 0.00320311 0.00318808 0.00313116 
0.00306026 0.00305632 0.00304383 0.00300958 0.00300137 0.00298994 0.0029567 0.00295111 0.00290849 
0.00284552 0.00282964 0.0028207 0.00281971 0.00281899 0.010434 0.00981478 0.00892069 0.00845937 
0.00731974 0.00728422 0.00643447 0.00619172 0.00585956 0.00577566 0.00537241 0.00522549 0.00513666 
0.00473175 0.00466912 0.00444866 0.00441894 0.00400812 0.00385622 0.00379948 0.00370243 0.00366942 
0.00364039 0.00363813 0.00363644 0.00358692 0.0035797 0.00341284 0.00337012 0.00336273 0.00332772 
0.00323261 0.00320584 0.00320311 0.00318808 0.00313116 0.00306026 0.00305632 0.00304383 0.00300958 
0.00300137 0.00298994 0.0029567 0.00295111 0.00290849 0.00284552 0.00282964 0.0028207 0.00281971 
0.00281899 
omega 3 100 double
2.2023264467 -6.9871928042 0.0066213640897 2.2023264467 -6.9871928042 0.0066213640897 2.2023264467 -6.9871928042 0.0066213640897 
2.2023264467 -6.9871928042 0.0066213640897 2.2023264467 -6.9871928042 0.0066213640897 2.2023264467 -6.9871928042 0.0066213640897 
2.2023264467 -6.9871928042 0.0066213640897 2.2023264467 -6.9871928042 0.0066213640897 2.2023264467 -6.9871928042 0.0066213640897 
2.2023264467 -6.9871928042 0.0066213640897 2.2023264467 -6.9871928042 0.0066213640897 2.2023264467 -6.9871928042 0.0066213640897 
2.2023264467 -6.9871928042 0.0066213640897 2.2023264467 -6.9871928042 0.0066213640897 2.2023264467 -6.9871928042 0.0066213640897 
2.2023264467 -6.9871928042 0.0066213640897 2.2023264467 -6.9871928042 0.0066213640897 2.2023264467 -6.9871928042 0.0066213640897 
2.2023264467 -6.9871928042 0.0066213640897 2.2023264467 -6.9871928042 0.0066213640897 2.2023264467 -6.9871928042 0.0066213640897 
2.2023264467 -6.9871928042 0.0066213640897 2.2023264467 -6.9871928042 0.0066213640897 2.2023264467 -6.9871928042 0.0066213640897 
2.2023264467 -6.9871928042 0.0066213640897 2.2023264467 -6.9871928042 0.0066213640897 2.2023264467 -6.9871928042 0.0066213640897 
2.2023264467 -6.9871928042 0.0066213640897 2.2023264467 -6.9871928042 0.0066213640897 2.2023264467 -6.9871928042 0.0066213640897 
2.2023264467 -6.9871928042 0.0066213640897 2.2023264467 -6.9871928042 0.0066213640897 2.2023264467 -6.9871928042 0.0066213640897 
2.2023264467 -6.9871928042 0.0066213640897 2.2023264467 -6.9871928042 0.0066213640897 2.2023264467 -6.9871928042 0.0066213640897 
2.2023264467 -6.9871928042 0.0066213640897 2.2023264467 -6.9871928042 0.0066213640897 2.2023264467 -6.9871928042 0.0066213640897 
2.2023264467 -6.9871928042 0.0066213640897 2.2023264467 -6.9871928042 0.0066213640897 2.2023264467 -6.9871928042 0.0066213640897 
2.2023264467 -6.9871928042 0.0066213640897 2.2023264467 -6.9871928042 0.0066213640897 2.2023264467 -6.9871928042 0.0066213640897 
2.2023264467 -6.9871928042 0.0066213640897 2.2023264467 -6.9871928042 0.0066213640897 2.2023264467 -6.9871928042 0.0066213640897 
2.2023264467 -6.9871928042 0.0066213640897 2.2023264467 -6.9871928042 0.0066213640897 2.1584069343 -6.8633280313 0.049834107945 
2.1584069343 -6.8633280313 0.049834107945 2.1584069343 -6.8633280313 0.049834107945 2.1584069343 -6.8633280313 0.049834107945 
2.1584069343 -6.8633280313 0.049834107945 2.1584069343 -6.8633280313 0.049834107945 2.1584069343 -6.8633280313 0.049834107945 
2.1584069343 -6.8633280313 0.049834107945 2.1584069343 -6.8633280313 0.049834107945 2.1584069343 -6.8633280313 0.049834107945 
2.1584069343 -6.8633280313 0.049834107945 2.1584069343 -6.8633280313 0.049834107945 2.1584069343 -6.8633280313 0.049834107945 
2.1584069343 -6.8633280313 0.049834107945 2.1584069343 -6.8633280313 0.049834107945 2.1584069343 -6.8633280313 0.049834107945 
2.1584069343 -6.8633280313 0.049834107945 2.1584069343 -6.8633280313 0.049834107945 2.1584069343 -6.8633280313 0.049834107945 
2.1584069343 -6.8633280313 0.049834107945 2.1584069343 -6.8633280313 0.049834107945 2.1584069343 -6.8633280313 0.049834107945 
2.1584069343 -6.8633280313 0.049834107945 2.1584069343 -6.8633280313 0.049834107945 2.1584069343 -6.8633280313 0.049834107945 
2.1584069343 -6.8633280313 0.049834107945 2.1584069343 -6.8633280313 0.049834107945 2.1584069343 -6.8633280313 0.049834107945 
2.1584069343 -6.8633280313 0.049834107945 2.1584069343 -6.8633280313 0.049834107945 2.1584069343 -6.8633280313 0.049834107945 
2.1584069343 -6.8633280313 0.049834107945 2.1584069343 -6.8633280313 0.049834107945 2.1584069343 -6.8633280313 0.049834107945 
2.1584069343 -6.8633280313 0.049834107945 2.1584069343 -6.8633280313 0.049834107945 2.1584069343 -6.8633280313 0.049834107945 
2.1584069343 -6.8633280313 0.049834107945 2.1584069343 -6.8633280313 0.049834107945 2.1584069343 -6.8633280313 0.049834107945 
2.1584069343 -6.8633280313 0.049834107945 2.1584069343 -6.8633280313 0.049834107945 2.1584069343 -6.8633280313 0.049834107945 
2.1584069343 -6.8633280313 0.049834107945 2.1584069343 -6.8633280313 0.049834107945 2.1584069343 -6.8633280313 0.049834107945 
2.1584069343 -6.8633280313 0.049834107945 2.1584069343 -6.8633280313 0.049834107945 2.1584069343 -6.8633280313 0.049834107945 
2.1584069343 -6.8633280313 0.049834107945 
