# vtk DataFile Version 4.1
Generated by LIGGGHTS
ASCII
DATASET POLYDATA
POINTS 100 float
-0.116796 -0.150899 0.0122807 -0.126618 -0.147339 0.0118301 -0.136349 -0.14519 0.0129309 
-0.124025 -0.157814 0.0158763 -0.110382 -0.158284 0.0160753 -0.132372 -0.155123 0.0154966 
-0.142931 -0.151129 0.0150105 -0.116569 -0.162175 0.0143173 -0.1451 -0.143155 0.0129238 
-0.11947 -0.140406 0.0101482 -0.130364 -0.163435 0.0168128 -0.139548 -0.157133 0.0159791 
-0.124057 -0.137763 0.0137628 -0.125363 -0.166812 0.0162906 -0.130263 -0.138122 0.0142704 
-0.136093 -0.16139 0.0161668 -0.116983 -0.160691 0.0204205 -0.141612 -0.138599 0.0168619 
-0.115943 -0.143289 0.00495723 -0.149155 -0.14833 0.0131859 -0.120826 -0.146621 0.00363241 
-0.12976 -0.169131 0.0172772 -0.113313 -0.160454 0.00907001 -0.102954 -0.157346 0.0179146 
-0.106894 -0.154478 0.0108177 -0.120118 -0.141007 0.016262 -0.107965 -0.152203 0.0195697 
-0.105158 -0.157435 0.0212733 -0.133852 -0.167616 0.0174726 -0.127651 -0.151755 0.0206488 
-0.136803 -0.165879 0.0173307 -0.110425 -0.16533 0.0134578 -0.133003 -0.145253 0.00463715 
-0.120623 -0.167351 0.0145793 -0.15082 -0.142876 0.011145 -0.110058 -0.158358 0.00842061 
-0.140823 -0.162617 0.0167453 -0.120714 -0.165566 0.0176257 -0.146248 -0.156739 0.015308 
-0.124956 -0.138041 0.00835899 -0.137363 -0.153887 0.0102882 -0.12235 -0.16541 0.0121865 
-0.117497 -0.156405 0.0215075 -0.119276 -0.160494 0.00843439 -0.143697 -0.145396 0.0183734 
-0.149126 -0.153254 0.0143853 -0.106589 -0.150645 0.0100264 -0.127816 -0.137714 0.00976856 
-0.140562 -0.165456 0.0179343 -0.134436 -0.136589 0.0163794 -0.0467352 -0.120965 0.0119404 
-0.0568668 -0.11838 0.0120145 -0.0667048 -0.117242 0.0135801 -0.0530952 -0.12868 0.0155509 
-0.0394756 -0.127805 0.0151931 -0.0616725 -0.126816 0.0156043 -0.0725813 -0.12387 0.0156887 
-0.0453235 -0.132227 0.0135328 -0.0756043 -0.116083 0.0139964 -0.0505068 -0.11072 0.0103188 
-0.0588107 -0.134928 0.0165208 -0.0685914 -0.12954 0.0162922 -0.0551699 -0.108669 0.0142102 
-0.0535317 -0.137775 0.0156725 -0.0612832 -0.109657 0.0149482 -0.0647341 -0.133438 0.0161802 
-0.0456174 -0.131001 0.0197 -0.0724102 -0.111342 0.0179654 -0.0469432 -0.113062 0.00488595 
-0.0791209 -0.12164 0.0142197 -0.0515306 -0.116812 0.00362818 -0.0576356 -0.140549 0.0167424 
-0.0424799 -0.130014 0.00823094 -0.0321018 -0.126202 0.0167724 -0.0366035 -0.123495 0.00995162 
-0.0508292 -0.111591 0.0164258 -0.0375134 -0.121638 0.0188199 -0.0341397 -0.126623 0.0202096 
-0.0618437 -0.139454 0.017157 -0.0570853 -0.123175 0.0206914 -0.0649524 -0.138013 0.0171984 
-0.0389451 -0.134728 0.0123112 -0.0637285 -0.11669 0.00516442 -0.04884 -0.137784 0.0137561 
-0.0813953 -0.11631 0.0124568 -0.0394754 -0.127585 0.00753436 -0.0692931 -0.135146 0.0168975 
-0.0489728 -0.136122 0.0168699 -0.0753207 -0.129787 0.0159017 -0.0562692 -0.10885 0.00883938 
-0.0669799 -0.125901 0.0106482 -0.0508492 -0.135942 0.0115095 -0.0464987 -0.126826 0.0209699 
-0.048432 -0.130621 0.00783008 -0.0737564 -0.11836 0.0192965 -0.0785619 -0.126575 0.0152276 
-0.0367075 -0.119626 0.00929638 -0.0590841 -0.108856 0.0103722 -0.0687056 -0.137984 0.0179656 
-0.0654913 -0.108617 0.0172775 
VERTICES 100 200
1 0 
1 1 
1 2 
1 3 
1 4 
1 5 
1 6 
1 7 
1 8 
1 9 
1 10 
1 11 
1 12 
1 13 
1 14 
1 15 
1 16 
1 17 
1 18 
1 19 
1 20 
1 21 
1 22 
1 23 
1 24 
1 25 
1 26 
1 27 
1 28 
1 29 
1 30 
1 31 
1 32 
1 33 
1 34 
1 35 
1 36 
1 37 
1 38 
1 39 
1 40 
1 41 
1 42 
1 43 
1 44 
1 45 
1 46 
1 47 
1 48 
1 49 
1 50 
1 51 
1 52 
1 53 
1 54 
1 55 
1 56 
1 57 
1 58 
1 59 
1 60 
1 61 
1 62 
1 63 
1 64 
1 65 
1 66 
1 67 
1 68 
1 69 
1 70 
1 71 
1 72 
1 73 
1 74 
1 75 
1 76 
1 77 
1 78 
1 79 
1 80 
1 81 
1 82 
1 83 
1 84 
1 85 
1 86 
1 87 
1 88 
1 89 
1 90 
1 91 
1 92 
1 93 
1 94 
1 95 
1 96 
1 97 
1 98 
1 99 

POINT_DATA 100
FIELD FieldData 7
id 1 100 int
1 2 3 4 5 6 7 8 9 
10 11 12 13 14 15 16 17 18 
19 20 21 22 23 24 25 26 27 
28 29 30 31 32 33 34 35 36 
37 38 39 40 41 42 43 44 45 
46 47 48 49 50 51 52 53 54 
55 56 57 58 59 60 61 62 63 
64 65 66 67 68 69 70 71 72 
73 74 75 76 77 78 79 80 81 
82 83 84 85 86 87 88 89 90 
91 92 93 94 95 96 97 98 99 
100 
mol 1 100 int
1 1 1 1 1 1 1 1 1 
1 1 1 1 1 1 1 1 1 
1 1 1 1 1 1 1 1 1 
1 1 1 1 1 1 1 1 1 
1 1 1 1 1 1 1 1 1 
1 1 1 1 1 2 2 2 2 
2 2 2 2 2 2 2 2 2 
2 2 2 2 2 2 2 2 2 
2 2 2 2 2 2 2 2 2 
2 2 2 2 2 2 2 2 2 
2 2 2 2 2 2 2 2 2 
2 
type 1 100 int
1 1 1 1 1 1 1 1 1 
1 1 1 1 1 1 1 1 1 
1 1 1 1 1 1 1 1 1 
1 1 1 1 1 1 1 1 1 
1 1 1 1 1 1 1 1 1 
1 1 1 1 1 1 1 1 1 
1 1 1 1 1 1 1 1 1 
1 1 1 1 1 1 1 1 1 
1 1 1 1 1 1 1 1 1 
1 1 1 1 1 1 1 1 1 
1 1 1 1 1 1 1 1 1 
1 
v 3 100 double
-0.0093172105039 -0.17928252018 -0.058673328839 -0.0046782141228 -0.16049948902 -0.011395738477 -0.0023104002871 -0.16378556875 0.015954577986 
-0.019187833755 -0.22103633682 -0.15882103852 -0.019843834411 -0.24108561587 -0.16115717148 -0.015668405656 -0.20512042386 -0.12336994226 
-0.010469660579 -0.18490324993 -0.070179647925 -0.024204006002 -0.20839140512 -0.21818342304 0.00026200418726 -0.15263232253 0.041986348583 
0.0046114305962 -0.1457264146 0.088989677844 -0.026583134556 -0.22628301649 -0.24036474507 -0.01835964015 -0.20288364739 -0.15408141727 
0.0068077563971 -0.19108541598 0.12493956342 -0.030684233669 -0.2252092345 -0.28658128433 0.0061940372652 -0.19043046584 0.11789977835 
-0.02379554394 -0.20990371159 -0.21322891039 -0.024256837398 -0.29424211401 -0.19730722833 0.0047730594785 -0.21277008946 0.1075657011 
0.0026085986949 -0.07671708742 0.049293587676 -0.0063582295816 -0.15121872989 -0.032539126535 -0.0011808450675 -0.051800903019 0.00060667357255 
-0.033924358622 -0.23361797366 -0.32078038345 -0.020372574142 -0.13824400758 -0.19279799125 -0.019240429821 -0.27649909392 -0.14554111775 
-0.013375136354 -0.17108603156 -0.10618728942 0.0019212363863 -0.23143094037 0.08028074739 -0.013266193505 -0.29359280309 -0.074332268445 
-0.020413292891 -0.32124776063 -0.14749168083 -0.032072961407 -0.23121372872 -0.30063885329 -0.013040795456 -0.28399636903 -0.07420666221 
-0.029834128435 -0.22547973443 -0.27698920594 -0.02791760188 -0.20398783612 -0.26089109854 0.00022884149841 -0.050638502285 0.016109891427 
-0.030824259373 -0.20697786269 -0.29270910521 0.0011763970364 -0.12023378873 0.044129369301 -0.017519950285 -0.13316518511 -0.1621076995 
-0.025528653302 -0.2121152859 -0.23209334317 -0.029532003959 -0.24997736426 -0.26747829667 -0.017649605858 -0.18492316423 -0.15061756939 
0.008163145929 -0.1134747364 0.12071754002 -0.012461566129 -0.1251057956 -0.10744977006 -0.027616869737 -0.17093352422 -0.26578741535 
-0.019186739952 -0.30897652736 -0.13681817234 -0.02022222962 -0.12171711083 -0.19524632628 -0.0042903939719 -0.23152807326 0.010710973236 
-0.012956694967 -0.16822896636 -0.10221358943 -0.0082837534157 -0.16027286344 -0.051848266031 0.0081309746773 -0.1298105009 0.12444207336 
-0.029489792049 -0.22927304307 -0.27218275174 0.0074643028853 -0.21500616736 0.13827710129 0.029440864343 -0.15881836351 -0.066806217859 
0.032082465641 -0.15022888562 -0.0052877804355 0.037504726842 -0.16116912401 0.03674074316 0.032202596593 -0.19943343795 -0.148728681 
0.032032816364 -0.2076480452 -0.17527670508 0.034107913796 -0.1920415634 -0.10082897152 0.037117526208 -0.18285279246 -0.032501515139 
0.023253934271 -0.18070453468 -0.21610446906 0.039753327112 -0.15815808934 0.076426043211 0.034588566659 -0.13433108715 0.075923884168 
0.02900997141 -0.20656873115 -0.21350851763 0.033451856265 -0.19440286695 -0.11677989827 0.047332522377 -0.18017171988 0.11535402672 
0.023971094769 -0.20059251833 -0.26492164977 0.04845216229 -0.18393802342 0.1195881023 0.029467671753 -0.19659124582 -0.17781775802 
0.041543876154 -0.26004104086 -0.19945927205 0.055247548479 -0.2124039399 0.12875205181 0.017288294493 -0.067556386284 0.035797302281 
0.035137896606 -0.15772758814 0.014461978439 0.010260246389 -0.046997459372 0.00013087678264 0.024329597639 -0.21053626496 -0.28933057727 
0.010609131253 -0.1149423467 -0.19543458465 0.037931748773 -0.2349833822 -0.17506089552 0.021531750646 -0.14269168286 -0.12761275556 
0.050735079532 -0.21286334701 0.065574582912 0.047919870598 -0.25631473339 -0.10111774248 0.047084506895 -0.27743346208 -0.17483422833 
0.026513383622 -0.21192379762 -0.26350307469 0.051671384666 -0.26203354608 -0.06658307114 0.02798575905 -0.20952873427 -0.23626868238 
0.017503718789 -0.17094577465 -0.26610987286 0.01464303386 -0.055335438433 0.035591284394 0.018638490873 -0.18027405446 -0.27806877228 
0.035261909913 -0.13282616558 0.089586466758 0.010961995968 -0.10878126598 -0.17243334169 0.029851059208 -0.20155469001 -0.1872006126 
0.028855423807 -0.22034548215 -0.25624863429 0.032133999695 -0.1830210606 -0.10127421773 0.032240701633 -0.10980405171 0.11607860037 
0.021199977976 -0.12306169806 -0.074276336389 0.014131785119 -0.14937933579 -0.24871510237 0.049004970496 -0.27560337521 -0.14312674286 
0.0089232203124 -0.10415940741 -0.18673725967 0.052333175311 -0.22831816568 0.041898438049 0.033287889299 -0.17126442033 -0.050799258224 
0.023356832847 -0.13413513392 -0.077378090344 0.03649399703 -0.12693929418 0.12382490355 0.030144743494 -0.21589701096 -0.22546741705 
0.055903475187 -0.21004202192 0.14470299796 
f 3 100 double
0 0 0 0 0 0 0 0 0 
0 0 0 0 0 0 0 0 0 
0 0 0 0 0 0 0 0 0 
0 0 0 0 0 0 0 0 0 
0 0 0 0 0 0 0 0 0 
0 0 0 0 0 0 0 0 0 
0 0 0 0 0 0 -0.070939875577 -0.05768689729 0.29112699156 
0 0 0 0 0 0 0 0 0 
0 0 0 0 0 0 0 0 0 
0 0 0 0 0 0 0 0 0 
0 0 0 0 0 0 0 0 0 
0 0 0 0 0 0 0 0 0 
0 0 0 0 0 0 0 0 0 
0 0 0 0 0 0 0 0 0 
0 0 0 0 0 0 0 0 0 
0 0 0 0 0 0 0 0 0 
0 0 0 0 0 0 0 0 0 
0 0 0 0 0 0 0 0 0 
0 0 0 0 0 0 0 0 0 
0 0 0 0 0 0 0 0 0 
0 0 0 0 0 0 0 0 0 
0 0 0 0 0 0 0 0 0 
0 0 0 0 0 0 0 0 0 
0 0 0 -0.068860642948 -0.083212581941 0.32385194444 0 0 0 
0 0 0 0 0 0 0 0 0 
0 0 0 0 0 0 0 0 0 
0 0 0 0 0 0 0 0 0 
0 0 0 0 0 0 0 0 0 
0 0 0 0 0 0 0 0 0 
0 0 0 0 0 0 0 0 0 
0 0 0 0 0 0 0 0 0 
0 0 0 0 0 0 0 0 0 
0 0 0 0 0 0 0 0 0 
0 0 0 
radius 1 100 double
0.010434 0.00981478 0.00892069 0.00845937 0.00731974 0.00728422 0.00643447 0.00619172 0.00585956 
0.00577566 0.00537241 0.00522549 0.00513666 0.00473175 0.00466912 0.00444866 0.00441894 0.00400812 
0.00385622 0.00379948 0.00370243 0.00366942 0.00364039 0.00363813 0.00363644 0.00358692 0.0035797 
0.00341284 0.00337012 0.00336273 0.00332772 0.00323261 0.00320584 0.00320311 0.00318808 0.00313116 
0.00306026 0.00305632 0.00304383 0.00300958 0.00300137 0.00298994 0.0029567 0.00295111 0.00290849 
0.00284552 0.00282964 0.0028207 0.00281971 0.00281899 0.010434 0.00981478 0.00892069 0.00845937 
0.00731974 0.00728422 0.00643447 0.00619172 0.00585956 0.00577566 0.00537241 0.00522549 0.00513666 
0.00473175 0.00466912 0.00444866 0.00441894 0.00400812 0.00385622 0.00379948 0.00370243 0.00366942 
0.00364039 0.00363813 0.00363644 0.00358692 0.0035797 0.00341284 0.00337012 0.00336273 0.00332772 
0.00323261 0.00320584 0.00320311 0.00318808 0.00313116 0.00306026 0.00305632 0.00304383 0.00300958 
0.00300137 0.00298994 0.0029567 0.00295111 0.00290849 0.00284552 0.00282964 0.0028207 0.00281971 
0.00281899 
omega 3 100 double
14.152108667 -0.31586715225 -1.2631489437 14.152108667 -0.31586715225 -1.2631489437 14.152108667 -0.31586715225 -1.2631489437 
14.152108667 -0.31586715225 -1.2631489437 14.152108667 -0.31586715225 -1.2631489437 14.152108667 -0.31586715225 -1.2631489437 
14.152108667 -0.31586715225 -1.2631489437 14.152108667 -0.31586715225 -1.2631489437 14.152108667 -0.31586715225 -1.2631489437 
14.152108667 -0.31586715225 -1.2631489437 14.152108667 -0.31586715225 -1.2631489437 14.152108667 -0.31586715225 -1.2631489437 
14.152108667 -0.31586715225 -1.2631489437 14.152108667 -0.31586715225 -1.2631489437 14.152108667 -0.31586715225 -1.2631489437 
14.152108667 -0.31586715225 -1.2631489437 14.152108667 -0.31586715225 -1.2631489437 14.152108667 -0.31586715225 -1.2631489437 
14.152108667 -0.31586715225 -1.2631489437 14.152108667 -0.31586715225 -1.2631489437 14.152108667 -0.31586715225 -1.2631489437 
14.152108667 -0.31586715225 -1.2631489437 14.152108667 -0.31586715225 -1.2631489437 14.152108667 -0.31586715225 -1.2631489437 
14.152108667 -0.31586715225 -1.2631489437 14.152108667 -0.31586715225 -1.2631489437 14.152108667 -0.31586715225 -1.2631489437 
14.152108667 -0.31586715225 -1.2631489437 14.152108667 -0.31586715225 -1.2631489437 14.152108667 -0.31586715225 -1.2631489437 
14.152108667 -0.31586715225 -1.2631489437 14.152108667 -0.31586715225 -1.2631489437 14.152108667 -0.31586715225 -1.2631489437 
14.152108667 -0.31586715225 -1.2631489437 14.152108667 -0.31586715225 -1.2631489437 14.152108667 -0.31586715225 -1.2631489437 
14.152108667 -0.31586715225 -1.2631489437 14.152108667 -0.31586715225 -1.2631489437 14.152108667 -0.31586715225 -1.2631489437 
14.152108667 -0.31586715225 -1.2631489437 14.152108667 -0.31586715225 -1.2631489437 14.152108667 -0.31586715225 -1.2631489437 
14.152108667 -0.31586715225 -1.2631489437 14.152108667 -0.31586715225 -1.2631489437 14.152108667 -0.31586715225 -1.2631489437 
14.152108667 -0.31586715225 -1.2631489437 14.152108667 -0.31586715225 -1.2631489437 14.152108667 -0.31586715225 -1.2631489437 
14.152108667 -0.31586715225 -1.2631489437 14.152108667 -0.31586715225 -1.2631489437 12.909025749 2.7783131875 -0.9422339274 
12.909025749 2.7783131875 -0.9422339274 12.909025749 2.7783131875 -0.9422339274 12.909025749 2.7783131875 -0.9422339274 
12.909025749 2.7783131875 -0.9422339274 12.909025749 2.7783131875 -0.9422339274 12.909025749 2.7783131875 -0.9422339274 
12.909025749 2.7783131875 -0.9422339274 12.909025749 2.7783131875 -0.9422339274 12.909025749 2.7783131875 -0.9422339274 
12.909025749 2.7783131875 -0.9422339274 12.909025749 2.7783131875 -0.9422339274 12.909025749 2.7783131875 -0.9422339274 
12.909025749 2.7783131875 -0.9422339274 12.909025749 2.7783131875 -0.9422339274 12.909025749 2.7783131875 -0.9422339274 
12.909025749 2.7783131875 -0.9422339274 12.909025749 2.7783131875 -0.9422339274 12.909025749 2.7783131875 -0.9422339274 
12.909025749 2.7783131875 -0.9422339274 12.909025749 2.7783131875 -0.9422339274 12.909025749 2.7783131875 -0.9422339274 
12.909025749 2.7783131875 -0.9422339274 12.909025749 2.7783131875 -0.9422339274 12.909025749 2.7783131875 -0.9422339274 
12.909025749 2.7783131875 -0.9422339274 12.909025749 2.7783131875 -0.9422339274 12.909025749 2.7783131875 -0.9422339274 
12.909025749 2.7783131875 -0.9422339274 12.909025749 2.7783131875 -0.9422339274 12.909025749 2.7783131875 -0.9422339274 
12.909025749 2.7783131875 -0.9422339274 12.909025749 2.7783131875 -0.9422339274 12.909025749 2.7783131875 -0.9422339274 
12.909025749 2.7783131875 -0.9422339274 12.909025749 2.7783131875 -0.9422339274 12.909025749 2.7783131875 -0.9422339274 
12.909025749 2.7783131875 -0.9422339274 12.909025749 2.7783131875 -0.9422339274 12.909025749 2.7783131875 -0.9422339274 
12.909025749 2.7783131875 -0.9422339274 12.909025749 2.7783131875 -0.9422339274 12.909025749 2.7783131875 -0.9422339274 
12.909025749 2.7783131875 -0.9422339274 12.909025749 2.7783131875 -0.9422339274 12.909025749 2.7783131875 -0.9422339274 
12.909025749 2.7783131875 -0.9422339274 12.909025749 2.7783131875 -0.9422339274 12.909025749 2.7783131875 -0.9422339274 
12.909025749 2.7783131875 -0.9422339274 
