# vtk DataFile Version 4.1
Generated by LIGGGHTS
ASCII
DATASET POLYDATA
POINTS 100 float
-0.117686 -0.133874 0.0172721 -0.127057 -0.134744 0.0127155 -0.136747 -0.135078 0.0101624 
-0.125511 -0.136373 0.0240194 -0.112451 -0.133141 0.0263343 -0.133471 -0.137286 0.020432 
-0.143548 -0.138134 0.0153908 -0.117843 -0.138135 0.0279102 -0.145187 -0.136135 0.00726919 
-0.119839 -0.1307 0.00692308 -0.131768 -0.14013 0.0284233 -0.140465 -0.139704 0.0214296 
-0.125291 -0.127479 0.00592544 -0.126762 -0.141126 0.031685 -0.131388 -0.128766 0.00566482 
-0.137127 -0.140965 0.0255953 -0.119955 -0.13249 0.0297263 -0.143002 -0.129673 0.0058888 
-0.114967 -0.135588 0.0071755 -0.149069 -0.139649 0.0112537 -0.119236 -0.139617 0.00867194 
-0.131221 -0.142622 0.0335724 -0.113292 -0.140696 0.0241924 -0.105838 -0.129343 0.0274704 
-0.107707 -0.13455 0.0208737 -0.122143 -0.126208 0.0104821 -0.111196 -0.126493 0.0232905 
-0.108883 -0.127197 0.028975 -0.135232 -0.142656 0.0318438 -0.130417 -0.130167 0.0208453 
-0.138056 -0.142569 0.0299055 -0.11165 -0.13901 0.0309622 -0.131237 -0.141038 0.00640798 
-0.121725 -0.141649 0.0318947 -0.150195 -0.138823 0.00535945 -0.11002 -0.139322 0.0225147 
-0.141812 -0.142295 0.0263038 -0.122685 -0.138251 0.0319313 -0.146724 -0.14167 0.0198599 
-0.124655 -0.132237 0.00327048 -0.136845 -0.142078 0.0160484 -0.122755 -0.142986 0.0287918 
-0.120821 -0.129462 0.0265808 -0.118844 -0.142684 0.0231073 -0.14531 -0.132552 0.0121515 
-0.149292 -0.141275 0.0160485 -0.107259 -0.133089 0.0172578 -0.127798 -0.131614 0.00333564 
-0.141842 -0.142769 0.0293558 -0.136007 -0.127256 0.0048912 -0.0488013 -0.1062 0.0168786 
-0.0580414 -0.107002 0.0120499 -0.0676578 -0.107329 0.00923045 -0.0567822 -0.108955 0.0233377 
-0.0438134 -0.1057 0.026095 -0.064636 -0.109819 0.0195139 -0.0745693 -0.110589 0.0141827 
-0.0492055 -0.110778 0.0273778 -0.0760095 -0.10836 0.00608309 -0.0507056 -0.102735 0.00657441 
-0.0631222 -0.112887 0.02746 -0.0716353 -0.112316 0.0202524 -0.0561548 -0.0995249 0.00552759 
-0.0581965 -0.113945 0.030823 -0.0622319 -0.100847 0.00506642 -0.0683986 -0.113677 0.0244665 
-0.0514097 -0.105205 0.0293034 -0.0738399 -0.101845 0.00495356 -0.0458024 -0.107593 0.00681177 
-0.0799673 -0.112019 0.00985671 -0.050077 -0.111695 0.00807377 -0.0626919 -0.115528 0.0325457 
-0.0445372 -0.113194 0.0237085 -0.037264 -0.10189 0.0275191 -0.0389161 -0.106911 0.0207235 
-0.053139 -0.0983672 0.0102023 -0.0425322 -0.0989555 0.0232841 -0.040365 -0.0998117 0.0290049 
-0.0666557 -0.11554 0.0307104 -0.0616517 -0.102694 0.0202192 -0.0694283 -0.115415 0.0287009 
-0.0430888 -0.111699 0.0305666 -0.0620019 -0.113134 0.00544938 -0.0531633 -0.114437 0.0311514 
-0.0809435 -0.111027 0.0039616 -0.0412329 -0.111747 0.0221601 -0.0730893 -0.115061 0.02501 
-0.054151 -0.111048 0.0312631 -0.0778339 -0.114279 0.0184587 -0.0554105 -0.104196 0.00275073 
-0.0678554 -0.114502 0.0149017 -0.0540997 -0.115688 0.0279839 -0.0522163 -0.102091 0.026227 
-0.0500427 -0.115189 0.0224171 -0.0762898 -0.104925 0.0110645 -0.0803039 -0.113789 0.0145936 
-0.0383843 -0.10534 0.0171657 -0.0585594 -0.103598 0.00275046 -0.0731968 -0.115626 0.0280448 
-0.0668407 -0.0993477 0.00421498 
VERTICES 100 200
1 0 
1 1 
1 2 
1 3 
1 4 
1 5 
1 6 
1 7 
1 8 
1 9 
1 10 
1 11 
1 12 
1 13 
1 14 
1 15 
1 16 
1 17 
1 18 
1 19 
1 20 
1 21 
1 22 
1 23 
1 24 
1 25 
1 26 
1 27 
1 28 
1 29 
1 30 
1 31 
1 32 
1 33 
1 34 
1 35 
1 36 
1 37 
1 38 
1 39 
1 40 
1 41 
1 42 
1 43 
1 44 
1 45 
1 46 
1 47 
1 48 
1 49 
1 50 
1 51 
1 52 
1 53 
1 54 
1 55 
1 56 
1 57 
1 58 
1 59 
1 60 
1 61 
1 62 
1 63 
1 64 
1 65 
1 66 
1 67 
1 68 
1 69 
1 70 
1 71 
1 72 
1 73 
1 74 
1 75 
1 76 
1 77 
1 78 
1 79 
1 80 
1 81 
1 82 
1 83 
1 84 
1 85 
1 86 
1 87 
1 88 
1 89 
1 90 
1 91 
1 92 
1 93 
1 94 
1 95 
1 96 
1 97 
1 98 
1 99 

POINT_DATA 100
FIELD FieldData 7
id 1 100 int
1 2 3 4 5 6 7 8 9 
10 11 12 13 14 15 16 17 18 
19 20 21 22 23 24 25 26 27 
28 29 30 31 32 33 34 35 36 
37 38 39 40 41 42 43 44 45 
46 47 48 49 50 51 52 53 54 
55 56 57 58 59 60 61 62 63 
64 65 66 67 68 69 70 71 72 
73 74 75 76 77 78 79 80 81 
82 83 84 85 86 87 88 89 90 
91 92 93 94 95 96 97 98 99 
100 
mol 1 100 int
1 1 1 1 1 1 1 1 1 
1 1 1 1 1 1 1 1 1 
1 1 1 1 1 1 1 1 1 
1 1 1 1 1 1 1 1 1 
1 1 1 1 1 1 1 1 1 
1 1 1 1 1 2 2 2 2 
2 2 2 2 2 2 2 2 2 
2 2 2 2 2 2 2 2 2 
2 2 2 2 2 2 2 2 2 
2 2 2 2 2 2 2 2 2 
2 2 2 2 2 2 2 2 2 
2 
type 1 100 int
1 1 1 1 1 1 1 1 1 
1 1 1 1 1 1 1 1 1 
1 1 1 1 1 1 1 1 1 
1 1 1 1 1 1 1 1 1 
1 1 1 1 1 1 1 1 1 
1 1 1 1 1 1 1 1 1 
1 1 1 1 1 1 1 1 1 
1 1 1 1 1 1 1 1 1 
1 1 1 1 1 1 1 1 1 
1 1 1 1 1 1 1 1 1 
1 1 1 1 1 1 1 1 1 
1 
v 3 100 double
-0.13463520603 -0.065362957911 -0.35142038379 -0.10181968419 -0.062520748332 -0.41945154452 -0.08350194623 -0.062919050955 -0.48892597381 
-0.18153000272 -0.079302980008 -0.41097027616 -0.19945236022 -0.077025142811 -0.31303087937 -0.15559221185 -0.077325963195 -0.46901989725 
-0.11933781698 -0.074051191119 -0.54204239159 -0.20842735562 -0.081879453086 -0.35912574513 -0.06243943606 -0.062230755017 -0.550619196 
-0.062413133951 -0.050329488261 -0.36183745436 -0.21118437347 -0.08891646938 -0.4612975223 -0.16160705039 -0.08200473413 -0.52253458733 
-0.056758093886 -0.051231846774 -0.39565450536 -0.23394817752 -0.091714192099 -0.42721529428 -0.054326413765 -0.053562676667 -0.44102825624 
-0.19068543547 -0.086947939617 -0.50073049996 -0.22388238891 -0.085633979398 -0.36542611471 -0.05551364109 -0.059116661577 -0.52507651912 
-0.062017657085 -0.048534816031 -0.33471957975 -0.089217917402 -0.070131298236 -0.58367718253 -0.070860228113 -0.052762465213 -0.37132592444 
-0.24670869763 -0.09663153552 -0.46125927855 -0.18082269463 -0.074091158519 -0.33069752734 -0.20924008608 -0.075816478351 -0.26010466217 
-0.15996232279 -0.066456347388 -0.28145304602 -0.089754159794 -0.056864724474 -0.37128863289 -0.18077342197 -0.071757114578 -0.2938262591 
-0.22090970137 -0.079507990304 -0.27845584346 -0.2343920528 -0.095757844968 -0.4898575015 -0.16172519666 -0.076595658092 -0.43628553156 
-0.22063800881 -0.094027789393 -0.50982092861 -0.22975337434 -0.083820762976 -0.31640929391 -0.054112218012 -0.054643711705 -0.45892269524 
-0.23520595738 -0.089780011453 -0.39218355687 -0.047643676877 -0.061523986801 -0.59041361799 -0.1694999751 -0.070030230612 -0.30528775629 
-0.19513053091 -0.090143764001 -0.5361228585 -0.23699062321 -0.090267005645 -0.39375920027 -0.14955482939 -0.082384250756 -0.57010949221 
-0.035731649079 -0.046842093329 -0.39848146749 -0.12224895549 -0.072062469745 -0.50044487231 -0.21252560104 -0.085444701475 -0.40157666351 
-0.20285575701 -0.081159338902 -0.36690656922 -0.17220889953 -0.0749031791 -0.37328171114 -0.098789764051 -0.069833549626 -0.54595142652 
-0.12260995232 -0.077643860341 -0.58777662626 -0.13488589969 -0.060665403662 -0.27600615934 -0.03647475971 -0.048352368821 -0.41988745802 
-0.21663695651 -0.094875717857 -0.53707178526 -0.049498605909 -0.054437862076 -0.47156205367 -0.15292335913 -0.12434090104 0.16213816407 
-0.10692120376 -0.10481589854 0.070870636729 -0.080294383299 -0.10043308355 -0.020457562253 -0.20809734096 -0.1842734891 0.068402757493 
-0.23901561464 -0.18263411782 0.21189394392 -0.17128749368 -0.16970353437 -0.010489942324 -0.12068906792 -0.1477011108 -0.10794596118 
-0.24244180398 -0.20086583081 0.12532677832 -0.04946460969 -0.091578335328 -0.10516572797 -0.063360803352 -0.053062904697 0.16955934695 
-0.23969554401 -0.2245944961 -0.018655172024 -0.1739691501 -0.18667486004 -0.093278896298 -0.059012810326 -0.054558791176 0.14233891022 
-0.26904987598 -0.24070302737 0.019274487723 -0.052547980869 -0.06132944531 0.076565480602 -0.21069108745 -0.21173925236 -0.07316842262 
-0.26952021936 -0.21844191331 0.1451987587 -0.049846340432 -0.079811253358 -0.038024480491 -0.057480778566 -0.046626571281 0.17982259435 
-0.078291185319 -0.12542075809 -0.16821644802 -0.06233667792 -0.062850206252 0.11064352433 -0.28235408291 -0.26062157399 -0.033750627215 
-0.20448082134 -0.16659587267 0.15105928809 -0.25852395317 -0.18203525604 0.30000818187 -0.1873119086 -0.13568608145 0.24845354939 
-0.10418275295 -0.083317944584 0.17860286304 -0.22422471274 -0.1601966664 0.2724753804 -0.27572458107 -0.19792460555 0.28633855158 
-0.26535625262 -0.25395175773 -0.070505155386 -0.18965743604 -0.16983820216 0.068594922177 -0.24697330646 -0.24404317096 -0.095255948759 
-0.27041051647 -0.21373531678 0.17525951338 -0.035665204235 -0.06371394275 -0.010075108821 -0.27126854056 -0.23470834033 0.062276274965 
-0.025405450041 -0.084453643597 -0.17007689567 -0.19256226676 -0.14991638573 0.19208139057 -0.21341736421 -0.22346401216 -0.12656700528 
-0.27793620048 -0.23715723381 0.077625608974 -0.15411140691 -0.18402069471 -0.16480894678 -0.025558466108 -0.033259612342 0.11547620806 
-0.12083517136 -0.14173432986 -0.074106649673 -0.23988610604 -0.21338077117 0.044575912037 -0.24623701796 -0.19755671668 0.16023525777 
-0.18921871344 -0.16641879612 0.085716818229 -0.10125730814 -0.12803281854 -0.082943324672 -0.11917034879 -0.16020276541 -0.18411626851 
-0.15701081287 -0.10909823942 0.2647253294 -0.026550238894 -0.038492437001 0.090666384923 -0.2405535681 -0.24556751965 -0.13163841044 
-0.047164358711 -0.062839769056 0.044763942504 
f 3 100 double
0 0 0 0 0 0 0 0 0 
0 0 0 0 0 0 0 0 0 
0 0 0 0 0 0 0 0 0 
0 0 0 0 0 0 0 0 0 
0 0 0 0 0 0 0 0 0 
0 0 0 0 0 0 0 0 0 
0 0 0 0 0 0 0 0 0 
0 0 0 0 0 0 0 0 0 
0 0 0 0 0 0 0 0 0 
0 0 0 0 0 0 0 0 0 
0 0 0 0 0 0 0 0 0 
0 0 0 0 0 0 0 0 0 
0 0 0 0 0 0 0 0 0 
0 0 0 0 0 0 0 0 0 
0 0 0 0 0 0 0 0 0 
0 0 0 0 0 0 0 0 0 
0 0 0 0 0 0 0 0 0 
0 0 0 0 0 0 0 0 0 
0 0 0 0 0 0 0 0 0 
0 0 0 0 0 0 0 0 0 
0 0 0 0 0 0 0 0 0 
0 0 0 0 0 0 0 0 0 
0 0 0 0 0 0 0 0 0 
0 0 0 0 0 0 0 0 0 
0 0 0 0 0 0 0 0 0 
0 0 0 0 0 0 0 0 0 
0 0 0 0 0 0 0 0 0 
0 0 0 0 0 0 0 0 0 
0 0 0 0 0 0 0 0 0 
0 0 0 0 0 0 -0.048178024574 -0.090952463171 0.20584919343 
0 0 0 0 0 0 0 0 0 
0 0 0 0 0 0 0 0 0 
0 0 0 0.002887890008 0.2490626157 -0.688964461 0 0 0 
0 0 0 
radius 1 100 double
0.010434 0.00981478 0.00892069 0.00845937 0.00731974 0.00728422 0.00643447 0.00619172 0.00585956 
0.00577566 0.00537241 0.00522549 0.00513666 0.00473175 0.00466912 0.00444866 0.00441894 0.00400812 
0.00385622 0.00379948 0.00370243 0.00366942 0.00364039 0.00363813 0.00363644 0.00358692 0.0035797 
0.00341284 0.00337012 0.00336273 0.00332772 0.00323261 0.00320584 0.00320311 0.00318808 0.00313116 
0.00306026 0.00305632 0.00304383 0.00300958 0.00300137 0.00298994 0.0029567 0.00295111 0.00290849 
0.00284552 0.00282964 0.0028207 0.00281971 0.00281899 0.010434 0.00981478 0.00892069 0.00845937 
0.00731974 0.00728422 0.00643447 0.00619172 0.00585956 0.00577566 0.00537241 0.00522549 0.00513666 
0.00473175 0.00466912 0.00444866 0.00441894 0.00400812 0.00385622 0.00379948 0.00370243 0.00366942 
0.00364039 0.00363813 0.00363644 0.00358692 0.0035797 0.00341284 0.00337012 0.00336273 0.00332772 
0.00323261 0.00320584 0.00320311 0.00318808 0.00313116 0.00306026 0.00305632 0.00304383 0.00300958 
0.00300137 0.00298994 0.0029567 0.00295111 0.00290849 0.00284552 0.00282964 0.0028207 0.00281971 
0.00281899 
omega 3 100 double
1.5459523811 -7.1161755188 0.44840587119 1.5459523811 -7.1161755188 0.44840587119 1.5459523811 -7.1161755188 0.44840587119 
1.5459523811 -7.1161755188 0.44840587119 1.5459523811 -7.1161755188 0.44840587119 1.5459523811 -7.1161755188 0.44840587119 
1.5459523811 -7.1161755188 0.44840587119 1.5459523811 -7.1161755188 0.44840587119 1.5459523811 -7.1161755188 0.44840587119 
1.5459523811 -7.1161755188 0.44840587119 1.5459523811 -7.1161755188 0.44840587119 1.5459523811 -7.1161755188 0.44840587119 
1.5459523811 -7.1161755188 0.44840587119 1.5459523811 -7.1161755188 0.44840587119 1.5459523811 -7.1161755188 0.44840587119 
1.5459523811 -7.1161755188 0.44840587119 1.5459523811 -7.1161755188 0.44840587119 1.5459523811 -7.1161755188 0.44840587119 
1.5459523811 -7.1161755188 0.44840587119 1.5459523811 -7.1161755188 0.44840587119 1.5459523811 -7.1161755188 0.44840587119 
1.5459523811 -7.1161755188 0.44840587119 1.5459523811 -7.1161755188 0.44840587119 1.5459523811 -7.1161755188 0.44840587119 
1.5459523811 -7.1161755188 0.44840587119 1.5459523811 -7.1161755188 0.44840587119 1.5459523811 -7.1161755188 0.44840587119 
1.5459523811 -7.1161755188 0.44840587119 1.5459523811 -7.1161755188 0.44840587119 1.5459523811 -7.1161755188 0.44840587119 
1.5459523811 -7.1161755188 0.44840587119 1.5459523811 -7.1161755188 0.44840587119 1.5459523811 -7.1161755188 0.44840587119 
1.5459523811 -7.1161755188 0.44840587119 1.5459523811 -7.1161755188 0.44840587119 1.5459523811 -7.1161755188 0.44840587119 
1.5459523811 -7.1161755188 0.44840587119 1.5459523811 -7.1161755188 0.44840587119 1.5459523811 -7.1161755188 0.44840587119 
1.5459523811 -7.1161755188 0.44840587119 1.5459523811 -7.1161755188 0.44840587119 1.5459523811 -7.1161755188 0.44840587119 
1.5459523811 -7.1161755188 0.44840587119 1.5459523811 -7.1161755188 0.44840587119 1.5459523811 -7.1161755188 0.44840587119 
1.5459523811 -7.1161755188 0.44840587119 1.5459523811 -7.1161755188 0.44840587119 1.5459523811 -7.1161755188 0.44840587119 
1.5459523811 -7.1161755188 0.44840587119 1.5459523811 -7.1161755188 0.44840587119 7.2246255481 -9.2510015241 1.6623932248 
7.2246255481 -9.2510015241 1.6623932248 7.2246255481 -9.2510015241 1.6623932248 7.2246255481 -9.2510015241 1.6623932248 
7.2246255481 -9.2510015241 1.6623932248 7.2246255481 -9.2510015241 1.6623932248 7.2246255481 -9.2510015241 1.6623932248 
7.2246255481 -9.2510015241 1.6623932248 7.2246255481 -9.2510015241 1.6623932248 7.2246255481 -9.2510015241 1.6623932248 
7.2246255481 -9.2510015241 1.6623932248 7.2246255481 -9.2510015241 1.6623932248 7.2246255481 -9.2510015241 1.6623932248 
7.2246255481 -9.2510015241 1.6623932248 7.2246255481 -9.2510015241 1.6623932248 7.2246255481 -9.2510015241 1.6623932248 
7.2246255481 -9.2510015241 1.6623932248 7.2246255481 -9.2510015241 1.6623932248 7.2246255481 -9.2510015241 1.6623932248 
7.2246255481 -9.2510015241 1.6623932248 7.2246255481 -9.2510015241 1.6623932248 7.2246255481 -9.2510015241 1.6623932248 
7.2246255481 -9.2510015241 1.6623932248 7.2246255481 -9.2510015241 1.6623932248 7.2246255481 -9.2510015241 1.6623932248 
7.2246255481 -9.2510015241 1.6623932248 7.2246255481 -9.2510015241 1.6623932248 7.2246255481 -9.2510015241 1.6623932248 
7.2246255481 -9.2510015241 1.6623932248 7.2246255481 -9.2510015241 1.6623932248 7.2246255481 -9.2510015241 1.6623932248 
7.2246255481 -9.2510015241 1.6623932248 7.2246255481 -9.2510015241 1.6623932248 7.2246255481 -9.2510015241 1.6623932248 
7.2246255481 -9.2510015241 1.6623932248 7.2246255481 -9.2510015241 1.6623932248 7.2246255481 -9.2510015241 1.6623932248 
7.2246255481 -9.2510015241 1.6623932248 7.2246255481 -9.2510015241 1.6623932248 7.2246255481 -9.2510015241 1.6623932248 
7.2246255481 -9.2510015241 1.6623932248 7.2246255481 -9.2510015241 1.6623932248 7.2246255481 -9.2510015241 1.6623932248 
7.2246255481 -9.2510015241 1.6623932248 7.2246255481 -9.2510015241 1.6623932248 7.2246255481 -9.2510015241 1.6623932248 
7.2246255481 -9.2510015241 1.6623932248 7.2246255481 -9.2510015241 1.6623932248 7.2246255481 -9.2510015241 1.6623932248 
7.2246255481 -9.2510015241 1.6623932248 
