# vtk DataFile Version 4.1
Generated by LIGGGHTS
ASCII
DATASET POLYDATA
POINTS 100 float
-0.11484 -0.132459 0.0226382 -0.124812 -0.133376 0.0196273 -0.134783 -0.133682 0.018624 
-0.121536 -0.13462 0.0306065 -0.108253 -0.131468 0.0307442 -0.129962 -0.135563 0.0283348 
-0.140707 -0.136467 0.0249544 -0.113368 -0.136337 0.033322 -0.143577 -0.134737 0.0171175 
-0.118557 -0.129629 0.0126388 -0.127055 -0.138142 0.0360645 -0.136733 -0.137858 0.0304952 
-0.124076 -0.126379 0.0123813 -0.121609 -0.139083 0.0385439 -0.130148 -0.1276 0.0131183 
-0.132795 -0.139011 0.0341359 -0.115134 -0.130606 0.0352338 -0.141591 -0.128356 0.0151763 
-0.113736 -0.134564 0.0123123 -0.146815 -0.13806 0.0217837 -0.117747 -0.138484 0.0146015 
-0.12573 -0.140455 0.0411548 -0.109467 -0.139084 0.02904 -0.10152 -0.127713 0.0306984 
-0.104427 -0.133128 0.0246692 -0.12025 -0.124985 0.0163437 -0.107445 -0.124948 0.0272986 
-0.10428 -0.125478 0.0325771 -0.129962 -0.140502 0.0400725 -0.126835 -0.128472 0.0280052 
-0.133053 -0.14045 0.0385944 -0.106781 -0.137179 0.0354057 -0.129963 -0.139838 0.0142826 
-0.116605 -0.13966 0.0379883 -0.148839 -0.137431 0.0161094 -0.106487 -0.13781 0.0268249 
-0.137321 -0.140258 0.0356119 -0.117525 -0.13625 0.0380476 -0.143172 -0.139802 0.0299901 
-0.123892 -0.131235 0.00983762 -0.13401 -0.140466 0.0247088 -0.118114 -0.141093 0.0351345 
-0.116459 -0.127681 0.032151 -0.115134 -0.141041 0.0289044 -0.142915 -0.130982 0.0218236 
-0.146299 -0.139511 0.0266119 -0.104537 -0.131802 0.020976 -0.126983 -0.130572 0.010367 
-0.136879 -0.140623 0.0386471 -0.134821 -0.126061 0.0130158 -0.045945 -0.104659 0.0215136 
-0.0558489 -0.105576 0.0182872 -0.0657964 -0.105895 0.0170718 -0.0528034 -0.106884 0.0293251 
-0.0395329 -0.103707 0.0297628 -0.0611778 -0.107829 0.0268702 -0.0718465 -0.108732 0.0232581 
-0.0446902 -0.108602 0.0322015 -0.0745545 -0.106958 0.0153734 -0.0494559 -0.101773 0.0114559 
-0.0584289 -0.110451 0.0346431 -0.0679872 -0.110151 0.0288728 -0.0549755 -0.0985326 0.0111024 
-0.0530346 -0.111397 0.037231 -0.0610583 -0.0997698 0.0117034 -0.0641251 -0.111319 0.0325884 
-0.0465084 -0.102886 0.0341116 -0.0725408 -0.100561 0.0135147 -0.0446195 -0.106697 0.0112002 
-0.077883 -0.110317 0.0199493 -0.0486691 -0.110639 0.0133796 -0.0572067 -0.112794 0.0397457 
-0.0406947 -0.111314 0.0279856 -0.0328079 -0.0999392 0.0298827 -0.0355756 -0.105321 0.0237596 
-0.0512361 -0.0971562 0.0151533 -0.038665 -0.0971643 0.0263761 -0.0356114 -0.0977208 0.0317168 
-0.0614144 -0.112842 0.038574 -0.0580591 -0.10073 0.0266512 -0.0644735 -0.112786 0.0370314 
-0.0381474 -0.109444 0.0344184 -0.0608727 -0.112015 0.0127945 -0.0480186 -0.11196 0.0367774 
-0.0797881 -0.109656 0.0142376 -0.0376711 -0.110021 0.0258419 -0.0686784 -0.112584 0.0339607 
-0.0489469 -0.108553 0.0368388 -0.0744101 -0.112104 0.0282197 -0.0547276 -0.103372 0.00853275 
-0.0651375 -0.112717 0.0231288 -0.0494637 -0.113379 0.0338835 -0.0477741 -0.0999449 0.0310199 
-0.0463529 -0.113282 0.0277182 -0.0739995 -0.103231 0.020116 -0.0774665 -0.111798 0.0247781 
-0.035611 -0.103972 0.0200733 -0.0578303 -0.102718 0.00900092 -0.0683001 -0.112967 0.0370022 
-0.0657314 -0.0982397 0.0115121 
VERTICES 100 200
1 0 
1 1 
1 2 
1 3 
1 4 
1 5 
1 6 
1 7 
1 8 
1 9 
1 10 
1 11 
1 12 
1 13 
1 14 
1 15 
1 16 
1 17 
1 18 
1 19 
1 20 
1 21 
1 22 
1 23 
1 24 
1 25 
1 26 
1 27 
1 28 
1 29 
1 30 
1 31 
1 32 
1 33 
1 34 
1 35 
1 36 
1 37 
1 38 
1 39 
1 40 
1 41 
1 42 
1 43 
1 44 
1 45 
1 46 
1 47 
1 48 
1 49 
1 50 
1 51 
1 52 
1 53 
1 54 
1 55 
1 56 
1 57 
1 58 
1 59 
1 60 
1 61 
1 62 
1 63 
1 64 
1 65 
1 66 
1 67 
1 68 
1 69 
1 70 
1 71 
1 72 
1 73 
1 74 
1 75 
1 76 
1 77 
1 78 
1 79 
1 80 
1 81 
1 82 
1 83 
1 84 
1 85 
1 86 
1 87 
1 88 
1 89 
1 90 
1 91 
1 92 
1 93 
1 94 
1 95 
1 96 
1 97 
1 98 
1 99 

POINT_DATA 100
FIELD FieldData 7
id 1 100 int
1 2 3 4 5 6 7 8 9 
10 11 12 13 14 15 16 17 18 
19 20 21 22 23 24 25 26 27 
28 29 30 31 32 33 34 35 36 
37 38 39 40 41 42 43 44 45 
46 47 48 49 50 51 52 53 54 
55 56 57 58 59 60 61 62 63 
64 65 66 67 68 69 70 71 72 
73 74 75 76 77 78 79 80 81 
82 83 84 85 86 87 88 89 90 
91 92 93 94 95 96 97 98 99 
100 
mol 1 100 int
1 1 1 1 1 1 1 1 1 
1 1 1 1 1 1 1 1 1 
1 1 1 1 1 1 1 1 1 
1 1 1 1 1 1 1 1 1 
1 1 1 1 1 1 1 1 1 
1 1 1 1 1 2 2 2 2 
2 2 2 2 2 2 2 2 2 
2 2 2 2 2 2 2 2 2 
2 2 2 2 2 2 2 2 2 
2 2 2 2 2 2 2 2 2 
2 2 2 2 2 2 2 2 2 
2 
type 1 100 int
1 1 1 1 1 1 1 1 1 
1 1 1 1 1 1 1 1 1 
1 1 1 1 1 1 1 1 1 
1 1 1 1 1 1 1 1 1 
1 1 1 1 1 1 1 1 1 
1 1 1 1 1 1 1 1 1 
1 1 1 1 1 1 1 1 1 
1 1 1 1 1 1 1 1 1 
1 1 1 1 1 1 1 1 1 
1 1 1 1 1 1 1 1 1 
1 1 1 1 1 1 1 1 1 
1 
v 3 100 double
-0.12412384605 -0.063314815808 -0.1367030987 -0.10245729314 -0.061913019044 -0.20888585494 -0.095237218445 -0.06405052866 -0.27999247247 
-0.17966790628 -0.079985983209 -0.18790186393 -0.18187650421 -0.075025117695 -0.088344591887 -0.16322191418 -0.079281879774 -0.24919429583 
-0.13894516564 -0.077531288904 -0.32682278222 -0.19821221908 -0.081573197035 -0.1331197061 -0.084162281268 -0.064839580719 -0.34408731232 
-0.054468535862 -0.047142278103 -0.15801704607 -0.21691301465 -0.091770063318 -0.23316646327 -0.17761159735 -0.085742729787 -0.30115135805 
-0.053919239628 -0.048850527629 -0.19134852955 -0.2340909815 -0.094007861605 -0.19628607449 -0.058656558227 -0.052528139827 -0.23646509707 
-0.20292426383 -0.090618691462 -0.27532065912 -0.21398687225 -0.085635604466 -0.13551617627 -0.072924399932 -0.060639127541 -0.31878017582 
-0.05022469251 -0.04467827828 -0.1326035619 -0.11588274327 -0.07433426983 -0.37285674009 -0.064889261902 -0.05028507089 -0.16789502766 
-0.25203034744 -0.10022514625 -0.22786846667 -0.16683313496 -0.072496218902 -0.11035990987 -0.18302360568 -0.072306722892 -0.034074553546 
-0.13823487263 -0.062816110017 -0.064190016668 -0.08250652441 -0.054336969934 -0.16180935327 -0.16004690022 -0.06863379737 -0.071125521925 
-0.19719469697 -0.07669994165 -0.049663644733 -0.24435249438 -0.099974711837 -0.25789708478 -0.16366709236 -0.077475755957 -0.21456327933 
-0.23391282974 -0.098579695559 -0.27967786749 -0.21262808242 -0.082666375118 -0.087992103154 -0.062101897278 -0.054508335289 -0.25673218455 
-0.22993277249 -0.091067898361 -0.16188894317 -0.075972708399 -0.065123486686 -0.3860716718 -0.15165588527 -0.06742355684 -0.087024717425 
-0.21288122419 -0.094993784316 -0.3095471964 -0.23168870486 -0.091533072886 -0.16239007052 -0.17327555904 -0.087374734121 -0.35014698252 
-0.03401595071 -0.044293999186 -0.1986059122 -0.13564057232 -0.074474856688 -0.28648010802 -0.20917537607 -0.086627740319 -0.17509230136 
-0.19331575893 -0.080719706171 -0.13973699922 -0.16510694938 -0.074476969502 -0.15391048315 -0.11893810157 -0.072876934008 -0.33277995289 
-0.14948214191 -0.082644241011 -0.37176847603 -0.112618212 -0.056348462888 -0.062635028997 -0.038022026471 -0.046438071348 -0.21930993949 
-0.23421770472 -0.10017158656 -0.30706330328 -0.058534561652 -0.054178253437 -0.26682337646 -0.12309484908 -0.062929203473 -0.18497550866 
-0.10029188853 -0.061409564095 -0.25540534753 -0.091712339301 -0.063364252122 -0.32511094671 -0.17649790944 -0.079144547638 -0.23648021339 
-0.18083226907 -0.07450218709 -0.13876085793 -0.15904667454 -0.078329121337 -0.29632447687 -0.13356792068 -0.076457425278 -0.37204766219 
-0.19579691025 -0.080790648489 -0.18302895236 -0.079472686131 -0.064005252653 -0.3878263471 -0.054345346137 -0.047068378532 -0.20442339191 
-0.21201976567 -0.090572535928 -0.28172045738 -0.17202517705 -0.084539532806 -0.34765581865 -0.053204933152 -0.04870452013 -0.23722623844 
-0.2296265151 -0.092827935514 -0.24584462842 -0.056880394606 -0.052210392229 -0.28164159776 -0.19738204906 -0.089356364329 -0.32281483058 
-0.2113994737 -0.084812960159 -0.18584467895 -0.06915082441 -0.059991628043 -0.36283067555 -0.0505663151 -0.044662757597 -0.17926213034 
-0.10992006701 -0.073223843612 -0.41673864394 -0.064115254405 -0.05005516385 -0.21419219663 -0.24654131906 -0.098846533877 -0.27725168786 
-0.16538454616 -0.071919666473 -0.15991329924 -0.18319787558 -0.071974493725 -0.085530441979 -0.13844108371 -0.06257461146 -0.1140225551 
-0.081927483813 -0.054147531856 -0.20886282637 -0.15994699016 -0.068327903843 -0.12147976888 -0.19685036792 -0.076266685487 -0.10120710761 
-0.23837602274 -0.098543056352 -0.30658720836 -0.16040991502 -0.07668485023 -0.26244041543 -0.22767399601 -0.097134991896 -0.32775852124 
-0.21086663004 -0.081941422487 -0.13898951995 -0.059487915222 -0.05401038444 -0.30139909835 -0.22624438483 -0.090009251776 -0.21194106384 
-0.070479521578 -0.064180417506 -0.42884796261 -0.15100678494 -0.067005696133 -0.13666982956 -0.20640832842 -0.0935662408 -0.35664488351 
-0.22805613249 -0.090492096349 -0.21253787694 -0.16669082386 -0.086028034405 -0.39566709991 -0.033372918052 -0.044186798742 -0.24382164486 
-0.1310491721 -0.073507864151 -0.33225521491 -0.20554849777 -0.085622310848 -0.22442576824 -0.19110110093 -0.080013172844 -0.18958818722 
-0.16272563467 -0.073760176349 -0.20263189305 -0.11395908469 -0.071931622785 -0.37756119472 -0.14288842587 -0.081354696379 -0.41638925456 
-0.11336155571 -0.056252608012 -0.11194983525 -0.036893594793 -0.046252850427 -0.26426809807 -0.22739752046 -0.098640365217 -0.35467200127 
-0.056172162722 -0.053781192062 -0.31149958766 
f 3 100 double
0 0 0 0 0 0 0 0 0 
0 0 0 0 0 0 0 0 0 
0 0 0 0 0 0 0 0 0 
0 0 0 0 0 0 0 0 0 
0 0 0 0 0 0 0 0 0 
0 0 0 0 0 0 0 0 0 
0 0 0 0 0 0 0 0 0 
0 0 0 0 0 0 0 0 0 
0 0 0 0 0 0 0 0 0 
0 0 0 0 0 0 0 0 0 
0 0 0 0 0 0 0 0 0 
0 0 0 0 0 0 0 0 0 
0 0 0 0 0 0 0 0 0 
0 0 0 0 0 0 0 0 0 
0 0 0 0 0 0 0 0 0 
0 0 0 0 0 0 0 0 0 
0 0 0 0 0 0 0 0 0 
0 0 0 0 0 0 0 0 0 
0 0 0 0 0 0 0 0 0 
0 0 0 0 0 0 0 0 0 
0 0 0 0 0 0 0 0 0 
0 0 0 0 0 0 0 0 0 
0 0 0 0 0 0 0 0 0 
0 0 0 0 0 0 0 0 0 
0 0 0 0 0 0 0 0 0 
0 0 0 0 0 0 0 0 0 
0 0 0 0 0 0 0 0 0 
0 0 0 0 0 0 0 0 0 
0 0 0 0 0 0 0 0 0 
0 0 0 0 0 0 0 0 0 
0 0 0 0 0 0 0 0 0 
0 0 0 0 0 0 0 0 0 
0 0 0 0 0 0 0 0 0 
0 0 0 
radius 1 100 double
0.010434 0.00981478 0.00892069 0.00845937 0.00731974 0.00728422 0.00643447 0.00619172 0.00585956 
0.00577566 0.00537241 0.00522549 0.00513666 0.00473175 0.00466912 0.00444866 0.00441894 0.00400812 
0.00385622 0.00379948 0.00370243 0.00366942 0.00364039 0.00363813 0.00363644 0.00358692 0.0035797 
0.00341284 0.00337012 0.00336273 0.00332772 0.00323261 0.00320584 0.00320311 0.00318808 0.00313116 
0.00306026 0.00305632 0.00304383 0.00300958 0.00300137 0.00298994 0.0029567 0.00295111 0.00290849 
0.00284552 0.00282964 0.0028207 0.00281971 0.00281899 0.010434 0.00981478 0.00892069 0.00845937 
0.00731974 0.00728422 0.00643447 0.00619172 0.00585956 0.00577566 0.00537241 0.00522549 0.00513666 
0.00473175 0.00466912 0.00444866 0.00441894 0.00400812 0.00385622 0.00379948 0.00370243 0.00366942 
0.00364039 0.00363813 0.00363644 0.00358692 0.0035797 0.00341284 0.00337012 0.00336273 0.00332772 
0.00323261 0.00320584 0.00320311 0.00318808 0.00313116 0.00306026 0.00305632 0.00304383 0.00300958 
0.00300137 0.00298994 0.0029567 0.00295111 0.00290849 0.00284552 0.00282964 0.0028207 0.00281971 
0.00281899 
omega 3 100 double
1.7629632441 -7.0768218087 0.39174273697 1.7629632441 -7.0768218087 0.39174273697 1.7629632441 -7.0768218087 0.39174273697 
1.7629632441 -7.0768218087 0.39174273697 1.7629632441 -7.0768218087 0.39174273697 1.7629632441 -7.0768218087 0.39174273697 
1.7629632441 -7.0768218087 0.39174273697 1.7629632441 -7.0768218087 0.39174273697 1.7629632441 -7.0768218087 0.39174273697 
1.7629632441 -7.0768218087 0.39174273697 1.7629632441 -7.0768218087 0.39174273697 1.7629632441 -7.0768218087 0.39174273697 
1.7629632441 -7.0768218087 0.39174273697 1.7629632441 -7.0768218087 0.39174273697 1.7629632441 -7.0768218087 0.39174273697 
1.7629632441 -7.0768218087 0.39174273697 1.7629632441 -7.0768218087 0.39174273697 1.7629632441 -7.0768218087 0.39174273697 
1.7629632441 -7.0768218087 0.39174273697 1.7629632441 -7.0768218087 0.39174273697 1.7629632441 -7.0768218087 0.39174273697 
1.7629632441 -7.0768218087 0.39174273697 1.7629632441 -7.0768218087 0.39174273697 1.7629632441 -7.0768218087 0.39174273697 
1.7629632441 -7.0768218087 0.39174273697 1.7629632441 -7.0768218087 0.39174273697 1.7629632441 -7.0768218087 0.39174273697 
1.7629632441 -7.0768218087 0.39174273697 1.7629632441 -7.0768218087 0.39174273697 1.7629632441 -7.0768218087 0.39174273697 
1.7629632441 -7.0768218087 0.39174273697 1.7629632441 -7.0768218087 0.39174273697 1.7629632441 -7.0768218087 0.39174273697 
1.7629632441 -7.0768218087 0.39174273697 1.7629632441 -7.0768218087 0.39174273697 1.7629632441 -7.0768218087 0.39174273697 
1.7629632441 -7.0768218087 0.39174273697 1.7629632441 -7.0768218087 0.39174273697 1.7629632441 -7.0768218087 0.39174273697 
1.7629632441 -7.0768218087 0.39174273697 1.7629632441 -7.0768218087 0.39174273697 1.7629632441 -7.0768218087 0.39174273697 
1.7629632441 -7.0768218087 0.39174273697 1.7629632441 -7.0768218087 0.39174273697 1.7629632441 -7.0768218087 0.39174273697 
1.7629632441 -7.0768218087 0.39174273697 1.7629632441 -7.0768218087 0.39174273697 1.7629632441 -7.0768218087 0.39174273697 
1.7629632441 -7.0768218087 0.39174273697 1.7629632441 -7.0768218087 0.39174273697 1.7189004915 -6.9521974927 0.40652069457 
1.7189004915 -6.9521974927 0.40652069457 1.7189004915 -6.9521974927 0.40652069457 1.7189004915 -6.9521974927 0.40652069457 
1.7189004915 -6.9521974927 0.40652069457 1.7189004915 -6.9521974927 0.40652069457 1.7189004915 -6.9521974927 0.40652069457 
1.7189004915 -6.9521974927 0.40652069457 1.7189004915 -6.9521974927 0.40652069457 1.7189004915 -6.9521974927 0.40652069457 
1.7189004915 -6.9521974927 0.40652069457 1.7189004915 -6.9521974927 0.40652069457 1.7189004915 -6.9521974927 0.40652069457 
1.7189004915 -6.9521974927 0.40652069457 1.7189004915 -6.9521974927 0.40652069457 1.7189004915 -6.9521974927 0.40652069457 
1.7189004915 -6.9521974927 0.40652069457 1.7189004915 -6.9521974927 0.40652069457 1.7189004915 -6.9521974927 0.40652069457 
1.7189004915 -6.9521974927 0.40652069457 1.7189004915 -6.9521974927 0.40652069457 1.7189004915 -6.9521974927 0.40652069457 
1.7189004915 -6.9521974927 0.40652069457 1.7189004915 -6.9521974927 0.40652069457 1.7189004915 -6.9521974927 0.40652069457 
1.7189004915 -6.9521974927 0.40652069457 1.7189004915 -6.9521974927 0.40652069457 1.7189004915 -6.9521974927 0.40652069457 
1.7189004915 -6.9521974927 0.40652069457 1.7189004915 -6.9521974927 0.40652069457 1.7189004915 -6.9521974927 0.40652069457 
1.7189004915 -6.9521974927 0.40652069457 1.7189004915 -6.9521974927 0.40652069457 1.7189004915 -6.9521974927 0.40652069457 
1.7189004915 -6.9521974927 0.40652069457 1.7189004915 -6.9521974927 0.40652069457 1.7189004915 -6.9521974927 0.40652069457 
1.7189004915 -6.9521974927 0.40652069457 1.7189004915 -6.9521974927 0.40652069457 1.7189004915 -6.9521974927 0.40652069457 
1.7189004915 -6.9521974927 0.40652069457 1.7189004915 -6.9521974927 0.40652069457 1.7189004915 -6.9521974927 0.40652069457 
1.7189004915 -6.9521974927 0.40652069457 1.7189004915 -6.9521974927 0.40652069457 1.7189004915 -6.9521974927 0.40652069457 
1.7189004915 -6.9521974927 0.40652069457 1.7189004915 -6.9521974927 0.40652069457 1.7189004915 -6.9521974927 0.40652069457 
1.7189004915 -6.9521974927 0.40652069457 
