# vtk DataFile Version 4.1
Generated by LIGGGHTS
ASCII
DATASET POLYDATA
POINTS 100 float
-0.117501 -0.145112 0.0136163 -0.127349 -0.14253 0.0112306 -0.137174 -0.140566 0.0108501 
-0.124792 -0.150189 0.0194546 -0.111181 -0.149903 0.0204852 -0.133153 -0.148295 0.0175716 
-0.143744 -0.145369 0.0149345 -0.11716 -0.154453 0.0202494 -0.145948 -0.139129 0.0095632 
-0.120259 -0.136634 0.00711145 -0.131055 -0.155173 0.0223815 -0.140301 -0.150241 0.0185173 
-0.12512 -0.132926 0.00904124 -0.12596 -0.158222 0.0235797 -0.131336 -0.133322 0.00935611 
-0.136775 -0.153857 0.0206565 -0.117988 -0.150552 0.0251203 -0.142812 -0.133182 0.0113601 
-0.116353 -0.141273 0.00380738 -0.1499 -0.143891 0.0118005 -0.121071 -0.145073 0.00378818 
-0.13036 -0.160107 0.0252449 -0.11362 -0.154959 0.0149294 -0.103905 -0.147937 0.022106 
-0.107452 -0.148515 0.014283 -0.121276 -0.134628 0.0128648 -0.109118 -0.142811 0.0211832 
-0.106312 -0.146701 0.0250761 -0.134488 -0.158841 0.0245841 -0.128839 -0.142854 0.0210289 
-0.13746 -0.157464 0.0235785 -0.110909 -0.15739 0.0211028 -0.133313 -0.14397 0.00353572 
-0.121112 -0.159214 0.0224867 -0.15155 -0.139889 0.00756291 -0.110376 -0.153186 0.013609 
-0.141505 -0.154942 0.0214741 -0.121431 -0.156317 0.0244811 -0.146953 -0.150475 0.0174232 
-0.125672 -0.1355 0.00422886 -0.137833 -0.149603 0.0120985 -0.122726 -0.158546 0.0194173 
-0.118661 -0.146237 0.0242621 -0.119528 -0.155537 0.0140867 -0.144842 -0.138794 0.0155092 
-0.149842 -0.147841 0.0149741 -0.10718 -0.145365 0.0119571 -0.128621 -0.13474 0.00522851 
-0.141258 -0.156998 0.0237654 -0.135665 -0.131236 0.0104144 -0.0487042 -0.116038 0.0134528 
-0.0586945 -0.114075 0.0110704 -0.0686418 -0.112894 0.0106346 -0.0556367 -0.122171 0.0186812 
-0.0421148 -0.120864 0.0200377 -0.0640969 -0.120813 0.0167756 -0.0748524 -0.118547 0.0141548 
-0.0476903 -0.12585 0.0192883 -0.0774848 -0.112073 0.00927548 -0.0520575 -0.10729 0.00761868 
-0.0615082 -0.127882 0.0210399 -0.0710715 -0.123409 0.0173946 -0.0572391 -0.10417 0.00974172 
-0.0561962 -0.130595 0.0220935 -0.0634045 -0.105097 0.00988266 -0.0672902 -0.126895 0.0193029 
-0.0489154 -0.122459 0.0244483 -0.0748829 -0.106065 0.011633 -0.0477283 -0.111297 0.00402716 
-0.0810604 -0.117315 0.0110178 -0.0521122 -0.115454 0.0035846 -0.060449 -0.132968 0.0234961 
-0.0440378 -0.125611 0.0140256 -0.0350534 -0.118456 0.0219802 -0.0384183 -0.118654 0.0140585 
-0.0533268 -0.105871 0.0134952 -0.0406604 -0.113713 0.0213719 -0.0376011 -0.117678 0.0249883 
-0.0646573 -0.131991 0.0228507 -0.0603041 -0.115352 0.0207714 -0.0677177 -0.13078 0.0218973 
-0.0412304 -0.128329 0.0200337 -0.0643988 -0.115336 0.00315009 -0.0512659 -0.131092 0.0210306 
-0.0829719 -0.113116 0.00709326 -0.0409328 -0.123473 0.0129311 -0.0719255 -0.128427 0.0199205 
-0.0518565 -0.12841 0.0232524 -0.0776629 -0.124091 0.0161356 -0.0575004 -0.106361 0.00471998 
-0.0685665 -0.122028 0.0111086 -0.0528828 -0.130299 0.0179923 -0.0499314 -0.118156 0.0239387 
-0.0498641 -0.126596 0.0130049 -0.0765024 -0.112157 0.015252 -0.0807228 -0.121504 0.0138507 
-0.0383736 -0.115305 0.0120107 -0.0605177 -0.105932 0.00571306 -0.0715437 -0.130644 0.0220369 
-0.0679083 -0.103469 0.011014 
VERTICES 100 200
1 0 
1 1 
1 2 
1 3 
1 4 
1 5 
1 6 
1 7 
1 8 
1 9 
1 10 
1 11 
1 12 
1 13 
1 14 
1 15 
1 16 
1 17 
1 18 
1 19 
1 20 
1 21 
1 22 
1 23 
1 24 
1 25 
1 26 
1 27 
1 28 
1 29 
1 30 
1 31 
1 32 
1 33 
1 34 
1 35 
1 36 
1 37 
1 38 
1 39 
1 40 
1 41 
1 42 
1 43 
1 44 
1 45 
1 46 
1 47 
1 48 
1 49 
1 50 
1 51 
1 52 
1 53 
1 54 
1 55 
1 56 
1 57 
1 58 
1 59 
1 60 
1 61 
1 62 
1 63 
1 64 
1 65 
1 66 
1 67 
1 68 
1 69 
1 70 
1 71 
1 72 
1 73 
1 74 
1 75 
1 76 
1 77 
1 78 
1 79 
1 80 
1 81 
1 82 
1 83 
1 84 
1 85 
1 86 
1 87 
1 88 
1 89 
1 90 
1 91 
1 92 
1 93 
1 94 
1 95 
1 96 
1 97 
1 98 
1 99 

POINT_DATA 100
FIELD FieldData 7
id 1 100 int
1 2 3 4 5 6 7 8 9 
10 11 12 13 14 15 16 17 18 
19 20 21 22 23 24 25 26 27 
28 29 30 31 32 33 34 35 36 
37 38 39 40 41 42 43 44 45 
46 47 48 49 50 51 52 53 54 
55 56 57 58 59 60 61 62 63 
64 65 66 67 68 69 70 71 72 
73 74 75 76 77 78 79 80 81 
82 83 84 85 86 87 88 89 90 
91 92 93 94 95 96 97 98 99 
100 
mol 1 100 int
1 1 1 1 1 1 1 1 1 
1 1 1 1 1 1 1 1 1 
1 1 1 1 1 1 1 1 1 
1 1 1 1 1 1 1 1 1 
1 1 1 1 1 1 1 1 1 
1 1 1 1 1 2 2 2 2 
2 2 2 2 2 2 2 2 2 
2 2 2 2 2 2 2 2 2 
2 2 2 2 2 2 2 2 2 
2 2 2 2 2 2 2 2 2 
2 2 2 2 2 2 2 2 2 
2 
type 1 100 int
1 1 1 1 1 1 1 1 1 
1 1 1 1 1 1 1 1 1 
1 1 1 1 1 1 1 1 1 
1 1 1 1 1 1 1 1 1 
1 1 1 1 1 1 1 1 1 
1 1 1 1 1 1 1 1 1 
1 1 1 1 1 1 1 1 1 
1 1 1 1 1 1 1 1 1 
1 1 1 1 1 1 1 1 1 
1 1 1 1 1 1 1 1 1 
1 1 1 1 1 1 1 1 1 
1 
v 3 100 double
0.053223028613 -0.14363261878 -0.024950694804 0.047009417418 -0.10790032444 0.03937113206 0.04740225477 -0.09484185972 0.096630037394 
0.069536582134 -0.20308933376 -0.056273434735 0.07346971134 -0.22686714173 -0.10163149946 0.064503658662 -0.17436242645 -0.0050372531533 
0.057699589405 -0.13512715491 0.065827085034 0.068571884234 -0.21887215164 -0.13168598316 0.044090468622 -0.072480396412 0.14419102032 
0.037563659088 -0.067685293678 0.080683610031 0.075539650285 -0.23057162655 -0.090233374235 0.066144345259 -0.17867362059 -0.0015074721159 
0.047757157068 -0.0851533377 0.1399163017 0.077098573946 -0.24865105306 -0.14286232122 0.048528200321 -0.083168837302 0.15763182556 
0.070556001474 -0.20598463297 -0.054947411995 0.089435915862 -0.27316340239 -0.084666355043 0.055806659544 -0.095576716045 0.20018524103 
0.021633618896 -0.033840041071 0.014327720228 0.047831121458 -0.094233657304 0.10449947244 0.018177606849 -0.029417435349 -0.011759096005 
0.081361872212 -0.26354050343 -0.14845107928 0.049131328756 -0.16192729122 -0.15004386263 0.081008258666 -0.25166578175 -0.10539015146 
0.052569084492 -0.16012368471 -0.099261045016 0.059888224971 -0.13177644737 0.10697553964 0.082283890099 -0.23659213857 -0.028876837023 
0.092711375184 -0.28307311806 -0.082835690635 0.080131789679 -0.25239490209 -0.11941553371 0.081694781176 -0.21726679518 0.041029385417 
0.077770644757 -0.23838542217 -0.093246503348 0.068999706636 -0.23408736586 -0.18718060185 0.018259609614 -0.015650279932 0.044398359355 
0.072312557743 -0.24062553519 -0.17137776015 0.036272477514 -0.044888226837 0.15559288007 0.045999161785 -0.14990212828 -0.14158935311 
0.07250749262 -0.21100444266 -0.05031626075 0.082014578512 -0.2628718457 -0.13750319786 0.062030531917 -0.16038280622 0.01959324138 
0.02828532374 -0.03029376988 0.1128133792 0.043801782566 -0.10835726059 -0.0031041393556 0.061952515946 -0.20451001341 -0.15806356297 
0.09022016062 -0.26286839649 -0.033511507255 0.045607814454 -0.14713881976 -0.13548513603 0.065612535591 -0.14064063413 0.14402296835 
0.055636317393 -0.13013794813 0.059656968781 0.047075721359 -0.13408915013 -0.064638587913 0.032530676437 -0.038957905664 0.1319209663 
0.078852501392 -0.23710979589 -0.074430532534 0.054165802087 -0.091265023515 0.19665529028 0.10356796449 -0.11750182708 -0.088579451013 
0.088562312408 -0.089709250272 -0.0027501379524 0.086390963819 -0.078956639776 0.075945542143 0.13522652396 -0.15835031897 -0.094515587578 
0.14546290252 -0.17964349669 -0.17604684611 0.12307556114 -0.13579233506 -0.024495686707 0.10664235333 -0.10538219364 0.069238330452 
0.13683107319 -0.16920272954 -0.18128866797 0.077621270554 -0.06090643639 0.1439038351 0.069571801487 -0.064179794462 0.010916342995 
0.14745361839 -0.17486288477 -0.10405674936 0.12551766925 -0.13633177273 0.00076106898597 0.086343910478 -0.079114479058 0.073802413866 
0.15280122811 -0.18777754716 -0.16428311053 0.086665428157 -0.076041874953 0.10808108782 0.13620213005 -0.15564711837 -0.055686881295 
0.17466771265 -0.21343747758 -0.14323523994 0.098021386764 -0.083323683391 0.17852577444 0.042086479308 -0.035817795831 -0.053857767607 
0.085938802858 -0.07363553951 0.1226796065 0.036142636647 -0.028890038642 -0.060044200829 0.16078624768 -0.19706496676 -0.15578116271 
0.10082224417 -0.12576458531 -0.20430677944 0.16049740067 -0.20154815763 -0.20354013608 0.10590598153 -0.12997580917 -0.18213827806 
0.11095737738 -0.1146450641 0.032044029064 0.15962671806 -0.19231796114 -0.12355413734 0.18171757062 -0.22605516058 -0.17923007762 
0.15703186715 -0.18848790397 -0.11832194635 0.15435457014 -0.1733569226 -0.0028479878779 0.15132301124 -0.17801957158 -0.08670498356 
0.14022409513 -0.18022587992 -0.24735630284 0.033237642249 -0.016515582677 0.02543769536 0.14514865548 -0.18193192431 -0.20251317338 
0.061893241673 -0.038006642763 0.17251458501 0.094791866576 -0.1183687408 -0.20696739641 0.13937782978 -0.15780833842 -0.037216398855 
0.16229298142 -0.20093453167 -0.17502251535 0.11638710794 -0.12072839513 0.040109815028 0.050295185665 -0.035049892678 0.056453138688 
0.08327251467 -0.083150727734 -0.004385420567 0.12481714316 -0.15425298042 -0.18446745555 0.17416942966 -0.20827545656 -0.098644855679 
0.093118909376 -0.11277827752 -0.17286198626 0.11864507572 -0.11381737419 0.13642207373 0.1024874511 -0.09862589238 0.08375614616 
0.09416669784 -0.1121116854 -0.1531830836 0.057420676735 -0.041621483794 0.080937434382 0.15237817874 -0.17656892916 -0.059213619898 
0.095578957664 -0.082783838586 0.15326900977 
f 3 100 double
0 0 0 0 0 0 0 0 0 
0 0 0 0 0 0 0 0 0 
0 0 0 0 0 0 0 0 0 
0 0 0 0 0 0 0 0 0 
0 0 0 0 0 0 0 0 0 
0 0 0 0 0 0 0 0 0 
-0.009019198333 -0.011108148292 0.028617260319 0 0 0 0 0 0 
0 0 0 0 0 0 0 0 0 
0 0 0 0 0 0 0 0 0 
0 0 0 0 0 0 0 0 0 
0 0 0 0 0 0 0 0 0 
0 0 0 0 0 0 0 0 0 
0 0 0 0 0 0 0 0 0 
0 0 0 0 0 0 0 0 0 
0 0 0 0 0 0 0 0 0 
0 0 0 0 0 0 0 0 0 
0 0 0 0 0 0 0 0 0 
0 0 0 0 0 0 0 0 0 
0 0 0 0 0 0 0 0 0 
0 0 0 0 0 0 0 0 0 
0 0 0 0 0 0 0 0 0 
0 0 0 0 0 0 0 0 0 
0 0 0 0 0 0 0 0 0 
0 0 0 -0.17617576832 0.0093676466186 1.4179187471 0 0 0 
0 0 0 0 0 0 0 0 0 
0 0 0 0 0 0 0 0 0 
0 0 0 0 0 0 0 0 0 
0 0 0 -0.10688188757 -0.10593246979 -0.061680520139 0 0 0 
0 0 0 0 0 0 0 0 0 
0 0 0 0 0 0 0 0 0 
0 0 0 0 0 0 0 0 0 
0 0 0 0 0 0 0 0 0 
0 0 0 0 0 0 0 0 0 
0 0 0 
radius 1 100 double
0.010434 0.00981478 0.00892069 0.00845937 0.00731974 0.00728422 0.00643447 0.00619172 0.00585956 
0.00577566 0.00537241 0.00522549 0.00513666 0.00473175 0.00466912 0.00444866 0.00441894 0.00400812 
0.00385622 0.00379948 0.00370243 0.00366942 0.00364039 0.00363813 0.00363644 0.00358692 0.0035797 
0.00341284 0.00337012 0.00336273 0.00332772 0.00323261 0.00320584 0.00320311 0.00318808 0.00313116 
0.00306026 0.00305632 0.00304383 0.00300958 0.00300137 0.00298994 0.0029567 0.00295111 0.00290849 
0.00284552 0.00282964 0.0028207 0.00281971 0.00281899 0.010434 0.00981478 0.00892069 0.00845937 
0.00731974 0.00728422 0.00643447 0.00619172 0.00585956 0.00577566 0.00537241 0.00522549 0.00513666 
0.00473175 0.00466912 0.00444866 0.00441894 0.00400812 0.00385622 0.00379948 0.00370243 0.00366942 
0.00364039 0.00363813 0.00363644 0.00358692 0.0035797 0.00341284 0.00337012 0.00336273 0.00332772 
0.00323261 0.00320584 0.00320311 0.00318808 0.00313116 0.00306026 0.00305632 0.00304383 0.00300958 
0.00300137 0.00298994 0.0029567 0.00295111 0.00290849 0.00284552 0.00282964 0.0028207 0.00281971 
0.00281899 
omega 3 100 double
11.297399319 3.5694302134 -0.89155247795 11.297399319 3.5694302134 -0.89155247795 11.297399319 3.5694302134 -0.89155247795 
11.297399319 3.5694302134 -0.89155247795 11.297399319 3.5694302134 -0.89155247795 11.297399319 3.5694302134 -0.89155247795 
11.297399319 3.5694302134 -0.89155247795 11.297399319 3.5694302134 -0.89155247795 11.297399319 3.5694302134 -0.89155247795 
11.297399319 3.5694302134 -0.89155247795 11.297399319 3.5694302134 -0.89155247795 11.297399319 3.5694302134 -0.89155247795 
11.297399319 3.5694302134 -0.89155247795 11.297399319 3.5694302134 -0.89155247795 11.297399319 3.5694302134 -0.89155247795 
11.297399319 3.5694302134 -0.89155247795 11.297399319 3.5694302134 -0.89155247795 11.297399319 3.5694302134 -0.89155247795 
11.297399319 3.5694302134 -0.89155247795 11.297399319 3.5694302134 -0.89155247795 11.297399319 3.5694302134 -0.89155247795 
11.297399319 3.5694302134 -0.89155247795 11.297399319 3.5694302134 -0.89155247795 11.297399319 3.5694302134 -0.89155247795 
11.297399319 3.5694302134 -0.89155247795 11.297399319 3.5694302134 -0.89155247795 11.297399319 3.5694302134 -0.89155247795 
11.297399319 3.5694302134 -0.89155247795 11.297399319 3.5694302134 -0.89155247795 11.297399319 3.5694302134 -0.89155247795 
11.297399319 3.5694302134 -0.89155247795 11.297399319 3.5694302134 -0.89155247795 11.297399319 3.5694302134 -0.89155247795 
11.297399319 3.5694302134 -0.89155247795 11.297399319 3.5694302134 -0.89155247795 11.297399319 3.5694302134 -0.89155247795 
11.297399319 3.5694302134 -0.89155247795 11.297399319 3.5694302134 -0.89155247795 11.297399319 3.5694302134 -0.89155247795 
11.297399319 3.5694302134 -0.89155247795 11.297399319 3.5694302134 -0.89155247795 11.297399319 3.5694302134 -0.89155247795 
11.297399319 3.5694302134 -0.89155247795 11.297399319 3.5694302134 -0.89155247795 11.297399319 3.5694302134 -0.89155247795 
11.297399319 3.5694302134 -0.89155247795 11.297399319 3.5694302134 -0.89155247795 11.297399319 3.5694302134 -0.89155247795 
11.297399319 3.5694302134 -0.89155247795 11.297399319 3.5694302134 -0.89155247795 8.7384341529 6.8739464774 -0.69811560567 
8.7384341529 6.8739464774 -0.69811560567 8.7384341529 6.8739464774 -0.69811560567 8.7384341529 6.8739464774 -0.69811560567 
8.7384341529 6.8739464774 -0.69811560567 8.7384341529 6.8739464774 -0.69811560567 8.7384341529 6.8739464774 -0.69811560567 
8.7384341529 6.8739464774 -0.69811560567 8.7384341529 6.8739464774 -0.69811560567 8.7384341529 6.8739464774 -0.69811560567 
8.7384341529 6.8739464774 -0.69811560567 8.7384341529 6.8739464774 -0.69811560567 8.7384341529 6.8739464774 -0.69811560567 
8.7384341529 6.8739464774 -0.69811560567 8.7384341529 6.8739464774 -0.69811560567 8.7384341529 6.8739464774 -0.69811560567 
8.7384341529 6.8739464774 -0.69811560567 8.7384341529 6.8739464774 -0.69811560567 8.7384341529 6.8739464774 -0.69811560567 
8.7384341529 6.8739464774 -0.69811560567 8.7384341529 6.8739464774 -0.69811560567 8.7384341529 6.8739464774 -0.69811560567 
8.7384341529 6.8739464774 -0.69811560567 8.7384341529 6.8739464774 -0.69811560567 8.7384341529 6.8739464774 -0.69811560567 
8.7384341529 6.8739464774 -0.69811560567 8.7384341529 6.8739464774 -0.69811560567 8.7384341529 6.8739464774 -0.69811560567 
8.7384341529 6.8739464774 -0.69811560567 8.7384341529 6.8739464774 -0.69811560567 8.7384341529 6.8739464774 -0.69811560567 
8.7384341529 6.8739464774 -0.69811560567 8.7384341529 6.8739464774 -0.69811560567 8.7384341529 6.8739464774 -0.69811560567 
8.7384341529 6.8739464774 -0.69811560567 8.7384341529 6.8739464774 -0.69811560567 8.7384341529 6.8739464774 -0.69811560567 
8.7384341529 6.8739464774 -0.69811560567 8.7384341529 6.8739464774 -0.69811560567 8.7384341529 6.8739464774 -0.69811560567 
8.7384341529 6.8739464774 -0.69811560567 8.7384341529 6.8739464774 -0.69811560567 8.7384341529 6.8739464774 -0.69811560567 
8.7384341529 6.8739464774 -0.69811560567 8.7384341529 6.8739464774 -0.69811560567 8.7384341529 6.8739464774 -0.69811560567 
8.7384341529 6.8739464774 -0.69811560567 8.7384341529 6.8739464774 -0.69811560567 8.7384341529 6.8739464774 -0.69811560567 
8.7384341529 6.8739464774 -0.69811560567 
