# vtk DataFile Version 4.1
Generated by LIGGGHTS
ASCII
DATASET POLYDATA
POINTS 100 float
-0.119216 -0.135569 0.0180791 -0.128209 -0.135944 0.0127572 -0.137675 -0.13597 0.00944979 
-0.127538 -0.138628 0.0239449 -0.114693 -0.135719 0.0275443 -0.135197 -0.139147 0.0196893 
-0.144857 -0.13945 0.0138343 -0.120191 -0.1408 0.02823 -0.145867 -0.136692 0.00583299 
-0.120568 -0.131431 0.00793695 -0.134114 -0.142734 0.0274873 -0.142248 -0.141597 0.0199185 
-0.125927 -0.128092 0.00682967 -0.129373 -0.144065 0.0310154 -0.131985 -0.129306 0.00598415 
-0.13924 -0.143264 0.0241917 -0.122436 -0.135333 0.0303977 -0.143582 -0.130146 0.00523274 
-0.115729 -0.136356 0.00810462 -0.150044 -0.140534 0.00916333 -0.1201 -0.140475 0.00888752 
-0.133964 -0.145697 0.0324081 -0.115367 -0.143036 0.0246489 -0.108188 -0.132091 0.0295326 
-0.109544 -0.136648 0.0223554 -0.123139 -0.127272 0.0117126 -0.113209 -0.128826 0.025239 
-0.11134 -0.130072 0.0309934 -0.137831 -0.145542 0.0303818 -0.132185 -0.132119 0.0209973 
-0.140498 -0.145255 0.0282496 -0.114251 -0.141999 0.0316522 -0.131891 -0.141594 0.00558876 
-0.124368 -0.144641 0.0315604 -0.150713 -0.139156 0.00330297 -0.111976 -0.141536 0.0233622 
-0.143965 -0.144621 0.0244122 -0.125328 -0.141254 0.0318403 -0.148367 -0.143364 0.0176977 
-0.125088 -0.132586 0.00379904 -0.138225 -0.143486 0.0146323 -0.125156 -0.145676 0.0282766 
-0.123058 -0.13202 0.0274913 -0.12082 -0.144875 0.0229612 -0.146365 -0.133578 0.0110045 
-0.150635 -0.142597 0.0137544 -0.108819 -0.13486 0.0189365 -0.128227 -0.13195 0.00368119 
-0.14423 -0.145376 0.0273954 -0.136531 -0.127696 0.00500348 -0.0503744 -0.107914 0.0183968 
-0.0593056 -0.108221 0.0129676 -0.0687361 -0.108289 0.0095625 -0.0586806 -0.111442 0.0240154 
-0.0459395 -0.108436 0.0278905 -0.0662858 -0.111916 0.0196581 -0.0758801 -0.112139 0.0136929 
-0.0513286 -0.113663 0.0282656 -0.0768754 -0.10901 0.00582752 -0.051721 -0.103308 0.0084579 
-0.0651968 -0.115861 0.0272802 -0.073282 -0.114528 0.0196909 -0.0571425 -0.100036 0.00746022 
-0.0604618 -0.117262 0.0307883 -0.063164 -0.101338 0.00649138 -0.0702786 -0.116339 0.0239081 
-0.0537159 -0.108361 0.0306771 -0.0747313 -0.102394 0.0055761 -0.0467752 -0.108129 0.0084332 
-0.080997 -0.113102 0.0089192 -0.0510607 -0.112376 0.00896489 -0.0650283 -0.119062 0.0320497 
-0.0464222 -0.115613 0.0246298 -0.039536 -0.10477 0.0301249 -0.0407215 -0.108993 0.022717 
-0.0544201 -0.0993996 0.0124071 -0.0445872 -0.101406 0.0259448 -0.0427459 -0.102895 0.0316501 
-0.0688778 -0.118891 0.0299926 -0.0634436 -0.104898 0.0213441 -0.07153 -0.118556 0.0278489 
-0.0453963 -0.114901 0.0316872 -0.0627919 -0.113587 0.00548971 -0.0554502 -0.117756 0.0313573 
-0.0816411 -0.11145 0.00312737 -0.043053 -0.113977 0.0234549 -0.074974 -0.117808 0.024011 
-0.056488 -0.114408 0.0317942 -0.0793387 -0.116315 0.0173205 -0.0561749 -0.104355 0.00422009 
-0.0691676 -0.116064 0.0143608 -0.0561834 -0.118643 0.0280182 -0.0543835 -0.104922 0.0279317 
-0.0518158 -0.117484 0.0227953 -0.0774917 -0.106168 0.0111412 -0.0815854 -0.115403 0.0133961 
-0.0400043 -0.107022 0.0193986 -0.0593262 -0.103782 0.00410052 -0.0752506 -0.118716 0.0269503 
-0.0677351 -0.099782 0.00554324 
VERTICES 100 200
1 0 
1 1 
1 2 
1 3 
1 4 
1 5 
1 6 
1 7 
1 8 
1 9 
1 10 
1 11 
1 12 
1 13 
1 14 
1 15 
1 16 
1 17 
1 18 
1 19 
1 20 
1 21 
1 22 
1 23 
1 24 
1 25 
1 26 
1 27 
1 28 
1 29 
1 30 
1 31 
1 32 
1 33 
1 34 
1 35 
1 36 
1 37 
1 38 
1 39 
1 40 
1 41 
1 42 
1 43 
1 44 
1 45 
1 46 
1 47 
1 48 
1 49 
1 50 
1 51 
1 52 
1 53 
1 54 
1 55 
1 56 
1 57 
1 58 
1 59 
1 60 
1 61 
1 62 
1 63 
1 64 
1 65 
1 66 
1 67 
1 68 
1 69 
1 70 
1 71 
1 72 
1 73 
1 74 
1 75 
1 76 
1 77 
1 78 
1 79 
1 80 
1 81 
1 82 
1 83 
1 84 
1 85 
1 86 
1 87 
1 88 
1 89 
1 90 
1 91 
1 92 
1 93 
1 94 
1 95 
1 96 
1 97 
1 98 
1 99 

POINT_DATA 100
FIELD FieldData 7
id 1 100 int
1 2 3 4 5 6 7 8 9 
10 11 12 13 14 15 16 17 18 
19 20 21 22 23 24 25 26 27 
28 29 30 31 32 33 34 35 36 
37 38 39 40 41 42 43 44 45 
46 47 48 49 50 51 52 53 54 
55 56 57 58 59 60 61 62 63 
64 65 66 67 68 69 70 71 72 
73 74 75 76 77 78 79 80 81 
82 83 84 85 86 87 88 89 90 
91 92 93 94 95 96 97 98 99 
100 
mol 1 100 int
1 1 1 1 1 1 1 1 1 
1 1 1 1 1 1 1 1 1 
1 1 1 1 1 1 1 1 1 
1 1 1 1 1 1 1 1 1 
1 1 1 1 1 1 1 1 1 
1 1 1 1 1 2 2 2 2 
2 2 2 2 2 2 2 2 2 
2 2 2 2 2 2 2 2 2 
2 2 2 2 2 2 2 2 2 
2 2 2 2 2 2 2 2 2 
2 2 2 2 2 2 2 2 2 
2 
type 1 100 int
1 1 1 1 1 1 1 1 1 
1 1 1 1 1 1 1 1 1 
1 1 1 1 1 1 1 1 1 
1 1 1 1 1 1 1 1 1 
1 1 1 1 1 1 1 1 1 
1 1 1 1 1 1 1 1 1 
1 1 1 1 1 1 1 1 1 
1 1 1 1 1 1 1 1 1 
1 1 1 1 1 1 1 1 1 
1 1 1 1 1 1 1 1 1 
1 1 1 1 1 1 1 1 1 
1 
v 3 100 double
-0.07968705065 -0.13933757027 0.086542157518 -0.063935272283 -0.094534414137 0.05676551118 -0.053951064789 -0.063050606819 0.027947364266 
-0.10030935647 -0.17160090088 0.040462418012 -0.10847024577 -0.20825162687 0.099200937799 -0.087918755192 -0.13533409421 0.013739585035 
-0.070486425664 -0.086262647425 -0.017564613646 -0.11531506736 -0.20777451715 0.047855539256 -0.043685007303 -0.030648356423 -0.0017799261136 
-0.045111561832 -0.06877651212 0.11072397778 -0.11488322742 -0.18962808696 -0.0074868299322 -0.090912708437 -0.13028018462 -0.024334925911 
-0.03862615398 -0.056179743708 0.11731779049 -0.12680939039 -0.21818333378 -0.0022382640875 -0.03720693427 -0.044714818345 0.090694332538 
-0.10540869368 -0.16229906374 -0.026623126236 -0.11674202673 -0.22047666263 0.078410156275 -0.035722659267 -0.028692984202 0.049857648237 
-0.050242902262 -0.074465350685 0.091719507194 -0.057369555914 -0.049479989752 -0.040665163122 -0.056479660566 -0.075709990393 0.050347886062 
-0.13255662499 -0.22338800698 -0.027284843862 -0.10657860955 -0.18783739324 0.047172086793 -0.11108012922 -0.22794389425 0.14367647078 
-0.093640061941 -0.17763521194 0.10844104951 -0.052632434628 -0.09215828027 0.13135473579 -0.095022168674 -0.19389520665 0.15078875722 
-0.11360466225 -0.23496436468 0.14793271369 -0.12627938798 -0.20591381243 -0.03792544799 -0.085278834957 -0.14709935894 0.070868155895 
-0.11955774136 -0.18884239098 -0.044034106153 -0.12679662263 -0.23673205426 0.057635936313 -0.047547896985 -0.042101768045 0.00702457326 
-0.12899967483 -0.22660629994 0.0089703557303 -0.038342378082 -0.0088129073161 -0.033277423217 -0.10127598075 -0.18223044516 0.067686898879 
-0.10735020492 -0.15936955377 -0.050192534819 -0.12666618865 -0.22761751659 0.029209515996 -0.085851395741 -0.10936216103 -0.0549226772 
-0.033675103458 -0.036261607861 0.089150266309 -0.076690360817 -0.097941644945 -0.025068148876 -0.12003466866 -0.20343153106 -0.00048473375766 
-0.10483613861 -0.20003621543 0.099167516287 -0.10319765757 -0.17118711586 0.018111518999 -0.056410237506 -0.065513552331 0.017990614593 
-0.073199449676 -0.080292096916 -0.0565491599 -0.081615990298 -0.15495727899 0.12284712761 -0.032720659444 -0.032509072951 0.0840012974 
-0.11708627962 -0.17950233264 -0.056152410515 -0.0327286567 -0.033746667292 0.087931788081 -0.079291019207 -0.1231632511 0.069569508335 
-0.068192188309 -0.087625415894 0.049305068487 -0.061340351345 -0.068697207876 0.029951076943 -0.087402770673 -0.17534181436 0.02481737515 
-0.097770504179 -0.19512001034 0.07424682172 -0.078295314627 -0.14720407976 0.0058617230413 -0.066200713877 -0.10796615409 -0.015057769757 
-0.093931552251 -0.2028462415 0.021737194861 -0.053257632357 -0.04600020458 0.0079578197249 -0.063508083224 -0.044939709869 0.10368457335 
-0.090037015012 -0.20714428757 -0.023486415705 -0.076068817442 -0.15360626931 -0.028959250119 -0.064389394174 -0.041726813069 0.11901041057 
-0.095805139637 -0.23101672274 -0.025236051467 -0.061314292959 -0.039270915974 0.096597921602 -0.08289138682 -0.18466328631 -0.037439703292 
-0.10339482709 -0.22420768267 0.059334169375 -0.058562336126 -0.04210985866 0.065092389108 -0.059228475347 -0.040401897385 0.075038760673 
-0.055833110833 -0.074317962277 -0.032960419393 -0.056561356525 -0.0484107658 0.032554653118 -0.096741982717 -0.24510206578 -0.048722457843 
-0.084967708142 -0.16949251624 0.015944544361 -0.10544508861 -0.207351625 0.11631172865 -0.086962300212 -0.14920813161 0.080207676383 
-0.074815891311 -0.078860054558 0.1295279163 -0.10005900028 -0.17838864747 0.13310975729 -0.11013266661 -0.22235411978 0.12488600015 
-0.092788723918 -0.23204513727 -0.055033905801 -0.087817400017 -0.15817983646 0.067600080454 -0.088806217562 -0.21724644937 -0.057652705535 
-0.099670327115 -0.22497650903 0.023680204819 -0.048566956573 -0.030941563706 -0.00051703642093 -0.096507065595 -0.23116412877 -0.019181021329 
-0.045730034221 -0.028610125922 -0.021044121032 -0.084060228845 -0.15714936447 0.03573837894 -0.081807438599 -0.18960644629 -0.05854305238 
-0.10031650003 -0.23556561578 0.0054943651066 -0.069771824754 -0.13998360536 -0.055321305121 -0.054136030841 -0.014991050219 0.086436250203 
-0.064088700727 -0.10741122886 -0.033023447731 -0.089067547399 -0.20513012939 -0.027734038534 -0.10093692001 -0.20285944648 0.085481460511 
-0.07966632701 -0.15956943993 -0.0097627558908 -0.066350905179 -0.088993753959 0.029432562711 -0.062743798234 -0.11060184288 -0.052519003742 
-0.082072374692 -0.12206662926 0.097382491961 -0.05440050516 -0.016801360195 0.084729208441 -0.086873753492 -0.21333190731 -0.066347641853 
-0.060788728326 -0.035707421326 0.09991296972 
f 3 100 double
0 0 0 0 0 0 0 0 0 
0 0 0 0 0 0 0 0 0 
0 0 0 0 0 0 0.049035922539 -0.018634858881 0.1049148162 
0 0 0 0 0 0 0 0 0 
0 0 0 0 0 0 0 0 0 
0 0 0 0 0 0 0 0 0 
0 0 0 0 0 0 0 0 0 
0 0 0 0 0 0 0 0 0 
0 0 0 0 0 0 0 0 0 
0 0 0 0 0 0 0 0 0 
0 0 0 0 0 0 0 0 0 
0 0 0 0 0 0 0 0 0 
0 0 0 0 0 0 0 0 0 
0 0 0 0 0 0 0 0 0 
0 0 0 0 0 0 0 0 0 
0 0 0 0 0 0 0 0 0 
0 0 0 0 0 0 0 0 0 
0 0 0 0 0 0 0 0 0 
0 0 0 0 0 0 0 0 0 
0 0 0 0.017245748232 -0.00051512424228 0.034506879607 0 0 0 
0 0 0 0 0 0 0 0 0 
0 0 0 0 0 0 0 0 0 
0 0 0 0 0 0 0 0 0 
0 0 0 0 0 0 0 0 0 
0 0 0 0 0 0 0 0 0 
0 0 0 0 0 0 0 0 0 
0 0 0 0 0 0 0 0 0 
0 0 0 0 0 0 0 0 0 
0.22154274553 -0.0026465947248 0.4431171067 0 0 0 0 0 0 
0 0 0 0 0 0 0 0 0 
0 0 0 0 0 0 0 0 0 
0 0 0 0 0 0 0 0 0 
0 0 0 0 0 0 0 0 0 
0 0 0 
radius 1 100 double
0.010434 0.00981478 0.00892069 0.00845937 0.00731974 0.00728422 0.00643447 0.00619172 0.00585956 
0.00577566 0.00537241 0.00522549 0.00513666 0.00473175 0.00466912 0.00444866 0.00441894 0.00400812 
0.00385622 0.00379948 0.00370243 0.00366942 0.00364039 0.00363813 0.00363644 0.00358692 0.0035797 
0.00341284 0.00337012 0.00336273 0.00332772 0.00323261 0.00320584 0.00320311 0.00318808 0.00313116 
0.00306026 0.00305632 0.00304383 0.00300958 0.00300137 0.00298994 0.0029567 0.00295111 0.00290849 
0.00284552 0.00282964 0.0028207 0.00281971 0.00281899 0.010434 0.00981478 0.00892069 0.00845937 
0.00731974 0.00728422 0.00643447 0.00619172 0.00585956 0.00577566 0.00537241 0.00522549 0.00513666 
0.00473175 0.00466912 0.00444866 0.00441894 0.00400812 0.00385622 0.00379948 0.00370243 0.00366942 
0.00364039 0.00363813 0.00363644 0.00358692 0.0035797 0.00341284 0.00337012 0.00336273 0.00332772 
0.00323261 0.00320584 0.00320311 0.00318808 0.00313116 0.00306026 0.00305632 0.00304383 0.00300958 
0.00300137 0.00298994 0.0029567 0.00295111 0.00290849 0.00284552 0.00282964 0.0028207 0.00281971 
0.00281899 
omega 3 100 double
6.8321043881 -3.0260175259 -0.93890162257 6.8321043881 -3.0260175259 -0.93890162257 6.8321043881 -3.0260175259 -0.93890162257 
6.8321043881 -3.0260175259 -0.93890162257 6.8321043881 -3.0260175259 -0.93890162257 6.8321043881 -3.0260175259 -0.93890162257 
6.8321043881 -3.0260175259 -0.93890162257 6.8321043881 -3.0260175259 -0.93890162257 6.8321043881 -3.0260175259 -0.93890162257 
6.8321043881 -3.0260175259 -0.93890162257 6.8321043881 -3.0260175259 -0.93890162257 6.8321043881 -3.0260175259 -0.93890162257 
6.8321043881 -3.0260175259 -0.93890162257 6.8321043881 -3.0260175259 -0.93890162257 6.8321043881 -3.0260175259 -0.93890162257 
6.8321043881 -3.0260175259 -0.93890162257 6.8321043881 -3.0260175259 -0.93890162257 6.8321043881 -3.0260175259 -0.93890162257 
6.8321043881 -3.0260175259 -0.93890162257 6.8321043881 -3.0260175259 -0.93890162257 6.8321043881 -3.0260175259 -0.93890162257 
6.8321043881 -3.0260175259 -0.93890162257 6.8321043881 -3.0260175259 -0.93890162257 6.8321043881 -3.0260175259 -0.93890162257 
6.8321043881 -3.0260175259 -0.93890162257 6.8321043881 -3.0260175259 -0.93890162257 6.8321043881 -3.0260175259 -0.93890162257 
6.8321043881 -3.0260175259 -0.93890162257 6.8321043881 -3.0260175259 -0.93890162257 6.8321043881 -3.0260175259 -0.93890162257 
6.8321043881 -3.0260175259 -0.93890162257 6.8321043881 -3.0260175259 -0.93890162257 6.8321043881 -3.0260175259 -0.93890162257 
6.8321043881 -3.0260175259 -0.93890162257 6.8321043881 -3.0260175259 -0.93890162257 6.8321043881 -3.0260175259 -0.93890162257 
6.8321043881 -3.0260175259 -0.93890162257 6.8321043881 -3.0260175259 -0.93890162257 6.8321043881 -3.0260175259 -0.93890162257 
6.8321043881 -3.0260175259 -0.93890162257 6.8321043881 -3.0260175259 -0.93890162257 6.8321043881 -3.0260175259 -0.93890162257 
6.8321043881 -3.0260175259 -0.93890162257 6.8321043881 -3.0260175259 -0.93890162257 6.8321043881 -3.0260175259 -0.93890162257 
6.8321043881 -3.0260175259 -0.93890162257 6.8321043881 -3.0260175259 -0.93890162257 6.8321043881 -3.0260175259 -0.93890162257 
6.8321043881 -3.0260175259 -0.93890162257 6.8321043881 -3.0260175259 -0.93890162257 7.9893742694 -1.9947354296 0.87760309013 
7.9893742694 -1.9947354296 0.87760309013 7.9893742694 -1.9947354296 0.87760309013 7.9893742694 -1.9947354296 0.87760309013 
7.9893742694 -1.9947354296 0.87760309013 7.9893742694 -1.9947354296 0.87760309013 7.9893742694 -1.9947354296 0.87760309013 
7.9893742694 -1.9947354296 0.87760309013 7.9893742694 -1.9947354296 0.87760309013 7.9893742694 -1.9947354296 0.87760309013 
7.9893742694 -1.9947354296 0.87760309013 7.9893742694 -1.9947354296 0.87760309013 7.9893742694 -1.9947354296 0.87760309013 
7.9893742694 -1.9947354296 0.87760309013 7.9893742694 -1.9947354296 0.87760309013 7.9893742694 -1.9947354296 0.87760309013 
7.9893742694 -1.9947354296 0.87760309013 7.9893742694 -1.9947354296 0.87760309013 7.9893742694 -1.9947354296 0.87760309013 
7.9893742694 -1.9947354296 0.87760309013 7.9893742694 -1.9947354296 0.87760309013 7.9893742694 -1.9947354296 0.87760309013 
7.9893742694 -1.9947354296 0.87760309013 7.9893742694 -1.9947354296 0.87760309013 7.9893742694 -1.9947354296 0.87760309013 
7.9893742694 -1.9947354296 0.87760309013 7.9893742694 -1.9947354296 0.87760309013 7.9893742694 -1.9947354296 0.87760309013 
7.9893742694 -1.9947354296 0.87760309013 7.9893742694 -1.9947354296 0.87760309013 7.9893742694 -1.9947354296 0.87760309013 
7.9893742694 -1.9947354296 0.87760309013 7.9893742694 -1.9947354296 0.87760309013 7.9893742694 -1.9947354296 0.87760309013 
7.9893742694 -1.9947354296 0.87760309013 7.9893742694 -1.9947354296 0.87760309013 7.9893742694 -1.9947354296 0.87760309013 
7.9893742694 -1.9947354296 0.87760309013 7.9893742694 -1.9947354296 0.87760309013 7.9893742694 -1.9947354296 0.87760309013 
7.9893742694 -1.9947354296 0.87760309013 7.9893742694 -1.9947354296 0.87760309013 7.9893742694 -1.9947354296 0.87760309013 
7.9893742694 -1.9947354296 0.87760309013 7.9893742694 -1.9947354296 0.87760309013 7.9893742694 -1.9947354296 0.87760309013 
7.9893742694 -1.9947354296 0.87760309013 7.9893742694 -1.9947354296 0.87760309013 7.9893742694 -1.9947354296 0.87760309013 
7.9893742694 -1.9947354296 0.87760309013 
