# vtk DataFile Version 4.1
Generated by LIGGGHTS
ASCII
DATASET POLYDATA
POINTS 100 float
-0.116775 -0.149168 0.0127698 -0.126637 -0.14582 0.0118363 -0.136396 -0.143661 0.0126287 
-0.123931 -0.155629 0.0172472 -0.110284 -0.155902 0.0175235 -0.132308 -0.153115 0.0165017 
-0.142913 -0.14935 0.0154743 -0.116419 -0.160068 0.0162929 -0.145171 -0.141753 0.0123397 
-0.119567 -0.139086 0.00925297 -0.130205 -0.161152 0.0189176 -0.139461 -0.15513 0.0172394 
-0.124196 -0.136041 0.0124771 -0.125163 -0.164507 0.0188567 -0.130398 -0.136405 0.0130205 
-0.135957 -0.159281 0.0179975 -0.116868 -0.157788 0.0221431 -0.141749 -0.13667 0.0156389 
-0.115992 -0.142593 0.0044974 -0.149164 -0.146896 0.013285 -0.120831 -0.146131 0.00362303 
-0.129535 -0.166727 0.0201385 -0.113169 -0.159023 0.0108669 -0.102873 -0.154637 0.0192302 
-0.106827 -0.152789 0.0118092 -0.120225 -0.138874 0.0153915 -0.10795 -0.14938 0.0201782 
-0.105085 -0.154304 0.022568 -0.133646 -0.16525 0.0201251 -0.127643 -0.149032 0.021164 
-0.136616 -0.163583 0.0197492 -0.110236 -0.163235 0.0158695 -0.133026 -0.14479 0.00442168 
-0.120412 -0.165212 0.0172383 -0.150888 -0.141783 0.0105327 -0.109938 -0.156993 0.00994755 
-0.140674 -0.160477 0.0187289 -0.120533 -0.163038 0.0200192 -0.146163 -0.15491 0.0165136 
-0.125077 -0.137049 0.00715765 -0.137299 -0.152645 0.0111689 -0.122156 -0.163629 0.0146058 
-0.117436 -0.153402 0.0226479 -0.119129 -0.15922 0.0102351 -0.143756 -0.14323 0.0180413 
-0.149081 -0.151615 0.0151308 -0.106565 -0.149092 0.010514 -0.127944 -0.136571 0.00850753 
-0.140382 -0.163129 0.0202864 -0.134596 -0.134655 0.0149011 -0.0470937 -0.119449 0.0125236 
-0.0572388 -0.116978 0.0119724 -0.0671289 -0.11576 0.0130842 -0.0535162 -0.126739 0.0168378 
-0.039898 -0.125775 0.0167992 -0.0621026 -0.124969 0.0164008 -0.0730272 -0.122147 0.0157924 
-0.0456614 -0.130423 0.0155028 -0.0760445 -0.11465 0.0130822 -0.0508771 -0.109512 0.00956473 
-0.0592196 -0.132884 0.0183753 -0.0690224 -0.127662 0.0171972 -0.0556753 -0.107057 0.0130347 
-0.053898 -0.135758 0.0180396 -0.0618026 -0.108011 0.0136966 -0.0651386 -0.131506 0.0176746 
-0.0461601 -0.128468 0.0214656 -0.0730094 -0.109435 0.0165488 -0.0471267 -0.112453 0.00456618 
-0.0795307 -0.120176 0.0138638 -0.0516474 -0.116373 0.00362751 -0.0580162 -0.138425 0.019308 
-0.042664 -0.128834 0.0100638 -0.0325889 -0.123918 0.0184016 -0.0368876 -0.122096 0.0111685 
-0.051389 -0.109647 0.0157193 -0.0380924 -0.119197 0.0197163 -0.0347329 -0.123944 0.0217997 
-0.0622423 -0.137331 0.0194573 -0.0577038 -0.120698 0.0211524 -0.0653599 -0.135928 0.0192287 
-0.0392313 -0.132987 0.0147893 -0.0638887 -0.116193 0.00475951 -0.0491475 -0.135948 0.0162844 
-0.0817817 -0.11512 0.0114025 -0.0396544 -0.126476 0.00917333 -0.0697071 -0.133162 0.0184507 
-0.0493904 -0.133926 0.01917 -0.075734 -0.128023 0.0166311 -0.0566012 -0.107892 0.00769327 
-0.0672547 -0.124711 0.0112087 -0.0510956 -0.134411 0.0137713 -0.0471083 -0.124181 0.0221959 
-0.0485963 -0.129545 0.00955482 -0.0743524 -0.116255 0.0186725 -0.0789726 -0.124948 0.0154751 
-0.0369954 -0.118335 0.0100494 -0.0594636 -0.107742 0.00912777 -0.0691358 -0.135845 0.0198704 
-0.0660896 -0.106742 0.0157524 
VERTICES 100 200
1 0 
1 1 
1 2 
1 3 
1 4 
1 5 
1 6 
1 7 
1 8 
1 9 
1 10 
1 11 
1 12 
1 13 
1 14 
1 15 
1 16 
1 17 
1 18 
1 19 
1 20 
1 21 
1 22 
1 23 
1 24 
1 25 
1 26 
1 27 
1 28 
1 29 
1 30 
1 31 
1 32 
1 33 
1 34 
1 35 
1 36 
1 37 
1 38 
1 39 
1 40 
1 41 
1 42 
1 43 
1 44 
1 45 
1 46 
1 47 
1 48 
1 49 
1 50 
1 51 
1 52 
1 53 
1 54 
1 55 
1 56 
1 57 
1 58 
1 59 
1 60 
1 61 
1 62 
1 63 
1 64 
1 65 
1 66 
1 67 
1 68 
1 69 
1 70 
1 71 
1 72 
1 73 
1 74 
1 75 
1 76 
1 77 
1 78 
1 79 
1 80 
1 81 
1 82 
1 83 
1 84 
1 85 
1 86 
1 87 
1 88 
1 89 
1 90 
1 91 
1 92 
1 93 
1 94 
1 95 
1 96 
1 97 
1 98 
1 99 

POINT_DATA 100
FIELD FieldData 7
id 1 100 int
1 2 3 4 5 6 7 8 9 
10 11 12 13 14 15 16 17 18 
19 20 21 22 23 24 25 26 27 
28 29 30 31 32 33 34 35 36 
37 38 39 40 41 42 43 44 45 
46 47 48 49 50 51 52 53 54 
55 56 57 58 59 60 61 62 63 
64 65 66 67 68 69 70 71 72 
73 74 75 76 77 78 79 80 81 
82 83 84 85 86 87 88 89 90 
91 92 93 94 95 96 97 98 99 
100 
mol 1 100 int
1 1 1 1 1 1 1 1 1 
1 1 1 1 1 1 1 1 1 
1 1 1 1 1 1 1 1 1 
1 1 1 1 1 1 1 1 1 
1 1 1 1 1 1 1 1 1 
1 1 1 1 1 2 2 2 2 
2 2 2 2 2 2 2 2 2 
2 2 2 2 2 2 2 2 2 
2 2 2 2 2 2 2 2 2 
2 2 2 2 2 2 2 2 2 
2 2 2 2 2 2 2 2 2 
2 
type 1 100 int
1 1 1 1 1 1 1 1 1 
1 1 1 1 1 1 1 1 1 
1 1 1 1 1 1 1 1 1 
1 1 1 1 1 1 1 1 1 
1 1 1 1 1 1 1 1 1 
1 1 1 1 1 1 1 1 1 
1 1 1 1 1 1 1 1 1 
1 1 1 1 1 1 1 1 1 
1 1 1 1 1 1 1 1 1 
1 1 1 1 1 1 1 1 1 
1 1 1 1 1 1 1 1 1 
1 
v 3 100 double
0.0059203417975 -0.16686553938 -0.041898384529 0.0092058126457 -0.14339064004 0.0075916112837 0.012313065638 -0.14194088179 0.041913392646 
0.0014779479191 -0.21525749403 -0.11883207088 0.0013525218357 -0.23485505474 -0.13197161775 0.0039142006681 -0.19591947251 -0.080972554413 
0.007624210552 -0.17037567254 -0.02566779488 -0.0044325305603 -0.21200339463 -0.18050093129 0.014358729443 -0.12792706977 0.072365318141 
0.015313191388 -0.11893643867 0.088048629054 -0.0038480787547 -0.2290619558 -0.18447123721 0.002061781781 -0.19684864112 -0.10147284661 
0.021190374184 -0.15440090385 0.12998222548 -0.0078477572898 -0.23423400031 -0.23063922059 0.021147154742 -0.15398620367 0.12976643899 
-0.0022947632069 -0.21060317954 -0.15664548835 0.0024052965494 -0.2857266908 -0.15124139624 0.02269167624 -0.17383671163 0.1344517495 
0.0078049447909 -0.062791439302 0.040997412336 0.0089649970611 -0.13521743128 0.0099159948349 0.0030139042638 -0.045988515346 -0.00047008786285 
-0.0095554034105 -0.24534917946 -0.25570864345 -0.0070487454437 -0.14696461674 -0.16953907384 0.0040546672129 -0.26525612066 -0.12117137422 
0.00097005743105 -0.16640361607 -0.094910427063 0.019917328595 -0.19607390927 0.091208572416 0.010925208641 -0.27130293334 -0.050847431067 
0.0068151720358 -0.30501333801 -0.11537128317 -0.0078232961036 -0.24033262184 -0.23404465173 0.012035184424 -0.26059624871 -0.032457681452 
-0.0061250966694 -0.23205948186 -0.21078661218 -0.0084660554088 -0.21391872397 -0.22507412426 0.0051610567444 -0.041746393902 0.025195995803 
-0.0098262778104 -0.21929382858 -0.24295045823 0.013041195179 -0.098250106218 0.076034845054 -0.0053072410112 -0.13910626141 -0.1460643776 
-0.0031870935811 -0.21432460271 -0.16849014667 -0.0052904342399 -0.25444929714 -0.21527052517 0.0018059258335 -0.17973433113 -0.093931662012 
0.016229370524 -0.08584592716 0.11781762376 0.00068537055163 -0.12234812407 -0.071472563197 -0.0098268341948 -0.18382628169 -0.22162018547 
0.0079344593881 -0.29146477121 -0.095171699223 -0.0077291268612 -0.13191864002 -0.16781216563 0.016661359878 -0.20196250458 0.052615585455 
0.0047100210492 -0.15874286962 -0.050041148655 0.0044096637435 -0.15027192766 -0.04817862528 0.017749547936 -0.099598252952 0.1259093617 
-0.0052083011563 -0.23443706041 -0.20234757118 0.024544050003 -0.17290692741 0.15495192628 0.041599523742 -0.1454656964 -0.048619941245 
0.041493831267 -0.13162020207 0.015399306432 0.046371447058 -0.13671801933 0.06437138668 0.051490277961 -0.18927809882 -0.10792963161 
0.052078155005 -0.19908490458 -0.1455833585 0.051264165488 -0.17789389038 -0.057378025174 0.051218542404 -0.16281736512 0.013374773482 
0.043962830857 -0.1801336969 -0.17745508254 0.047199006565 -0.1299912899 0.10865158228 0.038528694849 -0.10925819455 0.076902368098 
0.052347920508 -0.2023241177 -0.15688723569 0.052076622766 -0.18166855266 -0.063082780576 0.052740773892 -0.1447746367 0.12168811082 
0.048990688877 -0.2025420551 -0.2082527047 0.054381543778 -0.14762900745 0.13276231389 0.050887290957 -0.18997284278 -0.12026172033 
0.066681151932 -0.24698963415 -0.15363600765 0.063474312162 -0.17135947614 0.15664275616 0.018505157485 -0.055719436622 0.030383934273 
0.04582854492 -0.13618155187 0.0587739361 0.012211590179 -0.04173599733 0.0022859651722 0.051504532214 -0.21374605695 -0.22365196036 
0.025776195447 -0.12106166245 -0.17021581075 0.059184684184 -0.22264857696 -0.15069099913 0.034779935867 -0.13786164568 -0.11483152785 
0.060359043414 -0.17826676873 0.077208844379 0.067420003692 -0.23333372349 -0.077853350434 0.071274077676 -0.25934999075 -0.14334404672 
0.052859332202 -0.2122514455 -0.19625842571 0.071408580862 -0.23477671307 -0.024892459599 0.053100137036 -0.20732932086 -0.16932578916 
0.039491645371 -0.17692407548 -0.22928061423 0.016381360809 -0.045293311637 0.047945111057 0.042592367103 -0.18632400196 -0.22733296452 
0.04086048562 -0.10673757031 0.12380483469 0.024376340238 -0.11328531744 -0.15435644301 0.052407559126 -0.19528791 -0.12265359079 
0.05439582497 -0.21867653156 -0.2036666311 0.049787879199 -0.17023816543 -0.043236071135 0.033078325148 -0.08385241523 0.1155681638 
0.032956604612 -0.11547723199 -0.036103946966 0.034793663557 -0.15652398937 -0.20305312491 0.072507889805 -0.25451109639 -0.10191825705 
0.0234272867 -0.11086186848 -0.15710201453 0.065912683866 -0.19429484616 0.084525496995 0.047981306134 -0.15476924137 0.0029752291321 
0.033620741377 -0.12516292764 -0.072040507232 0.03830264301 -0.097873918979 0.12745520171 0.055448642241 -0.21172404419 -0.15493958599 
0.062661685633 -0.16758428072 0.16234750029 
f 3 100 double
0 0 0 0 0 0 0 0 0 
0 0 0 0 0 0 0 0 0 
0 0 0 0 0 0 0 0 0 
0 0 0 0 0 0 0 0 0 
0 0 0 0 0 0 0 0 0 
0 0 0 0 0 0 0 0 0 
0 0 0 0 0 0 -0.090443781663 -0.062130985859 0.36525689269 
0 0 0 0 0 0 0 0 0 
0 0 0 0 0 0 0 0 0 
0 0 0 0 0 0 0 0 0 
0 0 0 0 0 0 0 0 0 
0 0 0 0 0 0 0 0 0 
0 0 0 0 0 0 0 0 0 
0 0 0 0 0 0 0 0 0 
0 0 0 0 0 0 0 0 0 
0 0 0 0 0 0 0 0 0 
0 0 0 0 0 0 0 0 0 
0 0 0 0 0 0 0 0 0 
0 0 0 0 0 0 0 0 0 
0 0 0 0 0 0 0 0 0 
0 0 0 0 0 0 0 0 0 
0 0 0 0 0 0 0 0 0 
0 0 0 0 0 0 0 0 0 
0 0 0 -0.054635507848 -0.060895880781 0.30369605362 0 0 0 
0 0 0 0 0 0 0 0 0 
0 0 0 0 0 0 0 0 0 
0 0 0 0 0 0 0 0 0 
0 0 0 0 0 0 0 0 0 
0 0 0 0 0 0 0 0 0 
0 0 0 0 0 0 0 0 0 
0 0 0 0 0 0 0 0 0 
0 0 0 0 0 0 0 0 0 
0 0 0 0 0 0 0 0 0 
0 0 0 
radius 1 100 double
0.010434 0.00981478 0.00892069 0.00845937 0.00731974 0.00728422 0.00643447 0.00619172 0.00585956 
0.00577566 0.00537241 0.00522549 0.00513666 0.00473175 0.00466912 0.00444866 0.00441894 0.00400812 
0.00385622 0.00379948 0.00370243 0.00366942 0.00364039 0.00363813 0.00363644 0.00358692 0.0035797 
0.00341284 0.00337012 0.00336273 0.00332772 0.00323261 0.00320584 0.00320311 0.00318808 0.00313116 
0.00306026 0.00305632 0.00304383 0.00300958 0.00300137 0.00298994 0.0029567 0.00295111 0.00290849 
0.00284552 0.00282964 0.0028207 0.00281971 0.00281899 0.010434 0.00981478 0.00892069 0.00845937 
0.00731974 0.00728422 0.00643447 0.00619172 0.00585956 0.00577566 0.00537241 0.00522549 0.00513666 
0.00473175 0.00466912 0.00444866 0.00441894 0.00400812 0.00385622 0.00379948 0.00370243 0.00366942 
0.00364039 0.00363813 0.00363644 0.00358692 0.0035797 0.00341284 0.00337012 0.00336273 0.00332772 
0.00323261 0.00320584 0.00320311 0.00318808 0.00313116 0.00306026 0.00305632 0.00304383 0.00300958 
0.00300137 0.00298994 0.0029567 0.00295111 0.00290849 0.00284552 0.00282964 0.0028207 0.00281971 
0.00281899 
omega 3 100 double
12.692523094 0.70928407854 -1.1790521702 12.692523094 0.70928407854 -1.1790521702 12.692523094 0.70928407854 -1.1790521702 
12.692523094 0.70928407854 -1.1790521702 12.692523094 0.70928407854 -1.1790521702 12.692523094 0.70928407854 -1.1790521702 
12.692523094 0.70928407854 -1.1790521702 12.692523094 0.70928407854 -1.1790521702 12.692523094 0.70928407854 -1.1790521702 
12.692523094 0.70928407854 -1.1790521702 12.692523094 0.70928407854 -1.1790521702 12.692523094 0.70928407854 -1.1790521702 
12.692523094 0.70928407854 -1.1790521702 12.692523094 0.70928407854 -1.1790521702 12.692523094 0.70928407854 -1.1790521702 
12.692523094 0.70928407854 -1.1790521702 12.692523094 0.70928407854 -1.1790521702 12.692523094 0.70928407854 -1.1790521702 
12.692523094 0.70928407854 -1.1790521702 12.692523094 0.70928407854 -1.1790521702 12.692523094 0.70928407854 -1.1790521702 
12.692523094 0.70928407854 -1.1790521702 12.692523094 0.70928407854 -1.1790521702 12.692523094 0.70928407854 -1.1790521702 
12.692523094 0.70928407854 -1.1790521702 12.692523094 0.70928407854 -1.1790521702 12.692523094 0.70928407854 -1.1790521702 
12.692523094 0.70928407854 -1.1790521702 12.692523094 0.70928407854 -1.1790521702 12.692523094 0.70928407854 -1.1790521702 
12.692523094 0.70928407854 -1.1790521702 12.692523094 0.70928407854 -1.1790521702 12.692523094 0.70928407854 -1.1790521702 
12.692523094 0.70928407854 -1.1790521702 12.692523094 0.70928407854 -1.1790521702 12.692523094 0.70928407854 -1.1790521702 
12.692523094 0.70928407854 -1.1790521702 12.692523094 0.70928407854 -1.1790521702 12.692523094 0.70928407854 -1.1790521702 
12.692523094 0.70928407854 -1.1790521702 12.692523094 0.70928407854 -1.1790521702 12.692523094 0.70928407854 -1.1790521702 
12.692523094 0.70928407854 -1.1790521702 12.692523094 0.70928407854 -1.1790521702 12.692523094 0.70928407854 -1.1790521702 
12.692523094 0.70928407854 -1.1790521702 12.692523094 0.70928407854 -1.1790521702 12.692523094 0.70928407854 -1.1790521702 
12.692523094 0.70928407854 -1.1790521702 12.692523094 0.70928407854 -1.1790521702 11.275129165 3.5634631585 -0.75205839495 
11.275129165 3.5634631585 -0.75205839495 11.275129165 3.5634631585 -0.75205839495 11.275129165 3.5634631585 -0.75205839495 
11.275129165 3.5634631585 -0.75205839495 11.275129165 3.5634631585 -0.75205839495 11.275129165 3.5634631585 -0.75205839495 
11.275129165 3.5634631585 -0.75205839495 11.275129165 3.5634631585 -0.75205839495 11.275129165 3.5634631585 -0.75205839495 
11.275129165 3.5634631585 -0.75205839495 11.275129165 3.5634631585 -0.75205839495 11.275129165 3.5634631585 -0.75205839495 
11.275129165 3.5634631585 -0.75205839495 11.275129165 3.5634631585 -0.75205839495 11.275129165 3.5634631585 -0.75205839495 
11.275129165 3.5634631585 -0.75205839495 11.275129165 3.5634631585 -0.75205839495 11.275129165 3.5634631585 -0.75205839495 
11.275129165 3.5634631585 -0.75205839495 11.275129165 3.5634631585 -0.75205839495 11.275129165 3.5634631585 -0.75205839495 
11.275129165 3.5634631585 -0.75205839495 11.275129165 3.5634631585 -0.75205839495 11.275129165 3.5634631585 -0.75205839495 
11.275129165 3.5634631585 -0.75205839495 11.275129165 3.5634631585 -0.75205839495 11.275129165 3.5634631585 -0.75205839495 
11.275129165 3.5634631585 -0.75205839495 11.275129165 3.5634631585 -0.75205839495 11.275129165 3.5634631585 -0.75205839495 
11.275129165 3.5634631585 -0.75205839495 11.275129165 3.5634631585 -0.75205839495 11.275129165 3.5634631585 -0.75205839495 
11.275129165 3.5634631585 -0.75205839495 11.275129165 3.5634631585 -0.75205839495 11.275129165 3.5634631585 -0.75205839495 
11.275129165 3.5634631585 -0.75205839495 11.275129165 3.5634631585 -0.75205839495 11.275129165 3.5634631585 -0.75205839495 
11.275129165 3.5634631585 -0.75205839495 11.275129165 3.5634631585 -0.75205839495 11.275129165 3.5634631585 -0.75205839495 
11.275129165 3.5634631585 -0.75205839495 11.275129165 3.5634631585 -0.75205839495 11.275129165 3.5634631585 -0.75205839495 
11.275129165 3.5634631585 -0.75205839495 11.275129165 3.5634631585 -0.75205839495 11.275129165 3.5634631585 -0.75205839495 
11.275129165 3.5634631585 -0.75205839495 
