# vtk DataFile Version 4.1
Generated by LIGGGHTS
ASCII
DATASET POLYDATA
POINTS 100 float
-0.111546 -0.130722 0.0226688 -0.121918 -0.13165 0.0217223 -0.131894 -0.131865 0.022709 
-0.116556 -0.132372 0.0318982 -0.103493 -0.129407 0.0292631 -0.125268 -0.13331 0.0313743 
-0.13647 -0.134234 0.0302166 -0.10802 -0.134062 0.0330494 -0.140817 -0.132872 0.0230124 
-0.117143 -0.12836 0.0134539 -0.12091 -0.135527 0.0385117 -0.131491 -0.135394 0.0349384 
-0.122593 -0.125049 0.0141086 -0.115087 -0.136416 0.0399235 -0.128406 -0.126143 0.0160845 
-0.12692 -0.136413 0.0377939 -0.109355 -0.128215 0.0349604 -0.139225 -0.126629 0.020381 
-0.112499 -0.133374 0.0124545 -0.143088 -0.135902 0.0283934 -0.115997 -0.137112 0.0156912 
-0.11862 -0.137593 0.0433605 -0.105047 -0.137083 0.0282398 -0.096885 -0.125756 0.0276987 
-0.10094 -0.131433 0.0226541 -0.118057 -0.123507 0.0171645 -0.103351 -0.123087 0.0253818 
-0.0992136 -0.123387 0.029959 -0.122982 -0.137635 0.0431319 -0.122239 -0.126291 0.0300595 
-0.126303 -0.137615 0.042287 -0.101156 -0.134889 0.0338449 -0.128043 -0.138306 0.0178436 
-0.110291 -0.137092 0.0384304 -0.146184 -0.135538 0.0231999 -0.102555 -0.135968 0.0254191 
-0.131073 -0.137517 0.0401922 -0.111169 -0.133672 0.0384862 -0.137911 -0.137269 0.0358088 
-0.12293 -0.130033 0.0118419 -0.129967 -0.138336 0.0288789 -0.112336 -0.13865 0.0360082 
-0.111248 -0.125435 0.0320447 -0.110637 -0.138963 0.0293215 -0.139229 -0.128887 0.0272898 
-0.14164 -0.137109 0.0330978 -0.101768 -0.130299 0.0189885 -0.125854 -0.129299 0.01293 
-0.130045 -0.13773 0.0430972 -0.133002 -0.124545 0.016817 -0.0426747 -0.102932 0.0228899 
-0.0530191 -0.103865 0.0216819 -0.0630156 -0.104099 0.0224216 -0.0479076 -0.104659 0.0319805 
-0.0347873 -0.101659 0.0296899 -0.0566026 -0.105604 0.0312357 -0.0677718 -0.106531 0.0297962 
-0.0394 -0.106349 0.033328 -0.0719417 -0.105118 0.0224981 -0.0480464 -0.100506 0.0135588 
-0.0524181 -0.10787 0.0384607 -0.0629085 -0.107721 0.0346297 -0.0535153 -0.0972063 0.0141048 
-0.0466304 -0.108763 0.0400082 -0.0593736 -0.0983222 0.0159289 -0.0584077 -0.108758 0.0375888 
-0.0407889 -0.100518 0.0352505 -0.0702945 -0.0988531 0.0199545 -0.0433731 -0.105506 0.0126352 
-0.0743405 -0.108192 0.0277982 -0.0469446 -0.109274 0.0157562 -0.0502455 -0.109971 0.0433483 
-0.0363056 -0.109328 0.0285699 -0.028148 -0.097989 0.0283163 -0.03207 -0.103631 0.0231303 
-0.0490582 -0.0956823 0.0172829 -0.0345584 -0.0953088 0.0258619 -0.0305345 -0.0956401 0.0305369 
-0.0546003 -0.110016 0.0430123 -0.0535516 -0.098571 0.0300496 -0.0578993 -0.109993 0.0420863 
-0.0325565 -0.107174 0.0342855 -0.0590382 -0.110498 0.0176029 -0.0417988 -0.109423 0.0386281 
-0.0773087 -0.107792 0.0225332 -0.0337463 -0.10819 0.0258198 -0.0626166 -0.109885 0.0398758 
-0.0426819 -0.106004 0.0386886 -0.0693458 -0.109611 0.0353278 -0.0537904 -0.102173 0.0117923 
-0.0612325 -0.110615 0.0285871 -0.0437816 -0.110964 0.0361446 -0.0426135 -0.0977178 0.0323106 
-0.0419182 -0.111224 0.0294994 -0.0704648 -0.101165 0.0268437 -0.0730073 -0.109434 0.0325273 
-0.0328095 -0.10247 0.0194542 -0.0567414 -0.10145 0.0128138 -0.0616604 -0.110119 0.0428034 
-0.0639886 -0.0967354 0.0165605 
VERTICES 100 200
1 0 
1 1 
1 2 
1 3 
1 4 
1 5 
1 6 
1 7 
1 8 
1 9 
1 10 
1 11 
1 12 
1 13 
1 14 
1 15 
1 16 
1 17 
1 18 
1 19 
1 20 
1 21 
1 22 
1 23 
1 24 
1 25 
1 26 
1 27 
1 28 
1 29 
1 30 
1 31 
1 32 
1 33 
1 34 
1 35 
1 36 
1 37 
1 38 
1 39 
1 40 
1 41 
1 42 
1 43 
1 44 
1 45 
1 46 
1 47 
1 48 
1 49 
1 50 
1 51 
1 52 
1 53 
1 54 
1 55 
1 56 
1 57 
1 58 
1 59 
1 60 
1 61 
1 62 
1 63 
1 64 
1 65 
1 66 
1 67 
1 68 
1 69 
1 70 
1 71 
1 72 
1 73 
1 74 
1 75 
1 76 
1 77 
1 78 
1 79 
1 80 
1 81 
1 82 
1 83 
1 84 
1 85 
1 86 
1 87 
1 88 
1 89 
1 90 
1 91 
1 92 
1 93 
1 94 
1 95 
1 96 
1 97 
1 98 
1 99 

POINT_DATA 100
FIELD FieldData 7
id 1 100 int
1 2 3 4 5 6 7 8 9 
10 11 12 13 14 15 16 17 18 
19 20 21 22 23 24 25 26 27 
28 29 30 31 32 33 34 35 36 
37 38 39 40 41 42 43 44 45 
46 47 48 49 50 51 52 53 54 
55 56 57 58 59 60 61 62 63 
64 65 66 67 68 69 70 71 72 
73 74 75 76 77 78 79 80 81 
82 83 84 85 86 87 88 89 90 
91 92 93 94 95 96 97 98 99 
100 
mol 1 100 int
1 1 1 1 1 1 1 1 1 
1 1 1 1 1 1 1 1 1 
1 1 1 1 1 1 1 1 1 
1 1 1 1 1 1 1 1 1 
1 1 1 1 1 1 1 1 1 
1 1 1 1 1 2 2 2 2 
2 2 2 2 2 2 2 2 2 
2 2 2 2 2 2 2 2 2 
2 2 2 2 2 2 2 2 2 
2 2 2 2 2 2 2 2 2 
2 2 2 2 2 2 2 2 2 
2 
type 1 100 int
1 1 1 1 1 1 1 1 1 
1 1 1 1 1 1 1 1 1 
1 1 1 1 1 1 1 1 1 
1 1 1 1 1 1 1 1 1 
1 1 1 1 1 1 1 1 1 
1 1 1 1 1 1 1 1 1 
1 1 1 1 1 1 1 1 1 
1 1 1 1 1 1 1 1 1 
1 1 1 1 1 1 1 1 1 
1 1 1 1 1 1 1 1 1 
1 1 1 1 1 1 1 1 1 
1 
v 3 100 double
-0.11129536579 -0.060799047442 0.13406132187 -0.10442198892 -0.061367347109 0.0592933941 -0.11130551355 -0.065728796715 -0.01125318314 
-0.17577187569 -0.080554183863 0.095529227432 -0.1579573064 -0.072141689318 0.19330907648 -0.17186593596 -0.081576586572 0.032410779498 
-0.16350904536 -0.081917911939 -0.048182437119 -0.18346026559 -0.080835161295 0.15212632282 -0.11319851358 -0.068465346513 -0.075990629372 
-0.047091002434 -0.043600813253 0.099475759495 -0.2215035955 -0.094892057234 0.058583956112 -0.19641960719 -0.090227168266 -0.015518242973 
-0.052481634031 -0.04621626093 0.067827593053 -0.23121438169 -0.096343627544 0.097722621285 -0.066108499857 -0.051575176205 0.024770182074 
-0.21624730666 -0.094880739447 0.014558550098 -0.19828552439 -0.084996460067 0.15450548448 -0.096191167151 -0.06279411804 -0.052250492332 
-0.038871499879 -0.04048427105 0.12202982992 -0.15029675049 -0.079828178965 -0.098049020045 -0.06073011829 -0.04782720736 0.089924796007 
-0.25509127044 -0.10409778629 0.070521535416 -0.14893617773 -0.070454155427 0.16695022562 -0.14783193032 -0.067420934609 0.24709430738 
-0.11102290724 -0.05824204433 0.207179321 -0.074327537642 -0.051281056071 0.10280773071 -0.13218351863 -0.064302198462 0.20701854951 
-0.16428331454 -0.07252155781 0.2354919348 -0.253474151 -0.10467739735 0.039778937345 -0.16429764658 -0.078210674401 0.067815635921 
-0.2475407412 -0.10376960523 0.016480127093 -0.18885459612 -0.080799303541 0.19870811493 -0.075573845711 -0.055026443774 0.0028575802889 
-0.22055855445 -0.092198001694 0.13006813613 -0.1138804218 -0.070121379355 -0.11907956946 -0.1293757525 -0.064187426342 0.18670820362 
-0.23284076724 -0.10069353273 -0.016849852975 -0.22176596126 -0.092519322274 0.13078059554 -0.20209064338 -0.093507693744 -0.064416091231 
-0.035362012094 -0.041738018983 0.055433749736 -0.15312895517 -0.077677882023 -0.01072550999 -0.20316279075 -0.087814065266 0.11256237155 
-0.1784542863 -0.079583715304 0.14679022001 -0.15609053092 -0.073961623911 0.12387692901 -0.14421196236 -0.076689236792 -0.056818853257 
-0.18307437906 -0.08894421808 -0.090302283479 -0.085529213965 -0.051067543219 0.2036390924 -0.043184642274 -0.044623114214 0.036356764422 
-0.25320755383 -0.10629075539 -0.010056022688 -0.071637404701 -0.054143520396 -0.0043217692472 -0.11062823896 -0.060473940885 0.086230985173 
-0.10203890888 -0.060857370664 0.012973001018 -0.10708389791 -0.064973995294 -0.056509553655 -0.17293645493 -0.079725536505 0.046706901502 
-0.15791947427 -0.071729929416 0.14319118841 -0.16754161491 -0.080579140482 -0.015184472644 -0.1573552253 -0.080727556916 -0.094126305548 
-0.18179010758 -0.080105559943 0.10212996657 -0.10734059455 -0.067502650304 -0.1201428038 -0.046846287261 -0.043575709365 0.053907119434 
-0.21682462045 -0.093656735164 0.009255684559 -0.19041213049 -0.088926458536 -0.062885072653 -0.051495851979 -0.046105592623 0.022627048412 
-0.22727140006 -0.095154354318 0.047463031158 -0.063793122028 -0.051249660489 -0.020014788066 -0.21056745959 -0.093539836814 -0.033844005475 
-0.19661820783 -0.084252135906 0.10399411648 -0.091447624158 -0.062067378525 -0.096463072502 -0.039136822649 -0.040516259556 0.076351851875 
-0.14311718004 -0.078553088077 -0.14274416519 -0.059682811276 -0.047598712491 0.044291187661 -0.25001189852 -0.10267868029 0.020130319356 
-0.14814261107 -0.069934372415 0.11764312228 -0.14941344967 -0.067262709188 0.19624344203 -0.11210168123 -0.058120480073 0.1580792773 
-0.073845613169 -0.051160844661 0.056395476198 -0.13318040729 -0.064149419346 0.15724600899 -0.16537174454 -0.07226060174 0.18437921066 
-0.24767969515 -0.10317900154 -0.010028048344 -0.16122608982 -0.077436376385 0.019695574366 -0.24129215287 -0.10223905797 -0.032761158675 
-0.18818137041 -0.080162888558 0.14776192548 -0.072107384981 -0.054448632676 -0.041616317195 -0.217566749 -0.091156005946 0.079528804217 
-0.1068702429 -0.069001602451 -0.16245303832 -0.12945763794 -0.0638503387 0.13755124017 -0.22605838195 -0.099153857594 -0.065119673697 
-0.218895579 -0.091510153603 0.080148060022 -0.19472870569 -0.092012981954 -0.11104435618 -0.034205075555 -0.041636216451 0.010972412228 
-0.14791840533 -0.07661001421 -0.056997321629 -0.20000773382 -0.086805727044 0.062810467017 -0.17706481811 -0.078963226087 0.096895869887 
-0.15405603376 -0.073255876587 0.075166968873 -0.13839870054 -0.075645332494 -0.10218024711 -0.17543959585 -0.087487516755 -0.13597761383 
-0.08702931808 -0.051096523337 0.15525487472 -0.041451022498 -0.04442921284 -0.0079847816561 -0.24620999904 -0.10464985255 -0.058977436707 
-0.068577009958 -0.053720043644 -0.048762763502 
f 3 100 double
0 0 0 0 0 0 0 0 0 
0 0 0 0 0 0 0 0 0 
0 0 0 0 0 0 0 0 0 
0 0 0 0 0 0 0 0 0 
0 0 0 0 0 0 0 0 0 
0 0 0 0 0 0 0 0 0 
0 0 0 0 0 0 0 0 0 
0 0 0 0 0 0 0 0 0 
0 0 0 0 0 0 0 0 0 
0 0 0 0 0 0 0 0 0 
0 0 0 0 0 0 0 0 0 
0 0 0 0 0 0 0 0 0 
0 0 0 0 0 0 0 0 0 
0 0 0 0 0 0 0 0 0 
0 0 0 0 0 0 0 0 0 
0 0 0 0 0 0 0 0 0 
0 0 0 0 0 0 0 0 0 
0 0 0 0 0 0 0 0 0 
0 0 0 0 0 0 0 0 0 
0 0 0 0 0 0 0 0 0 
0 0 0 0 0 0 0 0 0 
0 0 0 0 0 0 0 0 0 
0 0 0 0 0 0 0 0 0 
0 0 0 0 0 0 0 0 0 
0 0 0 0 0 0 0 0 0 
0 0 0 0 0 0 0 0 0 
0 0 0 0 0 0 0 0 0 
0 0 0 0 0 0 0 0 0 
0 0 0 0 0 0 0 0 0 
0 0 0 0 0 0 0 0 0 
0 0 0 0 0 0 0 0 0 
0 0 0 0 0 0 0 0 0 
0 0 0 0 0 0 0 0 0 
0 0 0 
radius 1 100 double
0.010434 0.00981478 0.00892069 0.00845937 0.00731974 0.00728422 0.00643447 0.00619172 0.00585956 
0.00577566 0.00537241 0.00522549 0.00513666 0.00473175 0.00466912 0.00444866 0.00441894 0.00400812 
0.00385622 0.00379948 0.00370243 0.00366942 0.00364039 0.00363813 0.00363644 0.00358692 0.0035797 
0.00341284 0.00337012 0.00336273 0.00332772 0.00323261 0.00320584 0.00320311 0.00318808 0.00313116 
0.00306026 0.00305632 0.00304383 0.00300958 0.00300137 0.00298994 0.0029567 0.00295111 0.00290849 
0.00284552 0.00282964 0.0028207 0.00281971 0.00281899 0.010434 0.00981478 0.00892069 0.00845937 
0.00731974 0.00728422 0.00643447 0.00619172 0.00585956 0.00577566 0.00537241 0.00522549 0.00513666 
0.00473175 0.00466912 0.00444866 0.00441894 0.00400812 0.00385622 0.00379948 0.00370243 0.00366942 
0.00364039 0.00363813 0.00363644 0.00358692 0.0035797 0.00341284 0.00337012 0.00336273 0.00332772 
0.00323261 0.00320584 0.00320311 0.00318808 0.00313116 0.00306026 0.00305632 0.00304383 0.00300958 
0.00300137 0.00298994 0.0029567 0.00295111 0.00290849 0.00284552 0.00282964 0.0028207 0.00281971 
0.00281899 
omega 3 100 double
2.011088397 -7.0285625033 0.23830135094 2.011088397 -7.0285625033 0.23830135094 2.011088397 -7.0285625033 0.23830135094 
2.011088397 -7.0285625033 0.23830135094 2.011088397 -7.0285625033 0.23830135094 2.011088397 -7.0285625033 0.23830135094 
2.011088397 -7.0285625033 0.23830135094 2.011088397 -7.0285625033 0.23830135094 2.011088397 -7.0285625033 0.23830135094 
2.011088397 -7.0285625033 0.23830135094 2.011088397 -7.0285625033 0.23830135094 2.011088397 -7.0285625033 0.23830135094 
2.011088397 -7.0285625033 0.23830135094 2.011088397 -7.0285625033 0.23830135094 2.011088397 -7.0285625033 0.23830135094 
2.011088397 -7.0285625033 0.23830135094 2.011088397 -7.0285625033 0.23830135094 2.011088397 -7.0285625033 0.23830135094 
2.011088397 -7.0285625033 0.23830135094 2.011088397 -7.0285625033 0.23830135094 2.011088397 -7.0285625033 0.23830135094 
2.011088397 -7.0285625033 0.23830135094 2.011088397 -7.0285625033 0.23830135094 2.011088397 -7.0285625033 0.23830135094 
2.011088397 -7.0285625033 0.23830135094 2.011088397 -7.0285625033 0.23830135094 2.011088397 -7.0285625033 0.23830135094 
2.011088397 -7.0285625033 0.23830135094 2.011088397 -7.0285625033 0.23830135094 2.011088397 -7.0285625033 0.23830135094 
2.011088397 -7.0285625033 0.23830135094 2.011088397 -7.0285625033 0.23830135094 2.011088397 -7.0285625033 0.23830135094 
2.011088397 -7.0285625033 0.23830135094 2.011088397 -7.0285625033 0.23830135094 2.011088397 -7.0285625033 0.23830135094 
2.011088397 -7.0285625033 0.23830135094 2.011088397 -7.0285625033 0.23830135094 2.011088397 -7.0285625033 0.23830135094 
2.011088397 -7.0285625033 0.23830135094 2.011088397 -7.0285625033 0.23830135094 2.011088397 -7.0285625033 0.23830135094 
2.011088397 -7.0285625033 0.23830135094 2.011088397 -7.0285625033 0.23830135094 2.011088397 -7.0285625033 0.23830135094 
2.011088397 -7.0285625033 0.23830135094 2.011088397 -7.0285625033 0.23830135094 2.011088397 -7.0285625033 0.23830135094 
2.011088397 -7.0285625033 0.23830135094 2.011088397 -7.0285625033 0.23830135094 1.9643478611 -6.9046935823 0.26645419626 
1.9643478611 -6.9046935823 0.26645419626 1.9643478611 -6.9046935823 0.26645419626 1.9643478611 -6.9046935823 0.26645419626 
1.9643478611 -6.9046935823 0.26645419626 1.9643478611 -6.9046935823 0.26645419626 1.9643478611 -6.9046935823 0.26645419626 
1.9643478611 -6.9046935823 0.26645419626 1.9643478611 -6.9046935823 0.26645419626 1.9643478611 -6.9046935823 0.26645419626 
1.9643478611 -6.9046935823 0.26645419626 1.9643478611 -6.9046935823 0.26645419626 1.9643478611 -6.9046935823 0.26645419626 
1.9643478611 -6.9046935823 0.26645419626 1.9643478611 -6.9046935823 0.26645419626 1.9643478611 -6.9046935823 0.26645419626 
1.9643478611 -6.9046935823 0.26645419626 1.9643478611 -6.9046935823 0.26645419626 1.9643478611 -6.9046935823 0.26645419626 
1.9643478611 -6.9046935823 0.26645419626 1.9643478611 -6.9046935823 0.26645419626 1.9643478611 -6.9046935823 0.26645419626 
1.9643478611 -6.9046935823 0.26645419626 1.9643478611 -6.9046935823 0.26645419626 1.9643478611 -6.9046935823 0.26645419626 
1.9643478611 -6.9046935823 0.26645419626 1.9643478611 -6.9046935823 0.26645419626 1.9643478611 -6.9046935823 0.26645419626 
1.9643478611 -6.9046935823 0.26645419626 1.9643478611 -6.9046935823 0.26645419626 1.9643478611 -6.9046935823 0.26645419626 
1.9643478611 -6.9046935823 0.26645419626 1.9643478611 -6.9046935823 0.26645419626 1.9643478611 -6.9046935823 0.26645419626 
1.9643478611 -6.9046935823 0.26645419626 1.9643478611 -6.9046935823 0.26645419626 1.9643478611 -6.9046935823 0.26645419626 
1.9643478611 -6.9046935823 0.26645419626 1.9643478611 -6.9046935823 0.26645419626 1.9643478611 -6.9046935823 0.26645419626 
1.9643478611 -6.9046935823 0.26645419626 1.9643478611 -6.9046935823 0.26645419626 1.9643478611 -6.9046935823 0.26645419626 
1.9643478611 -6.9046935823 0.26645419626 1.9643478611 -6.9046935823 0.26645419626 1.9643478611 -6.9046935823 0.26645419626 
1.9643478611 -6.9046935823 0.26645419626 1.9643478611 -6.9046935823 0.26645419626 1.9643478611 -6.9046935823 0.26645419626 
1.9643478611 -6.9046935823 0.26645419626 
