# vtk DataFile Version 4.1
Generated by LIGGGHTS
ASCII
DATASET POLYDATA
POINTS 100 float
-0.108398 -0.128935 0.0143316 -0.118737 -0.129814 0.0156277 -0.128286 -0.129864 0.0186825 
-0.111368 -0.129951 0.0244881 -0.0991504 -0.127293 0.0190063 -0.119995 -0.13083 0.0258513 
-0.131189 -0.131709 0.0271139 -0.102775 -0.131654 0.0239408 -0.136947 -0.130757 0.0209015 
-0.1158 -0.127099 0.00635376 -0.114237 -0.132639 0.0320504 -0.125331 -0.132621 0.0307587 
-0.121004 -0.123698 0.00791768 -0.108245 -0.133498 0.0322717 -0.126274 -0.124605 0.0111267 
-0.120262 -0.133507 0.0326583 -0.103699 -0.125685 0.0257123 -0.135958 -0.124708 0.0176049 
-0.111453 -0.132213 0.00472967 -0.138037 -0.133419 0.0268191 -0.114187 -0.135705 0.00885511 
-0.110981 -0.13442 0.0364372 -0.100861 -0.135001 0.0188193 -0.0930252 -0.123816 0.0158708 
-0.0980258 -0.129756 0.0121529 -0.115936 -0.122013 0.00985725 -0.09984 -0.12123 0.0147868 
-0.0948383 -0.121285 0.0184114 -0.115294 -0.134432 0.0371254 -0.117328 -0.123939 0.0234909 
-0.118718 -0.13443 0.0369913 -0.0958931 -0.1325 0.0233398 -0.125516 -0.136637 0.0135412 
-0.103865 -0.134316 0.0298584 -0.142149 -0.133351 0.0223722 -0.0990149 -0.134092 0.0154762 
-0.12382 -0.134415 0.0359343 -0.104721 -0.13089 0.0298782 -0.131423 -0.134372 0.033065 
-0.121792 -0.12881 0.00609245 -0.125096 -0.135954 0.0247143 -0.106365 -0.136002 0.0280194 
-0.106167 -0.123074 0.0230842 -0.106097 -0.136752 0.0211592 -0.134514 -0.126529 0.0244922 
-0.135636 -0.134344 0.0311857 -0.0996037 -0.128846 0.00867577 -0.124427 -0.127979 0.00771695 
-0.122209 -0.134456 0.038569 -0.130621 -0.122917 0.0126975 -0.0395425 -0.101155 0.0159791 
-0.0499133 -0.102045 0.0169744 -0.0595456 -0.102122 0.0197576 -0.0427982 -0.102262 0.0260379 
-0.0304309 -0.0995555 0.020928 -0.0514596 -0.103154 0.0271488 -0.0626852 -0.104043 0.0280864 
-0.0341922 -0.103961 0.0257182 -0.0682648 -0.103034 0.0217227 -0.0467168 -0.0992457 0.00781224 
-0.0458793 -0.105019 0.0334914 -0.0569325 -0.104989 0.0318869 -0.0519632 -0.0958582 0.00925936 
-0.0398958 -0.105881 0.0338741 -0.0573213 -0.0967947 0.0123098 -0.051919 -0.105892 0.0339208 
-0.0351672 -0.0980081 0.0275171 -0.0671844 -0.0969558 0.0185105 -0.0423238 -0.104345 0.00626521 
-0.0695212 -0.10575 0.0275827 -0.0451734 -0.107874 0.0102798 -0.0427476 -0.10684 0.037952 
-0.0321338 -0.107261 0.0206226 -0.0242202 -0.0960505 0.0179986 -0.0291126 -0.101956 0.014087 
-0.0469518 -0.0941919 0.0113566 -0.0310021 -0.0934546 0.016746 -0.0261048 -0.0935433 0.0205098 
-0.0470787 -0.106858 0.0385179 -0.0487283 -0.0962417 0.0249274 -0.0504974 -0.106855 0.0382871 
-0.0272964 -0.104802 0.0253043 -0.0566297 -0.108848 0.0146352 -0.0354486 -0.106677 0.0315782 
-0.0735062 -0.105641 0.0230221 -0.0301944 -0.106322 0.0173414 -0.0555679 -0.10683 0.0370866 
-0.0363062 -0.103251 0.0316049 -0.0630869 -0.10676 0.0340041 -0.0526982 -0.100954 0.00736617 
-0.0565257 -0.108267 0.0258215 -0.0378958 -0.108346 0.029654 -0.0375604 -0.0953735 0.0248441 
-0.0374336 -0.109033 0.0227975 -0.0659351 -0.0988389 0.025419 -0.0672449 -0.106714 0.0320068 
-0.0305918 -0.101014 0.010575 -0.0553783 -0.100137 0.00892305 -0.0540315 -0.106895 0.0397653 
-0.0617115 -0.0951207 0.0137724 
VERTICES 100 200
1 0 
1 1 
1 2 
1 3 
1 4 
1 5 
1 6 
1 7 
1 8 
1 9 
1 10 
1 11 
1 12 
1 13 
1 14 
1 15 
1 16 
1 17 
1 18 
1 19 
1 20 
1 21 
1 22 
1 23 
1 24 
1 25 
1 26 
1 27 
1 28 
1 29 
1 30 
1 31 
1 32 
1 33 
1 34 
1 35 
1 36 
1 37 
1 38 
1 39 
1 40 
1 41 
1 42 
1 43 
1 44 
1 45 
1 46 
1 47 
1 48 
1 49 
1 50 
1 51 
1 52 
1 53 
1 54 
1 55 
1 56 
1 57 
1 58 
1 59 
1 60 
1 61 
1 62 
1 63 
1 64 
1 65 
1 66 
1 67 
1 68 
1 69 
1 70 
1 71 
1 72 
1 73 
1 74 
1 75 
1 76 
1 77 
1 78 
1 79 
1 80 
1 81 
1 82 
1 83 
1 84 
1 85 
1 86 
1 87 
1 88 
1 89 
1 90 
1 91 
1 92 
1 93 
1 94 
1 95 
1 96 
1 97 
1 98 
1 99 

POINT_DATA 100
FIELD FieldData 7
id 1 100 int
1 2 3 4 5 6 7 8 9 
10 11 12 13 14 15 16 17 18 
19 20 21 22 23 24 25 26 27 
28 29 30 31 32 33 34 35 36 
37 38 39 40 41 42 43 44 45 
46 47 48 49 50 51 52 53 54 
55 56 57 58 59 60 61 62 63 
64 65 66 67 68 69 70 71 72 
73 74 75 76 77 78 79 80 81 
82 83 84 85 86 87 88 89 90 
91 92 93 94 95 96 97 98 99 
100 
mol 1 100 int
1 1 1 1 1 1 1 1 1 
1 1 1 1 1 1 1 1 1 
1 1 1 1 1 1 1 1 1 
1 1 1 1 1 1 1 1 1 
1 1 1 1 1 1 1 1 1 
1 1 1 1 1 2 2 2 2 
2 2 2 2 2 2 2 2 2 
2 2 2 2 2 2 2 2 2 
2 2 2 2 2 2 2 2 2 
2 2 2 2 2 2 2 2 2 
2 2 2 2 2 2 2 2 2 
2 
type 1 100 int
1 1 1 1 1 1 1 1 1 
1 1 1 1 1 1 1 1 1 
1 1 1 1 1 1 1 1 1 
1 1 1 1 1 1 1 1 1 
1 1 1 1 1 1 1 1 1 
1 1 1 1 1 1 1 1 1 
1 1 1 1 1 1 1 1 1 
1 1 1 1 1 1 1 1 1 
1 1 1 1 1 1 1 1 1 
1 1 1 1 1 1 1 1 1 
1 1 1 1 1 1 1 1 1 
1 
v 3 100 double
-0.098852866687 -0.058338534836 0.42128109234 -0.10791645375 -0.061078889433 0.34712519253 -0.1292538262 -0.067721403894 0.28031398501 
-0.16980473653 -0.080779876465 0.39828935392 -0.13148355775 -0.068799102062 0.48950845947 -0.17933731823 -0.083690052382 0.33608940199 
-0.18816673746 -0.08634559984 0.25595503125 -0.1660033427 -0.079675160699 0.45454308737 -0.14476357591 -0.072525063954 0.21784980543 
-0.04310770923 -0.040590341699 0.37364221352 -0.22265798022 -0.097481084722 0.37229960348 -0.21363553344 -0.094484773613 0.29485127085 
-0.053988936115 -0.04398708686 0.34482506017 -0.2242145155 -0.098045180576 0.41225037321 -0.076413848243 -0.05102387551 0.30600865239 
-0.22691441087 -0.098751722928 0.32829706443 -0.17830231272 -0.083584255896 0.46129893806 -0.12166279077 -0.065241249442 0.23814313275 
-0.031827435327 -0.037049822576 0.39269212241 -0.18612863323 -0.085608221542 0.20434320426 -0.060685315275 -0.046146259311 0.36586253352 
-0.25331977983 -0.10723008971 0.39110471829 -0.13027300204 -0.068364055842 0.46050334678 -0.10954021102 -0.061935594565 0.53998582918 
-0.083645747137 -0.053645257831 0.49191199342 -0.067515245189 -0.048342522499 0.3839541974 -0.10193660144 -0.059451979031 0.49810986409 
-0.12725370841 -0.06753584168 0.53292211749 -0.25812693238 -0.10869980472 0.36095126907 -0.16276516443 -0.07849903569 0.36996868069 
-0.25719035845 -0.10836061137 0.33703983269 -0.16181612512 -0.078430338635 0.50073519422 -0.093427719432 -0.056377115315 0.2846742776 
-0.20736840822 -0.092758321257 0.44103669554 -0.15506776152 -0.075715436671 0.17577198672 -0.10691149153 -0.060988064975 0.47540768669 
-0.24980759341 -0.10595810227 0.30143595957 -0.207464147 -0.092791495079 0.44263596453 -0.22976593963 -0.099513556261 0.24842632406 
-0.041303742305 -0.039937759521 0.32800810015 -0.17145900168 -0.081110353006 0.28911909352 -0.19454454124 -0.088657284826 0.41984142064 
-0.15991363278 -0.077737201325 0.44983935472 -0.14663754584 -0.073477634697 0.42005610674 -0.16979064696 -0.080502011902 0.24420096077 
-0.21663944812 -0.095302138798 0.21906446378 -0.059347686182 -0.045930082137 0.48290550633 -0.052639987346 -0.043500420321 0.3114416424 
-0.26821026331 -0.11180906734 0.3126011048 -0.087364562543 -0.05444652352 0.27938094396 -0.098433237902 -0.058055995746 0.37403840501 
-0.10523380442 -0.060546494743 0.30095589366 -0.12432584432 -0.066892386577 0.23470517553 -0.16740892189 -0.07998448985 0.3492992381 
-0.13243740491 -0.068502947787 0.44002099058 -0.17500176956 -0.082671027925 0.28794130234 -0.18140650245 -0.085063606773 0.20899600545 
-0.16516147449 -0.079016328603 0.40465670096 -0.13777906197 -0.071434314054 0.17290507526 -0.042463781937 -0.040565350771 0.32895986334 
-0.21845702847 -0.096254488379 0.32217846976 -0.20744997794 -0.093125835602 0.24641187774 -0.052500179357 -0.043872540018 0.30031580615 
-0.22105543453 -0.096894034789 0.36136077262 -0.073398342152 -0.050661938649 0.26152279365 -0.22137548044 -0.097378924685 0.27884891406 
-0.1776928686 -0.08295040904 0.41088353571 -0.11593477911 -0.064430299169 0.19350588017 -0.031687341366 -0.037068619613 0.34803485773 
-0.17789588381 -0.08418868449 0.15839206717 -0.059117622721 -0.045869918781 0.32082741947 -0.24900211763 -0.10583279073 0.33971350774 
-0.13009657023 -0.067894732535 0.41161846632 -0.11245144947 -0.061948923813 0.49023554491 -0.085426623452 -0.053618023059 0.44385640413 
-0.066942115875 -0.048263098783 0.33831243452 -0.10394045424 -0.059447500071 0.44933918618 -0.12976024413 -0.067457632868 0.48274550634 
-0.25288422414 -0.10719885128 0.30996046555 -0.15998226798 -0.07776426114 0.32167750317 -0.25130106043 -0.10680721353 0.28651172253 
-0.16229456613 -0.077898165814 0.45014264029 -0.088968153475 -0.055685407568 0.24011630317 -0.2052783102 -0.091770702469 0.39014389817 
-0.14661075902 -0.074420837387 0.1312890881 -0.10761520355 -0.060713686327 0.42696211637 -0.24306519596 -0.10436413487 0.251779866 
-0.20557105058 -0.091856073979 0.39169385156 -0.22191911754 -0.097915887219 0.20034521733 -0.03934894187 -0.03978833468 0.28421796843 
-0.16573237292 -0.079952798628 0.24209052959 -0.19202376806 -0.087673877549 0.36973410632 -0.15943862485 -0.077227297002 0.400181135 
-0.14496149122 -0.072782691268 0.37141384221 -0.16327221304 -0.079379836931 0.19799106061 -0.20821798285 -0.093715110257 0.17191765996 
-0.061362131226 -0.046045348388 0.43575190896 -0.050056315732 -0.043251792371 0.26760132877 -0.26144077255 -0.11012702503 0.26217972764 
-0.08348654682 -0.053975485389 0.2350349913 
f 3 100 double
0 0 0 0 0 0 0 0 0 
0 0 0 0 0 0 0 0 0 
0 0 0 0 0 0 0 0 0 
0 0 0 0 0 0 0 0 0 
0 0 0 0 0 0 0 0 0 
0 0 0 0 0 0 0 0 0 
0 0 0 0 0 0 0 0 0 
0 0 0 0 0 0 0 0 0 
0 0 0 0 0 0 0 0 0 
0 0 0 0 0 0 0 0 0 
0 0 0 0 0 0 0 0 0 
0 0 0 0 0 0 0 0 0 
0 0 0 0 0 0 0 0 0 
0 0 0 0 0 0 0 0 0 
0 0 0 0 0 0 0 0 0 
0 0 0 0 0 0 0 0 0 
0 0 0 0 0 0 0 0 0 
0 0 0 0 0 0 0 0 0 
0 0 0 0 0 0 0 0 0 
0 0 0 0 0 0 0 0 0 
0 0 0 0 0 0 0 0 0 
0 0 0 0 0 0 0 0 0 
0 0 0 0 0 0 0 0 0 
0 0 0 0 0 0 0 0 0 
0 0 0 0 0 0 0 0 0 
0 0 0 0 0 0 0 0 0 
0 0 0 0 0 0 0 0 0 
0 0 0 0 0 0 0 0 0 
0 0 0 0 0 0 0 0 0 
0 0 0 0 0 0 0 0 0 
0 0 0 0 0 0 0 0 0 
0 0 0 0 0 0 0 0 0 
0 0 0 0 0 0 0 0 0 
0 0 0 
radius 1 100 double
0.010434 0.00981478 0.00892069 0.00845937 0.00731974 0.00728422 0.00643447 0.00619172 0.00585956 
0.00577566 0.00537241 0.00522549 0.00513666 0.00473175 0.00466912 0.00444866 0.00441894 0.00400812 
0.00385622 0.00379948 0.00370243 0.00366942 0.00364039 0.00363813 0.00363644 0.00358692 0.0035797 
0.00341284 0.00337012 0.00336273 0.00332772 0.00323261 0.00320584 0.00320311 0.00318808 0.00313116 
0.00306026 0.00305632 0.00304383 0.00300958 0.00300137 0.00298994 0.0029567 0.00295111 0.00290849 
0.00284552 0.00282964 0.0028207 0.00281971 0.00281899 0.010434 0.00981478 0.00892069 0.00845937 
0.00731974 0.00728422 0.00643447 0.00619172 0.00585956 0.00577566 0.00537241 0.00522549 0.00513666 
0.00473175 0.00466912 0.00444866 0.00441894 0.00400812 0.00385622 0.00379948 0.00370243 0.00366942 
0.00364039 0.00363813 0.00363644 0.00358692 0.0035797 0.00341284 0.00337012 0.00336273 0.00332772 
0.00323261 0.00320584 0.00320311 0.00318808 0.00313116 0.00306026 0.00305632 0.00304383 0.00300958 
0.00300137 0.00298994 0.0029567 0.00295111 0.00290849 0.00284552 0.00282964 0.0028207 0.00281971 
0.00281899 
omega 3 100 double
2.2131816055 -6.9846287305 -0.012392873898 2.2131816055 -6.9846287305 -0.012392873898 2.2131816055 -6.9846287305 -0.012392873898 
2.2131816055 -6.9846287305 -0.012392873898 2.2131816055 -6.9846287305 -0.012392873898 2.2131816055 -6.9846287305 -0.012392873898 
2.2131816055 -6.9846287305 -0.012392873898 2.2131816055 -6.9846287305 -0.012392873898 2.2131816055 -6.9846287305 -0.012392873898 
2.2131816055 -6.9846287305 -0.012392873898 2.2131816055 -6.9846287305 -0.012392873898 2.2131816055 -6.9846287305 -0.012392873898 
2.2131816055 -6.9846287305 -0.012392873898 2.2131816055 -6.9846287305 -0.012392873898 2.2131816055 -6.9846287305 -0.012392873898 
2.2131816055 -6.9846287305 -0.012392873898 2.2131816055 -6.9846287305 -0.012392873898 2.2131816055 -6.9846287305 -0.012392873898 
2.2131816055 -6.9846287305 -0.012392873898 2.2131816055 -6.9846287305 -0.012392873898 2.2131816055 -6.9846287305 -0.012392873898 
2.2131816055 -6.9846287305 -0.012392873898 2.2131816055 -6.9846287305 -0.012392873898 2.2131816055 -6.9846287305 -0.012392873898 
2.2131816055 -6.9846287305 -0.012392873898 2.2131816055 -6.9846287305 -0.012392873898 2.2131816055 -6.9846287305 -0.012392873898 
2.2131816055 -6.9846287305 -0.012392873898 2.2131816055 -6.9846287305 -0.012392873898 2.2131816055 -6.9846287305 -0.012392873898 
2.2131816055 -6.9846287305 -0.012392873898 2.2131816055 -6.9846287305 -0.012392873898 2.2131816055 -6.9846287305 -0.012392873898 
2.2131816055 -6.9846287305 -0.012392873898 2.2131816055 -6.9846287305 -0.012392873898 2.2131816055 -6.9846287305 -0.012392873898 
2.2131816055 -6.9846287305 -0.012392873898 2.2131816055 -6.9846287305 -0.012392873898 2.2131816055 -6.9846287305 -0.012392873898 
2.2131816055 -6.9846287305 -0.012392873898 2.2131816055 -6.9846287305 -0.012392873898 2.2131816055 -6.9846287305 -0.012392873898 
2.2131816055 -6.9846287305 -0.012392873898 2.2131816055 -6.9846287305 -0.012392873898 2.2131816055 -6.9846287305 -0.012392873898 
2.2131816055 -6.9846287305 -0.012392873898 2.2131816055 -6.9846287305 -0.012392873898 2.2131816055 -6.9846287305 -0.012392873898 
2.2131816055 -6.9846287305 -0.012392873898 2.2131816055 -6.9846287305 -0.012392873898 2.1696957434 -6.8607300196 0.031902037543 
2.1696957434 -6.8607300196 0.031902037543 2.1696957434 -6.8607300196 0.031902037543 2.1696957434 -6.8607300196 0.031902037543 
2.1696957434 -6.8607300196 0.031902037543 2.1696957434 -6.8607300196 0.031902037543 2.1696957434 -6.8607300196 0.031902037543 
2.1696957434 -6.8607300196 0.031902037543 2.1696957434 -6.8607300196 0.031902037543 2.1696957434 -6.8607300196 0.031902037543 
2.1696957434 -6.8607300196 0.031902037543 2.1696957434 -6.8607300196 0.031902037543 2.1696957434 -6.8607300196 0.031902037543 
2.1696957434 -6.8607300196 0.031902037543 2.1696957434 -6.8607300196 0.031902037543 2.1696957434 -6.8607300196 0.031902037543 
2.1696957434 -6.8607300196 0.031902037543 2.1696957434 -6.8607300196 0.031902037543 2.1696957434 -6.8607300196 0.031902037543 
2.1696957434 -6.8607300196 0.031902037543 2.1696957434 -6.8607300196 0.031902037543 2.1696957434 -6.8607300196 0.031902037543 
2.1696957434 -6.8607300196 0.031902037543 2.1696957434 -6.8607300196 0.031902037543 2.1696957434 -6.8607300196 0.031902037543 
2.1696957434 -6.8607300196 0.031902037543 2.1696957434 -6.8607300196 0.031902037543 2.1696957434 -6.8607300196 0.031902037543 
2.1696957434 -6.8607300196 0.031902037543 2.1696957434 -6.8607300196 0.031902037543 2.1696957434 -6.8607300196 0.031902037543 
2.1696957434 -6.8607300196 0.031902037543 2.1696957434 -6.8607300196 0.031902037543 2.1696957434 -6.8607300196 0.031902037543 
2.1696957434 -6.8607300196 0.031902037543 2.1696957434 -6.8607300196 0.031902037543 2.1696957434 -6.8607300196 0.031902037543 
2.1696957434 -6.8607300196 0.031902037543 2.1696957434 -6.8607300196 0.031902037543 2.1696957434 -6.8607300196 0.031902037543 
2.1696957434 -6.8607300196 0.031902037543 2.1696957434 -6.8607300196 0.031902037543 2.1696957434 -6.8607300196 0.031902037543 
2.1696957434 -6.8607300196 0.031902037543 2.1696957434 -6.8607300196 0.031902037543 2.1696957434 -6.8607300196 0.031902037543 
2.1696957434 -6.8607300196 0.031902037543 2.1696957434 -6.8607300196 0.031902037543 2.1696957434 -6.8607300196 0.031902037543 
2.1696957434 -6.8607300196 0.031902037543 
