# vtk DataFile Version 4.1
Generated by LIGGGHTS
ASCII
DATASET POLYDATA
POINTS 100 float
-0.110455 -0.130118 0.0208476 -0.120869 -0.131037 0.0206501 -0.130751 -0.131205 0.022338 
-0.114807 -0.131566 0.0304376 -0.101957 -0.128691 0.0268326 -0.123536 -0.132491 0.0305453 
-0.134793 -0.133407 0.0301952 -0.106214 -0.133256 0.0310219 -0.139632 -0.13218 0.023287 
-0.116681 -0.127929 0.0120013 -0.11869 -0.134573 0.0374036 -0.129496 -0.134484 0.034579 
-0.122068 -0.124591 0.0129684 -0.112784 -0.135449 0.0384216 -0.127729 -0.125629 0.0153691 
-0.124737 -0.135457 0.0371274 -0.107403 -0.127367 0.0329012 -0.138221 -0.125997 0.0204227 
-0.112126 -0.132975 0.0107819 -0.141524 -0.135094 0.0288751 -0.115393 -0.136637 0.0143322 
-0.116069 -0.136546 0.0421213 -0.103589 -0.136382 0.0260788 -0.0954706 -0.125091 0.024734 
-0.0998765 -0.130859 0.0201039 -0.117327 -0.122999 0.0156663 -0.102079 -0.122452 0.0228218 
-0.0976318 -0.12267 0.0271029 -0.120436 -0.136581 0.0422 -0.120597 -0.125508 0.0288774 
-0.123808 -0.136569 0.0415899 -0.0993118 -0.134085 0.031351 -0.12726 -0.137754 0.017348 
-0.108106 -0.136169 0.03661 -0.144976 -0.134828 0.0239051 -0.101299 -0.135332 0.0230679 
-0.128713 -0.136501 0.0398332 -0.108973 -0.132745 0.0366569 -0.135842 -0.136324 0.0359359 
-0.12257 -0.129619 0.0108337 -0.128405 -0.137554 0.0284893 -0.110318 -0.13777 0.0343697 
-0.109493 -0.124642 0.0300689 -0.109092 -0.138224 0.0275882 -0.137743 -0.128114 0.0273598 
-0.139752 -0.136208 0.0334903 -0.100958 -0.129797 0.0164828 -0.125409 -0.128855 0.0121089 
-0.127484 -0.136657 0.0426627 -0.132261 -0.124004 0.016389 -0.0415897 -0.102332 0.0215461 
-0.0519942 -0.103257 0.0210726 -0.0619164 -0.103446 0.0225036 -0.0461864 -0.103861 0.0310085 
-0.0332502 -0.100947 0.0277597 -0.0549135 -0.104794 0.0308835 -0.0661569 -0.105716 0.0302357 
-0.0376089 -0.105549 0.0318004 -0.0708176 -0.104436 0.0232153 -0.0475878 -0.100076 0.0125603 
-0.0502447 -0.106929 0.0378472 -0.0609739 -0.106825 0.0347457 -0.0530007 -0.0967494 0.0134154 
-0.0443656 -0.107808 0.03901 -0.0587211 -0.097811 0.0156607 -0.0562816 -0.107815 0.0374079 
-0.0388524 -0.099677 0.0336965 -0.0693394 -0.0982285 0.0204389 -0.0429975 -0.105108 0.0114177 
-0.0728504 -0.107397 0.0287287 -0.0463515 -0.108801 0.0148524 -0.0477438 -0.108938 0.0426148 
-0.0348547 -0.108633 0.0269013 -0.0267154 -0.0973252 0.0258586 -0.0309948 -0.103058 0.0210694 
-0.0483327 -0.0951758 0.0162476 -0.0332754 -0.0946751 0.0237982 -0.0289393 -0.0949252 0.0281906 
-0.0521115 -0.108977 0.0425805 -0.0519401 -0.0977958 0.029349 -0.0554664 -0.108963 0.0418837 
-0.030717 -0.106376 0.0323006 -0.0582911 -0.109952 0.017552 -0.0396416 -0.10851 0.0373139 
-0.0761738 -0.107093 0.0236737 -0.0324892 -0.107557 0.0239591 -0.0603247 -0.108884 0.0400017 
-0.0405128 -0.105087 0.0373664 -0.0673509 -0.10868 0.0359234 -0.0534426 -0.10176 0.0112275 
-0.0597231 -0.109844 0.0286614 -0.0417935 -0.110094 0.0350043 -0.0408707 -0.0969307 0.0308335 
-0.040393 -0.110492 0.0282532 -0.0690382 -0.100402 0.0273685 -0.0711964 -0.108548 0.0333788 
-0.0319841 -0.101968 0.0174305 -0.056315 -0.101009 0.0124352 -0.0591693 -0.109063 0.0428605 
-0.063279 -0.0961979 0.0165767 
VERTICES 100 200
1 0 
1 1 
1 2 
1 3 
1 4 
1 5 
1 6 
1 7 
1 8 
1 9 
1 10 
1 11 
1 12 
1 13 
1 14 
1 15 
1 16 
1 17 
1 18 
1 19 
1 20 
1 21 
1 22 
1 23 
1 24 
1 25 
1 26 
1 27 
1 28 
1 29 
1 30 
1 31 
1 32 
1 33 
1 34 
1 35 
1 36 
1 37 
1 38 
1 39 
1 40 
1 41 
1 42 
1 43 
1 44 
1 45 
1 46 
1 47 
1 48 
1 49 
1 50 
1 51 
1 52 
1 53 
1 54 
1 55 
1 56 
1 57 
1 58 
1 59 
1 60 
1 61 
1 62 
1 63 
1 64 
1 65 
1 66 
1 67 
1 68 
1 69 
1 70 
1 71 
1 72 
1 73 
1 74 
1 75 
1 76 
1 77 
1 78 
1 79 
1 80 
1 81 
1 82 
1 83 
1 84 
1 85 
1 86 
1 87 
1 88 
1 89 
1 90 
1 91 
1 92 
1 93 
1 94 
1 95 
1 96 
1 97 
1 98 
1 99 

POINT_DATA 100
FIELD FieldData 7
id 1 100 int
1 2 3 4 5 6 7 8 9 
10 11 12 13 14 15 16 17 18 
19 20 21 22 23 24 25 26 27 
28 29 30 31 32 33 34 35 36 
37 38 39 40 41 42 43 44 45 
46 47 48 49 50 51 52 53 54 
55 56 57 58 59 60 61 62 63 
64 65 66 67 68 69 70 71 72 
73 74 75 76 77 78 79 80 81 
82 83 84 85 86 87 88 89 90 
91 92 93 94 95 96 97 98 99 
100 
mol 1 100 int
1 1 1 1 1 1 1 1 1 
1 1 1 1 1 1 1 1 1 
1 1 1 1 1 1 1 1 1 
1 1 1 1 1 1 1 1 1 
1 1 1 1 1 1 1 1 1 
1 1 1 1 1 2 2 2 2 
2 2 2 2 2 2 2 2 2 
2 2 2 2 2 2 2 2 2 
2 2 2 2 2 2 2 2 2 
2 2 2 2 2 2 2 2 2 
2 2 2 2 2 2 2 2 2 
2 
type 1 100 int
1 1 1 1 1 1 1 1 1 
1 1 1 1 1 1 1 1 1 
1 1 1 1 1 1 1 1 1 
1 1 1 1 1 1 1 1 1 
1 1 1 1 1 1 1 1 1 
1 1 1 1 1 1 1 1 1 
1 1 1 1 1 1 1 1 1 
1 1 1 1 1 1 1 1 1 
1 1 1 1 1 1 1 1 1 
1 1 1 1 1 1 1 1 1 
1 1 1 1 1 1 1 1 1 
1 
v 3 100 double
-0.10696640661 -0.059945437267 0.23011549962 -0.10543085318 -0.061236649963 0.15516556697 -0.11724050131 -0.066376187347 0.085515611983 
-0.17398178264 -0.080673715387 0.1965724185 -0.14917083682 -0.071047272356 0.2926875836 -0.17458548477 -0.082326162469 0.13343254123 
-0.1719805508 -0.083436844047 0.05257704563 -0.17780291021 -0.080487568817 0.25331015321 -0.12373595525 -0.069809592847 0.021201526722 
-0.04528735059 -0.04249972112 0.19102093024 -0.22234046201 -0.095848357991 0.16306447 -0.20254682052 -0.091720334683 0.087473964676 
-0.052615255992 -0.045399292834 0.16021518643 -0.22933582993 -0.097006898184 0.20265640416 -0.069281010766 -0.051336134799 0.11834708989 
-0.22025874758 -0.096260948312 0.11881352037 -0.19194532899 -0.084604692532 0.25725872029 -0.10466090453 -0.063600419785 0.044002443247 
-0.035911127208 -0.039209566881 0.21243517826 -0.16244739571 -0.081782681907 0.0018512314521 -0.060208779698 -0.047154035186 0.18187939846 
-0.25510206781 -0.10526647936 0.17733027731 -0.14262677162 -0.069740921849 0.2651911087 -0.13504285568 -0.065606050575 0.34568946298 
-0.10162974244 -0.056662765246 0.30275347651 -0.071795740978 -0.050255025185 0.19678379378 -0.12206473195 -0.062695897024 0.30485246172 
-0.15205114997 -0.07090389816 0.33558686895 -0.25564820595 -0.10614509683 0.1466312129 -0.16403092139 -0.078364215055 0.16861210878 
-0.25137114972 -0.10542305519 0.12301135466 -0.17997496465 -0.080045430058 0.29998062456 -0.081175554532 -0.05538989499 0.096329419704 
-0.21651438811 -0.092460664199 0.23396006473 -0.12763760857 -0.071973992163 -0.021804934668 -0.12168385293 -0.063082020853 0.28343871872 
-0.23906295091 -0.10255879688 0.088754947242 -0.21740307148 -0.092700288515 0.23502652318 -0.21176126156 -0.095590444569 0.039131749387 
-0.036823424741 -0.041026062205 0.14619994442 -0.15933953936 -0.07883147104 0.088718370999 -0.20054175508 -0.088146474475 0.21510662514 
-0.17252839026 -0.079034715119 0.24829381872 -0.15291045123 -0.073791538102 0.22275370599 -0.15296220353 -0.078001262469 0.042936377731 
-0.19462986839 -0.091125527152 0.011954548141 -0.076409869487 -0.049281838782 0.29738183622 -0.045890669883 -0.044152067633 0.12788047948 
-0.25887988547 -0.10826359213 0.09704391017 -0.076699502766 -0.054206235119 0.089960711263 -0.10639954868 -0.059637422479 0.18247000002 
-0.10295490075 -0.06072095865 0.10890374616 -0.11277634342 -0.065596396743 0.040164765667 -0.17128450984 -0.079853941168 0.14768213181 
-0.14947762211 -0.070675058737 0.24274515059 -0.17023933326 -0.081318222533 0.085657093419 -0.16559517633 -0.08221146847 0.0063196999519 
-0.17640746621 -0.079780146554 0.20332668399 -0.117483692 -0.068802451264 -0.023176323917 -0.044941126935 -0.042481013508 0.14575297178 
-0.21779191322 -0.094609976007 0.11346406147 -0.19644604112 -0.09039429638 0.039762759984 -0.051486964693 -0.045292486534 0.11525185019 
-0.2256288086 -0.095824613156 0.15216964938 -0.066745824873 -0.051001815213 0.073677222436 -0.21459091087 -0.094902867358 0.070066610181 
-0.19062622406 -0.083894584581 0.20674426639 -0.09958060079 -0.062845246001 -0.00032394996753 -0.036078297124 -0.03924478447 0.16710605902 
-0.1548825619 -0.080454830369 -0.043221797873 -0.059012348238 -0.04691520178 0.13646220524 -0.25023928072 -0.1038467663 0.12659187265 
-0.1420498788 -0.069239329018 0.21600817274 -0.13709446603 -0.065507729306 0.29515559296 -0.10297268455 -0.056577207168 0.25397522513 
-0.071308215221 -0.050152798317 0.150621187 -0.12342248126 -0.062595324691 0.25537217464 -0.15363264152 -0.070705111584 0.28473262345 
-0.24999560904 -0.10463740565 0.096422991235 -0.16104698798 -0.077600775436 0.12042291852 -0.24519809746 -0.10387633324 0.073340769088 
-0.17969038819 -0.079443051111 0.24911827724 -0.077382965853 -0.054776862683 0.051862784235 -0.21380637812 -0.091432532323 0.18328141212 
-0.12011836572 -0.070793300632 -0.065496530511 -0.12199338659 -0.062768909831 0.23449996384 -0.23224843727 -0.10099271703 0.040032697549 
-0.21484202827 -0.091711226635 0.18426420867 -0.20419343113 -0.094054116786 -0.0079551847848 -0.03542785078 -0.040914635555 0.10198189726 
-0.15393630511 -0.077730935029 0.042218399347 -0.19758332889 -0.087143037238 0.16522400889 -0.17144444815 -0.078449521902 0.19844465435 
-0.15099661823 -0.073089413341 0.17406063481 -0.14688971447 -0.076927669736 -0.002684816701 -0.18668993104 -0.089618788819 -0.034176597056 
-0.078118794683 -0.049345732314 0.24938538888 -0.043895561253 -0.043945195423 0.083727380314 -0.25190790314 -0.10659945722 0.047627196353 
-0.073373818313 -0.053769158647 0.045570082823 
f 3 100 double
0 0 0 0 0 0 0 0 0 
0 0 0 0 0 0 0 0 0 
0 0 0 0 0 0 0 0 0 
0 0 0 0 0 0 0 0 0 
0 0 0 0 0 0 0 0 0 
0 0 0 0 0 0 0 0 0 
0 0 0 0 0 0 0 0 0 
0 0 0 0 0 0 0 0 0 
0 0 0 0 0 0 0 0 0 
0 0 0 0 0 0 0 0 0 
0 0 0 0 0 0 0 0 0 
0 0 0 0 0 0 0 0 0 
0 0 0 0 0 0 0 0 0 
0 0 0 0 0 0 0 0 0 
0 0 0 0 0 0 0 0 0 
0 0 0 0 0 0 0 0 0 
0 0 0 0 0 0 0 0 0 
0 0 0 0 0 0 0 0 0 
0 0 0 0 0 0 0 0 0 
0 0 0 0 0 0 0 0 0 
0 0 0 0 0 0 0 0 0 
0 0 0 0 0 0 0 0 0 
0 0 0 0 0 0 0 0 0 
0 0 0 0 0 0 0 0 0 
0 0 0 0 0 0 0 0 0 
0 0 0 0 0 0 0 0 0 
0 0 0 0 0 0 0 0 0 
0 0 0 0 0 0 0 0 0 
0 0 0 0 0 0 0 0 0 
0 0 0 0 0 0 0 0 0 
0 0 0 0 0 0 0 0 0 
0 0 0 0 0 0 0 0 0 
0 0 0 0 0 0 0 0 0 
0 0 0 
radius 1 100 double
0.010434 0.00981478 0.00892069 0.00845937 0.00731974 0.00728422 0.00643447 0.00619172 0.00585956 
0.00577566 0.00537241 0.00522549 0.00513666 0.00473175 0.00466912 0.00444866 0.00441894 0.00400812 
0.00385622 0.00379948 0.00370243 0.00366942 0.00364039 0.00363813 0.00363644 0.00358692 0.0035797 
0.00341284 0.00337012 0.00336273 0.00332772 0.00323261 0.00320584 0.00320311 0.00318808 0.00313116 
0.00306026 0.00305632 0.00304383 0.00300958 0.00300137 0.00298994 0.0029567 0.00295111 0.00290849 
0.00284552 0.00282964 0.0028207 0.00281971 0.00281899 0.010434 0.00981478 0.00892069 0.00845937 
0.00731974 0.00728422 0.00643447 0.00619172 0.00585956 0.00577566 0.00537241 0.00522549 0.00513666 
0.00473175 0.00466912 0.00444866 0.00441894 0.00400812 0.00385622 0.00379948 0.00370243 0.00366942 
0.00364039 0.00363813 0.00363644 0.00358692 0.0035797 0.00341284 0.00337012 0.00336273 0.00332772 
0.00323261 0.00320584 0.00320311 0.00318808 0.00313116 0.00306026 0.00305632 0.00304383 0.00300958 
0.00300137 0.00298994 0.0029567 0.00295111 0.00290849 0.00284552 0.00282964 0.0028207 0.00281971 
0.00281899 
omega 3 100 double
2.0872103892 -7.0127392779 0.16357534476 2.0872103892 -7.0127392779 0.16357534476 2.0872103892 -7.0127392779 0.16357534476 
2.0872103892 -7.0127392779 0.16357534476 2.0872103892 -7.0127392779 0.16357534476 2.0872103892 -7.0127392779 0.16357534476 
2.0872103892 -7.0127392779 0.16357534476 2.0872103892 -7.0127392779 0.16357534476 2.0872103892 -7.0127392779 0.16357534476 
2.0872103892 -7.0127392779 0.16357534476 2.0872103892 -7.0127392779 0.16357534476 2.0872103892 -7.0127392779 0.16357534476 
2.0872103892 -7.0127392779 0.16357534476 2.0872103892 -7.0127392779 0.16357534476 2.0872103892 -7.0127392779 0.16357534476 
2.0872103892 -7.0127392779 0.16357534476 2.0872103892 -7.0127392779 0.16357534476 2.0872103892 -7.0127392779 0.16357534476 
2.0872103892 -7.0127392779 0.16357534476 2.0872103892 -7.0127392779 0.16357534476 2.0872103892 -7.0127392779 0.16357534476 
2.0872103892 -7.0127392779 0.16357534476 2.0872103892 -7.0127392779 0.16357534476 2.0872103892 -7.0127392779 0.16357534476 
2.0872103892 -7.0127392779 0.16357534476 2.0872103892 -7.0127392779 0.16357534476 2.0872103892 -7.0127392779 0.16357534476 
2.0872103892 -7.0127392779 0.16357534476 2.0872103892 -7.0127392779 0.16357534476 2.0872103892 -7.0127392779 0.16357534476 
2.0872103892 -7.0127392779 0.16357534476 2.0872103892 -7.0127392779 0.16357534476 2.0872103892 -7.0127392779 0.16357534476 
2.0872103892 -7.0127392779 0.16357534476 2.0872103892 -7.0127392779 0.16357534476 2.0872103892 -7.0127392779 0.16357534476 
2.0872103892 -7.0127392779 0.16357534476 2.0872103892 -7.0127392779 0.16357534476 2.0872103892 -7.0127392779 0.16357534476 
2.0872103892 -7.0127392779 0.16357534476 2.0872103892 -7.0127392779 0.16357534476 2.0872103892 -7.0127392779 0.16357534476 
2.0872103892 -7.0127392779 0.16357534476 2.0872103892 -7.0127392779 0.16357534476 2.0872103892 -7.0127392779 0.16357534476 
2.0872103892 -7.0127392779 0.16357534476 2.0872103892 -7.0127392779 0.16357534476 2.0872103892 -7.0127392779 0.16357534476 
2.0872103892 -7.0127392779 0.16357534476 2.0872103892 -7.0127392779 0.16357534476 2.0407959367 -6.8889698766 0.19702337392 
2.0407959367 -6.8889698766 0.19702337392 2.0407959367 -6.8889698766 0.19702337392 2.0407959367 -6.8889698766 0.19702337392 
2.0407959367 -6.8889698766 0.19702337392 2.0407959367 -6.8889698766 0.19702337392 2.0407959367 -6.8889698766 0.19702337392 
2.0407959367 -6.8889698766 0.19702337392 2.0407959367 -6.8889698766 0.19702337392 2.0407959367 -6.8889698766 0.19702337392 
2.0407959367 -6.8889698766 0.19702337392 2.0407959367 -6.8889698766 0.19702337392 2.0407959367 -6.8889698766 0.19702337392 
2.0407959367 -6.8889698766 0.19702337392 2.0407959367 -6.8889698766 0.19702337392 2.0407959367 -6.8889698766 0.19702337392 
2.0407959367 -6.8889698766 0.19702337392 2.0407959367 -6.8889698766 0.19702337392 2.0407959367 -6.8889698766 0.19702337392 
2.0407959367 -6.8889698766 0.19702337392 2.0407959367 -6.8889698766 0.19702337392 2.0407959367 -6.8889698766 0.19702337392 
2.0407959367 -6.8889698766 0.19702337392 2.0407959367 -6.8889698766 0.19702337392 2.0407959367 -6.8889698766 0.19702337392 
2.0407959367 -6.8889698766 0.19702337392 2.0407959367 -6.8889698766 0.19702337392 2.0407959367 -6.8889698766 0.19702337392 
2.0407959367 -6.8889698766 0.19702337392 2.0407959367 -6.8889698766 0.19702337392 2.0407959367 -6.8889698766 0.19702337392 
2.0407959367 -6.8889698766 0.19702337392 2.0407959367 -6.8889698766 0.19702337392 2.0407959367 -6.8889698766 0.19702337392 
2.0407959367 -6.8889698766 0.19702337392 2.0407959367 -6.8889698766 0.19702337392 2.0407959367 -6.8889698766 0.19702337392 
2.0407959367 -6.8889698766 0.19702337392 2.0407959367 -6.8889698766 0.19702337392 2.0407959367 -6.8889698766 0.19702337392 
2.0407959367 -6.8889698766 0.19702337392 2.0407959367 -6.8889698766 0.19702337392 2.0407959367 -6.8889698766 0.19702337392 
2.0407959367 -6.8889698766 0.19702337392 2.0407959367 -6.8889698766 0.19702337392 2.0407959367 -6.8889698766 0.19702337392 
2.0407959367 -6.8889698766 0.19702337392 2.0407959367 -6.8889698766 0.19702337392 2.0407959367 -6.8889698766 0.19702337392 
2.0407959367 -6.8889698766 0.19702337392 
