# vtk DataFile Version 4.1
Generated by LIGGGHTS
ASCII
DATASET POLYDATA
POINTS 100 float
-0.119821 -0.136972 0.0186312 -0.128722 -0.136927 0.0131435 -0.138128 -0.13666 0.00968041 
-0.128266 -0.140338 0.0241425 -0.115466 -0.137775 0.0281423 -0.135853 -0.140517 0.019732 
-0.14541 -0.14036 0.0137056 -0.121011 -0.142844 0.0284017 -0.14626 -0.137079 0.00588494 
-0.120965 -0.132173 0.00875863 -0.134932 -0.144611 0.0272971 -0.142924 -0.142918 0.0196807 
-0.12628 -0.128725 0.00777992 -0.130263 -0.146208 0.0308113 -0.132331 -0.129832 0.00675388 
-0.140003 -0.144884 0.0238869 -0.123255 -0.137512 0.0308823 -0.143919 -0.130527 0.00575151 
-0.116165 -0.137138 0.00868766 -0.150522 -0.141095 0.00888619 -0.120578 -0.141263 0.00912582 
-0.13489 -0.14789 0.0320162 -0.116141 -0.144882 0.0247654 -0.108972 -0.134337 0.0304736 
-0.110233 -0.138406 0.0229926 -0.123573 -0.128248 0.0127528 -0.113893 -0.130759 0.0263167 
-0.112134 -0.132391 0.0320087 -0.138719 -0.147572 0.0299386 -0.132814 -0.133614 0.0215463 
-0.141346 -0.147125 0.0277844 -0.115141 -0.144312 0.0318393 -0.132317 -0.142069 0.00556045 
-0.125273 -0.14686 0.0314029 -0.151079 -0.139334 0.00311747 -0.112717 -0.143329 0.0236372 
-0.144741 -0.146214 0.023938 -0.126213 -0.14349 0.0318865 -0.149015 -0.144487 0.0172454 
-0.12542 -0.13302 0.00447769 -0.138822 -0.144493 0.0143521 -0.12601 -0.147672 0.0280458 
-0.123802 -0.134011 0.0281878 -0.121576 -0.146563 0.0228686 -0.146827 -0.134304 0.0112391 
-0.151208 -0.143447 0.0133224 -0.109436 -0.136406 0.0197103 -0.128552 -0.132351 0.00434802 
-0.145063 -0.147159 0.0268607 -0.136848 -0.128125 0.00580269 -0.0509638 -0.109156 0.0187387 
-0.0598783 -0.109105 0.0132736 -0.069299 -0.108975 0.00984336 -0.0592598 -0.113163 0.0240425 
-0.0465505 -0.110377 0.0281781 -0.0668498 -0.113352 0.0196374 -0.0764265 -0.11318 0.0136423 
-0.0519035 -0.115654 0.0281324 -0.0774231 -0.109461 0.00603808 -0.0523167 -0.103807 0.00917975 
-0.0657532 -0.117865 0.0269365 -0.0738275 -0.116006 0.0194468 -0.0577586 -0.100506 0.00841971 
-0.0610177 -0.1195 0.0303414 -0.0637681 -0.10177 0.00733433 -0.0708225 -0.118116 0.0235215 
-0.0543346 -0.11057 0.0309374 -0.0753252 -0.102831 0.00630367 -0.0473368 -0.108578 0.0087997 
-0.0815239 -0.113808 0.00879232 -0.0515936 -0.112883 0.0089891 -0.0655747 -0.121422 0.031446 
-0.0469739 -0.117285 0.0243729 -0.0401791 -0.10685 0.0307085 -0.041315 -0.110498 0.0229938 
-0.0550538 -0.100233 0.0134096 -0.0452428 -0.103209 0.0267838 -0.0434062 -0.105121 0.0323633 
-0.0694198 -0.121119 0.0293959 -0.0640618 -0.106465 0.0218678 -0.0720686 -0.120639 0.0272759 
-0.0459717 -0.117112 0.0314674 -0.0633067 -0.113902 0.00539368 -0.0560042 -0.120001 0.0308867 
-0.0821643 -0.111719 0.0031429 -0.0436131 -0.11554 0.0233383 -0.0755077 -0.119621 0.0234961 
-0.0570669 -0.116704 0.0315768 -0.079865 -0.117647 0.0169265 -0.0567518 -0.104555 0.00485975 
-0.0696882 -0.117099 0.0140274 -0.0567223 -0.120634 0.0274868 -0.0550192 -0.106934 0.0284629 
-0.0523492 -0.119046 0.0223826 -0.0780736 -0.107042 0.0115528 -0.0821078 -0.116451 0.0130768 
-0.040603 -0.108273 0.0198392 -0.0599068 -0.103996 0.00477464 -0.0757857 -0.120754 0.0263558 
-0.0683476 -0.100177 0.00649428 
VERTICES 100 200
1 0 
1 1 
1 2 
1 3 
1 4 
1 5 
1 6 
1 7 
1 8 
1 9 
1 10 
1 11 
1 12 
1 13 
1 14 
1 15 
1 16 
1 17 
1 18 
1 19 
1 20 
1 21 
1 22 
1 23 
1 24 
1 25 
1 26 
1 27 
1 28 
1 29 
1 30 
1 31 
1 32 
1 33 
1 34 
1 35 
1 36 
1 37 
1 38 
1 39 
1 40 
1 41 
1 42 
1 43 
1 44 
1 45 
1 46 
1 47 
1 48 
1 49 
1 50 
1 51 
1 52 
1 53 
1 54 
1 55 
1 56 
1 57 
1 58 
1 59 
1 60 
1 61 
1 62 
1 63 
1 64 
1 65 
1 66 
1 67 
1 68 
1 69 
1 70 
1 71 
1 72 
1 73 
1 74 
1 75 
1 76 
1 77 
1 78 
1 79 
1 80 
1 81 
1 82 
1 83 
1 84 
1 85 
1 86 
1 87 
1 88 
1 89 
1 90 
1 91 
1 92 
1 93 
1 94 
1 95 
1 96 
1 97 
1 98 
1 99 

POINT_DATA 100
FIELD FieldData 7
id 1 100 int
1 2 3 4 5 6 7 8 9 
10 11 12 13 14 15 16 17 18 
19 20 21 22 23 24 25 26 27 
28 29 30 31 32 33 34 35 36 
37 38 39 40 41 42 43 44 45 
46 47 48 49 50 51 52 53 54 
55 56 57 58 59 60 61 62 63 
64 65 66 67 68 69 70 71 72 
73 74 75 76 77 78 79 80 81 
82 83 84 85 86 87 88 89 90 
91 92 93 94 95 96 97 98 99 
100 
mol 1 100 int
1 1 1 1 1 1 1 1 1 
1 1 1 1 1 1 1 1 1 
1 1 1 1 1 1 1 1 1 
1 1 1 1 1 1 1 1 1 
1 1 1 1 1 1 1 1 1 
1 1 1 1 1 2 2 2 2 
2 2 2 2 2 2 2 2 2 
2 2 2 2 2 2 2 2 2 
2 2 2 2 2 2 2 2 2 
2 2 2 2 2 2 2 2 2 
2 2 2 2 2 2 2 2 2 
2 
type 1 100 int
1 1 1 1 1 1 1 1 1 
1 1 1 1 1 1 1 1 1 
1 1 1 1 1 1 1 1 1 
1 1 1 1 1 1 1 1 1 
1 1 1 1 1 1 1 1 1 
1 1 1 1 1 1 1 1 1 
1 1 1 1 1 1 1 1 1 
1 1 1 1 1 1 1 1 1 
1 1 1 1 1 1 1 1 1 
1 1 1 1 1 1 1 1 1 
1 1 1 1 1 1 1 1 1 
1 
v 3 100 double
-0.037687319383 -0.14123673138 0.023302951801 -0.036957845273 -0.099954717738 0.022459336428 -0.036310135935 -0.070923988649 0.022936619711 
-0.041030519378 -0.16902911308 0.0012073034629 -0.039521099256 -0.20408105857 0.018839733084 -0.040613004496 -0.13550939759 -0.00086666334671 
-0.03972759984 -0.090346099746 -0.0010955146499 -0.043539237973 -0.20134210241 -0.013530163419 -0.03615948127 -0.040818012851 0.019291203631 
-0.032665372717 -0.078658529376 0.053143105258 -0.044789181779 -0.18349638678 -0.02633308474 -0.042494958692 -0.12963021318 -0.01676690525 
-0.029831211527 -0.068365195093 0.074008510412 -0.046488885529 -0.20912189942 -0.035717561722 -0.030571253809 -0.057197662517 0.066331608849 
-0.044572568387 -0.15820445732 -0.028680030948 -0.039660579977 -0.21507528304 0.019499804694 -0.030991180974 -0.041825253525 0.060522081158 
-0.036559749573 -0.081989257373 0.022732969683 -0.039696191204 -0.056217631406 -0.0063355155909 -0.039858803927 -0.081256881568 -0.00360010749 
-0.047963715481 -0.21301204267 -0.04681127057 -0.044681950452 -0.18245318656 -0.025648791841 -0.037112744022 -0.22375149221 0.041141245527 
-0.039365962178 -0.17602252833 0.015559268374 -0.030084546239 -0.10156163503 0.077335102979 -0.033774020286 -0.19391210819 0.062872062695 
-0.035777345101 -0.23085569933 0.052895441087 -0.047450883158 -0.19702188655 -0.045308176937 -0.035415428889 -0.14923326613 0.042642321332 
-0.046827102014 -0.18149839664 -0.042848387215 -0.045127967598 -0.22743384622 -0.021957813225 -0.040041110836 -0.049753018187 -0.01011618698 
-0.047075953368 -0.21674185688 -0.039156904177 -0.037581892082 -0.019740072219 0.0045979026078 -0.043318087525 -0.17809683014 -0.015511850868 
-0.045624513434 -0.15479838921 -0.037586969379 -0.044487672743 -0.21902345845 -0.018222654121 -0.043420255971 -0.10962661343 -0.027337184892 
-0.032789943949 -0.048410820932 0.047287863975 -0.043058863737 -0.099564779801 -0.026083905558 -0.047290423573 -0.19518823756 -0.044328060482 
-0.0365677626 -0.19781105605 0.041299297375 -0.045763181367 -0.16633036401 -0.036833941666 -0.034654592375 -0.07382276684 0.036558334859 
-0.042106718571 -0.083393272215 -0.021119070967 -0.037378364705 -0.15614306311 0.02815569008 -0.03224780587 -0.045138255355 0.051069461528 
-0.046737167549 -0.17280439744 -0.043532175693 -0.029109256809 -0.047704212092 0.076422048097 -0.048075663282 -0.12504876751 -0.007513703458 
-0.052727669307 -0.088838177724 0.00041500186112 -0.055706284712 -0.068410573927 0.0093694335413 -0.041181778476 -0.17038087364 -0.030976000829 
-0.03935975223 -0.19419690642 -0.020534099493 -0.044792975169 -0.14143740354 -0.025994588282 -0.049965360792 -0.1015931602 -0.016592685468 
-0.036225317097 -0.19706827344 -0.056148192685 -0.058631359487 -0.044350359194 0.012538190551 -0.059374520373 -0.05315146603 0.034316061074 
-0.035907411331 -0.19629942665 -0.061251029218 -0.043358208805 -0.1441828394 -0.040284229561 -0.062002539425 -0.050642305145 0.064033125219 
-0.032045363699 -0.21935167877 -0.077690345219 -0.062159913967 -0.045999805999 0.05949546216 -0.038643896766 -0.173370958 -0.058876489648 
-0.036910474054 -0.21986637076 -0.015420815611 -0.062393484344 -0.045109158542 0.061197754293 -0.056827635847 -0.047266265822 -0.00617919466 
-0.053688885118 -0.06776646088 -0.017057325689 -0.054078825347 -0.051266482412 -0.035327524183 -0.029955365032 -0.23049350658 -0.08846152341 
-0.038423811628 -0.165506882 -0.072719525919 -0.03934091827 -0.20961382351 0.00090769720856 -0.04367076983 -0.15161395422 -0.025880185502 
-0.05794710477 -0.086971806793 0.063818524846 -0.04484879903 -0.18280512157 0.032885000696 -0.038981656708 -0.22414165455 0.016792659854 
-0.031870875367 -0.21721127429 -0.082907643702 -0.047047811939 -0.15672690245 0.024030941484 -0.03395225255 -0.20267837711 -0.077014225544 
-0.03252919962 -0.21886946434 -0.072247726729 -0.056505963193 -0.030960632678 -0.03317830462 -0.031282824505 -0.22048450237 -0.085743760524 
-0.059721979328 -0.025178669232 -0.00062520560223 -0.040347882704 -0.15561614321 -0.062288058174 -0.037760605397 -0.17599461201 -0.066360990321 
-0.032681701299 -0.22637262805 -0.059767183601 -0.04450253909 -0.12864250739 -0.047661564847 -0.062577690621 -0.022957830856 0.032377717361 
-0.047283679001 -0.10047058003 -0.05209574573 -0.033777223906 -0.19505491857 -0.089948909216 -0.041189161923 -0.2014552697 0.012815802151 
-0.039047815368 -0.15359969604 -0.081570101236 -0.055423314758 -0.086689531441 0.03149454312 -0.048476758785 -0.1007080774 -0.036668791173 
-0.04767614709 -0.12719063123 -0.0095557576357 -0.062985817546 -0.024207427085 0.039297944809 -0.034661036216 -0.19791446467 -0.074747063012 
-0.063828256112 -0.042363456499 0.075487089618 
f 3 100 double
0 0 0 0 0 0 0 0 0 
0 0 0 0 0 0 0 0 0 
0 0 0 0 0 0 0 0 0 
0 0 0 0 0 0 0 0 0 
0 0 0 0 0 0 0 0 0 
0 0 0 0 0 0 0 0 0 
0 0 0 0 0 0 0 0 0 
0 0 0 0 0 0 0 0 0 
0 0 0 0 0 0 0 0 0 
0 0 0 0 0 0 0 0 0 
0 0 0 0 0 0 0 0 0 
0 0 0 0.11524699302 0.0015876497247 0.23051585657 0 0 0 
0 0 0 0 0 0 0 0 0 
0 0 0 0 0 0 0 0 0 
0 0 0 0 0 0 0 0 0 
0 0 0 0 0 0 0 0 0 
0 0 0 0 0 0 0 0 0 
0 0 0 0 0 0 0 0 0 
0 0 0 0 0 0 0 0 0 
0 0 0 0 0 0 0 0 0 
0 0 0 0 0 0 0 0 0 
0 0 0 0 0 0 0 0 0 
0 0 0 0 0 0 0 0 0 
0 0 0 0 0 0 0 0 0 
0 0 0 0 0 0 0 0 0 
0 0 0 0 0 0 0 0 0 
0 0 0 0 0 0 0 0 0 
0 0 0 0 0 0 0 0 0 
0.074642102546 0.0014276355084 0.14931150814 0 0 0 0 0 0 
0 0 0 0 0 0 0 0 0 
0 0 0 0 0 0 0 0 0 
0 0 0 0 0 0 0 0 0 
0 0 0 0 0 0 0 0 0 
0 0 0 
radius 1 100 double
0.010434 0.00981478 0.00892069 0.00845937 0.00731974 0.00728422 0.00643447 0.00619172 0.00585956 
0.00577566 0.00537241 0.00522549 0.00513666 0.00473175 0.00466912 0.00444866 0.00441894 0.00400812 
0.00385622 0.00379948 0.00370243 0.00366942 0.00364039 0.00363813 0.00363644 0.00358692 0.0035797 
0.00341284 0.00337012 0.00336273 0.00332772 0.00323261 0.00320584 0.00320311 0.00318808 0.00313116 
0.00306026 0.00305632 0.00304383 0.00300958 0.00300137 0.00298994 0.0029567 0.00295111 0.00290849 
0.00284552 0.00282964 0.0028207 0.00281971 0.00281899 0.010434 0.00981478 0.00892069 0.00845937 
0.00731974 0.00728422 0.00643447 0.00619172 0.00585956 0.00577566 0.00537241 0.00522549 0.00513666 
0.00473175 0.00466912 0.00444866 0.00441894 0.00400812 0.00385622 0.00379948 0.00370243 0.00366942 
0.00364039 0.00363813 0.00363644 0.00358692 0.0035797 0.00341284 0.00337012 0.00336273 0.00332772 
0.00323261 0.00320584 0.00320311 0.00318808 0.00313116 0.00306026 0.00305632 0.00304383 0.00300958 
0.00300137 0.00298994 0.0029567 0.00295111 0.00290849 0.00284552 0.00282964 0.0028207 0.00281971 
0.00281899 
omega 3 100 double
6.2474735601 -0.12646259278 -0.78621168553 6.2474735601 -0.12646259278 -0.78621168553 6.2474735601 -0.12646259278 -0.78621168553 
6.2474735601 -0.12646259278 -0.78621168553 6.2474735601 -0.12646259278 -0.78621168553 6.2474735601 -0.12646259278 -0.78621168553 
6.2474735601 -0.12646259278 -0.78621168553 6.2474735601 -0.12646259278 -0.78621168553 6.2474735601 -0.12646259278 -0.78621168553 
6.2474735601 -0.12646259278 -0.78621168553 6.2474735601 -0.12646259278 -0.78621168553 6.2474735601 -0.12646259278 -0.78621168553 
6.2474735601 -0.12646259278 -0.78621168553 6.2474735601 -0.12646259278 -0.78621168553 6.2474735601 -0.12646259278 -0.78621168553 
6.2474735601 -0.12646259278 -0.78621168553 6.2474735601 -0.12646259278 -0.78621168553 6.2474735601 -0.12646259278 -0.78621168553 
6.2474735601 -0.12646259278 -0.78621168553 6.2474735601 -0.12646259278 -0.78621168553 6.2474735601 -0.12646259278 -0.78621168553 
6.2474735601 -0.12646259278 -0.78621168553 6.2474735601 -0.12646259278 -0.78621168553 6.2474735601 -0.12646259278 -0.78621168553 
6.2474735601 -0.12646259278 -0.78621168553 6.2474735601 -0.12646259278 -0.78621168553 6.2474735601 -0.12646259278 -0.78621168553 
6.2474735601 -0.12646259278 -0.78621168553 6.2474735601 -0.12646259278 -0.78621168553 6.2474735601 -0.12646259278 -0.78621168553 
6.2474735601 -0.12646259278 -0.78621168553 6.2474735601 -0.12646259278 -0.78621168553 6.2474735601 -0.12646259278 -0.78621168553 
6.2474735601 -0.12646259278 -0.78621168553 6.2474735601 -0.12646259278 -0.78621168553 6.2474735601 -0.12646259278 -0.78621168553 
6.2474735601 -0.12646259278 -0.78621168553 6.2474735601 -0.12646259278 -0.78621168553 6.2474735601 -0.12646259278 -0.78621168553 
6.2474735601 -0.12646259278 -0.78621168553 6.2474735601 -0.12646259278 -0.78621168553 6.2474735601 -0.12646259278 -0.78621168553 
6.2474735601 -0.12646259278 -0.78621168553 6.2474735601 -0.12646259278 -0.78621168553 6.2474735601 -0.12646259278 -0.78621168553 
6.2474735601 -0.12646259278 -0.78621168553 6.2474735601 -0.12646259278 -0.78621168553 6.2474735601 -0.12646259278 -0.78621168553 
6.2474735601 -0.12646259278 -0.78621168553 6.2474735601 -0.12646259278 -0.78621168553 7.606593813 0.84556642486 0.60129127073 
7.606593813 0.84556642486 0.60129127073 7.606593813 0.84556642486 0.60129127073 7.606593813 0.84556642486 0.60129127073 
7.606593813 0.84556642486 0.60129127073 7.606593813 0.84556642486 0.60129127073 7.606593813 0.84556642486 0.60129127073 
7.606593813 0.84556642486 0.60129127073 7.606593813 0.84556642486 0.60129127073 7.606593813 0.84556642486 0.60129127073 
7.606593813 0.84556642486 0.60129127073 7.606593813 0.84556642486 0.60129127073 7.606593813 0.84556642486 0.60129127073 
7.606593813 0.84556642486 0.60129127073 7.606593813 0.84556642486 0.60129127073 7.606593813 0.84556642486 0.60129127073 
7.606593813 0.84556642486 0.60129127073 7.606593813 0.84556642486 0.60129127073 7.606593813 0.84556642486 0.60129127073 
7.606593813 0.84556642486 0.60129127073 7.606593813 0.84556642486 0.60129127073 7.606593813 0.84556642486 0.60129127073 
7.606593813 0.84556642486 0.60129127073 7.606593813 0.84556642486 0.60129127073 7.606593813 0.84556642486 0.60129127073 
7.606593813 0.84556642486 0.60129127073 7.606593813 0.84556642486 0.60129127073 7.606593813 0.84556642486 0.60129127073 
7.606593813 0.84556642486 0.60129127073 7.606593813 0.84556642486 0.60129127073 7.606593813 0.84556642486 0.60129127073 
7.606593813 0.84556642486 0.60129127073 7.606593813 0.84556642486 0.60129127073 7.606593813 0.84556642486 0.60129127073 
7.606593813 0.84556642486 0.60129127073 7.606593813 0.84556642486 0.60129127073 7.606593813 0.84556642486 0.60129127073 
7.606593813 0.84556642486 0.60129127073 7.606593813 0.84556642486 0.60129127073 7.606593813 0.84556642486 0.60129127073 
7.606593813 0.84556642486 0.60129127073 7.606593813 0.84556642486 0.60129127073 7.606593813 0.84556642486 0.60129127073 
7.606593813 0.84556642486 0.60129127073 7.606593813 0.84556642486 0.60129127073 7.606593813 0.84556642486 0.60129127073 
7.606593813 0.84556642486 0.60129127073 7.606593813 0.84556642486 0.60129127073 7.606593813 0.84556642486 0.60129127073 
7.606593813 0.84556642486 0.60129127073 
