# vtk DataFile Version 4.1
Generated by LIGGGHTS
ASCII
DATASET POLYDATA
POINTS 100 float
-0.108998 -0.129287 0.0166877 -0.119382 -0.130181 0.0175376 -0.129051 -0.130269 0.0201885 
-0.112391 -0.130435 0.0266965 -0.0999553 -0.127708 0.0217672 -0.121067 -0.131331 0.0276852 
-0.132304 -0.132225 0.0284657 -0.103781 -0.132133 0.0264875 -0.137796 -0.13119 0.0220305 
-0.11606 -0.127344 0.00843144 -0.115574 -0.133223 0.0340958 -0.126604 -0.133186 0.0323405 
-0.121326 -0.123963 0.00982053 -0.109596 -0.134086 0.0345568 -0.126726 -0.124912 0.0127936 
-0.121619 -0.134097 0.0344391 -0.104781 -0.126187 0.0282972 -0.136672 -0.125098 0.0188582 
-0.111646 -0.132438 0.0069238 -0.139132 -0.13393 0.0278616 -0.11455 -0.135983 0.0108846 
-0.112503 -0.135062 0.0385914 -0.101653 -0.135412 0.0214071 -0.0937053 -0.124191 0.0189373 
-0.0985434 -0.130081 0.0149351 -0.116344 -0.122305 0.0119929 -0.10047 -0.12159 0.0176027 
-0.0956242 -0.121694 0.0214327 -0.116841 -0.135082 0.039098 -0.118306 -0.12441 0.0255296 
-0.120257 -0.135078 0.0388205 -0.0968805 -0.132972 0.0261644 -0.126065 -0.136974 0.0150791 
-0.105118 -0.134873 0.0323186 -0.143055 -0.133802 0.0232475 -0.0996694 -0.134459 0.0181566 
-0.12531 -0.135048 0.0375509 -0.105976 -0.131447 0.0323476 -0.132786 -0.134966 0.0343662 
-0.122035 -0.12905 0.00789669 -0.126114 -0.136439 0.0262679 -0.107538 -0.136533 0.0303544 
-0.107138 -0.123542 0.0256026 -0.106982 -0.137193 0.0235021 -0.135518 -0.127009 0.0257754 
-0.136917 -0.134912 0.0323125 -0.0999746 -0.129124 0.0114071 -0.124736 -0.12824 0.00942011 
-0.123811 -0.135124 0.04025 -0.131135 -0.123244 0.0142029 -0.04014 -0.101505 0.0180513 
-0.0505425 -0.102408 0.0186072 -0.0602811 -0.102522 0.0209902 -0.0438064 -0.102742 0.0279524 
-0.0312409 -0.0999685 0.0233914 -0.0525056 -0.103649 0.0286941 -0.0637598 -0.104551 0.0291572 
-0.0351935 -0.104436 0.0279655 -0.0690733 -0.10346 0.0225827 -0.0469731 -0.0994907 0.00962131 
-0.0471901 -0.105596 0.0352365 -0.0581678 -0.105545 0.0331787 -0.0522767 -0.0961226 0.0108948 
-0.0412269 -0.106461 0.0358541 -0.0577554 -0.0970989 0.0137096 -0.0532418 -0.106474 0.0354056 
-0.0362455 -0.0985068 0.0297993 -0.0678652 -0.0973409 0.0194964 -0.042517 -0.104569 0.0081908 
-0.0705682 -0.106252 0.0283504 -0.0455274 -0.10815 0.0120387 -0.0442435 -0.107474 0.0397984 
-0.032925 -0.10767 0.0229168 -0.024917 -0.0964254 0.0207657 -0.0296405 -0.102281 0.0165801 
-0.0473571 -0.0944831 0.0132179 -0.0316432 -0.0938141 0.0192685 -0.026905 -0.093951 0.0232294 
-0.0485943 -0.107499 0.0401852 -0.0496894 -0.0967083 0.0266765 -0.0520006 -0.107494 0.0398139 
-0.0282859 -0.105271 0.027825 -0.0571526 -0.109181 0.0159058 -0.0366884 -0.107228 0.0337332 
-0.0743621 -0.106084 0.0236314 -0.0308528 -0.106688 0.0197306 -0.0570173 -0.107453 0.038406 
-0.0375485 -0.103802 0.0337688 -0.0644031 -0.107344 0.0350177 -0.05293 -0.101193 0.00890732 
-0.0575097 -0.108744 0.0270934 -0.0390533 -0.108871 0.0316885 -0.0385281 -0.0958381 0.0270644 
-0.0383087 -0.10947 0.0248486 -0.0669003 -0.099313 0.0264256 -0.0684754 -0.107273 0.0328517 
-0.0309745 -0.101293 0.0130227 -0.0556725 -0.100397 0.0103629 -0.0555926 -0.107552 0.0411447 
-0.0622031 -0.0954443 0.0150117 
VERTICES 100 200
1 0 
1 1 
1 2 
1 3 
1 4 
1 5 
1 6 
1 7 
1 8 
1 9 
1 10 
1 11 
1 12 
1 13 
1 14 
1 15 
1 16 
1 17 
1 18 
1 19 
1 20 
1 21 
1 22 
1 23 
1 24 
1 25 
1 26 
1 27 
1 28 
1 29 
1 30 
1 31 
1 32 
1 33 
1 34 
1 35 
1 36 
1 37 
1 38 
1 39 
1 40 
1 41 
1 42 
1 43 
1 44 
1 45 
1 46 
1 47 
1 48 
1 49 
1 50 
1 51 
1 52 
1 53 
1 54 
1 55 
1 56 
1 57 
1 58 
1 59 
1 60 
1 61 
1 62 
1 63 
1 64 
1 65 
1 66 
1 67 
1 68 
1 69 
1 70 
1 71 
1 72 
1 73 
1 74 
1 75 
1 76 
1 77 
1 78 
1 79 
1 80 
1 81 
1 82 
1 83 
1 84 
1 85 
1 86 
1 87 
1 88 
1 89 
1 90 
1 91 
1 92 
1 93 
1 94 
1 95 
1 96 
1 97 
1 98 
1 99 

POINT_DATA 100
FIELD FieldData 7
id 1 100 int
1 2 3 4 5 6 7 8 9 
10 11 12 13 14 15 16 17 18 
19 20 21 22 23 24 25 26 27 
28 29 30 31 32 33 34 35 36 
37 38 39 40 41 42 43 44 45 
46 47 48 49 50 51 52 53 54 
55 56 57 58 59 60 61 62 63 
64 65 66 67 68 69 70 71 72 
73 74 75 76 77 78 79 80 81 
82 83 84 85 86 87 88 89 90 
91 92 93 94 95 96 97 98 99 
100 
mol 1 100 int
1 1 1 1 1 1 1 1 1 
1 1 1 1 1 1 1 1 1 
1 1 1 1 1 1 1 1 1 
1 1 1 1 1 1 1 1 1 
1 1 1 1 1 1 1 1 1 
1 1 1 1 1 2 2 2 2 
2 2 2 2 2 2 2 2 2 
2 2 2 2 2 2 2 2 2 
2 2 2 2 2 2 2 2 2 
2 2 2 2 2 2 2 2 2 
2 2 2 2 2 2 2 2 2 
2 
type 1 100 int
1 1 1 1 1 1 1 1 1 
1 1 1 1 1 1 1 1 1 
1 1 1 1 1 1 1 1 1 
1 1 1 1 1 1 1 1 1 
1 1 1 1 1 1 1 1 1 
1 1 1 1 1 1 1 1 1 
1 1 1 1 1 1 1 1 1 
1 1 1 1 1 1 1 1 1 
1 1 1 1 1 1 1 1 1 
1 1 1 1 1 1 1 1 1 
1 1 1 1 1 1 1 1 1 
1 
v 3 100 double
-0.10120289922 -0.058804935595 0.36405787013 -0.10710660786 -0.061111632498 0.28950326242 -0.1256392175 -0.067312227964 0.22169806009 
-0.17113915205 -0.080766646843 0.33783072515 -0.1367902063 -0.069479370994 0.43073302845 -0.17801356984 -0.083301179382 0.27521275895 
-0.1834322292 -0.08549405681 0.19468932049 -0.16960372973 -0.079934429366 0.39433429607 -0.13847943733 -0.071709541272 0.158540913 
-0.04355606445 -0.041120304918 0.31890946059 -0.22275687745 -0.097032041613 0.30950175695 -0.21048468402 -0.093689326167 0.23245373237 
-0.053417308986 -0.044378173822 0.28945768575 -0.22594243514 -0.097775051992 0.34942067688 -0.074164764722 -0.051093943405 0.24963474015 
-0.22511905443 -0.098044770783 0.26532730875 -0.18251788145 -0.083922136188 0.40030051417 -0.1165635895 -0.064746583719 0.17967527997 
-0.032790976134 -0.037641356216 0.33867485523 -0.17913337252 -0.084476314789 0.14322582328 -0.060331744215 -0.046400654919 0.31064166922 
-0.25411149496 -0.10669526753 0.32696458459 -0.13393532129 -0.06876898647 0.40206771846 -0.11715604312 -0.063038331649 0.4821004554 
-0.088913092578 -0.054527732046 0.43543372276 -0.06867999641 -0.048894546871 0.32790776134 -0.10793782694 -0.060425791948 0.44046973493 
-0.13471467556 -0.068560885686 0.4741241853 -0.25765301684 -0.10798923276 0.29658433828 -0.1632436544 -0.078482476851 0.30960320336 
-0.25571302869 -0.10753400474 0.27271145263 -0.16730772321 -0.07892823384 0.44075990164 -0.089618051418 -0.056046021473 0.22796433486 
-0.2102576819 -0.092701206869 0.37901941536 -0.1468749346 -0.074592009205 0.11607775817 -0.11124782811 -0.061597977461 0.4180171468 
-0.2468364686 -0.10498814585 0.23744039252 -0.21061038293 -0.092801957177 0.38048586626 -0.22457116425 -0.098374637996 0.18534248701 
-0.039742189755 -0.040216366106 0.27341404146 -0.16787970365 -0.080433252402 0.22878898029 -0.19645001197 -0.088526261287 0.35847428668 
-0.16379153724 -0.07815260776 0.38958796001 -0.14850678685 -0.073568102608 0.36092454203 -0.16484850301 -0.079771430632 0.18358510759 
-0.21021309414 -0.094079585862 0.15657878756 -0.064285658083 -0.046901505799 0.42751087537 -0.050430154338 -0.043654739055 0.25629088792 
-0.26570683614 -0.11080501464 0.24776127067 -0.08409244611 -0.054358429817 0.22243398904 -0.10074692426 -0.058516052737 0.31669030194 
-0.10448869387 -0.060584976569 0.24330992573 -0.12084677846 -0.06649778586 0.17617610326 -0.16864966826 -0.079963030453 0.28886517833 
-0.13755688333 -0.069160981579 0.38109489487 -0.17366705296 -0.082284031742 0.22717754548 -0.1767712983 -0.084227011172 0.14795028815 
-0.16859575246 -0.079260481184 0.34440871976 -0.13170559956 -0.070642965647 0.11378184952 -0.043014737066 -0.041099945548 0.27405474685 
-0.2184395305 -0.095799338048 0.25953252358 -0.20430976969 -0.092337631855 0.18423716589 -0.052047375018 -0.044268199963 0.24481589787 
-0.22260857483 -0.096612126103 0.29864381895 -0.07129888544 -0.050741719049 0.20510060626 -0.21952643068 -0.096673515822 0.21609008667 
-0.18169477011 -0.083264446835 0.34984037283 -0.11102573396 -0.063952151593 0.13514263217 -0.032758338014 -0.037668316854 0.29382103504 
-0.17108533339 -0.083082114114 0.097554161082 -0.058885005155 -0.04613787415 0.26550002581 -0.24961471771 -0.10528785637 0.27576208166 
-0.13364359557 -0.06829058828 0.35308688093 -0.11982228545 -0.06301957016 0.43209492401 -0.090575999295 -0.05448506405 0.38715128406 
-0.068143522649 -0.048810267512 0.28210750568 -0.10975993827 -0.060393905285 0.39146935983 -0.1369540533 -0.068447310764 0.4237222874 
-0.25226957346 -0.10648259922 0.2458240577 -0.16039737758 -0.077738196827 0.26133713448 -0.24971975439 -0.10597887855 0.22243891929 
-0.16756005098 -0.078374791824 0.39007223937 -0.085359430563 -0.055378913087 0.18344892974 -0.20797550861 -0.09169963406 0.32818123606 
-0.13868643936 -0.073330224537 0.071853163586 -0.11184220193 -0.06131333623 0.36941641515 -0.24005280316 -0.10339888549 0.18806695953 
-0.20851062521 -0.091848599229 0.32958588828 -0.21678849062 -0.096792090541 0.13756891844 -0.037966206092 -0.040080973911 0.22950476445 
-0.16224048066 -0.079291466555 0.18192850571 -0.193791761 -0.087535364701 0.30842875849 -0.16313530737 -0.077619619701 0.33985823922 
-0.1467597561 -0.07287097426 0.31226476862 -0.15845317664 -0.078662221727 0.13756064072 -0.20191686458 -0.092513633958 0.10974984423 
-0.066224847301 -0.047004102822 0.3800962777 -0.048031784803 -0.043420849351 0.21236652798 -0.25885498813 -0.10912418028 0.19764152027 
-0.08038297779 -0.053898543059 0.1780827012 
f 3 100 double
0 0 0 0 0 0 0 0 0 
0 0 0 0 0 0 0 0 0 
0 0 0 0 0 0 0 0 0 
0 0 0 0 0 0 0 0 0 
0 0 0 0 0 0 0 0 0 
0 0 0 0 0 0 0 0 0 
0 0 0 0 0 0 0 0 0 
0 0 0 0 0 0 0 0 0 
0 0 0 0 0 0 0 0 0 
0 0 0 0 0 0 0 0 0 
0 0 0 0 0 0 0 0 0 
0 0 0 0 0 0 0 0 0 
0 0 0 0 0 0 0 0 0 
0 0 0 0 0 0 0 0 0 
0 0 0 0 0 0 0 0 0 
0 0 0 0 0 0 0 0 0 
0 0 0 0 0 0 0 0 0 
0 0 0 0 0 0 0 0 0 
0 0 0 0 0 0 0 0 0 
0 0 0 0 0 0 0 0 0 
0 0 0 0 0 0 0 0 0 
0 0 0 0 0 0 0 0 0 
0 0 0 0 0 0 0 0 0 
0 0 0 0 0 0 0 0 0 
0 0 0 0 0 0 0 0 0 
0 0 0 0 0 0 0 0 0 
0 0 0 0 0 0 0 0 0 
0 0 0 0 0 0 0 0 0 
0 0 0 0 0 0 0 0 0 
0 0 0 0 0 0 0 0 0 
0 0 0 0 0 0 0 0 0 
0 0 0 0 0 0 0 0 0 
0 0 0 0 0 0 0 0 0 
0 0 0 
radius 1 100 double
0.010434 0.00981478 0.00892069 0.00845937 0.00731974 0.00728422 0.00643447 0.00619172 0.00585956 
0.00577566 0.00537241 0.00522549 0.00513666 0.00473175 0.00466912 0.00444866 0.00441894 0.00400812 
0.00385622 0.00379948 0.00370243 0.00366942 0.00364039 0.00363813 0.00363644 0.00358692 0.0035797 
0.00341284 0.00337012 0.00336273 0.00332772 0.00323261 0.00320584 0.00320311 0.00318808 0.00313116 
0.00306026 0.00305632 0.00304383 0.00300958 0.00300137 0.00298994 0.0029567 0.00295111 0.00290849 
0.00284552 0.00282964 0.0028207 0.00281971 0.00281899 0.010434 0.00981478 0.00892069 0.00845937 
0.00731974 0.00728422 0.00643447 0.00619172 0.00585956 0.00577566 0.00537241 0.00522549 0.00513666 
0.00473175 0.00466912 0.00444866 0.00441894 0.00400812 0.00385622 0.00379948 0.00370243 0.00366942 
0.00364039 0.00363813 0.00363644 0.00358692 0.0035797 0.00341284 0.00337012 0.00336273 0.00332772 
0.00323261 0.00320584 0.00320311 0.00318808 0.00313116 0.00306026 0.00305632 0.00304383 0.00300958 
0.00300137 0.00298994 0.0029567 0.00295111 0.00290849 0.00284552 0.00282964 0.0028207 0.00281971 
0.00281899 
omega 3 100 double
2.1794035584 -6.9924966829 0.043766668744 2.1794035584 -6.9924966829 0.043766668744 2.1794035584 -6.9924966829 0.043766668744 
2.1794035584 -6.9924966829 0.043766668744 2.1794035584 -6.9924966829 0.043766668744 2.1794035584 -6.9924966829 0.043766668744 
2.1794035584 -6.9924966829 0.043766668744 2.1794035584 -6.9924966829 0.043766668744 2.1794035584 -6.9924966829 0.043766668744 
2.1794035584 -6.9924966829 0.043766668744 2.1794035584 -6.9924966829 0.043766668744 2.1794035584 -6.9924966829 0.043766668744 
2.1794035584 -6.9924966829 0.043766668744 2.1794035584 -6.9924966829 0.043766668744 2.1794035584 -6.9924966829 0.043766668744 
2.1794035584 -6.9924966829 0.043766668744 2.1794035584 -6.9924966829 0.043766668744 2.1794035584 -6.9924966829 0.043766668744 
2.1794035584 -6.9924966829 0.043766668744 2.1794035584 -6.9924966829 0.043766668744 2.1794035584 -6.9924966829 0.043766668744 
2.1794035584 -6.9924966829 0.043766668744 2.1794035584 -6.9924966829 0.043766668744 2.1794035584 -6.9924966829 0.043766668744 
2.1794035584 -6.9924966829 0.043766668744 2.1794035584 -6.9924966829 0.043766668744 2.1794035584 -6.9924966829 0.043766668744 
2.1794035584 -6.9924966829 0.043766668744 2.1794035584 -6.9924966829 0.043766668744 2.1794035584 -6.9924966829 0.043766668744 
2.1794035584 -6.9924966829 0.043766668744 2.1794035584 -6.9924966829 0.043766668744 2.1794035584 -6.9924966829 0.043766668744 
2.1794035584 -6.9924966829 0.043766668744 2.1794035584 -6.9924966829 0.043766668744 2.1794035584 -6.9924966829 0.043766668744 
2.1794035584 -6.9924966829 0.043766668744 2.1794035584 -6.9924966829 0.043766668744 2.1794035584 -6.9924966829 0.043766668744 
2.1794035584 -6.9924966829 0.043766668744 2.1794035584 -6.9924966829 0.043766668744 2.1794035584 -6.9924966829 0.043766668744 
2.1794035584 -6.9924966829 0.043766668744 2.1794035584 -6.9924966829 0.043766668744 2.1794035584 -6.9924966829 0.043766668744 
2.1794035584 -6.9924966829 0.043766668744 2.1794035584 -6.9924966829 0.043766668744 2.1794035584 -6.9924966829 0.043766668744 
2.1794035584 -6.9924966829 0.043766668744 2.1794035584 -6.9924966829 0.043766668744 2.1347115319 -6.8686854138 0.08480725386 
2.1347115319 -6.8686854138 0.08480725386 2.1347115319 -6.8686854138 0.08480725386 2.1347115319 -6.8686854138 0.08480725386 
2.1347115319 -6.8686854138 0.08480725386 2.1347115319 -6.8686854138 0.08480725386 2.1347115319 -6.8686854138 0.08480725386 
2.1347115319 -6.8686854138 0.08480725386 2.1347115319 -6.8686854138 0.08480725386 2.1347115319 -6.8686854138 0.08480725386 
2.1347115319 -6.8686854138 0.08480725386 2.1347115319 -6.8686854138 0.08480725386 2.1347115319 -6.8686854138 0.08480725386 
2.1347115319 -6.8686854138 0.08480725386 2.1347115319 -6.8686854138 0.08480725386 2.1347115319 -6.8686854138 0.08480725386 
2.1347115319 -6.8686854138 0.08480725386 2.1347115319 -6.8686854138 0.08480725386 2.1347115319 -6.8686854138 0.08480725386 
2.1347115319 -6.8686854138 0.08480725386 2.1347115319 -6.8686854138 0.08480725386 2.1347115319 -6.8686854138 0.08480725386 
2.1347115319 -6.8686854138 0.08480725386 2.1347115319 -6.8686854138 0.08480725386 2.1347115319 -6.8686854138 0.08480725386 
2.1347115319 -6.8686854138 0.08480725386 2.1347115319 -6.8686854138 0.08480725386 2.1347115319 -6.8686854138 0.08480725386 
2.1347115319 -6.8686854138 0.08480725386 2.1347115319 -6.8686854138 0.08480725386 2.1347115319 -6.8686854138 0.08480725386 
2.1347115319 -6.8686854138 0.08480725386 2.1347115319 -6.8686854138 0.08480725386 2.1347115319 -6.8686854138 0.08480725386 
2.1347115319 -6.8686854138 0.08480725386 2.1347115319 -6.8686854138 0.08480725386 2.1347115319 -6.8686854138 0.08480725386 
2.1347115319 -6.8686854138 0.08480725386 2.1347115319 -6.8686854138 0.08480725386 2.1347115319 -6.8686854138 0.08480725386 
2.1347115319 -6.8686854138 0.08480725386 2.1347115319 -6.8686854138 0.08480725386 2.1347115319 -6.8686854138 0.08480725386 
2.1347115319 -6.8686854138 0.08480725386 2.1347115319 -6.8686854138 0.08480725386 2.1347115319 -6.8686854138 0.08480725386 
2.1347115319 -6.8686854138 0.08480725386 2.1347115319 -6.8686854138 0.08480725386 2.1347115319 -6.8686854138 0.08480725386 
2.1347115319 -6.8686854138 0.08480725386 
