# vtk DataFile Version 4.1
Generated by LIGGGHTS
ASCII
DATASET POLYDATA
POINTS 100 float
-0.119519 -0.136129 0.018366 -0.128455 -0.136329 0.0129404 -0.137885 -0.136233 0.00953266 
-0.127913 -0.139315 0.0240583 -0.115099 -0.136549 0.0278715 -0.135528 -0.139692 0.0197087 
-0.145125 -0.139805 0.013745 -0.12062 -0.141627 0.0283614 -0.14604 -0.136829 0.00581054 
-0.120748 -0.131715 0.00832511 -0.134539 -0.143491 0.0274185 -0.142588 -0.142123 0.0197967 
-0.126084 -0.128329 0.00725101 -0.129842 -0.144934 0.0309598 -0.132137 -0.129498 0.00630857 
-0.139632 -0.143915 0.0240553 -0.12287 -0.136213 0.0306515 -0.143727 -0.130277 0.00541115 
-0.115927 -0.136659 0.00841174 -0.150265 -0.140744 0.00899153 -0.12032 -0.140783 0.0090368 
-0.134453 -0.146587 0.0322591 -0.115765 -0.143783 0.0247731 -0.108603 -0.132999 0.030026 
-0.109897 -0.137356 0.0227147 -0.123346 -0.12765 0.0121837 -0.113567 -0.129602 0.0257685 
-0.111764 -0.131008 0.0315069 -0.138297 -0.146364 0.0301965 -0.132507 -0.132713 0.0212376 
-0.140939 -0.14601 0.0280445 -0.114721 -0.142939 0.0318132 -0.132078 -0.141771 0.00558354 
-0.124844 -0.145542 0.0315425 -0.150867 -0.139207 0.00316357 -0.112355 -0.142261 0.0235635 
-0.144363 -0.145261 0.0241888 -0.125796 -0.14216 0.0319032 -0.148689 -0.143808 0.017464 
-0.125227 -0.132743 0.00410961 -0.138515 -0.143883 0.0145048 -0.1256 -0.146486 0.0282238 
-0.12345 -0.13282 0.0278289 -0.121205 -0.145557 0.0229784 -0.146583 -0.133853 0.0110584 
-0.150912 -0.142928 0.0135189 -0.10913 -0.13548 0.019353 -0.128363 -0.132092 0.00397547 
-0.144663 -0.146095 0.0271477 -0.136667 -0.127847 0.00532314 -0.0506456 -0.108409 0.0186273 
-0.0595511 -0.108574 0.0131499 -0.0689658 -0.108565 0.00970073 -0.0589657 -0.112136 0.0240946 
-0.0462521 -0.109213 0.0281206 -0.0665494 -0.112497 0.0196895 -0.0761158 -0.112564 0.0136759 
-0.0516257 -0.114466 0.0283075 -0.0770858 -0.109194 0.00590744 -0.0519623 -0.103499 0.00883082 
-0.0654821 -0.116675 0.0271898 -0.0735372 -0.115131 0.0196084 -0.0573899 -0.100214 0.00791058 
-0.0607585 -0.11817 0.0306744 -0.0634027 -0.101504 0.00687374 -0.0705469 -0.117063 0.023781 
-0.0540413 -0.109249 0.0308721 -0.0749622 -0.102567 0.00587243 -0.0470007 -0.108301 0.00867868 
-0.0812079 -0.113394 0.00885085 -0.0512746 -0.112576 0.00905778 -0.0653247 -0.120023 0.0318579 
-0.0466966 -0.116286 0.0246354 -0.0398709 -0.105598 0.0304978 -0.0410089 -0.109591 0.0229565 
-0.0546921 -0.0997239 0.0128875 -0.0449141 -0.102121 0.0264014 -0.0430938 -0.103782 0.0320659 
-0.0691654 -0.119799 0.0297893 -0.0637379 -0.105527 0.0216067 -0.0718089 -0.119407 0.0276449 
-0.045705 -0.115791 0.0317162 -0.0629859 -0.113714 0.00549224 -0.0557478 -0.118666 0.0312509 
-0.0818311 -0.111564 0.00311046 -0.0433274 -0.114603 0.0235277 -0.075238 -0.11855 0.0238163 
-0.0567987 -0.115336 0.0317872 -0.0795771 -0.116862 0.0171554 -0.0563935 -0.104427 0.00454184 
-0.0693936 -0.116487 0.0142521 -0.0564631 -0.119451 0.0278824 -0.0547077 -0.105728 0.0282322 
-0.0520757 -0.118116 0.0227184 -0.0777354 -0.106521 0.0113042 -0.081809 -0.115836 0.013251 
-0.0402832 -0.107516 0.0197045 -0.0595461 -0.10386 0.00442562 -0.0755249 -0.11955 0.0267245 
-0.0679745 -0.0999335 0.00595344 
VERTICES 100 200
1 0 
1 1 
1 2 
1 3 
1 4 
1 5 
1 6 
1 7 
1 8 
1 9 
1 10 
1 11 
1 12 
1 13 
1 14 
1 15 
1 16 
1 17 
1 18 
1 19 
1 20 
1 21 
1 22 
1 23 
1 24 
1 25 
1 26 
1 27 
1 28 
1 29 
1 30 
1 31 
1 32 
1 33 
1 34 
1 35 
1 36 
1 37 
1 38 
1 39 
1 40 
1 41 
1 42 
1 43 
1 44 
1 45 
1 46 
1 47 
1 48 
1 49 
1 50 
1 51 
1 52 
1 53 
1 54 
1 55 
1 56 
1 57 
1 58 
1 59 
1 60 
1 61 
1 62 
1 63 
1 64 
1 65 
1 66 
1 67 
1 68 
1 69 
1 70 
1 71 
1 72 
1 73 
1 74 
1 75 
1 76 
1 77 
1 78 
1 79 
1 80 
1 81 
1 82 
1 83 
1 84 
1 85 
1 86 
1 87 
1 88 
1 89 
1 90 
1 91 
1 92 
1 93 
1 94 
1 95 
1 96 
1 97 
1 98 
1 99 

POINT_DATA 100
FIELD FieldData 7
id 1 100 int
1 2 3 4 5 6 7 8 9 
10 11 12 13 14 15 16 17 18 
19 20 21 22 23 24 25 26 27 
28 29 30 31 32 33 34 35 36 
37 38 39 40 41 42 43 44 45 
46 47 48 49 50 51 52 53 54 
55 56 57 58 59 60 61 62 63 
64 65 66 67 68 69 70 71 72 
73 74 75 76 77 78 79 80 81 
82 83 84 85 86 87 88 89 90 
91 92 93 94 95 96 97 98 99 
100 
mol 1 100 int
1 1 1 1 1 1 1 1 1 
1 1 1 1 1 1 1 1 1 
1 1 1 1 1 1 1 1 1 
1 1 1 1 1 1 1 1 1 
1 1 1 1 1 1 1 1 1 
1 1 1 1 1 2 2 2 2 
2 2 2 2 2 2 2 2 2 
2 2 2 2 2 2 2 2 2 
2 2 2 2 2 2 2 2 2 
2 2 2 2 2 2 2 2 2 
2 2 2 2 2 2 2 2 2 
2 
type 1 100 int
1 1 1 1 1 1 1 1 1 
1 1 1 1 1 1 1 1 1 
1 1 1 1 1 1 1 1 1 
1 1 1 1 1 1 1 1 1 
1 1 1 1 1 1 1 1 1 
1 1 1 1 1 1 1 1 1 
1 1 1 1 1 1 1 1 1 
1 1 1 1 1 1 1 1 1 
1 1 1 1 1 1 1 1 1 
1 1 1 1 1 1 1 1 1 
1 1 1 1 1 1 1 1 1 
1 
v 3 100 double
-0.067301656646 -0.14042057846 0.060651242069 -0.055896479371 -0.09855657443 0.040319410837 -0.048577994863 -0.069598212709 0.020888096648 
-0.081638968042 -0.17193504534 0.021868852617 -0.087821850447 -0.20591891397 0.067294764715 -0.072647135052 -0.13805932021 0.0031873215189 
-0.060035308862 -0.092201062334 -0.017970226844 -0.092409781842 -0.20528124878 0.022207447989 -0.04107416861 -0.039464904739 -0.00038104152511 
-0.042853967555 -0.073634755073 0.087017373889 -0.091704933733 -0.1893705086 -0.019653525053 -0.074531366583 -0.13370702491 -0.027795571739 
-0.038204186054 -0.062856537388 0.097895522429 -0.10024758985 -0.21590292251 -0.019127339314 -0.037015014509 -0.052442294052 0.077340032541 
-0.084844298356 -0.16373270223 -0.033270708575 -0.093502386268 -0.21874593899 0.05296751056 -0.035649801242 -0.038457167243 0.047557457422 
-0.046490686773 -0.077569680053 0.064810390247 -0.050576469827 -0.057401152041 -0.035076653619 -0.050699879683 -0.078606651764 0.028388240571 
-0.1041665484 -0.22121399879 -0.039794516211 -0.086279901052 -0.18511039239 0.01837935236 -0.089927174478 -0.2246005937 0.10443059898 
-0.077411916536 -0.17569187232 0.073068416631 -0.048226754338 -0.097155979905 0.10817553834 -0.078496124751 -0.19318033401 0.11617019313 
-0.091688743845 -0.23211665885 0.11077095086 -0.099622011019 -0.20498773461 -0.046509409143 -0.071027288998 -0.15020672175 0.055440181763 
-0.094795819828 -0.189012384 -0.049811007709 -0.10067064217 -0.23206412666 0.026146893046 -0.044041770821 -0.047722829148 -0.0031211054809 
-0.10191212531 -0.22321763595 -0.012488135198 -0.037101999732 -0.018715088043 -0.02626425188 -0.082642737168 -0.17954886877 0.035633331245 
-0.086068155371 -0.1613058512 -0.052175631276 -0.10031832772 -0.22492169689 0.0076928749463 -0.070744164919 -0.1141311706 -0.051840434478 
-0.034601674925 -0.042828575973 0.070736035409 -0.064500012527 -0.10180498633 -0.03068669237 -0.095509229986 -0.2008999061 -0.020291621562 
-0.085127425825 -0.19980820349 0.074009723749 -0.083699210844 -0.16952827581 -0.0048400735208 -0.050163307637 -0.073542800899 0.018001575192 
-0.06173484665 -0.086675551369 -0.050791763678 -0.068948706829 -0.1541553978 0.087020648082 -0.033861920828 -0.039758438804 0.068336051195 
-0.092946416877 -0.1805240179 -0.058288553297 -0.033765533105 -0.042809239523 0.078540015244 -0.058435427548 -0.12407156863 0.044302328641 
-0.056454875888 -0.08822323782 0.040002921894 -0.055287451104 -0.068343039819 0.036867360317 -0.057658450159 -0.17203098299 0.012789550037 
-0.06109690989 -0.19401536218 0.0396107136 -0.055903746774 -0.14349893651 0.0074279195974 -0.053810219055 -0.10399239772 0.0036590916903 
-0.057443512132 -0.19925614534 -0.0026401816168 -0.053551449069 -0.044898612614 0.029262526345 -0.058576181954 -0.049617093467 0.081637374548 
-0.055499721904 -0.2004601946 -0.024357892783 -0.05401284971 -0.14781986349 -0.01521345144 -0.060587143566 -0.046376323268 0.10506501061 
-0.055627481038 -0.22393265093 -0.034256161325 -0.059321621903 -0.04265227238 0.093093332015 -0.054065109901 -0.1778124277 -0.029068218755 
-0.062007499671 -0.22070068306 0.036680688162 -0.058229062675 -0.043126592986 0.080983666997 -0.055126686258 -0.044935454556 0.046375496311 
-0.051581160913 -0.070465696659 -0.0044592666421 -0.052230301524 -0.050876979366 0.012020130303 -0.054719473713 -0.23627102125 -0.050064118277 
-0.054905937229 -0.16751051581 -0.014970154113 -0.064463743399 -0.20779362218 0.069599175813 -0.059071742066 -0.15056657168 0.038481084554 
-0.062627806887 -0.082765489844 0.10975804899 -0.06552992613 -0.1798392469 0.094636854639 -0.066282394664 -0.22214074697 0.082477612534 
-0.054173503108 -0.22307035779 -0.049653487742 -0.061488704514 -0.15626288487 0.062026229455 -0.053721762214 -0.20843920511 -0.047530203523 
-0.057665495529 -0.22129771035 -0.010825662337 -0.050211652958 -0.03172644618 -0.00072336824116 -0.055473227931 -0.22482335749 -0.036361993194 
-0.050922903633 -0.026733109586 0.0094127158998 -0.055719728026 -0.15660306169 -0.00087491281028 -0.053025428882 -0.18140366498 -0.042101724998 
-0.05801143799 -0.22969389459 -0.011101175165 -0.051952866781 -0.13321729128 -0.03059352545 -0.056460019691 -0.019748034773 0.072987837397 
-0.051230682369 -0.10366984649 -0.024238229631 -0.053771412262 -0.19940778662 -0.042647149366 -0.063600924422 -0.20085794662 0.063551319632 
-0.052958893965 -0.15656564991 -0.030880961513 -0.057279050926 -0.086887789065 0.049608018947 -0.051350763159 -0.10475126194 -0.023452393242 
-0.059433774204 -0.12502829233 0.05469925942 -0.056821487723 -0.021084457033 0.076276127356 -0.053307454305 -0.20398584174 -0.049894223639 
-0.060119917098 -0.038805413453 0.10362469576 
f 3 100 double
0 0 0 0 0 0 0 0 0 
0 0 0 0 0 0 0 0 0 
0 0 0 0 0 0 0.11176778146 -0.0096030294922 0.22435913306 
0 0 0 0 0 0 0 0 0 
0 0 0 0 0 0 0 0 0 
0 0 0 0 0 0 0 0 0 
0 0 0 0 0 0 0 0 0 
0 0 0 0 0 0 0 0 0 
0 0 0 0 0 0 0 0 0 
0 0 0 0 0 0 0 0 0 
0 0 0 0 0 0 0 0 0 
0 0 0 0.27444356595 -0.024221241889 0.27552823495 0 0 0 
0 0 0 0 0 0 0 0 0 
0 0 0 0 0 0 0 0 0 
0 0 0 0 0 0 0 0 0 
0 0 0 0 0 0 0 0 0 
0 0 0 0 0 0 0 0 0 
0 0 0 0 0 0 0 0 0 
0 0 0 0 0 0 0 0 0 
0 0 0 0 0 0 0 0 0 
0 0 0 0 0 0 0 0 0 
0 0 0 0 0 0 0 0 0 
0 0 0 0 0 0 0 0 0 
0 0 0 0 0 0 0 0 0 
0 0 0 0 0 0 0 0 0 
0 0 0 0 0 0 0 0 0 
0 0 0 0 0 0 0 0 0 
0 0 0 0 0 0 0 0 0 
0.10912644144 0.0068800700573 0.2186862189 0 0 0 0 0 0 
0 0 0 0 0 0 0 0 0 
0 0 0 0 0 0 0 0 0 
0 0 0 0 0 0 0 0 0 
0 0 0 0 0 0 0 0 0 
0 0 0 
radius 1 100 double
0.010434 0.00981478 0.00892069 0.00845937 0.00731974 0.00728422 0.00643447 0.00619172 0.00585956 
0.00577566 0.00537241 0.00522549 0.00513666 0.00473175 0.00466912 0.00444866 0.00441894 0.00400812 
0.00385622 0.00379948 0.00370243 0.00366942 0.00364039 0.00363813 0.00363644 0.00358692 0.0035797 
0.00341284 0.00337012 0.00336273 0.00332772 0.00323261 0.00320584 0.00320311 0.00318808 0.00313116 
0.00306026 0.00305632 0.00304383 0.00300958 0.00300137 0.00298994 0.0029567 0.00295111 0.00290849 
0.00284552 0.00282964 0.0028207 0.00281971 0.00281899 0.010434 0.00981478 0.00892069 0.00845937 
0.00731974 0.00728422 0.00643447 0.00619172 0.00585956 0.00577566 0.00537241 0.00522549 0.00513666 
0.00473175 0.00466912 0.00444866 0.00441894 0.00400812 0.00385622 0.00379948 0.00370243 0.00366942 
0.00364039 0.00363813 0.00363644 0.00358692 0.0035797 0.00341284 0.00337012 0.00336273 0.00332772 
0.00323261 0.00320584 0.00320311 0.00318808 0.00313116 0.00306026 0.00305632 0.00304383 0.00300958 
0.00300137 0.00298994 0.0029567 0.00295111 0.00290849 0.00284552 0.00282964 0.0028207 0.00281971 
0.00281899 
omega 3 100 double
6.5659128737 -2.1278775832 -0.69821922336 6.5659128737 -2.1278775832 -0.69821922336 6.5659128737 -2.1278775832 -0.69821922336 
6.5659128737 -2.1278775832 -0.69821922336 6.5659128737 -2.1278775832 -0.69821922336 6.5659128737 -2.1278775832 -0.69821922336 
6.5659128737 -2.1278775832 -0.69821922336 6.5659128737 -2.1278775832 -0.69821922336 6.5659128737 -2.1278775832 -0.69821922336 
6.5659128737 -2.1278775832 -0.69821922336 6.5659128737 -2.1278775832 -0.69821922336 6.5659128737 -2.1278775832 -0.69821922336 
6.5659128737 -2.1278775832 -0.69821922336 6.5659128737 -2.1278775832 -0.69821922336 6.5659128737 -2.1278775832 -0.69821922336 
6.5659128737 -2.1278775832 -0.69821922336 6.5659128737 -2.1278775832 -0.69821922336 6.5659128737 -2.1278775832 -0.69821922336 
6.5659128737 -2.1278775832 -0.69821922336 6.5659128737 -2.1278775832 -0.69821922336 6.5659128737 -2.1278775832 -0.69821922336 
6.5659128737 -2.1278775832 -0.69821922336 6.5659128737 -2.1278775832 -0.69821922336 6.5659128737 -2.1278775832 -0.69821922336 
6.5659128737 -2.1278775832 -0.69821922336 6.5659128737 -2.1278775832 -0.69821922336 6.5659128737 -2.1278775832 -0.69821922336 
6.5659128737 -2.1278775832 -0.69821922336 6.5659128737 -2.1278775832 -0.69821922336 6.5659128737 -2.1278775832 -0.69821922336 
6.5659128737 -2.1278775832 -0.69821922336 6.5659128737 -2.1278775832 -0.69821922336 6.5659128737 -2.1278775832 -0.69821922336 
6.5659128737 -2.1278775832 -0.69821922336 6.5659128737 -2.1278775832 -0.69821922336 6.5659128737 -2.1278775832 -0.69821922336 
6.5659128737 -2.1278775832 -0.69821922336 6.5659128737 -2.1278775832 -0.69821922336 6.5659128737 -2.1278775832 -0.69821922336 
6.5659128737 -2.1278775832 -0.69821922336 6.5659128737 -2.1278775832 -0.69821922336 6.5659128737 -2.1278775832 -0.69821922336 
6.5659128737 -2.1278775832 -0.69821922336 6.5659128737 -2.1278775832 -0.69821922336 6.5659128737 -2.1278775832 -0.69821922336 
6.5659128737 -2.1278775832 -0.69821922336 6.5659128737 -2.1278775832 -0.69821922336 6.5659128737 -2.1278775832 -0.69821922336 
6.5659128737 -2.1278775832 -0.69821922336 6.5659128737 -2.1278775832 -0.69821922336 7.6952229675 -0.34028068151 0.70760743548 
7.6952229675 -0.34028068151 0.70760743548 7.6952229675 -0.34028068151 0.70760743548 7.6952229675 -0.34028068151 0.70760743548 
7.6952229675 -0.34028068151 0.70760743548 7.6952229675 -0.34028068151 0.70760743548 7.6952229675 -0.34028068151 0.70760743548 
7.6952229675 -0.34028068151 0.70760743548 7.6952229675 -0.34028068151 0.70760743548 7.6952229675 -0.34028068151 0.70760743548 
7.6952229675 -0.34028068151 0.70760743548 7.6952229675 -0.34028068151 0.70760743548 7.6952229675 -0.34028068151 0.70760743548 
7.6952229675 -0.34028068151 0.70760743548 7.6952229675 -0.34028068151 0.70760743548 7.6952229675 -0.34028068151 0.70760743548 
7.6952229675 -0.34028068151 0.70760743548 7.6952229675 -0.34028068151 0.70760743548 7.6952229675 -0.34028068151 0.70760743548 
7.6952229675 -0.34028068151 0.70760743548 7.6952229675 -0.34028068151 0.70760743548 7.6952229675 -0.34028068151 0.70760743548 
7.6952229675 -0.34028068151 0.70760743548 7.6952229675 -0.34028068151 0.70760743548 7.6952229675 -0.34028068151 0.70760743548 
7.6952229675 -0.34028068151 0.70760743548 7.6952229675 -0.34028068151 0.70760743548 7.6952229675 -0.34028068151 0.70760743548 
7.6952229675 -0.34028068151 0.70760743548 7.6952229675 -0.34028068151 0.70760743548 7.6952229675 -0.34028068151 0.70760743548 
7.6952229675 -0.34028068151 0.70760743548 7.6952229675 -0.34028068151 0.70760743548 7.6952229675 -0.34028068151 0.70760743548 
7.6952229675 -0.34028068151 0.70760743548 7.6952229675 -0.34028068151 0.70760743548 7.6952229675 -0.34028068151 0.70760743548 
7.6952229675 -0.34028068151 0.70760743548 7.6952229675 -0.34028068151 0.70760743548 7.6952229675 -0.34028068151 0.70760743548 
7.6952229675 -0.34028068151 0.70760743548 7.6952229675 -0.34028068151 0.70760743548 7.6952229675 -0.34028068151 0.70760743548 
7.6952229675 -0.34028068151 0.70760743548 7.6952229675 -0.34028068151 0.70760743548 7.6952229675 -0.34028068151 0.70760743548 
7.6952229675 -0.34028068151 0.70760743548 7.6952229675 -0.34028068151 0.70760743548 7.6952229675 -0.34028068151 0.70760743548 
7.6952229675 -0.34028068151 0.70760743548 
