# vtk DataFile Version 4.1
Generated by LIGGGHTS
ASCII
DATASET POLYDATA
POINTS 100 float
-0.1082 -0.128819 0.0134595 -0.11852 -0.129693 0.0149034 -0.128026 -0.129728 0.018091 
-0.111029 -0.129788 0.0236609 -0.0988887 -0.127155 0.0179974 -0.119635 -0.130661 0.0251481 
-0.130811 -0.131534 0.0265704 -0.102443 -0.131493 0.0230021 -0.136654 -0.130611 0.0204343 
-0.115713 -0.12702 0.00557696 -0.113792 -0.132441 0.0312748 -0.124903 -0.132429 0.0301375 
-0.120895 -0.123612 0.00719731 -0.107798 -0.133299 0.0314168 -0.126119 -0.124505 0.0104835 
-0.119808 -0.133306 0.0319705 -0.103343 -0.125516 0.0247585 -0.135712 -0.124578 0.0170962 
-0.111388 -0.132142 0.00391631 -0.137662 -0.133246 0.0263788 -0.114065 -0.135615 0.00809557 
-0.110475 -0.134201 0.0356241 -0.100601 -0.134864 0.01787 -0.092808 -0.123692 0.0147609 
-0.0978593 -0.12965 0.0111405 -0.1158 -0.121918 0.00905833 -0.0996374 -0.121112 0.0137598 
-0.0945858 -0.12115 0.0173146 -0.114778 -0.13421 0.0363723 -0.117002 -0.123781 0.0227188 
-0.118203 -0.134209 0.0362858 -0.095571 -0.132342 0.0223093 -0.125327 -0.136525 0.0129431 
-0.103451 -0.134128 0.0289465 -0.141836 -0.133198 0.0219893 -0.0988017 -0.13397 0.0144974 
-0.12332 -0.134199 0.0352999 -0.104308 -0.130702 0.0289623 -0.130962 -0.134169 0.0325365 
-0.121708 -0.128732 0.00540699 -0.124752 -0.13579 0.024106 -0.105977 -0.135822 0.0271503 
-0.105848 -0.122917 0.0221528 -0.105804 -0.136604 0.0202906 -0.134172 -0.126366 0.0239711 
-0.135201 -0.13415 0.0307159 -0.0994856 -0.128756 0.00768147 -0.12432 -0.127894 0.00706412 
-0.121672 -0.134227 0.0379121 -0.130444 -0.12281 0.0121068 -0.0393464 -0.101039 0.0152119 
-0.0497026 -0.101924 0.0163533 -0.0592958 -0.101988 0.0192686 -0.0424638 -0.102102 0.0253192 
-0.0301677 -0.0994187 0.0200283 -0.0511092 -0.102988 0.0265526 -0.0623208 -0.103873 0.0276481 
-0.033863 -0.103803 0.0248889 -0.0679872 -0.102891 0.0213572 -0.046632 -0.0991648 0.00713603 
-0.0454425 -0.104827 0.0328261 -0.0565165 -0.104802 0.0313733 -0.051858 -0.0957706 0.00864024 
-0.0394543 -0.105687 0.0331305 -0.0571738 -0.0966934 0.0117679 -0.0514757 -0.105697 0.0333422 
-0.0348132 -0.0978423 0.026675 -0.0669509 -0.0968268 0.018104 -0.0422607 -0.104271 0.00555108 
-0.0691632 -0.105582 0.0272455 -0.0450551 -0.107782 0.00961967 -0.0422498 -0.106629 0.0372512 
-0.0318748 -0.107126 0.0197799 -0.0239977 -0.095927 0.0169988 -0.0289434 -0.101849 0.0131804 
-0.0468183 -0.0940956 0.0106613 -0.0307961 -0.093336 0.0158281 -0.0258477 -0.0934087 0.0195247 
-0.0465728 -0.106643 0.0378766 -0.0484084 -0.0960862 0.024264 -0.0499944 -0.106641 0.0376927 
-0.0269735 -0.104646 0.024384 -0.0564505 -0.108736 0.0141361 -0.0350389 -0.106494 0.0307772 
-0.0732103 -0.105492 0.0227397 -0.0299806 -0.106201 0.0164684 -0.0550808 -0.106621 0.0365618 
-0.035896 -0.103067 0.0308008 -0.0626414 -0.106564 0.0335824 -0.052619 -0.100874 0.00677949 
-0.0561931 -0.108107 0.0253172 -0.0375124 -0.10817 0.0288941 -0.0372427 -0.0952192 0.0240237 
-0.0371442 -0.108888 0.022035 -0.065607 -0.0986799 0.0250029 -0.0668264 -0.106526 0.0316422 
-0.0304707 -0.100922 0.00968502 -0.0552775 -0.100051 0.00836942 -0.0535078 -0.106674 0.0392194 
-0.0615435 -0.0950127 0.0132833 
VERTICES 100 200
1 0 
1 1 
1 2 
1 3 
1 4 
1 5 
1 6 
1 7 
1 8 
1 9 
1 10 
1 11 
1 12 
1 13 
1 14 
1 15 
1 16 
1 17 
1 18 
1 19 
1 20 
1 21 
1 22 
1 23 
1 24 
1 25 
1 26 
1 27 
1 28 
1 29 
1 30 
1 31 
1 32 
1 33 
1 34 
1 35 
1 36 
1 37 
1 38 
1 39 
1 40 
1 41 
1 42 
1 43 
1 44 
1 45 
1 46 
1 47 
1 48 
1 49 
1 50 
1 51 
1 52 
1 53 
1 54 
1 55 
1 56 
1 57 
1 58 
1 59 
1 60 
1 61 
1 62 
1 63 
1 64 
1 65 
1 66 
1 67 
1 68 
1 69 
1 70 
1 71 
1 72 
1 73 
1 74 
1 75 
1 76 
1 77 
1 78 
1 79 
1 80 
1 81 
1 82 
1 83 
1 84 
1 85 
1 86 
1 87 
1 88 
1 89 
1 90 
1 91 
1 92 
1 93 
1 94 
1 95 
1 96 
1 97 
1 98 
1 99 

POINT_DATA 100
FIELD FieldData 7
id 1 100 int
1 2 3 4 5 6 7 8 9 
10 11 12 13 14 15 16 17 18 
19 20 21 22 23 24 25 26 27 
28 29 30 31 32 33 34 35 36 
37 38 39 40 41 42 43 44 45 
46 47 48 49 50 51 52 53 54 
55 56 57 58 59 60 61 62 63 
64 65 66 67 68 69 70 71 72 
73 74 75 76 77 78 79 80 81 
82 83 84 85 86 87 88 89 90 
91 92 93 94 95 96 97 98 99 
100 
mol 1 100 int
1 1 1 1 1 1 1 1 1 
1 1 1 1 1 1 1 1 1 
1 1 1 1 1 1 1 1 1 
1 1 1 1 1 1 1 1 1 
1 1 1 1 1 1 1 1 1 
1 1 1 1 1 2 2 2 2 
2 2 2 2 2 2 2 2 2 
2 2 2 2 2 2 2 2 2 
2 2 2 2 2 2 2 2 2 
2 2 2 2 2 2 2 2 2 
2 2 2 2 2 2 2 2 2 
2 
type 1 100 int
1 1 1 1 1 1 1 1 1 
1 1 1 1 1 1 1 1 1 
1 1 1 1 1 1 1 1 1 
1 1 1 1 1 1 1 1 1 
1 1 1 1 1 1 1 1 1 
1 1 1 1 1 1 1 1 1 
1 1 1 1 1 1 1 1 1 
1 1 1 1 1 1 1 1 1 
1 1 1 1 1 1 1 1 1 
1 1 1 1 1 1 1 1 1 
1 1 1 1 1 1 1 1 1 
1 
v 3 100 double
-0.10236359623 -0.054990531947 0.48802730122 -0.11211461144 -0.058761768492 0.41605626976 -0.13346715508 -0.068310678191 0.35227021416 
-0.17077813159 -0.088093353372 0.46591759562 -0.13260330763 -0.070689638273 0.55583756978 -0.18081933213 -0.092164099663 0.40541667493 
-0.19042558216 -0.095785733808 0.32771004692 -0.16652241462 -0.08672966097 0.51784092869 -0.14924354443 -0.075179513904 0.29159339958 
-0.049403601161 -0.028518659062 0.44359273603 -0.22201766227 -0.11273973018 0.43873177749 -0.21439933091 -0.10799633364 0.36435274981 
-0.059941991302 -0.03334047816 0.42003581791 -0.22304724711 -0.11375627564 0.4760757154 -0.082033934648 -0.043606423221 0.38212355676 
-0.22675658358 -0.11446048594 0.39561124736 -0.17773525928 -0.092390957195 0.53136213721 -0.12632997786 -0.064349065475 0.31763645476 
-0.038753127867 -0.023486123242 0.45581220376 -0.18930016815 -0.094527879604 0.27622828671 -0.067064199616 -0.036907577986 0.42652669682 
-0.25130934555 -0.12726943692 0.45519377212 -0.13246057969 -0.070115305328 0.51915923545 -0.11060718969 -0.060664999173 0.60788758472 
-0.086908651904 -0.048359391675 0.55457197665 -0.072250319765 -0.039896353985 0.45969737108 -0.10366436637 -0.056761586788 0.57058614494 
-0.12747704157 -0.068853159318 0.60429432432 -0.25632144021 -0.12931991627 0.42634313999 -0.16391482662 -0.084461819552 0.44555475378 
-0.25574242718 -0.12872156477 0.40340328543 -0.16196087468 -0.085097358472 0.56109500739 -0.099615300256 -0.051723610292 0.34811945011 
-0.20657904341 -0.10607803191 0.50247601667 -0.15989636161 -0.079787451769 0.24842994762 -0.10978960585 -0.059250992372 0.53413107065 
-0.24913802556 -0.12502559695 0.36916848065 -0.20636904642 -0.1060507267 0.50794441799 -0.23062695999 -0.11528368826 0.31807993117 
-0.04842294052 -0.027410390076 0.3978457425 -0.1743121074 -0.088284361684 0.35437610636 -0.194704978 -0.099970925861 0.48001968528 
-0.16004445078 -0.083638616165 0.52308597188 -0.14883295761 -0.077552243815 0.47862124578 -0.17254043234 -0.086975203244 0.32210189983 
-0.21843145068 -0.10893888959 0.28975590396 -0.063658682685 -0.036896743251 0.54660449598 -0.059444516386 -0.032589258286 0.38309125213 
-0.266635831 -0.13372040361 0.38011278677 -0.092749974953 -0.048516824478 0.35870001554 -0.097677759206 -0.057905640869 0.39313206806 
-0.10549364482 -0.060536316181 0.3201776269 -0.12548672225 -0.067024790741 0.25424660708 -0.1669808515 -0.079988271793 0.36943342927 
-0.13073200813 -0.068282790611 0.45961425186 -0.17542789261 -0.082796220379 0.3082097782 -0.18292851523 -0.085338360118 0.22938944842 
-0.16400637513 -0.078932224596 0.42471025527 -0.13979785542 -0.071697969292 0.19266923151 -0.042317620051 -0.040395087019 0.34725273281 
-0.21842753198 -0.096398674426 0.34306462763 -0.20846406607 -0.093382163523 0.26716924527 -0.052680208801 -0.043746681084 0.31881338716 
-0.22050315727 -0.096980431451 0.38225704191 -0.074117754492 -0.050639638952 0.28034396978 -0.22195477563 -0.097606528936 0.2997902025 
-0.17633768751 -0.082840107996 0.43119211996 -0.11757008231 -0.064589944775 0.2130005574 -0.031377863661 -0.036879124645 0.36609670499 
-0.18014469748 -0.084554294239 0.17873748306 -0.059233015083 -0.045789357423 0.33927580663 -0.24875124205 -0.1060044361 0.36103112966 
-0.12892266986 -0.067764392834 0.43110108276 -0.1100026506 -0.061592140415 0.50954312691 -0.083734413625 -0.053333438443 0.46271032805 
-0.066563891022 -0.048084832029 0.35702875052 -0.10200897462 -0.059132259165 0.46856831307 -0.1273602559 -0.067125456246 0.50234705964 
-0.2530398779 -0.10742725514 0.33135102655 -0.1598263464 -0.077768624365 0.34178275906 -0.25177896079 -0.10707315093 0.30788987447 
-0.16053241219 -0.077737048491 0.47012095766 -0.090194283183 -0.055793771208 0.25904348112 -0.20435322823 -0.091788552643 0.41077871222 
-0.14924381171 -0.074784159452 0.15117672896 -0.10622417485 -0.060517321753 0.44610872868 -0.24402275689 -0.10467653241 0.27305095351 
-0.20456192523 -0.09185173008 0.41237198099 -0.22359058841 -0.098283211633 0.22132302222 -0.039849022092 -0.039699544461 0.30246591239 
-0.166885074 -0.080171817449 0.26218230388 -0.19141525069 -0.08771598465 0.39015949294 -0.15819052903 -0.077091940339 0.42024987403 
-0.1443644138 -0.072753964855 0.39111999832 -0.16485841245 -0.079615233209 0.21817635886 -0.21028483154 -0.094109669877 0.19270305229 
-0.059775032184 -0.045732271719 0.45425741951 -0.050764355088 -0.043202939489 0.28602847883 -0.26224834802 -0.11045017858 0.28372238218 
-0.084533890168 -0.054003996318 0.25404077607 
f 3 100 double
0 0 0 0 0 0 0 0 0 
0 0 0 0 0 0 0 0 0 
0 0 0 0 0 0 0 0 0 
0.44393629343 0.048535037378 -5.4367737305 0 0 0 0 0 0 
0 0 0 0 0 0 0 0 0 
0 0 0 0 0 0 0 0 0 
0 0 0 0 0 0 0 0 0 
0 0 0 0 0 0 0 0 0 
0 0 0 0 0 0 0 0 0 
0 0 0 0 0 0 0 0 0 
0 0 0 0 0 0 0 0 0 
0 0 0 0 0 0 0 0 0 
0 0 0 0 0 0 0 0 0 
0 0 0 0 0 0 0 0 0 
0 0 0 0 0 0 0 0 0 
0 0 0 0 0 0 0 0 0 
0 0 0 0 0 0 0 0 0 
0 0 0 0 0 0 0 0 0 
0 0 0 0 0 0 0 0 0 
0 0 0 0 0 0 0 0 0 
0 0 0 0 0 0 0 0 0 
0 0 0 0 0 0 0 0 0 
0 0 0 0 0 0 0 0 0 
0 0 0 0 0 0 0 0 0 
0 0 0 0 0 0 0 0 0 
0 0 0 0 0 0 0 0 0 
0 0 0 0 0 0 0 0 0 
0 0 0 0 0 0 0 0 0 
0 0 0 0 0 0 0 0 0 
0 0 0 0 0 0 0 0 0 
0 0 0 0 0 0 0 0 0 
0 0 0 0 0 0 0 0 0 
0 0 0 0 0 0 0 0 0 
0 0 0 
radius 1 100 double
0.010434 0.00981478 0.00892069 0.00845937 0.00731974 0.00728422 0.00643447 0.00619172 0.00585956 
0.00577566 0.00537241 0.00522549 0.00513666 0.00473175 0.00466912 0.00444866 0.00441894 0.00400812 
0.00385622 0.00379948 0.00370243 0.00366942 0.00364039 0.00363813 0.00363644 0.00358692 0.0035797 
0.00341284 0.00337012 0.00336273 0.00332772 0.00323261 0.00320584 0.00320311 0.00318808 0.00313116 
0.00306026 0.00305632 0.00304383 0.00300958 0.00300137 0.00298994 0.0029567 0.00295111 0.00290849 
0.00284552 0.00282964 0.0028207 0.00281971 0.00281899 0.010434 0.00981478 0.00892069 0.00845937 
0.00731974 0.00728422 0.00643447 0.00619172 0.00585956 0.00577566 0.00537241 0.00522549 0.00513666 
0.00473175 0.00466912 0.00444866 0.00441894 0.00400812 0.00385622 0.00379948 0.00370243 0.00366942 
0.00364039 0.00363813 0.00363644 0.00358692 0.0035797 0.00341284 0.00337012 0.00336273 0.00332772 
0.00323261 0.00320584 0.00320311 0.00318808 0.00313116 0.00306026 0.00305632 0.00304383 0.00300958 
0.00300137 0.00298994 0.0029567 0.00295111 0.00290849 0.00284552 0.00282964 0.0028207 0.00281971 
0.00281899 
omega 3 100 double
3.2704666531 -6.6976184254 -0.092149112584 3.2704666531 -6.6976184254 -0.092149112584 3.2704666531 -6.6976184254 -0.092149112584 
3.2704666531 -6.6976184254 -0.092149112584 3.2704666531 -6.6976184254 -0.092149112584 3.2704666531 -6.6976184254 -0.092149112584 
3.2704666531 -6.6976184254 -0.092149112584 3.2704666531 -6.6976184254 -0.092149112584 3.2704666531 -6.6976184254 -0.092149112584 
3.2704666531 -6.6976184254 -0.092149112584 3.2704666531 -6.6976184254 -0.092149112584 3.2704666531 -6.6976184254 -0.092149112584 
3.2704666531 -6.6976184254 -0.092149112584 3.2704666531 -6.6976184254 -0.092149112584 3.2704666531 -6.6976184254 -0.092149112584 
3.2704666531 -6.6976184254 -0.092149112584 3.2704666531 -6.6976184254 -0.092149112584 3.2704666531 -6.6976184254 -0.092149112584 
3.2704666531 -6.6976184254 -0.092149112584 3.2704666531 -6.6976184254 -0.092149112584 3.2704666531 -6.6976184254 -0.092149112584 
3.2704666531 -6.6976184254 -0.092149112584 3.2704666531 -6.6976184254 -0.092149112584 3.2704666531 -6.6976184254 -0.092149112584 
3.2704666531 -6.6976184254 -0.092149112584 3.2704666531 -6.6976184254 -0.092149112584 3.2704666531 -6.6976184254 -0.092149112584 
3.2704666531 -6.6976184254 -0.092149112584 3.2704666531 -6.6976184254 -0.092149112584 3.2704666531 -6.6976184254 -0.092149112584 
3.2704666531 -6.6976184254 -0.092149112584 3.2704666531 -6.6976184254 -0.092149112584 3.2704666531 -6.6976184254 -0.092149112584 
3.2704666531 -6.6976184254 -0.092149112584 3.2704666531 -6.6976184254 -0.092149112584 3.2704666531 -6.6976184254 -0.092149112584 
3.2704666531 -6.6976184254 -0.092149112584 3.2704666531 -6.6976184254 -0.092149112584 3.2704666531 -6.6976184254 -0.092149112584 
3.2704666531 -6.6976184254 -0.092149112584 3.2704666531 -6.6976184254 -0.092149112584 3.2704666531 -6.6976184254 -0.092149112584 
3.2704666531 -6.6976184254 -0.092149112584 3.2704666531 -6.6976184254 -0.092149112584 3.2704666531 -6.6976184254 -0.092149112584 
3.2704666531 -6.6976184254 -0.092149112584 3.2704666531 -6.6976184254 -0.092149112584 3.2704666531 -6.6976184254 -0.092149112584 
3.2704666531 -6.6976184254 -0.092149112584 3.2704666531 -6.6976184254 -0.092149112584 2.180603021 -6.8581877434 0.013684175803 
2.180603021 -6.8581877434 0.013684175803 2.180603021 -6.8581877434 0.013684175803 2.180603021 -6.8581877434 0.013684175803 
2.180603021 -6.8581877434 0.013684175803 2.180603021 -6.8581877434 0.013684175803 2.180603021 -6.8581877434 0.013684175803 
2.180603021 -6.8581877434 0.013684175803 2.180603021 -6.8581877434 0.013684175803 2.180603021 -6.8581877434 0.013684175803 
2.180603021 -6.8581877434 0.013684175803 2.180603021 -6.8581877434 0.013684175803 2.180603021 -6.8581877434 0.013684175803 
2.180603021 -6.8581877434 0.013684175803 2.180603021 -6.8581877434 0.013684175803 2.180603021 -6.8581877434 0.013684175803 
2.180603021 -6.8581877434 0.013684175803 2.180603021 -6.8581877434 0.013684175803 2.180603021 -6.8581877434 0.013684175803 
2.180603021 -6.8581877434 0.013684175803 2.180603021 -6.8581877434 0.013684175803 2.180603021 -6.8581877434 0.013684175803 
2.180603021 -6.8581877434 0.013684175803 2.180603021 -6.8581877434 0.013684175803 2.180603021 -6.8581877434 0.013684175803 
2.180603021 -6.8581877434 0.013684175803 2.180603021 -6.8581877434 0.013684175803 2.180603021 -6.8581877434 0.013684175803 
2.180603021 -6.8581877434 0.013684175803 2.180603021 -6.8581877434 0.013684175803 2.180603021 -6.8581877434 0.013684175803 
2.180603021 -6.8581877434 0.013684175803 2.180603021 -6.8581877434 0.013684175803 2.180603021 -6.8581877434 0.013684175803 
2.180603021 -6.8581877434 0.013684175803 2.180603021 -6.8581877434 0.013684175803 2.180603021 -6.8581877434 0.013684175803 
2.180603021 -6.8581877434 0.013684175803 2.180603021 -6.8581877434 0.013684175803 2.180603021 -6.8581877434 0.013684175803 
2.180603021 -6.8581877434 0.013684175803 2.180603021 -6.8581877434 0.013684175803 2.180603021 -6.8581877434 0.013684175803 
2.180603021 -6.8581877434 0.013684175803 2.180603021 -6.8581877434 0.013684175803 2.180603021 -6.8581877434 0.013684175803 
2.180603021 -6.8581877434 0.013684175803 2.180603021 -6.8581877434 0.013684175803 2.180603021 -6.8581877434 0.013684175803 
2.180603021 -6.8581877434 0.013684175803 
