# vtk DataFile Version 4.1
Generated by LIGGGHTS
ASCII
DATASET POLYDATA
POINTS 100 float
-0.117719 -0.144545 0.013659 -0.127538 -0.142108 0.011014 -0.137362 -0.140198 0.0104003 
-0.125081 -0.149377 0.0196139 -0.111488 -0.148997 0.0208305 -0.13342 -0.1476 0.0175243 
-0.143978 -0.144834 0.0146015 -0.117451 -0.153573 0.0207136 -0.14612 -0.138851 0.0089206 
-0.120405 -0.13638 0.00673598 -0.131373 -0.154246 0.0226718 -0.140575 -0.149526 0.0184522 
-0.125304 -0.132606 0.00842376 -0.126288 -0.157219 0.024082 -0.131523 -0.133009 0.00866487 
-0.137071 -0.153029 0.0208049 -0.118362 -0.149459 0.0253898 -0.143028 -0.132818 0.0104915 
-0.116437 -0.141151 0.00370376 -0.150091 -0.143521 0.0113135 -0.121143 -0.144964 0.00378778 
-0.130706 -0.159042 0.0257662 -0.11383 -0.154308 0.0154748 -0.104243 -0.146934 0.0224672 
-0.107671 -0.147878 0.0146272 -0.121513 -0.134118 0.0123767 -0.109456 -0.141874 0.021236 
-0.106697 -0.145573 0.0253423 -0.134828 -0.157822 0.024988 -0.129172 -0.141993 0.0207939 
-0.137788 -0.156502 0.0238774 -0.111204 -0.156447 0.0217914 -0.133384 -0.143917 0.00330557 
-0.121421 -0.158243 0.0231066 -0.151689 -0.139722 0.00687478 -0.110572 -0.152585 0.014123 
-0.141809 -0.154092 0.0216013 -0.121779 -0.155259 0.0249624 -0.147209 -0.149833 0.0172721 
-0.125777 -0.135397 0.00372561 -0.138014 -0.149171 0.0120479 -0.122992 -0.15772 0.0199866 
-0.119034 -0.145189 0.0243267 -0.119724 -0.154945 0.0145724 -0.145103 -0.138243 0.0148609 
-0.150069 -0.147323 0.0146637 -0.107374 -0.144836 0.0121648 -0.128743 -0.134603 0.00464628 
-0.14159 -0.156042 0.023987 -0.135873 -0.130892 0.00956357 -0.0491286 -0.115555 0.0139061 
-0.0590493 -0.113709 0.0111653 -0.0689827 -0.112584 0.0103954 -0.0561951 -0.121547 0.0191174 
-0.0427242 -0.120142 0.0208348 -0.0645986 -0.120286 0.0169179 -0.0752779 -0.118148 0.0139065 
-0.0482587 -0.125172 0.0200781 -0.0777836 -0.111843 0.00874747 -0.0523335 -0.10701 0.00769935 
-0.0621164 -0.127205 0.0214801 -0.0715804 -0.12289 0.0174106 -0.0575863 -0.103845 0.00956651 
-0.0568296 -0.129861 0.0227775 -0.0637502 -0.104793 0.00955271 -0.0678468 -0.126297 0.0195407 
-0.0496487 -0.121625 0.0250888 -0.0752728 -0.105752 0.0109894 -0.0478858 -0.11111 0.00436785 
-0.0813931 -0.117042 0.010548 -0.0522412 -0.115297 0.00392692 -0.061115 -0.132206 0.0241272 
-0.0444509 -0.125085 0.0149218 -0.0357319 -0.117644 0.0229098 -0.0388572 -0.118107 0.0149014 
-0.0537829 -0.10541 0.0134873 -0.0413332 -0.112947 0.0219839 -0.038371 -0.116782 0.0258142 
-0.0653052 -0.131268 0.0233258 -0.0609448 -0.114685 0.0208496 -0.0683395 -0.130101 0.0222434 
-0.0418162 -0.1276 0.0210944 -0.0645096 -0.115245 0.00312228 -0.0518682 -0.130371 0.0218786 
-0.0831995 -0.112977 0.00643663 -0.0413214 -0.12297 0.0138532 -0.0724936 -0.127829 0.0200681 
-0.0525336 -0.127623 0.0239954 -0.0781288 -0.123639 0.0159776 -0.05769 -0.106195 0.00461137 
-0.0688925 -0.121698 0.0111614 -0.0533959 -0.129681 0.0187697 -0.0506627 -0.117344 0.0244126 
-0.0502408 -0.126126 0.0137595 -0.0769805 -0.111733 0.0147503 -0.0811271 -0.121137 0.0135213 
-0.0387618 -0.114825 0.0127504 -0.0607371 -0.105748 0.00549982 -0.0721683 -0.129976 0.0222643 
-0.0682911 -0.103148 0.0104968 
VERTICES 100 200
1 0 
1 1 
1 2 
1 3 
1 4 
1 5 
1 6 
1 7 
1 8 
1 9 
1 10 
1 11 
1 12 
1 13 
1 14 
1 15 
1 16 
1 17 
1 18 
1 19 
1 20 
1 21 
1 22 
1 23 
1 24 
1 25 
1 26 
1 27 
1 28 
1 29 
1 30 
1 31 
1 32 
1 33 
1 34 
1 35 
1 36 
1 37 
1 38 
1 39 
1 40 
1 41 
1 42 
1 43 
1 44 
1 45 
1 46 
1 47 
1 48 
1 49 
1 50 
1 51 
1 52 
1 53 
1 54 
1 55 
1 56 
1 57 
1 58 
1 59 
1 60 
1 61 
1 62 
1 63 
1 64 
1 65 
1 66 
1 67 
1 68 
1 69 
1 70 
1 71 
1 72 
1 73 
1 74 
1 75 
1 76 
1 77 
1 78 
1 79 
1 80 
1 81 
1 82 
1 83 
1 84 
1 85 
1 86 
1 87 
1 88 
1 89 
1 90 
1 91 
1 92 
1 93 
1 94 
1 95 
1 96 
1 97 
1 98 
1 99 

POINT_DATA 100
FIELD FieldData 7
id 1 100 int
1 2 3 4 5 6 7 8 9 
10 11 12 13 14 15 16 17 18 
19 20 21 22 23 24 25 26 27 
28 29 30 31 32 33 34 35 36 
37 38 39 40 41 42 43 44 45 
46 47 48 49 50 51 52 53 54 
55 56 57 58 59 60 61 62 63 
64 65 66 67 68 69 70 71 72 
73 74 75 76 77 78 79 80 81 
82 83 84 85 86 87 88 89 90 
91 92 93 94 95 96 97 98 99 
100 
mol 1 100 int
1 1 1 1 1 1 1 1 1 
1 1 1 1 1 1 1 1 1 
1 1 1 1 1 1 1 1 1 
1 1 1 1 1 1 1 1 1 
1 1 1 1 1 1 1 1 1 
1 1 1 1 1 2 2 2 2 
2 2 2 2 2 2 2 2 2 
2 2 2 2 2 2 2 2 2 
2 2 2 2 2 2 2 2 2 
2 2 2 2 2 2 2 2 2 
2 2 2 2 2 2 2 2 2 
2 
type 1 100 int
1 1 1 1 1 1 1 1 1 
1 1 1 1 1 1 1 1 1 
1 1 1 1 1 1 1 1 1 
1 1 1 1 1 1 1 1 1 
1 1 1 1 1 1 1 1 1 
1 1 1 1 1 1 1 1 1 
1 1 1 1 1 1 1 1 1 
1 1 1 1 1 1 1 1 1 
1 1 1 1 1 1 1 1 1 
1 1 1 1 1 1 1 1 1 
1 1 1 1 1 1 1 1 1 
1 
v 3 100 double
0.059084687288 -0.13783979064 -0.0059205704246 0.050145476923 -0.10104556883 0.061156566621 0.048985041464 -0.087382024745 0.12226070324 
0.079654314138 -0.20065750073 -0.031458663599 0.084785177235 -0.2237473948 -0.081579770843 0.072491197726 -0.17119396681 0.022172109507 
0.062663832938 -0.13073414601 0.095972131096 0.081207949944 -0.21836601503 -0.10981958978 0.043973231247 -0.064579806246 0.17268149512 
0.036902046106 -0.057170070477 0.097829069747 0.088594574287 -0.23120842535 -0.061709108159 0.074899271997 -0.17690038765 0.028896334359 
0.046226298852 -0.073063459171 0.16043330499 0.092223129271 -0.25072390449 -0.11594036421 0.046918294222 -0.071584634672 0.18075246577 
0.081943449551 -0.20607671663 -0.025034986643 0.1027332744 -0.27100263192 -0.059311276491 0.054364492547 -0.084571131985 0.22901211739 
0.021515430582 -0.025332239904 0.027602645388 0.050385871345 -0.089135064985 0.13540813148 0.019261448752 -0.023092205846 0.0030245189408 
0.0977306819 -0.26690285233 -0.11900139064 0.059724889159 -0.16116158699 -0.13268861087 0.092742628145 -0.24730987895 -0.087103351529 
0.060697913329 -0.15569219409 -0.084130887733 0.061032083333 -0.12065877835 0.12802024996 0.091248846812 -0.22974624442 -0.0085932273116 
0.10518338409 -0.27838666992 -0.061773244631 0.095442475464 -0.25524005256 -0.088598710033 0.089397020318 -0.21131680701 0.069019349463 
0.091890651972 -0.24058008683 -0.061708186506 0.083572814417 -0.23488397205 -0.16756213439 0.018041292679 -0.0092842815022 0.063978756468 
0.087620621139 -0.24292140212 -0.14709318885 0.035187571888 -0.037496874557 0.18507709041 0.055481057244 -0.14798023294 -0.12611621214 
0.084411214234 -0.21192744606 -0.018160946435 0.097081205481 -0.26381428948 -0.11167947839 0.069964434092 -0.15895441757 0.051976097335 
0.025511884195 -0.019235601139 0.13054205983 0.049488596966 -0.10570328457 0.022684029816 0.075478881199 -0.20632152255 -0.134847804 
0.10137594517 -0.25843889106 -0.0079919857083 0.055678011415 -0.14688057305 -0.11633119885 0.068179687882 -0.13292315972 0.17553182755 
0.061221379298 -0.12730461085 0.092011180328 0.052902240774 -0.12785101547 -0.050669085184 0.029738816168 -0.027706012615 0.15146102877 
0.092642381009 -0.23924585542 -0.041240162619 0.051956236171 -0.07886422443 0.22228770932 0.10566588727 -0.12146201687 -0.11086711519 
0.087176844139 -0.091354584617 -0.023670233855 0.082535774648 -0.076388902999 0.058083063072 0.13855982729 -0.15509553064 -0.10493974078 
0.1524774094 -0.18056731795 -0.19327230015 0.1235223828 -0.13053128873 -0.033395855688 0.10330730207 -0.097652003095 0.061627598668 
0.14232821935 -0.1697092888 -0.19121704198 0.07108281835 -0.055703627892 0.12854445153 0.067771564386 -0.070821825571 -0.021581604649 
0.15079515621 -0.16786910289 -0.10486147676 0.12477618114 -0.12796087887 -0.0020388299089 0.084394190681 -0.080394171682 0.041406955166 
0.15792320685 -0.18265862835 -0.16419405057 0.083429515392 -0.074674771366 0.07948062143 0.13734922142 -0.14773896445 -0.055712549032 
0.18243355133 -0.20696933896 -0.15371087455 0.093128858438 -0.075228030379 0.15689986288 0.03951994213 -0.049257185431 -0.085842731887 
0.079598903575 -0.066260181073 0.11513734948 0.032462536933 -0.04190072986 -0.085980089719 0.16572066388 -0.18913336828 -0.15068343177 
0.10446197602 -0.13353182934 -0.21856729538 0.17002250787 -0.20288905776 -0.22552285448 0.11066671264 -0.13846906847 -0.20607928694 
0.11182222261 -0.11400344363 0.0013823791746 0.16748699569 -0.19066920803 -0.14818162323 0.19218159739 -0.22281671557 -0.19947167589 
0.16067732433 -0.17915585919 -0.11263569061 0.1575560939 -0.16408812882 -0.017225966469 0.15377470313 -0.16807027732 -0.081331289556 
0.1475968447 -0.18339047178 -0.25729198919 0.026588846809 -0.024541517159 0.0047084166732 0.15084436501 -0.18026593904 -0.20462441811 
0.053044738214 -0.033004147817 0.15968534107 0.098524002077 -0.12816548572 -0.22533548766 0.13983558259 -0.14756203185 -0.033290785828 
0.16892484807 -0.19593554189 -0.17859911151 0.11354905267 -0.11097996792 0.040394350674 0.045788522099 -0.042201113744 0.024101826024 
0.079873438466 -0.082360755815 -0.01265298063 0.12859363835 -0.15497120348 -0.18807810575 0.18135608924 -0.2008469639 -0.11333302551 
0.094960510286 -0.1193222868 -0.18395993355 0.11535834574 -0.10258861634 0.1234801643 0.097750650488 -0.089363649675 0.081691514291 
0.097826087744 -0.12201725122 -0.18154420421 0.052733924442 -0.046257240428 0.049963403962 0.15404267652 -0.16474457015 -0.052193905687 
0.091874710645 -0.077798074088 0.12554284562 
f 3 100 double
0 0 0 0 0 0 0 0 0 
0 0 0 0 0 0 0 0 0 
0 0 0 0 0 0 0 0 0 
0 0 0 0 0 0 0 0 0 
0 0 0 0 0 0 0 0 0 
0 0 0 0 0 0 0 0 0 
-0.27038981911 -0.12808727266 0.59838784645 0 0 0 0 0 0 
0 0 0 0 0 0 0 0 0 
0 0 0 0 0 0 0 0 0 
0 0 0 0 0 0 0 0 0 
0 0 0 0 0 0 0 0 0 
0 0 0 0 0 0 0 0 0 
0 0 0 0 0 0 0 0 0 
0 0 0 0 0 0 0 0 0 
0 0 0 0 0 0 0 0 0 
0 0 0 0 0 0 0 0 0 
0 0 0 0 0 0 0 0 0 
0 0 0 0 0 0 0 0 0 
0 0 0 0 0 0 0 0 0 
0 0 0 0 0 0 0 0 0 
0 0 0 0 0 0 0 0 0 
0 0 0 0 0 0 0 0 0 
0 0 0 0 0 0 0 0 0 
0 0 0 0 0 0 0 0 0 
0 0 0 0 0 0 0 0 0 
0 0 0 0 0 0 0 0 0 
0 0 0 0 0 0 0 0 0 
0 0 0 0.052463876651 -0.017360295418 0.30823968585 0 0 0 
0 0 0 0 0 0 0 0 0 
0 0 0 0 0 0 0 0 0 
0 0 0 0 0 0 0 0 0 
0 0 0 0 0 0 0 0 0 
0 0 0 0 0 0 0 0 0 
0 0 0 
radius 1 100 double
0.010434 0.00981478 0.00892069 0.00845937 0.00731974 0.00728422 0.00643447 0.00619172 0.00585956 
0.00577566 0.00537241 0.00522549 0.00513666 0.00473175 0.00466912 0.00444866 0.00441894 0.00400812 
0.00385622 0.00379948 0.00370243 0.00366942 0.00364039 0.00363813 0.00363644 0.00358692 0.0035797 
0.00341284 0.00337012 0.00336273 0.00332772 0.00323261 0.00320584 0.00320311 0.00318808 0.00313116 
0.00306026 0.00305632 0.00304383 0.00300958 0.00300137 0.00298994 0.0029567 0.00295111 0.00290849 
0.00284552 0.00282964 0.0028207 0.00281971 0.00281899 0.010434 0.00981478 0.00892069 0.00845937 
0.00731974 0.00728422 0.00643447 0.00619172 0.00585956 0.00577566 0.00537241 0.00522549 0.00513666 
0.00473175 0.00466912 0.00444866 0.00441894 0.00400812 0.00385622 0.00379948 0.00370243 0.00366942 
0.00364039 0.00363813 0.00363644 0.00358692 0.0035797 0.00341284 0.00337012 0.00336273 0.00332772 
0.00323261 0.00320584 0.00320311 0.00318808 0.00313116 0.00306026 0.00305632 0.00304383 0.00300958 
0.00300137 0.00298994 0.0029567 0.00295111 0.00290849 0.00284552 0.00282964 0.0028207 0.00281971 
0.00281899 
omega 3 100 double
11.388820701 4.0054596159 -0.67937761634 11.388820701 4.0054596159 -0.67937761634 11.388820701 4.0054596159 -0.67937761634 
11.388820701 4.0054596159 -0.67937761634 11.388820701 4.0054596159 -0.67937761634 11.388820701 4.0054596159 -0.67937761634 
11.388820701 4.0054596159 -0.67937761634 11.388820701 4.0054596159 -0.67937761634 11.388820701 4.0054596159 -0.67937761634 
11.388820701 4.0054596159 -0.67937761634 11.388820701 4.0054596159 -0.67937761634 11.388820701 4.0054596159 -0.67937761634 
11.388820701 4.0054596159 -0.67937761634 11.388820701 4.0054596159 -0.67937761634 11.388820701 4.0054596159 -0.67937761634 
11.388820701 4.0054596159 -0.67937761634 11.388820701 4.0054596159 -0.67937761634 11.388820701 4.0054596159 -0.67937761634 
11.388820701 4.0054596159 -0.67937761634 11.388820701 4.0054596159 -0.67937761634 11.388820701 4.0054596159 -0.67937761634 
11.388820701 4.0054596159 -0.67937761634 11.388820701 4.0054596159 -0.67937761634 11.388820701 4.0054596159 -0.67937761634 
11.388820701 4.0054596159 -0.67937761634 11.388820701 4.0054596159 -0.67937761634 11.388820701 4.0054596159 -0.67937761634 
11.388820701 4.0054596159 -0.67937761634 11.388820701 4.0054596159 -0.67937761634 11.388820701 4.0054596159 -0.67937761634 
11.388820701 4.0054596159 -0.67937761634 11.388820701 4.0054596159 -0.67937761634 11.388820701 4.0054596159 -0.67937761634 
11.388820701 4.0054596159 -0.67937761634 11.388820701 4.0054596159 -0.67937761634 11.388820701 4.0054596159 -0.67937761634 
11.388820701 4.0054596159 -0.67937761634 11.388820701 4.0054596159 -0.67937761634 11.388820701 4.0054596159 -0.67937761634 
11.388820701 4.0054596159 -0.67937761634 11.388820701 4.0054596159 -0.67937761634 11.388820701 4.0054596159 -0.67937761634 
11.388820701 4.0054596159 -0.67937761634 11.388820701 4.0054596159 -0.67937761634 11.388820701 4.0054596159 -0.67937761634 
11.388820701 4.0054596159 -0.67937761634 11.388820701 4.0054596159 -0.67937761634 11.388820701 4.0054596159 -0.67937761634 
11.388820701 4.0054596159 -0.67937761634 11.388820701 4.0054596159 -0.67937761634 7.6887138933 7.3591528146 -0.91067743236 
7.6887138933 7.3591528146 -0.91067743236 7.6887138933 7.3591528146 -0.91067743236 7.6887138933 7.3591528146 -0.91067743236 
7.6887138933 7.3591528146 -0.91067743236 7.6887138933 7.3591528146 -0.91067743236 7.6887138933 7.3591528146 -0.91067743236 
7.6887138933 7.3591528146 -0.91067743236 7.6887138933 7.3591528146 -0.91067743236 7.6887138933 7.3591528146 -0.91067743236 
7.6887138933 7.3591528146 -0.91067743236 7.6887138933 7.3591528146 -0.91067743236 7.6887138933 7.3591528146 -0.91067743236 
7.6887138933 7.3591528146 -0.91067743236 7.6887138933 7.3591528146 -0.91067743236 7.6887138933 7.3591528146 -0.91067743236 
7.6887138933 7.3591528146 -0.91067743236 7.6887138933 7.3591528146 -0.91067743236 7.6887138933 7.3591528146 -0.91067743236 
7.6887138933 7.3591528146 -0.91067743236 7.6887138933 7.3591528146 -0.91067743236 7.6887138933 7.3591528146 -0.91067743236 
7.6887138933 7.3591528146 -0.91067743236 7.6887138933 7.3591528146 -0.91067743236 7.6887138933 7.3591528146 -0.91067743236 
7.6887138933 7.3591528146 -0.91067743236 7.6887138933 7.3591528146 -0.91067743236 7.6887138933 7.3591528146 -0.91067743236 
7.6887138933 7.3591528146 -0.91067743236 7.6887138933 7.3591528146 -0.91067743236 7.6887138933 7.3591528146 -0.91067743236 
7.6887138933 7.3591528146 -0.91067743236 7.6887138933 7.3591528146 -0.91067743236 7.6887138933 7.3591528146 -0.91067743236 
7.6887138933 7.3591528146 -0.91067743236 7.6887138933 7.3591528146 -0.91067743236 7.6887138933 7.3591528146 -0.91067743236 
7.6887138933 7.3591528146 -0.91067743236 7.6887138933 7.3591528146 -0.91067743236 7.6887138933 7.3591528146 -0.91067743236 
7.6887138933 7.3591528146 -0.91067743236 7.6887138933 7.3591528146 -0.91067743236 7.6887138933 7.3591528146 -0.91067743236 
7.6887138933 7.3591528146 -0.91067743236 7.6887138933 7.3591528146 -0.91067743236 7.6887138933 7.3591528146 -0.91067743236 
7.6887138933 7.3591528146 -0.91067743236 7.6887138933 7.3591528146 -0.91067743236 7.6887138933 7.3591528146 -0.91067743236 
7.6887138933 7.3591528146 -0.91067743236 
