# vtk DataFile Version 4.1
Generated by LIGGGHTS
ASCII
DATASET POLYDATA
POINTS 100 float
-0.109613 -0.129641 0.0187001 -0.120022 -0.130548 0.0191018 -0.129794 -0.130672 0.0213432 
-0.113422 -0.13092 0.028542 -0.100792 -0.128126 0.0241747 -0.122131 -0.13183 0.029154 
-0.13339 -0.132735 0.0294506 -0.10481 -0.132613 0.0286726 -0.138608 -0.131617 0.0228045 
-0.116324 -0.127593 0.0101806 -0.11691 -0.133803 0.0357645 -0.127857 -0.133746 0.0335484 
-0.121645 -0.12423 0.0113911 -0.110956 -0.134671 0.0364647 -0.127164 -0.125219 0.0141224 
-0.122963 -0.134683 0.0358424 -0.105889 -0.126692 0.0305155 -0.137356 -0.125485 0.0197613 
-0.111847 -0.132665 0.00879368 -0.140186 -0.134433 0.0285384 -0.114912 -0.136262 0.0125829 
-0.114029 -0.1357 0.0403607 -0.102468 -0.135826 0.0236439 -0.0944312 -0.124572 0.0216553 
-0.099093 -0.13041 0.0173777 -0.11676 -0.1226 0.013792 -0.101135 -0.121955 0.0200719 
-0.0964549 -0.122108 0.0241002 -0.118385 -0.135728 0.0406845 -0.119286 -0.124881 0.0272061 
-0.121786 -0.135721 0.040264 -0.0979008 -0.133447 0.0286285 -0.126592 -0.13731 0.0162772 
-0.106388 -0.135429 0.0344065 -0.143911 -0.134246 0.0237658 -0.10035 -0.134831 0.0204921 
-0.126782 -0.135675 0.0387839 -0.107248 -0.132004 0.0344438 -0.134118 -0.135552 0.0352896 
-0.122269 -0.129293 0.00937351 -0.12711 -0.136919 0.0274601 -0.108722 -0.137064 0.032321 
-0.108132 -0.124012 0.0277589 -0.107879 -0.137635 0.0254902 -0.136492 -0.127486 0.0266956 
-0.138158 -0.135472 0.0330653 -0.100375 -0.129408 0.0138055 -0.125033 -0.128503 0.0107926 
-0.125397 -0.135785 0.0415424 -0.13163 -0.12357 0.0153669 -0.0407516 -0.101857 0.0197791 
-0.0511673 -0.102772 0.0198942 -0.0609958 -0.10292 0.021872 -0.0448218 -0.103222 0.0295042 
-0.0320816 -0.100385 0.0255007 -0.0535434 -0.104141 0.029875 -0.0648062 -0.105054 0.0298622 
-0.0362153 -0.104912 0.0298509 -0.0698452 -0.103882 0.0230886 -0.0472333 -0.099739 0.0111008 
-0.0485003 -0.106169 0.0366058 -0.0593839 -0.106097 0.034098 -0.052588 -0.0963895 0.0121971 
-0.0425668 -0.10704 0.0374577 -0.0581771 -0.0974037 0.0147711 -0.054553 -0.107052 0.0365141 
-0.0373474 -0.0990072 0.0317148 -0.0685167 -0.0977232 0.0201326 -0.0427173 -0.104797 0.00979096 
-0.0715741 -0.106747 0.0287539 -0.0458804 -0.108428 0.0134658 -0.0457425 -0.108104 0.0412611 
-0.0337376 -0.108081 0.0248594 -0.0256581 -0.0968068 0.0231831 -0.0301997 -0.10261 0.0187324 
-0.0477698 -0.0947777 0.0147417 -0.0323193 -0.0941794 0.0214431 -0.0277482 -0.0943647 0.0255938 
-0.0501055 -0.108136 0.0414679 -0.0506529 -0.0971746 0.0280634 -0.0534936 -0.108127 0.0409566 
-0.029307 -0.105743 0.0299847 -0.0576542 -0.109513 0.016837 -0.037944 -0.107778 0.0355162 
-0.0751703 -0.106521 0.0238851 -0.0315367 -0.107058 0.0217741 -0.0584481 -0.108071 0.0393437 
-0.038808 -0.104353 0.0355597 -0.065688 -0.107922 0.0356554 -0.0531541 -0.101435 0.0101203 
-0.0584725 -0.109218 0.0280049 -0.0402212 -0.109396 0.033355 -0.0395178 -0.0963049 0.0289221 
-0.0391947 -0.109908 0.0265446 -0.0678364 -0.0997828 0.0270701 -0.0696676 -0.107824 0.0333244 
-0.0313868 -0.101578 0.0151358 -0.055955 -0.100658 0.0114716 -0.0571373 -0.108204 0.0421372 
-0.0626763 -0.0957675 0.0159096 
VERTICES 100 200
1 0 
1 1 
1 2 
1 3 
1 4 
1 5 
1 6 
1 7 
1 8 
1 9 
1 10 
1 11 
1 12 
1 13 
1 14 
1 15 
1 16 
1 17 
1 18 
1 19 
1 20 
1 21 
1 22 
1 23 
1 24 
1 25 
1 26 
1 27 
1 28 
1 29 
1 30 
1 31 
1 32 
1 33 
1 34 
1 35 
1 36 
1 37 
1 38 
1 39 
1 40 
1 41 
1 42 
1 43 
1 44 
1 45 
1 46 
1 47 
1 48 
1 49 
1 50 
1 51 
1 52 
1 53 
1 54 
1 55 
1 56 
1 57 
1 58 
1 59 
1 60 
1 61 
1 62 
1 63 
1 64 
1 65 
1 66 
1 67 
1 68 
1 69 
1 70 
1 71 
1 72 
1 73 
1 74 
1 75 
1 76 
1 77 
1 78 
1 79 
1 80 
1 81 
1 82 
1 83 
1 84 
1 85 
1 86 
1 87 
1 88 
1 89 
1 90 
1 91 
1 92 
1 93 
1 94 
1 95 
1 96 
1 97 
1 98 
1 99 

POINT_DATA 100
FIELD FieldData 7
id 1 100 int
1 2 3 4 5 6 7 8 9 
10 11 12 13 14 15 16 17 18 
19 20 21 22 23 24 25 26 27 
28 29 30 31 32 33 34 35 36 
37 38 39 40 41 42 43 44 45 
46 47 48 49 50 51 52 53 54 
55 56 57 58 59 60 61 62 63 
64 65 66 67 68 69 70 71 72 
73 74 75 76 77 78 79 80 81 
82 83 84 85 86 87 88 89 90 
91 92 93 94 95 96 97 98 99 
100 
mol 1 100 int
1 1 1 1 1 1 1 1 1 
1 1 1 1 1 1 1 1 1 
1 1 1 1 1 1 1 1 1 
1 1 1 1 1 1 1 1 1 
1 1 1 1 1 1 1 1 1 
1 1 1 1 1 2 2 2 2 
2 2 2 2 2 2 2 2 2 
2 2 2 2 2 2 2 2 2 
2 2 2 2 2 2 2 2 2 
2 2 2 2 2 2 2 2 2 
2 2 2 2 2 2 2 2 2 
2 
type 1 100 int
1 1 1 1 1 1 1 1 1 
1 1 1 1 1 1 1 1 1 
1 1 1 1 1 1 1 1 1 
1 1 1 1 1 1 1 1 1 
1 1 1 1 1 1 1 1 1 
1 1 1 1 1 1 1 1 1 
1 1 1 1 1 1 1 1 1 
1 1 1 1 1 1 1 1 1 
1 1 1 1 1 1 1 1 1 
1 1 1 1 1 1 1 1 1 
1 1 1 1 1 1 1 1 1 
1 
v 3 100 double
-0.10362712181 -0.059285222402 0.30672792333 -0.10635134357 -0.061156892865 0.23191162669 -0.1220310254 -0.066907450043 0.16323324138 
-0.17240456498 -0.080737461132 0.27732235993 -0.1421008731 -0.070155364016 0.3717256669 -0.17660103517 -0.082894533297 0.21440246361 
-0.17858941336 -0.084623596022 0.13363744513 -0.17315433905 -0.080180617038 0.33398682792 -0.13216965341 -0.070893954284 0.099500629374 
-0.044182098538 -0.04168751235 0.26413427952 -0.22268823361 -0.096547606672 0.24672406152 -0.20717970533 -0.092864044762 0.17021100306 
-0.052983692554 -0.044797618732 0.23407922026 -0.22750611234 -0.097469198309 0.28654643541 -0.072009000781 -0.051184364953 0.19332678734 
-0.22314839347 -0.097302583784 0.20246096822 -0.18663184809 -0.08423322539 0.3391166856 -0.11146042395 -0.064253569739 0.12139986801 
-0.03397976578 -0.038281713722 0.28461144279 -0.1720383149 -0.083329751607 0.082423168502 -0.060157912557 -0.046696256541 0.25544745276 
-0.25468173604 -0.10611339835 0.26282697034 -0.13763699979 -0.069181201401 0.34349827568 -0.1248087752 -0.06414086903 0.42386990605 
-0.094294332237 -0.055430576289 0.37872744163 -0.069949860522 -0.049465824154 0.27177311245 -0.11397720551 -0.061400138666 0.38254102438 
-0.14216415366 -0.069574536625 0.41498053811 -0.25694578241 -0.10723008812 0.23227368227 -0.16363867819 -0.078445532704 0.24919981385 
-0.25400272792 -0.10665972141 0.2084812169 -0.17276503491 -0.079415136433 0.38056935132 -0.085919479776 -0.055744405717 0.17143419669 
-0.2130230263 -0.092616419356 0.31690957535 -0.13864414565 -0.073468273855 0.056743505356 -0.11566856283 -0.062224074501 0.36045761242 
-0.24364517435 -0.10397450236 0.17360435725 -0.21361714678 -0.092780031399 0.31821937345 -0.21919384277 -0.097201985856 0.12250813532 
-0.038366739989 -0.040536254314 0.2188679786 -0.16424786699 -0.079749776791 0.16863805654 -0.19826419008 -0.0883759976 0.2970603117 
-0.16759321725 -0.078546127951 0.32915258321 -0.15038688326 -0.073661730906 0.30174337188 -0.15981179537 -0.07902335672 0.12316925236 
-0.20362918834 -0.092829710318 0.09439209836 -0.069382911155 -0.047903095746 0.37189492263 -0.048378216977 -0.043844485111 0.20121379031 
-0.26294622501 -0.10974888959 0.18306428556 -0.080881708625 -0.054284048812 0.16559101434 -0.1031280013 -0.058988860849 0.259238758 
-0.10379589104 -0.060635355606 0.18569098823 -0.11737739505 -0.066107773068 0.11779008736 -0.16982409452 -0.079926392535 0.22838608532 
-0.14267413099 -0.069814195365 0.32194889589 -0.17225027086 -0.081880520522 0.16647938407 -0.17203927651 -0.083373287884 0.087110560158 
-0.17198012803 -0.079491999515 0.28403071013 -0.12561451078 -0.069852378542 0.054914032393 -0.043731986116 -0.041669410914 0.21910403443 
-0.21826485527 -0.095311016536 0.19691072508 -0.20102824831 -0.091521882981 0.12221385548 -0.051723399848 -0.044690265269 0.18930148549 
-0.22400630311 -0.0962965908 0.23588953412 -0.069288060306 -0.050840622709 0.14873830454 -0.21751503261 -0.095935366428 0.15343454854 
-0.18559541383 -0.083552480964 0.28862475447 -0.10611643579 -0.063475856284 0.076962186296 -0.034041582927 -0.038314056765 0.23955638806 
-0.16418876922 -0.081962811151 0.03701755605 -0.058824120104 -0.04644507461 0.2101920681 -0.25001915161 -0.10469879933 0.21181967184 
-0.13722576697 -0.068693201843 0.29442696945 -0.12721851904 -0.064088738916 0.37362617721 -0.095827573644 -0.055370666334 0.33022646931 
-0.069440484668 -0.049374947642 0.22581604843 -0.11560679104 -0.061339554265 0.33332514345 -0.14412698689 -0.069424823368 0.36437204226 
-0.25143684485 -0.10572093998 0.18174799622 -0.16073148966 -0.077692502888 0.20096366536 -0.24792169286 -0.10510610111 0.15846614764 
-0.17278863284 -0.078840577382 0.32979868735 -0.081861425972 -0.055101088741 0.12694827624 -0.21055441726 -0.091602437508 0.26613443763 
-0.13073558451 -0.072240537418 0.012759533031 -0.1161458663 -0.061927990761 0.31170768416 -0.23683720341 -0.10239313116 0.12451189035 
-0.21131592269 -0.091810306219 0.26737182861 -0.21149232809 -0.095637431107 0.075034579932 -0.036760237759 -0.040412637724 0.1748313555 
-0.15870454978 -0.078624954223 0.12193770609 -0.19547374601 -0.087378894046 0.24708153398 -0.16675417982 -0.077990435043 0.27936357217 
-0.14856861389 -0.072962456255 0.25306800678 -0.15354886391 -0.077928518169 0.077322903783 -0.19547499339 -0.091287481647 0.047870149685 
-0.071232604417 -0.04799063011 0.32422593251 -0.046157802848 -0.043623440505 0.15719676076 -0.25603063969 -0.10807287666 0.13324647535 
-0.077338403633 -0.053834483165 0.12122740804 
f 3 100 double
0 0 0 0 0 0 0 0 0 
0 0 0 0 0 0 0 0 0 
0 0 0 0 0 0 0 0 0 
0 0 0 0 0 0 0 0 0 
0 0 0 0 0 0 0 0 0 
0 0 0 0 0 0 0 0 0 
0 0 0 0 0 0 0 0 0 
0 0 0 0 0 0 0 0 0 
0 0 0 0 0 0 0 0 0 
0 0 0 0 0 0 0 0 0 
0 0 0 0 0 0 0 0 0 
0 0 0 0 0 0 0 0 0 
0 0 0 0 0 0 0 0 0 
0 0 0 0 0 0 0 0 0 
0 0 0 0 0 0 0 0 0 
0 0 0 0 0 0 0 0 0 
0 0 0 0 0 0 0 0 0 
0 0 0 0 0 0 0 0 0 
0 0 0 0 0 0 0 0 0 
0 0 0 0 0 0 0 0 0 
0 0 0 0 0 0 0 0 0 
0 0 0 0 0 0 0 0 0 
0 0 0 0 0 0 0 0 0 
0 0 0 0 0 0 0 0 0 
0 0 0 0 0 0 0 0 0 
0 0 0 0 0 0 0 0 0 
0 0 0 0 0 0 0 0 0 
0 0 0 0 0 0 0 0 0 
0 0 0 0 0 0 0 0 0 
0 0 0 0 0 0 0 0 0 
0 0 0 0 0 0 0 0 0 
0 0 0 0 0 0 0 0 0 
0 0 0 0 0 0 0 0 0 
0 0 0 
radius 1 100 double
0.010434 0.00981478 0.00892069 0.00845937 0.00731974 0.00728422 0.00643447 0.00619172 0.00585956 
0.00577566 0.00537241 0.00522549 0.00513666 0.00473175 0.00466912 0.00444866 0.00441894 0.00400812 
0.00385622 0.00379948 0.00370243 0.00366942 0.00364039 0.00363813 0.00363644 0.00358692 0.0035797 
0.00341284 0.00337012 0.00336273 0.00332772 0.00323261 0.00320584 0.00320311 0.00318808 0.00313116 
0.00306026 0.00305632 0.00304383 0.00300958 0.00300137 0.00298994 0.0029567 0.00295111 0.00290849 
0.00284552 0.00282964 0.0028207 0.00281971 0.00281899 0.010434 0.00981478 0.00892069 0.00845937 
0.00731974 0.00728422 0.00643447 0.00619172 0.00585956 0.00577566 0.00537241 0.00522549 0.00513666 
0.00473175 0.00466912 0.00444866 0.00441894 0.00400812 0.00385622 0.00379948 0.00370243 0.00366942 
0.00364039 0.00363813 0.00363644 0.00358692 0.0035797 0.00341284 0.00337012 0.00336273 0.00332772 
0.00323261 0.00320584 0.00320311 0.00318808 0.00313116 0.00306026 0.00305632 0.00304383 0.00300958 
0.00300137 0.00298994 0.0029567 0.00295111 0.00290849 0.00284552 0.00282964 0.0028207 0.00281971 
0.00281899 
omega 3 100 double
2.1420947171 -7.0008684962 0.097141639964 2.1420947171 -7.0008684962 0.097141639964 2.1420947171 -7.0008684962 0.097141639964 
2.1420947171 -7.0008684962 0.097141639964 2.1420947171 -7.0008684962 0.097141639964 2.1420947171 -7.0008684962 0.097141639964 
2.1420947171 -7.0008684962 0.097141639964 2.1420947171 -7.0008684962 0.097141639964 2.1420947171 -7.0008684962 0.097141639964 
2.1420947171 -7.0008684962 0.097141639964 2.1420947171 -7.0008684962 0.097141639964 2.1420947171 -7.0008684962 0.097141639964 
2.1420947171 -7.0008684962 0.097141639964 2.1420947171 -7.0008684962 0.097141639964 2.1420947171 -7.0008684962 0.097141639964 
2.1420947171 -7.0008684962 0.097141639964 2.1420947171 -7.0008684962 0.097141639964 2.1420947171 -7.0008684962 0.097141639964 
2.1420947171 -7.0008684962 0.097141639964 2.1420947171 -7.0008684962 0.097141639964 2.1420947171 -7.0008684962 0.097141639964 
2.1420947171 -7.0008684962 0.097141639964 2.1420947171 -7.0008684962 0.097141639964 2.1420947171 -7.0008684962 0.097141639964 
2.1420947171 -7.0008684962 0.097141639964 2.1420947171 -7.0008684962 0.097141639964 2.1420947171 -7.0008684962 0.097141639964 
2.1420947171 -7.0008684962 0.097141639964 2.1420947171 -7.0008684962 0.097141639964 2.1420947171 -7.0008684962 0.097141639964 
2.1420947171 -7.0008684962 0.097141639964 2.1420947171 -7.0008684962 0.097141639964 2.1420947171 -7.0008684962 0.097141639964 
2.1420947171 -7.0008684962 0.097141639964 2.1420947171 -7.0008684962 0.097141639964 2.1420947171 -7.0008684962 0.097141639964 
2.1420947171 -7.0008684962 0.097141639964 2.1420947171 -7.0008684962 0.097141639964 2.1420947171 -7.0008684962 0.097141639964 
2.1420947171 -7.0008684962 0.097141639964 2.1420947171 -7.0008684962 0.097141639964 2.1420947171 -7.0008684962 0.097141639964 
2.1420947171 -7.0008684962 0.097141639964 2.1420947171 -7.0008684962 0.097141639964 2.1420947171 -7.0008684962 0.097141639964 
2.1420947171 -7.0008684962 0.097141639964 2.1420947171 -7.0008684962 0.097141639964 2.1420947171 -7.0008684962 0.097141639964 
2.1420947171 -7.0008684962 0.097141639964 2.1420947171 -7.0008684962 0.097141639964 2.0964792499 -6.8771022894 0.13491769923 
2.0964792499 -6.8771022894 0.13491769923 2.0964792499 -6.8771022894 0.13491769923 2.0964792499 -6.8771022894 0.13491769923 
2.0964792499 -6.8771022894 0.13491769923 2.0964792499 -6.8771022894 0.13491769923 2.0964792499 -6.8771022894 0.13491769923 
2.0964792499 -6.8771022894 0.13491769923 2.0964792499 -6.8771022894 0.13491769923 2.0964792499 -6.8771022894 0.13491769923 
2.0964792499 -6.8771022894 0.13491769923 2.0964792499 -6.8771022894 0.13491769923 2.0964792499 -6.8771022894 0.13491769923 
2.0964792499 -6.8771022894 0.13491769923 2.0964792499 -6.8771022894 0.13491769923 2.0964792499 -6.8771022894 0.13491769923 
2.0964792499 -6.8771022894 0.13491769923 2.0964792499 -6.8771022894 0.13491769923 2.0964792499 -6.8771022894 0.13491769923 
2.0964792499 -6.8771022894 0.13491769923 2.0964792499 -6.8771022894 0.13491769923 2.0964792499 -6.8771022894 0.13491769923 
2.0964792499 -6.8771022894 0.13491769923 2.0964792499 -6.8771022894 0.13491769923 2.0964792499 -6.8771022894 0.13491769923 
2.0964792499 -6.8771022894 0.13491769923 2.0964792499 -6.8771022894 0.13491769923 2.0964792499 -6.8771022894 0.13491769923 
2.0964792499 -6.8771022894 0.13491769923 2.0964792499 -6.8771022894 0.13491769923 2.0964792499 -6.8771022894 0.13491769923 
2.0964792499 -6.8771022894 0.13491769923 2.0964792499 -6.8771022894 0.13491769923 2.0964792499 -6.8771022894 0.13491769923 
2.0964792499 -6.8771022894 0.13491769923 2.0964792499 -6.8771022894 0.13491769923 2.0964792499 -6.8771022894 0.13491769923 
2.0964792499 -6.8771022894 0.13491769923 2.0964792499 -6.8771022894 0.13491769923 2.0964792499 -6.8771022894 0.13491769923 
2.0964792499 -6.8771022894 0.13491769923 2.0964792499 -6.8771022894 0.13491769923 2.0964792499 -6.8771022894 0.13491769923 
2.0964792499 -6.8771022894 0.13491769923 2.0964792499 -6.8771022894 0.13491769923 2.0964792499 -6.8771022894 0.13491769923 
2.0964792499 -6.8771022894 0.13491769923 2.0964792499 -6.8771022894 0.13491769923 2.0964792499 -6.8771022894 0.13491769923 
2.0964792499 -6.8771022894 0.13491769923 
