# vtk DataFile Version 4.1
Generated by LIGGGHTS
ASCII
DATASET POLYDATA
POINTS 100 float
-0.120153 -0.140719 0.0163177 -0.129426 -0.139565 0.0116263 -0.139045 -0.138505 0.00900242 
-0.128288 -0.144712 0.0218748 -0.115141 -0.143152 0.0252076 -0.136181 -0.143985 0.0181044 
-0.146145 -0.142618 0.0129524 -0.120838 -0.148054 0.025097 -0.147446 -0.138101 0.00584233 
-0.12184 -0.134366 0.00745207 -0.134859 -0.149267 0.0248282 -0.143322 -0.146167 0.0182313 
-0.127079 -0.130672 0.00745471 -0.130008 -0.151526 0.0276655 -0.133227 -0.131444 0.00674708 
-0.140175 -0.148858 0.0218289 -0.122691 -0.143135 0.0285607 -0.144875 -0.131674 0.00656477 
-0.117249 -0.139375 0.00621646 -0.151623 -0.142438 0.00849598 -0.121771 -0.143404 0.00634206 
-0.134593 -0.153262 0.0289498 -0.11633 -0.149604 0.0208107 -0.108366 -0.1403 0.0275344 
-0.11033 -0.143079 0.0196263 -0.123996 -0.13107 0.012211 -0.113443 -0.135976 0.0243987 
-0.111331 -0.138548 0.0296032 -0.13855 -0.152516 0.0272576 -0.132759 -0.137544 0.0207444 
-0.14131 -0.151662 0.0254156 -0.11479 -0.150205 0.0277844 -0.133763 -0.143326 0.00363178 
-0.125015 -0.152391 0.0277506 -0.152537 -0.139757 0.00314151 -0.112943 -0.147977 0.0196763 
-0.144943 -0.150058 0.0220422 -0.12579 -0.14912 0.0288349 -0.149632 -0.147168 0.0160666 
-0.126628 -0.134399 0.00345611 -0.139687 -0.146967 0.0124136 -0.126028 -0.152634 0.0243758 
-0.123303 -0.139234 0.0265067 -0.12195 -0.150819 0.0191064 -0.14751 -0.13621 0.0115965 
-0.152067 -0.145455 0.0125433 -0.109702 -0.140598 0.0166499 -0.129734 -0.133639 0.00368165 
-0.145085 -0.151452 0.0247945 -0.137734 -0.129493 0.00643783 -0.0515309 -0.11248 0.0156851 
-0.0609568 -0.111457 0.0112757 -0.0706775 -0.110763 0.00891786 -0.0592765 -0.117544 0.0209169 
-0.0461862 -0.115481 0.0241998 -0.0672788 -0.11695 0.0173588 -0.0774166 -0.115713 0.0125238 
-0.0515632 -0.120707 0.0236648 -0.0791524 -0.110584 0.00594075 -0.0538062 -0.105374 0.00755251 
-0.065482 -0.122795 0.0234781 -0.0742631 -0.119593 0.0173637 -0.0592673 -0.102049 0.00801559 
-0.0604379 -0.125013 0.0259939 -0.0653675 -0.103144 0.00732213 -0.0708761 -0.122429 0.0206159 
-0.0536486 -0.1163 0.0276473 -0.0769785 -0.104112 0.00728833 -0.0489347 -0.10992 0.0057363 
-0.0829889 -0.115433 0.00819118 -0.0531884 -0.114226 0.00550962 -0.0648752 -0.127167 0.0271584 
-0.047059 -0.121511 0.019175 -0.0395578 -0.112448 0.0267101 -0.0415099 -0.114522 0.018586 
-0.0560639 -0.102731 0.012659 -0.0449634 -0.108164 0.0241151 -0.0425829 -0.111113 0.028993 
-0.068907 -0.126511 0.0256112 -0.0642152 -0.110604 0.0206024 -0.0717543 -0.125654 0.0239086 
-0.0453348 -0.122723 0.0260252 -0.0652166 -0.114652 0.00299879 -0.0553997 -0.125555 0.0259153 
-0.084185 -0.112283 0.00315782 -0.0438061 -0.119559 0.0181659 -0.0755527 -0.123952 0.0207737 
-0.0563564 -0.122471 0.0273445 -0.0805413 -0.120776 0.0151998 -0.0586666 -0.105309 0.00364553 
-0.07071 -0.119554 0.0114415 -0.0564675 -0.125516 0.0225488 -0.05455 -0.112257 0.0260185 
-0.0526254 -0.122908 0.0174368 -0.0792133 -0.109302 0.0118604 -0.0831552 -0.118873 0.0119096 
-0.0411043 -0.111713 0.0158743 -0.0618086 -0.10478 0.00399443 -0.0755469 -0.125628 0.0233681 
-0.0699943 -0.101468 0.00728345 
VERTICES 100 200
1 0 
1 1 
1 2 
1 3 
1 4 
1 5 
1 6 
1 7 
1 8 
1 9 
1 10 
1 11 
1 12 
1 13 
1 14 
1 15 
1 16 
1 17 
1 18 
1 19 
1 20 
1 21 
1 22 
1 23 
1 24 
1 25 
1 26 
1 27 
1 28 
1 29 
1 30 
1 31 
1 32 
1 33 
1 34 
1 35 
1 36 
1 37 
1 38 
1 39 
1 40 
1 41 
1 42 
1 43 
1 44 
1 45 
1 46 
1 47 
1 48 
1 49 
1 50 
1 51 
1 52 
1 53 
1 54 
1 55 
1 56 
1 57 
1 58 
1 59 
1 60 
1 61 
1 62 
1 63 
1 64 
1 65 
1 66 
1 67 
1 68 
1 69 
1 70 
1 71 
1 72 
1 73 
1 74 
1 75 
1 76 
1 77 
1 78 
1 79 
1 80 
1 81 
1 82 
1 83 
1 84 
1 85 
1 86 
1 87 
1 88 
1 89 
1 90 
1 91 
1 92 
1 93 
1 94 
1 95 
1 96 
1 97 
1 98 
1 99 

POINT_DATA 100
FIELD FieldData 7
id 1 100 int
1 2 3 4 5 6 7 8 9 
10 11 12 13 14 15 16 17 18 
19 20 21 22 23 24 25 26 27 
28 29 30 31 32 33 34 35 36 
37 38 39 40 41 42 43 44 45 
46 47 48 49 50 51 52 53 54 
55 56 57 58 59 60 61 62 63 
64 65 66 67 68 69 70 71 72 
73 74 75 76 77 78 79 80 81 
82 83 84 85 86 87 88 89 90 
91 92 93 94 95 96 97 98 99 
100 
mol 1 100 int
1 1 1 1 1 1 1 1 1 
1 1 1 1 1 1 1 1 1 
1 1 1 1 1 1 1 1 1 
1 1 1 1 1 1 1 1 1 
1 1 1 1 1 1 1 1 1 
1 1 1 1 1 2 2 2 2 
2 2 2 2 2 2 2 2 2 
2 2 2 2 2 2 2 2 2 
2 2 2 2 2 2 2 2 2 
2 2 2 2 2 2 2 2 2 
2 2 2 2 2 2 2 2 2 
2 
type 1 100 int
1 1 1 1 1 1 1 1 1 
1 1 1 1 1 1 1 1 1 
1 1 1 1 1 1 1 1 1 
1 1 1 1 1 1 1 1 1 
1 1 1 1 1 1 1 1 1 
1 1 1 1 1 1 1 1 1 
1 1 1 1 1 1 1 1 1 
1 1 1 1 1 1 1 1 1 
1 1 1 1 1 1 1 1 1 
1 1 1 1 1 1 1 1 1 
1 1 1 1 1 1 1 1 1 
1 
v 3 100 double
0.015611803979 -0.14826973969 -0.19898914623 -0.010252979417 -0.10258487645 -0.13662505267 -0.024011028489 -0.069462721996 -0.072810114115 
0.041763345728 -0.16972532026 -0.17612188722 0.064202815432 -0.21338451663 -0.24420642996 0.020633798501 -0.13225717452 -0.12466419019 
-0.007598813871 -0.08246371926 -0.056846873522 0.05517289043 -0.20294844689 -0.24158549534 -0.04207035942 -0.035010435835 -0.020394008199 
-0.026139079013 -0.088987855927 -0.14855853012 0.051507983674 -0.1772892232 -0.16610420244 0.017659972259 -0.12086679668 -0.096173699546 
-0.019813546892 -0.080055667408 -0.093973381788 0.064483075245 -0.20362534679 -0.20926298977 -0.025331782553 -0.065052890782 -0.062410892257 
0.034409684721 -0.14912855974 -0.13196365997 0.084126976324 -0.22181938439 -0.19930268322 -0.026806454637 -0.04399745361 0.0052356465799 
-0.042026585554 -0.088969909636 -0.20766582559 -0.033732764268 -0.044757034422 -0.023198415371 -0.048163076452 -0.082045738664 -0.2064679226 
0.069138243782 -0.2039640861 -0.19310245859 0.027093705432 -0.18338106352 -0.27819073535 0.082879938628 -0.2397578151 -0.26625834654 
0.031211434031 -0.18609617071 -0.27228638974 0.0077277944423 -0.11558003769 -0.11479977514 0.071660988161 -0.2111387398 -0.20862907323 
0.098149224927 -0.24785414138 -0.23751472341 0.060371591371 -0.18643977327 -0.16487914039 0.047300268464 -0.15489748516 -0.10399449581 
0.050901776449 -0.17000729608 -0.14306722603 0.067444585112 -0.2303759548 -0.29115499171 -0.064111401397 -0.044320040709 -0.13481922758 
0.063510568493 -0.21269518935 -0.24439009348 -0.060924550463 -0.0091327970676 -0.00072327782976 0.023141975777 -0.18195096816 -0.28794049927 
0.033626092361 -0.14234169714 -0.11130698402 0.075531480033 -0.21827000769 -0.21898558346 0.0031062488303 -0.096318461124 -0.065104291113 
-0.049905799457 -0.05538912511 -0.12036330986 -0.018225081904 -0.090066291573 -0.1228306119 0.043071867402 -0.18949543816 -0.23992250391 
0.078603578379 -0.20770749899 -0.17085403934 0.014907408633 -0.16294075563 -0.25257408814 -0.0046986620063 -0.071505863434 -0.0079824207636 
-0.014872597769 -0.069744697818 -0.039755452927 0.017789997855 -0.16823396468 -0.26022510877 -0.047268920031 -0.051519174536 -0.097100066583 
0.047573967055 -0.15960845775 -0.11933930421 -0.023832921267 -0.055387546276 -0.023254944227 0.039396909227 -0.12475994451 -0.14553765655 
0.017605798505 -0.09107935689 -0.091141925985 0.0059600411926 -0.072851538425 -0.037761487933 0.065073331545 -0.16384281327 -0.14535051173 
0.081428805379 -0.18920132698 -0.19463347541 0.047478869641 -0.13664680869 -0.10123816076 0.023589315684 -0.099723750042 -0.041700886827 
0.07853652166 -0.18491841507 -0.20739801653 -0.008776651172 -0.050013065227 0.0055578740904 -0.00055194183452 -0.063341682807 -0.080695236665 
0.077514585237 -0.18286397005 -0.15420992789 0.047380029568 -0.13635886227 -0.086578683144 0.0018960565046 -0.066579229018 -0.028579756573 
0.089871643595 -0.20206500947 -0.19591321123 -0.001589318468 -0.061067826158 -0.0066192889599 0.063355979428 -0.16103524265 -0.12472809266 
0.098465322429 -0.2148455679 -0.16384915869 -0.0018017076578 -0.060273644454 0.043586482006 -0.0097583844833 -0.04987539155 -0.13909620871 
0.0021439719724 -0.066801075402 -0.01199704601 -0.011081117453 -0.04796883476 -0.15049457489 0.095539269054 -0.21063841034 -0.1901713958 
0.056262131381 -0.1512784963 -0.23577350646 0.094002471119 -0.20843437092 -0.20459424706 0.053669464165 -0.14709552152 -0.21056636527 
0.024862289231 -0.10173544338 -0.049588060055 0.081349142841 -0.18861950926 -0.14552883913 0.10537155311 -0.22550549642 -0.17955127889 
0.087906655339 -0.198786387 -0.16525776726 0.063838243255 -0.1612426532 -0.068572061552 0.079514052398 -0.18581829075 -0.14469232714 
0.09013337306 -0.20300304391 -0.25344882139 -0.02353646447 -0.028480695398 -0.094132573471 0.089457218284 -0.20170653879 -0.22495311668 
-0.02263877043 -0.028798485501 0.017678045605 0.051354740081 -0.14382154679 -0.23716773367 0.064066701859 -0.16200757635 -0.11305024511 
0.096679088736 -0.21243708458 -0.19695692089 0.03660810181 -0.1197538032 -0.064397196967 -0.019899283059 -0.033660809412 -0.056133059362 
0.018050891692 -0.091876325331 -0.10387753117 0.072785634998 -0.17627669512 -0.21936870984 0.090586039273 -0.20252397032 -0.12890315734 
0.047588320325 -0.13791540746 -0.21873316357 0.020601674606 -0.094639221959 0.015526989597 0.020400762045 -0.094827015902 -0.037103303348 
0.040369606055 -0.12667069112 -0.19139601934 -0.018146700543 -0.036145218573 -0.036582048358 0.076838430461 -0.18156746492 -0.12571422319 
-0.0017030770658 -0.060561273447 0.028926850948 
f 3 100 double
0 0 0 0 0 0 0 0 0 
0 0 0 0 0 0 0 0 0 
0 0 0 0 0 0 0.11327686283 -0.0012531007804 0.22656758738 
0 0 0 0 0 0 0 0 0 
0 0 0 0 0 0 0 0 0 
0 0 0 0 0 0 0 0 0 
0 0 0 0 0 0 0 0 0 
0 0 0 0 0 0 0 0 0 
0 0 0 0 0 0 0 0 0 
0 0 0 0 0 0 0 0 0 
0 0 0 0 0 0 0 0 0 
0 0 0 0.078247617627 -0.0094475111347 0.1576317878 0 0 0 
0 0 0 0 0 0 0 0 0 
0 0 0 0 0 0 0 0 0 
0 0 0 0 0 0 0 0 0 
0 0 0 0 0 0 0 0 0 
0 0 0 0 0 0 0 0 0 
0 0 0 0.20751718389 0.030293980457 0.24110685285 0 0 0 
0 0 0 0 0 0 0 0 0 
0 0 0 0 0 0 0 0 0 
0 0 0 0 0 0 0 0 0 
0 0 0 0 0 0 0 0 0 
0 0 0 0 0 0 0 0 0 
0 0 0 0 0 0 0 0 0 
0 0 0 0 0 0 0 0 0 
0 0 0 0 0 0 0 0 0 
0 0 0 0 0 0 0 0 0 
0 0 0 1.4457252874 0.10689786667 2.7467575463 0 0 0 
0.037493997136 0.0033655282582 -0.075289484038 0 0 0 0 0 0 
0 0 0 0 0 0 0 0 0 
0 0 0 0 0 0 0 0 0 
0 0 0 0 0 0 0 0 0 
0 0 0 0 0 0 0 0 0 
0 0 0 
radius 1 100 double
0.010434 0.00981478 0.00892069 0.00845937 0.00731974 0.00728422 0.00643447 0.00619172 0.00585956 
0.00577566 0.00537241 0.00522549 0.00513666 0.00473175 0.00466912 0.00444866 0.00441894 0.00400812 
0.00385622 0.00379948 0.00370243 0.00366942 0.00364039 0.00363813 0.00363644 0.00358692 0.0035797 
0.00341284 0.00337012 0.00336273 0.00332772 0.00323261 0.00320584 0.00320311 0.00318808 0.00313116 
0.00306026 0.00305632 0.00304383 0.00300958 0.00300137 0.00298994 0.0029567 0.00295111 0.00290849 
0.00284552 0.00282964 0.0028207 0.00281971 0.00281899 0.010434 0.00981478 0.00892069 0.00845937 
0.00731974 0.00728422 0.00643447 0.00619172 0.00585956 0.00577566 0.00537241 0.00522549 0.00513666 
0.00473175 0.00466912 0.00444866 0.00441894 0.00400812 0.00385622 0.00379948 0.00370243 0.00366942 
0.00364039 0.00363813 0.00363644 0.00358692 0.0035797 0.00341284 0.00337012 0.00336273 0.00332772 
0.00323261 0.00320584 0.00320311 0.00318808 0.00313116 0.00306026 0.00305632 0.00304383 0.00300958 
0.00300137 0.00298994 0.0029567 0.00295111 0.00290849 0.00284552 0.00282964 0.0028207 0.00281971 
0.00281899 
omega 3 100 double
6.3615502396 5.9333838168 -1.7081256722 6.3615502396 5.9333838168 -1.7081256722 6.3615502396 5.9333838168 -1.7081256722 
6.3615502396 5.9333838168 -1.7081256722 6.3615502396 5.9333838168 -1.7081256722 6.3615502396 5.9333838168 -1.7081256722 
6.3615502396 5.9333838168 -1.7081256722 6.3615502396 5.9333838168 -1.7081256722 6.3615502396 5.9333838168 -1.7081256722 
6.3615502396 5.9333838168 -1.7081256722 6.3615502396 5.9333838168 -1.7081256722 6.3615502396 5.9333838168 -1.7081256722 
6.3615502396 5.9333838168 -1.7081256722 6.3615502396 5.9333838168 -1.7081256722 6.3615502396 5.9333838168 -1.7081256722 
6.3615502396 5.9333838168 -1.7081256722 6.3615502396 5.9333838168 -1.7081256722 6.3615502396 5.9333838168 -1.7081256722 
6.3615502396 5.9333838168 -1.7081256722 6.3615502396 5.9333838168 -1.7081256722 6.3615502396 5.9333838168 -1.7081256722 
6.3615502396 5.9333838168 -1.7081256722 6.3615502396 5.9333838168 -1.7081256722 6.3615502396 5.9333838168 -1.7081256722 
6.3615502396 5.9333838168 -1.7081256722 6.3615502396 5.9333838168 -1.7081256722 6.3615502396 5.9333838168 -1.7081256722 
6.3615502396 5.9333838168 -1.7081256722 6.3615502396 5.9333838168 -1.7081256722 6.3615502396 5.9333838168 -1.7081256722 
6.3615502396 5.9333838168 -1.7081256722 6.3615502396 5.9333838168 -1.7081256722 6.3615502396 5.9333838168 -1.7081256722 
6.3615502396 5.9333838168 -1.7081256722 6.3615502396 5.9333838168 -1.7081256722 6.3615502396 5.9333838168 -1.7081256722 
6.3615502396 5.9333838168 -1.7081256722 6.3615502396 5.9333838168 -1.7081256722 6.3615502396 5.9333838168 -1.7081256722 
6.3615502396 5.9333838168 -1.7081256722 6.3615502396 5.9333838168 -1.7081256722 6.3615502396 5.9333838168 -1.7081256722 
6.3615502396 5.9333838168 -1.7081256722 6.3615502396 5.9333838168 -1.7081256722 6.3615502396 5.9333838168 -1.7081256722 
6.3615502396 5.9333838168 -1.7081256722 6.3615502396 5.9333838168 -1.7081256722 6.3615502396 5.9333838168 -1.7081256722 
6.3615502396 5.9333838168 -1.7081256722 6.3615502396 5.9333838168 -1.7081256722 7.5391080122 4.9527742982 -0.046452382755 
7.5391080122 4.9527742982 -0.046452382755 7.5391080122 4.9527742982 -0.046452382755 7.5391080122 4.9527742982 -0.046452382755 
7.5391080122 4.9527742982 -0.046452382755 7.5391080122 4.9527742982 -0.046452382755 7.5391080122 4.9527742982 -0.046452382755 
7.5391080122 4.9527742982 -0.046452382755 7.5391080122 4.9527742982 -0.046452382755 7.5391080122 4.9527742982 -0.046452382755 
7.5391080122 4.9527742982 -0.046452382755 7.5391080122 4.9527742982 -0.046452382755 7.5391080122 4.9527742982 -0.046452382755 
7.5391080122 4.9527742982 -0.046452382755 7.5391080122 4.9527742982 -0.046452382755 7.5391080122 4.9527742982 -0.046452382755 
7.5391080122 4.9527742982 -0.046452382755 7.5391080122 4.9527742982 -0.046452382755 7.5391080122 4.9527742982 -0.046452382755 
7.5391080122 4.9527742982 -0.046452382755 7.5391080122 4.9527742982 -0.046452382755 7.5391080122 4.9527742982 -0.046452382755 
7.5391080122 4.9527742982 -0.046452382755 7.5391080122 4.9527742982 -0.046452382755 7.5391080122 4.9527742982 -0.046452382755 
7.5391080122 4.9527742982 -0.046452382755 7.5391080122 4.9527742982 -0.046452382755 7.5391080122 4.9527742982 -0.046452382755 
7.5391080122 4.9527742982 -0.046452382755 7.5391080122 4.9527742982 -0.046452382755 7.5391080122 4.9527742982 -0.046452382755 
7.5391080122 4.9527742982 -0.046452382755 7.5391080122 4.9527742982 -0.046452382755 7.5391080122 4.9527742982 -0.046452382755 
7.5391080122 4.9527742982 -0.046452382755 7.5391080122 4.9527742982 -0.046452382755 7.5391080122 4.9527742982 -0.046452382755 
7.5391080122 4.9527742982 -0.046452382755 7.5391080122 4.9527742982 -0.046452382755 7.5391080122 4.9527742982 -0.046452382755 
7.5391080122 4.9527742982 -0.046452382755 7.5391080122 4.9527742982 -0.046452382755 7.5391080122 4.9527742982 -0.046452382755 
7.5391080122 4.9527742982 -0.046452382755 7.5391080122 4.9527742982 -0.046452382755 7.5391080122 4.9527742982 -0.046452382755 
7.5391080122 4.9527742982 -0.046452382755 7.5391080122 4.9527742982 -0.046452382755 7.5391080122 4.9527742982 -0.046452382755 
7.5391080122 4.9527742982 -0.046452382755 
