# vtk DataFile Version 4.1
Generated by LIGGGHTS
ASCII
DATASET POLYDATA
POINTS 100 float
-0.117773 -0.156357 0.010695 -0.127493 -0.152532 0.011175 -0.137269 -0.15067 0.0123962 
-0.125336 -0.16381 0.0101918 -0.111767 -0.164945 0.0111835 -0.133598 -0.160859 0.0104505 
-0.144047 -0.156598 0.0110411 -0.117799 -0.167329 0.00738579 -0.145972 -0.148453 0.0126562 
-0.120179 -0.145925 0.0133784 -0.131769 -0.168948 0.00798598 -0.140802 -0.162538 0.00942237 
-0.12505 -0.144999 0.0174421 -0.126764 -0.171948 0.00636242 -0.131278 -0.145263 0.017261 
-0.137405 -0.166571 0.0079118 -0.11874 -0.168753 0.0134449 -0.142814 -0.146341 0.0184871 
-0.116228 -0.146303 0.00772629 -0.150068 -0.152994 0.0102269 -0.120997 -0.148445 0.00466623 
-0.131246 -0.174257 0.00585072 -0.114083 -0.16357 0.00375956 -0.104523 -0.165284 0.0138025 
-0.107804 -0.159335 0.00851494 -0.121367 -0.149199 0.01848 -0.109626 -0.161224 0.0172343 
-0.107015 -0.166783 0.0165756 -0.135329 -0.172809 0.00640486 -0.129328 -0.16041 0.0169109 
-0.138244 -0.171063 0.00684719 -0.111625 -0.170031 0.00565046 -0.133206 -0.147124 0.00526159 
-0.121895 -0.17187 0.00495642 -0.151511 -0.147137 0.0107738 -0.11077 -0.161559 0.00438304 
-0.142176 -0.167709 0.0075095 -0.122242 -0.171657 0.00846485 -0.147414 -0.161575 0.00850115 
-0.125471 -0.142757 0.0124535 -0.138103 -0.15717 0.00601611 -0.123392 -0.168979 0.00358686 
-0.119319 -0.165406 0.0163215 -0.119967 -0.163044 0.00272777 -0.145069 -0.152982 0.0165766 
-0.150178 -0.157922 0.00905166 -0.107405 -0.155578 0.00958071 -0.128442 -0.142973 0.0136372 
-0.142039 -0.170787 0.00729194 -0.135611 -0.144662 0.0195152 -0.0466843 -0.125945 0.0108042 
-0.0567657 -0.123433 0.0119845 -0.066595 -0.122877 0.0138838 -0.0532227 -0.134327 0.0107188 
-0.0395862 -0.133671 0.0107811 -0.0617635 -0.132488 0.0115695 -0.0726153 -0.129639 0.0129146 
-0.0455003 -0.136815 0.00736868 -0.0754748 -0.121824 0.0147563 -0.0502467 -0.11593 0.0137724 
-0.0590638 -0.140258 0.00888747 -0.0687388 -0.135095 0.0110077 -0.0549074 -0.115666 0.0181658 
-0.0538315 -0.142568 0.00689375 -0.0610449 -0.116746 0.018401 -0.0649547 -0.138642 0.00922219 
-0.0458299 -0.138371 0.0134593 -0.0722301 -0.119335 0.0203871 -0.046676 -0.115766 0.00786302 
-0.0790973 -0.126855 0.012552 -0.051321 -0.118505 0.0051045 -0.0579969 -0.145445 0.00665626 
-0.0425649 -0.132587 0.00354743 -0.032199 -0.133064 0.0129023 -0.0365835 -0.127579 0.00792154 
-0.0506439 -0.119349 0.0189014 -0.0375431 -0.129722 0.0167197 -0.0342772 -0.134887 0.015818 
-0.0621875 -0.144548 0.00750182 -0.0571574 -0.131504 0.0177329 -0.0652687 -0.143202 0.00816089 
-0.0391586 -0.138675 0.00518849 -0.0635286 -0.118802 0.0065364 -0.0491227 -0.141846 0.0051644 
-0.081254 -0.121241 0.0132673 -0.0395087 -0.13016 0.0039714 -0.0695516 -0.140396 0.00912778 
-0.0492539 -0.141692 0.00869059 -0.0754674 -0.135007 0.0105455 -0.0559585 -0.113482 0.013245 
-0.0670051 -0.129408 0.0074943 -0.0510753 -0.139172 0.00393457 -0.0466446 -0.135139 0.0164095 
-0.0485233 -0.132835 0.00292049 -0.0737208 -0.126208 0.0185506 -0.078641 -0.131752 0.0113259 
-0.0366084 -0.123806 0.00900451 -0.0587876 -0.114091 0.0146232 -0.0690279 -0.143428 0.00886339 
-0.0652548 -0.116727 0.0209489 
VERTICES 100 200
1 0 
1 1 
1 2 
1 3 
1 4 
1 5 
1 6 
1 7 
1 8 
1 9 
1 10 
1 11 
1 12 
1 13 
1 14 
1 15 
1 16 
1 17 
1 18 
1 19 
1 20 
1 21 
1 22 
1 23 
1 24 
1 25 
1 26 
1 27 
1 28 
1 29 
1 30 
1 31 
1 32 
1 33 
1 34 
1 35 
1 36 
1 37 
1 38 
1 39 
1 40 
1 41 
1 42 
1 43 
1 44 
1 45 
1 46 
1 47 
1 48 
1 49 
1 50 
1 51 
1 52 
1 53 
1 54 
1 55 
1 56 
1 57 
1 58 
1 59 
1 60 
1 61 
1 62 
1 63 
1 64 
1 65 
1 66 
1 67 
1 68 
1 69 
1 70 
1 71 
1 72 
1 73 
1 74 
1 75 
1 76 
1 77 
1 78 
1 79 
1 80 
1 81 
1 82 
1 83 
1 84 
1 85 
1 86 
1 87 
1 88 
1 89 
1 90 
1 91 
1 92 
1 93 
1 94 
1 95 
1 96 
1 97 
1 98 
1 99 

POINT_DATA 100
FIELD FieldData 7
id 1 100 int
1 2 3 4 5 6 7 8 9 
10 11 12 13 14 15 16 17 18 
19 20 21 22 23 24 25 26 27 
28 29 30 31 32 33 34 35 36 
37 38 39 40 41 42 43 44 45 
46 47 48 49 50 51 52 53 54 
55 56 57 58 59 60 61 62 63 
64 65 66 67 68 69 70 71 72 
73 74 75 76 77 78 79 80 81 
82 83 84 85 86 87 88 89 90 
91 92 93 94 95 96 97 98 99 
100 
mol 1 100 int
1 1 1 1 1 1 1 1 1 
1 1 1 1 1 1 1 1 1 
1 1 1 1 1 1 1 1 1 
1 1 1 1 1 1 1 1 1 
1 1 1 1 1 1 1 1 1 
1 1 1 1 1 2 2 2 2 
2 2 2 2 2 2 2 2 2 
2 2 2 2 2 2 2 2 2 
2 2 2 2 2 2 2 2 2 
2 2 2 2 2 2 2 2 2 
2 2 2 2 2 2 2 2 2 
2 
type 1 100 int
1 1 1 1 1 1 1 1 1 
1 1 1 1 1 1 1 1 1 
1 1 1 1 1 1 1 1 1 
1 1 1 1 1 1 1 1 1 
1 1 1 1 1 1 1 1 1 
1 1 1 1 1 1 1 1 1 
1 1 1 1 1 1 1 1 1 
1 1 1 1 1 1 1 1 1 
1 1 1 1 1 1 1 1 1 
1 1 1 1 1 1 1 1 1 
1 1 1 1 1 1 1 1 1 
1 
v 3 100 double
-0.10673256101 -0.17055209886 0.16082797918 -0.1095580448 -0.17146339385 0.11087252653 -0.12181902148 -0.18342187073 0.030957612276 
-0.10599052393 -0.15815259785 -0.033983941801 -0.1176538542 -0.1817287638 0.098618969168 -0.106940513 -0.15669569 -0.080931464366 
-0.11070316895 -0.15879024606 -0.13239190973 -0.077329552628 -0.12105479038 -0.0035325863336 -0.12325605639 -0.18169942256 -0.031827672692 
-0.1295861703 -0.20912368297 0.29028095817 -0.084988522499 -0.12102383672 -0.18171420372 -0.096689310832 -0.13667832285 -0.18543591734 
-0.17378246711 -0.26674636489 0.25044513133 -0.069026480986 -0.09997457837 -0.17139855114 -0.17195678728 -0.26002363726 0.17783793702 
-0.0826388362 -0.11628136091 -0.20830582753 -0.14503558331 -0.2110468748 -0.035187888025 -0.18616574793 -0.27091928986 0.034565261843 
-0.06752875793 -0.12715880572 0.32817492151 -0.099404909842 -0.14273454947 -0.14486744201 -0.035179320374 -0.078329936216 0.24358763977 
-0.064874752433 -0.08943427519 -0.25533043459 -0.034935165598 -0.06922979925 0.093644237234 -0.146740076 -0.22555677198 0.17338601314 
-0.08462227139 -0.14438182224 0.22618806122 -0.18793036524 -0.2846388493 0.22823027159 -0.18195134722 -0.27358149412 0.17784170317 
-0.17827430173 -0.26541622909 0.12351105724 -0.070049483624 -0.095087450032 -0.27869427362 -0.17786120951 -0.25604495473 -0.027150065555 
-0.073799599548 -0.099822463557 -0.28471367671 -0.059943115016 -0.099087657892 0.024127329053 -0.040889997408 -0.07936150922 0.12876585824 
-0.053478373249 -0.082089875824 -0.11657230295 -0.10165749329 -0.14998184665 -0.073192606092 -0.040511399975 -0.080688125557 0.16023186042 
-0.078937823951 -0.10719074864 -0.27790341578 -0.09201311973 -0.13432538439 -0.11720390101 -0.085914487954 -0.11864161267 -0.24392681949 
-0.11734983905 -0.19188349496 0.27931025514 -0.055683032283 -0.087486603286 -0.075429429746 -0.036518409446 -0.060646841668 -0.089842834225 
-0.17458522858 -0.253684256 0.0084709187604 -0.023222950824 -0.050009519218 0.03665814448 -0.16938775395 -0.24089963155 -0.089581030634 
-0.089628097089 -0.12509173644 -0.21977212263 -0.093948073349 -0.16057442793 0.2867564468 -0.13053657523 -0.20766737269 0.24333400722 
-0.078523780732 -0.10402605465 -0.32241383572 -0.19641643431 -0.29093595352 0.13906964937 -0.06447895512 -0.18091889205 0.10777721053 
-0.071907798341 -0.1926880773 0.069372074329 -0.086477599155 -0.21642443119 0.00092740803447 -0.070095036772 -0.1746126429 -0.081116994044 
-0.070094659644 -0.18586736617 0.037231069679 -0.075428416229 -0.18213908407 -0.11839413237 -0.083904630058 -0.19602879847 -0.15736424446 
-0.045526348783 -0.12552917237 -0.060936734216 -0.092572525012 -0.22405242286 -0.051904746125 -0.080384788985 -0.2268684078 0.24373437433 
-0.060095109025 -0.14022980026 -0.22436646933 -0.072952136074 -0.16770128112 -0.21615159635 -0.11485573964 -0.29534102201 0.21128142069 
-0.046096347379 -0.11149675104 -0.22092492075 -0.11752216476 -0.29458690865 0.14515029911 -0.061524073365 -0.14129185266 -0.24439029504 
-0.094755692828 -0.2250541192 -0.089025704537 -0.13513802983 -0.31872854621 0.01447856225 -0.033630251014 -0.13274472149 0.27459661793 
-0.07895425316 -0.18522485619 -0.16290904198 -0.013918453281 -0.08407045407 0.19306489834 -0.046381141027 -0.10448020581 -0.30091804301 
-0.012199455449 -0.065134988947 0.031486236423 -0.086377553152 -0.22615884475 0.10546543899 -0.042957920004 -0.14127756358 0.16071541282 
-0.12342478855 -0.31059037503 0.18458110169 -0.11399362719 -0.28468373526 0.1180413535 -0.11075433737 -0.27236327772 0.059201828938 
-0.052380708661 -0.11518669025 -0.31929937744 -0.12332571831 -0.28656029458 -0.065925070499 -0.056571069203 -0.12367065766 -0.32155898735 
-0.029718580149 -0.094574015806 -0.041373521077 -0.025440823568 -0.09836530248 0.091864129645 -0.031908040243 -0.086701531424 -0.17194101029 
-0.080384507093 -0.19532314332 -0.087947885224 -0.0137237466 -0.074373803619 0.095357700107 -0.062095145924 -0.13629539309 -0.3093916626 
-0.059618044789 -0.14436672431 -0.17045482721 -0.069238761956 -0.15508022757 -0.26780363454 -0.074386439007 -0.21394267554 0.23875444605 
-0.04095895892 -0.11144786572 -0.10930169105 -0.020196579408 -0.065089951459 -0.14354593745 -0.11561079628 -0.27277143337 -0.042511748957 
-0.0074385995814 -0.050393167538 -0.019600909795 -0.1258036933 -0.28752451543 -0.10987502696 -0.072953631585 -0.16548244595 -0.23951458527 
-0.048672138156 -0.15899944965 0.2223273086 -0.085718488611 -0.23439557814 0.20645791445 -0.06228456912 -0.13235731588 -0.35493395854 
-0.13761395762 -0.33316561293 0.11223597651 
f 3 100 double
0 0 0 0 0 0 0 0 0 
0 0 0 0 0 0 0 0 0 
0 0 0 0 0 0 0 0 0 
0 0 0 0 0 0 0 0 0 
0 0 0 0 0 0 0 0 0 
0 0 0 0 0 0 0 0 0 
0 0 0 0 0 0 0 0 0 
0 0 0 0 0 0 0 0 0 
0 0 0 0 0 0 0 0 0 
0 0 0 0 0 0 0 0 0 
0 0 0 0 0 0 0 0 0 
0 0 0 0 0 0 0 0 0 
0 0 0 0 0 0 0 0 0 
0 0 0 0 0 0 0 0 0 
0 0 0 -0.31398637952 0.38820069973 0.99857344206 0 0 0 
0 0 0 0 0 0 0 0 0 
0 0 0 0 0 0 0 0 0 
0 0 0 0 0 0 0 0 0 
0 0 0 0 0 0 0 0 0 
0 0 0 0 0 0 0 0 0 
0 0 0 0 0 0 0 0 0 
0 0 0 0 0 0 0 0 0 
0 0 0 0 0 0 0 0 0 
0 0 0 0 0 0 0 0 0 
-0.035535945193 0.012077900434 0.075064747508 0 0 0 0 0 0 
0 0 0 0 0 0 0 0 0 
0 0 0 0 0 0 0 0 0 
0 0 0 0 0 0 0 0 0 
0 0 0 0 0 0 0 0 0 
0 0 0 0 0 0 0 0 0 
0 0 0 0 0 0 0 0 0 
-0.18250901672 0.018319183914 0.245513902 0 0 0 0 0 0 
0 0 0 0 0 0 0 0 0 
0 0 0 
radius 1 100 double
0.010434 0.00981478 0.00892069 0.00845937 0.00731974 0.00728422 0.00643447 0.00619172 0.00585956 
0.00577566 0.00537241 0.00522549 0.00513666 0.00473175 0.00466912 0.00444866 0.00441894 0.00400812 
0.00385622 0.00379948 0.00370243 0.00366942 0.00364039 0.00363813 0.00363644 0.00358692 0.0035797 
0.00341284 0.00337012 0.00336273 0.00332772 0.00323261 0.00320584 0.00320311 0.00318808 0.00313116 
0.00306026 0.00305632 0.00304383 0.00300958 0.00300137 0.00298994 0.0029567 0.00295111 0.00290849 
0.00284552 0.00282964 0.0028207 0.00281971 0.00281899 0.010434 0.00981478 0.00892069 0.00845937 
0.00731974 0.00728422 0.00643447 0.00619172 0.00585956 0.00577566 0.00537241 0.00522549 0.00513666 
0.00473175 0.00466912 0.00444866 0.00441894 0.00400812 0.00385622 0.00379948 0.00370243 0.00366942 
0.00364039 0.00363813 0.00363644 0.00358692 0.0035797 0.00341284 0.00337012 0.00336273 0.00332772 
0.00323261 0.00320584 0.00320311 0.00318808 0.00313116 0.00306026 0.00305632 0.00304383 0.00300958 
0.00300137 0.00298994 0.0029567 0.00295111 0.00290849 0.00284552 0.00282964 0.0028207 0.00281971 
0.00281899 
omega 3 100 double
14.952295771 -11.022689327 -0.64462528222 14.952295771 -11.022689327 -0.64462528222 14.952295771 -11.022689327 -0.64462528222 
14.952295771 -11.022689327 -0.64462528222 14.952295771 -11.022689327 -0.64462528222 14.952295771 -11.022689327 -0.64462528222 
14.952295771 -11.022689327 -0.64462528222 14.952295771 -11.022689327 -0.64462528222 14.952295771 -11.022689327 -0.64462528222 
14.952295771 -11.022689327 -0.64462528222 14.952295771 -11.022689327 -0.64462528222 14.952295771 -11.022689327 -0.64462528222 
14.952295771 -11.022689327 -0.64462528222 14.952295771 -11.022689327 -0.64462528222 14.952295771 -11.022689327 -0.64462528222 
14.952295771 -11.022689327 -0.64462528222 14.952295771 -11.022689327 -0.64462528222 14.952295771 -11.022689327 -0.64462528222 
14.952295771 -11.022689327 -0.64462528222 14.952295771 -11.022689327 -0.64462528222 14.952295771 -11.022689327 -0.64462528222 
14.952295771 -11.022689327 -0.64462528222 14.952295771 -11.022689327 -0.64462528222 14.952295771 -11.022689327 -0.64462528222 
14.952295771 -11.022689327 -0.64462528222 14.952295771 -11.022689327 -0.64462528222 14.952295771 -11.022689327 -0.64462528222 
14.952295771 -11.022689327 -0.64462528222 14.952295771 -11.022689327 -0.64462528222 14.952295771 -11.022689327 -0.64462528222 
14.952295771 -11.022689327 -0.64462528222 14.952295771 -11.022689327 -0.64462528222 14.952295771 -11.022689327 -0.64462528222 
14.952295771 -11.022689327 -0.64462528222 14.952295771 -11.022689327 -0.64462528222 14.952295771 -11.022689327 -0.64462528222 
14.952295771 -11.022689327 -0.64462528222 14.952295771 -11.022689327 -0.64462528222 14.952295771 -11.022689327 -0.64462528222 
14.952295771 -11.022689327 -0.64462528222 14.952295771 -11.022689327 -0.64462528222 14.952295771 -11.022689327 -0.64462528222 
14.952295771 -11.022689327 -0.64462528222 14.952295771 -11.022689327 -0.64462528222 14.952295771 -11.022689327 -0.64462528222 
14.952295771 -11.022689327 -0.64462528222 14.952295771 -11.022689327 -0.64462528222 14.952295771 -11.022689327 -0.64462528222 
14.952295771 -11.022689327 -0.64462528222 14.952295771 -11.022689327 -0.64462528222 16.381334028 -7.8911068389 -0.7504846198 
16.381334028 -7.8911068389 -0.7504846198 16.381334028 -7.8911068389 -0.7504846198 16.381334028 -7.8911068389 -0.7504846198 
16.381334028 -7.8911068389 -0.7504846198 16.381334028 -7.8911068389 -0.7504846198 16.381334028 -7.8911068389 -0.7504846198 
16.381334028 -7.8911068389 -0.7504846198 16.381334028 -7.8911068389 -0.7504846198 16.381334028 -7.8911068389 -0.7504846198 
16.381334028 -7.8911068389 -0.7504846198 16.381334028 -7.8911068389 -0.7504846198 16.381334028 -7.8911068389 -0.7504846198 
16.381334028 -7.8911068389 -0.7504846198 16.381334028 -7.8911068389 -0.7504846198 16.381334028 -7.8911068389 -0.7504846198 
16.381334028 -7.8911068389 -0.7504846198 16.381334028 -7.8911068389 -0.7504846198 16.381334028 -7.8911068389 -0.7504846198 
16.381334028 -7.8911068389 -0.7504846198 16.381334028 -7.8911068389 -0.7504846198 16.381334028 -7.8911068389 -0.7504846198 
16.381334028 -7.8911068389 -0.7504846198 16.381334028 -7.8911068389 -0.7504846198 16.381334028 -7.8911068389 -0.7504846198 
16.381334028 -7.8911068389 -0.7504846198 16.381334028 -7.8911068389 -0.7504846198 16.381334028 -7.8911068389 -0.7504846198 
16.381334028 -7.8911068389 -0.7504846198 16.381334028 -7.8911068389 -0.7504846198 16.381334028 -7.8911068389 -0.7504846198 
16.381334028 -7.8911068389 -0.7504846198 16.381334028 -7.8911068389 -0.7504846198 16.381334028 -7.8911068389 -0.7504846198 
16.381334028 -7.8911068389 -0.7504846198 16.381334028 -7.8911068389 -0.7504846198 16.381334028 -7.8911068389 -0.7504846198 
16.381334028 -7.8911068389 -0.7504846198 16.381334028 -7.8911068389 -0.7504846198 16.381334028 -7.8911068389 -0.7504846198 
16.381334028 -7.8911068389 -0.7504846198 16.381334028 -7.8911068389 -0.7504846198 16.381334028 -7.8911068389 -0.7504846198 
16.381334028 -7.8911068389 -0.7504846198 16.381334028 -7.8911068389 -0.7504846198 16.381334028 -7.8911068389 -0.7504846198 
16.381334028 -7.8911068389 -0.7504846198 16.381334028 -7.8911068389 -0.7504846198 16.381334028 -7.8911068389 -0.7504846198 
16.381334028 -7.8911068389 -0.7504846198 
