# vtk DataFile Version 4.1
Generated by LIGGGHTS
ASCII
DATASET POLYDATA
POINTS 100 float
-0.117608 -0.144826 0.0136489 -0.127442 -0.142316 0.0111347 -0.137267 -0.140379 0.0106393 
-0.124932 -0.149782 0.019548 -0.11133 -0.149449 0.0206695 -0.133283 -0.147946 0.0175627 
-0.143859 -0.145099 0.0147841 -0.1173 -0.154013 0.0204938 -0.146035 -0.138986 0.0092573 
-0.120333 -0.136501 0.00693417 -0.131209 -0.15471 0.0225419 -0.140434 -0.149883 0.0185009 
-0.125213 -0.13276 0.00874463 -0.126117 -0.157722 0.0238454 -0.131431 -0.13316 0.00902376 
-0.136918 -0.153444 0.0207466 -0.118169 -0.150005 0.0252692 -0.142922 -0.132994 0.0109416 
-0.116396 -0.141207 0.00376404 -0.149995 -0.143703 0.0115734 -0.121107 -0.145015 0.00379697 
-0.130526 -0.159577 0.0255211 -0.11372 -0.154633 0.0152122 -0.104069 -0.147433 0.0222977 
-0.107558 -0.148195 0.0144645 -0.121395 -0.134368 0.0126332 -0.109284 -0.142339 0.0212217 
-0.1065 -0.146135 0.0252216 -0.134651 -0.158333 0.0248022 -0.129002 -0.142421 0.0209268 
-0.137618 -0.156984 0.0237445 -0.11105 -0.156919 0.0214584 -0.133349 -0.14394 0.00343176 
-0.12126 -0.15873 0.0228099 -0.151621 -0.139802 0.00723458 -0.11047 -0.152884 0.0138754 
-0.141652 -0.154518 0.0215546 -0.121598 -0.155789 0.0247359 -0.147078 -0.150154 0.0173646 
-0.125727 -0.135443 0.00398788 -0.137922 -0.149386 0.0120871 -0.122853 -0.158134 0.0197147 
-0.118843 -0.145711 0.0243088 -0.119622 -0.155241 0.0143404 -0.144972 -0.138515 0.015202 
-0.149953 -0.147581 0.0148358 -0.107275 -0.145097 0.0120699 -0.128684 -0.134666 0.0049489 
-0.141418 -0.156522 0.0238935 -0.135771 -0.131058 0.0100035 -0.0489163 -0.115798 0.013675 
-0.0588732 -0.113893 0.0111125 -0.0688148 -0.112738 0.0105095 -0.0559158 -0.121858 0.0188989 
-0.0424178 -0.120504 0.020435 -0.0643488 -0.120547 0.0168457 -0.0750678 -0.118345 0.0140286 
-0.0479732 -0.125512 0.0196841 -0.0776379 -0.111956 0.00900573 -0.0521967 -0.107152 0.00764977 
-0.0618123 -0.127541 0.0212628 -0.0713276 -0.123147 0.0174031 -0.0574146 -0.104008 0.00964432 
-0.0565121 -0.130226 0.0224393 -0.0635799 -0.104944 0.00970858 -0.0675694 -0.126593 0.019424 
-0.0492807 -0.122039 0.0247693 -0.0750815 -0.105905 0.0113034 -0.0478078 -0.111209 0.00418886 
-0.0812304 -0.117176 0.0107799 -0.0521777 -0.115381 0.00374892 -0.0607814 -0.132584 0.0238169 
-0.044243 -0.125351 0.0144731 -0.0353901 -0.118051 0.0224429 -0.0386362 -0.118384 0.0144763 
-0.0535559 -0.10564 0.0134828 -0.0409953 -0.113329 0.0216739 -0.0379837 -0.117229 0.0253996 
-0.0649812 -0.131626 0.0230932 -0.0606251 -0.115015 0.020808 -0.0680291 -0.130437 0.0220747 
-0.041521 -0.127966 0.0205658 -0.0644567 -0.115294 0.00312976 -0.0515657 -0.130731 0.0214582 
-0.0830901 -0.113044 0.00675938 -0.0411256 -0.123225 0.0133903 -0.0722108 -0.128124 0.0199975 
-0.0521937 -0.128015 0.0236269 -0.0778983 -0.123862 0.0160574 -0.0575974 -0.106281 0.00465562 
-0.0687314 -0.121863 0.0111333 -0.0531385 -0.12999 0.0183836 -0.0502962 -0.117747 0.0241746 
-0.0500518 -0.126364 0.013382 -0.0767447 -0.111941 0.0149967 -0.0809281 -0.121317 0.0136853 
-0.0385666 -0.115069 0.012375 -0.0606298 -0.105842 0.00559658 -0.0718569 -0.130306 0.0221552 
-0.0681027 -0.103306 0.0107461 
VERTICES 100 200
1 0 
1 1 
1 2 
1 3 
1 4 
1 5 
1 6 
1 7 
1 8 
1 9 
1 10 
1 11 
1 12 
1 13 
1 14 
1 15 
1 16 
1 17 
1 18 
1 19 
1 20 
1 21 
1 22 
1 23 
1 24 
1 25 
1 26 
1 27 
1 28 
1 29 
1 30 
1 31 
1 32 
1 33 
1 34 
1 35 
1 36 
1 37 
1 38 
1 39 
1 40 
1 41 
1 42 
1 43 
1 44 
1 45 
1 46 
1 47 
1 48 
1 49 
1 50 
1 51 
1 52 
1 53 
1 54 
1 55 
1 56 
1 57 
1 58 
1 59 
1 60 
1 61 
1 62 
1 63 
1 64 
1 65 
1 66 
1 67 
1 68 
1 69 
1 70 
1 71 
1 72 
1 73 
1 74 
1 75 
1 76 
1 77 
1 78 
1 79 
1 80 
1 81 
1 82 
1 83 
1 84 
1 85 
1 86 
1 87 
1 88 
1 89 
1 90 
1 91 
1 92 
1 93 
1 94 
1 95 
1 96 
1 97 
1 98 
1 99 

POINT_DATA 100
FIELD FieldData 7
id 1 100 int
1 2 3 4 5 6 7 8 9 
10 11 12 13 14 15 16 17 18 
19 20 21 22 23 24 25 26 27 
28 29 30 31 32 33 34 35 36 
37 38 39 40 41 42 43 44 45 
46 47 48 49 50 51 52 53 54 
55 56 57 58 59 60 61 62 63 
64 65 66 67 68 69 70 71 72 
73 74 75 76 77 78 79 80 81 
82 83 84 85 86 87 88 89 90 
91 92 93 94 95 96 97 98 99 
100 
mol 1 100 int
1 1 1 1 1 1 1 1 1 
1 1 1 1 1 1 1 1 1 
1 1 1 1 1 1 1 1 1 
1 1 1 1 1 1 1 1 1 
1 1 1 1 1 1 1 1 1 
1 1 1 1 1 2 2 2 2 
2 2 2 2 2 2 2 2 2 
2 2 2 2 2 2 2 2 2 
2 2 2 2 2 2 2 2 2 
2 2 2 2 2 2 2 2 2 
2 2 2 2 2 2 2 2 2 
2 
type 1 100 int
1 1 1 1 1 1 1 1 1 
1 1 1 1 1 1 1 1 1 
1 1 1 1 1 1 1 1 1 
1 1 1 1 1 1 1 1 1 
1 1 1 1 1 1 1 1 1 
1 1 1 1 1 1 1 1 1 
1 1 1 1 1 1 1 1 1 
1 1 1 1 1 1 1 1 1 
1 1 1 1 1 1 1 1 1 
1 1 1 1 1 1 1 1 1 
1 1 1 1 1 1 1 1 1 
1 
v 3 100 double
0.05392903638 -0.14259610567 -0.0083672700192 0.046793258782 -0.10611066706 0.055967609144 0.046557610852 -0.092523821047 0.11377763416 
0.071428960795 -0.20354525046 -0.037842234799 0.075790498694 -0.22729612975 -0.083687099161 0.065675524499 -0.17426065504 0.013432050544 
0.057848466497 -0.13417452367 0.084296911934 0.071447096907 -0.22046101725 -0.11366402387 0.042645402927 -0.069741253866 0.16154889813 
0.036186462123 -0.064247401187 0.095966765268 0.07835284101 -0.23240256213 -0.070833239702 0.067526804758 -0.17909765278 0.017557689924 
0.045825727698 -0.080817559768 0.1561932204 0.080664870966 -0.25131219598 -0.12355566858 0.046519738938 -0.078939430977 0.17434132848 
0.072830999824 -0.20741439838 -0.035643833513 0.092118797666 -0.27390433456 -0.065044696851 0.053650179052 -0.091365373672 0.21813465887 
0.020804618227 -0.03149473025 0.028242353159 0.047268256298 -0.092791726719 0.12250690672 0.017836322206 -0.028046878928 0.0022545194664 
0.085273716441 -0.2667377893 -0.1285020896 0.051677029195 -0.16347672448 -0.13375457004 0.08336471053 -0.25164748446 -0.087322456935 
0.054171911044 -0.15999609112 -0.083225112526 0.058707152501 -0.12800777287 0.12403424039 0.083571520173 -0.23521689547 -0.010538138272 
0.095084370416 -0.28283061003 -0.063733060446 0.083659662093 -0.2552402207 -0.099356944142 0.082429579511 -0.21587865154 0.060468578621 
0.080895254252 -0.24083988544 -0.073237991947 0.072608722178 -0.23646753763 -0.16941180187 0.017375838681 -0.01397534882 0.059101334507 
0.076069974481 -0.24351161618 -0.15270624396 0.034604939615 -0.042274657134 0.1726767028 0.04821861789 -0.15095431807 -0.12578271802 
0.074907086193 -0.21273600677 -0.030555066038 0.085481598263 -0.26507537538 -0.11811972822 0.063162425861 -0.16082510135 0.038725144363 
0.026297202429 -0.026464299841 0.12764665072 0.044532976827 -0.10840981659 0.014031117467 0.065262023148 -0.20712212679 -0.14013625926 
0.092098065021 -0.26246772826 -0.013900644894 0.048003761574 -0.14880422524 -0.11911658121 0.064713430945 -0.13801005941 0.16301280884 
0.05602390431 -0.12981845603 0.078381877011 0.047949054638 -0.13307347596 -0.049135398096 0.030432947611 -0.03496230215 0.14724222214 
0.081814093312 -0.23944664069 -0.054127681796 0.051798727169 -0.08652788266 0.21400883877 0.10655202288 -0.12186696362 -0.12043489926 
0.088775387243 -0.092178499507 -0.029286158074 0.08528728588 -0.077715887253 0.055918277037 0.14065131991 -0.15553149001 -0.11379760387 
0.15376369431 -0.18073649062 -0.20679986946 0.12619534983 -0.13129603663 -0.038952275112 0.10675813299 -0.098880802865 0.060348272195 
0.14307767019 -0.16944135095 -0.20307040142 0.074524006978 -0.057361186548 0.12964963272 0.068852165191 -0.071867771803 -0.028163973019 
0.15318818208 -0.16807946977 -0.11268986991 0.12791201812 -0.12875557645 -0.005608122612 0.08724237348 -0.082216707699 0.036262769571 
0.15956838783 -0.18242776598 -0.1741863478 0.086813751127 -0.076649325632 0.076274087422 0.14001910588 -0.14814108002 -0.061183588182 
0.1854920175 -0.20762943764 -0.16608957239 0.098098894949 -0.077712777816 0.15701839851 0.038319241346 -0.049320373378 -0.093313052061 
0.082994265468 -0.067598411973 0.11668462652 0.030840916773 -0.041605571211 -0.092182374717 0.16781369429 -0.18892103755 -0.15974523337 
0.10327284559 -0.13266051719 -0.23043197644 0.17157606204 -0.20323801429 -0.24165076984 0.11015305905 -0.13820202061 -0.21934242121 
0.11507324751 -0.11581028849 -0.0060010613781 0.17032483907 -0.19175395493 -0.16201393381 0.19505950706 -0.22363807675 -0.21538122462 
0.16320589012 -0.17917074205 -0.12010298111 0.16202477808 -0.16571730314 -0.024563415081 0.15656512566 -0.16826550281 -0.087497782528 
0.14742478302 -0.18263444045 -0.27160292963 0.026177943096 -0.024717530923 0.0026571221501 0.15154798682 -0.17967867185 -0.2160356931 
0.05622636586 -0.034558900857 0.16301619584 0.097060693225 -0.12732250761 -0.23783698876 0.14291058531 -0.14802599258 -0.037474549235 
0.1708523112 -0.19589587616 -0.19013516167 0.11688859228 -0.11184435401 0.039231918764 0.04674817318 -0.043311398377 0.020020870246 
0.081093417628 -0.082640471697 -0.015551662924 0.12869804051 -0.15426437649 -0.19822573999 0.18515510813 -0.20201386329 -0.12497907742 
0.093909623599 -0.11847558029 -0.19374294503 0.12048394659 -0.10474618007 0.12292117932 0.10120109164 -0.09044990005 0.082218098381 
0.097300091296 -0.12195886891 -0.19414339369 0.054396012393 -0.047631984766 0.046682514758 0.15731138588 -0.16512370118 -0.057122633385 
0.096381862596 -0.080252866092 0.12367427249 
f 3 100 double
0 0 0 0 0 0 0 0 0 
0 0 0 0 0 0 0 0 0 
0 0 0 0 0 0 0 0 0 
0 0 0 0 0 0 0 0 0 
0 0 0 0 0 0 0 0 0 
0 0 0 0 0 0 0 0 0 
-0.034027510669 -0.047462580994 0.1168001383 0 0 0 0 0 0 
0 0 0 0 0 0 0 0 0 
0 0 0 0 0 0 0 0 0 
0 0 0 0 0 0 0 0 0 
0 0 0 0 0 0 0 0 0 
0 0 0 0 0 0 0 0 0 
0 0 0 0 0 0 0 0 0 
0 0 0 0 0 0 0 0 0 
0 0 0 0 0 0 0 0 0 
0 0 0 0 0 0 0 0 0 
0 0 0 0 0 0 0 0 0 
0 0 0 0 0 0 0 0 0 
0 0 0 0 0 0 0 0 0 
0 0 0 0 0 0 0 0 0 
0 0 0 0 0 0 0 0 0 
0 0 0 0 0 0 0 0 0 
0 0 0 0 0 0 0 0 0 
0 0 0 0 0 0 0 0 0 
0 0 0 0 0 0 0 0 0 
0 0 0 0 0 0 0 0 0 
0 0 0 0 0 0 0 0 0 
0 0 0 0.039138845593 -0.015648053288 0.28466735877 0 0 0 
0 0 0 0 0 0 0 0 0 
0 0 0 0 0 0 0 0 0 
0 0 0 0 0 0 0 0 0 
0 0 0 0 0 0 0 0 0 
0 0 0 0 0 0 0 0 0 
0 0 0 
radius 1 100 double
0.010434 0.00981478 0.00892069 0.00845937 0.00731974 0.00728422 0.00643447 0.00619172 0.00585956 
0.00577566 0.00537241 0.00522549 0.00513666 0.00473175 0.00466912 0.00444866 0.00441894 0.00400812 
0.00385622 0.00379948 0.00370243 0.00366942 0.00364039 0.00363813 0.00363644 0.00358692 0.0035797 
0.00341284 0.00337012 0.00336273 0.00332772 0.00323261 0.00320584 0.00320311 0.00318808 0.00313116 
0.00306026 0.00305632 0.00304383 0.00300958 0.00300137 0.00298994 0.0029567 0.00295111 0.00290849 
0.00284552 0.00282964 0.0028207 0.00281971 0.00281899 0.010434 0.00981478 0.00892069 0.00845937 
0.00731974 0.00728422 0.00643447 0.00619172 0.00585956 0.00577566 0.00537241 0.00522549 0.00513666 
0.00473175 0.00466912 0.00444866 0.00441894 0.00400812 0.00385622 0.00379948 0.00370243 0.00366942 
0.00364039 0.00363813 0.00363644 0.00358692 0.0035797 0.00341284 0.00337012 0.00336273 0.00332772 
0.00323261 0.00320584 0.00320311 0.00318808 0.00313116 0.00306026 0.00305632 0.00304383 0.00300958 
0.00300137 0.00298994 0.0029567 0.00295111 0.00290849 0.00284552 0.00282964 0.0028207 0.00281971 
0.00281899 
omega 3 100 double
11.339044277 3.6479750512 -0.81114742593 11.339044277 3.6479750512 -0.81114742593 11.339044277 3.6479750512 -0.81114742593 
11.339044277 3.6479750512 -0.81114742593 11.339044277 3.6479750512 -0.81114742593 11.339044277 3.6479750512 -0.81114742593 
11.339044277 3.6479750512 -0.81114742593 11.339044277 3.6479750512 -0.81114742593 11.339044277 3.6479750512 -0.81114742593 
11.339044277 3.6479750512 -0.81114742593 11.339044277 3.6479750512 -0.81114742593 11.339044277 3.6479750512 -0.81114742593 
11.339044277 3.6479750512 -0.81114742593 11.339044277 3.6479750512 -0.81114742593 11.339044277 3.6479750512 -0.81114742593 
11.339044277 3.6479750512 -0.81114742593 11.339044277 3.6479750512 -0.81114742593 11.339044277 3.6479750512 -0.81114742593 
11.339044277 3.6479750512 -0.81114742593 11.339044277 3.6479750512 -0.81114742593 11.339044277 3.6479750512 -0.81114742593 
11.339044277 3.6479750512 -0.81114742593 11.339044277 3.6479750512 -0.81114742593 11.339044277 3.6479750512 -0.81114742593 
11.339044277 3.6479750512 -0.81114742593 11.339044277 3.6479750512 -0.81114742593 11.339044277 3.6479750512 -0.81114742593 
11.339044277 3.6479750512 -0.81114742593 11.339044277 3.6479750512 -0.81114742593 11.339044277 3.6479750512 -0.81114742593 
11.339044277 3.6479750512 -0.81114742593 11.339044277 3.6479750512 -0.81114742593 11.339044277 3.6479750512 -0.81114742593 
11.339044277 3.6479750512 -0.81114742593 11.339044277 3.6479750512 -0.81114742593 11.339044277 3.6479750512 -0.81114742593 
11.339044277 3.6479750512 -0.81114742593 11.339044277 3.6479750512 -0.81114742593 11.339044277 3.6479750512 -0.81114742593 
11.339044277 3.6479750512 -0.81114742593 11.339044277 3.6479750512 -0.81114742593 11.339044277 3.6479750512 -0.81114742593 
11.339044277 3.6479750512 -0.81114742593 11.339044277 3.6479750512 -0.81114742593 11.339044277 3.6479750512 -0.81114742593 
11.339044277 3.6479750512 -0.81114742593 11.339044277 3.6479750512 -0.81114742593 11.339044277 3.6479750512 -0.81114742593 
11.339044277 3.6479750512 -0.81114742593 11.339044277 3.6479750512 -0.81114742593 7.7626451501 7.6689058631 -0.98393374338 
7.7626451501 7.6689058631 -0.98393374338 7.7626451501 7.6689058631 -0.98393374338 7.7626451501 7.6689058631 -0.98393374338 
7.7626451501 7.6689058631 -0.98393374338 7.7626451501 7.6689058631 -0.98393374338 7.7626451501 7.6689058631 -0.98393374338 
7.7626451501 7.6689058631 -0.98393374338 7.7626451501 7.6689058631 -0.98393374338 7.7626451501 7.6689058631 -0.98393374338 
7.7626451501 7.6689058631 -0.98393374338 7.7626451501 7.6689058631 -0.98393374338 7.7626451501 7.6689058631 -0.98393374338 
7.7626451501 7.6689058631 -0.98393374338 7.7626451501 7.6689058631 -0.98393374338 7.7626451501 7.6689058631 -0.98393374338 
7.7626451501 7.6689058631 -0.98393374338 7.7626451501 7.6689058631 -0.98393374338 7.7626451501 7.6689058631 -0.98393374338 
7.7626451501 7.6689058631 -0.98393374338 7.7626451501 7.6689058631 -0.98393374338 7.7626451501 7.6689058631 -0.98393374338 
7.7626451501 7.6689058631 -0.98393374338 7.7626451501 7.6689058631 -0.98393374338 7.7626451501 7.6689058631 -0.98393374338 
7.7626451501 7.6689058631 -0.98393374338 7.7626451501 7.6689058631 -0.98393374338 7.7626451501 7.6689058631 -0.98393374338 
7.7626451501 7.6689058631 -0.98393374338 7.7626451501 7.6689058631 -0.98393374338 7.7626451501 7.6689058631 -0.98393374338 
7.7626451501 7.6689058631 -0.98393374338 7.7626451501 7.6689058631 -0.98393374338 7.7626451501 7.6689058631 -0.98393374338 
7.7626451501 7.6689058631 -0.98393374338 7.7626451501 7.6689058631 -0.98393374338 7.7626451501 7.6689058631 -0.98393374338 
7.7626451501 7.6689058631 -0.98393374338 7.7626451501 7.6689058631 -0.98393374338 7.7626451501 7.6689058631 -0.98393374338 
7.7626451501 7.6689058631 -0.98393374338 7.7626451501 7.6689058631 -0.98393374338 7.7626451501 7.6689058631 -0.98393374338 
7.7626451501 7.6689058631 -0.98393374338 7.7626451501 7.6689058631 -0.98393374338 7.7626451501 7.6689058631 -0.98393374338 
7.7626451501 7.6689058631 -0.98393374338 7.7626451501 7.6689058631 -0.98393374338 7.7626451501 7.6689058631 -0.98393374338 
7.7626451501 7.6689058631 -0.98393374338 
