# vtk DataFile Version 4.1
Generated by LIGGGHTS
ASCII
DATASET POLYDATA
POINTS 100 float
-0.112681 -0.131334 0.0235277 -0.122958 -0.132265 0.0218361 -0.132978 -0.132519 0.0221144 
-0.118322 -0.133176 0.0323479 -0.105116 -0.130134 0.0306966 -0.126972 -0.134122 0.0311943 
-0.138062 -0.135046 0.0292337 -0.109882 -0.134872 0.0340632 -0.141896 -0.13355 0.0217697 
-0.117625 -0.128802 0.0139901 -0.123119 -0.136471 0.0385757 -0.133423 -0.136288 0.0342703 
-0.123118 -0.125516 0.0143246 -0.117407 -0.137376 0.0403758 -0.129052 -0.12666 0.015865 
-0.129061 -0.137355 0.0374198 -0.111368 -0.129067 0.0359898 -0.140145 -0.127253 0.0193796 
-0.112905 -0.133785 0.0132217 -0.14453 -0.13669 0.0269172 -0.116609 -0.137594 0.0161305 
-0.121169 -0.138628 0.0435321 -0.106568 -0.137791 0.0294164 -0.098427 -0.126439 0.0296727 
-0.102098 -0.132024 0.0242452 -0.118814 -0.124025 0.0177215 -0.104723 -0.123738 0.0269595 
-0.100917 -0.12412 0.0318096 -0.125504 -0.138674 0.0429965 -0.123882 -0.127072 0.0302335 
-0.128757 -0.138644 0.0419207 -0.103088 -0.135701 0.0353232 -0.128773 -0.138855 0.0174066 
-0.112516 -0.138013 0.0392107 -0.147254 -0.13623 0.0215269 -0.103887 -0.136616 0.0268003 
-0.133368 -0.138515 0.039498 -0.113407 -0.134596 0.0392717 -0.139882 -0.138194 0.0346501 
-0.123279 -0.130454 0.0119426 -0.131467 -0.139107 0.0282765 -0.11438 -0.139526 0.0366206 
-0.113061 -0.126234 0.0330032 -0.112214 -0.139704 0.0300652 -0.140626 -0.129648 0.0262254 
-0.143412 -0.137987 0.0316872 -0.10267 -0.130819 0.0205533 -0.126275 -0.129748 0.0128365 
-0.132546 -0.138783 0.0424633 -0.133694 -0.125087 0.0163035 -0.0438027 -0.103541 0.0232697 
-0.0540355 -0.104475 0.0213322 -0.0640584 -0.104746 0.0213748 -0.0496444 -0.105455 0.0319423 
-0.0364082 -0.102382 0.0306215 -0.0582637 -0.106406 0.0305805 -0.0693034 -0.107331 0.0283553 
-0.0412441 -0.107151 0.0338419 -0.0729647 -0.105787 0.0208148 -0.0485261 -0.100947 0.0136378 
-0.0545799 -0.108801 0.0380328 -0.0647812 -0.108603 0.0334896 -0.0540317 -0.0976717 0.0138676 
-0.0489096 -0.109711 0.0399591 -0.0599978 -0.0988362 0.0152609 -0.0604917 -0.109686 0.0367323 
-0.0427836 -0.101362 0.035775 -0.0711686 -0.0994699 0.0185114 -0.0437821 -0.105918 0.0129439 
-0.0757125 -0.108968 0.0258768 -0.0475468 -0.109754 0.0157381 -0.0527422 -0.110991 0.0430177 
-0.0378177 -0.110031 0.0292528 -0.0297033 -0.0986703 0.0297804 -0.0332374 -0.104221 0.0242288 
-0.0498102 -0.0961991 0.0173746 -0.0359387 -0.095958 0.0269406 -0.032246 -0.0963702 0.0318753 
-0.0570633 -0.11104 0.0423808 -0.0551638 -0.0993443 0.0297428 -0.0602905 -0.111007 0.0412297 
-0.03448 -0.107979 0.035254 -0.0597345 -0.111041 0.016721 -0.0439918 -0.110333 0.0389039 
-0.0783115 -0.108473 0.0204278 -0.0350788 -0.108834 0.0267085 -0.0648443 -0.110867 0.038701 
-0.0448894 -0.106917 0.0389686 -0.0712444 -0.11052 0.033705 -0.0541284 -0.102593 0.0114471 
-0.0626814 -0.111376 0.027523 -0.0457929 -0.11183 0.0362602 -0.044411 -0.0985097 0.03277 
-0.0434742 -0.111957 0.029756 -0.0718057 -0.101915 0.0253268 -0.0747044 -0.110298 0.0306621 
-0.0337256 -0.10299 0.0205333 -0.0571455 -0.101897 0.0122759 -0.0640917 -0.111155 0.0416827 
-0.0646512 -0.0972725 0.0156023 
VERTICES 100 200
1 0 
1 1 
1 2 
1 3 
1 4 
1 5 
1 6 
1 7 
1 8 
1 9 
1 10 
1 11 
1 12 
1 13 
1 14 
1 15 
1 16 
1 17 
1 18 
1 19 
1 20 
1 21 
1 22 
1 23 
1 24 
1 25 
1 26 
1 27 
1 28 
1 29 
1 30 
1 31 
1 32 
1 33 
1 34 
1 35 
1 36 
1 37 
1 38 
1 39 
1 40 
1 41 
1 42 
1 43 
1 44 
1 45 
1 46 
1 47 
1 48 
1 49 
1 50 
1 51 
1 52 
1 53 
1 54 
1 55 
1 56 
1 57 
1 58 
1 59 
1 60 
1 61 
1 62 
1 63 
1 64 
1 65 
1 66 
1 67 
1 68 
1 69 
1 70 
1 71 
1 72 
1 73 
1 74 
1 75 
1 76 
1 77 
1 78 
1 79 
1 80 
1 81 
1 82 
1 83 
1 84 
1 85 
1 86 
1 87 
1 88 
1 89 
1 90 
1 91 
1 92 
1 93 
1 94 
1 95 
1 96 
1 97 
1 98 
1 99 

POINT_DATA 100
FIELD FieldData 7
id 1 100 int
1 2 3 4 5 6 7 8 9 
10 11 12 13 14 15 16 17 18 
19 20 21 22 23 24 25 26 27 
28 29 30 31 32 33 34 35 36 
37 38 39 40 41 42 43 44 45 
46 47 48 49 50 51 52 53 54 
55 56 57 58 59 60 61 62 63 
64 65 66 67 68 69 70 71 72 
73 74 75 76 77 78 79 80 81 
82 83 84 85 86 87 88 89 90 
91 92 93 94 95 96 97 98 99 
100 
mol 1 100 int
1 1 1 1 1 1 1 1 1 
1 1 1 1 1 1 1 1 1 
1 1 1 1 1 1 1 1 1 
1 1 1 1 1 1 1 1 1 
1 1 1 1 1 1 1 1 1 
1 1 1 1 1 2 2 2 2 
2 2 2 2 2 2 2 2 2 
2 2 2 2 2 2 2 2 2 
2 2 2 2 2 2 2 2 2 
2 2 2 2 2 2 2 2 2 
2 2 2 2 2 2 2 2 2 
2 
type 1 100 int
1 1 1 1 1 1 1 1 1 
1 1 1 1 1 1 1 1 1 
1 1 1 1 1 1 1 1 1 
1 1 1 1 1 1 1 1 1 
1 1 1 1 1 1 1 1 1 
1 1 1 1 1 1 1 1 1 
1 1 1 1 1 1 1 1 1 
1 1 1 1 1 1 1 1 1 
1 1 1 1 1 1 1 1 1 
1 1 1 1 1 1 1 1 1 
1 1 1 1 1 1 1 1 1 
1 
v 3 100 double
-0.11577309582 -0.061679418002 0.0376732907 -0.10357347728 -0.061532135339 -0.036522477894 -0.10545639141 -0.065104033176 -0.10760343996 
-0.17735503944 -0.080390558038 -0.0056183152453 -0.16664350778 -0.073206469673 0.093288189532 -0.16894111458 -0.080787532619 -0.068383603406 
-0.15484881118 -0.080368189692 -0.14829517118 -0.18892649832 -0.081140172052 0.050574111321 -0.10271633627 -0.06714174733 -0.17242228964 
-0.049345289141 -0.044791768979 0.0077292940033 -0.22023404032 -0.093849083509 -0.045763763933 -0.18995646244 -0.088671566427 -0.11800812648 
-0.052697579317 -0.047101070402 -0.024642206301 -0.23264209521 -0.095588427874 -0.0072636941345 -0.063202844859 -0.051868053436 -0.068653596593 
-0.21182221711 -0.093421000989 -0.089329759523 -0.20425899776 -0.085304112845 0.05129941542 -0.087784749356 -0.06200379968 -0.1479471615 
-0.042421689487 -0.041880702591 0.031371631698 -0.13803021676 -0.077862225644 -0.19703050681 -0.061761147449 -0.04861016039 -0.0020672546922 
-0.25449977845 -0.10281249079 -0.036181818631 -0.15530442691 -0.071178646636 0.06829781882 -0.16054875717 -0.069206103821 0.1475347474 
-0.12061867899 -0.059855835143 0.11090924822 -0.077081453578 -0.052345107109 0.0085563193463 -0.14225227658 -0.065883510482 0.10838622651 
-0.1763066325 -0.074079697543 0.1344642209 -0.25071194392 -0.10309328295 -0.066811661989 -0.16430839471 -0.077999438998 -0.033025042806 
-0.24314202404 -0.10200516796 -0.089672575769 -0.19755225672 -0.081510579431 0.096842461107 -0.070369314012 -0.054755071232 -0.090191437669 
-0.22424044508 -0.091860659892 0.025966094302 -0.10019346618 -0.06829708697 -0.21534050568 -0.13722904995 -0.065323522625 0.089447680917 
-0.22611230273 -0.098732019868 -0.12191107928 -0.22570523015 -0.092248064665 0.026277132328 -0.19205518269 -0.091360698342 -0.16718812655 
-0.034419114658 -0.042557822469 -0.035290934484 -0.1468745896 -0.076525007916 -0.10966200871 -0.20553411496 -0.087432726994 0.0099135087272 
-0.18407539974 -0.080059735871 0.044833271458 -0.1592955817 -0.074139801285 0.024832897989 -0.13529016715 -0.075346187091 -0.15595611912 
-0.17124337602 -0.086718643097 -0.19165770049 -0.094973563886 -0.052912620194 0.10919879336 -0.040930907765 -0.045188640951 -0.055036512694 
-0.24692222868 -0.10419916397 -0.11664013074 -0.066769286228 -0.054119746721 -0.098322926521 -0.11498956763 -0.061334664965 -0.010328584998 
-0.10127556099 -0.061026090978 -0.082908548298 -0.10148183758 -0.064374115172 -0.15278897609 -0.17439090104 -0.079555296722 -0.054361976308 
-0.16625126703 -0.072754789615 0.043030785655 -0.16465574239 -0.07980360328 -0.11580511776 -0.14895245575 -0.079216654174 -0.19395404414 
-0.18698516812 -0.080390014995 0.00058825244478 -0.097267013892 -0.066224562299 -0.21638926906 -0.049171019855 -0.044754266733 -0.038141013353 
-0.21545333338 -0.092622484068 -0.094815958561 -0.18407372119 -0.087401493643 -0.16504803076 -0.051829869386 -0.046981751904 -0.070083617838 
-0.22848918996 -0.094397706967 -0.057282437201 -0.061093144202 -0.05154811643 -0.113567363 -0.20616359295 -0.092103282806 -0.13739664327 
-0.20225204242 -0.084528669121 0.00082475203988 -0.083384244395 -0.061305577861 -0.19207486885 -0.042747681342 -0.041902063484 -0.01465834163 
-0.13126459995 -0.076643540666 -0.24139241686 -0.060836482834 -0.048386284063 -0.047930069981 -0.24924110563 -0.1014014909 -0.086217014527 
-0.15428439432 -0.070639467778 0.01888483339 -0.16163996572 -0.068986313244 0.096419285921 -0.12140651961 -0.059694343464 0.061517588229 
-0.076582739379 -0.052203100748 -0.038095670169 -0.14286922918 -0.065676768684 0.058365349273 -0.17688889797 -0.073756422964 0.083147947752 
-0.24481679796 -0.10161211009 -0.11621636062 -0.16115974882 -0.077216816094 -0.081065727789 -0.23686054036 -0.10049873944 -0.13848999285 
-0.19648885294 -0.080841217583 0.045846854494 -0.067219471432 -0.054209169059 -0.13470612297 -0.22098282384 -0.090809003109 -0.024414700351 
-0.093712656144 -0.067239851057 -0.25845021154 -0.13706466079 -0.064959706173 0.0400943469 -0.21940484938 -0.097226310346 -0.16974394796 
-0.22254418399 -0.091223369513 -0.024201622573 -0.18493911782 -0.089913976827 -0.21338875139 -0.033472165031 -0.042459484154 -0.080011094891 
-0.14187351401 -0.075491887981 -0.15573177269 -0.20219725691 -0.086422700486 -0.039697176962 -0.18238419286 -0.079406116008 -0.0050736702924 
-0.15713880766 -0.073430287524 -0.023887624816 -0.12975787064 -0.074335122968 -0.20108403505 -0.1639514769 -0.085317557892 -0.23691699264 
-0.096230719229 -0.052901235614 0.060454052049 -0.03943540228 -0.045002472039 -0.099584653503 -0.23994730428 -0.10259026959 -0.16507751341 
-0.063966144124 -0.053707667643 -0.14283223523 
f 3 100 double
0 0 0 0 0 0 0 0 0 
0 0 0 0 0 0 0 0 0 
0 0 0 0 0 0 0 0 0 
0 0 0 0 0 0 0 0 0 
0 0 0 0 0 0 0 0 0 
0 0 0 0 0 0 0 0 0 
0 0 0 0 0 0 0 0 0 
0 0 0 0 0 0 0 0 0 
0 0 0 0 0 0 0 0 0 
0 0 0 0 0 0 0 0 0 
0 0 0 0 0 0 0 0 0 
0 0 0 0 0 0 0 0 0 
0 0 0 0 0 0 0 0 0 
0 0 0 0 0 0 0 0 0 
0 0 0 0 0 0 0 0 0 
0 0 0 0 0 0 0 0 0 
0 0 0 0 0 0 0 0 0 
0 0 0 0 0 0 0 0 0 
0 0 0 0 0 0 0 0 0 
0 0 0 0 0 0 0 0 0 
0 0 0 0 0 0 0 0 0 
0 0 0 0 0 0 0 0 0 
0 0 0 0 0 0 0 0 0 
0 0 0 0 0 0 0 0 0 
0 0 0 0 0 0 0 0 0 
0 0 0 0 0 0 0 0 0 
0 0 0 0 0 0 0 0 0 
0 0 0 0 0 0 0 0 0 
0 0 0 0 0 0 0 0 0 
0 0 0 0 0 0 0 0 0 
0 0 0 0 0 0 0 0 0 
0 0 0 0 0 0 0 0 0 
0 0 0 0 0 0 0 0 0 
0 0 0 
radius 1 100 double
0.010434 0.00981478 0.00892069 0.00845937 0.00731974 0.00728422 0.00643447 0.00619172 0.00585956 
0.00577566 0.00537241 0.00522549 0.00513666 0.00473175 0.00466912 0.00444866 0.00441894 0.00400812 
0.00385622 0.00379948 0.00370243 0.00366942 0.00364039 0.00363813 0.00363644 0.00358692 0.0035797 
0.00341284 0.00337012 0.00336273 0.00332772 0.00323261 0.00320584 0.00320311 0.00318808 0.00313116 
0.00306026 0.00305632 0.00304383 0.00300958 0.00300137 0.00298994 0.0029567 0.00295111 0.00290849 
0.00284552 0.00282964 0.0028207 0.00281971 0.00281899 0.010434 0.00981478 0.00892069 0.00845937 
0.00731974 0.00728422 0.00643447 0.00619172 0.00585956 0.00577566 0.00537241 0.00522549 0.00513666 
0.00473175 0.00466912 0.00444866 0.00441894 0.00400812 0.00385622 0.00379948 0.00370243 0.00366942 
0.00364039 0.00363813 0.00363644 0.00358692 0.0035797 0.00341284 0.00337012 0.00336273 0.00332772 
0.00323261 0.00320584 0.00320311 0.00318808 0.00313116 0.00306026 0.00305632 0.00304383 0.00300958 
0.00300137 0.00298994 0.0029567 0.00295111 0.00290849 0.00284552 0.00282964 0.0028207 0.00281971 
0.00281899 
omega 3 100 double
1.9276592213 -7.0452704091 0.30296958188 1.9276592213 -7.0452704091 0.30296958188 1.9276592213 -7.0452704091 0.30296958188 
1.9276592213 -7.0452704091 0.30296958188 1.9276592213 -7.0452704091 0.30296958188 1.9276592213 -7.0452704091 0.30296958188 
1.9276592213 -7.0452704091 0.30296958188 1.9276592213 -7.0452704091 0.30296958188 1.9276592213 -7.0452704091 0.30296958188 
1.9276592213 -7.0452704091 0.30296958188 1.9276592213 -7.0452704091 0.30296958188 1.9276592213 -7.0452704091 0.30296958188 
1.9276592213 -7.0452704091 0.30296958188 1.9276592213 -7.0452704091 0.30296958188 1.9276592213 -7.0452704091 0.30296958188 
1.9276592213 -7.0452704091 0.30296958188 1.9276592213 -7.0452704091 0.30296958188 1.9276592213 -7.0452704091 0.30296958188 
1.9276592213 -7.0452704091 0.30296958188 1.9276592213 -7.0452704091 0.30296958188 1.9276592213 -7.0452704091 0.30296958188 
1.9276592213 -7.0452704091 0.30296958188 1.9276592213 -7.0452704091 0.30296958188 1.9276592213 -7.0452704091 0.30296958188 
1.9276592213 -7.0452704091 0.30296958188 1.9276592213 -7.0452704091 0.30296958188 1.9276592213 -7.0452704091 0.30296958188 
1.9276592213 -7.0452704091 0.30296958188 1.9276592213 -7.0452704091 0.30296958188 1.9276592213 -7.0452704091 0.30296958188 
1.9276592213 -7.0452704091 0.30296958188 1.9276592213 -7.0452704091 0.30296958188 1.9276592213 -7.0452704091 0.30296958188 
1.9276592213 -7.0452704091 0.30296958188 1.9276592213 -7.0452704091 0.30296958188 1.9276592213 -7.0452704091 0.30296958188 
1.9276592213 -7.0452704091 0.30296958188 1.9276592213 -7.0452704091 0.30296958188 1.9276592213 -7.0452704091 0.30296958188 
1.9276592213 -7.0452704091 0.30296958188 1.9276592213 -7.0452704091 0.30296958188 1.9276592213 -7.0452704091 0.30296958188 
1.9276592213 -7.0452704091 0.30296958188 1.9276592213 -7.0452704091 0.30296958188 1.9276592213 -7.0452704091 0.30296958188 
1.9276592213 -7.0452704091 0.30296958188 1.9276592213 -7.0452704091 0.30296958188 1.9276592213 -7.0452704091 0.30296958188 
1.9276592213 -7.0452704091 0.30296958188 1.9276592213 -7.0452704091 0.30296958188 1.8813009169 -6.9212052472 0.32604686327 
1.8813009169 -6.9212052472 0.32604686327 1.8813009169 -6.9212052472 0.32604686327 1.8813009169 -6.9212052472 0.32604686327 
1.8813009169 -6.9212052472 0.32604686327 1.8813009169 -6.9212052472 0.32604686327 1.8813009169 -6.9212052472 0.32604686327 
1.8813009169 -6.9212052472 0.32604686327 1.8813009169 -6.9212052472 0.32604686327 1.8813009169 -6.9212052472 0.32604686327 
1.8813009169 -6.9212052472 0.32604686327 1.8813009169 -6.9212052472 0.32604686327 1.8813009169 -6.9212052472 0.32604686327 
1.8813009169 -6.9212052472 0.32604686327 1.8813009169 -6.9212052472 0.32604686327 1.8813009169 -6.9212052472 0.32604686327 
1.8813009169 -6.9212052472 0.32604686327 1.8813009169 -6.9212052472 0.32604686327 1.8813009169 -6.9212052472 0.32604686327 
1.8813009169 -6.9212052472 0.32604686327 1.8813009169 -6.9212052472 0.32604686327 1.8813009169 -6.9212052472 0.32604686327 
1.8813009169 -6.9212052472 0.32604686327 1.8813009169 -6.9212052472 0.32604686327 1.8813009169 -6.9212052472 0.32604686327 
1.8813009169 -6.9212052472 0.32604686327 1.8813009169 -6.9212052472 0.32604686327 1.8813009169 -6.9212052472 0.32604686327 
1.8813009169 -6.9212052472 0.32604686327 1.8813009169 -6.9212052472 0.32604686327 1.8813009169 -6.9212052472 0.32604686327 
1.8813009169 -6.9212052472 0.32604686327 1.8813009169 -6.9212052472 0.32604686327 1.8813009169 -6.9212052472 0.32604686327 
1.8813009169 -6.9212052472 0.32604686327 1.8813009169 -6.9212052472 0.32604686327 1.8813009169 -6.9212052472 0.32604686327 
1.8813009169 -6.9212052472 0.32604686327 1.8813009169 -6.9212052472 0.32604686327 1.8813009169 -6.9212052472 0.32604686327 
1.8813009169 -6.9212052472 0.32604686327 1.8813009169 -6.9212052472 0.32604686327 1.8813009169 -6.9212052472 0.32604686327 
1.8813009169 -6.9212052472 0.32604686327 1.8813009169 -6.9212052472 0.32604686327 1.8813009169 -6.9212052472 0.32604686327 
1.8813009169 -6.9212052472 0.32604686327 1.8813009169 -6.9212052472 0.32604686327 1.8813009169 -6.9212052472 0.32604686327 
1.8813009169 -6.9212052472 0.32604686327 
