# vtk DataFile Version 4.1
Generated by LIGGGHTS
ASCII
DATASET POLYDATA
POINTS 100 float
-0.117199 -0.145992 0.0133626 -0.127075 -0.143202 0.0113557 -0.136892 -0.141164 0.011307 
-0.124407 -0.151411 0.0189914 -0.110777 -0.151269 0.0197638 -0.132791 -0.149351 0.0174097 
-0.143412 -0.146196 0.0151903 -0.11679 -0.15576 0.0193427 -0.145681 -0.139596 0.0102974 
-0.120029 -0.137078 0.00750105 -0.130644 -0.156549 0.0217016 -0.139932 -0.151318 0.0183663 
-0.124825 -0.133484 0.00977411 -0.125547 -0.159699 0.0225885 -0.131036 -0.133867 0.0101871 
-0.136388 -0.155089 0.0201852 -0.117495 -0.152193 0.0244812 -0.14247 -0.133801 0.0124274 
-0.11622 -0.141505 0.00381354 -0.149619 -0.144477 0.0122881 -0.120963 -0.145269 0.00363357 
-0.129925 -0.161668 0.0242113 -0.113359 -0.155925 0.0139303 -0.103457 -0.149455 0.0213662 
-0.107162 -0.149485 0.0135953 -0.120918 -0.13546 0.0133959 -0.108653 -0.144252 0.0208965 
-0.105797 -0.14841 0.0244608 -0.134057 -0.160339 0.0237209 -0.128373 -0.144179 0.021138 
-0.137039 -0.158881 0.0228707 -0.110543 -0.158781 0.0198698 -0.1332 -0.144087 0.00370336 
-0.120728 -0.160641 0.0213334 -0.151326 -0.14019 0.00836396 -0.11013 -0.154084 0.0126672 
-0.141108 -0.156201 0.0210232 -0.120989 -0.157883 0.0235246 -0.146605 -0.151442 0.0173935 
-0.12549 -0.135723 0.00481135 -0.137587 -0.150261 0.0119565 -0.122399 -0.159758 0.0183493 
-0.118156 -0.147826 0.0239296 -0.119287 -0.156413 0.0131701 -0.144455 -0.13967 0.0162289 
-0.149524 -0.148633 0.0151862 -0.106915 -0.146186 0.011482 -0.128414 -0.135017 0.00591929 
-0.140829 -0.158409 0.0231651 -0.13533 -0.131834 0.0114708 -0.0482233 -0.116771 0.0132854 
-0.058283 -0.114663 0.0113628 -0.0682354 -0.113446 0.0113377 -0.0549922 -0.123174 0.0184023 
-0.0414273 -0.121965 0.0193604 -0.0635084 -0.1217 0.0168689 -0.07434 -0.119276 0.0147516 
-0.0470421 -0.126893 0.0185289 -0.0771171 -0.112537 0.010333 -0.051746 -0.107707 0.0080652 
-0.0607982 -0.128998 0.0206423 -0.0704663 -0.124317 0.0175838 -0.0568407 -0.104702 0.0105361 
-0.0554623 -0.131774 0.0213592 -0.0630007 -0.105626 0.0108387 -0.0666333 -0.127908 0.0191638 
-0.0480771 -0.123792 0.0239084 -0.0744152 -0.106673 0.0129288 -0.0475568 -0.111515 0.00410923 
-0.0806483 -0.117862 0.0119045 -0.0519674 -0.115634 0.00358871 -0.0596723 -0.134215 0.0227743 
-0.0435724 -0.126367 0.0131643 -0.0342949 -0.119679 0.0211881 -0.0379316 -0.119431 0.0133888 
-0.0528072 -0.106615 0.0140518 -0.0399034 -0.114901 0.0210382 -0.0367348 -0.119065 0.024321 
-0.063897 -0.133198 0.0223302 -0.0595616 -0.116475 0.0210278 -0.0669843 -0.131931 0.0215518 
-0.0405688 -0.129419 0.0189116 -0.0642613 -0.115474 0.00358681 -0.0505733 -0.132218 0.0201005 
-0.0826797 -0.113449 0.0082875 -0.0404998 -0.124176 0.0120834 -0.0712497 -0.129466 0.0198555 
-0.0510778 -0.129664 0.0224867 -0.0770994 -0.124918 0.0165178 -0.0572824 -0.10661 0.00541263 
-0.0681748 -0.122591 0.0113012 -0.0522913 -0.131255 0.0171686 -0.0490954 -0.119466 0.0236739 
-0.0494337 -0.127285 0.0122929 -0.0759296 -0.112954 0.0162581 -0.0802274 -0.122203 0.0144872 
-0.0379461 -0.115974 0.0115295 -0.0602622 -0.106233 0.00653177 -0.0708027 -0.131797 0.0218312 
-0.0674573 -0.104057 0.0122138 
VERTICES 100 200
1 0 
1 1 
1 2 
1 3 
1 4 
1 5 
1 6 
1 7 
1 8 
1 9 
1 10 
1 11 
1 12 
1 13 
1 14 
1 15 
1 16 
1 17 
1 18 
1 19 
1 20 
1 21 
1 22 
1 23 
1 24 
1 25 
1 26 
1 27 
1 28 
1 29 
1 30 
1 31 
1 32 
1 33 
1 34 
1 35 
1 36 
1 37 
1 38 
1 39 
1 40 
1 41 
1 42 
1 43 
1 44 
1 45 
1 46 
1 47 
1 48 
1 49 
1 50 
1 51 
1 52 
1 53 
1 54 
1 55 
1 56 
1 57 
1 58 
1 59 
1 60 
1 61 
1 62 
1 63 
1 64 
1 65 
1 66 
1 67 
1 68 
1 69 
1 70 
1 71 
1 72 
1 73 
1 74 
1 75 
1 76 
1 77 
1 78 
1 79 
1 80 
1 81 
1 82 
1 83 
1 84 
1 85 
1 86 
1 87 
1 88 
1 89 
1 90 
1 91 
1 92 
1 93 
1 94 
1 95 
1 96 
1 97 
1 98 
1 99 

POINT_DATA 100
FIELD FieldData 7
id 1 100 int
1 2 3 4 5 6 7 8 9 
10 11 12 13 14 15 16 17 18 
19 20 21 22 23 24 25 26 27 
28 29 30 31 32 33 34 35 36 
37 38 39 40 41 42 43 44 45 
46 47 48 49 50 51 52 53 54 
55 56 57 58 59 60 61 62 63 
64 65 66 67 68 69 70 71 72 
73 74 75 76 77 78 79 80 81 
82 83 84 85 86 87 88 89 90 
91 92 93 94 95 96 97 98 99 
100 
mol 1 100 int
1 1 1 1 1 1 1 1 1 
1 1 1 1 1 1 1 1 1 
1 1 1 1 1 1 1 1 1 
1 1 1 1 1 1 1 1 1 
1 1 1 1 1 1 1 1 1 
1 1 1 1 1 2 2 2 2 
2 2 2 2 2 2 2 2 2 
2 2 2 2 2 2 2 2 2 
2 2 2 2 2 2 2 2 2 
2 2 2 2 2 2 2 2 2 
2 2 2 2 2 2 2 2 2 
2 
type 1 100 int
1 1 1 1 1 1 1 1 1 
1 1 1 1 1 1 1 1 1 
1 1 1 1 1 1 1 1 1 
1 1 1 1 1 1 1 1 1 
1 1 1 1 1 1 1 1 1 
1 1 1 1 1 1 1 1 1 
1 1 1 1 1 1 1 1 1 
1 1 1 1 1 1 1 1 1 
1 1 1 1 1 1 1 1 1 
1 1 1 1 1 1 1 1 1 
1 1 1 1 1 1 1 1 1 
1 
v 3 100 double
0.04345286008 -0.15198254248 -0.041150070191 0.040807525413 -0.11855176787 0.018341014869 0.042937612772 -0.10707161447 0.069258882265 
0.053551699336 -0.20686750017 -0.081064634991 0.055924507049 -0.23068255421 -0.11854407112 0.051312923976 -0.17984919723 -0.033996692397 
0.048464194159 -0.14321186682 0.031705628417 0.049714652987 -0.21927790055 -0.15150430398 0.041790129188 -0.085998295254 0.11197744375 
0.036578564831 -0.083316746221 0.066585098963 0.055597857681 -0.23021085007 -0.12060776514 0.051863840337 -0.18258681759 -0.035514052902 
0.04709841117 -0.10337976149 0.12050978959 0.054631586366 -0.24580096795 -0.17042484642 0.047855640018 -0.10107717432 0.13403364416 
0.052877317671 -0.20686379738 -0.087821918407 0.068418071481 -0.27592522159 -0.10961513657 0.054351496683 -0.11338119196 0.16754912787 
0.021077144152 -0.046344160757 0.0061918473911 0.042059815356 -0.10386090683 0.068713783541 0.01636816042 -0.03905047115 -0.02228813559 
0.057089999132 -0.25906248884 -0.17988562576 0.034015775015 -0.16260595405 -0.16318223939 0.062537979353 -0.25674606862 -0.11925870651 
0.040228574304 -0.16576392437 -0.10896948169 0.055279413464 -0.14821204686 0.087222172044 0.06698785375 -0.24570747819 -0.046200234986 
0.072573326249 -0.28872777499 -0.10086847455 0.057165092916 -0.24897844699 -0.15318068348 0.067761301125 -0.22644117892 0.01114274365 
0.056352029742 -0.23615462631 -0.12833673146 0.047860228876 -0.23212794533 -0.20318157645 0.017885471351 -0.02619896204 0.026010278235 
0.049984346273 -0.2371406244 -0.19476818171 0.03558615268 -0.058100307242 0.12152204792 0.032445542934 -0.15208458624 -0.15186119485 
0.054040982571 -0.21097269347 -0.086719899352 0.059337585995 -0.26134095608 -0.16319678803 0.048937147307 -0.16428045228 -0.017769056051 
0.030377311185 -0.047171322765 0.09738193228 0.034666978367 -0.11355675893 -0.030419108226 0.042413286742 -0.20192669803 -0.1801133394 
0.071701387819 -0.26902428407 -0.058910340738 0.031292369736 -0.14750553034 -0.15164797527 0.058711425061 -0.15365903926 0.10764139476 
0.045737943179 -0.13635874061 0.021986785799 0.037845191219 -0.1424187902 -0.07280550622 0.034339798445 -0.056298031324 0.1136541918 
0.057721975078 -0.23522352915 -0.1121943704 0.053800433753 -0.11064305941 0.16906633584 0.061795119282 -0.12915351617 -0.0039702543244 
0.05205282976 -0.10680494433 0.071500995194 0.05246180048 -0.10208824712 0.13813184404 0.087365209747 -0.17352030921 -0.02566720769 
0.093238147356 -0.18851036375 -0.089896498273 0.079502042919 -0.15547394992 0.035351197774 0.068820025007 -0.13097400178 0.1180487664 
0.086394066247 -0.17827577946 -0.10433951707 0.047283847969 -0.088776669289 0.19593797506 0.0368489106 -0.079192382107 0.099610798827 
0.097198046061 -0.19166204216 -0.047350287685 0.082299064693 -0.15896419588 0.049800130967 0.051943886439 -0.099794461882 0.15579190151 
0.099934221231 -0.20070937219 -0.10274496916 0.053209864807 -0.09982281201 0.18148085675 0.089467367061 -0.17533235468 -0.0047960428263 
0.1177064511 -0.22765922541 -0.069849326221 0.064361374595 -0.11404843123 0.23525781752 0.013134132166 -0.044421022942 0.041029961965 
0.053624073261 -0.10174859384 0.16623009659 0.0083837466016 -0.037610380005 0.027388137574 0.10670422922 -0.21192610815 -0.10194837926 
0.056798233184 -0.13012698496 -0.11876287093 0.10443201329 -0.20866018162 -0.10837182115 0.061171587325 -0.13474836726 -0.085853454793 
0.070632728182 -0.13419015451 0.11563522896 0.10575105704 -0.20474468569 -0.032911790088 0.12213062284 -0.23659279835 -0.08912084569 
0.10469243938 -0.2059069432 -0.069031599346 0.1049840385 -0.1957917851 0.06181932315 0.10093457208 -0.19730331368 -0.040127954531 
0.087384099111 -0.18473846397 -0.16374643392 0.0084449715698 -0.032054029722 0.097230477386 0.09273432444 -0.19124777934 -0.1340476486 
0.035498276457 -0.067315665073 0.21842719804 0.05177441233 -0.12149496466 -0.11554716926 0.092612089759 -0.17966218358 0.0064413432094 
0.10715521062 -0.21313295115 -0.10756879227 0.076099722607 -0.14609684627 0.081114934553 0.022592196055 -0.052117518251 0.14056597906 
0.048138616604 -0.1017779008 0.053042430037 0.07686413473 -0.16330522237 -0.1155686396 0.11835154847 -0.22502708306 -0.024091822788 
0.051538375333 -0.1194105501 -0.094673711474 0.080045550201 -0.14421743464 0.18547139704 0.066031162818 -0.12587125159 0.12367109719 
0.05238982953 -0.11751268794 -0.053735176586 0.028985643178 -0.061145761032 0.16063036644 0.10254827139 -0.19817135754 -0.017651502358 
0.061564095778 -0.1105577592 0.22080885645 
f 3 100 double
0 0 0 0 0 0 0 0 0 
0 0 0 0 0 0 0 0 0 
0 0 0 0 0 0 0 0 0 
0 0 0 0 0 0 0 0 0 
0 0 0 0 0 0 0 0 0 
0 0 0 0 0 0 0 0 0 
-0.041184428429 -0.0055690577491 0.083118506946 0 0 0 -0.12066170803 -0.074564676125 0.53941644124 
0 0 0 0 0 0 0 0 0 
0 0 0 0 0 0 0 0 0 
0 0 0 0 0 0 0 0 0 
0 0 0 0 0 0 0 0 0 
0 0 0 0 0 0 0 0 0 
0 0 0 0 0 0 0 0 0 
0 0 0 0 0 0 0 0 0 
0 0 0 0 0 0 0 0 0 
0 0 0 0 0 0 0 0 0 
0 0 0 0 0 0 0 0 0 
0 0 0 0 0 0 0 0 0 
0 0 0 0 0 0 0 0 0 
0 0 0 0 0 0 0 0 0 
0 0 0 0 0 0 0 0 0 
0 0 0 0 0 0 0 0 0 
0 0 0 0 0 0 0 0 0 
0 0 0 0.006236849598 -0.020478190293 0.27048535832 0 0 0 
0 0 0 0 0 0 0 0 0 
0 0 0 0 0 0 0 0 0 
0 0 0 0 0 0 0 0 0 
0 0 0 0 0 0 0 0 0 
0 0 0 0 0 0 0 0 0 
0 0 0 0 0 0 0 0 0 
0 0 0 0 0 0 0 0 0 
0 0 0 0 0 0 0 0 0 
0 0 0 0 0 0 0 0 0 
0 0 0 
radius 1 100 double
0.010434 0.00981478 0.00892069 0.00845937 0.00731974 0.00728422 0.00643447 0.00619172 0.00585956 
0.00577566 0.00537241 0.00522549 0.00513666 0.00473175 0.00466912 0.00444866 0.00441894 0.00400812 
0.00385622 0.00379948 0.00370243 0.00366942 0.00364039 0.00363813 0.00363644 0.00358692 0.0035797 
0.00341284 0.00337012 0.00336273 0.00332772 0.00323261 0.00320584 0.00320311 0.00318808 0.00313116 
0.00306026 0.00305632 0.00304383 0.00300958 0.00300137 0.00298994 0.0029567 0.00295111 0.00290849 
0.00284552 0.00282964 0.0028207 0.00281971 0.00281899 0.010434 0.00981478 0.00892069 0.00845937 
0.00731974 0.00728422 0.00643447 0.00619172 0.00585956 0.00577566 0.00537241 0.00522549 0.00513666 
0.00473175 0.00466912 0.00444866 0.00441894 0.00400812 0.00385622 0.00379948 0.00370243 0.00366942 
0.00364039 0.00363813 0.00363644 0.00358692 0.0035797 0.00341284 0.00337012 0.00336273 0.00332772 
0.00323261 0.00320584 0.00320311 0.00318808 0.00313116 0.00306026 0.00305632 0.00304383 0.00300958 
0.00300137 0.00298994 0.0029567 0.00295111 0.00290849 0.00284552 0.00282964 0.0028207 0.00281971 
0.00281899 
omega 3 100 double
11.176911306 2.8666211096 -1.1138928328 11.176911306 2.8666211096 -1.1138928328 11.176911306 2.8666211096 -1.1138928328 
11.176911306 2.8666211096 -1.1138928328 11.176911306 2.8666211096 -1.1138928328 11.176911306 2.8666211096 -1.1138928328 
11.176911306 2.8666211096 -1.1138928328 11.176911306 2.8666211096 -1.1138928328 11.176911306 2.8666211096 -1.1138928328 
11.176911306 2.8666211096 -1.1138928328 11.176911306 2.8666211096 -1.1138928328 11.176911306 2.8666211096 -1.1138928328 
11.176911306 2.8666211096 -1.1138928328 11.176911306 2.8666211096 -1.1138928328 11.176911306 2.8666211096 -1.1138928328 
11.176911306 2.8666211096 -1.1138928328 11.176911306 2.8666211096 -1.1138928328 11.176911306 2.8666211096 -1.1138928328 
11.176911306 2.8666211096 -1.1138928328 11.176911306 2.8666211096 -1.1138928328 11.176911306 2.8666211096 -1.1138928328 
11.176911306 2.8666211096 -1.1138928328 11.176911306 2.8666211096 -1.1138928328 11.176911306 2.8666211096 -1.1138928328 
11.176911306 2.8666211096 -1.1138928328 11.176911306 2.8666211096 -1.1138928328 11.176911306 2.8666211096 -1.1138928328 
11.176911306 2.8666211096 -1.1138928328 11.176911306 2.8666211096 -1.1138928328 11.176911306 2.8666211096 -1.1138928328 
11.176911306 2.8666211096 -1.1138928328 11.176911306 2.8666211096 -1.1138928328 11.176911306 2.8666211096 -1.1138928328 
11.176911306 2.8666211096 -1.1138928328 11.176911306 2.8666211096 -1.1138928328 11.176911306 2.8666211096 -1.1138928328 
11.176911306 2.8666211096 -1.1138928328 11.176911306 2.8666211096 -1.1138928328 11.176911306 2.8666211096 -1.1138928328 
11.176911306 2.8666211096 -1.1138928328 11.176911306 2.8666211096 -1.1138928328 11.176911306 2.8666211096 -1.1138928328 
11.176911306 2.8666211096 -1.1138928328 11.176911306 2.8666211096 -1.1138928328 11.176911306 2.8666211096 -1.1138928328 
11.176911306 2.8666211096 -1.1138928328 11.176911306 2.8666211096 -1.1138928328 11.176911306 2.8666211096 -1.1138928328 
11.176911306 2.8666211096 -1.1138928328 11.176911306 2.8666211096 -1.1138928328 9.2666811883 5.5610308201 -0.45053455426 
9.2666811883 5.5610308201 -0.45053455426 9.2666811883 5.5610308201 -0.45053455426 9.2666811883 5.5610308201 -0.45053455426 
9.2666811883 5.5610308201 -0.45053455426 9.2666811883 5.5610308201 -0.45053455426 9.2666811883 5.5610308201 -0.45053455426 
9.2666811883 5.5610308201 -0.45053455426 9.2666811883 5.5610308201 -0.45053455426 9.2666811883 5.5610308201 -0.45053455426 
9.2666811883 5.5610308201 -0.45053455426 9.2666811883 5.5610308201 -0.45053455426 9.2666811883 5.5610308201 -0.45053455426 
9.2666811883 5.5610308201 -0.45053455426 9.2666811883 5.5610308201 -0.45053455426 9.2666811883 5.5610308201 -0.45053455426 
9.2666811883 5.5610308201 -0.45053455426 9.2666811883 5.5610308201 -0.45053455426 9.2666811883 5.5610308201 -0.45053455426 
9.2666811883 5.5610308201 -0.45053455426 9.2666811883 5.5610308201 -0.45053455426 9.2666811883 5.5610308201 -0.45053455426 
9.2666811883 5.5610308201 -0.45053455426 9.2666811883 5.5610308201 -0.45053455426 9.2666811883 5.5610308201 -0.45053455426 
9.2666811883 5.5610308201 -0.45053455426 9.2666811883 5.5610308201 -0.45053455426 9.2666811883 5.5610308201 -0.45053455426 
9.2666811883 5.5610308201 -0.45053455426 9.2666811883 5.5610308201 -0.45053455426 9.2666811883 5.5610308201 -0.45053455426 
9.2666811883 5.5610308201 -0.45053455426 9.2666811883 5.5610308201 -0.45053455426 9.2666811883 5.5610308201 -0.45053455426 
9.2666811883 5.5610308201 -0.45053455426 9.2666811883 5.5610308201 -0.45053455426 9.2666811883 5.5610308201 -0.45053455426 
9.2666811883 5.5610308201 -0.45053455426 9.2666811883 5.5610308201 -0.45053455426 9.2666811883 5.5610308201 -0.45053455426 
9.2666811883 5.5610308201 -0.45053455426 9.2666811883 5.5610308201 -0.45053455426 9.2666811883 5.5610308201 -0.45053455426 
9.2666811883 5.5610308201 -0.45053455426 9.2666811883 5.5610308201 -0.45053455426 9.2666811883 5.5610308201 -0.45053455426 
9.2666811883 5.5610308201 -0.45053455426 9.2666811883 5.5610308201 -0.45053455426 9.2666811883 5.5610308201 -0.45053455426 
9.2666811883 5.5610308201 -0.45053455426 
