# vtk DataFile Version 4.1
Generated by LIGGGHTS
ASCII
DATASET POLYDATA
POINTS 100 float
-0.119638 -0.136409 0.0184808 -0.128556 -0.136528 0.0130216 -0.137973 -0.136375 0.0095823 
-0.128056 -0.139658 0.0241017 -0.115252 -0.136959 0.0279955 -0.135656 -0.139969 0.0197209 
-0.145232 -0.139991 0.0137225 -0.120781 -0.142035 0.0284002 -0.146116 -0.136912 0.00582409 
-0.120826 -0.131864 0.00849373 -0.1347 -0.143869 0.0273841 -0.14272 -0.142391 0.0197525 
-0.126154 -0.128457 0.00744487 -0.130016 -0.145363 0.030923 -0.132205 -0.129606 0.00646606 
-0.139781 -0.144242 0.0239979 -0.123033 -0.136648 0.0307523 -0.143793 -0.130359 0.00551783 
-0.116012 -0.136816 0.0085332 -0.150356 -0.140863 0.00893915 -0.120412 -0.140941 0.00908927 
-0.134634 -0.147027 0.0321844 -0.115916 -0.144151 0.0248013 -0.10876 -0.133445 0.0302188 
-0.110033 -0.137705 0.022847 -0.123433 -0.127847 0.0123956 -0.113704 -0.129987 0.0259882 
-0.111923 -0.13147 0.0317142 -0.13847 -0.146772 0.0301115 -0.132632 -0.133014 0.0213507 
-0.141105 -0.146388 0.0279549 -0.114896 -0.143399 0.0318554 -0.132159 -0.141869 0.00558213 
-0.125022 -0.145986 0.0315153 -0.150936 -0.139249 0.00312954 -0.1125 -0.142617 0.0236235 
-0.144515 -0.145584 0.0240973 -0.125971 -0.142607 0.0319165 -0.148814 -0.144038 0.0173767 
-0.125292 -0.132831 0.00424953 -0.13863 -0.144088 0.0144526 -0.125767 -0.146885 0.028182 
-0.123598 -0.133219 0.0279719 -0.121352 -0.145894 0.0229646 -0.146673 -0.134004 0.0111082 
-0.151022 -0.143104 0.0134355 -0.109251 -0.135787 0.0195127 -0.128426 -0.132175 0.0041128 
-0.144826 -0.146455 0.027044 -0.136729 -0.127937 0.00548618 -0.0507582 -0.108657 0.0186992 
-0.0596625 -0.10875 0.0132183 -0.0690766 -0.108701 0.00976788 -0.059074 -0.112479 0.0241071 
-0.0463651 -0.109601 0.0281799 -0.0666565 -0.112783 0.0196956 -0.0762218 -0.112771 0.0136799 
-0.0517316 -0.114863 0.0282851 -0.0771951 -0.109283 0.00596386 -0.0520799 -0.103599 0.00897902 
-0.0655847 -0.117074 0.0271311 -0.0736406 -0.115425 0.0195728 -0.0575119 -0.100309 0.00810828 
-0.0608596 -0.118616 0.0305932 -0.0635227 -0.101591 0.00705063 -0.0706484 -0.117417 0.0237157 
-0.0541547 -0.10969 0.030929 -0.0750806 -0.102653 0.00603096 -0.0471117 -0.108391 0.00875413 
-0.0813119 -0.113534 0.00884169 -0.0513798 -0.112678 0.00906677 -0.0654235 -0.120493 0.0317473 
-0.0467993 -0.11662 0.0245864 -0.0399892 -0.106014 0.0306135 -0.0411206 -0.109893 0.0230116 
-0.0548155 -0.0998908 0.0130926 -0.0450365 -0.102482 0.02657 -0.0432149 -0.104227 0.0322087 
-0.0692642 -0.120243 0.0296816 -0.0638548 -0.105839 0.0217201 -0.0719078 -0.119821 0.027543 
-0.0458096 -0.116233 0.0316742 -0.063089 -0.113777 0.00548199 -0.0558484 -0.119114 0.031163 
-0.0819367 -0.111616 0.00312995 -0.0434323 -0.114916 0.0235054 -0.0753374 -0.11891 0.0237274 
-0.0569039 -0.115795 0.0317501 -0.0796778 -0.117127 0.0170924 -0.0565091 -0.104468 0.00467547 
-0.0694943 -0.116693 0.0141971 -0.056562 -0.119848 0.0277827 -0.0548255 -0.10613 0.0283434 
-0.0521756 -0.118428 0.0226406 -0.0778493 -0.106695 0.0114009 -0.0819104 -0.116043 0.0132038 
-0.0403971 -0.107767 0.019792 -0.0596625 -0.103903 0.00456736 -0.0756235 -0.119955 0.0266198 
-0.0680965 -0.100012 0.00615369 
VERTICES 100 200
1 0 
1 1 
1 2 
1 3 
1 4 
1 5 
1 6 
1 7 
1 8 
1 9 
1 10 
1 11 
1 12 
1 13 
1 14 
1 15 
1 16 
1 17 
1 18 
1 19 
1 20 
1 21 
1 22 
1 23 
1 24 
1 25 
1 26 
1 27 
1 28 
1 29 
1 30 
1 31 
1 32 
1 33 
1 34 
1 35 
1 36 
1 37 
1 38 
1 39 
1 40 
1 41 
1 42 
1 43 
1 44 
1 45 
1 46 
1 47 
1 48 
1 49 
1 50 
1 51 
1 52 
1 53 
1 54 
1 55 
1 56 
1 57 
1 58 
1 59 
1 60 
1 61 
1 62 
1 63 
1 64 
1 65 
1 66 
1 67 
1 68 
1 69 
1 70 
1 71 
1 72 
1 73 
1 74 
1 75 
1 76 
1 77 
1 78 
1 79 
1 80 
1 81 
1 82 
1 83 
1 84 
1 85 
1 86 
1 87 
1 88 
1 89 
1 90 
1 91 
1 92 
1 93 
1 94 
1 95 
1 96 
1 97 
1 98 
1 99 

POINT_DATA 100
FIELD FieldData 7
id 1 100 int
1 2 3 4 5 6 7 8 9 
10 11 12 13 14 15 16 17 18 
19 20 21 22 23 24 25 26 27 
28 29 30 31 32 33 34 35 36 
37 38 39 40 41 42 43 44 45 
46 47 48 49 50 51 52 53 54 
55 56 57 58 59 60 61 62 63 
64 65 66 67 68 69 70 71 72 
73 74 75 76 77 78 79 80 81 
82 83 84 85 86 87 88 89 90 
91 92 93 94 95 96 97 98 99 
100 
mol 1 100 int
1 1 1 1 1 1 1 1 1 
1 1 1 1 1 1 1 1 1 
1 1 1 1 1 1 1 1 1 
1 1 1 1 1 1 1 1 1 
1 1 1 1 1 1 1 1 1 
1 1 1 1 1 2 2 2 2 
2 2 2 2 2 2 2 2 2 
2 2 2 2 2 2 2 2 2 
2 2 2 2 2 2 2 2 2 
2 2 2 2 2 2 2 2 2 
2 2 2 2 2 2 2 2 2 
2 
type 1 100 int
1 1 1 1 1 1 1 1 1 
1 1 1 1 1 1 1 1 1 
1 1 1 1 1 1 1 1 1 
1 1 1 1 1 1 1 1 1 
1 1 1 1 1 1 1 1 1 
1 1 1 1 1 1 1 1 1 
1 1 1 1 1 1 1 1 1 
1 1 1 1 1 1 1 1 1 
1 1 1 1 1 1 1 1 1 
1 1 1 1 1 1 1 1 1 
1 1 1 1 1 1 1 1 1 
1 
v 3 100 double
-0.054367168932 -0.14045076381 0.051631866058 -0.047277179624 -0.099730332789 0.03916725031 -0.042665554803 -0.071656613168 0.027788481151 
-0.063814235854 -0.17116770853 0.0197293156 -0.067205686461 -0.20431559658 0.053860487208 -0.058262293637 -0.13820799113 0.0077578348238 
-0.050403307024 -0.093607087502 -0.0049538514571 -0.070970140261 -0.20339131797 0.014020286629 -0.038075047747 -0.042347624716 0.013651383688 
-0.038363687851 -0.075590889826 0.079247058927 -0.070804513613 -0.18800421332 -0.016018846588 -0.059846575888 -0.13391149773 -0.017061239716 
-0.034817155944 -0.065465023294 0.094120163046 -0.076401159875 -0.21370192866 -0.019462667986 -0.034264132793 -0.055328288302 0.078804377148 
-0.066597673295 -0.16303281376 -0.025083801391 -0.070626186243 -0.21705434008 0.04564180192 -0.033499047741 -0.041860956092 0.058762242242 
-0.041569314153 -0.078910677562 0.053784078688 -0.044679854731 -0.059640797227 -0.017271217814 -0.044926909761 -0.07967727086 0.021528290582 
-0.079116704564 -0.21885746527 -0.036204020245 -0.067594244756 -0.18339006074 0.0068236207336 -0.067885492694 -0.22272085008 0.084937575837 
-0.060923485749 -0.17459364224 0.055920099792 -0.040926111401 -0.098974957708 0.10161228497 -0.060130210218 -0.19241733763 0.10064346237 
-0.068590430296 -0.2303041765 0.0934606654 -0.076233565568 -0.20310836549 -0.039603922671 -0.05597170247 -0.1505954963 0.056367744096 
-0.073157805662 -0.18758810714 -0.040591152446 -0.07637407335 -0.22931743885 0.01298916944 -0.040914750274 -0.049683924273 0.00015275303909 
-0.077574974174 -0.22068462636 -0.01690230623 -0.036026888073 -0.021982165644 -0.0076757885253 -0.065071410741 -0.17800613565 0.021152329155 
-0.067582492711 -0.16065593025 -0.039906167917 -0.075949793433 -0.22265560508 0.0035367271752 -0.057777058473 -0.11478034725 -0.035629644075 
-0.033409183539 -0.045504556109 0.067176196723 -0.053971127338 -0.10249832197 -0.022585691307 -0.073772848594 -0.19881508434 -0.023653696771 
-0.064792324789 -0.19884791158 0.06691340567 -0.066293642377 -0.16813887869 -0.011497923014 -0.043158293813 -0.075908763128 0.031585405533 
-0.052009124611 -0.088077011776 -0.032531986896 -0.055324991587 -0.15368984344 0.069261365769 -0.032811603469 -0.0426306002 0.067275831586 
-0.072005414437 -0.17937140083 -0.045910322258 -0.031914751054 -0.046157228229 0.083581006288 -0.054474022514 -0.12442021269 0.027382174271 
-0.05504795363 -0.088404354523 0.027703416493 -0.055481037189 -0.068275806802 0.029170342927 -0.051293261164 -0.17137985749 -0.00091558805235 
-0.05274349798 -0.19407226789 0.019648213326 -0.05160206505 -0.14266868762 -0.0023640641321 -0.052308517253 -0.10300040959 -0.0011584633334 
-0.049215850465 -0.19846309608 -0.020020479271 -0.055533703966 -0.044574256684 0.02565648224 -0.058980799281 -0.050881989364 0.06626052087 
-0.047872771315 -0.1988813057 -0.035341279561 -0.049851907605 -0.1463942809 -0.021775950054 -0.061280120893 -0.047843979475 0.092085998753 
-0.046440909448 -0.22223221274 -0.047695722283 -0.060546463929 -0.043761624645 0.082968128828 -0.048040183108 -0.17611505943 -0.037377528255 
-0.052364870252 -0.22032446641 0.019869237879 -0.059954819087 -0.043675558323 0.076172149499 -0.055805759758 -0.045841361454 0.028994723805 
-0.052360536761 -0.069358022028 -0.0064066891409 -0.05290592366 -0.051086167818 -0.0033300694582 -0.045053435479 -0.234116892 -0.061533362444 
-0.048471420693 -0.16684992062 -0.034044541164 -0.054857012166 -0.20844606966 0.04636891631 -0.053148095662 -0.1509987503 0.016802597945 
-0.06098080043 -0.084204392256 0.094972012492 -0.057685843677 -0.18085906383 0.073998562191 -0.055865899603 -0.22281376976 0.06042808459 
-0.045459931262 -0.22086717676 -0.05917615928 -0.05600605319 -0.15629737222 0.050479037864 -0.045990063358 -0.20625918967 -0.05563788375 
-0.047907646267 -0.22045533077 -0.031193674426 -0.05258757682 -0.031461839492 -0.010387929012 -0.04604267862 -0.22324698932 -0.052083681631 
-0.054304138808 -0.02604444739 0.0083450053936 -0.049735242879 -0.15632393953 -0.021388076632 -0.047041450178 -0.17933640748 -0.048264700128 
-0.048191724688 -0.22844735484 -0.026549368323 -0.049002816252 -0.13143619303 -0.03410620876 -0.058900257113 -0.020891448079 0.060127371653 
-0.049628732557 -0.10246631035 -0.031965103855 -0.045944425568 -0.19784280262 -0.057623068143 -0.055043402391 -0.20097616112 0.047207502555 
-0.047489806069 -0.15554374877 -0.047259270999 -0.05663196541 -0.086639056737 0.045551601998 -0.050177839383 -0.10315513898 -0.025551952771 
-0.054942010931 -0.12586510509 0.032996946992 -0.059289648256 -0.022170236709 0.064812460328 -0.046007803668 -0.20167296426 -0.056231286765 
-0.061704951748 -0.039949707967 0.095583706709 
f 3 100 double
0 0 0 0 0 0 0 0 0 
0 0 0 0 0 0 0 0 0 
0 0 0 0 0 0 0.0045914993535 0.00073157283109 -0.0092988311352 
0 0 0 0 0 0 0 0 0 
0 0 0 0 0 0 0 0 0 
0 0 0 0 0 0 0 0 0 
0 0 0 0 0 0 0 0 0 
0 0 0 0 0 0 0 0 0 
0 0 0 0 0 0 0 0 0 
0 0 0 0 0 0 0 0 0 
0 0 0 0 0 0 0 0 0 
0 0 0 0.14541833057 -0.0015094410749 0.29085232871 0 0 0 
0 0 0 0 0 0 0 0 0 
0 0 0 0 0 0 0 0 0 
0 0 0 0 0 0 0 0 0 
0 0 0 0 0 0 0 0 0 
0 0 0 0 0 0 0 0 0 
0 0 0 0 0 0 0 0 0 
0 0 0 0 0 0 0 0 0 
0 0 0 0 0 0 0 0 0 
0 0 0 0 0 0 0 0 0 
0 0 0 0 0 0 0 0 0 
0 0 0 0 0 0 0 0 0 
0 0 0 0 0 0 0 0 0 
0 0 0 0 0 0 0 0 0 
0 0 0 0 0 0 0 0 0 
0 0 0 0 0 0 0 0 0 
0 0 0 0 0 0 0 0 0 
0.061509794067 0.0021964403446 0.12309799537 0 0 0 0 0 0 
0 0 0 0 0 0 0 0 0 
0 0 0 0 0 0 0 0 0 
0 0 0 0 0 0 0 0 0 
0 0 0 0 0 0 0 0 0 
0 0 0 
radius 1 100 double
0.010434 0.00981478 0.00892069 0.00845937 0.00731974 0.00728422 0.00643447 0.00619172 0.00585956 
0.00577566 0.00537241 0.00522549 0.00513666 0.00473175 0.00466912 0.00444866 0.00441894 0.00400812 
0.00385622 0.00379948 0.00370243 0.00366942 0.00364039 0.00363813 0.00363644 0.00358692 0.0035797 
0.00341284 0.00337012 0.00336273 0.00332772 0.00323261 0.00320584 0.00320311 0.00318808 0.00313116 
0.00306026 0.00305632 0.00304383 0.00300958 0.00300137 0.00298994 0.0029567 0.00295111 0.00290849 
0.00284552 0.00282964 0.0028207 0.00281971 0.00281899 0.010434 0.00981478 0.00892069 0.00845937 
0.00731974 0.00728422 0.00643447 0.00619172 0.00585956 0.00577566 0.00537241 0.00522549 0.00513666 
0.00473175 0.00466912 0.00444866 0.00441894 0.00400812 0.00385622 0.00379948 0.00370243 0.00366942 
0.00364039 0.00363813 0.00363644 0.00358692 0.0035797 0.00341284 0.00337012 0.00336273 0.00332772 
0.00323261 0.00320584 0.00320311 0.00318808 0.00313116 0.00306026 0.00305632 0.00304383 0.00300958 
0.00300137 0.00298994 0.0029567 0.00295111 0.00290849 0.00284552 0.00282964 0.0028207 0.00281971 
0.00281899 
omega 3 100 double
6.4186138355 -1.3125373608 -0.63693769349 6.4186138355 -1.3125373608 -0.63693769349 6.4186138355 -1.3125373608 -0.63693769349 
6.4186138355 -1.3125373608 -0.63693769349 6.4186138355 -1.3125373608 -0.63693769349 6.4186138355 -1.3125373608 -0.63693769349 
6.4186138355 -1.3125373608 -0.63693769349 6.4186138355 -1.3125373608 -0.63693769349 6.4186138355 -1.3125373608 -0.63693769349 
6.4186138355 -1.3125373608 -0.63693769349 6.4186138355 -1.3125373608 -0.63693769349 6.4186138355 -1.3125373608 -0.63693769349 
6.4186138355 -1.3125373608 -0.63693769349 6.4186138355 -1.3125373608 -0.63693769349 6.4186138355 -1.3125373608 -0.63693769349 
6.4186138355 -1.3125373608 -0.63693769349 6.4186138355 -1.3125373608 -0.63693769349 6.4186138355 -1.3125373608 -0.63693769349 
6.4186138355 -1.3125373608 -0.63693769349 6.4186138355 -1.3125373608 -0.63693769349 6.4186138355 -1.3125373608 -0.63693769349 
6.4186138355 -1.3125373608 -0.63693769349 6.4186138355 -1.3125373608 -0.63693769349 6.4186138355 -1.3125373608 -0.63693769349 
6.4186138355 -1.3125373608 -0.63693769349 6.4186138355 -1.3125373608 -0.63693769349 6.4186138355 -1.3125373608 -0.63693769349 
6.4186138355 -1.3125373608 -0.63693769349 6.4186138355 -1.3125373608 -0.63693769349 6.4186138355 -1.3125373608 -0.63693769349 
6.4186138355 -1.3125373608 -0.63693769349 6.4186138355 -1.3125373608 -0.63693769349 6.4186138355 -1.3125373608 -0.63693769349 
6.4186138355 -1.3125373608 -0.63693769349 6.4186138355 -1.3125373608 -0.63693769349 6.4186138355 -1.3125373608 -0.63693769349 
6.4186138355 -1.3125373608 -0.63693769349 6.4186138355 -1.3125373608 -0.63693769349 6.4186138355 -1.3125373608 -0.63693769349 
6.4186138355 -1.3125373608 -0.63693769349 6.4186138355 -1.3125373608 -0.63693769349 6.4186138355 -1.3125373608 -0.63693769349 
6.4186138355 -1.3125373608 -0.63693769349 6.4186138355 -1.3125373608 -0.63693769349 6.4186138355 -1.3125373608 -0.63693769349 
6.4186138355 -1.3125373608 -0.63693769349 6.4186138355 -1.3125373608 -0.63693769349 6.4186138355 -1.3125373608 -0.63693769349 
6.4186138355 -1.3125373608 -0.63693769349 6.4186138355 -1.3125373608 -0.63693769349 7.6563209786 0.11604905977 0.66801420595 
7.6563209786 0.11604905977 0.66801420595 7.6563209786 0.11604905977 0.66801420595 7.6563209786 0.11604905977 0.66801420595 
7.6563209786 0.11604905977 0.66801420595 7.6563209786 0.11604905977 0.66801420595 7.6563209786 0.11604905977 0.66801420595 
7.6563209786 0.11604905977 0.66801420595 7.6563209786 0.11604905977 0.66801420595 7.6563209786 0.11604905977 0.66801420595 
7.6563209786 0.11604905977 0.66801420595 7.6563209786 0.11604905977 0.66801420595 7.6563209786 0.11604905977 0.66801420595 
7.6563209786 0.11604905977 0.66801420595 7.6563209786 0.11604905977 0.66801420595 7.6563209786 0.11604905977 0.66801420595 
7.6563209786 0.11604905977 0.66801420595 7.6563209786 0.11604905977 0.66801420595 7.6563209786 0.11604905977 0.66801420595 
7.6563209786 0.11604905977 0.66801420595 7.6563209786 0.11604905977 0.66801420595 7.6563209786 0.11604905977 0.66801420595 
7.6563209786 0.11604905977 0.66801420595 7.6563209786 0.11604905977 0.66801420595 7.6563209786 0.11604905977 0.66801420595 
7.6563209786 0.11604905977 0.66801420595 7.6563209786 0.11604905977 0.66801420595 7.6563209786 0.11604905977 0.66801420595 
7.6563209786 0.11604905977 0.66801420595 7.6563209786 0.11604905977 0.66801420595 7.6563209786 0.11604905977 0.66801420595 
7.6563209786 0.11604905977 0.66801420595 7.6563209786 0.11604905977 0.66801420595 7.6563209786 0.11604905977 0.66801420595 
7.6563209786 0.11604905977 0.66801420595 7.6563209786 0.11604905977 0.66801420595 7.6563209786 0.11604905977 0.66801420595 
7.6563209786 0.11604905977 0.66801420595 7.6563209786 0.11604905977 0.66801420595 7.6563209786 0.11604905977 0.66801420595 
7.6563209786 0.11604905977 0.66801420595 7.6563209786 0.11604905977 0.66801420595 7.6563209786 0.11604905977 0.66801420595 
7.6563209786 0.11604905977 0.66801420595 7.6563209786 0.11604905977 0.66801420595 7.6563209786 0.11604905977 0.66801420595 
7.6563209786 0.11604905977 0.66801420595 7.6563209786 0.11604905977 0.66801420595 7.6563209786 0.11604905977 0.66801420595 
7.6563209786 0.11604905977 0.66801420595 
