# vtk DataFile Version 4.1
Generated by LIGGGHTS
ASCII
DATASET POLYDATA
POINTS 100 float
-0.119392 -0.142243 0.0150221 -0.128911 -0.140572 0.0110285 -0.138648 -0.13915 0.0091071 
-0.127253 -0.146514 0.0207637 -0.113894 -0.14544 0.0233663 -0.135347 -0.145364 0.0175668 
-0.145578 -0.143434 0.0131748 -0.119693 -0.150221 0.0232445 -0.147217 -0.13836 0.00652511 
-0.121486 -0.135196 0.00678948 -0.133727 -0.15117 0.0237728 -0.142512 -0.147428 0.0179795 
-0.126633 -0.131425 0.00740446 -0.12876 -0.153724 0.0261173 -0.132828 -0.132036 0.00703086 
-0.139208 -0.150441 0.0211558 -0.12122 -0.145553 0.0271823 -0.144467 -0.132053 0.00756946 
-0.11709 -0.140172 0.00488868 -0.151315 -0.142817 0.00910076 -0.121682 -0.144121 0.00499387 
-0.133294 -0.155476 0.0275537 -0.115494 -0.151512 0.0185761 -0.106929 -0.142891 0.0254694 
-0.109437 -0.145018 0.0175132 -0.123271 -0.132241 0.011912 -0.112094 -0.138252 0.022999 
-0.109721 -0.141253 0.027849 -0.137331 -0.154535 0.0261771 -0.131628 -0.139205 0.0204665 
-0.14018 -0.153494 0.0245838 -0.113539 -0.152675 0.0253724 -0.133814 -0.143631 0.0030621 
-0.123792 -0.154678 0.0258202 -0.1525 -0.139716 0.00403405 -0.112148 -0.14986 0.0173564 
-0.143979 -0.151573 0.0215788 -0.124426 -0.151488 0.0271967 -0.148964 -0.148151 0.0161488 
-0.126511 -0.13484 0.00311372 -0.139262 -0.147838 0.0118994 -0.125017 -0.154642 0.0225076 
-0.121873 -0.141495 0.0254734 -0.121233 -0.152495 0.0171437 -0.146884 -0.136918 0.0123988 
-0.151575 -0.14613 0.0129272 -0.108941 -0.142325 0.0147002 -0.12958 -0.134046 0.00359254 
-0.14398 -0.153173 0.0242205 -0.137302 -0.12999 0.00715675 -0.05062 -0.113654 0.0154182 
-0.060225 -0.112306 0.0115113 -0.0700366 -0.11144 0.00963628 -0.0581466 -0.119099 0.0205863 
-0.0449205 -0.117285 0.0234436 -0.0662937 -0.118242 0.0174336 -0.0766277 -0.116649 0.0131496 
-0.0503308 -0.122457 0.0227518 -0.0786319 -0.111041 0.00705158 -0.0532246 -0.105958 0.0079483 
-0.0642507 -0.124531 0.023013 -0.0732789 -0.120881 0.0175431 -0.0586508 -0.102679 0.00889623 
-0.0591089 -0.12693 0.025134 -0.0647785 -0.103721 0.00838798 -0.0697626 -0.123952 0.0204233 
-0.052229 -0.118363 0.0271405 -0.0763828 -0.104688 0.00878554 -0.0484496 -0.110354 0.00558629 
-0.0823815 -0.116047 0.0090961 -0.0527217 -0.114632 0.00522185 -0.0634979 -0.129166 0.026325 
-0.0460276 -0.122921 0.018023 -0.0381807 -0.114446 0.0258844 -0.0404889 -0.115905 0.0177199 
-0.0552513 -0.103707 0.013332 -0.0436811 -0.109982 0.0238553 -0.0411002 -0.113288 0.0283902 
-0.067591 -0.128397 0.0250079 -0.063074 -0.112157 0.0210082 -0.0705068 -0.127415 0.0234996 
-0.0440119 -0.124643 0.0246816 -0.0648486 -0.114872 0.00321055 -0.0540804 -0.127463 0.0247963 
-0.0837853 -0.112528 0.00437007 -0.0428158 -0.120897 0.017023 -0.0744324 -0.125484 0.0206691 
-0.0549653 -0.124494 0.0264932 -0.0796484 -0.1219 0.0155711 -0.0582494 -0.105602 0.00427186 
-0.0699855 -0.120396 0.011492 -0.0552929 -0.127171 0.0214918 -0.0531881 -0.114209 0.0258604 
-0.0516682 -0.124185 0.0164281 -0.0784327 -0.110207 0.0130478 -0.0823968 -0.119756 0.0125496 
-0.0401928 -0.1129 0.0152117 -0.0613718 -0.105101 0.00479553 -0.0743191 -0.12735 0.0231277 
-0.0693977 -0.102049 0.008676 
VERTICES 100 200
1 0 
1 1 
1 2 
1 3 
1 4 
1 5 
1 6 
1 7 
1 8 
1 9 
1 10 
1 11 
1 12 
1 13 
1 14 
1 15 
1 16 
1 17 
1 18 
1 19 
1 20 
1 21 
1 22 
1 23 
1 24 
1 25 
1 26 
1 27 
1 28 
1 29 
1 30 
1 31 
1 32 
1 33 
1 34 
1 35 
1 36 
1 37 
1 38 
1 39 
1 40 
1 41 
1 42 
1 43 
1 44 
1 45 
1 46 
1 47 
1 48 
1 49 
1 50 
1 51 
1 52 
1 53 
1 54 
1 55 
1 56 
1 57 
1 58 
1 59 
1 60 
1 61 
1 62 
1 63 
1 64 
1 65 
1 66 
1 67 
1 68 
1 69 
1 70 
1 71 
1 72 
1 73 
1 74 
1 75 
1 76 
1 77 
1 78 
1 79 
1 80 
1 81 
1 82 
1 83 
1 84 
1 85 
1 86 
1 87 
1 88 
1 89 
1 90 
1 91 
1 92 
1 93 
1 94 
1 95 
1 96 
1 97 
1 98 
1 99 

POINT_DATA 100
FIELD FieldData 7
id 1 100 int
1 2 3 4 5 6 7 8 9 
10 11 12 13 14 15 16 17 18 
19 20 21 22 23 24 25 26 27 
28 29 30 31 32 33 34 35 36 
37 38 39 40 41 42 43 44 45 
46 47 48 49 50 51 52 53 54 
55 56 57 58 59 60 61 62 63 
64 65 66 67 68 69 70 71 72 
73 74 75 76 77 78 79 80 81 
82 83 84 85 86 87 88 89 90 
91 92 93 94 95 96 97 98 99 
100 
mol 1 100 int
1 1 1 1 1 1 1 1 1 
1 1 1 1 1 1 1 1 1 
1 1 1 1 1 1 1 1 1 
1 1 1 1 1 1 1 1 1 
1 1 1 1 1 1 1 1 1 
1 1 1 1 1 2 2 2 2 
2 2 2 2 2 2 2 2 2 
2 2 2 2 2 2 2 2 2 
2 2 2 2 2 2 2 2 2 
2 2 2 2 2 2 2 2 2 
2 2 2 2 2 2 2 2 2 
2 
type 1 100 int
1 1 1 1 1 1 1 1 1 
1 1 1 1 1 1 1 1 1 
1 1 1 1 1 1 1 1 1 
1 1 1 1 1 1 1 1 1 
1 1 1 1 1 1 1 1 1 
1 1 1 1 1 1 1 1 1 
1 1 1 1 1 1 1 1 1 
1 1 1 1 1 1 1 1 1 
1 1 1 1 1 1 1 1 1 
1 1 1 1 1 1 1 1 1 
1 1 1 1 1 1 1 1 1 
1 
v 3 100 double
0.10898376629 -0.14830638524 -0.072131957257 0.084748811291 -0.095004045132 0.007920378748 0.074454946728 -0.05797209429 0.087501718922 
0.1396974428 -0.17737391807 -0.051703941192 0.16026554071 -0.22790820376 -0.13641927014 0.11988384756 -0.13365847255 0.014179142187 
0.0934379577 -0.075562380074 0.10131613684 0.14885854334 -0.21412164166 -0.13453376825 0.058145988016 -0.018178704228 0.15379890893 
0.066979756791 -0.077121053032 -0.00052102020719 0.15045616011 -0.1874111017 -0.044089276559 0.11821376511 -0.1211766452 0.047593069578 
0.079605113332 -0.070730360215 0.065957793941 0.16121039126 -0.21733279837 -0.099466101987 0.075644065081 -0.054033169077 0.10433149376 
0.13376850502 -0.1541518106 0.0001272154334 0.18669467221 -0.24258849658 -0.086118040957 0.079371389883 -0.032693454199 0.18556622819 
0.042704711623 -0.071456995438 -0.071487885252 0.066314833638 -0.029955834097 0.14641792153 0.034722059494 -0.062170655309 -0.071313413179 
0.16738634112 -0.21893868608 -0.081933153761 0.11336936308 -0.18564693009 -0.17432912549 0.18059554044 -0.26029021706 -0.16451762872 
0.12027451487 -0.19042441842 -0.16417012874 0.10931851357 -0.11459745163 0.035851585523 0.17356458992 -0.22891369343 -0.090897127471 
0.20084910774 -0.27336491884 -0.13174887493 0.15983882084 -0.19889546754 -0.046097579945 0.15375470338 -0.16531263258 0.03797808961 
0.15099673705 -0.17972281481 -0.017760345564 0.15831800804 -0.24491338698 -0.19740803857 0.022298358053 -0.019768106428 0.01747649335 
0.15702746638 -0.22589893939 -0.14191500375 0.037735391048 0.013625608851 0.17977248736 0.10848823477 -0.18317103611 -0.18436456128 
0.13422820435 -0.14704053891 0.024332508921 0.17369461674 -0.23562765615 -0.11168430841 0.10381733717 -0.092132701103 0.086850799501 
0.042066865306 -0.03630743035 0.037496159493 0.074798135937 -0.079192310479 0.021553332446 0.13394596897 -0.19641168932 -0.13306159012 
0.18370570594 -0.22733161493 -0.048745697105 0.10118344667 -0.16139605167 -0.14215542986 0.10239634536 -0.066403604111 0.16313163961 
0.085754240973 -0.060320991023 0.12144531455 0.10655134046 -0.16877626171 -0.14586942735 0.047165905091 -0.033404991922 0.065363073517 
0.14916561845 -0.1683966541 0.011403758255 0.081041119448 -0.045174901771 0.15215221115 0.093129547857 -0.11688239546 -0.051944469865 
0.074658238122 -0.085202180435 0.0043969911344 0.065856319034 -0.068511622379 0.058168992792 0.11651725644 -0.1530072048 -0.055943336295 
0.13082639757 -0.17794860285 -0.10633971407 0.1015456441 -0.127329229 -0.010274924622 0.08132434704 -0.092647689144 0.051402934307 
0.12600917522 -0.17127875798 -0.11853392363 0.053495296163 -0.04691242839 0.10260666112 0.05927604269 -0.060815195417 0.01762457069 
0.12667744905 -0.16923527833 -0.066708016826 0.10131991065 -0.12614383334 0.0038936932243 0.064788341891 -0.066284826842 0.068098776299 
0.13622836389 -0.1864126082 -0.10929138425 0.062037608761 -0.060769314732 0.089960398805 0.11434362942 -0.14847999043 -0.035816694224 
0.1483611405 -0.20323942665 -0.079051256664 0.063680063423 -0.060397155147 0.13880642263 0.046619693933 -0.044686539193 -0.037973042361 
0.061932484955 -0.060982715652 0.083632545351 0.043637901329 -0.040766473624 -0.049041645876 0.14133799432 -0.19397962315 -0.10467069614 
0.10305327254 -0.13748658851 -0.1427374983 0.14341810007 -0.19795177791 -0.1178473335 0.10359553937 -0.13682503679 -0.1175138251 
0.085903467344 -0.10010798525 0.044078594297 0.13490066863 -0.18135200535 -0.058236463921 0.15584343296 -0.21567589965 -0.095179136836 
0.13520037828 -0.18305451723 -0.079220801955 0.12053776202 -0.15472385724 0.019251279229 0.1282015455 -0.17105098401 -0.057876102175 
0.13469870056 -0.18737735493 -0.16522180147 0.033861730635 -0.022404529961 0.0077095116534 0.13444642529 -0.18534915034 -0.13750822628 
0.040128217937 -0.025579903606 0.11647089596 0.098805063095 -0.13099835117 -0.14325361493 0.11509211609 -0.14896593568 -0.024627293302 
0.14348490676 -0.19766372297 -0.11125169688 0.091511254238 -0.10971887723 0.027092612443 0.041633721162 -0.032150864226 0.04451773267 
0.07225341134 -0.082270148758 -0.0084057723505 0.11858063291 -0.16052895291 -0.12949641958 0.14337004274 -0.19348483635 -0.043658210597 
0.094994304742 -0.12406247282 -0.12487453724 0.082674442138 -0.091378470601 0.10782186037 0.077540608097 -0.086555401591 0.056236226911 
0.09234857546 -0.11833343776 -0.096686109097 0.044304198621 -0.035136812897 0.063293845956 0.12642517378 -0.16720707373 -0.03899444163 
0.063905578168 -0.061582222223 0.1246376864 
f 3 100 double
0 0 0 0 0 0 0 0 0 
0 0 0 0 0 0 0 0 0 
0 0 0 0 0 0 0 0 0 
0 0 0 0 0 0 0 0 0 
0 0 0 0 0 0 0 0 0 
0 0 0 0 0 0 0 0 0 
0 0 0 0 0 0 0 0 0 
0 0 0 0 0 0 0 0 0 
0 0 0 0 0 0 0 0 0 
0 0 0 0 0 0 0 0 0 
0 0 0 0 0 0 0.14823949703 0.027364572599 0.58995895336 
0 0 0 0 0 0 0 0 0 
0 0 0 0 0 0 0 0 0 
0 0 0 0 0 0 0 0 0 
0 0 0 0 0 0 0 0 0 
0 0 0 0 0 0 0 0 0 
0 0 0 0 0 0 0 0 0 
0 0 0 0 0 0 0 0 0 
0 0 0 0 0 0 0 0 0 
0 0 0 0 0 0 0 0 0 
0 0 0 0 0 0 0 0 0 
0 0 0 0 0 0 0 0 0 
0 0 0 0 0 0 0 0 0 
0 0 0 0 0 0 0 0 0 
0 0 0 0 0 0 0 0 0 
0 0 0 0 0 0 0 0 0 
0 0 0 0 0 0 0 0 0 
0 0 0 0 0 0 0 0 0 
0 0 0 0 0 0 0 0 0 
0 0 0 0 0 0 0 0 0 
0 0 0 0 0 0 0 0 0 
0 0 0 0 0 0 0 0 0 
0 0 0 0 0 0 0 0 0 
0 0 0 
radius 1 100 double
0.010434 0.00981478 0.00892069 0.00845937 0.00731974 0.00728422 0.00643447 0.00619172 0.00585956 
0.00577566 0.00537241 0.00522549 0.00513666 0.00473175 0.00466912 0.00444866 0.00441894 0.00400812 
0.00385622 0.00379948 0.00370243 0.00366942 0.00364039 0.00363813 0.00363644 0.00358692 0.0035797 
0.00341284 0.00337012 0.00336273 0.00332772 0.00323261 0.00320584 0.00320311 0.00318808 0.00313116 
0.00306026 0.00305632 0.00304383 0.00300958 0.00300137 0.00298994 0.0029567 0.00295111 0.00290849 
0.00284552 0.00282964 0.0028207 0.00281971 0.00281899 0.010434 0.00981478 0.00892069 0.00845937 
0.00731974 0.00728422 0.00643447 0.00619172 0.00585956 0.00577566 0.00537241 0.00522549 0.00513666 
0.00473175 0.00466912 0.00444866 0.00441894 0.00400812 0.00385622 0.00379948 0.00370243 0.00366942 
0.00364039 0.00363813 0.00363644 0.00358692 0.0035797 0.00341284 0.00337012 0.00336273 0.00332772 
0.00323261 0.00320584 0.00320311 0.00318808 0.00313116 0.00306026 0.00305632 0.00304383 0.00300958 
0.00300137 0.00298994 0.0029567 0.00295111 0.00290849 0.00284552 0.00282964 0.0028207 0.00281971 
0.00281899 
omega 3 100 double
8.0852666954 6.9916717754 -2.2076356692 8.0852666954 6.9916717754 -2.2076356692 8.0852666954 6.9916717754 -2.2076356692 
8.0852666954 6.9916717754 -2.2076356692 8.0852666954 6.9916717754 -2.2076356692 8.0852666954 6.9916717754 -2.2076356692 
8.0852666954 6.9916717754 -2.2076356692 8.0852666954 6.9916717754 -2.2076356692 8.0852666954 6.9916717754 -2.2076356692 
8.0852666954 6.9916717754 -2.2076356692 8.0852666954 6.9916717754 -2.2076356692 8.0852666954 6.9916717754 -2.2076356692 
8.0852666954 6.9916717754 -2.2076356692 8.0852666954 6.9916717754 -2.2076356692 8.0852666954 6.9916717754 -2.2076356692 
8.0852666954 6.9916717754 -2.2076356692 8.0852666954 6.9916717754 -2.2076356692 8.0852666954 6.9916717754 -2.2076356692 
8.0852666954 6.9916717754 -2.2076356692 8.0852666954 6.9916717754 -2.2076356692 8.0852666954 6.9916717754 -2.2076356692 
8.0852666954 6.9916717754 -2.2076356692 8.0852666954 6.9916717754 -2.2076356692 8.0852666954 6.9916717754 -2.2076356692 
8.0852666954 6.9916717754 -2.2076356692 8.0852666954 6.9916717754 -2.2076356692 8.0852666954 6.9916717754 -2.2076356692 
8.0852666954 6.9916717754 -2.2076356692 8.0852666954 6.9916717754 -2.2076356692 8.0852666954 6.9916717754 -2.2076356692 
8.0852666954 6.9916717754 -2.2076356692 8.0852666954 6.9916717754 -2.2076356692 8.0852666954 6.9916717754 -2.2076356692 
8.0852666954 6.9916717754 -2.2076356692 8.0852666954 6.9916717754 -2.2076356692 8.0852666954 6.9916717754 -2.2076356692 
8.0852666954 6.9916717754 -2.2076356692 8.0852666954 6.9916717754 -2.2076356692 8.0852666954 6.9916717754 -2.2076356692 
8.0852666954 6.9916717754 -2.2076356692 8.0852666954 6.9916717754 -2.2076356692 8.0852666954 6.9916717754 -2.2076356692 
8.0852666954 6.9916717754 -2.2076356692 8.0852666954 6.9916717754 -2.2076356692 8.0852666954 6.9916717754 -2.2076356692 
8.0852666954 6.9916717754 -2.2076356692 8.0852666954 6.9916717754 -2.2076356692 8.0852666954 6.9916717754 -2.2076356692 
8.0852666954 6.9916717754 -2.2076356692 8.0852666954 6.9916717754 -2.2076356692 7.4061325256 4.8264716085 -0.28580534243 
7.4061325256 4.8264716085 -0.28580534243 7.4061325256 4.8264716085 -0.28580534243 7.4061325256 4.8264716085 -0.28580534243 
7.4061325256 4.8264716085 -0.28580534243 7.4061325256 4.8264716085 -0.28580534243 7.4061325256 4.8264716085 -0.28580534243 
7.4061325256 4.8264716085 -0.28580534243 7.4061325256 4.8264716085 -0.28580534243 7.4061325256 4.8264716085 -0.28580534243 
7.4061325256 4.8264716085 -0.28580534243 7.4061325256 4.8264716085 -0.28580534243 7.4061325256 4.8264716085 -0.28580534243 
7.4061325256 4.8264716085 -0.28580534243 7.4061325256 4.8264716085 -0.28580534243 7.4061325256 4.8264716085 -0.28580534243 
7.4061325256 4.8264716085 -0.28580534243 7.4061325256 4.8264716085 -0.28580534243 7.4061325256 4.8264716085 -0.28580534243 
7.4061325256 4.8264716085 -0.28580534243 7.4061325256 4.8264716085 -0.28580534243 7.4061325256 4.8264716085 -0.28580534243 
7.4061325256 4.8264716085 -0.28580534243 7.4061325256 4.8264716085 -0.28580534243 7.4061325256 4.8264716085 -0.28580534243 
7.4061325256 4.8264716085 -0.28580534243 7.4061325256 4.8264716085 -0.28580534243 7.4061325256 4.8264716085 -0.28580534243 
7.4061325256 4.8264716085 -0.28580534243 7.4061325256 4.8264716085 -0.28580534243 7.4061325256 4.8264716085 -0.28580534243 
7.4061325256 4.8264716085 -0.28580534243 7.4061325256 4.8264716085 -0.28580534243 7.4061325256 4.8264716085 -0.28580534243 
7.4061325256 4.8264716085 -0.28580534243 7.4061325256 4.8264716085 -0.28580534243 7.4061325256 4.8264716085 -0.28580534243 
7.4061325256 4.8264716085 -0.28580534243 7.4061325256 4.8264716085 -0.28580534243 7.4061325256 4.8264716085 -0.28580534243 
7.4061325256 4.8264716085 -0.28580534243 7.4061325256 4.8264716085 -0.28580534243 7.4061325256 4.8264716085 -0.28580534243 
7.4061325256 4.8264716085 -0.28580534243 7.4061325256 4.8264716085 -0.28580534243 7.4061325256 4.8264716085 -0.28580534243 
7.4061325256 4.8264716085 -0.28580534243 7.4061325256 4.8264716085 -0.28580534243 7.4061325256 4.8264716085 -0.28580534243 
7.4061325256 4.8264716085 -0.28580534243 
