# vtk DataFile Version 4.1
Generated by LIGGGHTS
ASCII
DATASET POLYDATA
POINTS 100 float
-0.11805 -0.144012 0.0138157 -0.127822 -0.141735 0.0108737 -0.137638 -0.139896 0.00998347 
-0.125512 -0.148614 0.019827 -0.111948 -0.148122 0.0212951 -0.133813 -0.146966 0.0174977 
-0.144321 -0.144375 0.0142494 -0.11789 -0.152726 0.0212582 -0.14637 -0.138654 0.00827369 
-0.120625 -0.136165 0.00649407 -0.131846 -0.153374 0.0229674 -0.140979 -0.148882 0.0183661 
-0.125571 -0.132343 0.00791963 -0.12678 -0.156261 0.0246054 -0.131792 -0.132763 0.0080547 
-0.13751 -0.152265 0.0209372 -0.118909 -0.148417 0.025733 -0.143332 -0.132544 0.00964306 
-0.116581 -0.141045 0.00375028 -0.150372 -0.143233 0.0107873 -0.121274 -0.144871 0.00390593 
-0.131224 -0.158029 0.026279 -0.114163 -0.15367 0.0161288 -0.104743 -0.145958 0.0229842 
-0.108011 -0.147256 0.015126 -0.121854 -0.133667 0.0120087 -0.109949 -0.140979 0.0214322 
-0.10726 -0.144485 0.0257486 -0.135334 -0.156862 0.0253672 -0.129652 -0.141204 0.0206052 
-0.138276 -0.155605 0.0241421 -0.111656 -0.155522 0.0225828 -0.133506 -0.1439 0.00313646 
-0.121891 -0.157305 0.0237718 -0.151894 -0.139636 0.0061575 -0.110885 -0.151992 0.0147686 
-0.142259 -0.153313 0.0216848 -0.122296 -0.154245 0.0254893 -0.147587 -0.149269 0.0170692 
-0.12594 -0.135337 0.00333816 -0.138292 -0.148793 0.0120045 -0.123401 -0.156924 0.0206016 
-0.119575 -0.1442 0.0244731 -0.120035 -0.154371 0.0151382 -0.145475 -0.137785 0.0142011 
-0.150403 -0.146887 0.0142986 -0.107676 -0.144321 0.0125407 -0.128927 -0.134517 0.0041647 
-0.142081 -0.155157 0.0241564 -0.136167 -0.130628 0.00877462 -0.0495411 -0.115071 0.0143228 
-0.059385 -0.113348 0.0112465 -0.0692957 -0.112284 0.0101609 -0.0567355 -0.120929 0.0195122 
-0.0433232 -0.119422 0.0215675 -0.0650767 -0.119767 0.0170375 -0.0756721 -0.117763 0.0136603 
-0.0488191 -0.124493 0.020808 -0.0780482 -0.111628 0.00824196 -0.0525929 -0.106731 0.00776953 
-0.0627051 -0.126534 0.0218775 -0.0720619 -0.122382 0.0174111 -0.0579061 -0.103531 0.00938928 
-0.0574497 -0.12913 0.023405 -0.0640642 -0.104503 0.00922948 -0.0683806 -0.125708 0.0197494 
-0.0503618 -0.1208 0.0256665 -0.0756202 -0.105462 0.0103672 -0.0480401 -0.110915 0.00469245 
-0.0816922 -0.116783 0.0100972 -0.0523688 -0.115129 0.00425616 -0.0617649 -0.131449 0.0247035 
-0.0448663 -0.124548 0.0157616 -0.0364002 -0.116835 0.0237628 -0.0392947 -0.117553 0.0156869 
-0.0542113 -0.104962 0.0134624 -0.0419867 -0.112189 0.0225353 -0.0391236 -0.115895 0.0265635 
-0.0659333 -0.130552 0.0237552 -0.0615527 -0.114036 0.0208984 -0.0689389 -0.12943 0.0225519 
-0.0424011 -0.126864 0.0220805 -0.0646094 -0.115148 0.00310236 -0.0524631 -0.129648 0.0226633 
-0.0833927 -0.112852 0.00581403 -0.0417138 -0.122455 0.0147182 -0.073036 -0.127241 0.0201912 
-0.0531967 -0.12684 0.0246755 -0.0785647 -0.123199 0.0158164 -0.0578617 -0.106032 0.0045073 
-0.0692006 -0.12137 0.0112072 -0.0539037 -0.129059 0.0194927 -0.0513687 -0.116545 0.0248314 
-0.0506176 -0.125646 0.0144678 -0.0774168 -0.111332 0.014259 -0.0814991 -0.120785 0.0132007 
-0.0391478 -0.114337 0.0134402 -0.0609341 -0.105569 0.00529482 -0.0727672 -0.129319 0.0224604 
-0.0686349 -0.102847 0.00999357 
VERTICES 100 200
1 0 
1 1 
1 2 
1 3 
1 4 
1 5 
1 6 
1 7 
1 8 
1 9 
1 10 
1 11 
1 12 
1 13 
1 14 
1 15 
1 16 
1 17 
1 18 
1 19 
1 20 
1 21 
1 22 
1 23 
1 24 
1 25 
1 26 
1 27 
1 28 
1 29 
1 30 
1 31 
1 32 
1 33 
1 34 
1 35 
1 36 
1 37 
1 38 
1 39 
1 40 
1 41 
1 42 
1 43 
1 44 
1 45 
1 46 
1 47 
1 48 
1 49 
1 50 
1 51 
1 52 
1 53 
1 54 
1 55 
1 56 
1 57 
1 58 
1 59 
1 60 
1 61 
1 62 
1 63 
1 64 
1 65 
1 66 
1 67 
1 68 
1 69 
1 70 
1 71 
1 72 
1 73 
1 74 
1 75 
1 76 
1 77 
1 78 
1 79 
1 80 
1 81 
1 82 
1 83 
1 84 
1 85 
1 86 
1 87 
1 88 
1 89 
1 90 
1 91 
1 92 
1 93 
1 94 
1 95 
1 96 
1 97 
1 98 
1 99 

POINT_DATA 100
FIELD FieldData 7
id 1 100 int
1 2 3 4 5 6 7 8 9 
10 11 12 13 14 15 16 17 18 
19 20 21 22 23 24 25 26 27 
28 29 30 31 32 33 34 35 36 
37 38 39 40 41 42 43 44 45 
46 47 48 49 50 51 52 53 54 
55 56 57 58 59 60 61 62 63 
64 65 66 67 68 69 70 71 72 
73 74 75 76 77 78 79 80 81 
82 83 84 85 86 87 88 89 90 
91 92 93 94 95 96 97 98 99 
100 
mol 1 100 int
1 1 1 1 1 1 1 1 1 
1 1 1 1 1 1 1 1 1 
1 1 1 1 1 1 1 1 1 
1 1 1 1 1 1 1 1 1 
1 1 1 1 1 1 1 1 1 
1 1 1 1 1 2 2 2 2 
2 2 2 2 2 2 2 2 2 
2 2 2 2 2 2 2 2 2 
2 2 2 2 2 2 2 2 2 
2 2 2 2 2 2 2 2 2 
2 2 2 2 2 2 2 2 2 
2 
type 1 100 int
1 1 1 1 1 1 1 1 1 
1 1 1 1 1 1 1 1 1 
1 1 1 1 1 1 1 1 1 
1 1 1 1 1 1 1 1 1 
1 1 1 1 1 1 1 1 1 
1 1 1 1 1 1 1 1 1 
1 1 1 1 1 1 1 1 1 
1 1 1 1 1 1 1 1 1 
1 1 1 1 1 1 1 1 1 
1 1 1 1 1 1 1 1 1 
1 1 1 1 1 1 1 1 1 
1 
v 3 100 double
0.10773321033 -0.13408603833 -0.092691135887 0.091914529033 -0.089023934951 -0.0052748205569 0.089139702204 -0.063381665239 0.078273998708 
0.14014199547 -0.17814893667 -0.086195670743 0.15088527125 -0.2158421426 -0.17282790781 0.1273463463 -0.14148370345 -0.014659263862 
0.11001594013 -0.092222872726 0.080696996043 0.14257917245 -0.20509079728 -0.17657551315 0.07980588016 -0.031849408551 0.14886485039 
0.072182806118 -0.060001177234 -0.0007859522994 0.15294915361 -0.19690395804 -0.088791513869 0.12983849697 -0.13719379352 0.015368728683 
0.088467959178 -0.064891744293 0.068819671615 0.15892169199 -0.22133815386 -0.15033374098 0.088642584827 -0.055286742425 0.10670610258 
0.14122488648 -0.16769861659 -0.040127312337 0.18024233021 -0.2458302626 -0.12877253824 0.0997173714 -0.050180687547 0.1864686444 
0.045171834657 -0.041006463552 -0.074382032676 0.088710643987 -0.048732151717 0.1322828761 0.039521516697 -0.034271452014 -0.079156965923 
0.16709289921 -0.22946199364 -0.13721376131 0.10639832958 -0.16287075143 -0.21063694065 0.16604347563 -0.24450368728 -0.20075766707 
0.11087523227 -0.16410833528 -0.19109088268 0.11367600676 -0.11025527763 0.031219807491 0.1643115629 -0.22064317899 -0.11839897529 
0.18722970386 -0.26636837222 -0.16982178972 0.16299826991 -0.21360500044 -0.098461926058 0.15834984529 -0.17829756626 0.01208471364 
0.15695276024 -0.19681248637 -0.066703814083 0.1466007078 -0.22858903996 -0.24511046707 0.036041655838 -0.0055483778776 0.012412146767 
0.1514839892 -0.22197368747 -0.1931577655 0.063841375643 -0.0020707515009 0.17671326482 0.10017817917 -0.1556829226 -0.21676412389 
0.1444220174 -0.16648945327 -0.018119682854 0.16840101627 -0.2375864389 -0.16135641421 0.1204320902 -0.11330376891 0.056175447415 
0.052388609661 -0.020708271152 0.042860097921 0.087172420931 -0.081443228642 -0.0018666795604 0.13081038689 -0.18920495129 -0.17937636888 
0.17914248022 -0.23269224048 -0.084218255022 0.098503309898 -0.14317879064 -0.17776944856 0.12122558044 -0.089744492985 0.15108630584 
0.10595046698 -0.082045214937 0.097765855368 0.098609533494 -0.14012825118 -0.16546115933 0.05938698018 -0.023335387647 0.070751634528 
0.15783243501 -0.19028860555 -0.036838812296 0.097224898886 -0.054470161365 0.15644058173 0.099015728837 -0.12012069057 -0.1002524456 
0.079049282259 -0.089202055006 -0.019041567904 0.072357005344 -0.073295663512 0.057638382261 0.13040560314 -0.15380397255 -0.09475734165 
0.14580904874 -0.1797660137 -0.17622977284 0.11417029408 -0.12860458483 -0.028200134811 0.092338056792 -0.094826078586 0.060337616086 
0.13661339028 -0.1697536497 -0.17654709899 0.05957773749 -0.051982111368 0.12321871672 0.060106275948 -0.068163807251 -0.016011702039 
0.14243554188 -0.16706927348 -0.095831685178 0.11472812463 -0.12600990743 0.00038986832755 0.073806792652 -0.076296611754 0.04499685506 
0.1509985908 -0.18270623861 -0.1518683492 0.071946374676 -0.070307886429 0.080293756598 0.12833949548 -0.14656117332 -0.050276182573 
0.17312548972 -0.2053203949 -0.13791777994 0.079080726001 -0.069947953943 0.15306242512 0.035550310343 -0.048413272261 -0.079195780834 
0.068424869787 -0.063192677602 0.1094469216 0.029257991483 -0.041752322981 -0.081110157368 0.15819118083 -0.18918261445 -0.13952980023 
0.10162402327 -0.1346361366 -0.20433871225 0.16301966619 -0.20175121035 -0.20459903389 0.10653569497 -0.13839463311 -0.18998755904 
0.10090315734 -0.10998516993 0.0085848508365 0.15812452192 -0.18812643276 -0.13075576847 0.18314388445 -0.22082957355 -0.17862520169 
0.15232057076 -0.17877187456 -0.103874647 0.14535537644 -0.16055449107 -0.0092353826591 0.14485890078 -0.16733421116 -0.074568832566 
0.143585214 -0.18436340864 -0.23893219107 0.021253341933 -0.023521416851 0.00351548491 0.14546058791 -0.18096431607 -0.19031915069 
0.041814142479 -0.029462145972 0.1509682134 0.09602271092 -0.12918701808 -0.21032877769 0.1302096462 -0.14629095944 -0.029631927013 
0.16157466655 -0.19562071583 -0.16398701134 0.10305061747 -0.10889607736 0.039239324588 0.038058233189 -0.039389549831 0.025770915302 
0.07255117302 -0.081286806009 -0.011770653821 0.1239607925 -0.1558543445 -0.17588644379 0.17064409703 -0.19821943368 -0.098751056215 
0.091811931641 -0.12038169005 -0.17281544032 0.10147547157 -0.098002214569 0.1210842967 0.086810302983 -0.086825902125 0.077826891345 
0.093472720515 -0.12150798051 -0.16667288718 0.043870745124 -0.042964057601 0.050546572122 0.14431091578 -0.16367018091 -0.047218644805 
0.078522567758 -0.072542275606 0.12447240124 
f 3 100 double
0 0 0 0 0 0 0 0 0 
0 0 0 0 0 0 0 0 0 
0 0 0 0 0 0 0 0 0 
0 0 0 0 0 0 0 0 0 
0 0 0 0 0 0 0 0 0 
0 0 0 0 0 0 0 0 0 
-0.28571527542 0.19941106873 1.5020487909 0 0 0 0 0 0 
0 0 0 0 0 0 0 0 0 
0 0 0 0 0 0 0 0 0 
0 0 0 0 0 0 0 0 0 
0 0 0 0 0 0 -0.12845058978 -0.28173443726 0.14072766008 
0 0 0 0 0 0 0 0 0 
0 0 0 0 0 0 0 0 0 
0 0 0 0 0 0 0 0 0 
0 0 0 0 0 0 0 0 0 
0 0 0 0 0 0 0 0 0 
0 0 0 0 0 0 0 0 0 
0 0 0 0 0 0 0 0 0 
0 0 0 0 0 0 0 0 0 
0 0 0 0 0 0 0 0 0 
0 0 0 0 0 0 0 0 0 
0 0 0 0 0 0 0 0 0 
0 0 0 0 0 0 0 0 0 
0 0 0 0 0 0 0 0 0 
0 0 0 0 0 0 0 0 0 
0 0 0 0 0 0 0 0 0 
0 0 0 0 0 0 0 0 0 
0 0 0 0.15063244223 -0.025214456655 0.45637019942 0 0 0 
0 0 0 0 0 0 0 0 0 
0 0 0 0 0 0 0 0 0 
0 0 0 0 0 0 0 0 0 
0 0 0 0 0 0 0 0 0 
0 0 0 0 0 0 0 0 0 
0 0 0 
radius 1 100 double
0.010434 0.00981478 0.00892069 0.00845937 0.00731974 0.00728422 0.00643447 0.00619172 0.00585956 
0.00577566 0.00537241 0.00522549 0.00513666 0.00473175 0.00466912 0.00444866 0.00441894 0.00400812 
0.00385622 0.00379948 0.00370243 0.00366942 0.00364039 0.00363813 0.00363644 0.00358692 0.0035797 
0.00341284 0.00337012 0.00336273 0.00332772 0.00323261 0.00320584 0.00320311 0.00318808 0.00313116 
0.00306026 0.00305632 0.00304383 0.00300958 0.00300137 0.00298994 0.0029567 0.00295111 0.00290849 
0.00284552 0.00282964 0.0028207 0.00281971 0.00281899 0.010434 0.00981478 0.00892069 0.00845937 
0.00731974 0.00728422 0.00643447 0.00619172 0.00585956 0.00577566 0.00537241 0.00522549 0.00513666 
0.00473175 0.00466912 0.00444866 0.00441894 0.00400812 0.00385622 0.00379948 0.00370243 0.00366942 
0.00364039 0.00363813 0.00363644 0.00358692 0.0035797 0.00341284 0.00337012 0.00336273 0.00332772 
0.00323261 0.00320584 0.00320311 0.00318808 0.00313116 0.00306026 0.00305632 0.00304383 0.00300958 
0.00300137 0.00298994 0.0029567 0.00295111 0.00290849 0.00284552 0.00282964 0.0028207 0.00281971 
0.00281899 
omega 3 100 double
9.5028625485 6.7314414043 -1.7503615178 9.5028625485 6.7314414043 -1.7503615178 9.5028625485 6.7314414043 -1.7503615178 
9.5028625485 6.7314414043 -1.7503615178 9.5028625485 6.7314414043 -1.7503615178 9.5028625485 6.7314414043 -1.7503615178 
9.5028625485 6.7314414043 -1.7503615178 9.5028625485 6.7314414043 -1.7503615178 9.5028625485 6.7314414043 -1.7503615178 
9.5028625485 6.7314414043 -1.7503615178 9.5028625485 6.7314414043 -1.7503615178 9.5028625485 6.7314414043 -1.7503615178 
9.5028625485 6.7314414043 -1.7503615178 9.5028625485 6.7314414043 -1.7503615178 9.5028625485 6.7314414043 -1.7503615178 
9.5028625485 6.7314414043 -1.7503615178 9.5028625485 6.7314414043 -1.7503615178 9.5028625485 6.7314414043 -1.7503615178 
9.5028625485 6.7314414043 -1.7503615178 9.5028625485 6.7314414043 -1.7503615178 9.5028625485 6.7314414043 -1.7503615178 
9.5028625485 6.7314414043 -1.7503615178 9.5028625485 6.7314414043 -1.7503615178 9.5028625485 6.7314414043 -1.7503615178 
9.5028625485 6.7314414043 -1.7503615178 9.5028625485 6.7314414043 -1.7503615178 9.5028625485 6.7314414043 -1.7503615178 
9.5028625485 6.7314414043 -1.7503615178 9.5028625485 6.7314414043 -1.7503615178 9.5028625485 6.7314414043 -1.7503615178 
9.5028625485 6.7314414043 -1.7503615178 9.5028625485 6.7314414043 -1.7503615178 9.5028625485 6.7314414043 -1.7503615178 
9.5028625485 6.7314414043 -1.7503615178 9.5028625485 6.7314414043 -1.7503615178 9.5028625485 6.7314414043 -1.7503615178 
9.5028625485 6.7314414043 -1.7503615178 9.5028625485 6.7314414043 -1.7503615178 9.5028625485 6.7314414043 -1.7503615178 
9.5028625485 6.7314414043 -1.7503615178 9.5028625485 6.7314414043 -1.7503615178 9.5028625485 6.7314414043 -1.7503615178 
9.5028625485 6.7314414043 -1.7503615178 9.5028625485 6.7314414043 -1.7503615178 9.5028625485 6.7314414043 -1.7503615178 
9.5028625485 6.7314414043 -1.7503615178 9.5028625485 6.7314414043 -1.7503615178 9.5028625485 6.7314414043 -1.7503615178 
9.5028625485 6.7314414043 -1.7503615178 9.5028625485 6.7314414043 -1.7503615178 7.5669092725 6.9250806963 -0.77612455812 
7.5669092725 6.9250806963 -0.77612455812 7.5669092725 6.9250806963 -0.77612455812 7.5669092725 6.9250806963 -0.77612455812 
7.5669092725 6.9250806963 -0.77612455812 7.5669092725 6.9250806963 -0.77612455812 7.5669092725 6.9250806963 -0.77612455812 
7.5669092725 6.9250806963 -0.77612455812 7.5669092725 6.9250806963 -0.77612455812 7.5669092725 6.9250806963 -0.77612455812 
7.5669092725 6.9250806963 -0.77612455812 7.5669092725 6.9250806963 -0.77612455812 7.5669092725 6.9250806963 -0.77612455812 
7.5669092725 6.9250806963 -0.77612455812 7.5669092725 6.9250806963 -0.77612455812 7.5669092725 6.9250806963 -0.77612455812 
7.5669092725 6.9250806963 -0.77612455812 7.5669092725 6.9250806963 -0.77612455812 7.5669092725 6.9250806963 -0.77612455812 
7.5669092725 6.9250806963 -0.77612455812 7.5669092725 6.9250806963 -0.77612455812 7.5669092725 6.9250806963 -0.77612455812 
7.5669092725 6.9250806963 -0.77612455812 7.5669092725 6.9250806963 -0.77612455812 7.5669092725 6.9250806963 -0.77612455812 
7.5669092725 6.9250806963 -0.77612455812 7.5669092725 6.9250806963 -0.77612455812 7.5669092725 6.9250806963 -0.77612455812 
7.5669092725 6.9250806963 -0.77612455812 7.5669092725 6.9250806963 -0.77612455812 7.5669092725 6.9250806963 -0.77612455812 
7.5669092725 6.9250806963 -0.77612455812 7.5669092725 6.9250806963 -0.77612455812 7.5669092725 6.9250806963 -0.77612455812 
7.5669092725 6.9250806963 -0.77612455812 7.5669092725 6.9250806963 -0.77612455812 7.5669092725 6.9250806963 -0.77612455812 
7.5669092725 6.9250806963 -0.77612455812 7.5669092725 6.9250806963 -0.77612455812 7.5669092725 6.9250806963 -0.77612455812 
7.5669092725 6.9250806963 -0.77612455812 7.5669092725 6.9250806963 -0.77612455812 7.5669092725 6.9250806963 -0.77612455812 
7.5669092725 6.9250806963 -0.77612455812 7.5669092725 6.9250806963 -0.77612455812 7.5669092725 6.9250806963 -0.77612455812 
7.5669092725 6.9250806963 -0.77612455812 7.5669092725 6.9250806963 -0.77612455812 7.5669092725 6.9250806963 -0.77612455812 
7.5669092725 6.9250806963 -0.77612455812 
