# vtk DataFile Version 4.1
Generated by LIGGGHTS
ASCII
DATASET POLYDATA
POINTS 100 float
-0.11701 -0.153148 0.0113982 -0.126772 -0.149404 0.0115101 -0.136485 -0.147332 0.01289 
-0.124383 -0.160484 0.0135968 -0.110752 -0.161207 0.0138405 -0.132684 -0.157631 0.013634 
-0.143177 -0.153442 0.0137832 -0.116971 -0.164609 0.0113395 -0.145205 -0.145186 0.0131695 
-0.119504 -0.142399 0.0111955 -0.130814 -0.166075 0.0134269 -0.139894 -0.159577 0.0136701 
-0.124099 -0.140386 0.0151873 -0.125856 -0.169383 0.0123447 -0.130314 -0.140729 0.0155597 
-0.136504 -0.163852 0.0131098 -0.117441 -0.164259 0.017607 -0.141702 -0.141484 0.0179087 
-0.115954 -0.144343 0.0055994 -0.149337 -0.150254 0.0124404 -0.120867 -0.147295 0.00363959 
-0.130298 -0.171769 0.0128473 -0.113625 -0.162012 0.00652793 -0.103335 -0.160744 0.0158932 
-0.107142 -0.156562 0.00940252 -0.120238 -0.144097 0.0170895 -0.108291 -0.155908 0.0184121 
-0.105582 -0.161409 0.0191571 -0.13437 -0.170249 0.0132763 -0.127981 -0.155339 0.0193616 
-0.137293 -0.168467 0.0134257 -0.110864 -0.167655 0.00997769 -0.133035 -0.145934 0.00475792 
-0.121103 -0.169678 0.0106104 -0.150897 -0.144492 0.0114157 -0.110332 -0.159887 0.00630495 
-0.141258 -0.165086 0.0134075 -0.121206 -0.168479 0.0139309 -0.146579 -0.158956 0.0130167 
-0.124933 -0.139657 0.00981525 -0.137591 -0.155381 0.00869096 -0.122771 -0.167304 0.00859624 
-0.117907 -0.160236 0.0194546 -0.119579 -0.161837 0.00583723 -0.143903 -0.148408 0.0181306 
-0.149395 -0.155314 0.0127189 -0.106772 -0.152655 0.00932887 -0.127806 -0.139546 0.0112327 
-0.141053 -0.168098 0.0140596 -0.134492 -0.139539 0.0178725 -0.0464697 -0.122983 0.0109849 
-0.0565554 -0.120345 0.0117925 -0.0663287 -0.119387 0.0138168 -0.0528443 -0.131132 0.0134274 
-0.0392279 -0.130349 0.0128214 -0.0613879 -0.129216 0.0140473 -0.0722447 -0.126216 0.0149488 
-0.0451849 -0.134366 0.0106118 -0.0751952 -0.118224 0.0146847 -0.0501294 -0.112574 0.0112271 
-0.0586246 -0.137396 0.013497 -0.0683257 -0.131947 0.0144691 -0.0546531 -0.111163 0.0155444 
-0.0534142 -0.140112 0.0120254 -0.0607582 -0.112199 0.0162849 -0.0645321 -0.135809 0.0135873 
-0.0452918 -0.134197 0.0169034 -0.0718228 -0.114256 0.019301 -0.0467511 -0.113999 0.00537451 
-0.0787876 -0.123702 0.0140706 -0.0514271 -0.117436 0.00363761 -0.0575288 -0.142985 0.0127322 
-0.0424541 -0.131317 0.00567801 -0.0317904 -0.129111 0.0144308 -0.0364354 -0.125244 0.00830017 
-0.0502981 -0.114462 0.0171064 -0.0370748 -0.124905 0.0173774 -0.0337398 -0.130087 0.0178061 
-0.061707 -0.141933 0.0134494 -0.0566091 -0.126536 0.0195384 -0.0647913 -0.140488 0.0138248 
-0.0388806 -0.136689 0.0087984 -0.0635753 -0.117451 0.00553095 -0.0487773 -0.139844 0.00999764 
-0.0810287 -0.118128 0.0133001 -0.0394334 -0.128837 0.00531303 -0.069095 -0.137567 0.01414 
-0.0488 -0.138732 0.0133498 -0.0750661 -0.132056 0.0142409 -0.0559012 -0.110421 0.0102549 
-0.0668142 -0.127422 0.00947513 -0.0508191 -0.137629 0.00815415 -0.0460751 -0.130289 0.0188849 
-0.0484234 -0.131787 0.00535591 -0.0732377 -0.121383 0.0194678 -0.0782757 -0.128742 0.0142142 
-0.0364989 -0.121319 0.00831058 -0.058673 -0.110657 0.0118471 -0.0685214 -0.140551 0.0146962 
-0.064885 -0.111525 0.0188792 
VERTICES 100 200
1 0 
1 1 
1 2 
1 3 
1 4 
1 5 
1 6 
1 7 
1 8 
1 9 
1 10 
1 11 
1 12 
1 13 
1 14 
1 15 
1 16 
1 17 
1 18 
1 19 
1 20 
1 21 
1 22 
1 23 
1 24 
1 25 
1 26 
1 27 
1 28 
1 29 
1 30 
1 31 
1 32 
1 33 
1 34 
1 35 
1 36 
1 37 
1 38 
1 39 
1 40 
1 41 
1 42 
1 43 
1 44 
1 45 
1 46 
1 47 
1 48 
1 49 
1 50 
1 51 
1 52 
1 53 
1 54 
1 55 
1 56 
1 57 
1 58 
1 59 
1 60 
1 61 
1 62 
1 63 
1 64 
1 65 
1 66 
1 67 
1 68 
1 69 
1 70 
1 71 
1 72 
1 73 
1 74 
1 75 
1 76 
1 77 
1 78 
1 79 
1 80 
1 81 
1 82 
1 83 
1 84 
1 85 
1 86 
1 87 
1 88 
1 89 
1 90 
1 91 
1 92 
1 93 
1 94 
1 95 
1 96 
1 97 
1 98 
1 99 

POINT_DATA 100
FIELD FieldData 7
id 1 100 int
1 2 3 4 5 6 7 8 9 
10 11 12 13 14 15 16 17 18 
19 20 21 22 23 24 25 26 27 
28 29 30 31 32 33 34 35 36 
37 38 39 40 41 42 43 44 45 
46 47 48 49 50 51 52 53 54 
55 56 57 58 59 60 61 62 63 
64 65 66 67 68 69 70 71 72 
73 74 75 76 77 78 79 80 81 
82 83 84 85 86 87 88 89 90 
91 92 93 94 95 96 97 98 99 
100 
mol 1 100 int
1 1 1 1 1 1 1 1 1 
1 1 1 1 1 1 1 1 1 
1 1 1 1 1 1 1 1 1 
1 1 1 1 1 1 1 1 1 
1 1 1 1 1 1 1 1 1 
1 1 1 1 1 2 2 2 2 
2 2 2 2 2 2 2 2 2 
2 2 2 2 2 2 2 2 2 
2 2 2 2 2 2 2 2 2 
2 2 2 2 2 2 2 2 2 
2 2 2 2 2 2 2 2 2 
2 
type 1 100 int
1 1 1 1 1 1 1 1 1 
1 1 1 1 1 1 1 1 1 
1 1 1 1 1 1 1 1 1 
1 1 1 1 1 1 1 1 1 
1 1 1 1 1 1 1 1 1 
1 1 1 1 1 1 1 1 1 
1 1 1 1 1 1 1 1 1 
1 1 1 1 1 1 1 1 1 
1 1 1 1 1 1 1 1 1 
1 1 1 1 1 1 1 1 1 
1 1 1 1 1 1 1 1 1 
1 
v 3 100 double
-0.026205312074 -0.19578638314 -0.090310355895 -0.021271505073 -0.18432262894 -0.043423141433 -0.020620635 -0.19402678208 -0.024265115494 
-0.039688981433 -0.22230611095 -0.22401186662 -0.041060939267 -0.24496676614 -0.2145281163 -0.035853668282 -0.21159412884 -0.1896464296 
-0.030370588205 -0.19975369696 -0.13649892319 -0.041756087346 -0.19486207284 -0.28095206127 -0.018132550051 -0.18677418739 -0.002322114349 
-0.011212638235 -0.1890077405 0.084618758011 -0.047053036913 -0.21070166123 -0.32720521875 -0.038566157988 -0.20235347648 -0.23340068316 
-0.01476699954 -0.24915971513 0.11085920704 -0.049858664462 -0.1994615516 -0.37440739174 -0.015823251041 -0.24687182459 0.095336797946 
-0.043517668774 -0.19765744637 -0.29919367547 -0.051172108185 -0.29850947414 -0.27586292473 -0.020562173008 -0.27041531422 0.064796428643 
-0.0050318080574 -0.10073541517 0.057873219399 -0.023899927639 -0.16900167489 -0.093184877841 -0.0059671679068 -0.061418775112 0.00099812165982 
-0.053909932417 -0.20176105194 -0.42113508226 -0.030615014903 -0.1193660595 -0.23245273582 -0.043669732209 -0.28924710348 -0.19511735443 
-0.027714367668 -0.1760469989 -0.13153661495 -0.022834430674 -0.28608063161 0.055214405115 -0.041044761014 -0.32439575743 -0.12246552385 
-0.049729718044 -0.3404914447 -0.20972419593 -0.052511445056 -0.20334086485 -0.40225956903 -0.041767630133 -0.31331866357 -0.14408916373 
-0.050314739072 -0.20183687685 -0.3772199617 -0.043763444287 -0.18053828034 -0.32198936992 -0.0058742393493 -0.063418518242 0.0044438203992 
-0.047523484168 -0.17708957351 -0.37181504399 -0.014416662232 -0.14982212526 0.00023891140278 -0.027362029682 -0.12015040395 -0.19188987017 
-0.045672204839 -0.19612104207 -0.32723564131 -0.051128743265 -0.23220178011 -0.35202392367 -0.036687145495 -0.18235718366 -0.23362162505 
-0.0052910903369 -0.15863090354 0.12167274063 -0.024979257296 -0.12264561636 -0.15995664466 -0.041103659171 -0.14129746869 -0.33494993282 
-0.048598117039 -0.32861844047 -0.20966133262 -0.029285175003 -0.099745914649 -0.23893335737 -0.030363102641 -0.27110192444 -0.053888287006 
-0.031246392639 -0.17355754798 -0.17747321057 -0.022264692074 -0.17532675149 -0.065935030682 -0.0073772344279 -0.17829603875 0.11898562443 
-0.050813076793 -0.20725295441 -0.37703089282 -0.017849603446 -0.27965514372 0.10855070399 0.015330278596 -0.17714890146 -0.095300264625 
0.020170074855 -0.177373158 -0.034130004132 0.025399401268 -0.19685400327 0.0003353451975 0.01028698789 -0.20726569738 -0.20893873358 
0.010026946562 -0.21447776283 -0.22410185583 0.013868722158 -0.20645911 -0.16207026383 0.019337430979 -0.20719811898 -0.093749513173 
0.00069348538286 -0.17292796012 -0.27447066625 0.028559005209 -0.19949997572 0.036160333071 0.028517453694 -0.17644175044 0.073539755869 
0.0027841024815 -0.20129159881 -0.29451793465 0.011382657547 -0.20453727698 -0.19052155617 0.038899126 -0.23790282318 0.10450261306 
-0.0034816606107 -0.18481856841 -0.34710662766 0.039120729562 -0.24194133176 0.10068103048 0.0049012799027 -0.19548576028 -0.25805280968 
0.013519722554 -0.27040918106 -0.2716418772 0.042661051152 -0.2752337941 0.090964039253 0.015038487719 -0.089764203444 0.044650137979 
0.020642756818 -0.18558902831 -0.0416266658 0.0073615454886 -0.057111845097 0.00071687163038 -0.0055692932568 -0.19076353575 -0.38342481313 
-0.0054833788879 -0.099715770065 -0.23264972685 0.014765838437 -0.24852168774 -0.21981420142 0.0071866847757 -0.14774081701 -0.15050068687 
0.03800723518 -0.26744948359 0.044587294324 0.025809061668 -0.28778897017 -0.14395297137 0.020346399322 -0.29850918996 -0.23103582988 
-0.0028467614174 -0.19679303007 -0.35871979615 0.028153752834 -0.29748067132 -0.13007294482 -0.00033098343943 -0.1988542624 -0.33011986533 
-0.0057789363999 -0.15248687808 -0.32316358112 0.011141099506 -0.071663235228 0.024852118539 -0.0072227850341 -0.15901699466 -0.35225791552 
0.025898768092 -0.17090063075 0.049352275082 -0.0031890658016 -0.097739004544 -0.20022728989 0.0038649659372 -0.1984932322 -0.27617402923 
0.00085872587814 -0.2109956328 -0.33495291479 0.010792234423 -0.19277186047 -0.17868653648 0.029193729962 -0.15431660373 0.1185125141 
0.0068859646748 -0.12890282439 -0.12335471149 -0.0082176373051 -0.12792514592 -0.31379260539 0.022262733066 -0.30019412055 -0.20943930693 
-0.0067027064018 -0.087435210703 -0.22796445156 0.034298729751 -0.276094924 -0.016780181697 0.014781429938 -0.18844256829 -0.12084578655 
0.011996615421 -0.1478246229 -0.089479272298 0.032099346349 -0.17563551256 0.12040966498 0.0013402538473 -0.20782171539 -0.32361226906 
0.045147029041 -0.27715489421 0.11941543382 
f 3 100 double
0 0 0 0 0 0 0 0 0 
0 0 0 0 0 0 0 0 0 
0 0 0 0 0 0 0 0 0 
0 0 0 0 0 0 0 0 0 
0 0 0 0 0 0 0 0 0 
0 0 0 0 0 0 0 0 0 
0 0 0 0 0 0 -0.06610542645 -0.050854271522 0.24236427245 
0 0 0 0 0 0 0 0 0 
0 0 0 0 0 0 0 0 0 
0 0 0 0 0 0 0 0 0 
0 0 0 0 0 0 0 0 0 
0 0 0 0 0 0 0 0 0 
0 0 0 0 0 0 0 0 0 
0 0 0 0 0 0 0 0 0 
0 0 0 0 0 0 0 0 0 
0 0 0 0 0 0 0 0 0 
0 0 0 0 0 0 0 0 0 
0 0 0 0 0 0 0 0 0 
0 0 0 0 0 0 0 0 0 
0 0 0 0 0 0 0 0 0 
0 0 0 0 0 0 0 0 0 
0 0 0 0 0 0 0 0 0 
0 0 0 0 0 0 0 0 0 
0 0 0 -0.058491726889 -0.068489664666 0.25744009468 0 0 0 
0 0 0 0 0 0 0 0 0 
0 0 0 0 0 0 0 0 0 
0 0 0 0 0 0 0 0 0 
0 0 0 0 0 0 0 0 0 
0 0 0 0 0 0 0 0 0 
0 0 0 0 0 0 0 0 0 
0 0 0 0 0 0 0 0 0 
0 0 0 0 0 0 0 0 0 
0 0 0 0 0 0 0 0 0 
0 0 0 
radius 1 100 double
0.010434 0.00981478 0.00892069 0.00845937 0.00731974 0.00728422 0.00643447 0.00619172 0.00585956 
0.00577566 0.00537241 0.00522549 0.00513666 0.00473175 0.00466912 0.00444866 0.00441894 0.00400812 
0.00385622 0.00379948 0.00370243 0.00366942 0.00364039 0.00363813 0.00363644 0.00358692 0.0035797 
0.00341284 0.00337012 0.00336273 0.00332772 0.00323261 0.00320584 0.00320311 0.00318808 0.00313116 
0.00306026 0.00305632 0.00304383 0.00300958 0.00300137 0.00298994 0.0029567 0.00295111 0.00290849 
0.00284552 0.00282964 0.0028207 0.00281971 0.00281899 0.010434 0.00981478 0.00892069 0.00845937 
0.00731974 0.00728422 0.00643447 0.00619172 0.00585956 0.00577566 0.00537241 0.00522549 0.00513666 
0.00473175 0.00466912 0.00444866 0.00441894 0.00400812 0.00385622 0.00379948 0.00370243 0.00366942 
0.00364039 0.00363813 0.00363644 0.00358692 0.0035797 0.00341284 0.00337012 0.00336273 0.00332772 
0.00323261 0.00320584 0.00320311 0.00318808 0.00313116 0.00306026 0.00305632 0.00304383 0.00300958 
0.00300137 0.00298994 0.0029567 0.00295111 0.00290849 0.00284552 0.00282964 0.0028207 0.00281971 
0.00281899 
omega 3 100 double
16.639789213 -1.5786902036 -1.3649732188 16.639789213 -1.5786902036 -1.3649732188 16.639789213 -1.5786902036 -1.3649732188 
16.639789213 -1.5786902036 -1.3649732188 16.639789213 -1.5786902036 -1.3649732188 16.639789213 -1.5786902036 -1.3649732188 
16.639789213 -1.5786902036 -1.3649732188 16.639789213 -1.5786902036 -1.3649732188 16.639789213 -1.5786902036 -1.3649732188 
16.639789213 -1.5786902036 -1.3649732188 16.639789213 -1.5786902036 -1.3649732188 16.639789213 -1.5786902036 -1.3649732188 
16.639789213 -1.5786902036 -1.3649732188 16.639789213 -1.5786902036 -1.3649732188 16.639789213 -1.5786902036 -1.3649732188 
16.639789213 -1.5786902036 -1.3649732188 16.639789213 -1.5786902036 -1.3649732188 16.639789213 -1.5786902036 -1.3649732188 
16.639789213 -1.5786902036 -1.3649732188 16.639789213 -1.5786902036 -1.3649732188 16.639789213 -1.5786902036 -1.3649732188 
16.639789213 -1.5786902036 -1.3649732188 16.639789213 -1.5786902036 -1.3649732188 16.639789213 -1.5786902036 -1.3649732188 
16.639789213 -1.5786902036 -1.3649732188 16.639789213 -1.5786902036 -1.3649732188 16.639789213 -1.5786902036 -1.3649732188 
16.639789213 -1.5786902036 -1.3649732188 16.639789213 -1.5786902036 -1.3649732188 16.639789213 -1.5786902036 -1.3649732188 
16.639789213 -1.5786902036 -1.3649732188 16.639789213 -1.5786902036 -1.3649732188 16.639789213 -1.5786902036 -1.3649732188 
16.639789213 -1.5786902036 -1.3649732188 16.639789213 -1.5786902036 -1.3649732188 16.639789213 -1.5786902036 -1.3649732188 
16.639789213 -1.5786902036 -1.3649732188 16.639789213 -1.5786902036 -1.3649732188 16.639789213 -1.5786902036 -1.3649732188 
16.639789213 -1.5786902036 -1.3649732188 16.639789213 -1.5786902036 -1.3649732188 16.639789213 -1.5786902036 -1.3649732188 
16.639789213 -1.5786902036 -1.3649732188 16.639789213 -1.5786902036 -1.3649732188 16.639789213 -1.5786902036 -1.3649732188 
16.639789213 -1.5786902036 -1.3649732188 16.639789213 -1.5786902036 -1.3649732188 16.639789213 -1.5786902036 -1.3649732188 
16.639789213 -1.5786902036 -1.3649732188 16.639789213 -1.5786902036 -1.3649732188 15.514401677 2.0059233513 -1.2201468681 
15.514401677 2.0059233513 -1.2201468681 15.514401677 2.0059233513 -1.2201468681 15.514401677 2.0059233513 -1.2201468681 
15.514401677 2.0059233513 -1.2201468681 15.514401677 2.0059233513 -1.2201468681 15.514401677 2.0059233513 -1.2201468681 
15.514401677 2.0059233513 -1.2201468681 15.514401677 2.0059233513 -1.2201468681 15.514401677 2.0059233513 -1.2201468681 
15.514401677 2.0059233513 -1.2201468681 15.514401677 2.0059233513 -1.2201468681 15.514401677 2.0059233513 -1.2201468681 
15.514401677 2.0059233513 -1.2201468681 15.514401677 2.0059233513 -1.2201468681 15.514401677 2.0059233513 -1.2201468681 
15.514401677 2.0059233513 -1.2201468681 15.514401677 2.0059233513 -1.2201468681 15.514401677 2.0059233513 -1.2201468681 
15.514401677 2.0059233513 -1.2201468681 15.514401677 2.0059233513 -1.2201468681 15.514401677 2.0059233513 -1.2201468681 
15.514401677 2.0059233513 -1.2201468681 15.514401677 2.0059233513 -1.2201468681 15.514401677 2.0059233513 -1.2201468681 
15.514401677 2.0059233513 -1.2201468681 15.514401677 2.0059233513 -1.2201468681 15.514401677 2.0059233513 -1.2201468681 
15.514401677 2.0059233513 -1.2201468681 15.514401677 2.0059233513 -1.2201468681 15.514401677 2.0059233513 -1.2201468681 
15.514401677 2.0059233513 -1.2201468681 15.514401677 2.0059233513 -1.2201468681 15.514401677 2.0059233513 -1.2201468681 
15.514401677 2.0059233513 -1.2201468681 15.514401677 2.0059233513 -1.2201468681 15.514401677 2.0059233513 -1.2201468681 
15.514401677 2.0059233513 -1.2201468681 15.514401677 2.0059233513 -1.2201468681 15.514401677 2.0059233513 -1.2201468681 
15.514401677 2.0059233513 -1.2201468681 15.514401677 2.0059233513 -1.2201468681 15.514401677 2.0059233513 -1.2201468681 
15.514401677 2.0059233513 -1.2201468681 15.514401677 2.0059233513 -1.2201468681 15.514401677 2.0059233513 -1.2201468681 
15.514401677 2.0059233513 -1.2201468681 15.514401677 2.0059233513 -1.2201468681 15.514401677 2.0059233513 -1.2201468681 
15.514401677 2.0059233513 -1.2201468681 
