# vtk DataFile Version 4.1
Generated by LIGGGHTS
ASCII
DATASET POLYDATA
POINTS 100 float
-0.120181 -0.140131 0.0170596 -0.129353 -0.139155 0.0121343 -0.138916 -0.138223 0.00927001 
-0.128416 -0.144037 0.0225317 -0.115356 -0.142309 0.0261178 -0.136226 -0.143455 0.0185686 
-0.146079 -0.142281 0.0131621 -0.121021 -0.147249 0.0260028 -0.147246 -0.137952 0.00591351 
-0.121706 -0.134012 0.00800169 -0.135025 -0.148558 0.0254508 -0.143355 -0.145679 0.0185903 
-0.126965 -0.130353 0.00779428 -0.130226 -0.150715 0.0284518 -0.133091 -0.131183 0.00696884 
-0.140274 -0.148259 0.022324 -0.12298 -0.142257 0.0292996 -0.14473 -0.131493 0.00653169 
-0.117058 -0.139021 0.00699534 -0.151456 -0.142248 0.00858107 -0.121558 -0.143074 0.00712084 
-0.134828 -0.152448 0.0296764 -0.116409 -0.148876 0.0218588 -0.108653 -0.139356 0.0285233 
-0.110421 -0.142345 0.0206455 -0.123988 -0.130612 0.0126269 -0.113683 -0.135145 0.0251671 
-0.111674 -0.137572 0.0304806 -0.13875 -0.15177 0.0278779 -0.132902 -0.136928 0.0211219 
-0.141473 -0.15098 0.0259537 -0.115022 -0.149293 0.0288781 -0.133486 -0.143142 0.00414172 
-0.125231 -0.151545 0.0286704 -0.152265 -0.139708 0.00314185 -0.113006 -0.147256 0.02076 
-0.145039 -0.149484 0.0224606 -0.126049 -0.148253 0.0296546 -0.149608 -0.146775 0.0163107 
-0.126402 -0.134177 0.00390166 -0.139585 -0.146601 0.0128774 -0.126167 -0.151879 0.0252809 
-0.123568 -0.138413 0.0271351 -0.121981 -0.150169 0.0200602 -0.147451 -0.135918 0.0116155 
-0.151974 -0.145166 0.0126919 -0.109742 -0.139934 0.0176225 -0.129516 -0.133431 0.00403846 
-0.145234 -0.15081 0.0252431 -0.137601 -0.129269 0.00650987 -0.0515423 -0.111962 0.016492 
-0.0608545 -0.11109 0.0118167 -0.070513 -0.110483 0.00919392 -0.0594139 -0.116875 0.0216797 
-0.0464123 -0.114692 0.0252272 -0.0673241 -0.116403 0.0179042 -0.0773373 -0.11533 0.0127789 
-0.05177 -0.11994 0.0247174 -0.07891 -0.110409 0.00599969 -0.0536168 -0.105113 0.00809004 
-0.065678 -0.122055 0.0242436 -0.0743041 -0.119056 0.0178139 -0.0590904 -0.101784 0.00831269 
-0.0606975 -0.124187 0.0269529 -0.0651703 -0.102908 0.00749939 -0.0709983 -0.121785 0.0212362 
-0.0539589 -0.115417 0.0285087 -0.076776 -0.103895 0.0072022 -0.0486973 -0.109705 0.00653798 
-0.0827985 -0.115193 0.00830047 -0.0529406 -0.114023 0.00633642 -0.0651611 -0.126311 0.0280706 
-0.0471531 -0.120875 0.0203696 -0.0398518 -0.111573 0.0278096 -0.0415963 -0.113899 0.0197064 
-0.056005 -0.102318 0.0130543 -0.0451935 -0.10738 0.0249485 -0.0429348 -0.110174 0.0299734 
-0.069153 -0.125709 0.0264027 -0.0643483 -0.109956 0.0210275 -0.071957 -0.124908 0.0246032 
-0.0456017 -0.121873 0.0272952 -0.0649012 -0.114544 0.00353695 -0.0556584 -0.124723 0.0270182 
-0.0838694 -0.1122 0.00314408 -0.0438773 -0.11895 0.0193834 -0.0756762 -0.12331 0.0213226 
-0.0566534 -0.121597 0.0283274 -0.0805248 -0.120314 0.0155296 -0.0583769 -0.105175 0.00406144 
-0.0706025 -0.119193 0.0119849 -0.0566408 -0.124789 0.0236263 -0.0548219 -0.111427 0.0267341 
-0.0526727 -0.122333 0.0185352 -0.0791217 -0.108946 0.0118737 -0.0830561 -0.118517 0.0121175 
-0.0411244 -0.111174 0.0169208 -0.0615271 -0.104641 0.00431446 -0.0757347 -0.124905 0.0239666 
-0.0697959 -0.101242 0.00729243 
VERTICES 100 200
1 0 
1 1 
1 2 
1 3 
1 4 
1 5 
1 6 
1 7 
1 8 
1 9 
1 10 
1 11 
1 12 
1 13 
1 14 
1 15 
1 16 
1 17 
1 18 
1 19 
1 20 
1 21 
1 22 
1 23 
1 24 
1 25 
1 26 
1 27 
1 28 
1 29 
1 30 
1 31 
1 32 
1 33 
1 34 
1 35 
1 36 
1 37 
1 38 
1 39 
1 40 
1 41 
1 42 
1 43 
1 44 
1 45 
1 46 
1 47 
1 48 
1 49 
1 50 
1 51 
1 52 
1 53 
1 54 
1 55 
1 56 
1 57 
1 58 
1 59 
1 60 
1 61 
1 62 
1 63 
1 64 
1 65 
1 66 
1 67 
1 68 
1 69 
1 70 
1 71 
1 72 
1 73 
1 74 
1 75 
1 76 
1 77 
1 78 
1 79 
1 80 
1 81 
1 82 
1 83 
1 84 
1 85 
1 86 
1 87 
1 88 
1 89 
1 90 
1 91 
1 92 
1 93 
1 94 
1 95 
1 96 
1 97 
1 98 
1 99 

POINT_DATA 100
FIELD FieldData 7
id 1 100 int
1 2 3 4 5 6 7 8 9 
10 11 12 13 14 15 16 17 18 
19 20 21 22 23 24 25 26 27 
28 29 30 31 32 33 34 35 36 
37 38 39 40 41 42 43 44 45 
46 47 48 49 50 51 52 53 54 
55 56 57 58 59 60 61 62 63 
64 65 66 67 68 69 70 71 72 
73 74 75 76 77 78 79 80 81 
82 83 84 85 86 87 88 89 90 
91 92 93 94 95 96 97 98 99 
100 
mol 1 100 int
1 1 1 1 1 1 1 1 1 
1 1 1 1 1 1 1 1 1 
1 1 1 1 1 1 1 1 1 
1 1 1 1 1 1 1 1 1 
1 1 1 1 1 1 1 1 1 
1 1 1 1 1 2 2 2 2 
2 2 2 2 2 2 2 2 2 
2 2 2 2 2 2 2 2 2 
2 2 2 2 2 2 2 2 2 
2 2 2 2 2 2 2 2 2 
2 2 2 2 2 2 2 2 2 
2 
type 1 100 int
1 1 1 1 1 1 1 1 1 
1 1 1 1 1 1 1 1 1 
1 1 1 1 1 1 1 1 1 
1 1 1 1 1 1 1 1 1 
1 1 1 1 1 1 1 1 1 
1 1 1 1 1 1 1 1 1 
1 1 1 1 1 1 1 1 1 
1 1 1 1 1 1 1 1 1 
1 1 1 1 1 1 1 1 1 
1 1 1 1 1 1 1 1 1 
1 1 1 1 1 1 1 1 1 
1 
v 3 100 double
0.0034724886525 -0.1463574694 -0.1679323707 -0.020548229894 -0.1024337146 -0.11449193066 -0.033991373328 -0.070776267329 -0.059308848914 
0.026082745864 -0.16852405927 -0.14972779308 0.047096866765 -0.20972874595 -0.20640534294 0.0064590060084 -0.13255884056 -0.10577781351 
-0.019760384315 -0.084655605926 -0.047592172459 0.039362148546 -0.20082442352 -0.20791274729 -0.050931152452 -0.037838092589 -0.014611567374 
-0.034454107935 -0.087757511076 -0.12196175055 0.034619774223 -0.17714479925 -0.14375166129 0.0033566159703 -0.12238939182 -0.082813533738 
-0.030235924526 -0.078863556692 -0.072022445977 0.046998405636 -0.20276694368 -0.1819607306 -0.035697450373 -0.064869691705 -0.045558031364 
0.01890629634 -0.15008860954 -0.1147838543 0.063601301949 -0.21851912555 -0.1667178389 -0.038402496472 -0.045323645738 0.012612446746 
-0.046890434562 -0.088209773829 -0.17714326953 -0.043366718803 -0.048360995577 -0.019619452346 -0.052101826084 -0.082487417624 -0.17914866546 
0.050816616546 -0.2037384785 -0.16898534891 0.015612115851 -0.18169048594 -0.24185971974 0.063786114634 -0.23439503606 -0.22263318098 
0.018789061619 -0.18279093833 -0.23210692123 -0.0056566913361 -0.11325636651 -0.089011134809 0.052544346848 -0.20622851632 -0.1704384647 
0.076472584856 -0.24221406316 -0.19592065056 0.042509235341 -0.18687080923 -0.14451294904 0.029078363651 -0.15326102311 -0.082302933901 
0.033715880285 -0.17095470012 -0.12553287401 0.051254584615 -0.22739768965 -0.25161352922 -0.067582312651 -0.046696616384 -0.11797584141 
0.046926659184 -0.21134746586 -0.21292079844 -0.067781289941 -0.013326358602 0.00037118416795 0.012280135421 -0.17976785545 -0.24934333051 
0.0178412143 -0.14405248872 -0.097809375135 0.056767309185 -0.21629271472 -0.18820022447 -0.00999759907 -0.099157559417 -0.057345103886 
-0.055862292168 -0.05544177455 -0.098734312977 -0.027474727653 -0.092269351945 -0.10801708234 0.028942682121 -0.18889198422 -0.21016701289 
0.057982153654 -0.20419199509 -0.13974185921 0.0044562105534 -0.16243759073 -0.22113611187 -0.018548848871 -0.073042594582 -0.00089023430926 
-0.026358238907 -0.073206908179 -0.035113929843 0.0066638422192 -0.16495255906 -0.22061124407 -0.054078124369 -0.051791764615 -0.078011077048 
0.030291848793 -0.16109457546 -0.10505893051 -0.035300359099 -0.055492824898 -0.010351958332 -0.0073552131455 -0.13009886142 -0.19955079296 
-0.036314504982 -0.091628471184 -0.13469217613 -0.052529219049 -0.068871998743 -0.069717099058 0.023732133145 -0.1679610018 -0.18823501342 
0.04645931822 -0.19872398079 -0.252601697 0.00028473527309 -0.13679115128 -0.13521156553 -0.031430664559 -0.09467029612 -0.064435447183 
0.041886278164 -0.1933791062 -0.25956200748 -0.072452925984 -0.042049379244 -0.016721785017 -0.057998238942 -0.064848681114 -0.13385370271 
0.038367282189 -0.18604479001 -0.18901589928 -0.0009819237985 -0.13424642099 -0.11206282726 -0.05572597736 -0.065112745289 -0.074041954545 
0.054718009583 -0.20822787954 -0.23652831152 -0.061101892312 -0.057238783367 -0.044744191883 0.019662349799 -0.16147638072 -0.15371566547 
0.066755422123 -0.22199377079 -0.21106330607 -0.063218942259 -0.051874927179 0.020115642371 -0.068905383027 -0.054200452737 -0.19993046514 
-0.059355448913 -0.05873647713 -0.029279823637 -0.071308042628 -0.051523854093 -0.2066876734 0.061133974112 -0.21565241885 -0.22501218818 
0.014492920773 -0.16112185109 -0.29558971494 0.063409294421 -0.22034866556 -0.26954239059 0.012200631267 -0.15748706843 -0.27656280743 
-0.026263188614 -0.10244366416 -0.09742041517 0.046657478989 -0.19690147956 -0.20390132439 0.077289673994 -0.23619419139 -0.23951962525 
0.050879477409 -0.20175028068 -0.1954540896 0.021493701003 -0.1616313154 -0.10414579821 0.039856559542 -0.18715032812 -0.17178501808 
0.057468297012 -0.21486399455 -0.31296268491 -0.088924730272 -0.026796928654 -0.13602728813 0.054983851744 -0.21006633191 -0.27212025333 
-0.090756515457 -0.018745354376 0.0004504172314 0.0088456991039 -0.15439555227 -0.30121750199 0.01979762999 -0.16090206412 -0.13625230651 
0.06398568388 -0.2198837208 -0.24183708096 -0.015577441936 -0.11500740345 -0.082910788221 -0.083167481485 -0.032564632438 -0.10461566805 
-0.037411292874 -0.090340854441 -0.13622689468 0.033788503393 -0.18368568051 -0.2664934135 0.056733389795 -0.20810017476 -0.17495088878 
0.0026530859921 -0.14553275448 -0.27235469998 -0.035390516734 -0.08722695557 -0.0041321226411 -0.036404792652 -0.088061325056 -0.053267103711 
-0.0044693238296 -0.13616108592 -0.25852249815 -0.081446020143 -0.033678319374 -0.080829349388 0.03588283692 -0.18124712737 -0.14817346771 
-0.061952551267 -0.054419333123 -0.0030332442093 
f 3 100 double
0 0 0 0 0 0 0 0 0 
0 0 0 0 0 0 0 0 0 
0 0 0 0 0 0 0 0 0 
0 0 0 0 0 0 0 0 0 
0 0 0 0 0 0 0 0 0 
0 0 0 0 0 0 0 0 0 
0 0 0 0 0 0 0 0 0 
0 0 0 0 0 0 0 0 0 
0 0 0 0 0 0 0 0 0 
0 0 0 0 0 0 0 0 0 
0 0 0 0 0 0 0 0 0 
0 0 0 0.072139712643 -0.0054018239439 0.14468334862 0 0 0 
0 0 0 0 0 0 0 0 0 
0 0 0 0 0 0 0 0 0 
0 0 0 0 0 0 0 0 0 
0 0 0 0 0 0 0 0 0 
0 0 0 0 0 0 0 0 0 
0 0 0 0 0 0 0 0 0 
0 0 0 0 0 0 0 0 0 
0 0 0 0 0 0 0 0 0 
0 0 0 0 0 0 0 0 0 
0 0 0 0 0 0 0 0 0 
0 0 0 0 0 0 0 0 0 
0 0 0 0 0 0 0 0 0 
0 0 0 0 0 0 0 0 0 
0 0 0 0 0 0 0 0 0 
0 0 0 0 0 0 0 0 0 
0 0 0 0 0 0 0 0 0 
0.066591512716 -0.0033657943341 0.13335303727 0 0 0 0 0 0 
0 0 0 0 0 0 0 0 0 
0 0 0 0 0 0 0 0 0 
0 0 0 0 0 0 0 0 0 
0 0 0 0 0 0 0 0 0 
0 0 0 
radius 1 100 double
0.010434 0.00981478 0.00892069 0.00845937 0.00731974 0.00728422 0.00643447 0.00619172 0.00585956 
0.00577566 0.00537241 0.00522549 0.00513666 0.00473175 0.00466912 0.00444866 0.00441894 0.00400812 
0.00385622 0.00379948 0.00370243 0.00366942 0.00364039 0.00363813 0.00363644 0.00358692 0.0035797 
0.00341284 0.00337012 0.00336273 0.00332772 0.00323261 0.00320584 0.00320311 0.00318808 0.00313116 
0.00306026 0.00305632 0.00304383 0.00300958 0.00300137 0.00298994 0.0029567 0.00295111 0.00290849 
0.00284552 0.00282964 0.0028207 0.00281971 0.00281899 0.010434 0.00981478 0.00892069 0.00845937 
0.00731974 0.00728422 0.00643447 0.00619172 0.00585956 0.00577566 0.00537241 0.00522549 0.00513666 
0.00473175 0.00466912 0.00444866 0.00441894 0.00400812 0.00385622 0.00379948 0.00370243 0.00366942 
0.00364039 0.00363813 0.00363644 0.00358692 0.0035797 0.00341284 0.00337012 0.00336273 0.00332772 
0.00323261 0.00320584 0.00320311 0.00318808 0.00313116 0.00306026 0.00305632 0.00304383 0.00300958 
0.00300137 0.00298994 0.0029567 0.00295111 0.00290849 0.00284552 0.00282964 0.0028207 0.00281971 
0.00281899 
omega 3 100 double
6.2261110762 5.1635879307 -1.4455065921 6.2261110762 5.1635879307 -1.4455065921 6.2261110762 5.1635879307 -1.4455065921 
6.2261110762 5.1635879307 -1.4455065921 6.2261110762 5.1635879307 -1.4455065921 6.2261110762 5.1635879307 -1.4455065921 
6.2261110762 5.1635879307 -1.4455065921 6.2261110762 5.1635879307 -1.4455065921 6.2261110762 5.1635879307 -1.4455065921 
6.2261110762 5.1635879307 -1.4455065921 6.2261110762 5.1635879307 -1.4455065921 6.2261110762 5.1635879307 -1.4455065921 
6.2261110762 5.1635879307 -1.4455065921 6.2261110762 5.1635879307 -1.4455065921 6.2261110762 5.1635879307 -1.4455065921 
6.2261110762 5.1635879307 -1.4455065921 6.2261110762 5.1635879307 -1.4455065921 6.2261110762 5.1635879307 -1.4455065921 
6.2261110762 5.1635879307 -1.4455065921 6.2261110762 5.1635879307 -1.4455065921 6.2261110762 5.1635879307 -1.4455065921 
6.2261110762 5.1635879307 -1.4455065921 6.2261110762 5.1635879307 -1.4455065921 6.2261110762 5.1635879307 -1.4455065921 
6.2261110762 5.1635879307 -1.4455065921 6.2261110762 5.1635879307 -1.4455065921 6.2261110762 5.1635879307 -1.4455065921 
6.2261110762 5.1635879307 -1.4455065921 6.2261110762 5.1635879307 -1.4455065921 6.2261110762 5.1635879307 -1.4455065921 
6.2261110762 5.1635879307 -1.4455065921 6.2261110762 5.1635879307 -1.4455065921 6.2261110762 5.1635879307 -1.4455065921 
6.2261110762 5.1635879307 -1.4455065921 6.2261110762 5.1635879307 -1.4455065921 6.2261110762 5.1635879307 -1.4455065921 
6.2261110762 5.1635879307 -1.4455065921 6.2261110762 5.1635879307 -1.4455065921 6.2261110762 5.1635879307 -1.4455065921 
6.2261110762 5.1635879307 -1.4455065921 6.2261110762 5.1635879307 -1.4455065921 6.2261110762 5.1635879307 -1.4455065921 
6.2261110762 5.1635879307 -1.4455065921 6.2261110762 5.1635879307 -1.4455065921 6.2261110762 5.1635879307 -1.4455065921 
6.2261110762 5.1635879307 -1.4455065921 6.2261110762 5.1635879307 -1.4455065921 6.2261110762 5.1635879307 -1.4455065921 
6.2261110762 5.1635879307 -1.4455065921 6.2261110762 5.1635879307 -1.4455065921 7.7006095874 6.2435198547 -0.26498321626 
7.7006095874 6.2435198547 -0.26498321626 7.7006095874 6.2435198547 -0.26498321626 7.7006095874 6.2435198547 -0.26498321626 
7.7006095874 6.2435198547 -0.26498321626 7.7006095874 6.2435198547 -0.26498321626 7.7006095874 6.2435198547 -0.26498321626 
7.7006095874 6.2435198547 -0.26498321626 7.7006095874 6.2435198547 -0.26498321626 7.7006095874 6.2435198547 -0.26498321626 
7.7006095874 6.2435198547 -0.26498321626 7.7006095874 6.2435198547 -0.26498321626 7.7006095874 6.2435198547 -0.26498321626 
7.7006095874 6.2435198547 -0.26498321626 7.7006095874 6.2435198547 -0.26498321626 7.7006095874 6.2435198547 -0.26498321626 
7.7006095874 6.2435198547 -0.26498321626 7.7006095874 6.2435198547 -0.26498321626 7.7006095874 6.2435198547 -0.26498321626 
7.7006095874 6.2435198547 -0.26498321626 7.7006095874 6.2435198547 -0.26498321626 7.7006095874 6.2435198547 -0.26498321626 
7.7006095874 6.2435198547 -0.26498321626 7.7006095874 6.2435198547 -0.26498321626 7.7006095874 6.2435198547 -0.26498321626 
7.7006095874 6.2435198547 -0.26498321626 7.7006095874 6.2435198547 -0.26498321626 7.7006095874 6.2435198547 -0.26498321626 
7.7006095874 6.2435198547 -0.26498321626 7.7006095874 6.2435198547 -0.26498321626 7.7006095874 6.2435198547 -0.26498321626 
7.7006095874 6.2435198547 -0.26498321626 7.7006095874 6.2435198547 -0.26498321626 7.7006095874 6.2435198547 -0.26498321626 
7.7006095874 6.2435198547 -0.26498321626 7.7006095874 6.2435198547 -0.26498321626 7.7006095874 6.2435198547 -0.26498321626 
7.7006095874 6.2435198547 -0.26498321626 7.7006095874 6.2435198547 -0.26498321626 7.7006095874 6.2435198547 -0.26498321626 
7.7006095874 6.2435198547 -0.26498321626 7.7006095874 6.2435198547 -0.26498321626 7.7006095874 6.2435198547 -0.26498321626 
7.7006095874 6.2435198547 -0.26498321626 7.7006095874 6.2435198547 -0.26498321626 7.7006095874 6.2435198547 -0.26498321626 
7.7006095874 6.2435198547 -0.26498321626 7.7006095874 6.2435198547 -0.26498321626 7.7006095874 6.2435198547 -0.26498321626 
7.7006095874 6.2435198547 -0.26498321626 
