# vtk DataFile Version 4.1
Generated by LIGGGHTS
ASCII
DATASET POLYDATA
POINTS 100 float
-0.116911 -0.147549 0.0131244 -0.126794 -0.144457 0.0116774 -0.136585 -0.142335 0.0120889 
-0.124056 -0.153505 0.0182693 -0.110412 -0.153579 0.0187348 -0.132448 -0.1512 0.0171272 
-0.143077 -0.147715 0.0155278 -0.116486 -0.157937 0.0179477 -0.145375 -0.140581 0.0114687 
-0.119763 -0.138001 0.00837839 -0.130293 -0.158859 0.0205244 -0.139589 -0.153196 0.0180209 
-0.124465 -0.134644 0.0111554 -0.125215 -0.162137 0.0209294 -0.130669 -0.135013 0.011667 
-0.136051 -0.157183 0.0193175 -0.117035 -0.15497 0.0234724 -0.142049 -0.135095 0.0141664 
-0.11609 -0.142016 0.00412517 -0.149326 -0.145619 0.0129847 -0.120879 -0.145691 0.00363035 
-0.12958 -0.164237 0.0224203 -0.113177 -0.157518 0.012473 -0.103037 -0.152027 0.0203613 
-0.106913 -0.15114 0.0127255 -0.120502 -0.137055 0.0144378 -0.10818 -0.146756 0.0206056 
-0.105295 -0.151319 0.0236081 -0.133705 -0.162821 0.0221801 -0.127887 -0.146527 0.0213135 
-0.136688 -0.161249 0.0215705 -0.110265 -0.161057 0.0179832 -0.133097 -0.14441 0.00411903 
-0.120437 -0.162975 0.0194636 -0.151068 -0.140899 0.00961259 -0.109955 -0.155575 0.0113517 
-0.140764 -0.158338 0.0201339 -0.120616 -0.160482 0.0219587 -0.146283 -0.153147 0.0171962 
-0.125265 -0.136299 0.00598764 -0.137374 -0.15144 0.0117193 -0.122162 -0.161744 0.0166386 
-0.117655 -0.150562 0.0234349 -0.119126 -0.157861 0.0118007 -0.144019 -0.141339 0.0173234 
-0.149217 -0.150079 0.0153901 -0.106674 -0.147625 0.0109946 -0.128155 -0.135696 0.00723632 
-0.140465 -0.160778 0.0220048 -0.134908 -0.133099 0.0132727 -0.0475882 -0.118061 0.0129733 
-0.0577138 -0.115751 0.0117615 -0.0676459 -0.114508 0.0123456 -0.0541467 -0.124908 0.0177811 
-0.0405423 -0.123835 0.0181786 -0.0627163 -0.123269 0.0168192 -0.07362 -0.120623 0.0154825 
-0.0462282 -0.128644 0.0171572 -0.0765591 -0.113482 0.0118732 -0.0512936 -0.108528 0.00882684 
-0.0598799 -0.130904 0.0197368 -0.0696505 -0.125923 0.0176233 -0.0562384 -0.10576 0.0118235 
-0.0545364 -0.133751 0.0199194 -0.062383 -0.106692 0.0123404 -0.065772 -0.12966 0.0186601 
-0.0469751 -0.126072 0.0228538 -0.0736891 -0.107902 0.0148825 -0.0473321 -0.111949 0.00432165 
-0.0800493 -0.118924 0.0130996 -0.0517939 -0.115987 0.00362739 -0.0586904 -0.136304 0.0213005 
-0.0430215 -0.127615 0.0117027 -0.033312 -0.121755 0.0198621 -0.0373241 -0.120748 0.0123119 
-0.0520521 -0.108013 0.0149357 -0.0388848 -0.116969 0.0204486 -0.0355908 -0.121439 0.0231562 
-0.062924 -0.135238 0.0211655 -0.0585312 -0.11848 0.0212596 -0.066036 -0.133894 0.0206658 
-0.0397632 -0.131214 0.0169753 -0.0640715 -0.115793 0.00424887 -0.0497184 -0.134086 0.0183837 
-0.0822219 -0.114177 0.0100274 -0.039989 -0.125339 0.0106862 -0.0703606 -0.131264 0.0194267 
-0.0500862 -0.131771 0.0210259 -0.0763322 -0.1264 0.0168339 -0.0569449 -0.107165 0.0065688 
-0.0676564 -0.123608 0.0114294 -0.0515706 -0.13284 0.0156462 -0.047971 -0.12174 0.0230858 
-0.0489252 -0.128428 0.0110382 -0.0750861 -0.11447 0.0176649 -0.0795353 -0.123493 0.0152303 
-0.0374036 -0.117128 0.0107957 -0.0598633 -0.106889 0.00786495 -0.0698351 -0.133776 0.0211452 
-0.0667549 -0.105249 0.0140784 
VERTICES 100 200
1 0 
1 1 
1 2 
1 3 
1 4 
1 5 
1 6 
1 7 
1 8 
1 9 
1 10 
1 11 
1 12 
1 13 
1 14 
1 15 
1 16 
1 17 
1 18 
1 19 
1 20 
1 21 
1 22 
1 23 
1 24 
1 25 
1 26 
1 27 
1 28 
1 29 
1 30 
1 31 
1 32 
1 33 
1 34 
1 35 
1 36 
1 37 
1 38 
1 39 
1 40 
1 41 
1 42 
1 43 
1 44 
1 45 
1 46 
1 47 
1 48 
1 49 
1 50 
1 51 
1 52 
1 53 
1 54 
1 55 
1 56 
1 57 
1 58 
1 59 
1 60 
1 61 
1 62 
1 63 
1 64 
1 65 
1 66 
1 67 
1 68 
1 69 
1 70 
1 71 
1 72 
1 73 
1 74 
1 75 
1 76 
1 77 
1 78 
1 79 
1 80 
1 81 
1 82 
1 83 
1 84 
1 85 
1 86 
1 87 
1 88 
1 89 
1 90 
1 91 
1 92 
1 93 
1 94 
1 95 
1 96 
1 97 
1 98 
1 99 

POINT_DATA 100
FIELD FieldData 7
id 1 100 int
1 2 3 4 5 6 7 8 9 
10 11 12 13 14 15 16 17 18 
19 20 21 22 23 24 25 26 27 
28 29 30 31 32 33 34 35 36 
37 38 39 40 41 42 43 44 45 
46 47 48 49 50 51 52 53 54 
55 56 57 58 59 60 61 62 63 
64 65 66 67 68 69 70 71 72 
73 74 75 76 77 78 79 80 81 
82 83 84 85 86 87 88 89 90 
91 92 93 94 95 96 97 98 99 
100 
mol 1 100 int
1 1 1 1 1 1 1 1 1 
1 1 1 1 1 1 1 1 1 
1 1 1 1 1 1 1 1 1 
1 1 1 1 1 1 1 1 1 
1 1 1 1 1 1 1 1 1 
1 1 1 1 1 2 2 2 2 
2 2 2 2 2 2 2 2 2 
2 2 2 2 2 2 2 2 2 
2 2 2 2 2 2 2 2 2 
2 2 2 2 2 2 2 2 2 
2 2 2 2 2 2 2 2 2 
2 
type 1 100 int
1 1 1 1 1 1 1 1 1 
1 1 1 1 1 1 1 1 1 
1 1 1 1 1 1 1 1 1 
1 1 1 1 1 1 1 1 1 
1 1 1 1 1 1 1 1 1 
1 1 1 1 1 1 1 1 1 
1 1 1 1 1 1 1 1 1 
1 1 1 1 1 1 1 1 1 
1 1 1 1 1 1 1 1 1 
1 1 1 1 1 1 1 1 1 
1 1 1 1 1 1 1 1 1 
1 
v 3 100 double
0.01923211778 -0.15870919044 -0.023448655913 0.020099959726 -0.13094705824 0.029945635856 0.023143565223 -0.12502402941 0.071830695201 
0.021669508205 -0.21105459258 -0.080665902955 0.02240046177 -0.23146092872 -0.10531027922 0.022206370146 -0.18849379938 -0.039071547245 
0.023239608466 -0.15813062371 0.020222308292 0.016249990751 -0.21559414071 -0.14569728277 0.023986268878 -0.10813246118 0.10767476276 
0.02142754567 -0.10006736356 0.093200699894 0.019730236662 -0.23059432399 -0.13241800796 0.0215753505 -0.19111776649 -0.04997473658 
0.029950074909 -0.12739489024 0.14067205948 0.016842482659 -0.24090007216 -0.17960813259 0.030436886218 -0.12657617839 0.14716686143 
0.019464810092 -0.2101641257 -0.10276954111 0.029133622024 -0.27961573496 -0.11003884006 0.034703926062 -0.14333388111 0.16604539657 
0.0096114556539 -0.054344222382 0.039839653648 0.021104312401 -0.12153216518 0.055627705236 0.0047191654816 -0.04330459873 0.0052004471312 
0.017138681349 -0.2535529644 -0.19656394486 0.0071658017801 -0.15518316655 -0.14656416348 0.026936744771 -0.2585724746 -0.10002007813 
0.014599520319 -0.16500632433 -0.082879536062 0.033028147198 -0.17013398892 0.10556161478 0.033143138039 -0.25579120117 -0.029389765203 
0.033373847663 -0.29407503395 -0.087792345007 0.018271869105 -0.24622066171 -0.17281839518 0.03462842567 -0.24246324131 0.007643832632 
0.018933719693 -0.2358188736 -0.14922110512 0.012890939084 -0.22283019209 -0.19303490954 0.0069758960396 -0.035623690975 0.041485953507 
0.01336802848 -0.22899393578 -0.19774454689 0.02040229265 -0.08017842198 0.11388298956 0.0073409209431 -0.1456000633 -0.12946078026 
0.019620645196 -0.21454587955 -0.10807324629 0.020451528008 -0.25798299648 -0.16826599723 0.020192188376 -0.17413078991 -0.037724106177 
0.019126686976 -0.066068875918 0.12270646469 0.012516236445 -0.11983558637 -0.033291048523 0.0097936643694 -0.19405671502 -0.18033189784 
0.033900986816 -0.27849630053 -0.057401808744 0.0056172020284 -0.14079665329 -0.14021261461 0.033360846549 -0.17810215813 0.096442970736 
0.020407776711 -0.14978831043 0.0032754930344 0.015436389995 -0.14502136778 -0.042179826707 0.021964473214 -0.077506278594 0.13479621929 
0.020207326057 -0.23675806768 -0.13712764531 0.035334850554 -0.14070936197 0.17694844844 0.060136307731 -0.1311143725 -0.047880527099 
0.056174435759 -0.1128290416 0.02009658247 0.059499552937 -0.11274540722 0.076462474033 0.077250539432 -0.17559423485 -0.087876657908 
0.079650202273 -0.18776894782 -0.13713132214 0.073988122265 -0.16075992962 -0.033538442078 0.06967637239 -0.1407487686 0.041257923121 
0.072251855522 -0.17406723099 -0.16046385517 0.058029716618 -0.10263391244 0.12614175268 0.047556056539 -0.087130341236 0.064490805352 
0.082283387727 -0.19184615154 -0.12295065027 0.07594438142 -0.16469254607 -0.029644796232 0.062449163231 -0.11433952853 0.11420018823 
0.081379840803 -0.19689512291 -0.17521208792 0.064171239557 -0.1158537578 0.131943483 0.07827701697 -0.17746385467 -0.084408502089 
0.098947342815 -0.2309882697 -0.13126186115 0.074667676517 -0.13466435645 0.16966834523 0.025610424856 -0.044138555051 0.012542486483 
0.060176091603 -0.1128889334 0.086750800206 0.02012017526 -0.034466716373 -0.0084188295948 0.085943750056 -0.20830895354 -0.18258675474 
0.048788345978 -0.12106161357 -0.16425625832 0.088332023739 -0.2090657062 -0.14810579139 0.055602671121 -0.13061919515 -0.12025476786 
0.074836133353 -0.14819677041 0.07302413761 0.093795887699 -0.21162504327 -0.075307136295 0.10306552889 -0.24087177179 -0.13486129349 
0.085988092349 -0.20440559131 -0.15315200483 0.096469537386 -0.20799276641 -0.0037802408585 0.08458932917 -0.19750418786 -0.12587652441 
0.069905201426 -0.17611804177 -0.21488371343 0.022980192333 -0.03335103224 0.047734860989 0.074398242753 -0.18432231237 -0.19985504645 
0.049463287791 -0.080643881665 0.14414680233 0.045667583019 -0.11264602558 -0.15472311804 0.080698337106 -0.18242843881 -0.080302708135 
0.087454052992 -0.21071086852 -0.17491904053 0.072172440211 -0.1527291505 -0.0049519392568 0.038405268891 -0.060995436578 0.10316458777 
0.049988642992 -0.10351258306 -0.015138863528 0.063060550836 -0.15564158368 -0.17913554079 0.10257399678 -0.23272722444 -0.083236962306 
0.045366124481 -0.11082360056 -0.14638201957 0.083007158054 -0.16184714829 0.10968926936 0.066838342674 -0.13465536022 0.038462607532 
0.051083029313 -0.11530207692 -0.083447154662 0.0442936322 -0.072295860167 0.11883019343 0.086776429053 -0.20005042214 -0.10792198329 
0.072711209501 -0.13073126933 0.16577467383 
f 3 100 double
0 0 0 0 0 0 0 0 0 
0 0 0 0 0 0 0 0 0 
0 0 0 0 0 0 0 0 0 
0 0 0 0 0 0 0 0 0 
0 0 0 0 0 0 0 0 0 
0 0 0 0 0 0 0 0 0 
0 0 0 0 0 0 -0.052519398414 -0.02425948768 0.2524298789 
0 0 0 0 0 0 0 0 0 
0 0 0 0 0 0 0 0 0 
0 0 0 0 0 0 0 0 0 
0 0 0 0 0 0 0 0 0 
0 0 0 0 0 0 0 0 0 
0 0 0 0 0 0 0 0 0 
0 0 0 0 0 0 0 0 0 
0 0 0 0 0 0 0 0 0 
0 0 0 0 0 0 0 0 0 
0 0 0 0 0 0 0 0 0 
0 0 0 0 0 0 0 0 0 
0 0 0 0 0 0 0 0 0 
0 0 0 0 0 0 0 0 0 
0 0 0 0 0 0 0 0 0 
0 0 0 0 0 0 0 0 0 
0 0 0 0 0 0 0 0 0 
0 0 0 -0.099904783799 -0.074130187486 0.42656205146 0 0 0 
0 0 0 0 0 0 0 0 0 
0 0 0 0 0 0 0 0 0 
0 0 0 0 0 0 0 0 0 
0 0 0 0 0 0 0 0 0 
0 0 0 0 0 0 0 0 0 
0 0 0 0 0 0 0 0 0 
0 0 0 0 0 0 0 0 0 
0 0 0 0 0 0 0 0 0 
0 0 0 0 0 0 0 0 0 
0 0 0 
radius 1 100 double
0.010434 0.00981478 0.00892069 0.00845937 0.00731974 0.00728422 0.00643447 0.00619172 0.00585956 
0.00577566 0.00537241 0.00522549 0.00513666 0.00473175 0.00466912 0.00444866 0.00441894 0.00400812 
0.00385622 0.00379948 0.00370243 0.00366942 0.00364039 0.00363813 0.00363644 0.00358692 0.0035797 
0.00341284 0.00337012 0.00336273 0.00332772 0.00323261 0.00320584 0.00320311 0.00318808 0.00313116 
0.00306026 0.00305632 0.00304383 0.00300958 0.00300137 0.00298994 0.0029567 0.00295111 0.00290849 
0.00284552 0.00282964 0.0028207 0.00281971 0.00281899 0.010434 0.00981478 0.00892069 0.00845937 
0.00731974 0.00728422 0.00643447 0.00619172 0.00585956 0.00577566 0.00537241 0.00522549 0.00513666 
0.00473175 0.00466912 0.00444866 0.00441894 0.00400812 0.00385622 0.00379948 0.00370243 0.00366942 
0.00364039 0.00363813 0.00363644 0.00358692 0.0035797 0.00341284 0.00337012 0.00336273 0.00332772 
0.00323261 0.00320584 0.00320311 0.00318808 0.00313116 0.00306026 0.00305632 0.00304383 0.00300958 
0.00300137 0.00298994 0.0029567 0.00295111 0.00290849 0.00284552 0.00282964 0.0028207 0.00281971 
0.00281899 
omega 3 100 double
11.697146589 1.74320255 -1.0964897588 11.697146589 1.74320255 -1.0964897588 11.697146589 1.74320255 -1.0964897588 
11.697146589 1.74320255 -1.0964897588 11.697146589 1.74320255 -1.0964897588 11.697146589 1.74320255 -1.0964897588 
11.697146589 1.74320255 -1.0964897588 11.697146589 1.74320255 -1.0964897588 11.697146589 1.74320255 -1.0964897588 
11.697146589 1.74320255 -1.0964897588 11.697146589 1.74320255 -1.0964897588 11.697146589 1.74320255 -1.0964897588 
11.697146589 1.74320255 -1.0964897588 11.697146589 1.74320255 -1.0964897588 11.697146589 1.74320255 -1.0964897588 
11.697146589 1.74320255 -1.0964897588 11.697146589 1.74320255 -1.0964897588 11.697146589 1.74320255 -1.0964897588 
11.697146589 1.74320255 -1.0964897588 11.697146589 1.74320255 -1.0964897588 11.697146589 1.74320255 -1.0964897588 
11.697146589 1.74320255 -1.0964897588 11.697146589 1.74320255 -1.0964897588 11.697146589 1.74320255 -1.0964897588 
11.697146589 1.74320255 -1.0964897588 11.697146589 1.74320255 -1.0964897588 11.697146589 1.74320255 -1.0964897588 
11.697146589 1.74320255 -1.0964897588 11.697146589 1.74320255 -1.0964897588 11.697146589 1.74320255 -1.0964897588 
11.697146589 1.74320255 -1.0964897588 11.697146589 1.74320255 -1.0964897588 11.697146589 1.74320255 -1.0964897588 
11.697146589 1.74320255 -1.0964897588 11.697146589 1.74320255 -1.0964897588 11.697146589 1.74320255 -1.0964897588 
11.697146589 1.74320255 -1.0964897588 11.697146589 1.74320255 -1.0964897588 11.697146589 1.74320255 -1.0964897588 
11.697146589 1.74320255 -1.0964897588 11.697146589 1.74320255 -1.0964897588 11.697146589 1.74320255 -1.0964897588 
11.697146589 1.74320255 -1.0964897588 11.697146589 1.74320255 -1.0964897588 11.697146589 1.74320255 -1.0964897588 
11.697146589 1.74320255 -1.0964897588 11.697146589 1.74320255 -1.0964897588 11.697146589 1.74320255 -1.0964897588 
11.697146589 1.74320255 -1.0964897588 11.697146589 1.74320255 -1.0964897588 10.070907937 4.4150214135 -0.6006504226 
10.070907937 4.4150214135 -0.6006504226 10.070907937 4.4150214135 -0.6006504226 10.070907937 4.4150214135 -0.6006504226 
10.070907937 4.4150214135 -0.6006504226 10.070907937 4.4150214135 -0.6006504226 10.070907937 4.4150214135 -0.6006504226 
10.070907937 4.4150214135 -0.6006504226 10.070907937 4.4150214135 -0.6006504226 10.070907937 4.4150214135 -0.6006504226 
10.070907937 4.4150214135 -0.6006504226 10.070907937 4.4150214135 -0.6006504226 10.070907937 4.4150214135 -0.6006504226 
10.070907937 4.4150214135 -0.6006504226 10.070907937 4.4150214135 -0.6006504226 10.070907937 4.4150214135 -0.6006504226 
10.070907937 4.4150214135 -0.6006504226 10.070907937 4.4150214135 -0.6006504226 10.070907937 4.4150214135 -0.6006504226 
10.070907937 4.4150214135 -0.6006504226 10.070907937 4.4150214135 -0.6006504226 10.070907937 4.4150214135 -0.6006504226 
10.070907937 4.4150214135 -0.6006504226 10.070907937 4.4150214135 -0.6006504226 10.070907937 4.4150214135 -0.6006504226 
10.070907937 4.4150214135 -0.6006504226 10.070907937 4.4150214135 -0.6006504226 10.070907937 4.4150214135 -0.6006504226 
10.070907937 4.4150214135 -0.6006504226 10.070907937 4.4150214135 -0.6006504226 10.070907937 4.4150214135 -0.6006504226 
10.070907937 4.4150214135 -0.6006504226 10.070907937 4.4150214135 -0.6006504226 10.070907937 4.4150214135 -0.6006504226 
10.070907937 4.4150214135 -0.6006504226 10.070907937 4.4150214135 -0.6006504226 10.070907937 4.4150214135 -0.6006504226 
10.070907937 4.4150214135 -0.6006504226 10.070907937 4.4150214135 -0.6006504226 10.070907937 4.4150214135 -0.6006504226 
10.070907937 4.4150214135 -0.6006504226 10.070907937 4.4150214135 -0.6006504226 10.070907937 4.4150214135 -0.6006504226 
10.070907937 4.4150214135 -0.6006504226 10.070907937 4.4150214135 -0.6006504226 10.070907937 4.4150214135 -0.6006504226 
10.070907937 4.4150214135 -0.6006504226 10.070907937 4.4150214135 -0.6006504226 10.070907937 4.4150214135 -0.6006504226 
10.070907937 4.4150214135 -0.6006504226 
