# vtk DataFile Version 4.1
Generated by LIGGGHTS
ASCII
DATASET POLYDATA
POINTS 100 float
-0.11999 -0.141323 0.0155774 -0.129364 -0.139969 0.0111459 -0.139034 -0.138766 0.00878623 
-0.128021 -0.145416 0.0212133 -0.114786 -0.144045 0.0242709 -0.135996 -0.144525 0.0176568 
-0.146069 -0.14294 0.0127878 -0.120523 -0.148901 0.0241583 -0.147505 -0.138212 0.00584262 
-0.12184 -0.134706 0.00693944 -0.134555 -0.150006 0.0241938 -0.143149 -0.146659 0.0178939 
-0.127049 -0.130977 0.00717366 -0.129655 -0.15238 0.0268477 -0.133217 -0.131685 0.00659293 
-0.139938 -0.149474 0.0213365 -0.122253 -0.144071 0.0278044 -0.144867 -0.131827 0.00668536 
-0.117319 -0.139711 0.00545133 -0.151651 -0.142593 0.00847185 -0.121867 -0.143709 0.00557135 
-0.134221 -0.154119 0.0281924 -0.116131 -0.15036 0.0197222 -0.107936 -0.141309 0.0265137 
-0.11011 -0.143846 0.0185794 -0.123855 -0.131533 0.0118409 -0.113052 -0.136861 0.0236257 
-0.110837 -0.139595 0.0287025 -0.138212 -0.153298 0.0266181 -0.132462 -0.138187 0.0203956 
-0.141008 -0.152371 0.0248683 -0.114429 -0.151171 0.0266367 -0.13392 -0.143469 0.00315465 
-0.124668 -0.153283 0.0267876 -0.152672 -0.139754 0.00321945 -0.112759 -0.148725 0.0185531 
-0.144708 -0.150645 0.0216306 -0.125391 -0.150039 0.0279829 -0.149516 -0.147552 0.0158545 
-0.126722 -0.134592 0.00306088 -0.139661 -0.147318 0.0119698 -0.125764 -0.153422 0.0234327 
-0.122884 -0.140108 0.0258776 -0.121799 -0.151485 0.0181202 -0.147417 -0.136486 0.0116481 
-0.152022 -0.145722 0.0124413 -0.109534 -0.141285 0.0156605 -0.129816 -0.133816 0.00338287 
-0.144795 -0.152117 0.0243447 -0.137715 -0.129694 0.00644822 -0.0512053 -0.112955 0.0155077 
-0.0606986 -0.111802 0.0112787 -0.0704546 -0.111039 0.00909472 -0.0588695 -0.118177 0.0207038 
-0.0457292 -0.116211 0.0238433 -0.0669261 -0.117478 0.0172905 -0.0771378 -0.116098 0.0126537 
-0.0511149 -0.12142 0.0232343 -0.0789748 -0.110773 0.00625678 -0.0536056 -0.105607 0.00763042 
-0.0650353 -0.123506 0.0232012 -0.07391 -0.120122 0.0173241 -0.0590581 -0.102299 0.00827899 
-0.0599532 -0.125798 0.0255698 -0.0651686 -0.103374 0.00764785 -0.0704733 -0.123054 0.0204359 
-0.0531371 -0.117137 0.0273803 -0.0767789 -0.104344 0.00776566 -0.0487639 -0.110095 0.00560173 
-0.0827768 -0.115689 0.00841888 -0.0530215 -0.114393 0.00531108 -0.0643722 -0.127986 0.0267376 
-0.0466814 -0.122087 0.0186525 -0.0390618 -0.113254 0.0263407 -0.0411407 -0.115082 0.0181889 
-0.0557829 -0.103121 0.0128492 -0.0445064 -0.108895 0.0239611 -0.0420508 -0.11199 0.0287099 
-0.0684275 -0.127285 0.025274 -0.063811 -0.111233 0.0206766 -0.0713008 -0.126377 0.0236427 
-0.0448509 -0.123505 0.0254352 -0.0650875 -0.114746 0.00297623 -0.0549169 -0.126336 0.0253964 
-0.0840506 -0.112388 0.00350245 -0.0434443 -0.120105 0.0176524 -0.0751473 -0.124582 0.0206203 
-0.0558506 -0.123296 0.0269331 -0.0802214 -0.12124 0.0152236 -0.0585263 -0.105425 0.00380341 
-0.0704496 -0.119903 0.0113513 -0.056037 -0.126195 0.0220497 -0.0540629 -0.113046 0.0258889 
-0.0522745 -0.123432 0.0169598 -0.0789433 -0.10967 0.0122128 -0.0828859 -0.119239 0.0120336 
-0.0407768 -0.112192 0.0155576 -0.0616623 -0.104908 0.00421708 -0.0751013 -0.126336 0.0231624 
-0.0697951 -0.101699 0.007732 
VERTICES 100 200
1 0 
1 1 
1 2 
1 3 
1 4 
1 5 
1 6 
1 7 
1 8 
1 9 
1 10 
1 11 
1 12 
1 13 
1 14 
1 15 
1 16 
1 17 
1 18 
1 19 
1 20 
1 21 
1 22 
1 23 
1 24 
1 25 
1 26 
1 27 
1 28 
1 29 
1 30 
1 31 
1 32 
1 33 
1 34 
1 35 
1 36 
1 37 
1 38 
1 39 
1 40 
1 41 
1 42 
1 43 
1 44 
1 45 
1 46 
1 47 
1 48 
1 49 
1 50 
1 51 
1 52 
1 53 
1 54 
1 55 
1 56 
1 57 
1 58 
1 59 
1 60 
1 61 
1 62 
1 63 
1 64 
1 65 
1 66 
1 67 
1 68 
1 69 
1 70 
1 71 
1 72 
1 73 
1 74 
1 75 
1 76 
1 77 
1 78 
1 79 
1 80 
1 81 
1 82 
1 83 
1 84 
1 85 
1 86 
1 87 
1 88 
1 89 
1 90 
1 91 
1 92 
1 93 
1 94 
1 95 
1 96 
1 97 
1 98 
1 99 

POINT_DATA 100
FIELD FieldData 7
id 1 100 int
1 2 3 4 5 6 7 8 9 
10 11 12 13 14 15 16 17 18 
19 20 21 22 23 24 25 26 27 
28 29 30 31 32 33 34 35 36 
37 38 39 40 41 42 43 44 45 
46 47 48 49 50 51 52 53 54 
55 56 57 58 59 60 61 62 63 
64 65 66 67 68 69 70 71 72 
73 74 75 76 77 78 79 80 81 
82 83 84 85 86 87 88 89 90 
91 92 93 94 95 96 97 98 99 
100 
mol 1 100 int
1 1 1 1 1 1 1 1 1 
1 1 1 1 1 1 1 1 1 
1 1 1 1 1 1 1 1 1 
1 1 1 1 1 1 1 1 1 
1 1 1 1 1 1 1 1 1 
1 1 1 1 1 2 2 2 2 
2 2 2 2 2 2 2 2 2 
2 2 2 2 2 2 2 2 2 
2 2 2 2 2 2 2 2 2 
2 2 2 2 2 2 2 2 2 
2 2 2 2 2 2 2 2 2 
2 
type 1 100 int
1 1 1 1 1 1 1 1 1 
1 1 1 1 1 1 1 1 1 
1 1 1 1 1 1 1 1 1 
1 1 1 1 1 1 1 1 1 
1 1 1 1 1 1 1 1 1 
1 1 1 1 1 1 1 1 1 
1 1 1 1 1 1 1 1 1 
1 1 1 1 1 1 1 1 1 
1 1 1 1 1 1 1 1 1 
1 1 1 1 1 1 1 1 1 
1 1 1 1 1 1 1 1 1 
1 
v 3 100 double
0.08044373182 -0.15480166336 -0.13760153401 0.058144398778 -0.10339850272 -0.074730204386 0.047102569177 -0.067947790805 -0.011408947373 
0.10470993906 -0.18572433793 -0.12547941509 0.1240746833 -0.23287606576 -0.18816868646 0.086475035183 -0.14368907536 -0.07406360017 
0.06214328396 -0.087601700285 -0.0054645957402 0.11506358622 -0.22207636015 -0.19486994185 0.03169471642 -0.029928735661 0.040087228324 
0.043845697473 -0.082960951569 -0.074736389653 0.11335362465 -0.19812777748 -0.12563269253 0.084108802663 -0.13322278296 -0.05125573074 
0.051587666533 -0.075828533522 -0.016140166302 0.12400839274 -0.22767967956 -0.17174298044 0.047136134183 -0.060561787859 0.012526247248 
0.098387075999 -0.16612597427 -0.091479185466 0.14367515507 -0.24806361116 -0.14685795744 0.047404754595 -0.041179913848 0.076166377031 
0.026931855766 -0.07894169897 -0.1396406071 0.038747077087 -0.04366478539 0.028319362474 0.020694729082 -0.072041765425 -0.14613091587 
0.12848084733 -0.23048163266 -0.16018020813 0.087882440204 -0.19440479655 -0.23087550443 0.14126769033 -0.26252779039 -0.20450849608 
0.092775860943 -0.19571987222 -0.21258795986 0.076575525302 -0.11843330037 -0.038309519146 0.13289296743 -0.23074285727 -0.14071473847 
0.15639599922 -0.27491364694 -0.17476004762 0.12114789625 -0.21108012423 -0.13146266657 0.1126463304 -0.17155804095 -0.043341394268 
0.11301960195 -0.19234551076 -0.10855284916 0.12492281554 -0.25229464819 -0.24678721506 0.007674254115 -0.032024548914 -0.07721348807 
0.12211601805 -0.23581257391 -0.20663800828 0.014448369971 -0.00016012522665 0.056557883528 0.084205566051 -0.19093649524 -0.23663122121 
0.097999447173 -0.16022614871 -0.074267557073 0.13436294988 -0.24406370544 -0.17683836156 0.071227730064 -0.10602143072 -0.022959949373 
0.022481343953 -0.043707473951 -0.046680203618 0.050035796173 -0.092166470774 -0.075885818648 0.10322464768 -0.2072590926 -0.20165083439 
0.13980555131 -0.23166247125 -0.11186084111 0.077033423549 -0.17188699873 -0.20830694001 0.066950587891 -0.076217848264 0.053313338344 
0.055412232066 -0.074568963633 0.0055176185643 0.080970763014 -0.17351735319 -0.19543480884 0.025610549357 -0.040925067911 -0.023319699092 
0.11054682716 -0.1816457032 -0.085483485757 0.049770707586 -0.051645853474 0.053358356926 0.099924009579 -0.1162509784 0.010973897616 
0.081958454 -0.08350018416 0.060235196354 0.072696154444 -0.066126658301 0.10767985148 0.12163769859 -0.15466080875 0.0044019473816 
0.13524228314 -0.17955145964 -0.036954325746 0.10711546585 -0.12818972259 0.044103930561 0.087428139336 -0.092298885381 0.0981447041 
0.13214578667 -0.17445395343 -0.053163386232 0.060591935214 -0.043945025183 0.14610057548 0.066952191215 -0.056693737017 0.076579255112 
0.13180714591 -0.17288693142 -0.0093782847999 0.10700867611 -0.12778147282 0.054034723977 0.070037515926 -0.061062209034 0.12479902247 
0.14171346846 -0.19120784035 -0.048360535955 0.067238191051 -0.055729841335 0.14282067747 0.12003076459 -0.15154394436 0.017267676206 
0.15027169763 -0.20548930844 -0.012260045878 0.06764985864 -0.055517560413 0.18513752138 0.05785646246 -0.041872671779 0.022085319883 
0.069367227121 -0.059869347529 0.12532557441 0.056207098271 -0.039280343661 0.0079061052411 0.14649735664 -0.19958487855 -0.045959626175 
0.1125000545 -0.14036521313 -0.077138107022 0.14619620755 -0.19899246833 -0.043174359286 0.11118226993 -0.13739860112 -0.048058645626 
0.089492809203 -0.095793943884 0.10461296467 0.13643869992 -0.180554541 0.012922863569 0.15644190909 -0.21655357772 -0.020880537563 
0.14030808225 -0.18817690063 -0.023344546519 0.12217905859 -0.15398771587 0.077827444259 0.13342200194 -0.17561851121 -0.004227288781 
0.14135512738 -0.19162412702 -0.095642836863 0.04619444425 -0.020552009643 0.056818377718 0.14092113887 -0.19037838573 -0.073938554676 
0.048666930692 -0.022719386193 0.15563193472 0.1084131732 -0.13313895295 -0.076041752808 0.12067430429 -0.15249046007 0.025730787746 
0.14777691593 -0.20186392758 -0.047051243784 0.097924961368 -0.11136282341 0.072590360704 0.050612663865 -0.027403564779 0.09898051629 
0.08150132659 -0.083123070814 0.040900821977 0.12663058123 -0.16506574799 -0.06809025707 0.14428478671 -0.19416870877 0.022504566203 
0.10513783463 -0.12708611213 -0.063361580729 0.08615248079 -0.088807200977 0.15426911461 0.084480457801 -0.087084360763 0.099050615313 
0.10020940916 -0.11761414729 -0.027845849675 0.052429719673 -0.030222212061 0.11628204963 0.1313731574 -0.17164119013 0.012325997388 
0.067756462922 -0.055925486811 0.17520657275 
f 3 100 double
0 0 0 0 0 0 0.7093944007 -0.041756430017 1.4212445464 
0 0 0 0 0 0 0 0 0 
0 0 0 0 0 0 0.02634763333 -0.16262620176 -0.30698871778 
0 0 0 0 0 0 0 0 0 
0 0 0 0 0 0 0 0 0 
0 0 0 0 0 0 0 0 0 
0 0 0 0 0 0 0 0 0 
0 0 0 0 0 0 0 0 0 
0 0 0 0 0 0 0 0 0 
0 0 0 0 0 0 0 0 0 
0 0 0 0 0 0 0.11971844583 0.069336731063 0.94629482092 
0 0 0 0 0 0 0 0 0 
0 0 0 0 0 0 0 0 0 
0 0 0 0 0 0 0 0 0 
0 0 0 0 0 0 0 0 0 
0 0 0 0 0 0 0 0 0 
0 0 0 0 0 0 0 0 0 
0 0 0 0 0 0 0 0 0 
0 0 0 0 0 0 0 0 0 
0 0 0 0 0 0 0 0 0 
0 0 0 0 0 0 0 0 0 
0 0 0 0 0 0 0 0 0 
0 0 0 0 0 0 0 0 0 
0 0 0 0 0 0 0 0 0 
0 0 0 0 0 0 0 0 0 
0 0 0 0 0 0 0 0 0 
0 0 0 0 0 0 0 0 0 
0 0 0 0.40692466938 0.055416166319 0.82136140168 0 0 0 
0 0 0 0 0 0 0 0 0 
0 0 0 0 0 0 0 0 0 
0 0 0 0 0 0 0 0 0 
0 0 0 0 0 0 0 0 0 
0 0 0 0 0 0 0 0 0 
0 0 0 
radius 1 100 double
0.010434 0.00981478 0.00892069 0.00845937 0.00731974 0.00728422 0.00643447 0.00619172 0.00585956 
0.00577566 0.00537241 0.00522549 0.00513666 0.00473175 0.00466912 0.00444866 0.00441894 0.00400812 
0.00385622 0.00379948 0.00370243 0.00366942 0.00364039 0.00363813 0.00363644 0.00358692 0.0035797 
0.00341284 0.00337012 0.00336273 0.00332772 0.00323261 0.00320584 0.00320311 0.00318808 0.00313116 
0.00306026 0.00305632 0.00304383 0.00300958 0.00300137 0.00298994 0.0029567 0.00295111 0.00290849 
0.00284552 0.00282964 0.0028207 0.00281971 0.00281899 0.010434 0.00981478 0.00892069 0.00845937 
0.00731974 0.00728422 0.00643447 0.00619172 0.00585956 0.00577566 0.00537241 0.00522549 0.00513666 
0.00473175 0.00466912 0.00444866 0.00441894 0.00400812 0.00385622 0.00379948 0.00370243 0.00366942 
0.00364039 0.00363813 0.00363644 0.00358692 0.0035797 0.00341284 0.00337012 0.00336273 0.00332772 
0.00323261 0.00320584 0.00320311 0.00318808 0.00313116 0.00306026 0.00305632 0.00304383 0.00300958 
0.00300137 0.00298994 0.0029567 0.00295111 0.00290849 0.00284552 0.00282964 0.0028207 0.00281971 
0.00281899 
omega 3 100 double
7.9471119587 5.5595065717 -1.7267157185 7.9471119587 5.5595065717 -1.7267157185 7.9471119587 5.5595065717 -1.7267157185 
7.9471119587 5.5595065717 -1.7267157185 7.9471119587 5.5595065717 -1.7267157185 7.9471119587 5.5595065717 -1.7267157185 
7.9471119587 5.5595065717 -1.7267157185 7.9471119587 5.5595065717 -1.7267157185 7.9471119587 5.5595065717 -1.7267157185 
7.9471119587 5.5595065717 -1.7267157185 7.9471119587 5.5595065717 -1.7267157185 7.9471119587 5.5595065717 -1.7267157185 
7.9471119587 5.5595065717 -1.7267157185 7.9471119587 5.5595065717 -1.7267157185 7.9471119587 5.5595065717 -1.7267157185 
7.9471119587 5.5595065717 -1.7267157185 7.9471119587 5.5595065717 -1.7267157185 7.9471119587 5.5595065717 -1.7267157185 
7.9471119587 5.5595065717 -1.7267157185 7.9471119587 5.5595065717 -1.7267157185 7.9471119587 5.5595065717 -1.7267157185 
7.9471119587 5.5595065717 -1.7267157185 7.9471119587 5.5595065717 -1.7267157185 7.9471119587 5.5595065717 -1.7267157185 
7.9471119587 5.5595065717 -1.7267157185 7.9471119587 5.5595065717 -1.7267157185 7.9471119587 5.5595065717 -1.7267157185 
7.9471119587 5.5595065717 -1.7267157185 7.9471119587 5.5595065717 -1.7267157185 7.9471119587 5.5595065717 -1.7267157185 
7.9471119587 5.5595065717 -1.7267157185 7.9471119587 5.5595065717 -1.7267157185 7.9471119587 5.5595065717 -1.7267157185 
7.9471119587 5.5595065717 -1.7267157185 7.9471119587 5.5595065717 -1.7267157185 7.9471119587 5.5595065717 -1.7267157185 
7.9471119587 5.5595065717 -1.7267157185 7.9471119587 5.5595065717 -1.7267157185 7.9471119587 5.5595065717 -1.7267157185 
7.9471119587 5.5595065717 -1.7267157185 7.9471119587 5.5595065717 -1.7267157185 7.9471119587 5.5595065717 -1.7267157185 
7.9471119587 5.5595065717 -1.7267157185 7.9471119587 5.5595065717 -1.7267157185 7.9471119587 5.5595065717 -1.7267157185 
7.9471119587 5.5595065717 -1.7267157185 7.9471119587 5.5595065717 -1.7267157185 7.9471119587 5.5595065717 -1.7267157185 
7.9471119587 5.5595065717 -1.7267157185 7.9471119587 5.5595065717 -1.7267157185 7.5317605627 4.2740293816 -0.094711141872 
7.5317605627 4.2740293816 -0.094711141872 7.5317605627 4.2740293816 -0.094711141872 7.5317605627 4.2740293816 -0.094711141872 
7.5317605627 4.2740293816 -0.094711141872 7.5317605627 4.2740293816 -0.094711141872 7.5317605627 4.2740293816 -0.094711141872 
7.5317605627 4.2740293816 -0.094711141872 7.5317605627 4.2740293816 -0.094711141872 7.5317605627 4.2740293816 -0.094711141872 
7.5317605627 4.2740293816 -0.094711141872 7.5317605627 4.2740293816 -0.094711141872 7.5317605627 4.2740293816 -0.094711141872 
7.5317605627 4.2740293816 -0.094711141872 7.5317605627 4.2740293816 -0.094711141872 7.5317605627 4.2740293816 -0.094711141872 
7.5317605627 4.2740293816 -0.094711141872 7.5317605627 4.2740293816 -0.094711141872 7.5317605627 4.2740293816 -0.094711141872 
7.5317605627 4.2740293816 -0.094711141872 7.5317605627 4.2740293816 -0.094711141872 7.5317605627 4.2740293816 -0.094711141872 
7.5317605627 4.2740293816 -0.094711141872 7.5317605627 4.2740293816 -0.094711141872 7.5317605627 4.2740293816 -0.094711141872 
7.5317605627 4.2740293816 -0.094711141872 7.5317605627 4.2740293816 -0.094711141872 7.5317605627 4.2740293816 -0.094711141872 
7.5317605627 4.2740293816 -0.094711141872 7.5317605627 4.2740293816 -0.094711141872 7.5317605627 4.2740293816 -0.094711141872 
7.5317605627 4.2740293816 -0.094711141872 7.5317605627 4.2740293816 -0.094711141872 7.5317605627 4.2740293816 -0.094711141872 
7.5317605627 4.2740293816 -0.094711141872 7.5317605627 4.2740293816 -0.094711141872 7.5317605627 4.2740293816 -0.094711141872 
7.5317605627 4.2740293816 -0.094711141872 7.5317605627 4.2740293816 -0.094711141872 7.5317605627 4.2740293816 -0.094711141872 
7.5317605627 4.2740293816 -0.094711141872 7.5317605627 4.2740293816 -0.094711141872 7.5317605627 4.2740293816 -0.094711141872 
7.5317605627 4.2740293816 -0.094711141872 7.5317605627 4.2740293816 -0.094711141872 7.5317605627 4.2740293816 -0.094711141872 
7.5317605627 4.2740293816 -0.094711141872 7.5317605627 4.2740293816 -0.094711141872 7.5317605627 4.2740293816 -0.094711141872 
7.5317605627 4.2740293816 -0.094711141872 
