# vtk DataFile Version 4.1
Generated by LIGGGHTS
ASCII
DATASET POLYDATA
POINTS 100 float
-0.11696 -0.15276 0.0115726 -0.126733 -0.14904 0.0115908 -0.136447 -0.146949 0.012931 
-0.124307 -0.160039 0.0140325 -0.110673 -0.160717 0.014259 -0.132615 -0.157208 0.0140009 
-0.14312 -0.153044 0.014044 -0.11689 -0.164216 0.0118895 -0.145172 -0.144818 0.013166 
-0.119485 -0.142029 0.0110249 -0.130722 -0.16565 0.0140653 -0.13982 -0.159171 0.0141223 
-0.124073 -0.139899 0.0149623 -0.125758 -0.168977 0.0130773 -0.130287 -0.140246 0.0153643 
-0.13642 -0.163453 0.0136924 -0.117343 -0.163661 0.0181435 -0.141665 -0.140954 0.0177708 
-0.115946 -0.144147 0.00548498 -0.149292 -0.149919 0.0126158 -0.120856 -0.147174 0.0036377 
-0.130193 -0.171358 0.0136711 -0.113565 -0.161769 0.0069854 -0.103251 -0.160168 0.0162733 
-0.107089 -0.156211 0.00966038 -0.120197 -0.143535 0.0169735 -0.108214 -0.155264 0.018647 
-0.105487 -0.160731 0.019564 -0.134268 -0.169835 0.0140622 -0.127903 -0.154718 0.0196362 
-0.137195 -0.168057 0.0141618 -0.110778 -0.167288 0.0106101 -0.133025 -0.145809 0.00474713 
-0.12101 -0.169317 0.0113393 -0.150871 -0.144197 0.0114074 -0.110278 -0.159643 0.00668302 
-0.14117 -0.16469 0.0140446 -0.121107 -0.168009 0.0146191 -0.146508 -0.158589 0.0134689 
-0.124925 -0.139349 0.00957171 -0.137542 -0.155135 0.00900144 -0.122691 -0.167015 0.00925344 
-0.117814 -0.159581 0.0198596 -0.119521 -0.161632 0.00630711 -0.143847 -0.147873 0.0182261 
-0.149335 -0.154967 0.0130603 -0.10673 -0.152307 0.00945754 -0.127794 -0.139199 0.0109933 
-0.140954 -0.167678 0.0147945 -0.134461 -0.138992 0.0176493 -0.0465026 -0.122632 0.0111696 
-0.0565976 -0.119995 0.011855 -0.0663815 -0.118999 0.0138091 -0.0528683 -0.130718 0.0138337 
-0.0392513 -0.12992 0.0132598 -0.0614188 -0.128805 0.0143599 -0.0722863 -0.125805 0.015125 
-0.0451897 -0.134017 0.0111495 -0.0752541 -0.117832 0.0146048 -0.0501874 -0.112229 0.0110789 
-0.0586343 -0.136991 0.0140708 -0.068352 -0.131539 0.0148365 -0.0547323 -0.110698 0.0153326 
-0.0534115 -0.139738 0.0127042 -0.060838 -0.111726 0.0160793 -0.0645457 -0.135417 0.0140886 
-0.0453232 -0.133657 0.0174326 -0.0719103 -0.113717 0.0191115 -0.0467815 -0.113824 0.0052864 
-0.0788312 -0.123336 0.0141436 -0.0514422 -0.117323 0.00363613 -0.0575222 -0.142598 0.0134815 
-0.0424455 -0.131114 0.00613612 -0.0318235 -0.128616 0.014861 -0.0364519 -0.124949 0.00859621 
-0.0503762 -0.113937 0.0170123 -0.0371299 -0.124334 0.0176562 -0.0337846 -0.129492 0.0182566 
-0.0617059 -0.141534 0.0141492 -0.0566692 -0.125946 0.0197861 -0.0647951 -0.140087 0.0144678 
-0.0388725 -0.13638 0.00943367 -0.0635981 -0.11731 0.00547935 -0.0487668 -0.139521 0.0106882 
-0.0810821 -0.117793 0.0131941 -0.0394292 -0.128639 0.00570793 -0.0691068 -0.137168 0.014676 
-0.048806 -0.138307 0.0140047 -0.075091 -0.131671 0.0145841 -0.0559601 -0.110121 0.0100178 
-0.0668302 -0.127165 0.00971288 -0.050806 -0.137368 0.0087696 -0.0461239 -0.129692 0.0192905 
-0.0484123 -0.131608 0.00580411 -0.0733093 -0.120839 0.0194901 -0.0783083 -0.128368 0.0144432 
-0.0365246 -0.121026 0.0084865 -0.058738 -0.110315 0.0116051 -0.0685285 -0.140132 0.0153254 
-0.0649771 -0.110983 0.0186349 
VERTICES 100 200
1 0 
1 1 
1 2 
1 3 
1 4 
1 5 
1 6 
1 7 
1 8 
1 9 
1 10 
1 11 
1 12 
1 13 
1 14 
1 15 
1 16 
1 17 
1 18 
1 19 
1 20 
1 21 
1 22 
1 23 
1 24 
1 25 
1 26 
1 27 
1 28 
1 29 
1 30 
1 31 
1 32 
1 33 
1 34 
1 35 
1 36 
1 37 
1 38 
1 39 
1 40 
1 41 
1 42 
1 43 
1 44 
1 45 
1 46 
1 47 
1 48 
1 49 
1 50 
1 51 
1 52 
1 53 
1 54 
1 55 
1 56 
1 57 
1 58 
1 59 
1 60 
1 61 
1 62 
1 63 
1 64 
1 65 
1 66 
1 67 
1 68 
1 69 
1 70 
1 71 
1 72 
1 73 
1 74 
1 75 
1 76 
1 77 
1 78 
1 79 
1 80 
1 81 
1 82 
1 83 
1 84 
1 85 
1 86 
1 87 
1 88 
1 89 
1 90 
1 91 
1 92 
1 93 
1 94 
1 95 
1 96 
1 97 
1 98 
1 99 

POINT_DATA 100
FIELD FieldData 7
id 1 100 int
1 2 3 4 5 6 7 8 9 
10 11 12 13 14 15 16 17 18 
19 20 21 22 23 24 25 26 27 
28 29 30 31 32 33 34 35 36 
37 38 39 40 41 42 43 44 45 
46 47 48 49 50 51 52 53 54 
55 56 57 58 59 60 61 62 63 
64 65 66 67 68 69 70 71 72 
73 74 75 76 77 78 79 80 81 
82 83 84 85 86 87 88 89 90 
91 92 93 94 95 96 97 98 99 
100 
mol 1 100 int
1 1 1 1 1 1 1 1 1 
1 1 1 1 1 1 1 1 1 
1 1 1 1 1 1 1 1 1 
1 1 1 1 1 1 1 1 1 
1 1 1 1 1 1 1 1 1 
1 1 1 1 1 2 2 2 2 
2 2 2 2 2 2 2 2 2 
2 2 2 2 2 2 2 2 2 
2 2 2 2 2 2 2 2 2 
2 2 2 2 2 2 2 2 2 
2 2 2 2 2 2 2 2 2 
2 
type 1 100 int
1 1 1 1 1 1 1 1 1 
1 1 1 1 1 1 1 1 1 
1 1 1 1 1 1 1 1 1 
1 1 1 1 1 1 1 1 1 
1 1 1 1 1 1 1 1 1 
1 1 1 1 1 1 1 1 1 
1 1 1 1 1 1 1 1 1 
1 1 1 1 1 1 1 1 1 
1 1 1 1 1 1 1 1 1 
1 1 1 1 1 1 1 1 1 
1 1 1 1 1 1 1 1 1 
1 
v 3 100 double
-0.023489126607 -0.19303604643 -0.084085948123 -0.018499419964 -0.18015602541 -0.037299325637 -0.017509743839 -0.18872383341 -0.0167579494 
-0.036660171725 -0.22289575022 -0.21177664612 -0.037884248596 -0.24493768003 -0.20413606044 -0.032801309521 -0.21118385363 -0.1773663698 
-0.027246166528 -0.19771901882 -0.12439216579 -0.039366479297 -0.19825461064 -0.26917512675 -0.01495788697 -0.18075955618 0.0057755210577 
-0.0082756852308 -0.18077967925 0.085916982996 -0.044269542397 -0.21477619086 -0.31123578093 -0.035612657638 -0.20343385188 -0.21892196695 
-0.010778055381 -0.23823988161 0.11409168678 -0.047407001977 -0.20549795717 -0.35824886798 -0.011794984824 -0.23636117545 0.099996278923 
-0.040799372437 -0.2010681709 -0.28350709391 -0.047155502478 -0.29873633001 -0.26082911638 -0.01603419785 -0.25992147706 0.073022067885 
-0.0035679289935 -0.096000734847 0.056525016623 -0.021083380685 -0.16631161328 -0.082299111581 -0.0051281435051 -0.059520650902 0.00088146966153 
-0.051427248225 -0.20911940182 -0.40278578911 -0.029373622324 -0.12346461259 -0.22508371091 -0.039892651361 -0.28750232388 -0.18512038883 
-0.025531546171 -0.17543431981 -0.12639683056 -0.018424799041 -0.27597648501 0.060613985366 -0.036522645666 -0.31918291404 -0.11263654868 
-0.045143726001 -0.33768062152 -0.1972762211 -0.049907673252 -0.2099467766 -0.38372802653 -0.037135456807 -0.30862887395 -0.13067029755 
-0.047646279002 -0.20761022269 -0.35897917571 -0.041762063175 -0.18581253612 -0.31049636007 -0.004802241072 -0.061049232557 0.0063368073207 
-0.045491992811 -0.18380668819 -0.35724997607 -0.011720388677 -0.14464988166 0.0080326602651 -0.026095261351 -0.1230071648 -0.18623860029 
-0.042946937289 -0.20035723946 -0.3099766957 -0.048206572608 -0.23669122281 -0.33625259468 -0.033937012105 -0.1838552178 -0.21865404724 
-0.0026781967888 -0.14995562856 0.12182264451 -0.023181853204 -0.1237274245 -0.15057692192 -0.0395413592 -0.14782329748 -0.32233387724 
-0.043997788421 -0.32584135892 -0.19552347387 -0.028263318427 -0.10447025598 -0.23100278012 -0.025982920086 -0.26434052477 -0.041791024636 
-0.028495851115 -0.17343830589 -0.163960479 -0.019991818655 -0.17263976213 -0.062803764282 -0.0044167247049 -0.16906800758 0.12032866595 
-0.047999472033 -0.21277034293 -0.35798939694 -0.013222782072 -0.26767067813 0.11457766561 0.017515020428 -0.17425353943 -0.089459042861 
0.022056114624 -0.17273688427 -0.028415383406 0.027367002804 -0.19064458615 0.0072956613483 0.013703996498 -0.20682890119 -0.19743719784 
0.013419789415 -0.21414247105 -0.2143443619 0.017059757372 -0.20472707352 -0.15054882335 0.022193397475 -0.20350236948 -0.082427920111 
0.004147426727 -0.17548768324 -0.26329647524 0.030420985464 -0.19221468563 0.04365325568 0.029497893067 -0.16857844036 0.074653720389 
0.0068659783419 -0.20364301075 -0.27944125411 0.014871487908 -0.20377279026 -0.17690965629 0.040314729224 -0.22716578248 0.10729648173 
0.00075158392152 -0.1892235579 -0.33179078045 0.040696533352 -0.23123905959 0.10481325229 0.0087458753618 -0.19699091105 -0.24324936978 
0.017900039901 -0.26972741403 -0.25760141061 0.044799897919 -0.26383605173 0.09839303614 0.015341115644 -0.085539681981 0.043464115733 
0.023001568466 -0.18109870296 -0.031437740683 0.0077443910513 -0.055291754723 0.00078137745863 -0.00094640051425 -0.19609117451 -0.36603816078 
-0.0030915368321 -0.10338030889 -0.22549951291 0.01834426846 -0.24689260899 -0.21050155467 0.0093434683079 -0.14735475263 -0.14559251945 
0.040088037256 -0.25750024628 0.049392993464 0.029285682602 -0.28267621938 -0.13491863066 0.024522664057 -0.29561094633 -0.21951099326 
0.0017147048476 -0.20122604135 -0.34118651696 0.031917878252 -0.29180727071 -0.11768279604 0.0040850482029 -0.20239605424 -0.31287949497 
-0.0022576375696 -0.157103555 -0.31218976445 0.011670388636 -0.068757174457 0.026767982309 -0.0032720110241 -0.16437169033 -0.33838771944 
0.027473921852 -0.16419916985 0.056611156667 -0.0011028595665 -0.10047751208 -0.19470833687 0.007942473539 -0.20047876551 -0.25988579564 
0.0051857087615 -0.21415176182 -0.32006225194 0.01418139118 -0.19209388188 -0.16459571328 0.029713366909 -0.1458815502 0.11856702149 
0.0091196063301 -0.1285781143 -0.11442601662 -0.0048229790979 -0.13316043045 -0.30171454007 0.026482293573 -0.29670386659 -0.19633655103 
-0.0043741791516 -0.091409050255 -0.22026208604 0.037266991882 -0.26788607564 -0.0056493193422 0.017748054509 -0.1862117392 -0.10814663578 
0.013702327937 -0.14562135686 -0.086495278845 0.032853806076 -0.16647690863 0.12154351132 0.0058516048874 -0.21091114608 -0.3056392091 
0.046988073368 -0.26478962311 0.12475395278 
f 3 100 double
0 0 0 0 0 0 0 0 0 
0 0 0 0 0 0 0 0 0 
0 0 0 0 0 0 0 0 0 
0 0 0 0 0 0 0 0 0 
0 0 0 0 0 0 0 0 0 
0 0 0 0 0 0 0 0 0 
0 0 0 0 0 0 -0.068883922509 -0.055324967889 0.25509081494 
0 0 0 0 0 0 0 0 0 
0 0 0 0 0 0 0 0 0 
0 0 0 0 0 0 0 0 0 
0 0 0 0 0 0 0 0 0 
0 0 0 0 0 0 0 0 0 
0 0 0 0 0 0 0 0 0 
0 0 0 0 0 0 0 0 0 
0 0 0 0 0 0 0 0 0 
0 0 0 0 0 0 0 0 0 
0 0 0 0 0 0 0 0 0 
0 0 0 0 0 0 0 0 0 
0 0 0 0 0 0 0 0 0 
0 0 0 0 0 0 0 0 0 
0 0 0 0 0 0 0 0 0 
0 0 0 0 0 0 0 0 0 
0 0 0 0 0 0 0 0 0 
0 0 0 -0.058918876722 -0.070894645055 0.26586324826 0 0 0 
0 0 0 0 0 0 0 0 0 
0 0 0 0 0 0 0 0 0 
0 0 0 0 0 0 0 0 0 
0 0 0 0 0 0 0 0 0 
0 0 0 0 0 0 0 0 0 
0 0 0 0 0 0 0 0 0 
0 0 0 0 0 0 0 0 0 
0 0 0 0 0 0 0 0 0 
0 0 0 0 0 0 0 0 0 
0 0 0 
radius 1 100 double
0.010434 0.00981478 0.00892069 0.00845937 0.00731974 0.00728422 0.00643447 0.00619172 0.00585956 
0.00577566 0.00537241 0.00522549 0.00513666 0.00473175 0.00466912 0.00444866 0.00441894 0.00400812 
0.00385622 0.00379948 0.00370243 0.00366942 0.00364039 0.00363813 0.00363644 0.00358692 0.0035797 
0.00341284 0.00337012 0.00336273 0.00332772 0.00323261 0.00320584 0.00320311 0.00318808 0.00313116 
0.00306026 0.00305632 0.00304383 0.00300958 0.00300137 0.00298994 0.0029567 0.00295111 0.00290849 
0.00284552 0.00282964 0.0028207 0.00281971 0.00281899 0.010434 0.00981478 0.00892069 0.00845937 
0.00731974 0.00728422 0.00643447 0.00619172 0.00585956 0.00577566 0.00537241 0.00522549 0.00513666 
0.00473175 0.00466912 0.00444866 0.00441894 0.00400812 0.00385622 0.00379948 0.00370243 0.00366942 
0.00364039 0.00363813 0.00363644 0.00358692 0.0035797 0.00341284 0.00337012 0.00336273 0.00332772 
0.00323261 0.00320584 0.00320311 0.00318808 0.00313116 0.00306026 0.00305632 0.00304383 0.00300958 
0.00300137 0.00298994 0.0029567 0.00295111 0.00290849 0.00284552 0.00282964 0.0028207 0.00281971 
0.00281899 
omega 3 100 double
16.164507766 -1.3649977643 -1.3481407407 16.164507766 -1.3649977643 -1.3481407407 16.164507766 -1.3649977643 -1.3481407407 
16.164507766 -1.3649977643 -1.3481407407 16.164507766 -1.3649977643 -1.3481407407 16.164507766 -1.3649977643 -1.3481407407 
16.164507766 -1.3649977643 -1.3481407407 16.164507766 -1.3649977643 -1.3481407407 16.164507766 -1.3649977643 -1.3481407407 
16.164507766 -1.3649977643 -1.3481407407 16.164507766 -1.3649977643 -1.3481407407 16.164507766 -1.3649977643 -1.3481407407 
16.164507766 -1.3649977643 -1.3481407407 16.164507766 -1.3649977643 -1.3481407407 16.164507766 -1.3649977643 -1.3481407407 
16.164507766 -1.3649977643 -1.3481407407 16.164507766 -1.3649977643 -1.3481407407 16.164507766 -1.3649977643 -1.3481407407 
16.164507766 -1.3649977643 -1.3481407407 16.164507766 -1.3649977643 -1.3481407407 16.164507766 -1.3649977643 -1.3481407407 
16.164507766 -1.3649977643 -1.3481407407 16.164507766 -1.3649977643 -1.3481407407 16.164507766 -1.3649977643 -1.3481407407 
16.164507766 -1.3649977643 -1.3481407407 16.164507766 -1.3649977643 -1.3481407407 16.164507766 -1.3649977643 -1.3481407407 
16.164507766 -1.3649977643 -1.3481407407 16.164507766 -1.3649977643 -1.3481407407 16.164507766 -1.3649977643 -1.3481407407 
16.164507766 -1.3649977643 -1.3481407407 16.164507766 -1.3649977643 -1.3481407407 16.164507766 -1.3649977643 -1.3481407407 
16.164507766 -1.3649977643 -1.3481407407 16.164507766 -1.3649977643 -1.3481407407 16.164507766 -1.3649977643 -1.3481407407 
16.164507766 -1.3649977643 -1.3481407407 16.164507766 -1.3649977643 -1.3481407407 16.164507766 -1.3649977643 -1.3481407407 
16.164507766 -1.3649977643 -1.3481407407 16.164507766 -1.3649977643 -1.3481407407 16.164507766 -1.3649977643 -1.3481407407 
16.164507766 -1.3649977643 -1.3481407407 16.164507766 -1.3649977643 -1.3481407407 16.164507766 -1.3649977643 -1.3481407407 
16.164507766 -1.3649977643 -1.3481407407 16.164507766 -1.3649977643 -1.3481407407 16.164507766 -1.3649977643 -1.3481407407 
16.164507766 -1.3649977643 -1.3481407407 16.164507766 -1.3649977643 -1.3481407407 15.023758498 2.1217244468 -1.1703463964 
15.023758498 2.1217244468 -1.1703463964 15.023758498 2.1217244468 -1.1703463964 15.023758498 2.1217244468 -1.1703463964 
15.023758498 2.1217244468 -1.1703463964 15.023758498 2.1217244468 -1.1703463964 15.023758498 2.1217244468 -1.1703463964 
15.023758498 2.1217244468 -1.1703463964 15.023758498 2.1217244468 -1.1703463964 15.023758498 2.1217244468 -1.1703463964 
15.023758498 2.1217244468 -1.1703463964 15.023758498 2.1217244468 -1.1703463964 15.023758498 2.1217244468 -1.1703463964 
15.023758498 2.1217244468 -1.1703463964 15.023758498 2.1217244468 -1.1703463964 15.023758498 2.1217244468 -1.1703463964 
15.023758498 2.1217244468 -1.1703463964 15.023758498 2.1217244468 -1.1703463964 15.023758498 2.1217244468 -1.1703463964 
15.023758498 2.1217244468 -1.1703463964 15.023758498 2.1217244468 -1.1703463964 15.023758498 2.1217244468 -1.1703463964 
15.023758498 2.1217244468 -1.1703463964 15.023758498 2.1217244468 -1.1703463964 15.023758498 2.1217244468 -1.1703463964 
15.023758498 2.1217244468 -1.1703463964 15.023758498 2.1217244468 -1.1703463964 15.023758498 2.1217244468 -1.1703463964 
15.023758498 2.1217244468 -1.1703463964 15.023758498 2.1217244468 -1.1703463964 15.023758498 2.1217244468 -1.1703463964 
15.023758498 2.1217244468 -1.1703463964 15.023758498 2.1217244468 -1.1703463964 15.023758498 2.1217244468 -1.1703463964 
15.023758498 2.1217244468 -1.1703463964 15.023758498 2.1217244468 -1.1703463964 15.023758498 2.1217244468 -1.1703463964 
15.023758498 2.1217244468 -1.1703463964 15.023758498 2.1217244468 -1.1703463964 15.023758498 2.1217244468 -1.1703463964 
15.023758498 2.1217244468 -1.1703463964 15.023758498 2.1217244468 -1.1703463964 15.023758498 2.1217244468 -1.1703463964 
15.023758498 2.1217244468 -1.1703463964 15.023758498 2.1217244468 -1.1703463964 15.023758498 2.1217244468 -1.1703463964 
15.023758498 2.1217244468 -1.1703463964 15.023758498 2.1217244468 -1.1703463964 15.023758498 2.1217244468 -1.1703463964 
15.023758498 2.1217244468 -1.1703463964 
