# vtk DataFile Version 4.1
Generated by LIGGGHTS
ASCII
DATASET POLYDATA
POINTS 100 float
-0.116951 -0.147232 0.0131648 -0.126836 -0.144197 0.0116106 -0.136633 -0.142088 0.0119371 
-0.124103 -0.153083 0.0184209 -0.11046 -0.153116 0.0189375 -0.132496 -0.150824 0.0171951 
-0.143127 -0.1474 0.0154766 -0.116522 -0.157504 0.0182299 -0.145424 -0.140368 0.0112445 
-0.119806 -0.137804 0.00818784 -0.130337 -0.158397 0.0207772 -0.139635 -0.152815 0.0181091 
-0.124526 -0.134393 0.010869 -0.125253 -0.161653 0.0212768 -0.130731 -0.134764 0.0113665 
-0.136094 -0.156762 0.0195109 -0.117098 -0.154411 0.0236821 -0.14212 -0.134813 0.0138259 
-0.116109 -0.141908 0.00404245 -0.14937 -0.145378 0.0128628 -0.120889 -0.145604 0.00361585 
-0.129619 -0.163728 0.0228002 -0.113194 -0.157205 0.0127589 -0.103095 -0.151511 0.0205541 
-0.106945 -0.150809 0.0128858 -0.12057 -0.136719 0.0142209 -0.10825 -0.146246 0.0206572 
-0.105367 -0.150731 0.0237754 -0.133746 -0.162327 0.0225123 -0.12796 -0.146044 0.0212882 
-0.13673 -0.160776 0.0218554 -0.110295 -0.160609 0.0183605 -0.133112 -0.144339 0.00403032 
-0.120468 -0.162515 0.0198482 -0.151109 -0.140741 0.00937558 -0.109973 -0.155282 0.0116045 
-0.140808 -0.157909 0.0203369 -0.120662 -0.159964 0.022284 -0.146327 -0.152799 0.0172592 
-0.125304 -0.13617 0.00573822 -0.137401 -0.1512 0.0117764 -0.122186 -0.161353 0.0169891 
-0.117727 -0.150007 0.0235398 -0.11914 -0.157577 0.0120733 -0.144088 -0.140987 0.0171201 
-0.14926 -0.14978 0.0153716 -0.106706 -0.147335 0.0110745 -0.128199 -0.135544 0.00696206 
-0.14051 -0.160303 0.022265 -0.13498 -0.132823 0.0129119 -0.0477121 -0.117801 0.0130688 
-0.0578289 -0.115528 0.0117201 -0.0677673 -0.114286 0.0121898 -0.0543064 -0.124559 0.0179528 
-0.0407073 -0.123461 0.0184514 -0.0628687 -0.122951 0.0168813 -0.0737628 -0.120345 0.015394 
-0.0463785 -0.128297 0.0174748 -0.0766769 -0.113282 0.0116168 -0.0513904 -0.108357 0.00869998 
-0.0600505 -0.130522 0.0199759 -0.069807 -0.125596 0.0176756 -0.056365 -0.105536 0.0115962 
-0.0547058 -0.133358 0.0202633 -0.0625131 -0.106465 0.0120762 -0.0659339 -0.129308 0.0188216 
-0.0471796 -0.125613 0.0231121 -0.0738402 -0.107639 0.01454 -0.0473846 -0.111863 0.00429973 
-0.0801721 -0.118702 0.0129199 -0.0518356 -0.115919 0.0036459 -0.0588693 -0.135889 0.0216576 
-0.0431238 -0.127373 0.01203 -0.0334947 -0.121339 0.0201581 -0.0374397 -0.120488 0.0125536 
-0.0522046 -0.107722 0.0147903 -0.0390778 -0.11655 0.0205989 -0.0358035 -0.12096 0.0234246 
-0.0631026 -0.13483 0.0214631 -0.0587291 -0.118068 0.0212629 -0.0662115 -0.1335 0.0209088 
-0.0399094 -0.130861 0.0174023 -0.0641185 -0.115728 0.00415281 -0.0498737 -0.133717 0.018778 
-0.0823221 -0.11402 0.00973427 -0.0400847 -0.125113 0.0109957 -0.0705276 -0.130902 0.0195787 
-0.0502678 -0.131351 0.0213701 -0.0764808 -0.126098 0.0168357 -0.0570225 -0.107047 0.00636443 
-0.0677595 -0.123403 0.0114551 -0.0517025 -0.132529 0.0159997 -0.0481823 -0.121278 0.0232488 
-0.0490204 -0.128206 0.0113287 -0.0752552 -0.114152 0.0174401 -0.0796724 -0.123228 0.0151457 
-0.0375093 -0.116899 0.0109649 -0.0599528 -0.106749 0.00762849 -0.0700148 -0.133378 0.0213515 
-0.066902 -0.104994 0.0137457 
VERTICES 100 200
1 0 
1 1 
1 2 
1 3 
1 4 
1 5 
1 6 
1 7 
1 8 
1 9 
1 10 
1 11 
1 12 
1 13 
1 14 
1 15 
1 16 
1 17 
1 18 
1 19 
1 20 
1 21 
1 22 
1 23 
1 24 
1 25 
1 26 
1 27 
1 28 
1 29 
1 30 
1 31 
1 32 
1 33 
1 34 
1 35 
1 36 
1 37 
1 38 
1 39 
1 40 
1 41 
1 42 
1 43 
1 44 
1 45 
1 46 
1 47 
1 48 
1 49 
1 50 
1 51 
1 52 
1 53 
1 54 
1 55 
1 56 
1 57 
1 58 
1 59 
1 60 
1 61 
1 62 
1 63 
1 64 
1 65 
1 66 
1 67 
1 68 
1 69 
1 70 
1 71 
1 72 
1 73 
1 74 
1 75 
1 76 
1 77 
1 78 
1 79 
1 80 
1 81 
1 82 
1 83 
1 84 
1 85 
1 86 
1 87 
1 88 
1 89 
1 90 
1 91 
1 92 
1 93 
1 94 
1 95 
1 96 
1 97 
1 98 
1 99 

POINT_DATA 100
FIELD FieldData 7
id 1 100 int
1 2 3 4 5 6 7 8 9 
10 11 12 13 14 15 16 17 18 
19 20 21 22 23 24 25 26 27 
28 29 30 31 32 33 34 35 36 
37 38 39 40 41 42 43 44 45 
46 47 48 49 50 51 52 53 54 
55 56 57 58 59 60 61 62 63 
64 65 66 67 68 69 70 71 72 
73 74 75 76 77 78 79 80 81 
82 83 84 85 86 87 88 89 90 
91 92 93 94 95 96 97 98 99 
100 
mol 1 100 int
1 1 1 1 1 1 1 1 1 
1 1 1 1 1 1 1 1 1 
1 1 1 1 1 1 1 1 1 
1 1 1 1 1 1 1 1 1 
1 1 1 1 1 1 1 1 1 
1 1 1 1 1 2 2 2 2 
2 2 2 2 2 2 2 2 2 
2 2 2 2 2 2 2 2 2 
2 2 2 2 2 2 2 2 2 
2 2 2 2 2 2 2 2 2 
2 2 2 2 2 2 2 2 2 
2 
type 1 100 int
1 1 1 1 1 1 1 1 1 
1 1 1 1 1 1 1 1 1 
1 1 1 1 1 1 1 1 1 
1 1 1 1 1 1 1 1 1 
1 1 1 1 1 1 1 1 1 
1 1 1 1 1 1 1 1 1 
1 1 1 1 1 1 1 1 1 
1 1 1 1 1 1 1 1 1 
1 1 1 1 1 1 1 1 1 
1 1 1 1 1 1 1 1 1 
1 1 1 1 1 1 1 1 1 
1 
v 3 100 double
0.021752328282 -0.1579396051 -0.017334264921 0.02207810087 -0.12928971718 0.03654639489 0.024981066933 -0.12246291213 0.079556428313 
0.025425787009 -0.21092513983 -0.071320124826 0.02637394817 -0.23165252204 -0.097659214967 0.025537292648 -0.18768414044 -0.029243063552 
0.025970102515 -0.15632944842 0.030539001322 0.020279540158 -0.21692013319 -0.13682228009 0.025523688373 -0.1049505205 0.11615932234 
0.022479858182 -0.097352069266 0.097022411668 0.024161761339 -0.2314040232 -0.12084547455 0.025123021701 -0.19051914619 -0.038654400205 
0.031272751616 -0.12322139892 0.14540950587 0.021589989399 -0.24267471969 -0.16813660094 0.03181819142 -0.12225631243 0.15293194161 
0.023520719707 -0.21054550225 -0.090996023141 0.034002677975 -0.27928654057 -0.099993097755 0.036445773254 -0.13834784508 0.17404006258 
0.010150114918 -0.053460569724 0.042571308496 0.023183074153 -0.11937809607 0.065782991407 0.0053393961169 -0.043361088792 0.0089660992204 
0.022245165715 -0.25555194948 -0.18379416556 0.010190387373 -0.15731469584 -0.13970217241 0.031187353708 -0.25829838007 -0.09313423695 
0.017351564684 -0.16554227775 -0.077703859991 0.035136468622 -0.16622466395 0.11101650175 0.037079057835 -0.25391178233 -0.022501059104 
0.038161056081 -0.29305579466 -0.079810066226 0.023211894859 -0.24776022489 -0.15976323653 0.038498229376 -0.23987780645 0.017342967232 
0.023640346767 -0.23694338602 -0.13615856548 0.017169524755 -0.22516548913 -0.18453890573 0.0074969136689 -0.034926293203 0.046844491018 
0.017938922186 -0.23134780346 -0.18719881769 0.021562816177 -0.077208527511 0.12266670499 0.010073475789 -0.14746289601 -0.12361903869 
0.023851876001 -0.21498840914 -0.095275788008 0.02533393517 -0.25927866936 -0.15736608383 0.023522374693 -0.17346124949 -0.025738531821 
0.019585611122 -0.063104463814 0.12636491923 0.014816946241 -0.11977557082 -0.024256186111 0.013753969469 -0.19645769354 -0.17050913988 
0.038496510582 -0.276961791 -0.047914733611 0.008482651783 -0.14296101934 -0.13268722973 0.036036843486 -0.17427609288 0.1064670603 
0.02319562669 -0.14848115832 0.014717987664 0.017663007428 -0.1448735971 -0.038017023466 0.022591419999 -0.074110754862 0.13910062703 
0.02493115877 -0.23758633753 -0.12350538652 0.036859941607 -0.13551229759 0.1834512567 0.06352643222 -0.1291701196 -0.046831456051 
0.058624305746 -0.11004014893 0.022186607299 0.061505595199 -0.10893005232 0.080215145807 0.08213019449 -0.17348538259 -0.083030724745 
0.085061572836 -0.1862494194 -0.13487421714 0.078121481533 -0.15798432627 -0.027728270148 0.072772495063 -0.13703959252 0.048147423896 
0.077769457807 -0.17335316643 -0.15639130176 0.059445135519 -0.098139760214 0.13116874711 0.048848160699 -0.084000620246 0.06317362632 
0.088009415322 -0.19010220074 -0.11531773043 0.080254089467 -0.16180446058 -0.021823173498 0.063822960348 -0.10966535592 0.11389255742 
0.087696631394 -0.1960204202 -0.16788754705 0.065498012206 -0.11084448525 0.13306683472 0.083391941114 -0.17533200516 -0.07623661755 
0.10529555785 -0.2284343912 -0.12625236548 0.076173428011 -0.12858047159 0.17369480681 0.026547806298 -0.042957721232 0.01017461345 
0.062320404528 -0.10896163611 0.09386776497 0.021193065246 -0.033945628543 -0.0092800119205 0.092660136519 -0.20735394429 -0.17363624294 
0.053213547686 -0.12158441191 -0.1622802743 0.094151465313 -0.207230143 -0.14719875212 0.059601286794 -0.13002497599 -0.120636325 
0.077279229529 -0.14353875633 0.073186059244 0.098947952417 -0.20834995602 -0.074283935363 0.10942222625 -0.23808214489 -0.13282783121 
0.092375323651 -0.20299385251 -0.14369950581 0.1011308843 -0.20354657824 0.0013025318321 0.0905886825 -0.19573670229 -0.11627053115 
0.075954833604 -0.17637419481 -0.21146802703 0.023638696571 -0.031848226044 0.049193539692 0.080644742458 -0.18417510586 -0.19369252406 
0.05034422941 -0.076332092268 0.14990501905 0.049751922986 -0.11314815807 -0.15402461644 0.085960167025 -0.1801393662 -0.07077658734 
0.093955678823 -0.20948796582 -0.16855908998 0.076094426967 -0.14967576656 0.0039891580625 0.038842527092 -0.057736544961 0.10203649707 
0.052856305023 -0.1016955202 -0.009647176891 0.068528667928 -0.15574501692 -0.17355769032 0.108428278 -0.22920257934 -0.078923403788 
0.049500572588 -0.11127003166 -0.14332493295 0.08577643682 -0.1563382185 0.11604045614 0.069964083209 -0.13118137202 0.046975339403 
0.054352912483 -0.11433146704 -0.084952706312 0.044839425063 -0.068499369629 0.11847724455 0.092699324176 -0.19790311179 -0.097542227455 
0.074040603681 -0.1247598779 0.16778968363 
f 3 100 double
0 0 0 0 0 0 0 0 0 
0 0 0 0 0 0 0 0 0 
0 0 0 0 0 0 0 0 0 
0 0 0 0 0 0 0 0 0 
0 0 0 0 0 0 0 0 0 
0 0 0 0 0 0 0 0 0 
0 0 0 0 0 0 -0.076658951733 -0.027805416406 0.30375548462 
0 0 0 0 0 0 0 0 0 
0 0 0 0 0 0 0 0 0 
0 0 0 0 0 0 0 0 0 
0 0 0 0 0 0 0 0 0 
0 0 0 0 0 0 0 0 0 
0 0 0 0 0 0 0 0 0 
0 0 0 0 0 0 0 0 0 
0 0 0 0 0 0 0 0 0 
0 0 0 0 0 0 0 0 0 
0 0 0 0 0 0 0 0 0 
0 0 0 0 0 0 0 0 0 
0 0 0 0 0 0 0 0 0 
0 0 0 0 0 0 0 0 0 
0 0 0 0 0 0 0 0 0 
0 0 0 0 0 0 0 0 0 
0 0 0 0 0 0 0 0 0 
0 0 0 -0.057037888402 -0.044131539766 0.31456261185 0 0 0 
0 0 0 0 0 0 0 0 0 
0 0 0 0 0 0 0 0 0 
0 0 0 0 0 0 0 0 0 
0 0 0 0 0 0 0 0 0 
0 0 0 0 0 0 0 0 0 
0 0 0 0 0 0 0 0 0 
0 0 0 0 0 0 0 0 0 
0 0 0 0 0 0 0 0 0 
0 0 0 0 0 0 0 0 0 
0 0 0 
radius 1 100 double
0.010434 0.00981478 0.00892069 0.00845937 0.00731974 0.00728422 0.00643447 0.00619172 0.00585956 
0.00577566 0.00537241 0.00522549 0.00513666 0.00473175 0.00466912 0.00444866 0.00441894 0.00400812 
0.00385622 0.00379948 0.00370243 0.00366942 0.00364039 0.00363813 0.00363644 0.00358692 0.0035797 
0.00341284 0.00337012 0.00336273 0.00332772 0.00323261 0.00320584 0.00320311 0.00318808 0.00313116 
0.00306026 0.00305632 0.00304383 0.00300958 0.00300137 0.00298994 0.0029567 0.00295111 0.00290849 
0.00284552 0.00282964 0.0028207 0.00281971 0.00281899 0.010434 0.00981478 0.00892069 0.00845937 
0.00731974 0.00728422 0.00643447 0.00619172 0.00585956 0.00577566 0.00537241 0.00522549 0.00513666 
0.00473175 0.00466912 0.00444866 0.00441894 0.00400812 0.00385622 0.00379948 0.00370243 0.00366942 
0.00364039 0.00363813 0.00363644 0.00358692 0.0035797 0.00341284 0.00337012 0.00336273 0.00332772 
0.00323261 0.00320584 0.00320311 0.00318808 0.00313116 0.00306026 0.00305632 0.00304383 0.00300958 
0.00300137 0.00298994 0.0029567 0.00295111 0.00290849 0.00284552 0.00282964 0.0028207 0.00281971 
0.00281899 
omega 3 100 double
11.55291224 1.9032401462 -1.0818582992 11.55291224 1.9032401462 -1.0818582992 11.55291224 1.9032401462 -1.0818582992 
11.55291224 1.9032401462 -1.0818582992 11.55291224 1.9032401462 -1.0818582992 11.55291224 1.9032401462 -1.0818582992 
11.55291224 1.9032401462 -1.0818582992 11.55291224 1.9032401462 -1.0818582992 11.55291224 1.9032401462 -1.0818582992 
11.55291224 1.9032401462 -1.0818582992 11.55291224 1.9032401462 -1.0818582992 11.55291224 1.9032401462 -1.0818582992 
11.55291224 1.9032401462 -1.0818582992 11.55291224 1.9032401462 -1.0818582992 11.55291224 1.9032401462 -1.0818582992 
11.55291224 1.9032401462 -1.0818582992 11.55291224 1.9032401462 -1.0818582992 11.55291224 1.9032401462 -1.0818582992 
11.55291224 1.9032401462 -1.0818582992 11.55291224 1.9032401462 -1.0818582992 11.55291224 1.9032401462 -1.0818582992 
11.55291224 1.9032401462 -1.0818582992 11.55291224 1.9032401462 -1.0818582992 11.55291224 1.9032401462 -1.0818582992 
11.55291224 1.9032401462 -1.0818582992 11.55291224 1.9032401462 -1.0818582992 11.55291224 1.9032401462 -1.0818582992 
11.55291224 1.9032401462 -1.0818582992 11.55291224 1.9032401462 -1.0818582992 11.55291224 1.9032401462 -1.0818582992 
11.55291224 1.9032401462 -1.0818582992 11.55291224 1.9032401462 -1.0818582992 11.55291224 1.9032401462 -1.0818582992 
11.55291224 1.9032401462 -1.0818582992 11.55291224 1.9032401462 -1.0818582992 11.55291224 1.9032401462 -1.0818582992 
11.55291224 1.9032401462 -1.0818582992 11.55291224 1.9032401462 -1.0818582992 11.55291224 1.9032401462 -1.0818582992 
11.55291224 1.9032401462 -1.0818582992 11.55291224 1.9032401462 -1.0818582992 11.55291224 1.9032401462 -1.0818582992 
11.55291224 1.9032401462 -1.0818582992 11.55291224 1.9032401462 -1.0818582992 11.55291224 1.9032401462 -1.0818582992 
11.55291224 1.9032401462 -1.0818582992 11.55291224 1.9032401462 -1.0818582992 11.55291224 1.9032401462 -1.0818582992 
11.55291224 1.9032401462 -1.0818582992 11.55291224 1.9032401462 -1.0818582992 9.8530263436 4.6079886343 -0.57738372008 
9.8530263436 4.6079886343 -0.57738372008 9.8530263436 4.6079886343 -0.57738372008 9.8530263436 4.6079886343 -0.57738372008 
9.8530263436 4.6079886343 -0.57738372008 9.8530263436 4.6079886343 -0.57738372008 9.8530263436 4.6079886343 -0.57738372008 
9.8530263436 4.6079886343 -0.57738372008 9.8530263436 4.6079886343 -0.57738372008 9.8530263436 4.6079886343 -0.57738372008 
9.8530263436 4.6079886343 -0.57738372008 9.8530263436 4.6079886343 -0.57738372008 9.8530263436 4.6079886343 -0.57738372008 
9.8530263436 4.6079886343 -0.57738372008 9.8530263436 4.6079886343 -0.57738372008 9.8530263436 4.6079886343 -0.57738372008 
9.8530263436 4.6079886343 -0.57738372008 9.8530263436 4.6079886343 -0.57738372008 9.8530263436 4.6079886343 -0.57738372008 
9.8530263436 4.6079886343 -0.57738372008 9.8530263436 4.6079886343 -0.57738372008 9.8530263436 4.6079886343 -0.57738372008 
9.8530263436 4.6079886343 -0.57738372008 9.8530263436 4.6079886343 -0.57738372008 9.8530263436 4.6079886343 -0.57738372008 
9.8530263436 4.6079886343 -0.57738372008 9.8530263436 4.6079886343 -0.57738372008 9.8530263436 4.6079886343 -0.57738372008 
9.8530263436 4.6079886343 -0.57738372008 9.8530263436 4.6079886343 -0.57738372008 9.8530263436 4.6079886343 -0.57738372008 
9.8530263436 4.6079886343 -0.57738372008 9.8530263436 4.6079886343 -0.57738372008 9.8530263436 4.6079886343 -0.57738372008 
9.8530263436 4.6079886343 -0.57738372008 9.8530263436 4.6079886343 -0.57738372008 9.8530263436 4.6079886343 -0.57738372008 
9.8530263436 4.6079886343 -0.57738372008 9.8530263436 4.6079886343 -0.57738372008 9.8530263436 4.6079886343 -0.57738372008 
9.8530263436 4.6079886343 -0.57738372008 9.8530263436 4.6079886343 -0.57738372008 9.8530263436 4.6079886343 -0.57738372008 
9.8530263436 4.6079886343 -0.57738372008 9.8530263436 4.6079886343 -0.57738372008 9.8530263436 4.6079886343 -0.57738372008 
9.8530263436 4.6079886343 -0.57738372008 9.8530263436 4.6079886343 -0.57738372008 9.8530263436 4.6079886343 -0.57738372008 
9.8530263436 4.6079886343 -0.57738372008 
