# vtk DataFile Version 4.1
Generated by LIGGGHTS
ASCII
DATASET POLYDATA
POINTS 100 float
-0.117054 -0.146605 0.0132323 -0.126938 -0.143688 0.0114593 -0.136746 -0.14161 0.011608 
-0.124226 -0.152242 0.0186904 -0.110589 -0.15219 0.019321 -0.132618 -0.150079 0.0172933 
-0.143247 -0.146785 0.0153323 -0.116626 -0.156634 0.0187642 -0.145537 -0.139963 0.0107647 
-0.119906 -0.137427 0.00780674 -0.130458 -0.157471 0.0212351 -0.139756 -0.152058 0.0182379 
-0.124661 -0.133918 0.0102902 -0.125366 -0.160678 0.0219248 -0.130869 -0.134294 0.0107527 
-0.136211 -0.155921 0.0198477 -0.117261 -0.153298 0.0240646 -0.142278 -0.134282 0.0131173 
-0.116157 -0.141699 0.00388375 -0.149476 -0.144912 0.0125773 -0.120917 -0.145432 0.00358666 
-0.129736 -0.1627 0.0235051 -0.113254 -0.15657 0.0133131 -0.103244 -0.15048 0.0209238 
-0.107031 -0.150147 0.0131998 -0.120725 -0.136071 0.0137774 -0.108421 -0.14524 0.0207437 
-0.105546 -0.149565 0.0240872 -0.133867 -0.161333 0.0231194 -0.128136 -0.145097 0.0212014 
-0.136851 -0.159827 0.0223676 -0.110388 -0.159701 0.0190879 -0.133148 -0.144204 0.00384164 
-0.120565 -0.161583 0.0205768 -0.151205 -0.140446 0.00886777 -0.11003 -0.154687 0.0120988 
-0.140927 -0.15705 0.0206861 -0.12079 -0.158925 0.0228919 -0.14644 -0.152111 0.0173328 
-0.125389 -0.13593 0.00523962 -0.137476 -0.150724 0.011857 -0.122263 -0.16056 0.0176534 
-0.117907 -0.148908 0.0237163 -0.119191 -0.156999 0.0125958 -0.144249 -0.140307 0.0166733 
-0.14937 -0.149194 0.0152852 -0.106792 -0.146757 0.0112338 -0.128297 -0.135263 0.00640961 
-0.140636 -0.159353 0.0227239 -0.135139 -0.132303 0.0121726 -0.0479707 -0.117287 0.0132264 
-0.0580638 -0.115093 0.0115967 -0.0680116 -0.11386 0.0118271 -0.0546456 -0.123868 0.0182406 
-0.0410608 -0.122716 0.0189574 -0.0631886 -0.122324 0.0169434 -0.0740567 -0.119806 0.0151474 
-0.0467032 -0.127601 0.0180599 -0.0769103 -0.112901 0.0110446 -0.0515812 -0.108028 0.00842582 
-0.0604168 -0.129763 0.020382 -0.0701361 -0.124955 0.017706 -0.056616 -0.10511 0.0111147 
-0.0550735 -0.132572 0.0208816 -0.0627704 -0.106035 0.011512 -0.0662791 -0.128609 0.0190688 
-0.0476179 -0.124703 0.0235727 -0.0741409 -0.107143 0.0138014 -0.0474849 -0.11169 0.00424219 
-0.0804201 -0.118276 0.012489 -0.051915 -0.11578 0.00366033 -0.0592585 -0.135058 0.0222924 
-0.0433458 -0.126879 0.0126469 -0.0338863 -0.120511 0.020719 -0.0376853 -0.119965 0.0130129 
-0.052514 -0.10716 0.0144703 -0.0394856 -0.115723 0.020867 -0.0362584 -0.120012 0.0239235 
-0.0634892 -0.134018 0.0219759 -0.0591433 -0.117265 0.0212117 -0.0665892 -0.132719 0.0213109 
-0.0402292 -0.13015 0.0182109 -0.0642058 -0.115602 0.00392345 -0.050213 -0.132976 0.0195043 
-0.0825167 -0.113726 0.00908395 -0.0402914 -0.124654 0.0115846 -0.0708836 -0.130185 0.0197986 
-0.0506614 -0.130512 0.0219949 -0.0767915 -0.125505 0.0167581 -0.0571696 -0.106823 0.00593358 
-0.067973 -0.122998 0.0114458 -0.05199 -0.131901 0.0166476 -0.0486309 -0.120369 0.0235224 
-0.0492262 -0.127755 0.0118653 -0.0755997 -0.113542 0.0169235 -0.0799552 -0.122711 0.0148973 
-0.0377309 -0.11644 0.0112856 -0.0601243 -0.106484 0.00712863 -0.0704006 -0.13259 0.0216754 
-0.0671934 -0.104512 0.0130388 
VERTICES 100 200
1 0 
1 1 
1 2 
1 3 
1 4 
1 5 
1 6 
1 7 
1 8 
1 9 
1 10 
1 11 
1 12 
1 13 
1 14 
1 15 
1 16 
1 17 
1 18 
1 19 
1 20 
1 21 
1 22 
1 23 
1 24 
1 25 
1 26 
1 27 
1 28 
1 29 
1 30 
1 31 
1 32 
1 33 
1 34 
1 35 
1 36 
1 37 
1 38 
1 39 
1 40 
1 41 
1 42 
1 43 
1 44 
1 45 
1 46 
1 47 
1 48 
1 49 
1 50 
1 51 
1 52 
1 53 
1 54 
1 55 
1 56 
1 57 
1 58 
1 59 
1 60 
1 61 
1 62 
1 63 
1 64 
1 65 
1 66 
1 67 
1 68 
1 69 
1 70 
1 71 
1 72 
1 73 
1 74 
1 75 
1 76 
1 77 
1 78 
1 79 
1 80 
1 81 
1 82 
1 83 
1 84 
1 85 
1 86 
1 87 
1 88 
1 89 
1 90 
1 91 
1 92 
1 93 
1 94 
1 95 
1 96 
1 97 
1 98 
1 99 

POINT_DATA 100
FIELD FieldData 7
id 1 100 int
1 2 3 4 5 6 7 8 9 
10 11 12 13 14 15 16 17 18 
19 20 21 22 23 24 25 26 27 
28 29 30 31 32 33 34 35 36 
37 38 39 40 41 42 43 44 45 
46 47 48 49 50 51 52 53 54 
55 56 57 58 59 60 61 62 63 
64 65 66 67 68 69 70 71 72 
73 74 75 76 77 78 79 80 81 
82 83 84 85 86 87 88 89 90 
91 92 93 94 95 96 97 98 99 
100 
mol 1 100 int
1 1 1 1 1 1 1 1 1 
1 1 1 1 1 1 1 1 1 
1 1 1 1 1 1 1 1 1 
1 1 1 1 1 1 1 1 1 
1 1 1 1 1 1 1 1 1 
1 1 1 1 1 2 2 2 2 
2 2 2 2 2 2 2 2 2 
2 2 2 2 2 2 2 2 2 
2 2 2 2 2 2 2 2 2 
2 2 2 2 2 2 2 2 2 
2 2 2 2 2 2 2 2 2 
2 
type 1 100 int
1 1 1 1 1 1 1 1 1 
1 1 1 1 1 1 1 1 1 
1 1 1 1 1 1 1 1 1 
1 1 1 1 1 1 1 1 1 
1 1 1 1 1 1 1 1 1 
1 1 1 1 1 1 1 1 1 
1 1 1 1 1 1 1 1 1 
1 1 1 1 1 1 1 1 1 
1 1 1 1 1 1 1 1 1 
1 1 1 1 1 1 1 1 1 
1 1 1 1 1 1 1 1 1 
1 
v 3 100 double
0.030342778716 -0.15500909493 -0.02218129011 0.029195882923 -0.12458362984 0.034272400391 0.031749016243 -0.11588323333 0.081091595173 
0.03741016868 -0.20889864667 -0.068552241254 0.038970736463 -0.23042797197 -0.10052440706 0.036363631871 -0.18428559808 -0.024147618222 
0.035166452067 -0.15095359125 0.038330245785 0.032941171339 -0.21776982489 -0.13615558792 0.031478621564 -0.09708515038 0.12063664539 
0.027099444256 -0.090883194123 0.08800709001 0.037954192036 -0.23096753805 -0.11256554018 0.036525502959 -0.18737362127 -0.029393265864 
0.036739990859 -0.11382457136 0.13887790755 0.036208175745 -0.24412300561 -0.1608454631 0.037446724421 -0.11246714201 0.14946617553 
0.036281873108 -0.20925580066 -0.08137154685 0.049124347103 -0.27679931081 -0.097068220433 0.043104811581 -0.12703064688 0.17684206671 
0.013214117056 -0.050663035756 0.030936150085 0.030570442803 -0.11333343434 0.074297456584 0.0085557266074 -0.042280558024 0.00025479534371 
0.037841626256 -0.25729955378 -0.17319085585 0.019994794567 -0.15993980662 -0.14348686374 0.044606076251 -0.2562501906 -0.098799679577 
0.026518962638 -0.16524604332 -0.085997522392 0.042788327586 -0.15726592475 0.10523659178 0.049720277881 -0.24874554906 -0.027410703248 
0.053126407761 -0.2894455685 -0.082997600732 0.038366951459 -0.24858549052 -0.1479314441 0.050963635277 -0.23304473833 0.021261671734 
0.038166224719 -0.23696168352 -0.12383571809 0.030469121732 -0.22801529338 -0.18559842202 0.01046368598 -0.032214047956 0.043287728598 
0.032032994335 -0.23401821062 -0.18249498769 0.02643825278 -0.069723196246 0.12872165282 0.019087401857 -0.14967334142 -0.12997848844 
0.037088893661 -0.21370985352 -0.082831004317 0.040371941968 -0.2598570385 -0.15202169372 0.034308455283 -0.17010784393 -0.014032909684 
0.022553493968 -0.05616855255 0.11795004771 0.022702521868 -0.11791557999 -0.019815553911 0.026135326542 -0.19929521673 -0.16692528547 
0.052936979652 -0.27219244339 -0.046077179488 0.017827951594 -0.14557998011 -0.1341501919 0.045220584492 -0.16499868083 0.11368200428 
0.032505072283 -0.14394627019 0.025808118336 0.025410751114 -0.1433557748 -0.048394409718 0.026052938791 -0.066269786393 0.1324128573 
0.039518064639 -0.2369704553 -0.10946210585 0.04294281632 -0.12394210247 0.18208756856 0.064649786955 -0.12865372284 -0.028472329493 
0.057615407034 -0.10788945765 0.04304198093 0.059414544348 -0.104892125 0.10469292894 0.086380393985 -0.17286290776 -0.057568818845 
0.090578431593 -0.18676608303 -0.11478971889 0.080675884192 -0.15606984941 -1.3862880135e-05 0.072976410363 -0.13331969437 0.078479983983 
0.083526611832 -0.17528660274 -0.13293323648 0.055987739292 -0.092808616883 0.15846932081 0.045387566269 -0.08111140087 0.077711084933 
0.094052302234 -0.19022064131 -0.084678567563 0.083130743832 -0.15969939327 0.0098302773168 0.060403382971 -0.10406017464 0.13073112645 
0.095094165474 -0.19775848122 -0.13820893317 0.06191447123 -0.10462940081 0.15281100872 0.088064106451 -0.1746730394 -0.044281066674 
0.11270316967 -0.22724247231 -0.10078101125 0.07282579395 -0.12047337254 0.19934275792 0.022482358068 -0.043456712496 0.022318388094 
0.060433050114 -0.10471606754 0.1249610401 0.017429373566 -0.035612015173 0.0056522764433 0.10087786586 -0.20899434017 -0.14084740292 
0.056738750422 -0.12555407392 -0.14291718546 0.10056890915 -0.20726274593 -0.12982001954 0.062181747061 -0.13198742092 -0.10555833476 
0.076173590292 -0.13811457149 0.09064846791 0.10380865062 -0.20574961296 -0.056178609275 0.11691024203 -0.23650379599 -0.11317246004 
0.099831513046 -0.2037773799 -0.10973081173 0.10473375794 -0.1987755181 0.027798110382 0.097172044943 -0.19583570378 -0.081814236746 
0.082955324332 -0.18009956927 -0.18966274897 0.018842671352 -0.03170442653 0.069025471689 0.087971945939 -0.18719412293 -0.16644176161 
0.045718234751 -0.071236844175 0.17875601528 0.052568242949 -0.1170431626 -0.13707951425 0.090904763451 -0.179212765 -0.036159228301 
0.10175587991 -0.2106490608 -0.14075743861 0.078086592091 -0.14721257565 0.037992518787 0.033508858325 -0.054492810246 0.1172127651 
0.052735069033 -0.10128560178 0.017584761796 0.074196569938 -0.15909641235 -0.14729646505 0.1147111458 -0.22623575911 -0.054475638842 
0.052359488471 -0.11505269163 -0.12173382946 0.085155780288 -0.14940722695 0.14579298645 0.070206195305 -0.12786492102 0.080447511039 
0.055351680428 -0.11553476827 -0.071805121641 0.039682998988 -0.064318113536 0.13526719589 0.09906892384 -0.19731519497 -0.061457580202 
0.070370700186 -0.11684338792 0.1894985892 
f 3 100 double
0 0 0 0 0 0 0 0 0 
0 0 0 0 0 0 0 0 0 
0 0 0 0 0 0 0 0 0 
0 0 0 0 0 0 0 0 0 
0 0 0 0 0 0 0 0 0 
0 0 0 0 0 0 0 0 0 
0 0 0 0 0 0 -0.11782993118 -0.064404758532 0.63066852546 
0 0 0 0 0 0 0 0 0 
0 0 0 0 0 0 0 0 0 
0 0 0 0 0 0 0 0 0 
0 0 0 0 0 0 0 0 0 
0 0 0 0 0 0 0 0 0 
0 0 0 0 0 0 0 0 0 
0 0 0 0 0 0 0 0 0 
0 0 0 0 0 0 0 0 0 
0 0 0 0 0 0 0 0 0 
0 0 0 0 0 0 0 0 0 
0 0 0 0 0 0 0 0 0 
0 0 0 0 0 0 0 0 0 
0 0 0 0 0 0 0 0 0 
0 0 0 0 0 0 0 0 0 
0 0 0 0 0 0 0 0 0 
0 0 0 0 0 0 0 0 0 
0 0 0 0.022520477517 -0.0025684396556 0.082867578138 0 0 0 
0 0 0 0 0 0 0 0 0 
0 0 0 0 0 0 0 0 0 
0 0 0 0 0 0 0 0 0 
0 0 0 0 0 0 0 0 0 
0 0 0 0 0 0 0 0 0 
0 0 0 0 0 0 0 0 0 
0 0 0 0 0 0 0 0 0 
0 0 0 0 0 0 0 0 0 
0 0 0 0 0 0 0 0 0 
0 0 0 
radius 1 100 double
0.010434 0.00981478 0.00892069 0.00845937 0.00731974 0.00728422 0.00643447 0.00619172 0.00585956 
0.00577566 0.00537241 0.00522549 0.00513666 0.00473175 0.00466912 0.00444866 0.00441894 0.00400812 
0.00385622 0.00379948 0.00370243 0.00366942 0.00364039 0.00363813 0.00363644 0.00358692 0.0035797 
0.00341284 0.00337012 0.00336273 0.00332772 0.00323261 0.00320584 0.00320311 0.00318808 0.00313116 
0.00306026 0.00305632 0.00304383 0.00300958 0.00300137 0.00298994 0.0029567 0.00295111 0.00290849 
0.00284552 0.00282964 0.0028207 0.00281971 0.00281899 0.010434 0.00981478 0.00892069 0.00845937 
0.00731974 0.00728422 0.00643447 0.00619172 0.00585956 0.00577566 0.00537241 0.00522549 0.00513666 
0.00473175 0.00466912 0.00444866 0.00441894 0.00400812 0.00385622 0.00379948 0.00370243 0.00366942 
0.00364039 0.00363813 0.00363644 0.00358692 0.0035797 0.00341284 0.00337012 0.00336273 0.00332772 
0.00323261 0.00320584 0.00320311 0.00318808 0.00313116 0.00306026 0.00305632 0.00304383 0.00300958 
0.00300137 0.00298994 0.0029567 0.00295111 0.00290849 0.00284552 0.00282964 0.0028207 0.00281971 
0.00281899 
omega 3 100 double
11.263332681 2.3874085367 -1.0578608005 11.263332681 2.3874085367 -1.0578608005 11.263332681 2.3874085367 -1.0578608005 
11.263332681 2.3874085367 -1.0578608005 11.263332681 2.3874085367 -1.0578608005 11.263332681 2.3874085367 -1.0578608005 
11.263332681 2.3874085367 -1.0578608005 11.263332681 2.3874085367 -1.0578608005 11.263332681 2.3874085367 -1.0578608005 
11.263332681 2.3874085367 -1.0578608005 11.263332681 2.3874085367 -1.0578608005 11.263332681 2.3874085367 -1.0578608005 
11.263332681 2.3874085367 -1.0578608005 11.263332681 2.3874085367 -1.0578608005 11.263332681 2.3874085367 -1.0578608005 
11.263332681 2.3874085367 -1.0578608005 11.263332681 2.3874085367 -1.0578608005 11.263332681 2.3874085367 -1.0578608005 
11.263332681 2.3874085367 -1.0578608005 11.263332681 2.3874085367 -1.0578608005 11.263332681 2.3874085367 -1.0578608005 
11.263332681 2.3874085367 -1.0578608005 11.263332681 2.3874085367 -1.0578608005 11.263332681 2.3874085367 -1.0578608005 
11.263332681 2.3874085367 -1.0578608005 11.263332681 2.3874085367 -1.0578608005 11.263332681 2.3874085367 -1.0578608005 
11.263332681 2.3874085367 -1.0578608005 11.263332681 2.3874085367 -1.0578608005 11.263332681 2.3874085367 -1.0578608005 
11.263332681 2.3874085367 -1.0578608005 11.263332681 2.3874085367 -1.0578608005 11.263332681 2.3874085367 -1.0578608005 
11.263332681 2.3874085367 -1.0578608005 11.263332681 2.3874085367 -1.0578608005 11.263332681 2.3874085367 -1.0578608005 
11.263332681 2.3874085367 -1.0578608005 11.263332681 2.3874085367 -1.0578608005 11.263332681 2.3874085367 -1.0578608005 
11.263332681 2.3874085367 -1.0578608005 11.263332681 2.3874085367 -1.0578608005 11.263332681 2.3874085367 -1.0578608005 
11.263332681 2.3874085367 -1.0578608005 11.263332681 2.3874085367 -1.0578608005 11.263332681 2.3874085367 -1.0578608005 
11.263332681 2.3874085367 -1.0578608005 11.263332681 2.3874085367 -1.0578608005 11.263332681 2.3874085367 -1.0578608005 
11.263332681 2.3874085367 -1.0578608005 11.263332681 2.3874085367 -1.0578608005 9.5111548933 5.018374249 -0.52154284249 
9.5111548933 5.018374249 -0.52154284249 9.5111548933 5.018374249 -0.52154284249 9.5111548933 5.018374249 -0.52154284249 
9.5111548933 5.018374249 -0.52154284249 9.5111548933 5.018374249 -0.52154284249 9.5111548933 5.018374249 -0.52154284249 
9.5111548933 5.018374249 -0.52154284249 9.5111548933 5.018374249 -0.52154284249 9.5111548933 5.018374249 -0.52154284249 
9.5111548933 5.018374249 -0.52154284249 9.5111548933 5.018374249 -0.52154284249 9.5111548933 5.018374249 -0.52154284249 
9.5111548933 5.018374249 -0.52154284249 9.5111548933 5.018374249 -0.52154284249 9.5111548933 5.018374249 -0.52154284249 
9.5111548933 5.018374249 -0.52154284249 9.5111548933 5.018374249 -0.52154284249 9.5111548933 5.018374249 -0.52154284249 
9.5111548933 5.018374249 -0.52154284249 9.5111548933 5.018374249 -0.52154284249 9.5111548933 5.018374249 -0.52154284249 
9.5111548933 5.018374249 -0.52154284249 9.5111548933 5.018374249 -0.52154284249 9.5111548933 5.018374249 -0.52154284249 
9.5111548933 5.018374249 -0.52154284249 9.5111548933 5.018374249 -0.52154284249 9.5111548933 5.018374249 -0.52154284249 
9.5111548933 5.018374249 -0.52154284249 9.5111548933 5.018374249 -0.52154284249 9.5111548933 5.018374249 -0.52154284249 
9.5111548933 5.018374249 -0.52154284249 9.5111548933 5.018374249 -0.52154284249 9.5111548933 5.018374249 -0.52154284249 
9.5111548933 5.018374249 -0.52154284249 9.5111548933 5.018374249 -0.52154284249 9.5111548933 5.018374249 -0.52154284249 
9.5111548933 5.018374249 -0.52154284249 9.5111548933 5.018374249 -0.52154284249 9.5111548933 5.018374249 -0.52154284249 
9.5111548933 5.018374249 -0.52154284249 9.5111548933 5.018374249 -0.52154284249 9.5111548933 5.018374249 -0.52154284249 
9.5111548933 5.018374249 -0.52154284249 9.5111548933 5.018374249 -0.52154284249 9.5111548933 5.018374249 -0.52154284249 
9.5111548933 5.018374249 -0.52154284249 9.5111548933 5.018374249 -0.52154284249 9.5111548933 5.018374249 -0.52154284249 
9.5111548933 5.018374249 -0.52154284249 
