# vtk DataFile Version 4.1
Generated by LIGGGHTS
ASCII
DATASET POLYDATA
POINTS 100 float
-0.117065 -0.153543 0.011211 -0.126818 -0.149777 0.0114168 -0.136529 -0.147725 0.0128336 
-0.124465 -0.160928 0.013136 -0.110837 -0.161697 0.0134004 -0.132759 -0.158054 0.0132419 
-0.143241 -0.153843 0.0134976 -0.117057 -0.164995 0.0107653 -0.145244 -0.145565 0.0131564 
-0.11953 -0.142786 0.0113631 -0.13091 -0.166492 0.012756 -0.139974 -0.15998 0.0131883 
-0.124132 -0.140896 0.0154053 -0.125958 -0.169775 0.0115792 -0.13035 -0.141234 0.0157452 
-0.136594 -0.164243 0.0124952 -0.117547 -0.164855 0.0170394 -0.141747 -0.142036 0.0180295 
-0.115966 -0.14455 0.00571637 -0.149387 -0.150595 0.0122427 -0.12088 -0.14742 0.00364165 
-0.130408 -0.172165 0.0119861 -0.113687 -0.162246 0.00605535 -0.103426 -0.161324 0.0154922 
-0.1072 -0.156915 0.00913391 -0.120288 -0.144679 0.0171939 -0.108378 -0.156562 0.0181566 
-0.105686 -0.162093 0.0187244 -0.134477 -0.170648 0.0124527 -0.12807 -0.155971 0.0190592 
-0.137396 -0.168864 0.0126524 -0.110953 -0.16801 0.00932172 -0.133048 -0.146063 0.00476486 
-0.1212 -0.170024 0.00985166 -0.150928 -0.144797 0.0114081 -0.110388 -0.160124 0.00591523 
-0.141352 -0.165474 0.0127352 -0.121311 -0.168938 0.0132105 -0.146655 -0.159318 0.0125341 
-0.124946 -0.139984 0.0100582 -0.137642 -0.155625 0.00836139 -0.122855 -0.167579 0.00791331 
-0.118008 -0.160896 0.0190203 -0.119638 -0.162031 0.00535117 -0.143968 -0.148957 0.0180101 
-0.14946 -0.155661 0.01235 -0.106819 -0.153008 0.0091935 -0.127823 -0.139912 0.011469 
-0.141157 -0.168507 0.0132859 -0.134532 -0.140111 0.0180831 -0.0464412 -0.123341 0.0107881 
-0.056517 -0.120704 0.0117183 -0.0662799 -0.119787 0.0138103 -0.0528271 -0.131547 0.0129976 
-0.0392111 -0.130778 0.012363 -0.0613633 -0.12963 0.0137113 -0.0722089 -0.126634 0.0147497 
-0.0451869 -0.134709 0.0100513 -0.0751399 -0.11863 0.0147493 -0.0500734 -0.112935 0.0113729 
-0.0586231 -0.137795 0.0128924 -0.0683064 -0.132356 0.0140741 -0.0545768 -0.11165 0.0157503 
-0.0534253 -0.140476 0.0113154 -0.0606815 -0.112694 0.0164818 -0.0645261 -0.136198 0.0130561 
-0.0452691 -0.134739 0.0163455 -0.0717397 -0.114818 0.0194751 -0.0467214 -0.114183 0.005465 
-0.0787487 -0.124078 0.0139769 -0.0514128 -0.117552 0.00363905 -0.0575444 -0.14336 0.0119475 
-0.0424674 -0.131513 0.00520538 -0.0317644 -0.12961 0.0139813 -0.0364231 -0.12554 0.00799399 
-0.0502242 -0.115007 0.0171903 -0.0370266 -0.125485 0.0170799 -0.0337032 -0.130686 0.0173319 
-0.0617172 -0.142321 0.012714 -0.0565566 -0.127136 0.0192653 -0.0647963 -0.140881 0.0131469 
-0.0388956 -0.136989 0.00814073 -0.0635536 -0.117597 0.00557882 -0.0487956 -0.140156 0.00927888 
-0.0809785 -0.118477 0.0133914 -0.0394419 -0.129029 0.00490689 -0.0690913 -0.137962 0.013571 
-0.0488025 -0.13915 0.0126645 -0.0750479 -0.132441 0.0138691 -0.0558434 -0.110739 0.0104918 
-0.0668027 -0.12768 0.00921936 -0.0508389 -0.137879 0.00751422 -0.0460348 -0.130893 0.0184522 
-0.0484391 -0.131958 0.00489215 -0.0731721 -0.121944 0.0194227 -0.0782491 -0.129121 0.0139596 
-0.0364766 -0.121617 0.00812839 -0.0586096 -0.111018 0.0120866 -0.0685231 -0.140963 0.0140306 
-0.0647966 -0.112092 0.0191123 
VERTICES 100 200
1 0 
1 1 
1 2 
1 3 
1 4 
1 5 
1 6 
1 7 
1 8 
1 9 
1 10 
1 11 
1 12 
1 13 
1 14 
1 15 
1 16 
1 17 
1 18 
1 19 
1 20 
1 21 
1 22 
1 23 
1 24 
1 25 
1 26 
1 27 
1 28 
1 29 
1 30 
1 31 
1 32 
1 33 
1 34 
1 35 
1 36 
1 37 
1 38 
1 39 
1 40 
1 41 
1 42 
1 43 
1 44 
1 45 
1 46 
1 47 
1 48 
1 49 
1 50 
1 51 
1 52 
1 53 
1 54 
1 55 
1 56 
1 57 
1 58 
1 59 
1 60 
1 61 
1 62 
1 63 
1 64 
1 65 
1 66 
1 67 
1 68 
1 69 
1 70 
1 71 
1 72 
1 73 
1 74 
1 75 
1 76 
1 77 
1 78 
1 79 
1 80 
1 81 
1 82 
1 83 
1 84 
1 85 
1 86 
1 87 
1 88 
1 89 
1 90 
1 91 
1 92 
1 93 
1 94 
1 95 
1 96 
1 97 
1 98 
1 99 

POINT_DATA 100
FIELD FieldData 7
id 1 100 int
1 2 3 4 5 6 7 8 9 
10 11 12 13 14 15 16 17 18 
19 20 21 22 23 24 25 26 27 
28 29 30 31 32 33 34 35 36 
37 38 39 40 41 42 43 44 45 
46 47 48 49 50 51 52 53 54 
55 56 57 58 59 60 61 62 63 
64 65 66 67 68 69 70 71 72 
73 74 75 76 77 78 79 80 81 
82 83 84 85 86 87 88 89 90 
91 92 93 94 95 96 97 98 99 
100 
mol 1 100 int
1 1 1 1 1 1 1 1 1 
1 1 1 1 1 1 1 1 1 
1 1 1 1 1 1 1 1 1 
1 1 1 1 1 1 1 1 1 
1 1 1 1 1 1 1 1 1 
1 1 1 1 1 2 2 2 2 
2 2 2 2 2 2 2 2 2 
2 2 2 2 2 2 2 2 2 
2 2 2 2 2 2 2 2 2 
2 2 2 2 2 2 2 2 2 
2 2 2 2 2 2 2 2 2 
2 
type 1 100 int
1 1 1 1 1 1 1 1 1 
1 1 1 1 1 1 1 1 1 
1 1 1 1 1 1 1 1 1 
1 1 1 1 1 1 1 1 1 
1 1 1 1 1 1 1 1 1 
1 1 1 1 1 1 1 1 1 
1 1 1 1 1 1 1 1 1 
1 1 1 1 1 1 1 1 1 
1 1 1 1 1 1 1 1 1 
1 1 1 1 1 1 1 1 1 
1 1 1 1 1 1 1 1 1 
1 
v 3 100 double
-0.028827038322 -0.19842596894 -0.097055327117 -0.02399462693 -0.18848126192 -0.050006835418 -0.023701561428 -0.1993524357 -0.032251460606 
-0.042482505441 -0.22120151438 -0.23692278698 -0.0440196596 -0.24456067805 -0.22565947688 -0.038703423034 -0.21156023853 -0.20255068653 
-0.033344308205 -0.20146298191 -0.14916459911 -0.043847926185 -0.19079795733 -0.29335216936 -0.021297065914 -0.19284601599 -0.010864873136 
-0.01423987659 -0.19762874291 0.082917351439 -0.049487729294 -0.2057838716 -0.34387215507 -0.04126700275 -0.20067403729 -0.24849976265 
-0.018881509715 -0.26056184824 0.10705421781 -0.051911037747 -0.19245344054 -0.39125505779 -0.019958408937 -0.25779899176 0.090103045878 
-0.045913494132 -0.19346258868 -0.31552257444 -0.054911128301 -0.29766996 -0.29183366835 -0.025164572731 -0.28121112328 0.055907418835 
-0.0065458094091 -0.10575665883 0.059073147702 -0.026605732863 -0.17146126295 -0.10451184706 -0.0067886220186 -0.063403883306 0.0010549966362 
-0.055942567382 -0.19328093285 -0.44020650133 -0.031600449322 -0.11471576233 -0.24018744037 -0.047258044458 -0.29065601706 -0.20597793575 
-0.029758813549 -0.17644944623 -0.1371592127 -0.027316746412 -0.29653152646 0.049098878125 -0.045459155938 -0.3294864881 -0.1332254184 
-0.054118086721 -0.34293898287 -0.22320043671 -0.054684332182 -0.19565683665 -0.42150773139 -0.046261737478 -0.31775728076 -0.15841759791 
-0.052577938735 -0.19504937984 -0.39615900333 -0.04542302966 -0.17448431596 -0.33408433888 -0.0069291005086 -0.06584832885 0.0024865319695 
-0.049156611576 -0.16941320961 -0.38699936523 -0.017098557769 -0.15502538275 -0.0078858349278 -0.028417139407 -0.11687164835 -0.19788669474 
-0.048043515114 -0.19100294766 -0.34514784637 -0.053681534159 -0.22683510373 -0.36857188903 -0.03917957659 -0.18023009395 -0.24914879204 
-0.0080278228226 -0.16777804714 0.12123278205 -0.026591495714 -0.12115286692 -0.16967260476 -0.042301259046 -0.13389996855 -0.34805558012 
-0.052995610793 -0.33098927141 -0.22479148616 -0.030039620898 -0.094423846783 -0.24717343155 -0.034690674583 -0.27780985017 -0.066716713821 
-0.033796994722 -0.17320030116 -0.19148767695 -0.02446911269 -0.17799722107 -0.06951061992 -0.01046071274 -0.187987807 0.117290904 
-0.05322131121 -0.20071276525 -0.39678718142 -0.02260090086 -0.29209647908 0.10185654047 0.013164864565 -0.17998963708 -0.1014896345 
0.018279509562 -0.18209398071 -0.040123206458 0.023412025621 -0.20321888907 -0.0069077626791 0.0069242809305 -0.20729054129 -0.22092545037 
0.006698037238 -0.21442275026 -0.23441922373 0.01071344817 -0.20788144293 -0.17401806327 0.016490716054 -0.21074180163 -0.1054225245 
-0.0026810120952 -0.16977214955 -0.28609442669 0.026662201806 -0.20700995443 0.028427618619 0.027498934464 -0.18474646388 0.072194908423 
-0.0012169013884 -0.19823744802 -0.31009584684 0.0079366768743 -0.20487204899 -0.20454902554 0.037432344952 -0.24919108712 0.10133142985 
-0.0076144037152 -0.17956533423 -0.36292455701 0.037492815908 -0.25315716753 0.096177178388 0.0011234920505 -0.19335777585 -0.2732989488 
0.009215922866 -0.27056122391 -0.2864154632 0.040468814311 -0.28708388077 0.083095903299 0.014710294248 -0.094306206023 0.045830588792 
0.01827402017 -0.19004240735 -0.052050526396 0.0069667719998 -0.059074493756 0.00073079932298 -0.010081155679 -0.18446157337 -0.40133980344 
-0.0078072725397 -0.095551309407 -0.24001828919 0.011251821031 -0.24982850789 -0.22980803941 0.0050716624653 -0.14793355569 -0.15573723868 
0.035896104143 -0.27780567181 0.039266888427 0.022369003089 -0.29280902682 -0.15371996401 0.016236602357 -0.30107183544 -0.24338885035 
-0.0073069862543 -0.19144496457 -0.3767703775 0.024414589564 -0.3030183514 -0.14315212023 -0.0046563982384 -0.19447125827 -0.34785604991 
-0.0092019979416 -0.14714318272 -0.33457736535 0.010587342204 -0.074737342756 0.02302632619 -0.011069216938 -0.15280457597 -0.36657282485 
0.024282947792 -0.17782262487 0.041964442979 -0.0052170165234 -0.094612079462 -0.20594878825 -0.00014135392457 -0.19581028513 -0.29291002018 
-0.0033707166099 -0.20706537046 -0.35042993238 0.0074398835466 -0.1930176767 -0.19312929361 0.028619492777 -0.16328971985 0.11833823676 
0.0046748727277 -0.128963942 -0.1324411859 -0.011520833812 -0.12192102967 -0.32619411001 0.018098136467 -0.3033579821 -0.22332185347 
-0.0089666729992 -0.082940541928 -0.23582690217 0.031312400005 -0.28442234619 -0.02841401894 0.011831346452 -0.19039960605 -0.13383836223 
0.010312347008 -0.15001990653 -0.092754358054 0.031288265834 -0.18533777284 0.11910375787 -0.0030841203845 -0.20389884127 -0.34209130635 
0.043245506146 -0.29009252048 0.11362698866 
f 3 100 double
0 0 0 0 0 0 0 0 0 
0 0 0 0 0 0 0 0 0 
0 0 0 0 0 0 0 0 0 
0 0 0 0 0 0 0 0 0 
0 0 0 0 0 0 0 0 0 
0 0 0 0 0 0 0 0 0 
0 0 0 0 0 0 -0.063149698076 -0.045401506651 0.22947049082 
0 0 0 0 0 0 0 0 0 
0 0 0 0 0 0 0 0 0 
0 0 0 0 0 0 0 0 0 
0 0 0 0 0 0 0 0 0 
0 0 0 0 0 0 0 0 0 
0 0 0 0 0 0 0 0 0 
0 0 0 0 0 0 0 0 0 
0 0 0 0 0 0 0 0 0 
0 0 0 0 0 0 0 0 0 
0 0 0 0 0 0 0 0 0 
0 0 0 0 0 0 0 0 0 
0 0 0 0 0 0 0 0 0 
0 0 0 0 0 0 0 0 0 
0 0 0 0 0 0 0 0 0 
0 0 0 0 0 0 0 0 0 
0 0 0 0 0 0 0 0 0 
0 0 0 -0.057970786634 -0.065359873017 0.24856469192 0 0 0 
0 0 0 0 0 0 0 0 0 
0 0 0 0 0 0 0 0 0 
0 0 0 0 0 0 0 0 0 
0 0 0 0 0 0 0 0 0 
0 0 0 0 0 0 0 0 0 
0 0 0 0 0 0 0 0 0 
0 0 0 0 0 0 0 0 0 
0 0 0 0 0 0 0 0 0 
0 0 0 0 0 0 0 0 0 
0 0 0 
radius 1 100 double
0.010434 0.00981478 0.00892069 0.00845937 0.00731974 0.00728422 0.00643447 0.00619172 0.00585956 
0.00577566 0.00537241 0.00522549 0.00513666 0.00473175 0.00466912 0.00444866 0.00441894 0.00400812 
0.00385622 0.00379948 0.00370243 0.00366942 0.00364039 0.00363813 0.00363644 0.00358692 0.0035797 
0.00341284 0.00337012 0.00336273 0.00332772 0.00323261 0.00320584 0.00320311 0.00318808 0.00313116 
0.00306026 0.00305632 0.00304383 0.00300958 0.00300137 0.00298994 0.0029567 0.00295111 0.00290849 
0.00284552 0.00282964 0.0028207 0.00281971 0.00281899 0.010434 0.00981478 0.00892069 0.00845937 
0.00731974 0.00728422 0.00643447 0.00619172 0.00585956 0.00577566 0.00537241 0.00522549 0.00513666 
0.00473175 0.00466912 0.00444866 0.00441894 0.00400812 0.00385622 0.00379948 0.00370243 0.00366942 
0.00364039 0.00363813 0.00363644 0.00358692 0.0035797 0.00341284 0.00337012 0.00336273 0.00332772 
0.00323261 0.00320584 0.00320311 0.00318808 0.00313116 0.00306026 0.00305632 0.00304383 0.00300958 
0.00300137 0.00298994 0.0029567 0.00295111 0.00290849 0.00284552 0.00282964 0.0028207 0.00281971 
0.00281899 
omega 3 100 double
17.141813965 -1.7941187054 -1.3814324293 17.141813965 -1.7941187054 -1.3814324293 17.141813965 -1.7941187054 -1.3814324293 
17.141813965 -1.7941187054 -1.3814324293 17.141813965 -1.7941187054 -1.3814324293 17.141813965 -1.7941187054 -1.3814324293 
17.141813965 -1.7941187054 -1.3814324293 17.141813965 -1.7941187054 -1.3814324293 17.141813965 -1.7941187054 -1.3814324293 
17.141813965 -1.7941187054 -1.3814324293 17.141813965 -1.7941187054 -1.3814324293 17.141813965 -1.7941187054 -1.3814324293 
17.141813965 -1.7941187054 -1.3814324293 17.141813965 -1.7941187054 -1.3814324293 17.141813965 -1.7941187054 -1.3814324293 
17.141813965 -1.7941187054 -1.3814324293 17.141813965 -1.7941187054 -1.3814324293 17.141813965 -1.7941187054 -1.3814324293 
17.141813965 -1.7941187054 -1.3814324293 17.141813965 -1.7941187054 -1.3814324293 17.141813965 -1.7941187054 -1.3814324293 
17.141813965 -1.7941187054 -1.3814324293 17.141813965 -1.7941187054 -1.3814324293 17.141813965 -1.7941187054 -1.3814324293 
17.141813965 -1.7941187054 -1.3814324293 17.141813965 -1.7941187054 -1.3814324293 17.141813965 -1.7941187054 -1.3814324293 
17.141813965 -1.7941187054 -1.3814324293 17.141813965 -1.7941187054 -1.3814324293 17.141813965 -1.7941187054 -1.3814324293 
17.141813965 -1.7941187054 -1.3814324293 17.141813965 -1.7941187054 -1.3814324293 17.141813965 -1.7941187054 -1.3814324293 
17.141813965 -1.7941187054 -1.3814324293 17.141813965 -1.7941187054 -1.3814324293 17.141813965 -1.7941187054 -1.3814324293 
17.141813965 -1.7941187054 -1.3814324293 17.141813965 -1.7941187054 -1.3814324293 17.141813965 -1.7941187054 -1.3814324293 
17.141813965 -1.7941187054 -1.3814324293 17.141813965 -1.7941187054 -1.3814324293 17.141813965 -1.7941187054 -1.3814324293 
17.141813965 -1.7941187054 -1.3814324293 17.141813965 -1.7941187054 -1.3814324293 17.141813965 -1.7941187054 -1.3814324293 
17.141813965 -1.7941187054 -1.3814324293 17.141813965 -1.7941187054 -1.3814324293 17.141813965 -1.7941187054 -1.3814324293 
17.141813965 -1.7941187054 -1.3814324293 17.141813965 -1.7941187054 -1.3814324293 16.029505927 1.8961382433 -1.2709735333 
16.029505927 1.8961382433 -1.2709735333 16.029505927 1.8961382433 -1.2709735333 16.029505927 1.8961382433 -1.2709735333 
16.029505927 1.8961382433 -1.2709735333 16.029505927 1.8961382433 -1.2709735333 16.029505927 1.8961382433 -1.2709735333 
16.029505927 1.8961382433 -1.2709735333 16.029505927 1.8961382433 -1.2709735333 16.029505927 1.8961382433 -1.2709735333 
16.029505927 1.8961382433 -1.2709735333 16.029505927 1.8961382433 -1.2709735333 16.029505927 1.8961382433 -1.2709735333 
16.029505927 1.8961382433 -1.2709735333 16.029505927 1.8961382433 -1.2709735333 16.029505927 1.8961382433 -1.2709735333 
16.029505927 1.8961382433 -1.2709735333 16.029505927 1.8961382433 -1.2709735333 16.029505927 1.8961382433 -1.2709735333 
16.029505927 1.8961382433 -1.2709735333 16.029505927 1.8961382433 -1.2709735333 16.029505927 1.8961382433 -1.2709735333 
16.029505927 1.8961382433 -1.2709735333 16.029505927 1.8961382433 -1.2709735333 16.029505927 1.8961382433 -1.2709735333 
16.029505927 1.8961382433 -1.2709735333 16.029505927 1.8961382433 -1.2709735333 16.029505927 1.8961382433 -1.2709735333 
16.029505927 1.8961382433 -1.2709735333 16.029505927 1.8961382433 -1.2709735333 16.029505927 1.8961382433 -1.2709735333 
16.029505927 1.8961382433 -1.2709735333 16.029505927 1.8961382433 -1.2709735333 16.029505927 1.8961382433 -1.2709735333 
16.029505927 1.8961382433 -1.2709735333 16.029505927 1.8961382433 -1.2709735333 16.029505927 1.8961382433 -1.2709735333 
16.029505927 1.8961382433 -1.2709735333 16.029505927 1.8961382433 -1.2709735333 16.029505927 1.8961382433 -1.2709735333 
16.029505927 1.8961382433 -1.2709735333 16.029505927 1.8961382433 -1.2709735333 16.029505927 1.8961382433 -1.2709735333 
16.029505927 1.8961382433 -1.2709735333 16.029505927 1.8961382433 -1.2709735333 16.029505927 1.8961382433 -1.2709735333 
16.029505927 1.8961382433 -1.2709735333 16.029505927 1.8961382433 -1.2709735333 16.029505927 1.8961382433 -1.2709735333 
16.029505927 1.8961382433 -1.2709735333 
