# vtk DataFile Version 4.1
Generated by LIGGGHTS
ASCII
DATASET POLYDATA
POINTS 100 float
-0.117956 -0.133997 0.0166907 -0.127255 -0.13485 0.0119854 -0.136904 -0.135182 0.00928229 
-0.125879 -0.136557 0.0232996 -0.11286 -0.13332 0.0258368 -0.13378 -0.137458 0.0195847 
-0.143778 -0.138287 0.0143842 -0.118267 -0.138335 0.0272944 -0.145297 -0.136232 0.00625301 
-0.119957 -0.130753 0.00633295 -0.132194 -0.140357 0.0275805 -0.140785 -0.139895 0.020458 
-0.125398 -0.127534 0.00527522 -0.127237 -0.141368 0.0309111 -0.131488 -0.128829 0.00491232 
-0.137509 -0.141181 0.0246651 -0.120417 -0.132707 0.0291184 -0.143102 -0.129758 0.0049524 
-0.11508 -0.135634 0.0066248 -0.149233 -0.139782 0.0101525 -0.119364 -0.13968 0.00802701 
-0.131722 -0.142884 0.0327194 -0.113655 -0.140861 0.0236284 -0.106273 -0.12952 0.0271009 
-0.108032 -0.134682 0.0204394 -0.122323 -0.12629 0.00988839 -0.111572 -0.126649 0.0228602 
-0.109345 -0.127389 0.0285742 -0.135706 -0.142913 0.0309295 -0.130746 -0.130337 0.0200954 
-0.138501 -0.142817 0.028949 -0.11212 -0.139221 0.0304343 -0.131326 -0.141106 0.00556992 
-0.122203 -0.141884 0.0311939 -0.15027 -0.138916 0.00424782 -0.11036 -0.13947 0.0220107 
-0.142201 -0.142524 0.0252924 -0.12317 -0.138487 0.0312402 -0.147015 -0.141861 0.0187788 
-0.124713 -0.132271 0.00259633 -0.137079 -0.142224 0.0151159 -0.123183 -0.1432 0.0280662 
-0.12124 -0.129658 0.0259817 -0.119187 -0.142851 0.0224443 -0.1455 -0.132685 0.0111584 
-0.149526 -0.141442 0.0149316 -0.107531 -0.133194 0.0168413 -0.127858 -0.131654 0.00261793 
-0.142277 -0.143019 0.0283401 -0.136097 -0.127321 0.00407906 -0.0491095 -0.106441 0.017158 
-0.0582564 -0.107202 0.0121487 -0.0678182 -0.10752 0.00914816 -0.0571977 -0.109318 0.023428 
-0.0442935 -0.106061 0.0264711 -0.0649768 -0.110151 0.0194478 -0.0748076 -0.110876 0.0139239 
-0.04969 -0.111175 0.0275796 -0.0761069 -0.108532 0.00583269 -0.0508367 -0.102831 0.0068726 
-0.0635982 -0.113332 0.0273745 -0.0719794 -0.112682 0.0200206 -0.0562773 -0.0996237 0.00577287 
-0.0587313 -0.114422 0.0308118 -0.06234 -0.10096 0.00518046 -0.0688157 -0.114094 0.0242731 
-0.0519493 -0.105638 0.029546 -0.0739404 -0.101994 0.00483917 -0.0459211 -0.107675 0.00712882 
-0.0801201 -0.11226 0.0094786 -0.0502034 -0.111809 0.00825147 -0.0632518 -0.116045 0.0324279 
-0.0449464 -0.113521 0.0239618 -0.0377852 -0.10225 0.0280715 -0.0392941 -0.107176 0.0211736 
-0.053352 -0.0985251 0.0105188 -0.0429853 -0.099271 0.0237837 -0.0409204 -0.100204 0.0295303 
-0.0671811 -0.116043 0.03052 -0.0620316 -0.103027 0.0203126 -0.0699168 -0.115899 0.0284618 
-0.0436296 -0.112122 0.0308667 -0.0620729 -0.11325 0.00538701 -0.0537032 -0.114903 0.0312256 
-0.0809914 -0.111184 0.00358173 -0.0416194 -0.11204 0.022496 -0.0735107 -0.115502 0.0247097 
-0.0547049 -0.111519 0.0313689 -0.0781369 -0.114639 0.0180843 -0.0554652 -0.104251 0.00294185 
-0.068094 -0.114776 0.0147088 -0.0545767 -0.11611 0.0280233 -0.0527104 -0.102482 0.0265013 
-0.05042 -0.115515 0.0225402 -0.0764909 -0.105172 0.010858 -0.0805372 -0.1141 0.014182 
-0.0387026 -0.10555 0.0176496 -0.0586158 -0.103664 0.00289237 -0.0736718 -0.116112 0.0277333 
-0.0669378 -0.0994628 0.0042664 
VERTICES 100 200
1 0 
1 1 
1 2 
1 3 
1 4 
1 5 
1 6 
1 7 
1 8 
1 9 
1 10 
1 11 
1 12 
1 13 
1 14 
1 15 
1 16 
1 17 
1 18 
1 19 
1 20 
1 21 
1 22 
1 23 
1 24 
1 25 
1 26 
1 27 
1 28 
1 29 
1 30 
1 31 
1 32 
1 33 
1 34 
1 35 
1 36 
1 37 
1 38 
1 39 
1 40 
1 41 
1 42 
1 43 
1 44 
1 45 
1 46 
1 47 
1 48 
1 49 
1 50 
1 51 
1 52 
1 53 
1 54 
1 55 
1 56 
1 57 
1 58 
1 59 
1 60 
1 61 
1 62 
1 63 
1 64 
1 65 
1 66 
1 67 
1 68 
1 69 
1 70 
1 71 
1 72 
1 73 
1 74 
1 75 
1 76 
1 77 
1 78 
1 79 
1 80 
1 81 
1 82 
1 83 
1 84 
1 85 
1 86 
1 87 
1 88 
1 89 
1 90 
1 91 
1 92 
1 93 
1 94 
1 95 
1 96 
1 97 
1 98 
1 99 

POINT_DATA 100
FIELD FieldData 7
id 1 100 int
1 2 3 4 5 6 7 8 9 
10 11 12 13 14 15 16 17 18 
19 20 21 22 23 24 25 26 27 
28 29 30 31 32 33 34 35 36 
37 38 39 40 41 42 43 44 45 
46 47 48 49 50 51 52 53 54 
55 56 57 58 59 60 61 62 63 
64 65 66 67 68 69 70 71 72 
73 74 75 76 77 78 79 80 81 
82 83 84 85 86 87 88 89 90 
91 92 93 94 95 96 97 98 99 
100 
mol 1 100 int
1 1 1 1 1 1 1 1 1 
1 1 1 1 1 1 1 1 1 
1 1 1 1 1 1 1 1 1 
1 1 1 1 1 1 1 1 1 
1 1 1 1 1 1 1 1 1 
1 1 1 1 1 2 2 2 2 
2 2 2 2 2 2 2 2 2 
2 2 2 2 2 2 2 2 2 
2 2 2 2 2 2 2 2 2 
2 2 2 2 2 2 2 2 2 
2 2 2 2 2 2 2 2 2 
2 
type 1 100 int
1 1 1 1 1 1 1 1 1 
1 1 1 1 1 1 1 1 1 
1 1 1 1 1 1 1 1 1 
1 1 1 1 1 1 1 1 1 
1 1 1 1 1 1 1 1 1 
1 1 1 1 1 1 1 1 1 
1 1 1 1 1 1 1 1 1 
1 1 1 1 1 1 1 1 1 
1 1 1 1 1 1 1 1 1 
1 1 1 1 1 1 1 1 1 
1 1 1 1 1 1 1 1 1 
1 
v 3 100 double
-0.1358490079 -0.064579729325 -0.11752326614 -0.093662506757 -0.045080187525 -0.20442987976 -0.069692007091 -0.041095279657 -0.29049068721 
-0.18880697829 -0.12712592838 -0.20523825311 -0.21620722029 -0.12423016883 -0.068342756407 -0.15511835714 -0.11266877901 -0.2804006423 
-0.10868281911 -0.090648161788 -0.37318042381 -0.22043163304 -0.14415591014 -0.15256159922 -0.041692845727 -0.032572823948 -0.37101884779 
-0.05156595806 0.0092874930517 -0.1106673153 -0.21952268195 -0.16962259634 -0.28826943988 -0.15860049652 -0.13091589489 -0.35924389579 
-0.047796853607 0.0080556868512 -0.1338073676 -0.24667738296 -0.18614701765 -0.2528692288 -0.042483144785 0.00055857891849 -0.19621225502 
-0.19288858259 -0.15679158323 -0.34044808865 -0.24566079942 -0.16135528697 -0.12921907805 -0.041275075807 -0.019199207261 -0.30373598009 
-0.045915717816 0.015282803617 -0.10481363608 -0.069523931706 -0.068239159658 -0.43157293486 -0.051282644973 -0.0023486732491 -0.1720871806 
-0.25980040663 -0.20714251267 -0.30302207817 -0.18444331856 -0.10909730555 -0.13144716238 -0.23352507667 -0.12261760903 0.017054427122 
-0.1671740509 -0.075900493958 -0.036663054759 -0.089840757561 -0.021183860107 -0.097891280384 -0.20160187993 -0.099879358086 -0.0074388100058 
-0.24985584337 -0.13874732379 0.0063314211763 -0.24424788413 -0.20047393162 -0.33775030949 -0.17147304077 -0.11139344197 -0.2010327894 
-0.22725370732 -0.19039072219 -0.36123985857 -0.24614421396 -0.15726542189 -0.10592332482 -0.027611213447 -0.0040723419318 -0.28633065267 
-0.2482628678 -0.17982233413 -0.21311548064 -0.019827619609 -0.025956153592 -0.43410544355 -0.17276244515 -0.091516733185 -0.092532309718 
-0.19607162366 -0.16933010947 -0.39110874414 -0.25435485101 -0.181786373 -0.19616176387 -0.14076247409 -0.12883531457 -0.42786208934 
-0.016655439166 0.029175772985 -0.16318780645 -0.10842427518 -0.084879887009 -0.34450879544 -0.21896487134 -0.15814533326 -0.23141390157 
-0.22359905874 -0.13934967136 -0.11361898856 -0.17085374651 -0.10953746711 -0.19419307341 -0.09012757035 -0.069484878359 -0.34633217668 
-0.10813873612 -0.10436007347 -0.44649229267 -0.13849937593 -0.048236954079 -0.021237332127 -0.017876665755 0.023745174603 -0.1858299396 
-0.22164133579 -0.19217950858 -0.3954615957 -0.037792636741 -0.00095193765019 -0.22489326534 -0.15448727349 -0.11882618114 0.11861145046 
-0.10976624257 -0.096516572366 0.033565161822 -0.08320541779 -0.089882230866 -0.051778540225 -0.20415229255 -0.1789484613 0.02695919876 
-0.23592695992 -0.18039218001 0.16324142061 -0.16824239369 -0.16206532215 -0.046758830703 -0.11911566256 -0.1370425637 -0.13747030487 
-0.23711765907 -0.19755898297 0.078248883566 -0.052768178108 -0.078799559214 -0.1312548578 -0.071188335592 -0.044912750461 0.13057235118 
-0.23178296587 -0.21894971041 -0.058531464189 -0.16904130913 -0.17788064912 -0.12640985307 -0.06693074632 -0.045672122247 0.10729480089 
-0.2598128966 -0.23658138358 -0.024436944142 -0.059588687456 -0.051242968437 0.044717294847 -0.20361434598 -0.20440308956 -0.10949700051 
-0.26330530507 -0.21595740732 0.099964092176 -0.054923061017 -0.067814441064 -0.063659669698 -0.065427422419 -0.038723650162 0.13707153101 
-0.078261160191 -0.11262303229 -0.19389912557 -0.068355355335 -0.054159546283 0.069058950032 -0.27116069373 -0.25609255402 -0.075778893062 
-0.20185854297 -0.16274153314 0.10190305048 -0.25609355309 -0.18160916044 0.24815322479 -0.18812120206 -0.1326171156 0.19830398318 
-0.10992336085 -0.076269667328 0.14087788137 -0.2237978036 -0.15817999793 0.22526618231 -0.27212433045 -0.19766332831 0.23621829934 
-0.25460815164 -0.24832950266 -0.10985990485 -0.18748742853 -0.16366540905 0.031962851107 -0.23698741771 -0.23747810776 -0.13251762536 
-0.26407891647 -0.21210201178 0.12376609851 -0.041125460538 -0.05234417817 -0.044686668231 -0.26261079543 -0.23138255105 0.015604814166 
-0.028865721545 -0.070050914999 -0.19342887706 -0.19157945194 -0.14631902294 0.14182236937 -0.20508229868 -0.21539942729 -0.16074617152 
-0.26943112233 -0.23410283723 0.032166447841 -0.14901385383 -0.17357890134 -0.19445010946 -0.034738827189 -0.02320597265 0.079807603214 
-0.11949780792 -0.13183591371 -0.10832651181 -0.23283402372 -0.2089237106 -0.00098448629025 -0.24208782239 -0.1944895497 0.11691576546 
-0.18623617536 -0.16115257077 0.039527123775 -0.10191180153 -0.11693623705 -0.10951251518 -0.11604054295 -0.14841187733 -0.21125536434 
-0.1602217603 -0.10534346375 0.21556598335 -0.03527776516 -0.028029071288 0.056854123961 -0.23031484483 -0.23823024968 -0.16669274853 
-0.054123827494 -0.051998939806 0.015990829959 
f 3 100 double
0 0 0 0 0 0 0 0 0 
0 0 0 0 0 0 0 0 0 
0 0 0 0 0 0 0 0 0 
0 0 0 0 0 0 0 0 0 
0 0 0 0 0 0 0 0 0 
0 0 0 0 0 0 0 0 0 
0 0 0 0 0 0 0 0 0 
0 0 0 0 0 0 0 0 0 
0 0 0 0 0 0 0 0 0 
0 0 0 0 0 0 0 0 0 
0 0 0 0 0 0 0 0 0 
0 0 0 0 0 0 0 0 0 
0 0 0 0 0 0 0 0 0 
-0.062852770585 -0.83133826276 6.5756889467 0 0 0 0 0 0 
0 0 0 0 0 0 0 0 0 
0 0 0 0 0 0 -0.066997320434 -0.65429758933 3.8332439791 
0 0 0 0 0 0 0 0 0 
0 0 0 0 0 0 0 0 0 
0 0 0 0 0 0 0 0 0 
0 0 0 0.013504840775 0.32167424087 1.3894744668 0 0 0 
0 0 0 0 0 0 0 0 0 
0 0 0 0 0 0 0 0 0 
0 0 0 0 0 0 0 0 0 
0 0 0 0 0 0 0 0 0 
0 0 0 0 0 0 0 0 0 
0 0 0 0 0 0 0 0 0 
0 0 0 0 0 0 0 0 0 
0 0 0 0 0 0 0 0 0 
0 0 0 0 0 0 0 0 0 
0 0 0 0 0 0 0.081484792824 0.043442978596 -0.5857726587 
0 0 0 0 0 0 0 0 0 
0 0 0 0 0 0 0 0 0 
0 0 0 0 0 0 0 0 0 
0 0 0 
radius 1 100 double
0.010434 0.00981478 0.00892069 0.00845937 0.00731974 0.00728422 0.00643447 0.00619172 0.00585956 
0.00577566 0.00537241 0.00522549 0.00513666 0.00473175 0.00466912 0.00444866 0.00441894 0.00400812 
0.00385622 0.00379948 0.00370243 0.00366942 0.00364039 0.00363813 0.00363644 0.00358692 0.0035797 
0.00341284 0.00337012 0.00336273 0.00332772 0.00323261 0.00320584 0.00320311 0.00318808 0.00313116 
0.00306026 0.00305632 0.00304383 0.00300958 0.00300137 0.00298994 0.0029567 0.00295111 0.00290849 
0.00284552 0.00282964 0.0028207 0.00281971 0.00281899 0.010434 0.00981478 0.00892069 0.00845937 
0.00731974 0.00728422 0.00643447 0.00619172 0.00585956 0.00577566 0.00537241 0.00522549 0.00513666 
0.00473175 0.00466912 0.00444866 0.00441894 0.00400812 0.00385622 0.00379948 0.00370243 0.00366942 
0.00364039 0.00363813 0.00363644 0.00358692 0.0035797 0.00341284 0.00337012 0.00336273 0.00332772 
0.00323261 0.00320584 0.00320311 0.00318808 0.00313116 0.00306026 0.00305632 0.00304383 0.00300958 
0.00300137 0.00298994 0.0029567 0.00295111 0.00290849 0.00284552 0.00282964 0.0028207 0.00281971 
0.00281899 
omega 3 100 double
7.4552792017 -8.6620337637 1.6754358389 7.4552792017 -8.6620337637 1.6754358389 7.4552792017 -8.6620337637 1.6754358389 
7.4552792017 -8.6620337637 1.6754358389 7.4552792017 -8.6620337637 1.6754358389 7.4552792017 -8.6620337637 1.6754358389 
7.4552792017 -8.6620337637 1.6754358389 7.4552792017 -8.6620337637 1.6754358389 7.4552792017 -8.6620337637 1.6754358389 
7.4552792017 -8.6620337637 1.6754358389 7.4552792017 -8.6620337637 1.6754358389 7.4552792017 -8.6620337637 1.6754358389 
7.4552792017 -8.6620337637 1.6754358389 7.4552792017 -8.6620337637 1.6754358389 7.4552792017 -8.6620337637 1.6754358389 
7.4552792017 -8.6620337637 1.6754358389 7.4552792017 -8.6620337637 1.6754358389 7.4552792017 -8.6620337637 1.6754358389 
7.4552792017 -8.6620337637 1.6754358389 7.4552792017 -8.6620337637 1.6754358389 7.4552792017 -8.6620337637 1.6754358389 
7.4552792017 -8.6620337637 1.6754358389 7.4552792017 -8.6620337637 1.6754358389 7.4552792017 -8.6620337637 1.6754358389 
7.4552792017 -8.6620337637 1.6754358389 7.4552792017 -8.6620337637 1.6754358389 7.4552792017 -8.6620337637 1.6754358389 
7.4552792017 -8.6620337637 1.6754358389 7.4552792017 -8.6620337637 1.6754358389 7.4552792017 -8.6620337637 1.6754358389 
7.4552792017 -8.6620337637 1.6754358389 7.4552792017 -8.6620337637 1.6754358389 7.4552792017 -8.6620337637 1.6754358389 
7.4552792017 -8.6620337637 1.6754358389 7.4552792017 -8.6620337637 1.6754358389 7.4552792017 -8.6620337637 1.6754358389 
7.4552792017 -8.6620337637 1.6754358389 7.4552792017 -8.6620337637 1.6754358389 7.4552792017 -8.6620337637 1.6754358389 
7.4552792017 -8.6620337637 1.6754358389 7.4552792017 -8.6620337637 1.6754358389 7.4552792017 -8.6620337637 1.6754358389 
7.4552792017 -8.6620337637 1.6754358389 7.4552792017 -8.6620337637 1.6754358389 7.4552792017 -8.6620337637 1.6754358389 
7.4552792017 -8.6620337637 1.6754358389 7.4552792017 -8.6620337637 1.6754358389 7.4552792017 -8.6620337637 1.6754358389 
7.4552792017 -8.6620337637 1.6754358389 7.4552792017 -8.6620337637 1.6754358389 7.4629691052 -8.6773143856 1.6480928815 
7.4629691052 -8.6773143856 1.6480928815 7.4629691052 -8.6773143856 1.6480928815 7.4629691052 -8.6773143856 1.6480928815 
7.4629691052 -8.6773143856 1.6480928815 7.4629691052 -8.6773143856 1.6480928815 7.4629691052 -8.6773143856 1.6480928815 
7.4629691052 -8.6773143856 1.6480928815 7.4629691052 -8.6773143856 1.6480928815 7.4629691052 -8.6773143856 1.6480928815 
7.4629691052 -8.6773143856 1.6480928815 7.4629691052 -8.6773143856 1.6480928815 7.4629691052 -8.6773143856 1.6480928815 
7.4629691052 -8.6773143856 1.6480928815 7.4629691052 -8.6773143856 1.6480928815 7.4629691052 -8.6773143856 1.6480928815 
7.4629691052 -8.6773143856 1.6480928815 7.4629691052 -8.6773143856 1.6480928815 7.4629691052 -8.6773143856 1.6480928815 
7.4629691052 -8.6773143856 1.6480928815 7.4629691052 -8.6773143856 1.6480928815 7.4629691052 -8.6773143856 1.6480928815 
7.4629691052 -8.6773143856 1.6480928815 7.4629691052 -8.6773143856 1.6480928815 7.4629691052 -8.6773143856 1.6480928815 
7.4629691052 -8.6773143856 1.6480928815 7.4629691052 -8.6773143856 1.6480928815 7.4629691052 -8.6773143856 1.6480928815 
7.4629691052 -8.6773143856 1.6480928815 7.4629691052 -8.6773143856 1.6480928815 7.4629691052 -8.6773143856 1.6480928815 
7.4629691052 -8.6773143856 1.6480928815 7.4629691052 -8.6773143856 1.6480928815 7.4629691052 -8.6773143856 1.6480928815 
7.4629691052 -8.6773143856 1.6480928815 7.4629691052 -8.6773143856 1.6480928815 7.4629691052 -8.6773143856 1.6480928815 
7.4629691052 -8.6773143856 1.6480928815 7.4629691052 -8.6773143856 1.6480928815 7.4629691052 -8.6773143856 1.6480928815 
7.4629691052 -8.6773143856 1.6480928815 7.4629691052 -8.6773143856 1.6480928815 7.4629691052 -8.6773143856 1.6480928815 
7.4629691052 -8.6773143856 1.6480928815 7.4629691052 -8.6773143856 1.6480928815 7.4629691052 -8.6773143856 1.6480928815 
7.4629691052 -8.6773143856 1.6480928815 7.4629691052 -8.6773143856 1.6480928815 7.4629691052 -8.6773143856 1.6480928815 
7.4629691052 -8.6773143856 1.6480928815 
