# vtk DataFile Version 4.1
Generated by LIGGGHTS
ASCII
DATASET POLYDATA
POINTS 100 float
-0.109821 -0.12976 0.0192944 -0.120234 -0.13067 0.0195464 -0.130037 -0.130805 0.0216502 
-0.113767 -0.131081 0.0290764 -0.101078 -0.128267 0.0248984 -0.122483 -0.131996 0.0295626 
-0.133746 -0.132904 0.0296976 -0.105157 -0.132774 0.0293204 -0.13887 -0.131759 0.0229839 
-0.116412 -0.127676 0.0106906 -0.117355 -0.133996 0.036237 -0.12827 -0.133931 0.0338682 
-0.121751 -0.12432 0.0118408 -0.111412 -0.134866 0.0370168 -0.127307 -0.125321 0.0144903 
-0.123409 -0.134877 0.0362264 -0.106263 -0.12686 0.0311733 -0.137578 -0.125614 0.0199848 
-0.111915 -0.132742 0.00934487 -0.140528 -0.134599 0.0286831 -0.115032 -0.136356 0.0130754 
-0.114539 -0.135912 0.040865 -0.102745 -0.135964 0.0243113 -0.0946834 -0.124701 0.0224836 
-0.0992834 -0.130522 0.0181162 -0.1169 -0.122699 0.0143168 -0.101365 -0.122078 0.0208176 
-0.0967417 -0.122248 0.0249104 -0.118899 -0.135942 0.0411276 -0.119614 -0.125038 0.0276843 
-0.122293 -0.135934 0.0406596 -0.0982481 -0.133606 0.0293696 -0.126762 -0.137421 0.0166012 
-0.106814 -0.135614 0.0350196 -0.144186 -0.134393 0.0238596 -0.100583 -0.134955 0.0211938 
-0.127268 -0.135882 0.0391099 -0.107677 -0.132189 0.0350595 -0.134554 -0.135746 0.0355137 
-0.122346 -0.129374 0.00979308 -0.127438 -0.137079 0.0277774 -0.10912 -0.137241 0.0328946 
-0.108468 -0.124169 0.028397 -0.10818 -0.137782 0.0260739 -0.13681 -0.127644 0.0269218 
-0.138563 -0.135658 0.0332334 -0.100516 -0.129505 0.0145307 -0.125129 -0.128591 0.0111767 
-0.125922 -0.136004 0.041887 -0.131791 -0.123678 0.0156792 -0.0409587 -0.101975 0.0202784 
-0.0513747 -0.102893 0.0202464 -0.0612294 -0.103052 0.0220881 -0.0451619 -0.103382 0.0299408 
-0.0323686 -0.100525 0.0261248 -0.0538874 -0.104305 0.0301878 -0.0651487 -0.10522 0.0300162 
-0.0365603 -0.105071 0.0303988 -0.0700944 -0.104021 0.0231789 -0.047321 -0.0998225 0.0115207 
-0.0489367 -0.106359 0.0369787 -0.0597848 -0.10628 0.0343218 -0.0526914 -0.096479 0.0125572 
-0.0430153 -0.107232 0.0379086 -0.058315 -0.0975054 0.0150498 -0.0549873 -0.107243 0.0368001 
-0.0377198 -0.0991744 0.0322716 -0.0687273 -0.09785 0.0202672 -0.0427858 -0.104874 0.010252 
-0.0719001 -0.106911 0.0288078 -0.0459981 -0.108521 0.0138678 -0.0462426 -0.108313 0.0416635 
-0.0340132 -0.108218 0.0254287 -0.025915 -0.0969353 0.0239108 -0.0303931 -0.102721 0.0193738 
-0.0479091 -0.0948766 0.0151746 -0.0325524 -0.0943023 0.0220903 -0.0280389 -0.0945038 0.0263027 
-0.0506081 -0.108347 0.0418101 -0.0509744 -0.0973299 0.0284452 -0.0539888 -0.108337 0.0412522 
-0.0296543 -0.1059 0.0306242 -0.0578168 -0.109623 0.017072 -0.038366 -0.107961 0.0360277 
-0.0754292 -0.106665 0.023891 -0.0317704 -0.107182 0.0223782 -0.0589207 -0.108275 0.0395716 
-0.0392316 -0.104537 0.0360737 -0.0661092 -0.108112 0.0357847 -0.0532273 -0.101516 0.0104518 
-0.0587888 -0.109375 0.0282289 -0.0406126 -0.109571 0.0338288 -0.0398525 -0.096461 0.0294606 
-0.0394925 -0.110054 0.027031 -0.0681418 -0.0999384 0.0272048 -0.0700564 -0.108007 0.0333996 
-0.031531 -0.101675 0.0157655 -0.0560467 -0.100746 0.0117676 -0.0576484 -0.10842 0.0423823 
-0.0628299 -0.0958752 0.0161331 
VERTICES 100 200
1 0 
1 1 
1 2 
1 3 
1 4 
1 5 
1 6 
1 7 
1 8 
1 9 
1 10 
1 11 
1 12 
1 13 
1 14 
1 15 
1 16 
1 17 
1 18 
1 19 
1 20 
1 21 
1 22 
1 23 
1 24 
1 25 
1 26 
1 27 
1 28 
1 29 
1 30 
1 31 
1 32 
1 33 
1 34 
1 35 
1 36 
1 37 
1 38 
1 39 
1 40 
1 41 
1 42 
1 43 
1 44 
1 45 
1 46 
1 47 
1 48 
1 49 
1 50 
1 51 
1 52 
1 53 
1 54 
1 55 
1 56 
1 57 
1 58 
1 59 
1 60 
1 61 
1 62 
1 63 
1 64 
1 65 
1 66 
1 67 
1 68 
1 69 
1 70 
1 71 
1 72 
1 73 
1 74 
1 75 
1 76 
1 77 
1 78 
1 79 
1 80 
1 81 
1 82 
1 83 
1 84 
1 85 
1 86 
1 87 
1 88 
1 89 
1 90 
1 91 
1 92 
1 93 
1 94 
1 95 
1 96 
1 97 
1 98 
1 99 

POINT_DATA 100
FIELD FieldData 7
id 1 100 int
1 2 3 4 5 6 7 8 9 
10 11 12 13 14 15 16 17 18 
19 20 21 22 23 24 25 26 27 
28 29 30 31 32 33 34 35 36 
37 38 39 40 41 42 43 44 45 
46 47 48 49 50 51 52 53 54 
55 56 57 58 59 60 61 62 63 
64 65 66 67 68 69 70 71 72 
73 74 75 76 77 78 79 80 81 
82 83 84 85 86 87 88 89 90 
91 92 93 94 95 96 97 98 99 
100 
mol 1 100 int
1 1 1 1 1 1 1 1 1 
1 1 1 1 1 1 1 1 1 
1 1 1 1 1 1 1 1 1 
1 1 1 1 1 1 1 1 1 
1 1 1 1 1 1 1 1 1 
1 1 1 1 1 2 2 2 2 
2 2 2 2 2 2 2 2 2 
2 2 2 2 2 2 2 2 2 
2 2 2 2 2 2 2 2 2 
2 2 2 2 2 2 2 2 2 
2 2 2 2 2 2 2 2 2 
2 
type 1 100 int
1 1 1 1 1 1 1 1 1 
1 1 1 1 1 1 1 1 1 
1 1 1 1 1 1 1 1 1 
1 1 1 1 1 1 1 1 1 
1 1 1 1 1 1 1 1 1 
1 1 1 1 1 1 1 1 1 
1 1 1 1 1 1 1 1 1 
1 1 1 1 1 1 1 1 1 
1 1 1 1 1 1 1 1 1 
1 1 1 1 1 1 1 1 1 
1 1 1 1 1 1 1 1 1 
1 
v 3 100 double
-0.10445085003 -0.059448228329 0.28759356584 -0.10611188517 -0.061174755938 0.21272071331 -0.12083075914 -0.066773660979 0.14377859826 
-0.17281076395 -0.080724184826 0.25714237663 -0.14387027426 -0.070379468529 0.35200490553 -0.17611104497 -0.082755180809 0.19414784467 
-0.17695272953 -0.08432956559 0.11333530655 -0.17432600071 -0.080259678039 0.31384041729 -0.13006260873 -0.07062239538 0.079880589542 
-0.044429691256 -0.041884659832 0.24586506679 -0.22262854483 -0.096378433541 0.22580391836 -0.2060451301 -0.09258262643 0.14949909388 
-0.052869332742 -0.044943565945 0.21561636997 -0.22799085972 -0.097359414646 0.26557962288 -0.071311271376 -0.051218982736 0.17457161787 
-0.22245359438 -0.097047631876 0.18152986828 -0.18797920588 -0.084330801596 0.31868174896 -0.10975956283 -0.06408975963 0.10201787803 
-0.03442570309 -0.038505830103 0.26657804979 -0.16965354471 -0.082944753336 0.062226455033 -0.060140240146 -0.04680390658 0.23705358426 
-0.25482303642 -0.1059091941 0.24144996121 -0.13887895071 -0.069320104933 0.32394474689 -0.12736519513 -0.064507881293 0.40438270793 
-0.096111731535 -0.055735724745 0.35977356924 -0.070395432024 -0.049660282733 0.25304134933 -0.11599637825 -0.061724618333 0.36316715493 
-0.14464198049 -0.069909441758 0.39518935997 -0.25665900461 -0.10696651946 0.21085107479 -0.16375132838 -0.078428649978 0.22905783031 
-0.2533819588 -0.10635801709 0.1870947482 -0.1745752103 -0.079574814644 0.36045800932 -0.084712794223 -0.055650600105 0.15262969584 
-0.21391696538 -0.092582041323 0.29618649077 -0.13589479456 -0.073094077328 0.037045839186 -0.11715988366 -0.062436170955 0.34123254205 
-0.24253399506 -0.10362728803 0.15236286986 -0.21458778466 -0.092765511332 0.29743902948 -0.21736293174 -0.096804050025 0.10162028835 
-0.037949741368 -0.040651967385 0.20069515731 -0.16302716217 -0.07952082663 0.14862787172 -0.19884869612 -0.088321710646 0.27657903463 
-0.16884197797 -0.078672228891 0.30896734727 -0.15101599425 -0.07369365066 0.28200487068 -0.15811317174 -0.078770363009 0.10307613898 
-0.20140195399 -0.092407493245 0.073730969835 -0.071115696917 -0.048243302243 0.35330564716 -0.047729612661 -0.043915556103 0.18286994666 
-0.26197029992 -0.10938566022 0.16153239981 -0.079825427265 -0.054262303784 0.14666631589 -0.10393587227 -0.059149129883 0.24006466714 
-0.10357672286 -0.060654785579 0.1664902785 -0.1162240559 -0.065978938376 0.098359898235 -0.17020059534 -0.079910807165 0.20821686899 
-0.14437778377 -0.070030603193 0.30218464406 -0.17176034163 -0.081742486336 0.14626190449 -0.17044199549 -0.083085217805 0.06687728069 
-0.1730964114 -0.079566275962 0.26387603289 -0.12358202874 -0.069589318214 0.035348479166 -0.044007449738 -0.041866790817 0.20077573349 
-0.21817213587 -0.095141035223 0.17604332 -0.19990428876 -0.091244136397 0.10157419607 -0.051643554968 -0.044836660935 0.17079265918 
-0.22443772971 -0.096184043188 0.2149642081 -0.068637580922 -0.050877797085 0.12996372249 -0.21680950436 -0.095682302279 0.1325735506 
-0.18687186355 -0.083642562468 0.2681820724 -0.10448096477 -0.063317657405 0.057609675858 -0.03451607724 -0.038539351197 0.22145502943 
-0.16187308974 -0.081587302331 0.016906413882 -0.058842237323 -0.046556148132 0.19175878847 -0.25010815973 -0.10449284141 0.19050902534 
-0.13842696862 -0.06882879047 0.27484454947 -0.12968705778 -0.064444373022 0.35406346461 -0.097599228311 -0.055669680699 0.3112017176 
-0.069893022383 -0.049566835538 0.20703248334 -0.11755955495 -0.061654209524 0.31388268101 -0.14651074416 -0.069747542024 0.34451621844 
-0.2511116209 -0.10545722551 0.16040432454 -0.16082444852 -0.077672879827 0.18083268371 -0.24727525358 -0.10480560383 0.13716574478 
-0.17452207001 -0.078993260273 0.30966238423 -0.080721374325 -0.055015015783 0.10815072649 -0.21138750598 -0.091564265785 0.24543417107 
-0.12808191528 -0.071877937435 -0.0068619519778 -0.11759647907 -0.062136017034 0.29243428937 -0.2357216423 -0.10204923635 0.10336350351 
-0.21222063281 -0.091790683869 0.24661118118 -0.20969215391 -0.095246108293 0.054244894255 -0.036397604071 -0.040531774131 0.15661437575 
-0.15751760204 -0.078401905103 0.10197905113 -0.19601536821 -0.087322817875 0.22662355324 -0.16794178327 -0.078109070404 0.25916127887 
-0.14917390284 -0.072993664167 0.23332474343 -0.15189638437 -0.077680617035 0.057287441549 -0.19329871413 -0.090873735041 0.027308774027 
-0.072932462472 -0.048325300057 0.30555347438 -0.045566828964 -0.043698371311 0.13882020127 -0.25503757184 -0.10771204073 0.11181510684 
-0.076336957892 -0.053815995958 0.10229707885 
f 3 100 double
0 0 0 0 0 0 0 0 0 
0 0 0 0 0 0 0 0 0 
0 0 0 0 0 0 0 0 0 
0 0 0 0 0 0 0 0 0 
0 0 0 0 0 0 0 0 0 
0 0 0 0 0 0 0 0 0 
0 0 0 0 0 0 0 0 0 
0 0 0 0 0 0 0 0 0 
0 0 0 0 0 0 0 0 0 
0 0 0 0 0 0 0 0 0 
0 0 0 0 0 0 0 0 0 
0 0 0 0 0 0 0 0 0 
0 0 0 0 0 0 0 0 0 
0 0 0 0 0 0 0 0 0 
0 0 0 0 0 0 0 0 0 
0 0 0 0 0 0 0 0 0 
0 0 0 0 0 0 0 0 0 
0 0 0 0 0 0 0 0 0 
0 0 0 0 0 0 0 0 0 
0 0 0 0 0 0 0 0 0 
0 0 0 0 0 0 0 0 0 
0 0 0 0 0 0 0 0 0 
0 0 0 0 0 0 0 0 0 
0 0 0 0 0 0 0 0 0 
0 0 0 0 0 0 0 0 0 
0 0 0 0 0 0 0 0 0 
0 0 0 0 0 0 0 0 0 
0 0 0 0 0 0 0 0 0 
0 0 0 0 0 0 0 0 0 
0 0 0 0 0 0 0 0 0 
0 0 0 0 0 0 0 0 0 
0 0 0 0 0 0 0 0 0 
0 0 0 0 0 0 0 0 0 
0 0 0 
radius 1 100 double
0.010434 0.00981478 0.00892069 0.00845937 0.00731974 0.00728422 0.00643447 0.00619172 0.00585956 
0.00577566 0.00537241 0.00522549 0.00513666 0.00473175 0.00466912 0.00444866 0.00441894 0.00400812 
0.00385622 0.00379948 0.00370243 0.00366942 0.00364039 0.00363813 0.00363644 0.00358692 0.0035797 
0.00341284 0.00337012 0.00336273 0.00332772 0.00323261 0.00320584 0.00320311 0.00318808 0.00313116 
0.00306026 0.00305632 0.00304383 0.00300958 0.00300137 0.00298994 0.0029567 0.00295111 0.00290849 
0.00284552 0.00282964 0.0028207 0.00281971 0.00281899 0.010434 0.00981478 0.00892069 0.00845937 
0.00731974 0.00728422 0.00643447 0.00619172 0.00585956 0.00577566 0.00537241 0.00522549 0.00513666 
0.00473175 0.00466912 0.00444866 0.00441894 0.00400812 0.00385622 0.00379948 0.00370243 0.00366942 
0.00364039 0.00363813 0.00363644 0.00358692 0.0035797 0.00341284 0.00337012 0.00336273 0.00332772 
0.00323261 0.00320584 0.00320311 0.00318808 0.00313116 0.00306026 0.00305632 0.00304383 0.00300958 
0.00300137 0.00298994 0.0029567 0.00295111 0.00290849 0.00284552 0.00282964 0.0028207 0.00281971 
0.00281899 
omega 3 100 double
2.1289084639 -7.0037636183 0.11427372135 2.1289084639 -7.0037636183 0.11427372135 2.1289084639 -7.0037636183 0.11427372135 
2.1289084639 -7.0037636183 0.11427372135 2.1289084639 -7.0037636183 0.11427372135 2.1289084639 -7.0037636183 0.11427372135 
2.1289084639 -7.0037636183 0.11427372135 2.1289084639 -7.0037636183 0.11427372135 2.1289084639 -7.0037636183 0.11427372135 
2.1289084639 -7.0037636183 0.11427372135 2.1289084639 -7.0037636183 0.11427372135 2.1289084639 -7.0037636183 0.11427372135 
2.1289084639 -7.0037636183 0.11427372135 2.1289084639 -7.0037636183 0.11427372135 2.1289084639 -7.0037636183 0.11427372135 
2.1289084639 -7.0037636183 0.11427372135 2.1289084639 -7.0037636183 0.11427372135 2.1289084639 -7.0037636183 0.11427372135 
2.1289084639 -7.0037636183 0.11427372135 2.1289084639 -7.0037636183 0.11427372135 2.1289084639 -7.0037636183 0.11427372135 
2.1289084639 -7.0037636183 0.11427372135 2.1289084639 -7.0037636183 0.11427372135 2.1289084639 -7.0037636183 0.11427372135 
2.1289084639 -7.0037636183 0.11427372135 2.1289084639 -7.0037636183 0.11427372135 2.1289084639 -7.0037636183 0.11427372135 
2.1289084639 -7.0037636183 0.11427372135 2.1289084639 -7.0037636183 0.11427372135 2.1289084639 -7.0037636183 0.11427372135 
2.1289084639 -7.0037636183 0.11427372135 2.1289084639 -7.0037636183 0.11427372135 2.1289084639 -7.0037636183 0.11427372135 
2.1289084639 -7.0037636183 0.11427372135 2.1289084639 -7.0037636183 0.11427372135 2.1289084639 -7.0037636183 0.11427372135 
2.1289084639 -7.0037636183 0.11427372135 2.1289084639 -7.0037636183 0.11427372135 2.1289084639 -7.0037636183 0.11427372135 
2.1289084639 -7.0037636183 0.11427372135 2.1289084639 -7.0037636183 0.11427372135 2.1289084639 -7.0037636183 0.11427372135 
2.1289084639 -7.0037636183 0.11427372135 2.1289084639 -7.0037636183 0.11427372135 2.1289084639 -7.0037636183 0.11427372135 
2.1289084639 -7.0037636183 0.11427372135 2.1289084639 -7.0037636183 0.11427372135 2.1289084639 -7.0037636183 0.11427372135 
2.1289084639 -7.0037636183 0.11427372135 2.1289084639 -7.0037636183 0.11427372135 2.0830473384 -6.8800032678 0.15096342005 
2.0830473384 -6.8800032678 0.15096342005 2.0830473384 -6.8800032678 0.15096342005 2.0830473384 -6.8800032678 0.15096342005 
2.0830473384 -6.8800032678 0.15096342005 2.0830473384 -6.8800032678 0.15096342005 2.0830473384 -6.8800032678 0.15096342005 
2.0830473384 -6.8800032678 0.15096342005 2.0830473384 -6.8800032678 0.15096342005 2.0830473384 -6.8800032678 0.15096342005 
2.0830473384 -6.8800032678 0.15096342005 2.0830473384 -6.8800032678 0.15096342005 2.0830473384 -6.8800032678 0.15096342005 
2.0830473384 -6.8800032678 0.15096342005 2.0830473384 -6.8800032678 0.15096342005 2.0830473384 -6.8800032678 0.15096342005 
2.0830473384 -6.8800032678 0.15096342005 2.0830473384 -6.8800032678 0.15096342005 2.0830473384 -6.8800032678 0.15096342005 
2.0830473384 -6.8800032678 0.15096342005 2.0830473384 -6.8800032678 0.15096342005 2.0830473384 -6.8800032678 0.15096342005 
2.0830473384 -6.8800032678 0.15096342005 2.0830473384 -6.8800032678 0.15096342005 2.0830473384 -6.8800032678 0.15096342005 
2.0830473384 -6.8800032678 0.15096342005 2.0830473384 -6.8800032678 0.15096342005 2.0830473384 -6.8800032678 0.15096342005 
2.0830473384 -6.8800032678 0.15096342005 2.0830473384 -6.8800032678 0.15096342005 2.0830473384 -6.8800032678 0.15096342005 
2.0830473384 -6.8800032678 0.15096342005 2.0830473384 -6.8800032678 0.15096342005 2.0830473384 -6.8800032678 0.15096342005 
2.0830473384 -6.8800032678 0.15096342005 2.0830473384 -6.8800032678 0.15096342005 2.0830473384 -6.8800032678 0.15096342005 
2.0830473384 -6.8800032678 0.15096342005 2.0830473384 -6.8800032678 0.15096342005 2.0830473384 -6.8800032678 0.15096342005 
2.0830473384 -6.8800032678 0.15096342005 2.0830473384 -6.8800032678 0.15096342005 2.0830473384 -6.8800032678 0.15096342005 
2.0830473384 -6.8800032678 0.15096342005 2.0830473384 -6.8800032678 0.15096342005 2.0830473384 -6.8800032678 0.15096342005 
2.0830473384 -6.8800032678 0.15096342005 2.0830473384 -6.8800032678 0.15096342005 2.0830473384 -6.8800032678 0.15096342005 
2.0830473384 -6.8800032678 0.15096342005 
