# vtk DataFile Version 4.1
Generated by LIGGGHTS
ASCII
DATASET POLYDATA
POINTS 100 float
-0.113384 -0.131706 0.0235798 -0.123578 -0.132634 0.0214446 -0.1336 -0.132909 0.0212958 
-0.119389 -0.133658 0.032132 -0.106131 -0.130575 0.0310755 -0.12798 -0.134606 0.0306028 
-0.138975 -0.135525 0.0281646 -0.111025 -0.13536 0.0341834 -0.142494 -0.13395 0.0205626 
-0.117925 -0.129073 0.0138711 -0.124438 -0.137032 0.0381135 -0.134551 -0.136817 0.0333784 
-0.123435 -0.1258 0.0140102 -0.118805 -0.137948 0.0401432 -0.129426 -0.126972 0.0152851 
-0.130323 -0.137913 0.0366973 -0.112604 -0.129579 0.0361113 -0.140657 -0.127623 0.0183203 
-0.113167 -0.134039 0.0132464 -0.145336 -0.137154 0.025558 -0.116982 -0.137888 0.0159524 
-0.122694 -0.139242 0.0431231 -0.107511 -0.138219 0.0296481 -0.099413 -0.126858 0.0303775 
-0.102839 -0.132386 0.0247364 -0.119282 -0.124341 0.0176029 -0.105594 -0.124136 0.0274313 
-0.101996 -0.124567 0.0324334 -0.127002 -0.13929 0.0424041 -0.124868 -0.12754 0.0298538 
-0.130207 -0.139253 0.0411921 -0.104289 -0.136191 0.0357201 -0.129186 -0.139183 0.0166984 
-0.113867 -0.138563 0.0391789 -0.147831 -0.136637 0.0200629 -0.104725 -0.13701 0.0271612 
-0.134712 -0.139103 0.0385781 -0.114767 -0.135148 0.0392409 -0.141016 -0.138738 0.033463 
-0.123484 -0.130711 0.0115675 -0.132337 -0.139564 0.0274411 -0.115617 -0.14005 0.0364952 
-0.114175 -0.126715 0.0330881 -0.113176 -0.140149 0.0300357 -0.141422 -0.130097 0.0251121 
-0.144418 -0.138503 0.030356 -0.103257 -0.13114 0.0210376 -0.126517 -0.13002 0.0123419 
-0.134016 -0.139404 0.0415723 -0.134086 -0.125411 0.0155447 -0.0445006 -0.103911 0.0230335 
-0.054642 -0.104841 0.0206622 -0.0646573 -0.105131 0.0202852 -0.0506931 -0.105932 0.0314341 
-0.0374205 -0.10282 0.0306986 -0.0592462 -0.106883 0.0297049 -0.0701819 -0.107803 0.0270126 
-0.0423751 -0.107634 0.0336622 -0.0735303 -0.106182 0.0193441 -0.0488258 -0.101218 0.013243 
-0.0558696 -0.109355 0.0372768 -0.0658739 -0.109125 0.0323161 -0.0543437 -0.0979553 0.0132801 
-0.0502822 -0.110276 0.0394269 -0.0603599 -0.0991461 0.0144112 -0.0617203 -0.110236 0.035722 
-0.0440067 -0.101869 0.0355937 -0.0716545 -0.0998364 0.0171875 -0.0440458 -0.106172 0.0126917 
-0.0764787 -0.109424 0.024252 -0.0479145 -0.110045 0.0152844 -0.0542356 -0.111597 0.0423092 
-0.0387545 -0.110456 0.0291879 -0.030695 -0.0990873 0.0301781 -0.0339828 -0.104582 0.0244232 
-0.0502749 -0.0965142 0.0169756 -0.0368133 -0.0963548 0.0271118 -0.0333277 -0.0968154 0.0321909 
-0.0585264 -0.111647 0.0414928 -0.0561303 -0.0998071 0.029075 -0.061703 -0.111607 0.040209 
-0.0356736 -0.108465 0.0353449 -0.0601295 -0.111366 0.0157456 -0.0453234 -0.110877 0.0385701 
-0.0788502 -0.108874 0.0187056 -0.035915 -0.109225 0.0267729 -0.0661482 -0.111447 0.037495 
-0.0462307 -0.107464 0.0386353 -0.0723361 -0.111056 0.0322414 -0.0543285 -0.102849 0.0108032 
-0.0635218 -0.111827 0.0264115 -0.0470097 -0.112348 0.0358374 -0.0455145 -0.0989869 0.0325556 
-0.0444226 -0.112398 0.0294341 -0.0725685 -0.102359 0.0239431 -0.0756672 -0.110806 0.02906 
-0.0343199 -0.10331 0.0207245 -0.057379 -0.102169 0.0115136 -0.0655194 -0.111767 0.0405019 
-0.0650269 -0.0975947 0.0145763 
VERTICES 100 200
1 0 
1 1 
1 2 
1 3 
1 4 
1 5 
1 6 
1 7 
1 8 
1 9 
1 10 
1 11 
1 12 
1 13 
1 14 
1 15 
1 16 
1 17 
1 18 
1 19 
1 20 
1 21 
1 22 
1 23 
1 24 
1 25 
1 26 
1 27 
1 28 
1 29 
1 30 
1 31 
1 32 
1 33 
1 34 
1 35 
1 36 
1 37 
1 38 
1 39 
1 40 
1 41 
1 42 
1 43 
1 44 
1 45 
1 46 
1 47 
1 48 
1 49 
1 50 
1 51 
1 52 
1 53 
1 54 
1 55 
1 56 
1 57 
1 58 
1 59 
1 60 
1 61 
1 62 
1 63 
1 64 
1 65 
1 66 
1 67 
1 68 
1 69 
1 70 
1 71 
1 72 
1 73 
1 74 
1 75 
1 76 
1 77 
1 78 
1 79 
1 80 
1 81 
1 82 
1 83 
1 84 
1 85 
1 86 
1 87 
1 88 
1 89 
1 90 
1 91 
1 92 
1 93 
1 94 
1 95 
1 96 
1 97 
1 98 
1 99 

POINT_DATA 100
FIELD FieldData 7
id 1 100 int
1 2 3 4 5 6 7 8 9 
10 11 12 13 14 15 16 17 18 
19 20 21 22 23 24 25 26 27 
28 29 30 31 32 33 34 35 36 
37 38 39 40 41 42 43 44 45 
46 47 48 49 50 51 52 53 54 
55 56 57 58 59 60 61 62 63 
64 65 66 67 68 69 70 71 72 
73 74 75 76 77 78 79 80 81 
82 83 84 85 86 87 88 89 90 
91 92 93 94 95 96 97 98 99 
100 
mol 1 100 int
1 1 1 1 1 1 1 1 1 
1 1 1 1 1 1 1 1 1 
1 1 1 1 1 1 1 1 1 
1 1 1 1 1 1 1 1 1 
1 1 1 1 1 1 1 1 1 
1 1 1 1 1 2 2 2 2 
2 2 2 2 2 2 2 2 2 
2 2 2 2 2 2 2 2 2 
2 2 2 2 2 2 2 2 2 
2 2 2 2 2 2 2 2 2 
2 2 2 2 2 2 2 2 2 
2 
type 1 100 int
1 1 1 1 1 1 1 1 1 
1 1 1 1 1 1 1 1 1 
1 1 1 1 1 1 1 1 1 
1 1 1 1 1 1 1 1 1 
1 1 1 1 1 1 1 1 1 
1 1 1 1 1 1 1 1 1 
1 1 1 1 1 1 1 1 1 
1 1 1 1 1 1 1 1 1 
1 1 1 1 1 1 1 1 1 
1 1 1 1 1 1 1 1 1 
1 1 1 1 1 1 1 1 1 
1 
v 3 100 double
-0.11852031906 -0.062218322161 -0.020324842894 -0.10314234627 -0.061647171467 -0.093989770415 -0.10200020566 -0.064741866879 -0.16521416734 
-0.17820351536 -0.080271342561 -0.066351063565 -0.17178760448 -0.073828064419 0.032969939241 -0.16709574039 -0.080296978297 -0.12874482464 
-0.14958280489 -0.079427497448 -0.20804589863 -0.1921051655 -0.081301614014 -0.010530475368 -0.096476222884 -0.066361181265 -0.2299163111 
-0.050905252252 -0.045546936448 -0.047427983656 -0.21927154416 -0.093183861978 -0.10829682142 -0.18593476542 -0.087711944947 -0.17925095422 
-0.052988699048 -0.04766265767 -0.080170812549 -0.23328416816 -0.09509253706 -0.070269383999 -0.061588973756 -0.052069239639 -0.1246389551 
-0.20898270818 -0.09251031127 -0.15147532852 -0.20765372078 -0.085446929409 -0.010829280937 -0.082785581632 -0.061539529748 -0.20509539482 
-0.044825810911 -0.042774103448 -0.023164945905 -0.13064377743 -0.076682320773 -0.25597437451 -0.062623362465 -0.049131281822 -0.057299785415 
-0.25387358729 -0.10198793932 -0.10013805401 -0.15914319194 -0.071616863299 0.0089026076186 -0.16811370512 -0.070257981268 0.087339021861 
-0.12645192875 -0.060836600962 0.052804879382 -0.078828379685 -0.052999242138 -0.048129619188 -0.14824288312 -0.066815931774 0.048827906387 
-0.18339047834 -0.074981458656 0.073408587878 -0.24878440703 -0.10209033096 -0.13062454083 -0.16418959006 -0.077845186763 -0.093539471601 
-0.24024547759 -0.10089714831 -0.15316688752 -0.20266780198 -0.081914682084 0.035440460897 -0.067450653798 -0.05463779219 -0.14583298058 
-0.2262727948 -0.091622763969 -0.036588341414 -0.092046084149 -0.067221170855 -0.27261183691 -0.14200377119 -0.066017070144 0.030827795386 
-0.22185229042 -0.097513460869 -0.18467267646 -0.22786012391 -0.092042053119 -0.036537103068 -0.18588510425 -0.090046934359 -0.22846834248 
-0.034100890375 -0.043100043221 -0.089720988744 -0.14311853413 -0.075836689434 -0.16878131348 -0.20683742785 -0.087181085663 -0.051722527296 
-0.18728716141 -0.080308557392 -0.016546507436 -0.16122821169 -0.074250141761 -0.034679341842 -0.12987257447 -0.074528853793 -0.21513284301 
-0.1640421679 -0.08536767263 -0.25202999129 -0.10077378432 -0.054043651605 0.052188311948 -0.039796999885 -0.045572469216 -0.10982224504 
-0.24287653698 -0.10289194386 -0.18032562373 -0.063946427524 -0.05412454218 -0.15458954559 -0.1176598007 -0.06186067527 -0.068422622847 
-0.10089164148 -0.061142629589 -0.14041830641 -0.098175227494 -0.064026713777 -0.21036868257 -0.17516695338 -0.079433203931 -0.11504281105 
-0.17117939397 -0.073352454425 -0.017353665009 -0.16284156783 -0.079322511279 -0.17606588051 -0.14385214088 -0.078300849102 -0.25354842668 
-0.19000350878 -0.08053996992 -0.060498960161 -0.091277397359 -0.06547158836 -0.27379208555 -0.050758640598 -0.04549924603 -0.093478509704 
-0.21444337415 -0.091965100812 -0.15718262936 -0.18014102053 -0.086462591687 -0.22610429582 -0.052180407074 -0.047535973198 -0.12575762828 
-0.22901791882 -0.093903536585 -0.12013808502 -0.059595752732 -0.051751137951 -0.16963609007 -0.20335208082 -0.091209198247 -0.19934626491 
-0.20544832901 -0.08465443646 -0.061266358355 -0.078593106437 -0.060858355781 -0.24918642327 -0.045170273402 -0.042785644081 -0.069405928511 
-0.12413844704 -0.075498911602 -0.30015878346 -0.061759084992 -0.048907431376 -0.10330491249 -0.24852506058 -0.10058526346 -0.14995687483 
-0.15798304237 -0.071065538489 -0.040564591124 -0.16890316834 -0.070000788669 0.036090512872 -0.12705356414 -0.060649493021 0.0032538108106 
-0.078309658411 -0.05284251295 -0.094919992309 -0.14862467992 -0.066576284966 -0.0013204425899 -0.1836650411 -0.074621059085 0.021996720463 
-0.24284814928 -0.10062311163 -0.17978898634 -0.16100025477 -0.077058832003 -0.14152826673 -0.23396403782 -0.099408786822 -0.20173426143 
-0.20137060537 -0.08122619946 -0.01556820399 -0.06448487466 -0.054109290895 -0.19038752774 -0.22286463624 -0.090567303795 -0.086865465926 
-0.085890522719 -0.066201914897 -0.31559000674 -0.14168336004 -0.06563602003 -0.018631997261 -0.21520931851 -0.096031501145 -0.23225245701 
-0.2245342634 -0.091010259806 -0.086912892175 -0.17893423139 -0.088631755318 -0.27442877379 -0.033265904889 -0.043000877065 -0.1346026591 
-0.13824994628 -0.074825199382 -0.21474284727 -0.2033985901 -0.086171527399 -0.10124390609 -0.18541807014 -0.079636268396 -0.066445805476 
-0.15899722763 -0.073538276639 -0.083402894555 -0.12451838544 -0.073538842837 -0.26013427422 -0.15697231193 -0.084002296668 -0.29706013295 
-0.10186998421 -0.054005676483 0.0032417065396 -0.038432776354 -0.045388451826 -0.15450205993 -0.23593740503 -0.10130620515 -0.22847989129 
-0.061293519182 -0.053718253847 -0.19914827947 
f 3 100 double
0 0 0 0 0 0 0 0 0 
0 0 0 0 0 0 0 0 0 
0 0 0 0 0 0 0 0 0 
0 0 0 0 0 0 0 0 0 
0 0 0 0 0 0 0 0 0 
0 0 0 0 0 0 0 0 0 
0 0 0 0 0 0 0 0 0 
0 0 0 0 0 0 0 0 0 
0 0 0 0 0 0 0 0 0 
0 0 0 0 0 0 0 0 0 
0 0 0 0 0 0 0 0 0 
0 0 0 0 0 0 0 0 0 
0 0 0 0 0 0 0 0 0 
0 0 0 0 0 0 0 0 0 
0 0 0 0 0 0 0 0 0 
0 0 0 0 0 0 0 0 0 
0 0 0 0 0 0 0 0 0 
0 0 0 0 0 0 0 0 0 
0 0 0 0 0 0 0 0 0 
0 0 0 0 0 0 0 0 0 
0 0 0 0 0 0 0 0 0 
0 0 0 0 0 0 0 0 0 
0 0 0 0 0 0 0 0 0 
0 0 0 0 0 0 0 0 0 
0 0 0 0 0 0 0 0 0 
0 0 0 0 0 0 0 0 0 
0 0 0 0 0 0 0 0 0 
0 0 0 0 0 0 0 0 0 
0 0 0 0 0 0 0 0 0 
0 0 0 0 0 0 0 0 0 
0 0 0 0 0 0 0 0 0 
0 0 0 0 0 0 0 0 0 
0 0 0 0 0 0 0 0 0 
0 0 0 
radius 1 100 double
0.010434 0.00981478 0.00892069 0.00845937 0.00731974 0.00728422 0.00643447 0.00619172 0.00585956 
0.00577566 0.00537241 0.00522549 0.00513666 0.00473175 0.00466912 0.00444866 0.00441894 0.00400812 
0.00385622 0.00379948 0.00370243 0.00366942 0.00364039 0.00363813 0.00363644 0.00358692 0.0035797 
0.00341284 0.00337012 0.00336273 0.00332772 0.00323261 0.00320584 0.00320311 0.00318808 0.00313116 
0.00306026 0.00305632 0.00304383 0.00300958 0.00300137 0.00298994 0.0029567 0.00295111 0.00290849 
0.00284552 0.00282964 0.0028207 0.00281971 0.00281899 0.010434 0.00981478 0.00892069 0.00845937 
0.00731974 0.00728422 0.00643447 0.00619172 0.00585956 0.00577566 0.00537241 0.00522549 0.00513666 
0.00473175 0.00466912 0.00444866 0.00441894 0.00400812 0.00385622 0.00379948 0.00370243 0.00366942 
0.00364039 0.00363813 0.00363644 0.00358692 0.0035797 0.00341284 0.00337012 0.00336273 0.00332772 
0.00323261 0.00320584 0.00320311 0.00318808 0.00313116 0.00306026 0.00305632 0.00304383 0.00300958 
0.00300137 0.00298994 0.0029567 0.00295111 0.00290849 0.00284552 0.00282964 0.0028207 0.00281971 
0.00281899 
omega 3 100 double
1.8745918782 -7.0556227171 0.33662693942 1.8745918782 -7.0556227171 0.33662693942 1.8745918782 -7.0556227171 0.33662693942 
1.8745918782 -7.0556227171 0.33662693942 1.8745918782 -7.0556227171 0.33662693942 1.8745918782 -7.0556227171 0.33662693942 
1.8745918782 -7.0556227171 0.33662693942 1.8745918782 -7.0556227171 0.33662693942 1.8745918782 -7.0556227171 0.33662693942 
1.8745918782 -7.0556227171 0.33662693942 1.8745918782 -7.0556227171 0.33662693942 1.8745918782 -7.0556227171 0.33662693942 
1.8745918782 -7.0556227171 0.33662693942 1.8745918782 -7.0556227171 0.33662693942 1.8745918782 -7.0556227171 0.33662693942 
1.8745918782 -7.0556227171 0.33662693942 1.8745918782 -7.0556227171 0.33662693942 1.8745918782 -7.0556227171 0.33662693942 
1.8745918782 -7.0556227171 0.33662693942 1.8745918782 -7.0556227171 0.33662693942 1.8745918782 -7.0556227171 0.33662693942 
1.8745918782 -7.0556227171 0.33662693942 1.8745918782 -7.0556227171 0.33662693942 1.8745918782 -7.0556227171 0.33662693942 
1.8745918782 -7.0556227171 0.33662693942 1.8745918782 -7.0556227171 0.33662693942 1.8745918782 -7.0556227171 0.33662693942 
1.8745918782 -7.0556227171 0.33662693942 1.8745918782 -7.0556227171 0.33662693942 1.8745918782 -7.0556227171 0.33662693942 
1.8745918782 -7.0556227171 0.33662693942 1.8745918782 -7.0556227171 0.33662693942 1.8745918782 -7.0556227171 0.33662693942 
1.8745918782 -7.0556227171 0.33662693942 1.8745918782 -7.0556227171 0.33662693942 1.8745918782 -7.0556227171 0.33662693942 
1.8745918782 -7.0556227171 0.33662693942 1.8745918782 -7.0556227171 0.33662693942 1.8745918782 -7.0556227171 0.33662693942 
1.8745918782 -7.0556227171 0.33662693942 1.8745918782 -7.0556227171 0.33662693942 1.8745918782 -7.0556227171 0.33662693942 
1.8745918782 -7.0556227171 0.33662693942 1.8745918782 -7.0556227171 0.33662693942 1.8745918782 -7.0556227171 0.33662693942 
1.8745918782 -7.0556227171 0.33662693942 1.8745918782 -7.0556227171 0.33662693942 1.8745918782 -7.0556227171 0.33662693942 
1.8745918782 -7.0556227171 0.33662693942 1.8745918782 -7.0556227171 0.33662693942 1.8287811575 -6.9313981453 0.35680240595 
1.8287811575 -6.9313981453 0.35680240595 1.8287811575 -6.9313981453 0.35680240595 1.8287811575 -6.9313981453 0.35680240595 
1.8287811575 -6.9313981453 0.35680240595 1.8287811575 -6.9313981453 0.35680240595 1.8287811575 -6.9313981453 0.35680240595 
1.8287811575 -6.9313981453 0.35680240595 1.8287811575 -6.9313981453 0.35680240595 1.8287811575 -6.9313981453 0.35680240595 
1.8287811575 -6.9313981453 0.35680240595 1.8287811575 -6.9313981453 0.35680240595 1.8287811575 -6.9313981453 0.35680240595 
1.8287811575 -6.9313981453 0.35680240595 1.8287811575 -6.9313981453 0.35680240595 1.8287811575 -6.9313981453 0.35680240595 
1.8287811575 -6.9313981453 0.35680240595 1.8287811575 -6.9313981453 0.35680240595 1.8287811575 -6.9313981453 0.35680240595 
1.8287811575 -6.9313981453 0.35680240595 1.8287811575 -6.9313981453 0.35680240595 1.8287811575 -6.9313981453 0.35680240595 
1.8287811575 -6.9313981453 0.35680240595 1.8287811575 -6.9313981453 0.35680240595 1.8287811575 -6.9313981453 0.35680240595 
1.8287811575 -6.9313981453 0.35680240595 1.8287811575 -6.9313981453 0.35680240595 1.8287811575 -6.9313981453 0.35680240595 
1.8287811575 -6.9313981453 0.35680240595 1.8287811575 -6.9313981453 0.35680240595 1.8287811575 -6.9313981453 0.35680240595 
1.8287811575 -6.9313981453 0.35680240595 1.8287811575 -6.9313981453 0.35680240595 1.8287811575 -6.9313981453 0.35680240595 
1.8287811575 -6.9313981453 0.35680240595 1.8287811575 -6.9313981453 0.35680240595 1.8287811575 -6.9313981453 0.35680240595 
1.8287811575 -6.9313981453 0.35680240595 1.8287811575 -6.9313981453 0.35680240595 1.8287811575 -6.9313981453 0.35680240595 
1.8287811575 -6.9313981453 0.35680240595 1.8287811575 -6.9313981453 0.35680240595 1.8287811575 -6.9313981453 0.35680240595 
1.8287811575 -6.9313981453 0.35680240595 1.8287811575 -6.9313981453 0.35680240595 1.8287811575 -6.9313981453 0.35680240595 
1.8287811575 -6.9313981453 0.35680240595 1.8287811575 -6.9313981453 0.35680240595 1.8287811575 -6.9313981453 0.35680240595 
1.8287811575 -6.9313981453 0.35680240595 
