# vtk DataFile Version 4.1
Generated by LIGGGHTS
ASCII
DATASET POLYDATA
POINTS 100 float
-0.119739 -0.13669 0.0185697 -0.128645 -0.136727 0.013091 -0.138055 -0.136518 0.00963437 
-0.128172 -0.139999 0.0241314 -0.115373 -0.137367 0.0280856 -0.135764 -0.140244 0.0197312 
-0.145327 -0.140178 0.0137132 -0.12091 -0.142441 0.0284143 -0.14619 -0.136997 0.00585278 
-0.1209 -0.132017 0.00863877 -0.134829 -0.144243 0.0273462 -0.142831 -0.142657 0.0197174 
-0.126221 -0.12859 0.00762231 -0.130155 -0.145788 0.0308754 -0.132272 -0.129718 0.00661643 
-0.139903 -0.144566 0.0239449 -0.12316 -0.137081 0.0308301 -0.143859 -0.130443 0.00563472 
-0.116092 -0.136975 0.00862522 -0.150443 -0.140981 0.00890855 -0.120499 -0.141101 0.00911964 
-0.134777 -0.147462 0.032106 -0.11604 -0.144517 0.0247988 -0.108881 -0.13389 0.0303669 
-0.110144 -0.138055 0.0229389 -0.123509 -0.128046 0.012586 -0.113812 -0.130372 0.0261704 
-0.112045 -0.13193 0.0318807 -0.138609 -0.147176 0.0300285 -0.132734 -0.133315 0.0214556 
-0.141239 -0.14676 0.0278716 -0.115034 -0.143856 0.031864 -0.13224 -0.141969 0.00557668 
-0.125162 -0.146425 0.03147 -0.151008 -0.139293 0.00311875 -0.11262 -0.142973 0.0236477 
-0.144639 -0.145902 0.0240175 -0.126108 -0.14305 0.0319123 -0.148923 -0.144266 0.0173082 
-0.125358 -0.132924 0.00437337 -0.138732 -0.144292 0.0144047 -0.125902 -0.147281 0.0281241 
-0.123715 -0.133615 0.0280924 -0.121474 -0.146229 0.0229289 -0.146756 -0.134155 0.0111723 
-0.151121 -0.143278 0.0133746 -0.109353 -0.136095 0.0196309 -0.128491 -0.132262 0.00423852 
-0.144957 -0.146811 0.0269522 -0.136792 -0.12803 0.00564851 -0.0508641 -0.108906 0.0187364 
-0.0597715 -0.108927 0.0132596 -0.0691877 -0.108838 0.00981567 -0.0591719 -0.112822 0.0240899 
-0.0464644 -0.109989 0.0281991 -0.0667565 -0.113068 0.0196784 -0.0763253 -0.112976 0.013669 
-0.0518239 -0.11526 0.0282269 -0.0773076 -0.109372 0.00600773 -0.0521981 -0.103702 0.00909539 
-0.0656748 -0.117471 0.0270469 -0.0737373 -0.115716 0.0195192 -0.0576349 -0.100406 0.00827809 
-0.0609457 -0.119059 0.0304824 -0.0636446 -0.101679 0.00720433 -0.0707401 -0.117768 0.0236295 
-0.0542523 -0.11013 0.0309509 -0.0752017 -0.102742 0.00617499 -0.0472237 -0.108484 0.00879451 
-0.0814173 -0.113672 0.00882256 -0.0514861 -0.11278 0.00904397 -0.0655065 -0.120959 0.0316102 
-0.0468915 -0.116953 0.024499 -0.0400918 -0.106432 0.0306837 -0.0412225 -0.110195 0.023024 
-0.0549362 -0.100061 0.0132667 -0.045146 -0.102845 0.0266975 -0.0433189 -0.104673 0.0323078 
-0.0693487 -0.120683 0.0295508 -0.0639627 -0.106152 0.0218073 -0.0719941 -0.120232 0.0274203 
-0.0458982 -0.116673 0.0315914 -0.0631959 -0.11384 0.00544934 -0.0559336 -0.119559 0.0310417 
-0.0820478 -0.111668 0.00314114 -0.0435273 -0.115228 0.0234423 -0.0754271 -0.119267 0.023621 
-0.056993 -0.11625 0.0316801 -0.0797736 -0.117388 0.0170164 -0.0566287 -0.10451 0.00478155 
-0.0695924 -0.116897 0.0141224 -0.0566481 -0.120242 0.027651 -0.0549292 -0.106532 0.0284204 
-0.0522666 -0.118738 0.0225288 -0.077962 -0.106868 0.0114841 -0.0820099 -0.116248 0.0131461 
-0.0405036 -0.108019 0.0198368 -0.0597828 -0.103949 0.00468385 -0.0757102 -0.120357 0.0264973 
-0.068221 -0.100093 0.00633418 
VERTICES 100 200
1 0 
1 1 
1 2 
1 3 
1 4 
1 5 
1 6 
1 7 
1 8 
1 9 
1 10 
1 11 
1 12 
1 13 
1 14 
1 15 
1 16 
1 17 
1 18 
1 19 
1 20 
1 21 
1 22 
1 23 
1 24 
1 25 
1 26 
1 27 
1 28 
1 29 
1 30 
1 31 
1 32 
1 33 
1 34 
1 35 
1 36 
1 37 
1 38 
1 39 
1 40 
1 41 
1 42 
1 43 
1 44 
1 45 
1 46 
1 47 
1 48 
1 49 
1 50 
1 51 
1 52 
1 53 
1 54 
1 55 
1 56 
1 57 
1 58 
1 59 
1 60 
1 61 
1 62 
1 63 
1 64 
1 65 
1 66 
1 67 
1 68 
1 69 
1 70 
1 71 
1 72 
1 73 
1 74 
1 75 
1 76 
1 77 
1 78 
1 79 
1 80 
1 81 
1 82 
1 83 
1 84 
1 85 
1 86 
1 87 
1 88 
1 89 
1 90 
1 91 
1 92 
1 93 
1 94 
1 95 
1 96 
1 97 
1 98 
1 99 

POINT_DATA 100
FIELD FieldData 7
id 1 100 int
1 2 3 4 5 6 7 8 9 
10 11 12 13 14 15 16 17 18 
19 20 21 22 23 24 25 26 27 
28 29 30 31 32 33 34 35 36 
37 38 39 40 41 42 43 44 45 
46 47 48 49 50 51 52 53 54 
55 56 57 58 59 60 61 62 63 
64 65 66 67 68 69 70 71 72 
73 74 75 76 77 78 79 80 81 
82 83 84 85 86 87 88 89 90 
91 92 93 94 95 96 97 98 99 
100 
mol 1 100 int
1 1 1 1 1 1 1 1 1 
1 1 1 1 1 1 1 1 1 
1 1 1 1 1 1 1 1 1 
1 1 1 1 1 1 1 1 1 
1 1 1 1 1 1 1 1 1 
1 1 1 1 1 2 2 2 2 
2 2 2 2 2 2 2 2 2 
2 2 2 2 2 2 2 2 2 
2 2 2 2 2 2 2 2 2 
2 2 2 2 2 2 2 2 2 
2 2 2 2 2 2 2 2 2 
2 
type 1 100 int
1 1 1 1 1 1 1 1 1 
1 1 1 1 1 1 1 1 1 
1 1 1 1 1 1 1 1 1 
1 1 1 1 1 1 1 1 1 
1 1 1 1 1 1 1 1 1 
1 1 1 1 1 1 1 1 1 
1 1 1 1 1 1 1 1 1 
1 1 1 1 1 1 1 1 1 
1 1 1 1 1 1 1 1 1 
1 1 1 1 1 1 1 1 1 
1 1 1 1 1 1 1 1 1 
1 
v 3 100 double
-0.045942797349 -0.14073380042 0.037428700419 -0.041485989931 -0.099958932127 0.029908052694 -0.038511583066 -0.071584641106 0.0235286978 
-0.052805784082 -0.16991421988 0.0096607899615 -0.054201592766 -0.20379605637 0.036733907017 -0.049376825139 -0.1368600095 0.0019040942868 
-0.044406128525 -0.092224687631 -0.0054989915876 -0.05801611466 -0.20199924515 0.00020741134161 -0.035751974087 -0.04205098966 0.013853589651 
-0.034551331675 -0.077294404173 0.065951587881 -0.058401505057 -0.1855361786 -0.022545477651 -0.051051760154 -0.13183391033 -0.019095344216 
-0.031324817205 -0.067165430627 0.083209031255 -0.062369134421 -0.21105947045 -0.028467070463 -0.031290195556 -0.056593756063 0.071144071997 
-0.055844585377 -0.16054043135 -0.028736672574 -0.056247171759 -0.21566194395 0.032166980801 -0.030993735121 -0.042305102519 0.057090117644 
-0.038005119376 -0.080568736084 0.038617737312 -0.041036387707 -0.058349967691 -0.014750738146 -0.041293347214 -0.080607270645 0.0089894280272 
-0.064545667373 -0.21558981942 -0.042804242874 -0.056509149562 -0.18260194055 -0.0089040244514 -0.05363830522 -0.22271910386 0.063972327398 
-0.050471177482 -0.17499274027 0.036674571821 -0.035005873741 -0.10036344395 0.088859128629 -0.047746175319 -0.19280880246 0.082124539801 
-0.053507320978 -0.23005476481 0.073742990102 -0.06264579694 -0.19981062848 -0.044133933681 -0.045945178495 -0.1498523623 0.048083288058 
-0.060590350898 -0.18437044563 -0.04366277551 -0.061828104103 -0.22786111195 -0.0039132592408 -0.039000795333 -0.050058723855 -0.0060887148994 
-0.063300546276 -0.21829835836 -0.02839692058 -0.035119582458 -0.021442382582 -0.0045683202189 -0.054488252205 -0.17773303408 0.0036322852315 
-0.056837669733 -0.15768857047 -0.041037382546 -0.061304308924 -0.2204265204 -0.007890929924 -0.050204406654 -0.11238373391 -0.034221109615 
-0.031695470999 -0.04727962003 0.056581754961 -0.047847559933 -0.10119491343 -0.026052545215 -0.061161067637 -0.19668068222 -0.034400092514 
-0.051585370196 -0.19800900731 0.053567546595 -0.056175638251 -0.16701171466 -0.024147516454 -0.038118668213 -0.075202759326 0.031310534017 
-0.046296149882 -0.086040866849 -0.029794867672 -0.046394911374 -0.15468403166 0.049681787919 -0.031122268505 -0.044239631176 0.058195174054 
-0.059873947229 -0.17597342501 -0.047029138991 -0.029318803741 -0.04733097912 0.078089262765 -0.051500115555 -0.12471062379 0.0098087831366 
-0.053970967373 -0.088615654994 0.013689618915 -0.055590212656 -0.068357011347 0.01864201506 -0.046568641671 -0.1708713574 -0.016297129844 
-0.046515793891 -0.19410119998 -0.00044750881788 -0.048411977661 -0.14205944454 -0.01473841883 -0.051196552504 -0.10232286316 -0.0096969970864 
-0.043133420453 -0.19774006043 -0.038232737041 -0.056975759495 -0.044492477966 0.018247160271 -0.059200508357 -0.051998634297 0.05012355602 
-0.042254834846 -0.19759195657 -0.048823254786 -0.046791026405 -0.14530772087 -0.03177912063 -0.061678906679 -0.049238344817 0.077743627275 
-0.03968086004 -0.22078285095 -0.063089558479 -0.061351688571 -0.044887512797 0.070751772805 -0.043614951073 -0.1747547921 -0.048792746936 
-0.045177159284 -0.22007812067 0.0020058440054 -0.061139420615 -0.044422355509 0.067888464863 -0.056279894556 -0.046522414571 0.011382518502 
-0.052950323508 -0.068598278064 -0.012692474118 -0.053419718346 -0.051151039893 -0.019468381852 -0.037954567731 -0.23230436902 -0.075518026496 
-0.043741447634 -0.16614140948 -0.053393812875 -0.04766323195 -0.20898569134 0.023806296851 -0.048731281658 -0.15126185492 -0.0043990796692 
-0.059636768587 -0.085578075609 0.079152904433 -0.051764737178 -0.18180043868 0.053469069774 -0.048050920538 -0.22344128169 0.038688619495 
-0.039065285673 -0.2190464574 -0.071667985313 -0.051868322398 -0.15651717422 0.036768179772 -0.040320138503 -0.20448171138 -0.067024900983 
-0.04070362157 -0.21962372216 -0.051705790395 -0.054372647409 -0.031209397759 -0.022243215251 -0.03910797348 -0.22184598804 -0.069172412082 
-0.056808326308 -0.025650005553 0.0028812090155 -0.045323568432 -0.15592715088 -0.041758523511 -0.042660311623 -0.1776860401 -0.058106290877 
-0.04093360253 -0.22739452563 -0.043448122099 -0.046857401479 -0.13006987101 -0.041797409333 -0.060640545922 -0.021915080356 0.045966956249 
-0.048484373876 -0.10147814467 -0.042664670687 -0.040208984855 -0.19643005714 -0.074063677932 -0.048625858755 -0.20120201485 0.029772627111 
-0.043494123068 -0.15454466669 -0.064572767098 -0.056092911422 -0.086697544424 0.037653081299 -0.049341709488 -0.10196736533 -0.032085756079 
-0.051568201015 -0.12648316807 0.011878871774 -0.061043915586 -0.023186145765 0.051682708839 -0.040659186755 -0.19981422245 -0.066289876472 
-0.062760360795 -0.041173817554 0.084928848883 
f 3 100 double
0 0 0 0 0 0 0 0 0 
0 0 0 0 0 0 0 0 0 
0 0 0 0 0 0 0.042318739645 0.0070228951857 -0.085795029738 
0 0 0 0 0 0 0 0 0 
0 0 0 0 0 0 0 0 0 
0 0 0 0 0 0 0 0 0 
0 0 0 0 0 0 0 0 0 
0 0 0 0 0 0 0 0 0 
0 0 0 0 0 0 0 0 0 
0 0 0 0 0 0 0 0 0 
0 0 0 0 0 0 0 0 0 
0 0 0 0.16068438238 0.0069589693051 0.32167000479 0 0 0 
0 0 0 0 0 0 0 0 0 
0 0 0 0 0 0 0 0 0 
0 0 0 0 0 0 0 0 0 
0 0 0 0 0 0 0 0 0 
0 0 0 0 0 0 0 0 0 
0 0 0 0 0 0 0 0 0 
0 0 0 0 0 0 0 0 0 
0 0 0 0 0 0 0 0 0 
0 0 0 0 0 0 0 0 0 
0 0 0 0 0 0 0 0 0 
0 0 0 0 0 0 0 0 0 
0 0 0 0 0 0 0 0 0 
0 0 0 0 0 0 0 0 0 
0 0 0 0 0 0 0 0 0 
0 0 0 0 0 0 0 0 0 
0 0 0 0 0 0 0 0 0 
0.061736392435 0.0016664941722 0.12351776154 0 0 0 0 0 0 
0 0 0 0 0 0 0 0 0 
0 0 0 0 0 0 0 0 0 
0 0 0 0 0 0 0 0 0 
0 0 0 0 0 0 0 0 0 
0 0 0 
radius 1 100 double
0.010434 0.00981478 0.00892069 0.00845937 0.00731974 0.00728422 0.00643447 0.00619172 0.00585956 
0.00577566 0.00537241 0.00522549 0.00513666 0.00473175 0.00466912 0.00444866 0.00441894 0.00400812 
0.00385622 0.00379948 0.00370243 0.00366942 0.00364039 0.00363813 0.00363644 0.00358692 0.0035797 
0.00341284 0.00337012 0.00336273 0.00332772 0.00323261 0.00320584 0.00320311 0.00318808 0.00313116 
0.00306026 0.00305632 0.00304383 0.00300958 0.00300137 0.00298994 0.0029567 0.00295111 0.00290849 
0.00284552 0.00282964 0.0028207 0.00281971 0.00281899 0.010434 0.00981478 0.00892069 0.00845937 
0.00731974 0.00728422 0.00643447 0.00619172 0.00585956 0.00577566 0.00537241 0.00522549 0.00513666 
0.00473175 0.00466912 0.00444866 0.00441894 0.00400812 0.00385622 0.00379948 0.00370243 0.00366942 
0.00364039 0.00363813 0.00363644 0.00358692 0.0035797 0.00341284 0.00337012 0.00336273 0.00332772 
0.00323261 0.00320584 0.00320311 0.00318808 0.00313116 0.00306026 0.00305632 0.00304383 0.00300958 
0.00300137 0.00298994 0.0029567 0.00295111 0.00290849 0.00284552 0.00282964 0.0028207 0.00281971 
0.00281899 
omega 3 100 double
6.3063803739 -0.81820034688 -0.69883456103 6.3063803739 -0.81820034688 -0.69883456103 6.3063803739 -0.81820034688 -0.69883456103 
6.3063803739 -0.81820034688 -0.69883456103 6.3063803739 -0.81820034688 -0.69883456103 6.3063803739 -0.81820034688 -0.69883456103 
6.3063803739 -0.81820034688 -0.69883456103 6.3063803739 -0.81820034688 -0.69883456103 6.3063803739 -0.81820034688 -0.69883456103 
6.3063803739 -0.81820034688 -0.69883456103 6.3063803739 -0.81820034688 -0.69883456103 6.3063803739 -0.81820034688 -0.69883456103 
6.3063803739 -0.81820034688 -0.69883456103 6.3063803739 -0.81820034688 -0.69883456103 6.3063803739 -0.81820034688 -0.69883456103 
6.3063803739 -0.81820034688 -0.69883456103 6.3063803739 -0.81820034688 -0.69883456103 6.3063803739 -0.81820034688 -0.69883456103 
6.3063803739 -0.81820034688 -0.69883456103 6.3063803739 -0.81820034688 -0.69883456103 6.3063803739 -0.81820034688 -0.69883456103 
6.3063803739 -0.81820034688 -0.69883456103 6.3063803739 -0.81820034688 -0.69883456103 6.3063803739 -0.81820034688 -0.69883456103 
6.3063803739 -0.81820034688 -0.69883456103 6.3063803739 -0.81820034688 -0.69883456103 6.3063803739 -0.81820034688 -0.69883456103 
6.3063803739 -0.81820034688 -0.69883456103 6.3063803739 -0.81820034688 -0.69883456103 6.3063803739 -0.81820034688 -0.69883456103 
6.3063803739 -0.81820034688 -0.69883456103 6.3063803739 -0.81820034688 -0.69883456103 6.3063803739 -0.81820034688 -0.69883456103 
6.3063803739 -0.81820034688 -0.69883456103 6.3063803739 -0.81820034688 -0.69883456103 6.3063803739 -0.81820034688 -0.69883456103 
6.3063803739 -0.81820034688 -0.69883456103 6.3063803739 -0.81820034688 -0.69883456103 6.3063803739 -0.81820034688 -0.69883456103 
6.3063803739 -0.81820034688 -0.69883456103 6.3063803739 -0.81820034688 -0.69883456103 6.3063803739 -0.81820034688 -0.69883456103 
6.3063803739 -0.81820034688 -0.69883456103 6.3063803739 -0.81820034688 -0.69883456103 6.3063803739 -0.81820034688 -0.69883456103 
6.3063803739 -0.81820034688 -0.69883456103 6.3063803739 -0.81820034688 -0.69883456103 6.3063803739 -0.81820034688 -0.69883456103 
6.3063803739 -0.81820034688 -0.69883456103 6.3063803739 -0.81820034688 -0.69883456103 7.6303895004 0.45359007538 0.63935767808 
7.6303895004 0.45359007538 0.63935767808 7.6303895004 0.45359007538 0.63935767808 7.6303895004 0.45359007538 0.63935767808 
7.6303895004 0.45359007538 0.63935767808 7.6303895004 0.45359007538 0.63935767808 7.6303895004 0.45359007538 0.63935767808 
7.6303895004 0.45359007538 0.63935767808 7.6303895004 0.45359007538 0.63935767808 7.6303895004 0.45359007538 0.63935767808 
7.6303895004 0.45359007538 0.63935767808 7.6303895004 0.45359007538 0.63935767808 7.6303895004 0.45359007538 0.63935767808 
7.6303895004 0.45359007538 0.63935767808 7.6303895004 0.45359007538 0.63935767808 7.6303895004 0.45359007538 0.63935767808 
7.6303895004 0.45359007538 0.63935767808 7.6303895004 0.45359007538 0.63935767808 7.6303895004 0.45359007538 0.63935767808 
7.6303895004 0.45359007538 0.63935767808 7.6303895004 0.45359007538 0.63935767808 7.6303895004 0.45359007538 0.63935767808 
7.6303895004 0.45359007538 0.63935767808 7.6303895004 0.45359007538 0.63935767808 7.6303895004 0.45359007538 0.63935767808 
7.6303895004 0.45359007538 0.63935767808 7.6303895004 0.45359007538 0.63935767808 7.6303895004 0.45359007538 0.63935767808 
7.6303895004 0.45359007538 0.63935767808 7.6303895004 0.45359007538 0.63935767808 7.6303895004 0.45359007538 0.63935767808 
7.6303895004 0.45359007538 0.63935767808 7.6303895004 0.45359007538 0.63935767808 7.6303895004 0.45359007538 0.63935767808 
7.6303895004 0.45359007538 0.63935767808 7.6303895004 0.45359007538 0.63935767808 7.6303895004 0.45359007538 0.63935767808 
7.6303895004 0.45359007538 0.63935767808 7.6303895004 0.45359007538 0.63935767808 7.6303895004 0.45359007538 0.63935767808 
7.6303895004 0.45359007538 0.63935767808 7.6303895004 0.45359007538 0.63935767808 7.6303895004 0.45359007538 0.63935767808 
7.6303895004 0.45359007538 0.63935767808 7.6303895004 0.45359007538 0.63935767808 7.6303895004 0.45359007538 0.63935767808 
7.6303895004 0.45359007538 0.63935767808 7.6303895004 0.45359007538 0.63935767808 7.6303895004 0.45359007538 0.63935767808 
7.6303895004 0.45359007538 0.63935767808 
