# vtk DataFile Version 4.1
Generated by LIGGGHTS
ASCII
DATASET POLYDATA
POINTS 100 float
-0.11712 -0.146298 0.0132893 -0.127 -0.143442 0.0114001 -0.136812 -0.141383 0.0114513 
-0.124309 -0.151826 0.0188354 -0.110674 -0.151731 0.0195353 -0.132697 -0.149713 0.0173466 
-0.143323 -0.146487 0.0152571 -0.1167 -0.156198 0.0190471 -0.145603 -0.139774 0.0105257 
-0.119961 -0.137249 0.0076444 -0.130543 -0.15701 0.0214644 -0.139836 -0.151685 0.0182984 
-0.124737 -0.133696 0.0100238 -0.125448 -0.16019 0.0222523 -0.130946 -0.134075 0.0104625 
-0.136292 -0.155504 0.0200128 -0.117369 -0.152746 0.024268 -0.142368 -0.134034 0.012767 
-0.116183 -0.1416 0.00383777 -0.149541 -0.144689 0.0124285 -0.120935 -0.145349 0.0035999 
-0.129822 -0.162186 0.023855 -0.113299 -0.156249 0.0136134 -0.103342 -0.149969 0.0211373 
-0.107089 -0.149817 0.0133882 -0.120815 -0.135761 0.0135788 -0.108529 -0.144745 0.0208128 
-0.105662 -0.148988 0.0242674 -0.133953 -0.160837 0.0234173 -0.128246 -0.144635 0.021165 
-0.136936 -0.159353 0.0226164 -0.110457 -0.159244 0.0194719 -0.133169 -0.144142 0.00376387 
-0.120638 -0.161114 0.0209498 -0.15126 -0.140312 0.00861075 -0.110073 -0.154387 0.012374 
-0.141009 -0.156624 0.0208519 -0.120881 -0.158405 0.0232036 -0.146515 -0.151773 0.01736 
-0.125434 -0.135823 0.00501596 -0.137525 -0.15049 0.011901 -0.122323 -0.160161 0.0179955 
-0.118022 -0.148366 0.0238178 -0.119232 -0.156708 0.0128753 -0.144345 -0.139983 0.0164472 
-0.14944 -0.14891 0.0152324 -0.106847 -0.146472 0.0113479 -0.12835 -0.135135 0.00615558 
-0.140724 -0.15888 0.0229424 -0.135228 -0.132062 0.0118152 -0.0480987 -0.117029 0.013269 
-0.0581765 -0.114878 0.0114948 -0.0681272 -0.113651 0.0115999 -0.0548187 -0.123522 0.0183381 
-0.041243 -0.122342 0.0191721 -0.0633494 -0.122012 0.0169246 -0.0742007 -0.11954 0.01497 
-0.0468715 -0.127249 0.0183094 -0.0770183 -0.112717 0.0107083 -0.0516681 -0.107866 0.00825734 
-0.0606062 -0.129382 0.0205315 -0.0703019 -0.124635 0.0176656 -0.0567328 -0.104904 0.0108389 
-0.0552657 -0.132175 0.0211388 -0.0628902 -0.105829 0.0111906 -0.0664558 -0.128259 0.0191367 
-0.0478453 -0.124248 0.0237568 -0.0742825 -0.106905 0.0133839 -0.0475258 -0.111603 0.00418593 
-0.0805379 -0.118068 0.0122181 -0.051946 -0.115708 0.0036362 -0.0594627 -0.134638 0.0225534 
-0.0434593 -0.126626 0.0129185 -0.034089 -0.120096 0.0209651 -0.0378092 -0.119699 0.0132115 
-0.0526636 -0.106885 0.0142744 -0.0396939 -0.115312 0.0209651 -0.0364943 -0.119539 0.0241351 
-0.0636909 -0.133609 0.022174 -0.0593526 -0.116869 0.0211375 -0.0667851 -0.132326 0.0214528 
-0.0403971 -0.129787 0.018575 -0.064239 -0.115538 0.00377002 -0.050391 -0.132599 0.0198193 
-0.0826036 -0.113586 0.00870632 -0.0403962 -0.124417 0.0118456 -0.0710661 -0.129825 0.019849 
-0.0508672 -0.130089 0.0222581 -0.0769467 -0.125211 0.0166602 -0.0572317 -0.106715 0.00568566 
-0.0680764 -0.122795 0.0113919 -0.0521396 -0.13158 0.0169246 -0.0488616 -0.119917 0.0236141 
-0.0493306 -0.127522 0.0120933 -0.0757675 -0.113246 0.0166114 -0.0800937 -0.122456 0.0147146 
-0.0378403 -0.116208 0.0114175 -0.0601989 -0.106357 0.00684376 -0.0706002 -0.132194 0.0217758 
-0.06733 -0.104281 0.0126428 
VERTICES 100 200
1 0 
1 1 
1 2 
1 3 
1 4 
1 5 
1 6 
1 7 
1 8 
1 9 
1 10 
1 11 
1 12 
1 13 
1 14 
1 15 
1 16 
1 17 
1 18 
1 19 
1 20 
1 21 
1 22 
1 23 
1 24 
1 25 
1 26 
1 27 
1 28 
1 29 
1 30 
1 31 
1 32 
1 33 
1 34 
1 35 
1 36 
1 37 
1 38 
1 39 
1 40 
1 41 
1 42 
1 43 
1 44 
1 45 
1 46 
1 47 
1 48 
1 49 
1 50 
1 51 
1 52 
1 53 
1 54 
1 55 
1 56 
1 57 
1 58 
1 59 
1 60 
1 61 
1 62 
1 63 
1 64 
1 65 
1 66 
1 67 
1 68 
1 69 
1 70 
1 71 
1 72 
1 73 
1 74 
1 75 
1 76 
1 77 
1 78 
1 79 
1 80 
1 81 
1 82 
1 83 
1 84 
1 85 
1 86 
1 87 
1 88 
1 89 
1 90 
1 91 
1 92 
1 93 
1 94 
1 95 
1 96 
1 97 
1 98 
1 99 

POINT_DATA 100
FIELD FieldData 7
id 1 100 int
1 2 3 4 5 6 7 8 9 
10 11 12 13 14 15 16 17 18 
19 20 21 22 23 24 25 26 27 
28 29 30 31 32 33 34 35 36 
37 38 39 40 41 42 43 44 45 
46 47 48 49 50 51 52 53 54 
55 56 57 58 59 60 61 62 63 
64 65 66 67 68 69 70 71 72 
73 74 75 76 77 78 79 80 81 
82 83 84 85 86 87 88 89 90 
91 92 93 94 95 96 97 98 99 
100 
mol 1 100 int
1 1 1 1 1 1 1 1 1 
1 1 1 1 1 1 1 1 1 
1 1 1 1 1 1 1 1 1 
1 1 1 1 1 1 1 1 1 
1 1 1 1 1 1 1 1 1 
1 1 1 1 1 2 2 2 2 
2 2 2 2 2 2 2 2 2 
2 2 2 2 2 2 2 2 2 
2 2 2 2 2 2 2 2 2 
2 2 2 2 2 2 2 2 2 
2 2 2 2 2 2 2 2 2 
2 
type 1 100 int
1 1 1 1 1 1 1 1 1 
1 1 1 1 1 1 1 1 1 
1 1 1 1 1 1 1 1 1 
1 1 1 1 1 1 1 1 1 
1 1 1 1 1 1 1 1 1 
1 1 1 1 1 1 1 1 1 
1 1 1 1 1 1 1 1 1 
1 1 1 1 1 1 1 1 1 
1 1 1 1 1 1 1 1 1 
1 1 1 1 1 1 1 1 1 
1 1 1 1 1 1 1 1 1 
1 
v 3 100 double
0.035565752215 -0.15324362695 -0.03310828521 0.033490170422 -0.12145995957 0.025782144807 0.035839015932 -0.11150608214 0.075565779372 
0.044719910672 -0.20771649365 -0.075546401816 0.046726536666 -0.23019234414 -0.1115591347 0.042937926811 -0.18202336176 -0.029029124512 
0.040715434513 -0.14719410113 0.036047541418 0.04060527477 -0.21825386729 -0.14526331557 0.035047729327 -0.091696900288 0.11751891263 
0.029918714398 -0.086900490625 0.076077047608 0.046309783069 -0.23050640534 -0.11671079144 0.043410567498 -0.18503586148 -0.031727315756 
0.040203076856 -0.10845615741 0.1289062686 0.04504146019 -0.24480756891 -0.16622388045 0.040989974755 -0.10671282617 0.14154989437 
0.043977230821 -0.20806271573 -0.08418578778 0.058511006637 -0.27607581432 -0.10473147366 0.047302138799 -0.12029888326 0.17307200458 
0.014895812792 -0.04827170646 0.017012190463 0.034949413682 -0.10880628038 0.073113596729 0.010226291717 -0.040506565704 -0.012100896966 
0.047259498801 -0.25808439073 -0.17670465479 0.025770248383 -0.16097733238 -0.15508661788 0.052974032652 -0.25602242522 -0.11175543733 
0.032058883787 -0.16511446692 -0.099854311583 0.047657428301 -0.15252509688 0.095081141026 0.05769648843 -0.24681931476 -0.039069108808 
0.06254065162 -0.28862964673 -0.094446494412 0.047516362052 -0.24874408544 -0.15033951845 0.058772513437 -0.22961372475 0.015797977963 
0.046929200256 -0.2365640889 -0.12559558112 0.038492936509 -0.22971506603 -0.19639680894 0.011967361288 -0.029218862444 0.034712673199 
0.040506964266 -0.23536335402 -0.18966884811 0.029261201455 -0.064155759524 0.12687079431 0.024396251956 -0.15054055726 -0.14298536666 
0.045057620646 -0.21240895939 -0.083913987128 0.049543575388 -0.26037368334 -0.15863832211 0.040763910174 -0.16734849813 -0.014543794921 
0.024299349154 -0.051557241842 0.10695679217 0.027291123297 -0.1157841936 -0.024612961404 0.033493122458 -0.20042991021 -0.17440149154 
0.06198575368 -0.27032769672 -0.053844232411 0.023270404025 -0.14633496118 -0.14408882834 0.050930753434 -0.15944181644 0.11175388383 
0.038048305516 -0.14035367739 0.025516600067 0.030097635495 -0.14249772321 -0.06301013519 0.028136747536 -0.061206974103 0.12259547775 
0.048323810827 -0.23615469332 -0.10998283061 0.046829358966 -0.11728586752 0.17577004993 0.063145582212 -0.12903471682 -0.014050020433 
0.05488371412 -0.10747661728 0.059019367858 0.056026999073 -0.10365874243 0.12272211627 0.086584070653 -0.17347573585 -0.03989726098 
0.091526271255 -0.18787904944 -0.099966989353 0.079902784111 -0.15605746306 0.019024559383 0.070850463691 -0.13242917188 0.099167605394 
0.084633380741 -0.17704458233 -0.11662207608 0.05180410486 -0.090976702171 0.17811946588 0.041298354266 -0.080164594348 0.090858461811 
0.095252063702 -0.19131404634 -0.064685213065 0.082520300701 -0.15967017612 0.030793005895 0.056262813268 -0.10200330511 0.14528167212 
0.097086520961 -0.19960641332 -0.11895695463 0.057659930772 -0.10233789816 0.16886019134 0.088482382327 -0.17536744135 -0.023457343994 
0.11463973475 -0.22781868273 -0.083289631545 0.068638292955 -0.11746810773 0.21846019014 0.018149522362 -0.043864481614 0.033991613405 
0.057134725564 -0.10347994427 0.14623648991 0.013284881108 -0.036557988167 0.018548234574 0.10331301822 -0.21088725777 -0.12012504161 
0.056672585131 -0.12797812859 -0.12864922126 0.10201050249 -0.20820141335 -0.11634237527 0.06155466739 -0.13346435638 -0.093110348562 
0.073316185653 -0.13628808356 0.1053076764 0.1043212173 -0.20549393759 -0.041954477156 0.11889777083 -0.23686070848 -0.098496541627 
0.10182065887 -0.20527547392 -0.088283744594 0.10447300095 -0.19762066905 0.046452258883 0.09865981683 -0.19699658941 -0.059990702031 
0.084799306218 -0.18266967937 -0.17444119083 0.014068276566 -0.031879056534 0.084587129805 0.089964029119 -0.18954789691 -0.14850529977 
0.040889560193 -0.069445734479 0.19923145592 0.052114662812 -0.11936462641 -0.12393370555 0.091459745255 -0.17984113887 -0.014025099855 
0.10396186377 -0.21226088746 -0.12239663278 0.076971299518 -0.14700214718 0.060211327491 0.028372606247 -0.053284714149 0.13085384921 
0.050520275558 -0.10172715635 0.036438420322 0.075281527116 -0.16147270388 -0.12975101464 0.11598395428 -0.22598574623 -0.037216579257 
0.051913814555 -0.1173798327 -0.10630389833 0.082495154228 -0.14711295626 0.16659003323 0.06810274525 -0.12717959599 0.10262867522 
0.053835822643 -0.116571922 -0.060102838205 0.034616990136 -0.062746075727 0.14978143918 0.1004167866 -0.19819226388 -0.038749322001 
0.066020532901 -0.11385496055 0.20669171358 
f 3 100 double
0 0 0 0 0 0 0 0 0 
0 0 0 0 0 0 0 0 0 
0 0 0 0 0 0 0 0 0 
0 0 0 0 0 0 0 0 0 
0 0 0 0 0 0 0 0 0 
0 0 0 0 0 0 0 0 0 
-0.049587565251 0.049231685913 -0.096616993644 0 0 0 -0.12528770982 -0.081905272789 0.67734934832 
0 0 0 0 0 0 0 0 0 
0 0 0 0 0 0 0 0 0 
0 0 0 0 0 0 0 0 0 
0 0 0 0 0 0 0 0 0 
0 0 0 0 0 0 0 0 0 
0 0 0 0 0 0 0 0 0 
0 0 0 0 0 0 0 0 0 
0 0 0 0 0 0 0 0 0 
0 0 0 0 0 0 0 0 0 
0 0 0 0 0 0 0 0 0 
0 0 0 0 0 0 0 0 0 
0 0 0 0 0 0 0 0 0 
0 0 0 0 0 0 0 0 0 
0 0 0 0 0 0 0 0 0 
0 0 0 0 0 0 0 0 0 
0 0 0 0 0 0 0 0 0 
0 0 0 0.043115163997 -0.0021804518581 0.068906323712 0 0 0 
0 0 0 0 0 0 0 0 0 
0 0 0 0 0 0 0 0 0 
0 0 0 0 0 0 0 0 0 
0 0 0 0 0 0 0 0 0 
0 0 0 0 0 0 0 0 0 
0 0 0 0 0 0 0 0 0 
0 0 0 0 0 0 0 0 0 
0 0 0 0 0 0 0 0 0 
0 0 0 0 0 0 0 0 0 
0 0 0 
radius 1 100 double
0.010434 0.00981478 0.00892069 0.00845937 0.00731974 0.00728422 0.00643447 0.00619172 0.00585956 
0.00577566 0.00537241 0.00522549 0.00513666 0.00473175 0.00466912 0.00444866 0.00441894 0.00400812 
0.00385622 0.00379948 0.00370243 0.00366942 0.00364039 0.00363813 0.00363644 0.00358692 0.0035797 
0.00341284 0.00337012 0.00336273 0.00332772 0.00323261 0.00320584 0.00320311 0.00318808 0.00313116 
0.00306026 0.00305632 0.00304383 0.00300958 0.00300137 0.00298994 0.0029567 0.00295111 0.00290849 
0.00284552 0.00282964 0.0028207 0.00281971 0.00281899 0.010434 0.00981478 0.00892069 0.00845937 
0.00731974 0.00728422 0.00643447 0.00619172 0.00585956 0.00577566 0.00537241 0.00522549 0.00513666 
0.00473175 0.00466912 0.00444866 0.00441894 0.00400812 0.00385622 0.00379948 0.00370243 0.00366942 
0.00364039 0.00363813 0.00363644 0.00358692 0.0035797 0.00341284 0.00337012 0.00336273 0.00332772 
0.00323261 0.00320584 0.00320311 0.00318808 0.00313116 0.00306026 0.00305632 0.00304383 0.00300958 
0.00300137 0.00298994 0.0029567 0.00295111 0.00290849 0.00284552 0.00282964 0.0028207 0.00281971 
0.00281899 
omega 3 100 double
11.212639968 2.7201438339 -1.072897506 11.212639968 2.7201438339 -1.072897506 11.212639968 2.7201438339 -1.072897506 
11.212639968 2.7201438339 -1.072897506 11.212639968 2.7201438339 -1.072897506 11.212639968 2.7201438339 -1.072897506 
11.212639968 2.7201438339 -1.072897506 11.212639968 2.7201438339 -1.072897506 11.212639968 2.7201438339 -1.072897506 
11.212639968 2.7201438339 -1.072897506 11.212639968 2.7201438339 -1.072897506 11.212639968 2.7201438339 -1.072897506 
11.212639968 2.7201438339 -1.072897506 11.212639968 2.7201438339 -1.072897506 11.212639968 2.7201438339 -1.072897506 
11.212639968 2.7201438339 -1.072897506 11.212639968 2.7201438339 -1.072897506 11.212639968 2.7201438339 -1.072897506 
11.212639968 2.7201438339 -1.072897506 11.212639968 2.7201438339 -1.072897506 11.212639968 2.7201438339 -1.072897506 
11.212639968 2.7201438339 -1.072897506 11.212639968 2.7201438339 -1.072897506 11.212639968 2.7201438339 -1.072897506 
11.212639968 2.7201438339 -1.072897506 11.212639968 2.7201438339 -1.072897506 11.212639968 2.7201438339 -1.072897506 
11.212639968 2.7201438339 -1.072897506 11.212639968 2.7201438339 -1.072897506 11.212639968 2.7201438339 -1.072897506 
11.212639968 2.7201438339 -1.072897506 11.212639968 2.7201438339 -1.072897506 11.212639968 2.7201438339 -1.072897506 
11.212639968 2.7201438339 -1.072897506 11.212639968 2.7201438339 -1.072897506 11.212639968 2.7201438339 -1.072897506 
11.212639968 2.7201438339 -1.072897506 11.212639968 2.7201438339 -1.072897506 11.212639968 2.7201438339 -1.072897506 
11.212639968 2.7201438339 -1.072897506 11.212639968 2.7201438339 -1.072897506 11.212639968 2.7201438339 -1.072897506 
11.212639968 2.7201438339 -1.072897506 11.212639968 2.7201438339 -1.072897506 11.212639968 2.7201438339 -1.072897506 
11.212639968 2.7201438339 -1.072897506 11.212639968 2.7201438339 -1.072897506 11.212639968 2.7201438339 -1.072897506 
11.212639968 2.7201438339 -1.072897506 11.212639968 2.7201438339 -1.072897506 9.4072948143 5.2424010817 -0.48302546806 
9.4072948143 5.2424010817 -0.48302546806 9.4072948143 5.2424010817 -0.48302546806 9.4072948143 5.2424010817 -0.48302546806 
9.4072948143 5.2424010817 -0.48302546806 9.4072948143 5.2424010817 -0.48302546806 9.4072948143 5.2424010817 -0.48302546806 
9.4072948143 5.2424010817 -0.48302546806 9.4072948143 5.2424010817 -0.48302546806 9.4072948143 5.2424010817 -0.48302546806 
9.4072948143 5.2424010817 -0.48302546806 9.4072948143 5.2424010817 -0.48302546806 9.4072948143 5.2424010817 -0.48302546806 
9.4072948143 5.2424010817 -0.48302546806 9.4072948143 5.2424010817 -0.48302546806 9.4072948143 5.2424010817 -0.48302546806 
9.4072948143 5.2424010817 -0.48302546806 9.4072948143 5.2424010817 -0.48302546806 9.4072948143 5.2424010817 -0.48302546806 
9.4072948143 5.2424010817 -0.48302546806 9.4072948143 5.2424010817 -0.48302546806 9.4072948143 5.2424010817 -0.48302546806 
9.4072948143 5.2424010817 -0.48302546806 9.4072948143 5.2424010817 -0.48302546806 9.4072948143 5.2424010817 -0.48302546806 
9.4072948143 5.2424010817 -0.48302546806 9.4072948143 5.2424010817 -0.48302546806 9.4072948143 5.2424010817 -0.48302546806 
9.4072948143 5.2424010817 -0.48302546806 9.4072948143 5.2424010817 -0.48302546806 9.4072948143 5.2424010817 -0.48302546806 
9.4072948143 5.2424010817 -0.48302546806 9.4072948143 5.2424010817 -0.48302546806 9.4072948143 5.2424010817 -0.48302546806 
9.4072948143 5.2424010817 -0.48302546806 9.4072948143 5.2424010817 -0.48302546806 9.4072948143 5.2424010817 -0.48302546806 
9.4072948143 5.2424010817 -0.48302546806 9.4072948143 5.2424010817 -0.48302546806 9.4072948143 5.2424010817 -0.48302546806 
9.4072948143 5.2424010817 -0.48302546806 9.4072948143 5.2424010817 -0.48302546806 9.4072948143 5.2424010817 -0.48302546806 
9.4072948143 5.2424010817 -0.48302546806 9.4072948143 5.2424010817 -0.48302546806 9.4072948143 5.2424010817 -0.48302546806 
9.4072948143 5.2424010817 -0.48302546806 9.4072948143 5.2424010817 -0.48302546806 9.4072948143 5.2424010817 -0.48302546806 
9.4072948143 5.2424010817 -0.48302546806 
