# vtk DataFile Version 4.1
Generated by LIGGGHTS
ASCII
DATASET POLYDATA
POINTS 100 float
-0.116364 -0.133225 0.0202969 -0.126038 -0.13412 0.0164315 -0.135887 -0.134446 0.0145783 
-0.1237 -0.135578 0.0276219 -0.110495 -0.132375 0.0289517 -0.131897 -0.136508 0.0246237 
-0.14231 -0.137386 0.0203247 -0.115781 -0.137317 0.0309866 -0.144515 -0.135507 0.0123088 
-0.119235 -0.130205 0.010077 -0.129641 -0.139234 0.0325187 -0.138812 -0.138875 0.026154 
-0.124731 -0.126973 0.00941713 -0.12442 -0.140204 0.0354325 -0.130836 -0.128233 0.00961061 
-0.135192 -0.140087 0.0300921 -0.117737 -0.131634 0.0328568 -0.142408 -0.129079 0.0106729 
-0.114375 -0.135112 0.0100617 -0.148117 -0.138938 0.0166148 -0.118543 -0.139095 0.011922 
-0.12874 -0.141647 0.0376554 -0.111515 -0.139959 0.0269969 -0.103804 -0.128593 0.0295543 
-0.106157 -0.133893 0.0231916 -0.121263 -0.125645 0.0137178 -0.109434 -0.125783 0.0257199 
-0.106726 -0.126408 0.0312365 -0.132864 -0.141689 0.0362167 -0.128794 -0.129399 0.0247045 
-0.135818 -0.141618 0.0344826 -0.10939 -0.138175 0.033605 -0.130679 -0.140492 0.0105387 
-0.119384 -0.140748 0.0352926 -0.149656 -0.1382 0.0108029 -0.108365 -0.138628 0.0250693 
-0.139819 -0.141383 0.0311526 -0.120325 -0.137345 0.0353425 -0.145174 -0.140835 0.0250643 
-0.124303 -0.131774 0.00680066 -0.135593 -0.141352 0.0205684 -0.120636 -0.142129 0.0322925 
-0.118812 -0.128651 0.0297323 -0.117138 -0.141936 0.0263407 -0.144276 -0.131846 0.0171292 
-0.148005 -0.140487 0.021439 -0.105961 -0.132492 0.01953 -0.127432 -0.131135 0.00707872 
-0.139634 -0.141808 0.0342063 -0.135492 -0.126712 0.00914254 -0.0474552 -0.105421 0.0185921 
-0.0570499 -0.106315 0.0145326 -0.0668594 -0.106652 0.0124847 -0.0549279 -0.107832 0.0257583 
-0.0417592 -0.104608 0.0273651 -0.0630626 -0.108763 0.0225945 -0.0733873 -0.109638 0.0180872 
-0.0470728 -0.109573 0.0292677 -0.0754389 -0.107718 0.0100404 -0.0501322 -0.102348 0.00833522 
-0.060956 -0.111529 0.0305167 -0.0700014 -0.111153 0.0239754 -0.0556222 -0.0991245 0.00758598 
-0.0557908 -0.112504 0.0335268 -0.0617265 -0.100399 0.00765249 -0.0664558 -0.11238 0.0279768 
-0.0490778 -0.103904 0.0311315 -0.0733151 -0.101276 0.0084827 -0.0452621 -0.107245 0.00838729 
-0.0791173 -0.111182 0.0142553 -0.0494559 -0.111247 0.0101428 -0.0601498 -0.113969 0.0356563 
-0.0427236 -0.112182 0.0253475 -0.0350901 -0.100814 0.0281203 -0.0373055 -0.106083 0.0216827 
-0.0522419 -0.0978139 0.0119614 -0.0406507 -0.0979943 0.0241922 -0.0380498 -0.0986453 0.0297573 
-0.0642447 -0.114012 0.0341367 -0.0599787 -0.101647 0.0227766 -0.0671648 -0.113938 0.0323454 
-0.0407328 -0.110431 0.0320061 -0.0615599 -0.112663 0.00851371 -0.0507512 -0.113037 0.0334826 
-0.0805434 -0.110414 0.00841856 -0.0395394 -0.110834 0.0234897 -0.0711001 -0.113692 0.0289389 
-0.0517016 -0.109635 0.0335334 -0.0763358 -0.113121 0.0227499 -0.0551322 -0.10391 0.00495114 
-0.0666674 -0.113591 0.01844 -0.0519415 -0.114403 0.0304507 -0.0500987 -0.100907 0.0280035 
-0.048328 -0.114168 0.0245698 -0.0753034 -0.104085 0.0148853 -0.0790962 -0.112758 0.0190718 
-0.0370414 -0.104661 0.0180336 -0.0582669 -0.103279 0.0051714 -0.0709745 -0.114134 0.0319932 
-0.0663763 -0.0988857 0.00710181 
VERTICES 100 200
1 0 
1 1 
1 2 
1 3 
1 4 
1 5 
1 6 
1 7 
1 8 
1 9 
1 10 
1 11 
1 12 
1 13 
1 14 
1 15 
1 16 
1 17 
1 18 
1 19 
1 20 
1 21 
1 22 
1 23 
1 24 
1 25 
1 26 
1 27 
1 28 
1 29 
1 30 
1 31 
1 32 
1 33 
1 34 
1 35 
1 36 
1 37 
1 38 
1 39 
1 40 
1 41 
1 42 
1 43 
1 44 
1 45 
1 46 
1 47 
1 48 
1 49 
1 50 
1 51 
1 52 
1 53 
1 54 
1 55 
1 56 
1 57 
1 58 
1 59 
1 60 
1 61 
1 62 
1 63 
1 64 
1 65 
1 66 
1 67 
1 68 
1 69 
1 70 
1 71 
1 72 
1 73 
1 74 
1 75 
1 76 
1 77 
1 78 
1 79 
1 80 
1 81 
1 82 
1 83 
1 84 
1 85 
1 86 
1 87 
1 88 
1 89 
1 90 
1 91 
1 92 
1 93 
1 94 
1 95 
1 96 
1 97 
1 98 
1 99 

POINT_DATA 100
FIELD FieldData 7
id 1 100 int
1 2 3 4 5 6 7 8 9 
10 11 12 13 14 15 16 17 18 
19 20 21 22 23 24 25 26 27 
28 29 30 31 32 33 34 35 36 
37 38 39 40 41 42 43 44 45 
46 47 48 49 50 51 52 53 54 
55 56 57 58 59 60 61 62 63 
64 65 66 67 68 69 70 71 72 
73 74 75 76 77 78 79 80 81 
82 83 84 85 86 87 88 89 90 
91 92 93 94 95 96 97 98 99 
100 
mol 1 100 int
1 1 1 1 1 1 1 1 1 
1 1 1 1 1 1 1 1 1 
1 1 1 1 1 1 1 1 1 
1 1 1 1 1 1 1 1 1 
1 1 1 1 1 1 1 1 1 
1 1 1 1 1 2 2 2 2 
2 2 2 2 2 2 2 2 2 
2 2 2 2 2 2 2 2 2 
2 2 2 2 2 2 2 2 2 
2 2 2 2 2 2 2 2 2 
2 2 2 2 2 2 2 2 2 
2 
type 1 100 int
1 1 1 1 1 1 1 1 1 
1 1 1 1 1 1 1 1 1 
1 1 1 1 1 1 1 1 1 
1 1 1 1 1 1 1 1 1 
1 1 1 1 1 1 1 1 1 
1 1 1 1 1 1 1 1 1 
1 1 1 1 1 1 1 1 1 
1 1 1 1 1 1 1 1 1 
1 1 1 1 1 1 1 1 1 
1 1 1 1 1 1 1 1 1 
1 1 1 1 1 1 1 1 1 
1 
v 3 100 double
-0.12983273123 -0.06442848936 -0.25360149001 -0.10201008546 -0.062225576219 -0.32374688205 -0.088715666066 -0.063409478204 -0.39419099798 
-0.18081699254 -0.079638788539 -0.30954614855 -0.19163291447 -0.076150521565 -0.21054380239 -0.15913446448 -0.078228036909 -0.3692637196 
-0.12824179382 -0.075629085272 -0.44462358983 -0.20395257813 -0.081772345723 -0.25619976268 -0.072150009305 -0.063383403018 -0.45718110775 
-0.05858770448 -0.048841753115 -0.26900867509 -0.21400404423 -0.090252919447 -0.35773975039 -0.16897965717 -0.083719973892 -0.42224849816 
-0.055292829408 -0.050118662946 -0.30270576748 -0.2342701308 -0.092804124934 -0.32227479702 -0.056124364609 -0.053061606329 -0.34811276308 
-0.19641231425 -0.088645118532 -0.39854249396 -0.21967174119 -0.085691432564 -0.26072731144 -0.063301217788 -0.059785041066 -0.43164618815 
-0.056368864177 -0.046727307309 -0.24259208884 -0.10124035082 -0.072019609091 -0.48840151306 -0.067861719125 -0.051580851468 -0.27872848606 
-0.24942895963 -0.098319978641 -0.35531152054 -0.17449664115 -0.073371714023 -0.23026854959 -0.19753669255 -0.074265844785 -0.15682393455 
-0.15009330937 -0.064804860347 -0.18224927248 -0.086391233076 -0.05570609996 -0.27590067615 -0.17152701252 -0.070375301572 -0.19216429829 
-0.21041679029 -0.078290920116 -0.17397063566 -0.23919798678 -0.097724856108 -0.38465421724 -0.16276446525 -0.07702726231 -0.33554067532 
-0.22691919049 -0.09614088204 -0.40551011105 -0.22217049719 -0.083334656026 -0.21224860303 -0.057441766786 -0.054521788286 -0.3671780034 
-0.23304302715 -0.090408565665 -0.28741998539 -0.060302247924 -0.063115074296 -0.49810922492 -0.16138599411 -0.068844758077 -0.20571802029 
-0.20338302563 -0.092380018104 -0.43352188317 -0.2348606311 -0.090895577655 -0.28850237554 -0.16040185232 -0.084661287174 -0.47062999125 
-0.034655871315 -0.045628255254 -0.30757271559 -0.12826635161 -0.073142452323 -0.40347316337 -0.2111538816 -0.086009133643 -0.2985829439 
-0.19877488439 -0.081011085937 -0.2634532142 -0.16898846005 -0.074709011843 -0.27343620934 -0.10794036256 -0.071214866771 -0.4494639412 
-0.13481786402 -0.079911571704 -0.49015496048 -0.12470416734 -0.058693966252 -0.17855407656 -0.036904621882 -0.04743089832 -0.32872666582 
-0.2248765742 -0.097326829086 -0.43291113275 -0.053455846269 -0.05429307733 -0.37866165249 -0.12861838636 -0.064012474558 -0.30202390517 
-0.09991738299 -0.061720681361 -0.37036413766 -0.085489139421 -0.062750801341 -0.43930810382 -0.17752951368 -0.07879731891 -0.35799983114 
-0.19015211573 -0.075581683073 -0.26099969601 -0.1550584601 -0.077300306198 -0.41621838045 -0.12324250249 -0.074611162666 -0.48962001175 
-0.2012353382 -0.080971892177 -0.30601785355 -0.067975067119 -0.062603632343 -0.5008450551 -0.058447138264 -0.048734411243 -0.31576090051 
-0.20908422982 -0.089083568566 -0.40596669663 -0.16363574803 -0.082568413457 -0.46843973771 -0.054640719477 -0.049947648345 -0.34887207135 
-0.2296453329 -0.091640486889 -0.37151301607 -0.05454361471 -0.052739903547 -0.39348405148 -0.19099867181 -0.087428282022 -0.44568372237 
-0.21672596352 -0.084844270922 -0.31090532533 -0.059947029404 -0.059170209686 -0.47570087091 -0.056655998342 -0.046675389757 -0.28965681149 
-0.095842749767 -0.070984257708 -0.53205307923 -0.067136712693 -0.051336938889 -0.32532274964 -0.2438503972 -0.096974750515 -0.40425981853 
-0.17275088867 -0.072769039246 -0.27987676239 -0.1970878264 -0.073859410464 -0.20840842442 -0.14987833375 -0.064505630368 -0.23231061517 
-0.085727759941 -0.055480213873 -0.32319749307 -0.17093702365 -0.070003615873 -0.24265892025 -0.20945671133 -0.077787753012 -0.22556717178 
-0.23323489388 -0.096338233391 -0.4328830707 -0.15945861177 -0.076235725273 -0.38329824175 -0.22077639954 -0.094749013072 -0.45312671187 
-0.21995310117 -0.082576063542 -0.26318514141 -0.055153825435 -0.054048329191 -0.4119975954 -0.22910312993 -0.089352531455 -0.33722570043 
-0.055479562038 -0.062247352441 -0.54076604379 -0.16038917898 -0.068387525197 -0.25550898015 -0.19713058894 -0.091015116341 -0.48017421139 
-0.23095363079 -0.089852104295 -0.33839570849 -0.1542248269 -0.08338909543 -0.51576709605 -0.034161918492 -0.045504795957 -0.35313314401 
-0.12396398224 -0.072220884115 -0.44910250491 -0.20736012357 -0.08501190585 -0.34771734337 -0.1962324132 -0.080274904013 -0.31321490215 
-0.16645451472 -0.073987017322 -0.32214334677 -0.10335784145 -0.070317020689 -0.4940714917 -0.12873602528 -0.078702495503 -0.53443498455 
-0.12505843535 -0.058534931909 -0.22818592873 -0.035975533051 -0.047237296961 -0.37397985159 -0.21823425858 -0.095860036479 -0.48000725566 
-0.051369559936 -0.053902075426 -0.42347974766 
f 3 100 double
0 0 0 0 0 0 0 0 0 
0 0 0 0 0 0 0 0 0 
0 0 0 0 0 0 0 0 0 
0 0 0 0 0 0 0 0 0 
0 0 0 0 0 0 0 0 0 
0 0 0 0 0 0 0 0 0 
0 0 0 0 0 0 0 0 0 
0 0 0 0 0 0 0 0 0 
0 0 0 0 0 0 0 0 0 
0 0 0 0 0 0 0 0 0 
0 0 0 0 0 0 0 0 0 
0 0 0 0 0 0 0 0 0 
0 0 0 0 0 0 0 0 0 
0 0 0 0 0 0 0 0 0 
0 0 0 0 0 0 0 0 0 
0 0 0 0 0 0 0 0 0 
0 0 0 0 0 0 0 0 0 
0 0 0 0 0 0 0 0 0 
0 0 0 0 0 0 0 0 0 
0 0 0 0 0 0 0 0 0 
0 0 0 0 0 0 0 0 0 
0 0 0 0 0 0 0 0 0 
0 0 0 0 0 0 0 0 0 
0 0 0 0 0 0 0 0 0 
0 0 0 0 0 0 0 0 0 
0 0 0 0 0 0 0 0 0 
0 0 0 0 0 0 0 0 0 
0 0 0 0 0 0 0 0 0 
0 0 0 0 0 0 0 0 0 
0 0 0 0 0 0 0 0 0 
0 0 0 0 0 0 0 0 0 
0 0 0 0 0 0 0 0 0 
0 0 0 0 0 0 0 0 0 
0 0 0 
radius 1 100 double
0.010434 0.00981478 0.00892069 0.00845937 0.00731974 0.00728422 0.00643447 0.00619172 0.00585956 
0.00577566 0.00537241 0.00522549 0.00513666 0.00473175 0.00466912 0.00444866 0.00441894 0.00400812 
0.00385622 0.00379948 0.00370243 0.00366942 0.00364039 0.00363813 0.00363644 0.00358692 0.0035797 
0.00341284 0.00337012 0.00336273 0.00332772 0.00323261 0.00320584 0.00320311 0.00318808 0.00313116 
0.00306026 0.00305632 0.00304383 0.00300958 0.00300137 0.00298994 0.0029567 0.00295111 0.00290849 
0.00284552 0.00282964 0.0028207 0.00281971 0.00281899 0.010434 0.00981478 0.00892069 0.00845937 
0.00731974 0.00728422 0.00643447 0.00619172 0.00585956 0.00577566 0.00537241 0.00522549 0.00513666 
0.00473175 0.00466912 0.00444866 0.00441894 0.00400812 0.00385622 0.00379948 0.00370243 0.00366942 
0.00364039 0.00363813 0.00363644 0.00358692 0.0035797 0.00341284 0.00337012 0.00336273 0.00332772 
0.00323261 0.00320584 0.00320311 0.00318808 0.00313116 0.00306026 0.00305632 0.00304383 0.00300958 
0.00300137 0.00298994 0.0029567 0.00295111 0.00290849 0.00284552 0.00282964 0.0028207 0.00281971 
0.00281899 
omega 3 100 double
1.645919779 -7.0983272996 0.42991910975 1.645919779 -7.0983272996 0.42991910975 1.645919779 -7.0983272996 0.42991910975 
1.645919779 -7.0983272996 0.42991910975 1.645919779 -7.0983272996 0.42991910975 1.645919779 -7.0983272996 0.42991910975 
1.645919779 -7.0983272996 0.42991910975 1.645919779 -7.0983272996 0.42991910975 1.645919779 -7.0983272996 0.42991910975 
1.645919779 -7.0983272996 0.42991910975 1.645919779 -7.0983272996 0.42991910975 1.645919779 -7.0983272996 0.42991910975 
1.645919779 -7.0983272996 0.42991910975 1.645919779 -7.0983272996 0.42991910975 1.645919779 -7.0983272996 0.42991910975 
1.645919779 -7.0983272996 0.42991910975 1.645919779 -7.0983272996 0.42991910975 1.645919779 -7.0983272996 0.42991910975 
1.645919779 -7.0983272996 0.42991910975 1.645919779 -7.0983272996 0.42991910975 1.645919779 -7.0983272996 0.42991910975 
1.645919779 -7.0983272996 0.42991910975 1.645919779 -7.0983272996 0.42991910975 1.645919779 -7.0983272996 0.42991910975 
1.645919779 -7.0983272996 0.42991910975 1.645919779 -7.0983272996 0.42991910975 1.645919779 -7.0983272996 0.42991910975 
1.645919779 -7.0983272996 0.42991910975 1.645919779 -7.0983272996 0.42991910975 1.645919779 -7.0983272996 0.42991910975 
1.645919779 -7.0983272996 0.42991910975 1.645919779 -7.0983272996 0.42991910975 1.645919779 -7.0983272996 0.42991910975 
1.645919779 -7.0983272996 0.42991910975 1.645919779 -7.0983272996 0.42991910975 1.645919779 -7.0983272996 0.42991910975 
1.645919779 -7.0983272996 0.42991910975 1.645919779 -7.0983272996 0.42991910975 1.645919779 -7.0983272996 0.42991910975 
1.645919779 -7.0983272996 0.42991910975 1.645919779 -7.0983272996 0.42991910975 1.645919779 -7.0983272996 0.42991910975 
1.645919779 -7.0983272996 0.42991910975 1.645919779 -7.0983272996 0.42991910975 1.645919779 -7.0983272996 0.42991910975 
1.645919779 -7.0983272996 0.42991910975 1.645919779 -7.0983272996 0.42991910975 1.645919779 -7.0983272996 0.42991910975 
1.645919779 -7.0983272996 0.42991910975 1.645919779 -7.0983272996 0.42991910975 1.6043712993 -6.9732151806 0.43994434695 
1.6043712993 -6.9732151806 0.43994434695 1.6043712993 -6.9732151806 0.43994434695 1.6043712993 -6.9732151806 0.43994434695 
1.6043712993 -6.9732151806 0.43994434695 1.6043712993 -6.9732151806 0.43994434695 1.6043712993 -6.9732151806 0.43994434695 
1.6043712993 -6.9732151806 0.43994434695 1.6043712993 -6.9732151806 0.43994434695 1.6043712993 -6.9732151806 0.43994434695 
1.6043712993 -6.9732151806 0.43994434695 1.6043712993 -6.9732151806 0.43994434695 1.6043712993 -6.9732151806 0.43994434695 
1.6043712993 -6.9732151806 0.43994434695 1.6043712993 -6.9732151806 0.43994434695 1.6043712993 -6.9732151806 0.43994434695 
1.6043712993 -6.9732151806 0.43994434695 1.6043712993 -6.9732151806 0.43994434695 1.6043712993 -6.9732151806 0.43994434695 
1.6043712993 -6.9732151806 0.43994434695 1.6043712993 -6.9732151806 0.43994434695 1.6043712993 -6.9732151806 0.43994434695 
1.6043712993 -6.9732151806 0.43994434695 1.6043712993 -6.9732151806 0.43994434695 1.6043712993 -6.9732151806 0.43994434695 
1.6043712993 -6.9732151806 0.43994434695 1.6043712993 -6.9732151806 0.43994434695 1.6043712993 -6.9732151806 0.43994434695 
1.6043712993 -6.9732151806 0.43994434695 1.6043712993 -6.9732151806 0.43994434695 1.6043712993 -6.9732151806 0.43994434695 
1.6043712993 -6.9732151806 0.43994434695 1.6043712993 -6.9732151806 0.43994434695 1.6043712993 -6.9732151806 0.43994434695 
1.6043712993 -6.9732151806 0.43994434695 1.6043712993 -6.9732151806 0.43994434695 1.6043712993 -6.9732151806 0.43994434695 
1.6043712993 -6.9732151806 0.43994434695 1.6043712993 -6.9732151806 0.43994434695 1.6043712993 -6.9732151806 0.43994434695 
1.6043712993 -6.9732151806 0.43994434695 1.6043712993 -6.9732151806 0.43994434695 1.6043712993 -6.9732151806 0.43994434695 
1.6043712993 -6.9732151806 0.43994434695 1.6043712993 -6.9732151806 0.43994434695 1.6043712993 -6.9732151806 0.43994434695 
1.6043712993 -6.9732151806 0.43994434695 1.6043712993 -6.9732151806 0.43994434695 1.6043712993 -6.9732151806 0.43994434695 
1.6043712993 -6.9732151806 0.43994434695 
