# vtk DataFile Version 4.1
Generated by LIGGGHTS
ASCII
DATASET POLYDATA
POINTS 100 float
-0.111995 -0.130966 0.023128 -0.122335 -0.131896 0.0218828 -0.132334 -0.132128 0.0225868 
-0.117261 -0.132694 0.0321994 -0.104132 -0.129697 0.0299565 -0.125953 -0.133636 0.0314233 
-0.137117 -0.13456 0.0299436 -0.108758 -0.134386 0.0335768 -0.141261 -0.133144 0.0226311 
-0.117333 -0.128535 0.0137785 -0.121795 -0.135906 0.0386626 -0.132272 -0.135753 0.0347941 
-0.122803 -0.125235 0.014306 -0.116013 -0.136801 0.0402304 -0.128668 -0.12635 0.0161088 
-0.127782 -0.136792 0.037769 -0.110153 -0.128555 0.035496 -0.139603 -0.126879 0.0200953 
-0.112657 -0.133537 0.0128701 -0.143679 -0.136219 0.0279217 -0.116241 -0.137304 0.0159773 
-0.11964 -0.138008 0.0435572 -0.105648 -0.137365 0.0288288 -0.0974865 -0.126027 0.0286077 
-0.101391 -0.131667 0.023406 -0.118357 -0.123713 0.0175004 -0.103888 -0.123345 0.0261312 
-0.0998804 -0.123679 0.0308205 -0.123994 -0.138053 0.0432057 -0.122896 -0.126604 0.0302501 
-0.12729 -0.138029 0.0422679 -0.101918 -0.135213 0.0345584 -0.128341 -0.138526 0.0177805 
-0.111177 -0.137461 0.0388674 -0.146629 -0.135817 0.0226462 -0.103078 -0.136226 0.0260883 
-0.131999 -0.137919 0.0400406 -0.112059 -0.134042 0.0389258 -0.138712 -0.137641 0.0354687 
-0.123071 -0.1302 0.011991 -0.130575 -0.138646 0.0287567 -0.113151 -0.139001 0.0363763 
-0.111966 -0.125754 0.0325504 -0.111264 -0.139259 0.0297378 -0.139799 -0.129193 0.0269831 
-0.142363 -0.137463 0.0326552 -0.102117 -0.130505 0.0197277 -0.126025 -0.129478 0.0130022 
-0.131053 -0.138154 0.0429715 -0.133285 -0.124762 0.0167244 -0.0431206 -0.103175 0.0231576 
-0.0534266 -0.104109 0.0216571 -0.0634395 -0.104359 0.0221184 -0.0486006 -0.104978 0.0320865 
-0.0354256 -0.101947 0.0301827 -0.0572705 -0.105925 0.0310944 -0.0683945 -0.106853 0.0293396 
-0.0401314 -0.106669 0.0336554 -0.072363 -0.105387 0.0219403 -0.0482355 -0.100681 0.0137008 
-0.0532845 -0.108244 0.0384145 -0.0636652 -0.108076 0.0342963 -0.0537215 -0.0973914 0.0141212 
-0.0475406 -0.109143 0.0401143 -0.0596266 -0.0985275 0.0157739 -0.0592466 -0.109131 0.0373704 
-0.04158 -0.100855 0.0355841 -0.0706539 -0.0991007 0.0194921 -0.0435324 -0.105669 0.0128679 
-0.0749035 -0.108505 0.027148 -0.0471841 -0.109465 0.0158596 -0.0512451 -0.110381 0.0433437 
-0.036903 -0.109609 0.0289616 -0.0287554 -0.0982595 0.0290217 -0.0325258 -0.103865 0.0236855 
-0.0493558 -0.0958878 0.017433 -0.0350989 -0.0955667 0.026412 -0.0312053 -0.0959303 0.0311937 
-0.0555889 -0.110428 0.0428871 -0.0541966 -0.0988806 0.0300478 -0.058861 -0.110401 0.0418706 
-0.0333159 -0.107495 0.0347952 -0.0593226 -0.110716 0.0173619 -0.0426719 -0.109787 0.0388632 
-0.0777256 -0.108067 0.0218063 -0.0342702 -0.108446 0.0262922 -0.0635156 -0.11028 0.0395315 
-0.0435605 -0.106369 0.0389258 -0.070117 -0.109977 0.0348015 -0.0539265 -0.10234 0.0117634 
-0.0618193 -0.110921 0.0282799 -0.0445835 -0.111311 0.0363138 -0.0433261 -0.0980341 0.0326167 
-0.0425369 -0.111517 0.0297209 -0.0710115 -0.101467 0.0263556 -0.0736999 -0.109782 0.0319024 
-0.0331649 -0.102676 0.0199996 -0.0569055 -0.101628 0.0127086 -0.0626404 -0.110536 0.0424824 
-0.0642592 -0.0969502 0.0162901 
VERTICES 100 200
1 0 
1 1 
1 2 
1 3 
1 4 
1 5 
1 6 
1 7 
1 8 
1 9 
1 10 
1 11 
1 12 
1 13 
1 14 
1 15 
1 16 
1 17 
1 18 
1 19 
1 20 
1 21 
1 22 
1 23 
1 24 
1 25 
1 26 
1 27 
1 28 
1 29 
1 30 
1 31 
1 32 
1 33 
1 34 
1 35 
1 36 
1 37 
1 38 
1 39 
1 40 
1 41 
1 42 
1 43 
1 44 
1 45 
1 46 
1 47 
1 48 
1 49 
1 50 
1 51 
1 52 
1 53 
1 54 
1 55 
1 56 
1 57 
1 58 
1 59 
1 60 
1 61 
1 62 
1 63 
1 64 
1 65 
1 66 
1 67 
1 68 
1 69 
1 70 
1 71 
1 72 
1 73 
1 74 
1 75 
1 76 
1 77 
1 78 
1 79 
1 80 
1 81 
1 82 
1 83 
1 84 
1 85 
1 86 
1 87 
1 88 
1 89 
1 90 
1 91 
1 92 
1 93 
1 94 
1 95 
1 96 
1 97 
1 98 
1 99 

POINT_DATA 100
FIELD FieldData 7
id 1 100 int
1 2 3 4 5 6 7 8 9 
10 11 12 13 14 15 16 17 18 
19 20 21 22 23 24 25 26 27 
28 29 30 31 32 33 34 35 36 
37 38 39 40 41 42 43 44 45 
46 47 48 49 50 51 52 53 54 
55 56 57 58 59 60 61 62 63 
64 65 66 67 68 69 70 71 72 
73 74 75 76 77 78 79 80 81 
82 83 84 85 86 87 88 89 90 
91 92 93 94 95 96 97 98 99 
100 
mol 1 100 int
1 1 1 1 1 1 1 1 1 
1 1 1 1 1 1 1 1 1 
1 1 1 1 1 1 1 1 1 
1 1 1 1 1 1 1 1 1 
1 1 1 1 1 1 1 1 1 
1 1 1 1 1 2 2 2 2 
2 2 2 2 2 2 2 2 2 
2 2 2 2 2 2 2 2 2 
2 2 2 2 2 2 2 2 2 
2 2 2 2 2 2 2 2 2 
2 2 2 2 2 2 2 2 2 
2 
type 1 100 int
1 1 1 1 1 1 1 1 1 
1 1 1 1 1 1 1 1 1 
1 1 1 1 1 1 1 1 1 
1 1 1 1 1 1 1 1 1 
1 1 1 1 1 1 1 1 1 
1 1 1 1 1 1 1 1 1 
1 1 1 1 1 1 1 1 1 
1 1 1 1 1 1 1 1 1 
1 1 1 1 1 1 1 1 1 
1 1 1 1 1 1 1 1 1 
1 1 1 1 1 1 1 1 1 
1 
v 3 100 double
-0.11307004296 -0.061148273352 0.095546892119 -0.10406319419 -0.061429196522 0.020960935985 -0.10895394102 -0.065475929864 -0.049843346483 
-0.17643026796 -0.080494009971 0.055081942677 -0.16144644295 -0.072571569712 0.15337751442 -0.17071957585 -0.081265458563 -0.0079351351161 
-0.16006483646 -0.081301192695 -0.088306083804 -0.18567094525 -0.080962425846 0.11154918308 -0.10899597426 -0.067932934354 -0.1146546131 
-0.0479398086 -0.044066750292 0.062803093693 -0.2210467906 -0.094484979747 0.016827300708 -0.19387234448 -0.089611923471 -0.05657588758 
-0.052526900005 -0.046562296265 0.03085055693 -0.23183933776 -0.09605239817 0.055732849817 -0.064914028674 -0.051685920871 -0.012617073277 
-0.21452503995 -0.094305942128 -0.027042372135 -0.20072075087 -0.085129810811 0.1132757775 -0.092819113748 -0.062475776618 -0.090596315154 
-0.040221953742 -0.041028613898 0.085799663995 -0.14540014688 -0.079042477405 -0.13775250546 -0.061081436686 -0.048127382803 0.053135077641 
-0.2549233862 -0.10359731368 0.02782545389 -0.15147777742 -0.070742846283 0.12753950819 -0.15293143554 -0.068139239722 0.20738591914 
-0.1148397532 -0.058883962546 0.16875598773 -0.075404079061 -0.051702461271 0.065140659148 -0.13622062925 -0.064938317377 0.16766094426 
-0.16912175561 -0.073152577458 0.1951917077 -0.25243825346 -0.10405726753 -0.0028909034358 -0.16433303129 -0.078133088432 0.027483172524 
-0.24584740656 -0.10307662501 -0.026028551745 -0.19235759457 -0.081089221024 0.15803278446 -0.073442513528 -0.054906652971 -0.034410776593 
-0.22207517558 -0.092071977482 0.088451493298 -0.10839303708 -0.069387580895 -0.15770550524 -0.13249963548 -0.06463855575 0.14786887035 
-0.23020746992 -0.099919868474 -0.058941571341 -0.22339324289 -0.092421646193 0.089008573255 -0.19811673043 -0.092655897806 -0.10561953033 
-0.034922777848 -0.042053185519 0.019140957811 -0.1506300869 -0.077216229887 -0.050360933764 -0.20414122306 -0.087667310197 0.071514888669 
-0.18074131484 -0.079783127547 0.10606027519 -0.15736983566 -0.074031975828 0.084280127212 -0.14066147947 -0.07615529162 -0.096549181264 
-0.17837107963 -0.088058544906 -0.13095384091 -0.089270922092 -0.051799051172 0.16594830281 -0.042228681442 -0.044838096753 -0.00021452006706 
-0.25076437161 -0.1054677362 -0.052753990456 -0.069666244131 -0.054129294443 -0.04195585781 -0.11235821424 -0.060815598944 0.047646255848 
-0.10171513114 -0.060921007206 -0.025384922532 -0.10483071863 -0.064731109804 -0.09506852603 -0.17354218925 -0.079662444786 0.0062898549408 
-0.1612678385 -0.072143859524 0.1031994677 -0.16640882942 -0.080273069341 -0.0554600229 -0.1540110536 -0.080125939766 -0.13413239907 
-0.18389180245 -0.080224398405 0.061554238577 -0.10329998326 -0.066988344887 -0.158727782 -0.047726963584 -0.044037390205 0.017113733075 
-0.21632370188 -0.093252481915 -0.032390855273 -0.18791111075 -0.088322859257 -0.10380968454 -0.051591240679 -0.046448726173 -0.014446016489 
-0.22780924383 -0.094861890066 0.0055680977647 -0.06268263756 -0.051363018783 -0.057451985297 -0.20884978199 -0.092973617306 -0.075309439172 
-0.19891638173 -0.084372648329 0.0627751303 -0.08821213825 -0.061760447465 -0.13477142471 -0.040516041372 -0.04105722592 0.03998103502 
-0.13838296071 -0.077789553725 -0.18230885553 -0.060086436522 -0.047901422906 0.0074111412088 -0.24976783762 -0.10218056832 -0.022424211646 
-0.15059474073 -0.070215440823 0.078187784987 -0.15431897017 -0.067956542601 0.15642284386 -0.1158052089 -0.058746868646 0.11953552696 
-0.07491801762 -0.051573964474 0.018631221572 -0.13706756952 -0.064764121255 0.11778372988 -0.17000898467 -0.07286666607 0.14399094053 
-0.24659863724 -0.10256483381 -0.052536877366 -0.16122930283 -0.077355149365 -0.020606282446 -0.23958062947 -0.10155480044 -0.075099408168 
-0.19152834149 -0.080439480067 0.10706268587 -0.070104025573 -0.054342024554 -0.078897055666 -0.21897484134 -0.091025616086 0.037973362587 
-0.10159245144 -0.068292668783 -0.20096685313 -0.13248515914 -0.064291090901 0.09863061795 -0.22345005247 -0.098392906326 -0.10703452524 
-0.22040426787 -0.091405714277 0.038434780161 -0.19084854324 -0.091179658422 -0.15207280698 -0.033853315933 -0.041953501802 -0.025422212655 
-0.1455014798 -0.076162040939 -0.096548724404 -0.20091166789 -0.086657919416 0.021818276295 -0.17923051371 -0.079149102711 0.056157031935 
-0.15528663324 -0.073324742808 0.035565148438 -0.13495811205 -0.075124166404 -0.14181389245 -0.17086915886 -0.086623465453 -0.17645778914 
-0.09067778719 -0.051812507442 0.11741641635 -0.040593165161 -0.04464791392 -0.044636660664 -0.24377020173 -0.10383861793 -0.10148017856 
-0.066709749014 -0.053710639474 -0.086422049658 
f 3 100 double
0 0 0 0 0 0 0 0 0 
0 0 0 0 0 0 0 0 0 
0 0 0 0 0 0 0 0 0 
0 0 0 0 0 0 0 0 0 
0 0 0 0 0 0 0 0 0 
0 0 0 0 0 0 0 0 0 
0 0 0 0 0 0 0 0 0 
0 0 0 0 0 0 0 0 0 
0 0 0 0 0 0 0 0 0 
0 0 0 0 0 0 0 0 0 
0 0 0 0 0 0 0 0 0 
0 0 0 0 0 0 0 0 0 
0 0 0 0 0 0 0 0 0 
0 0 0 0 0 0 0 0 0 
0 0 0 0 0 0 0 0 0 
0 0 0 0 0 0 0 0 0 
0 0 0 0 0 0 0 0 0 
0 0 0 0 0 0 0 0 0 
0 0 0 0 0 0 0 0 0 
0 0 0 0 0 0 0 0 0 
0 0 0 0 0 0 0 0 0 
0 0 0 0 0 0 0 0 0 
0 0 0 0 0 0 0 0 0 
0 0 0 0 0 0 0 0 0 
0 0 0 0 0 0 0 0 0 
0 0 0 0 0 0 0 0 0 
0 0 0 0 0 0 0 0 0 
0 0 0 0 0 0 0 0 0 
0 0 0 0 0 0 0 0 0 
0 0 0 0 0 0 0 0 0 
0 0 0 0 0 0 0 0 0 
0 0 0 0 0 0 0 0 0 
0 0 0 0 0 0 0 0 0 
0 0 0 
radius 1 100 double
0.010434 0.00981478 0.00892069 0.00845937 0.00731974 0.00728422 0.00643447 0.00619172 0.00585956 
0.00577566 0.00537241 0.00522549 0.00513666 0.00473175 0.00466912 0.00444866 0.00441894 0.00400812 
0.00385622 0.00379948 0.00370243 0.00366942 0.00364039 0.00363813 0.00363644 0.00358692 0.0035797 
0.00341284 0.00337012 0.00336273 0.00332772 0.00323261 0.00320584 0.00320311 0.00318808 0.00313116 
0.00306026 0.00305632 0.00304383 0.00300958 0.00300137 0.00298994 0.0029567 0.00295111 0.00290849 
0.00284552 0.00282964 0.0028207 0.00281971 0.00281899 0.010434 0.00981478 0.00892069 0.00845937 
0.00731974 0.00728422 0.00643447 0.00619172 0.00585956 0.00577566 0.00537241 0.00522549 0.00513666 
0.00473175 0.00466912 0.00444866 0.00441894 0.00400812 0.00385622 0.00379948 0.00370243 0.00366942 
0.00364039 0.00363813 0.00363644 0.00358692 0.0035797 0.00341284 0.00337012 0.00336273 0.00332772 
0.00323261 0.00320584 0.00320311 0.00318808 0.00313116 0.00306026 0.00305632 0.00304383 0.00300958 
0.00300137 0.00298994 0.0029567 0.00295111 0.00290849 0.00284552 0.00282964 0.0028207 0.00281971 
0.00281899 
omega 3 100 double
1.9785280071 -7.0351524191 0.2654204747 1.9785280071 -7.0351524191 0.2654204747 1.9785280071 -7.0351524191 0.2654204747 
1.9785280071 -7.0351524191 0.2654204747 1.9785280071 -7.0351524191 0.2654204747 1.9785280071 -7.0351524191 0.2654204747 
1.9785280071 -7.0351524191 0.2654204747 1.9785280071 -7.0351524191 0.2654204747 1.9785280071 -7.0351524191 0.2654204747 
1.9785280071 -7.0351524191 0.2654204747 1.9785280071 -7.0351524191 0.2654204747 1.9785280071 -7.0351524191 0.2654204747 
1.9785280071 -7.0351524191 0.2654204747 1.9785280071 -7.0351524191 0.2654204747 1.9785280071 -7.0351524191 0.2654204747 
1.9785280071 -7.0351524191 0.2654204747 1.9785280071 -7.0351524191 0.2654204747 1.9785280071 -7.0351524191 0.2654204747 
1.9785280071 -7.0351524191 0.2654204747 1.9785280071 -7.0351524191 0.2654204747 1.9785280071 -7.0351524191 0.2654204747 
1.9785280071 -7.0351524191 0.2654204747 1.9785280071 -7.0351524191 0.2654204747 1.9785280071 -7.0351524191 0.2654204747 
1.9785280071 -7.0351524191 0.2654204747 1.9785280071 -7.0351524191 0.2654204747 1.9785280071 -7.0351524191 0.2654204747 
1.9785280071 -7.0351524191 0.2654204747 1.9785280071 -7.0351524191 0.2654204747 1.9785280071 -7.0351524191 0.2654204747 
1.9785280071 -7.0351524191 0.2654204747 1.9785280071 -7.0351524191 0.2654204747 1.9785280071 -7.0351524191 0.2654204747 
1.9785280071 -7.0351524191 0.2654204747 1.9785280071 -7.0351524191 0.2654204747 1.9785280071 -7.0351524191 0.2654204747 
1.9785280071 -7.0351524191 0.2654204747 1.9785280071 -7.0351524191 0.2654204747 1.9785280071 -7.0351524191 0.2654204747 
1.9785280071 -7.0351524191 0.2654204747 1.9785280071 -7.0351524191 0.2654204747 1.9785280071 -7.0351524191 0.2654204747 
1.9785280071 -7.0351524191 0.2654204747 1.9785280071 -7.0351524191 0.2654204747 1.9785280071 -7.0351524191 0.2654204747 
1.9785280071 -7.0351524191 0.2654204747 1.9785280071 -7.0351524191 0.2654204747 1.9785280071 -7.0351524191 0.2654204747 
1.9785280071 -7.0351524191 0.2654204747 1.9785280071 -7.0351524191 0.2654204747 1.931858097 -6.9112159923 0.2915114612 
1.931858097 -6.9112159923 0.2915114612 1.931858097 -6.9112159923 0.2915114612 1.931858097 -6.9112159923 0.2915114612 
1.931858097 -6.9112159923 0.2915114612 1.931858097 -6.9112159923 0.2915114612 1.931858097 -6.9112159923 0.2915114612 
1.931858097 -6.9112159923 0.2915114612 1.931858097 -6.9112159923 0.2915114612 1.931858097 -6.9112159923 0.2915114612 
1.931858097 -6.9112159923 0.2915114612 1.931858097 -6.9112159923 0.2915114612 1.931858097 -6.9112159923 0.2915114612 
1.931858097 -6.9112159923 0.2915114612 1.931858097 -6.9112159923 0.2915114612 1.931858097 -6.9112159923 0.2915114612 
1.931858097 -6.9112159923 0.2915114612 1.931858097 -6.9112159923 0.2915114612 1.931858097 -6.9112159923 0.2915114612 
1.931858097 -6.9112159923 0.2915114612 1.931858097 -6.9112159923 0.2915114612 1.931858097 -6.9112159923 0.2915114612 
1.931858097 -6.9112159923 0.2915114612 1.931858097 -6.9112159923 0.2915114612 1.931858097 -6.9112159923 0.2915114612 
1.931858097 -6.9112159923 0.2915114612 1.931858097 -6.9112159923 0.2915114612 1.931858097 -6.9112159923 0.2915114612 
1.931858097 -6.9112159923 0.2915114612 1.931858097 -6.9112159923 0.2915114612 1.931858097 -6.9112159923 0.2915114612 
1.931858097 -6.9112159923 0.2915114612 1.931858097 -6.9112159923 0.2915114612 1.931858097 -6.9112159923 0.2915114612 
1.931858097 -6.9112159923 0.2915114612 1.931858097 -6.9112159923 0.2915114612 1.931858097 -6.9112159923 0.2915114612 
1.931858097 -6.9112159923 0.2915114612 1.931858097 -6.9112159923 0.2915114612 1.931858097 -6.9112159923 0.2915114612 
1.931858097 -6.9112159923 0.2915114612 1.931858097 -6.9112159923 0.2915114612 1.931858097 -6.9112159923 0.2915114612 
1.931858097 -6.9112159923 0.2915114612 1.931858097 -6.9112159923 0.2915114612 1.931858097 -6.9112159923 0.2915114612 
1.931858097 -6.9112159923 0.2915114612 1.931858097 -6.9112159923 0.2915114612 1.931858097 -6.9112159923 0.2915114612 
1.931858097 -6.9112159923 0.2915114612 
