# vtk DataFile Version 4.1
Generated by LIGGGHTS
ASCII
DATASET POLYDATA
POINTS 100 float
-0.114347 -0.132206 0.0231073 -0.124401 -0.133128 0.0203863 -0.134398 -0.133425 0.0196676 
-0.120819 -0.1343 0.0312771 -0.107533 -0.131169 0.0310164 -0.129307 -0.135245 0.0292514 
-0.140144 -0.136155 0.0261827 -0.112579 -0.136011 0.0337726 -0.143232 -0.134477 0.018418 
-0.118342 -0.129441 0.013197 -0.126186 -0.137774 0.0369139 -0.136016 -0.137514 0.0316188 
-0.123861 -0.126184 0.0130725 -0.120673 -0.138706 0.039245 -0.129911 -0.12739 0.0139896 
-0.131979 -0.138648 0.0351548 -0.114282 -0.130263 0.0356926 -0.141293 -0.128113 0.0163758 
-0.113539 -0.134386 0.0127696 -0.146341 -0.137761 0.0231976 -0.117489 -0.138284 0.0151993 
-0.124721 -0.140053 0.0419812 -0.108805 -0.138794 0.0294018 -0.100798 -0.127425 0.0307534 
-0.103882 -0.132878 0.0248477 -0.119922 -0.124768 0.016915 -0.106812 -0.124675 0.0275028 
-0.1035 -0.125172 0.0326934 -0.128981 -0.140101 0.0410194 -0.12618 -0.128162 0.0287828 
-0.132113 -0.140054 0.039629 -0.105937 -0.136848 0.0356751 -0.129711 -0.13962 0.0152357 
-0.115688 -0.139295 0.0385522 -0.148524 -0.137169 0.0175784 -0.105887 -0.137542 0.0270942 
-0.136463 -0.139877 0.0367671 -0.116601 -0.135884 0.0386132 -0.14247 -0.139451 0.0313099 
-0.123756 -0.131059 0.0105594 -0.133462 -0.140167 0.0257765 -0.117279 -0.140746 0.0357525 
-0.11569 -0.127358 0.0326276 -0.114476 -0.140743 0.0294405 -0.142432 -0.130689 0.0230766 
-0.145692 -0.139179 0.0280195 -0.104095 -0.131578 0.0211497 -0.12683 -0.130387 0.0111713 
-0.135936 -0.14022 0.039791 -0.134583 -0.125844 0.0140084 -0.0454563 -0.104408 0.0221756 
-0.0554474 -0.105331 0.0192322 -0.0654253 -0.105641 0.0182959 -0.0520982 -0.106567 0.03019 
-0.0388159 -0.10341 0.0302367 -0.060539 -0.107515 0.0279754 -0.0713053 -0.108425 0.0246676 
-0.0439108 -0.108279 0.0328518 -0.0742288 -0.106701 0.016849 -0.0492411 -0.101586 0.0121995 
-0.0575791 -0.110087 0.035687 -0.0672936 -0.109811 0.0301825 -0.0547635 -0.0983386 0.0119769 
-0.0521164 -0.111025 0.0381305 -0.0608291 -0.0995613 0.0127553 -0.0633315 -0.110961 0.0337975 
-0.0456666 -0.102547 0.0347718 -0.072258 -0.100321 0.0148904 -0.044421 -0.106519 0.0118439 
-0.0774338 -0.110022 0.0215389 -0.0484144 -0.11044 0.0141624 -0.0562191 -0.112397 0.0407699 
-0.0400381 -0.111027 0.0285456 -0.0320846 -0.0996526 0.0301434 -0.0350295 -0.105072 0.0241373 
-0.0509109 -0.0969404 0.0159127 -0.0380327 -0.0968921 0.0267816 -0.0348326 -0.0974168 0.0320392 
-0.0604577 -0.112447 0.039716 -0.057417 -0.100423 0.0276203 -0.0635584 -0.112396 0.0382586 
-0.0373102 -0.109117 0.0348919 -0.0606316 -0.111799 0.0139262 -0.0471157 -0.1116 0.0375418 
-0.079496 -0.109398 0.0158778 -0.0370733 -0.109754 0.0263097 -0.0678468 -0.112208 0.0353046 
-0.0480368 -0.108191 0.0376051 -0.0737351 -0.111758 0.0297218 -0.0545944 -0.103196 0.0094352 
-0.0646085 -0.112422 0.0243797 -0.0486429 -0.113036 0.034699 -0.0470134 -0.0996251 0.031696 
-0.0457045 -0.112987 0.0284492 -0.0735366 -0.102943 0.0215482 -0.0768855 -0.111471 0.0263644 
-0.0351653 -0.103748 0.0204441 -0.0576819 -0.102534 0.00998483 -0.0673846 -0.11257 0.0383369 
-0.0655034 -0.0980246 0.0126832 
VERTICES 100 200
1 0 
1 1 
1 2 
1 3 
1 4 
1 5 
1 6 
1 7 
1 8 
1 9 
1 10 
1 11 
1 12 
1 13 
1 14 
1 15 
1 16 
1 17 
1 18 
1 19 
1 20 
1 21 
1 22 
1 23 
1 24 
1 25 
1 26 
1 27 
1 28 
1 29 
1 30 
1 31 
1 32 
1 33 
1 34 
1 35 
1 36 
1 37 
1 38 
1 39 
1 40 
1 41 
1 42 
1 43 
1 44 
1 45 
1 46 
1 47 
1 48 
1 49 
1 50 
1 51 
1 52 
1 53 
1 54 
1 55 
1 56 
1 57 
1 58 
1 59 
1 60 
1 61 
1 62 
1 63 
1 64 
1 65 
1 66 
1 67 
1 68 
1 69 
1 70 
1 71 
1 72 
1 73 
1 74 
1 75 
1 76 
1 77 
1 78 
1 79 
1 80 
1 81 
1 82 
1 83 
1 84 
1 85 
1 86 
1 87 
1 88 
1 89 
1 90 
1 91 
1 92 
1 93 
1 94 
1 95 
1 96 
1 97 
1 98 
1 99 

POINT_DATA 100
FIELD FieldData 7
id 1 100 int
1 2 3 4 5 6 7 8 9 
10 11 12 13 14 15 16 17 18 
19 20 21 22 23 24 25 26 27 
28 29 30 31 32 33 34 35 36 
37 38 39 40 41 42 43 44 45 
46 47 48 49 50 51 52 53 54 
55 56 57 58 59 60 61 62 63 
64 65 66 67 68 69 70 71 72 
73 74 75 76 77 78 79 80 81 
82 83 84 85 86 87 88 89 90 
91 92 93 94 95 96 97 98 99 
100 
mol 1 100 int
1 1 1 1 1 1 1 1 1 
1 1 1 1 1 1 1 1 1 
1 1 1 1 1 1 1 1 1 
1 1 1 1 1 1 1 1 1 
1 1 1 1 1 1 1 1 1 
1 1 1 1 1 2 2 2 2 
2 2 2 2 2 2 2 2 2 
2 2 2 2 2 2 2 2 2 
2 2 2 2 2 2 2 2 2 
2 2 2 2 2 2 2 2 2 
2 2 2 2 2 2 2 2 2 
2 
type 1 100 int
1 1 1 1 1 1 1 1 1 
1 1 1 1 1 1 1 1 1 
1 1 1 1 1 1 1 1 1 
1 1 1 1 1 1 1 1 1 
1 1 1 1 1 1 1 1 1 
1 1 1 1 1 1 1 1 1 
1 1 1 1 1 1 1 1 1 
1 1 1 1 1 1 1 1 1 
1 1 1 1 1 1 1 1 1 
1 1 1 1 1 1 1 1 1 
1 1 1 1 1 1 1 1 1 
1 
v 3 100 double
-0.12224190112 -0.062946949506 -0.097853120993 -0.10265929065 -0.061819151629 -0.17059201596 -0.097467225799 -0.064275758843 -0.24179818088 
-0.17921452048 -0.080088020135 -0.14737334361 -0.17854654086 -0.074633466479 -0.047806859044 -0.16453875321 -0.079624941949 -0.2090858075 
-0.14250282301 -0.078164840268 -0.28733848497 -0.19621531787 -0.081490477625 -0.092201106986 -0.088238153495 -0.065340262709 -0.30615085521 
-0.053216883504 -0.046598378926 -0.1211113798 -0.21776201687 -0.092253275837 -0.19157420907 -0.18042413141 -0.086405859689 -0.26060590879 
-0.053558577969 -0.048445303497 -0.15427039921 -0.23389232257 -0.094382933344 -0.15428158227 -0.059589963462 -0.052366846236 -0.19921038359 
-0.20499726561 -0.091259030331 -0.23410654718 -0.21194555948 -0.085587276026 -0.093892700768 -0.076188339115 -0.060934646354 -0.28097611304 
-0.048339648798 -0.044026753154 -0.096066543683 -0.12079600658 -0.075114288283 -0.33404492677 -0.06405442199 -0.04988427766 -0.13100727373 
-0.25273078723 -0.10082910967 -0.18532102981 -0.16427014095 -0.072203057591 -0.070534870049 -0.17809163312 -0.071632815042 0.0065468419727 
-0.13429406366 -0.06215436993 -0.025074272518 -0.08125524164 -0.053887116457 -0.12387035362 -0.15614308675 -0.068035530758 -0.031018492928 
-0.19265227217 -0.076140464298 -0.0084994459669 -0.24591287939 -0.10069554814 -0.21552764738 -0.16388356353 -0.077607829043 -0.17422481483 
-0.23610065403 -0.099366485929 -0.23758060375 -0.20935103183 -0.08242459796 -0.046755447413 -0.06381040465 -0.054535752746 -0.21981968159 
-0.22877325687 -0.091264514834 -0.12009498546 -0.081292102723 -0.065813799765 -0.34841121357 -0.14842628019 -0.066952420729 -0.047648440108 
-0.21593458414 -0.095845077907 -0.26802042071 -0.23048461474 -0.09171706211 -0.12040789141 -0.17751374676 -0.088271133332 -0.30971928525 
-0.033963048334 -0.043880079101 -0.16230469057 -0.13812510998 -0.07492609384 -0.24732653244 -0.20843589458 -0.086819519679 -0.13395507698 
-0.19136704593 -0.08059571917 -0.098612122297 -0.1638127532 -0.074400589379 -0.11413515314 -0.12259412098 -0.073429473196 -0.29367011395 
-0.15435335934 -0.083554224637 -0.33200544101 -0.10863821528 -0.055574700487 -0.024240216064 -0.03854061195 -0.046135197482 -0.18282431847 
-0.23718424191 -0.10109319271 -0.26491374712 -0.060302814238 -0.054153705525 -0.22945628071 -0.12127108764 -0.062570957829 -0.1460699607 
-0.10046682882 -0.061315617271 -0.2170803607 -0.093842328228 -0.063579974569 -0.2869248114 -0.17608727072 -0.079247319815 -0.19599083311 
-0.17764799879 -0.074126193367 -0.098198136927 -0.16033483982 -0.078664554826 -0.25627801917 -0.13700475301 -0.07707297971 -0.33265058436 
-0.19390339935 -0.080714578252 -0.14213369216 -0.083377879904 -0.064487543166 -0.34992865428 -0.053090528191 -0.046534052385 -0.16740000576 
-0.21288610017 -0.091047870834 -0.24023847921 -0.17476445467 -0.085186619786 -0.30722288843 -0.052816556767 -0.048306394445 -0.20005126249 
-0.22948971046 -0.093199162885 -0.20394483813 -0.05774382599 -0.052049465867 -0.24432530051 -0.19942093014 -0.089982985797 -0.28172386719 
-0.2094830915 -0.084774077064 -0.14426221395 -0.072274875247 -0.060276006598 -0.32503520593 -0.04868805112 -0.044021325098 -0.14258686476 
-0.11464953349 -0.073979233573 -0.37801976093 -0.063254886106 -0.049657286271 -0.17720624694 -0.24728284585 -0.099441406264 -0.23484963388 
-0.16291880584 -0.071635035815 -0.12006291526 -0.17847230493 -0.0713255729 -0.044848659697 -0.13463524421 -0.061931425191 -0.074818679532 
-0.080699162325 -0.053709032613 -0.17083824017 -0.15620507882 -0.067751729564 -0.081311395 -0.19251435013 -0.075731229732 -0.060007839809 
-0.23994370684 -0.099250941307 -0.26437470371 -0.16064692973 -0.076818005571 -0.22214020592 -0.22984148024 -0.097906158556 -0.28582125553 
-0.20774363979 -0.081711515624 -0.097762144532 -0.061081790374 -0.054028270074 -0.26444446294 -0.22517514139 -0.090206280433 -0.17022461104 
-0.075576761852 -0.064845360668 -0.39124567438 -0.14788905285 -0.066547149474 -0.097236011616 -0.20939912759 -0.094398421893 -0.3152749856 
-0.2269507909 -0.090678403244 -0.1706348085 -0.17080197799 -0.086900867766 -0.35538002176 -0.033260787816 -0.043776488178 -0.20740764792 
-0.1334397351 -0.073944123435 -0.29315928977 -0.20486934225 -0.085812250935 -0.18335249076 -0.18926584422 -0.079900116525 -0.14848409471 
-0.16148182464 -0.07368547203 -0.16285855266 -0.11748743503 -0.072468912571 -0.33851974402 -0.14759653775 -0.082238813311 -0.37675523382 
-0.10950350924 -0.05549878591 -0.073437759613 -0.03733759315 -0.045951185624 -0.22768764752 -0.23031760178 -0.099542635643 -0.31270094571 
-0.057845109175 -0.053753918069 -0.2740905967 
f 3 100 double
0 0 0 0 0 0 0 0 0 
0 0 0 0 0 0 0 0 0 
0 0 0 0 0 0 0 0 0 
0 0 0 0 0 0 0 0 0 
0 0 0 0 0 0 0 0 0 
0 0 0 0 0 0 0 0 0 
0 0 0 0 0 0 0 0 0 
0 0 0 0 0 0 0 0 0 
0 0 0 0 0 0 0 0 0 
0 0 0 0 0 0 0 0 0 
0 0 0 0 0 0 0 0 0 
0 0 0 0 0 0 0 0 0 
0 0 0 0 0 0 0 0 0 
0 0 0 0 0 0 0 0 0 
0 0 0 0 0 0 0 0 0 
0 0 0 0 0 0 0 0 0 
0 0 0 0 0 0 0 0 0 
0 0 0 0 0 0 0 0 0 
0 0 0 0 0 0 0 0 0 
0 0 0 0 0 0 0 0 0 
0 0 0 0 0 0 0 0 0 
0 0 0 0 0 0 0 0 0 
0 0 0 0 0 0 0 0 0 
0 0 0 0 0 0 0 0 0 
0 0 0 0 0 0 0 0 0 
0 0 0 0 0 0 0 0 0 
0 0 0 0 0 0 0 0 0 
0 0 0 0 0 0 0 0 0 
0 0 0 0 0 0 0 0 0 
0 0 0 0 0 0 0 0 0 
0 0 0 0 0 0 0 0 0 
0 0 0 0 0 0 0 0 0 
0 0 0 0 0 0 0 0 0 
0 0 0 
radius 1 100 double
0.010434 0.00981478 0.00892069 0.00845937 0.00731974 0.00728422 0.00643447 0.00619172 0.00585956 
0.00577566 0.00537241 0.00522549 0.00513666 0.00473175 0.00466912 0.00444866 0.00441894 0.00400812 
0.00385622 0.00379948 0.00370243 0.00366942 0.00364039 0.00363813 0.00363644 0.00358692 0.0035797 
0.00341284 0.00337012 0.00336273 0.00332772 0.00323261 0.00320584 0.00320311 0.00318808 0.00313116 
0.00306026 0.00305632 0.00304383 0.00300958 0.00300137 0.00298994 0.0029567 0.00295111 0.00290849 
0.00284552 0.00282964 0.0028207 0.00281971 0.00281899 0.010434 0.00981478 0.00892069 0.00845937 
0.00731974 0.00728422 0.00643447 0.00619172 0.00585956 0.00577566 0.00537241 0.00522549 0.00513666 
0.00473175 0.00466912 0.00444866 0.00441894 0.00400812 0.00385622 0.00379948 0.00370243 0.00366942 
0.00364039 0.00363813 0.00363644 0.00358692 0.0035797 0.00341284 0.00337012 0.00336273 0.00332772 
0.00323261 0.00320584 0.00320311 0.00318808 0.00313116 0.00306026 0.00305632 0.00304383 0.00300958 
0.00300137 0.00298994 0.0029567 0.00295111 0.00290849 0.00284552 0.00282964 0.0028207 0.00281971 
0.00281899 
omega 3 100 double
1.8008891501 -7.0697004007 0.3752176555 1.8008891501 -7.0697004007 0.3752176555 1.8008891501 -7.0697004007 0.3752176555 
1.8008891501 -7.0697004007 0.3752176555 1.8008891501 -7.0697004007 0.3752176555 1.8008891501 -7.0697004007 0.3752176555 
1.8008891501 -7.0697004007 0.3752176555 1.8008891501 -7.0697004007 0.3752176555 1.8008891501 -7.0697004007 0.3752176555 
1.8008891501 -7.0697004007 0.3752176555 1.8008891501 -7.0697004007 0.3752176555 1.8008891501 -7.0697004007 0.3752176555 
1.8008891501 -7.0697004007 0.3752176555 1.8008891501 -7.0697004007 0.3752176555 1.8008891501 -7.0697004007 0.3752176555 
1.8008891501 -7.0697004007 0.3752176555 1.8008891501 -7.0697004007 0.3752176555 1.8008891501 -7.0697004007 0.3752176555 
1.8008891501 -7.0697004007 0.3752176555 1.8008891501 -7.0697004007 0.3752176555 1.8008891501 -7.0697004007 0.3752176555 
1.8008891501 -7.0697004007 0.3752176555 1.8008891501 -7.0697004007 0.3752176555 1.8008891501 -7.0697004007 0.3752176555 
1.8008891501 -7.0697004007 0.3752176555 1.8008891501 -7.0697004007 0.3752176555 1.8008891501 -7.0697004007 0.3752176555 
1.8008891501 -7.0697004007 0.3752176555 1.8008891501 -7.0697004007 0.3752176555 1.8008891501 -7.0697004007 0.3752176555 
1.8008891501 -7.0697004007 0.3752176555 1.8008891501 -7.0697004007 0.3752176555 1.8008891501 -7.0697004007 0.3752176555 
1.8008891501 -7.0697004007 0.3752176555 1.8008891501 -7.0697004007 0.3752176555 1.8008891501 -7.0697004007 0.3752176555 
1.8008891501 -7.0697004007 0.3752176555 1.8008891501 -7.0697004007 0.3752176555 1.8008891501 -7.0697004007 0.3752176555 
1.8008891501 -7.0697004007 0.3752176555 1.8008891501 -7.0697004007 0.3752176555 1.8008891501 -7.0697004007 0.3752176555 
1.8008891501 -7.0697004007 0.3752176555 1.8008891501 -7.0697004007 0.3752176555 1.8008891501 -7.0697004007 0.3752176555 
1.8008891501 -7.0697004007 0.3752176555 1.8008891501 -7.0697004007 0.3752176555 1.8008891501 -7.0697004007 0.3752176555 
1.8008891501 -7.0697004007 0.3752176555 1.8008891501 -7.0697004007 0.3752176555 1.7561521653 -6.9452203202 0.3917289219 
1.7561521653 -6.9452203202 0.3917289219 1.7561521653 -6.9452203202 0.3917289219 1.7561521653 -6.9452203202 0.3917289219 
1.7561521653 -6.9452203202 0.3917289219 1.7561521653 -6.9452203202 0.3917289219 1.7561521653 -6.9452203202 0.3917289219 
1.7561521653 -6.9452203202 0.3917289219 1.7561521653 -6.9452203202 0.3917289219 1.7561521653 -6.9452203202 0.3917289219 
1.7561521653 -6.9452203202 0.3917289219 1.7561521653 -6.9452203202 0.3917289219 1.7561521653 -6.9452203202 0.3917289219 
1.7561521653 -6.9452203202 0.3917289219 1.7561521653 -6.9452203202 0.3917289219 1.7561521653 -6.9452203202 0.3917289219 
1.7561521653 -6.9452203202 0.3917289219 1.7561521653 -6.9452203202 0.3917289219 1.7561521653 -6.9452203202 0.3917289219 
1.7561521653 -6.9452203202 0.3917289219 1.7561521653 -6.9452203202 0.3917289219 1.7561521653 -6.9452203202 0.3917289219 
1.7561521653 -6.9452203202 0.3917289219 1.7561521653 -6.9452203202 0.3917289219 1.7561521653 -6.9452203202 0.3917289219 
1.7561521653 -6.9452203202 0.3917289219 1.7561521653 -6.9452203202 0.3917289219 1.7561521653 -6.9452203202 0.3917289219 
1.7561521653 -6.9452203202 0.3917289219 1.7561521653 -6.9452203202 0.3917289219 1.7561521653 -6.9452203202 0.3917289219 
1.7561521653 -6.9452203202 0.3917289219 1.7561521653 -6.9452203202 0.3917289219 1.7561521653 -6.9452203202 0.3917289219 
1.7561521653 -6.9452203202 0.3917289219 1.7561521653 -6.9452203202 0.3917289219 1.7561521653 -6.9452203202 0.3917289219 
1.7561521653 -6.9452203202 0.3917289219 1.7561521653 -6.9452203202 0.3917289219 1.7561521653 -6.9452203202 0.3917289219 
1.7561521653 -6.9452203202 0.3917289219 1.7561521653 -6.9452203202 0.3917289219 1.7561521653 -6.9452203202 0.3917289219 
1.7561521653 -6.9452203202 0.3917289219 1.7561521653 -6.9452203202 0.3917289219 1.7561521653 -6.9452203202 0.3917289219 
1.7561521653 -6.9452203202 0.3917289219 1.7561521653 -6.9452203202 0.3917289219 1.7561521653 -6.9452203202 0.3917289219 
1.7561521653 -6.9452203202 0.3917289219 
