# vtk DataFile Version 4.1
Generated by LIGGGHTS
ASCII
DATASET POLYDATA
POINTS 100 float
-0.110031 -0.129879 0.0198505 -0.120446 -0.130792 0.0199527 -0.130277 -0.130939 0.0219183 
-0.114113 -0.131243 0.0295705 -0.101367 -0.128408 0.0255827 -0.122835 -0.132161 0.0299306 
-0.134098 -0.133072 0.029904 -0.105507 -0.132934 0.0299279 -0.139128 -0.1319 0.0231241 
-0.116501 -0.12776 0.011164 -0.117801 -0.134189 0.0366677 -0.128681 -0.134116 0.0341465 
-0.121857 -0.12441 0.0122536 -0.111868 -0.135061 0.037527 -0.127449 -0.125423 0.0148207 
-0.123853 -0.135071 0.0365685 -0.106641 -0.127029 0.0317902 -0.137796 -0.125742 0.0201694 
-0.111984 -0.132819 0.00985999 -0.140865 -0.134765 0.0287873 -0.115152 -0.136449 0.0135311 
-0.115049 -0.136124 0.0413265 -0.103024 -0.136103 0.0249396 -0.0949407 -0.12483 0.0232729 
-0.0994774 -0.130633 0.0188168 -0.117042 -0.122799 0.0148041 -0.101599 -0.122202 0.0215245 
-0.0970334 -0.122388 0.0256809 -0.119412 -0.136155 0.0415279 -0.119941 -0.125195 0.0281223 
-0.1228 -0.136146 0.0410124 -0.098599 -0.133765 0.0300704 -0.12693 -0.137532 0.0168877 
-0.107243 -0.135799 0.0355912 -0.144455 -0.134539 0.023914 -0.100819 -0.135081 0.021857 
-0.127752 -0.136089 0.0393934 -0.108107 -0.132375 0.0356335 -0.134987 -0.13594 0.0356961 
-0.122421 -0.129455 0.0101763 -0.127763 -0.137237 0.0280547 -0.109518 -0.137417 0.0334273 
-0.108807 -0.124326 0.0289947 -0.108483 -0.137929 0.0266182 -0.137124 -0.127801 0.0271079 
-0.138964 -0.135842 0.0333602 -0.10066 -0.129601 0.0152187 -0.125224 -0.128679 0.0115241 
-0.126445 -0.136223 0.0421886 -0.13195 -0.123787 0.0159536 -0.0411674 -0.102094 0.0207394 
-0.0515816 -0.103015 0.0205602 -0.0614607 -0.103183 0.0222654 -0.0455026 -0.103542 0.0303371 
-0.0326591 -0.100666 0.0267094 -0.0542305 -0.104468 0.0304601 -0.065488 -0.105386 0.0301298 
-0.0369076 -0.10523 0.0309064 -0.0703396 -0.10416 0.02323 -0.0474093 -0.0999065 0.0119039 
-0.049373 -0.106549 0.03731 -0.0601835 -0.106462 0.0345043 -0.0527946 -0.0965688 0.0128803 
-0.0434646 -0.107425 0.0383176 -0.0584517 -0.0976072 0.015291 -0.0554202 -0.107435 0.0370444 
-0.0380949 -0.0993418 0.0327875 -0.0689346 -0.0979765 0.020363 -0.0428554 -0.104952 0.0106768 
-0.0722215 -0.107074 0.0288216 -0.0461158 -0.108614 0.0142329 -0.0467429 -0.108522 0.0420232 
-0.0342913 -0.108356 0.0259588 -0.0261769 -0.0970645 0.0245993 -0.0305901 -0.102833 0.0199771 
-0.0480493 -0.094976 0.0155699 -0.0327895 -0.094426 0.0226986 -0.0283343 -0.0946437 0.0269719 
-0.0511099 -0.108558 0.0421095 -0.0512962 -0.0974852 0.0287867 -0.0544827 -0.108546 0.0415053 
-0.0300051 -0.106059 0.0312234 -0.0579771 -0.109733 0.0172696 -0.0387896 -0.108144 0.0364979 
-0.0756827 -0.106809 0.0238576 -0.0320071 -0.107306 0.0229438 -0.059391 -0.108479 0.0397572 
-0.0396569 -0.10472 0.0365462 -0.0665268 -0.108303 0.0358724 -0.0532997 -0.101597 0.0107468 
-0.0591026 -0.109532 0.0284129 -0.0410052 -0.109745 0.0342615 -0.0401896 -0.0966173 0.0299587 
-0.0397914 -0.1102 0.0274779 -0.0684439 -0.100094 0.0272993 -0.0704408 -0.108188 0.0334336 
-0.0316785 -0.101772 0.016358 -0.0561373 -0.100833 0.0120269 -0.0581575 -0.108635 0.0425845 
-0.0629816 -0.0959828 0.0163188 
VERTICES 100 200
1 0 
1 1 
1 2 
1 3 
1 4 
1 5 
1 6 
1 7 
1 8 
1 9 
1 10 
1 11 
1 12 
1 13 
1 14 
1 15 
1 16 
1 17 
1 18 
1 19 
1 20 
1 21 
1 22 
1 23 
1 24 
1 25 
1 26 
1 27 
1 28 
1 29 
1 30 
1 31 
1 32 
1 33 
1 34 
1 35 
1 36 
1 37 
1 38 
1 39 
1 40 
1 41 
1 42 
1 43 
1 44 
1 45 
1 46 
1 47 
1 48 
1 49 
1 50 
1 51 
1 52 
1 53 
1 54 
1 55 
1 56 
1 57 
1 58 
1 59 
1 60 
1 61 
1 62 
1 63 
1 64 
1 65 
1 66 
1 67 
1 68 
1 69 
1 70 
1 71 
1 72 
1 73 
1 74 
1 75 
1 76 
1 77 
1 78 
1 79 
1 80 
1 81 
1 82 
1 83 
1 84 
1 85 
1 86 
1 87 
1 88 
1 89 
1 90 
1 91 
1 92 
1 93 
1 94 
1 95 
1 96 
1 97 
1 98 
1 99 

POINT_DATA 100
FIELD FieldData 7
id 1 100 int
1 2 3 4 5 6 7 8 9 
10 11 12 13 14 15 16 17 18 
19 20 21 22 23 24 25 26 27 
28 29 30 31 32 33 34 35 36 
37 38 39 40 41 42 43 44 45 
46 47 48 49 50 51 52 53 54 
55 56 57 58 59 60 61 62 63 
64 65 66 67 68 69 70 71 72 
73 74 75 76 77 78 79 80 81 
82 83 84 85 86 87 88 89 90 
91 92 93 94 95 96 97 98 99 
100 
mol 1 100 int
1 1 1 1 1 1 1 1 1 
1 1 1 1 1 1 1 1 1 
1 1 1 1 1 1 1 1 1 
1 1 1 1 1 1 1 1 1 
1 1 1 1 1 1 1 1 1 
1 1 1 1 1 2 2 2 2 
2 2 2 2 2 2 2 2 2 
2 2 2 2 2 2 2 2 2 
2 2 2 2 2 2 2 2 2 
2 2 2 2 2 2 2 2 2 
2 2 2 2 2 2 2 2 2 
2 
type 1 100 int
1 1 1 1 1 1 1 1 1 
1 1 1 1 1 1 1 1 1 
1 1 1 1 1 1 1 1 1 
1 1 1 1 1 1 1 1 1 
1 1 1 1 1 1 1 1 1 
1 1 1 1 1 1 1 1 1 
1 1 1 1 1 1 1 1 1 
1 1 1 1 1 1 1 1 1 
1 1 1 1 1 1 1 1 1 
1 1 1 1 1 1 1 1 1 
1 1 1 1 1 1 1 1 1 
1 
v 3 100 double
-0.10528209902 -0.059612625457 0.26844679571 -0.10587863011 -0.061194004476 0.19353279422 -0.11963209909 -0.066640497759 0.12434077881 
-0.17320906831 -0.080709134775 0.23695731682 -0.14563864923 -0.070602860971 0.33225830551 -0.17561169981 -0.082613979762 0.1739012195 
-0.17530544472 -0.084033715399 0.09305773716 -0.17549143349 -0.080337204115 0.29367879869 -0.1279543646 -0.070351102705 0.060290688165 
-0.044696523074 -0.042085773614 0.22758996025 -0.22255061663 -0.09620547549 0.20488709798 -0.20489458906 -0.092298156894 0.12880545134 
-0.052769881128 -0.045092518425 0.1971515321 -0.22845738503 -0.097245754001 0.24460885295 -0.070624013292 -0.051255823189 0.1558233467 
-0.22174022704 -0.096789001521 0.16061141194 -0.18931409601 -0.084425260358 0.29822697435 -0.10805919386 -0.063926273221 0.082657593318 
-0.034896315831 -0.038735207596 0.24853782153 -0.16725977866 -0.082558510771 0.042065453772 -0.060142797707 -0.046916095593 0.21866120026 
-0.25494011819 -0.10569994186 0.2200746198 -0.14012467142 -0.069459712076 0.30437579955 -0.12992340328 -0.064874480677 0.38485692247 
-0.097940348704 -0.056042854244 0.34079342908 -0.070851758185 -0.049856670452 0.23429928103 -0.11801770469 -0.062048797293 0.34376110589 
-0.14711615056 -0.070242699646 0.37535996996 -0.25634701963 -0.1066977906 0.18943622121 -0.16385430996 -0.078409472656 0.20891241705 
-0.25273626801 -0.10605129069 0.16572070674 -0.17638044827 -0.079733116179 0.34032276644 -0.08351971028 -0.05556022285 0.13384423247 
-0.21479687917 -0.092544617842 0.27545377193 -0.13314353221 -0.07272023336 0.017388504839 -0.11865969669 -0.062649891725 0.32198784071 
-0.2413996679 -0.10327554362 0.13114057536 -0.21554240054 -0.092747381845 0.27664662702 -0.21551355196 -0.096402749386 0.080761415992 
-0.037553515598 -0.040772187703 0.18252641695 -0.1618019785 -0.079291417694 0.1286378353 -0.19942311623 -0.088265350783 0.25609293582 
-0.17008097061 -0.078795721601 0.28876235064 -0.15164630069 -0.073725925892 0.26226049059 -0.15640516721 -0.078515644441 0.083006145881 
-0.19915929879 -0.091982653671 0.053104168725 -0.072864708492 -0.048586548597 0.33469056474 -0.04709878717 -0.04399051859 0.16453327957 
-0.26096704753 -0.10901697715 0.14001810347 -0.078776248947 -0.054242085111 0.12775304992 -0.10475054007 -0.059310671214 0.22087858735 
-0.10336348444 -0.060675530896 0.14729222589 -0.11507262699 -0.065850742406 0.078945617787 -0.17056952872 -0.079893536247 0.18804306805 
-0.14607981383 -0.070246253394 0.28239593086 -0.17126178878 -0.081602737874 0.12605227428 -0.1688353183 -0.08279551238 0.046667602823 
-0.17420650395 -0.079639072217 0.24370710152 -0.1215491363 -0.069326600122 0.015811539932 -0.044300885843 -0.042067879792 0.18244129438 
-0.21806233553 -0.094967510206 0.1551795831 -0.19876574137 -0.090963580295 0.08095231207 -0.051577606444 -0.044985852705 0.15228154914 
-0.22485194241 -0.096067848905 0.19403563904 -0.0679970345 -0.050917059754 0.11119540913 -0.21608682033 -0.095425825901 0.11172506538 
-0.18813598874 -0.083729627006 0.24772096705 -0.10284634862 -0.063159799024 0.038277770614 -0.035013771488 -0.03876959985 0.20334644657 
-0.15954982681 -0.081210741463 -0.0031706161338 -0.058879628243 -0.046671537106 0.17332628344 -0.25017444245 -0.1042821536 0.16920064123 
-0.1396314923 -0.068965026586 0.25524736004 -0.13215625746 -0.064799476977 0.33446413888 -0.099380868467 -0.05597048843 0.29215172175 
-0.070355303246 -0.049760472362 0.18823887849 -0.11951341505 -0.061968444959 0.29440968922 -0.148889972 -0.070068554408 0.3246243141 
-0.25076287935 -0.10518869272 0.13906871679 -0.16090806705 -0.077651053062 0.1606987708 -0.24660567462 -0.10450043173 0.11587783002 
-0.17625035355 -0.079144591925 0.28950353849 -0.079594764956 -0.054932265966 0.089370788517 -0.21220723086 -0.091523219583 0.2247251485 
-0.12542745839 -0.071515803773 -0.026445150891 -0.1190547552 -0.062345542103 0.273141997 -0.23458477308 -0.10170114976 0.082233969821 
-0.2131099599 -0.091767630307 0.22583955948 -0.20787531605 -0.094851719974 0.03348320229 -0.036054661127 -0.040655167041 0.1384006624 
-0.15632703289 -0.078178513691 0.082039597161 -0.19654749627 -0.087264806771 0.20616125431 -0.16911955432 -0.078225155343 0.23894057337 
-0.1497803435 -0.073025227707 0.21357582292 -0.15023551018 -0.077431138551 0.037274204709 -0.19110877289 -0.090457637885 0.0067803797552 
-0.074647025295 -0.048662758177 0.28685606805 -0.044992771447 -0.043776982472 0.12044993768 -0.25401921283 -0.10734613786 0.090401193109 
-0.075342331299 -0.053798944499 0.083377428907 
f 3 100 double
0 0 0 0 0 0 0 0 0 
0 0 0 0 0 0 0 0 0 
0 0 0 0 0 0 0 0 0 
0 0 0 0 0 0 0 0 0 
0 0 0 0 0 0 0 0 0 
0 0 0 0 0 0 0 0 0 
0 0 0 0 0 0 0 0 0 
0 0 0 0 0 0 0 0 0 
0 0 0 0 0 0 0 0 0 
0 0 0 0 0 0 0 0 0 
0 0 0 0 0 0 0 0 0 
0 0 0 0 0 0 0 0 0 
0 0 0 0 0 0 0 0 0 
0 0 0 0 0 0 0 0 0 
0 0 0 0 0 0 0 0 0 
0 0 0 0 0 0 0 0 0 
0 0 0 0 0 0 0 0 0 
0 0 0 0 0 0 0 0 0 
0 0 0 0 0 0 0 0 0 
0 0 0 0 0 0 0 0 0 
0 0 0 0 0 0 0 0 0 
0 0 0 0 0 0 0 0 0 
0 0 0 0 0 0 0 0 0 
0 0 0 0 0 0 0 0 0 
0 0 0 0 0 0 0 0 0 
0 0 0 0 0 0 0 0 0 
0 0 0 0 0 0 0 0 0 
0 0 0 0 0 0 0 0 0 
0 0 0 0 0 0 0 0 0 
0 0 0 0 0 0 0 0 0 
0 0 0 0 0 0 0 0 0 
0 0 0 0 0 0 0 0 0 
0 0 0 0 0 0 0 0 0 
0 0 0 
radius 1 100 double
0.010434 0.00981478 0.00892069 0.00845937 0.00731974 0.00728422 0.00643447 0.00619172 0.00585956 
0.00577566 0.00537241 0.00522549 0.00513666 0.00473175 0.00466912 0.00444866 0.00441894 0.00400812 
0.00385622 0.00379948 0.00370243 0.00366942 0.00364039 0.00363813 0.00363644 0.00358692 0.0035797 
0.00341284 0.00337012 0.00336273 0.00332772 0.00323261 0.00320584 0.00320311 0.00318808 0.00313116 
0.00306026 0.00305632 0.00304383 0.00300958 0.00300137 0.00298994 0.0029567 0.00295111 0.00290849 
0.00284552 0.00282964 0.0028207 0.00281971 0.00281899 0.010434 0.00981478 0.00892069 0.00845937 
0.00731974 0.00728422 0.00643447 0.00619172 0.00585956 0.00577566 0.00537241 0.00522549 0.00513666 
0.00473175 0.00466912 0.00444866 0.00441894 0.00400812 0.00385622 0.00379948 0.00370243 0.00366942 
0.00364039 0.00363813 0.00363644 0.00358692 0.0035797 0.00341284 0.00337012 0.00336273 0.00332772 
0.00323261 0.00320584 0.00320311 0.00318808 0.00313116 0.00306026 0.00305632 0.00304383 0.00300958 
0.00300137 0.00298994 0.0029567 0.00295111 0.00290849 0.00284552 0.00282964 0.0028207 0.00281971 
0.00281899 
omega 3 100 double
2.1153602387 -7.0067082507 0.13106205877 2.1153602387 -7.0067082507 0.13106205877 2.1153602387 -7.0067082507 0.13106205877 
2.1153602387 -7.0067082507 0.13106205877 2.1153602387 -7.0067082507 0.13106205877 2.1153602387 -7.0067082507 0.13106205877 
2.1153602387 -7.0067082507 0.13106205877 2.1153602387 -7.0067082507 0.13106205877 2.1153602387 -7.0067082507 0.13106205877 
2.1153602387 -7.0067082507 0.13106205877 2.1153602387 -7.0067082507 0.13106205877 2.1153602387 -7.0067082507 0.13106205877 
2.1153602387 -7.0067082507 0.13106205877 2.1153602387 -7.0067082507 0.13106205877 2.1153602387 -7.0067082507 0.13106205877 
2.1153602387 -7.0067082507 0.13106205877 2.1153602387 -7.0067082507 0.13106205877 2.1153602387 -7.0067082507 0.13106205877 
2.1153602387 -7.0067082507 0.13106205877 2.1153602387 -7.0067082507 0.13106205877 2.1153602387 -7.0067082507 0.13106205877 
2.1153602387 -7.0067082507 0.13106205877 2.1153602387 -7.0067082507 0.13106205877 2.1153602387 -7.0067082507 0.13106205877 
2.1153602387 -7.0067082507 0.13106205877 2.1153602387 -7.0067082507 0.13106205877 2.1153602387 -7.0067082507 0.13106205877 
2.1153602387 -7.0067082507 0.13106205877 2.1153602387 -7.0067082507 0.13106205877 2.1153602387 -7.0067082507 0.13106205877 
2.1153602387 -7.0067082507 0.13106205877 2.1153602387 -7.0067082507 0.13106205877 2.1153602387 -7.0067082507 0.13106205877 
2.1153602387 -7.0067082507 0.13106205877 2.1153602387 -7.0067082507 0.13106205877 2.1153602387 -7.0067082507 0.13106205877 
2.1153602387 -7.0067082507 0.13106205877 2.1153602387 -7.0067082507 0.13106205877 2.1153602387 -7.0067082507 0.13106205877 
2.1153602387 -7.0067082507 0.13106205877 2.1153602387 -7.0067082507 0.13106205877 2.1153602387 -7.0067082507 0.13106205877 
2.1153602387 -7.0067082507 0.13106205877 2.1153602387 -7.0067082507 0.13106205877 2.1153602387 -7.0067082507 0.13106205877 
2.1153602387 -7.0067082507 0.13106205877 2.1153602387 -7.0067082507 0.13106205877 2.1153602387 -7.0067082507 0.13106205877 
2.1153602387 -7.0067082507 0.13106205877 2.1153602387 -7.0067082507 0.13106205877 2.0692842156 -6.8829492756 0.16666773639 
2.0692842156 -6.8829492756 0.16666773639 2.0692842156 -6.8829492756 0.16666773639 2.0692842156 -6.8829492756 0.16666773639 
2.0692842156 -6.8829492756 0.16666773639 2.0692842156 -6.8829492756 0.16666773639 2.0692842156 -6.8829492756 0.16666773639 
2.0692842156 -6.8829492756 0.16666773639 2.0692842156 -6.8829492756 0.16666773639 2.0692842156 -6.8829492756 0.16666773639 
2.0692842156 -6.8829492756 0.16666773639 2.0692842156 -6.8829492756 0.16666773639 2.0692842156 -6.8829492756 0.16666773639 
2.0692842156 -6.8829492756 0.16666773639 2.0692842156 -6.8829492756 0.16666773639 2.0692842156 -6.8829492756 0.16666773639 
2.0692842156 -6.8829492756 0.16666773639 2.0692842156 -6.8829492756 0.16666773639 2.0692842156 -6.8829492756 0.16666773639 
2.0692842156 -6.8829492756 0.16666773639 2.0692842156 -6.8829492756 0.16666773639 2.0692842156 -6.8829492756 0.16666773639 
2.0692842156 -6.8829492756 0.16666773639 2.0692842156 -6.8829492756 0.16666773639 2.0692842156 -6.8829492756 0.16666773639 
2.0692842156 -6.8829492756 0.16666773639 2.0692842156 -6.8829492756 0.16666773639 2.0692842156 -6.8829492756 0.16666773639 
2.0692842156 -6.8829492756 0.16666773639 2.0692842156 -6.8829492756 0.16666773639 2.0692842156 -6.8829492756 0.16666773639 
2.0692842156 -6.8829492756 0.16666773639 2.0692842156 -6.8829492756 0.16666773639 2.0692842156 -6.8829492756 0.16666773639 
2.0692842156 -6.8829492756 0.16666773639 2.0692842156 -6.8829492756 0.16666773639 2.0692842156 -6.8829492756 0.16666773639 
2.0692842156 -6.8829492756 0.16666773639 2.0692842156 -6.8829492756 0.16666773639 2.0692842156 -6.8829492756 0.16666773639 
2.0692842156 -6.8829492756 0.16666773639 2.0692842156 -6.8829492756 0.16666773639 2.0692842156 -6.8829492756 0.16666773639 
2.0692842156 -6.8829492756 0.16666773639 2.0692842156 -6.8829492756 0.16666773639 2.0692842156 -6.8829492756 0.16666773639 
2.0692842156 -6.8829492756 0.16666773639 2.0692842156 -6.8829492756 0.16666773639 2.0692842156 -6.8829492756 0.16666773639 
2.0692842156 -6.8829492756 0.16666773639 
