# vtk DataFile Version 4.1
Generated by LIGGGHTS
ASCII
DATASET POLYDATA
POINTS 100 float
-0.120185 -0.139839 0.0173775 -0.12931 -0.13895 0.0123506 -0.138848 -0.138081 0.00938113 
-0.128462 -0.1437 0.0228166 -0.115444 -0.141891 0.026509 -0.136235 -0.14319 0.01877 
-0.146037 -0.142111 0.0132529 -0.121093 -0.146848 0.0263998 -0.147144 -0.137876 0.00593988 
-0.121637 -0.133837 0.00822962 -0.135088 -0.148204 0.0257267 -0.143358 -0.145434 0.0187494 
-0.126904 -0.130196 0.00792507 -0.130312 -0.150309 0.0288013 -0.133019 -0.131054 0.00704989 
-0.140307 -0.147959 0.0225449 -0.123098 -0.141821 0.0296149 -0.144653 -0.131402 0.00650235 
-0.116966 -0.138845 0.00733134 -0.151369 -0.14215 0.0086192 -0.121455 -0.142909 0.00746306 
-0.134922 -0.15204 0.030002 -0.116436 -0.148513 0.0223219 -0.108773 -0.138889 0.0289433 
-0.110455 -0.14198 0.0210863 -0.123974 -0.130387 0.0127896 -0.113781 -0.134734 0.0254858 
-0.111818 -0.137089 0.0308485 -0.138828 -0.151396 0.0281568 -0.132954 -0.136622 0.0212745 
-0.141534 -0.150637 0.0261963 -0.115118 -0.148839 0.0293591 -0.133354 -0.143048 0.004368 
-0.125318 -0.151122 0.0290792 -0.152131 -0.139681 0.00314113 -0.113027 -0.146897 0.0212365 
-0.145069 -0.149195 0.02265 -0.126155 -0.147821 0.0300143 -0.149585 -0.146576 0.0164223 
-0.126292 -0.134066 0.00408602 -0.139529 -0.146416 0.0130857 -0.126219 -0.151501 0.0256851 
-0.123676 -0.138005 0.0273971 -0.121987 -0.149844 0.0204849 -0.147411 -0.135772 0.0116138 
-0.151919 -0.145019 0.0127608 -0.109752 -0.139605 0.0180404 -0.12941 -0.133328 0.00418295 
-0.145288 -0.150488 0.0254467 -0.13753 -0.129158 0.00652289 -0.0515248 -0.111703 0.0168729 
-0.0607805 -0.110907 0.0120733 -0.070407 -0.110346 0.00932577 -0.0594564 -0.116539 0.0220406 
-0.0464992 -0.114295 0.0257099 -0.0673209 -0.116129 0.0181636 -0.0772723 -0.115141 0.0129027 
-0.0518486 -0.119553 0.0252166 -0.0787651 -0.110325 0.00603025 -0.0535005 -0.104984 0.00834233 
-0.0657492 -0.121682 0.0246084 -0.0742985 -0.118787 0.0180304 -0.0589775 -0.101655 0.00844808 
-0.0608008 -0.12377 0.0274098 -0.0650469 -0.102795 0.00757927 -0.0710331 -0.121461 0.0215336 
-0.0540843 -0.114973 0.0289113 -0.0766478 -0.103792 0.00715803 -0.0485613 -0.109597 0.00692017 
-0.0826793 -0.115075 0.00835745 -0.0528004 -0.11392 0.00673407 -0.0652768 -0.125878 0.0285064 
-0.0471795 -0.120553 0.0209394 -0.0399712 -0.111133 0.0283226 -0.0416175 -0.113584 0.0202358 
-0.0559491 -0.102114 0.013234 -0.0452795 -0.106987 0.0253335 -0.0430803 -0.109703 0.0304275 
-0.0692486 -0.125304 0.0267816 -0.064385 -0.109633 0.021223 -0.0720311 -0.124533 0.0249365 
-0.045711 -0.121443 0.0278976 -0.0647263 -0.11449 0.00379963 -0.0557627 -0.124303 0.0275438 
-0.0836892 -0.112162 0.0031432 -0.0438927 -0.118641 0.0199631 -0.0757112 -0.122987 0.0215873 
-0.0567744 -0.121157 0.0287927 -0.0804908 -0.120083 0.0156912 -0.0582119 -0.105111 0.00425833 
-0.070527 -0.119011 0.012249 -0.0567043 -0.124421 0.0241417 -0.0549273 -0.111011 0.0270654 
-0.0526762 -0.122041 0.0190614 -0.0790477 -0.108772 0.0118781 -0.0829816 -0.11834 0.0122217 
-0.0411131 -0.110902 0.0174144 -0.0613651 -0.104574 0.00446529 -0.0758009 -0.124542 0.0242546 
-0.0696702 -0.101135 0.00729123 
VERTICES 100 200
1 0 
1 1 
1 2 
1 3 
1 4 
1 5 
1 6 
1 7 
1 8 
1 9 
1 10 
1 11 
1 12 
1 13 
1 14 
1 15 
1 16 
1 17 
1 18 
1 19 
1 20 
1 21 
1 22 
1 23 
1 24 
1 25 
1 26 
1 27 
1 28 
1 29 
1 30 
1 31 
1 32 
1 33 
1 34 
1 35 
1 36 
1 37 
1 38 
1 39 
1 40 
1 41 
1 42 
1 43 
1 44 
1 45 
1 46 
1 47 
1 48 
1 49 
1 50 
1 51 
1 52 
1 53 
1 54 
1 55 
1 56 
1 57 
1 58 
1 59 
1 60 
1 61 
1 62 
1 63 
1 64 
1 65 
1 66 
1 67 
1 68 
1 69 
1 70 
1 71 
1 72 
1 73 
1 74 
1 75 
1 76 
1 77 
1 78 
1 79 
1 80 
1 81 
1 82 
1 83 
1 84 
1 85 
1 86 
1 87 
1 88 
1 89 
1 90 
1 91 
1 92 
1 93 
1 94 
1 95 
1 96 
1 97 
1 98 
1 99 

POINT_DATA 100
FIELD FieldData 7
id 1 100 int
1 2 3 4 5 6 7 8 9 
10 11 12 13 14 15 16 17 18 
19 20 21 22 23 24 25 26 27 
28 29 30 31 32 33 34 35 36 
37 38 39 40 41 42 43 44 45 
46 47 48 49 50 51 52 53 54 
55 56 57 58 59 60 61 62 63 
64 65 66 67 68 69 70 71 72 
73 74 75 76 77 78 79 80 81 
82 83 84 85 86 87 88 89 90 
91 92 93 94 95 96 97 98 99 
100 
mol 1 100 int
1 1 1 1 1 1 1 1 1 
1 1 1 1 1 1 1 1 1 
1 1 1 1 1 1 1 1 1 
1 1 1 1 1 1 1 1 1 
1 1 1 1 1 1 1 1 1 
1 1 1 1 1 2 2 2 2 
2 2 2 2 2 2 2 2 2 
2 2 2 2 2 2 2 2 2 
2 2 2 2 2 2 2 2 2 
2 2 2 2 2 2 2 2 2 
2 2 2 2 2 2 2 2 2 
2 
type 1 100 int
1 1 1 1 1 1 1 1 1 
1 1 1 1 1 1 1 1 1 
1 1 1 1 1 1 1 1 1 
1 1 1 1 1 1 1 1 1 
1 1 1 1 1 1 1 1 1 
1 1 1 1 1 1 1 1 1 
1 1 1 1 1 1 1 1 1 
1 1 1 1 1 1 1 1 1 
1 1 1 1 1 1 1 1 1 
1 1 1 1 1 1 1 1 1 
1 1 1 1 1 1 1 1 1 
1 
v 3 100 double
0.00033954769362 -0.14582020138 -0.14997138328 -0.021951418257 -0.1022314108 -0.10179649007 -0.034651169598 -0.070838170332 -0.05182311977 
0.020511914515 -0.16827318756 -0.1352101547 0.040237172617 -0.20888773123 -0.18485567097 0.0022876980487 -0.13260408322 -0.095712218234 
-0.022036811137 -0.085055244962 -0.043198911521 0.032978236133 -0.20051983782 -0.18917739951 -0.050459541365 -0.038208737436 -0.011761751205 
-0.034257368142 -0.087128252026 -0.10597314323 0.027985328237 -0.17729562868 -0.13215950082 -0.00086332865803 -0.12278014175 -0.076325255826 
-0.030724455344 -0.07806975082 -0.058774731396 0.039493135209 -0.2028583758 -0.16753813749 -0.035983181007 -0.064319546077 -0.035503099519 
0.013444262563 -0.15046464376 -0.10623960166 0.05485197505 -0.21772308534 -0.14863906945 -0.03901749953 -0.045088213843 0.016722286992 
-0.045273536998 -0.08791767408 -0.15885423263 -0.043752567102 -0.049069232072 -0.018513883705 -0.050190939079 -0.082623100033 -0.16306650834 
0.042750665154 -0.20402791697 -0.15671907504 0.011646583072 -0.18157764581 -0.22127505943 0.055703863422 -0.2330611596 -0.19743347572 
0.014764309174 -0.18205925342 -0.20873018943 -0.0082419821934 -0.11221806707 -0.073656933591 0.045196405675 -0.20480765282 -0.14825840844 
0.067061358578 -0.24072714859 -0.17203552721 0.035000637639 -0.18727001071 -0.13446431495 0.022937212901 -0.15259737501 -0.070330857703 
0.026867685717 -0.17143160912 -0.11711124438 0.044102913154 -0.22700165255 -0.22945716076 -0.064849285128 -0.047237203459 -0.10830140846 
0.039685281603 -0.21138047113 -0.19592968394 -0.066000776708 -0.014068593854 0.00036225456872 0.0087722148887 -0.17948906219 -0.22719293882 
0.012251798754 -0.14463333323 -0.091644427332 0.048551506717 -0.21603878375 -0.17154854873 -0.013296587026 -0.099875363106 -0.054289336986 
-0.053940057043 -0.055101690662 -0.085626650201 -0.02867791676 -0.092878075426 -0.10030916928 0.023302740781 -0.18911119739 -0.19406211882 
0.04967796706 -0.2031865802 -0.12228129786 0.0012465351564 -0.16263237716 -0.20357722313 -0.021069652402 -0.073022513071 0.0025286110827 
-0.028295398396 -0.073996591898 -0.033724209449 0.0037570991837 -0.16413262984 -0.19729573865 -0.052481839367 -0.051458618936 -0.066474551145 
0.023567696687 -0.16167444726 -0.098632024 -0.035866703078 -0.05491189089 -0.0026648159466 -0.010205407501 -0.12965344964 -0.18131925263 
-0.037724639562 -0.091378056858 -0.12190539219 -0.053461083153 -0.068774426122 -0.062151327363 0.018787326289 -0.16799932885 -0.17270769234 
0.040282347749 -0.1982023879 -0.2301437752 -0.0034792301728 -0.13701936865 -0.12426361902 -0.033624942194 -0.095096073613 -0.059364981493 
0.036599315354 -0.19356460146 -0.23963607812 -0.072440726774 -0.042172868535 -0.013850777839 -0.058267639907 -0.063941779455 -0.11843443161 
0.032755365193 -0.18667725474 -0.17589035458 -0.0046721982532 -0.13488095696 -0.10444681041 -0.057125481466 -0.063875704034 -0.061362285905 
0.048557405035 -0.20894440049 -0.2203957706 -0.062312590942 -0.056243748338 -0.035143921351 0.015079317593 -0.16225988406 -0.14375605468 
0.058614830825 -0.22153046014 -0.19164806121 -0.064898652388 -0.051157433582 0.024033483968 -0.067198036409 -0.0538301703 -0.18224794682 
-0.0597958964 -0.059386635135 -0.027714482283 -0.068961960322 -0.051724962697 -0.19096728915 0.054536549482 -0.21663445112 -0.21077628436 
0.01180178122 -0.16152301296 -0.27419347479 0.055838370533 -0.2192766274 -0.24350695217 0.0088642223877 -0.15701939126 -0.25281476748 
-0.029631014802 -0.10104970527 -0.082331706218 0.039284622265 -0.19551284648 -0.18114656664 0.068191920066 -0.23491491581 -0.21463022488 
0.044693244505 -0.20277627655 -0.18349700928 0.015183314246 -0.16094265317 -0.091379225176 0.034188726428 -0.18818655473 -0.16155867988 
0.051739865659 -0.21509981226 -0.2894817282 -0.085956308014 -0.027320304173 -0.12664579297 0.049244237698 -0.21077849579 -0.25349997464 
-0.089364836494 -0.01925242244 0.0004291266252 0.0064841564401 -0.15456493538 -0.2784726556 0.015144223485 -0.16192246204 -0.12850674879 
0.056941621859 -0.22019060345 -0.22356226545 -0.018353966972 -0.11595729196 -0.078713300301 -0.081812630567 -0.031879559572 -0.09226883955 
-0.038009717253 -0.091164997591 -0.1278906054 0.02962838688 -0.18454708294 -0.24898410463 0.048616508424 -0.20724513093 -0.15642219365 
0.00074609550812 -0.14624671008 -0.25394431561 -0.038506991482 -0.08695767838 -0.00031542176266 -0.038059683014 -0.088961652003 -0.051002314895 
-0.0069577344188 -0.13547186519 -0.2351565446 -0.080534566066 -0.032961303316 -0.069989497204 0.030259737232 -0.18235593827 -0.13990860102 
-0.063705926923 -0.05329552697 0.0042165106214 
f 3 100 double
0 0 0 0 0 0 0 0 0 
0 0 0 0 0 0 0 0 0 
0 0 0 0 0 0 0 0 0 
0 0 0 0 0 0 0 0 0 
0 0 0 0 0 0 0 0 0 
0 0 0 0 0 0 0 0 0 
0 0 0 0 0 0 0 0 0 
0 0 0 0 0 0 0 0 0 
0 0 0 0 0 0 0 0 0 
0 0 0 0 0 0 0 0 0 
0 0 0 0 0 0 0 0 0 
0 0 0 0.073969886551 -0.0050070492383 0.14827831478 0 0 0 
0 0 0 0 0 0 0 0 0 
0 0 0 0 0 0 0 0 0 
0 0 0 0 0 0 0 0 0 
0 0 0 0 0 0 0 0 0 
0 0 0 0 0 0 0 0 0 
0 0 0 0 0 0 0 0 0 
0 0 0 0 0 0 0 0 0 
0 0 0 0 0 0 0 0 0 
0 0 0 0 0 0 0 0 0 
0 0 0 0 0 0 0 0 0 
0 0 0 0 0 0 0 0 0 
0 0 0 0 0 0 0 0 0 
0 0 0 0 0 0 0 0 0 
0 0 0 0 0 0 0 0 0 
0 0 0 0 0 0 0 0 0 
0 0 0 0 0 0 0 0 0 
0.068777846762 -0.0031716930637 0.13770187859 0 0 0 0 0 0 
0 0 0 0 0 0 0 0 0 
0 0 0 0 0 0 0 0 0 
0 0 0 0 0 0 0 0 0 
0 0 0 0 0 0 0 0 0 
0 0 0 
radius 1 100 double
0.010434 0.00981478 0.00892069 0.00845937 0.00731974 0.00728422 0.00643447 0.00619172 0.00585956 
0.00577566 0.00537241 0.00522549 0.00513666 0.00473175 0.00466912 0.00444866 0.00441894 0.00400812 
0.00385622 0.00379948 0.00370243 0.00366942 0.00364039 0.00363813 0.00363644 0.00358692 0.0035797 
0.00341284 0.00337012 0.00336273 0.00332772 0.00323261 0.00320584 0.00320311 0.00318808 0.00313116 
0.00306026 0.00305632 0.00304383 0.00300958 0.00300137 0.00298994 0.0029567 0.00295111 0.00290849 
0.00284552 0.00282964 0.0028207 0.00281971 0.00281899 0.010434 0.00981478 0.00892069 0.00845937 
0.00731974 0.00728422 0.00643447 0.00619172 0.00585956 0.00577566 0.00537241 0.00522549 0.00513666 
0.00473175 0.00466912 0.00444866 0.00441894 0.00400812 0.00385622 0.00379948 0.00370243 0.00366942 
0.00364039 0.00363813 0.00363644 0.00358692 0.0035797 0.00341284 0.00337012 0.00336273 0.00332772 
0.00323261 0.00320584 0.00320311 0.00318808 0.00313116 0.00306026 0.00305632 0.00304383 0.00300958 
0.00300137 0.00298994 0.0029567 0.00295111 0.00290849 0.00284552 0.00282964 0.0028207 0.00281971 
0.00281899 
omega 3 100 double
6.1997773353 4.6750725386 -1.3613259519 6.1997773353 4.6750725386 -1.3613259519 6.1997773353 4.6750725386 -1.3613259519 
6.1997773353 4.6750725386 -1.3613259519 6.1997773353 4.6750725386 -1.3613259519 6.1997773353 4.6750725386 -1.3613259519 
6.1997773353 4.6750725386 -1.3613259519 6.1997773353 4.6750725386 -1.3613259519 6.1997773353 4.6750725386 -1.3613259519 
6.1997773353 4.6750725386 -1.3613259519 6.1997773353 4.6750725386 -1.3613259519 6.1997773353 4.6750725386 -1.3613259519 
6.1997773353 4.6750725386 -1.3613259519 6.1997773353 4.6750725386 -1.3613259519 6.1997773353 4.6750725386 -1.3613259519 
6.1997773353 4.6750725386 -1.3613259519 6.1997773353 4.6750725386 -1.3613259519 6.1997773353 4.6750725386 -1.3613259519 
6.1997773353 4.6750725386 -1.3613259519 6.1997773353 4.6750725386 -1.3613259519 6.1997773353 4.6750725386 -1.3613259519 
6.1997773353 4.6750725386 -1.3613259519 6.1997773353 4.6750725386 -1.3613259519 6.1997773353 4.6750725386 -1.3613259519 
6.1997773353 4.6750725386 -1.3613259519 6.1997773353 4.6750725386 -1.3613259519 6.1997773353 4.6750725386 -1.3613259519 
6.1997773353 4.6750725386 -1.3613259519 6.1997773353 4.6750725386 -1.3613259519 6.1997773353 4.6750725386 -1.3613259519 
6.1997773353 4.6750725386 -1.3613259519 6.1997773353 4.6750725386 -1.3613259519 6.1997773353 4.6750725386 -1.3613259519 
6.1997773353 4.6750725386 -1.3613259519 6.1997773353 4.6750725386 -1.3613259519 6.1997773353 4.6750725386 -1.3613259519 
6.1997773353 4.6750725386 -1.3613259519 6.1997773353 4.6750725386 -1.3613259519 6.1997773353 4.6750725386 -1.3613259519 
6.1997773353 4.6750725386 -1.3613259519 6.1997773353 4.6750725386 -1.3613259519 6.1997773353 4.6750725386 -1.3613259519 
6.1997773353 4.6750725386 -1.3613259519 6.1997773353 4.6750725386 -1.3613259519 6.1997773353 4.6750725386 -1.3613259519 
6.1997773353 4.6750725386 -1.3613259519 6.1997773353 4.6750725386 -1.3613259519 6.1997773353 4.6750725386 -1.3613259519 
6.1997773353 4.6750725386 -1.3613259519 6.1997773353 4.6750725386 -1.3613259519 7.6660202259 5.7602095204 -0.16008541233 
7.6660202259 5.7602095204 -0.16008541233 7.6660202259 5.7602095204 -0.16008541233 7.6660202259 5.7602095204 -0.16008541233 
7.6660202259 5.7602095204 -0.16008541233 7.6660202259 5.7602095204 -0.16008541233 7.6660202259 5.7602095204 -0.16008541233 
7.6660202259 5.7602095204 -0.16008541233 7.6660202259 5.7602095204 -0.16008541233 7.6660202259 5.7602095204 -0.16008541233 
7.6660202259 5.7602095204 -0.16008541233 7.6660202259 5.7602095204 -0.16008541233 7.6660202259 5.7602095204 -0.16008541233 
7.6660202259 5.7602095204 -0.16008541233 7.6660202259 5.7602095204 -0.16008541233 7.6660202259 5.7602095204 -0.16008541233 
7.6660202259 5.7602095204 -0.16008541233 7.6660202259 5.7602095204 -0.16008541233 7.6660202259 5.7602095204 -0.16008541233 
7.6660202259 5.7602095204 -0.16008541233 7.6660202259 5.7602095204 -0.16008541233 7.6660202259 5.7602095204 -0.16008541233 
7.6660202259 5.7602095204 -0.16008541233 7.6660202259 5.7602095204 -0.16008541233 7.6660202259 5.7602095204 -0.16008541233 
7.6660202259 5.7602095204 -0.16008541233 7.6660202259 5.7602095204 -0.16008541233 7.6660202259 5.7602095204 -0.16008541233 
7.6660202259 5.7602095204 -0.16008541233 7.6660202259 5.7602095204 -0.16008541233 7.6660202259 5.7602095204 -0.16008541233 
7.6660202259 5.7602095204 -0.16008541233 7.6660202259 5.7602095204 -0.16008541233 7.6660202259 5.7602095204 -0.16008541233 
7.6660202259 5.7602095204 -0.16008541233 7.6660202259 5.7602095204 -0.16008541233 7.6660202259 5.7602095204 -0.16008541233 
7.6660202259 5.7602095204 -0.16008541233 7.6660202259 5.7602095204 -0.16008541233 7.6660202259 5.7602095204 -0.16008541233 
7.6660202259 5.7602095204 -0.16008541233 7.6660202259 5.7602095204 -0.16008541233 7.6660202259 5.7602095204 -0.16008541233 
7.6660202259 5.7602095204 -0.16008541233 7.6660202259 5.7602095204 -0.16008541233 7.6660202259 5.7602095204 -0.16008541233 
7.6660202259 5.7602095204 -0.16008541233 7.6660202259 5.7602095204 -0.16008541233 7.6660202259 5.7602095204 -0.16008541233 
7.6660202259 5.7602095204 -0.16008541233 
