# vtk DataFile Version 4.1
Generated by LIGGGHTS
ASCII
DATASET POLYDATA
POINTS 100 float
-0.113148 -0.131581 0.0236011 -0.123372 -0.132511 0.0216134 -0.133395 -0.132779 0.0216071 
-0.119033 -0.133498 0.0322444 -0.105789 -0.130428 0.0309894 -0.127645 -0.134445 0.0308402 
-0.138675 -0.135366 0.0285608 -0.110642 -0.135197 0.0341841 -0.142299 -0.133817 0.0210033 
-0.117824 -0.128982 0.0139475 -0.123999 -0.136845 0.0383093 -0.134178 -0.136642 0.0337165 
-0.12333 -0.125705 0.014152 -0.118338 -0.137758 0.0402628 -0.129303 -0.126868 0.0155157 
-0.129904 -0.137727 0.0369795 -0.112189 -0.129408 0.0361123 -0.140489 -0.1275 0.0187115 
-0.113078 -0.133954 0.0132745 -0.145072 -0.137 0.0260504 -0.116857 -0.137789 0.0160486 
-0.122186 -0.139038 0.0433021 -0.107194 -0.138076 0.0296105 -0.0990793 -0.126718 0.0301827 
-0.102588 -0.132264 0.0246114 -0.119125 -0.124235 0.0176802 -0.1053 -0.124002 0.0273137 
-0.101631 -0.124418 0.0322662 -0.126504 -0.139085 0.0426441 -0.124539 -0.127384 0.0300207 
-0.129725 -0.139051 0.0414773 -0.103885 -0.136027 0.0356288 -0.12905 -0.139074 0.0169716 
-0.113415 -0.13838 0.0392312 -0.147644 -0.136502 0.0205891 -0.104443 -0.136878 0.02708 
-0.134267 -0.138908 0.0389266 -0.114312 -0.134964 0.039293 -0.140643 -0.138557 0.0338996 
-0.123416 -0.130625 0.0117288 -0.13205 -0.139412 0.027759 -0.115204 -0.139876 0.0365781 
-0.113801 -0.126554 0.0331007 -0.112854 -0.14 0.0300852 -0.14116 -0.129948 0.0255226 
-0.144088 -0.138332 0.03084 -0.103058 -0.131032 0.0209142 -0.126437 -0.129929 0.0125433 
-0.133529 -0.139198 0.0419117 -0.133957 -0.125303 0.0158352 -0.0442662 -0.103787 0.0231509 
-0.0544401 -0.104719 0.0209239 -0.0644599 -0.105003 0.0206868 -0.0503431 -0.105773 0.031644 
-0.0370798 -0.102674 0.0307132 -0.0589199 -0.106724 0.0300369 -0.0698925 -0.107646 0.0274999 
-0.041996 -0.107473 0.0337628 -0.0733457 -0.10605 0.0198726 -0.0487249 -0.101127 0.0134115 
-0.0554404 -0.109171 0.0375704 -0.0655122 -0.108951 0.032748 -0.0542394 -0.0978604 0.0135131 
-0.0498243 -0.110088 0.0396462 -0.0602402 -0.0990426 0.0147318 -0.0613126 -0.110053 0.0361 
-0.0435969 -0.1017 0.0356955 -0.0714958 -0.0997145 0.0176669 -0.0439562 -0.106087 0.0128123 
-0.076228 -0.109273 0.0248327 -0.0477913 -0.109948 0.0154725 -0.0537383 -0.111396 0.0425879 
-0.0384397 -0.110314 0.0292492 -0.0303596 -0.0989476 0.0300858 -0.0337305 -0.104461 0.0243973 
-0.0501188 -0.0964088 0.0171465 -0.0365179 -0.0962219 0.0270946 -0.0329627 -0.0966664 0.0321264 
-0.05804 -0.111446 0.0418312 -0.0558082 -0.099653 0.0293379 -0.0612341 -0.111408 0.0405914 
-0.0352725 -0.108303 0.0353556 -0.0599997 -0.111258 0.0161079 -0.0448783 -0.110696 0.038723 
-0.0786759 -0.108741 0.0193177 -0.0356332 -0.109094 0.0267906 -0.0657164 -0.111254 0.0379386 
-0.0457823 -0.107282 0.0387882 -0.0719762 -0.110878 0.0327699 -0.0542619 -0.102763 0.0110542 
-0.0632441 -0.111677 0.0268213 -0.0466033 -0.112175 0.0360194 -0.0451447 -0.0988277 0.032668 
-0.0441052 -0.112251 0.0295811 -0.0723177 -0.102211 0.0244437 -0.0753509 -0.110637 0.0296342 
-0.034118 -0.103203 0.020699 -0.0573018 -0.102078 0.0118043 -0.0650462 -0.111564 0.0409378 
-0.0649035 -0.0974873 0.0149559 
VERTICES 100 200
1 0 
1 1 
1 2 
1 3 
1 4 
1 5 
1 6 
1 7 
1 8 
1 9 
1 10 
1 11 
1 12 
1 13 
1 14 
1 15 
1 16 
1 17 
1 18 
1 19 
1 20 
1 21 
1 22 
1 23 
1 24 
1 25 
1 26 
1 27 
1 28 
1 29 
1 30 
1 31 
1 32 
1 33 
1 34 
1 35 
1 36 
1 37 
1 38 
1 39 
1 40 
1 41 
1 42 
1 43 
1 44 
1 45 
1 46 
1 47 
1 48 
1 49 
1 50 
1 51 
1 52 
1 53 
1 54 
1 55 
1 56 
1 57 
1 58 
1 59 
1 60 
1 61 
1 62 
1 63 
1 64 
1 65 
1 66 
1 67 
1 68 
1 69 
1 70 
1 71 
1 72 
1 73 
1 74 
1 75 
1 76 
1 77 
1 78 
1 79 
1 80 
1 81 
1 82 
1 83 
1 84 
1 85 
1 86 
1 87 
1 88 
1 89 
1 90 
1 91 
1 92 
1 93 
1 94 
1 95 
1 96 
1 97 
1 98 
1 99 

POINT_DATA 100
FIELD FieldData 7
id 1 100 int
1 2 3 4 5 6 7 8 9 
10 11 12 13 14 15 16 17 18 
19 20 21 22 23 24 25 26 27 
28 29 30 31 32 33 34 35 36 
37 38 39 40 41 42 43 44 45 
46 47 48 49 50 51 52 53 54 
55 56 57 58 59 60 61 62 63 
64 65 66 67 68 69 70 71 72 
73 74 75 76 77 78 79 80 81 
82 83 84 85 86 87 88 89 90 
91 92 93 94 95 96 97 98 99 
100 
mol 1 100 int
1 1 1 1 1 1 1 1 1 
1 1 1 1 1 1 1 1 1 
1 1 1 1 1 1 1 1 1 
1 1 1 1 1 1 1 1 1 
1 1 1 1 1 1 1 1 1 
1 1 1 1 1 2 2 2 2 
2 2 2 2 2 2 2 2 2 
2 2 2 2 2 2 2 2 2 
2 2 2 2 2 2 2 2 2 
2 2 2 2 2 2 2 2 2 
2 2 2 2 2 2 2 2 2 
2 
type 1 100 int
1 1 1 1 1 1 1 1 1 
1 1 1 1 1 1 1 1 1 
1 1 1 1 1 1 1 1 1 
1 1 1 1 1 1 1 1 1 
1 1 1 1 1 1 1 1 1 
1 1 1 1 1 1 1 1 1 
1 1 1 1 1 1 1 1 1 
1 1 1 1 1 1 1 1 1 
1 1 1 1 1 1 1 1 1 
1 1 1 1 1 1 1 1 1 
1 1 1 1 1 1 1 1 1 
1 
v 3 100 double
-0.11760002745 -0.062037895757 -0.00097815406683 -0.10327952149 -0.061607489428 -0.074835644746 -0.10314728204 -0.064861449058 -0.14602712141 
-0.1779292274 -0.080312827466 -0.046103391949 -0.17007941546 -0.073622441226 0.053101340986 -0.16771803165 -0.080461839849 -0.10863429434 
-0.15134301539 -0.079741788987 -0.18815564113 -0.19105445432 -0.081249648231 0.0098519857516 -0.098551135216 -0.066620071436 -0.21078200281 
-0.050368402625 -0.045291947368 -0.029032564798 -0.2196087783 -0.093408790032 -0.087459271611 -0.18728651336 -0.088033838967 -0.15885800604 
-0.052878478317 -0.047472985669 -0.061657083844 -0.2330879287 -0.095261336627 -0.049266819497 -0.062116068545 -0.052000071142 -0.10598271361 
-0.20994393167 -0.092816627636 -0.13077622795 -0.20653850094 -0.085402863004 0.0098967958327 -0.084447582487 -0.061693354328 -0.18606856631 
-0.044002057332 -0.042471811483 -0.0049733987669 -0.13310681451 -0.07707541816 -0.23636361841 -0.062315752928 -0.048953364584 -0.038884971715 
-0.25410457264 -0.10226711965 -0.078825439678 -0.1578626153 -0.071470587301 0.028718255537 -0.16559884878 -0.069909177303 0.10744239757 
-0.12450218516 -0.060508824156 0.072201853528 -0.078238723302 -0.052779999441 -0.029222955385 -0.14625141652 -0.066506679792 0.068712000482 
-0.18104136394 -0.07468383034 0.093796591145 -0.24944887125 -0.10242886756 -0.10936604176 -0.16423970482 -0.077898882327 -0.073367669086 
-0.24123171774 -0.10127042348 -0.13201921188 -0.2009719233 -0.081781971079 0.055931225645 -0.068405969146 -0.054673036807 -0.12730075094 
-0.22561020555 -0.091705005099 -0.015729431518 -0.094755079221 -0.067578028301 -0.25356170268 -0.14040766329 -0.065785030068 0.050390104874 
-0.2232899472 -0.09792291212 -0.16377565403 -0.22715943961 -0.092114322611 -0.015590193318 -0.18795299505 -0.09048674842 -0.20807393115 
-0.034186425546 -0.042915175669 -0.071577367283 -0.14437005731 -0.076065710744 -0.14909500828 -0.20641293824 -0.087266843031 -0.031173432429 
-0.18623060989 -0.080228755423 0.0039299833042 -0.16058333592 -0.074213101359 -0.014834525386 -0.13168298285 -0.074802099693 -0.19543310644 
-0.16644977238 -0.085819045077 -0.23194294134 -0.098830277385 -0.053664848501 0.071221126119 -0.040156736371 -0.04544085689 -0.091563973665 
-0.24424706055 -0.10333182405 -0.15911992877 -0.064878976241 -0.054121334868 -0.13584513762 -0.1167657398 -0.061684633346 -0.049044577641 
-0.10101341092 -0.06110251802 -0.12124978647 -0.099272371673 -0.064141393277 -0.19119101607 -0.17491639443 -0.07947555688 -0.094812817701 
-0.1695434094 -0.073154796959 0.0027983361067 -0.16345282582 -0.079484110706 -0.15598849179 -0.14555624421 -0.078606722531 -0.23370902255 
-0.1890060112 -0.080491759576 -0.040123205924 -0.093268434907 -0.065721267693 -0.25468650139 -0.050213772731 -0.045247875776 -0.075023137338 
-0.21479530951 -0.092187204493 -0.1364005537 -0.18146196841 -0.086777394265 -0.2057726845 -0.052051317287 -0.047348932235 -0.10719539453 
-0.22885840697 -0.094071550348 -0.099185950639 -0.0600846042 -0.051681482066 -0.15095157201 -0.20430273414 -0.091509763857 -0.17871197073 
-0.2043987555 -0.084615912198 -0.040554078761 -0.080185618293 -0.061006507951 -0.23017061893 -0.044341849509 -0.042486906882 -0.051144135653 
-0.12651381525 -0.075880145563 -0.28060528415 -0.061432463773 -0.048729733468 -0.084842324292 -0.24878453089 -0.1008613874 -0.12871655193 
-0.15674950133 -0.070923349911 -0.020731672376 -0.166489426 -0.069664475604 0.056236075806 -0.12516680214 -0.060330382847 0.022702579157 
-0.077727461294 -0.052628306819 -0.075967683202 -0.14671210945 -0.066278031256 0.018604333406 -0.1814187254 -0.074335768687 0.042414375734 
-0.24352473326 -0.1009567042 -0.15861040859 -0.16106344865 -0.077113664655 -0.12137408518 -0.23494864968 -0.099775750258 -0.18066950555 
-0.19975258345 -0.081099802356 0.0049255292624 -0.065379385621 -0.054138886971 -0.17184076328 -0.22225146663 -0.090650647785 -0.066041795551 
-0.088490562945 -0.066546089143 -0.29658146809 -0.14013991365 -0.065409818059 0.00096481301151 -0.2166239046 -0.096432767041 -0.21143897027 
-0.22388769252 -0.091084709961 -0.066001158572 -0.18094565796 -0.08906084061 -0.25411299888 -0.033315296989 -0.042816524928 -0.11640473796 
-0.13945679704 -0.075046955325 -0.19509151871 -0.20300750305 -0.086257007915 -0.080724942135 -0.18442049173 -0.079562581517 -0.045973105677 
-0.15837716023 -0.073502028254 -0.063557357247 -0.12626867468 -0.073804966483 -0.24047552414 -0.15930462692 -0.084441586654 -0.27704770392 
-0.099981337028 -0.053635923004 0.022340546501 -0.038749731949 -0.045256328137 -0.13619929825 -0.23729419269 -0.10173804992 -0.20736787852 
-0.062176345452 -0.05371320341 -0.18038670043 
f 3 100 double
0 0 0 0 0 0 0 0 0 
0 0 0 0 0 0 0 0 0 
0 0 0 0 0 0 0 0 0 
0 0 0 0 0 0 0 0 0 
0 0 0 0 0 0 0 0 0 
0 0 0 0 0 0 0 0 0 
0 0 0 0 0 0 0 0 0 
0 0 0 0 0 0 0 0 0 
0 0 0 0 0 0 0 0 0 
0 0 0 0 0 0 0 0 0 
0 0 0 0 0 0 0 0 0 
0 0 0 0 0 0 0 0 0 
0 0 0 0 0 0 0 0 0 
0 0 0 0 0 0 0 0 0 
0 0 0 0 0 0 0 0 0 
0 0 0 0 0 0 0 0 0 
0 0 0 0 0 0 0 0 0 
0 0 0 0 0 0 0 0 0 
0 0 0 0 0 0 0 0 0 
0 0 0 0 0 0 0 0 0 
0 0 0 0 0 0 0 0 0 
0 0 0 0 0 0 0 0 0 
0 0 0 0 0 0 0 0 0 
0 0 0 0 0 0 0 0 0 
0 0 0 0 0 0 0 0 0 
0 0 0 0 0 0 0 0 0 
0 0 0 0 0 0 0 0 0 
0 0 0 0 0 0 0 0 0 
0 0 0 0 0 0 0 0 0 
0 0 0 0 0 0 0 0 0 
0 0 0 0 0 0 0 0 0 
0 0 0 0 0 0 0 0 0 
0 0 0 0 0 0 0 0 0 
0 0 0 
radius 1 100 double
0.010434 0.00981478 0.00892069 0.00845937 0.00731974 0.00728422 0.00643447 0.00619172 0.00585956 
0.00577566 0.00537241 0.00522549 0.00513666 0.00473175 0.00466912 0.00444866 0.00441894 0.00400812 
0.00385622 0.00379948 0.00370243 0.00366942 0.00364039 0.00363813 0.00363644 0.00358692 0.0035797 
0.00341284 0.00337012 0.00336273 0.00332772 0.00323261 0.00320584 0.00320311 0.00318808 0.00313116 
0.00306026 0.00305632 0.00304383 0.00300958 0.00300137 0.00298994 0.0029567 0.00295111 0.00290849 
0.00284552 0.00282964 0.0028207 0.00281971 0.00281899 0.010434 0.00981478 0.00892069 0.00845937 
0.00731974 0.00728422 0.00643447 0.00619172 0.00585956 0.00577566 0.00537241 0.00522549 0.00513666 
0.00473175 0.00466912 0.00444866 0.00441894 0.00400812 0.00385622 0.00379948 0.00370243 0.00366942 
0.00364039 0.00363813 0.00363644 0.00358692 0.0035797 0.00341284 0.00337012 0.00336273 0.00332772 
0.00323261 0.00320584 0.00320311 0.00318808 0.00313116 0.00306026 0.00305632 0.00304383 0.00300958 
0.00300137 0.00298994 0.0029567 0.00295111 0.00290849 0.00284552 0.00282964 0.0028207 0.00281971 
0.00281899 
omega 3 100 double
1.8925085841 -7.0521491024 0.32584901836 1.8925085841 -7.0521491024 0.32584901836 1.8925085841 -7.0521491024 0.32584901836 
1.8925085841 -7.0521491024 0.32584901836 1.8925085841 -7.0521491024 0.32584901836 1.8925085841 -7.0521491024 0.32584901836 
1.8925085841 -7.0521491024 0.32584901836 1.8925085841 -7.0521491024 0.32584901836 1.8925085841 -7.0521491024 0.32584901836 
1.8925085841 -7.0521491024 0.32584901836 1.8925085841 -7.0521491024 0.32584901836 1.8925085841 -7.0521491024 0.32584901836 
1.8925085841 -7.0521491024 0.32584901836 1.8925085841 -7.0521491024 0.32584901836 1.8925085841 -7.0521491024 0.32584901836 
1.8925085841 -7.0521491024 0.32584901836 1.8925085841 -7.0521491024 0.32584901836 1.8925085841 -7.0521491024 0.32584901836 
1.8925085841 -7.0521491024 0.32584901836 1.8925085841 -7.0521491024 0.32584901836 1.8925085841 -7.0521491024 0.32584901836 
1.8925085841 -7.0521491024 0.32584901836 1.8925085841 -7.0521491024 0.32584901836 1.8925085841 -7.0521491024 0.32584901836 
1.8925085841 -7.0521491024 0.32584901836 1.8925085841 -7.0521491024 0.32584901836 1.8925085841 -7.0521491024 0.32584901836 
1.8925085841 -7.0521491024 0.32584901836 1.8925085841 -7.0521491024 0.32584901836 1.8925085841 -7.0521491024 0.32584901836 
1.8925085841 -7.0521491024 0.32584901836 1.8925085841 -7.0521491024 0.32584901836 1.8925085841 -7.0521491024 0.32584901836 
1.8925085841 -7.0521491024 0.32584901836 1.8925085841 -7.0521491024 0.32584901836 1.8925085841 -7.0521491024 0.32584901836 
1.8925085841 -7.0521491024 0.32584901836 1.8925085841 -7.0521491024 0.32584901836 1.8925085841 -7.0521491024 0.32584901836 
1.8925085841 -7.0521491024 0.32584901836 1.8925085841 -7.0521491024 0.32584901836 1.8925085841 -7.0521491024 0.32584901836 
1.8925085841 -7.0521491024 0.32584901836 1.8925085841 -7.0521491024 0.32584901836 1.8925085841 -7.0521491024 0.32584901836 
1.8925085841 -7.0521491024 0.32584901836 1.8925085841 -7.0521491024 0.32584901836 1.8925085841 -7.0521491024 0.32584901836 
1.8925085841 -7.0521491024 0.32584901836 1.8925085841 -7.0521491024 0.32584901836 1.8464899188 -6.9279809098 0.34697818902 
1.8464899188 -6.9279809098 0.34697818902 1.8464899188 -6.9279809098 0.34697818902 1.8464899188 -6.9279809098 0.34697818902 
1.8464899188 -6.9279809098 0.34697818902 1.8464899188 -6.9279809098 0.34697818902 1.8464899188 -6.9279809098 0.34697818902 
1.8464899188 -6.9279809098 0.34697818902 1.8464899188 -6.9279809098 0.34697818902 1.8464899188 -6.9279809098 0.34697818902 
1.8464899188 -6.9279809098 0.34697818902 1.8464899188 -6.9279809098 0.34697818902 1.8464899188 -6.9279809098 0.34697818902 
1.8464899188 -6.9279809098 0.34697818902 1.8464899188 -6.9279809098 0.34697818902 1.8464899188 -6.9279809098 0.34697818902 
1.8464899188 -6.9279809098 0.34697818902 1.8464899188 -6.9279809098 0.34697818902 1.8464899188 -6.9279809098 0.34697818902 
1.8464899188 -6.9279809098 0.34697818902 1.8464899188 -6.9279809098 0.34697818902 1.8464899188 -6.9279809098 0.34697818902 
1.8464899188 -6.9279809098 0.34697818902 1.8464899188 -6.9279809098 0.34697818902 1.8464899188 -6.9279809098 0.34697818902 
1.8464899188 -6.9279809098 0.34697818902 1.8464899188 -6.9279809098 0.34697818902 1.8464899188 -6.9279809098 0.34697818902 
1.8464899188 -6.9279809098 0.34697818902 1.8464899188 -6.9279809098 0.34697818902 1.8464899188 -6.9279809098 0.34697818902 
1.8464899188 -6.9279809098 0.34697818902 1.8464899188 -6.9279809098 0.34697818902 1.8464899188 -6.9279809098 0.34697818902 
1.8464899188 -6.9279809098 0.34697818902 1.8464899188 -6.9279809098 0.34697818902 1.8464899188 -6.9279809098 0.34697818902 
1.8464899188 -6.9279809098 0.34697818902 1.8464899188 -6.9279809098 0.34697818902 1.8464899188 -6.9279809098 0.34697818902 
1.8464899188 -6.9279809098 0.34697818902 1.8464899188 -6.9279809098 0.34697818902 1.8464899188 -6.9279809098 0.34697818902 
1.8464899188 -6.9279809098 0.34697818902 1.8464899188 -6.9279809098 0.34697818902 1.8464899188 -6.9279809098 0.34697818902 
1.8464899188 -6.9279809098 0.34697818902 1.8464899188 -6.9279809098 0.34697818902 1.8464899188 -6.9279809098 0.34697818902 
1.8464899188 -6.9279809098 0.34697818902 
