# vtk DataFile Version 4.1
Generated by LIGGGHTS
ASCII
DATASET POLYDATA
POINTS 100 float
-0.118943 -0.142835 0.0147143 -0.128555 -0.140956 0.0110496 -0.138329 -0.139389 0.00945358 
-0.126679 -0.147219 0.0205407 -0.113242 -0.146344 0.0227925 -0.134849 -0.145898 0.0176147 
-0.145181 -0.14374 0.0135806 -0.119088 -0.151068 0.0226857 -0.146959 -0.138443 0.00714418 
-0.121202 -0.135512 0.00677176 -0.13311 -0.151912 0.0235852 -0.142019 -0.147911 0.0181669 
-0.126293 -0.131718 0.0076527 -0.128103 -0.154583 0.0257047 -0.132502 -0.132263 0.00743746 
-0.138655 -0.151053 0.0211505 -0.120458 -0.146515 0.0268111 -0.144121 -0.132196 0.00830818 
-0.11691 -0.140463 0.00458961 -0.151026 -0.142944 0.00969396 -0.121534 -0.144373 0.00470135 
-0.13261 -0.15634 0.0272142 -0.115035 -0.152246 0.0178605 -0.106196 -0.143924 0.0247748 
-0.108949 -0.145774 0.0168305 -0.122813 -0.132706 0.0120341 -0.111384 -0.139164 0.0226011 
-0.108904 -0.142339 0.0272839 -0.136675 -0.15532 0.0259841 -0.130991 -0.139866 0.0206 
-0.139559 -0.154205 0.0245067 -0.112899 -0.153642 0.0245579 -0.133711 -0.143716 0.00313411 
-0.123154 -0.155569 0.0252355 -0.152324 -0.139673 0.00476376 -0.11171 -0.150585 0.0165984 
-0.143423 -0.152156 0.0216739 -0.123719 -0.152419 0.0267298 -0.148526 -0.14852 0.0164997 
-0.126326 -0.134995 0.00325445 -0.138947 -0.148155 0.0119864 -0.124472 -0.155418 0.0219622 
-0.12112 -0.1424 0.0252508 -0.120822 -0.153134 0.0165627 -0.146447 -0.137192 0.0130486 
-0.151208 -0.146375 0.0134196 -0.108507 -0.142998 0.0140909 -0.129372 -0.134191 0.00384574 
-0.143364 -0.153839 0.0242628 -0.136951 -0.130183 0.00775595 -0.0502519 -0.114122 0.015132 
-0.0599296 -0.112649 0.0114566 -0.0697747 -0.111717 0.00980164 -0.0576842 -0.119709 0.0202841 
-0.0444015 -0.117994 0.0229327 -0.0658903 -0.118751 0.0173192 -0.076304 -0.117021 0.0132885 
-0.0498328 -0.123138 0.022195 -0.0784185 -0.111233 0.00739967 -0.0529903 -0.106205 0.00794564 
-0.0637482 -0.125204 0.022669 -0.0728763 -0.121385 0.0174882 -0.0583915 -0.10295 0.00909679 
-0.0585696 -0.12767 0.0246163 -0.0645297 -0.10397 0.00867877 -0.069309 -0.124543 0.0202065 
-0.0516377 -0.119173 0.0267393 -0.0761255 -0.104936 0.00927607 -0.0482698 -0.110534 0.00536113 
-0.0821353 -0.116293 0.00936876 -0.0525552 -0.114795 0.00495457 -0.0629379 -0.129936 0.025827 
-0.0456242 -0.123466 0.0173707 -0.0376105 -0.115236 0.0253231 -0.0400811 -0.11645 0.0171662 
-0.0549072 -0.104112 0.0134324 -0.0431425 -0.110708 0.0235356 -0.0404783 -0.114149 0.0279191 
-0.0670549 -0.129124 0.024614 -0.0625911 -0.112778 0.0210081 -0.0699982 -0.128095 0.0231932 
-0.0434808 -0.125387 0.0239345 -0.0647196 -0.114963 0.0031763 -0.0535496 -0.128198 0.0241641 
-0.083626 -0.112634 0.00477741 -0.0424294 -0.121417 0.0163679 -0.0739756 -0.126077 0.0204989 
-0.0543961 -0.12528 0.0259651 -0.0792849 -0.122338 0.0156128 -0.0580859 -0.105735 0.00438104 
-0.0697016 -0.120724 0.0113904 -0.0548263 -0.127807 0.0208942 -0.0526151 -0.114983 0.0256018 
-0.051297 -0.124676 0.0158506 -0.0781002 -0.110577 0.0134129 -0.0820887 -0.120103 0.0127107 
-0.0398295 -0.113373 0.0147425 -0.0611965 -0.105247 0.00498067 -0.073817 -0.128015 0.0228985 
-0.0691396 -0.102302 0.00910703 
VERTICES 100 200
1 0 
1 1 
1 2 
1 3 
1 4 
1 5 
1 6 
1 7 
1 8 
1 9 
1 10 
1 11 
1 12 
1 13 
1 14 
1 15 
1 16 
1 17 
1 18 
1 19 
1 20 
1 21 
1 22 
1 23 
1 24 
1 25 
1 26 
1 27 
1 28 
1 29 
1 30 
1 31 
1 32 
1 33 
1 34 
1 35 
1 36 
1 37 
1 38 
1 39 
1 40 
1 41 
1 42 
1 43 
1 44 
1 45 
1 46 
1 47 
1 48 
1 49 
1 50 
1 51 
1 52 
1 53 
1 54 
1 55 
1 56 
1 57 
1 58 
1 59 
1 60 
1 61 
1 62 
1 63 
1 64 
1 65 
1 66 
1 67 
1 68 
1 69 
1 70 
1 71 
1 72 
1 73 
1 74 
1 75 
1 76 
1 77 
1 78 
1 79 
1 80 
1 81 
1 82 
1 83 
1 84 
1 85 
1 86 
1 87 
1 88 
1 89 
1 90 
1 91 
1 92 
1 93 
1 94 
1 95 
1 96 
1 97 
1 98 
1 99 

POINT_DATA 100
FIELD FieldData 7
id 1 100 int
1 2 3 4 5 6 7 8 9 
10 11 12 13 14 15 16 17 18 
19 20 21 22 23 24 25 26 27 
28 29 30 31 32 33 34 35 36 
37 38 39 40 41 42 43 44 45 
46 47 48 49 50 51 52 53 54 
55 56 57 58 59 60 61 62 63 
64 65 66 67 68 69 70 71 72 
73 74 75 76 77 78 79 80 81 
82 83 84 85 86 87 88 89 90 
91 92 93 94 95 96 97 98 99 
100 
mol 1 100 int
1 1 1 1 1 1 1 1 1 
1 1 1 1 1 1 1 1 1 
1 1 1 1 1 1 1 1 1 
1 1 1 1 1 1 1 1 1 
1 1 1 1 1 1 1 1 1 
1 1 1 1 1 2 2 2 2 
2 2 2 2 2 2 2 2 2 
2 2 2 2 2 2 2 2 2 
2 2 2 2 2 2 2 2 2 
2 2 2 2 2 2 2 2 2 
2 2 2 2 2 2 2 2 2 
2 
type 1 100 int
1 1 1 1 1 1 1 1 1 
1 1 1 1 1 1 1 1 1 
1 1 1 1 1 1 1 1 1 
1 1 1 1 1 1 1 1 1 
1 1 1 1 1 1 1 1 1 
1 1 1 1 1 1 1 1 1 
1 1 1 1 1 1 1 1 1 
1 1 1 1 1 1 1 1 1 
1 1 1 1 1 1 1 1 1 
1 1 1 1 1 1 1 1 1 
1 1 1 1 1 1 1 1 1 
1 
v 3 100 double
0.11333713334 -0.14830104841 -0.088019036477 0.091166841765 -0.097232080206 -0.0036904256871 0.083271151498 -0.061863480538 0.079394898175 
0.14530411967 -0.17542250516 -0.065981628648 0.16369425096 -0.22449463261 -0.1566535385 0.1271821977 -0.13348352019 0.0035516084557 
0.10298745801 -0.077849250417 0.095277991857 0.15182046436 -0.20993190676 -0.15097838241 0.06874057453 -0.023634253001 0.14935734063 
0.072924376631 -0.081249120091 -0.014704967122 0.1563628577 -0.1839843415 -0.055823961717 0.12645807396 -0.12093190068 0.039913134028 
0.088228419543 -0.076136955699 0.051724802843 0.16546508723 -0.21222383442 -0.1129028441 0.085386530066 -0.059877822367 0.092526556174 
0.14072070152 -0.1520285719 -0.0089115855779 0.19244257794 -0.23878457088 -0.10564521763 0.091858818633 -0.039352063366 0.17732553367 
0.045463965039 -0.07436867653 -0.084330894833 0.076663055205 -0.03390387935 0.14386308389 0.037087928436 -0.064373269135 -0.08118429607 
0.17228739571 -0.21337009286 -0.093865994421 0.11405172992 -0.18194182649 -0.18953270776 0.18375838473 -0.25645962421 -0.1889612051 
0.1217833618 -0.18823178029 -0.18336980164 0.11768949354 -0.11837501996 0.018791511883 0.17917240199 -0.2273723889 -0.11431946178 
0.2056848172 -0.26960360753 -0.15698930106 0.16575902376 -0.19425672085 -0.056450007114 0.16300621462 -0.16575469459 0.022451014492 
0.15766288638 -0.1759978068 -0.026860517936 0.15935475133 -0.23902536813 -0.21588283753 0.027262171633 -0.023583079407 0.01225523652 
0.15974301592 -0.22020169297 -0.15647289821 0.048582543767 0.0074736273301 0.178707634 0.10879742315 -0.17994164296 -0.20074392285 
0.14192658517 -0.1448984991 0.01709566943 0.17798302506 -0.23049148096 -0.12788669835 0.11293398484 -0.092683631921 0.08238631965 
0.048623700664 -0.041868234128 0.026482486614 0.081049175692 -0.08010142675 0.015725506869 0.13635439973 -0.19165816423 -0.14573163084 
0.19079275388 -0.22509950451 -0.068847076244 0.10255167522 -0.15825819637 -0.1544566167 0.11451121266 -0.070740201781 0.15536417359 
0.095629918206 -0.062438782179 0.11851600889 0.10843291737 -0.16797304218 -0.16499263845 0.054802228064 -0.039309559036 0.05482929903 
0.1567511223 -0.16516066634 0.0035859776097 0.092582575791 -0.051903306251 0.14096395798 0.088529638258 -0.11724493995 -0.090489792453 
0.069521927609 -0.086155397126 -0.027980834963 0.061075233183 -0.069869145842 0.03143733801 0.1137060254 -0.15207258565 -0.091942567741 
0.12856114856 -0.1771064319 -0.15022603714 0.098276759193 -0.12682642891 -0.041078549653 0.077479664816 -0.092814976672 0.027252796574 
0.12247840131 -0.16941190968 -0.15909612414 0.048453596051 -0.048584486223 0.081145856071 0.053464345028 -0.063203656453 -0.017595806848 
0.12414748621 -0.16710002429 -0.10001509757 0.098081028863 -0.12515828499 -0.023171396927 0.06096693729 -0.069425928343 0.035201163966 
0.13351590611 -0.18359375736 -0.14581422817 0.0583101815 -0.063789977868 0.060465086849 0.11127703879 -0.14665563025 -0.065461211299 
0.14839177683 -0.20211122239 -0.12027791329 0.061096129212 -0.06335289539 0.11525806913 0.037862131084 -0.046146391341 -0.074658543756 
0.056856640575 -0.061529935016 0.063741589636 0.03391519892 -0.04136725031 -0.083149989313 0.13903468504 -0.19068476788 -0.1391739218 
0.096586414746 -0.13565400202 -0.18397951995 0.14247254058 -0.19753371512 -0.16617936878 0.098418789639 -0.13645885447 -0.16193021518 
0.083628666398 -0.10279336131 0.0080440621039 0.13481736632 -0.18206964663 -0.10331366999 0.15678464776 -0.21544781841 -0.14287113911 
0.13289727448 -0.18003943434 -0.11121908611 0.12046053067 -0.15535629947 -0.014722354252 0.12574095544 -0.16835355884 -0.087930627995 
0.13082774073 -0.18486480593 -0.20956089378 0.024351548527 -0.023206130728 -0.019444579501 0.13088150849 -0.18235746078 -0.17650059447 
0.033870158276 -0.027110743807 0.098633632705 0.092086753147 -0.12960387451 -0.18595412841 0.11219822759 -0.14686230844 -0.051841354295 
0.14171299773 -0.1952622272 -0.15050139312 0.087671799541 -0.10868191139 0.0040263816275 0.03463020594 -0.034839835678 0.013070611249 
0.065802633482 -0.081595002435 -0.035253977154 0.11358725504 -0.15775475065 -0.16680971169 0.14406565942 -0.19332987976 -0.084210123829 
0.087966249803 -0.12209905823 -0.16260362713 0.08082961655 -0.092981506069 0.084274907067 0.07311016322 -0.086150119029 0.035449277755 
0.086762870527 -0.11872300775 -0.14061728071 0.038034849332 -0.037957112206 0.033269121541 0.12420125397 -0.16459267914 -0.066954798259 
0.061291612724 -0.065020706056 0.097350825881 
f 3 100 double
0 0 0 0 0 0 0 0 0 
0 0 0 0 0 0 0 0 0 
0 0 0 0 0 0 0 0 0 
0 0 0 0 0 0 0 0 0 
0 0 0 0 0 0 0 0 0 
0 0 0 0 0 0 0 0 0 
0 0 0 0 0 0 0 0 0 
0 0 0 0 0 0 0 0 0 
0 0 0 0 0 0 0 0 0 
0 0 0 0 0 0 0 0 0 
0 0 0 0 0 0 0.011636685772 -0.0096388191439 0.15406115899 
0 0 0 0 0 0 0 0 0 
0 0 0 0 0 0 0 0 0 
0 0 0 0 0 0 0 0 0 
0 0 0 0 0 0 0 0 0 
0 0 0 0 0 0 0 0 0 
0 0 0 0 0 0 0 0 0 
0 0 0 0 0 0 0 0 0 
0 0 0 0 0 0 0 0 0 
0 0 0 0 0 0 0 0 0 
0 0 0 0 0 0 0 0 0 
0 0 0 0 0 0 0 0 0 
0 0 0 0 0 0 0 0 0 
0 0 0 0 0 0 0 0 0 
0 0 0 0 0 0 0 0 0 
0 0 0 0 0 0 0 0 0 
0 0 0 0 0 0 0 0 0 
0 0 0 -0.12196941816 -0.0054797135435 0.2451684993 0 0 0 
0 0 0 0 0 0 0 0 0 
0 0 0 0 0 0 0 0 0 
0 0 0 0 0 0 0 0 0 
0 0 0 0 0 0 0 0 0 
0 0 0 0 0 0 0 0 0 
0 0 0 
radius 1 100 double
0.010434 0.00981478 0.00892069 0.00845937 0.00731974 0.00728422 0.00643447 0.00619172 0.00585956 
0.00577566 0.00537241 0.00522549 0.00513666 0.00473175 0.00466912 0.00444866 0.00441894 0.00400812 
0.00385622 0.00379948 0.00370243 0.00366942 0.00364039 0.00363813 0.00363644 0.00358692 0.0035797 
0.00341284 0.00337012 0.00336273 0.00332772 0.00323261 0.00320584 0.00320311 0.00318808 0.00313116 
0.00306026 0.00305632 0.00304383 0.00300958 0.00300137 0.00298994 0.0029567 0.00295111 0.00290849 
0.00284552 0.00282964 0.0028207 0.00281971 0.00281899 0.010434 0.00981478 0.00892069 0.00845937 
0.00731974 0.00728422 0.00643447 0.00619172 0.00585956 0.00577566 0.00537241 0.00522549 0.00513666 
0.00473175 0.00466912 0.00444866 0.00441894 0.00400812 0.00385622 0.00379948 0.00370243 0.00366942 
0.00364039 0.00363813 0.00363644 0.00358692 0.0035797 0.00341284 0.00337012 0.00336273 0.00332772 
0.00323261 0.00320584 0.00320311 0.00318808 0.00313116 0.00306026 0.00305632 0.00304383 0.00300958 
0.00300137 0.00298994 0.0029567 0.00295111 0.00290849 0.00284552 0.00282964 0.0028207 0.00281971 
0.00281899 
omega 3 100 double
7.7740765649 7.254136515 -2.3492349864 7.7740765649 7.254136515 -2.3492349864 7.7740765649 7.254136515 -2.3492349864 
7.7740765649 7.254136515 -2.3492349864 7.7740765649 7.254136515 -2.3492349864 7.7740765649 7.254136515 -2.3492349864 
7.7740765649 7.254136515 -2.3492349864 7.7740765649 7.254136515 -2.3492349864 7.7740765649 7.254136515 -2.3492349864 
7.7740765649 7.254136515 -2.3492349864 7.7740765649 7.254136515 -2.3492349864 7.7740765649 7.254136515 -2.3492349864 
7.7740765649 7.254136515 -2.3492349864 7.7740765649 7.254136515 -2.3492349864 7.7740765649 7.254136515 -2.3492349864 
7.7740765649 7.254136515 -2.3492349864 7.7740765649 7.254136515 -2.3492349864 7.7740765649 7.254136515 -2.3492349864 
7.7740765649 7.254136515 -2.3492349864 7.7740765649 7.254136515 -2.3492349864 7.7740765649 7.254136515 -2.3492349864 
7.7740765649 7.254136515 -2.3492349864 7.7740765649 7.254136515 -2.3492349864 7.7740765649 7.254136515 -2.3492349864 
7.7740765649 7.254136515 -2.3492349864 7.7740765649 7.254136515 -2.3492349864 7.7740765649 7.254136515 -2.3492349864 
7.7740765649 7.254136515 -2.3492349864 7.7740765649 7.254136515 -2.3492349864 7.7740765649 7.254136515 -2.3492349864 
7.7740765649 7.254136515 -2.3492349864 7.7740765649 7.254136515 -2.3492349864 7.7740765649 7.254136515 -2.3492349864 
7.7740765649 7.254136515 -2.3492349864 7.7740765649 7.254136515 -2.3492349864 7.7740765649 7.254136515 -2.3492349864 
7.7740765649 7.254136515 -2.3492349864 7.7740765649 7.254136515 -2.3492349864 7.7740765649 7.254136515 -2.3492349864 
7.7740765649 7.254136515 -2.3492349864 7.7740765649 7.254136515 -2.3492349864 7.7740765649 7.254136515 -2.3492349864 
7.7740765649 7.254136515 -2.3492349864 7.7740765649 7.254136515 -2.3492349864 7.7740765649 7.254136515 -2.3492349864 
7.7740765649 7.254136515 -2.3492349864 7.7740765649 7.254136515 -2.3492349864 7.7740765649 7.254136515 -2.3492349864 
7.7740765649 7.254136515 -2.3492349864 7.7740765649 7.254136515 -2.3492349864 7.361176473 5.3386738208 -0.41686530986 
7.361176473 5.3386738208 -0.41686530986 7.361176473 5.3386738208 -0.41686530986 7.361176473 5.3386738208 -0.41686530986 
7.361176473 5.3386738208 -0.41686530986 7.361176473 5.3386738208 -0.41686530986 7.361176473 5.3386738208 -0.41686530986 
7.361176473 5.3386738208 -0.41686530986 7.361176473 5.3386738208 -0.41686530986 7.361176473 5.3386738208 -0.41686530986 
7.361176473 5.3386738208 -0.41686530986 7.361176473 5.3386738208 -0.41686530986 7.361176473 5.3386738208 -0.41686530986 
7.361176473 5.3386738208 -0.41686530986 7.361176473 5.3386738208 -0.41686530986 7.361176473 5.3386738208 -0.41686530986 
7.361176473 5.3386738208 -0.41686530986 7.361176473 5.3386738208 -0.41686530986 7.361176473 5.3386738208 -0.41686530986 
7.361176473 5.3386738208 -0.41686530986 7.361176473 5.3386738208 -0.41686530986 7.361176473 5.3386738208 -0.41686530986 
7.361176473 5.3386738208 -0.41686530986 7.361176473 5.3386738208 -0.41686530986 7.361176473 5.3386738208 -0.41686530986 
7.361176473 5.3386738208 -0.41686530986 7.361176473 5.3386738208 -0.41686530986 7.361176473 5.3386738208 -0.41686530986 
7.361176473 5.3386738208 -0.41686530986 7.361176473 5.3386738208 -0.41686530986 7.361176473 5.3386738208 -0.41686530986 
7.361176473 5.3386738208 -0.41686530986 7.361176473 5.3386738208 -0.41686530986 7.361176473 5.3386738208 -0.41686530986 
7.361176473 5.3386738208 -0.41686530986 7.361176473 5.3386738208 -0.41686530986 7.361176473 5.3386738208 -0.41686530986 
7.361176473 5.3386738208 -0.41686530986 7.361176473 5.3386738208 -0.41686530986 7.361176473 5.3386738208 -0.41686530986 
7.361176473 5.3386738208 -0.41686530986 7.361176473 5.3386738208 -0.41686530986 7.361176473 5.3386738208 -0.41686530986 
7.361176473 5.3386738208 -0.41686530986 7.361176473 5.3386738208 -0.41686530986 7.361176473 5.3386738208 -0.41686530986 
7.361176473 5.3386738208 -0.41686530986 7.361176473 5.3386738208 -0.41686530986 7.361176473 5.3386738208 -0.41686530986 
7.361176473 5.3386738208 -0.41686530986 
