# vtk DataFile Version 4.1
Generated by LIGGGHTS
ASCII
DATASET POLYDATA
POINTS 100 float
-0.116624 -0.133354 0.0197701 -0.126242 -0.134245 0.0157648 -0.136063 -0.134573 0.013771 
-0.124061 -0.135737 0.0269826 -0.11088 -0.132528 0.0285102 -0.132214 -0.136664 0.0238652 
-0.142565 -0.137537 0.0194159 -0.11619 -0.137481 0.0304536 -0.144657 -0.135633 0.0113757 
-0.119353 -0.130303 0.00952049 -0.130069 -0.139414 0.0317825 -0.139149 -0.139042 0.0252894 
-0.124842 -0.127073 0.00879314 -0.124889 -0.140389 0.0347669 -0.130948 -0.128339 0.00889579 
-0.135583 -0.140264 0.0292745 -0.118177 -0.131805 0.0323145 -0.142533 -0.129198 0.00979086 
-0.114489 -0.135206 0.00955812 -0.148317 -0.139082 0.0156189 -0.118679 -0.139198 0.0113461 
-0.129238 -0.141843 0.0369236 -0.111865 -0.140106 0.0265163 -0.104201 -0.128742 0.0292201 
-0.106459 -0.134023 0.0228073 -0.121436 -0.125757 0.0131469 -0.109779 -0.125924 0.0253153 
-0.107149 -0.126565 0.0308677 -0.133341 -0.141884 0.0354263 -0.12912 -0.129553 0.0240133 
-0.136271 -0.14181 0.0336507 -0.109836 -0.138341 0.0331597 -0.130793 -0.140601 0.00978595 
-0.11985 -0.140929 0.0346968 -0.149774 -0.138326 0.0097881 -0.10869 -0.138766 0.024638 
-0.140224 -0.141567 0.030265 -0.120795 -0.137526 0.0347445 -0.145493 -0.141003 0.024103 
-0.124373 -0.131866 0.00616734 -0.135848 -0.141498 0.019742 -0.121059 -0.142301 0.0316748 
-0.119211 -0.128814 0.0291847 -0.117477 -0.142086 0.0257738 -0.14449 -0.131988 0.0162109 
-0.148272 -0.140646 0.0204391 -0.106213 -0.13261 0.0191534 -0.127506 -0.13123 0.00640303 
-0.140083 -0.142002 0.0333196 -0.135598 -0.126821 0.00836661 -0.0477134 -0.105549 0.0179685 
-0.0572497 -0.106439 0.0137727 -0.0670293 -0.106777 0.0115871 -0.0552831 -0.107989 0.025022 
-0.042141 -0.104759 0.0268226 -0.063372 -0.108917 0.0217422 -0.0736321 -0.109787 0.0170884 
-0.0474761 -0.109735 0.0286351 -0.0755729 -0.107843 0.00901994 -0.0502498 -0.102446 0.0076851 
-0.0613737 -0.111706 0.0296841 -0.0703272 -0.111318 0.0230185 -0.0557318 -0.0992246 0.00686961 
-0.0562501 -0.112687 0.0327628 -0.0618352 -0.100505 0.00684689 -0.0668367 -0.112555 0.027065 
-0.0495121 -0.104074 0.0304888 -0.0734335 -0.101395 0.00751256 -0.0453765 -0.107338 0.00778953 
-0.0793067 -0.111323 0.0131721 -0.0495908 -0.11135 0.00947362 -0.060637 -0.114163 0.0348266 
-0.0430703 -0.112328 0.0247677 -0.0354866 -0.100962 0.0276829 -0.0376072 -0.106213 0.0211982 
-0.052414 -0.0979251 0.0112959 -0.0409943 -0.0981346 0.0236866 -0.0384708 -0.0988011 0.0292853 
-0.0647103 -0.114204 0.0332499 -0.0602974 -0.1018 0.0219899 -0.0676051 -0.114127 0.0314183 
-0.0411742 -0.110597 0.031459 -0.0616695 -0.112771 0.00767132 -0.0512098 -0.113215 0.0327873 
-0.0806519 -0.110539 0.0073185 -0.0398618 -0.110971 0.0229588 -0.0714928 -0.113874 0.0279581 
-0.0521639 -0.109815 0.0328356 -0.0766421 -0.113287 0.0216985 -0.0552007 -0.104002 0.00422664 
-0.0669142 -0.113735 0.0175224 -0.0523565 -0.114573 0.0297347 -0.050492 -0.101067 0.0273564 
-0.0486615 -0.114316 0.0239056 -0.0755083 -0.104225 0.0138778 -0.0793514 -0.112915 0.0179834 
-0.0372935 -0.104778 0.0175577 -0.0583388 -0.103374 0.00440516 -0.0714093 -0.114325 0.0310124 
-0.0664783 -0.0989935 0.00623622 
VERTICES 100 200
1 0 
1 1 
1 2 
1 3 
1 4 
1 5 
1 6 
1 7 
1 8 
1 9 
1 10 
1 11 
1 12 
1 13 
1 14 
1 15 
1 16 
1 17 
1 18 
1 19 
1 20 
1 21 
1 22 
1 23 
1 24 
1 25 
1 26 
1 27 
1 28 
1 29 
1 30 
1 31 
1 32 
1 33 
1 34 
1 35 
1 36 
1 37 
1 38 
1 39 
1 40 
1 41 
1 42 
1 43 
1 44 
1 45 
1 46 
1 47 
1 48 
1 49 
1 50 
1 51 
1 52 
1 53 
1 54 
1 55 
1 56 
1 57 
1 58 
1 59 
1 60 
1 61 
1 62 
1 63 
1 64 
1 65 
1 66 
1 67 
1 68 
1 69 
1 70 
1 71 
1 72 
1 73 
1 74 
1 75 
1 76 
1 77 
1 78 
1 79 
1 80 
1 81 
1 82 
1 83 
1 84 
1 85 
1 86 
1 87 
1 88 
1 89 
1 90 
1 91 
1 92 
1 93 
1 94 
1 95 
1 96 
1 97 
1 98 
1 99 

POINT_DATA 100
FIELD FieldData 7
id 1 100 int
1 2 3 4 5 6 7 8 9 
10 11 12 13 14 15 16 17 18 
19 20 21 22 23 24 25 26 27 
28 29 30 31 32 33 34 35 36 
37 38 39 40 41 42 43 44 45 
46 47 48 49 50 51 52 53 54 
55 56 57 58 59 60 61 62 63 
64 65 66 67 68 69 70 71 72 
73 74 75 76 77 78 79 80 81 
82 83 84 85 86 87 88 89 90 
91 92 93 94 95 96 97 98 99 
100 
mol 1 100 int
1 1 1 1 1 1 1 1 1 
1 1 1 1 1 1 1 1 1 
1 1 1 1 1 1 1 1 1 
1 1 1 1 1 1 1 1 1 
1 1 1 1 1 1 1 1 1 
1 1 1 1 1 2 2 2 2 
2 2 2 2 2 2 2 2 2 
2 2 2 2 2 2 2 2 2 
2 2 2 2 2 2 2 2 2 
2 2 2 2 2 2 2 2 2 
2 2 2 2 2 2 2 2 2 
2 
type 1 100 int
1 1 1 1 1 1 1 1 1 
1 1 1 1 1 1 1 1 1 
1 1 1 1 1 1 1 1 1 
1 1 1 1 1 1 1 1 1 
1 1 1 1 1 1 1 1 1 
1 1 1 1 1 1 1 1 1 
1 1 1 1 1 1 1 1 1 
1 1 1 1 1 1 1 1 1 
1 1 1 1 1 1 1 1 1 
1 1 1 1 1 1 1 1 1 
1 1 1 1 1 1 1 1 1 
1 
v 3 100 double
-0.13079101875 -0.064615117883 -0.27313579297 -0.10195874602 -0.062282117711 -0.34288833644 -0.087655768704 -0.063308050115 -0.41316887123 
-0.18097747642 -0.079574982323 -0.32982757943 -0.19322109622 -0.076330290763 -0.23099435594 -0.15843508412 -0.078049186817 -0.3892371853 
-0.12645789677 -0.07531262488 -0.46416176475 -0.20487085857 -0.081798152667 -0.27675933891 -0.070184035324 -0.063148128112 -0.47592680446 
-0.059325198243 -0.049134340925 -0.2875492324 -0.21346811278 -0.089990674754 -0.37847047839 -0.16751647327 -0.083378743363 -0.44235173749 
-0.055563083017 -0.050337338611 -0.32128415701 -0.23423975728 -0.092592329661 -0.34326737238 -0.055741855291 -0.053157718654 -0.36670453503 
-0.19528738295 -0.088309204247 -0.41901675779 -0.22055306304 -0.085687566823 -0.2816425365 -0.061725313552 -0.059647966686 -0.45037758824 
-0.057461467721 -0.047081867153 -0.26098195012 -0.098820153063 -0.071638551788 -0.50752976884 -0.068424136823 -0.051809986044 -0.297229208 
-0.24892427046 -0.097989384224 -0.37652059579 -0.17576747948 -0.073516563518 -0.25031732559 -0.1999083787 -0.074582324689 -0.17740917729 
-0.15207020013 -0.065135965949 -0.20203019278 -0.0870556013 -0.055936717024 -0.2949557274 -0.1734017115 -0.07065703084 -0.21243988022 
-0.21255593371 -0.078542564406 -0.1948040529 -0.23827266964 -0.097337844147 -0.40572690645 -0.16257732295 -0.07694506107 -0.35569572721 
-0.22569434414 -0.09572378005 -0.42641305285 -0.22371542579 -0.083437239052 -0.2330366607 -0.056734826136 -0.054538091661 -0.38554666501 
-0.23350708643 -0.090288590475 -0.30836212219 -0.057738692254 -0.062790428255 -0.5166462771 -0.16301005806 -0.069082080081 -0.22558366274 
-0.20175509099 -0.091936584977 -0.45409439941 -0.23532428282 -0.090776912675 -0.30954291879 -0.15823861424 -0.084206566936 -0.49059316235 
-0.034831945144 -0.045863768489 -0.32574578833 -0.12705216653 -0.072924023239 -0.42290492434 -0.21144847645 -0.085899784926 -0.31917573284 
-0.19962604821 -0.081047690572 -0.2841193576 -0.16963412454 -0.074747893942 -0.29338735313 -0.10610729303 -0.07093798161 -0.46881622392 
-0.13237263642 -0.079456847842 -0.50975434464 -0.12673476238 -0.059087455109 -0.1979821192 -0.036782245471 -0.047608442332 -0.3469592507 
-0.22325977343 -0.096842026177 -0.45379593988 -0.052643741872 -0.054318382994 -0.39726327541 -0.12954436116 -0.064193839565 -0.32158068864 
-0.099876905902 -0.061776740816 -0.38952244442 -0.084478540956 -0.062653814831 -0.45828910324 -0.17767202291 -0.078733821944 -0.37825951483 
-0.19166789962 -0.075753995979 -0.28145172449 -0.15437743467 -0.077125915768 -0.43616423561 -0.12152355852 -0.074304259006 -0.50912506542 
-0.2021046391 -0.080995027004 -0.32655920573 -0.066094918664 -0.062377312529 -0.51958426091 -0.059177934024 -0.049020770082 -0.33435784059 
-0.20854749065 -0.088826653847 -0.42664365521 -0.16221605455 -0.082236251916 -0.48849448837 -0.054918367043 -0.050161640057 -0.36749815359 
-0.22959190219 -0.091432081361 -0.3924514717 -0.054191531926 -0.052834946373 -0.41210967485 -0.18989879748 -0.087100538304 -0.46610175583 
-0.21755015574 -0.084836894356 -0.33179163517 -0.058440774945 -0.059038441858 -0.49443737956 -0.057734653855 -0.047023028483 -0.3081128059 
-0.093518305579 -0.070615818843 -0.55115009585 -0.067703271894 -0.051562989184 -0.34387307143 -0.24333561161 -0.096650576714 -0.42539682641 
-0.17397155944 -0.072909481311 -0.29993149128 -0.19935553113 -0.07416369815 -0.22900745157 -0.15178295876 -0.06482686508 -0.25212434162 
-0.086375960214 -0.055704442622 -0.34229108091 -0.17272979762 -0.070274508298 -0.26295156553 -0.21149418064 -0.078028119655 -0.24640193089 
-0.23231679077 -0.095959582948 -0.45388052537 -0.15926529086 -0.076153798557 -0.40343282217 -0.21957245798 -0.094341534807 -0.4739548887 
-0.22142318145 -0.082673355562 -0.28395826149 -0.054498410885 -0.054068097853 -0.43039532859 -0.2295281376 -0.089233547484 -0.35812486491 
-0.053027889903 -0.061935087001 -0.55929121507 -0.16195373389 -0.068618087553 -0.27539488634 -0.19554389873 -0.090582837158 -0.50067642122 
-0.23137481607 -0.089733671548 -0.35939151098 -0.15213304723 -0.082947279716 -0.53567228023 -0.034358672246 -0.045736826392 -0.37136436424 
-0.12279874842 -0.072010056715 -0.46851394311 -0.20762896045 -0.084904306032 -0.36827596388 -0.19703099705 -0.080307049223 -0.33386233063 
-0.16707455702 -0.074025011981 -0.34209082782 -0.10159256892 -0.070048253247 -0.51339955692 -0.12637897603 -0.078261527694 -0.55398447711 
-0.1270211136 -0.058917459843 -0.24766155796 -0.035882788557 -0.047412762424 -0.39226295605 -0.21665244679 -0.09538684577 -0.50081025863 
-0.050601970051 -0.053928078342 -0.4421073573 
f 3 100 double
0 0 0 0 0 0 0 0 0 
0 0 0 0 0 0 0 0 0 
0 0 0 0 0 0 0 0 0 
0 0 0 0 0 0 0 0 0 
0 0 0 0 0 0 0 0 0 
0 0 0 0 0 0 0 0 0 
0 0 0 0 0 0 0 0 0 
0 0 0 0 0 0 0 0 0 
0 0 0 0 0 0 0 0 0 
0 0 0 0 0 0 0 0 0 
0 0 0 0 0 0 0 0 0 
0 0 0 0 0 0 0 0 0 
0 0 0 0 0 0 0 0 0 
0 0 0 0 0 0 0 0 0 
0 0 0 0 0 0 0 0 0 
0 0 0 0 0 0 0 0 0 
0 0 0 0 0 0 0 0 0 
0 0 0 0 0 0 0 0 0 
0 0 0 0 0 0 0 0 0 
0 0 0 0 0 0 0 0 0 
0 0 0 0 0 0 0 0 0 
0 0 0 0 0 0 0 0 0 
0 0 0 0 0 0 0 0 0 
0 0 0 0 0 0 0 0 0 
0 0 0 0 0 0 0 0 0 
0 0 0 0 0 0 0 0 0 
0 0 0 0 0 0 0 0 0 
0 0 0 0 0 0 0 0 0 
0 0 0 0 0 0 0 0 0 
0 0 0 0 0 0 0 0 0 
0 0 0 0 0 0 0 0 0 
0 0 0 0 0 0 0 0 0 
0 0 0 0 0 0 0 0 0 
0 0 0 
radius 1 100 double
0.010434 0.00981478 0.00892069 0.00845937 0.00731974 0.00728422 0.00643447 0.00619172 0.00585956 
0.00577566 0.00537241 0.00522549 0.00513666 0.00473175 0.00466912 0.00444866 0.00441894 0.00400812 
0.00385622 0.00379948 0.00370243 0.00366942 0.00364039 0.00363813 0.00363644 0.00358692 0.0035797 
0.00341284 0.00337012 0.00336273 0.00332772 0.00323261 0.00320584 0.00320311 0.00318808 0.00313116 
0.00306026 0.00305632 0.00304383 0.00300958 0.00300137 0.00298994 0.0029567 0.00295111 0.00290849 
0.00284552 0.00282964 0.0028207 0.00281971 0.00281899 0.010434 0.00981478 0.00892069 0.00845937 
0.00731974 0.00728422 0.00643447 0.00619172 0.00585956 0.00577566 0.00537241 0.00522549 0.00513666 
0.00473175 0.00466912 0.00444866 0.00441894 0.00400812 0.00385622 0.00379948 0.00370243 0.00366942 
0.00364039 0.00363813 0.00363644 0.00358692 0.0035797 0.00341284 0.00337012 0.00336273 0.00332772 
0.00323261 0.00320584 0.00320311 0.00318808 0.00313116 0.00306026 0.00305632 0.00304383 0.00300958 
0.00300137 0.00298994 0.0029567 0.00295111 0.00290849 0.00284552 0.00282964 0.0028207 0.00281971 
0.00281899 
omega 3 100 double
1.6260513293 -7.1019114307 0.4345933969 1.6260513293 -7.1019114307 0.4345933969 1.6260513293 -7.1019114307 0.4345933969 
1.6260513293 -7.1019114307 0.4345933969 1.6260513293 -7.1019114307 0.4345933969 1.6260513293 -7.1019114307 0.4345933969 
1.6260513293 -7.1019114307 0.4345933969 1.6260513293 -7.1019114307 0.4345933969 1.6260513293 -7.1019114307 0.4345933969 
1.6260513293 -7.1019114307 0.4345933969 1.6260513293 -7.1019114307 0.4345933969 1.6260513293 -7.1019114307 0.4345933969 
1.6260513293 -7.1019114307 0.4345933969 1.6260513293 -7.1019114307 0.4345933969 1.6260513293 -7.1019114307 0.4345933969 
1.6260513293 -7.1019114307 0.4345933969 1.6260513293 -7.1019114307 0.4345933969 1.6260513293 -7.1019114307 0.4345933969 
1.6260513293 -7.1019114307 0.4345933969 1.6260513293 -7.1019114307 0.4345933969 1.6260513293 -7.1019114307 0.4345933969 
1.6260513293 -7.1019114307 0.4345933969 1.6260513293 -7.1019114307 0.4345933969 1.6260513293 -7.1019114307 0.4345933969 
1.6260513293 -7.1019114307 0.4345933969 1.6260513293 -7.1019114307 0.4345933969 1.6260513293 -7.1019114307 0.4345933969 
1.6260513293 -7.1019114307 0.4345933969 1.6260513293 -7.1019114307 0.4345933969 1.6260513293 -7.1019114307 0.4345933969 
1.6260513293 -7.1019114307 0.4345933969 1.6260513293 -7.1019114307 0.4345933969 1.6260513293 -7.1019114307 0.4345933969 
1.6260513293 -7.1019114307 0.4345933969 1.6260513293 -7.1019114307 0.4345933969 1.6260513293 -7.1019114307 0.4345933969 
1.6260513293 -7.1019114307 0.4345933969 1.6260513293 -7.1019114307 0.4345933969 1.6260513293 -7.1019114307 0.4345933969 
1.6260513293 -7.1019114307 0.4345933969 1.6260513293 -7.1019114307 0.4345933969 1.6260513293 -7.1019114307 0.4345933969 
1.6260513293 -7.1019114307 0.4345933969 1.6260513293 -7.1019114307 0.4345933969 1.6260513293 -7.1019114307 0.4345933969 
1.6260513293 -7.1019114307 0.4345933969 1.6260513293 -7.1019114307 0.4345933969 1.6260513293 -7.1019114307 0.4345933969 
1.6260513293 -7.1019114307 0.4345933969 1.6260513293 -7.1019114307 0.4345933969 1.58498683 -6.9767112002 0.44389677013 
1.58498683 -6.9767112002 0.44389677013 1.58498683 -6.9767112002 0.44389677013 1.58498683 -6.9767112002 0.44389677013 
1.58498683 -6.9767112002 0.44389677013 1.58498683 -6.9767112002 0.44389677013 1.58498683 -6.9767112002 0.44389677013 
1.58498683 -6.9767112002 0.44389677013 1.58498683 -6.9767112002 0.44389677013 1.58498683 -6.9767112002 0.44389677013 
1.58498683 -6.9767112002 0.44389677013 1.58498683 -6.9767112002 0.44389677013 1.58498683 -6.9767112002 0.44389677013 
1.58498683 -6.9767112002 0.44389677013 1.58498683 -6.9767112002 0.44389677013 1.58498683 -6.9767112002 0.44389677013 
1.58498683 -6.9767112002 0.44389677013 1.58498683 -6.9767112002 0.44389677013 1.58498683 -6.9767112002 0.44389677013 
1.58498683 -6.9767112002 0.44389677013 1.58498683 -6.9767112002 0.44389677013 1.58498683 -6.9767112002 0.44389677013 
1.58498683 -6.9767112002 0.44389677013 1.58498683 -6.9767112002 0.44389677013 1.58498683 -6.9767112002 0.44389677013 
1.58498683 -6.9767112002 0.44389677013 1.58498683 -6.9767112002 0.44389677013 1.58498683 -6.9767112002 0.44389677013 
1.58498683 -6.9767112002 0.44389677013 1.58498683 -6.9767112002 0.44389677013 1.58498683 -6.9767112002 0.44389677013 
1.58498683 -6.9767112002 0.44389677013 1.58498683 -6.9767112002 0.44389677013 1.58498683 -6.9767112002 0.44389677013 
1.58498683 -6.9767112002 0.44389677013 1.58498683 -6.9767112002 0.44389677013 1.58498683 -6.9767112002 0.44389677013 
1.58498683 -6.9767112002 0.44389677013 1.58498683 -6.9767112002 0.44389677013 1.58498683 -6.9767112002 0.44389677013 
1.58498683 -6.9767112002 0.44389677013 1.58498683 -6.9767112002 0.44389677013 1.58498683 -6.9767112002 0.44389677013 
1.58498683 -6.9767112002 0.44389677013 1.58498683 -6.9767112002 0.44389677013 1.58498683 -6.9767112002 0.44389677013 
1.58498683 -6.9767112002 0.44389677013 1.58498683 -6.9767112002 0.44389677013 1.58498683 -6.9767112002 0.44389677013 
1.58498683 -6.9767112002 0.44389677013 
