# vtk DataFile Version 4.1
Generated by LIGGGHTS
ASCII
DATASET POLYDATA
POINTS 100 float
-0.116105 -0.133097 0.0207846 -0.125834 -0.133996 0.0170598 -0.135708 -0.134319 0.0153477 
-0.123338 -0.135419 0.0282208 -0.110113 -0.132223 0.0293524 -0.131578 -0.136352 0.0253422 
-0.142052 -0.137234 0.0211944 -0.115374 -0.137154 0.0314784 -0.144368 -0.13538 0.0132044 
-0.119118 -0.130107 0.0105965 -0.129213 -0.139053 0.0332134 -0.138473 -0.138707 0.0269784 
-0.124621 -0.126873 0.010004 -0.123952 -0.140018 0.036056 -0.130723 -0.128127 0.0102882 
-0.134798 -0.139909 0.0308687 -0.117298 -0.131462 0.0333574 -0.14228 -0.128959 0.0115174 
-0.114264 -0.135019 0.0105285 -0.147912 -0.138793 0.0175725 -0.118407 -0.138992 0.012461 
-0.12824 -0.14145 0.0383449 -0.111167 -0.139812 0.0274374 -0.103411 -0.128445 0.0298474 
-0.105859 -0.133764 0.0235364 -0.121091 -0.125534 0.0142506 -0.109093 -0.125642 0.026084 
-0.106308 -0.126251 0.0315636 -0.132384 -0.141493 0.0369649 -0.128469 -0.129245 0.0253554 
-0.135363 -0.141426 0.0352727 -0.108948 -0.138008 0.0340087 -0.130564 -0.140383 0.0112547 
-0.118918 -0.140568 0.0358465 -0.149533 -0.138074 0.0117805 -0.108044 -0.138491 0.0254609 
-0.139411 -0.141198 0.031999 -0.119856 -0.137163 0.0358985 -0.144851 -0.140665 0.0259855 
-0.124234 -0.131683 0.00739763 -0.135335 -0.141205 0.0213559 -0.120214 -0.141957 0.0328691 
-0.118415 -0.128489 0.0302386 -0.116801 -0.141787 0.0268676 -0.144059 -0.131704 0.0180087 
-0.147733 -0.140326 0.0223997 -0.105714 -0.132375 0.0198677 -0.127358 -0.13104 0.00771794 
-0.139183 -0.141613 0.0350512 -0.135385 -0.126603 0.00988125 -0.0471989 -0.105293 0.0191766 
-0.05685 -0.106192 0.0152541 -0.0666874 -0.106526 0.0133444 -0.054573 -0.107674 0.026454 
-0.0413804 -0.104457 0.0278666 -0.0627518 -0.108608 0.023407 -0.0731391 -0.109489 0.0190469 
-0.0466712 -0.109411 0.0298592 -0.075301 -0.107593 0.0110233 -0.050016 -0.102251 0.00894816 
-0.0605373 -0.11135 0.0313079 -0.0696727 -0.110988 0.0248922 -0.0555132 -0.0990248 0.0082651 
-0.0553315 -0.11232 0.0342489 -0.0616171 -0.100294 0.00842083 -0.0660727 -0.112205 0.0288477 
-0.0486452 -0.103735 0.0317325 -0.0731937 -0.101158 0.00941534 -0.0451499 -0.107152 0.00894816 
-0.0789233 -0.11104 0.0153003 -0.0493222 -0.111145 0.0107749 -0.0596616 -0.113775 0.0364437 
-0.0423793 -0.112037 0.0258872 -0.0346982 -0.100667 0.0285166 -0.0370077 -0.105955 0.0221275 
-0.0520711 -0.0977032 0.0125887 -0.0403106 -0.0978546 0.0246573 -0.037633 -0.0984899 0.0301876 
-0.0637773 -0.113819 0.0349814 -0.0596596 -0.101495 0.0235231 -0.066722 -0.113748 0.0332308 
-0.0402944 -0.110266 0.0325117 -0.0614489 -0.112555 0.0093193 -0.0502934 -0.112858 0.0341362 
-0.08043 -0.11029 0.00948154 -0.0392202 -0.110697 0.0239808 -0.0707043 -0.113509 0.0298788 
-0.0512401 -0.109455 0.0341892 -0.0760252 -0.112953 0.0237615 -0.055064 -0.10382 0.00563917 
-0.0664183 -0.113446 0.0193188 -0.0515271 -0.114232 0.0311256 -0.0497071 -0.100746 0.0286093 
-0.0479957 -0.11402 0.0251942 -0.0750949 -0.103944 0.0158541 -0.0788364 -0.1126 0.0201211 
-0.0367932 -0.104544 0.0184705 -0.0581949 -0.103185 0.00590107 -0.0705364 -0.113942 0.0329324 
-0.0662728 -0.0987779 0.00793013 
VERTICES 100 200
1 0 
1 1 
1 2 
1 3 
1 4 
1 5 
1 6 
1 7 
1 8 
1 9 
1 10 
1 11 
1 12 
1 13 
1 14 
1 15 
1 16 
1 17 
1 18 
1 19 
1 20 
1 21 
1 22 
1 23 
1 24 
1 25 
1 26 
1 27 
1 28 
1 29 
1 30 
1 31 
1 32 
1 33 
1 34 
1 35 
1 36 
1 37 
1 38 
1 39 
1 40 
1 41 
1 42 
1 43 
1 44 
1 45 
1 46 
1 47 
1 48 
1 49 
1 50 
1 51 
1 52 
1 53 
1 54 
1 55 
1 56 
1 57 
1 58 
1 59 
1 60 
1 61 
1 62 
1 63 
1 64 
1 65 
1 66 
1 67 
1 68 
1 69 
1 70 
1 71 
1 72 
1 73 
1 74 
1 75 
1 76 
1 77 
1 78 
1 79 
1 80 
1 81 
1 82 
1 83 
1 84 
1 85 
1 86 
1 87 
1 88 
1 89 
1 90 
1 91 
1 92 
1 93 
1 94 
1 95 
1 96 
1 97 
1 98 
1 99 

POINT_DATA 100
FIELD FieldData 7
id 1 100 int
1 2 3 4 5 6 7 8 9 
10 11 12 13 14 15 16 17 18 
19 20 21 22 23 24 25 26 27 
28 29 30 31 32 33 34 35 36 
37 38 39 40 41 42 43 44 45 
46 47 48 49 50 51 52 53 54 
55 56 57 58 59 60 61 62 63 
64 65 66 67 68 69 70 71 72 
73 74 75 76 77 78 79 80 81 
82 83 84 85 86 87 88 89 90 
91 92 93 94 95 96 97 98 99 
100 
mol 1 100 int
1 1 1 1 1 1 1 1 1 
1 1 1 1 1 1 1 1 1 
1 1 1 1 1 1 1 1 1 
1 1 1 1 1 1 1 1 1 
1 1 1 1 1 1 1 1 1 
1 1 1 1 1 2 2 2 2 
2 2 2 2 2 2 2 2 2 
2 2 2 2 2 2 2 2 2 
2 2 2 2 2 2 2 2 2 
2 2 2 2 2 2 2 2 2 
2 2 2 2 2 2 2 2 2 
2 
type 1 100 int
1 1 1 1 1 1 1 1 1 
1 1 1 1 1 1 1 1 1 
1 1 1 1 1 1 1 1 1 
1 1 1 1 1 1 1 1 1 
1 1 1 1 1 1 1 1 1 
1 1 1 1 1 1 1 1 1 
1 1 1 1 1 1 1 1 1 
1 1 1 1 1 1 1 1 1 
1 1 1 1 1 1 1 1 1 
1 1 1 1 1 1 1 1 1 
1 1 1 1 1 1 1 1 1 
1 
v 3 100 double
-0.12887600738 -0.064242079347 -0.23408188139 -0.1020680555 -0.062170294934 -0.30460499013 -0.089783675251 -0.063512510099 -0.37519749278 
-0.1806476062 -0.079700906005 -0.28926663987 -0.19003330301 -0.075968434765 -0.19011700791 -0.15982895515 -0.078406031269 -0.3492792549 
-0.13002639522 -0.075945835976 -0.42505817857 -0.20302300512 -0.081744391222 -0.23565322118 -0.074127029114 -0.063620913792 -0.43840609904 
-0.057864427212 -0.048551748268 -0.25048039347 -0.21452564516 -0.090512554608 -0.33699974896 -0.17043644093 -0.084060152175 -0.40212237469 
-0.055034194122 -0.049902027239 -0.2841329036 -0.23428338523 -0.093012772115 -0.3012803358 -0.056518239061 -0.052967547686 -0.32951649926 
-0.19752642579 -0.088979144329 -0.37805011052 -0.21877119174 -0.08569151087 -0.23982494788 -0.064885652564 -0.059923708751 -0.41289206654 
-0.055295403563 -0.046376361267 -0.2242194479 -0.10366727031 -0.07240217483 -0.46923647812 -0.067318232935 -0.051355405676 -0.26023647432 
-0.24991361645 -0.098646924702 -0.33409309931 -0.1732235325 -0.073226481299 -0.21023817233 -0.19515060107 -0.073946353988 -0.13627462364 
-0.14811579554 -0.064473516052 -0.1624982374 -0.085731361745 -0.055476111364 -0.25685696499 -0.16964050154 -0.070091021792 -0.17191761403 
-0.20825835684 -0.07803529535 -0.15316971283 -0.24010482778 -0.098108540371 -0.36356589635 -0.16294116906 -0.077107363873 -0.31538301665 
-0.22812766881 -0.096555073648 -0.38458711615 -0.22061203936 -0.08322948355 -0.1914828318 -0.058168916878 -0.054509515707 -0.34879877932 
-0.23256335119 -0.090525665861 -0.2664834162 -0.062880555329 -0.063442755409 -0.47953366097 -0.15976202114 -0.068607456441 -0.18587637256 
-0.20499883334 -0.092821367821 -0.41292344042 -0.23437828739 -0.091010704994 -0.2674676943 -0.16256094364 -0.085115465962 -0.45063322202 
-0.034499504396 -0.045396438791 -0.28940348107 -0.12948529182 -0.073362003148 -0.38402243032 -0.21084921036 -0.086116705858 -0.27799322426 
-0.19790660911 -0.080971034593 -0.24279994256 -0.16834225161 -0.074670152981 -0.25349385561 -0.10977407796 -0.071491912087 -0.43008437703 
-0.13726373786 -0.080366677743 -0.47051796906 -0.12267741861 -0.058301059611 -0.15915709381 -0.037045227641 -0.047256770305 -0.31049343536 
-0.22647695699 -0.097808736919 -0.41200033336 -0.054277991746 -0.054269561498 -0.36004919313 -0.1276935939 -0.063831276456 -0.28248108353 
-0.099964129411 -0.061665813427 -0.35120554164 -0.086507699462 -0.06284934266 -0.42031242763 -0.17737856623 -0.078859216772 -0.33774180657 
-0.18862505139 -0.075407114543 -0.24056996623 -0.15573509647 -0.077473919441 -0.39626201094 -0.12496266335 -0.074918415111 -0.47008915373 
-0.20035515065 -0.080946701207 -0.28548867859 -0.069866222739 -0.062832141065 -0.48207825894 -0.057729492123 -0.048450453558 -0.297175844 
-0.20960765792 -0.089338050238 -0.38528070446 -0.16504987948 -0.082899647231 -0.44836318898 -0.054373854314 -0.049735553099 -0.33025137999 
-0.22968268873 -0.091845934249 -0.3505724935 -0.054906446161 -0.052646798052 -0.37485432053 -0.19208873151 -0.087754298464 -0.42524833848 
-0.21588331856 -0.084848027211 -0.2900308096 -0.061461709765 -0.059303526723 -0.45694290693 -0.055595114998 -0.046331126731 -0.27121754418 
-0.098174298151 -0.071354224581 -0.51292133742 -0.066587936238 -0.051114366051 -0.30678111754 -0.2443465138 -0.097295515132 -0.38311362178 
-0.17152778907 -0.072628202521 -0.25983950854 -0.19480575147 -0.07355217219 -0.18784314858 -0.14797254431 -0.064184094311 -0.21252523158 
-0.085083484804 -0.055256529307 -0.30411465911 -0.16913242944 -0.069730218659 -0.22239337114 -0.20740029355 -0.077543522123 -0.20476278135 
-0.23413591859 -0.096713793506 -0.41187049291 -0.15964205276 -0.076315660336 -0.36316092461 -0.22196533815 -0.095153806365 -0.43227925663 
-0.2184698553 -0.082476276769 -0.24243294407 -0.055828613383 -0.0540324125 -0.39359030158 -0.22866333262 -0.089468798381 -0.31633157838 
-0.057945951528 -0.062562591864 -0.52220465365 -0.15882430444 -0.068156932679 -0.23564589206 -0.19870639313 -0.091445506445 -0.45964723024 
-0.23051470193 -0.089967184328 -0.31740513 -0.15631340163 -0.083830497688 -0.49583001149 -0.033983682858 -0.045276244573 -0.33490592533 
-0.12513415333 -0.072432835765 -0.42967322882 -0.20708179768 -0.085117836875 -0.32716151877 -0.19541733979 -0.080239453333 -0.29257928687 
-0.16583388183 -0.073949040975 -0.30220427726 -0.10512420842 -0.070586000326 -0.47471751784 -0.13109447137 -0.079143932254 -0.51484987768 
-0.12309877728 -0.058152872484 -0.20873983024 -0.036085476408 -0.047065054584 -0.35569645715 -0.21980113524 -0.09633057185 -0.45917933877 
-0.052146748788 -0.053877772312 -0.40484196636 
f 3 100 double
0 0 0 0 0 0 0 0 0 
0 0 0 0 0 0 0 0 0 
0 0 0 0 0 0 0 0 0 
0 0 0 0 0 0 0 0 0 
0 0 0 0 0 0 0 0 0 
0 0 0 0 0 0 0 0 0 
0 0 0 0 0 0 0 0 0 
0 0 0 0 0 0 0 0 0 
0 0 0 0 0 0 0 0 0 
0 0 0 0 0 0 0 0 0 
0 0 0 0 0 0 0 0 0 
0 0 0 0 0 0 0 0 0 
0 0 0 0 0 0 0 0 0 
0 0 0 0 0 0 0 0 0 
0 0 0 0 0 0 0 0 0 
0 0 0 0 0 0 0 0 0 
0 0 0 0 0 0 0 0 0 
0 0 0 0 0 0 0 0 0 
0 0 0 0 0 0 0 0 0 
0 0 0 0 0 0 0 0 0 
0 0 0 0 0 0 0 0 0 
0 0 0 0 0 0 0 0 0 
0 0 0 0 0 0 0 0 0 
0 0 0 0 0 0 0 0 0 
0 0 0 0 0 0 0 0 0 
0 0 0 0 0 0 0 0 0 
0 0 0 0 0 0 0 0 0 
0 0 0 0 0 0 0 0 0 
0 0 0 0 0 0 0 0 0 
0 0 0 0 0 0 0 0 0 
0 0 0 0 0 0 0 0 0 
0 0 0 0 0 0 0 0 0 
0 0 0 0 0 0 0 0 0 
0 0 0 
radius 1 100 double
0.010434 0.00981478 0.00892069 0.00845937 0.00731974 0.00728422 0.00643447 0.00619172 0.00585956 
0.00577566 0.00537241 0.00522549 0.00513666 0.00473175 0.00466912 0.00444866 0.00441894 0.00400812 
0.00385622 0.00379948 0.00370243 0.00366942 0.00364039 0.00363813 0.00363644 0.00358692 0.0035797 
0.00341284 0.00337012 0.00336273 0.00332772 0.00323261 0.00320584 0.00320311 0.00318808 0.00313116 
0.00306026 0.00305632 0.00304383 0.00300958 0.00300137 0.00298994 0.0029567 0.00295111 0.00290849 
0.00284552 0.00282964 0.0028207 0.00281971 0.00281899 0.010434 0.00981478 0.00892069 0.00845937 
0.00731974 0.00728422 0.00643447 0.00619172 0.00585956 0.00577566 0.00537241 0.00522549 0.00513666 
0.00473175 0.00466912 0.00444866 0.00441894 0.00400812 0.00385622 0.00379948 0.00370243 0.00366942 
0.00364039 0.00363813 0.00363644 0.00358692 0.0035797 0.00341284 0.00337012 0.00336273 0.00332772 
0.00323261 0.00320584 0.00320311 0.00318808 0.00313116 0.00306026 0.00305632 0.00304383 0.00300958 
0.00300137 0.00298994 0.0029567 0.00295111 0.00290849 0.00284552 0.00282964 0.0028207 0.00281971 
0.00281899 
omega 3 100 double
1.6657034342 -7.0947398487 0.42475901338 1.6657034342 -7.0947398487 0.42475901338 1.6657034342 -7.0947398487 0.42475901338 
1.6657034342 -7.0947398487 0.42475901338 1.6657034342 -7.0947398487 0.42475901338 1.6657034342 -7.0947398487 0.42475901338 
1.6657034342 -7.0947398487 0.42475901338 1.6657034342 -7.0947398487 0.42475901338 1.6657034342 -7.0947398487 0.42475901338 
1.6657034342 -7.0947398487 0.42475901338 1.6657034342 -7.0947398487 0.42475901338 1.6657034342 -7.0947398487 0.42475901338 
1.6657034342 -7.0947398487 0.42475901338 1.6657034342 -7.0947398487 0.42475901338 1.6657034342 -7.0947398487 0.42475901338 
1.6657034342 -7.0947398487 0.42475901338 1.6657034342 -7.0947398487 0.42475901338 1.6657034342 -7.0947398487 0.42475901338 
1.6657034342 -7.0947398487 0.42475901338 1.6657034342 -7.0947398487 0.42475901338 1.6657034342 -7.0947398487 0.42475901338 
1.6657034342 -7.0947398487 0.42475901338 1.6657034342 -7.0947398487 0.42475901338 1.6657034342 -7.0947398487 0.42475901338 
1.6657034342 -7.0947398487 0.42475901338 1.6657034342 -7.0947398487 0.42475901338 1.6657034342 -7.0947398487 0.42475901338 
1.6657034342 -7.0947398487 0.42475901338 1.6657034342 -7.0947398487 0.42475901338 1.6657034342 -7.0947398487 0.42475901338 
1.6657034342 -7.0947398487 0.42475901338 1.6657034342 -7.0947398487 0.42475901338 1.6657034342 -7.0947398487 0.42475901338 
1.6657034342 -7.0947398487 0.42475901338 1.6657034342 -7.0947398487 0.42475901338 1.6657034342 -7.0947398487 0.42475901338 
1.6657034342 -7.0947398487 0.42475901338 1.6657034342 -7.0947398487 0.42475901338 1.6657034342 -7.0947398487 0.42475901338 
1.6657034342 -7.0947398487 0.42475901338 1.6657034342 -7.0947398487 0.42475901338 1.6657034342 -7.0947398487 0.42475901338 
1.6657034342 -7.0947398487 0.42475901338 1.6657034342 -7.0947398487 0.42475901338 1.6657034342 -7.0947398487 0.42475901338 
1.6657034342 -7.0947398487 0.42475901338 1.6657034342 -7.0947398487 0.42475901338 1.6657034342 -7.0947398487 0.42475901338 
1.6657034342 -7.0947398487 0.42475901338 1.6657034342 -7.0947398487 0.42475901338 1.6236884223 -6.9697140923 0.43552692987 
1.6236884223 -6.9697140923 0.43552692987 1.6236884223 -6.9697140923 0.43552692987 1.6236884223 -6.9697140923 0.43552692987 
1.6236884223 -6.9697140923 0.43552692987 1.6236884223 -6.9697140923 0.43552692987 1.6236884223 -6.9697140923 0.43552692987 
1.6236884223 -6.9697140923 0.43552692987 1.6236884223 -6.9697140923 0.43552692987 1.6236884223 -6.9697140923 0.43552692987 
1.6236884223 -6.9697140923 0.43552692987 1.6236884223 -6.9697140923 0.43552692987 1.6236884223 -6.9697140923 0.43552692987 
1.6236884223 -6.9697140923 0.43552692987 1.6236884223 -6.9697140923 0.43552692987 1.6236884223 -6.9697140923 0.43552692987 
1.6236884223 -6.9697140923 0.43552692987 1.6236884223 -6.9697140923 0.43552692987 1.6236884223 -6.9697140923 0.43552692987 
1.6236884223 -6.9697140923 0.43552692987 1.6236884223 -6.9697140923 0.43552692987 1.6236884223 -6.9697140923 0.43552692987 
1.6236884223 -6.9697140923 0.43552692987 1.6236884223 -6.9697140923 0.43552692987 1.6236884223 -6.9697140923 0.43552692987 
1.6236884223 -6.9697140923 0.43552692987 1.6236884223 -6.9697140923 0.43552692987 1.6236884223 -6.9697140923 0.43552692987 
1.6236884223 -6.9697140923 0.43552692987 1.6236884223 -6.9697140923 0.43552692987 1.6236884223 -6.9697140923 0.43552692987 
1.6236884223 -6.9697140923 0.43552692987 1.6236884223 -6.9697140923 0.43552692987 1.6236884223 -6.9697140923 0.43552692987 
1.6236884223 -6.9697140923 0.43552692987 1.6236884223 -6.9697140923 0.43552692987 1.6236884223 -6.9697140923 0.43552692987 
1.6236884223 -6.9697140923 0.43552692987 1.6236884223 -6.9697140923 0.43552692987 1.6236884223 -6.9697140923 0.43552692987 
1.6236884223 -6.9697140923 0.43552692987 1.6236884223 -6.9697140923 0.43552692987 1.6236884223 -6.9697140923 0.43552692987 
1.6236884223 -6.9697140923 0.43552692987 1.6236884223 -6.9697140923 0.43552692987 1.6236884223 -6.9697140923 0.43552692987 
1.6236884223 -6.9697140923 0.43552692987 1.6236884223 -6.9697140923 0.43552692987 1.6236884223 -6.9697140923 0.43552692987 
1.6236884223 -6.9697140923 0.43552692987 
