# vtk DataFile Version 4.1
Generated by LIGGGHTS
ASCII
DATASET POLYDATA
POINTS 100 float
-0.118718 -0.143132 0.0145231 -0.128372 -0.141151 0.0110298 -0.138161 -0.139514 0.0096023 
-0.126389 -0.147569 0.0203946 -0.112916 -0.146792 0.0224614 -0.134594 -0.146165 0.01761 
-0.144973 -0.143896 0.0137623 -0.118785 -0.151487 0.0223679 -0.14682 -0.138492 0.00743518 
-0.121057 -0.135676 0.00672848 -0.132796 -0.152279 0.0234608 -0.141765 -0.148153 0.0182367 
-0.126116 -0.131872 0.0077427 -0.127772 -0.155005 0.025465 -0.13233 -0.132385 0.0076106 
-0.138373 -0.151356 0.0211217 -0.120072 -0.146992 0.0265827 -0.143934 -0.132278 0.00865333 
-0.116821 -0.140613 0.0044073 -0.15087 -0.143013 0.00997493 -0.121462 -0.144503 0.00452689 
-0.132266 -0.156764 0.0270135 -0.11481 -0.152608 0.017466 -0.105829 -0.144436 0.0243767 
-0.108708 -0.14615 0.0164463 -0.122576 -0.132945 0.0120566 -0.111025 -0.139619 0.0223533 
-0.108493 -0.142877 0.0269496 -0.136343 -0.155707 0.0258593 -0.130663 -0.140198 0.0206307 
-0.139243 -0.154555 0.0244419 -0.112583 -0.154118 0.0241089 -0.133658 -0.143765 0.00314955 
-0.122836 -0.156008 0.0249077 -0.152224 -0.13966 0.00511538 -0.111495 -0.150944 0.0161807 
-0.143137 -0.152445 0.0216982 -0.123363 -0.152878 0.0264585 -0.148299 -0.148705 0.0166564 
-0.126229 -0.135081 0.00329544 -0.138784 -0.148316 0.0120085 -0.124201 -0.155799 0.0216569 
-0.120737 -0.142849 0.0250959 -0.120619 -0.153449 0.0162401 -0.146214 -0.137335 0.01335 
-0.151015 -0.1465 0.0136496 -0.108292 -0.143333 0.0137436 -0.129262 -0.134272 0.00394386 
-0.14305 -0.154168 0.0242597 -0.136763 -0.13029 0.00802661 -0.0500796 -0.114357 0.0149378 
-0.0597974 -0.112822 0.0113959 -0.0696598 -0.111857 0.00986806 -0.0574582 -0.120013 0.0200923 
-0.0441442 -0.118349 0.022613 -0.0656968 -0.119004 0.0172363 -0.0761542 -0.117206 0.0133514 
-0.049589 -0.123476 0.0218622 -0.0783301 -0.11133 0.00757296 -0.052892 -0.106333 0.00790051 
-0.0635002 -0.125537 0.0224657 -0.0726831 -0.121634 0.0174468 -0.0582762 -0.103091 0.00916138 
-0.0583022 -0.128036 0.0243169 -0.0644199 -0.104099 0.00879898 -0.0690882 -0.124835 0.0200773 
-0.0513374 -0.119578 0.0264848 -0.0760091 -0.105063 0.00951524 -0.048206 -0.110627 0.00519858 
-0.0820294 -0.116415 0.00951005 -0.0525003 -0.114879 0.00477871 -0.0626587 -0.130316 0.0255443 
-0.0454364 -0.123737 0.0169856 -0.0373233 -0.115632 0.0249655 -0.0398886 -0.116724 0.0168205 
-0.0547436 -0.10432 0.0134391 -0.0428706 -0.111073 0.0233085 -0.04016 -0.114581 0.02761 
-0.0667884 -0.129482 0.0243908 -0.0623491 -0.113089 0.0209744 -0.0697468 -0.12843 0.0230191 
-0.0432198 -0.125756 0.0234954 -0.0646845 -0.11501 0.00313807 -0.0532883 -0.128562 0.0237993 
-0.0835688 -0.112688 0.0049904 -0.0422511 -0.121677 0.0159764 -0.0737527 -0.126369 0.0204007 
-0.054111 -0.12567 0.0256527 -0.0791139 -0.122554 0.0156314 -0.0580277 -0.105806 0.004402 
-0.069578 -0.120886 0.0113234 -0.054602 -0.128122 0.0205504 -0.0523234 -0.11537 0.0254202 
-0.0511276 -0.12492 0.0155131 -0.0779421 -0.110763 0.0135911 -0.0819484 -0.120274 0.0127949 
-0.0396616 -0.113612 0.0144396 -0.0611307 -0.105324 0.00504445 -0.0735686 -0.128342 0.0227696 
-0.0690228 -0.102434 0.00930465 
VERTICES 100 200
1 0 
1 1 
1 2 
1 3 
1 4 
1 5 
1 6 
1 7 
1 8 
1 9 
1 10 
1 11 
1 12 
1 13 
1 14 
1 15 
1 16 
1 17 
1 18 
1 19 
1 20 
1 21 
1 22 
1 23 
1 24 
1 25 
1 26 
1 27 
1 28 
1 29 
1 30 
1 31 
1 32 
1 33 
1 34 
1 35 
1 36 
1 37 
1 38 
1 39 
1 40 
1 41 
1 42 
1 43 
1 44 
1 45 
1 46 
1 47 
1 48 
1 49 
1 50 
1 51 
1 52 
1 53 
1 54 
1 55 
1 56 
1 57 
1 58 
1 59 
1 60 
1 61 
1 62 
1 63 
1 64 
1 65 
1 66 
1 67 
1 68 
1 69 
1 70 
1 71 
1 72 
1 73 
1 74 
1 75 
1 76 
1 77 
1 78 
1 79 
1 80 
1 81 
1 82 
1 83 
1 84 
1 85 
1 86 
1 87 
1 88 
1 89 
1 90 
1 91 
1 92 
1 93 
1 94 
1 95 
1 96 
1 97 
1 98 
1 99 

POINT_DATA 100
FIELD FieldData 7
id 1 100 int
1 2 3 4 5 6 7 8 9 
10 11 12 13 14 15 16 17 18 
19 20 21 22 23 24 25 26 27 
28 29 30 31 32 33 34 35 36 
37 38 39 40 41 42 43 44 45 
46 47 48 49 50 51 52 53 54 
55 56 57 58 59 60 61 62 63 
64 65 66 67 68 69 70 71 72 
73 74 75 76 77 78 79 80 81 
82 83 84 85 86 87 88 89 90 
91 92 93 94 95 96 97 98 99 
100 
mol 1 100 int
1 1 1 1 1 1 1 1 1 
1 1 1 1 1 1 1 1 1 
1 1 1 1 1 1 1 1 1 
1 1 1 1 1 1 1 1 1 
1 1 1 1 1 1 1 1 1 
1 1 1 1 1 2 2 2 2 
2 2 2 2 2 2 2 2 2 
2 2 2 2 2 2 2 2 2 
2 2 2 2 2 2 2 2 2 
2 2 2 2 2 2 2 2 2 
2 2 2 2 2 2 2 2 2 
2 
type 1 100 int
1 1 1 1 1 1 1 1 1 
1 1 1 1 1 1 1 1 1 
1 1 1 1 1 1 1 1 1 
1 1 1 1 1 1 1 1 1 
1 1 1 1 1 1 1 1 1 
1 1 1 1 1 1 1 1 1 
1 1 1 1 1 1 1 1 1 
1 1 1 1 1 1 1 1 1 
1 1 1 1 1 1 1 1 1 
1 1 1 1 1 1 1 1 1 
1 1 1 1 1 1 1 1 1 
1 
v 3 100 double
0.11237422992 -0.14832147479 -0.10318480747 0.091143627807 -0.098004852164 -0.01598554817 0.084482579111 -0.063231192993 0.069577484495 
0.14536107474 -0.17476399438 -0.080071715978 0.16266208302 -0.22340945005 -0.17455769212 0.12801410215 -0.13341741312 -0.0081055969881 
0.10484141664 -0.078615455828 0.086710346677 0.1505455577 -0.20841513353 -0.16685666613 0.070809095088 -0.025523226496 0.14199032659 
0.072389500341 -0.082759457362 -0.028476426871 0.15676719244 -0.18273058159 -0.068472707021 0.12785102912 -0.12078882427 0.030092360237 
0.08920411832 -0.07824432564 0.038465369627 0.16507982844 -0.21034543773 -0.12687470485 0.086972014474 -0.062115437136 0.080859485382 
0.14157072678 -0.15119849224 -0.019801602716 0.19290544297 -0.23765969234 -0.12273311178 0.095007519708 -0.041899978335 0.16820615125 
0.043074848942 -0.075232161654 -0.097977335016 0.078749920013 -0.035180003035 0.13746464546 0.034504576862 -0.064861264497 -0.093250314609 
0.1723469452 -0.21131087888 -0.10688466904 0.11126712412 -0.18043252069 -0.20511747435 0.18267312541 -0.25535891873 -0.20930381222 
0.11937259685 -0.18744124701 -0.20100559806 0.11876132918 -0.11999007143 0.0038356133622 0.17930299712 -0.22717722875 -0.13355571773 
0.20564979999 -0.26864402864 -0.17746885192 0.16631256223 -0.19252616917 -0.068356751623 0.16504872739 -0.16618134192 0.0084121262892 
0.15854589467 -0.17458710686 -0.037891731137 0.15712574407 -0.23687515764 -0.23332061239 0.026029461784 -0.024618723807 0.0033487440109 
0.15848645063 -0.21807206713 -0.17138261399 0.050670515227 0.0054418823974 0.17331612746 0.10573251861 -0.17862195567 -0.21704550234 
0.14322165851 -0.14403874079 0.0073602691595 0.1776609077 -0.22870139994 -0.14341379263 0.11472391979 -0.092757024122 0.074568365968 
0.048239351138 -0.043808523417 0.014661364268 0.081015026938 -0.080196907676 0.0066185318234 0.13475460523 -0.18978096951 -0.15960154839 
0.1918953495 -0.22462267772 -0.085958020581 0.10008168664 -0.15688539935 -0.16825744207 0.11772630422 -0.072429106555 0.14636515018 
0.097667399037 -0.063054305465 0.11175746934 0.10607130395 -0.16769196678 -0.18246973224 0.055042314398 -0.041412314943 0.04349073858 
0.15812789899 -0.16392749108 -0.0065347086239 0.095170216609 -0.05452818958 0.13000816377 0.084401273788 -0.11805664946 -0.10209241585 
0.063514879607 -0.086677766574 -0.031184507237 0.054671213587 -0.070034416755 0.036412894828 0.11292205419 -0.1519273819 -0.098433112774 
0.12929781808 -0.17776587159 -0.16786414858 0.095954710673 -0.12640421102 -0.040470687827 0.073108601099 -0.092097246225 0.036909940372 
0.12188170763 -0.1692592867 -0.17218070362 0.040880472438 -0.048400444236 0.093476403012 0.045628580034 -0.064752045244 -0.025820253461 
0.12445418738 -0.16607341176 -0.10199794703 0.095804887848 -0.1241237951 -0.016957329459 0.055140699433 -0.071075510422 0.031060987366 
0.13444134316 -0.18253961926 -0.15226636253 0.052365095004 -0.065042609077 0.061335399681 0.11018746024 -0.14544282475 -0.062553057903 
0.15237591951 -0.20230275736 -0.13277751757 0.056230214144 -0.063959202036 0.12533376785 0.026699933673 -0.047446003264 -0.086151680441 
0.049976661688 -0.06062144328 0.078766157106 0.021794155986 -0.042003989388 -0.091079042418 0.14072118244 -0.18917987674 -0.142309924 
0.091822829924 -0.13566474837 -0.19957350975 0.14521824744 -0.19880839405 -0.18972609518 0.094653486894 -0.13749081293 -0.18202312327 
0.080708914776 -0.10447675014 0.00035009409009 0.13755162273 -0.18357940276 -0.12216265527 0.16201681427 -0.21670535144 -0.16459549726 
0.1341013413 -0.17843139282 -0.1108471362 0.12212856993 -0.15573516434 -0.017495904326 0.12626386233 -0.16672084269 -0.084957597847 
0.13065104036 -0.18476313324 -0.22802155508 0.011657733495 -0.023258114837 -0.017298187071 0.1309779655 -0.18148038827 -0.18689117619 
0.024293512074 -0.026532949924 0.11562680743 0.086760857218 -0.12998689886 -0.20395745439 0.11133035036 -0.14526488655 -0.045223210737 
0.14393233915 -0.19466181009 -0.16057214486 0.08416417153 -0.10724589989 0.015727272101 0.024455781305 -0.036203627674 0.0095633268689 
0.058649977147 -0.080783850758 -0.030505286829 0.1112881342 -0.15686238166 -0.17559733597 0.14815172807 -0.19393194816 -0.095776408088 
0.082141469694 -0.12171445226 -0.17336104597 0.078110020937 -0.092880264784 0.095267722392 0.068013021721 -0.084827877543 0.049888409754 
0.081754089841 -0.120102567 -0.16051851681 0.028660989995 -0.039228491998 0.032143142824 0.12478111252 -0.1627906668 -0.060867568141 
0.056379750724 -0.066239280357 0.10182034656 
f 3 100 double
0 0 0 0 0 0 0 0 0 
0 0 0 0 0 0 0 0 0 
0 0 0 0 0 0 0 0 0 
0 0 0 0 0 0 0 0 0 
0 0 0 0 0 0 0 0 0 
0 0 0 0 0 0 0 0 0 
0 0 0 0 0 0 0 0 0 
0 0 0 0 0 0 0 0 0 
0 0 0 0 0 0 0 0 0 
0 0 0 0 0 0 0 0 0 
0 0 0 0 0 0 -0.0011182875734 -0.00046151189187 0.16536104794 
0 0 0 0 0 0 0 0 0 
0 0 0 0 0 0 0 0 0 
0 0 0 0 0 0 0 0 0 
0 0 0 0 0 0 0 0 0 
0 0 0 0 0 0 0 0 0 
0 0 0 0 0 0 0 0 0 
0 0 0 0 0 0 0 0 0 
0 0 0 0 0 0 0 0 0 
0 0 0 0 0 0 0 0 0 
0 0 0 0 0 0 0 0 0 
0 0 0 0 0 0 0 0 0 
0 0 0 0 0 0 0 0 0 
0 0 0 0 0 0 0 0 0 
0 0 0 0 0 0 0 0 0 
0 0 0 0 0 0 0 0 0 
0 0 0 0 0 0 0 0 0 
0 0 0 -0.026968000828 -0.0065507086344 0.44948993309 0 0 0 
0 0 0 0 0 0 0 0 0 
0 0 0 0 0 0 0 0 0 
0 0 0 0 0 0 0 0 0 
0 0 0 0 0 0 0 0 0 
0 0 0 0 0 0 0 0 0 
0 0 0 
radius 1 100 double
0.010434 0.00981478 0.00892069 0.00845937 0.00731974 0.00728422 0.00643447 0.00619172 0.00585956 
0.00577566 0.00537241 0.00522549 0.00513666 0.00473175 0.00466912 0.00444866 0.00441894 0.00400812 
0.00385622 0.00379948 0.00370243 0.00366942 0.00364039 0.00363813 0.00363644 0.00358692 0.0035797 
0.00341284 0.00337012 0.00336273 0.00332772 0.00323261 0.00320584 0.00320311 0.00318808 0.00313116 
0.00306026 0.00305632 0.00304383 0.00300958 0.00300137 0.00298994 0.0029567 0.00295111 0.00290849 
0.00284552 0.00282964 0.0028207 0.00281971 0.00281899 0.010434 0.00981478 0.00892069 0.00845937 
0.00731974 0.00728422 0.00643447 0.00619172 0.00585956 0.00577566 0.00537241 0.00522549 0.00513666 
0.00473175 0.00466912 0.00444866 0.00441894 0.00400812 0.00385622 0.00379948 0.00370243 0.00366942 
0.00364039 0.00363813 0.00363644 0.00358692 0.0035797 0.00341284 0.00337012 0.00336273 0.00332772 
0.00323261 0.00320584 0.00320311 0.00318808 0.00313116 0.00306026 0.00305632 0.00304383 0.00300958 
0.00300137 0.00298994 0.0029567 0.00295111 0.00290849 0.00284552 0.00282964 0.0028207 0.00281971 
0.00281899 
omega 3 100 double
7.6813138579 7.4563101879 -2.4323306107 7.6813138579 7.4563101879 -2.4323306107 7.6813138579 7.4563101879 -2.4323306107 
7.6813138579 7.4563101879 -2.4323306107 7.6813138579 7.4563101879 -2.4323306107 7.6813138579 7.4563101879 -2.4323306107 
7.6813138579 7.4563101879 -2.4323306107 7.6813138579 7.4563101879 -2.4323306107 7.6813138579 7.4563101879 -2.4323306107 
7.6813138579 7.4563101879 -2.4323306107 7.6813138579 7.4563101879 -2.4323306107 7.6813138579 7.4563101879 -2.4323306107 
7.6813138579 7.4563101879 -2.4323306107 7.6813138579 7.4563101879 -2.4323306107 7.6813138579 7.4563101879 -2.4323306107 
7.6813138579 7.4563101879 -2.4323306107 7.6813138579 7.4563101879 -2.4323306107 7.6813138579 7.4563101879 -2.4323306107 
7.6813138579 7.4563101879 -2.4323306107 7.6813138579 7.4563101879 -2.4323306107 7.6813138579 7.4563101879 -2.4323306107 
7.6813138579 7.4563101879 -2.4323306107 7.6813138579 7.4563101879 -2.4323306107 7.6813138579 7.4563101879 -2.4323306107 
7.6813138579 7.4563101879 -2.4323306107 7.6813138579 7.4563101879 -2.4323306107 7.6813138579 7.4563101879 -2.4323306107 
7.6813138579 7.4563101879 -2.4323306107 7.6813138579 7.4563101879 -2.4323306107 7.6813138579 7.4563101879 -2.4323306107 
7.6813138579 7.4563101879 -2.4323306107 7.6813138579 7.4563101879 -2.4323306107 7.6813138579 7.4563101879 -2.4323306107 
7.6813138579 7.4563101879 -2.4323306107 7.6813138579 7.4563101879 -2.4323306107 7.6813138579 7.4563101879 -2.4323306107 
7.6813138579 7.4563101879 -2.4323306107 7.6813138579 7.4563101879 -2.4323306107 7.6813138579 7.4563101879 -2.4323306107 
7.6813138579 7.4563101879 -2.4323306107 7.6813138579 7.4563101879 -2.4323306107 7.6813138579 7.4563101879 -2.4323306107 
7.6813138579 7.4563101879 -2.4323306107 7.6813138579 7.4563101879 -2.4323306107 7.6813138579 7.4563101879 -2.4323306107 
7.6813138579 7.4563101879 -2.4323306107 7.6813138579 7.4563101879 -2.4323306107 7.6813138579 7.4563101879 -2.4323306107 
7.6813138579 7.4563101879 -2.4323306107 7.6813138579 7.4563101879 -2.4323306107 7.355609145 6.1345619004 -0.5480848067 
7.355609145 6.1345619004 -0.5480848067 7.355609145 6.1345619004 -0.5480848067 7.355609145 6.1345619004 -0.5480848067 
7.355609145 6.1345619004 -0.5480848067 7.355609145 6.1345619004 -0.5480848067 7.355609145 6.1345619004 -0.5480848067 
7.355609145 6.1345619004 -0.5480848067 7.355609145 6.1345619004 -0.5480848067 7.355609145 6.1345619004 -0.5480848067 
7.355609145 6.1345619004 -0.5480848067 7.355609145 6.1345619004 -0.5480848067 7.355609145 6.1345619004 -0.5480848067 
7.355609145 6.1345619004 -0.5480848067 7.355609145 6.1345619004 -0.5480848067 7.355609145 6.1345619004 -0.5480848067 
7.355609145 6.1345619004 -0.5480848067 7.355609145 6.1345619004 -0.5480848067 7.355609145 6.1345619004 -0.5480848067 
7.355609145 6.1345619004 -0.5480848067 7.355609145 6.1345619004 -0.5480848067 7.355609145 6.1345619004 -0.5480848067 
7.355609145 6.1345619004 -0.5480848067 7.355609145 6.1345619004 -0.5480848067 7.355609145 6.1345619004 -0.5480848067 
7.355609145 6.1345619004 -0.5480848067 7.355609145 6.1345619004 -0.5480848067 7.355609145 6.1345619004 -0.5480848067 
7.355609145 6.1345619004 -0.5480848067 7.355609145 6.1345619004 -0.5480848067 7.355609145 6.1345619004 -0.5480848067 
7.355609145 6.1345619004 -0.5480848067 7.355609145 6.1345619004 -0.5480848067 7.355609145 6.1345619004 -0.5480848067 
7.355609145 6.1345619004 -0.5480848067 7.355609145 6.1345619004 -0.5480848067 7.355609145 6.1345619004 -0.5480848067 
7.355609145 6.1345619004 -0.5480848067 7.355609145 6.1345619004 -0.5480848067 7.355609145 6.1345619004 -0.5480848067 
7.355609145 6.1345619004 -0.5480848067 7.355609145 6.1345619004 -0.5480848067 7.355609145 6.1345619004 -0.5480848067 
7.355609145 6.1345619004 -0.5480848067 7.355609145 6.1345619004 -0.5480848067 7.355609145 6.1345619004 -0.5480848067 
7.355609145 6.1345619004 -0.5480848067 7.355609145 6.1345619004 -0.5480848067 7.355609145 6.1345619004 -0.5480848067 
7.355609145 6.1345619004 -0.5480848067 
