# vtk DataFile Version 4.1
Generated by LIGGGHTS
ASCII
DATASET POLYDATA
POINTS 100 float
-0.117293 -0.145692 0.0134552 -0.127161 -0.14297 0.011326 -0.136982 -0.140956 0.0111717 
-0.124523 -0.151 0.0191599 -0.110899 -0.15081 0.0200122 -0.132902 -0.148994 0.0174812 
-0.143516 -0.145914 0.0151268 -0.1169 -0.155323 0.019655 -0.145768 -0.139431 0.0100735 
-0.120105 -0.136918 0.00737832 -0.130767 -0.15609 0.0219463 -0.140044 -0.150956 0.0184379 
-0.124923 -0.133285 0.00954094 -0.125668 -0.159208 0.0229346 -0.131135 -0.133672 0.00992441 
-0.136504 -0.154677 0.0203625 -0.117644 -0.151643 0.024708 -0.142583 -0.133582 0.0120928 
-0.116264 -0.141418 0.00381424 -0.149708 -0.144274 0.0121489 -0.120997 -0.145196 0.00368965 
-0.130052 -0.16115 0.0245744 -0.113435 -0.155601 0.0142688 -0.103593 -0.148945 0.0216183 
-0.10725 -0.149157 0.0138275 -0.121034 -0.13517 0.0132299 -0.108797 -0.143764 0.0210003 
-0.105954 -0.147836 0.0246743 -0.134184 -0.159841 0.024029 -0.128518 -0.14373 0.0211196 
-0.137163 -0.158409 0.0231282 -0.11065 -0.158318 0.0202879 -0.133238 -0.144039 0.00365813 
-0.12084 -0.160167 0.0217304 -0.1514 -0.14008 0.00811941 -0.110202 -0.153782 0.0129845 
-0.141227 -0.155781 0.0211963 -0.12112 -0.157361 0.0238577 -0.146711 -0.151116 0.0174274 
-0.125552 -0.135636 0.00462563 -0.137663 -0.150037 0.0120205 -0.122494 -0.159355 0.0187171 
-0.11831 -0.147291 0.0240547 -0.119357 -0.15612 0.0134834 -0.144579 -0.139369 0.0160125 
-0.149623 -0.148365 0.01514 -0.106997 -0.145905 0.0116423 -0.128484 -0.134912 0.00569958 
-0.140957 -0.157939 0.0233888 -0.135441 -0.13162 0.011136 -0.0483547 -0.116516 0.0132909 
-0.0583942 -0.114454 0.0112185 -0.0683465 -0.113246 0.0110609 -0.0551751 -0.122829 0.0184513 
-0.0416225 -0.12159 0.0195363 -0.0636749 -0.121392 0.0167969 -0.0744843 -0.119018 0.0145155 
-0.0472242 -0.126538 0.018735 -0.0772173 -0.112365 0.00994156 -0.0518262 -0.107554 0.00786404 
-0.0610013 -0.128616 0.0207354 -0.0706384 -0.124001 0.0174837 -0.0569501 -0.104508 0.0102222 
-0.0556716 -0.131373 0.0215628 -0.0631124 -0.105433 0.0104739 -0.0668205 -0.127559 0.0191726 
-0.0483208 -0.123338 0.024044 -0.0745485 -0.106451 0.0124572 -0.0475908 -0.111431 0.0040262 
-0.0807618 -0.117664 0.0115731 -0.0519924 -0.115563 0.00353397 -0.0598952 -0.133791 0.0229766 
-0.0436959 -0.126109 0.0134001 -0.0345124 -0.119263 0.0213995 -0.0380629 -0.119164 0.0135574 
-0.0529542 -0.106352 0.0138172 -0.0401224 -0.114494 0.0210988 -0.0369872 -0.118594 0.0244934 
-0.0641155 -0.132786 0.022467 -0.0597781 -0.116087 0.020901 -0.0671949 -0.131537 0.0216312 
-0.0407537 -0.12905 0.0192361 -0.0642856 -0.115416 0.00339352 -0.0507686 -0.131836 0.0203665 
-0.0827563 -0.11332 0.0078522 -0.040613 -0.123936 0.0123125 -0.0714431 -0.129108 0.0198422 
-0.0513014 -0.129238 0.022699 -0.0772589 -0.124628 0.0163559 -0.0573338 -0.106512 0.00513057 
-0.0682789 -0.122391 0.0111957 -0.0524549 -0.130929 0.0173985 -0.0493396 -0.119018 0.0237176 
-0.0495465 -0.127048 0.0124813 -0.076095 -0.112671 0.0158861 -0.0803663 -0.121954 0.0142408 
-0.0380594 -0.115742 0.0116339 -0.060326 -0.106117 0.00620955 -0.0710163 -0.131402 0.0218658 
-0.067585 -0.103842 0.0117703 
VERTICES 100 200
1 0 
1 1 
1 2 
1 3 
1 4 
1 5 
1 6 
1 7 
1 8 
1 9 
1 10 
1 11 
1 12 
1 13 
1 14 
1 15 
1 16 
1 17 
1 18 
1 19 
1 20 
1 21 
1 22 
1 23 
1 24 
1 25 
1 26 
1 27 
1 28 
1 29 
1 30 
1 31 
1 32 
1 33 
1 34 
1 35 
1 36 
1 37 
1 38 
1 39 
1 40 
1 41 
1 42 
1 43 
1 44 
1 45 
1 46 
1 47 
1 48 
1 49 
1 50 
1 51 
1 52 
1 53 
1 54 
1 55 
1 56 
1 57 
1 58 
1 59 
1 60 
1 61 
1 62 
1 63 
1 64 
1 65 
1 66 
1 67 
1 68 
1 69 
1 70 
1 71 
1 72 
1 73 
1 74 
1 75 
1 76 
1 77 
1 78 
1 79 
1 80 
1 81 
1 82 
1 83 
1 84 
1 85 
1 86 
1 87 
1 88 
1 89 
1 90 
1 91 
1 92 
1 93 
1 94 
1 95 
1 96 
1 97 
1 98 
1 99 

POINT_DATA 100
FIELD FieldData 7
id 1 100 int
1 2 3 4 5 6 7 8 9 
10 11 12 13 14 15 16 17 18 
19 20 21 22 23 24 25 26 27 
28 29 30 31 32 33 34 35 36 
37 38 39 40 41 42 43 44 45 
46 47 48 49 50 51 52 53 54 
55 56 57 58 59 60 61 62 63 
64 65 66 67 68 69 70 71 72 
73 74 75 76 77 78 79 80 81 
82 83 84 85 86 87 88 89 90 
91 92 93 94 95 96 97 98 99 
100 
mol 1 100 int
1 1 1 1 1 1 1 1 1 
1 1 1 1 1 1 1 1 1 
1 1 1 1 1 1 1 1 1 
1 1 1 1 1 1 1 1 1 
1 1 1 1 1 1 1 1 1 
1 1 1 1 1 2 2 2 2 
2 2 2 2 2 2 2 2 2 
2 2 2 2 2 2 2 2 2 
2 2 2 2 2 2 2 2 2 
2 2 2 2 2 2 2 2 2 
2 2 2 2 2 2 2 2 2 
2 
type 1 100 int
1 1 1 1 1 1 1 1 1 
1 1 1 1 1 1 1 1 1 
1 1 1 1 1 1 1 1 1 
1 1 1 1 1 1 1 1 1 
1 1 1 1 1 1 1 1 1 
1 1 1 1 1 1 1 1 1 
1 1 1 1 1 1 1 1 1 
1 1 1 1 1 1 1 1 1 
1 1 1 1 1 1 1 1 1 
1 1 1 1 1 1 1 1 1 
1 1 1 1 1 1 1 1 1 
1 
v 3 100 double
0.049639046483 -0.14733046801 -0.050451469023 0.045512200108 -0.11301622696 0.012545167315 0.047119150045 -0.1009742427 0.067418599169 
0.06277838096 -0.20393795651 -0.086474132768 0.06577332587 -0.22782430781 -0.1290156852 0.059377578162 -0.17625597695 -0.036421314086 
0.054887590455 -0.13862529604 0.03304691521 0.059866714696 -0.21750883561 -0.16011902348 0.045118025249 -0.079398919128 0.11339496477 
0.038914633555 -0.075997001069 0.057499156409 0.066576283768 -0.22874211152 -0.12327301834 0.0604573878 -0.17952792517 -0.035067830937 
0.049819878385 -0.095277394402 0.1141895013 0.066546369429 -0.24521307941 -0.17507692838 0.050670840395 -0.093074037864 0.13020276483 
0.062864417096 -0.2048993028 -0.088556293776 0.08029927516 -0.27358786879 -0.11627268219 0.057877321294 -0.10546303927 0.16876553404 
0.022504650821 -0.039920529924 -0.0057282363746 0.046841992996 -0.098618673413 0.071808961951 0.018131873402 -0.033552488008 -0.032720192011 
0.069886142453 -0.25906519254 -0.18255643623 0.041909734789 -0.16053315654 -0.17461302148 0.072997927206 -0.25356339903 -0.13198678248 
0.047224387015 -0.1620569628 -0.12237823393 0.059939582149 -0.1408690047 0.08021457374 0.07640671603 -0.24114899968 -0.056625225232 
0.084184313551 -0.28547539764 -0.11176374011 0.069471042705 -0.2485934455 -0.15427682818 0.07683346456 -0.22179894977 0.008433697535 
0.068019084682 -0.2353301062 -0.1283915078 0.058799929718 -0.23118790285 -0.21431638982 0.019241773165 -0.020354489759 0.020435893787 
0.061590695155 -0.23672870602 -0.20170525293 0.038027477875 -0.051500141286 0.12455424678 0.039606862415 -0.14947302274 -0.1647399814 
0.064441246897 -0.20932718633 -0.085485540501 0.071511049754 -0.2603723928 -0.16921579011 0.056974549827 -0.16116090451 -0.015010455478 
0.031231873427 -0.039305800509 0.089789531176 0.040374528132 -0.10981266552 -0.032541182024 0.052560120559 -0.20108509037 -0.18714412487 
0.082723241795 -0.26553711203 -0.065112368554 0.03878990574 -0.14548195261 -0.16102671132 0.064660849133 -0.14747769143 0.11019177394 
0.052359853766 -0.13236639238 0.02550122414 0.043469478947 -0.13773356206 -0.086620932635 0.035513813047 -0.048314585257 0.10755314874 
0.069367049206 -0.23428291469 -0.11066188144 0.056797348887 -0.10219058152 0.16741189788 0.071269443549 -0.12481105255 -0.005026176332 
0.060723267795 -0.10157052887 0.069184410778 0.060313677261 -0.09637307527 0.13488762858 0.097089815098 -0.17080339987 -0.027167781874 
0.10347658524 -0.18606739544 -0.089508985774 0.088592672172 -0.15206891825 0.032761741041 0.077021820727 -0.12657510767 0.11411273586 
0.097254306912 -0.17643948127 -0.1054625684 0.054530699813 -0.082533379053 0.19160916519 0.04498290338 -0.072470836069 0.098220287504 
0.10740116924 -0.19011220409 -0.049785527289 0.091368909658 -0.15592958027 0.046243990072 0.058995880323 -0.092738341645 0.15484884261 
0.11088953824 -0.19988366074 -0.10481751302 0.060025582971 -0.092806232606 0.17980107991 0.099262391432 -0.17324005182 -0.008066782406 
0.12743675928 -0.22596543728 -0.069379797459 0.070474388352 -0.10719123232 0.23266760327 0.022580292997 -0.037953758593 0.038628983301 
0.061461409041 -0.096556096291 0.16112981298 0.018350125784 -0.031680826408 0.023796745953 0.11770709355 -0.21160569269 -0.10449566101 
0.068284827102 -0.12757749284 -0.12069413976 0.11451898734 -0.20624714666 -0.1064460298 0.071735937894 -0.13115941908 -0.086130102192 
0.077937211665 -0.1280439216 0.1156932504 0.11465680558 -0.20132397481 -0.030961767664 0.13166190699 -0.23442364669 -0.086638280705 
0.11529952365 -0.20523704119 -0.072004054669 0.11298212533 -0.19212586622 0.061383085768 0.11120186747 -0.1962258029 -0.043443980821 
0.099052513037 -0.18356815816 -0.16442519415 0.017638387771 -0.025770796257 0.092309713608 0.10418505202 -0.1904622774 -0.13594217066 
0.042766053932 -0.060813469441 0.21287596043 0.063157477658 -0.11849831067 -0.11708529278 0.10234073341 -0.17781322036 0.0026056578014 
0.11789074211 -0.212202305 -0.10859499354 0.084976949978 -0.14285064763 0.076493323507 0.030446684813 -0.044704271009 0.13809709298 
0.057635951957 -0.097666247597 0.048501983487 0.088317207646 -0.16191554202 -0.11820654735 0.12726743782 -0.22251506035 -0.023177197059 
0.062917294559 -0.11675137405 -0.097584557437 0.086875303877 -0.13886596363 0.18261022947 0.074425729637 -0.1217954783 0.11861142963 
0.062510879907 -0.11306898151 -0.053962250759 0.036485643073 -0.053736072923 0.15815097069 0.11253370822 -0.19700632333 -0.0213025038 
0.067697900046 -0.1033301413 0.21918530944 
f 3 100 double
0 0 0 0 0 0 0 0 0 
0 0 0 0 0 0 0 0 0 
0 0 0 0 0 0 0 0 0 
0 0 0 0 0 0 0 0 0 
0 0 0 0 0 0 0 0 0 
0 0 0 0 0 0 0 0 0 
-0.080409518348 -0.058008594565 0.19829964886 0 0 0 -0.041503278721 -0.056339200854 0.26273131383 
0 0 0 0 0 0 0 0 0 
0 0 0 0 0 0 0 0 0 
0 0 0 0 0 0 0 0 0 
0 0 0 0 0 0 0 0 0 
0 0 0 0 0 0 0 0 0 
0 0 0 0 0 0 0 0 0 
0 0 0 0 0 0 0 0 0 
0 0 0 0 0 0 0 0 0 
0 0 0 0 0 0 0 0 0 
0 0 0 0 0 0 0 0 0 
0 0 0 0 0 0 0 0 0 
0 0 0 0 0 0 0 0 0 
0 0 0 0 0 0 0 0 0 
0 0 0 0 0 0 0 0 0 
0 0 0 0 0 0 0 0 0 
0 0 0 0 0 0 0 0 0 
0 0 0 -0.29619711323 -0.14638714498 0.78073131785 0 0 0 
0 0 0 0 0 0 0 0 0 
0 0 0 0 0 0 0 0 0 
0 0 0 0 0 0 0 0 0 
0 0 0 0 0 0 0 0 0 
0 0 0 0 0 0 0 0 0 
0 0 0 0 0 0 0 0 0 
0 0 0 0 0 0 0 0 0 
0 0 0 0 0 0 0 0 0 
0 0 0 0 0 0 0 0 0 
0 0 0 
radius 1 100 double
0.010434 0.00981478 0.00892069 0.00845937 0.00731974 0.00728422 0.00643447 0.00619172 0.00585956 
0.00577566 0.00537241 0.00522549 0.00513666 0.00473175 0.00466912 0.00444866 0.00441894 0.00400812 
0.00385622 0.00379948 0.00370243 0.00366942 0.00364039 0.00363813 0.00363644 0.00358692 0.0035797 
0.00341284 0.00337012 0.00336273 0.00332772 0.00323261 0.00320584 0.00320311 0.00318808 0.00313116 
0.00306026 0.00305632 0.00304383 0.00300958 0.00300137 0.00298994 0.0029567 0.00295111 0.00290849 
0.00284552 0.00282964 0.0028207 0.00281971 0.00281899 0.010434 0.00981478 0.00892069 0.00845937 
0.00731974 0.00728422 0.00643447 0.00619172 0.00585956 0.00577566 0.00537241 0.00522549 0.00513666 
0.00473175 0.00466912 0.00444866 0.00441894 0.00400812 0.00385622 0.00379948 0.00370243 0.00366942 
0.00364039 0.00363813 0.00363644 0.00358692 0.0035797 0.00341284 0.00337012 0.00336273 0.00332772 
0.00323261 0.00320584 0.00320311 0.00318808 0.00313116 0.00306026 0.00305632 0.00304383 0.00300958 
0.00300137 0.00298994 0.0029567 0.00295111 0.00290849 0.00284552 0.00282964 0.0028207 0.00281971 
0.00281899 
omega 3 100 double
11.252882941 3.2796430717 -1.0492551284 11.252882941 3.2796430717 -1.0492551284 11.252882941 3.2796430717 -1.0492551284 
11.252882941 3.2796430717 -1.0492551284 11.252882941 3.2796430717 -1.0492551284 11.252882941 3.2796430717 -1.0492551284 
11.252882941 3.2796430717 -1.0492551284 11.252882941 3.2796430717 -1.0492551284 11.252882941 3.2796430717 -1.0492551284 
11.252882941 3.2796430717 -1.0492551284 11.252882941 3.2796430717 -1.0492551284 11.252882941 3.2796430717 -1.0492551284 
11.252882941 3.2796430717 -1.0492551284 11.252882941 3.2796430717 -1.0492551284 11.252882941 3.2796430717 -1.0492551284 
11.252882941 3.2796430717 -1.0492551284 11.252882941 3.2796430717 -1.0492551284 11.252882941 3.2796430717 -1.0492551284 
11.252882941 3.2796430717 -1.0492551284 11.252882941 3.2796430717 -1.0492551284 11.252882941 3.2796430717 -1.0492551284 
11.252882941 3.2796430717 -1.0492551284 11.252882941 3.2796430717 -1.0492551284 11.252882941 3.2796430717 -1.0492551284 
11.252882941 3.2796430717 -1.0492551284 11.252882941 3.2796430717 -1.0492551284 11.252882941 3.2796430717 -1.0492551284 
11.252882941 3.2796430717 -1.0492551284 11.252882941 3.2796430717 -1.0492551284 11.252882941 3.2796430717 -1.0492551284 
11.252882941 3.2796430717 -1.0492551284 11.252882941 3.2796430717 -1.0492551284 11.252882941 3.2796430717 -1.0492551284 
11.252882941 3.2796430717 -1.0492551284 11.252882941 3.2796430717 -1.0492551284 11.252882941 3.2796430717 -1.0492551284 
11.252882941 3.2796430717 -1.0492551284 11.252882941 3.2796430717 -1.0492551284 11.252882941 3.2796430717 -1.0492551284 
11.252882941 3.2796430717 -1.0492551284 11.252882941 3.2796430717 -1.0492551284 11.252882941 3.2796430717 -1.0492551284 
11.252882941 3.2796430717 -1.0492551284 11.252882941 3.2796430717 -1.0492551284 11.252882941 3.2796430717 -1.0492551284 
11.252882941 3.2796430717 -1.0492551284 11.252882941 3.2796430717 -1.0492551284 11.252882941 3.2796430717 -1.0492551284 
11.252882941 3.2796430717 -1.0492551284 11.252882941 3.2796430717 -1.0492551284 9.4058620189 5.4602170583 -0.37329484884 
9.4058620189 5.4602170583 -0.37329484884 9.4058620189 5.4602170583 -0.37329484884 9.4058620189 5.4602170583 -0.37329484884 
9.4058620189 5.4602170583 -0.37329484884 9.4058620189 5.4602170583 -0.37329484884 9.4058620189 5.4602170583 -0.37329484884 
9.4058620189 5.4602170583 -0.37329484884 9.4058620189 5.4602170583 -0.37329484884 9.4058620189 5.4602170583 -0.37329484884 
9.4058620189 5.4602170583 -0.37329484884 9.4058620189 5.4602170583 -0.37329484884 9.4058620189 5.4602170583 -0.37329484884 
9.4058620189 5.4602170583 -0.37329484884 9.4058620189 5.4602170583 -0.37329484884 9.4058620189 5.4602170583 -0.37329484884 
9.4058620189 5.4602170583 -0.37329484884 9.4058620189 5.4602170583 -0.37329484884 9.4058620189 5.4602170583 -0.37329484884 
9.4058620189 5.4602170583 -0.37329484884 9.4058620189 5.4602170583 -0.37329484884 9.4058620189 5.4602170583 -0.37329484884 
9.4058620189 5.4602170583 -0.37329484884 9.4058620189 5.4602170583 -0.37329484884 9.4058620189 5.4602170583 -0.37329484884 
9.4058620189 5.4602170583 -0.37329484884 9.4058620189 5.4602170583 -0.37329484884 9.4058620189 5.4602170583 -0.37329484884 
9.4058620189 5.4602170583 -0.37329484884 9.4058620189 5.4602170583 -0.37329484884 9.4058620189 5.4602170583 -0.37329484884 
9.4058620189 5.4602170583 -0.37329484884 9.4058620189 5.4602170583 -0.37329484884 9.4058620189 5.4602170583 -0.37329484884 
9.4058620189 5.4602170583 -0.37329484884 9.4058620189 5.4602170583 -0.37329484884 9.4058620189 5.4602170583 -0.37329484884 
9.4058620189 5.4602170583 -0.37329484884 9.4058620189 5.4602170583 -0.37329484884 9.4058620189 5.4602170583 -0.37329484884 
9.4058620189 5.4602170583 -0.37329484884 9.4058620189 5.4602170583 -0.37329484884 9.4058620189 5.4602170583 -0.37329484884 
9.4058620189 5.4602170583 -0.37329484884 9.4058620189 5.4602170583 -0.37329484884 9.4058620189 5.4602170583 -0.37329484884 
9.4058620189 5.4602170583 -0.37329484884 9.4058620189 5.4602170583 -0.37329484884 9.4058620189 5.4602170583 -0.37329484884 
9.4058620189 5.4602170583 -0.37329484884 
