# vtk DataFile Version 4.1
Generated by LIGGGHTS
ASCII
DATASET POLYDATA
POINTS 100 float
-0.116813 -0.14851 0.0129312 -0.126686 -0.14526 0.0117973 -0.136458 -0.14311 0.0124466 
-0.123956 -0.154774 0.0176996 -0.11031 -0.154968 0.0180374 -0.132342 -0.15234 0.0168002 
-0.142959 -0.148681 0.015549 -0.11642 -0.15922 0.0169943 -0.14524 -0.14126 0.0120318 
-0.119638 -0.138629 0.00890661 -0.130212 -0.160236 0.0196209 -0.139488 -0.154349 0.0176121 
-0.124293 -0.135449 0.0119586 -0.125154 -0.163567 0.019745 -0.130495 -0.135815 0.0124976 
-0.135968 -0.15844 0.0185884 -0.116902 -0.156653 0.0227219 -0.141854 -0.136003 0.0150857 
-0.116029 -0.142352 0.00434434 -0.149214 -0.146368 0.0132181 -0.120848 -0.145951 0.0036302 
-0.12952 -0.16574 0.0211204 -0.113155 -0.15843 0.0115344 -0.102911 -0.153585 0.0197052 
-0.106844 -0.152127 0.0121874 -0.12032 -0.138115 0.0150245 -0.108014 -0.148311 0.0203721 
-0.105137 -0.153096 0.0230144 -0.133637 -0.164285 0.0210189 -0.127713 -0.148007 0.0212697 
-0.136614 -0.162653 0.02055 -0.110222 -0.162374 0.016751 -0.133052 -0.14463 0.00431796 
-0.120394 -0.164328 0.0181806 -0.150951 -0.141407 0.0102084 -0.109929 -0.156433 0.0105265 
-0.140682 -0.159622 0.0193618 -0.120535 -0.162019 0.0208493 -0.146189 -0.154198 0.0168526 
-0.125148 -0.136725 0.00669291 -0.137315 -0.15216 0.011433 -0.122134 -0.162886 0.0154664 
-0.117492 -0.15225 0.0230056 -0.119112 -0.158687 0.0108921 -0.143841 -0.142444 0.0178049 
-0.149116 -0.150989 0.015297 -0.106595 -0.148499 0.0107105 -0.128023 -0.136194 0.0080072 
-0.140384 -0.162191 0.0210505 -0.134707 -0.133993 0.0142738 -0.0472695 -0.118876 0.0127046 
-0.0574114 -0.116464 0.0118939 -0.0673202 -0.11523 0.0128035 -0.0537377 -0.12599 0.0172395 
-0.0401229 -0.124985 0.0173614 -0.062321 -0.124269 0.0165971 -0.0732424 -0.12151 0.0157022 
-0.0458545 -0.129704 0.0161852 -0.0762375 -0.11415 0.0126199 -0.0510332 -0.109091 0.00925492 
-0.059448 -0.132079 0.0189609 -0.0692452 -0.126946 0.017408 -0.0558891 -0.106501 0.0125416 
-0.0541147 -0.134948 0.0188315 -0.0620232 -0.107445 0.0131534 -0.0653592 -0.130753 0.0181121 
-0.0464476 -0.12749 0.022048 -0.073268 -0.108777 0.0158982 -0.0472006 -0.112237 0.00444716 
-0.079721 -0.119647 0.013592 -0.0516968 -0.11621 0.00361481 -0.0582447 -0.13757 0.0201546 
-0.0427797 -0.128346 0.0107267 -0.0328435 -0.123036 0.0189891 -0.0370375 -0.121548 0.0116196 
-0.0516371 -0.108957 0.0154011 -0.038378 -0.118279 0.0200126 -0.0350382 -0.122919 0.0223527 
-0.0624754 -0.136484 0.0201926 -0.0580049 -0.119778 0.021221 -0.0655927 -0.135102 0.019856 
-0.0394079 -0.132277 0.0156812 -0.0639542 -0.116018 0.00455523 -0.049338 -0.135201 0.0171573 
-0.0819476 -0.114711 0.0108772 -0.039763 -0.12602 0.00977825 -0.0699347 -0.132387 0.0188923 
-0.0496293 -0.133054 0.0199471 -0.0759466 -0.127353 0.0167584 -0.0567325 -0.107573 0.00722884 
-0.0673951 -0.124255 0.0113224 -0.0512519 -0.133781 0.0145503 -0.0474176 -0.123178 0.0225746 
-0.0487018 -0.129098 0.0101613 -0.0746255 -0.115502 0.0183 -0.0791752 -0.124342 0.0154201 
-0.037138 -0.11784 0.0103345 -0.0596165 -0.10737 0.00861255 -0.0693781 -0.135003 0.020437 
-0.0663439 -0.1061 0.0150872 
VERTICES 100 200
1 0 
1 1 
1 2 
1 3 
1 4 
1 5 
1 6 
1 7 
1 8 
1 9 
1 10 
1 11 
1 12 
1 13 
1 14 
1 15 
1 16 
1 17 
1 18 
1 19 
1 20 
1 21 
1 22 
1 23 
1 24 
1 25 
1 26 
1 27 
1 28 
1 29 
1 30 
1 31 
1 32 
1 33 
1 34 
1 35 
1 36 
1 37 
1 38 
1 39 
1 40 
1 41 
1 42 
1 43 
1 44 
1 45 
1 46 
1 47 
1 48 
1 49 
1 50 
1 51 
1 52 
1 53 
1 54 
1 55 
1 56 
1 57 
1 58 
1 59 
1 60 
1 61 
1 62 
1 63 
1 64 
1 65 
1 66 
1 67 
1 68 
1 69 
1 70 
1 71 
1 72 
1 73 
1 74 
1 75 
1 76 
1 77 
1 78 
1 79 
1 80 
1 81 
1 82 
1 83 
1 84 
1 85 
1 86 
1 87 
1 88 
1 89 
1 90 
1 91 
1 92 
1 93 
1 94 
1 95 
1 96 
1 97 
1 98 
1 99 

POINT_DATA 100
FIELD FieldData 7
id 1 100 int
1 2 3 4 5 6 7 8 9 
10 11 12 13 14 15 16 17 18 
19 20 21 22 23 24 25 26 27 
28 29 30 31 32 33 34 35 36 
37 38 39 40 41 42 43 44 45 
46 47 48 49 50 51 52 53 54 
55 56 57 58 59 60 61 62 63 
64 65 66 67 68 69 70 71 72 
73 74 75 76 77 78 79 80 81 
82 83 84 85 86 87 88 89 90 
91 92 93 94 95 96 97 98 99 
100 
mol 1 100 int
1 1 1 1 1 1 1 1 1 
1 1 1 1 1 1 1 1 1 
1 1 1 1 1 1 1 1 1 
1 1 1 1 1 1 1 1 1 
1 1 1 1 1 1 1 1 1 
1 1 1 1 1 2 2 2 2 
2 2 2 2 2 2 2 2 2 
2 2 2 2 2 2 2 2 2 
2 2 2 2 2 2 2 2 2 
2 2 2 2 2 2 2 2 2 
2 2 2 2 2 2 2 2 2 
2 
type 1 100 int
1 1 1 1 1 1 1 1 1 
1 1 1 1 1 1 1 1 1 
1 1 1 1 1 1 1 1 1 
1 1 1 1 1 1 1 1 1 
1 1 1 1 1 1 1 1 1 
1 1 1 1 1 1 1 1 1 
1 1 1 1 1 1 1 1 1 
1 1 1 1 1 1 1 1 1 
1 1 1 1 1 1 1 1 1 
1 1 1 1 1 1 1 1 1 
1 1 1 1 1 1 1 1 1 
1 
v 3 100 double
0.012748890067 -0.16235387224 -0.038514627108 0.015207719549 -0.13714826607 0.012334344482 0.018402873632 -0.13387746887 0.049593537894 
0.010908739775 -0.21249854745 -0.10714396056 0.011065168157 -0.23229428522 -0.12482501775 0.01269421914 -0.19187020954 -0.067947202721 
0.015489642983 -0.16437554624 -0.011272571102 0.0050155941727 -0.21251779541 -0.16998724762 0.02006147283 -0.11872348872 0.082086950099 
0.019574783366 -0.1098696457 0.085552438854 0.0067955462269 -0.22882705023 -0.16695282132 0.011298630573 -0.19360138064 -0.084517090512 
0.026648239206 -0.14186977443 0.1296822801 0.0031122545573 -0.23615119441 -0.21337766239 0.026833436247 -0.14134575166 0.13216878028 
0.0076980804008 -0.2095882548 -0.13852695141 0.014386515011 -0.28204482242 -0.13804445273 0.029520857129 -0.15997598414 0.14260880813 
0.010184179027 -0.058190672497 0.035954826401 0.015528893254 -0.12867783249 0.024037389472 0.005251841122 -0.043921933404 -0.002680361018 
0.0021605451168 -0.24796779072 -0.23507319142 -0.00020362761591 -0.14946191778 -0.16399544275 0.014524051353 -0.26119202713 -0.11619636959 
0.0077633418266 -0.16469425809 -0.093951098968 0.027028432762 -0.18394228827 0.092613008958 0.021324693733 -0.26349451888 -0.045947927843 
0.018797216075 -0.29912667855 -0.10771981411 0.0037167784668 -0.24200057396 -0.21265035342 0.022680294356 -0.25186943022 -0.020133858784 
0.0050632858511 -0.23284677094 -0.18934869874 0.0011226313239 -0.21665518769 -0.21553252604 0.0075394746197 -0.038329765149 0.027173063581 
0.00048300280835 -0.22247221933 -0.22803701226 0.017846699962 -0.089858712547 0.086689044482 0.00095776849339 -0.14083217489 -0.14317941045 
0.0072099969289 -0.21364069546 -0.1476911363 0.0061272193292 -0.25496377827 -0.19962405304 0.010620434596 -0.17661835412 -0.075147579401 
0.019277331308 -0.076459861838 0.11503669017 0.0068796124776 -0.12049323053 -0.060169377895 -0.00090700366143 -0.18726563205 -0.20844382255 
0.019757893691 -0.2848390264 -0.083513428545 -0.0012184251243 -0.13476737673 -0.16045110938 0.025178273313 -0.19096555472 0.066024541861 
0.012557419709 -0.15422569236 -0.032611200284 0.010271144065 -0.14691057332 -0.049834355699 0.021360354424 -0.089241089475 0.12475038758 
0.0061559177113 -0.23464408187 -0.17945730754 0.030916380037 -0.15824422538 0.15917857034 0.046721389807 -0.14062172508 -0.04297011351 
0.045187214475 -0.1249919686 0.022736061288 0.049594506366 -0.1280194458 0.074853130142 0.059652802528 -0.18497571065 -0.094101714427 
0.060815904524 -0.1955660403 -0.13667282206 0.058307559324 -0.17221833695 -0.041938240799 0.056678773086 -0.15515203298 0.030539047913 
0.052988194268 -0.1790126834 -0.16494506595 0.049610594601 -0.11996713405 0.1214280185 0.039865192664 -0.10096224967 0.077003312841 
0.062251923771 -0.19959421611 -0.13718927767 0.05966232928 -0.17621920393 -0.043579450592 0.0545168319 -0.13299333498 0.12389897956 
0.059789283332 -0.20183769782 -0.18894737771 0.056272514758 -0.13539181995 0.13780059861 0.059828394383 -0.18643874414 -0.099747574378 
0.077483406128 -0.24165036592 -0.13881494268 0.06612581118 -0.15724239618 0.16755763352 0.018871386656 -0.051877025206 0.028153190424 
0.049675472034 -0.12804571356 0.075979398479 0.012900364105 -0.039862478115 0.0030638353141 0.063189741187 -0.21325005241 -0.20094902317 
0.032512467745 -0.12241346063 -0.16239717382 0.068526233886 -0.21803054183 -0.14425643169 0.040646516464 -0.13592797921 -0.11181093624 
0.06405456461 -0.16664011996 0.080819545215 0.075780637634 -0.22526329399 -0.071412147126 0.081793532902 -0.25270315097 -0.13439655035 
0.064078949377 -0.21077540326 -0.17268475538 0.079496913209 -0.22488004472 -0.01057679559 0.0637011223 -0.20503117478 -0.14560185603 
0.049258544002 -0.17798650929 -0.2178836931 0.016717908002 -0.041620489225 0.053179231664 0.053053075008 -0.1870913132 -0.21039392309 
0.042395526062 -0.097336042545 0.13778353983 0.030379056184 -0.11427085301 -0.14921495033 0.061772875866 -0.19170898606 -0.099387162596 
0.065453935823 -0.21689087937 -0.18617134208 0.056838107839 -0.16466667799 -0.021680336462 0.032956165496 -0.075291523196 0.11567272344 
0.0376361834 -0.11204202092 -0.021899764382 0.043798897696 -0.15775319728 -0.18762660621 0.082487090353 -0.2466518374 -0.088644186296 
0.029782736783 -0.11229704106 -0.147268536 0.07095922023 -0.18214345539 0.10056926611 0.053642826138 -0.14807490993 0.02335298854 
0.038135142986 -0.12204094611 -0.071546807511 0.038519984256 -0.088204762063 0.12916799068 0.066046454778 -0.20869902002 -0.12969950766 
0.064770855583 -0.15324102312 0.16919882579 
f 3 100 double
0 0 0 0 0 0 0 0 0 
0 0 0 0 0 0 0 0 0 
0 0 0 0 0 0 0 0 0 
0 0 0 0 0 0 0 0 0 
0 0 0 0 0 0 0 0 0 
0 0 0 0 0 0 0 0 0 
0 0 0 0 0 0 -0.076178215255 -0.049164302768 0.34239405572 
0 0 0 0 0 0 0 0 0 
0 0 0 0 0 0 0 0 0 
0 0 0 0 0 0 0 0 0 
0 0 0 0 0 0 0 0 0 
0 0 0 0 0 0 0 0 0 
0 0 0 0 0 0 0 0 0 
0 0 0 0 0 0 0 0 0 
0 0 0 0 0 0 0 0 0 
0 0 0 0 0 0 0 0 0 
0 0 0 0 0 0 0 0 0 
0 0 0 0 0 0 0 0 0 
0 0 0 0 0 0 0 0 0 
0 0 0 0 0 0 0 0 0 
0 0 0 0 0 0 0 0 0 
0 0 0 0 0 0 0 0 0 
0 0 0 0 0 0 0 0 0 
0 0 0 -0.080994528111 -0.07761937798 0.38084212236 0 0 0 
0 0 0 0 0 0 0 0 0 
0 0 0 0 0 0 0 0 0 
0 0 0 0 0 0 0 0 0 
0 0 0 0 0 0 0 0 0 
0 0 0 0 0 0 0 0 0 
0 0 0 0 0 0 0 0 0 
0 0 0 0 0 0 0 0 0 
0 0 0 0 0 0 0 0 0 
0 0 0 0 0 0 0 0 0 
0 0 0 
radius 1 100 double
0.010434 0.00981478 0.00892069 0.00845937 0.00731974 0.00728422 0.00643447 0.00619172 0.00585956 
0.00577566 0.00537241 0.00522549 0.00513666 0.00473175 0.00466912 0.00444866 0.00441894 0.00400812 
0.00385622 0.00379948 0.00370243 0.00366942 0.00364039 0.00363813 0.00363644 0.00358692 0.0035797 
0.00341284 0.00337012 0.00336273 0.00332772 0.00323261 0.00320584 0.00320311 0.00318808 0.00313116 
0.00306026 0.00305632 0.00304383 0.00300958 0.00300137 0.00298994 0.0029567 0.00295111 0.00290849 
0.00284552 0.00282964 0.0028207 0.00281971 0.00281899 0.010434 0.00981478 0.00892069 0.00845937 
0.00731974 0.00728422 0.00643447 0.00619172 0.00585956 0.00577566 0.00537241 0.00522549 0.00513666 
0.00473175 0.00466912 0.00444866 0.00441894 0.00400812 0.00385622 0.00379948 0.00370243 0.00366942 
0.00364039 0.00363813 0.00363644 0.00358692 0.0035797 0.00341284 0.00337012 0.00336273 0.00332772 
0.00323261 0.00320584 0.00320311 0.00318808 0.00313116 0.00306026 0.00305632 0.00304383 0.00300958 
0.00300137 0.00298994 0.0029567 0.00295111 0.00290849 0.00284552 0.00282964 0.0028207 0.00281971 
0.00281899 
omega 3 100 double
12.235364981 1.121798462 -1.147718126 12.235364981 1.121798462 -1.147718126 12.235364981 1.121798462 -1.147718126 
12.235364981 1.121798462 -1.147718126 12.235364981 1.121798462 -1.147718126 12.235364981 1.121798462 -1.147718126 
12.235364981 1.121798462 -1.147718126 12.235364981 1.121798462 -1.147718126 12.235364981 1.121798462 -1.147718126 
12.235364981 1.121798462 -1.147718126 12.235364981 1.121798462 -1.147718126 12.235364981 1.121798462 -1.147718126 
12.235364981 1.121798462 -1.147718126 12.235364981 1.121798462 -1.147718126 12.235364981 1.121798462 -1.147718126 
12.235364981 1.121798462 -1.147718126 12.235364981 1.121798462 -1.147718126 12.235364981 1.121798462 -1.147718126 
12.235364981 1.121798462 -1.147718126 12.235364981 1.121798462 -1.147718126 12.235364981 1.121798462 -1.147718126 
12.235364981 1.121798462 -1.147718126 12.235364981 1.121798462 -1.147718126 12.235364981 1.121798462 -1.147718126 
12.235364981 1.121798462 -1.147718126 12.235364981 1.121798462 -1.147718126 12.235364981 1.121798462 -1.147718126 
12.235364981 1.121798462 -1.147718126 12.235364981 1.121798462 -1.147718126 12.235364981 1.121798462 -1.147718126 
12.235364981 1.121798462 -1.147718126 12.235364981 1.121798462 -1.147718126 12.235364981 1.121798462 -1.147718126 
12.235364981 1.121798462 -1.147718126 12.235364981 1.121798462 -1.147718126 12.235364981 1.121798462 -1.147718126 
12.235364981 1.121798462 -1.147718126 12.235364981 1.121798462 -1.147718126 12.235364981 1.121798462 -1.147718126 
12.235364981 1.121798462 -1.147718126 12.235364981 1.121798462 -1.147718126 12.235364981 1.121798462 -1.147718126 
12.235364981 1.121798462 -1.147718126 12.235364981 1.121798462 -1.147718126 12.235364981 1.121798462 -1.147718126 
12.235364981 1.121798462 -1.147718126 12.235364981 1.121798462 -1.147718126 12.235364981 1.121798462 -1.147718126 
12.235364981 1.121798462 -1.147718126 12.235364981 1.121798462 -1.147718126 10.752884726 3.9207196195 -0.68156581227 
10.752884726 3.9207196195 -0.68156581227 10.752884726 3.9207196195 -0.68156581227 10.752884726 3.9207196195 -0.68156581227 
10.752884726 3.9207196195 -0.68156581227 10.752884726 3.9207196195 -0.68156581227 10.752884726 3.9207196195 -0.68156581227 
10.752884726 3.9207196195 -0.68156581227 10.752884726 3.9207196195 -0.68156581227 10.752884726 3.9207196195 -0.68156581227 
10.752884726 3.9207196195 -0.68156581227 10.752884726 3.9207196195 -0.68156581227 10.752884726 3.9207196195 -0.68156581227 
10.752884726 3.9207196195 -0.68156581227 10.752884726 3.9207196195 -0.68156581227 10.752884726 3.9207196195 -0.68156581227 
10.752884726 3.9207196195 -0.68156581227 10.752884726 3.9207196195 -0.68156581227 10.752884726 3.9207196195 -0.68156581227 
10.752884726 3.9207196195 -0.68156581227 10.752884726 3.9207196195 -0.68156581227 10.752884726 3.9207196195 -0.68156581227 
10.752884726 3.9207196195 -0.68156581227 10.752884726 3.9207196195 -0.68156581227 10.752884726 3.9207196195 -0.68156581227 
10.752884726 3.9207196195 -0.68156581227 10.752884726 3.9207196195 -0.68156581227 10.752884726 3.9207196195 -0.68156581227 
10.752884726 3.9207196195 -0.68156581227 10.752884726 3.9207196195 -0.68156581227 10.752884726 3.9207196195 -0.68156581227 
10.752884726 3.9207196195 -0.68156581227 10.752884726 3.9207196195 -0.68156581227 10.752884726 3.9207196195 -0.68156581227 
10.752884726 3.9207196195 -0.68156581227 10.752884726 3.9207196195 -0.68156581227 10.752884726 3.9207196195 -0.68156581227 
10.752884726 3.9207196195 -0.68156581227 10.752884726 3.9207196195 -0.68156581227 10.752884726 3.9207196195 -0.68156581227 
10.752884726 3.9207196195 -0.68156581227 10.752884726 3.9207196195 -0.68156581227 10.752884726 3.9207196195 -0.68156581227 
10.752884726 3.9207196195 -0.68156581227 10.752884726 3.9207196195 -0.68156581227 10.752884726 3.9207196195 -0.68156581227 
10.752884726 3.9207196195 -0.68156581227 10.752884726 3.9207196195 -0.68156581227 10.752884726 3.9207196195 -0.68156581227 
10.752884726 3.9207196195 -0.68156581227 
