# vtk DataFile Version 4.1
Generated by LIGGGHTS
ASCII
DATASET POLYDATA
POINTS 100 float
-0.117125 -0.153942 0.0110097 -0.126868 -0.150158 0.0113098 -0.13658 -0.148129 0.0127607 
-0.124553 -0.161368 0.0126487 -0.110928 -0.162185 0.0129374 -0.132839 -0.158477 0.0128234 
-0.143311 -0.154247 0.0131862 -0.117146 -0.165372 0.0101657 -0.14529 -0.145957 0.0131257 
-0.119561 -0.14319 0.0115269 -0.131011 -0.166898 0.012051 -0.140059 -0.160379 0.0126757 
-0.124174 -0.141429 0.0156151 -0.126063 -0.170152 0.0107793 -0.130394 -0.141761 0.0159197 
-0.136687 -0.164625 0.0118473 -0.117661 -0.165449 0.016439 -0.141802 -0.142609 0.0181318 
-0.115981 -0.144766 0.0058356 -0.149443 -0.15094 0.012022 -0.120894 -0.147549 0.00364379 
-0.130521 -0.172542 0.0110861 -0.113751 -0.16247 0.00556696 -0.103524 -0.161907 0.0150687 
-0.107261 -0.157268 0.00885357 -0.120347 -0.145283 0.0172854 -0.108473 -0.157226 0.0178785 
-0.105798 -0.162781 0.0182636 -0.134589 -0.17103 0.0115898 -0.128166 -0.15661 0.0187273 
-0.137503 -0.169246 0.0118406 -0.111045 -0.168352 0.00864097 -0.133063 -0.146197 0.00476784 
-0.121299 -0.170355 0.00906199 -0.150965 -0.145112 0.0113839 -0.110445 -0.160354 0.00551319 
-0.14145 -0.16585 0.0120265 -0.121421 -0.169385 0.0124561 -0.146735 -0.159676 0.0120198 
-0.124965 -0.140329 0.0103 -0.137697 -0.155866 0.00801207 -0.12294 -0.167839 0.00720372 
-0.118119 -0.16156 0.0185548 -0.119699 -0.162214 0.00484836 -0.144042 -0.149519 0.0178632 
-0.14953 -0.156007 0.0119526 -0.10687 -0.153367 0.00905053 -0.127848 -0.140298 0.0117016 
-0.141266 -0.168901 0.012472 -0.134582 -0.140708 0.0182795 -0.046417 -0.123703 0.0105787 
-0.0564823 -0.121073 0.0116318 -0.0662351 -0.1202 0.013789 -0.0528166 -0.131961 0.0125434 
-0.039201 -0.131207 0.0118833 -0.061345 -0.130047 0.013351 -0.0721787 -0.127059 0.0145269 
-0.0451956 -0.135045 0.00946708 -0.0750885 -0.119052 0.0147982 -0.0500194 -0.113313 0.0115157 
-0.0586294 -0.138188 0.0122562 -0.0682939 -0.132766 0.0136506 -0.0545034 -0.11216 0.0159495 
-0.0534446 -0.140829 0.0105734 -0.0606082 -0.113212 0.0166693 -0.0645275 -0.136582 0.0124938 
-0.0452549 -0.135279 0.0157573 -0.0716609 -0.115404 0.019633 -0.0466923 -0.114377 0.00555781 
-0.0787145 -0.124462 0.0138622 -0.0513993 -0.117672 0.00364058 -0.057569 -0.143722 0.0111265 
-0.0424853 -0.131699 0.00471779 -0.0317453 -0.13011 0.0135111 -0.036415 -0.125836 0.00767699 
-0.0501545 -0.115573 0.0172631 -0.0369853 -0.126076 0.016762 -0.0336748 -0.131291 0.016832 
-0.0617362 -0.142698 0.011942 -0.0565115 -0.127748 0.0189653 -0.0648099 -0.141265 0.0124331 
-0.0389173 -0.137277 0.0074598 -0.063533 -0.11775 0.0056231 -0.0488215 -0.140455 0.00853106 
-0.0809316 -0.118839 0.0134678 -0.0394543 -0.129215 0.0044891 -0.0690955 -0.13835 0.0129681 
-0.0488134 -0.13956 0.0119477 -0.0750363 -0.132827 0.0134681 -0.0557868 -0.111075 0.0107282 
-0.0667955 -0.127938 0.00894525 -0.0508651 -0.138116 0.00684917 -0.0460027 -0.131503 0.017991 
-0.0484592 -0.132118 0.00441251 -0.0731125 -0.122521 0.0193537 -0.0782284 -0.129504 0.0136787 
-0.0364577 -0.121919 0.00793934 -0.0585479 -0.111399 0.0123233 -0.0685336 -0.141366 0.0133275 
-0.064712 -0.112685 0.0193333 
VERTICES 100 200
1 0 
1 1 
1 2 
1 3 
1 4 
1 5 
1 6 
1 7 
1 8 
1 9 
1 10 
1 11 
1 12 
1 13 
1 14 
1 15 
1 16 
1 17 
1 18 
1 19 
1 20 
1 21 
1 22 
1 23 
1 24 
1 25 
1 26 
1 27 
1 28 
1 29 
1 30 
1 31 
1 32 
1 33 
1 34 
1 35 
1 36 
1 37 
1 38 
1 39 
1 40 
1 41 
1 42 
1 43 
1 44 
1 45 
1 46 
1 47 
1 48 
1 49 
1 50 
1 51 
1 52 
1 53 
1 54 
1 55 
1 56 
1 57 
1 58 
1 59 
1 60 
1 61 
1 62 
1 63 
1 64 
1 65 
1 66 
1 67 
1 68 
1 69 
1 70 
1 71 
1 72 
1 73 
1 74 
1 75 
1 76 
1 77 
1 78 
1 79 
1 80 
1 81 
1 82 
1 83 
1 84 
1 85 
1 86 
1 87 
1 88 
1 89 
1 90 
1 91 
1 92 
1 93 
1 94 
1 95 
1 96 
1 97 
1 98 
1 99 

POINT_DATA 100
FIELD FieldData 7
id 1 100 int
1 2 3 4 5 6 7 8 9 
10 11 12 13 14 15 16 17 18 
19 20 21 22 23 24 25 26 27 
28 29 30 31 32 33 34 35 36 
37 38 39 40 41 42 43 44 45 
46 47 48 49 50 51 52 53 54 
55 56 57 58 59 60 61 62 63 
64 65 66 67 68 69 70 71 72 
73 74 75 76 77 78 79 80 81 
82 83 84 85 86 87 88 89 90 
91 92 93 94 95 96 97 98 99 
100 
mol 1 100 int
1 1 1 1 1 1 1 1 1 
1 1 1 1 1 1 1 1 1 
1 1 1 1 1 1 1 1 1 
1 1 1 1 1 1 1 1 1 
1 1 1 1 1 1 1 1 1 
1 1 1 1 1 2 2 2 2 
2 2 2 2 2 2 2 2 2 
2 2 2 2 2 2 2 2 2 
2 2 2 2 2 2 2 2 2 
2 2 2 2 2 2 2 2 2 
2 2 2 2 2 2 2 2 2 
2 
type 1 100 int
1 1 1 1 1 1 1 1 1 
1 1 1 1 1 1 1 1 1 
1 1 1 1 1 1 1 1 1 
1 1 1 1 1 1 1 1 1 
1 1 1 1 1 1 1 1 1 
1 1 1 1 1 1 1 1 1 
1 1 1 1 1 1 1 1 1 
1 1 1 1 1 1 1 1 1 
1 1 1 1 1 1 1 1 1 
1 1 1 1 1 1 1 1 1 
1 1 1 1 1 1 1 1 1 
1 
v 3 100 double
-0.03135373989 -0.20092460766 -0.10432248213 -0.02667074576 -0.19261499398 -0.057053770792 -0.026753554684 -0.20468661236 -0.040724290946 
-0.045026373688 -0.21951097889 -0.25049843453 -0.046748193972 -0.24364926105 -0.23752936112 -0.041337961642 -0.21102112812 -0.21606858473 
-0.036157623941 -0.20280075419 -0.16238104324 -0.045626065552 -0.18598057758 -0.30634961213 -0.024452936675 -0.19896688496 -0.019859641508 
-0.017370887159 -0.20666055486 0.080788569093 -0.051550297896 -0.19992484697 -0.36120646027 -0.043698147453 -0.19832316121 -0.26419852976 
-0.023132819791 -0.27246219103 0.10263207245 -0.053538608693 -0.18436500689 -0.40875255919 -0.024209340007 -0.26915403213 0.084254284366 
-0.047965421073 -0.18839444567 -0.33246292659 -0.05835097516 -0.29612267176 -0.30874625858 -0.029844199601 -0.29230739674 0.046313705153 
-0.0081270470368 -0.11108804543 0.060129471762 -0.029195154535 -0.17365969474 -0.11626809692 -0.0076063139255 -0.065489215515 0.0010771109581 
-0.05749484858 -0.1835569622 -0.45995400532 -0.032322933975 -0.10945628114 -0.24824753268 -0.050645855597 -0.29165867017 -0.21771820948 
-0.03166407065 -0.17660418667 -0.14325626401 -0.031877111671 -0.307325175 0.042219333925 -0.049756970448 -0.33439884185 -0.14495206094 
-0.058292518843 -0.34494134561 -0.23773344695 -0.05639666159 -0.18677705266 -0.44142894987 -0.050603916889 -0.32188203774 -0.17368186594 
-0.054407740173 -0.18713676885 -0.41575538821 -0.046723601299 -0.16756054802 -0.34674642503 -0.0079783916001 -0.068351227319 0.00049090115985 
-0.050368300825 -0.1606733842 -0.40275829232 -0.01976879045 -0.1602568314 -0.016337155733 -0.029257486559 -0.1131246896 -0.20419534202 
-0.050036320712 -0.18490591105 -0.36367721252 -0.055840274287 -0.2204844833 -0.38587065571 -0.041397075057 -0.1774036344 -0.26520792652 
-0.010905558101 -0.17742869542 0.1204830097 -0.02801251783 -0.11920829077 -0.17969183627 -0.043115801622 -0.12554148192 -0.3616007596 
-0.057172210642 -0.33287232613 -0.24093695766 -0.030519094843 -0.088447002192 -0.25567510199 -0.038958360438 -0.28443031675 -0.080300541446 
-0.03613492117 -0.17231240232 -0.20598124463 -0.02660969018 -0.18063160366 -0.073531383169 -0.013682404516 -0.19817110809 0.11521989336 
-0.055194997422 -0.19303768316 -0.41721832757 -0.027483909273 -0.30500449534 0.094443722198 0.011027519342 -0.18273947908 -0.10806295667 
0.016394483799 -0.18687630494 -0.046438273449 0.021416326765 -0.20971924381 -0.014485760906 0.0036261571488 -0.20682954095 -0.2334226704 
0.0034412268283 -0.21390276423 -0.24532427117 0.0076053630168 -0.20893019612 -0.18642283061 0.013666093355 -0.21408436299 -0.11748613773 
-0.005966670394 -0.16593655276 -0.29817482471 0.024743273966 -0.21473099564 0.020398536502 0.026450856228 -0.1935009468 0.070558117727 
-0.0051254109995 -0.19438253815 -0.32618415516 0.0045462232719 -0.20470355213 -0.21901628525 0.035923433518 -0.26103612898 0.097700706295 
-0.011635593344 -0.17335590683 -0.37924200929 0.035822833423 -0.26488844493 0.091220186236 -0.0025750885664 -0.19051779114 -0.28899976054 
0.0049979596523 -0.27008517136 -0.30195707992 0.038235021211 -0.29937666647 0.074701542039 0.014364723914 -0.099181037376 0.046972582304 
0.015909016509 -0.19442516803 -0.062749168381 0.0065692457539 -0.061186775966 0.00080724561429 -0.014470107381 -0.17706521396 -0.41977575874 
-0.010054400055 -0.090827018218 -0.24759872526 0.0078091409207 -0.25073662289 -0.2405226518 0.003005822003 -0.14788969292 -0.16132320556 
0.0337632557 -0.28855490073 0.033349639885 0.018972883601 -0.2976725473 -0.16428092597 0.012200522913 -0.30321085884 -0.25662155767 
-0.011653542575 -0.18506613771 -0.39533555782 0.020710822209 -0.3083522854 -0.15698249252 -0.0088784131483 -0.18913774175 -0.36608972905 
-0.012518187823 -0.14098088284 -0.34642617556 0.010020111897 -0.077986822062 0.021269355036 -0.014800952148 -0.14563068951 -0.38132278565 
0.022640055204 -0.18495770314 0.03439828609 -0.0071785316296 -0.09104691197 -0.21187145716 -0.0040632707932 -0.19233387765 -0.31010283397 
-0.0074923859506 -0.20225369554 -0.36650094862 0.0041380494918 -0.19276062843 -0.20794534248 0.027999904552 -0.17282304538 0.11798356298 
0.0024985065394 -0.12871854944 -0.14169911949 -0.014722045125 -0.11505899641 -0.33890619461 0.013997626237 -0.30610896128 -0.23803697632 
-0.01115631664 -0.07786638549 -0.24383900438 0.028320577795 -0.29282891885 -0.04062114215 0.0089117564677 -0.19202744461 -0.14715281956 
0.0086566616465 -0.15218042277 -0.096351049887 0.030430231464 -0.19560207169 0.11755944263 -0.0074081753244 -0.19903234482 -0.36108076525 
0.04129408873 -0.30360253472 0.10729514315 
f 3 100 double
0 0 0 0 0 0 0 0 0 
0 0 0 0 0 0 0 0 0 
0 0 0 0 0 0 0 0 0 
0 0 0 0 0 0 0 0 0 
0 0 0 0 0 0 0 0 0 
0 0 0 0 0 0 0 0 0 
0 0 0 0 0 0 -0.060105369683 -0.03906904431 0.21674196784 
0 0 0 0 0 0 0 0 0 
0 0 0 0 0 0 0 0 0 
0 0 0 0 0 0 0 0 0 
0 0 0 0 0 0 0 0 0 
0 0 0 0 0 0 0 0 0 
0 0 0 0 0 0 0 0 0 
0 0 0 0 0 0 0 0 0 
0 0 0 0 0 0 0 0 0 
0 0 0 0 0 0 0 0 0 
0 0 0 0 0 0 0 0 0 
0 0 0 0 0 0 0 0 0 
0 0 0 0 0 0 0 0 0 
0 0 0 0 0 0 0 0 0 
0 0 0 0 0 0 0 0 0 
0 0 0 0 0 0 0 0 0 
0 0 0 0 0 0 0 0 0 
0 0 0 -0.057107031455 -0.06094204169 0.23854182425 0 0 0 
0 0 0 0 0 0 0 0 0 
0 0 0 0 0 0 0 0 0 
0 0 0 0 0 0 0 0 0 
0 0 0 0 0 0 0 0 0 
0 0 0 0 0 0 0 0 0 
0 0 0 0 0 0 0 0 0 
0 0 0 0 0 0 0 0 0 
0 0 0 0 0 0 0 0 0 
0 0 0 0 0 0 0 0 0 
0 0 0 
radius 1 100 double
0.010434 0.00981478 0.00892069 0.00845937 0.00731974 0.00728422 0.00643447 0.00619172 0.00585956 
0.00577566 0.00537241 0.00522549 0.00513666 0.00473175 0.00466912 0.00444866 0.00441894 0.00400812 
0.00385622 0.00379948 0.00370243 0.00366942 0.00364039 0.00363813 0.00363644 0.00358692 0.0035797 
0.00341284 0.00337012 0.00336273 0.00332772 0.00323261 0.00320584 0.00320311 0.00318808 0.00313116 
0.00306026 0.00305632 0.00304383 0.00300958 0.00300137 0.00298994 0.0029567 0.00295111 0.00290849 
0.00284552 0.00282964 0.0028207 0.00281971 0.00281899 0.010434 0.00981478 0.00892069 0.00845937 
0.00731974 0.00728422 0.00643447 0.00619172 0.00585956 0.00577566 0.00537241 0.00522549 0.00513666 
0.00473175 0.00466912 0.00444866 0.00441894 0.00400812 0.00385622 0.00379948 0.00370243 0.00366942 
0.00364039 0.00363813 0.00363644 0.00358692 0.0035797 0.00341284 0.00337012 0.00336273 0.00332772 
0.00323261 0.00320584 0.00320311 0.00318808 0.00313116 0.00306026 0.00305632 0.00304383 0.00300958 
0.00300137 0.00298994 0.0029567 0.00295111 0.00290849 0.00284552 0.00282964 0.0028207 0.00281971 
0.00281899 
omega 3 100 double
17.671852122 -2.0112573622 -1.397211944 17.671852122 -2.0112573622 -1.397211944 17.671852122 -2.0112573622 -1.397211944 
17.671852122 -2.0112573622 -1.397211944 17.671852122 -2.0112573622 -1.397211944 17.671852122 -2.0112573622 -1.397211944 
17.671852122 -2.0112573622 -1.397211944 17.671852122 -2.0112573622 -1.397211944 17.671852122 -2.0112573622 -1.397211944 
17.671852122 -2.0112573622 -1.397211944 17.671852122 -2.0112573622 -1.397211944 17.671852122 -2.0112573622 -1.397211944 
17.671852122 -2.0112573622 -1.397211944 17.671852122 -2.0112573622 -1.397211944 17.671852122 -2.0112573622 -1.397211944 
17.671852122 -2.0112573622 -1.397211944 17.671852122 -2.0112573622 -1.397211944 17.671852122 -2.0112573622 -1.397211944 
17.671852122 -2.0112573622 -1.397211944 17.671852122 -2.0112573622 -1.397211944 17.671852122 -2.0112573622 -1.397211944 
17.671852122 -2.0112573622 -1.397211944 17.671852122 -2.0112573622 -1.397211944 17.671852122 -2.0112573622 -1.397211944 
17.671852122 -2.0112573622 -1.397211944 17.671852122 -2.0112573622 -1.397211944 17.671852122 -2.0112573622 -1.397211944 
17.671852122 -2.0112573622 -1.397211944 17.671852122 -2.0112573622 -1.397211944 17.671852122 -2.0112573622 -1.397211944 
17.671852122 -2.0112573622 -1.397211944 17.671852122 -2.0112573622 -1.397211944 17.671852122 -2.0112573622 -1.397211944 
17.671852122 -2.0112573622 -1.397211944 17.671852122 -2.0112573622 -1.397211944 17.671852122 -2.0112573622 -1.397211944 
17.671852122 -2.0112573622 -1.397211944 17.671852122 -2.0112573622 -1.397211944 17.671852122 -2.0112573622 -1.397211944 
17.671852122 -2.0112573622 -1.397211944 17.671852122 -2.0112573622 -1.397211944 17.671852122 -2.0112573622 -1.397211944 
17.671852122 -2.0112573622 -1.397211944 17.671852122 -2.0112573622 -1.397211944 17.671852122 -2.0112573622 -1.397211944 
17.671852122 -2.0112573622 -1.397211944 17.671852122 -2.0112573622 -1.397211944 17.671852122 -2.0112573622 -1.397211944 
17.671852122 -2.0112573622 -1.397211944 17.671852122 -2.0112573622 -1.397211944 16.569785717 1.7924823588 -1.3227534712 
16.569785717 1.7924823588 -1.3227534712 16.569785717 1.7924823588 -1.3227534712 16.569785717 1.7924823588 -1.3227534712 
16.569785717 1.7924823588 -1.3227534712 16.569785717 1.7924823588 -1.3227534712 16.569785717 1.7924823588 -1.3227534712 
16.569785717 1.7924823588 -1.3227534712 16.569785717 1.7924823588 -1.3227534712 16.569785717 1.7924823588 -1.3227534712 
16.569785717 1.7924823588 -1.3227534712 16.569785717 1.7924823588 -1.3227534712 16.569785717 1.7924823588 -1.3227534712 
16.569785717 1.7924823588 -1.3227534712 16.569785717 1.7924823588 -1.3227534712 16.569785717 1.7924823588 -1.3227534712 
16.569785717 1.7924823588 -1.3227534712 16.569785717 1.7924823588 -1.3227534712 16.569785717 1.7924823588 -1.3227534712 
16.569785717 1.7924823588 -1.3227534712 16.569785717 1.7924823588 -1.3227534712 16.569785717 1.7924823588 -1.3227534712 
16.569785717 1.7924823588 -1.3227534712 16.569785717 1.7924823588 -1.3227534712 16.569785717 1.7924823588 -1.3227534712 
16.569785717 1.7924823588 -1.3227534712 16.569785717 1.7924823588 -1.3227534712 16.569785717 1.7924823588 -1.3227534712 
16.569785717 1.7924823588 -1.3227534712 16.569785717 1.7924823588 -1.3227534712 16.569785717 1.7924823588 -1.3227534712 
16.569785717 1.7924823588 -1.3227534712 16.569785717 1.7924823588 -1.3227534712 16.569785717 1.7924823588 -1.3227534712 
16.569785717 1.7924823588 -1.3227534712 16.569785717 1.7924823588 -1.3227534712 16.569785717 1.7924823588 -1.3227534712 
16.569785717 1.7924823588 -1.3227534712 16.569785717 1.7924823588 -1.3227534712 16.569785717 1.7924823588 -1.3227534712 
16.569785717 1.7924823588 -1.3227534712 16.569785717 1.7924823588 -1.3227534712 16.569785717 1.7924823588 -1.3227534712 
16.569785717 1.7924823588 -1.3227534712 16.569785717 1.7924823588 -1.3227534712 16.569785717 1.7924823588 -1.3227534712 
16.569785717 1.7924823588 -1.3227534712 16.569785717 1.7924823588 -1.3227534712 16.569785717 1.7924823588 -1.3227534712 
16.569785717 1.7924823588 -1.3227534712 
