# vtk DataFile Version 4.1
Generated by LIGGGHTS
ASCII
DATASET POLYDATA
POINTS 100 float
-0.111324 -0.1306 0.0223814 -0.121709 -0.131528 0.0215846 -0.13167 -0.131734 0.0227122 
-0.116205 -0.132211 0.0316869 -0.103179 -0.129263 0.0288566 -0.124924 -0.133147 0.0312893 
-0.136141 -0.13407 0.0302929 -0.107654 -0.133901 0.0327249 -0.140588 -0.132734 0.023145 
-0.117049 -0.128273 0.0132366 -0.120467 -0.135337 0.0383737 -0.131097 -0.135213 0.0349488 
-0.122488 -0.124957 0.0139545 -0.114625 -0.136223 0.0397071 -0.128273 -0.12604 0.0160163 
-0.126487 -0.136223 0.037744 -0.108959 -0.128045 0.0346308 -0.139031 -0.126503 0.0204663 
-0.112422 -0.133293 0.0121923 -0.142785 -0.135742 0.0285696 -0.115876 -0.137017 0.0154929 
-0.11811 -0.137385 0.0431981 -0.10475 -0.136942 0.0278863 -0.0965919 -0.125622 0.0271847 
-0.100719 -0.131317 0.0222206 -0.117909 -0.123404 0.0169401 -0.103088 -0.122958 0.0249481 
-0.0988875 -0.123243 0.029468 -0.122475 -0.137426 0.043031 -0.121911 -0.126135 0.0299037 
-0.125807 -0.137407 0.0422328 -0.10078 -0.134728 0.0334272 -0.127891 -0.138196 0.0178192 
-0.109851 -0.136908 0.0381494 -0.145954 -0.135398 0.0234187 -0.102297 -0.13584 0.0250263 
-0.130606 -0.137316 0.0402049 -0.110726 -0.133487 0.0382037 -0.137505 -0.137082 0.035917 
-0.122859 -0.129949 0.0117128 -0.12966 -0.138181 0.0288805 -0.111931 -0.138474 0.0357625 
-0.110892 -0.125276 0.0317308 -0.110326 -0.138815 0.029054 -0.138939 -0.128734 0.0273836 
-0.141272 -0.13693 0.033258 -0.101599 -0.130197 0.0185624 -0.125768 -0.129209 0.012839 
-0.129538 -0.137517 0.0430959 -0.132858 -0.124437 0.0168068 -0.0424543 -0.102811 0.0226981 
-0.0528148 -0.103744 0.0216368 -0.0628003 -0.103969 0.0225153 -0.0475621 -0.1045 0.0318669 
-0.0344731 -0.101516 0.0293836 -0.0562669 -0.105442 0.0312459 -0.0674554 -0.106369 0.0299644 
-0.0390375 -0.106189 0.0331035 -0.071725 -0.104983 0.022719 -0.0479531 -0.100419 0.0134326 
-0.0519843 -0.107682 0.0384214 -0.0625264 -0.107543 0.034735 -0.0534124 -0.0971143 0.014041 
-0.0461762 -0.108573 0.0398923 -0.0592455 -0.0982198 0.0159502 -0.0579857 -0.10857 0.0376357 
-0.0403968 -0.100349 0.035022 -0.07011 -0.0987288 0.0201283 -0.0432955 -0.105426 0.0124643 
-0.0740519 -0.108034 0.0280639 -0.0468254 -0.109179 0.0156492 -0.0497454 -0.109765 0.0432867 
-0.0360105 -0.109189 0.0283149 -0.0278516 -0.0978549 0.027904 -0.0318476 -0.103516 0.0227949 
-0.0489111 -0.0955802 0.0171512 -0.034294 -0.0951808 0.0255277 -0.0302061 -0.0954959 0.030148 
-0.0541045 -0.10981 0.0430111 -0.0532292 -0.0984161 0.0299901 -0.0574159 -0.109789 0.0421306 
-0.0321818 -0.107014 0.0339697 -0.058893 -0.110389 0.0176675 -0.0413644 -0.10924 0.0384483 
-0.0770923 -0.107654 0.0228388 -0.0334889 -0.108062 0.0255253 -0.0621632 -0.109686 0.0399851 
-0.0422448 -0.10582 0.0385075 -0.0689545 -0.109426 0.0355293 -0.0537218 -0.102089 0.0117521 
-0.0609354 -0.110462 0.0286813 -0.0433821 -0.11079 0.0359985 -0.0422605 -0.09756 0.0320965 
-0.0416107 -0.111077 0.0293293 -0.0701863 -0.101014 0.0270282 -0.0726541 -0.109258 0.032779 
-0.0326373 -0.102368 0.0191248 -0.0566581 -0.101362 0.0128115 -0.0611668 -0.109909 0.0429001 
-0.0638505 -0.0966279 0.0166392 
VERTICES 100 200
1 0 
1 1 
1 2 
1 3 
1 4 
1 5 
1 6 
1 7 
1 8 
1 9 
1 10 
1 11 
1 12 
1 13 
1 14 
1 15 
1 16 
1 17 
1 18 
1 19 
1 20 
1 21 
1 22 
1 23 
1 24 
1 25 
1 26 
1 27 
1 28 
1 29 
1 30 
1 31 
1 32 
1 33 
1 34 
1 35 
1 36 
1 37 
1 38 
1 39 
1 40 
1 41 
1 42 
1 43 
1 44 
1 45 
1 46 
1 47 
1 48 
1 49 
1 50 
1 51 
1 52 
1 53 
1 54 
1 55 
1 56 
1 57 
1 58 
1 59 
1 60 
1 61 
1 62 
1 63 
1 64 
1 65 
1 66 
1 67 
1 68 
1 69 
1 70 
1 71 
1 72 
1 73 
1 74 
1 75 
1 76 
1 77 
1 78 
1 79 
1 80 
1 81 
1 82 
1 83 
1 84 
1 85 
1 86 
1 87 
1 88 
1 89 
1 90 
1 91 
1 92 
1 93 
1 94 
1 95 
1 96 
1 97 
1 98 
1 99 

POINT_DATA 100
FIELD FieldData 7
id 1 100 int
1 2 3 4 5 6 7 8 9 
10 11 12 13 14 15 16 17 18 
19 20 21 22 23 24 25 26 27 
28 29 30 31 32 33 34 35 36 
37 38 39 40 41 42 43 44 45 
46 47 48 49 50 51 52 53 54 
55 56 57 58 59 60 61 62 63 
64 65 66 67 68 69 70 71 72 
73 74 75 76 77 78 79 80 81 
82 83 84 85 86 87 88 89 90 
91 92 93 94 95 96 97 98 99 
100 
mol 1 100 int
1 1 1 1 1 1 1 1 1 
1 1 1 1 1 1 1 1 1 
1 1 1 1 1 1 1 1 1 
1 1 1 1 1 1 1 1 1 
1 1 1 1 1 1 1 1 1 
1 1 1 1 1 2 2 2 2 
2 2 2 2 2 2 2 2 2 
2 2 2 2 2 2 2 2 2 
2 2 2 2 2 2 2 2 2 
2 2 2 2 2 2 2 2 2 
2 2 2 2 2 2 2 2 2 
2 
type 1 100 int
1 1 1 1 1 1 1 1 1 
1 1 1 1 1 1 1 1 1 
1 1 1 1 1 1 1 1 1 
1 1 1 1 1 1 1 1 1 
1 1 1 1 1 1 1 1 1 
1 1 1 1 1 1 1 1 1 
1 1 1 1 1 1 1 1 1 
1 1 1 1 1 1 1 1 1 
1 1 1 1 1 1 1 1 1 
1 1 1 1 1 1 1 1 1 
1 1 1 1 1 1 1 1 1 
1 
v 3 100 double
-0.11041685672 -0.060626020199 0.15329844332 -0.10461102159 -0.061338466652 0.078462954647 -0.1124865657 -0.065856605224 0.0080670086728 
-0.17543023887 -0.080581625625 0.11574666517 -0.15620653526 -0.07192494115 0.21323631854 -0.17242686978 -0.081729798597 0.052597451205 
-0.16522001498 -0.082224460785 -0.028081721313 -0.18234337031 -0.08076896368 0.17239281763 -0.11530331132 -0.068732826388 -0.056612984203 
-0.046693563872 -0.043373213533 0.11779987592 -0.22170609299 -0.095090415317 0.079470379127 -0.19767323861 -0.090531079003 0.0050408388109 
-0.052479917141 -0.046047295292 0.08631109417 -0.23087486393 -0.096483738926 0.11871447324 -0.066721758708 -0.051523029424 0.04347294825 
-0.21708374558 -0.095163397304 0.035381142596 -0.19704576716 -0.08492472173 0.17509327282 -0.097881117594 -0.062954266943 -0.033044167783 
-0.038231599785 -0.040219379616 0.14012953317 -0.15273837026 -0.080220391911 -0.078142078104 -0.060585056353 -0.047683698317 0.10831722084 
-0.25514043078 -0.10434105032 0.091876062805 -0.14766882353 -0.070310470275 0.1866308254 -0.14527754964 -0.067059950258 0.26689062941 
-0.10912644899 -0.057923118734 0.22634912828 -0.073802476009 -0.051072608693 0.12162469664 -0.13016169977 -0.063982595276 0.22664945484 
-0.16185126677 -0.072202430144 0.2555861296 -0.25395691329 -0.10498050867 0.061129733256 -0.16426455591 -0.078246004093 0.087979318565 
-0.24835344427 -0.10410947234 0.03775735382 -0.18709203364 -0.080651768715 0.21901019911 -0.076663489872 -0.055091880765 0.021516998428 
-0.21977847831 -0.092256536829 0.15086392837 -0.11662862279 -0.070490026772 -0.099705757699 -0.12782337173 -0.063963678978 0.20609596784 
-0.23412721756 -0.1010746323 0.0042287872846 -0.22092684382 -0.092562742461 0.15165126427 -0.20405594935 -0.093929786662 -0.04376768625 
-0.035612741027 -0.041586894824 0.073582483125 -0.15437593412 -0.077908781892 0.0091226594807 -0.20265859928 -0.087884514678 0.13307987776 
-0.17729232982 -0.079479610148 0.16712808935 -0.15545236807 -0.07392693219 0.14366524403 -0.14597706411 -0.076954377581 -0.036916506588 
-0.18540977111 -0.089384451942 -0.069922302673 -0.083677661955 -0.050705310409 0.22244249598 -0.043689781757 -0.044521284968 0.054650109371 
-0.25439253766 -0.10669518343 0.011324108385 -0.072634662507 -0.054152971264 0.014512143219 -0.10977111759 -0.060304545302 0.1055040613 
-0.10220996825 -0.060827489583 0.032154871285 -0.10821601699 -0.065096805713 -0.03720637795 -0.17262171616 -0.079754572886 0.066909858414 
-0.15623851454 -0.071521135871 0.16315067033 -0.16809678583 -0.080730004639 0.0049666220888 -0.15901772074 -0.081026780661 -0.074086086422 
-0.18072792366 -0.080043673408 0.12239715753 -0.10936526994 -0.067761138689 -0.10080709664 -0.046431051016 -0.043349878646 0.072291550092 
-0.21705089608 -0.093854020011 0.030087274192 -0.19164451922 -0.089224863226 -0.04239356757 -0.051467609492 -0.045937791681 0.04115835409 
-0.22697700298 -0.095295415054 0.068408274396 -0.064363537958 -0.051196013728 -0.0012878673081 -0.21140359311 -0.09381856455 -0.013089692152 
-0.19544750397 -0.08418700404 0.12457855749 -0.093069660779 -0.062221826458 -0.077277223397 -0.038480289002 -0.040252613041 0.094521709038 
-0.14547931286 -0.078934433261 -0.12290931201 -0.059509999998 -0.047453592333 0.062728021325 -0.25010138448 -0.10292121286 0.041414585961 
-0.14691940755 -0.069794426582 0.13734713433 -0.14695486793 -0.066913864208 0.21609902132 -0.11026028591 -0.057809085898 0.17731111557 
-0.073321283721 -0.050956313099 0.075261637073 -0.13123243648 -0.063840422388 0.17693189363 -0.1630395329 -0.071953946147 0.20452072763 
-0.24818750552 -0.10347960599 0.011242287587 -0.1612097232 -0.077473679331 0.03984456323 -0.24211650446 -0.10257503859 -0.011569490349 
-0.18649673944 -0.080022083182 0.1680780311 -0.073132458019 -0.054507277812 -0.022952714915 -0.21684201973 -0.0912169759 0.10029514189 
-0.1095148463 -0.069357912021 -0.14313855762 -0.1279523253 -0.063631615703 0.15698096807 -0.22733490906 -0.099529052134 -0.044130413481 
-0.21811688542 -0.091557230576 0.1009907899 -0.19664952278 -0.092426218401 -0.090485324018 -0.034410343785 -0.041483663509 0.029171142325 
-0.14912540876 -0.076834197334 -0.03719273597 -0.19954168134 -0.086876894892 0.083300952168 -0.17596376907 -0.07886602052 0.11724013907 
-0.15344212523 -0.073221918658 0.0949581746 -0.14011015251 -0.075904271574 -0.082327831276 -0.1777108053 -0.08791727142 -0.11568572671 
-0.08522234719 -0.050741727414 0.17413376242 -0.041905702963 -0.044325210084 0.010347781426 -0.24739617637 -0.10504891273 -0.037695615022 
-0.06952183349 -0.053726951686 -0.029917326838 
f 3 100 double
0 0 0 0 0 0 0 0 0 
0 0 0 0 0 0 0 0 0 
0 0 0 0 0 0 0 0 0 
0 0 0 0 0 0 0 0 0 
0 0 0 0 0 0 0 0 0 
0 0 0 0 0 0 0 0 0 
0 0 0 0 0 0 0 0 0 
0 0 0 0 0 0 0 0 0 
0 0 0 0 0 0 0 0 0 
0 0 0 0 0 0 0 0 0 
0 0 0 0 0 0 0 0 0 
0 0 0 0 0 0 0 0 0 
0 0 0 0 0 0 0 0 0 
0 0 0 0 0 0 0 0 0 
0 0 0 0 0 0 0 0 0 
0 0 0 0 0 0 0 0 0 
0 0 0 0 0 0 0 0 0 
0 0 0 0 0 0 0 0 0 
0 0 0 0 0 0 0 0 0 
0 0 0 0 0 0 0 0 0 
0 0 0 0 0 0 0 0 0 
0 0 0 0 0 0 0 0 0 
0 0 0 0 0 0 0 0 0 
0 0 0 0 0 0 0 0 0 
0 0 0 0 0 0 0 0 0 
0 0 0 0 0 0 0 0 0 
0 0 0 0 0 0 0 0 0 
0 0 0 0 0 0 0 0 0 
0 0 0 0 0 0 0 0 0 
0 0 0 0 0 0 0 0 0 
0 0 0 0 0 0 0 0 0 
0 0 0 0 0 0 0 0 0 
0 0 0 0 0 0 0 0 0 
0 0 0 
radius 1 100 double
0.010434 0.00981478 0.00892069 0.00845937 0.00731974 0.00728422 0.00643447 0.00619172 0.00585956 
0.00577566 0.00537241 0.00522549 0.00513666 0.00473175 0.00466912 0.00444866 0.00441894 0.00400812 
0.00385622 0.00379948 0.00370243 0.00366942 0.00364039 0.00363813 0.00363644 0.00358692 0.0035797 
0.00341284 0.00337012 0.00336273 0.00332772 0.00323261 0.00320584 0.00320311 0.00318808 0.00313116 
0.00306026 0.00305632 0.00304383 0.00300958 0.00300137 0.00298994 0.0029567 0.00295111 0.00290849 
0.00284552 0.00282964 0.0028207 0.00281971 0.00281899 0.010434 0.00981478 0.00892069 0.00845937 
0.00731974 0.00728422 0.00643447 0.00619172 0.00585956 0.00577566 0.00537241 0.00522549 0.00513666 
0.00473175 0.00466912 0.00444866 0.00441894 0.00400812 0.00385622 0.00379948 0.00370243 0.00366942 
0.00364039 0.00363813 0.00363644 0.00358692 0.0035797 0.00341284 0.00337012 0.00336273 0.00332772 
0.00323261 0.00320584 0.00320311 0.00318808 0.00313116 0.00306026 0.00305632 0.00304383 0.00300958 
0.00300137 0.00298994 0.0029567 0.00295111 0.00290849 0.00284552 0.00282964 0.0028207 0.00281971 
0.00281899 
omega 3 100 double
2.0269344162 -7.0253197529 0.2241344514 2.0269344162 -7.0253197529 0.2241344514 2.0269344162 -7.0253197529 0.2241344514 
2.0269344162 -7.0253197529 0.2241344514 2.0269344162 -7.0253197529 0.2241344514 2.0269344162 -7.0253197529 0.2241344514 
2.0269344162 -7.0253197529 0.2241344514 2.0269344162 -7.0253197529 0.2241344514 2.0269344162 -7.0253197529 0.2241344514 
2.0269344162 -7.0253197529 0.2241344514 2.0269344162 -7.0253197529 0.2241344514 2.0269344162 -7.0253197529 0.2241344514 
2.0269344162 -7.0253197529 0.2241344514 2.0269344162 -7.0253197529 0.2241344514 2.0269344162 -7.0253197529 0.2241344514 
2.0269344162 -7.0253197529 0.2241344514 2.0269344162 -7.0253197529 0.2241344514 2.0269344162 -7.0253197529 0.2241344514 
2.0269344162 -7.0253197529 0.2241344514 2.0269344162 -7.0253197529 0.2241344514 2.0269344162 -7.0253197529 0.2241344514 
2.0269344162 -7.0253197529 0.2241344514 2.0269344162 -7.0253197529 0.2241344514 2.0269344162 -7.0253197529 0.2241344514 
2.0269344162 -7.0253197529 0.2241344514 2.0269344162 -7.0253197529 0.2241344514 2.0269344162 -7.0253197529 0.2241344514 
2.0269344162 -7.0253197529 0.2241344514 2.0269344162 -7.0253197529 0.2241344514 2.0269344162 -7.0253197529 0.2241344514 
2.0269344162 -7.0253197529 0.2241344514 2.0269344162 -7.0253197529 0.2241344514 2.0269344162 -7.0253197529 0.2241344514 
2.0269344162 -7.0253197529 0.2241344514 2.0269344162 -7.0253197529 0.2241344514 2.0269344162 -7.0253197529 0.2241344514 
2.0269344162 -7.0253197529 0.2241344514 2.0269344162 -7.0253197529 0.2241344514 2.0269344162 -7.0253197529 0.2241344514 
2.0269344162 -7.0253197529 0.2241344514 2.0269344162 -7.0253197529 0.2241344514 2.0269344162 -7.0253197529 0.2241344514 
2.0269344162 -7.0253197529 0.2241344514 2.0269344162 -7.0253197529 0.2241344514 2.0269344162 -7.0253197529 0.2241344514 
2.0269344162 -7.0253197529 0.2241344514 2.0269344162 -7.0253197529 0.2241344514 2.0269344162 -7.0253197529 0.2241344514 
2.0269344162 -7.0253197529 0.2241344514 2.0269344162 -7.0253197529 0.2241344514 1.9802009296 -6.9014788181 0.25333182046 
1.9802009296 -6.9014788181 0.25333182046 1.9802009296 -6.9014788181 0.25333182046 1.9802009296 -6.9014788181 0.25333182046 
1.9802009296 -6.9014788181 0.25333182046 1.9802009296 -6.9014788181 0.25333182046 1.9802009296 -6.9014788181 0.25333182046 
1.9802009296 -6.9014788181 0.25333182046 1.9802009296 -6.9014788181 0.25333182046 1.9802009296 -6.9014788181 0.25333182046 
1.9802009296 -6.9014788181 0.25333182046 1.9802009296 -6.9014788181 0.25333182046 1.9802009296 -6.9014788181 0.25333182046 
1.9802009296 -6.9014788181 0.25333182046 1.9802009296 -6.9014788181 0.25333182046 1.9802009296 -6.9014788181 0.25333182046 
1.9802009296 -6.9014788181 0.25333182046 1.9802009296 -6.9014788181 0.25333182046 1.9802009296 -6.9014788181 0.25333182046 
1.9802009296 -6.9014788181 0.25333182046 1.9802009296 -6.9014788181 0.25333182046 1.9802009296 -6.9014788181 0.25333182046 
1.9802009296 -6.9014788181 0.25333182046 1.9802009296 -6.9014788181 0.25333182046 1.9802009296 -6.9014788181 0.25333182046 
1.9802009296 -6.9014788181 0.25333182046 1.9802009296 -6.9014788181 0.25333182046 1.9802009296 -6.9014788181 0.25333182046 
1.9802009296 -6.9014788181 0.25333182046 1.9802009296 -6.9014788181 0.25333182046 1.9802009296 -6.9014788181 0.25333182046 
1.9802009296 -6.9014788181 0.25333182046 1.9802009296 -6.9014788181 0.25333182046 1.9802009296 -6.9014788181 0.25333182046 
1.9802009296 -6.9014788181 0.25333182046 1.9802009296 -6.9014788181 0.25333182046 1.9802009296 -6.9014788181 0.25333182046 
1.9802009296 -6.9014788181 0.25333182046 1.9802009296 -6.9014788181 0.25333182046 1.9802009296 -6.9014788181 0.25333182046 
1.9802009296 -6.9014788181 0.25333182046 1.9802009296 -6.9014788181 0.25333182046 1.9802009296 -6.9014788181 0.25333182046 
1.9802009296 -6.9014788181 0.25333182046 1.9802009296 -6.9014788181 0.25333182046 1.9802009296 -6.9014788181 0.25333182046 
1.9802009296 -6.9014788181 0.25333182046 1.9802009296 -6.9014788181 0.25333182046 1.9802009296 -6.9014788181 0.25333182046 
1.9802009296 -6.9014788181 0.25333182046 
