# vtk DataFile Version 4.1
Generated by LIGGGHTS
ASCII
DATASET POLYDATA
POINTS 100 float
-0.108797 -0.129169 0.0159405 -0.119167 -0.130059 0.0169394 -0.128799 -0.130134 0.0197256 
-0.112049 -0.130274 0.0260007 -0.0996834 -0.127569 0.0208861 -0.12071 -0.131165 0.0271145 
-0.131936 -0.132053 0.028056 -0.103443 -0.131973 0.0256788 -0.137517 -0.131046 0.0216937 
-0.115973 -0.127262 0.00777537 -0.115128 -0.133029 0.0334559 -0.126182 -0.132998 0.0318548 
-0.121219 -0.123874 0.00922316 -0.109145 -0.13389 0.033837 -0.126576 -0.12481 0.0122755 
-0.121168 -0.133901 0.0338875 -0.104418 -0.126019 0.0274762 -0.136438 -0.124969 0.0184794 
-0.111581 -0.132362 0.00622843 -0.138772 -0.13376 0.0275548 -0.11443 -0.13589 0.0102449 
-0.111995 -0.134848 0.0379161 -0.101387 -0.135275 0.0205835 -0.0934735 -0.124065 0.0179537 
-0.0983673 -0.129972 0.0140454 -0.116207 -0.122207 0.0113184 -0.100256 -0.121469 0.0167025 
-0.0953573 -0.121557 0.0204648 -0.116326 -0.134866 0.0384833 -0.117979 -0.124253 0.0248903 
-0.119745 -0.134863 0.0382537 -0.0965477 -0.132814 0.0252629 -0.125885 -0.136862 0.0146042 
-0.104698 -0.134687 0.0315399 -0.142758 -0.133652 0.0229955 -0.0994483 -0.134336 0.0173014 
-0.124816 -0.134838 0.0370547 -0.105556 -0.131261 0.0315659 -0.132336 -0.134769 0.0339745 
-0.121955 -0.12897 0.00733167 -0.125777 -0.136278 0.0257903 -0.107146 -0.136356 0.029617 
-0.106812 -0.123385 0.0248033 -0.106686 -0.137046 0.0227606 -0.135186 -0.12685 0.0253881 
-0.136494 -0.134723 0.0319785 -0.0998477 -0.129031 0.0105336 -0.124635 -0.128153 0.00888916 
-0.123278 -0.134902 0.0397329 -0.130966 -0.123135 0.0137391 -0.0399393 -0.101388 0.0173988 
-0.0503333 -0.102287 0.0181014 -0.0600383 -0.102389 0.0206183 -0.0434695 -0.102582 0.0273545 
-0.0309675 -0.0998304 0.0226096 -0.0521579 -0.103484 0.0282195 -0.0634047 -0.104382 0.0288409 
-0.0348575 -0.104278 0.0272566 -0.0688078 -0.103319 0.0223354 -0.0468873 -0.0994087 0.00905489 
-0.0467532 -0.105404 0.0346965 -0.0577581 -0.10536 0.0327895 -0.0521725 -0.0960342 0.0103866 
-0.0407822 -0.106268 0.0352359 -0.0576121 -0.0969975 0.0132806 -0.0528021 -0.10628 0.0349525 
-0.0358834 -0.0983403 0.0290793 -0.0676416 -0.0972129 0.0192066 -0.0424519 -0.104494 0.00758508 
-0.0702237 -0.106086 0.028135 -0.0454095 -0.108058 0.0114893 -0.0437445 -0.107263 0.0392256 
-0.0326589 -0.107533 0.0221911 -0.0246798 -0.0962998 0.0198821 -0.0294611 -0.102172 0.0157869 
-0.0472212 -0.0943857 0.012635 -0.0314256 -0.0936937 0.0184663 -0.0266335 -0.0938145 0.0223622 
-0.0480895 -0.107286 0.0396722 -0.0493688 -0.0965528 0.0261337 -0.0515006 -0.107281 0.0393477 
-0.0279526 -0.105114 0.0270248 -0.0569807 -0.10907 0.0155201 -0.0362733 -0.107044 0.0330562 
-0.0740821 -0.105937 0.0234679 -0.0306305 -0.106566 0.0189726 -0.0565362 -0.107246 0.0380087 
-0.0371324 -0.103619 0.0330889 -0.0639678 -0.10715 0.0347217 -0.0528536 -0.101113 0.00843008 
-0.057184 -0.108586 0.0267095 -0.0386663 -0.108696 0.0310512 -0.0382031 -0.095683 0.0263645 
-0.0380158 -0.109324 0.0242043 -0.0665818 -0.0991554 0.0261304 -0.0680694 -0.107088 0.0326115 
-0.0308437 -0.1012 0.0122439 -0.0555758 -0.10031 0.00991978 -0.055074 -0.107334 0.0407279 
-0.0620413 -0.0953365 0.0146366 
VERTICES 100 200
1 0 
1 1 
1 2 
1 3 
1 4 
1 5 
1 6 
1 7 
1 8 
1 9 
1 10 
1 11 
1 12 
1 13 
1 14 
1 15 
1 16 
1 17 
1 18 
1 19 
1 20 
1 21 
1 22 
1 23 
1 24 
1 25 
1 26 
1 27 
1 28 
1 29 
1 30 
1 31 
1 32 
1 33 
1 34 
1 35 
1 36 
1 37 
1 38 
1 39 
1 40 
1 41 
1 42 
1 43 
1 44 
1 45 
1 46 
1 47 
1 48 
1 49 
1 50 
1 51 
1 52 
1 53 
1 54 
1 55 
1 56 
1 57 
1 58 
1 59 
1 60 
1 61 
1 62 
1 63 
1 64 
1 65 
1 66 
1 67 
1 68 
1 69 
1 70 
1 71 
1 72 
1 73 
1 74 
1 75 
1 76 
1 77 
1 78 
1 79 
1 80 
1 81 
1 82 
1 83 
1 84 
1 85 
1 86 
1 87 
1 88 
1 89 
1 90 
1 91 
1 92 
1 93 
1 94 
1 95 
1 96 
1 97 
1 98 
1 99 

POINT_DATA 100
FIELD FieldData 7
id 1 100 int
1 2 3 4 5 6 7 8 9 
10 11 12 13 14 15 16 17 18 
19 20 21 22 23 24 25 26 27 
28 29 30 31 32 33 34 35 36 
37 38 39 40 41 42 43 44 45 
46 47 48 49 50 51 52 53 54 
55 56 57 58 59 60 61 62 63 
64 65 66 67 68 69 70 71 72 
73 74 75 76 77 78 79 80 81 
82 83 84 85 86 87 88 89 90 
91 92 93 94 95 96 97 98 99 
100 
mol 1 100 int
1 1 1 1 1 1 1 1 1 
1 1 1 1 1 1 1 1 1 
1 1 1 1 1 1 1 1 1 
1 1 1 1 1 1 1 1 1 
1 1 1 1 1 1 1 1 1 
1 1 1 1 1 2 2 2 2 
2 2 2 2 2 2 2 2 2 
2 2 2 2 2 2 2 2 2 
2 2 2 2 2 2 2 2 2 
2 2 2 2 2 2 2 2 2 
2 2 2 2 2 2 2 2 2 
2 
type 1 100 int
1 1 1 1 1 1 1 1 1 
1 1 1 1 1 1 1 1 1 
1 1 1 1 1 1 1 1 1 
1 1 1 1 1 1 1 1 1 
1 1 1 1 1 1 1 1 1 
1 1 1 1 1 1 1 1 1 
1 1 1 1 1 1 1 1 1 
1 1 1 1 1 1 1 1 1 
1 1 1 1 1 1 1 1 1 
1 1 1 1 1 1 1 1 1 
1 1 1 1 1 1 1 1 1 
1 
v 3 100 double
-0.10041107834 -0.058647876324 0.38314394266 -0.10737054191 -0.061099326199 0.30870708264 -0.12684366925 -0.067448176653 0.24121993118 
-0.17070193375 -0.080772828643 0.35798927727 -0.13502038913 -0.069253010947 0.45035057128 -0.17846484706 -0.083432819492 0.29549781573 
-0.18502289916 -0.085780098956 0.21508775067 -0.1684088998 -0.079849433035 0.41441936519 -0.14057754281 -0.071981479533 0.17828081162 
-0.04338671554 -0.040939456748 0.33715802249 -0.2227426418 -0.09718570273 0.3304325038 -0.21155246632 -0.093957876333 0.25323608158 
-0.053592380231 -0.044244612387 0.3079144464 -0.2253847116 -0.097869094084 0.37036919586 -0.074904125677 -0.051068312687 0.26841856667 
-0.22573727561 -0.098284413675 0.28630613562 -0.18112358022 -0.083812437535 0.42065416553 -0.11826406533 -0.064911333559 0.19914329357 
-0.032444672165 -0.03743870262 0.35668516322 -0.18147690096 -0.08485537226 0.16356358463 -0.060429735983 -0.046311268595 0.32904517439 
-0.25387231481 -0.10687882714 0.34834482359 -0.1327099849 -0.068633167263 0.4215609444 -0.11461256663 -0.062670644625 0.50143382924 
-0.087144190908 -0.054231218756 0.45428482172 -0.068279761546 -0.048708329192 0.3465995238 -0.10593248523 -0.060101007548 0.45971511196 
-0.1322281682 -0.068220341892 0.4937619487 -0.25783713674 -0.10823156394 0.31803424434 -0.16309328888 -0.078490249185 0.32972949615 
-0.25623166274 -0.10781492731 0.29414386545 -0.16548062877 -0.078763439347 0.46077558221 -0.090876027483 -0.056153164426 0.24684737137 
-0.209308272 -0.09272332941 0.39970234737 -0.14961085647 -0.074966647476 0.13593597212 -0.10979272447 -0.061392819783 0.43716581355 
-0.24785172876 -0.10531642461 0.25875503119 -0.20957695201 -0.092802063706 0.40121578916 -0.22632362815 -0.098758151447 0.20634315326 
-0.04024207371 -0.04011888593 0.29160630707 -0.16907909144 -0.080659744477 0.24887920543 -0.19582501767 -0.088572095781 0.37893533769 
-0.16250693048 -0.078016509812 0.40969241296 -0.14788250547 -0.073537599027 0.38064045835 -0.16650675188 -0.080016971592 0.20376847844 
-0.21237339824 -0.094490275323 0.17737451935 -0.062621495517 -0.046574244677 0.44599992181 -0.051149309005 -0.043599349552 0.27466595014 
-0.26657028502 -0.11114559279 0.26935926895 -0.085176422237 -0.054386270401 0.24140470931 -0.099967983881 -0.058361236421 0.33581765661 
-0.10473129475 -0.060570825769 0.26252212958 -0.12200566708 -0.066628852341 0.19566991052 -0.16824338513 -0.079971869798 0.30901500814 
-0.13585018257 -0.06894209861 0.40076133764 -0.17412123526 -0.082414904773 0.24742503651 -0.17832756771 -0.084507867328 0.1682762261 
-0.16745632343 -0.079180475615 0.36450588908 -0.13373255553 -0.070906748957 0.13346130565 -0.042812451052 -0.04091781918 0.29236115153 
-0.21846294547 -0.095954786549 0.28041215963 -0.20537256722 -0.092603509179 0.20494557982 -0.052183860492 -0.044133333607 0.2633172442 
-0.22210814016 -0.096709860968 0.31955392613 -0.071988885297 -0.050712988257 0.2239012149 -0.22016110271 -0.09691236375 0.23699857836 
-0.18037168847 -0.083162612651 0.37020749158 -0.11266239609 -0.0641113714 0.15457683885 -0.032377647527 -0.037463251412 0.31189742475 
-0.17336572216 -0.083452505407 0.11780021819 -0.058943544974 -0.046044183582 0.28393987154 -0.24943377061 -0.10547445979 0.29707865329 
-0.13245716466 -0.068157853165 0.37261149552 -0.11736180154 -0.062662730169 0.45151151436 -0.08884774119 -0.054193900324 0.40607710942 
-0.067732147044 -0.04862586621 0.30085193932 -0.10781642131 -0.060078408136 0.41078975236 -0.13455769768 -0.068118650396 0.44343309045 
-0.25249891241 -0.10672646907 0.2671966222 -0.16026788326 -0.077749056172 0.281454512 -0.25027124107 -0.10626001418 0.24378587966 
-0.16580864291 -0.078217072948 0.41011828223 -0.08655042721 -0.055477940697 0.20231923809 -0.20708950956 -0.091726236149 0.34884500659 
-0.14133154163 -0.073693779901 0.091627212128 -0.11042441237 -0.061111732147 0.38861616304 -0.24107992181 -0.1037252369 0.20928751473 
-0.20754552565 -0.091854511729 0.35030060222 -0.21851765542 -0.097170238183 0.15846785843 -0.038407505304 -0.03997906673 0.24773768845 
-0.16340976054 -0.079512564351 0.20196356386 -0.19321200755 -0.087583551697 0.32886864583 -0.16191132168 -0.077491179594 0.35998516793 
-0.1461591574 -0.072841193205 0.33198631029 -0.16006934385 -0.078903282034 0.15768298572 -0.20403352302 -0.092916996719 0.13044078204 
-0.064587370747 -0.046681335162 0.39867163231 -0.048689971874 -0.043360756995 0.23077058953 -0.25974381212 -0.10946394975 0.21913888399 
-0.081411029846 -0.053922759336 0.19705598392 
f 3 100 double
0 0 0 0 0 0 0 0 0 
0 0 0 0 0 0 0 0 0 
0 0 0 0 0 0 0 0 0 
0 0 0 0 0 0 0 0 0 
0 0 0 0 0 0 0 0 0 
0 0 0 0 0 0 0 0 0 
0 0 0 0 0 0 0 0 0 
0 0 0 0 0 0 0 0 0 
0 0 0 0 0 0 0 0 0 
0 0 0 0 0 0 0 0 0 
0 0 0 0 0 0 0 0 0 
0 0 0 0 0 0 0 0 0 
0 0 0 0 0 0 0 0 0 
0 0 0 0 0 0 0 0 0 
0 0 0 0 0 0 0 0 0 
0 0 0 0 0 0 0 0 0 
0 0 0 0 0 0 0 0 0 
0 0 0 0 0 0 0 0 0 
0 0 0 0 0 0 0 0 0 
0 0 0 0 0 0 0 0 0 
0 0 0 0 0 0 0 0 0 
0 0 0 0 0 0 0 0 0 
0 0 0 0 0 0 0 0 0 
0 0 0 0 0 0 0 0 0 
0 0 0 0 0 0 0 0 0 
0 0 0 0 0 0 0 0 0 
0 0 0 0 0 0 0 0 0 
0 0 0 0 0 0 0 0 0 
0 0 0 0 0 0 0 0 0 
0 0 0 0 0 0 0 0 0 
0 0 0 0 0 0 0 0 0 
0 0 0 0 0 0 0 0 0 
0 0 0 0 0 0 0 0 0 
0 0 0 
radius 1 100 double
0.010434 0.00981478 0.00892069 0.00845937 0.00731974 0.00728422 0.00643447 0.00619172 0.00585956 
0.00577566 0.00537241 0.00522549 0.00513666 0.00473175 0.00466912 0.00444866 0.00441894 0.00400812 
0.00385622 0.00379948 0.00370243 0.00366942 0.00364039 0.00363813 0.00363644 0.00358692 0.0035797 
0.00341284 0.00337012 0.00336273 0.00332772 0.00323261 0.00320584 0.00320311 0.00318808 0.00313116 
0.00306026 0.00305632 0.00304383 0.00300958 0.00300137 0.00298994 0.0029567 0.00295111 0.00290849 
0.00284552 0.00282964 0.0028207 0.00281971 0.00281899 0.010434 0.00981478 0.00892069 0.00845937 
0.00731974 0.00728422 0.00643447 0.00619172 0.00585956 0.00577566 0.00537241 0.00522549 0.00513666 
0.00473175 0.00466912 0.00444866 0.00441894 0.00400812 0.00385622 0.00379948 0.00370243 0.00366942 
0.00364039 0.00363813 0.00363644 0.00358692 0.0035797 0.00341284 0.00337012 0.00336273 0.00332772 
0.00323261 0.00320584 0.00320311 0.00318808 0.00313116 0.00306026 0.00305632 0.00304383 0.00300958 
0.00300137 0.00298994 0.0029567 0.00295111 0.00290849 0.00284552 0.00282964 0.0028207 0.00281971 
0.00281899 
omega 3 100 double
2.191064789 -6.9898159641 0.025344270271 2.191064789 -6.9898159641 0.025344270271 2.191064789 -6.9898159641 0.025344270271 
2.191064789 -6.9898159641 0.025344270271 2.191064789 -6.9898159641 0.025344270271 2.191064789 -6.9898159641 0.025344270271 
2.191064789 -6.9898159641 0.025344270271 2.191064789 -6.9898159641 0.025344270271 2.191064789 -6.9898159641 0.025344270271 
2.191064789 -6.9898159641 0.025344270271 2.191064789 -6.9898159641 0.025344270271 2.191064789 -6.9898159641 0.025344270271 
2.191064789 -6.9898159641 0.025344270271 2.191064789 -6.9898159641 0.025344270271 2.191064789 -6.9898159641 0.025344270271 
2.191064789 -6.9898159641 0.025344270271 2.191064789 -6.9898159641 0.025344270271 2.191064789 -6.9898159641 0.025344270271 
2.191064789 -6.9898159641 0.025344270271 2.191064789 -6.9898159641 0.025344270271 2.191064789 -6.9898159641 0.025344270271 
2.191064789 -6.9898159641 0.025344270271 2.191064789 -6.9898159641 0.025344270271 2.191064789 -6.9898159641 0.025344270271 
2.191064789 -6.9898159641 0.025344270271 2.191064789 -6.9898159641 0.025344270271 2.191064789 -6.9898159641 0.025344270271 
2.191064789 -6.9898159641 0.025344270271 2.191064789 -6.9898159641 0.025344270271 2.191064789 -6.9898159641 0.025344270271 
2.191064789 -6.9898159641 0.025344270271 2.191064789 -6.9898159641 0.025344270271 2.191064789 -6.9898159641 0.025344270271 
2.191064789 -6.9898159641 0.025344270271 2.191064789 -6.9898159641 0.025344270271 2.191064789 -6.9898159641 0.025344270271 
2.191064789 -6.9898159641 0.025344270271 2.191064789 -6.9898159641 0.025344270271 2.191064789 -6.9898159641 0.025344270271 
2.191064789 -6.9898159641 0.025344270271 2.191064789 -6.9898159641 0.025344270271 2.191064789 -6.9898159641 0.025344270271 
2.191064789 -6.9898159641 0.025344270271 2.191064789 -6.9898159641 0.025344270271 2.191064789 -6.9898159641 0.025344270271 
2.191064789 -6.9898159641 0.025344270271 2.191064789 -6.9898159641 0.025344270271 2.191064789 -6.9898159641 0.025344270271 
2.191064789 -6.9898159641 0.025344270271 2.191064789 -6.9898159641 0.025344270271 2.1467432503 -6.8659803232 0.067471941711 
2.1467432503 -6.8659803232 0.067471941711 2.1467432503 -6.8659803232 0.067471941711 2.1467432503 -6.8659803232 0.067471941711 
2.1467432503 -6.8659803232 0.067471941711 2.1467432503 -6.8659803232 0.067471941711 2.1467432503 -6.8659803232 0.067471941711 
2.1467432503 -6.8659803232 0.067471941711 2.1467432503 -6.8659803232 0.067471941711 2.1467432503 -6.8659803232 0.067471941711 
2.1467432503 -6.8659803232 0.067471941711 2.1467432503 -6.8659803232 0.067471941711 2.1467432503 -6.8659803232 0.067471941711 
2.1467432503 -6.8659803232 0.067471941711 2.1467432503 -6.8659803232 0.067471941711 2.1467432503 -6.8659803232 0.067471941711 
2.1467432503 -6.8659803232 0.067471941711 2.1467432503 -6.8659803232 0.067471941711 2.1467432503 -6.8659803232 0.067471941711 
2.1467432503 -6.8659803232 0.067471941711 2.1467432503 -6.8659803232 0.067471941711 2.1467432503 -6.8659803232 0.067471941711 
2.1467432503 -6.8659803232 0.067471941711 2.1467432503 -6.8659803232 0.067471941711 2.1467432503 -6.8659803232 0.067471941711 
2.1467432503 -6.8659803232 0.067471941711 2.1467432503 -6.8659803232 0.067471941711 2.1467432503 -6.8659803232 0.067471941711 
2.1467432503 -6.8659803232 0.067471941711 2.1467432503 -6.8659803232 0.067471941711 2.1467432503 -6.8659803232 0.067471941711 
2.1467432503 -6.8659803232 0.067471941711 2.1467432503 -6.8659803232 0.067471941711 2.1467432503 -6.8659803232 0.067471941711 
2.1467432503 -6.8659803232 0.067471941711 2.1467432503 -6.8659803232 0.067471941711 2.1467432503 -6.8659803232 0.067471941711 
2.1467432503 -6.8659803232 0.067471941711 2.1467432503 -6.8659803232 0.067471941711 2.1467432503 -6.8659803232 0.067471941711 
2.1467432503 -6.8659803232 0.067471941711 2.1467432503 -6.8659803232 0.067471941711 2.1467432503 -6.8659803232 0.067471941711 
2.1467432503 -6.8659803232 0.067471941711 2.1467432503 -6.8659803232 0.067471941711 2.1467432503 -6.8659803232 0.067471941711 
2.1467432503 -6.8659803232 0.067471941711 2.1467432503 -6.8659803232 0.067471941711 2.1467432503 -6.8659803232 0.067471941711 
2.1467432503 -6.8659803232 0.067471941711 
