# vtk DataFile Version 4.1
Generated by LIGGGHTS
ASCII
DATASET POLYDATA
POINTS 100 float
-0.116877 -0.151999 0.0118863 -0.12667 -0.148336 0.0117175 -0.136389 -0.146215 0.01297 
-0.124173 -0.159147 0.0148337 -0.110535 -0.159739 0.0150373 -0.132497 -0.156367 0.0146641 
-0.143024 -0.152263 0.0144956 -0.116743 -0.163412 0.012922 -0.145125 -0.144119 0.0131124 
-0.119463 -0.141337 0.0106777 -0.130558 -0.164778 0.0152496 -0.13969 -0.158355 0.0149429 
-0.124045 -0.138987 0.0144953 -0.12558 -0.168135 0.0144489 -0.130255 -0.139341 0.014948 
-0.136269 -0.162639 0.0147666 -0.117171 -0.162468 0.0191309 -0.141619 -0.139955 0.0174485 
-0.115937 -0.14378 0.00526485 -0.149219 -0.149265 0.0129034 -0.120839 -0.146943 0.00363491 
-0.129999 -0.170497 0.0152123 -0.113453 -0.161261 0.007858 -0.103108 -0.159026 0.0169776 
-0.106996 -0.155512 0.0101475 -0.12014 -0.142469 0.0167124 -0.108086 -0.154009 0.0190623 
-0.105326 -0.159393 0.0203078 -0.13408 -0.168973 0.0155263 -0.127773 -0.153503 0.0201091 
-0.137017 -0.167207 0.015528 -0.11062 -0.166527 0.0118089 -0.13301 -0.145574 0.00471449 
-0.120838 -0.168558 0.012713 -0.150835 -0.143639 0.0113455 -0.11018 -0.159142 0.00740698 
-0.14101 -0.163875 0.0152185 -0.120927 -0.167048 0.0159046 -0.146384 -0.157851 0.0142862 
-0.124924 -0.138782 0.00908495 -0.137458 -0.154637 0.00956779 -0.12254 -0.166401 0.0104947 
-0.117657 -0.158291 0.0205895 -0.119413 -0.161198 0.00720091 -0.143761 -0.146842 0.018348 
-0.149233 -0.154276 0.0136643 -0.106659 -0.151627 0.00969815 -0.127787 -0.138557 0.010508 
-0.140775 -0.166809 0.0161537 -0.134426 -0.137967 0.0171696 -0.0465815 -0.121947 0.0115057 
-0.0566934 -0.119322 0.0119472 -0.0664988 -0.118261 0.0137534 -0.0529371 -0.129894 0.0145798 
-0.0393189 -0.129067 0.0140808 -0.0615 -0.127994 0.0149181 -0.0723865 -0.125007 0.0154111 
-0.0452206 -0.133308 0.0121602 -0.0753831 -0.117092 0.0144013 -0.0503092 -0.111584 0.0107768 
-0.0586785 -0.13617 0.0151308 -0.0684256 -0.130728 0.0154917 -0.0548991 -0.10983 0.0148938 
-0.0534319 -0.138967 0.0139727 -0.0610069 -0.110841 0.0156451 -0.0645964 -0.134625 0.0150046 
-0.0454127 -0.132583 0.0184103 -0.0720978 -0.112705 0.0186901 -0.046844 -0.113497 0.0051174 
-0.0789327 -0.122629 0.0142297 -0.0514747 -0.117109 0.00363255 -0.0575375 -0.141796 0.0148789 
-0.0424431 -0.130688 0.00701079 -0.0319115 -0.127636 0.015669 -0.0364981 -0.124362 0.00916061 
-0.0505448 -0.112945 0.0167978 -0.0372611 -0.123224 0.0181631 -0.0338998 -0.128323 0.0190923 
-0.0617315 -0.140716 0.0154465 -0.0568121 -0.124802 0.0202104 -0.0648295 -0.139266 0.0156528 
-0.0388781 -0.135736 0.0106408 -0.0636469 -0.117046 0.00536435 -0.0487701 -0.138846 0.0119886 
-0.0811981 -0.117162 0.0129392 -0.0394334 -0.128227 0.00646587 -0.0691552 -0.136361 0.0156527 
-0.0488445 -0.137441 0.0152283 -0.0751615 -0.130907 0.0151879 -0.0560809 -0.109569 0.00954388 
-0.0668758 -0.126653 0.0101358 -0.0508008 -0.136817 0.00992994 -0.046247 -0.128521 0.0200271 
-0.0484045 -0.131229 0.00665538 -0.0734702 -0.1198 0.0194704 -0.0783912 -0.127633 0.0148264 
-0.0365864 -0.120452 0.00882199 -0.0588722 -0.109684 0.0111151 -0.0685704 -0.139279 0.0164786 
-0.0651722 -0.109971 0.0181165 
VERTICES 100 200
1 0 
1 1 
1 2 
1 3 
1 4 
1 5 
1 6 
1 7 
1 8 
1 9 
1 10 
1 11 
1 12 
1 13 
1 14 
1 15 
1 16 
1 17 
1 18 
1 19 
1 20 
1 21 
1 22 
1 23 
1 24 
1 25 
1 26 
1 27 
1 28 
1 29 
1 30 
1 31 
1 32 
1 33 
1 34 
1 35 
1 36 
1 37 
1 38 
1 39 
1 40 
1 41 
1 42 
1 43 
1 44 
1 45 
1 46 
1 47 
1 48 
1 49 
1 50 
1 51 
1 52 
1 53 
1 54 
1 55 
1 56 
1 57 
1 58 
1 59 
1 60 
1 61 
1 62 
1 63 
1 64 
1 65 
1 66 
1 67 
1 68 
1 69 
1 70 
1 71 
1 72 
1 73 
1 74 
1 75 
1 76 
1 77 
1 78 
1 79 
1 80 
1 81 
1 82 
1 83 
1 84 
1 85 
1 86 
1 87 
1 88 
1 89 
1 90 
1 91 
1 92 
1 93 
1 94 
1 95 
1 96 
1 97 
1 98 
1 99 

POINT_DATA 100
FIELD FieldData 7
id 1 100 int
1 2 3 4 5 6 7 8 9 
10 11 12 13 14 15 16 17 18 
19 20 21 22 23 24 25 26 27 
28 29 30 31 32 33 34 35 36 
37 38 39 40 41 42 43 44 45 
46 47 48 49 50 51 52 53 54 
55 56 57 58 59 60 61 62 63 
64 65 66 67 68 69 70 71 72 
73 74 75 76 77 78 79 80 81 
82 83 84 85 86 87 88 89 90 
91 92 93 94 95 96 97 98 99 
100 
mol 1 100 int
1 1 1 1 1 1 1 1 1 
1 1 1 1 1 1 1 1 1 
1 1 1 1 1 1 1 1 1 
1 1 1 1 1 1 1 1 1 
1 1 1 1 1 1 1 1 1 
1 1 1 1 1 2 2 2 2 
2 2 2 2 2 2 2 2 2 
2 2 2 2 2 2 2 2 2 
2 2 2 2 2 2 2 2 2 
2 2 2 2 2 2 2 2 2 
2 2 2 2 2 2 2 2 2 
2 
type 1 100 int
1 1 1 1 1 1 1 1 1 
1 1 1 1 1 1 1 1 1 
1 1 1 1 1 1 1 1 1 
1 1 1 1 1 1 1 1 1 
1 1 1 1 1 1 1 1 1 
1 1 1 1 1 1 1 1 1 
1 1 1 1 1 1 1 1 1 
1 1 1 1 1 1 1 1 1 
1 1 1 1 1 1 1 1 1 
1 1 1 1 1 1 1 1 1 
1 1 1 1 1 1 1 1 1 
1 
v 3 100 double
-0.017826867498 -0.18737383057 -0.073058349308 -0.012853782268 -0.1719230473 -0.026286052076 -0.011246957895 -0.178300202 -0.0030198597727 
-0.029999341009 -0.22284931071 -0.18922182729 -0.030970012553 -0.24388617251 -0.18542672366 -0.026186019607 -0.20931544689 -0.15456660857 
-0.020633060163 -0.19290552568 -0.10173634807 -0.03380307021 -0.20338550768 -0.24743068803 -0.0086261278763 -0.16899559757 0.020795913158 
-0.0026757351417 -0.16549694894 0.087509317246 -0.037792065437 -0.2208160437 -0.28133495771 -0.029061790055 -0.20412555442 -0.1917433214 
-0.0031856510308 -0.21784326166 0.11911899649 -0.041449885272 -0.21511601829 -0.32797532349 -0.0040768779855 -0.21660332663 0.10786185207 
-0.034525344385 -0.20592728394 -0.25401019454 -0.038414448928 -0.2977515279 -0.23339880991 -0.0072408400604 -0.23989993039 0.087762440849 
-0.00078431256173 -0.087373231308 0.053484075486 -0.015192953001 -0.16041910056 -0.061748658859 -0.0034051760807 -0.056010235128 0.00050196733404 
-0.04527328853 -0.22098106615 -0.36824774028 -0.026202969636 -0.13028504495 -0.21144273051 -0.031861068747 -0.28331282541 -0.16751666234 
-0.020805498952 -0.17377667414 -0.117461185 -0.0098517147344 -0.25687369703 0.069562642586 -0.027232434683 -0.30864344613 -0.095503897707 
-0.035482134618 -0.33131414698 -0.17521598558 -0.043566905636 -0.22041846319 -0.34880040406 -0.027553801595 -0.29877544531 -0.10631956978 
-0.041247686703 -0.21658456486 -0.3245698811 -0.036847991 -0.19441421987 -0.28928711045 -0.0026233289356 -0.056520828886 0.009963598051 
-0.04036991564 -0.19480904424 -0.32997547219 -0.0063303222684 -0.1344769477 0.022747605772 -0.022992470101 -0.12769140435 -0.1759542076 
-0.036576132926 -0.20660380754 -0.27738239523 -0.041393376341 -0.24348784274 -0.30697026534 -0.027779693405 -0.18528750885 -0.19033858619 
0.0021845940671 -0.13396826851 0.12143916378 -0.019109354637 -0.12487823271 -0.13279840097 -0.035443306453 -0.1586547849 -0.29859194001 
-0.034299438537 -0.31941478582 -0.1699913265 -0.025500665478 -0.11240559086 -0.21609539979 -0.017140594665 -0.25083739013 -0.019560021516 
-0.022495303589 -0.17203545616 -0.13836791358 -0.015275829452 -0.16734866764 -0.057743044121 0.0011376956022 -0.15196321031 0.12216589774 
-0.041313990077 -0.22121086807 -0.32202331945 -0.0043650259108 -0.24508906499 0.12493911852 0.021986904317 -0.16831168013 -0.078893533676 
0.025853169927 -0.16367926811 -0.017875845752 0.031274604818 -0.17863835237 0.020340473638 0.020736746762 -0.20486951954 -0.17599165369 
0.020442672462 -0.21245559844 -0.19659568721 0.023579861534 -0.20044491119 -0.12887473717 0.027957577479 -0.1957080252 -0.060907044333 
0.011334241924 -0.17901054895 -0.24245828759 0.034066493469 -0.17823860988 0.057902563543 0.031390832879 -0.15402043586 0.076192720033 
0.015301678437 -0.20647797986 -0.25094728283 0.022002544378 -0.2011010652 -0.15104556238 0.043034662577 -0.20719342995 0.11183115253 
0.0095517693964 -0.19576902962 -0.3028580337 0.043729313941 -0.21123562679 0.11203745435 0.016661549572 -0.19833935047 -0.21512142767 
0.026928433407 -0.26701179811 -0.2317765728 0.048945587521 -0.2422961015 0.11202684075 0.015919836547 -0.077870476844 0.040976883149 
0.02771097719 -0.17200377101 -0.011837865118 0.0085205768226 -0.051940188275 0.0009863573407 0.0086604637521 -0.20414798038 -0.33305817926 
0.0019415660762 -0.10931965325 -0.2120703112 0.025744593019 -0.24282687061 -0.19396017892 0.013833440793 -0.14604640511 -0.13688054079 
0.044201807585 -0.23874165693 0.057546557696 0.036395997499 -0.27227961829 -0.11901595946 0.033121836878 -0.28900505406 -0.19894065227 
0.01116675693 -0.20765366372 -0.30786649889 0.039553968038 -0.28017167143 -0.094942070486 0.013212784324 -0.20723794032 -0.28006830344 
0.0051241521363 -0.16438031334 -0.29176167401 0.012693077684 -0.063305641073 0.030724317995 0.0049787077322 -0.17277571372 -0.31219895963 
0.030524955624 -0.15135691149 0.070694478555 0.0032930777918 -0.10486212138 -0.18447749201 0.016333141122 -0.20258900244 -0.22881393223 
0.01416761873 -0.21841751718 -0.29219401633 0.021090551367 -0.18957711778 -0.13759706242 0.030632602106 -0.13041944438 0.11831220045 
0.013684197933 -0.12717695502 -0.097201410229 0.0022771538715 -0.14153994985 -0.27876302371 0.035124890271 -0.28893350361 -0.17246655003 
0.0005181064683 -0.097899767155 -0.2055711192 0.043173469471 -0.25183420662 0.015144405802 0.023750642381 -0.18100677315 -0.083736176118 
0.017230818895 -0.14117262795 -0.081490489811 0.034234085731 -0.14959602792 0.12331100838 0.015156234033 -0.21487338024 -0.27138456845 
0.050522795969 -0.24163927632 0.13419771883 
f 3 100 double
0 0 0 0 0 0 0 0 0 
0 0 0 0 0 0 0 0 0 
0 0 0 0 0 0 0 0 0 
0 0 0 0 0 0 0 0 0 
0 0 0 0 0 0 0 0 0 
0 0 0 0 0 0 0 0 0 
0 0 0 0 0 0 -0.072607615566 -0.060205085548 0.27655473338 
0 0 0 0 0 0 0 0 0 
0 0 0 0 0 0 0 0 0 
0 0 0 0 0 0 0 0 0 
0 0 0 0 0 0 0 0 0 
0 0 0 0 0 0 0 0 0 
0 0 0 0 0 0 0 0 0 
0 0 0 0 0 0 0 0 0 
0 0 0 0 0 0 0 0 0 
0 0 0 0 0 0 0 0 0 
0 0 0 0 0 0 0 0 0 
0 0 0 0 0 0 0 0 0 
0 0 0 0 0 0 0 0 0 
0 0 0 0 0 0 0 0 0 
0 0 0 0 0 0 0 0 0 
0 0 0 0 0 0 0 0 0 
0 0 0 0 0 0 0 0 0 
0 0 0 -0.061162672158 -0.076049665689 0.28596218811 0 0 0 
0 0 0 0 0 0 0 0 0 
0 0 0 0 0 0 0 0 0 
0 0 0 0 0 0 0 0 0 
0 0 0 0 0 0 0 0 0 
0 0 0 0 0 0 0 0 0 
0 0 0 0 0 0 0 0 0 
0 0 0 0 0 0 0 0 0 
0 0 0 0 0 0 0 0 0 
0 0 0 0 0 0 0 0 0 
0 0 0 
radius 1 100 double
0.010434 0.00981478 0.00892069 0.00845937 0.00731974 0.00728422 0.00643447 0.00619172 0.00585956 
0.00577566 0.00537241 0.00522549 0.00513666 0.00473175 0.00466912 0.00444866 0.00441894 0.00400812 
0.00385622 0.00379948 0.00370243 0.00366942 0.00364039 0.00363813 0.00363644 0.00358692 0.0035797 
0.00341284 0.00337012 0.00336273 0.00332772 0.00323261 0.00320584 0.00320311 0.00318808 0.00313116 
0.00306026 0.00305632 0.00304383 0.00300958 0.00300137 0.00298994 0.0029567 0.00295111 0.00290849 
0.00284552 0.00282964 0.0028207 0.00281971 0.00281899 0.010434 0.00981478 0.00892069 0.00845937 
0.00731974 0.00728422 0.00643447 0.00619172 0.00585956 0.00577566 0.00537241 0.00522549 0.00513666 
0.00473175 0.00466912 0.00444866 0.00441894 0.00400812 0.00385622 0.00379948 0.00370243 0.00366942 
0.00364039 0.00363813 0.00363644 0.00358692 0.0035797 0.00341284 0.00337012 0.00336273 0.00332772 
0.00323261 0.00320584 0.00320311 0.00318808 0.00313116 0.00306026 0.00305632 0.00304383 0.00300958 
0.00300137 0.00298994 0.0029567 0.00295111 0.00290849 0.00284552 0.00282964 0.0028207 0.00281971 
0.00281899 
omega 3 100 double
15.289216423 -0.94256369055 -1.3142657665 15.289216423 -0.94256369055 -1.3142657665 15.289216423 -0.94256369055 -1.3142657665 
15.289216423 -0.94256369055 -1.3142657665 15.289216423 -0.94256369055 -1.3142657665 15.289216423 -0.94256369055 -1.3142657665 
15.289216423 -0.94256369055 -1.3142657665 15.289216423 -0.94256369055 -1.3142657665 15.289216423 -0.94256369055 -1.3142657665 
15.289216423 -0.94256369055 -1.3142657665 15.289216423 -0.94256369055 -1.3142657665 15.289216423 -0.94256369055 -1.3142657665 
15.289216423 -0.94256369055 -1.3142657665 15.289216423 -0.94256369055 -1.3142657665 15.289216423 -0.94256369055 -1.3142657665 
15.289216423 -0.94256369055 -1.3142657665 15.289216423 -0.94256369055 -1.3142657665 15.289216423 -0.94256369055 -1.3142657665 
15.289216423 -0.94256369055 -1.3142657665 15.289216423 -0.94256369055 -1.3142657665 15.289216423 -0.94256369055 -1.3142657665 
15.289216423 -0.94256369055 -1.3142657665 15.289216423 -0.94256369055 -1.3142657665 15.289216423 -0.94256369055 -1.3142657665 
15.289216423 -0.94256369055 -1.3142657665 15.289216423 -0.94256369055 -1.3142657665 15.289216423 -0.94256369055 -1.3142657665 
15.289216423 -0.94256369055 -1.3142657665 15.289216423 -0.94256369055 -1.3142657665 15.289216423 -0.94256369055 -1.3142657665 
15.289216423 -0.94256369055 -1.3142657665 15.289216423 -0.94256369055 -1.3142657665 15.289216423 -0.94256369055 -1.3142657665 
15.289216423 -0.94256369055 -1.3142657665 15.289216423 -0.94256369055 -1.3142657665 15.289216423 -0.94256369055 -1.3142657665 
15.289216423 -0.94256369055 -1.3142657665 15.289216423 -0.94256369055 -1.3142657665 15.289216423 -0.94256369055 -1.3142657665 
15.289216423 -0.94256369055 -1.3142657665 15.289216423 -0.94256369055 -1.3142657665 15.289216423 -0.94256369055 -1.3142657665 
15.289216423 -0.94256369055 -1.3142657665 15.289216423 -0.94256369055 -1.3142657665 15.289216423 -0.94256369055 -1.3142657665 
15.289216423 -0.94256369055 -1.3142657665 15.289216423 -0.94256369055 -1.3142657665 15.289216423 -0.94256369055 -1.3142657665 
15.289216423 -0.94256369055 -1.3142657665 15.289216423 -0.94256369055 -1.3142657665 14.11312109 2.3705143817 -1.0742175958 
14.11312109 2.3705143817 -1.0742175958 14.11312109 2.3705143817 -1.0742175958 14.11312109 2.3705143817 -1.0742175958 
14.11312109 2.3705143817 -1.0742175958 14.11312109 2.3705143817 -1.0742175958 14.11312109 2.3705143817 -1.0742175958 
14.11312109 2.3705143817 -1.0742175958 14.11312109 2.3705143817 -1.0742175958 14.11312109 2.3705143817 -1.0742175958 
14.11312109 2.3705143817 -1.0742175958 14.11312109 2.3705143817 -1.0742175958 14.11312109 2.3705143817 -1.0742175958 
14.11312109 2.3705143817 -1.0742175958 14.11312109 2.3705143817 -1.0742175958 14.11312109 2.3705143817 -1.0742175958 
14.11312109 2.3705143817 -1.0742175958 14.11312109 2.3705143817 -1.0742175958 14.11312109 2.3705143817 -1.0742175958 
14.11312109 2.3705143817 -1.0742175958 14.11312109 2.3705143817 -1.0742175958 14.11312109 2.3705143817 -1.0742175958 
14.11312109 2.3705143817 -1.0742175958 14.11312109 2.3705143817 -1.0742175958 14.11312109 2.3705143817 -1.0742175958 
14.11312109 2.3705143817 -1.0742175958 14.11312109 2.3705143817 -1.0742175958 14.11312109 2.3705143817 -1.0742175958 
14.11312109 2.3705143817 -1.0742175958 14.11312109 2.3705143817 -1.0742175958 14.11312109 2.3705143817 -1.0742175958 
14.11312109 2.3705143817 -1.0742175958 14.11312109 2.3705143817 -1.0742175958 14.11312109 2.3705143817 -1.0742175958 
14.11312109 2.3705143817 -1.0742175958 14.11312109 2.3705143817 -1.0742175958 14.11312109 2.3705143817 -1.0742175958 
14.11312109 2.3705143817 -1.0742175958 14.11312109 2.3705143817 -1.0742175958 14.11312109 2.3705143817 -1.0742175958 
14.11312109 2.3705143817 -1.0742175958 14.11312109 2.3705143817 -1.0742175958 14.11312109 2.3705143817 -1.0742175958 
14.11312109 2.3705143817 -1.0742175958 14.11312109 2.3705143817 -1.0742175958 14.11312109 2.3705143817 -1.0742175958 
14.11312109 2.3705143817 -1.0742175958 14.11312109 2.3705143817 -1.0742175958 14.11312109 2.3705143817 -1.0742175958 
14.11312109 2.3705143817 -1.0742175958 
