# vtk DataFile Version 4.1
Generated by LIGGGHTS
ASCII
DATASET POLYDATA
POINTS 100 float
-0.10789 -0.128712 0.013888 -0.118169 -0.129569 0.0156013 -0.127592 -0.129569 0.0190278 
-0.11046 -0.129569 0.0241676 -0.0984668 -0.126999 0.0181712 -0.119026 -0.130426 0.0258809 
-0.130162 -0.131282 0.0275941 -0.101893 -0.131282 0.023311 -0.136158 -0.130426 0.0215976 
-0.115599 -0.126999 0.00617839 -0.11303 -0.132139 0.0318772 -0.124166 -0.132139 0.0310206 
-0.120739 -0.123573 0.00789165 -0.107033 -0.132995 0.0318772 -0.125879 -0.124429 0.0113181 
-0.119026 -0.132995 0.0327339 -0.10275 -0.125286 0.0250241 -0.135302 -0.124429 0.0181712 
-0.111316 -0.132139 0.00446514 -0.137015 -0.132995 0.0275941 -0.113886 -0.135565 0.00874825 
-0.109603 -0.133852 0.0361603 -0.10018 -0.134709 0.0181712 -0.0924704 -0.123573 0.0147446 
-0.0976102 -0.129569 0.0113181 -0.115599 -0.121859 0.00960495 -0.0993234 -0.121003 0.013888 
-0.0941837 -0.121003 0.0173145 -0.113886 -0.133852 0.037017 -0.116456 -0.123573 0.023311 
-0.117313 -0.133852 0.037017 -0.0950403 -0.132139 0.0224543 -0.125022 -0.136422 0.013888 
-0.10275 -0.133852 0.0293074 -0.141298 -0.132995 0.023311 -0.0984668 -0.133852 0.0147446 
-0.122452 -0.133852 0.0361603 -0.103607 -0.130426 0.0293074 -0.130162 -0.133852 0.0335905 
-0.121596 -0.128712 0.00617839 -0.124166 -0.135565 0.0250241 -0.10532 -0.135565 0.0275941 
-0.10532 -0.122716 0.0224543 -0.10532 -0.136422 0.020741 -0.133589 -0.126142 0.0250241 
-0.134445 -0.133852 0.0318772 -0.0993234 -0.128712 0.00789165 -0.124166 -0.127856 0.00789165 
-0.120739 -0.133852 0.0387302 -0.130162 -0.122716 0.0130315 -0.0389585 -0.100808 0.0135603 
-0.0492794 -0.101682 0.0149928 -0.0587891 -0.101719 0.0181705 -0.0417975 -0.101782 0.0237582 
-0.0296515 -0.0991463 0.0181089 -0.0504058 -0.102656 0.0252359 -0.0615831 -0.10353 0.0266459 
-0.0332116 -0.103487 0.0231073 -0.0674199 -0.102603 0.0205043 -0.046463 -0.0990044 0.00567091 
-0.044569 -0.10444 0.0313676 -0.0556787 -0.104427 0.0302187 -0.0516463 -0.0955965 0.00728782 
-0.0385746 -0.105298 0.0315153 -0.0568743 -0.0964912 0.010568 -0.0505856 -0.105305 0.0320565 
-0.0341133 -0.0975109 0.0248662 -0.0664739 -0.0965678 0.0171706 -0.042136 -0.104125 0.00401181 
-0.0684336 -0.105241 0.0264462 -0.0448174 -0.1076 0.00818626 -0.041256 -0.106203 0.0357193 
-0.0313636 -0.106855 0.0179752 -0.0235674 -0.095682 0.0148807 -0.028615 -0.101637 0.0112516 
-0.0465534 -0.0939043 0.00915514 -0.0303957 -0.0931008 0.0138739 -0.0253478 -0.0931414 0.0174341 
-0.0455602 -0.106212 0.036463 -0.0477698 -0.0957748 0.0228133 -0.0489855 -0.106211 0.036373 
-0.0263384 -0.104336 0.0224212 -0.0560846 -0.108513 0.0130215 -0.0342253 -0.106126 0.0290492 
-0.0726027 -0.105191 0.0220523 -0.029561 -0.105959 0.014605 -0.054101 -0.1062 0.0353817 
-0.0350819 -0.102699 0.0290661 -0.0617404 -0.106169 0.0326103 -0.0524572 -0.100716 0.00549367 
-0.0555209 -0.107785 0.0241854 -0.0367492 -0.107819 0.0272494 -0.036615 -0.094911 0.0222595 
-0.0365691 -0.108596 0.0203893 -0.0649412 -0.0983601 0.0240461 -0.0659771 -0.106148 0.0307853 
-0.0302376 -0.100741 0.00779139 -0.0550713 -0.0998785 0.00714856 -0.0524558 -0.10623 0.0379956 
-0.061201 -0.0947968 0.0121878 
VERTICES 100 200
1 0 
1 1 
1 2 
1 3 
1 4 
1 5 
1 6 
1 7 
1 8 
1 9 
1 10 
1 11 
1 12 
1 13 
1 14 
1 15 
1 16 
1 17 
1 18 
1 19 
1 20 
1 21 
1 22 
1 23 
1 24 
1 25 
1 26 
1 27 
1 28 
1 29 
1 30 
1 31 
1 32 
1 33 
1 34 
1 35 
1 36 
1 37 
1 38 
1 39 
1 40 
1 41 
1 42 
1 43 
1 44 
1 45 
1 46 
1 47 
1 48 
1 49 
1 50 
1 51 
1 52 
1 53 
1 54 
1 55 
1 56 
1 57 
1 58 
1 59 
1 60 
1 61 
1 62 
1 63 
1 64 
1 65 
1 66 
1 67 
1 68 
1 69 
1 70 
1 71 
1 72 
1 73 
1 74 
1 75 
1 76 
1 77 
1 78 
1 79 
1 80 
1 81 
1 82 
1 83 
1 84 
1 85 
1 86 
1 87 
1 88 
1 89 
1 90 
1 91 
1 92 
1 93 
1 94 
1 95 
1 96 
1 97 
1 98 
1 99 

POINT_DATA 100
FIELD FieldData 7
id 1 100 int
1 2 3 4 5 6 7 8 9 
10 11 12 13 14 15 16 17 18 
19 20 21 22 23 24 25 26 27 
28 29 30 31 32 33 34 35 36 
37 38 39 40 41 42 43 44 45 
46 47 48 49 50 51 52 53 54 
55 56 57 58 59 60 61 62 63 
64 65 66 67 68 69 70 71 72 
73 74 75 76 77 78 79 80 81 
82 83 84 85 86 87 88 89 90 
91 92 93 94 95 96 97 98 99 
100 
mol 1 100 int
1 1 1 1 1 1 1 1 1 
1 1 1 1 1 1 1 1 1 
1 1 1 1 1 1 1 1 1 
1 1 1 1 1 1 1 1 1 
1 1 1 1 1 1 1 1 1 
1 1 1 1 1 2 2 2 2 
2 2 2 2 2 2 2 2 2 
2 2 2 2 2 2 2 2 2 
2 2 2 2 2 2 2 2 2 
2 2 2 2 2 2 2 2 2 
2 2 2 2 2 2 2 2 2 
2 
type 1 100 int
1 1 1 1 1 1 1 1 1 
1 1 1 1 1 1 1 1 1 
1 1 1 1 1 1 1 1 1 
1 1 1 1 1 1 1 1 1 
1 1 1 1 1 1 1 1 1 
1 1 1 1 1 1 1 1 1 
1 1 1 1 1 1 1 1 1 
1 1 1 1 1 1 1 1 1 
1 1 1 1 1 1 1 1 1 
1 1 1 1 1 1 1 1 1 
1 1 1 1 1 1 1 1 1 
1 
v 3 100 double
0 0 -2.49107095 0 0 -2.49107095 0 0 -2.49107095 
0 0 -2.49107095 0 0 -2.49107095 0 0 -2.49107095 
0 0 -2.49107095 0 0 -2.49107095 0 0 -2.49107095 
0 0 -2.49107095 0 0 -2.49107095 0 0 -2.49107095 
0 0 -2.49107095 0 0 -2.49107095 0 0 -2.49107095 
0 0 -2.49107095 0 0 -2.49107095 0 0 -2.49107095 
0 0 -2.49107095 0 0 -2.49107095 0 0 -2.49107095 
0 0 -2.49107095 0 0 -2.49107095 0 0 -2.49107095 
0 0 -2.49107095 0 0 -2.49107095 0 0 -2.49107095 
0 0 -2.49107095 0 0 -2.49107095 0 0 -2.49107095 
0 0 -2.49107095 0 0 -2.49107095 0 0 -2.49107095 
0 0 -2.49107095 0 0 -2.49107095 0 0 -2.49107095 
0 0 -2.49107095 0 0 -2.49107095 0 0 -2.49107095 
0 0 -2.49107095 0 0 -2.49107095 0 0 -2.49107095 
0 0 -2.49107095 0 0 -2.49107095 0 0 -2.49107095 
0 0 -2.49107095 0 0 -2.49107095 0 0 -2.49107095 
0 0 -2.49107095 0 0 -2.49107095 -0.097782063021 -0.056723680066 0.45449931064 
-0.10749188676 -0.059988765704 0.38255397424 -0.12893474575 -0.067897666546 0.31828946096 -0.16664093857 -0.083484227658 0.43277332362 
-0.12839097499 -0.069186362351 0.52168190196 -0.17665518415 -0.086953621734 0.37238328522 -0.1862131237 -0.090116677157 0.29465979397 
-0.16233406268 -0.082194837971 0.48620841207 -0.1447263213 -0.073624435708 0.25772100518 -0.044458864632 -0.035537921075 0.40862074232 
-0.21811818985 -0.10341987929 0.40706223587 -0.21036519222 -0.09983570845 0.33213219074 -0.055199206287 -0.039545144891 0.3826364466 
-0.21915750169 -0.10410804926 0.44524595155 -0.077376954998 -0.047937906968 0.34500032464 -0.22280935418 -0.10493742362 0.3641828485 
-0.17390470372 -0.086789932158 0.49589001922 -0.12193190118 -0.064877408839 0.28002468918 -0.03351914505 -0.031376747348 0.42430844524 
-0.18495060021 -0.089248567568 0.24392082236 -0.061859251834 -0.042255327277 0.39704946394 -0.24756890152 -0.11506453489 0.42476539293 
-0.12787321543 -0.06874856714 0.48979386097 -0.10643643494 -0.060973538112 0.57187319771 -0.082245984471 -0.051148736969 0.5221041949 
-0.067714712407 -0.044724781719 0.42146498237 -0.099514799606 -0.057977648948 0.53260847965 -0.12353876579 -0.067620624419 0.5665620582 
-0.25258755982 -0.11681207497 0.39569933841 -0.15996629181 -0.080694248601 0.40832293137 -0.25198008072 -0.1164039947 0.37258916437 
-0.15774721967 -0.080727375978 0.53034736015 -0.094530640055 -0.054449519184 0.31861528111 -0.20255834691 -0.097818973405 0.47240843159 
-0.15530047181 -0.077449955061 0.21592218005 -0.10508797073 -0.059947713789 0.50431921356 -0.24529083274 -0.11353421897 0.33810139721 
-0.20250158762 -0.097820838026 0.47566738589 -0.22658927327 -0.10584282968 0.28663718838 -0.043348208637 -0.034771829442 0.36365914863 
-0.1698225761 -0.083927742163 0.32434004652 -0.19049845593 -0.092945401275 0.45091282683 -0.15618637189 -0.079788841631 0.48586851237 
-0.1442491621 -0.074857705765 0.45007625989 -0.16841359394 -0.083091225211 0.28563860001 -0.2142738879 -0.10081743359 0.25810530171 
-0.058853277288 -0.041939814041 0.51351994241 -0.054472823497 -0.039007198726 0.34823011689 -0.26292931709 -0.12051147671 0.3491233073 
-0.088221886392 -0.051995317033 0.32027544945 
f 3 100 double
0 0 0 0 0 0 0 0 0 
0 0 0 0 0 0 0 0 0 
0 0 0 0 0 0 0 0 0 
0 0 0 0 0 0 0 0 0 
0 0 0 0 0 0 0 0 0 
0 0 0 0 0 0 0 0 0 
0 0 0 0 0 0 0 0 0 
0 0 0 0 0 0 0 0 0 
0 0 0 0 0 0 0 0 0 
0 0 0 0 0 0 0 0 0 
0 0 0 0 0 0 0 0 0 
0 0 0 0 0 0 0 0 0 
0 0 0 0 0 0 0 0 0 
0 0 0 0 0 0 0 0 0 
0 0 0 0 0 0 0 0 0 
0 0 0 0 0 0 0 0 0 
0 0 0 0 0 0 0 0 0 
0 0 0 0 0 0 0 0 0 
0 0 0 0 0 0 0 0 0 
0 0 0 0 0 0 0.28380912908 0.19810510532 -4.9828965079 
0 0 0 0 0 0 0 0 0 
0 0 0 0 0 0 0 0 0 
0 0 0 0 0 0 0 0 0 
0 0 0 0 0 0 0 0 0 
0 0 0 0 0 0 0 0 0 
0 0 0 0 0 0 0 0 0 
0 0 0 0 0 0 0 0 0 
0 0 0 0 0 0 0 0 0 
0 0 0 0 0 0 0 0 0 
0 0 0 0 0 0 0 0 0 
0 0 0 0 0 0 0 0 0 
0 0 0 0 0 0 0 0 0 
0 0 0 0 0 0 0 0 0 
0 0 0 
radius 1 100 double
0.010434 0.00981478 0.00892069 0.00845937 0.00731974 0.00728422 0.00643447 0.00619172 0.00585956 
0.00577566 0.00537241 0.00522549 0.00513666 0.00473175 0.00466912 0.00444866 0.00441894 0.00400812 
0.00385622 0.00379948 0.00370243 0.00366942 0.00364039 0.00363813 0.00363644 0.00358692 0.0035797 
0.00341284 0.00337012 0.00336273 0.00332772 0.00323261 0.00320584 0.00320311 0.00318808 0.00313116 
0.00306026 0.00305632 0.00304383 0.00300958 0.00300137 0.00298994 0.0029567 0.00295111 0.00290849 
0.00284552 0.00282964 0.0028207 0.00281971 0.00281899 0.010434 0.00981478 0.00892069 0.00845937 
0.00731974 0.00728422 0.00643447 0.00619172 0.00585956 0.00577566 0.00537241 0.00522549 0.00513666 
0.00473175 0.00466912 0.00444866 0.00441894 0.00400812 0.00385622 0.00379948 0.00370243 0.00366942 
0.00364039 0.00363813 0.00363644 0.00358692 0.0035797 0.00341284 0.00337012 0.00336273 0.00332772 
0.00323261 0.00320584 0.00320311 0.00318808 0.00313116 0.00306026 0.00305632 0.00304383 0.00300958 
0.00300137 0.00298994 0.0029567 0.00295111 0.00290849 0.00284552 0.00282964 0.0028207 0.00281971 
0.00281899 
omega 3 100 double
0 0 0 0 0 0 0 0 0 
0 0 0 0 0 0 0 0 0 
0 0 0 0 0 0 0 0 0 
0 0 0 0 0 0 0 0 0 
0 0 0 0 0 0 0 0 0 
0 0 0 0 0 0 0 0 0 
0 0 0 0 0 0 0 0 0 
0 0 0 0 0 0 0 0 0 
0 0 0 0 0 0 0 0 0 
0 0 0 0 0 0 0 0 0 
0 0 0 0 0 0 0 0 0 
0 0 0 0 0 0 0 0 0 
0 0 0 0 0 0 0 0 0 
0 0 0 0 0 0 0 0 0 
0 0 0 0 0 0 0 0 0 
0 0 0 0 0 0 0 0 0 
0 0 0 0 0 0 2.6379870052 -6.7474986597 -0.049804866707 
2.6379870052 -6.7474986597 -0.049804866707 2.6379870052 -6.7474986597 -0.049804866707 2.6379870052 -6.7474986597 -0.049804866707 
2.6379870052 -6.7474986597 -0.049804866707 2.6379870052 -6.7474986597 -0.049804866707 2.6379870052 -6.7474986597 -0.049804866707 
2.6379870052 -6.7474986597 -0.049804866707 2.6379870052 -6.7474986597 -0.049804866707 2.6379870052 -6.7474986597 -0.049804866707 
2.6379870052 -6.7474986597 -0.049804866707 2.6379870052 -6.7474986597 -0.049804866707 2.6379870052 -6.7474986597 -0.049804866707 
2.6379870052 -6.7474986597 -0.049804866707 2.6379870052 -6.7474986597 -0.049804866707 2.6379870052 -6.7474986597 -0.049804866707 
2.6379870052 -6.7474986597 -0.049804866707 2.6379870052 -6.7474986597 -0.049804866707 2.6379870052 -6.7474986597 -0.049804866707 
2.6379870052 -6.7474986597 -0.049804866707 2.6379870052 -6.7474986597 -0.049804866707 2.6379870052 -6.7474986597 -0.049804866707 
2.6379870052 -6.7474986597 -0.049804866707 2.6379870052 -6.7474986597 -0.049804866707 2.6379870052 -6.7474986597 -0.049804866707 
2.6379870052 -6.7474986597 -0.049804866707 2.6379870052 -6.7474986597 -0.049804866707 2.6379870052 -6.7474986597 -0.049804866707 
2.6379870052 -6.7474986597 -0.049804866707 2.6379870052 -6.7474986597 -0.049804866707 2.6379870052 -6.7474986597 -0.049804866707 
2.6379870052 -6.7474986597 -0.049804866707 2.6379870052 -6.7474986597 -0.049804866707 2.6379870052 -6.7474986597 -0.049804866707 
2.6379870052 -6.7474986597 -0.049804866707 2.6379870052 -6.7474986597 -0.049804866707 2.6379870052 -6.7474986597 -0.049804866707 
2.6379870052 -6.7474986597 -0.049804866707 2.6379870052 -6.7474986597 -0.049804866707 2.6379870052 -6.7474986597 -0.049804866707 
2.6379870052 -6.7474986597 -0.049804866707 2.6379870052 -6.7474986597 -0.049804866707 2.6379870052 -6.7474986597 -0.049804866707 
2.6379870052 -6.7474986597 -0.049804866707 2.6379870052 -6.7474986597 -0.049804866707 2.6379870052 -6.7474986597 -0.049804866707 
2.6379870052 -6.7474986597 -0.049804866707 2.6379870052 -6.7474986597 -0.049804866707 2.6379870052 -6.7474986597 -0.049804866707 
2.6379870052 -6.7474986597 -0.049804866707 
