# vtk DataFile Version 4.1
Generated by LIGGGHTS
ASCII
DATASET POLYDATA
POINTS 100 float
-0.116874 -0.147867 0.0130708 -0.126755 -0.144721 0.0117299 -0.13654 -0.142588 0.0122238 
-0.124016 -0.153927 0.0180977 -0.11037 -0.154042 0.018516 -0.132407 -0.151578 0.0170382 
-0.143033 -0.148033 0.0155566 -0.116457 -0.158366 0.0176467 -0.145327 -0.1408 0.0116743 
-0.11972 -0.138204 0.00856038 -0.130257 -0.159319 0.0202469 -0.139549 -0.153579 0.0179084 
-0.124405 -0.134903 0.0114313 -0.125186 -0.162617 0.0205578 -0.130609 -0.135271 0.0119547 
-0.136016 -0.157602 0.019099 -0.116981 -0.15553 0.0232416 -0.141981 -0.135387 0.0144893 
-0.11607 -0.142126 0.00420163 -0.149285 -0.145864 0.0130844 -0.120869 -0.145778 0.00363636 
-0.12955 -0.164742 0.0220133 -0.113165 -0.157826 0.0121724 -0.102987 -0.152545 0.020154 
-0.106886 -0.151469 0.0125542 -0.120438 -0.137399 0.0146428 -0.108117 -0.147269 0.0205395 
-0.105233 -0.151908 0.0234241 -0.133673 -0.163312 0.0218203 -0.127821 -0.147014 0.0213182 
-0.136654 -0.161719 0.0212577 -0.110243 -0.1615 0.0175881 -0.133083 -0.144482 0.00419571 
-0.120414 -0.163431 0.0190568 -0.151027 -0.141062 0.00983016 -0.109943 -0.155865 0.0110865 
-0.140729 -0.158767 0.0199037 -0.12058 -0.160996 0.0216105 -0.146245 -0.153495 0.0171073 
-0.125227 -0.136434 0.00622869 -0.137351 -0.15168 0.0116426 -0.122146 -0.162129 0.0162672 
-0.117591 -0.151121 0.0233099 -0.119117 -0.158141 0.011512 -0.143954 -0.141699 0.017505 
-0.149178 -0.150379 0.0153837 -0.106644 -0.147915 0.0109057 -0.128111 -0.135855 0.00750083 
-0.140429 -0.16125 0.0217156 -0.134839 -0.133386 0.0136191 -0.0474725 -0.118327 0.0128794 
-0.0576052 -0.11598 0.0118028 -0.0675303 -0.114738 0.0124982 -0.0539982 -0.125262 0.0176036 
-0.0403895 -0.124213 0.0179049 -0.0625737 -0.123595 0.0167496 -0.0734851 -0.120909 0.0155617 
-0.0460903 -0.128994 0.0168351 -0.0764458 -0.113693 0.012124 -0.0512012 -0.108706 0.00896018 
-0.0597222 -0.13129 0.0194865 -0.0695041 -0.126256 0.0175596 -0.0561162 -0.105994 0.0120553 
-0.054381 -0.134146 0.0195648 -0.0622574 -0.106929 0.0126064 -0.0656217 -0.130018 0.0184865 
-0.0467846 -0.126537 0.0225891 -0.0735426 -0.108179 0.0152213 -0.0472832 -0.11204 0.0043521 
-0.0799324 -0.119154 0.0132697 -0.0517562 -0.116057 0.00361452 -0.0585263 -0.136723 0.0209296 
-0.0429296 -0.127857 0.0113751 -0.0331421 -0.122176 0.0195675 -0.0372181 -0.121011 0.0120745 
-0.0519062 -0.108315 0.0150846 -0.0387034 -0.117397 0.0202996 -0.035392 -0.121924 0.0228871 
-0.0627595 -0.135649 0.020853 -0.0583441 -0.118901 0.0212501 -0.0658739 -0.134291 0.0204078 
-0.0396306 -0.131567 0.0165449 -0.0640277 -0.115863 0.00434626 -0.0495769 -0.134455 0.0179808 
-0.0821253 -0.114344 0.0103136 -0.039903 -0.125565 0.0103789 -0.0702057 -0.131632 0.0192601 
-0.0499188 -0.132194 0.0206726 -0.076193 -0.126709 0.0168186 -0.0568699 -0.107291 0.00677944 
-0.0675606 -0.123818 0.0113971 -0.0514511 -0.133152 0.0152854 -0.0477727 -0.12221 0.022918 
-0.0488399 -0.12865 0.0107454 -0.0749241 -0.1148 0.0178815 -0.079406 -0.123767 0.0153023 
-0.0373059 -0.117361 0.0106331 -0.0597767 -0.107039 0.0081062 -0.0696685 -0.134179 0.0209224 
-0.0666122 -0.105517 0.0144112 
VERTICES 100 200
1 0 
1 1 
1 2 
1 3 
1 4 
1 5 
1 6 
1 7 
1 8 
1 9 
1 10 
1 11 
1 12 
1 13 
1 14 
1 15 
1 16 
1 17 
1 18 
1 19 
1 20 
1 21 
1 22 
1 23 
1 24 
1 25 
1 26 
1 27 
1 28 
1 29 
1 30 
1 31 
1 32 
1 33 
1 34 
1 35 
1 36 
1 37 
1 38 
1 39 
1 40 
1 41 
1 42 
1 43 
1 44 
1 45 
1 46 
1 47 
1 48 
1 49 
1 50 
1 51 
1 52 
1 53 
1 54 
1 55 
1 56 
1 57 
1 58 
1 59 
1 60 
1 61 
1 62 
1 63 
1 64 
1 65 
1 66 
1 67 
1 68 
1 69 
1 70 
1 71 
1 72 
1 73 
1 74 
1 75 
1 76 
1 77 
1 78 
1 79 
1 80 
1 81 
1 82 
1 83 
1 84 
1 85 
1 86 
1 87 
1 88 
1 89 
1 90 
1 91 
1 92 
1 93 
1 94 
1 95 
1 96 
1 97 
1 98 
1 99 

POINT_DATA 100
FIELD FieldData 7
id 1 100 int
1 2 3 4 5 6 7 8 9 
10 11 12 13 14 15 16 17 18 
19 20 21 22 23 24 25 26 27 
28 29 30 31 32 33 34 35 36 
37 38 39 40 41 42 43 44 45 
46 47 48 49 50 51 52 53 54 
55 56 57 58 59 60 61 62 63 
64 65 66 67 68 69 70 71 72 
73 74 75 76 77 78 79 80 81 
82 83 84 85 86 87 88 89 90 
91 92 93 94 95 96 97 98 99 
100 
mol 1 100 int
1 1 1 1 1 1 1 1 1 
1 1 1 1 1 1 1 1 1 
1 1 1 1 1 1 1 1 1 
1 1 1 1 1 1 1 1 1 
1 1 1 1 1 1 1 1 1 
1 1 1 1 1 2 2 2 2 
2 2 2 2 2 2 2 2 2 
2 2 2 2 2 2 2 2 2 
2 2 2 2 2 2 2 2 2 
2 2 2 2 2 2 2 2 2 
2 2 2 2 2 2 2 2 2 
2 
type 1 100 int
1 1 1 1 1 1 1 1 1 
1 1 1 1 1 1 1 1 1 
1 1 1 1 1 1 1 1 1 
1 1 1 1 1 1 1 1 1 
1 1 1 1 1 1 1 1 1 
1 1 1 1 1 1 1 1 1 
1 1 1 1 1 1 1 1 1 
1 1 1 1 1 1 1 1 1 
1 1 1 1 1 1 1 1 1 
1 1 1 1 1 1 1 1 1 
1 1 1 1 1 1 1 1 1 
1 
v 3 100 double
0.017374560975 -0.15954426221 -0.030038002623 0.018795555039 -0.13264837315 0.022604408666 0.021936403394 -0.12761007511 0.063078102127 
0.018432564722 -0.21118782199 -0.090795600934 0.01895504332 -0.23133738508 -0.11333314838 0.019403349352 -0.18928612778 -0.049912614185 
0.021049358035 -0.1598927522 0.0086090925795 0.012790713737 -0.21425681839 -0.15515613476 0.023073449936 -0.11131402111 0.097913753196 
0.021128770132 -0.10290547991 0.088931666423 0.015766860866 -0.22971795801 -0.14502575437 0.018526489897 -0.19165128182 -0.062548884298 
0.029261450076 -0.13172426032 0.13534510357 0.012578923798 -0.23904950974 -0.19198845503 0.029664551973 -0.13102322406 0.1406154531 
0.015896151225 -0.20969978757 -0.11573072961 0.02463525317 -0.27999968267 -0.12071082477 0.033470423144 -0.14841124173 0.15689430276 
0.0099962851084 -0.055296096478 0.036779327463 0.019625065655 -0.12362422177 0.044023383568 0.0050530746222 -0.043252027019 0.00093598851161 
0.012472983439 -0.25144577208 -0.21040498232 0.0048932379247 -0.15302324829 -0.15385780523 0.023164213773 -0.25897553195 -0.10705481534 
0.012562562303 -0.16454023325 -0.088248835913 0.03146850386 -0.17421334736 0.099591024691 0.029635853738 -0.25783417087 -0.036546176849 
0.028950495743 -0.29524223291 -0.096015489751 0.013764611851 -0.24456767305 -0.18705786705 0.031128840799 -0.24512992475 -0.0029293860782 
0.014664892676 -0.23458012306 -0.16354165903 0.0092114741789 -0.22047872278 -0.20194898856 0.0073641265475 -0.036286480226 0.035260958815 
0.0093423215727 -0.22656710649 -0.20904671028 0.019919112846 -0.083106300701 0.10366275004 0.0053904995966 -0.14373672838 -0.13561105699 
0.015849069377 -0.21399209526 -0.12221834438 0.016017148881 -0.25665683979 -0.17993055113 0.017375902234 -0.17469985493 -0.051160363367 
0.019479314743 -0.069133346889 0.11846660065 0.010912909961 -0.11981723391 -0.043443448128 0.0064601447156 -0.19156923033 -0.19092961992 
0.029649033322 -0.28012957208 -0.067499955762 0.0035176054461 -0.13856873113 -0.14834809691 0.031125424289 -0.18196499294 0.085126772054 
0.018168731348 -0.15100237617 -0.0096679559707 0.013960003234 -0.14526607443 -0.046486837225 0.022099629742 -0.081003517711 0.12981582537 
0.01589770826 -0.23580634172 -0.15212347609 0.034347196366 -0.14604552473 0.16953043969 0.0553888845 -0.1341453031 -0.045701290953 
0.05228104788 -0.11673603253 0.021493488827 0.056011009491 -0.11769089263 0.076438373582 0.071125909426 -0.17868277168 -0.089349978324 
0.073061545342 -0.1902851476 -0.13636495449 0.068539789567 -0.16453740379 -0.035756742511 0.06517094608 -0.14549585259 0.038238602663 
0.065529792893 -0.17571529662 -0.16134716921 0.055074350889 -0.10827069672 0.12506887191 0.044748694718 -0.091484673185 0.069137155651 
0.075359015389 -0.19448264645 -0.12706576178 0.070318346252 -0.16854287544 -0.033699019848 0.059592615953 -0.12026504925 0.11792817958 
0.073907459733 -0.19862545214 -0.17914673131 0.061349266888 -0.12209872738 0.13439358647 0.071905522292 -0.18050627286 -0.088908651041 
0.091509764017 -0.23449361402 -0.13311894777 0.071677962618 -0.1419572251 0.16948210731 0.023089140206 -0.046512673099 0.018187762517 
0.056529569852 -0.11788186331 0.083681213699 0.017445775049 -0.036128092412 -0.0041503108793 0.078096208179 -0.21008040205 -0.1880470426 
0.043043514823 -0.12150329139 -0.16308059161 0.081397896719 -0.21192278492 -0.14619173953 0.050292392914 -0.1322691532 -0.11689007498 
0.0710120857 -0.15406826686 0.076157307847 0.087493746454 -0.21598207239 -0.073387672003 0.09565763476 -0.24467689631 -0.13404505548 
0.078441711621 -0.20664716514 -0.15900958272 0.090591988661 -0.21349286142 -0.0054279813519 0.077398387646 -0.20011997382 -0.13180886597 
0.062689417632 -0.17676404239 -0.21526403574 0.020676072166 -0.035991415579 0.04998695569 0.066985020991 -0.18532652036 -0.20273506557 
0.046976811502 -0.086092818288 0.14250296542 0.040243624241 -0.11314248638 -0.15234433104 0.074183705213 -0.18560319646 -0.086043362485 
0.079833649797 -0.21281380169 -0.17801627624 0.066886997559 -0.15673882654 -0.0099492744266 0.036367956667 -0.065502047305 0.10777936573 
0.045660709724 -0.10634128418 -0.016867655516 0.056348243132 -0.15641916878 -0.18136466839 0.095610398617 -0.23726005279 -0.084387514843 
0.03987302777 -0.11133107768 -0.14613077462 0.078842552349 -0.16846912978 0.10720893694 0.062283487711 -0.13912809477 0.033979485936 
0.04644905577 -0.11738100744 -0.078954100657 0.042162582153 -0.077339149071 0.12273157398 0.079654618748 -0.20304512443 -0.1145367916 
0.069899205503 -0.1379512714 0.16742436134 
f 3 100 double
0 0 0 0 0 0 0 0 0 
0 0 0 0 0 0 0 0 0 
0 0 0 0 0 0 0 0 0 
0 0 0 0 0 0 0 0 0 
0 0 0 0 0 0 0 0 0 
0 0 0 0 0 0 0 0 0 
0 0 0 0 0 0 -0.048848719134 -0.028649167745 0.26267397787 
0 0 0 0 0 0 0 0 0 
0 0 0 0 0 0 0 0 0 
0 0 0 0 0 0 0 0 0 
0 0 0 0 0 0 0 0 0 
0 0 0 0 0 0 0 0 0 
0 0 0 0 0 0 0 0 0 
0 0 0 0 0 0 0 0 0 
0 0 0 0 0 0 0 0 0 
0 0 0 0 0 0 0 0 0 
0 0 0 0 0 0 0 0 0 
0 0 0 0 0 0 0 0 0 
0 0 0 0 0 0 0 0 0 
0 0 0 0 0 0 0 0 0 
0 0 0 0 0 0 0 0 0 
0 0 0 0 0 0 0 0 0 
0 0 0 0 0 0 0 0 0 
0 0 0 -0.11675436192 -0.090823342306 0.46851474765 0 0 0 
0 0 0 0 0 0 0 0 0 
0 0 0 0 0 0 0 0 0 
0 0 0 0 0 0 0 0 0 
0 0 0 0 0 0 0 0 0 
0 0 0 0 0 0 0 0 0 
0 0 0 0 0 0 0 0 0 
0 0 0 0 0 0 0 0 0 
0 0 0 0 0 0 0 0 0 
0 0 0 0 0 0 0 0 0 
0 0 0 
radius 1 100 double
0.010434 0.00981478 0.00892069 0.00845937 0.00731974 0.00728422 0.00643447 0.00619172 0.00585956 
0.00577566 0.00537241 0.00522549 0.00513666 0.00473175 0.00466912 0.00444866 0.00441894 0.00400812 
0.00385622 0.00379948 0.00370243 0.00366942 0.00364039 0.00363813 0.00363644 0.00358692 0.0035797 
0.00341284 0.00337012 0.00336273 0.00332772 0.00323261 0.00320584 0.00320311 0.00318808 0.00313116 
0.00306026 0.00305632 0.00304383 0.00300958 0.00300137 0.00298994 0.0029567 0.00295111 0.00290849 
0.00284552 0.00282964 0.0028207 0.00281971 0.00281899 0.010434 0.00981478 0.00892069 0.00845937 
0.00731974 0.00728422 0.00643447 0.00619172 0.00585956 0.00577566 0.00537241 0.00522549 0.00513666 
0.00473175 0.00466912 0.00444866 0.00441894 0.00400812 0.00385622 0.00379948 0.00370243 0.00366942 
0.00364039 0.00363813 0.00363644 0.00358692 0.0035797 0.00341284 0.00337012 0.00336273 0.00332772 
0.00323261 0.00320584 0.00320311 0.00318808 0.00313116 0.00306026 0.00305632 0.00304383 0.00300958 
0.00300137 0.00298994 0.0029567 0.00295111 0.00290849 0.00284552 0.00282964 0.0028207 0.00281971 
0.00281899 
omega 3 100 double
11.854939611 1.5525707442 -1.113238696 11.854939611 1.5525707442 -1.113238696 11.854939611 1.5525707442 -1.113238696 
11.854939611 1.5525707442 -1.113238696 11.854939611 1.5525707442 -1.113238696 11.854939611 1.5525707442 -1.113238696 
11.854939611 1.5525707442 -1.113238696 11.854939611 1.5525707442 -1.113238696 11.854939611 1.5525707442 -1.113238696 
11.854939611 1.5525707442 -1.113238696 11.854939611 1.5525707442 -1.113238696 11.854939611 1.5525707442 -1.113238696 
11.854939611 1.5525707442 -1.113238696 11.854939611 1.5525707442 -1.113238696 11.854939611 1.5525707442 -1.113238696 
11.854939611 1.5525707442 -1.113238696 11.854939611 1.5525707442 -1.113238696 11.854939611 1.5525707442 -1.113238696 
11.854939611 1.5525707442 -1.113238696 11.854939611 1.5525707442 -1.113238696 11.854939611 1.5525707442 -1.113238696 
11.854939611 1.5525707442 -1.113238696 11.854939611 1.5525707442 -1.113238696 11.854939611 1.5525707442 -1.113238696 
11.854939611 1.5525707442 -1.113238696 11.854939611 1.5525707442 -1.113238696 11.854939611 1.5525707442 -1.113238696 
11.854939611 1.5525707442 -1.113238696 11.854939611 1.5525707442 -1.113238696 11.854939611 1.5525707442 -1.113238696 
11.854939611 1.5525707442 -1.113238696 11.854939611 1.5525707442 -1.113238696 11.854939611 1.5525707442 -1.113238696 
11.854939611 1.5525707442 -1.113238696 11.854939611 1.5525707442 -1.113238696 11.854939611 1.5525707442 -1.113238696 
11.854939611 1.5525707442 -1.113238696 11.854939611 1.5525707442 -1.113238696 11.854939611 1.5525707442 -1.113238696 
11.854939611 1.5525707442 -1.113238696 11.854939611 1.5525707442 -1.113238696 11.854939611 1.5525707442 -1.113238696 
11.854939611 1.5525707442 -1.113238696 11.854939611 1.5525707442 -1.113238696 11.854939611 1.5525707442 -1.113238696 
11.854939611 1.5525707442 -1.113238696 11.854939611 1.5525707442 -1.113238696 11.854939611 1.5525707442 -1.113238696 
11.854939611 1.5525707442 -1.113238696 11.854939611 1.5525707442 -1.113238696 10.290567368 4.2483874756 -0.62474979584 
10.290567368 4.2483874756 -0.62474979584 10.290567368 4.2483874756 -0.62474979584 10.290567368 4.2483874756 -0.62474979584 
10.290567368 4.2483874756 -0.62474979584 10.290567368 4.2483874756 -0.62474979584 10.290567368 4.2483874756 -0.62474979584 
10.290567368 4.2483874756 -0.62474979584 10.290567368 4.2483874756 -0.62474979584 10.290567368 4.2483874756 -0.62474979584 
10.290567368 4.2483874756 -0.62474979584 10.290567368 4.2483874756 -0.62474979584 10.290567368 4.2483874756 -0.62474979584 
10.290567368 4.2483874756 -0.62474979584 10.290567368 4.2483874756 -0.62474979584 10.290567368 4.2483874756 -0.62474979584 
10.290567368 4.2483874756 -0.62474979584 10.290567368 4.2483874756 -0.62474979584 10.290567368 4.2483874756 -0.62474979584 
10.290567368 4.2483874756 -0.62474979584 10.290567368 4.2483874756 -0.62474979584 10.290567368 4.2483874756 -0.62474979584 
10.290567368 4.2483874756 -0.62474979584 10.290567368 4.2483874756 -0.62474979584 10.290567368 4.2483874756 -0.62474979584 
10.290567368 4.2483874756 -0.62474979584 10.290567368 4.2483874756 -0.62474979584 10.290567368 4.2483874756 -0.62474979584 
10.290567368 4.2483874756 -0.62474979584 10.290567368 4.2483874756 -0.62474979584 10.290567368 4.2483874756 -0.62474979584 
10.290567368 4.2483874756 -0.62474979584 10.290567368 4.2483874756 -0.62474979584 10.290567368 4.2483874756 -0.62474979584 
10.290567368 4.2483874756 -0.62474979584 10.290567368 4.2483874756 -0.62474979584 10.290567368 4.2483874756 -0.62474979584 
10.290567368 4.2483874756 -0.62474979584 10.290567368 4.2483874756 -0.62474979584 10.290567368 4.2483874756 -0.62474979584 
10.290567368 4.2483874756 -0.62474979584 10.290567368 4.2483874756 -0.62474979584 10.290567368 4.2483874756 -0.62474979584 
10.290567368 4.2483874756 -0.62474979584 10.290567368 4.2483874756 -0.62474979584 10.290567368 4.2483874756 -0.62474979584 
10.290567368 4.2483874756 -0.62474979584 10.290567368 4.2483874756 -0.62474979584 10.290567368 4.2483874756 -0.62474979584 
10.290567368 4.2483874756 -0.62474979584 
