# vtk DataFile Version 4.1
Generated by LIGGGHTS
ASCII
DATASET POLYDATA
POINTS 100 float
-0.112451 -0.131211 0.0234331 -0.122751 -0.132142 0.02189 -0.132766 -0.132389 0.0223103 
-0.117968 -0.133016 0.0323388 -0.104784 -0.129988 0.03049 -0.126634 -0.133961 0.0313109 
-0.137751 -0.134884 0.0295103 -0.109505 -0.13471 0.0339417 -0.141689 -0.133415 0.0220954 
-0.117526 -0.128712 0.0139563 -0.122678 -0.136283 0.0386464 -0.133042 -0.136111 0.0344859 
-0.123013 -0.125422 0.0143554 -0.116942 -0.137185 0.0403694 -0.128925 -0.126557 0.0159836 
-0.128636 -0.137168 0.0375777 -0.11096 -0.128896 0.0358666 -0.139968 -0.127128 0.0196564 
-0.112821 -0.133702 0.0131408 -0.144251 -0.136534 0.0272916 -0.116486 -0.137497 0.0161163 
-0.12066 -0.138422 0.0435832 -0.106259 -0.137649 0.0292601 -0.0981084 -0.126301 0.0293576 
-0.101858 -0.131904 0.024004 -0.118661 -0.12392 0.0176856 -0.10444 -0.123606 0.0267229 
-0.100567 -0.123972 0.0315204 -0.125002 -0.138468 0.0431088 -0.123554 -0.126916 0.0302794 
-0.128269 -0.13844 0.0420789 -0.102695 -0.135538 0.0351091 -0.128631 -0.138746 0.0175684 
-0.112068 -0.137829 0.0391379 -0.147051 -0.136093 0.0219384 -0.103615 -0.136485 0.0266019 
-0.132914 -0.138317 0.0397208 -0.112956 -0.134411 0.0391982 -0.139496 -0.13801 0.034964 
-0.12321 -0.130369 0.011995 -0.131172 -0.138954 0.0284761 -0.11397 -0.139351 0.0365803 
-0.112694 -0.126074 0.0328931 -0.111896 -0.139555 0.0299957 -0.140354 -0.129497 0.0265176 
-0.143067 -0.137813 0.0320504 -0.102482 -0.130713 0.0203159 -0.126192 -0.129657 0.0129283 
-0.132051 -0.138574 0.0426753 -0.133559 -0.124978 0.0164814 -0.0435736 -0.103419 0.023271 
-0.0538328 -0.104353 0.0214788 -0.0638543 -0.104617 0.0216611 -0.0492959 -0.105296 0.0320308 
-0.0360774 -0.102237 0.0305154 -0.0579338 -0.106246 0.030792 -0.0690038 -0.107172 0.0287232 
-0.0408711 -0.106991 0.0338204 -0.0727681 -0.105654 0.0212284 -0.0484283 -0.100858 0.0136956 
-0.0541486 -0.108616 0.0382016 -0.0644117 -0.108428 0.0337993 -0.0539281 -0.0975779 0.0139892 
-0.0484528 -0.109522 0.0400528 -0.0598751 -0.0987332 0.0154693 -0.0600784 -0.109501 0.0369864 
-0.0423802 -0.101193 0.0357527 -0.0710003 -0.0993471 0.0188765 -0.0436974 -0.105835 0.012955 
-0.0754476 -0.108814 0.0263399 -0.0474254 -0.109657 0.0158155 -0.0522435 -0.110788 0.0431689 
-0.0375103 -0.10989 0.0291953 -0.0293825 -0.0985327 0.0295675 -0.0329965 -0.104101 0.0240864 
-0.0496576 -0.0960949 0.0174319 -0.0356549 -0.0958269 0.026804 -0.0318945 -0.096223 0.0316887 
-0.056573 -0.110837 0.042592 -0.0548414 -0.0991898 0.0298848 -0.0598158 -0.110806 0.0414856 
-0.0340887 -0.107817 0.0351419 -0.0595991 -0.110933 0.0169718 -0.0435505 -0.110151 0.0389319 
-0.0781214 -0.108339 0.0209256 -0.0348062 -0.108704 0.0266087 -0.0644041 -0.110672 0.0390197 
-0.044445 -0.106735 0.0389961 -0.0708726 -0.11034 0.0341114 -0.0540613 -0.102508 0.0115889 
-0.0623965 -0.111225 0.0278148 -0.0453889 -0.111657 0.0363191 -0.0440473 -0.098351 0.0327598 
-0.0431605 -0.11181 0.0297839 -0.0715444 -0.101766 0.0257093 -0.0743742 -0.110127 0.0311159 
-0.033535 -0.102884 0.0203934 -0.0570662 -0.101808 0.0124567 -0.0636105 -0.11095 0.0419917 
-0.0645223 -0.097165 0.0158692 
VERTICES 100 200
1 0 
1 1 
1 2 
1 3 
1 4 
1 5 
1 6 
1 7 
1 8 
1 9 
1 10 
1 11 
1 12 
1 13 
1 14 
1 15 
1 16 
1 17 
1 18 
1 19 
1 20 
1 21 
1 22 
1 23 
1 24 
1 25 
1 26 
1 27 
1 28 
1 29 
1 30 
1 31 
1 32 
1 33 
1 34 
1 35 
1 36 
1 37 
1 38 
1 39 
1 40 
1 41 
1 42 
1 43 
1 44 
1 45 
1 46 
1 47 
1 48 
1 49 
1 50 
1 51 
1 52 
1 53 
1 54 
1 55 
1 56 
1 57 
1 58 
1 59 
1 60 
1 61 
1 62 
1 63 
1 64 
1 65 
1 66 
1 67 
1 68 
1 69 
1 70 
1 71 
1 72 
1 73 
1 74 
1 75 
1 76 
1 77 
1 78 
1 79 
1 80 
1 81 
1 82 
1 83 
1 84 
1 85 
1 86 
1 87 
1 88 
1 89 
1 90 
1 91 
1 92 
1 93 
1 94 
1 95 
1 96 
1 97 
1 98 
1 99 

POINT_DATA 100
FIELD FieldData 7
id 1 100 int
1 2 3 4 5 6 7 8 9 
10 11 12 13 14 15 16 17 18 
19 20 21 22 23 24 25 26 27 
28 29 30 31 32 33 34 35 36 
37 38 39 40 41 42 43 44 45 
46 47 48 49 50 51 52 53 54 
55 56 57 58 59 60 61 62 63 
64 65 66 67 68 69 70 71 72 
73 74 75 76 77 78 79 80 81 
82 83 84 85 86 87 88 89 90 
91 92 93 94 95 96 97 98 99 
100 
mol 1 100 int
1 1 1 1 1 1 1 1 1 
1 1 1 1 1 1 1 1 1 
1 1 1 1 1 1 1 1 1 
1 1 1 1 1 1 1 1 1 
1 1 1 1 1 1 1 1 1 
1 1 1 1 1 2 2 2 2 
2 2 2 2 2 2 2 2 2 
2 2 2 2 2 2 2 2 2 
2 2 2 2 2 2 2 2 2 
2 2 2 2 2 2 2 2 2 
2 2 2 2 2 2 2 2 2 
2 
type 1 100 int
1 1 1 1 1 1 1 1 1 
1 1 1 1 1 1 1 1 1 
1 1 1 1 1 1 1 1 1 
1 1 1 1 1 1 1 1 1 
1 1 1 1 1 1 1 1 1 
1 1 1 1 1 1 1 1 1 
1 1 1 1 1 1 1 1 1 
1 1 1 1 1 1 1 1 1 
1 1 1 1 1 1 1 1 1 
1 1 1 1 1 1 1 1 1 
1 1 1 1 1 1 1 1 1 
1 
v 3 100 double
-0.11486688618 -0.061501451398 0.056978211723 -0.10373022828 -0.061496472442 -0.017363253573 -0.10661795658 -0.065226964601 -0.08836672144 
-0.17705521033 -0.080426797417 0.014618864433 -0.16491653832 -0.072996237147 0.11334348909 -0.16954158274 -0.08094829202 -0.048243658792 
-0.15659358026 -0.080680146414 -0.12832515237 -0.18784961592 -0.081082705691 0.070913623832 -0.10480574333 -0.067404390939 -0.15319682932 
-0.048859391357 -0.044546679871 0.02609619075 -0.22052178234 -0.094064363744 -0.02490623124 -0.19127397115 -0.088987255317 -0.097551526958 
-0.052627142814 -0.046918897161 -0.0061408082983 -0.23239241691 -0.095746666556 0.013736451142 -0.063762465938 -0.05180521671 -0.049980553758 
-0.21273871657 -0.093718928436 -0.068582783503 -0.2030951998 -0.085249477249 0.071975457181 -0.089459338879 -0.062160328972 -0.12885266584 
-0.041665477221 -0.041592004921 0.049525863672 -0.14048944796 -0.07825573694 -0.1773082304 -0.061514246751 -0.048444935046 0.016336385265 
-0.25466369129 -0.1030785801 -0.014851359319 -0.15402724861 -0.071033060345 0.088061955037 -0.15801468948 -0.068852021843 0.167523532 
-0.11868577056 -0.059530783266 0.13021993262 -0.076514295335 -0.052129551638 0.027428999647 -0.14024561151 -0.06556975563 0.12817612074 
-0.17392214257 -0.073773361443 0.15474343587 -0.25131006146 -0.103419029 -0.045516343967 -0.16432702541 -0.078046285962 -0.012854656701 
-0.24406546821 -0.10236648437 -0.068474160637 -0.19582908507 -0.081371986123 0.11726282209 -0.071376868278 -0.054801817725 -0.071613742833 
-0.22353338398 -0.091934060907 0.046802423759 -0.10292165749 -0.068659094597 -0.19616931556 -0.13564714909 -0.06509417104 0.10894326753 
-0.22749620232 -0.099131499349 -0.10094400934 -0.22495189355 -0.092309531719 0.04719710635 -0.19408844377 -0.091794630108 -0.14669706578 
-0.034566349674 -0.0423853957 -0.017147556122 -0.14812693121 -0.076755169576 -0.089915227788 -0.20507977638 -0.0875128319 0.030451235336 
-0.18297726993 -0.079970578699 0.065259571867 -0.15865282611 -0.074103565477 0.044655720782 -0.13708622095 -0.075616892494 -0.13617917344 
-0.17362821446 -0.087166651557 -0.17145974651 -0.093061251518 -0.052539372595 0.12814402684 -0.041345314351 -0.045068072011 -0.036766856911 
-0.24822608126 -0.10462643853 -0.095366629568 -0.067726839911 -0.05412134714 -0.079545088192 -0.11410786185 -0.061160818362 0.0090095050963 
-0.10141591822 -0.060989784532 -0.063735660544 -0.10259372413 -0.06449209152 -0.13356451649 -0.17411602782 -0.079592677251 -0.034141337223 
-0.16459580464 -0.072552547793 0.063111080655 -0.16524709436 -0.079961428679 -0.095699323849 -0.15064379795 -0.079520569092 -0.17403862975 
-0.18596215885 -0.080336522178 0.020923811258 -0.099273733316 -0.066478044349 -0.19719755085 -0.048673485925 -0.044512122612 -0.019713850814 
-0.21575914665 -0.092835579534 -0.074013822124 -0.18536387308 -0.087710654435 -0.14465527718 -0.051737739641 -0.046801677731 -0.051533856484 
-0.22827939861 -0.094555799832 -0.036331435511 -0.061612777336 -0.051484417794 -0.094867522021 -0.20707326595 -0.09239611428 -0.11671595579 
-0.20115534281 -0.08447999367 0.021490827287 -0.084989815446 -0.061456408491 -0.1729949911 -0.041982331113 -0.041616071497 0.0035663441803 
-0.13363895704 -0.077025515534 -0.22173309493 -0.06056723212 -0.048220593256 -0.029479720389 -0.24943791264 -0.10166537476 -0.064958293411 
-0.15305324124 -0.070497849383 0.038668620847 -0.1592053313 -0.068644638621 0.11645672856 -0.11953380323 -0.059377565513 0.08088405497 
-0.076020637286 -0.05199218796 -0.019175919659 -0.14093985157 -0.065373910336 0.078201340664 -0.17460642554 -0.073462523324 0.10346345344 
-0.24543180966 -0.10193379833 -0.095001394158 -0.16119289396 -0.077265119504 -0.060911962639 -0.23778722808 -0.10085462122 -0.11737572116 
-0.19484371913 -0.080709112279 0.066274335829 -0.068164619853 -0.054249817061 -0.11611766675 -0.2203274495 -0.090884002811 -0.0036115369322 
-0.096333592131 -0.067589257785 -0.23932734814 -0.1355334289 -0.064735906616 0.059627357983 -0.22077045284 -0.097618421252 -0.1488628359 
-0.22184741307 -0.09128757298 -0.00331423006 -0.18692017823 -0.090337836127 -0.19298055943 -0.033579729179 -0.042286851929 -0.061814852865 
-0.14308276181 -0.075714958775 -0.13602325532 -0.20177809389 -0.08650289311 -0.019188479292 -0.18134595164 -0.079323391761 0.015352589422 
-0.15652064601 -0.073394819443 -0.0040632257073 -0.13149609395 -0.074599026625 -0.18135156603 -0.1662649244 -0.08575403549 -0.21679890042 
-0.094369592364 -0.052536469276 0.079469049308 -0.039804100254 -0.044880772913 -0.081272341958 -0.24124287702 -0.10301047007 -0.14389969488 
-0.064872919721 -0.053707163461 -0.12403931964 
f 3 100 double
0 0 0 0 0 0 0 0 0 
0 0 0 0 0 0 0 0 0 
0 0 0 0 0 0 0 0 0 
0 0 0 0 0 0 0 0 0 
0 0 0 0 0 0 0 0 0 
0 0 0 0 0 0 0 0 0 
0 0 0 0 0 0 0 0 0 
0 0 0 0 0 0 0 0 0 
0 0 0 0 0 0 0 0 0 
0 0 0 0 0 0 0 0 0 
0 0 0 0 0 0 0 0 0 
0 0 0 0 0 0 0 0 0 
0 0 0 0 0 0 0 0 0 
0 0 0 0 0 0 0 0 0 
0 0 0 0 0 0 0 0 0 
0 0 0 0 0 0 0 0 0 
0 0 0 0 0 0 0 0 0 
0 0 0 0 0 0 0 0 0 
0 0 0 0 0 0 0 0 0 
0 0 0 0 0 0 0 0 0 
0 0 0 0 0 0 0 0 0 
0 0 0 0 0 0 0 0 0 
0 0 0 0 0 0 0 0 0 
0 0 0 0 0 0 0 0 0 
0 0 0 0 0 0 0 0 0 
0 0 0 0 0 0 0 0 0 
0 0 0 0 0 0 0 0 0 
0 0 0 0 0 0 0 0 0 
0 0 0 0 0 0 0 0 0 
0 0 0 0 0 0 0 0 0 
0 0 0 0 0 0 0 0 0 
0 0 0 0 0 0 0 0 0 
0 0 0 0 0 0 0 0 0 
0 0 0 
radius 1 100 double
0.010434 0.00981478 0.00892069 0.00845937 0.00731974 0.00728422 0.00643447 0.00619172 0.00585956 
0.00577566 0.00537241 0.00522549 0.00513666 0.00473175 0.00466912 0.00444866 0.00441894 0.00400812 
0.00385622 0.00379948 0.00370243 0.00366942 0.00364039 0.00363813 0.00363644 0.00358692 0.0035797 
0.00341284 0.00337012 0.00336273 0.00332772 0.00323261 0.00320584 0.00320311 0.00318808 0.00313116 
0.00306026 0.00305632 0.00304383 0.00300958 0.00300137 0.00298994 0.0029567 0.00295111 0.00290849 
0.00284552 0.00282964 0.0028207 0.00281971 0.00281899 0.010434 0.00981478 0.00892069 0.00845937 
0.00731974 0.00728422 0.00643447 0.00619172 0.00585956 0.00577566 0.00537241 0.00522549 0.00513666 
0.00473175 0.00466912 0.00444866 0.00441894 0.00400812 0.00385622 0.00379948 0.00370243 0.00366942 
0.00364039 0.00363813 0.00363644 0.00358692 0.0035797 0.00341284 0.00337012 0.00336273 0.00332772 
0.00323261 0.00320584 0.00320311 0.00318808 0.00313116 0.00306026 0.00305632 0.00304383 0.00300958 
0.00300137 0.00298994 0.0029567 0.00295111 0.00290849 0.00284552 0.00282964 0.0028207 0.00281971 
0.00281899 
omega 3 100 double
1.9448730045 -7.04186917 0.29087836879 1.9448730045 -7.04186917 0.29087836879 1.9448730045 -7.04186917 0.29087836879 
1.9448730045 -7.04186917 0.29087836879 1.9448730045 -7.04186917 0.29087836879 1.9448730045 -7.04186917 0.29087836879 
1.9448730045 -7.04186917 0.29087836879 1.9448730045 -7.04186917 0.29087836879 1.9448730045 -7.04186917 0.29087836879 
1.9448730045 -7.04186917 0.29087836879 1.9448730045 -7.04186917 0.29087836879 1.9448730045 -7.04186917 0.29087836879 
1.9448730045 -7.04186917 0.29087836879 1.9448730045 -7.04186917 0.29087836879 1.9448730045 -7.04186917 0.29087836879 
1.9448730045 -7.04186917 0.29087836879 1.9448730045 -7.04186917 0.29087836879 1.9448730045 -7.04186917 0.29087836879 
1.9448730045 -7.04186917 0.29087836879 1.9448730045 -7.04186917 0.29087836879 1.9448730045 -7.04186917 0.29087836879 
1.9448730045 -7.04186917 0.29087836879 1.9448730045 -7.04186917 0.29087836879 1.9448730045 -7.04186917 0.29087836879 
1.9448730045 -7.04186917 0.29087836879 1.9448730045 -7.04186917 0.29087836879 1.9448730045 -7.04186917 0.29087836879 
1.9448730045 -7.04186917 0.29087836879 1.9448730045 -7.04186917 0.29087836879 1.9448730045 -7.04186917 0.29087836879 
1.9448730045 -7.04186917 0.29087836879 1.9448730045 -7.04186917 0.29087836879 1.9448730045 -7.04186917 0.29087836879 
1.9448730045 -7.04186917 0.29087836879 1.9448730045 -7.04186917 0.29087836879 1.9448730045 -7.04186917 0.29087836879 
1.9448730045 -7.04186917 0.29087836879 1.9448730045 -7.04186917 0.29087836879 1.9448730045 -7.04186917 0.29087836879 
1.9448730045 -7.04186917 0.29087836879 1.9448730045 -7.04186917 0.29087836879 1.9448730045 -7.04186917 0.29087836879 
1.9448730045 -7.04186917 0.29087836879 1.9448730045 -7.04186917 0.29087836879 1.9448730045 -7.04186917 0.29087836879 
1.9448730045 -7.04186917 0.29087836879 1.9448730045 -7.04186917 0.29087836879 1.9448730045 -7.04186917 0.29087836879 
1.9448730045 -7.04186917 0.29087836879 1.9448730045 -7.04186917 0.29087836879 1.8983839866 -6.9178504586 0.31494871016 
1.8983839866 -6.9178504586 0.31494871016 1.8983839866 -6.9178504586 0.31494871016 1.8983839866 -6.9178504586 0.31494871016 
1.8983839866 -6.9178504586 0.31494871016 1.8983839866 -6.9178504586 0.31494871016 1.8983839866 -6.9178504586 0.31494871016 
1.8983839866 -6.9178504586 0.31494871016 1.8983839866 -6.9178504586 0.31494871016 1.8983839866 -6.9178504586 0.31494871016 
1.8983839866 -6.9178504586 0.31494871016 1.8983839866 -6.9178504586 0.31494871016 1.8983839866 -6.9178504586 0.31494871016 
1.8983839866 -6.9178504586 0.31494871016 1.8983839866 -6.9178504586 0.31494871016 1.8983839866 -6.9178504586 0.31494871016 
1.8983839866 -6.9178504586 0.31494871016 1.8983839866 -6.9178504586 0.31494871016 1.8983839866 -6.9178504586 0.31494871016 
1.8983839866 -6.9178504586 0.31494871016 1.8983839866 -6.9178504586 0.31494871016 1.8983839866 -6.9178504586 0.31494871016 
1.8983839866 -6.9178504586 0.31494871016 1.8983839866 -6.9178504586 0.31494871016 1.8983839866 -6.9178504586 0.31494871016 
1.8983839866 -6.9178504586 0.31494871016 1.8983839866 -6.9178504586 0.31494871016 1.8983839866 -6.9178504586 0.31494871016 
1.8983839866 -6.9178504586 0.31494871016 1.8983839866 -6.9178504586 0.31494871016 1.8983839866 -6.9178504586 0.31494871016 
1.8983839866 -6.9178504586 0.31494871016 1.8983839866 -6.9178504586 0.31494871016 1.8983839866 -6.9178504586 0.31494871016 
1.8983839866 -6.9178504586 0.31494871016 1.8983839866 -6.9178504586 0.31494871016 1.8983839866 -6.9178504586 0.31494871016 
1.8983839866 -6.9178504586 0.31494871016 1.8983839866 -6.9178504586 0.31494871016 1.8983839866 -6.9178504586 0.31494871016 
1.8983839866 -6.9178504586 0.31494871016 1.8983839866 -6.9178504586 0.31494871016 1.8983839866 -6.9178504586 0.31494871016 
1.8983839866 -6.9178504586 0.31494871016 1.8983839866 -6.9178504586 0.31494871016 1.8983839866 -6.9178504586 0.31494871016 
1.8983839866 -6.9178504586 0.31494871016 1.8983839866 -6.9178504586 0.31494871016 1.8983839866 -6.9178504586 0.31494871016 
1.8983839866 -6.9178504586 0.31494871016 
