# vtk DataFile Version 4.1
Generated by LIGGGHTS
ASCII
DATASET POLYDATA
POINTS 100 float
-0.117998 -0.156689 0.0110293 -0.127723 -0.152866 0.0114029 -0.137523 -0.151027 0.0124578 
-0.125553 -0.164114 0.0101351 -0.112011 -0.165297 0.0113987 -0.133817 -0.161159 0.0102946 
-0.144273 -0.156902 0.0107752 -0.117958 -0.167559 0.00739689 -0.146228 -0.148806 0.0125869 
-0.120456 -0.146338 0.0139654 -0.131939 -0.169174 0.00763356 -0.140997 -0.162796 0.00905494 
-0.125416 -0.145525 0.0179438 -0.126901 -0.172132 0.00603525 -0.131639 -0.145775 0.0176145 
-0.137571 -0.166788 0.00750263 -0.119037 -0.16916 0.0133885 -0.143201 -0.146872 0.0185475 
-0.116379 -0.146555 0.00839513 -0.150271 -0.153267 0.00993238 -0.121079 -0.148598 0.00516618 
-0.131372 -0.174419 0.00535441 -0.114158 -0.163699 0.00396833 -0.104829 -0.165724 0.0141692 
-0.107984 -0.159616 0.0089875 -0.121761 -0.14976 0.0189397 -0.110005 -0.16176 0.0176038 
-0.107384 -0.167301 0.0168399 -0.135466 -0.172982 0.00585889 -0.129694 -0.160908 0.0168601 
-0.138389 -0.171245 0.00628685 -0.111749 -0.170217 0.00572208 -0.133297 -0.147277 0.00552478 
-0.122002 -0.17202 0.00474236 -0.151722 -0.147426 0.0106198 -0.110858 -0.161713 0.00472567 
-0.142332 -0.167907 0.00695929 -0.122428 -0.17191 0.00824686 -0.147586 -0.161797 0.00801367 
-0.125723 -0.143137 0.0130155 -0.138218 -0.157334 0.00587085 -0.123465 -0.169087 0.00342557 
-0.119678 -0.165899 0.016349 -0.120017 -0.163134 0.00282009 -0.145417 -0.15345 0.0163908 
-0.150358 -0.158158 0.00860959 -0.107607 -0.155893 0.0101728 -0.12872 -0.143383 0.014125 
-0.142192 -0.170977 0.00665384 -0.136021 -0.145235 0.0197871 -0.0468263 -0.126307 0.0110099 
-0.0569216 -0.123818 0.0121156 -0.0667784 -0.123306 0.0138802 -0.053373 -0.13467 0.0105515 
-0.0397383 -0.134041 0.0108453 -0.0619236 -0.132845 0.0113297 -0.0727914 -0.130023 0.0125991 
-0.0456028 -0.137062 0.00724183 -0.0756693 -0.122267 0.0146493 -0.0504217 -0.116387 0.0142466 
-0.0591925 -0.140528 0.00843866 -0.0688926 -0.135421 0.010576 -0.0551494 -0.116258 0.0185739 
-0.0539328 -0.142782 0.00645187 -0.0612912 -0.117335 0.0186791 -0.0650858 -0.138914 0.00873479 
-0.0460285 -0.138814 0.0132729 -0.072509 -0.119967 0.0204074 -0.0467598 -0.116038 0.00840141 
-0.0792636 -0.127217 0.0122272 -0.051365 -0.118678 0.00548406 -0.0580977 -0.145642 0.00605687 
-0.0426034 -0.132717 0.00360565 -0.032384 -0.133516 0.0130988 -0.0366842 -0.127865 0.00823181 
-0.0509024 -0.119971 0.0192551 -0.0377824 -0.13029 0.0169399 -0.0345094 -0.135429 0.0159214 
-0.0622997 -0.144766 0.00686638 -0.0574122 -0.13207 0.0175921 -0.0653891 -0.143437 0.00752124 
-0.0392305 -0.138862 0.00510041 -0.0635936 -0.119001 0.00671713 -0.049197 -0.142012 0.0048197 
-0.0814241 -0.121625 0.0130911 -0.0395511 -0.130311 0.0041553 -0.0696829 -0.140656 0.00851259 
-0.0493825 -0.141973 0.00834658 -0.0756132 -0.135306 0.0100132 -0.0561216 -0.113914 0.013711 
-0.0670978 -0.129625 0.00727633 -0.0511269 -0.139297 0.00364741 -0.0468847 -0.135678 0.0163136 
-0.0485517 -0.132935 0.00287916 -0.0739797 -0.126774 0.0183258 -0.0787945 -0.132072 0.0108499 
-0.0367211 -0.124129 0.00943625 -0.0589724 -0.114562 0.0150248 -0.0691589 -0.143679 0.00815795 
-0.06554 -0.117391 0.0211611 
VERTICES 100 200
1 0 
1 1 
1 2 
1 3 
1 4 
1 5 
1 6 
1 7 
1 8 
1 9 
1 10 
1 11 
1 12 
1 13 
1 14 
1 15 
1 16 
1 17 
1 18 
1 19 
1 20 
1 21 
1 22 
1 23 
1 24 
1 25 
1 26 
1 27 
1 28 
1 29 
1 30 
1 31 
1 32 
1 33 
1 34 
1 35 
1 36 
1 37 
1 38 
1 39 
1 40 
1 41 
1 42 
1 43 
1 44 
1 45 
1 46 
1 47 
1 48 
1 49 
1 50 
1 51 
1 52 
1 53 
1 54 
1 55 
1 56 
1 57 
1 58 
1 59 
1 60 
1 61 
1 62 
1 63 
1 64 
1 65 
1 66 
1 67 
1 68 
1 69 
1 70 
1 71 
1 72 
1 73 
1 74 
1 75 
1 76 
1 77 
1 78 
1 79 
1 80 
1 81 
1 82 
1 83 
1 84 
1 85 
1 86 
1 87 
1 88 
1 89 
1 90 
1 91 
1 92 
1 93 
1 94 
1 95 
1 96 
1 97 
1 98 
1 99 

POINT_DATA 100
FIELD FieldData 7
id 1 100 int
1 2 3 4 5 6 7 8 9 
10 11 12 13 14 15 16 17 18 
19 20 21 22 23 24 25 26 27 
28 29 30 31 32 33 34 35 36 
37 38 39 40 41 42 43 44 45 
46 47 48 49 50 51 52 53 54 
55 56 57 58 59 60 61 62 63 
64 65 66 67 68 69 70 71 72 
73 74 75 76 77 78 79 80 81 
82 83 84 85 86 87 88 89 90 
91 92 93 94 95 96 97 98 99 
100 
mol 1 100 int
1 1 1 1 1 1 1 1 1 
1 1 1 1 1 1 1 1 1 
1 1 1 1 1 1 1 1 1 
1 1 1 1 1 1 1 1 1 
1 1 1 1 1 1 1 1 1 
1 1 1 1 1 2 2 2 2 
2 2 2 2 2 2 2 2 2 
2 2 2 2 2 2 2 2 2 
2 2 2 2 2 2 2 2 2 
2 2 2 2 2 2 2 2 2 
2 2 2 2 2 2 2 2 2 
2 
type 1 100 int
1 1 1 1 1 1 1 1 1 
1 1 1 1 1 1 1 1 1 
1 1 1 1 1 1 1 1 1 
1 1 1 1 1 1 1 1 1 
1 1 1 1 1 1 1 1 1 
1 1 1 1 1 1 1 1 1 
1 1 1 1 1 1 1 1 1 
1 1 1 1 1 1 1 1 1 
1 1 1 1 1 1 1 1 1 
1 1 1 1 1 1 1 1 1 
1 1 1 1 1 1 1 1 1 
1 
v 3 100 double
-0.1163320292 -0.16499929491 0.16554520504 -0.1186426559 -0.16552277714 0.11075106636 -0.12974719562 -0.17603352697 0.025926373632 
-0.10991910189 -0.14797905064 -0.029959970109 -0.12495212459 -0.17349676957 0.10725237411 -0.11023004861 -0.14610066419 -0.080846407705 
-0.11353989306 -0.14782423344 -0.13759541246 -0.080417160515 -0.11157469663 0.006060948198 -0.13008551142 -0.17348150332 -0.040788203874 
-0.1445620721 -0.20694218642 0.28978178275 -0.083945266166 -0.10790744024 -0.17733186441 -0.096912571814 -0.12418870055 -0.18691140645 
-0.18957148076 -0.26294254251 0.24510489851 -0.067208759064 -0.086967207664 -0.16332687658 -0.18593907966 -0.25491478211 0.17037749628 
-0.08123015823 -0.10310123756 -0.20652248456 -0.14964624827 -0.19918025266 -0.029806974265 -0.19715265335 -0.2627301219 0.022233741931 
-0.081073457005 -0.12706989542 0.33314752686 -0.10205794465 -0.13235649299 -0.15258921958 -0.045251163461 -0.077157575927 0.24942023481 
-0.060604383211 -0.074663289191 -0.24801963491 -0.039296904806 -0.063071941457 0.10624071358 -0.15680323193 -0.21793282372 0.18296854248 
-0.094516276036 -0.140078451 0.23681486617 -0.20310767034 -0.27946434455 0.22452792235 -0.19399090692 -0.26582002998 0.18219475847 
-0.18810252731 -0.25592124969 0.13060192613 -0.065629663067 -0.079992388723 -0.27362313841 -0.18506441114 -0.24481019182 -0.030066933947 
-0.069628003143 -0.084794657857 -0.28144197829 -0.062653944015 -0.090107920153 0.03785036771 -0.04866996657 -0.076185479701 0.1293486322 
-0.052389558739 -0.070449644245 -0.10573999906 -0.10691954785 -0.14172863909 -0.083212043073 -0.04692810375 -0.075902550176 0.17314903647 
-0.075598304357 -0.092671973634 -0.27734056967 -0.09234664877 -0.1217950765 -0.10898272044 -0.084512735441 -0.10549864881 -0.24744170679 
-0.13207997603 -0.19027315397 0.27674269298 -0.057764277244 -0.07876099202 -0.07481139258 -0.035855153396 -0.050326837042 -0.079298854731 
-0.18178149285 -0.24241234154 0.010852299564 -0.02589762628 -0.043181503816 0.047665062393 -0.17589238393 -0.22986502751 -0.099854811563 
-0.089456096876 -0.11284913419 -0.22555563455 -0.10614524359 -0.15771060333 0.29590459241 -0.14487347532 -0.20506441062 0.23889584489 
-0.07368088089 -0.088249164329 -0.32092223118 -0.21046959668 -0.28464139587 0.12829869101 -0.077739442448 -0.18024777019 0.098133667509 
-0.084294547438 -0.19098376282 0.062459036059 -0.097195410553 -0.21252507505 -0.0033547733459 -0.080187238476 -0.16823374559 -0.086075762337 
-0.081952064614 -0.18258564692 0.026557563934 -0.084749753621 -0.17477149111 -0.12087564335 -0.092300793831 -0.18760574929 -0.15698856005 
-0.056998948796 -0.1202785657 -0.06628762234 -0.10224375375 -0.21867694023 -0.053400290498 -0.09507384838 -0.22996626101 0.23126214154 
-0.068436474369 -0.13002368088 -0.22438484057 -0.080900499612 -0.15769317637 -0.21483293518 -0.12750421828 -0.29649406574 0.19782032902 
-0.05509292864 -0.10165557709 -0.22123795447 -0.12905405114 -0.29386536163 0.13427865621 -0.069524687209 -0.13065139484 -0.24262080701 
-0.10355966769 -0.21734297124 -0.097774429824 -0.14389799981 -0.31386201666 0.0074753818276 -0.05089864576 -0.1381831974 0.26442372664 
-0.087529058521 -0.17704172258 -0.16033633721 -0.030834155117 -0.087840802596 0.18718663 -0.054139736736 -0.092343780497 -0.29871217892 
-0.026609886588 -0.063690129892 0.026393161114 -0.098517684783 -0.22414684986 0.090300115714 -0.057958098865 -0.14254524695 0.14921568023 
-0.13524019841 -0.31048392121 0.16979509561 -0.12511263788 -0.28235391733 0.10180412239 -0.12107900034 -0.2682170884 0.043442339941 
-0.059606331418 -0.10245142052 -0.31615084024 -0.13126784549 -0.2790496727 -0.074449992296 -0.063590913305 -0.11084630229 -0.31790384254 
-0.042173580926 -0.090198108306 -0.047455129292 -0.040328312892 -0.099130141907 0.090080724157 -0.042284218676 -0.078643274545 -0.1732236537 
-0.090080846072 -0.18946613625 -0.086288967358 -0.029044975 -0.07471443975 0.088181777698 -0.069082064171 -0.12382489336 -0.30528600148 
-0.068762370415 -0.13545001688 -0.17397841891 -0.076589947311 -0.14387179895 -0.26348635363 -0.089305601577 -0.2173027278 0.22835261702 
-0.052018006383 -0.10568844987 -0.10778130837 -0.031560144894 -0.058357994808 -0.14388366039 -0.12420236229 -0.26582878961 -0.053584442907 
-0.021303292254 -0.047770252933 -0.021822020471 -0.13305074571 -0.27922063165 -0.11347238513 -0.080599085382 -0.15513763176 -0.23518285355 
-0.064377355409 -0.16196355493 0.20925134937 -0.09963668023 -0.23650474855 0.19646291859 -0.068547112119 -0.11846884712 -0.35015336498 
-0.14774691687 -0.33093960659 0.10143266293 
f 3 100 double
0 0 0 0 0 0 0 0 0 
0 0 0 0 0 0 0 0 0 
0 0 0 0 0 0 0 0 0 
0 0 0 0 0 0 0 0 0 
0 0 0 0 0 0 0 0 0 
0 0 0 0 0 0 0 0 0 
0 0 0 0 0 0 0 0 0 
0 0 0 0 0 0 0 0 0 
0 0 0 0 0 0 0 0 0 
0 0 0 0 0 0 0 0 0 
0 0 0 0 0 0 0 0 0 
0 0 0 0 0 0 0 0 0 
0 0 0 0 0 0 0 0 0 
0 0 0 0 0 0 0 0 0 
0 0 0 -0.037024259069 0.026241548871 0.090761547954 0 0 0 
0 0 0 0 0 0 0 0 0 
0 0 0 0 0 0 0 0 0 
0 0 0 0 0 0 0 0 0 
0 0 0 0 0 0 0 0 0 
0 0 0 0 0 0 0 0 0 
0 0 0 0 0 0 0 0 0 
0 0 0 0 0 0 0 0 0 
0 0 0 0 0 0 0 0 0 
0 0 0 0 0 0 0 0 0 
-0.039860331102 0.073684220212 -0.14386959436 0 0 0 0 0 0 
0 0 0 0 0 0 0 0 0 
0 0 0 0 0 0 0 0 0 
0 0 0 0 0 0 0 0 0 
0 0 0 0 0 0 0 0 0 
0 0 0 0 0 0 0 0 0 
0 0 0 0 0 0 0 0 0 
-0.17941501511 0.027440516192 0.50946514504 0 0 0 0 0 0 
0 0 0 0 0 0 0 0 0 
0 0 0 
radius 1 100 double
0.010434 0.00981478 0.00892069 0.00845937 0.00731974 0.00728422 0.00643447 0.00619172 0.00585956 
0.00577566 0.00537241 0.00522549 0.00513666 0.00473175 0.00466912 0.00444866 0.00441894 0.00400812 
0.00385622 0.00379948 0.00370243 0.00366942 0.00364039 0.00363813 0.00363644 0.00358692 0.0035797 
0.00341284 0.00337012 0.00336273 0.00332772 0.00323261 0.00320584 0.00320311 0.00318808 0.00313116 
0.00306026 0.00305632 0.00304383 0.00300958 0.00300137 0.00298994 0.0029567 0.00295111 0.00290849 
0.00284552 0.00282964 0.0028207 0.00281971 0.00281899 0.010434 0.00981478 0.00892069 0.00845937 
0.00731974 0.00728422 0.00643447 0.00619172 0.00585956 0.00577566 0.00537241 0.00522549 0.00513666 
0.00473175 0.00466912 0.00444866 0.00441894 0.00400812 0.00385622 0.00379948 0.00370243 0.00366942 
0.00364039 0.00363813 0.00363644 0.00358692 0.0035797 0.00341284 0.00337012 0.00336273 0.00332772 
0.00323261 0.00320584 0.00320311 0.00318808 0.00313116 0.00306026 0.00305632 0.00304383 0.00300958 
0.00300137 0.00298994 0.0029567 0.00295111 0.00290849 0.00284552 0.00282964 0.0028207 0.00281971 
0.00281899 
omega 3 100 double
14.713458098 -11.417738621 -0.51137450965 14.713458098 -11.417738621 -0.51137450965 14.713458098 -11.417738621 -0.51137450965 
14.713458098 -11.417738621 -0.51137450965 14.713458098 -11.417738621 -0.51137450965 14.713458098 -11.417738621 -0.51137450965 
14.713458098 -11.417738621 -0.51137450965 14.713458098 -11.417738621 -0.51137450965 14.713458098 -11.417738621 -0.51137450965 
14.713458098 -11.417738621 -0.51137450965 14.713458098 -11.417738621 -0.51137450965 14.713458098 -11.417738621 -0.51137450965 
14.713458098 -11.417738621 -0.51137450965 14.713458098 -11.417738621 -0.51137450965 14.713458098 -11.417738621 -0.51137450965 
14.713458098 -11.417738621 -0.51137450965 14.713458098 -11.417738621 -0.51137450965 14.713458098 -11.417738621 -0.51137450965 
14.713458098 -11.417738621 -0.51137450965 14.713458098 -11.417738621 -0.51137450965 14.713458098 -11.417738621 -0.51137450965 
14.713458098 -11.417738621 -0.51137450965 14.713458098 -11.417738621 -0.51137450965 14.713458098 -11.417738621 -0.51137450965 
14.713458098 -11.417738621 -0.51137450965 14.713458098 -11.417738621 -0.51137450965 14.713458098 -11.417738621 -0.51137450965 
14.713458098 -11.417738621 -0.51137450965 14.713458098 -11.417738621 -0.51137450965 14.713458098 -11.417738621 -0.51137450965 
14.713458098 -11.417738621 -0.51137450965 14.713458098 -11.417738621 -0.51137450965 14.713458098 -11.417738621 -0.51137450965 
14.713458098 -11.417738621 -0.51137450965 14.713458098 -11.417738621 -0.51137450965 14.713458098 -11.417738621 -0.51137450965 
14.713458098 -11.417738621 -0.51137450965 14.713458098 -11.417738621 -0.51137450965 14.713458098 -11.417738621 -0.51137450965 
14.713458098 -11.417738621 -0.51137450965 14.713458098 -11.417738621 -0.51137450965 14.713458098 -11.417738621 -0.51137450965 
14.713458098 -11.417738621 -0.51137450965 14.713458098 -11.417738621 -0.51137450965 14.713458098 -11.417738621 -0.51137450965 
14.713458098 -11.417738621 -0.51137450965 14.713458098 -11.417738621 -0.51137450965 14.713458098 -11.417738621 -0.51137450965 
14.713458098 -11.417738621 -0.51137450965 14.713458098 -11.417738621 -0.51137450965 16.143850625 -7.5154364768 -0.70467343761 
16.143850625 -7.5154364768 -0.70467343761 16.143850625 -7.5154364768 -0.70467343761 16.143850625 -7.5154364768 -0.70467343761 
16.143850625 -7.5154364768 -0.70467343761 16.143850625 -7.5154364768 -0.70467343761 16.143850625 -7.5154364768 -0.70467343761 
16.143850625 -7.5154364768 -0.70467343761 16.143850625 -7.5154364768 -0.70467343761 16.143850625 -7.5154364768 -0.70467343761 
16.143850625 -7.5154364768 -0.70467343761 16.143850625 -7.5154364768 -0.70467343761 16.143850625 -7.5154364768 -0.70467343761 
16.143850625 -7.5154364768 -0.70467343761 16.143850625 -7.5154364768 -0.70467343761 16.143850625 -7.5154364768 -0.70467343761 
16.143850625 -7.5154364768 -0.70467343761 16.143850625 -7.5154364768 -0.70467343761 16.143850625 -7.5154364768 -0.70467343761 
16.143850625 -7.5154364768 -0.70467343761 16.143850625 -7.5154364768 -0.70467343761 16.143850625 -7.5154364768 -0.70467343761 
16.143850625 -7.5154364768 -0.70467343761 16.143850625 -7.5154364768 -0.70467343761 16.143850625 -7.5154364768 -0.70467343761 
16.143850625 -7.5154364768 -0.70467343761 16.143850625 -7.5154364768 -0.70467343761 16.143850625 -7.5154364768 -0.70467343761 
16.143850625 -7.5154364768 -0.70467343761 16.143850625 -7.5154364768 -0.70467343761 16.143850625 -7.5154364768 -0.70467343761 
16.143850625 -7.5154364768 -0.70467343761 16.143850625 -7.5154364768 -0.70467343761 16.143850625 -7.5154364768 -0.70467343761 
16.143850625 -7.5154364768 -0.70467343761 16.143850625 -7.5154364768 -0.70467343761 16.143850625 -7.5154364768 -0.70467343761 
16.143850625 -7.5154364768 -0.70467343761 16.143850625 -7.5154364768 -0.70467343761 16.143850625 -7.5154364768 -0.70467343761 
16.143850625 -7.5154364768 -0.70467343761 16.143850625 -7.5154364768 -0.70467343761 16.143850625 -7.5154364768 -0.70467343761 
16.143850625 -7.5154364768 -0.70467343761 16.143850625 -7.5154364768 -0.70467343761 16.143850625 -7.5154364768 -0.70467343761 
16.143850625 -7.5154364768 -0.70467343761 16.143850625 -7.5154364768 -0.70467343761 16.143850625 -7.5154364768 -0.70467343761 
16.143850625 -7.5154364768 -0.70467343761 
