# vtk DataFile Version 4.1
Generated by LIGGGHTS
ASCII
DATASET POLYDATA
POINTS 100 float
-0.11873 -0.134736 0.0173957 -0.127818 -0.135384 0.0122652 -0.137344 -0.135602 0.00914152 
-0.12692 -0.137597 0.0235396 -0.11403 -0.134467 0.0267717 -0.134654 -0.138337 0.0194549 
-0.144419 -0.138939 0.0138015 -0.11948 -0.139546 0.027771 -0.145597 -0.136521 0.00571351 
-0.120298 -0.13103 0.00711847 -0.133401 -0.14159 0.0273727 -0.141683 -0.140816 0.0199188 
-0.125699 -0.127771 0.00597569 -0.128587 -0.142747 0.0308625 -0.131764 -0.129054 0.005296 
-0.138585 -0.142287 0.0241996 -0.121721 -0.134008 0.0297528 -0.143367 -0.129993 0.00479979 
-0.115425 -0.135915 0.00739808 -0.149686 -0.140246 0.00927845 -0.119753 -0.140024 0.00843339 
-0.133141 -0.144347 0.0324082 -0.11471 -0.141901 0.0241948 -0.107513 -0.130721 0.0284846 
-0.108973 -0.13558 0.0215291 -0.122826 -0.126733 0.0107669 -0.112634 -0.127667 0.0241554 
-0.11065 -0.128662 0.02992 -0.137045 -0.144298 0.0304508 -0.131664 -0.131243 0.0204138 
-0.139753 -0.144115 0.0283595 -0.11347 -0.140568 0.0311267 -0.131596 -0.141347 0.00540763 
-0.123569 -0.143271 0.0313359 -0.150473 -0.139116 0.00337983 -0.111353 -0.140436 0.0227831 
-0.143296 -0.143661 0.0245655 -0.124546 -0.13988 0.0314936 -0.147831 -0.142709 0.0178893 
-0.124887 -0.132382 0.00311826 -0.137747 -0.142899 0.0146401 -0.124411 -0.144446 0.0281133 
-0.122418 -0.130821 0.0267241 -0.120181 -0.14384 0.0226881 -0.146019 -0.133198 0.0107603 
-0.150177 -0.14212 0.0139613 -0.108324 -0.133931 0.018026 -0.128032 -0.131769 0.00303364 
-0.1435 -0.144293 0.0275819 -0.136338 -0.127513 0.00433587 -0.0498049 -0.107174 0.0178858 
-0.0588225 -0.10771 0.0126197 -0.0683061 -0.107906 0.00937091 -0.0580331 -0.110382 0.0238026 
-0.0452213 -0.107243 0.0273228 -0.0657083 -0.111038 0.0195944 -0.0753972 -0.111515 0.0137993 
-0.0506223 -0.112422 0.0280418 -0.0765065 -0.108776 0.0058048 -0.0512932 -0.10306 0.00775282 
-0.0645122 -0.114605 0.027385 -0.0727124 -0.113615 0.0198669 -0.0567182 -0.0998185 0.00667924 
-0.059727 -0.115851 0.0308835 -0.062759 -0.101141 0.00587108 -0.0696487 -0.115228 0.0241211 
-0.052952 -0.106996 0.0302242 -0.0743431 -0.10219 0.00519138 -0.0463656 -0.107897 0.0078898 
-0.0805929 -0.112692 0.00916038 -0.0506572 -0.112095 0.00869915 -0.0642792 -0.117566 0.0323044 
-0.0457814 -0.114571 0.0244306 -0.03877 -0.103498 0.0292713 -0.0400883 -0.108079 0.022102 
-0.0539152 -0.098949 0.011545 -0.0438751 -0.100324 0.0250093 -0.0419486 -0.101537 0.0307518 
-0.0681603 -0.117481 0.0303021 -0.0628147 -0.103958 0.0208848 -0.070845 -0.117242 0.0281864 
-0.0446408 -0.113514 0.0314269 -0.0624465 -0.113425 0.0054733 -0.0547087 -0.116338 0.0313974 
-0.0813232 -0.111326 0.00330448 -0.0424255 -0.11301 0.0231231 -0.0743471 -0.11667 0.0243707 
-0.0557275 -0.112968 0.0316837 -0.0788124 -0.115491 0.0176838 -0.0558177 -0.104297 0.00364282 
-0.0686889 -0.115431 0.0145556 -0.0554981 -0.117387 0.0281184 -0.053651 -0.103694 0.0273222 
-0.0512102 -0.116507 0.0227763 -0.0770279 -0.105671 0.0109798 -0.081118 -0.114766 0.0137547 
-0.039417 -0.106278 0.0186789 -0.0589685 -0.103717 0.0035445 -0.0745801 -0.117429 0.0273554 
-0.067339 -0.0996136 0.00491882 
VERTICES 100 200
1 0 
1 1 
1 2 
1 3 
1 4 
1 5 
1 6 
1 7 
1 8 
1 9 
1 10 
1 11 
1 12 
1 13 
1 14 
1 15 
1 16 
1 17 
1 18 
1 19 
1 20 
1 21 
1 22 
1 23 
1 24 
1 25 
1 26 
1 27 
1 28 
1 29 
1 30 
1 31 
1 32 
1 33 
1 34 
1 35 
1 36 
1 37 
1 38 
1 39 
1 40 
1 41 
1 42 
1 43 
1 44 
1 45 
1 46 
1 47 
1 48 
1 49 
1 50 
1 51 
1 52 
1 53 
1 54 
1 55 
1 56 
1 57 
1 58 
1 59 
1 60 
1 61 
1 62 
1 63 
1 64 
1 65 
1 66 
1 67 
1 68 
1 69 
1 70 
1 71 
1 72 
1 73 
1 74 
1 75 
1 76 
1 77 
1 78 
1 79 
1 80 
1 81 
1 82 
1 83 
1 84 
1 85 
1 86 
1 87 
1 88 
1 89 
1 90 
1 91 
1 92 
1 93 
1 94 
1 95 
1 96 
1 97 
1 98 
1 99 

POINT_DATA 100
FIELD FieldData 7
id 1 100 int
1 2 3 4 5 6 7 8 9 
10 11 12 13 14 15 16 17 18 
19 20 21 22 23 24 25 26 27 
28 29 30 31 32 33 34 35 36 
37 38 39 40 41 42 43 44 45 
46 47 48 49 50 51 52 53 54 
55 56 57 58 59 60 61 62 63 
64 65 66 67 68 69 70 71 72 
73 74 75 76 77 78 79 80 81 
82 83 84 85 86 87 88 89 90 
91 92 93 94 95 96 97 98 99 
100 
mol 1 100 int
1 1 1 1 1 1 1 1 1 
1 1 1 1 1 1 1 1 1 
1 1 1 1 1 1 1 1 1 
1 1 1 1 1 1 1 1 1 
1 1 1 1 1 1 1 1 1 
1 1 1 1 1 2 2 2 2 
2 2 2 2 2 2 2 2 2 
2 2 2 2 2 2 2 2 2 
2 2 2 2 2 2 2 2 2 
2 2 2 2 2 2 2 2 2 
2 2 2 2 2 2 2 2 2 
2 
type 1 100 int
1 1 1 1 1 1 1 1 1 
1 1 1 1 1 1 1 1 1 
1 1 1 1 1 1 1 1 1 
1 1 1 1 1 1 1 1 1 
1 1 1 1 1 1 1 1 1 
1 1 1 1 1 1 1 1 1 
1 1 1 1 1 1 1 1 1 
1 1 1 1 1 1 1 1 1 
1 1 1 1 1 1 1 1 1 
1 1 1 1 1 1 1 1 1 
1 1 1 1 1 1 1 1 1 
1 
v 3 100 double
-0.087486935232 -0.13810578069 0.135585755 -0.069151873753 -0.091573784331 0.097229871878 -0.057785107558 -0.058640164671 0.060270718085 
-0.11363785494 -0.17183620234 0.085017902942 -0.12204980594 -0.20941100327 0.15495472731 -0.099297943378 -0.13421431931 0.051055215922 
-0.078965368305 -0.083227163054 0.010502027784 -0.13162346054 -0.21014844163 0.098989909805 -0.046095569012 -0.025034212524 0.023109928974 
-0.044989115302 -0.064078803594 0.15579447038 -0.13249894865 -0.1912976479 0.032849709733 -0.10388220059 -0.12936910606 0.0074893248894 
-0.036981172847 -0.049820893657 0.15860614845 -0.14681190601 -0.22137163764 0.042630293451 -0.035932217962 -0.038051137461 0.12703431693 
-0.12149995617 -0.16302271234 0.0086762587557 -0.13260803466 -0.22149167954 0.12957831799 -0.035169091039 -0.021185145203 0.077282261485 
-0.051662402889 -0.071663305664 0.13959076691 -0.063649323618 -0.045370993628 -0.018267647674 -0.060250758979 -0.073947222009 0.094618822155 
-0.1544062091 -0.22698351473 0.01445089574 -0.1210379875 -0.19051933839 0.10018426247 -0.12410179378 -0.22896286105 0.20551572996 
-0.10383360335 -0.17840221014 0.16594589981 -0.053604653875 -0.086802052295 0.17658566229 -0.10447780493 -0.19263576205 0.20793154811 
-0.12706569232 -0.23543175086 0.20831917576 -0.14707015558 -0.20872640214 0.00026820222525 -0.094685494826 -0.14440031999 0.11202007038 
-0.13908073879 -0.19090752981 -0.0085192029963 -0.14528281761 -0.24066016454 0.1141655907 -0.050522605328 -0.039028995042 0.04127216515 
-0.1491772851 -0.23048537874 0.057612410094 -0.04040774654 -0.0030125170382 -0.013260346066 -0.11409728083 -0.18446974107 0.12296862834 
-0.1244456047 -0.16016209345 -0.018502194408 -0.14585408112 -0.2304669251 0.077805059237 -0.098516488765 -0.10801868824 -0.028678684736 
-0.031670432498 -0.03067726151 0.12922130669 -0.086651010241 -0.096813438792 0.0074880913623 -0.1385459056 -0.2068685691 0.046223841 
-0.11766897384 -0.19940430525 0.14937481785 -0.11766956772 -0.1736235216 0.066213105377 -0.061034458507 -0.060012180524 0.04489417104 
-0.083227991412 -0.077711492141 -0.033266387854 -0.08890372853 -0.15453420873 0.17994285554 -0.030648835183 -0.026456251799 0.12183187228 
-0.13639341614 -0.18112286211 -0.023703470878 -0.030584783227 -0.026030137703 0.12084774887 -0.098570120012 -0.12313235227 0.11049563323 
-0.083846516922 -0.083895739029 0.081284809838 -0.074836657875 -0.061815827302 0.053652988667 -0.11304635519 -0.17717178822 0.061061153202 
-0.12439588367 -0.19972147569 0.12247538738 -0.10115721581 -0.14607171652 0.034526709509 -0.085016323587 -0.10276680289 0.0039769608311 
-0.12355852967 -0.20867424153 0.06428227819 -0.064591701771 -0.036381009015 0.023891886398 -0.073029494026 -0.039033056605 0.14088335955 
-0.12057441834 -0.21070207116 0.0079163202779 -0.10050720928 -0.15215297638 -0.006256810267 -0.071844971752 -0.032978815326 0.15317974179 
-0.1294870037 -0.23742219353 0.010590426362 -0.0689132226 -0.029482463935 0.12554556885 -0.11129195825 -0.18613870125 -0.011375326605 
-0.13248140581 -0.22822428602 0.10335737189 -0.066481509772 -0.030068063815 0.085006215922 -0.070782217341 -0.037509060419 0.11385744644 
-0.071664793778 -0.066713765431 -0.02012175833 -0.070724536985 -0.04661768503 0.066925506702 -0.13245130428 -0.2517963034 -0.016255194024 
-0.11249620273 -0.17579071795 0.059539941977 -0.1317665677 -0.21255068817 0.17153429847 -0.10963453674 -0.15319206095 0.12954355087 
-0.085651614217 -0.072229719177 0.16814774168 -0.12180695759 -0.17960656512 0.1841395112 -0.13688787158 -0.22667953204 0.17926245049 
-0.12701011424 -0.23712297811 -0.02617468317 -0.10853291507 -0.15531547665 0.10178619263 -0.12134164215 -0.22085152897 -0.031528665009 
-0.13224367931 -0.23379578567 0.071521813489 -0.061162290752 -0.025979938397 0.023467582225 -0.13063167131 -0.23900714041 0.020268680337 
-0.056356366132 -0.01804200985 -0.010679409066 -0.10975934964 -0.16301520679 0.081820211309 -0.11119432715 -0.19077777553 -0.036332821235 
-0.13324354606 -0.24195903086 0.045711594314 -0.093506541887 -0.13716744533 -0.038698180625 -0.061095015174 -0.0070477552511 0.11812273724 
-0.084966039433 -0.10546714851 -0.010449320867 -0.12107648306 -0.21196004457 0.0093165966881 -0.12631829616 -0.20428667111 0.12910881217 
-0.10691262377 -0.16487295095 0.028437106176 -0.080457744708 -0.080025797997 0.048476212376 -0.083131944839 -0.10549556805 -0.038936829544 
-0.10122932995 -0.12414549357 0.14646968198 -0.061140147697 -0.0079323069028 0.11434914477 -0.11896241034 -0.21591342589 -0.043336812873 
-0.067131407876 -0.023986559053 0.12578929802 
f 3 100 double
0 0 0 0 0 0 0 0 0 
0 0 0 0 0 0 0 0 0 
0 0 0 0 0 0 0.39070091679 0.01746535658 0.78218219121 
0 0 0 0 0 0 0 0 0 
0 0 0 0 0 0 0 0 0 
0 0 0 0 0 0 0 0 0 
0 0 0 0 0 0 0 0 0 
0 0 0 0 0 0 0 0 0 
0 0 0 0 0 0 0 0 0 
0 0 0 0 0 0 0 0 0 
0 0 0 0 0 0 0 0 0 
0 0 0 0 0 0 0 0 0 
0 0 0 0 0 0 0 0 0 
0 0 0 0 0 0 0 0 0 
0 0 0 0 0 0 0 0 0 
0 0 0 0 0 0 0 0 0 
0 0 0 0 0 0 0 0 0 
0 0 0 0 0 0 0 0 0 
0 0 0 0 0 0 0 0 0 
0 0 0 0.011415019568 -0.0029327614806 -0.023571488 0 0 0 
0 0 0 0 0 0 0 0 0 
0 0 0 0 0 0 0 0 0 
0 0 0 0 0 0 0 0 0 
0 0 0 0 0 0 0 0 0 
0 0 0 0 0 0 0 0 0 
0 0 0 0 0 0 0 0 0 
0 0 0 0 0 0 0 0 0 
0 0 0 0 0 0 0 0 0 
0 0 0 0 0 0 0 0 0 
0 0 0 0 0 0 0 0 0 
0 0 0 0 0 0 0 0 0 
0 0 0 0 0 0 0 0 0 
0 0 0 0 0 0 0 0 0 
0 0 0 
radius 1 100 double
0.010434 0.00981478 0.00892069 0.00845937 0.00731974 0.00728422 0.00643447 0.00619172 0.00585956 
0.00577566 0.00537241 0.00522549 0.00513666 0.00473175 0.00466912 0.00444866 0.00441894 0.00400812 
0.00385622 0.00379948 0.00370243 0.00366942 0.00364039 0.00363813 0.00363644 0.00358692 0.0035797 
0.00341284 0.00337012 0.00336273 0.00332772 0.00323261 0.00320584 0.00320311 0.00318808 0.00313116 
0.00306026 0.00305632 0.00304383 0.00300958 0.00300137 0.00298994 0.0029567 0.00295111 0.00290849 
0.00284552 0.00282964 0.0028207 0.00281971 0.00281899 0.010434 0.00981478 0.00892069 0.00845937 
0.00731974 0.00728422 0.00643447 0.00619172 0.00585956 0.00577566 0.00537241 0.00522549 0.00513666 
0.00473175 0.00466912 0.00444866 0.00441894 0.00400812 0.00385622 0.00379948 0.00370243 0.00366942 
0.00364039 0.00363813 0.00363644 0.00358692 0.0035797 0.00341284 0.00337012 0.00336273 0.00332772 
0.00323261 0.00320584 0.00320311 0.00318808 0.00313116 0.00306026 0.00305632 0.00304383 0.00300958 
0.00300137 0.00298994 0.0029567 0.00295111 0.00290849 0.00284552 0.00282964 0.0028207 0.00281971 
0.00281899 
omega 3 100 double
7.0270799262 -3.7193639173 -1.153082192 7.0270799262 -3.7193639173 -1.153082192 7.0270799262 -3.7193639173 -1.153082192 
7.0270799262 -3.7193639173 -1.153082192 7.0270799262 -3.7193639173 -1.153082192 7.0270799262 -3.7193639173 -1.153082192 
7.0270799262 -3.7193639173 -1.153082192 7.0270799262 -3.7193639173 -1.153082192 7.0270799262 -3.7193639173 -1.153082192 
7.0270799262 -3.7193639173 -1.153082192 7.0270799262 -3.7193639173 -1.153082192 7.0270799262 -3.7193639173 -1.153082192 
7.0270799262 -3.7193639173 -1.153082192 7.0270799262 -3.7193639173 -1.153082192 7.0270799262 -3.7193639173 -1.153082192 
7.0270799262 -3.7193639173 -1.153082192 7.0270799262 -3.7193639173 -1.153082192 7.0270799262 -3.7193639173 -1.153082192 
7.0270799262 -3.7193639173 -1.153082192 7.0270799262 -3.7193639173 -1.153082192 7.0270799262 -3.7193639173 -1.153082192 
7.0270799262 -3.7193639173 -1.153082192 7.0270799262 -3.7193639173 -1.153082192 7.0270799262 -3.7193639173 -1.153082192 
7.0270799262 -3.7193639173 -1.153082192 7.0270799262 -3.7193639173 -1.153082192 7.0270799262 -3.7193639173 -1.153082192 
7.0270799262 -3.7193639173 -1.153082192 7.0270799262 -3.7193639173 -1.153082192 7.0270799262 -3.7193639173 -1.153082192 
7.0270799262 -3.7193639173 -1.153082192 7.0270799262 -3.7193639173 -1.153082192 7.0270799262 -3.7193639173 -1.153082192 
7.0270799262 -3.7193639173 -1.153082192 7.0270799262 -3.7193639173 -1.153082192 7.0270799262 -3.7193639173 -1.153082192 
7.0270799262 -3.7193639173 -1.153082192 7.0270799262 -3.7193639173 -1.153082192 7.0270799262 -3.7193639173 -1.153082192 
7.0270799262 -3.7193639173 -1.153082192 7.0270799262 -3.7193639173 -1.153082192 7.0270799262 -3.7193639173 -1.153082192 
7.0270799262 -3.7193639173 -1.153082192 7.0270799262 -3.7193639173 -1.153082192 7.0270799262 -3.7193639173 -1.153082192 
7.0270799262 -3.7193639173 -1.153082192 7.0270799262 -3.7193639173 -1.153082192 7.0270799262 -3.7193639173 -1.153082192 
7.0270799262 -3.7193639173 -1.153082192 7.0270799262 -3.7193639173 -1.153082192 8.3791926576 -2.7406443131 0.54220676134 
8.3791926576 -2.7406443131 0.54220676134 8.3791926576 -2.7406443131 0.54220676134 8.3791926576 -2.7406443131 0.54220676134 
8.3791926576 -2.7406443131 0.54220676134 8.3791926576 -2.7406443131 0.54220676134 8.3791926576 -2.7406443131 0.54220676134 
8.3791926576 -2.7406443131 0.54220676134 8.3791926576 -2.7406443131 0.54220676134 8.3791926576 -2.7406443131 0.54220676134 
8.3791926576 -2.7406443131 0.54220676134 8.3791926576 -2.7406443131 0.54220676134 8.3791926576 -2.7406443131 0.54220676134 
8.3791926576 -2.7406443131 0.54220676134 8.3791926576 -2.7406443131 0.54220676134 8.3791926576 -2.7406443131 0.54220676134 
8.3791926576 -2.7406443131 0.54220676134 8.3791926576 -2.7406443131 0.54220676134 8.3791926576 -2.7406443131 0.54220676134 
8.3791926576 -2.7406443131 0.54220676134 8.3791926576 -2.7406443131 0.54220676134 8.3791926576 -2.7406443131 0.54220676134 
8.3791926576 -2.7406443131 0.54220676134 8.3791926576 -2.7406443131 0.54220676134 8.3791926576 -2.7406443131 0.54220676134 
8.3791926576 -2.7406443131 0.54220676134 8.3791926576 -2.7406443131 0.54220676134 8.3791926576 -2.7406443131 0.54220676134 
8.3791926576 -2.7406443131 0.54220676134 8.3791926576 -2.7406443131 0.54220676134 8.3791926576 -2.7406443131 0.54220676134 
8.3791926576 -2.7406443131 0.54220676134 8.3791926576 -2.7406443131 0.54220676134 8.3791926576 -2.7406443131 0.54220676134 
8.3791926576 -2.7406443131 0.54220676134 8.3791926576 -2.7406443131 0.54220676134 8.3791926576 -2.7406443131 0.54220676134 
8.3791926576 -2.7406443131 0.54220676134 8.3791926576 -2.7406443131 0.54220676134 8.3791926576 -2.7406443131 0.54220676134 
8.3791926576 -2.7406443131 0.54220676134 8.3791926576 -2.7406443131 0.54220676134 8.3791926576 -2.7406443131 0.54220676134 
8.3791926576 -2.7406443131 0.54220676134 8.3791926576 -2.7406443131 0.54220676134 8.3791926576 -2.7406443131 0.54220676134 
8.3791926576 -2.7406443131 0.54220676134 8.3791926576 -2.7406443131 0.54220676134 8.3791926576 -2.7406443131 0.54220676134 
8.3791926576 -2.7406443131 0.54220676134 
