# vtk DataFile Version 4.1
Generated by LIGGGHTS
ASCII
DATASET POLYDATA
POINTS 100 float
-0.118494 -0.143428 0.0143025 -0.12819 -0.141348 0.0109871 -0.137991 -0.139641 0.00973378 
-0.126098 -0.147918 0.0202215 -0.112591 -0.147238 0.0220948 -0.134337 -0.146431 0.0175838 
-0.144761 -0.144054 0.0139295 -0.118485 -0.151902 0.022019 -0.146676 -0.138544 0.00771443 
-0.120913 -0.135843 0.00665918 -0.132482 -0.152643 0.0233125 -0.141507 -0.148394 0.018289 
-0.125937 -0.13203 0.00780819 -0.127442 -0.155424 0.0251982 -0.132154 -0.132511 0.00776277 
-0.138089 -0.151658 0.0210728 -0.119686 -0.147466 0.026321 -0.143741 -0.132363 0.00898334 
-0.116738 -0.140763 0.00419873 -0.150711 -0.143084 0.0102461 -0.121397 -0.144632 0.00432945 
-0.13192 -0.157185 0.0267878 -0.11459 -0.152968 0.0170406 -0.105465 -0.144946 0.023938 
-0.108472 -0.146524 0.016027 -0.122338 -0.133186 0.0120509 -0.110666 -0.140073 0.0220676 
-0.108081 -0.143414 0.0265746 -0.13601 -0.156091 0.025712 -0.13033 -0.140531 0.0206351 
-0.138924 -0.154903 0.0243566 -0.11227 -0.15459 0.023625 -0.133607 -0.143814 0.00314913 
-0.12252 -0.156442 0.0245507 -0.152121 -0.139651 0.00545951 -0.111287 -0.1513 0.0157306 
-0.142849 -0.152732 0.0217051 -0.123008 -0.153334 0.0261569 -0.148067 -0.14889 0.0168 
-0.126133 -0.13517 0.00331467 -0.138623 -0.148476 0.0120145 -0.123933 -0.156177 0.0213246 
-0.120352 -0.143298 0.0249079 -0.120421 -0.153761 0.0158904 -0.145975 -0.137481 0.0136363 
-0.150817 -0.146626 0.0138689 -0.108083 -0.143668 0.0133616 -0.129152 -0.134356 0.00402142 
-0.142732 -0.154495 0.0242382 -0.13657 -0.130401 0.00827809 -0.0499103 -0.114594 0.0147301 
-0.0596708 -0.112996 0.0113365 -0.0695508 -0.111997 0.00995006 -0.0572295 -0.120317 0.0198951 
-0.043882 -0.118705 0.0222686 -0.0655027 -0.119257 0.0171604 -0.0760068 -0.11739 0.0134374 
-0.0493427 -0.123815 0.0215123 -0.0782491 -0.111427 0.00777468 -0.0528025 -0.106464 0.00784873 
-0.0632476 -0.125869 0.0222642 -0.0724892 -0.121882 0.017422 -0.0581657 -0.103234 0.00922645 
-0.0580296 -0.128401 0.0240114 -0.0643149 -0.10423 0.00892827 -0.0688649 -0.125125 0.0199585 
-0.0510265 -0.119983 0.026214 -0.0758952 -0.105192 0.00977921 -0.0481571 -0.110723 0.00502368 
-0.0819298 -0.116536 0.00968395 -0.0524619 -0.114963 0.0045964 -0.0623729 -0.130693 0.0252609 
-0.0452533 -0.124008 0.0165794 -0.0370279 -0.116031 0.024573 -0.039699 -0.117 0.0164464 
-0.0545801 -0.10453 0.0134398 -0.0425902 -0.111442 0.0230549 -0.039829 -0.115016 0.0272689 
-0.066516 -0.129839 0.024173 -0.0620996 -0.113401 0.0209421 -0.0694904 -0.128763 0.0228552 
-0.042956 -0.126126 0.0230296 -0.0646664 -0.115056 0.00311085 -0.0530233 -0.128924 0.0234216 
-0.0835223 -0.112741 0.00523997 -0.0420787 -0.121937 0.0155598 -0.0735269 -0.126659 0.0203192 
-0.0538185 -0.126059 0.0253278 -0.0789439 -0.122768 0.0156761 -0.0579819 -0.105879 0.00442473 
-0.069462 -0.121047 0.0112708 -0.0543782 -0.128435 0.0201967 -0.0520206 -0.115759 0.0252244 
-0.0509645 -0.125163 0.0151629 -0.0777831 -0.110949 0.0137951 -0.0818117 -0.120443 0.0129102 
-0.0394986 -0.113853 0.014109 -0.0610758 -0.105404 0.00511407 -0.073315 -0.128667 0.0226561 
-0.0689088 -0.102567 0.00951761 
VERTICES 100 200
1 0 
1 1 
1 2 
1 3 
1 4 
1 5 
1 6 
1 7 
1 8 
1 9 
1 10 
1 11 
1 12 
1 13 
1 14 
1 15 
1 16 
1 17 
1 18 
1 19 
1 20 
1 21 
1 22 
1 23 
1 24 
1 25 
1 26 
1 27 
1 28 
1 29 
1 30 
1 31 
1 32 
1 33 
1 34 
1 35 
1 36 
1 37 
1 38 
1 39 
1 40 
1 41 
1 42 
1 43 
1 44 
1 45 
1 46 
1 47 
1 48 
1 49 
1 50 
1 51 
1 52 
1 53 
1 54 
1 55 
1 56 
1 57 
1 58 
1 59 
1 60 
1 61 
1 62 
1 63 
1 64 
1 65 
1 66 
1 67 
1 68 
1 69 
1 70 
1 71 
1 72 
1 73 
1 74 
1 75 
1 76 
1 77 
1 78 
1 79 
1 80 
1 81 
1 82 
1 83 
1 84 
1 85 
1 86 
1 87 
1 88 
1 89 
1 90 
1 91 
1 92 
1 93 
1 94 
1 95 
1 96 
1 97 
1 98 
1 99 

POINT_DATA 100
FIELD FieldData 7
id 1 100 int
1 2 3 4 5 6 7 8 9 
10 11 12 13 14 15 16 17 18 
19 20 21 22 23 24 25 26 27 
28 29 30 31 32 33 34 35 36 
37 38 39 40 41 42 43 44 45 
46 47 48 49 50 51 52 53 54 
55 56 57 58 59 60 61 62 63 
64 65 66 67 68 69 70 71 72 
73 74 75 76 77 78 79 80 81 
82 83 84 85 86 87 88 89 90 
91 92 93 94 95 96 97 98 99 
100 
mol 1 100 int
1 1 1 1 1 1 1 1 1 
1 1 1 1 1 1 1 1 1 
1 1 1 1 1 1 1 1 1 
1 1 1 1 1 1 1 1 1 
1 1 1 1 1 1 1 1 1 
1 1 1 1 1 2 2 2 2 
2 2 2 2 2 2 2 2 2 
2 2 2 2 2 2 2 2 2 
2 2 2 2 2 2 2 2 2 
2 2 2 2 2 2 2 2 2 
2 2 2 2 2 2 2 2 2 
2 
type 1 100 int
1 1 1 1 1 1 1 1 1 
1 1 1 1 1 1 1 1 1 
1 1 1 1 1 1 1 1 1 
1 1 1 1 1 1 1 1 1 
1 1 1 1 1 1 1 1 1 
1 1 1 1 1 1 1 1 1 
1 1 1 1 1 1 1 1 1 
1 1 1 1 1 1 1 1 1 
1 1 1 1 1 1 1 1 1 
1 1 1 1 1 1 1 1 1 
1 1 1 1 1 1 1 1 1 
1 
v 3 100 double
0.11137611025 -0.14809911542 -0.1169455767 0.091034279536 -0.098260602966 -0.026181981031 0.085670789921 -0.063910251291 0.062530642691 
0.14573103034 -0.17408802816 -0.092525544369 0.161915947 -0.22254272299 -0.19162208006 0.12912134358 -0.13311050388 -0.017550236512 
0.10691316578 -0.078841177791 0.081107647857 0.14953735129 -0.2070621934 -0.18173961281 0.072850679547 -0.026527250669 0.13797677305 
0.071532836959 -0.083600584046 -0.040326419815 0.15765228468 -0.18155744241 -0.07932112244 0.12960465121 -0.12036855549 0.022828288821 
0.090043396299 -0.079676106565 0.027587603744 0.16518240346 -0.20870271986 -0.13948078566 0.08847781694 -0.063609999025 0.071928794828 
0.14284977128 -0.15027495446 -0.028497627357 0.19397141837 -0.23688860222 -0.13858773277 0.09827525227 -0.043641437892 0.16252133417 
0.04009334116 -0.075361288749 -0.11015127214 0.080922956034 -0.035666021339 0.13445320676 0.031321481534 -0.06458170186 -0.10372979387 
0.17300489384 -0.20952326784 -0.11835234963 0.10840154661 -0.17888342192 -0.21995865649 0.18194170291 -0.25463869638 -0.22914886806 
0.11686497282 -0.18660902387 -0.21798411205 0.11988301567 -0.12118239087 -0.0090301415342 0.17981839017 -0.22720107584 -0.15176030486 
0.2061751359 -0.26816434359 -0.19724255617 0.16746531824 -0.19096706279 -0.078412477977 0.16759904953 -0.16654666119 -0.0034201596898 
0.16000161653 -0.17324608198 -0.046837171968 0.15514319071 -0.23504222304 -0.25026286294 0.024275266106 -0.024695367795 -0.0031925291801 
0.15760969312 -0.21620111922 -0.18526345555 0.052641779253 0.0044627462182 0.17157218253 0.10250340015 -0.17722816688 -0.23272344837 
0.14501574015 -0.14306894333 5.6199777982e-05 0.17786919443 -0.22723671406 -0.15775840585 0.11685137859 -0.092410219522 0.069690208993 
0.047408218885 -0.044855421254 0.0051250725005 0.080946671859 -0.079733626176 -7.2689120908e-05 0.13336822734 -0.1879859255 -0.17232713399 
0.19359724851 -0.22441126071 -0.10160816774 0.097514209534 -0.15535524699 -0.18099027521 0.12126666521 -0.073532824892 0.14068846719 
0.099941376109 -0.063068305107 0.10821901509 0.10350308419 -0.16723312465 -0.19917474835 0.054922949101 -0.042622510109 0.034649959291 
0.16011878709 -0.16271633859 -0.014321715049 0.097791556437 -0.05638300544 0.12214279913 0.085948101453 -0.11867921866 -0.10425578426 
0.064410908044 -0.08717612799 -0.027473741381 0.05583595748 -0.070481340687 0.045651744582 0.11659176467 -0.15223494491 -0.098016430933 
0.1334274779 -0.17850111827 -0.17484707017 0.09908880742 -0.12658415029 -0.035117652579 0.075534286897 -0.092154677092 0.048606037458 
0.12508010081 -0.16934820255 -0.17642072855 0.041735101946 -0.048702201337 0.10774422686 0.045448950978 -0.065767020716 -0.024721693095 
0.12874850723 -0.16589945181 -0.099154220573 0.099125013887 -0.123989539 -0.0081107228453 0.056709939472 -0.072503915439 0.034908571377 
0.1387279452 -0.18224415437 -0.15264246556 0.05408014241 -0.06630148636 0.068429019693 0.11389337245 -0.14515367532 -0.056272235579 
0.15884358514 -0.20312530031 -0.13680008984 0.059116105939 -0.065096460505 0.13832578428 0.023892176944 -0.047830103316 -0.087208478371 
0.051119987104 -0.060473361366 0.094338072142 0.018297999737 -0.041867177197 -0.090016775754 0.14555188008 -0.18869222167 -0.14075412584 
0.092139835456 -0.13541723493 -0.20505736724 0.15049218632 -0.20004018878 -0.20061103174 0.095803930219 -0.13803599862 -0.19002848593 
0.083896455992 -0.10607899029 0.0014447825759 0.14337183054 -0.18517110221 -0.12957621427 0.16908469694 -0.21821664157 -0.17445199078 
0.13886962816 -0.17793471432 -0.10685429672 0.12804544853 -0.15683922171 -0.014326190426 0.1308017992 -0.16623098158 -0.079089223952 
0.13367377462 -0.18474638646 -0.23604286239 0.0083553525943 -0.022928608681 -0.0095225627572 0.13446505661 -0.18111946505 -0.18982712636 
0.024021214037 -0.02648111842 0.13308022674 0.086701713072 -0.12991573458 -0.21081176091 0.11529722718 -0.14480279695 -0.03663409007 
0.14900516068 -0.19474088787 -0.16328864741 0.086936141066 -0.10685178738 0.02825857403 0.023051355046 -0.037011379631 0.014068827956 
0.058748005464 -0.080334119474 -0.022057300426 0.11332971227 -0.15632251661 -0.17718705876 0.15500253495 -0.19514096477 -0.098857171608 
0.081967909331 -0.1212053794 -0.17562907879 0.082093712492 -0.093654593874 0.10818738193 0.070045992008 -0.084477377365 0.064578951563 
0.08229802105 -0.12083091393 -0.16801884589 0.027945744339 -0.040115848584 0.038178104826 0.12953978921 -0.1622725304 -0.052938484548 
0.05907958723 -0.067690727863 0.11131881168 
f 3 100 double
0 0 0 0 0 0 0 0 0 
0 0 0 0 0 0 0 0 0 
0 0 0 0 0 0 0 0 0 
0 0 0 0 0 0 0 0 0 
0 0 0 0 0 0 0 0 0 
0 0 0 0 0 0 0 0 0 
0 0 0 0 0 0 0 0 0 
0 0 0 0 0 0 0 0 0 
0 0 0 0 0 0 0 0 0 
0 0 0 0 0 0 0 0 0 
0 0 0 0 0 0 0.013436203913 0.0043004711574 0.23466470405 
0 0 0 0 0 0 0 0 0 
0 0 0 0 0 0 0 0 0 
0 0 0 0 0 0 0 0 0 
0 0 0 0 0 0 0 0 0 
0 0 0 0 0 0 0 0 0 
0 0 0 0 0 0 0 0 0 
0 0 0 0 0 0 0 0 0 
0 0 0 0 0 0 0 0 0 
0 0 0 0 0 0 0 0 0 
0 0 0 0 0 0 0 0 0 
0 0 0 0 0 0 0 0 0 
0 0 0 0 0 0 0 0 0 
0 0 0 0 0 0 0 0 0 
0 0 0 0 0 0 0 0 0 
0 0 0 0 0 0 0 0 0 
0 0 0 0 0 0 0 0 0 
0 0 0 0.12015301589 -0.014498013139 0.54939215294 0 0 0 
0 0 0 0 0 0 0 0 0 
0 0 0 0 0 0 0 0 0 
0 0 0 0 0 0 0 0 0 
0 0 0 0 0 0 0 0 0 
0 0 0 0 0 0 0 0 0 
0 0 0 
radius 1 100 double
0.010434 0.00981478 0.00892069 0.00845937 0.00731974 0.00728422 0.00643447 0.00619172 0.00585956 
0.00577566 0.00537241 0.00522549 0.00513666 0.00473175 0.00466912 0.00444866 0.00441894 0.00400812 
0.00385622 0.00379948 0.00370243 0.00366942 0.00364039 0.00363813 0.00363644 0.00358692 0.0035797 
0.00341284 0.00337012 0.00336273 0.00332772 0.00323261 0.00320584 0.00320311 0.00318808 0.00313116 
0.00306026 0.00305632 0.00304383 0.00300958 0.00300137 0.00298994 0.0029567 0.00295111 0.00290849 
0.00284552 0.00282964 0.0028207 0.00281971 0.00281899 0.010434 0.00981478 0.00892069 0.00845937 
0.00731974 0.00728422 0.00643447 0.00619172 0.00585956 0.00577566 0.00537241 0.00522549 0.00513666 
0.00473175 0.00466912 0.00444866 0.00441894 0.00400812 0.00385622 0.00379948 0.00370243 0.00366942 
0.00364039 0.00363813 0.00363644 0.00358692 0.0035797 0.00341284 0.00337012 0.00336273 0.00332772 
0.00323261 0.00320584 0.00320311 0.00318808 0.00313116 0.00306026 0.00305632 0.00304383 0.00300958 
0.00300137 0.00298994 0.0029567 0.00295111 0.00290849 0.00284552 0.00282964 0.0028207 0.00281971 
0.00281899 
omega 3 100 double
7.6384701507 7.721818379 -2.5281443852 7.6384701507 7.721818379 -2.5281443852 7.6384701507 7.721818379 -2.5281443852 
7.6384701507 7.721818379 -2.5281443852 7.6384701507 7.721818379 -2.5281443852 7.6384701507 7.721818379 -2.5281443852 
7.6384701507 7.721818379 -2.5281443852 7.6384701507 7.721818379 -2.5281443852 7.6384701507 7.721818379 -2.5281443852 
7.6384701507 7.721818379 -2.5281443852 7.6384701507 7.721818379 -2.5281443852 7.6384701507 7.721818379 -2.5281443852 
7.6384701507 7.721818379 -2.5281443852 7.6384701507 7.721818379 -2.5281443852 7.6384701507 7.721818379 -2.5281443852 
7.6384701507 7.721818379 -2.5281443852 7.6384701507 7.721818379 -2.5281443852 7.6384701507 7.721818379 -2.5281443852 
7.6384701507 7.721818379 -2.5281443852 7.6384701507 7.721818379 -2.5281443852 7.6384701507 7.721818379 -2.5281443852 
7.6384701507 7.721818379 -2.5281443852 7.6384701507 7.721818379 -2.5281443852 7.6384701507 7.721818379 -2.5281443852 
7.6384701507 7.721818379 -2.5281443852 7.6384701507 7.721818379 -2.5281443852 7.6384701507 7.721818379 -2.5281443852 
7.6384701507 7.721818379 -2.5281443852 7.6384701507 7.721818379 -2.5281443852 7.6384701507 7.721818379 -2.5281443852 
7.6384701507 7.721818379 -2.5281443852 7.6384701507 7.721818379 -2.5281443852 7.6384701507 7.721818379 -2.5281443852 
7.6384701507 7.721818379 -2.5281443852 7.6384701507 7.721818379 -2.5281443852 7.6384701507 7.721818379 -2.5281443852 
7.6384701507 7.721818379 -2.5281443852 7.6384701507 7.721818379 -2.5281443852 7.6384701507 7.721818379 -2.5281443852 
7.6384701507 7.721818379 -2.5281443852 7.6384701507 7.721818379 -2.5281443852 7.6384701507 7.721818379 -2.5281443852 
7.6384701507 7.721818379 -2.5281443852 7.6384701507 7.721818379 -2.5281443852 7.6384701507 7.721818379 -2.5281443852 
7.6384701507 7.721818379 -2.5281443852 7.6384701507 7.721818379 -2.5281443852 7.6384701507 7.721818379 -2.5281443852 
7.6384701507 7.721818379 -2.5281443852 7.6384701507 7.721818379 -2.5281443852 7.416470709 6.6521672168 -0.64903017696 
7.416470709 6.6521672168 -0.64903017696 7.416470709 6.6521672168 -0.64903017696 7.416470709 6.6521672168 -0.64903017696 
7.416470709 6.6521672168 -0.64903017696 7.416470709 6.6521672168 -0.64903017696 7.416470709 6.6521672168 -0.64903017696 
7.416470709 6.6521672168 -0.64903017696 7.416470709 6.6521672168 -0.64903017696 7.416470709 6.6521672168 -0.64903017696 
7.416470709 6.6521672168 -0.64903017696 7.416470709 6.6521672168 -0.64903017696 7.416470709 6.6521672168 -0.64903017696 
7.416470709 6.6521672168 -0.64903017696 7.416470709 6.6521672168 -0.64903017696 7.416470709 6.6521672168 -0.64903017696 
7.416470709 6.6521672168 -0.64903017696 7.416470709 6.6521672168 -0.64903017696 7.416470709 6.6521672168 -0.64903017696 
7.416470709 6.6521672168 -0.64903017696 7.416470709 6.6521672168 -0.64903017696 7.416470709 6.6521672168 -0.64903017696 
7.416470709 6.6521672168 -0.64903017696 7.416470709 6.6521672168 -0.64903017696 7.416470709 6.6521672168 -0.64903017696 
7.416470709 6.6521672168 -0.64903017696 7.416470709 6.6521672168 -0.64903017696 7.416470709 6.6521672168 -0.64903017696 
7.416470709 6.6521672168 -0.64903017696 7.416470709 6.6521672168 -0.64903017696 7.416470709 6.6521672168 -0.64903017696 
7.416470709 6.6521672168 -0.64903017696 7.416470709 6.6521672168 -0.64903017696 7.416470709 6.6521672168 -0.64903017696 
7.416470709 6.6521672168 -0.64903017696 7.416470709 6.6521672168 -0.64903017696 7.416470709 6.6521672168 -0.64903017696 
7.416470709 6.6521672168 -0.64903017696 7.416470709 6.6521672168 -0.64903017696 7.416470709 6.6521672168 -0.64903017696 
7.416470709 6.6521672168 -0.64903017696 7.416470709 6.6521672168 -0.64903017696 7.416470709 6.6521672168 -0.64903017696 
7.416470709 6.6521672168 -0.64903017696 7.416470709 6.6521672168 -0.64903017696 7.416470709 6.6521672168 -0.64903017696 
7.416470709 6.6521672168 -0.64903017696 7.416470709 6.6521672168 -0.64903017696 7.416470709 6.6521672168 -0.64903017696 
7.416470709 6.6521672168 -0.64903017696 
