# vtk DataFile Version 4.1
Generated by LIGGGHTS
ASCII
DATASET POLYDATA
POINTS 100 float
-0.112914 -0.131458 0.0235838 -0.123165 -0.132388 0.0217439 -0.133187 -0.132649 0.0218799 
-0.118677 -0.133337 0.0323164 -0.105451 -0.130281 0.0308631 -0.127309 -0.134284 0.0310374 
-0.13837 -0.135206 0.0289172 -0.110261 -0.135035 0.034144 -0.142099 -0.133684 0.0214057 
-0.117724 -0.128892 0.0139872 -0.123559 -0.136658 0.0384633 -0.133802 -0.136465 0.0340138 
-0.123224 -0.12561 0.0142568 -0.117872 -0.137567 0.0403403 -0.129178 -0.126764 0.015709 
-0.129484 -0.137541 0.0372204 -0.111777 -0.129237 0.0360717 -0.140319 -0.127376 0.0190646 
-0.112991 -0.133869 0.0132663 -0.144803 -0.136845 0.0265035 -0.116733 -0.137692 0.016108 
-0.121678 -0.138833 0.0434384 -0.10688 -0.137933 0.0295333 -0.0987506 -0.126578 0.0299477 
-0.102341 -0.132144 0.0244476 -0.118969 -0.12413 0.0177198 -0.105009 -0.12387 0.0271564 
-0.101272 -0.124269 0.0320582 -0.126004 -0.13888 0.0428416 -0.124211 -0.127228 0.0301473 
-0.129242 -0.138848 0.0417202 -0.103485 -0.135864 0.0354964 -0.128912 -0.138965 0.0172076 
-0.112965 -0.138196 0.0392418 -0.147452 -0.136367 0.0210771 -0.104163 -0.136747 0.0269597 
-0.133819 -0.138712 0.0392332 -0.113859 -0.13478 0.0393033 -0.140265 -0.138376 0.0342953 
-0.123347 -0.130539 0.0118538 -0.13176 -0.13926 0.0280375 -0.114792 -0.139701 0.0366199 
-0.11343 -0.126394 0.0330724 -0.112533 -0.139852 0.030095 -0.140895 -0.129798 0.0258938 
-0.143752 -0.13816 0.0312838 -0.102862 -0.130925 0.0207527 -0.126356 -0.129838 0.0127081 
-0.133039 -0.138991 0.0422087 -0.133827 -0.125195 0.0160881 -0.0440335 -0.103664 0.0232296 
-0.054238 -0.104597 0.0211472 -0.0642602 -0.104875 0.02105 -0.0499935 -0.105614 0.0318134 
-0.0367424 -0.102528 0.0306875 -0.0585924 -0.106565 0.0303288 -0.0695996 -0.107489 0.0279475 
-0.041619 -0.107312 0.0338227 -0.0731572 -0.105919 0.0203629 -0.048625 -0.101037 0.0135431 
-0.0550104 -0.108986 0.0378224 -0.065148 -0.108778 0.0331392 -0.0541354 -0.0977659 0.0137089 
-0.0493667 -0.1099 0.0398236 -0.0601195 -0.0989394 0.015015 -0.0609031 -0.10987 0.0364368 
-0.0431892 -0.101531 0.0357559 -0.0713338 -0.0995924 0.0181082 -0.0438684 -0.106002 0.0128963 
-0.0759726 -0.109121 0.0253744 -0.0476688 -0.109851 0.0156238 -0.0532405 -0.111194 0.0428241 
-0.0381275 -0.110173 0.0292708 -0.030029 -0.0988086 0.0299532 -0.0334821 -0.10434 0.0243324 
-0.049964 -0.0963037 0.0172795 -0.0362264 -0.0960897 0.0270374 -0.0326021 -0.096518 0.0320212 
-0.0575523 -0.111243 0.0421272 -0.0554861 -0.0994987 0.0295605 -0.0607632 -0.111208 0.0409316 
-0.0348746 -0.108141 0.0353253 -0.059868 -0.11115 0.016433 -0.0444344 -0.110514 0.0388342 
-0.0784963 -0.108608 0.0198919 -0.0353545 -0.108964 0.0267691 -0.0652817 -0.111061 0.0383407 
-0.0453352 -0.1071 0.0388993 -0.0716123 -0.1107 0.0332578 -0.0541952 -0.102678 0.0112688 
-0.062964 -0.111527 0.0271919 -0.0461977 -0.112003 0.0361603 -0.0447768 -0.0986686 0.0327395 
-0.0437891 -0.112104 0.0296884 -0.0720635 -0.102063 0.0249049 -0.07503 -0.110468 0.0301682 
-0.0339199 -0.103096 0.0206352 -0.057224 -0.101988 0.0120584 -0.0645702 -0.11136 0.0413314 
-0.0647782 -0.0973799 0.0152979 
VERTICES 100 200
1 0 
1 1 
1 2 
1 3 
1 4 
1 5 
1 6 
1 7 
1 8 
1 9 
1 10 
1 11 
1 12 
1 13 
1 14 
1 15 
1 16 
1 17 
1 18 
1 19 
1 20 
1 21 
1 22 
1 23 
1 24 
1 25 
1 26 
1 27 
1 28 
1 29 
1 30 
1 31 
1 32 
1 33 
1 34 
1 35 
1 36 
1 37 
1 38 
1 39 
1 40 
1 41 
1 42 
1 43 
1 44 
1 45 
1 46 
1 47 
1 48 
1 49 
1 50 
1 51 
1 52 
1 53 
1 54 
1 55 
1 56 
1 57 
1 58 
1 59 
1 60 
1 61 
1 62 
1 63 
1 64 
1 65 
1 66 
1 67 
1 68 
1 69 
1 70 
1 71 
1 72 
1 73 
1 74 
1 75 
1 76 
1 77 
1 78 
1 79 
1 80 
1 81 
1 82 
1 83 
1 84 
1 85 
1 86 
1 87 
1 88 
1 89 
1 90 
1 91 
1 92 
1 93 
1 94 
1 95 
1 96 
1 97 
1 98 
1 99 

POINT_DATA 100
FIELD FieldData 7
id 1 100 int
1 2 3 4 5 6 7 8 9 
10 11 12 13 14 15 16 17 18 
19 20 21 22 23 24 25 26 27 
28 29 30 31 32 33 34 35 36 
37 38 39 40 41 42 43 44 45 
46 47 48 49 50 51 52 53 54 
55 56 57 58 59 60 61 62 63 
64 65 66 67 68 69 70 71 72 
73 74 75 76 77 78 79 80 81 
82 83 84 85 86 87 88 89 90 
91 92 93 94 95 96 97 98 99 
100 
mol 1 100 int
1 1 1 1 1 1 1 1 1 
1 1 1 1 1 1 1 1 1 
1 1 1 1 1 1 1 1 1 
1 1 1 1 1 1 1 1 1 
1 1 1 1 1 1 1 1 1 
1 1 1 1 1 2 2 2 2 
2 2 2 2 2 2 2 2 2 
2 2 2 2 2 2 2 2 2 
2 2 2 2 2 2 2 2 2 
2 2 2 2 2 2 2 2 2 
2 2 2 2 2 2 2 2 2 
2 
type 1 100 int
1 1 1 1 1 1 1 1 1 
1 1 1 1 1 1 1 1 1 
1 1 1 1 1 1 1 1 1 
1 1 1 1 1 1 1 1 1 
1 1 1 1 1 1 1 1 1 
1 1 1 1 1 1 1 1 1 
1 1 1 1 1 1 1 1 1 
1 1 1 1 1 1 1 1 1 
1 1 1 1 1 1 1 1 1 
1 1 1 1 1 1 1 1 1 
1 1 1 1 1 1 1 1 1 
1 
v 3 100 double
-0.11668421438 -0.061858246887 0.018354530252 -0.10342323658 -0.061569142498 -0.055679911066 -0.10429942198 -0.064982182908 -0.12682356001 
-0.17764639047 -0.080352567035 -0.025859104946 -0.16836459174 -0.073415223708 0.073207449931 -0.16833321055 -0.080625369952 -0.088513851792 
-0.1530984872 -0.080055378499 -0.16823870088 -0.18999483812 -0.08119582689 0.030220206969 -0.10063132012 -0.06688028381 -0.19161733936 
-0.049848353474 -0.045040208136 -0.010646880982 -0.21992965835 -0.093630544771 -0.06661484888 -0.18862719483 -0.088353736914 -0.13844367592 
-0.052781398121 -0.047285778283 -0.043147589344 -0.23287391867 -0.09542664241 -0.028264854011 -0.062654035791 -0.051933007042 -0.087320955161 
-0.21089052876 -0.093120212486 -0.11006097397 -0.20540684629 -0.085355249576 0.030606445356 -0.086114068359 -0.061848126317 -0.16701914235 
-0.043200615488 -0.04217399116 0.013205336369 -0.13556915018 -0.077468752907 -0.21671565093 -0.062028330924 -0.048779646971 -0.020474250718 
-0.25431335469 -0.10254198708 -0.057506604082 -0.15658295404 -0.071324501897 0.04851662291 -0.16307700503 -0.069558520312 0.12750767261 
-0.12255762567 -0.060181875431 0.091569933679 -0.077656338971 -0.052561938824 -0.010327653231 -0.14425438003 -0.066195845745 0.088564814951 
-0.17867989469 -0.074383215391 0.11414853897 -0.25009146583 -0.10276320704 -0.088094989369 -0.16427929787 -0.077950302243 -0.053196119774 
-0.24219733737 -0.10163978888 -0.11085435157 -0.1992666386 -0.081647255599 0.076398577976 -0.069378934223 -0.054712136862 -0.10875367244 
-0.22493273729 -0.091784305823 0.0051220946664 -0.097471073373 -0.067936699234 -0.23447128176 -0.13881598802 -0.065553828138 0.06993001411 
-0.22471008498 -0.098329127984 -0.1428550426 -0.22644111059 -0.09218299409 0.0053479588201 -0.19000986089 -0.090924703776 -0.18764713869 
-0.034292486239 -0.042734425529 -0.053434110014 -0.14562218682 -0.076295169188 -0.12938858882 -0.20597850119 -0.087350727018 -0.010628067413 
-0.18515993525 -0.080145805003 0.024389993145 -0.15993910479 -0.074176317087 0.0050028519048 -0.13348896815 -0.07507456692 -0.17570748189 
-0.16885036889 -0.086269404753 -0.21181880663 -0.096896720918 -0.053287808361 0.090224557832 -0.040534710014 -0.045312908311 -0.073302140377 
-0.24559575705 -0.103767595 -0.13789133219 -0.065819964155 -0.054119739603 -0.11708960381 -0.1158755943 -0.061509283248 -0.029679921545 
-0.10114138782 -0.061063670286 -0.10207989532 -0.1003746476 -0.064257204747 -0.17199779546 -0.17465770029 -0.079516255563 -0.074585837969 
-0.16790058459 -0.072955557383 0.022926512795 -0.164057602 -0.079644486018 -0.13590153947 -0.14725647712 -0.078912014787 -0.21384420281 
-0.18799984155 -0.080441767684 -0.019760777191 -0.09526511088 -0.065972281208 -0.23555224194 -0.049684506935 -0.044999533532 -0.05657737303 
-0.21513200876 -0.092406345673 -0.11561160018 -0.1827729778 -0.087090384271 -0.18542054903 -0.051934433368 -0.04716418098 -0.088637426896 
-0.22868217858 -0.094236282146 -0.078234005504 -0.060583744067 -0.051613806421 -0.13226202119 -0.20523999389 -0.091807812367 -0.15806204014 
-0.20333325385 -0.084573982636 -0.019856962136 -0.081782755312 -0.061155596587 -0.21113342335 -0.043534252226 -0.042192360838 -0.032895053454 
-0.12888937629 -0.076261719615 -0.26101648908 -0.061124910532 -0.048556007401 -0.066384157157 -0.24902326246 -0.10113347919 -0.1074698503 
-0.15551654923 -0.070781313704 -0.00091523050775 -0.16406817805 -0.069326288097 0.076345702385 -0.12328431947 -0.060011974398 0.042123801727 
-0.077151751403 -0.052415154978 -0.057026249467 -0.14479347092 -0.065978167535 0.038499640116 -0.17915983835 -0.074047530843 0.062798188088 
-0.24418102805 -0.10128639123 -0.13741945031 -0.16111660756 -0.077166328717 -0.10121983701 -0.23591424945 -0.10013909182 -0.15958800291 
-0.19812523663 -0.0809714613 0.025397234465 -0.066290988142 -0.054172185862 -0.15328039228 -0.22162417933 -0.090731216136 -0.045224830238 
-0.091098126921 -0.066892097979 -0.27753489541 -0.13860025078 -0.065184361598 0.020540213856 -0.21802254115 -0.096831064543 -0.19060273126 
-0.22322430521 -0.091155747558 -0.045097333703 -0.18294744924 -0.089488279721 -0.23376627945 -0.033384035182 -0.042636051157 -0.09820763624 
-0.14066475577 -0.07526920243 -0.1754211781 -0.20260705907 -0.086340735448 -0.060209348736 -0.18340912011 -0.079485855135 -0.025515647342 
-0.15775766571 -0.073466027712 -0.043718967979 -0.12801528429 -0.074070414823 -0.22079206695 -0.16163119676 -0.084880040999 -0.25699996039 
-0.098101440875 -0.05326774806 0.041411274276 -0.039083943064 -0.045127662622 -0.11789356733 -0.23863095147 -0.10216610051 -0.18623366488 
-0.063067253629 -0.053709677908 -0.16161469062 
f 3 100 double
0 0 0 0 0 0 0 0 0 
0 0 0 0 0 0 0 0 0 
0 0 0 0 0 0 0 0 0 
0 0 0 0 0 0 0 0 0 
0 0 0 0 0 0 0 0 0 
0 0 0 0 0 0 0 0 0 
0 0 0 0 0 0 0 0 0 
0 0 0 0 0 0 0 0 0 
0 0 0 0 0 0 0 0 0 
0 0 0 0 0 0 0 0 0 
0 0 0 0 0 0 0 0 0 
0 0 0 0 0 0 0 0 0 
0 0 0 0 0 0 0 0 0 
0 0 0 0 0 0 0 0 0 
0 0 0 0 0 0 0 0 0 
0 0 0 0 0 0 0 0 0 
0 0 0 0 0 0 0 0 0 
0 0 0 0 0 0 0 0 0 
0 0 0 0 0 0 0 0 0 
0 0 0 0 0 0 0 0 0 
0 0 0 0 0 0 0 0 0 
0 0 0 0 0 0 0 0 0 
0 0 0 0 0 0 0 0 0 
0 0 0 0 0 0 0 0 0 
0 0 0 0 0 0 0 0 0 
0 0 0 0 0 0 0 0 0 
0 0 0 0 0 0 0 0 0 
0 0 0 0 0 0 0 0 0 
0 0 0 0 0 0 0 0 0 
0 0 0 0 0 0 0 0 0 
0 0 0 0 0 0 0 0 0 
0 0 0 0 0 0 0 0 0 
0 0 0 0 0 0 0 0 0 
0 0 0 
radius 1 100 double
0.010434 0.00981478 0.00892069 0.00845937 0.00731974 0.00728422 0.00643447 0.00619172 0.00585956 
0.00577566 0.00537241 0.00522549 0.00513666 0.00473175 0.00466912 0.00444866 0.00441894 0.00400812 
0.00385622 0.00379948 0.00370243 0.00366942 0.00364039 0.00363813 0.00363644 0.00358692 0.0035797 
0.00341284 0.00337012 0.00336273 0.00332772 0.00323261 0.00320584 0.00320311 0.00318808 0.00313116 
0.00306026 0.00305632 0.00304383 0.00300958 0.00300137 0.00298994 0.0029567 0.00295111 0.00290849 
0.00284552 0.00282964 0.0028207 0.00281971 0.00281899 0.010434 0.00981478 0.00892069 0.00845937 
0.00731974 0.00728422 0.00643447 0.00619172 0.00585956 0.00577566 0.00537241 0.00522549 0.00513666 
0.00473175 0.00466912 0.00444866 0.00441894 0.00400812 0.00385622 0.00379948 0.00370243 0.00366942 
0.00364039 0.00363813 0.00363644 0.00358692 0.0035797 0.00341284 0.00337012 0.00336273 0.00332772 
0.00323261 0.00320584 0.00320311 0.00318808 0.00313116 0.00306026 0.00305632 0.00304383 0.00300958 
0.00300137 0.00298994 0.0029567 0.00295111 0.00290849 0.00284552 0.00282964 0.0028207 0.00281971 
0.00281899 
omega 3 100 double
1.9102010752 -7.0486976914 0.3146282217 1.9102010752 -7.0486976914 0.3146282217 1.9102010752 -7.0486976914 0.3146282217 
1.9102010752 -7.0486976914 0.3146282217 1.9102010752 -7.0486976914 0.3146282217 1.9102010752 -7.0486976914 0.3146282217 
1.9102010752 -7.0486976914 0.3146282217 1.9102010752 -7.0486976914 0.3146282217 1.9102010752 -7.0486976914 0.3146282217 
1.9102010752 -7.0486976914 0.3146282217 1.9102010752 -7.0486976914 0.3146282217 1.9102010752 -7.0486976914 0.3146282217 
1.9102010752 -7.0486976914 0.3146282217 1.9102010752 -7.0486976914 0.3146282217 1.9102010752 -7.0486976914 0.3146282217 
1.9102010752 -7.0486976914 0.3146282217 1.9102010752 -7.0486976914 0.3146282217 1.9102010752 -7.0486976914 0.3146282217 
1.9102010752 -7.0486976914 0.3146282217 1.9102010752 -7.0486976914 0.3146282217 1.9102010752 -7.0486976914 0.3146282217 
1.9102010752 -7.0486976914 0.3146282217 1.9102010752 -7.0486976914 0.3146282217 1.9102010752 -7.0486976914 0.3146282217 
1.9102010752 -7.0486976914 0.3146282217 1.9102010752 -7.0486976914 0.3146282217 1.9102010752 -7.0486976914 0.3146282217 
1.9102010752 -7.0486976914 0.3146282217 1.9102010752 -7.0486976914 0.3146282217 1.9102010752 -7.0486976914 0.3146282217 
1.9102010752 -7.0486976914 0.3146282217 1.9102010752 -7.0486976914 0.3146282217 1.9102010752 -7.0486976914 0.3146282217 
1.9102010752 -7.0486976914 0.3146282217 1.9102010752 -7.0486976914 0.3146282217 1.9102010752 -7.0486976914 0.3146282217 
1.9102010752 -7.0486976914 0.3146282217 1.9102010752 -7.0486976914 0.3146282217 1.9102010752 -7.0486976914 0.3146282217 
1.9102010752 -7.0486976914 0.3146282217 1.9102010752 -7.0486976914 0.3146282217 1.9102010752 -7.0486976914 0.3146282217 
1.9102010752 -7.0486976914 0.3146282217 1.9102010752 -7.0486976914 0.3146282217 1.9102010752 -7.0486976914 0.3146282217 
1.9102010752 -7.0486976914 0.3146282217 1.9102010752 -7.0486976914 0.3146282217 1.9102010752 -7.0486976914 0.3146282217 
1.9102010752 -7.0486976914 0.3146282217 1.9102010752 -7.0486976914 0.3146282217 1.8639997157 -6.9245826693 0.33672488575 
1.8639997157 -6.9245826693 0.33672488575 1.8639997157 -6.9245826693 0.33672488575 1.8639997157 -6.9245826693 0.33672488575 
1.8639997157 -6.9245826693 0.33672488575 1.8639997157 -6.9245826693 0.33672488575 1.8639997157 -6.9245826693 0.33672488575 
1.8639997157 -6.9245826693 0.33672488575 1.8639997157 -6.9245826693 0.33672488575 1.8639997157 -6.9245826693 0.33672488575 
1.8639997157 -6.9245826693 0.33672488575 1.8639997157 -6.9245826693 0.33672488575 1.8639997157 -6.9245826693 0.33672488575 
1.8639997157 -6.9245826693 0.33672488575 1.8639997157 -6.9245826693 0.33672488575 1.8639997157 -6.9245826693 0.33672488575 
1.8639997157 -6.9245826693 0.33672488575 1.8639997157 -6.9245826693 0.33672488575 1.8639997157 -6.9245826693 0.33672488575 
1.8639997157 -6.9245826693 0.33672488575 1.8639997157 -6.9245826693 0.33672488575 1.8639997157 -6.9245826693 0.33672488575 
1.8639997157 -6.9245826693 0.33672488575 1.8639997157 -6.9245826693 0.33672488575 1.8639997157 -6.9245826693 0.33672488575 
1.8639997157 -6.9245826693 0.33672488575 1.8639997157 -6.9245826693 0.33672488575 1.8639997157 -6.9245826693 0.33672488575 
1.8639997157 -6.9245826693 0.33672488575 1.8639997157 -6.9245826693 0.33672488575 1.8639997157 -6.9245826693 0.33672488575 
1.8639997157 -6.9245826693 0.33672488575 1.8639997157 -6.9245826693 0.33672488575 1.8639997157 -6.9245826693 0.33672488575 
1.8639997157 -6.9245826693 0.33672488575 1.8639997157 -6.9245826693 0.33672488575 1.8639997157 -6.9245826693 0.33672488575 
1.8639997157 -6.9245826693 0.33672488575 1.8639997157 -6.9245826693 0.33672488575 1.8639997157 -6.9245826693 0.33672488575 
1.8639997157 -6.9245826693 0.33672488575 1.8639997157 -6.9245826693 0.33672488575 1.8639997157 -6.9245826693 0.33672488575 
1.8639997157 -6.9245826693 0.33672488575 1.8639997157 -6.9245826693 0.33672488575 1.8639997157 -6.9245826693 0.33672488575 
1.8639997157 -6.9245826693 0.33672488575 1.8639997157 -6.9245826693 0.33672488575 1.8639997157 -6.9245826693 0.33672488575 
1.8639997157 -6.9245826693 0.33672488575 
