# vtk DataFile Version 4.1
Generated by LIGGGHTS
ASCII
DATASET POLYDATA
POINTS 100 float
-0.116887 -0.133484 0.0192043 -0.126446 -0.134369 0.0150599 -0.136237 -0.1347 0.0129257 
-0.124423 -0.135896 0.0263026 -0.111268 -0.132681 0.0280277 -0.132531 -0.13682 0.0230667 
-0.142816 -0.137687 0.0184681 -0.1166 -0.137644 0.0298795 -0.144795 -0.135759 0.0104051 
-0.119472 -0.130401 0.00892684 -0.130495 -0.139594 0.0310048 -0.139482 -0.139209 0.0243846 
-0.124954 -0.127174 0.00813198 -0.125357 -0.140574 0.0340594 -0.131059 -0.128446 0.0081438 
-0.135973 -0.14044 0.028416 -0.118619 -0.131976 0.0317303 -0.142655 -0.129317 0.00887139 
-0.114605 -0.1353 0.00901775 -0.148513 -0.139224 0.0145847 -0.118816 -0.139302 0.0107331 
-0.129735 -0.142039 0.0361494 -0.112218 -0.140253 0.0259956 -0.104604 -0.128891 0.0288447 
-0.106765 -0.134154 0.0223835 -0.121611 -0.125869 0.012538 -0.110128 -0.126065 0.0248701 
-0.107576 -0.126722 0.0304573 -0.133817 -0.142078 0.0345938 -0.129445 -0.129707 0.0232817 
-0.136721 -0.142001 0.0327769 -0.110285 -0.138508 0.0326729 -0.130906 -0.14071 0.0089965 
-0.120318 -0.14111 0.0340592 -0.149887 -0.138451 0.0087363 -0.109017 -0.138904 0.0241669 
-0.140626 -0.14175 0.0293362 -0.121267 -0.137708 0.0341043 -0.145807 -0.141171 0.0231019 
-0.124443 -0.131958 0.00549767 -0.136101 -0.141644 0.0188768 -0.121482 -0.142473 0.0310158 
-0.119611 -0.128976 0.0285958 -0.117817 -0.142235 0.0251671 -0.144701 -0.13213 0.0152539 
-0.148535 -0.140805 0.0194 -0.106468 -0.132728 0.018738 -0.127579 -0.131325 0.00569088 
-0.140528 -0.142195 0.0323911 -0.135703 -0.126929 0.0075535 -0.0479734 -0.105678 0.0173057 
-0.0574494 -0.106562 0.0129745 -0.0671973 -0.106903 0.0106516 -0.0556386 -0.108147 0.0242453 
-0.0425259 -0.104911 0.0262392 -0.0636801 -0.109071 0.0208499 -0.0738734 -0.109935 0.0160507 
-0.0478812 -0.109897 0.0279615 -0.0757032 -0.107968 0.00796205 -0.0503689 -0.102544 0.00699778 
-0.0617902 -0.111884 0.0288101 -0.0706502 -0.111482 0.0220215 -0.0558419 -0.0993251 0.00611598 
-0.0567092 -0.112869 0.031957 -0.0619433 -0.100611 0.00600405 -0.0672154 -0.112728 0.0261124 
-0.049948 -0.104244 0.0298043 -0.0735489 -0.101513 0.00650496 -0.0454931 -0.107433 0.00715483 
-0.0794914 -0.111464 0.0120507 -0.0497268 -0.111454 0.00876732 -0.0611231 -0.114356 0.0339547 
-0.0434194 -0.112474 0.0241478 -0.0358875 -0.101111 0.0272043 -0.0379127 -0.106343 0.0206741 
-0.0525874 -0.0980367 0.0105922 -0.0413416 -0.0982754 0.0231404 -0.0388958 -0.0989574 0.0287716 
-0.065174 -0.114396 0.0323212 -0.0606158 -0.101952 0.0211629 -0.068043 -0.114315 0.0304496 
-0.0416185 -0.110762 0.0308702 -0.0617779 -0.112879 0.00679214 -0.0516693 -0.113394 0.0320501 
-0.0807555 -0.110662 0.00618142 -0.0401872 -0.111108 0.0223881 -0.0718823 -0.114054 0.0269362 
-0.052627 -0.109994 0.0320958 -0.0769443 -0.113452 0.0206073 -0.0552696 -0.104093 0.00346568 
-0.0671586 -0.113879 0.016566 -0.052772 -0.114742 0.0289776 -0.0508868 -0.101228 0.026668 
-0.0489963 -0.114464 0.0232015 -0.0757097 -0.104365 0.0128317 -0.0796018 -0.113071 0.0168559 
-0.0375495 -0.104896 0.0170429 -0.0584105 -0.103469 0.00360235 -0.0718411 -0.114515 0.02999 
-0.0665788 -0.0991014 0.00533339 
VERTICES 100 200
1 0 
1 1 
1 2 
1 3 
1 4 
1 5 
1 6 
1 7 
1 8 
1 9 
1 10 
1 11 
1 12 
1 13 
1 14 
1 15 
1 16 
1 17 
1 18 
1 19 
1 20 
1 21 
1 22 
1 23 
1 24 
1 25 
1 26 
1 27 
1 28 
1 29 
1 30 
1 31 
1 32 
1 33 
1 34 
1 35 
1 36 
1 37 
1 38 
1 39 
1 40 
1 41 
1 42 
1 43 
1 44 
1 45 
1 46 
1 47 
1 48 
1 49 
1 50 
1 51 
1 52 
1 53 
1 54 
1 55 
1 56 
1 57 
1 58 
1 59 
1 60 
1 61 
1 62 
1 63 
1 64 
1 65 
1 66 
1 67 
1 68 
1 69 
1 70 
1 71 
1 72 
1 73 
1 74 
1 75 
1 76 
1 77 
1 78 
1 79 
1 80 
1 81 
1 82 
1 83 
1 84 
1 85 
1 86 
1 87 
1 88 
1 89 
1 90 
1 91 
1 92 
1 93 
1 94 
1 95 
1 96 
1 97 
1 98 
1 99 

POINT_DATA 100
FIELD FieldData 7
id 1 100 int
1 2 3 4 5 6 7 8 9 
10 11 12 13 14 15 16 17 18 
19 20 21 22 23 24 25 26 27 
28 29 30 31 32 33 34 35 36 
37 38 39 40 41 42 43 44 45 
46 47 48 49 50 51 52 53 54 
55 56 57 58 59 60 61 62 63 
64 65 66 67 68 69 70 71 72 
73 74 75 76 77 78 79 80 81 
82 83 84 85 86 87 88 89 90 
91 92 93 94 95 96 97 98 99 
100 
mol 1 100 int
1 1 1 1 1 1 1 1 1 
1 1 1 1 1 1 1 1 1 
1 1 1 1 1 1 1 1 1 
1 1 1 1 1 1 1 1 1 
1 1 1 1 1 1 1 1 1 
1 1 1 1 1 2 2 2 2 
2 2 2 2 2 2 2 2 2 
2 2 2 2 2 2 2 2 2 
2 2 2 2 2 2 2 2 2 
2 2 2 2 2 2 2 2 2 
2 2 2 2 2 2 2 2 2 
2 
type 1 100 int
1 1 1 1 1 1 1 1 1 
1 1 1 1 1 1 1 1 1 
1 1 1 1 1 1 1 1 1 
1 1 1 1 1 1 1 1 1 
1 1 1 1 1 1 1 1 1 
1 1 1 1 1 1 1 1 1 
1 1 1 1 1 1 1 1 1 
1 1 1 1 1 1 1 1 1 
1 1 1 1 1 1 1 1 1 
1 1 1 1 1 1 1 1 1 
1 1 1 1 1 1 1 1 1 
1 
v 3 100 double
-0.13175064023 -0.064801921899 -0.29268481511 -0.10191403737 -0.062339912639 -0.36202944176 -0.08660421603 -0.063208259734 -0.43213120615 
-0.18112903788 -0.079509492752 -0.35011082009 -0.19479748857 -0.076507689544 -0.25146850894 -0.15773099102 -0.077869517731 -0.40919959149 
-0.12467512741 -0.074996530237 -0.48367271229 -0.20577766147 -0.081821789443 -0.29733183965 -0.068229549772 -0.062915157739 -0.49464331989 
-0.060076699028 -0.049429459996 -0.30610223038 -0.21291801485 -0.089725864009 -0.39919177368 -0.16604725477 -0.083036532527 -0.46243202437 
-0.055844844595 -0.050558024211 -0.33986815077 -0.23419231964 -0.092377412585 -0.36425788458 -0.05537075736 -0.053255883017 -0.38529189252 
-0.19415193055 -0.087971465518 -0.43947279187 -0.22141496993 -0.085679900545 -0.30257032822 -0.060158270095 -0.059512538333 -0.46908629011 
-0.058572934825 -0.047439969808 -0.27938933493 -0.096407245017 -0.071259097919 -0.52662134725 -0.069005345724 -0.052042762773 -0.3157389787 
-0.24839972389 -0.097655192184 -0.39772011421 -0.17703577806 -0.073660981607 -0.27038455921 -0.20226510763 -0.074895710139 -0.19803011859 
-0.15404600811 -0.065466750111 -0.22184102029 -0.087724270043 -0.056167924724 -0.31402208656 -0.17526414658 -0.070936142318 -0.23274411933 
-0.21467528756 -0.078790159925 -0.2156696296 -0.23732914657 -0.09694757091 -0.4267837676 -0.16237978021 -0.076860779497 -0.37584795491 
-0.22445346591 -0.095303843907 -0.44729576858 -0.22524650184 -0.083537186946 -0.25384688553 -0.056048252306 -0.054558431595 -0.40390511292 
-0.23395546944 -0.090165744014 -0.32930968742 -0.05519047461 -0.062468907424 -0.53514502264 -0.16463385293 -0.069319355707 -0.24547338336 
-0.2001154517 -0.09149115596 -0.47464086616 -0.23576917399 -0.090654716347 -0.33058909884 -0.15607176161 -0.083751404566 -0.51052270947 
-0.035027644567 -0.046102943899 -0.3439229512 -0.12584303781 -0.072706763747 -0.44231784053 -0.21173297187 -0.085788663879 -0.33977154507 
-0.20045990509 -0.08108083257 -0.30479807101 -0.17027912581 -0.074786776031 -0.31334738249 -0.10427528198 -0.070661331756 -0.48814116419 
-0.12992864406 -0.07900261089 -0.52931615464 -0.12876871934 -0.059481434673 -0.21744129172 -0.036678085847 -0.047789381981 -0.36519140687 
-0.22162698246 -0.096354421077 -0.47465457558 -0.05184182017 -0.054345496015 -0.41585409299 -0.13047130375 -0.064375331196 -0.34115145198 
-0.099842696854 -0.061833985334 -0.40868054361 -0.083476119852 -0.062558414788 -0.47725551702 -0.17780607702 -0.078668731039 -0.39852075359 
-0.19317207068 -0.075924004158 -0.30192589622 -0.15369218597 -0.076950782556 -0.45609952453 -0.11980622576 -0.073997774654 -0.52860433221 
-0.20296288188 -0.081016084439 -0.34711263047 -0.064226188034 -0.062153245746 -0.53829600627 -0.059921682068 -0.049309481662 -0.35296681132 
-0.20799759515 -0.088567346752 -0.44731143758 -0.16079114039 -0.081903229854 -0.50852738631 -0.055206694661 -0.050377500562 -0.38612969469 
-0.22952244957 -0.091220742153 -0.41338769929 -0.053850241355 -0.052931925376 -0.43073126105 -0.18878938784 -0.086771127116 -0.48650234463 
-0.21835572635 -0.08482588594 -0.35268946171 -0.056943255833 -0.058908273106 -0.51315245904 -0.058830815112 -0.047373975781 -0.32658580265 
-0.09120149288 -0.07024899658 -0.57021249399 -0.068287475529 -0.05179247228 -0.36243239494 -0.24280232222 -0.096323041092 -0.44652445612 
-0.17518954727 -0.073049482993 -0.32000374622 -0.20160835616 -0.074464957727 -0.24964000144 -0.15368598991 -0.065147720849 -0.27196642206 
-0.087027905306 -0.055929180844 -0.36139538606 -0.17451033613 -0.070542833928 -0.28327107271 -0.2135122433 -0.078264559196 -0.26726673631 
-0.23138186313 -0.095577904223 -0.47486268286 -0.15906213089 -0.076069899107 -0.42356446368 -0.21835382851 -0.093931442787 -0.49476363602 
-0.22287979542 -0.082768109881 -0.30475218884 -0.053862508798 -0.054091722845 -0.44878382886 -0.22993830079 -0.089111849687 -0.37902894396 
-0.050591477871 -0.061625879473 -0.57778036992 -0.16351763036 -0.068848556673 -0.29530368219 -0.19394671711 -0.090148750642 -0.52115375644 
-0.23177819702 -0.089611892133 -0.38039232866 -0.15003855827 -0.082505143249 -0.55554555261 -0.034573864455 -0.045972303241 -0.38959981657 
-0.12163872901 -0.071800397699 -0.48790766933 -0.20788828554 -0.084795040798 -0.38883733982 -0.19781291583 -0.080335874992 -0.35452128733 
-0.16769389363 -0.074063002395 -0.36204680889 -0.099828777906 -0.069779768817 -0.53270166419 -0.12402387134 -0.077821126536 -0.57349839944 
-0.12898635909 -0.059300370501 -0.26716677255 -0.035807228259 -0.047591431799 -0.41054596978 -0.21505610052 -0.094911086559 -0.52158819269 
-0.049844112971 -0.053955798089 -0.46072482421 
f 3 100 double
0 0 0 0 0 0 0 0 0 
0 0 0 0 0 0 0 0 0 
0 0 0 0 0 0 0 0 0 
0 0 0 0 0 0 0 0 0 
0 0 0 0 0 0 0 0 0 
0 0 0 0 0 0 0 0 0 
0 0 0 0 0 0 0 0 0 
0 0 0 0 0 0 0 0 0 
0 0 0 0 0 0 0 0 0 
0 0 0 0 0 0 0 0 0 
0 0 0 0 0 0 0 0 0 
0 0 0 0 0 0 0 0 0 
0 0 0 0 0 0 0 0 0 
0 0 0 0 0 0 0 0 0 
0 0 0 0 0 0 0 0 0 
0 0 0 0 0 0 0 0 0 
0 0 0 0 0 0 0 0 0 
0 0 0 0 0 0 0 0 0 
0 0 0 0 0 0 0 0 0 
0 0 0 0 0 0 0 0 0 
0 0 0 0 0 0 0 0 0 
0 0 0 0 0 0 0 0 0 
0 0 0 0 0 0 0 0 0 
0 0 0 0 0 0 0 0 0 
0 0 0 0 0 0 0 0 0 
0 0 0 0 0 0 0 0 0 
0 0 0 0 0 0 0 0 0 
0 0 0 0 0 0 0 0 0 
0 0 0 0 0 0 0 0 0 
0 0 0 0 0 0 0 0 0 
0 0 0 0 0 0 0 0 0 
0 0 0 0 0 0 0 0 0 
0 0 0 0 0 0 0 0 0 
0 0 0 
radius 1 100 double
0.010434 0.00981478 0.00892069 0.00845937 0.00731974 0.00728422 0.00643447 0.00619172 0.00585956 
0.00577566 0.00537241 0.00522549 0.00513666 0.00473175 0.00466912 0.00444866 0.00441894 0.00400812 
0.00385622 0.00379948 0.00370243 0.00366942 0.00364039 0.00363813 0.00363644 0.00358692 0.0035797 
0.00341284 0.00337012 0.00336273 0.00332772 0.00323261 0.00320584 0.00320311 0.00318808 0.00313116 
0.00306026 0.00305632 0.00304383 0.00300958 0.00300137 0.00298994 0.0029567 0.00295111 0.00290849 
0.00284552 0.00282964 0.0028207 0.00281971 0.00281899 0.010434 0.00981478 0.00892069 0.00845937 
0.00731974 0.00728422 0.00643447 0.00619172 0.00585956 0.00577566 0.00537241 0.00522549 0.00513666 
0.00473175 0.00466912 0.00444866 0.00441894 0.00400812 0.00385622 0.00379948 0.00370243 0.00366942 
0.00364039 0.00363813 0.00363644 0.00358692 0.0035797 0.00341284 0.00337012 0.00336273 0.00332772 
0.00323261 0.00320584 0.00320311 0.00318808 0.00313116 0.00306026 0.00305632 0.00304383 0.00300958 
0.00300137 0.00298994 0.0029567 0.00295111 0.00290849 0.00284552 0.00282964 0.0028207 0.00281971 
0.00281899 
omega 3 100 double
1.6061092056 -7.1054902764 0.43878035164 1.6061092056 -7.1054902764 0.43878035164 1.6061092056 -7.1054902764 0.43878035164 
1.6061092056 -7.1054902764 0.43878035164 1.6061092056 -7.1054902764 0.43878035164 1.6061092056 -7.1054902764 0.43878035164 
1.6061092056 -7.1054902764 0.43878035164 1.6061092056 -7.1054902764 0.43878035164 1.6061092056 -7.1054902764 0.43878035164 
1.6061092056 -7.1054902764 0.43878035164 1.6061092056 -7.1054902764 0.43878035164 1.6061092056 -7.1054902764 0.43878035164 
1.6061092056 -7.1054902764 0.43878035164 1.6061092056 -7.1054902764 0.43878035164 1.6061092056 -7.1054902764 0.43878035164 
1.6061092056 -7.1054902764 0.43878035164 1.6061092056 -7.1054902764 0.43878035164 1.6061092056 -7.1054902764 0.43878035164 
1.6061092056 -7.1054902764 0.43878035164 1.6061092056 -7.1054902764 0.43878035164 1.6061092056 -7.1054902764 0.43878035164 
1.6061092056 -7.1054902764 0.43878035164 1.6061092056 -7.1054902764 0.43878035164 1.6061092056 -7.1054902764 0.43878035164 
1.6061092056 -7.1054902764 0.43878035164 1.6061092056 -7.1054902764 0.43878035164 1.6061092056 -7.1054902764 0.43878035164 
1.6061092056 -7.1054902764 0.43878035164 1.6061092056 -7.1054902764 0.43878035164 1.6061092056 -7.1054902764 0.43878035164 
1.6061092056 -7.1054902764 0.43878035164 1.6061092056 -7.1054902764 0.43878035164 1.6061092056 -7.1054902764 0.43878035164 
1.6061092056 -7.1054902764 0.43878035164 1.6061092056 -7.1054902764 0.43878035164 1.6061092056 -7.1054902764 0.43878035164 
1.6061092056 -7.1054902764 0.43878035164 1.6061092056 -7.1054902764 0.43878035164 1.6061092056 -7.1054902764 0.43878035164 
1.6061092056 -7.1054902764 0.43878035164 1.6061092056 -7.1054902764 0.43878035164 1.6061092056 -7.1054902764 0.43878035164 
1.6061092056 -7.1054902764 0.43878035164 1.6061092056 -7.1054902764 0.43878035164 1.6061092056 -7.1054902764 0.43878035164 
1.6061092056 -7.1054902764 0.43878035164 1.6061092056 -7.1054902764 0.43878035164 1.6061092056 -7.1054902764 0.43878035164 
1.6061092056 -7.1054902764 0.43878035164 1.6061092056 -7.1054902764 0.43878035164 1.5655454522 -6.980200305 0.44738308102 
1.5655454522 -6.980200305 0.44738308102 1.5655454522 -6.980200305 0.44738308102 1.5655454522 -6.980200305 0.44738308102 
1.5655454522 -6.980200305 0.44738308102 1.5655454522 -6.980200305 0.44738308102 1.5655454522 -6.980200305 0.44738308102 
1.5655454522 -6.980200305 0.44738308102 1.5655454522 -6.980200305 0.44738308102 1.5655454522 -6.980200305 0.44738308102 
1.5655454522 -6.980200305 0.44738308102 1.5655454522 -6.980200305 0.44738308102 1.5655454522 -6.980200305 0.44738308102 
1.5655454522 -6.980200305 0.44738308102 1.5655454522 -6.980200305 0.44738308102 1.5655454522 -6.980200305 0.44738308102 
1.5655454522 -6.980200305 0.44738308102 1.5655454522 -6.980200305 0.44738308102 1.5655454522 -6.980200305 0.44738308102 
1.5655454522 -6.980200305 0.44738308102 1.5655454522 -6.980200305 0.44738308102 1.5655454522 -6.980200305 0.44738308102 
1.5655454522 -6.980200305 0.44738308102 1.5655454522 -6.980200305 0.44738308102 1.5655454522 -6.980200305 0.44738308102 
1.5655454522 -6.980200305 0.44738308102 1.5655454522 -6.980200305 0.44738308102 1.5655454522 -6.980200305 0.44738308102 
1.5655454522 -6.980200305 0.44738308102 1.5655454522 -6.980200305 0.44738308102 1.5655454522 -6.980200305 0.44738308102 
1.5655454522 -6.980200305 0.44738308102 1.5655454522 -6.980200305 0.44738308102 1.5655454522 -6.980200305 0.44738308102 
1.5655454522 -6.980200305 0.44738308102 1.5655454522 -6.980200305 0.44738308102 1.5655454522 -6.980200305 0.44738308102 
1.5655454522 -6.980200305 0.44738308102 1.5655454522 -6.980200305 0.44738308102 1.5655454522 -6.980200305 0.44738308102 
1.5655454522 -6.980200305 0.44738308102 1.5655454522 -6.980200305 0.44738308102 1.5655454522 -6.980200305 0.44738308102 
1.5655454522 -6.980200305 0.44738308102 1.5655454522 -6.980200305 0.44738308102 1.5655454522 -6.980200305 0.44738308102 
1.5655454522 -6.980200305 0.44738308102 1.5655454522 -6.980200305 0.44738308102 1.5655454522 -6.980200305 0.44738308102 
1.5655454522 -6.980200305 0.44738308102 
