# vtk DataFile Version 4.1
Generated by LIGGGHTS
ASCII
DATASET POLYDATA
POINTS 100 float
-0.119493 -0.158288 0.012859 -0.129212 -0.154453 0.0124599 -0.139078 -0.152665 0.0124959 
-0.126834 -0.165499 0.0101906 -0.113546 -0.16693 0.012979 -0.135071 -0.162514 0.00966215 
-0.145532 -0.158253 0.0093276 -0.118937 -0.168671 0.00803831 -0.147745 -0.150402 0.0117987 
-0.122359 -0.148321 0.0166342 -0.132829 -0.170187 0.00635376 -0.142032 -0.163939 0.0073628 
-0.127779 -0.147928 0.020034 -0.127614 -0.172984 0.00506395 -0.133911 -0.148087 0.0189095 
-0.138415 -0.167755 0.00580012 -0.120741 -0.170938 0.0136269 -0.145493 -0.149187 0.0182705 
-0.117621 -0.147932 0.0116244 -0.151401 -0.154496 0.00816999 -0.121871 -0.149554 0.00762522 
-0.131952 -0.175141 0.00357676 -0.114764 -0.164475 0.00557213 -0.106761 -0.167731 0.016551 
-0.109286 -0.161044 0.0117523 -0.12425 -0.152279 0.0209834 -0.112347 -0.164144 0.0197489 
-0.109617 -0.169582 0.0186861 -0.136085 -0.173737 0.00373121 -0.131796 -0.163049 0.0166733 
-0.139049 -0.172037 0.00398976 -0.112552 -0.171171 0.00685262 -0.134047 -0.148182 0.00661564 
-0.122593 -0.172765 0.00440966 -0.15296 -0.148761 0.00933691 -0.111596 -0.162616 0.00695521 
-0.143066 -0.168764 0.00454632 -0.123451 -0.173053 0.0078237 -0.148447 -0.162773 0.0056343 
-0.127486 -0.144988 0.015412 -0.138912 -0.158171 0.00519464 -0.123899 -0.169689 0.00326638 
-0.121764 -0.168032 0.0168391 -0.120438 -0.163734 0.00377901 -0.147384 -0.155457 0.0151165 
-0.151293 -0.159203 0.00629497 -0.109081 -0.157484 0.0133939 -0.130596 -0.145336 0.0161058 
-0.142871 -0.171781 0.0039108 -0.138532 -0.147762 0.0205698 -0.0480475 -0.128225 0.0125746 
-0.0582223 -0.125847 0.0129715 -0.0682142 -0.125526 0.0137409 -0.0544433 -0.136366 0.0101624 
-0.0409215 -0.135902 0.0119886 -0.0630423 -0.134609 0.0103 -0.0740051 -0.131921 0.0108265 
-0.046348 -0.138292 0.00736862 -0.0771444 -0.124542 0.0137143 -0.0520427 -0.118881 0.0168808 
-0.0599605 -0.141787 0.00658152 -0.069872 -0.136982 0.00843136 -0.0572026 -0.11937 0.0206531 
-0.0545026 -0.143757 0.00484319 -0.0633124 -0.120399 0.0199436 -0.0658645 -0.140187 0.00649426 
-0.0473957 -0.140936 0.0129846 -0.0746291 -0.123169 0.0200562 -0.0477859 -0.117679 0.0115768 
-0.0804234 -0.129037 0.0102024 -0.0520357 -0.119808 0.00782201 -0.0585798 -0.146489 0.00358046 
-0.0430149 -0.133472 0.0047718 -0.0338512 -0.135787 0.0150605 -0.0376565 -0.129427 0.0106806 
-0.0530225 -0.123179 0.0212081 -0.0396507 -0.133137 0.0187541 -0.0362482 -0.138089 0.0173193 
-0.0628507 -0.145711 0.00406458 -0.0592249 -0.13483 0.0170491 -0.0660023 -0.14447 0.00458324 
-0.039771 -0.1398 0.00566484 -0.0643233 -0.120211 0.0076917 -0.0496269 -0.142788 0.00385679 
-0.0827069 -0.123623 0.0116718 -0.0400568 -0.131202 0.00599999 -0.0703986 -0.141836 0.00552543 
-0.0501848 -0.143283 0.0073092 -0.0764961 -0.136727 0.00718501 -0.0576731 -0.116307 0.016127 
-0.0677836 -0.130768 0.00625807 -0.0514432 -0.13991 0.00291285 -0.0485933 -0.138291 0.0163583 
-0.0488511 -0.133527 0.0033958 -0.075818 -0.129569 0.0168219 -0.0797732 -0.133631 0.00816172 
-0.0378499 -0.125917 0.0124274 -0.0606418 -0.117124 0.0170184 -0.0698164 -0.144775 0.00477347 
-0.0677993 -0.120796 0.0219248 
VERTICES 100 200
1 0 
1 1 
1 2 
1 3 
1 4 
1 5 
1 6 
1 7 
1 8 
1 9 
1 10 
1 11 
1 12 
1 13 
1 14 
1 15 
1 16 
1 17 
1 18 
1 19 
1 20 
1 21 
1 22 
1 23 
1 24 
1 25 
1 26 
1 27 
1 28 
1 29 
1 30 
1 31 
1 32 
1 33 
1 34 
1 35 
1 36 
1 37 
1 38 
1 39 
1 40 
1 41 
1 42 
1 43 
1 44 
1 45 
1 46 
1 47 
1 48 
1 49 
1 50 
1 51 
1 52 
1 53 
1 54 
1 55 
1 56 
1 57 
1 58 
1 59 
1 60 
1 61 
1 62 
1 63 
1 64 
1 65 
1 66 
1 67 
1 68 
1 69 
1 70 
1 71 
1 72 
1 73 
1 74 
1 75 
1 76 
1 77 
1 78 
1 79 
1 80 
1 81 
1 82 
1 83 
1 84 
1 85 
1 86 
1 87 
1 88 
1 89 
1 90 
1 91 
1 92 
1 93 
1 94 
1 95 
1 96 
1 97 
1 98 
1 99 

POINT_DATA 100
FIELD FieldData 7
id 1 100 int
1 2 3 4 5 6 7 8 9 
10 11 12 13 14 15 16 17 18 
19 20 21 22 23 24 25 26 27 
28 29 30 31 32 33 34 35 36 
37 38 39 40 41 42 43 44 45 
46 47 48 49 50 51 52 53 54 
55 56 57 58 59 60 61 62 63 
64 65 66 67 68 69 70 71 72 
73 74 75 76 77 78 79 80 81 
82 83 84 85 86 87 88 89 90 
91 92 93 94 95 96 97 98 99 
100 
mol 1 100 int
1 1 1 1 1 1 1 1 1 
1 1 1 1 1 1 1 1 1 
1 1 1 1 1 1 1 1 1 
1 1 1 1 1 1 1 1 1 
1 1 1 1 1 1 1 1 1 
1 1 1 1 1 2 2 2 2 
2 2 2 2 2 2 2 2 2 
2 2 2 2 2 2 2 2 2 
2 2 2 2 2 2 2 2 2 
2 2 2 2 2 2 2 2 2 
2 2 2 2 2 2 2 2 2 
2 
type 1 100 int
1 1 1 1 1 1 1 1 1 
1 1 1 1 1 1 1 1 1 
1 1 1 1 1 1 1 1 1 
1 1 1 1 1 1 1 1 1 
1 1 1 1 1 1 1 1 1 
1 1 1 1 1 1 1 1 1 
1 1 1 1 1 1 1 1 1 
1 1 1 1 1 1 1 1 1 
1 1 1 1 1 1 1 1 1 
1 1 1 1 1 1 1 1 1 
1 1 1 1 1 1 1 1 1 
1 
v 3 100 double
-0.12299053247 -0.058510139159 0.16714268552 -0.12000973013 -0.058729860744 0.092449261354 -0.12045693607 -0.059608421763 0.013502704281 
-0.10031676422 -0.0551590918 0.095708903702 -0.12326033279 -0.0581911366 0.20348678749 -0.096195090934 -0.055062709098 0.032008419698 
-0.093784188295 -0.055440392186 -0.048182029589 -0.082249076382 -0.051300531963 0.15630956365 -0.11487940066 -0.05929721621 -0.054818586469 
-0.15504968277 -0.064359448064 0.1582481401 -0.0681890083 -0.04995923807 0.039151340643 -0.077057496001 -0.052228199561 -0.027682568964 
-0.183202347 -0.069864431992 0.11399877489 -0.057286773397 -0.047606514117 0.078134421372 -0.17388810831 -0.068706358791 0.063042364303 
-0.063813062918 -0.049603722726 -0.00343797218 -0.12828364009 -0.059755463952 0.13802302235 -0.16851092621 -0.068725456135 -0.034387075029 
-0.11364512157 -0.056519110475 0.19801430343 -0.084523640478 -0.054211101179 -0.091140809291 -0.080431045853 -0.050932084387 0.16044778752 
-0.044805599998 -0.045759492014 0.03904776456 -0.062201627489 -0.047287050273 0.19705649454 -0.15273752886 -0.062931257557 0.25841875689 
-0.11360622052 -0.056012067304 0.24747126541 -0.19069126918 -0.070980047845 0.1367225056 -0.17948811401 -0.068150218187 0.21754613685 
-0.1702425743 -0.066342708885 0.23204160714 -0.046200420334 -0.04633467073 0.0069436768845 -0.1541409949 -0.065206720131 0.058304918674 
-0.048481110284 -0.046966694263 -0.015042593313 -0.072232858329 -0.049004685826 0.20540981429 -0.072195368601 -0.050450240722 0.061773826266 
-0.051893296235 -0.046214411398 0.11998753333 -0.094655142987 -0.056075481123 -0.095519360411 -0.073796864714 -0.049077209113 0.22602597552 
-0.053358270508 -0.048129603321 -0.043401550747 -0.080107481375 -0.051359129195 0.11246270057 -0.062858252301 -0.05019627035 -0.079007652779 
-0.14521856241 -0.062972079329 0.12078592545 -0.059606517383 -0.048745603397 0.0066916746838 -0.042694243335 -0.044624846051 0.1137536361 
-0.15509556349 -0.064614128848 0.13387461703 -0.047432308618 -0.045097134343 0.15122781194 -0.14189914737 -0.064197059699 -0.059347121359 
-0.068621282138 -0.051416024226 -0.097248792735 -0.12748175843 -0.058434173018 0.25445514153 -0.15092838607 -0.064263137501 0.094547212461 
-0.047849446206 -0.047168963642 -0.046270940319 -0.18764813773 -0.071559898439 0.025303750727 -0.12563008451 -0.1103562808 0.16943389019 
-0.13052804198 -0.11779137509 0.08841219582 -0.13800000818 -0.12761315808 -0.0045232394382 -0.098839967384 -0.097362028054 0.054541128716 
-0.11643336536 -0.10310499662 0.18626586863 -0.10097734356 -0.10233181021 -0.015606364461 -0.10725501285 -0.11099919368 -0.10206590493 
-0.071350501841 -0.074997316745 0.11877229853 -0.13821097031 -0.13164946686 -0.08295080422 -0.17100826269 -0.14082610488 0.19344774979 
-0.062213315778 -0.076194742427 -0.033933887124 -0.082079707255 -0.093150214743 -0.096338583699 -0.20666741751 -0.16830113714 0.14110886171 
-0.044745279817 -0.062080655856 0.0049162779636 -0.19943183789 -0.16647408163 0.076149399548 -0.062137793766 -0.078400996986 -0.079487567428 
-0.12353444755 -0.11277082724 0.091257061961 -0.19919661991 -0.17256097403 -0.04990771328 -0.12111245773 -0.10360956679 0.24192498454 
-0.10267816813 -0.10988481018 -0.14398897877 -0.084385062885 -0.080690347544 0.18736183188 -0.031442574604 -0.055622204015 -0.052010609637 
-0.048918529044 -0.056186970438 0.18248478977 -0.14571404018 -0.12016067907 0.25429809419 -0.10704325222 -0.092881543507 0.26031326165 
-0.210150788 -0.17001314002 0.15559536562 -0.18210547951 -0.14741491937 0.21671482171 -0.16611846564 -0.13628540991 0.21621611072 
-0.036415689481 -0.060850787535 -0.087478586899 -0.16508444376 -0.14533162723 0.019242497924 -0.041935511897 -0.065780537513 -0.10922821426 
-0.054429425662 -0.060584604556 0.17134016957 -0.082954985363 -0.085622521725 0.067779124831 -0.035817651339 -0.053232616906 0.057734314406 
-0.11921211507 -0.12071568751 -0.12977280652 -0.061674365626 -0.062944111951 0.22569396222 -0.052142110031 -0.07410894627 -0.13357250568 
-0.068430862448 -0.076413050821 0.049143806635 -0.070342247017 -0.088002092319 -0.1576666409 -0.16505101466 -0.13847897081 0.15696209706 
-0.064334510176 -0.077738527217 -0.03522075651 -0.028194829517 -0.047823585837 0.059560143694 -0.15687971706 -0.13573033974 0.097421598994 
-0.035801244626 -0.04980651054 0.12659397153 -0.16540497739 -0.15165192493 -0.10370208813 -0.08109555269 -0.096031667533 -0.16829258242 
-0.12531838552 -0.10456803491 0.28177347829 -0.17314616338 -0.14579626667 0.12329998093 -0.043601541455 -0.068842754778 -0.14753974229 
-0.21809384879 -0.18174229239 0.030824361538 
f 3 100 double
0 0 0 0 0 0 0 0 0 
0 0 0 0 0 0 0 0 0 
0 0 0 0 0 0 0 0 0 
0 0 0 0 0 0 0 0 0 
0 0 0 0 0 0 0 0 0 
0 0 0 0 0 0 0 0 0 
0 0 0 0 0 0 0 0 0 
0.0029345458457 0.0079737312068 -0.01699316906 0 0 0 0 0 0 
0 0 0 0 0 0 0 0 0 
0 0 0 0 0 0 0 0 0 
0 0 0 0 0 0 0 0 0 
0 0 0 0 0 0 0 0 0 
0 0 0 0 0 0 0 0 0 
0 0 0 0 0 0 0 0 0 
0 0 0 0 0 0 0 0 0 
0 0 0 0 0 0 0 0 0 
0 0 0 0 0 0 0 0 0 
0 0 0 0 0 0 0 0 0 
0 0 0 0 0 0 0 0 0 
0 0 0 0 0 0 0 0 0 
0 0 0 0 0 0 0 0 0 
0 0 0 0 0 0 0 0 0 
0 0 0 0 0 0 0 0 0 
0 0 0 0 0 0 -0.090247351723 0.50644437889 1.0431179931 
0 0 0 0 0 0 0 0 0 
0 0 0 0 0 0 0 0 0 
0 0 0 0 0 0 0 0 0 
0 0 0 0 0 0 0 0 0 
0 0 0 0 0 0 0 0 0 
0 0 0 0 0 0 0 0 0 
0 0 0 -0.011013147274 0.35052453412 -0.33766507359 0 0 0 
0 0 0 0 0 0 0 0 0 
0 0 0 0 0 0 0 0 0 
0 0 0 
radius 1 100 double
0.010434 0.00981478 0.00892069 0.00845937 0.00731974 0.00728422 0.00643447 0.00619172 0.00585956 
0.00577566 0.00537241 0.00522549 0.00513666 0.00473175 0.00466912 0.00444866 0.00441894 0.00400812 
0.00385622 0.00379948 0.00370243 0.00366942 0.00364039 0.00363813 0.00363644 0.00358692 0.0035797 
0.00341284 0.00337012 0.00336273 0.00332772 0.00323261 0.00320584 0.00320311 0.00318808 0.00313116 
0.00306026 0.00305632 0.00304383 0.00300958 0.00300137 0.00298994 0.0029567 0.00295111 0.00290849 
0.00284552 0.00282964 0.0028207 0.00281971 0.00281899 0.010434 0.00981478 0.00892069 0.00845937 
0.00731974 0.00728422 0.00643447 0.00619172 0.00585956 0.00577566 0.00537241 0.00522549 0.00513666 
0.00473175 0.00466912 0.00444866 0.00441894 0.00400812 0.00385622 0.00379948 0.00370243 0.00366942 
0.00364039 0.00363813 0.00363644 0.00358692 0.0035797 0.00341284 0.00337012 0.00336273 0.00332772 
0.00323261 0.00320584 0.00320311 0.00318808 0.00313116 0.00306026 0.00305632 0.00304383 0.00300958 
0.00300137 0.00298994 0.0029567 0.00295111 0.00290849 0.00284552 0.00282964 0.0028207 0.00281971 
0.00281899 
omega 3 100 double
1.4859097225 -8.2712076572 0.083629397033 1.4859097225 -8.2712076572 0.083629397033 1.4859097225 -8.2712076572 0.083629397033 
1.4859097225 -8.2712076572 0.083629397033 1.4859097225 -8.2712076572 0.083629397033 1.4859097225 -8.2712076572 0.083629397033 
1.4859097225 -8.2712076572 0.083629397033 1.4859097225 -8.2712076572 0.083629397033 1.4859097225 -8.2712076572 0.083629397033 
1.4859097225 -8.2712076572 0.083629397033 1.4859097225 -8.2712076572 0.083629397033 1.4859097225 -8.2712076572 0.083629397033 
1.4859097225 -8.2712076572 0.083629397033 1.4859097225 -8.2712076572 0.083629397033 1.4859097225 -8.2712076572 0.083629397033 
1.4859097225 -8.2712076572 0.083629397033 1.4859097225 -8.2712076572 0.083629397033 1.4859097225 -8.2712076572 0.083629397033 
1.4859097225 -8.2712076572 0.083629397033 1.4859097225 -8.2712076572 0.083629397033 1.4859097225 -8.2712076572 0.083629397033 
1.4859097225 -8.2712076572 0.083629397033 1.4859097225 -8.2712076572 0.083629397033 1.4859097225 -8.2712076572 0.083629397033 
1.4859097225 -8.2712076572 0.083629397033 1.4859097225 -8.2712076572 0.083629397033 1.4859097225 -8.2712076572 0.083629397033 
1.4859097225 -8.2712076572 0.083629397033 1.4859097225 -8.2712076572 0.083629397033 1.4859097225 -8.2712076572 0.083629397033 
1.4859097225 -8.2712076572 0.083629397033 1.4859097225 -8.2712076572 0.083629397033 1.4859097225 -8.2712076572 0.083629397033 
1.4859097225 -8.2712076572 0.083629397033 1.4859097225 -8.2712076572 0.083629397033 1.4859097225 -8.2712076572 0.083629397033 
1.4859097225 -8.2712076572 0.083629397033 1.4859097225 -8.2712076572 0.083629397033 1.4859097225 -8.2712076572 0.083629397033 
1.4859097225 -8.2712076572 0.083629397033 1.4859097225 -8.2712076572 0.083629397033 1.4859097225 -8.2712076572 0.083629397033 
1.4859097225 -8.2712076572 0.083629397033 1.4859097225 -8.2712076572 0.083629397033 1.4859097225 -8.2712076572 0.083629397033 
1.4859097225 -8.2712076572 0.083629397033 1.4859097225 -8.2712076572 0.083629397033 1.4859097225 -8.2712076572 0.083629397033 
1.4859097225 -8.2712076572 0.083629397033 1.4859097225 -8.2712076572 0.083629397033 6.6380389477 -9.5140880868 0.47179104153 
6.6380389477 -9.5140880868 0.47179104153 6.6380389477 -9.5140880868 0.47179104153 6.6380389477 -9.5140880868 0.47179104153 
6.6380389477 -9.5140880868 0.47179104153 6.6380389477 -9.5140880868 0.47179104153 6.6380389477 -9.5140880868 0.47179104153 
6.6380389477 -9.5140880868 0.47179104153 6.6380389477 -9.5140880868 0.47179104153 6.6380389477 -9.5140880868 0.47179104153 
6.6380389477 -9.5140880868 0.47179104153 6.6380389477 -9.5140880868 0.47179104153 6.6380389477 -9.5140880868 0.47179104153 
6.6380389477 -9.5140880868 0.47179104153 6.6380389477 -9.5140880868 0.47179104153 6.6380389477 -9.5140880868 0.47179104153 
6.6380389477 -9.5140880868 0.47179104153 6.6380389477 -9.5140880868 0.47179104153 6.6380389477 -9.5140880868 0.47179104153 
6.6380389477 -9.5140880868 0.47179104153 6.6380389477 -9.5140880868 0.47179104153 6.6380389477 -9.5140880868 0.47179104153 
6.6380389477 -9.5140880868 0.47179104153 6.6380389477 -9.5140880868 0.47179104153 6.6380389477 -9.5140880868 0.47179104153 
6.6380389477 -9.5140880868 0.47179104153 6.6380389477 -9.5140880868 0.47179104153 6.6380389477 -9.5140880868 0.47179104153 
6.6380389477 -9.5140880868 0.47179104153 6.6380389477 -9.5140880868 0.47179104153 6.6380389477 -9.5140880868 0.47179104153 
6.6380389477 -9.5140880868 0.47179104153 6.6380389477 -9.5140880868 0.47179104153 6.6380389477 -9.5140880868 0.47179104153 
6.6380389477 -9.5140880868 0.47179104153 6.6380389477 -9.5140880868 0.47179104153 6.6380389477 -9.5140880868 0.47179104153 
6.6380389477 -9.5140880868 0.47179104153 6.6380389477 -9.5140880868 0.47179104153 6.6380389477 -9.5140880868 0.47179104153 
6.6380389477 -9.5140880868 0.47179104153 6.6380389477 -9.5140880868 0.47179104153 6.6380389477 -9.5140880868 0.47179104153 
6.6380389477 -9.5140880868 0.47179104153 6.6380389477 -9.5140880868 0.47179104153 6.6380389477 -9.5140880868 0.47179104153 
6.6380389477 -9.5140880868 0.47179104153 6.6380389477 -9.5140880868 0.47179104153 6.6380389477 -9.5140880868 0.47179104153 
6.6380389477 -9.5140880868 0.47179104153 
