# vtk DataFile Version 4.1
Generated by LIGGGHTS
ASCII
DATASET POLYDATA
POINTS 100 float
-0.10789 -0.128712 0.0188506 -0.118169 -0.129569 0.0205638 -0.127592 -0.129569 0.0239904 
-0.11046 -0.129569 0.0291301 -0.0984668 -0.126999 0.0231337 -0.119026 -0.130426 0.0308434 
-0.130162 -0.131282 0.0325566 -0.101893 -0.131282 0.0282735 -0.136158 -0.130426 0.0265602 
-0.115599 -0.126999 0.0111409 -0.11303 -0.132139 0.0368398 -0.124166 -0.132139 0.0359831 
-0.120739 -0.123573 0.0128542 -0.107033 -0.132995 0.0368398 -0.125879 -0.124429 0.0162807 
-0.119026 -0.132995 0.0376964 -0.10275 -0.125286 0.0299867 -0.135302 -0.124429 0.0231337 
-0.111316 -0.132139 0.00942766 -0.137015 -0.132995 0.0325566 -0.113886 -0.135565 0.0137108 
-0.109603 -0.133852 0.0411229 -0.10018 -0.134709 0.0231337 -0.0924704 -0.123573 0.0197072 
-0.0976102 -0.129569 0.0162807 -0.115599 -0.121859 0.0145675 -0.0993234 -0.121003 0.0188506 
-0.0941837 -0.121003 0.0222771 -0.113886 -0.133852 0.0419795 -0.116456 -0.123573 0.0282735 
-0.117313 -0.133852 0.0419795 -0.0950403 -0.132139 0.0274169 -0.125022 -0.136422 0.0188506 
-0.10275 -0.133852 0.0342699 -0.141298 -0.132995 0.0282735 -0.0984668 -0.133852 0.0197072 
-0.122452 -0.133852 0.0411229 -0.103607 -0.130426 0.0342699 -0.130162 -0.133852 0.038553 
-0.121596 -0.128712 0.0111409 -0.124166 -0.135565 0.0299867 -0.10532 -0.135565 0.0325566 
-0.10532 -0.122716 0.0274169 -0.10532 -0.136422 0.0257036 -0.133589 -0.126142 0.0299867 
-0.134445 -0.133852 0.0368398 -0.0993234 -0.128712 0.0128542 -0.124166 -0.127856 0.0128542 
-0.120739 -0.133852 0.0436928 -0.130162 -0.122716 0.017994 -0.0387216 -0.100716 0.012291 
-0.0490223 -0.101581 0.0138672 -0.0584888 -0.101596 0.0171713 -0.0414244 -0.101615 0.0225327 
-0.0293553 -0.0990196 0.0167029 -0.050012 -0.10248 0.0241312 -0.0611693 -0.103345 0.0256964 
-0.0328475 -0.103324 0.0217802 -0.0670876 -0.102464 0.0196263 -0.0463308 -0.0989721 0.00448909 
-0.0440937 -0.104217 0.0301978 -0.0552177 -0.104215 0.0291968 -0.051493 -0.0955532 0.00614963 
-0.0380976 -0.105073 0.030272 -0.0566766 -0.0964243 0.00950565 -0.0501004 -0.105078 0.030973 
-0.0337271 -0.0973351 0.0235068 -0.0661875 -0.0964535 0.0162358 -0.0420251 -0.104104 0.00281042 
-0.0680215 -0.105059 0.0256005 -0.0446498 -0.107549 0.00704573 -0.0407226 -0.105948 0.0345179 
-0.0310671 -0.106729 0.016649 -0.0233155 -0.0955785 0.0133685 -0.0284095 -0.101561 0.00985106 
-0.0463761 -0.0938464 0.00793646 -0.0301572 -0.0930058 0.0124337 -0.0250624 -0.0930193 0.0159265 
-0.0450166 -0.105952 0.0353189 -0.0474101 -0.0956161 0.021623 -0.0484428 -0.105952 0.0352744 
-0.0259838 -0.104177 0.021009 -0.0558515 -0.108428 0.0120371 -0.0337813 -0.105919 0.0277544 
-0.0722488 -0.105041 0.0212622 -0.0293098 -0.105859 0.0132485 -0.053571 -0.105949 0.0343513 
-0.0346385 -0.102492 0.0277573 -0.0612467 -0.105939 0.0316816 -0.0523265 -0.100686 0.0044043 
-0.0551395 -0.107617 0.0231868 -0.0363286 -0.107625 0.0260009 -0.0362639 -0.0947549 0.0209144 
-0.0362396 -0.108454 0.019145 -0.064563 -0.0981948 0.0231034 -0.0655072 -0.105933 0.0299131 
-0.0300783 -0.100691 0.00640619 -0.0549185 -0.0998366 0.0060876 -0.0518912 -0.105959 0.0369431 
-0.0609818 -0.0947186 0.0111703 
VERTICES 100 200
1 0 
1 1 
1 2 
1 3 
1 4 
1 5 
1 6 
1 7 
1 8 
1 9 
1 10 
1 11 
1 12 
1 13 
1 14 
1 15 
1 16 
1 17 
1 18 
1 19 
1 20 
1 21 
1 22 
1 23 
1 24 
1 25 
1 26 
1 27 
1 28 
1 29 
1 30 
1 31 
1 32 
1 33 
1 34 
1 35 
1 36 
1 37 
1 38 
1 39 
1 40 
1 41 
1 42 
1 43 
1 44 
1 45 
1 46 
1 47 
1 48 
1 49 
1 50 
1 51 
1 52 
1 53 
1 54 
1 55 
1 56 
1 57 
1 58 
1 59 
1 60 
1 61 
1 62 
1 63 
1 64 
1 65 
1 66 
1 67 
1 68 
1 69 
1 70 
1 71 
1 72 
1 73 
1 74 
1 75 
1 76 
1 77 
1 78 
1 79 
1 80 
1 81 
1 82 
1 83 
1 84 
1 85 
1 86 
1 87 
1 88 
1 89 
1 90 
1 91 
1 92 
1 93 
1 94 
1 95 
1 96 
1 97 
1 98 
1 99 

POINT_DATA 100
FIELD FieldData 7
id 1 100 int
1 2 3 4 5 6 7 8 9 
10 11 12 13 14 15 16 17 18 
19 20 21 22 23 24 25 26 27 
28 29 30 31 32 33 34 35 36 
37 38 39 40 41 42 43 44 45 
46 47 48 49 50 51 52 53 54 
55 56 57 58 59 60 61 62 63 
64 65 66 67 68 69 70 71 72 
73 74 75 76 77 78 79 80 81 
82 83 84 85 86 87 88 89 90 
91 92 93 94 95 96 97 98 99 
100 
mol 1 100 int
1 1 1 1 1 1 1 1 1 
1 1 1 1 1 1 1 1 1 
1 1 1 1 1 1 1 1 1 
1 1 1 1 1 1 1 1 1 
1 1 1 1 1 1 1 1 1 
1 1 1 1 1 2 2 2 2 
2 2 2 2 2 2 2 2 2 
2 2 2 2 2 2 2 2 2 
2 2 2 2 2 2 2 2 2 
2 2 2 2 2 2 2 2 2 
2 2 2 2 2 2 2 2 2 
2 
type 1 100 int
1 1 1 1 1 1 1 1 1 
1 1 1 1 1 1 1 1 1 
1 1 1 1 1 1 1 1 1 
1 1 1 1 1 1 1 1 1 
1 1 1 1 1 1 1 1 1 
1 1 1 1 1 1 1 1 1 
1 1 1 1 1 1 1 1 1 
1 1 1 1 1 1 1 1 1 
1 1 1 1 1 1 1 1 1 
1 1 1 1 1 1 1 1 1 
1 1 1 1 1 1 1 1 1 
1 
v 3 100 double
0 0 -2.47145095 0 0 -2.47145095 0 0 -2.47145095 
0 0 -2.47145095 0 0 -2.47145095 0 0 -2.47145095 
0 0 -2.47145095 0 0 -2.47145095 0 0 -2.47145095 
0 0 -2.47145095 0 0 -2.47145095 0 0 -2.47145095 
0 0 -2.47145095 0 0 -2.47145095 0 0 -2.47145095 
0 0 -2.47145095 0 0 -2.47145095 0 0 -2.47145095 
0 0 -2.47145095 0 0 -2.47145095 0 0 -2.47145095 
0 0 -2.47145095 0 0 -2.47145095 0 0 -2.47145095 
0 0 -2.47145095 0 0 -2.47145095 0 0 -2.47145095 
0 0 -2.47145095 0 0 -2.47145095 0 0 -2.47145095 
0 0 -2.47145095 0 0 -2.47145095 0 0 -2.47145095 
0 0 -2.47145095 0 0 -2.47145095 0 0 -2.47145095 
0 0 -2.47145095 0 0 -2.47145095 0 0 -2.47145095 
0 0 -2.47145095 0 0 -2.47145095 0 0 -2.47145095 
0 0 -2.47145095 0 0 -2.47145095 0 0 -2.47145095 
0 0 -2.47145095 0 0 -2.47145095 0 0 -2.47145095 
0 0 -2.47145095 0 0 -2.47145095 -0.13234309534 -0.037173909579 0.71061042062 
-0.1436061154 -0.040391331212 0.63524162849 -0.16694965408 -0.048929974958 0.5683216201 -0.20482699588 -0.067583143638 0.68881203992 
-0.16325933128 -0.051831845548 0.78188099073 -0.21624763271 -0.071121192385 0.6255459441 -0.22743220016 -0.074178440673 0.54412526499 
-0.19976401255 -0.066588652527 0.74426187919 -0.18442084713 -0.05504265486 0.50496584763 -0.076969985563 -0.012578306635 0.66210300821 
-0.2593608653 -0.090246391412 0.66212878868 -0.25228903378 -0.085589082127 0.58355194731 -0.088194690018 -0.016809701923 0.63592093304 
-0.26001191008 -0.091356937806 0.70191165646 -0.11203165791 -0.026138264826 0.59668106605 -0.26496487858 -0.091689672134 0.61710564183 
-0.21107489026 -0.071652385374 0.75606430553 -0.15958028294 -0.044976708515 0.52940506444 -0.065870673577 -0.0081656282686 0.67708135139 
-0.22700837115 -0.072876026262 0.49056332443 -0.096300006183 -0.020517940483 0.64817835795 -0.29013551538 -0.10374094878 0.68073724167 
-0.16401943469 -0.051416406624 0.74659519639 -0.1391951434 -0.042695147169 0.83489984935 -0.11523186644 -0.031360099585 0.78091658082 
-0.10056486305 -0.02294200267 0.67720264912 -0.13221060031 -0.038870638324 0.79430693681 -0.15688708875 -0.050131676885 0.83025778945 
-0.29579452692 -0.1055150892 0.6503914761 -0.19751334856 -0.063961068906 0.66457396582 -0.29548072493 -0.10487445388 0.62618652851 
-0.19444223345 -0.065284404616 0.79018488862 -0.13169107925 -0.033875603005 0.56640215931 -0.24235153932 -0.084422029539 0.72985956791 
-0.19635905636 -0.059200185794 0.4607523008 -0.13986865208 -0.04144719008 0.76162949961 -0.28895874646 -0.10133854298 0.58996780522 
-0.24186552713 -0.084304136892 0.7341116395 -0.27009817513 -0.092171971839 0.535774014 -0.076624612546 -0.011436049501 0.61459211887 
-0.21033627944 -0.067521560634 0.5738714888 -0.23021671412 -0.078770210569 0.70673188947 -0.19238005558 -0.063478768831 0.74590550344 
-0.18190702306 -0.058159450615 0.70486835345 -0.20835254859 -0.065876079127 0.53564319398 -0.25760338313 -0.086221285201 0.50569610869 
-0.090767295745 -0.020750265928 0.77174652257 -0.088390327089 -0.016116216815 0.59883630036 -0.30727017116 -0.10938401633 0.60180346796 
-0.12353888507 -0.030508812548 0.57139869896 
f 3 100 double
0 0 0 0 0 0 0 0 0 
0 0 0 0 0 0 0 0 0 
0 0 0 0 0 0 0 0 0 
0 0 0 0 0 0 0 0 0 
0 0 0 0 0 0 0 0 0 
0 0 0 0 0 0 0 0 0 
0 0 0 0 0 0 0 0 0 
0 0 0 0 0 0 0 0 0 
0 0 0 0 0 0 0 0 0 
0 0 0 0 0 0 0 0 0 
0 0 0 0 0 0 0 0 0 
0 0 0 0 0 0 0 0 0 
0 0 0 0 0 0 0 0 0 
0 0 0 0 0 0 0 0 0 
0 0 0 0 0 0 0 0 0 
0 0 0 0 0 0 0 0 0 
0 0 0 0 0 0 0 0 0 
0 0 0 0 0 0 0 0 0 
0 0 0 0 0 0 0 0 0 
0 0 0 0 0 0 -0.95660677548 -0.66925042915 12.203197378 
0 0 0 0 0 0 0 0 0 
0 0 0 0 0 0 0 0 0 
0 0 0 0 0 0 -1.2044138589 -0.38932056194 2.5315475453 
0 0 0 0 0 0 0 0 0 
0 0 0 0 0 0 0 0 0 
0 0 0 0 0 0 0 0 0 
0 0 0 0 0 0 0 0 0 
0 0 0 0 0 0 0 0 0 
0 0 0 0 0 0 0 0 0 
0 0 0 0 0 0 0 0 0 
0 0 0 0 0 0 0 0 0 
0 0 0 0 0 0 0 0 0 
0 0 0 0 0 0 0 0 0 
0 0 0 
radius 1 100 double
0.010434 0.00981478 0.00892069 0.00845937 0.00731974 0.00728422 0.00643447 0.00619172 0.00585956 
0.00577566 0.00537241 0.00522549 0.00513666 0.00473175 0.00466912 0.00444866 0.00441894 0.00400812 
0.00385622 0.00379948 0.00370243 0.00366942 0.00364039 0.00363813 0.00363644 0.00358692 0.0035797 
0.00341284 0.00337012 0.00336273 0.00332772 0.00323261 0.00320584 0.00320311 0.00318808 0.00313116 
0.00306026 0.00305632 0.00304383 0.00300958 0.00300137 0.00298994 0.0029567 0.00295111 0.00290849 
0.00284552 0.00282964 0.0028207 0.00281971 0.00281899 0.010434 0.00981478 0.00892069 0.00845937 
0.00731974 0.00728422 0.00643447 0.00619172 0.00585956 0.00577566 0.00537241 0.00522549 0.00513666 
0.00473175 0.00466912 0.00444866 0.00441894 0.00400812 0.00385622 0.00379948 0.00370243 0.00366942 
0.00364039 0.00363813 0.00363644 0.00358692 0.0035797 0.00341284 0.00337012 0.00336273 0.00332772 
0.00323261 0.00320584 0.00320311 0.00318808 0.00313116 0.00306026 0.00305632 0.00304383 0.00300958 
0.00300137 0.00298994 0.0029567 0.00295111 0.00290849 0.00284552 0.00282964 0.0028207 0.00281971 
0.00281899 
omega 3 100 double
0 0 0 0 0 0 0 0 0 
0 0 0 0 0 0 0 0 0 
0 0 0 0 0 0 0 0 0 
0 0 0 0 0 0 0 0 0 
0 0 0 0 0 0 0 0 0 
0 0 0 0 0 0 0 0 0 
0 0 0 0 0 0 0 0 0 
0 0 0 0 0 0 0 0 0 
0 0 0 0 0 0 0 0 0 
0 0 0 0 0 0 0 0 0 
0 0 0 0 0 0 0 0 0 
0 0 0 0 0 0 0 0 0 
0 0 0 0 0 0 0 0 0 
0 0 0 0 0 0 0 0 0 
0 0 0 0 0 0 0 0 0 
0 0 0 0 0 0 0 0 0 
0 0 0 0 0 0 3.0082072985 -7.064335267 -0.147973103 
3.0082072985 -7.064335267 -0.147973103 3.0082072985 -7.064335267 -0.147973103 3.0082072985 -7.064335267 -0.147973103 
3.0082072985 -7.064335267 -0.147973103 3.0082072985 -7.064335267 -0.147973103 3.0082072985 -7.064335267 -0.147973103 
3.0082072985 -7.064335267 -0.147973103 3.0082072985 -7.064335267 -0.147973103 3.0082072985 -7.064335267 -0.147973103 
3.0082072985 -7.064335267 -0.147973103 3.0082072985 -7.064335267 -0.147973103 3.0082072985 -7.064335267 -0.147973103 
3.0082072985 -7.064335267 -0.147973103 3.0082072985 -7.064335267 -0.147973103 3.0082072985 -7.064335267 -0.147973103 
3.0082072985 -7.064335267 -0.147973103 3.0082072985 -7.064335267 -0.147973103 3.0082072985 -7.064335267 -0.147973103 
3.0082072985 -7.064335267 -0.147973103 3.0082072985 -7.064335267 -0.147973103 3.0082072985 -7.064335267 -0.147973103 
3.0082072985 -7.064335267 -0.147973103 3.0082072985 -7.064335267 -0.147973103 3.0082072985 -7.064335267 -0.147973103 
3.0082072985 -7.064335267 -0.147973103 3.0082072985 -7.064335267 -0.147973103 3.0082072985 -7.064335267 -0.147973103 
3.0082072985 -7.064335267 -0.147973103 3.0082072985 -7.064335267 -0.147973103 3.0082072985 -7.064335267 -0.147973103 
3.0082072985 -7.064335267 -0.147973103 3.0082072985 -7.064335267 -0.147973103 3.0082072985 -7.064335267 -0.147973103 
3.0082072985 -7.064335267 -0.147973103 3.0082072985 -7.064335267 -0.147973103 3.0082072985 -7.064335267 -0.147973103 
3.0082072985 -7.064335267 -0.147973103 3.0082072985 -7.064335267 -0.147973103 3.0082072985 -7.064335267 -0.147973103 
3.0082072985 -7.064335267 -0.147973103 3.0082072985 -7.064335267 -0.147973103 3.0082072985 -7.064335267 -0.147973103 
3.0082072985 -7.064335267 -0.147973103 3.0082072985 -7.064335267 -0.147973103 3.0082072985 -7.064335267 -0.147973103 
3.0082072985 -7.064335267 -0.147973103 3.0082072985 -7.064335267 -0.147973103 3.0082072985 -7.064335267 -0.147973103 
3.0082072985 -7.064335267 -0.147973103 
