# vtk DataFile Version 4.1
Generated by LIGGGHTS
ASCII
DATASET POLYDATA
POINTS 100 float
-0.111105 -0.130479 0.0220556 -0.1215 -0.131405 0.0214085 -0.131444 -0.131602 0.0226767 
-0.115855 -0.132049 0.0314352 -0.102868 -0.12912 0.0284102 -0.124578 -0.132984 0.0311639 
-0.135809 -0.133905 0.030329 -0.107291 -0.133739 0.0323599 -0.140355 -0.132597 0.0232389 
-0.116956 -0.128186 0.0129827 -0.120023 -0.135147 0.0381939 -0.1307 -0.135032 0.0349182 
-0.122383 -0.124865 0.0137634 -0.114164 -0.13603 0.0394487 -0.128139 -0.125937 0.0159106 
-0.126052 -0.136032 0.0376524 -0.108567 -0.127875 0.0342601 -0.138834 -0.126377 0.0205132 
-0.112346 -0.133213 0.0118939 -0.142477 -0.135581 0.0287059 -0.115755 -0.136921 0.0152579 
-0.1176 -0.137176 0.042993 -0.104456 -0.136801 0.0274933 -0.0963039 -0.125488 0.0266312 
-0.100503 -0.131202 0.0217488 -0.117762 -0.123302 0.016678 -0.10283 -0.122831 0.0244752 
-0.0985662 -0.123098 0.0289367 -0.121966 -0.137215 0.0428874 -0.121582 -0.125978 0.0297076 
-0.125309 -0.137199 0.042136 -0.100408 -0.134566 0.0329689 -0.127737 -0.138086 0.0177575 
-0.109412 -0.136723 0.0378269 -0.145718 -0.135256 0.0235987 -0.102043 -0.135712 0.0245947 
-0.130136 -0.137113 0.0401753 -0.110285 -0.133301 0.0378796 -0.137095 -0.136893 0.0359839 
-0.122788 -0.129866 0.0115475 -0.12935 -0.138025 0.0288424 -0.111526 -0.138298 0.0354758 
-0.110539 -0.125117 0.0313762 -0.110015 -0.138667 0.0287468 -0.138645 -0.12858 0.0274375 
-0.140899 -0.136751 0.0333775 -0.101433 -0.130096 0.0180988 -0.12568 -0.129121 0.0127114 
-0.129028 -0.137303 0.0430519 -0.132712 -0.124329 0.0167589 -0.0422356 -0.102691 0.0224679 
-0.0526102 -0.103622 0.0215533 -0.0625828 -0.103839 0.0225704 -0.0472171 -0.10434 0.0317129 
-0.0341623 -0.101373 0.0290373 -0.0559302 -0.105281 0.0312158 -0.0671357 -0.106207 0.0300925 
-0.0386771 -0.106029 0.0328384 -0.0715043 -0.104847 0.0229013 -0.0478607 -0.100332 0.0132696 
-0.0515499 -0.107495 0.0383404 -0.0621419 -0.107364 0.0347993 -0.0533094 -0.0970226 0.0139402 
-0.0457225 -0.108382 0.0397346 -0.0591162 -0.0981175 0.015934 -0.0575621 -0.108382 0.0376411 
-0.0400071 -0.100181 0.0347522 -0.0699223 -0.0986042 0.0202636 -0.0432192 -0.105345 0.0122571 
-0.0737586 -0.107876 0.0282898 -0.0467066 -0.109084 0.0155053 -0.0492451 -0.109559 0.0431826 
-0.0357179 -0.109049 0.0280205 -0.0275601 -0.0977214 0.027452 -0.0316289 -0.1034 0.022421 
-0.048765 -0.0954785 0.0169819 -0.0340335 -0.0950535 0.0251542 -0.0298824 -0.0953523 0.0297189 
-0.0536076 -0.109602 0.0429673 -0.0529068 -0.0982611 0.0298902 -0.0569308 -0.109583 0.0421326 
-0.0318105 -0.106854 0.0336132 -0.0587457 -0.11028 0.0176947 -0.0409314 -0.109058 0.038227 
-0.0768706 -0.107515 0.0231057 -0.0332345 -0.107935 0.0251919 -0.0617073 -0.109487 0.0400523 
-0.0418094 -0.105637 0.0382847 -0.0685593 -0.109241 0.0356897 -0.0536527 -0.102007 0.0116756 
-0.060636 -0.110308 0.0287358 -0.0429835 -0.110616 0.0358114 -0.0419097 -0.0974024 0.0318416 
-0.0413044 -0.110931 0.0291196 -0.0699043 -0.100861 0.0271729 -0.0722964 -0.109082 0.03299 
-0.0324686 -0.102267 0.0187577 -0.0565738 -0.101273 0.0127724 -0.0606709 -0.109699 0.0429542 
-0.0637105 -0.0965204 0.0166802 
VERTICES 100 200
1 0 
1 1 
1 2 
1 3 
1 4 
1 5 
1 6 
1 7 
1 8 
1 9 
1 10 
1 11 
1 12 
1 13 
1 14 
1 15 
1 16 
1 17 
1 18 
1 19 
1 20 
1 21 
1 22 
1 23 
1 24 
1 25 
1 26 
1 27 
1 28 
1 29 
1 30 
1 31 
1 32 
1 33 
1 34 
1 35 
1 36 
1 37 
1 38 
1 39 
1 40 
1 41 
1 42 
1 43 
1 44 
1 45 
1 46 
1 47 
1 48 
1 49 
1 50 
1 51 
1 52 
1 53 
1 54 
1 55 
1 56 
1 57 
1 58 
1 59 
1 60 
1 61 
1 62 
1 63 
1 64 
1 65 
1 66 
1 67 
1 68 
1 69 
1 70 
1 71 
1 72 
1 73 
1 74 
1 75 
1 76 
1 77 
1 78 
1 79 
1 80 
1 81 
1 82 
1 83 
1 84 
1 85 
1 86 
1 87 
1 88 
1 89 
1 90 
1 91 
1 92 
1 93 
1 94 
1 95 
1 96 
1 97 
1 98 
1 99 

POINT_DATA 100
FIELD FieldData 7
id 1 100 int
1 2 3 4 5 6 7 8 9 
10 11 12 13 14 15 16 17 18 
19 20 21 22 23 24 25 26 27 
28 29 30 31 32 33 34 35 36 
37 38 39 40 41 42 43 44 45 
46 47 48 49 50 51 52 53 54 
55 56 57 58 59 60 61 62 63 
64 65 66 67 68 69 70 71 72 
73 74 75 76 77 78 79 80 81 
82 83 84 85 86 87 88 89 90 
91 92 93 94 95 96 97 98 99 
100 
mol 1 100 int
1 1 1 1 1 1 1 1 1 
1 1 1 1 1 1 1 1 1 
1 1 1 1 1 1 1 1 1 
1 1 1 1 1 1 1 1 1 
1 1 1 1 1 1 1 1 1 
1 1 1 1 1 2 2 2 2 
2 2 2 2 2 2 2 2 2 
2 2 2 2 2 2 2 2 2 
2 2 2 2 2 2 2 2 2 
2 2 2 2 2 2 2 2 2 
2 2 2 2 2 2 2 2 2 
2 
type 1 100 int
1 1 1 1 1 1 1 1 1 
1 1 1 1 1 1 1 1 1 
1 1 1 1 1 1 1 1 1 
1 1 1 1 1 1 1 1 1 
1 1 1 1 1 1 1 1 1 
1 1 1 1 1 1 1 1 1 
1 1 1 1 1 1 1 1 1 
1 1 1 1 1 1 1 1 1 
1 1 1 1 1 1 1 1 1 
1 1 1 1 1 1 1 1 1 
1 1 1 1 1 1 1 1 1 
1 
v 3 100 double
-0.10954450596 -0.060454104911 0.17252231001 -0.10480644846 -0.061310953614 0.097634859523 -0.11367082045 -0.065985283592 0.027403968578 
-0.17508036575 -0.080607301287 0.135959816 -0.15445212855 -0.07170706626 0.2331378179 -0.17297943861 -0.081881396416 0.07279309591 
-0.1669230378 -0.082529702674 -0.0079552636752 -0.1812190094 -0.080701084393 0.19264450974 -0.11740988414 -0.069001061305 -0.037204921463 
-0.046314320953 -0.043149257113 0.13611618852 -0.22189115066 -0.0952852649 0.10036188441 -0.19891309846 -0.090832421054 0.025619818111 
-0.052492303114 -0.045881079272 0.10479144862 -0.23051727771 -0.096620147103 0.1397040051 -0.06734566478 -0.051473043571 0.062181928362 
-0.21790336839 -0.095442810015 0.056218178868 -0.19579159928 -0.084849646094 0.19566271282 -0.099573327671 -0.063115012221 -0.013815647567 
-0.037615464449 -0.039959412345 0.15821951492 -0.15517479523 -0.08061204748 -0.058198467708 -0.060460398947 -0.047544605788 0.12670852013 
-0.2551662213 -0.1045796004 0.11323451125 -0.14640402162 -0.070167271258 0.20629508566 -0.14272086567 -0.066697872996 0.2866483239 
-0.10723850629 -0.057605651797 0.24549126187 -0.073286531542 -0.050865731357 0.14043070744 -0.12813839339 -0.063662076995 0.24624834525 
-0.15941144195 -0.071881009731 0.27564284998 -0.25441591799 -0.10527889816 0.082490687844 -0.16422127432 -0.078279022929 0.10814101783 
-0.24914311872 -0.1044448247 0.059049417633 -0.18532249363 -0.080502572489 0.23928851913 -0.077768760474 -0.05516097446 0.040193617831 
-0.21898396665 -0.09231207787 0.17165116873 -0.11937903528 -0.070859709443 -0.080291377008 -0.12627772786 -0.063741213529 0.22546271043 
-0.23539303169 -0.1014517945 0.025328892812 -0.22007088497 -0.092602549526 0.17251141128 -0.2060061564 -0.09434920843 -0.023088458162 
-0.035884235405 -0.041440111785 0.091733169755 -0.15562082292 -0.078139651178 0.028991139421 -0.20214441124 -0.087952994245 0.15359313167 
-0.17611846525 -0.079372620144 0.18744759602 -0.15481524792 -0.073892572369 0.16344697552 -0.14773496291 -0.077218212569 -0.016989617553 
-0.18773357342 -0.089822807008 -0.049506429787 -0.081839539071 -0.050345539126 0.24121822209 -0.044212988242 -0.044423250929 0.072948910479 
-0.25555262368 -0.10709477028 0.032724534004 -0.073639586555 -0.054163972999 0.033357326922 -0.10891949792 -0.060136157186 0.12476440221 
-0.10238711713 -0.06079890464 0.051338794924 -0.10935153538 -0.065220483959 -0.017887377142 -0.17229911284 -0.079781933395 0.087108964725 
-0.15455350119 -0.071311196771 0.18308584192 -0.16864428381 -0.080879377392 0.025126444789 -0.16067332916 -0.081324853773 -0.054021245592 
-0.17965840278 -0.079980168848 0.14265048395 -0.11139231928 -0.068020429089 -0.08144258164 -0.046032762328 -0.043127448632 0.090668113187 
-0.2172608833 -0.094048025028 0.050924125966 -0.19286441143 -0.089520915595 -0.021882839293 -0.0514524866 -0.045772546476 0.059686349812 
-0.22666557661 -0.095432995547 0.089351764819 -0.064944038647 -0.051144398186 0.017444710297 -0.21222425291 -0.09409429099 0.007678742646 
-0.19426270856 -0.084118656093 0.14514600577 -0.094694223475 -0.062376876055 -0.058070329348 -0.037846019918 -0.039993592731 0.11268168657 
-0.14783743403 -0.079315372971 -0.10303955656 -0.059356543649 -0.047312659939 0.081163191807 -0.25016899506 -0.10315933408 0.062703155466 
-0.14569835591 -0.06965491734 0.15703552783 -0.14449313289 -0.066563853442 0.23591805786 -0.10842631265 -0.057498989283 0.19651646623 
-0.072805160163 -0.050753195633 0.094117225628 -0.12928217739 -0.063530434016 0.19658751095 -0.16069897608 -0.071644985328 0.22462696369 
-0.24867321364 -0.10377580923 0.032522855708 -0.16118357708 -0.077508771819 0.059991991142 -0.24291954601 -0.10290682638 0.0096368302388 
-0.18480504972 -0.079879657588 0.18837174813 -0.074172803126 -0.054569450176 -0.00427326571 -0.21610356791 -0.091275120338 0.12105370941 
-0.11216251405 -0.069715328151 -0.12378567009 -0.12645299158 -0.063414062174 0.1763905308 -0.22859253155 -0.09990061669 -0.023120274932 
-0.21732208538 -0.091600877252 0.12182397394 -0.19855686921 -0.092837044636 -0.069896680746 -0.034635236941 -0.04133520435 0.047371180458 
-0.15033101774 -0.077058437247 -0.017368875116 -0.19906622581 -0.086946222582 0.10378761441 -0.17485093752 -0.078766013419 0.13756735769 
-0.15282919638 -0.073188287338 0.11474304471 -0.14181528823 -0.076162034034 -0.062451907214 -0.17997196856 -0.088345376943 -0.095359511628 
-0.08342741759 -0.050389170289 0.19298603586 -0.042377522644 -0.044224792511 0.028685055599 -0.24855940148 -0.10544348778 -0.016393912754 
-0.070474006708 -0.05373532232 -0.011061340376 
f 3 100 double
0 0 0 0 0 0 0 0 0 
0 0 0 0 0 0 0 0 0 
0 0 0 0 0 0 0 0 0 
0 0 0 0 0 0 0 0 0 
0 0 0 0 0 0 0 0 0 
0 0 0 0 0 0 0 0 0 
0 0 0 0 0 0 0 0 0 
0 0 0 0 0 0 0 0 0 
0 0 0 0 0 0 0 0 0 
0 0 0 0 0 0 0 0 0 
0 0 0 0 0 0 0 0 0 
0 0 0 0 0 0 0 0 0 
0 0 0 0 0 0 0 0 0 
0 0 0 0 0 0 0 0 0 
0 0 0 0 0 0 0 0 0 
0 0 0 0 0 0 0 0 0 
0 0 0 0 0 0 0 0 0 
0 0 0 0 0 0 0 0 0 
0 0 0 0 0 0 0 0 0 
0 0 0 0 0 0 0 0 0 
0 0 0 0 0 0 0 0 0 
0 0 0 0 0 0 0 0 0 
0 0 0 0 0 0 0 0 0 
0 0 0 0 0 0 0 0 0 
0 0 0 0 0 0 0 0 0 
0 0 0 0 0 0 0 0 0 
0 0 0 0 0 0 0 0 0 
0 0 0 0 0 0 0 0 0 
0 0 0 0 0 0 0 0 0 
0 0 0 0 0 0 0 0 0 
0 0 0 0 0 0 0 0 0 
0 0 0 0 0 0 0 0 0 
0 0 0 0 0 0 0 0 0 
0 0 0 
radius 1 100 double
0.010434 0.00981478 0.00892069 0.00845937 0.00731974 0.00728422 0.00643447 0.00619172 0.00585956 
0.00577566 0.00537241 0.00522549 0.00513666 0.00473175 0.00466912 0.00444866 0.00441894 0.00400812 
0.00385622 0.00379948 0.00370243 0.00366942 0.00364039 0.00363813 0.00363644 0.00358692 0.0035797 
0.00341284 0.00337012 0.00336273 0.00332772 0.00323261 0.00320584 0.00320311 0.00318808 0.00313116 
0.00306026 0.00305632 0.00304383 0.00300958 0.00300137 0.00298994 0.0029567 0.00295111 0.00290849 
0.00284552 0.00282964 0.0028207 0.00281971 0.00281899 0.010434 0.00981478 0.00892069 0.00845937 
0.00731974 0.00728422 0.00643447 0.00619172 0.00585956 0.00577566 0.00537241 0.00522549 0.00513666 
0.00473175 0.00466912 0.00444866 0.00441894 0.00400812 0.00385622 0.00379948 0.00370243 0.00366942 
0.00364039 0.00363813 0.00363644 0.00358692 0.0035797 0.00341284 0.00337012 0.00336273 0.00332772 
0.00323261 0.00320584 0.00320311 0.00318808 0.00313116 0.00306026 0.00305632 0.00304383 0.00300958 
0.00300137 0.00298994 0.0029567 0.00295111 0.00290849 0.00284552 0.00282964 0.0028207 0.00281971 
0.00281899 
omega 3 100 double
2.0424786291 -7.0221142526 0.20957143795 2.0424786291 -7.0221142526 0.20957143795 2.0424786291 -7.0221142526 0.20957143795 
2.0424786291 -7.0221142526 0.20957143795 2.0424786291 -7.0221142526 0.20957143795 2.0424786291 -7.0221142526 0.20957143795 
2.0424786291 -7.0221142526 0.20957143795 2.0424786291 -7.0221142526 0.20957143795 2.0424786291 -7.0221142526 0.20957143795 
2.0424786291 -7.0221142526 0.20957143795 2.0424786291 -7.0221142526 0.20957143795 2.0424786291 -7.0221142526 0.20957143795 
2.0424786291 -7.0221142526 0.20957143795 2.0424786291 -7.0221142526 0.20957143795 2.0424786291 -7.0221142526 0.20957143795 
2.0424786291 -7.0221142526 0.20957143795 2.0424786291 -7.0221142526 0.20957143795 2.0424786291 -7.0221142526 0.20957143795 
2.0424786291 -7.0221142526 0.20957143795 2.0424786291 -7.0221142526 0.20957143795 2.0424786291 -7.0221142526 0.20957143795 
2.0424786291 -7.0221142526 0.20957143795 2.0424786291 -7.0221142526 0.20957143795 2.0424786291 -7.0221142526 0.20957143795 
2.0424786291 -7.0221142526 0.20957143795 2.0424786291 -7.0221142526 0.20957143795 2.0424786291 -7.0221142526 0.20957143795 
2.0424786291 -7.0221142526 0.20957143795 2.0424786291 -7.0221142526 0.20957143795 2.0424786291 -7.0221142526 0.20957143795 
2.0424786291 -7.0221142526 0.20957143795 2.0424786291 -7.0221142526 0.20957143795 2.0424786291 -7.0221142526 0.20957143795 
2.0424786291 -7.0221142526 0.20957143795 2.0424786291 -7.0221142526 0.20957143795 2.0424786291 -7.0221142526 0.20957143795 
2.0424786291 -7.0221142526 0.20957143795 2.0424786291 -7.0221142526 0.20957143795 2.0424786291 -7.0221142526 0.20957143795 
2.0424786291 -7.0221142526 0.20957143795 2.0424786291 -7.0221142526 0.20957143795 2.0424786291 -7.0221142526 0.20957143795 
2.0424786291 -7.0221142526 0.20957143795 2.0424786291 -7.0221142526 0.20957143795 2.0424786291 -7.0221142526 0.20957143795 
2.0424786291 -7.0221142526 0.20957143795 2.0424786291 -7.0221142526 0.20957143795 2.0424786291 -7.0221142526 0.20957143795 
2.0424786291 -7.0221142526 0.20957143795 2.0424786291 -7.0221142526 0.20957143795 1.9957809347 -6.8982973444 0.23982137408 
1.9957809347 -6.8982973444 0.23982137408 1.9957809347 -6.8982973444 0.23982137408 1.9957809347 -6.8982973444 0.23982137408 
1.9957809347 -6.8982973444 0.23982137408 1.9957809347 -6.8982973444 0.23982137408 1.9957809347 -6.8982973444 0.23982137408 
1.9957809347 -6.8982973444 0.23982137408 1.9957809347 -6.8982973444 0.23982137408 1.9957809347 -6.8982973444 0.23982137408 
1.9957809347 -6.8982973444 0.23982137408 1.9957809347 -6.8982973444 0.23982137408 1.9957809347 -6.8982973444 0.23982137408 
1.9957809347 -6.8982973444 0.23982137408 1.9957809347 -6.8982973444 0.23982137408 1.9957809347 -6.8982973444 0.23982137408 
1.9957809347 -6.8982973444 0.23982137408 1.9957809347 -6.8982973444 0.23982137408 1.9957809347 -6.8982973444 0.23982137408 
1.9957809347 -6.8982973444 0.23982137408 1.9957809347 -6.8982973444 0.23982137408 1.9957809347 -6.8982973444 0.23982137408 
1.9957809347 -6.8982973444 0.23982137408 1.9957809347 -6.8982973444 0.23982137408 1.9957809347 -6.8982973444 0.23982137408 
1.9957809347 -6.8982973444 0.23982137408 1.9957809347 -6.8982973444 0.23982137408 1.9957809347 -6.8982973444 0.23982137408 
1.9957809347 -6.8982973444 0.23982137408 1.9957809347 -6.8982973444 0.23982137408 1.9957809347 -6.8982973444 0.23982137408 
1.9957809347 -6.8982973444 0.23982137408 1.9957809347 -6.8982973444 0.23982137408 1.9957809347 -6.8982973444 0.23982137408 
1.9957809347 -6.8982973444 0.23982137408 1.9957809347 -6.8982973444 0.23982137408 1.9957809347 -6.8982973444 0.23982137408 
1.9957809347 -6.8982973444 0.23982137408 1.9957809347 -6.8982973444 0.23982137408 1.9957809347 -6.8982973444 0.23982137408 
1.9957809347 -6.8982973444 0.23982137408 1.9957809347 -6.8982973444 0.23982137408 1.9957809347 -6.8982973444 0.23982137408 
1.9957809347 -6.8982973444 0.23982137408 1.9957809347 -6.8982973444 0.23982137408 1.9957809347 -6.8982973444 0.23982137408 
1.9957809347 -6.8982973444 0.23982137408 1.9957809347 -6.8982973444 0.23982137408 1.9957809347 -6.8982973444 0.23982137408 
1.9957809347 -6.8982973444 0.23982137408 
