# vtk DataFile Version 4.1
Generated by LIGGGHTS
ASCII
DATASET POLYDATA
POINTS 100 float
-0.119373 -0.135848 0.0182362 -0.128336 -0.136135 0.0128579 -0.137782 -0.136098 0.00949577 
-0.127733 -0.138971 0.0240118 -0.114905 -0.136135 0.0277244 -0.135369 -0.139418 0.0197053 
-0.144995 -0.139625 0.0137911 -0.120415 -0.141214 0.0283094 -0.145954 -0.136757 0.00582224 
-0.120658 -0.131571 0.00814346 -0.134337 -0.143112 0.0274601 -0.142425 -0.141858 0.0198606 
-0.126005 -0.128207 0.00705065 -0.129619 -0.1445 0.0309971 -0.132061 -0.129398 0.00615378 
-0.139445 -0.143589 0.024128 -0.122664 -0.135773 0.0305381 -0.143654 -0.130208 0.00532408 
-0.115829 -0.136506 0.00827224 -0.150157 -0.140636 0.00907599 -0.120212 -0.140628 0.00897392 
-0.134221 -0.146143 0.032341 -0.115575 -0.143411 0.0247262 -0.108405 -0.132546 0.0297993 
-0.109727 -0.137002 0.0225532 -0.123244 -0.127459 0.0119603 -0.113395 -0.129214 0.0255214 
-0.111562 -0.130541 0.0312691 -0.138076 -0.145954 0.0302947 -0.132352 -0.132415 0.021126 
-0.14073 -0.145633 0.0281512 -0.114498 -0.142471 0.0317492 -0.131986 -0.14168 0.00559225 
-0.124618 -0.145093 0.0315631 -0.15079 -0.139177 0.00323109 -0.112173 -0.141899 0.0234795 
-0.144174 -0.14494 0.0243029 -0.125574 -0.141708 0.0318834 -0.148534 -0.143584 0.0175807 
-0.125157 -0.132662 0.00396422 -0.138375 -0.143683 0.0145726 -0.125389 -0.146082 0.0282611 
-0.123263 -0.13242 0.0276733 -0.121021 -0.145216 0.0229822 -0.146476 -0.133712 0.0110326 
-0.150778 -0.14276 0.0136352 -0.10898 -0.13517 0.0191631 -0.128294 -0.132018 0.00383689 
-0.144457 -0.145735 0.027274 -0.136598 -0.127768 0.0051688 -0.0505216 -0.108161 0.0185239 
-0.0594357 -0.108397 0.0130631 -0.0688556 -0.108427 0.00962851 -0.0588387 -0.111791 0.0240607 
-0.0461146 -0.108825 0.0280217 -0.0664298 -0.112209 0.0196732 -0.0760055 -0.112354 0.0136758 
-0.0514958 -0.114066 0.0282979 -0.0769824 -0.109103 0.0058577 -0.0518459 -0.103401 0.00865469 
-0.0653572 -0.116272 0.0272355 -0.0734216 -0.114832 0.0196434 -0.0572701 -0.100123 0.00769203 
-0.0606305 -0.11772 0.0307357 -0.0632863 -0.10142 0.00668435 -0.0704278 -0.116705 0.0238408 
-0.0538996 -0.108807 0.0307853 -0.074849 -0.10248 0.00571709 -0.0468917 -0.108212 0.00856924 
-0.0811063 -0.11325 0.00887189 -0.0511715 -0.112475 0.00902083 -0.0651977 -0.119547 0.0319545 
-0.0465751 -0.115951 0.0246469 -0.0397244 -0.105184 0.0303332 -0.04088 -0.109291 0.0228562 
-0.0545638 -0.0995598 0.0126566 -0.0447686 -0.101763 0.0261912 -0.0429422 -0.103339 0.0318779 
-0.0690412 -0.11935 0.0298886 -0.0636049 -0.105213 0.0214782 -0.0716874 -0.118986 0.0277423 
-0.0455719 -0.115348 0.0317178 -0.06289 -0.11365 0.00549105 -0.0556197 -0.118214 0.0313121 
-0.0817356 -0.111508 0.00310486 -0.0432051 -0.11429 0.0235083 -0.075121 -0.118183 0.0239061 
-0.0566647 -0.114875 0.0317985 -0.0794679 -0.116592 0.0172266 -0.0562851 -0.104389 0.00438728 
-0.0692883 -0.116277 0.0143024 -0.0563412 -0.11905 0.0279572 -0.0545648 -0.105326 0.0280924 
-0.0519598 -0.117802 0.0227666 -0.0776197 -0.106346 0.0112135 -0.0817043 -0.115623 0.0133102 
-0.0401561 -0.107268 0.0195714 -0.059437 -0.103819 0.00426708 -0.075405 -0.119138 0.0268299 
-0.0678572 -0.0998564 0.00574682 
VERTICES 100 200
1 0 
1 1 
1 2 
1 3 
1 4 
1 5 
1 6 
1 7 
1 8 
1 9 
1 10 
1 11 
1 12 
1 13 
1 14 
1 15 
1 16 
1 17 
1 18 
1 19 
1 20 
1 21 
1 22 
1 23 
1 24 
1 25 
1 26 
1 27 
1 28 
1 29 
1 30 
1 31 
1 32 
1 33 
1 34 
1 35 
1 36 
1 37 
1 38 
1 39 
1 40 
1 41 
1 42 
1 43 
1 44 
1 45 
1 46 
1 47 
1 48 
1 49 
1 50 
1 51 
1 52 
1 53 
1 54 
1 55 
1 56 
1 57 
1 58 
1 59 
1 60 
1 61 
1 62 
1 63 
1 64 
1 65 
1 66 
1 67 
1 68 
1 69 
1 70 
1 71 
1 72 
1 73 
1 74 
1 75 
1 76 
1 77 
1 78 
1 79 
1 80 
1 81 
1 82 
1 83 
1 84 
1 85 
1 86 
1 87 
1 88 
1 89 
1 90 
1 91 
1 92 
1 93 
1 94 
1 95 
1 96 
1 97 
1 98 
1 99 

POINT_DATA 100
FIELD FieldData 7
id 1 100 int
1 2 3 4 5 6 7 8 9 
10 11 12 13 14 15 16 17 18 
19 20 21 22 23 24 25 26 27 
28 29 30 31 32 33 34 35 36 
37 38 39 40 41 42 43 44 45 
46 47 48 49 50 51 52 53 54 
55 56 57 58 59 60 61 62 63 
64 65 66 67 68 69 70 71 72 
73 74 75 76 77 78 79 80 81 
82 83 84 85 86 87 88 89 90 
91 92 93 94 95 96 97 98 99 
100 
mol 1 100 int
1 1 1 1 1 1 1 1 1 
1 1 1 1 1 1 1 1 1 
1 1 1 1 1 1 1 1 1 
1 1 1 1 1 1 1 1 1 
1 1 1 1 1 1 1 1 1 
1 1 1 1 1 2 2 2 2 
2 2 2 2 2 2 2 2 2 
2 2 2 2 2 2 2 2 2 
2 2 2 2 2 2 2 2 2 
2 2 2 2 2 2 2 2 2 
2 2 2 2 2 2 2 2 2 
2 
type 1 100 int
1 1 1 1 1 1 1 1 1 
1 1 1 1 1 1 1 1 1 
1 1 1 1 1 1 1 1 1 
1 1 1 1 1 1 1 1 1 
1 1 1 1 1 1 1 1 1 
1 1 1 1 1 1 1 1 1 
1 1 1 1 1 1 1 1 1 
1 1 1 1 1 1 1 1 1 
1 1 1 1 1 1 1 1 1 
1 1 1 1 1 1 1 1 1 
1 1 1 1 1 1 1 1 1 
1 
v 3 100 double
-0.076373236349 -0.13994758831 0.071053747437 -0.061973818094 -0.096212399265 0.044726949409 -0.052790984116 -0.065636791823 0.019257716252 
-0.094725165198 -0.17177108514 0.027280739079 -0.10244370619 -0.20755287733 0.081284637339 -0.083378600767 -0.13636519938 0.0034863673167 
-0.067452785413 -0.088465241315 -0.024107261601 -0.10831241213 -0.20684917575 0.032108380978 -0.043345468058 -0.034037865362 -0.0074207908929 
-0.045297502359 -0.070954697426 0.096337202318 -0.107598707 -0.18941329818 -0.018560907854 -0.085855605185 -0.13146871339 -0.032140301101 
-0.039490995822 -0.059099754272 0.10441224091 -0.11839558331 -0.21718494423 -0.015056317046 -0.038052185647 -0.047966473503 0.079915109718 
-0.098929340671 -0.16269226817 -0.035671157825 -0.10979840338 -0.21995253343 0.062598032564 -0.036475127929 -0.032622377306 0.042908564746 
-0.049803531142 -0.075887252859 0.076274018937 -0.055468499606 -0.05239272847 -0.044960454075 -0.055183878936 -0.07691840017 0.036609633956 
-0.12343723674 -0.22235308429 -0.038638381144 -0.10040781144 -0.18681475492 0.030505228622 -0.10506988759 -0.22698695986 0.12313046579 
-0.089096892483 -0.17711690879 0.089544253896 -0.052225874377 -0.094459940603 0.11696383645 -0.090619453958 -0.1940009815 0.13196531184 
-0.10738292212 -0.23421858857 0.12802636317 -0.11770719009 -0.20533886087 -0.047855179519 -0.081349157512 -0.14846469988 0.058824766047 
-0.11160211511 -0.18868150074 -0.052921058278 -0.11873408062 -0.23497721504 0.039763806137 -0.046864408511 -0.044251182707 -0.0025218767249 
-0.12043549713 -0.2252041847 -0.0054312378502 -0.038329753672 -0.012531304094 -0.036870792772 -0.095741364506 -0.18129023771 0.049936520949 
-0.10054298285 -0.15988737612 -0.057635611298 -0.11845729387 -0.22655488685 0.014745054926 -0.081102094614 -0.11098446876 -0.060380447701 
-0.034839482981 -0.039046419826 0.076750159246 -0.072996947212 -0.099297528085 -0.033392127718 -0.11227946276 -0.20233722048 -0.014183074463 
-0.099176407525 -0.200172451 0.083533868185 -0.097180523749 -0.17049474489 0.0035315773299 -0.054965496997 -0.06865699864 0.011644429639 
-0.069667934029 -0.082547207425 -0.060944081106 -0.078325554019 -0.15493545319 0.10390956499 -0.033950667011 -0.035548196007 0.072543005137 
-0.10930012351 -0.17964026784 -0.063755951842 -0.033998076652 -0.037518636966 0.078534875914 -0.066949601905 -0.12347468213 0.058235542123 
-0.059901007339 -0.088345019992 0.045211256549 -0.055564324441 -0.069365815387 0.03315080386 -0.070934620131 -0.17327756186 0.019601360953 
-0.078331307887 -0.19364529233 0.058611767326 -0.065084733856 -0.14540241257 0.0068252821156 -0.057436714116 -0.1066454429 -0.0063237033872 
-0.074394736563 -0.20018825082 0.011146104272 -0.050278258588 -0.04671855205 0.017702168233 -0.058449247226 -0.047900939324 0.093544867517 
-0.071258519622 -0.20326415595 -0.023386591114 -0.062903274624 -0.15088515748 -0.022330622059 -0.05991964001 -0.044856601184 0.11219665903 
-0.074469205902 -0.22658772629 -0.028701846967 -0.057594923605 -0.041946429965 0.094572671539 -0.066642615955 -0.18104030538 -0.033116297995 
-0.081815584834 -0.22147260701 0.048977988206 -0.055514058595 -0.043882862093 0.071820800205 -0.054410233756 -0.043188522234 0.062396440007 
-0.050672861238 -0.073500652681 -0.019690957034 -0.051493592972 -0.050193656276 0.023914443048 -0.07450647187 -0.23978757015 -0.048625688155 
-0.068271136314 -0.16780862626 0.0026884996628 -0.084209199886 -0.20637664695 0.094918405842 -0.071465036785 -0.14924546821 0.061561451684 
-0.066612882182 -0.081206217069 0.11996945421 -0.081804503219 -0.1783270166 0.11515431461 -0.087656291324 -0.22100428649 0.10520897341 
-0.072073734995 -0.22688166217 -0.051920555704 -0.07306767137 -0.15711380903 0.064705692645 -0.069676428094 -0.21237408787 -0.052418156429 
-0.077640794346 -0.22190975557 0.0086281729341 -0.046101571766 -0.032353840552 7.3425004093e-05 -0.074789360202 -0.22697047847 -0.026247016639 
-0.044856405157 -0.029221123736 -0.0069483693357 -0.068198510337 -0.1562108721 0.01981508855 -0.065516483536 -0.1853836373 -0.050491709028 
-0.078128442664 -0.23160240535 -0.0016272569143 -0.058430646989 -0.13705445827 -0.043592427747 -0.052284660104 -0.018382900992 0.080301652256 
-0.055017036719 -0.10602265664 -0.028364178541 -0.069894173166 -0.20150176968 -0.033646246573 -0.081279605853 -0.20109958383 0.075181605756 
-0.064397829408 -0.15760473888 -0.01844883726 -0.059255168955 -0.08883929673 0.038313723045 -0.054306132404 -0.10846234139 -0.038868713522 
-0.068995127894 -0.12314046673 0.078190165513 -0.052599299136 -0.020025194782 0.080769115612 -0.068407085479 -0.20832487885 -0.058261780687 
-0.057695439368 -0.03839986965 0.10097633895 
f 3 100 double
0 0 0 0 0 0 0 0 0 
0 0 0 0 0 0 0 0 0 
0 0 0 0 0 0 0.10907728602 -0.02842565576 0.225440655 
0 0 0 0 0 0 0 0 0 
0 0 0 0 0 0 0 0 0 
0 0 0 0 0 0 0 0 0 
0 0 0 0 0 0 0 0 0 
0 0 0 0 0 0 0 0 0 
0 0 0 0 0 0 0 0 0 
0 0 0 0 0 0 0 0 0 
0 0 0 0 0 0 0 0 0 
0 0 0 0 0 0 0 0 0 
0 0 0 0 0 0 0 0 0 
0 0 0 0 0 0 0 0 0 
0 0 0 0 0 0 0 0 0 
0 0 0 0 0 0 0 0 0 
0 0 0 0 0 0 0 0 0 
0 0 0 0 0 0 0 0 0 
0 0 0 0 0 0 0 0 0 
0 0 0 0.22432700538 0.0059807277451 -0.088166969533 0 0 0 
0 0 0 0 0 0 0 0 0 
0 0 0 0 0 0 0 0 0 
0 0 0 0 0 0 0 0 0 
0 0 0 0 0 0 0 0 0 
0 0 0 0 0 0 0 0 0 
0 0 0 0 0 0 0 0 0 
0 0 0 0 0 0 0 0 0 
0 0 0 0 0 0 0 0 0 
0.2174665094 0.018497269991 0.43650352442 0 0 0 0 0 0 
0 0 0 0 0 0 0 0 0 
0 0 0 0 0 0 0 0 0 
0 0 0 0 0 0 0 0 0 
0 0 0 0 0 0 0 0 0 
0 0 0 
radius 1 100 double
0.010434 0.00981478 0.00892069 0.00845937 0.00731974 0.00728422 0.00643447 0.00619172 0.00585956 
0.00577566 0.00537241 0.00522549 0.00513666 0.00473175 0.00466912 0.00444866 0.00441894 0.00400812 
0.00385622 0.00379948 0.00370243 0.00366942 0.00364039 0.00363813 0.00363644 0.00358692 0.0035797 
0.00341284 0.00337012 0.00336273 0.00332772 0.00323261 0.00320584 0.00320311 0.00318808 0.00313116 
0.00306026 0.00305632 0.00304383 0.00300958 0.00300137 0.00298994 0.0029567 0.00295111 0.00290849 
0.00284552 0.00282964 0.0028207 0.00281971 0.00281899 0.010434 0.00981478 0.00892069 0.00845937 
0.00731974 0.00728422 0.00643447 0.00619172 0.00585956 0.00577566 0.00537241 0.00522549 0.00513666 
0.00473175 0.00466912 0.00444866 0.00441894 0.00400812 0.00385622 0.00379948 0.00370243 0.00366942 
0.00364039 0.00363813 0.00363644 0.00358692 0.0035797 0.00341284 0.00337012 0.00336273 0.00332772 
0.00323261 0.00320584 0.00320311 0.00318808 0.00313116 0.00306026 0.00305632 0.00304383 0.00300958 
0.00300137 0.00298994 0.0029567 0.00295111 0.00290849 0.00284552 0.00282964 0.0028207 0.00281971 
0.00281899 
omega 3 100 double
6.7286879624 -2.722183859 -0.84195705765 6.7286879624 -2.722183859 -0.84195705765 6.7286879624 -2.722183859 -0.84195705765 
6.7286879624 -2.722183859 -0.84195705765 6.7286879624 -2.722183859 -0.84195705765 6.7286879624 -2.722183859 -0.84195705765 
6.7286879624 -2.722183859 -0.84195705765 6.7286879624 -2.722183859 -0.84195705765 6.7286879624 -2.722183859 -0.84195705765 
6.7286879624 -2.722183859 -0.84195705765 6.7286879624 -2.722183859 -0.84195705765 6.7286879624 -2.722183859 -0.84195705765 
6.7286879624 -2.722183859 -0.84195705765 6.7286879624 -2.722183859 -0.84195705765 6.7286879624 -2.722183859 -0.84195705765 
6.7286879624 -2.722183859 -0.84195705765 6.7286879624 -2.722183859 -0.84195705765 6.7286879624 -2.722183859 -0.84195705765 
6.7286879624 -2.722183859 -0.84195705765 6.7286879624 -2.722183859 -0.84195705765 6.7286879624 -2.722183859 -0.84195705765 
6.7286879624 -2.722183859 -0.84195705765 6.7286879624 -2.722183859 -0.84195705765 6.7286879624 -2.722183859 -0.84195705765 
6.7286879624 -2.722183859 -0.84195705765 6.7286879624 -2.722183859 -0.84195705765 6.7286879624 -2.722183859 -0.84195705765 
6.7286879624 -2.722183859 -0.84195705765 6.7286879624 -2.722183859 -0.84195705765 6.7286879624 -2.722183859 -0.84195705765 
6.7286879624 -2.722183859 -0.84195705765 6.7286879624 -2.722183859 -0.84195705765 6.7286879624 -2.722183859 -0.84195705765 
6.7286879624 -2.722183859 -0.84195705765 6.7286879624 -2.722183859 -0.84195705765 6.7286879624 -2.722183859 -0.84195705765 
6.7286879624 -2.722183859 -0.84195705765 6.7286879624 -2.722183859 -0.84195705765 6.7286879624 -2.722183859 -0.84195705765 
6.7286879624 -2.722183859 -0.84195705765 6.7286879624 -2.722183859 -0.84195705765 6.7286879624 -2.722183859 -0.84195705765 
6.7286879624 -2.722183859 -0.84195705765 6.7286879624 -2.722183859 -0.84195705765 6.7286879624 -2.722183859 -0.84195705765 
6.7286879624 -2.722183859 -0.84195705765 6.7286879624 -2.722183859 -0.84195705765 6.7286879624 -2.722183859 -0.84195705765 
6.7286879624 -2.722183859 -0.84195705765 6.7286879624 -2.722183859 -0.84195705765 7.7672205867 -1.2554651554 0.81723653983 
7.7672205867 -1.2554651554 0.81723653983 7.7672205867 -1.2554651554 0.81723653983 7.7672205867 -1.2554651554 0.81723653983 
7.7672205867 -1.2554651554 0.81723653983 7.7672205867 -1.2554651554 0.81723653983 7.7672205867 -1.2554651554 0.81723653983 
7.7672205867 -1.2554651554 0.81723653983 7.7672205867 -1.2554651554 0.81723653983 7.7672205867 -1.2554651554 0.81723653983 
7.7672205867 -1.2554651554 0.81723653983 7.7672205867 -1.2554651554 0.81723653983 7.7672205867 -1.2554651554 0.81723653983 
7.7672205867 -1.2554651554 0.81723653983 7.7672205867 -1.2554651554 0.81723653983 7.7672205867 -1.2554651554 0.81723653983 
7.7672205867 -1.2554651554 0.81723653983 7.7672205867 -1.2554651554 0.81723653983 7.7672205867 -1.2554651554 0.81723653983 
7.7672205867 -1.2554651554 0.81723653983 7.7672205867 -1.2554651554 0.81723653983 7.7672205867 -1.2554651554 0.81723653983 
7.7672205867 -1.2554651554 0.81723653983 7.7672205867 -1.2554651554 0.81723653983 7.7672205867 -1.2554651554 0.81723653983 
7.7672205867 -1.2554651554 0.81723653983 7.7672205867 -1.2554651554 0.81723653983 7.7672205867 -1.2554651554 0.81723653983 
7.7672205867 -1.2554651554 0.81723653983 7.7672205867 -1.2554651554 0.81723653983 7.7672205867 -1.2554651554 0.81723653983 
7.7672205867 -1.2554651554 0.81723653983 7.7672205867 -1.2554651554 0.81723653983 7.7672205867 -1.2554651554 0.81723653983 
7.7672205867 -1.2554651554 0.81723653983 7.7672205867 -1.2554651554 0.81723653983 7.7672205867 -1.2554651554 0.81723653983 
7.7672205867 -1.2554651554 0.81723653983 7.7672205867 -1.2554651554 0.81723653983 7.7672205867 -1.2554651554 0.81723653983 
7.7672205867 -1.2554651554 0.81723653983 7.7672205867 -1.2554651554 0.81723653983 7.7672205867 -1.2554651554 0.81723653983 
7.7672205867 -1.2554651554 0.81723653983 7.7672205867 -1.2554651554 0.81723653983 7.7672205867 -1.2554651554 0.81723653983 
7.7672205867 -1.2554651554 0.81723653983 7.7672205867 -1.2554651554 0.81723653983 7.7672205867 -1.2554651554 0.81723653983 
7.7672205867 -1.2554651554 0.81723653983 
