# vtk DataFile Version 4.1
Generated by LIGGGHTS
ASCII
DATASET POLYDATA
POINTS 100 float
-0.112222 -0.131088 0.0232998 -0.122543 -0.132019 0.0219056 -0.132551 -0.132258 0.0224678 
-0.117614 -0.132855 0.0322894 -0.104456 -0.129842 0.0302433 -0.126294 -0.133799 0.0313872 
-0.137436 -0.134723 0.029747 -0.109131 -0.134548 0.0337796 -0.141477 -0.13328 0.0223825 
-0.117429 -0.128624 0.0138857 -0.122237 -0.136094 0.0386753 -0.132658 -0.135932 0.0346605 
-0.122908 -0.125328 0.0143492 -0.116477 -0.136993 0.0403209 -0.128797 -0.126453 0.0160649 
-0.12821 -0.13698 0.0376941 -0.110555 -0.128726 0.0357019 -0.139787 -0.127004 0.019895 
-0.112739 -0.133619 0.0130236 -0.143968 -0.136377 0.0276264 -0.116363 -0.137401 0.0160652 
-0.12015 -0.138215 0.0435915 -0.105952 -0.137507 0.0290642 -0.0977949 -0.126164 0.0290026 
-0.101623 -0.131786 0.0237243 -0.118508 -0.123816 0.0176118 -0.104162 -0.123475 0.0264468 
-0.100221 -0.123825 0.0311906 -0.124498 -0.138261 0.0431786 -0.123225 -0.12676 0.0302849 
-0.12778 -0.138235 0.0421946 -0.102305 -0.135375 0.0348541 -0.128487 -0.138636 0.017693 
-0.111622 -0.137645 0.0390235 -0.146843 -0.135956 0.0223116 -0.103345 -0.136355 0.0263645 
-0.132458 -0.138118 0.0399017 -0.112507 -0.134226 0.0390829 -0.139106 -0.137826 0.0352369 
-0.12314 -0.130284 0.0120111 -0.130875 -0.1388 0.0286362 -0.11356 -0.139176 0.0364988 
-0.112329 -0.125914 0.0327421 -0.111579 -0.139407 0.0298866 -0.140078 -0.129345 0.0267701 
-0.142718 -0.137638 0.032373 -0.102298 -0.130609 0.0200407 -0.126109 -0.129567 0.0129835 
-0.131554 -0.138364 0.0428447 -0.133423 -0.12487 0.0166217 -0.0433462 -0.103297 0.0232336 
-0.0536299 -0.104231 0.0215871 -0.063648 -0.104488 0.021909 -0.048948 -0.105137 0.0320789 
-0.0357498 -0.102092 0.0303691 -0.0576027 -0.106086 0.0309633 -0.0687009 -0.107013 0.0290514 
-0.0405002 -0.10683 0.0337582 -0.0725676 -0.105521 0.0216036 -0.0483314 -0.100769 0.0137166 
-0.0537168 -0.10843 0.0383289 -0.0640397 -0.108252 0.0340682 -0.0538247 -0.0974845 0.0140738 
-0.0479965 -0.109333 0.0401045 -0.0597514 -0.0986302 0.0156403 -0.0596634 -0.109316 0.0371991 
-0.041979 -0.101024 0.035689 -0.0708287 -0.0992241 0.0192034 -0.0436141 -0.105752 0.0129296 
-0.0751779 -0.10866 0.0267637 -0.0473045 -0.109561 0.015856 -0.0517445 -0.110585 0.0432776 
-0.0372055 -0.109749 0.0290982 -0.0290665 -0.0983957 0.0293146 -0.0327593 -0.103983 0.0239053 
-0.0495061 -0.0959911 0.0174513 -0.035375 -0.0956965 0.0266278 -0.0315476 -0.0960764 0.0314614 
-0.0560816 -0.110633 0.0427608 -0.054519 -0.0990352 0.0299864 -0.0593393 -0.110604 0.0416992 
-0.0337006 -0.107656 0.0349889 -0.0594618 -0.110824 0.0171854 -0.0431105 -0.109969 0.0389183 
-0.0779261 -0.108203 0.0213851 -0.0345367 -0.108575 0.02647 -0.0639612 -0.110476 0.0392965 
-0.044002 -0.106552 0.0389818 -0.0704968 -0.110159 0.0344769 -0.053994 -0.102424 0.0116943 
-0.0621091 -0.111073 0.0280671 -0.0449857 -0.111484 0.036337 -0.0436857 -0.0981924 0.0327086 
-0.0428481 -0.111663 0.0297722 -0.0712797 -0.101617 0.0260522 -0.0740393 -0.109955 0.0315293 
-0.0333481 -0.10278 0.0202155 -0.0569863 -0.101718 0.012601 -0.0631267 -0.110743 0.0422583 
-0.0643917 -0.0970576 0.0160985 
VERTICES 100 200
1 0 
1 1 
1 2 
1 3 
1 4 
1 5 
1 6 
1 7 
1 8 
1 9 
1 10 
1 11 
1 12 
1 13 
1 14 
1 15 
1 16 
1 17 
1 18 
1 19 
1 20 
1 21 
1 22 
1 23 
1 24 
1 25 
1 26 
1 27 
1 28 
1 29 
1 30 
1 31 
1 32 
1 33 
1 34 
1 35 
1 36 
1 37 
1 38 
1 39 
1 40 
1 41 
1 42 
1 43 
1 44 
1 45 
1 46 
1 47 
1 48 
1 49 
1 50 
1 51 
1 52 
1 53 
1 54 
1 55 
1 56 
1 57 
1 58 
1 59 
1 60 
1 61 
1 62 
1 63 
1 64 
1 65 
1 66 
1 67 
1 68 
1 69 
1 70 
1 71 
1 72 
1 73 
1 74 
1 75 
1 76 
1 77 
1 78 
1 79 
1 80 
1 81 
1 82 
1 83 
1 84 
1 85 
1 86 
1 87 
1 88 
1 89 
1 90 
1 91 
1 92 
1 93 
1 94 
1 95 
1 96 
1 97 
1 98 
1 99 

POINT_DATA 100
FIELD FieldData 7
id 1 100 int
1 2 3 4 5 6 7 8 9 
10 11 12 13 14 15 16 17 18 
19 20 21 22 23 24 25 26 27 
28 29 30 31 32 33 34 35 36 
37 38 39 40 41 42 43 44 45 
46 47 48 49 50 51 52 53 54 
55 56 57 58 59 60 61 62 63 
64 65 66 67 68 69 70 71 72 
73 74 75 76 77 78 79 80 81 
82 83 84 85 86 87 88 89 90 
91 92 93 94 95 96 97 98 99 
100 
mol 1 100 int
1 1 1 1 1 1 1 1 1 
1 1 1 1 1 1 1 1 1 
1 1 1 1 1 1 1 1 1 
1 1 1 1 1 1 1 1 1 
1 1 1 1 1 1 1 1 1 
1 1 1 1 1 2 2 2 2 
2 2 2 2 2 2 2 2 2 
2 2 2 2 2 2 2 2 2 
2 2 2 2 2 2 2 2 2 
2 2 2 2 2 2 2 2 2 
2 2 2 2 2 2 2 2 2 
2 
type 1 100 int
1 1 1 1 1 1 1 1 1 
1 1 1 1 1 1 1 1 1 
1 1 1 1 1 1 1 1 1 
1 1 1 1 1 1 1 1 1 
1 1 1 1 1 1 1 1 1 
1 1 1 1 1 1 1 1 1 
1 1 1 1 1 1 1 1 1 
1 1 1 1 1 1 1 1 1 
1 1 1 1 1 1 1 1 1 
1 1 1 1 1 1 1 1 1 
1 1 1 1 1 1 1 1 1 
1 
v 3 100 double
-0.11396579821 -0.061324389201 0.076269381542 -0.10389347311 -0.061462158124 0.001797853724 -0.1077838841 -0.065350941916 -0.069113367992 
-0.17674694036 -0.080461282294 0.034852321334 -0.16318405834 -0.072784584356 0.13337328374 -0.17013445572 -0.081107612494 -0.028094130723 
-0.15833238954 -0.080991172679 -0.10832875181 -0.18676437151 -0.081023449691 0.091238671468 -0.10689910202 -0.067668143608 -0.13394094079 
-0.048390839123 -0.044304990509 0.044454044213 -0.22079274484 -0.09427634318 -0.0040424690312 -0.19257937846 -0.089300731589 -0.077074053191 
-0.052570209475 -0.046739293923 0.012356734807 -0.23212484387 -0.09590133208 0.034735370411 -0.064332869986 -0.051744503538 -0.031301741438 
-0.2136397493 -0.094013930274 -0.047820250773 -0.20191570037 -0.085191367947 0.092634325202 -0.09113755365 -0.062317669357 -0.10973570082 
-0.040932170259 -0.041307956309 0.067668412891 -0.14294627902 -0.078649187343 -0.15754887551 -0.061287666286 -0.048283999929 0.034737039093 
-0.25480494305 -0.1033402045 0.0064844932562 -0.15275162989 -0.070887781112 0.1078091459 -0.15547538704 -0.068496368846 0.18747394612 
-0.11675932245 -0.05920679936 0.14950212934 -0.075955093664 -0.051915320252 0.046290430263 -0.13823489249 -0.065254663563 0.14793439216 
-0.1715269932 -0.073464292618 0.17498599221 -0.25188557731 -0.10374037913 -0.024209325661 -0.16433522456 -0.078090837391 0.0073148207363 
-0.24496736344 -0.10272366201 -0.047259389279 -0.19409742955 -0.081231518973 0.13765961172 -0.072401351622 -0.05485235308 -0.053020287885 
-0.22281160908 -0.092004502327 0.067630938556 -0.10565504752 -0.069022625 -0.17695766204 -0.13407058074 -0.064865830107 0.12841694046 
-0.22886138866 -0.09952747821 -0.079954086189 -0.22418119803 -0.092367392912 0.06810766018 -0.1961091301 -0.092226397177 -0.12617413699 
-0.034734226748 -0.042217173966 0.00099631173228 -0.14937887593 -0.076985596332 -0.070148212051 -0.20461548099 -0.087591030262 0.05098505004 
-0.18186581663 -0.079878365085 0.085668652326 -0.15801089356 -0.074067620363 0.064471428036 -0.13887677505 -0.075886616107 -0.1163768055 
-0.17600430719 -0.087613321631 -0.15122507861 -0.091160225154 -0.052168153702 0.14706046013 -0.041777912212 -0.044951218406 -0.018492938091 
-0.24950692438 -0.10504932653 -0.074071142193 -0.068692525107 -0.054124532356 -0.06075607121 -0.11323067764 -0.060987783164 0.028334425348 
-0.10156244634 -0.060954755233 -0.044561147025 -0.1037100901 -0.064611100745 -0.11432437824 -0.1738331128 -0.079628394203 -0.013924025272 
-0.16293454564 -0.072348886255 0.083167329118 -0.16583150664 -0.080117928541 -0.075584257879 -0.15233012337 -0.079823688065 -0.15409804934 
-0.18493098125 -0.080281309817 0.041245829344 -0.10128485938 -0.066732660742 -0.17797706166 -0.048192077267 -0.04427314818 -0.0012956738683 
-0.21604931375 -0.093045592085 -0.053205387615 -0.18664311002 -0.088017798849 -0.12424244188 -0.051658158576 -0.046623991424 -0.03298802859 
-0.22805276323 -0.094710535818 -0.015381192438 -0.062142617017 -0.051422716493 -0.076162421897 -0.20796874944 -0.092686246 -0.096020158872 
-0.20004337989 -0.084427978961 0.042141030163 -0.086599201397 -0.061608045747 -0.15389382904 -0.041238390159 -0.041334440676 0.02177935232 
-0.13601191952 -0.077407550978 -0.20203855951 -0.060317203659 -0.048058963676 -0.01103276485 -0.24961353782 -0.10192508308 -0.043693940013 
-0.15182329095 -0.070356495099 0.058436235901 -0.15676481809 -0.068301352256 0.13645794127 -0.1176665681 -0.05906171566 0.10022332479 
-0.075465658506 -0.051782460937 -0.00026696750393 -0.13900580773 -0.065069668842 0.098007502184 -0.17231294535 -0.073165911046 0.12374451242 
-0.2460258322 -0.10225139361 -0.07377481115 -0.16121606867 -0.077311232478 -0.040758746184 -0.2386940208 -0.1012066654 -0.096245440054 
-0.19319012064 -0.080575186236 0.086679628472 -0.069126212965 -0.054294109383 -0.097514738303 -0.21965810559 -0.090956209199 0.017184528238 
-0.098960376565 -0.067940227358 -0.22016624562 -0.13400683611 -0.064513017057 0.079139397032 -0.22211897762 -0.098007314206 -0.12795961814 
-0.22113407844 -0.091348355355 0.017564639072 -0.18889014706 -0.090759761876 -0.17254185717 -0.03370676728 -0.042118182085 -0.043618647123 
-0.14429218792 -0.075938361137 -0.1162955845 -0.20134956599 -0.086581302994 0.0013166903052 -0.18029464207 -0.079237710881 0.035762899596 
-0.15590323701 -0.073359634462 0.015754331397 -0.13322961836 -0.074862062117 -0.1615948026 -0.1685709981 -0.086189371947 -0.19664579302 
-0.092518477205 -0.052173532278 0.09845644278 -0.040190025665 -0.044762581529 -0.062956416725 -0.24251729871 -0.10342661505 -0.12270048785 
-0.065787485541 -0.053708156758 -0.1052359293 
f 3 100 double
0 0 0 0 0 0 0 0 0 
0 0 0 0 0 0 0 0 0 
0 0 0 0 0 0 0 0 0 
0 0 0 0 0 0 0 0 0 
0 0 0 0 0 0 0 0 0 
0 0 0 0 0 0 0 0 0 
0 0 0 0 0 0 0 0 0 
0 0 0 0 0 0 0 0 0 
0 0 0 0 0 0 0 0 0 
0 0 0 0 0 0 0 0 0 
0 0 0 0 0 0 0 0 0 
0 0 0 0 0 0 0 0 0 
0 0 0 0 0 0 0 0 0 
0 0 0 0 0 0 0 0 0 
0 0 0 0 0 0 0 0 0 
0 0 0 0 0 0 0 0 0 
0 0 0 0 0 0 0 0 0 
0 0 0 0 0 0 0 0 0 
0 0 0 0 0 0 0 0 0 
0 0 0 0 0 0 0 0 0 
0 0 0 0 0 0 0 0 0 
0 0 0 0 0 0 0 0 0 
0 0 0 0 0 0 0 0 0 
0 0 0 0 0 0 0 0 0 
0 0 0 0 0 0 0 0 0 
0 0 0 0 0 0 0 0 0 
0 0 0 0 0 0 0 0 0 
0 0 0 0 0 0 0 0 0 
0 0 0 0 0 0 0 0 0 
0 0 0 0 0 0 0 0 0 
0 0 0 0 0 0 0 0 0 
0 0 0 0 0 0 0 0 0 
0 0 0 0 0 0 0 0 0 
0 0 0 
radius 1 100 double
0.010434 0.00981478 0.00892069 0.00845937 0.00731974 0.00728422 0.00643447 0.00619172 0.00585956 
0.00577566 0.00537241 0.00522549 0.00513666 0.00473175 0.00466912 0.00444866 0.00441894 0.00400812 
0.00385622 0.00379948 0.00370243 0.00366942 0.00364039 0.00363813 0.00363644 0.00358692 0.0035797 
0.00341284 0.00337012 0.00336273 0.00332772 0.00323261 0.00320584 0.00320311 0.00318808 0.00313116 
0.00306026 0.00305632 0.00304383 0.00300958 0.00300137 0.00298994 0.0029567 0.00295111 0.00290849 
0.00284552 0.00282964 0.0028207 0.00281971 0.00281899 0.010434 0.00981478 0.00892069 0.00845937 
0.00731974 0.00728422 0.00643447 0.00619172 0.00585956 0.00577566 0.00537241 0.00522549 0.00513666 
0.00473175 0.00466912 0.00444866 0.00441894 0.00400812 0.00385622 0.00379948 0.00370243 0.00366942 
0.00364039 0.00363813 0.00363644 0.00358692 0.0035797 0.00341284 0.00337012 0.00336273 0.00332772 
0.00323261 0.00320584 0.00320311 0.00318808 0.00313116 0.00306026 0.00305632 0.00304383 0.00300958 
0.00300137 0.00298994 0.0029567 0.00295111 0.00290849 0.00284552 0.00282964 0.0028207 0.00281971 
0.00281899 
omega 3 100 double
1.9618325253 -7.0384958766 0.2783600873 1.9618325253 -7.0384958766 0.2783600873 1.9618325253 -7.0384958766 0.2783600873 
1.9618325253 -7.0384958766 0.2783600873 1.9618325253 -7.0384958766 0.2783600873 1.9618325253 -7.0384958766 0.2783600873 
1.9618325253 -7.0384958766 0.2783600873 1.9618325253 -7.0384958766 0.2783600873 1.9618325253 -7.0384958766 0.2783600873 
1.9618325253 -7.0384958766 0.2783600873 1.9618325253 -7.0384958766 0.2783600873 1.9618325253 -7.0384958766 0.2783600873 
1.9618325253 -7.0384958766 0.2783600873 1.9618325253 -7.0384958766 0.2783600873 1.9618325253 -7.0384958766 0.2783600873 
1.9618325253 -7.0384958766 0.2783600873 1.9618325253 -7.0384958766 0.2783600873 1.9618325253 -7.0384958766 0.2783600873 
1.9618325253 -7.0384958766 0.2783600873 1.9618325253 -7.0384958766 0.2783600873 1.9618325253 -7.0384958766 0.2783600873 
1.9618325253 -7.0384958766 0.2783600873 1.9618325253 -7.0384958766 0.2783600873 1.9618325253 -7.0384958766 0.2783600873 
1.9618325253 -7.0384958766 0.2783600873 1.9618325253 -7.0384958766 0.2783600873 1.9618325253 -7.0384958766 0.2783600873 
1.9618325253 -7.0384958766 0.2783600873 1.9618325253 -7.0384958766 0.2783600873 1.9618325253 -7.0384958766 0.2783600873 
1.9618325253 -7.0384958766 0.2783600873 1.9618325253 -7.0384958766 0.2783600873 1.9618325253 -7.0384958766 0.2783600873 
1.9618325253 -7.0384958766 0.2783600873 1.9618325253 -7.0384958766 0.2783600873 1.9618325253 -7.0384958766 0.2783600873 
1.9618325253 -7.0384958766 0.2783600873 1.9618325253 -7.0384958766 0.2783600873 1.9618325253 -7.0384958766 0.2783600873 
1.9618325253 -7.0384958766 0.2783600873 1.9618325253 -7.0384958766 0.2783600873 1.9618325253 -7.0384958766 0.2783600873 
1.9618325253 -7.0384958766 0.2783600873 1.9618325253 -7.0384958766 0.2783600873 1.9618325253 -7.0384958766 0.2783600873 
1.9618325253 -7.0384958766 0.2783600873 1.9618325253 -7.0384958766 0.2783600873 1.9618325253 -7.0384958766 0.2783600873 
1.9618325253 -7.0384958766 0.2783600873 1.9618325253 -7.0384958766 0.2783600873 1.9152394898 -6.9145201086 0.30343523438 
1.9152394898 -6.9145201086 0.30343523438 1.9152394898 -6.9145201086 0.30343523438 1.9152394898 -6.9145201086 0.30343523438 
1.9152394898 -6.9145201086 0.30343523438 1.9152394898 -6.9145201086 0.30343523438 1.9152394898 -6.9145201086 0.30343523438 
1.9152394898 -6.9145201086 0.30343523438 1.9152394898 -6.9145201086 0.30343523438 1.9152394898 -6.9145201086 0.30343523438 
1.9152394898 -6.9145201086 0.30343523438 1.9152394898 -6.9145201086 0.30343523438 1.9152394898 -6.9145201086 0.30343523438 
1.9152394898 -6.9145201086 0.30343523438 1.9152394898 -6.9145201086 0.30343523438 1.9152394898 -6.9145201086 0.30343523438 
1.9152394898 -6.9145201086 0.30343523438 1.9152394898 -6.9145201086 0.30343523438 1.9152394898 -6.9145201086 0.30343523438 
1.9152394898 -6.9145201086 0.30343523438 1.9152394898 -6.9145201086 0.30343523438 1.9152394898 -6.9145201086 0.30343523438 
1.9152394898 -6.9145201086 0.30343523438 1.9152394898 -6.9145201086 0.30343523438 1.9152394898 -6.9145201086 0.30343523438 
1.9152394898 -6.9145201086 0.30343523438 1.9152394898 -6.9145201086 0.30343523438 1.9152394898 -6.9145201086 0.30343523438 
1.9152394898 -6.9145201086 0.30343523438 1.9152394898 -6.9145201086 0.30343523438 1.9152394898 -6.9145201086 0.30343523438 
1.9152394898 -6.9145201086 0.30343523438 1.9152394898 -6.9145201086 0.30343523438 1.9152394898 -6.9145201086 0.30343523438 
1.9152394898 -6.9145201086 0.30343523438 1.9152394898 -6.9145201086 0.30343523438 1.9152394898 -6.9145201086 0.30343523438 
1.9152394898 -6.9145201086 0.30343523438 1.9152394898 -6.9145201086 0.30343523438 1.9152394898 -6.9145201086 0.30343523438 
1.9152394898 -6.9145201086 0.30343523438 1.9152394898 -6.9145201086 0.30343523438 1.9152394898 -6.9145201086 0.30343523438 
1.9152394898 -6.9145201086 0.30343523438 1.9152394898 -6.9145201086 0.30343523438 1.9152394898 -6.9145201086 0.30343523438 
1.9152394898 -6.9145201086 0.30343523438 1.9152394898 -6.9145201086 0.30343523438 1.9152394898 -6.9145201086 0.30343523438 
1.9152394898 -6.9145201086 0.30343523438 
