# vtk DataFile Version 4.1
Generated by LIGGGHTS
ASCII
DATASET POLYDATA
POINTS 100 float
-0.119604 -0.141943 0.0151756 -0.129074 -0.140379 0.0110262 -0.13879 -0.139031 0.00894939 
-0.127525 -0.146157 0.0208774 -0.114208 -0.144982 0.0236444 -0.135579 -0.145094 0.0175522 
-0.145756 -0.143279 0.0129906 -0.119984 -0.14979 0.0235204 -0.147326 -0.13832 0.00623834 
-0.121614 -0.135039 0.00680286 -0.13402 -0.150793 0.0238723 -0.142741 -0.147182 0.0179002 
-0.126785 -0.131281 0.00728679 -0.129075 -0.153287 0.0263252 -0.132972 -0.131925 0.00683856 
-0.139468 -0.15013 0.0211694 -0.121585 -0.145067 0.0273614 -0.144617 -0.131985 0.0072185 
-0.117172 -0.140026 0.00504254 -0.15144 -0.142753 0.00882921 -0.121748 -0.143993 0.0051486 
-0.13362 -0.155035 0.0277277 -0.115716 -0.151137 0.0189311 -0.107282 -0.14237 0.0258011 
-0.109673 -0.144634 0.0178467 -0.123481 -0.13201 0.0118523 -0.112432 -0.137794 0.0231861 
-0.110114 -0.140706 0.0281157 -0.137642 -0.154134 0.0262811 -0.131926 -0.138873 0.0204029 
-0.140474 -0.153131 0.0246325 -0.113849 -0.152183 0.0257713 -0.133855 -0.143587 0.0030438 
-0.124099 -0.154223 0.0261113 -0.152568 -0.139739 0.00369756 -0.112361 -0.14949 0.0177308 
-0.144239 -0.151275 0.0215455 -0.124766 -0.151014 0.0274276 -0.149163 -0.147963 0.0159936 
-0.12659 -0.134764 0.00305361 -0.139406 -0.147675 0.0118725 -0.125279 -0.154246 0.0227822 
-0.122231 -0.14104 0.0255788 -0.121431 -0.152169 0.0174366 -0.14708 -0.136783 0.0120921 
-0.151738 -0.146006 0.0127045 -0.109149 -0.141985 0.0149977 -0.129668 -0.133976 0.00347769 
-0.14427 -0.152833 0.0242123 -0.137455 -0.129897 0.00687046 -0.0508082 -0.113421 0.0154994 
-0.0603759 -0.112137 0.0114811 -0.0701694 -0.111304 0.00949956 -0.0583815 -0.118793 0.0206755 
-0.0451841 -0.116928 0.023632 -0.0664984 -0.117988 0.0174325 -0.0767916 -0.116464 0.0130265 
-0.0505852 -0.122113 0.0229653 -0.0787397 -0.110949 0.00682703 -0.0533446 -0.105838 0.0078915 
-0.064506 -0.124191 0.023124 -0.0734831 -0.120629 0.0175142 -0.058781 -0.102548 0.00873863 
-0.0593837 -0.126555 0.0253294 -0.0649031 -0.103601 0.00818723 -0.0699931 -0.123654 0.0204732 
-0.0525272 -0.117956 0.0272743 -0.0765103 -0.104569 0.00848794 -0.0485451 -0.110265 0.00564084 
-0.0825065 -0.115926 0.00890961 -0.0528116 -0.114551 0.00529905 -0.0637829 -0.128776 0.0265115 
-0.0462367 -0.122645 0.0182853 -0.0384694 -0.11405 0.0260949 -0.0406985 -0.115631 0.0179312 
-0.0554238 -0.103508 0.0132215 -0.0439521 -0.109619 0.0239471 -0.0414133 -0.112856 0.0285552 
-0.0678635 -0.12803 0.0251439 -0.0633158 -0.111848 0.0209471 -0.0707652 -0.127072 0.0235934 
-0.0442842 -0.124267 0.0249878 -0.0649185 -0.114828 0.00317547 -0.054352 -0.12709 0.0250479 
-0.0838665 -0.112478 0.00411864 -0.0430164 -0.120634 0.0172862 -0.0746644 -0.125186 0.0206971 
-0.0552545 -0.124097 0.026692 -0.0798329 -0.12168 0.0154967 -0.0583341 -0.105539 0.00416221 
-0.070132 -0.120231 0.0114885 -0.0555329 -0.126848 0.021728 -0.053476 -0.113822 0.0259236 
-0.0518611 -0.123936 0.0166554 -0.0785984 -0.110026 0.0128119 -0.0825532 -0.119583 0.0124175 
-0.0403798 -0.112664 0.0153816 -0.0614615 -0.105033 0.00464846 -0.0745738 -0.127015 0.0231841 
-0.0695256 -0.101928 0.00840614 
VERTICES 100 200
1 0 
1 1 
1 2 
1 3 
1 4 
1 5 
1 6 
1 7 
1 8 
1 9 
1 10 
1 11 
1 12 
1 13 
1 14 
1 15 
1 16 
1 17 
1 18 
1 19 
1 20 
1 21 
1 22 
1 23 
1 24 
1 25 
1 26 
1 27 
1 28 
1 29 
1 30 
1 31 
1 32 
1 33 
1 34 
1 35 
1 36 
1 37 
1 38 
1 39 
1 40 
1 41 
1 42 
1 43 
1 44 
1 45 
1 46 
1 47 
1 48 
1 49 
1 50 
1 51 
1 52 
1 53 
1 54 
1 55 
1 56 
1 57 
1 58 
1 59 
1 60 
1 61 
1 62 
1 63 
1 64 
1 65 
1 66 
1 67 
1 68 
1 69 
1 70 
1 71 
1 72 
1 73 
1 74 
1 75 
1 76 
1 77 
1 78 
1 79 
1 80 
1 81 
1 82 
1 83 
1 84 
1 85 
1 86 
1 87 
1 88 
1 89 
1 90 
1 91 
1 92 
1 93 
1 94 
1 95 
1 96 
1 97 
1 98 
1 99 

POINT_DATA 100
FIELD FieldData 7
id 1 100 int
1 2 3 4 5 6 7 8 9 
10 11 12 13 14 15 16 17 18 
19 20 21 22 23 24 25 26 27 
28 29 30 31 32 33 34 35 36 
37 38 39 40 41 42 43 44 45 
46 47 48 49 50 51 52 53 54 
55 56 57 58 59 60 61 62 63 
64 65 66 67 68 69 70 71 72 
73 74 75 76 77 78 79 80 81 
82 83 84 85 86 87 88 89 90 
91 92 93 94 95 96 97 98 99 
100 
mol 1 100 int
1 1 1 1 1 1 1 1 1 
1 1 1 1 1 1 1 1 1 
1 1 1 1 1 1 1 1 1 
1 1 1 1 1 1 1 1 1 
1 1 1 1 1 1 1 1 1 
1 1 1 1 1 2 2 2 2 
2 2 2 2 2 2 2 2 2 
2 2 2 2 2 2 2 2 2 
2 2 2 2 2 2 2 2 2 
2 2 2 2 2 2 2 2 2 
2 2 2 2 2 2 2 2 2 
2 
type 1 100 int
1 1 1 1 1 1 1 1 1 
1 1 1 1 1 1 1 1 1 
1 1 1 1 1 1 1 1 1 
1 1 1 1 1 1 1 1 1 
1 1 1 1 1 1 1 1 1 
1 1 1 1 1 1 1 1 1 
1 1 1 1 1 1 1 1 1 
1 1 1 1 1 1 1 1 1 
1 1 1 1 1 1 1 1 1 
1 1 1 1 1 1 1 1 1 
1 1 1 1 1 1 1 1 1 
1 
v 3 100 double
0.10250076483 -0.15161328445 -0.083914629856 0.07824738919 -0.099392648802 -0.0088832484254 0.067275713665 -0.06299335254 0.066083044191 
0.13156995219 -0.18019760892 -0.064651879257 0.15231635234 -0.22946222723 -0.14358848246 0.11174168183 -0.13739144873 -0.0029462558388 
0.085275512163 -0.080463285069 0.078748014619 0.14157941759 -0.21657222102 -0.14321467897 0.05078781065 -0.024030363815 0.12820873856 
0.061293181214 -0.081503885953 -0.016209045683 0.14184238775 -0.19039836174 -0.058164835032 0.10973993124 -0.12536350821 0.0280289714 
0.07224804785 -0.074652509116 0.047640015431 0.15294240632 -0.21992163707 -0.11056167412 0.067951234403 -0.058361972745 0.083535159746 
0.12530998855 -0.15786864325 -0.01686659873 0.17675645954 -0.24353226794 -0.095403505033 0.070343595622 -0.037339300378 0.16017889871 
0.039352084479 -0.076796792215 -0.084912256139 0.058802719169 -0.035956460142 0.12053158923 0.031873005371 -0.068194679626 -0.085861607096 
0.15862393834 -0.2215966502 -0.094236007561 0.10841041252 -0.18921864674 -0.18209125715 0.17198599097 -0.26073628328 -0.1688700723 
0.1146395416 -0.19313856907 -0.17088218732 0.10097875308 -0.11743446522 0.020020581605 0.16410633159 -0.22951322199 -0.098712960812 
0.19074492463 -0.27313159078 -0.13701029086 0.15090275705 -0.2019055731 -0.060503131328 0.14344972751 -0.16738346106 0.021877140279 
0.14205317513 -0.18307774929 -0.033852832941 0.15155082847 -0.24695824016 -0.20269325091 0.018771833297 -0.026644422022 -0.0024903367987 
0.14959440359 -0.22849848219 -0.15089206163 0.031035363922 0.0067994246197 0.15174743032 0.10385753941 -0.18668092979 -0.19133512364 
0.1254376833 -0.15099162408 0.0057035836039 0.16492902062 -0.23749328895 -0.12119448105 0.095502829075 -0.097096364822 0.064408251807 
0.037032514737 -0.04170378956 0.018911657102 0.068805016257 -0.084751632519 0.0020585113755 0.12750120542 -0.19983773126 -0.14326020991 
0.17325673336 -0.22815561952 -0.059397911931 0.096385692485 -0.16565836192 -0.15237428968 0.092723303268 -0.070655870451 0.13869153742 
0.077758936611 -0.065873492904 0.096882090507 0.10123714 -0.17177341784 -0.15347680208 0.041464650205 -0.038697116742 0.045497537593 
0.13988596287 -0.17193860377 -0.0063636457494 0.072345012681 -0.049366876115 0.12920356869 0.095605691236 -0.11674393642 -0.027690131537 
0.076847481249 -0.084513528274 0.027273362184 0.067645314604 -0.067398739844 0.079945798338 0.11887403337 -0.15347328703 -0.031765971706 
0.13335182322 -0.17866913625 -0.080499712426 0.10367953503 -0.1273665189 0.012746390548 0.083139336511 -0.092074089491 0.072935311065 
0.12894055197 -0.17240381474 -0.093491167854 0.055049354018 -0.045431587148 0.1232576399 0.061330088771 -0.059469968704 0.040822101424 
0.12919352057 -0.17023624307 -0.042912284934 0.1034319814 -0.1262949269 0.026216753467 0.06614124913 -0.064471372697 0.091118920705 
0.13908971858 -0.18789487127 -0.084825924999 0.063271538765 -0.058891528409 0.11232878596 0.11674487926 -0.14917339165 -0.012874380604 
0.15038764679 -0.20403040753 -0.053310189941 0.064465547927 -0.058338529016 0.16019619951 0.049585380771 -0.043861722813 -0.014923034036 
0.063733947231 -0.060036444517 0.10406332767 0.046932338258 -0.040289578118 -0.026601199151 0.14416434313 -0.19564049323 -0.080493874585 
0.10660597431 -0.13859369997 -0.11808213943 0.14573074341 -0.19862801392 -0.090923707619 0.10661313036 -0.13728879198 -0.092125692569 
0.087181786748 -0.098667515238 0.068038909626 0.13660556651 -0.18131252269 -0.031909813467 0.15769215291 -0.2162439715 -0.068065799435 
0.13785465418 -0.18447276036 -0.055568534401 0.12183378584 -0.15430915358 0.043370501228 0.13072780513 -0.17222645214 -0.03466766032 
0.13801941195 -0.18898355422 -0.13942860174 0.036789067963 -0.02156015464 0.028781991324 0.13762520758 -0.18700877933 -0.11268566308 
0.04182990955 -0.024025920004 0.1361957015 0.10234871784 -0.13192701076 -0.11839033372 0.11743839921 -0.14971639065 -0.002114834308 
0.14614666857 -0.19903689237 -0.086112217664 0.093605652385 -0.10974054179 0.048515749814 0.043706251006 -0.030493662721 0.066724618496 
0.07493484687 -0.082221058863 0.013277733823 0.12193000909 -0.1619976775 -0.10528114855 0.14497292251 -0.19374187132 -0.018019816095 
0.098561335624 -0.12510084661 -0.10100814681 0.083670047756 -0.090040907706 0.12946151575 0.07949908637 -0.08615190495 0.077044109724 
0.09522911256 -0.11837597578 -0.071533871962 0.046135351289 -0.033362781944 0.085335316653 0.1287993162 -0.16826146818 -0.016169346271 
0.06471288881 -0.059409793603 0.14672570808 
f 3 100 double
0 0 0 0 0 0 0 0 0 
0 0 0 0 0 0 0 0 0 
0 0 0 0 0 0 0 0 0 
0 0 0 0 0 0 0 0 0 
0 0 0 0 0 0 0 0 0 
0 0 0 0 0 0 0 0 0 
0 0 0 0 0 0 0 0 0 
0 0 0 0 0 0 0 0 0 
0 0 0 0 0 0 0 0 0 
0 0 0 0 0 0 0 0 0 
0 0 0 0 0 0 0.16762575626 0.15556787388 1.0103820364 
0 0 0 0 0 0 0 0 0 
0 0 0 0 0 0 0 0 0 
0 0 0 0 0 0 0 0 0 
0 0 0 0 0 0 0 0 0 
0 0 0 0 0 0 0 0 0 
0 0 0 0 0 0 0 0 0 
0 0 0 0 0 0 0 0 0 
0 0 0 0 0 0 0 0 0 
0 0 0 0 0 0 0 0 0 
0 0 0 0 0 0 0 0 0 
0 0 0 0 0 0 0 0 0 
0 0 0 0 0 0 0 0 0 
0 0 0 0 0 0 0 0 0 
0 0 0 0 0 0 0 0 0 
0 0 0 0 0 0 0 0 0 
0 0 0 0 0 0 0 0 0 
0 0 0 -0.08625642684 -0.010023338099 -0.17367369954 0 0 0 
0 0 0 0 0 0 0 0 0 
0 0 0 0 0 0 0 0 0 
0 0 0 0 0 0 0 0 0 
0 0 0 0 0 0 0 0 0 
0 0 0 0 0 0 0 0 0 
0 0 0 
radius 1 100 double
0.010434 0.00981478 0.00892069 0.00845937 0.00731974 0.00728422 0.00643447 0.00619172 0.00585956 
0.00577566 0.00537241 0.00522549 0.00513666 0.00473175 0.00466912 0.00444866 0.00441894 0.00400812 
0.00385622 0.00379948 0.00370243 0.00366942 0.00364039 0.00363813 0.00363644 0.00358692 0.0035797 
0.00341284 0.00337012 0.00336273 0.00332772 0.00323261 0.00320584 0.00320311 0.00318808 0.00313116 
0.00306026 0.00305632 0.00304383 0.00300958 0.00300137 0.00298994 0.0029567 0.00295111 0.00290849 
0.00284552 0.00282964 0.0028207 0.00281971 0.00281899 0.010434 0.00981478 0.00892069 0.00845937 
0.00731974 0.00728422 0.00643447 0.00619172 0.00585956 0.00577566 0.00537241 0.00522549 0.00513666 
0.00473175 0.00466912 0.00444866 0.00441894 0.00400812 0.00385622 0.00379948 0.00370243 0.00366942 
0.00364039 0.00363813 0.00363644 0.00358692 0.0035797 0.00341284 0.00337012 0.00336273 0.00332772 
0.00323261 0.00320584 0.00320311 0.00318808 0.00313116 0.00306026 0.00305632 0.00304383 0.00300958 
0.00300137 0.00298994 0.0029567 0.00295111 0.00290849 0.00284552 0.00282964 0.0028207 0.00281971 
0.00281899 
omega 3 100 double
7.8783982831 6.6222432835 -2.0623370875 7.8783982831 6.6222432835 -2.0623370875 7.8783982831 6.6222432835 -2.0623370875 
7.8783982831 6.6222432835 -2.0623370875 7.8783982831 6.6222432835 -2.0623370875 7.8783982831 6.6222432835 -2.0623370875 
7.8783982831 6.6222432835 -2.0623370875 7.8783982831 6.6222432835 -2.0623370875 7.8783982831 6.6222432835 -2.0623370875 
7.8783982831 6.6222432835 -2.0623370875 7.8783982831 6.6222432835 -2.0623370875 7.8783982831 6.6222432835 -2.0623370875 
7.8783982831 6.6222432835 -2.0623370875 7.8783982831 6.6222432835 -2.0623370875 7.8783982831 6.6222432835 -2.0623370875 
7.8783982831 6.6222432835 -2.0623370875 7.8783982831 6.6222432835 -2.0623370875 7.8783982831 6.6222432835 -2.0623370875 
7.8783982831 6.6222432835 -2.0623370875 7.8783982831 6.6222432835 -2.0623370875 7.8783982831 6.6222432835 -2.0623370875 
7.8783982831 6.6222432835 -2.0623370875 7.8783982831 6.6222432835 -2.0623370875 7.8783982831 6.6222432835 -2.0623370875 
7.8783982831 6.6222432835 -2.0623370875 7.8783982831 6.6222432835 -2.0623370875 7.8783982831 6.6222432835 -2.0623370875 
7.8783982831 6.6222432835 -2.0623370875 7.8783982831 6.6222432835 -2.0623370875 7.8783982831 6.6222432835 -2.0623370875 
7.8783982831 6.6222432835 -2.0623370875 7.8783982831 6.6222432835 -2.0623370875 7.8783982831 6.6222432835 -2.0623370875 
7.8783982831 6.6222432835 -2.0623370875 7.8783982831 6.6222432835 -2.0623370875 7.8783982831 6.6222432835 -2.0623370875 
7.8783982831 6.6222432835 -2.0623370875 7.8783982831 6.6222432835 -2.0623370875 7.8783982831 6.6222432835 -2.0623370875 
7.8783982831 6.6222432835 -2.0623370875 7.8783982831 6.6222432835 -2.0623370875 7.8783982831 6.6222432835 -2.0623370875 
7.8783982831 6.6222432835 -2.0623370875 7.8783982831 6.6222432835 -2.0623370875 7.8783982831 6.6222432835 -2.0623370875 
7.8783982831 6.6222432835 -2.0623370875 7.8783982831 6.6222432835 -2.0623370875 7.8783982831 6.6222432835 -2.0623370875 
7.8783982831 6.6222432835 -2.0623370875 7.8783982831 6.6222432835 -2.0623370875 7.4480206726 4.7450812143 -0.2406027629 
7.4480206726 4.7450812143 -0.2406027629 7.4480206726 4.7450812143 -0.2406027629 7.4480206726 4.7450812143 -0.2406027629 
7.4480206726 4.7450812143 -0.2406027629 7.4480206726 4.7450812143 -0.2406027629 7.4480206726 4.7450812143 -0.2406027629 
7.4480206726 4.7450812143 -0.2406027629 7.4480206726 4.7450812143 -0.2406027629 7.4480206726 4.7450812143 -0.2406027629 
7.4480206726 4.7450812143 -0.2406027629 7.4480206726 4.7450812143 -0.2406027629 7.4480206726 4.7450812143 -0.2406027629 
7.4480206726 4.7450812143 -0.2406027629 7.4480206726 4.7450812143 -0.2406027629 7.4480206726 4.7450812143 -0.2406027629 
7.4480206726 4.7450812143 -0.2406027629 7.4480206726 4.7450812143 -0.2406027629 7.4480206726 4.7450812143 -0.2406027629 
7.4480206726 4.7450812143 -0.2406027629 7.4480206726 4.7450812143 -0.2406027629 7.4480206726 4.7450812143 -0.2406027629 
7.4480206726 4.7450812143 -0.2406027629 7.4480206726 4.7450812143 -0.2406027629 7.4480206726 4.7450812143 -0.2406027629 
7.4480206726 4.7450812143 -0.2406027629 7.4480206726 4.7450812143 -0.2406027629 7.4480206726 4.7450812143 -0.2406027629 
7.4480206726 4.7450812143 -0.2406027629 7.4480206726 4.7450812143 -0.2406027629 7.4480206726 4.7450812143 -0.2406027629 
7.4480206726 4.7450812143 -0.2406027629 7.4480206726 4.7450812143 -0.2406027629 7.4480206726 4.7450812143 -0.2406027629 
7.4480206726 4.7450812143 -0.2406027629 7.4480206726 4.7450812143 -0.2406027629 7.4480206726 4.7450812143 -0.2406027629 
7.4480206726 4.7450812143 -0.2406027629 7.4480206726 4.7450812143 -0.2406027629 7.4480206726 4.7450812143 -0.2406027629 
7.4480206726 4.7450812143 -0.2406027629 7.4480206726 4.7450812143 -0.2406027629 7.4480206726 4.7450812143 -0.2406027629 
7.4480206726 4.7450812143 -0.2406027629 7.4480206726 4.7450812143 -0.2406027629 7.4480206726 4.7450812143 -0.2406027629 
7.4480206726 4.7450812143 -0.2406027629 7.4480206726 4.7450812143 -0.2406027629 7.4480206726 4.7450812143 -0.2406027629 
7.4480206726 4.7450812143 -0.2406027629 
