# vtk DataFile Version 4.1
Generated by LIGGGHTS
ASCII
DATASET POLYDATA
POINTS 100 float
-0.110242 -0.129998 0.0203682 -0.120658 -0.130915 0.0203206 -0.130516 -0.131072 0.0221476 
-0.11446 -0.131404 0.0300243 -0.10166 -0.128549 0.0262274 -0.123186 -0.132326 0.0302582 
-0.134447 -0.13324 0.0300698 -0.105859 -0.133095 0.0304951 -0.139382 -0.13204 0.0232251 
-0.116591 -0.127845 0.0116009 -0.118246 -0.134381 0.0370566 -0.12909 -0.1343 0.0343834 
-0.121962 -0.1245 0.0126295 -0.112326 -0.135255 0.0379953 -0.12759 -0.125526 0.0151136 
-0.124296 -0.135265 0.0368689 -0.107021 -0.127198 0.0323662 -0.13801 -0.125869 0.0203154 
-0.112055 -0.132897 0.010339 -0.141197 -0.13493 0.0288513 -0.115273 -0.136543 0.01395 
-0.115559 -0.136335 0.0417453 -0.103305 -0.136242 0.0255288 -0.0952031 -0.12496 0.024023 
-0.0996751 -0.130746 0.0194794 -0.117184 -0.122899 0.015254 -0.101837 -0.122326 0.0221926 
-0.0973302 -0.122529 0.0264118 -0.119924 -0.136369 0.0418854 -0.120269 -0.125352 0.02852 
-0.123304 -0.136358 0.0413225 -0.0989536 -0.133925 0.0307308 -0.127096 -0.137643 0.0171366 
-0.107674 -0.135984 0.0361214 -0.144718 -0.134684 0.0239292 -0.101058 -0.135206 0.0224817 
-0.128234 -0.136296 0.0396345 -0.108539 -0.13256 0.036166 -0.135416 -0.136132 0.0358368 
-0.122496 -0.129537 0.0105232 -0.128085 -0.137396 0.028292 -0.109917 -0.137594 0.033919 
-0.109149 -0.124484 0.029552 -0.108787 -0.138077 0.0271229 -0.137435 -0.127958 0.0272539 
-0.13936 -0.136026 0.0334458 -0.100807 -0.129699 0.0158694 -0.125317 -0.128767 0.0118348 
-0.126966 -0.13644 0.0424471 -0.132106 -0.123895 0.0161902 -0.0413777 -0.102212 0.021162 
-0.0517881 -0.103136 0.0208356 -0.0616897 -0.103315 0.0224039 -0.0458441 -0.103701 0.030693 
-0.0329529 -0.100806 0.0272544 -0.0545725 -0.104631 0.030692 -0.0658241 -0.105552 0.0302029 
-0.0372572 -0.10539 0.0313736 -0.0705806 -0.104299 0.0232421 -0.0474983 -0.0999908 0.0122504 
-0.049809 -0.106739 0.0375995 -0.0605799 -0.106644 0.0346456 -0.0528977 -0.096659 0.0131663 
-0.0439147 -0.107617 0.0386847 -0.058587 -0.0977091 0.0154946 -0.0558517 -0.107625 0.037247 
-0.0384724 -0.0995093 0.0332625 -0.0691387 -0.0981027 0.0204203 -0.0429259 -0.105029 0.0110654 
-0.0725383 -0.107236 0.0287952 -0.0462336 -0.108708 0.0145611 -0.0472433 -0.10873 0.0423403 
-0.0345718 -0.108494 0.0264497 -0.0264436 -0.0971945 0.0252486 -0.0307906 -0.102945 0.0205424 
-0.0481905 -0.0950757 0.0159275 -0.0330305 -0.0945502 0.0232679 -0.0286344 -0.0947841 0.0276012 
-0.0516111 -0.108768 0.0423663 -0.0516181 -0.0976405 0.029088 -0.0549752 -0.108755 0.0417158 
-0.0303593 -0.106217 0.0317822 -0.0581352 -0.109842 0.0174295 -0.0392148 -0.108327 0.0369266 
-0.0759309 -0.106951 0.0237852 -0.0322466 -0.107431 0.0234708 -0.059859 -0.108682 0.0399005 
-0.040084 -0.104904 0.0369771 -0.0669407 -0.108492 0.0359186 -0.0533715 -0.101678 0.0110054 
-0.0594141 -0.109688 0.028557 -0.0413988 -0.10992 0.0346534 -0.040529 -0.0967739 0.0304164 
-0.0400916 -0.110346 0.0278853 -0.0687427 -0.100248 0.0273539 -0.0708208 -0.108368 0.0334267 
-0.0318296 -0.101869 0.0169129 -0.0562267 -0.100921 0.0122494 -0.0586645 -0.108849 0.0427439 
-0.0631313 -0.0960904 0.0164666 
VERTICES 100 200
1 0 
1 1 
1 2 
1 3 
1 4 
1 5 
1 6 
1 7 
1 8 
1 9 
1 10 
1 11 
1 12 
1 13 
1 14 
1 15 
1 16 
1 17 
1 18 
1 19 
1 20 
1 21 
1 22 
1 23 
1 24 
1 25 
1 26 
1 27 
1 28 
1 29 
1 30 
1 31 
1 32 
1 33 
1 34 
1 35 
1 36 
1 37 
1 38 
1 39 
1 40 
1 41 
1 42 
1 43 
1 44 
1 45 
1 46 
1 47 
1 48 
1 49 
1 50 
1 51 
1 52 
1 53 
1 54 
1 55 
1 56 
1 57 
1 58 
1 59 
1 60 
1 61 
1 62 
1 63 
1 64 
1 65 
1 66 
1 67 
1 68 
1 69 
1 70 
1 71 
1 72 
1 73 
1 74 
1 75 
1 76 
1 77 
1 78 
1 79 
1 80 
1 81 
1 82 
1 83 
1 84 
1 85 
1 86 
1 87 
1 88 
1 89 
1 90 
1 91 
1 92 
1 93 
1 94 
1 95 
1 96 
1 97 
1 98 
1 99 

POINT_DATA 100
FIELD FieldData 7
id 1 100 int
1 2 3 4 5 6 7 8 9 
10 11 12 13 14 15 16 17 18 
19 20 21 22 23 24 25 26 27 
28 29 30 31 32 33 34 35 36 
37 38 39 40 41 42 43 44 45 
46 47 48 49 50 51 52 53 54 
55 56 57 58 59 60 61 62 63 
64 65 66 67 68 69 70 71 72 
73 74 75 76 77 78 79 80 81 
82 83 84 85 86 87 88 89 90 
91 92 93 94 95 96 97 98 99 
100 
mol 1 100 int
1 1 1 1 1 1 1 1 1 
1 1 1 1 1 1 1 1 1 
1 1 1 1 1 1 1 1 1 
1 1 1 1 1 1 1 1 1 
1 1 1 1 1 1 1 1 1 
1 1 1 1 1 2 2 2 2 
2 2 2 2 2 2 2 2 2 
2 2 2 2 2 2 2 2 2 
2 2 2 2 2 2 2 2 2 
2 2 2 2 2 2 2 2 2 
2 2 2 2 2 2 2 2 2 
2 
type 1 100 int
1 1 1 1 1 1 1 1 1 
1 1 1 1 1 1 1 1 1 
1 1 1 1 1 1 1 1 1 
1 1 1 1 1 1 1 1 1 
1 1 1 1 1 1 1 1 1 
1 1 1 1 1 1 1 1 1 
1 1 1 1 1 1 1 1 1 
1 1 1 1 1 1 1 1 1 
1 1 1 1 1 1 1 1 1 
1 1 1 1 1 1 1 1 1 
1 1 1 1 1 1 1 1 1 
1 
v 3 100 double
-0.10612068122 -0.05977837486 0.24928748265 -0.10565160951 -0.061214636538 0.17434777643 -0.11843527097 -0.066507994983 0.10491978403 
-0.17359942506 -0.08069231141 0.2167672932 -0.14740562727 -0.07082548202 0.312485864 -0.17510313412 -0.08247096269 0.15366273648 
-0.17364792768 -0.083736117407 0.072804923425 -0.17665046194 -0.080413174625 0.27350202568 -0.12584533978 -0.070080145395 0.040730983206 
-0.044982456663 -0.042290809095 0.20930867505 -0.22245455313 -0.096028770745 0.18397386236 -0.20372838392 -0.092010703641 0.10813032654 
-0.052685226455 -0.045244439589 0.17868452883 -0.22890570272 -0.097128240405 0.22363436706 -0.069947251466 -0.051294876945 0.13708187104 
-0.22100853045 -0.096526753309 0.13970587315 -0.19063623164 -0.084516568256 0.27775256306 -0.10635955923 -0.06376314741 0.063319090236 
-0.035391495759 -0.038969801759 0.2304903371 -0.16485755006 -0.082171121108 0.021940327782 -0.060165631237 -0.047032810077 0.20026992909 
-0.25503309078 -0.10548568799 0.19870128152 -0.1413740003 -0.069599994198 0.28479129827 -0.13248281779 -0.0652405696 0.3652925157 
-0.099779811372 -0.056351892183 0.32178680248 -0.071318605745 -0.050054935225 0.21554679731 -0.12004066309 -0.06237258643 0.32432287312 
-0.14958607097 -0.070574216268 0.35549244431 -0.25601002069 -0.10642396253 0.16802948223 -0.16394753539 -0.078387995722 0.18876377545 
-0.25206591133 -0.10573961293 0.1443594564 -0.17818046242 -0.079890001329 0.32016363363 -0.082340530886 -0.055473309595 0.11507755815 
-0.21566270675 -0.09250415633 0.2547115775 -0.13039094177 -0.07234683918 -0.0022284370564 -0.12016776661 -0.06286519071 0.30272330114 
-0.24024253679 -0.10291935204 0.10993782117 -0.21648087009 -0.092725641319 0.25584238516 -0.21364617106 -0.095998181518 0.059931808998 
-0.037178074301 -0.040896893467 0.16436144847 -0.1605726571 -0.079061611923 0.10866798973 -0.19998746459 -0.088206933614 0.23560210394 
-0.17130987898 -0.078916564075 0.26853777788 -0.15227779126 -0.073758555628 0.24251013506 -0.15468807749 -0.078259258221 0.062959488314 
-0.19690175724 -0.091555296501 0.032511947229 -0.074629562368 -0.048932754488 0.31604938803 -0.04648579058 -0.04406936008 0.14620353986 
-0.25993679746 -0.10864292575 0.11852180623 -0.077734248572 -0.054223394739 0.10885119008 -0.10557182588 -0.059473447846 0.20168040262 
-0.10315620204 -0.060697589378 0.12809674392 -0.11392331902 -0.065723217665 0.05954724238 -0.17093084851 -0.079874580581 0.16786478736 
-0.14777987541 -0.070461090418 0.26258276259 -0.17075474205 -0.081461306166 0.10585062695 -0.16721959438 -0.082504239752 0.02648169002 
-0.17531024319 -0.079710368907 0.2235239676 -0.11951622593 -0.069064289366 -0.0036967407731 -0.044612158179 -0.042272635094 0.1641004587 
-0.21793555879 -0.094790478126 0.13431975211 -0.19761289475 -0.090680278774 0.060348427289 -0.051525446114 -0.045137806068 0.13376799751 
-0.22524896126 -0.0959480311 0.17310404693 -0.067366442099 -0.050958401983 0.092433272549 -0.21534721115 -0.095165994918 0.090889338448 
-0.18938752833 -0.083813644275 0.22724163252 -0.10121281651 -0.063002316541 0.018966539618 -0.035534551672 -0.039004759171 0.18523025152 
-0.15721948251 -0.080833220169 -0.023213396518 -0.058936323738 -0.046791226931 0.15489420511 -0.25021811114 -0.10406678029 0.14789482366 
-0.14083918221 -0.069101882315 0.23563527585 -0.13462557488 -0.065153959468 0.31482818411 -0.10117213998 -0.05627302048 0.27307628727 
-0.070827107501 -0.049955809434 0.16943514192 -0.12146788558 -0.062282177551 0.27490618022 -0.15126412061 -0.07038777319 0.30469641692 
-0.25039081054 -0.10491539985 0.11774149884 -0.16098227047 -0.077627019141 0.14056211807 -0.24591320483 -0.10419065221 0.094602730942 
-0.17797321597 -0.079294534815 0.26932216401 -0.078481872113 -0.054852871253 0.070608222454 -0.21301353898 -0.091479306056 0.20400751444 
-0.12277275941 -0.07115422771 -0.04599002169 -0.12052046813 -0.062556521488 0.25383061747 -0.23342692636 -0.1013489502 0.061123599952 
-0.21398379423 -0.091741144724 0.20505716733 -0.20604225892 -0.094454358523 0.012749760013 -0.035731410717 -0.040782794898 0.12018993064 
-0.15513316102 -0.077954837805 0.062119372449 -0.19707014504 -0.087204875172 0.18569471451 -0.1702872044 -0.078338651657 0.21870163667 
-0.15038792125 -0.073057144979 0.19382115168 -0.14856652431 -0.077180137562 0.017283388206 -0.18890567533 -0.090039289299 -0.013714814043 
-0.076375926468 -0.049002927992 0.26813345649 -0.044435669905 -0.043859261475 0.10208574025 -0.25297588179 -0.10697524937 0.069005102543 
-0.074354594108 -0.053783331122 0.064468436958 
f 3 100 double
0 0 0 0 0 0 0 0 0 
0 0 0 0 0 0 0 0 0 
0 0 0 0 0 0 0 0 0 
0 0 0 0 0 0 0 0 0 
0 0 0 0 0 0 0 0 0 
0 0 0 0 0 0 0 0 0 
0 0 0 0 0 0 0 0 0 
0 0 0 0 0 0 0 0 0 
0 0 0 0 0 0 0 0 0 
0 0 0 0 0 0 0 0 0 
0 0 0 0 0 0 0 0 0 
0 0 0 0 0 0 0 0 0 
0 0 0 0 0 0 0 0 0 
0 0 0 0 0 0 0 0 0 
0 0 0 0 0 0 0 0 0 
0 0 0 0 0 0 0 0 0 
0 0 0 0 0 0 0 0 0 
0 0 0 0 0 0 0 0 0 
0 0 0 0 0 0 0 0 0 
0 0 0 0 0 0 0 0 0 
0 0 0 0 0 0 0 0 0 
0 0 0 0 0 0 0 0 0 
0 0 0 0 0 0 0 0 0 
0 0 0 0 0 0 0 0 0 
0 0 0 0 0 0 0 0 0 
0 0 0 0 0 0 0 0 0 
0 0 0 0 0 0 0 0 0 
0 0 0 0 0 0 0 0 0 
0 0 0 0 0 0 0 0 0 
0 0 0 0 0 0 0 0 0 
0 0 0 0 0 0 0 0 0 
0 0 0 0 0 0 0 0 0 
0 0 0 0 0 0 0 0 0 
0 0 0 
radius 1 100 double
0.010434 0.00981478 0.00892069 0.00845937 0.00731974 0.00728422 0.00643447 0.00619172 0.00585956 
0.00577566 0.00537241 0.00522549 0.00513666 0.00473175 0.00466912 0.00444866 0.00441894 0.00400812 
0.00385622 0.00379948 0.00370243 0.00366942 0.00364039 0.00363813 0.00363644 0.00358692 0.0035797 
0.00341284 0.00337012 0.00336273 0.00332772 0.00323261 0.00320584 0.00320311 0.00318808 0.00313116 
0.00306026 0.00305632 0.00304383 0.00300958 0.00300137 0.00298994 0.0029567 0.00295111 0.00290849 
0.00284552 0.00282964 0.0028207 0.00281971 0.00281899 0.010434 0.00981478 0.00892069 0.00845937 
0.00731974 0.00728422 0.00643447 0.00619172 0.00585956 0.00577566 0.00537241 0.00522549 0.00513666 
0.00473175 0.00466912 0.00444866 0.00441894 0.00400812 0.00385622 0.00379948 0.00370243 0.00366942 
0.00364039 0.00363813 0.00363644 0.00358692 0.0035797 0.00341284 0.00337012 0.00336273 0.00332772 
0.00323261 0.00320584 0.00320311 0.00318808 0.00313116 0.00306026 0.00305632 0.00304383 0.00300958 
0.00300137 0.00298994 0.0029567 0.00295111 0.00290849 0.00284552 0.00282964 0.0028207 0.00281971 
0.00281899 
omega 3 100 double
2.1014581262 -7.009700707 0.147498564 2.1014581262 -7.009700707 0.147498564 2.1014581262 -7.009700707 0.147498564 
2.1014581262 -7.009700707 0.147498564 2.1014581262 -7.009700707 0.147498564 2.1014581262 -7.009700707 0.147498564 
2.1014581262 -7.009700707 0.147498564 2.1014581262 -7.009700707 0.147498564 2.1014581262 -7.009700707 0.147498564 
2.1014581262 -7.009700707 0.147498564 2.1014581262 -7.009700707 0.147498564 2.1014581262 -7.009700707 0.147498564 
2.1014581262 -7.009700707 0.147498564 2.1014581262 -7.009700707 0.147498564 2.1014581262 -7.009700707 0.147498564 
2.1014581262 -7.009700707 0.147498564 2.1014581262 -7.009700707 0.147498564 2.1014581262 -7.009700707 0.147498564 
2.1014581262 -7.009700707 0.147498564 2.1014581262 -7.009700707 0.147498564 2.1014581262 -7.009700707 0.147498564 
2.1014581262 -7.009700707 0.147498564 2.1014581262 -7.009700707 0.147498564 2.1014581262 -7.009700707 0.147498564 
2.1014581262 -7.009700707 0.147498564 2.1014581262 -7.009700707 0.147498564 2.1014581262 -7.009700707 0.147498564 
2.1014581262 -7.009700707 0.147498564 2.1014581262 -7.009700707 0.147498564 2.1014581262 -7.009700707 0.147498564 
2.1014581262 -7.009700707 0.147498564 2.1014581262 -7.009700707 0.147498564 2.1014581262 -7.009700707 0.147498564 
2.1014581262 -7.009700707 0.147498564 2.1014581262 -7.009700707 0.147498564 2.1014581262 -7.009700707 0.147498564 
2.1014581262 -7.009700707 0.147498564 2.1014581262 -7.009700707 0.147498564 2.1014581262 -7.009700707 0.147498564 
2.1014581262 -7.009700707 0.147498564 2.1014581262 -7.009700707 0.147498564 2.1014581262 -7.009700707 0.147498564 
2.1014581262 -7.009700707 0.147498564 2.1014581262 -7.009700707 0.147498564 2.1014581262 -7.009700707 0.147498564 
2.1014581262 -7.009700707 0.147498564 2.1014581262 -7.009700707 0.147498564 2.1014581262 -7.009700707 0.147498564 
2.1014581262 -7.009700707 0.147498564 2.1014581262 -7.009700707 0.147498564 2.0551977428 -6.8859386921 0.18202340621 
2.0551977428 -6.8859386921 0.18202340621 2.0551977428 -6.8859386921 0.18202340621 2.0551977428 -6.8859386921 0.18202340621 
2.0551977428 -6.8859386921 0.18202340621 2.0551977428 -6.8859386921 0.18202340621 2.0551977428 -6.8859386921 0.18202340621 
2.0551977428 -6.8859386921 0.18202340621 2.0551977428 -6.8859386921 0.18202340621 2.0551977428 -6.8859386921 0.18202340621 
2.0551977428 -6.8859386921 0.18202340621 2.0551977428 -6.8859386921 0.18202340621 2.0551977428 -6.8859386921 0.18202340621 
2.0551977428 -6.8859386921 0.18202340621 2.0551977428 -6.8859386921 0.18202340621 2.0551977428 -6.8859386921 0.18202340621 
2.0551977428 -6.8859386921 0.18202340621 2.0551977428 -6.8859386921 0.18202340621 2.0551977428 -6.8859386921 0.18202340621 
2.0551977428 -6.8859386921 0.18202340621 2.0551977428 -6.8859386921 0.18202340621 2.0551977428 -6.8859386921 0.18202340621 
2.0551977428 -6.8859386921 0.18202340621 2.0551977428 -6.8859386921 0.18202340621 2.0551977428 -6.8859386921 0.18202340621 
2.0551977428 -6.8859386921 0.18202340621 2.0551977428 -6.8859386921 0.18202340621 2.0551977428 -6.8859386921 0.18202340621 
2.0551977428 -6.8859386921 0.18202340621 2.0551977428 -6.8859386921 0.18202340621 2.0551977428 -6.8859386921 0.18202340621 
2.0551977428 -6.8859386921 0.18202340621 2.0551977428 -6.8859386921 0.18202340621 2.0551977428 -6.8859386921 0.18202340621 
2.0551977428 -6.8859386921 0.18202340621 2.0551977428 -6.8859386921 0.18202340621 2.0551977428 -6.8859386921 0.18202340621 
2.0551977428 -6.8859386921 0.18202340621 2.0551977428 -6.8859386921 0.18202340621 2.0551977428 -6.8859386921 0.18202340621 
2.0551977428 -6.8859386921 0.18202340621 2.0551977428 -6.8859386921 0.18202340621 2.0551977428 -6.8859386921 0.18202340621 
2.0551977428 -6.8859386921 0.18202340621 2.0551977428 -6.8859386921 0.18202340621 2.0551977428 -6.8859386921 0.18202340621 
2.0551977428 -6.8859386921 0.18202340621 2.0551977428 -6.8859386921 0.18202340621 2.0551977428 -6.8859386921 0.18202340621 
2.0551977428 -6.8859386921 0.18202340621 
