# vtk DataFile Version 4.1
Generated by LIGGGHTS
ASCII
DATASET POLYDATA
POINTS 100 float
-0.114104 -0.132081 0.0232836 -0.124196 -0.133005 0.0207083 -0.134202 -0.133296 0.0201321 
-0.12046 -0.13414 0.0315516 -0.107177 -0.13102 0.0310918 -0.128977 -0.135086 0.0296495 
-0.139857 -0.135999 0.0267376 -0.112187 -0.135848 0.0339366 -0.143054 -0.134346 0.0190113 
-0.118236 -0.129348 0.0134208 -0.12575 -0.137589 0.0372763 -0.135654 -0.137341 0.0321197 
-0.123755 -0.126088 0.0133625 -0.120206 -0.138517 0.0395326 -0.129791 -0.127285 0.0143694 
-0.131568 -0.138465 0.0356024 -0.113859 -0.130092 0.0358596 -0.141138 -0.127991 0.0169188 
-0.113444 -0.134299 0.0129435 -0.146097 -0.13761 0.0238462 -0.117361 -0.138184 0.0154428 
-0.124215 -0.139851 0.0423306 -0.108478 -0.13865 0.029523 -0.100444 -0.127283 0.0307201 
-0.103615 -0.132754 0.0248783 -0.11976 -0.124661 0.0171438 -0.106502 -0.124539 0.0275449 
-0.103117 -0.12502 0.0326899 -0.128489 -0.139899 0.0414292 -0.125852 -0.128006 0.029111 
-0.131639 -0.139855 0.040083 -0.10552 -0.136684 0.035748 -0.129582 -0.139511 0.0156568 
-0.115231 -0.139112 0.0387715 -0.148359 -0.137037 0.0182563 -0.105592 -0.137408 0.0271698 
-0.13603 -0.139685 0.0372823 -0.116141 -0.1357 0.0388331 -0.142113 -0.139274 0.0319091 
-0.123688 -0.130971 0.0108659 -0.133185 -0.140017 0.0262515 -0.116862 -0.140572 0.0359999 
-0.115308 -0.127197 0.0328043 -0.114149 -0.140595 0.0296489 -0.142185 -0.130542 0.0236443 
-0.145381 -0.139011 0.0286635 -0.10388 -0.131467 0.021179 -0.126753 -0.130295 0.0115187 
-0.135461 -0.140017 0.0402998 -0.134461 -0.125736 0.0144486 -0.0452146 -0.104283 0.0224483 
-0.0552463 -0.105208 0.0196472 -0.0652366 -0.105514 0.0188506 -0.0517463 -0.106409 0.0305618 
-0.0384623 -0.103262 0.0304128 -0.0602177 -0.107357 0.0284679 -0.0710296 -0.10827 0.0253131 
-0.0435239 -0.108118 0.0331157 -0.0740601 -0.106572 0.0175298 -0.0491355 -0.101493 0.0125159 
-0.0571529 -0.109905 0.0361468 -0.0669427 -0.109641 0.0307768 -0.0546581 -0.0982422 0.0123585 
-0.0516575 -0.110838 0.0385175 -0.0607132 -0.0994572 0.0132253 -0.0629317 -0.11078 0.0343404 
-0.0452487 -0.102378 0.0350395 -0.0721118 -0.1002 0.0155216 -0.0443245 -0.106432 0.0121108 
-0.0772021 -0.109874 0.0222755 -0.0482883 -0.110341 0.0144983 -0.0557241 -0.112198 0.0412184 
-0.0397135 -0.110884 0.0287658 -0.03173 -0.0995103 0.0302129 -0.0347621 -0.104948 0.0242674 
-0.0507501 -0.0968332 0.0162354 -0.0377221 -0.0967569 0.0269242 -0.0344498 -0.0972656 0.0321386 
-0.0599771 -0.112248 0.0402236 -0.0570956 -0.100269 0.0280444 -0.0630977 -0.1122 0.0388092 
-0.0368963 -0.108953 0.0350668 -0.0605086 -0.111691 0.0144366 -0.0466659 -0.111419 0.0378614 
-0.0793423 -0.109268 0.0166414 -0.0367791 -0.109621 0.0264845 -0.0674265 -0.112019 0.0359144 
-0.0475835 -0.108009 0.0379255 -0.0733915 -0.111584 0.0304124 -0.0545279 -0.103109 0.00983181 
-0.0643404 -0.112274 0.0249464 -0.0482335 -0.112864 0.0350452 -0.0466358 -0.0994653 0.0319724 
-0.0453821 -0.112839 0.028755 -0.0732998 -0.102797 0.0222057 -0.076588 -0.111306 0.027098 
-0.0349482 -0.103638 0.0205717 -0.057607 -0.102442 0.0104219 -0.0669226 -0.112371 0.0389413 
-0.0653869 -0.0979171 0.0132127 
VERTICES 100 200
1 0 
1 1 
1 2 
1 3 
1 4 
1 5 
1 6 
1 7 
1 8 
1 9 
1 10 
1 11 
1 12 
1 13 
1 14 
1 15 
1 16 
1 17 
1 18 
1 19 
1 20 
1 21 
1 22 
1 23 
1 24 
1 25 
1 26 
1 27 
1 28 
1 29 
1 30 
1 31 
1 32 
1 33 
1 34 
1 35 
1 36 
1 37 
1 38 
1 39 
1 40 
1 41 
1 42 
1 43 
1 44 
1 45 
1 46 
1 47 
1 48 
1 49 
1 50 
1 51 
1 52 
1 53 
1 54 
1 55 
1 56 
1 57 
1 58 
1 59 
1 60 
1 61 
1 62 
1 63 
1 64 
1 65 
1 66 
1 67 
1 68 
1 69 
1 70 
1 71 
1 72 
1 73 
1 74 
1 75 
1 76 
1 77 
1 78 
1 79 
1 80 
1 81 
1 82 
1 83 
1 84 
1 85 
1 86 
1 87 
1 88 
1 89 
1 90 
1 91 
1 92 
1 93 
1 94 
1 95 
1 96 
1 97 
1 98 
1 99 

POINT_DATA 100
FIELD FieldData 7
id 1 100 int
1 2 3 4 5 6 7 8 9 
10 11 12 13 14 15 16 17 18 
19 20 21 22 23 24 25 26 27 
28 29 30 31 32 33 34 35 36 
37 38 39 40 41 42 43 44 45 
46 47 48 49 50 51 52 53 54 
55 56 57 58 59 60 61 62 63 
64 65 66 67 68 69 70 71 72 
73 74 75 76 77 78 79 80 81 
82 83 84 85 86 87 88 89 90 
91 92 93 94 95 96 97 98 99 
100 
mol 1 100 int
1 1 1 1 1 1 1 1 1 
1 1 1 1 1 1 1 1 1 
1 1 1 1 1 1 1 1 1 
1 1 1 1 1 1 1 1 1 
1 1 1 1 1 1 1 1 1 
1 1 1 1 1 2 2 2 2 
2 2 2 2 2 2 2 2 2 
2 2 2 2 2 2 2 2 2 
2 2 2 2 2 2 2 2 2 
2 2 2 2 2 2 2 2 2 
2 2 2 2 2 2 2 2 2 
2 
type 1 100 int
1 1 1 1 1 1 1 1 1 
1 1 1 1 1 1 1 1 1 
1 1 1 1 1 1 1 1 1 
1 1 1 1 1 1 1 1 1 
1 1 1 1 1 1 1 1 1 
1 1 1 1 1 1 1 1 1 
1 1 1 1 1 1 1 1 1 
1 1 1 1 1 1 1 1 1 
1 1 1 1 1 1 1 1 1 
1 1 1 1 1 1 1 1 1 
1 1 1 1 1 1 1 1 1 
1 
v 3 100 double
-0.12130588364 -0.062763840051 -0.078449685009 -0.10277018575 -0.061774179103 -0.15144341134 -0.098591702465 -0.064390382456 -0.22267669589 
-0.17897475411 -0.080136450694 -0.12711325973 -0.17686862554 -0.074434793646 -0.027575169193 -0.1651878398 -0.07979476683 -0.18901592601 
-0.14427786057 -0.078481175129 -0.26755574861 -0.19520204877 -0.081446156225 -0.071762497536 -0.090287546778 -0.06559315417 -0.28713751898 
-0.052614723728 -0.046330897103 -0.10267484664 -0.21816318761 -0.092490467205 -0.17076618275 -0.1818166291 -0.086735011993 -0.24029998099 
-0.053396998924 -0.048246116475 -0.13573857755 -0.23376671127 -0.094565441768 -0.13327864089 -0.060073243877 -0.052289315063 -0.18057539584 
-0.20601413253 -0.091575622783 -0.21347387005 -0.21089841606 -0.085557620261 -0.073103502992 -0.077829436601 -0.061084209488 -0.26203997734 
-0.047428809954 -0.043707194145 -0.07782011528 -0.12325615132 -0.075505444884 -0.31458317118 -0.063666705878 -0.049689899507 -0.11257243979 
-0.25304899365 -0.10112503106 -0.16403592367 -0.16298816819 -0.07205642876 -0.050649067264 -0.17561053444 -0.071292347667 0.026801431428 
-0.13232793112 -0.061824091098 -0.0055605829695 -0.080638734915 -0.053663602646 -0.10491802439 -0.15417887438 -0.067733399054 -0.011010688792 
-0.1903581255 -0.075855600699 0.012030489204 -0.24666230347 -0.10105020556 -0.19432202486 -0.16397592892 -0.077670534511 -0.15405419978 
-0.23716619903 -0.099754631896 -0.21650421917 -0.20769589287 -0.082300347064 -0.026171680617 -0.064692876984 -0.054555385998 -0.20134370341 
-0.22817073645 -0.091358458282 -0.099207955525 -0.083967097959 -0.066162442146 -0.3295213486 -0.1468155772 -0.066717625432 -0.027995044012 
-0.21743825559 -0.096266582563 -0.24721996151 -0.22985540422 -0.091803689466 -0.099428165106 -0.17962050508 -0.08871736115 -0.28945581987 
-0.033966967511 -0.04367904716 -0.14415683072 -0.13937090952 -0.075152808858 -0.22772009876 -0.2080512073 -0.086912673036 -0.1133916234 
-0.19036952083 -0.08052878941 -0.078072296597 -0.16316601284 -0.074362664126 -0.094259503871 -0.12441850614 -0.073705137412 -0.27407531246 
-0.15678314738 -0.084008563659 -0.31206765532 -0.10665946545 -0.055189742938 -0.0050881688193 -0.038827311745 -0.045989110033 -0.16457799421 
-0.23863803119 -0.10154857842 -0.24380245766 -0.06120050493 -0.054143941759 -0.21075619429 -0.12036342331 -0.062392550514 -0.1266377351 
-0.10056367555 -0.061270499196 -0.19791648278 -0.094916765155 -0.063689796761 -0.26780885134 -0.17586953331 -0.079296254294 -0.17574982892 
-0.17604283908 -0.073935398591 -0.077951740036 -0.16097046116 -0.078830709287 -0.23623976745 -0.13872046983 -0.077380459729 -0.31291347746 
-0.19294228042 -0.080673703053 -0.12170541091 -0.085342238334 -0.064731220796 -0.3309372628 -0.052485059153 -0.046271047847 -0.14890424834 
-0.21329756181 -0.091281419403 -0.21948574341 -0.17612184724 -0.085507990459 -0.28697466384 -0.05263977637 -0.048110513761 -0.18147095315 
-0.22939660757 -0.093380053994 -0.18299377994 -0.058191223853 -0.051971937289 -0.22566018221 -0.20042245504 -0.090293009273 -0.26115371003 
-0.20849934719 -0.084749374027 -0.12349173595 -0.07384609695 -0.060419964218 -0.30610521852 -0.0477784259 -0.043706414926 -0.12427091094 
-0.11701881349 -0.074358179159 -0.35860745348 -0.062852689772 -0.049464031203 -0.15872259294 -0.24762374016 -0.09973317864 -0.21363718815 
-0.16168506289 -0.071492629667 -0.10016315614 -0.17609396952 -0.070997618015 -0.024560594739 -0.13273545166 -0.061610271639 -0.055258765462 
-0.080093090397 -0.053491031817 -0.15184231199 -0.15432137455 -0.067460648926 -0.061270183836 -0.19032343091 -0.075458485025 -0.039457078737 
-0.2406990501 -0.099599528183 -0.24324802847 -0.16075035291 -0.076881415545 -0.20198835169 -0.23089913011 -0.098286887227 -0.26482575155 
-0.20616582252 -0.081593311156 -0.077180945118 -0.061905925515 -0.054042889723 -0.24594914587 -0.22461894137 -0.090300672909 -0.14937541266 
-0.078141126801 -0.06518129893 -0.37238832296 -0.14633344622 -0.066318533827 -0.077552235448 -0.21087368271 -0.094810727172 -0.29455443687 
-0.22637227748 -0.090766468252 -0.1496934931 -0.17284703928 -0.087335580247 -0.33518920588 -0.033233307167 -0.043576914015 -0.18920389915 
-0.13463910229 -0.074163397972 -0.27358337132 -0.20451570018 -0.085904656733 -0.16282052999 -0.18832573186 -0.07983883762 -0.12795290029 
-0.1608601757 -0.073648372434 -0.14298341003 -0.1192489324 -0.072737077415 -0.31896103834 -0.14994636195 -0.082680429695 -0.35688477396 
-0.10758415194 -0.055123563883 -0.054224997383 -0.037585489128 -0.045805401104 -0.20939464895 -0.23175068066 -0.099988781157 -0.29168021095 
-0.058694563739 -0.053742659968 -0.25537058513 
f 3 100 double
0 0 0 0 0 0 0 0 0 
0 0 0 0 0 0 0 0 0 
0 0 0 0 0 0 0 0 0 
0 0 0 0 0 0 0 0 0 
0 0 0 0 0 0 0 0 0 
0 0 0 0 0 0 0 0 0 
0 0 0 0 0 0 0 0 0 
0 0 0 0 0 0 0 0 0 
0 0 0 0 0 0 0 0 0 
0 0 0 0 0 0 0 0 0 
0 0 0 0 0 0 0 0 0 
0 0 0 0 0 0 0 0 0 
0 0 0 0 0 0 0 0 0 
0 0 0 0 0 0 0 0 0 
0 0 0 0 0 0 0 0 0 
0 0 0 0 0 0 0 0 0 
0 0 0 0 0 0 0 0 0 
0 0 0 0 0 0 0 0 0 
0 0 0 0 0 0 0 0 0 
0 0 0 0 0 0 0 0 0 
0 0 0 0 0 0 0 0 0 
0 0 0 0 0 0 0 0 0 
0 0 0 0 0 0 0 0 0 
0 0 0 0 0 0 0 0 0 
0 0 0 0 0 0 0 0 0 
0 0 0 0 0 0 0 0 0 
0 0 0 0 0 0 0 0 0 
0 0 0 0 0 0 0 0 0 
0 0 0 0 0 0 0 0 0 
0 0 0 0 0 0 0 0 0 
0 0 0 0 0 0 0 0 0 
0 0 0 0 0 0 0 0 0 
0 0 0 0 0 0 0 0 0 
0 0 0 
radius 1 100 double
0.010434 0.00981478 0.00892069 0.00845937 0.00731974 0.00728422 0.00643447 0.00619172 0.00585956 
0.00577566 0.00537241 0.00522549 0.00513666 0.00473175 0.00466912 0.00444866 0.00441894 0.00400812 
0.00385622 0.00379948 0.00370243 0.00366942 0.00364039 0.00363813 0.00363644 0.00358692 0.0035797 
0.00341284 0.00337012 0.00336273 0.00332772 0.00323261 0.00320584 0.00320311 0.00318808 0.00313116 
0.00306026 0.00305632 0.00304383 0.00300958 0.00300137 0.00298994 0.0029567 0.00295111 0.00290849 
0.00284552 0.00282964 0.0028207 0.00281971 0.00281899 0.010434 0.00981478 0.00892069 0.00845937 
0.00731974 0.00728422 0.00643447 0.00619172 0.00585956 0.00577566 0.00537241 0.00522549 0.00513666 
0.00473175 0.00466912 0.00444866 0.00441894 0.00400812 0.00385622 0.00379948 0.00370243 0.00366942 
0.00364039 0.00363813 0.00363644 0.00358692 0.0035797 0.00341284 0.00337012 0.00336273 0.00332772 
0.00323261 0.00320584 0.00320311 0.00318808 0.00313116 0.00306026 0.00305632 0.00304383 0.00300958 
0.00300137 0.00298994 0.0029567 0.00295111 0.00290849 0.00284552 0.00282964 0.0028207 0.00281971 
0.00281899 
omega 3 100 double
1.8195993503 -7.0661573967 0.36625673393 1.8195993503 -7.0661573967 0.36625673393 1.8195993503 -7.0661573967 0.36625673393 
1.8195993503 -7.0661573967 0.36625673393 1.8195993503 -7.0661573967 0.36625673393 1.8195993503 -7.0661573967 0.36625673393 
1.8195993503 -7.0661573967 0.36625673393 1.8195993503 -7.0661573967 0.36625673393 1.8195993503 -7.0661573967 0.36625673393 
1.8195993503 -7.0661573967 0.36625673393 1.8195993503 -7.0661573967 0.36625673393 1.8195993503 -7.0661573967 0.36625673393 
1.8195993503 -7.0661573967 0.36625673393 1.8195993503 -7.0661573967 0.36625673393 1.8195993503 -7.0661573967 0.36625673393 
1.8195993503 -7.0661573967 0.36625673393 1.8195993503 -7.0661573967 0.36625673393 1.8195993503 -7.0661573967 0.36625673393 
1.8195993503 -7.0661573967 0.36625673393 1.8195993503 -7.0661573967 0.36625673393 1.8195993503 -7.0661573967 0.36625673393 
1.8195993503 -7.0661573967 0.36625673393 1.8195993503 -7.0661573967 0.36625673393 1.8195993503 -7.0661573967 0.36625673393 
1.8195993503 -7.0661573967 0.36625673393 1.8195993503 -7.0661573967 0.36625673393 1.8195993503 -7.0661573967 0.36625673393 
1.8195993503 -7.0661573967 0.36625673393 1.8195993503 -7.0661573967 0.36625673393 1.8195993503 -7.0661573967 0.36625673393 
1.8195993503 -7.0661573967 0.36625673393 1.8195993503 -7.0661573967 0.36625673393 1.8195993503 -7.0661573967 0.36625673393 
1.8195993503 -7.0661573967 0.36625673393 1.8195993503 -7.0661573967 0.36625673393 1.8195993503 -7.0661573967 0.36625673393 
1.8195993503 -7.0661573967 0.36625673393 1.8195993503 -7.0661573967 0.36625673393 1.8195993503 -7.0661573967 0.36625673393 
1.8195993503 -7.0661573967 0.36625673393 1.8195993503 -7.0661573967 0.36625673393 1.8195993503 -7.0661573967 0.36625673393 
1.8195993503 -7.0661573967 0.36625673393 1.8195993503 -7.0661573967 0.36625673393 1.8195993503 -7.0661573967 0.36625673393 
1.8195993503 -7.0661573967 0.36625673393 1.8195993503 -7.0661573967 0.36625673393 1.8195993503 -7.0661573967 0.36625673393 
1.8195993503 -7.0661573967 0.36625673393 1.8195993503 -7.0661573967 0.36625673393 1.7745587315 -6.9417454783 0.3836602283 
1.7745587315 -6.9417454783 0.3836602283 1.7745587315 -6.9417454783 0.3836602283 1.7745587315 -6.9417454783 0.3836602283 
1.7745587315 -6.9417454783 0.3836602283 1.7745587315 -6.9417454783 0.3836602283 1.7745587315 -6.9417454783 0.3836602283 
1.7745587315 -6.9417454783 0.3836602283 1.7745587315 -6.9417454783 0.3836602283 1.7745587315 -6.9417454783 0.3836602283 
1.7745587315 -6.9417454783 0.3836602283 1.7745587315 -6.9417454783 0.3836602283 1.7745587315 -6.9417454783 0.3836602283 
1.7745587315 -6.9417454783 0.3836602283 1.7745587315 -6.9417454783 0.3836602283 1.7745587315 -6.9417454783 0.3836602283 
1.7745587315 -6.9417454783 0.3836602283 1.7745587315 -6.9417454783 0.3836602283 1.7745587315 -6.9417454783 0.3836602283 
1.7745587315 -6.9417454783 0.3836602283 1.7745587315 -6.9417454783 0.3836602283 1.7745587315 -6.9417454783 0.3836602283 
1.7745587315 -6.9417454783 0.3836602283 1.7745587315 -6.9417454783 0.3836602283 1.7745587315 -6.9417454783 0.3836602283 
1.7745587315 -6.9417454783 0.3836602283 1.7745587315 -6.9417454783 0.3836602283 1.7745587315 -6.9417454783 0.3836602283 
1.7745587315 -6.9417454783 0.3836602283 1.7745587315 -6.9417454783 0.3836602283 1.7745587315 -6.9417454783 0.3836602283 
1.7745587315 -6.9417454783 0.3836602283 1.7745587315 -6.9417454783 0.3836602283 1.7745587315 -6.9417454783 0.3836602283 
1.7745587315 -6.9417454783 0.3836602283 1.7745587315 -6.9417454783 0.3836602283 1.7745587315 -6.9417454783 0.3836602283 
1.7745587315 -6.9417454783 0.3836602283 1.7745587315 -6.9417454783 0.3836602283 1.7745587315 -6.9417454783 0.3836602283 
1.7745587315 -6.9417454783 0.3836602283 1.7745587315 -6.9417454783 0.3836602283 1.7745587315 -6.9417454783 0.3836602283 
1.7745587315 -6.9417454783 0.3836602283 1.7745587315 -6.9417454783 0.3836602283 1.7745587315 -6.9417454783 0.3836602283 
1.7745587315 -6.9417454783 0.3836602283 1.7745587315 -6.9417454783 0.3836602283 1.7745587315 -6.9417454783 0.3836602283 
1.7745587315 -6.9417454783 0.3836602283 
