# vtk DataFile Version 4.1
Generated by LIGGGHTS
ASCII
DATASET POLYDATA
POINTS 100 float
-0.120132 -0.138681 0.0182944 -0.129111 -0.138135 0.0129646 -0.138564 -0.137514 0.00967788 
-0.128532 -0.142356 0.023673 -0.115646 -0.140232 0.0276511 -0.136186 -0.142127 0.0193803 
-0.145828 -0.141424 0.0135319 -0.121245 -0.145247 0.0276217 -0.146756 -0.137564 0.00598921 
-0.121365 -0.133152 0.0088225 -0.135201 -0.146781 0.0266068 -0.143284 -0.144444 0.0192621 
-0.126654 -0.129585 0.00818426 -0.1305 -0.148683 0.0299203 -0.132732 -0.130549 0.00717384 
-0.140325 -0.146747 0.0232654 -0.12339 -0.14009 0.0305243 -0.14434 -0.131045 0.00630377 
-0.116625 -0.138148 0.00830997 -0.151019 -0.141746 0.00875166 -0.121079 -0.142248 0.0085109 
-0.135127 -0.1504 0.0310696 -0.116454 -0.147062 0.0237691 -0.109078 -0.137044 0.0301284 
-0.110498 -0.140535 0.0223878 -0.123868 -0.129506 0.0131359 -0.114018 -0.133117 0.0263245 
-0.112195 -0.135185 0.0318522 -0.138983 -0.149889 0.0290812 -0.13304 -0.13541 0.0216521 
-0.141636 -0.149256 0.0270072 -0.115343 -0.147027 0.0308494 -0.132878 -0.142663 0.00507939 
-0.125509 -0.149429 0.0303841 -0.15164 -0.139556 0.00313824 -0.113029 -0.145466 0.0227055 
-0.145076 -0.148027 0.0232919 -0.126403 -0.146094 0.03113 -0.149429 -0.145764 0.0168129 
-0.125893 -0.133632 0.00456073 -0.13928 -0.145663 0.0137683 -0.126305 -0.149983 0.026988 
-0.123936 -0.136394 0.0281046 -0.121935 -0.14854 0.0218384 -0.14721 -0.135187 0.011542 
-0.151667 -0.144413 0.013012 -0.109726 -0.138306 0.0192502 -0.129018 -0.132923 0.00452971 
-0.145367 -0.149182 0.0261415 -0.137242 -0.128729 0.00642194 -0.0513913 -0.110673 0.0180368 
-0.0604557 -0.11018 0.0128471 -0.0699692 -0.109796 0.00970434 -0.0595212 -0.115194 0.023182 
-0.0467108 -0.112718 0.0272009 -0.0672311 -0.115028 0.0189893 -0.0769727 -0.114372 0.0133012 
-0.0520444 -0.118001 0.0268242 -0.0781952 -0.109985 0.00609638 -0.0530304 -0.104488 0.0090439 
-0.0659144 -0.120178 0.0258155 -0.0742021 -0.117696 0.0187512 -0.058503 -0.101164 0.00873729 
-0.0610796 -0.122086 0.0289258 -0.0645362 -0.102361 0.00770795 -0.0710766 -0.120149 0.022533 
-0.0544137 -0.113207 0.0301452 -0.0761139 -0.103393 0.00690474 -0.0480466 -0.109174 0.00809504 
-0.0822018 -0.114588 0.00855684 -0.0522812 -0.113504 0.00801029 -0.0655971 -0.124128 0.0299767 
-0.0472165 -0.119255 0.0227975 -0.0402833 -0.109396 0.0298642 -0.0416224 -0.112337 0.0218844 
-0.0556604 -0.101328 0.0136547 -0.0454678 -0.105445 0.0264275 -0.0434687 -0.107843 0.0317576 
-0.0694992 -0.123664 0.0280695 -0.0644057 -0.108355 0.0217578 -0.0722081 -0.123009 0.0260758 
-0.0460164 -0.119719 0.0298481 -0.064087 -0.114264 0.00466197 -0.0560511 -0.122604 0.0292847 
-0.0830077 -0.111999 0.00314023 -0.0438923 -0.117403 0.0218331 -0.0757554 -0.121673 0.0225005 
-0.0571055 -0.11939 0.0303003 -0.0803021 -0.119138 0.01626 -0.0575824 -0.104868 0.00479797 
-0.0702126 -0.118268 0.0131427 -0.056862 -0.12293 0.0258625 -0.0551802 -0.109366 0.0280308 
-0.0526394 -0.12086 0.0208047 -0.0786992 -0.108079 0.0118238 -0.0826561 -0.117612 0.0125982 
-0.0410069 -0.10983 0.0189265 -0.0607404 -0.104322 0.0048511 -0.0759491 -0.123063 0.0252521 
-0.0691429 -0.100725 0.00714278 
VERTICES 100 200
1 0 
1 1 
1 2 
1 3 
1 4 
1 5 
1 6 
1 7 
1 8 
1 9 
1 10 
1 11 
1 12 
1 13 
1 14 
1 15 
1 16 
1 17 
1 18 
1 19 
1 20 
1 21 
1 22 
1 23 
1 24 
1 25 
1 26 
1 27 
1 28 
1 29 
1 30 
1 31 
1 32 
1 33 
1 34 
1 35 
1 36 
1 37 
1 38 
1 39 
1 40 
1 41 
1 42 
1 43 
1 44 
1 45 
1 46 
1 47 
1 48 
1 49 
1 50 
1 51 
1 52 
1 53 
1 54 
1 55 
1 56 
1 57 
1 58 
1 59 
1 60 
1 61 
1 62 
1 63 
1 64 
1 65 
1 66 
1 67 
1 68 
1 69 
1 70 
1 71 
1 72 
1 73 
1 74 
1 75 
1 76 
1 77 
1 78 
1 79 
1 80 
1 81 
1 82 
1 83 
1 84 
1 85 
1 86 
1 87 
1 88 
1 89 
1 90 
1 91 
1 92 
1 93 
1 94 
1 95 
1 96 
1 97 
1 98 
1 99 

POINT_DATA 100
FIELD FieldData 7
id 1 100 int
1 2 3 4 5 6 7 8 9 
10 11 12 13 14 15 16 17 18 
19 20 21 22 23 24 25 26 27 
28 29 30 31 32 33 34 35 36 
37 38 39 40 41 42 43 44 45 
46 47 48 49 50 51 52 53 54 
55 56 57 58 59 60 61 62 63 
64 65 66 67 68 69 70 71 72 
73 74 75 76 77 78 79 80 81 
82 83 84 85 86 87 88 89 90 
91 92 93 94 95 96 97 98 99 
100 
mol 1 100 int
1 1 1 1 1 1 1 1 1 
1 1 1 1 1 1 1 1 1 
1 1 1 1 1 1 1 1 1 
1 1 1 1 1 1 1 1 1 
1 1 1 1 1 1 1 1 1 
1 1 1 1 1 2 2 2 2 
2 2 2 2 2 2 2 2 2 
2 2 2 2 2 2 2 2 2 
2 2 2 2 2 2 2 2 2 
2 2 2 2 2 2 2 2 2 
2 2 2 2 2 2 2 2 2 
2 
type 1 100 int
1 1 1 1 1 1 1 1 1 
1 1 1 1 1 1 1 1 1 
1 1 1 1 1 1 1 1 1 
1 1 1 1 1 1 1 1 1 
1 1 1 1 1 1 1 1 1 
1 1 1 1 1 1 1 1 1 
1 1 1 1 1 1 1 1 1 
1 1 1 1 1 1 1 1 1 
1 1 1 1 1 1 1 1 1 
1 1 1 1 1 1 1 1 1 
1 1 1 1 1 1 1 1 1 
1 
v 3 100 double
-0.014081862009 -0.14371938321 -0.07967992478 -0.027897884315 -0.10137446768 -0.052069199572 -0.036112557484 -0.071075561417 -0.022712167256 
-0.0034808164128 -0.16777956332 -0.079563582544 0.0095384744163 -0.20599758427 -0.10132479344 -0.014833457392 -0.13322435458 -0.05748133383 
-0.029881283719 -0.086984409643 -0.027106576929 0.0040959748615 -0.19982985244 -0.11701053105 -0.046132274805 -0.039654848046 -0.00089141248699 
-0.033759340888 -0.084210466229 -0.042378779436 -0.00028569509448 -0.178673192 -0.088730326325 -0.017630040102 -0.12490786095 -0.052536239586 
-0.031670164651 -0.074634699774 -0.0061815263346 0.0066325382163 -0.20405517309 -0.11311275756 -0.035430005717 -0.061928045869 0.0043214924752 
-0.0092768144778 -0.15266626222 -0.074678387099 0.01745252715 -0.21536813353 -0.07953132884 -0.038311800969 -0.044170358252 0.032631168365 
-0.040486484482 -0.086130631831 -0.085880182035 -0.043140464438 -0.052066861766 -0.015062609951 -0.044327612936 -0.082602145886 -0.099033785335 
0.0079008759085 -0.20616809408 -0.11116420758 -0.008252740589 -0.18128559977 -0.14110444144 0.0196392739 -0.22823975793 -0.099489165932 
-0.0050052835305 -0.17916816386 -0.11709668881 -0.018207501684 -0.10803419969 -0.013220907125 0.0135625096 -0.19958871516 -0.062012562491 
0.026285128113 -0.23549753985 -0.079643839935 0.0030758934596 -0.18983002053 -0.097605656667 -0.0015135825502 -0.15054428944 -0.024714390632 
-0.0018505731913 -0.17425161803 -0.08654955761 0.010912600076 -0.22597107189 -0.1438950327 -0.054042149423 -0.048904469874 -0.069706671854 
0.0070878283609 -0.21224200255 -0.13118182531 -0.055964768439 -0.016917071612 6.666736676e-05 -0.0094194503038 -0.17841346238 -0.14055086223 
-0.010573553752 -0.14774851639 -0.069703432786 0.012668561074 -0.21586838678 -0.10828090844 -0.025657849501 -0.10329104672 -0.044041815291 
-0.045787011542 -0.053187386493 -0.033099114926 -0.033775269462 -0.095438909146 -0.070840124214 -0.0026798492659 -0.19052652793 -0.13243430564 
0.014867392828 -0.19991943909 -0.055351138741 -0.015048949387 -0.16356329445 -0.13537390248 -0.02858887611 -0.073281785269 0.014939884417 
-0.034482314263 -0.077547616128 -0.029698142323 -0.011098395647 -0.16071799081 -0.10548756828 -0.045112128254 -0.049654722289 -0.020296019531 
-0.00411046681 -0.16494412267 -0.076017118932 -0.0355153608 -0.052486605734 0.027685877084 -0.023647467766 -0.12777343661 -0.110087872 
-0.043530653326 -0.090367347415 -0.071807129719 -0.055589455618 -0.068549409935 -0.032641095985 -0.0030978391436 -0.16841077537 -0.11332401368 
0.011707067377 -0.19617696689 -0.14341062572 -0.019113290761 -0.13827045298 -0.082683971868 -0.04093041171 -0.097231330988 -0.040583127593 
0.011367435752 -0.19443189823 -0.16307702758 -0.069302508323 -0.042943049026 -0.0027141955504 -0.059208215381 -0.06003524469 -0.057018483158 
0.007974103616 -0.18967337845 -0.1266853699 -0.019467159105 -0.13791454201 -0.076311071226 -0.061066635478 -0.058849581835 -0.010993626237 
0.020225588736 -0.21221653623 -0.15955879769 -0.064741701589 -0.052309001658 0.0029396085931 -0.0045433129949 -0.16589550025 -0.10679189196 
0.023031036421 -0.22006402679 -0.11775419425 -0.06758895251 -0.048630681556 0.03925100441 -0.061852686943 -0.051818011703 -0.1114889095 
-0.058969118865 -0.062400622518 -0.022288413405 -0.061277252697 -0.052055110249 -0.12812854224 0.024654749047 -0.22110899775 -0.15780012283 
-0.0037208436028 -0.16294697592 -0.19096711969 0.021169340366 -0.21500508031 -0.14276491458 -0.0086363301374 -0.15487437626 -0.15992021006 
-0.04228918718 -0.095485700321 -0.023075343798 0.0072503777932 -0.19006462666 -0.093091968882 0.028064254063 -0.22999991444 -0.11886665681 
0.017288920118 -0.20748065205 -0.13941314486 -0.0099451407483 -0.15864272876 -0.042939469448 0.0095540956865 -0.19295033189 -0.12413292922 
0.023249714628 -0.21607269117 -0.19905670016 -0.073882126582 -0.029156961287 -0.088882814659 0.02170089293 -0.21388959894 -0.18265137921 
-0.080152306668 -0.021562766607 0.00038013650982 -0.0077807826749 -0.15495691292 -0.18961947816 -0.0043511247419 -0.16661976709 -0.10049875676 
0.024905058805 -0.22179670122 -0.15429930671 -0.028663304857 -0.12032150572 -0.063977421653 -0.075313302689 -0.028836926663 -0.04254415855 
-0.040725834456 -0.094629375056 -0.095847206513 0.0087246943641 -0.18815149498 -0.1820295769 0.014174806129 -0.20421662225 -0.085754154538 
-0.010983324686 -0.14898644734 -0.18245334094 -0.047867078286 -0.086405813838 0.013635468274 -0.042937520788 -0.093088966459 -0.043450011526 
-0.020430927886 -0.13235428244 -0.14329308521 -0.075223955284 -0.029894387514 -0.0263777473 0.0064252819189 -0.18749028622 -0.11028004896 
-0.067235226861 -0.04898629691 0.032877879581 
f 3 100 double
0 0 0 0 0 0 0 0 0 
0 0 0 0 0 0 0 0 0 
0 0 0 0 0 0 0 0 0 
0 0 0 0 0 0 0 0 0 
0 0 0 0 0 0 0 0 0 
0 0 0 0 0 0 0 0 0 
0 0 0 0 0 0 0 0 0 
0 0 0 0 0 0 0 0 0 
0 0 0 0 0 0 0 0 0 
0 0 0 0 0 0 0 0 0 
0 0 0 0 0 0 0 0 0 
0 0 0 0.082626323781 -0.0030968164719 0.16536867483 0 0 0 
0 0 0 0 0 0 0 0 0 
0 0 0 0 0 0 0 0 0 
0 0 0 0 0 0 0 0 0 
0 0 0 0 0 0 0 0 0 
0 0 0 0 0 0 0 0 0 
0 0 0 0 0 0 0 0 0 
0 0 0 0 0 0 0 0 0 
0 0 0 0 0 0 0 0 0 
0 0 0 0 0 0 0 0 0 
0 0 0 0 0 0 0 0 0 
0 0 0 0 0 0 0 0 0 
0 0 0 0 0 0 0 0 0 
0 0 0 0 0 0 0 0 0 
0 0 0 0 0 0 0 0 0 
0 0 0 0 0 0 0 0 0 
0 0 0 0 0 0 0 0 0 
0.076193865782 -0.0019195719381 0.15243608417 0 0 0 0 0 0 
0 0 0 0 0 0 0 0 0 
0 0 0 0 0 0 0 0 0 
0 0 0 0 0 0 0 0 0 
0 0 0 0 0 0 0 0 0 
0 0 0 
radius 1 100 double
0.010434 0.00981478 0.00892069 0.00845937 0.00731974 0.00728422 0.00643447 0.00619172 0.00585956 
0.00577566 0.00537241 0.00522549 0.00513666 0.00473175 0.00466912 0.00444866 0.00441894 0.00400812 
0.00385622 0.00379948 0.00370243 0.00366942 0.00364039 0.00363813 0.00363644 0.00358692 0.0035797 
0.00341284 0.00337012 0.00336273 0.00332772 0.00323261 0.00320584 0.00320311 0.00318808 0.00313116 
0.00306026 0.00305632 0.00304383 0.00300958 0.00300137 0.00298994 0.0029567 0.00295111 0.00290849 
0.00284552 0.00282964 0.0028207 0.00281971 0.00281899 0.010434 0.00981478 0.00892069 0.00845937 
0.00731974 0.00728422 0.00643447 0.00619172 0.00585956 0.00577566 0.00537241 0.00522549 0.00513666 
0.00473175 0.00466912 0.00444866 0.00441894 0.00400812 0.00385622 0.00379948 0.00370243 0.00366942 
0.00364039 0.00363813 0.00363644 0.00358692 0.0035797 0.00341284 0.00337012 0.00336273 0.00332772 
0.00323261 0.00320584 0.00320311 0.00318808 0.00313116 0.00306026 0.00305632 0.00304383 0.00300958 
0.00300137 0.00298994 0.0029567 0.00295111 0.00290849 0.00284552 0.00282964 0.0028207 0.00281971 
0.00281899 
omega 3 100 double
6.1434191723 2.7016532605 -1.0692824095 6.1434191723 2.7016532605 -1.0692824095 6.1434191723 2.7016532605 -1.0692824095 
6.1434191723 2.7016532605 -1.0692824095 6.1434191723 2.7016532605 -1.0692824095 6.1434191723 2.7016532605 -1.0692824095 
6.1434191723 2.7016532605 -1.0692824095 6.1434191723 2.7016532605 -1.0692824095 6.1434191723 2.7016532605 -1.0692824095 
6.1434191723 2.7016532605 -1.0692824095 6.1434191723 2.7016532605 -1.0692824095 6.1434191723 2.7016532605 -1.0692824095 
6.1434191723 2.7016532605 -1.0692824095 6.1434191723 2.7016532605 -1.0692824095 6.1434191723 2.7016532605 -1.0692824095 
6.1434191723 2.7016532605 -1.0692824095 6.1434191723 2.7016532605 -1.0692824095 6.1434191723 2.7016532605 -1.0692824095 
6.1434191723 2.7016532605 -1.0692824095 6.1434191723 2.7016532605 -1.0692824095 6.1434191723 2.7016532605 -1.0692824095 
6.1434191723 2.7016532605 -1.0692824095 6.1434191723 2.7016532605 -1.0692824095 6.1434191723 2.7016532605 -1.0692824095 
6.1434191723 2.7016532605 -1.0692824095 6.1434191723 2.7016532605 -1.0692824095 6.1434191723 2.7016532605 -1.0692824095 
6.1434191723 2.7016532605 -1.0692824095 6.1434191723 2.7016532605 -1.0692824095 6.1434191723 2.7016532605 -1.0692824095 
6.1434191723 2.7016532605 -1.0692824095 6.1434191723 2.7016532605 -1.0692824095 6.1434191723 2.7016532605 -1.0692824095 
6.1434191723 2.7016532605 -1.0692824095 6.1434191723 2.7016532605 -1.0692824095 6.1434191723 2.7016532605 -1.0692824095 
6.1434191723 2.7016532605 -1.0692824095 6.1434191723 2.7016532605 -1.0692824095 6.1434191723 2.7016532605 -1.0692824095 
6.1434191723 2.7016532605 -1.0692824095 6.1434191723 2.7016532605 -1.0692824095 6.1434191723 2.7016532605 -1.0692824095 
6.1434191723 2.7016532605 -1.0692824095 6.1434191723 2.7016532605 -1.0692824095 6.1434191723 2.7016532605 -1.0692824095 
6.1434191723 2.7016532605 -1.0692824095 6.1434191723 2.7016532605 -1.0692824095 6.1434191723 2.7016532605 -1.0692824095 
6.1434191723 2.7016532605 -1.0692824095 6.1434191723 2.7016532605 -1.0692824095 7.570251329 3.8116277262 0.2074835739 
7.570251329 3.8116277262 0.2074835739 7.570251329 3.8116277262 0.2074835739 7.570251329 3.8116277262 0.2074835739 
7.570251329 3.8116277262 0.2074835739 7.570251329 3.8116277262 0.2074835739 7.570251329 3.8116277262 0.2074835739 
7.570251329 3.8116277262 0.2074835739 7.570251329 3.8116277262 0.2074835739 7.570251329 3.8116277262 0.2074835739 
7.570251329 3.8116277262 0.2074835739 7.570251329 3.8116277262 0.2074835739 7.570251329 3.8116277262 0.2074835739 
7.570251329 3.8116277262 0.2074835739 7.570251329 3.8116277262 0.2074835739 7.570251329 3.8116277262 0.2074835739 
7.570251329 3.8116277262 0.2074835739 7.570251329 3.8116277262 0.2074835739 7.570251329 3.8116277262 0.2074835739 
7.570251329 3.8116277262 0.2074835739 7.570251329 3.8116277262 0.2074835739 7.570251329 3.8116277262 0.2074835739 
7.570251329 3.8116277262 0.2074835739 7.570251329 3.8116277262 0.2074835739 7.570251329 3.8116277262 0.2074835739 
7.570251329 3.8116277262 0.2074835739 7.570251329 3.8116277262 0.2074835739 7.570251329 3.8116277262 0.2074835739 
7.570251329 3.8116277262 0.2074835739 7.570251329 3.8116277262 0.2074835739 7.570251329 3.8116277262 0.2074835739 
7.570251329 3.8116277262 0.2074835739 7.570251329 3.8116277262 0.2074835739 7.570251329 3.8116277262 0.2074835739 
7.570251329 3.8116277262 0.2074835739 7.570251329 3.8116277262 0.2074835739 7.570251329 3.8116277262 0.2074835739 
7.570251329 3.8116277262 0.2074835739 7.570251329 3.8116277262 0.2074835739 7.570251329 3.8116277262 0.2074835739 
7.570251329 3.8116277262 0.2074835739 7.570251329 3.8116277262 0.2074835739 7.570251329 3.8116277262 0.2074835739 
7.570251329 3.8116277262 0.2074835739 7.570251329 3.8116277262 0.2074835739 7.570251329 3.8116277262 0.2074835739 
7.570251329 3.8116277262 0.2074835739 7.570251329 3.8116277262 0.2074835739 7.570251329 3.8116277262 0.2074835739 
7.570251329 3.8116277262 0.2074835739 
