# vtk DataFile Version 4.1
Generated by LIGGGHTS
ASCII
DATASET POLYDATA
POINTS 100 float
-0.117856 -0.144272 0.0136961 -0.127654 -0.14191 0.010912 -0.137475 -0.14003 0.0101703 
-0.125263 -0.148983 0.0196913 -0.111682 -0.148555 0.0210183 -0.133585 -0.147267 0.01749 
-0.144122 -0.144582 0.0144146 -0.117636 -0.153142 0.0209502 -0.146222 -0.13873 0.00858458 
-0.120492 -0.136266 0.00657141 -0.131575 -0.153794 0.0228006 -0.140745 -0.149183 0.0183974 
-0.125411 -0.132463 0.00813256 -0.126498 -0.156727 0.0243205 -0.131631 -0.132871 0.00832799 
-0.137257 -0.152628 0.0208575 -0.118594 -0.148927 0.0255263 -0.143153 -0.132659 0.0100491 
-0.116491 -0.141096 0.00368002 -0.150207 -0.143352 0.011045 -0.121192 -0.144914 0.00380687 
-0.130928 -0.158519 0.0260057 -0.113969 -0.153986 0.0157607 -0.104454 -0.146444 0.0226725 
-0.107812 -0.147567 0.0148255 -0.121653 -0.133882 0.012151 -0.109664 -0.141421 0.0212844 
-0.106936 -0.145024 0.0254953 -0.135044 -0.157324 0.0251647 -0.129375 -0.141582 0.0206723 
-0.137997 -0.156033 0.0239994 -0.111396 -0.155981 0.0221457 -0.133429 -0.143897 0.00319444 
-0.121621 -0.157764 0.0234106 -0.151772 -0.139655 0.00650973 -0.110701 -0.152288 0.0143999 
-0.142001 -0.153681 0.0216356 -0.121999 -0.154741 0.025197 -0.147368 -0.149527 0.0171664 
-0.125839 -0.135358 0.00349314 -0.138129 -0.148965 0.0120096 -0.123165 -0.157313 0.0202662 
-0.119263 -0.144683 0.0243634 -0.119853 -0.154652 0.014821 -0.145258 -0.13799 0.0145187 
-0.150209 -0.14708 0.0144783 -0.107497 -0.144579 0.0122994 -0.128814 -0.134549 0.00437005 
-0.1418 -0.155577 0.0240655 -0.135992 -0.130742 0.00914164 -0.0493381 -0.115312 0.0141199 
-0.0592211 -0.113527 0.0112083 -0.0691442 -0.112433 0.010278 -0.0564693 -0.121238 0.01932 
-0.043027 -0.119782 0.0212098 -0.0648423 -0.120025 0.0169804 -0.0754804 -0.117954 0.0137828 
-0.0485417 -0.124833 0.0204505 -0.0779215 -0.111734 0.0084921 -0.0524669 -0.106869 0.00773736 
-0.0624148 -0.126869 0.0216834 -0.0718261 -0.122635 0.0174121 -0.0577514 -0.103686 0.00947981 
-0.0571431 -0.129496 0.0230975 -0.0639129 -0.104646 0.0093916 -0.0681182 -0.126002 0.0196478 
-0.0500099 -0.121212 0.0253857 -0.0754534 -0.105604 0.0106765 -0.0479649 -0.111012 0.00453361 
-0.0815481 -0.116911 0.0103198 -0.0523065 -0.115213 0.0040941 -0.0614437 -0.131827 0.024421 
-0.04466 -0.124817 0.015349 -0.0360695 -0.117239 0.0233469 -0.039078 -0.11783 0.0153024 
-0.0540025 -0.105184 0.0134786 -0.0416646 -0.112566 0.0222684 -0.0387518 -0.116337 0.0261994 
-0.0656234 -0.13091 0.0235449 -0.0612548 -0.114359 0.0208781 -0.0686436 -0.129765 0.0224011 
-0.0421106 -0.127232 0.0215968 -0.0645621 -0.115196 0.00311182 -0.0521683 -0.13001 0.0222782 
-0.0833016 -0.112913 0.006121 -0.0415188 -0.122713 0.0142933 -0.0727696 -0.127534 0.0201315 
-0.0528688 -0.127231 0.0243429 -0.0783519 -0.123418 0.0158965 -0.0577796 -0.106112 0.00456029 
-0.0690501 -0.121533 0.0111848 -0.053652 -0.129371 0.0191374 -0.051021 -0.116943 0.0246294 
-0.0504307 -0.125886 0.0141193 -0.0772056 -0.11153 0.0145035 -0.0813185 -0.12096 0.0133591 
-0.0389569 -0.114581 0.0131029 -0.0608399 -0.105657 0.00539772 -0.0724726 -0.129647 0.0223649 
-0.0684696 -0.102995 0.0102447 
VERTICES 100 200
1 0 
1 1 
1 2 
1 3 
1 4 
1 5 
1 6 
1 7 
1 8 
1 9 
1 10 
1 11 
1 12 
1 13 
1 14 
1 15 
1 16 
1 17 
1 18 
1 19 
1 20 
1 21 
1 22 
1 23 
1 24 
1 25 
1 26 
1 27 
1 28 
1 29 
1 30 
1 31 
1 32 
1 33 
1 34 
1 35 
1 36 
1 37 
1 38 
1 39 
1 40 
1 41 
1 42 
1 43 
1 44 
1 45 
1 46 
1 47 
1 48 
1 49 
1 50 
1 51 
1 52 
1 53 
1 54 
1 55 
1 56 
1 57 
1 58 
1 59 
1 60 
1 61 
1 62 
1 63 
1 64 
1 65 
1 66 
1 67 
1 68 
1 69 
1 70 
1 71 
1 72 
1 73 
1 74 
1 75 
1 76 
1 77 
1 78 
1 79 
1 80 
1 81 
1 82 
1 83 
1 84 
1 85 
1 86 
1 87 
1 88 
1 89 
1 90 
1 91 
1 92 
1 93 
1 94 
1 95 
1 96 
1 97 
1 98 
1 99 

POINT_DATA 100
FIELD FieldData 7
id 1 100 int
1 2 3 4 5 6 7 8 9 
10 11 12 13 14 15 16 17 18 
19 20 21 22 23 24 25 26 27 
28 29 30 31 32 33 34 35 36 
37 38 39 40 41 42 43 44 45 
46 47 48 49 50 51 52 53 54 
55 56 57 58 59 60 61 62 63 
64 65 66 67 68 69 70 71 72 
73 74 75 76 77 78 79 80 81 
82 83 84 85 86 87 88 89 90 
91 92 93 94 95 96 97 98 99 
100 
mol 1 100 int
1 1 1 1 1 1 1 1 1 
1 1 1 1 1 1 1 1 1 
1 1 1 1 1 1 1 1 1 
1 1 1 1 1 1 1 1 1 
1 1 1 1 1 1 1 1 1 
1 1 1 1 1 2 2 2 2 
2 2 2 2 2 2 2 2 2 
2 2 2 2 2 2 2 2 2 
2 2 2 2 2 2 2 2 2 
2 2 2 2 2 2 2 2 2 
2 2 2 2 2 2 2 2 2 
2 
type 1 100 int
1 1 1 1 1 1 1 1 1 
1 1 1 1 1 1 1 1 1 
1 1 1 1 1 1 1 1 1 
1 1 1 1 1 1 1 1 1 
1 1 1 1 1 1 1 1 1 
1 1 1 1 1 1 1 1 1 
1 1 1 1 1 1 1 1 1 
1 1 1 1 1 1 1 1 1 
1 1 1 1 1 1 1 1 1 
1 1 1 1 1 1 1 1 1 
1 1 1 1 1 1 1 1 1 
1 
v 3 100 double
0.081387776198 -0.13426726705 -0.036108275553 0.070128611694 -0.095476695352 0.036423758697 0.068283578641 -0.078486701763 0.10391993821 
0.10597932604 -0.19148744057 -0.050689628013 0.11278030212 -0.21820098015 -0.11166866138 0.096937579494 -0.16028587864 0.0078219978763 
0.084569573047 -0.11770054713 0.087364030359 0.10821689899 -0.21197698446 -0.13194371863 0.061828658816 -0.053470139851 0.16003003703 
0.054385807593 -0.055709397184 0.062161986162 0.11654779704 -0.21888285174 -0.071622800505 0.099548499039 -0.16337197984 0.021905933506 
0.065431216307 -0.067849136876 0.12653361649 0.12117740353 -0.23980901326 -0.12747051999 0.06599833524 -0.064196229283 0.15220240575 
0.10824433168 -0.19287705131 -0.031737657959 0.13419692113 -0.25998648688 -0.082282533776 0.074502321931 -0.071950851828 0.21008816373 
0.035970463264 -0.028508964542 -0.0087586511889 0.069439560603 -0.076081004975 0.1298826672 0.033058762721 -0.02552541901 -0.026860722057 
0.12765761592 -0.25372507662 -0.12523463829 0.082387655169 -0.15991502636 -0.15866605506 0.12271363635 -0.24254731131 -0.12400804605 
0.083798452288 -0.1556053192 -0.11979606681 0.083519045401 -0.11425377533 0.093229163551 0.12064948834 -0.2229072435 -0.045188992265 
0.13765029879 -0.27041721499 -0.09685724614 0.1247017706 -0.24094004231 -0.092588063161 0.11754610177 -0.1981736346 0.048238121095 
0.1202673758 -0.22576338396 -0.064549258822 0.11136786315 -0.23051114478 -0.19239831147 0.03104047068 -0.0076864580199 0.043069755145 
0.11582783961 -0.23458798246 -0.16209133394 0.05096001951 -0.026178789356 0.17694429589 0.077386121661 -0.14839102996 -0.15629498425 
0.11102847367 -0.19681205416 -0.020088099158 0.12724157433 -0.25332582518 -0.12796266901 0.093289080003 -0.14410559899 0.050206918534 
0.040364204649 -0.017883668677 0.097670567123 0.068914747878 -0.097535350297 0.011605952399 0.10106602169 -0.19956627729 -0.14981579311 
0.1325012438 -0.24694488965 -0.033706692826 0.077236839025 -0.14444276512 -0.1373744874 0.091156731426 -0.11776321478 0.16328815367 
0.082571628402 -0.11276264515 0.090060307404 0.074362507216 -0.12890484434 -0.089387326528 0.045343920456 -0.024507300744 0.12067477996 
0.1210077735 -0.22295968941 -0.041315822978 0.071891180833 -0.068864288954 0.19600407788 0.10351121888 -0.12088243594 -0.10350177073 
0.0843503345 -0.090370634734 -0.019758164337 0.078668990052 -0.074935105596 0.05900760758 0.13543162321 -0.15454629848 -0.098086338307 
0.15006588959 -0.18025737799 -0.1823711005 0.11984831399 -0.12966587886 -0.029425293358 0.098898413048 -0.096338134496 0.061859646782 
0.14043213247 -0.16983149164 -0.18176028625 0.066583319397 -0.053937437233 0.12662356595 0.065316315608 -0.069577003036 -0.016908829439 
0.1474693905 -0.16757316314 -0.098843665784 0.12071846936 -0.12708796247 0.0002338189196 0.080356507803 -0.07842376408 0.044865971731 
0.15529604412 -0.18278848363 -0.15628542204 0.078924187018 -0.072572121387 0.081272494492 0.13375341254 -0.14725533247 -0.051759390541 
0.17849687297 -0.20623496052 -0.1437248443 0.08723584472 -0.072670692516 0.15585399848 0.039099544055 -0.048928162253 -0.080452745784 
0.075201531854 -0.064827887136 0.11287640465 0.032449711885 -0.041926994226 -0.08168113728 0.16272797715 -0.18926705539 -0.14354883635 
0.10424381112 -0.13418809436 -0.20918740336 0.16736850579 -0.20240398672 -0.21235234012 0.10978613034 -0.13852436371 -0.19550941904 
0.1074733222 -0.11207085279 0.0068388792676 0.16364285154 -0.18947615285 -0.13701325799 0.18836793969 -0.22190336465 -0.1864422892 
0.15728285155 -0.17907287505 -0.10688972258 0.15226992921 -0.16240639047 -0.011666890544 0.15012828845 -0.16781092764 -0.076726158978 
0.14654919457 -0.18397876884 -0.24569665802 0.025493776029 -0.02413448692 0.0054186744932 0.14905040756 -0.18072204014 -0.19550771165 
0.048766713882 -0.031332448136 0.15581111811 0.09852152439 -0.12877761834 -0.21542931919 0.13589810452 -0.14703434179 -0.030434372463 
0.16603709144 -0.19587893287 -0.16934501537 0.10930527672 -0.11004408768 0.04057155056 0.043407790775 -0.040881963835 0.026566809817 
0.077454527184 -0.081929926739 -0.011065075281 0.12729984166 -0.15552175641 -0.18010324024 0.17671790064 -0.1996174779 -0.10399799468 
0.094619261858 -0.11995967672 -0.1763902882 0.10941187662 -0.10038409293 0.12309297158 0.093365655288 -0.088199734764 0.080367786909 
0.096909270125 -0.12185205915 -0.17158886894 0.049732798611 -0.044696230761 0.05175330769 0.14997060349 -0.16431643444 -0.048654719408 
0.086365352739 -0.075248248054 0.12619487857 
f 3 100 double
0 0 0 0 0 0 0 0 0 
0 0 0 0 0 0 0 0 0 
0 0 0 0 0 0 0 0 0 
0 0 0 0 0 0 0 0 0 
0 0 0 0 0 0 0 0 0 
0 0 0 0 0 0 0 0 0 
-0.66869511442 -0.16496515773 1.3402393552 0 0 0 0 0 0 
0 0 0 0 0 0 0 0 0 
0 0 0 0 0 0 0 0 0 
0 0 0 0 0 0 0 0 0 
0 0 0 0 0 0 -0.14145182057 -0.24037911801 -0.27698597746 
0 0 0 0 0 0 0 0 0 
0 0 0 0 0 0 0 0 0 
0 0 0 0 0 0 0 0 0 
0 0 0 0 0 0 0 0 0 
0 0 0 0 0 0 0 0 0 
0 0 0 0 0 0 0 0 0 
0 0 0 0 0 0 0 0 0 
0 0 0 0 0 0 0 0 0 
0 0 0 0 0 0 0 0 0 
0 0 0 0 0 0 0 0 0 
0 0 0 0 0 0 0 0 0 
0 0 0 0 0 0 0 0 0 
0 0 0 0 0 0 0 0 0 
0 0 0 0 0 0 0 0 0 
0 0 0 0 0 0 0 0 0 
0 0 0 0 0 0 0 0 0 
0 0 0 0.092230279952 -0.021656340097 0.36845144221 0 0 0 
0 0 0 0 0 0 0 0 0 
0 0 0 0 0 0 0 0 0 
0 0 0 0 0 0 0 0 0 
0 0 0 0 0 0 0 0 0 
0 0 0 0 0 0 0 0 0 
0 0 0 
radius 1 100 double
0.010434 0.00981478 0.00892069 0.00845937 0.00731974 0.00728422 0.00643447 0.00619172 0.00585956 
0.00577566 0.00537241 0.00522549 0.00513666 0.00473175 0.00466912 0.00444866 0.00441894 0.00400812 
0.00385622 0.00379948 0.00370243 0.00366942 0.00364039 0.00363813 0.00363644 0.00358692 0.0035797 
0.00341284 0.00337012 0.00336273 0.00332772 0.00323261 0.00320584 0.00320311 0.00318808 0.00313116 
0.00306026 0.00305632 0.00304383 0.00300958 0.00300137 0.00298994 0.0029567 0.00295111 0.00290849 
0.00284552 0.00282964 0.0028207 0.00281971 0.00281899 0.010434 0.00981478 0.00892069 0.00845937 
0.00731974 0.00728422 0.00643447 0.00619172 0.00585956 0.00577566 0.00537241 0.00522549 0.00513666 
0.00473175 0.00466912 0.00444866 0.00441894 0.00400812 0.00385622 0.00379948 0.00370243 0.00366942 
0.00364039 0.00363813 0.00363644 0.00358692 0.0035797 0.00341284 0.00337012 0.00336273 0.00332772 
0.00323261 0.00320584 0.00320311 0.00318808 0.00313116 0.00306026 0.00305632 0.00304383 0.00300958 
0.00300137 0.00298994 0.0029567 0.00295111 0.00290849 0.00284552 0.00282964 0.0028207 0.00281971 
0.00281899 
omega 3 100 double
10.684629868 4.8271500718 -0.92301155356 10.684629868 4.8271500718 -0.92301155356 10.684629868 4.8271500718 -0.92301155356 
10.684629868 4.8271500718 -0.92301155356 10.684629868 4.8271500718 -0.92301155356 10.684629868 4.8271500718 -0.92301155356 
10.684629868 4.8271500718 -0.92301155356 10.684629868 4.8271500718 -0.92301155356 10.684629868 4.8271500718 -0.92301155356 
10.684629868 4.8271500718 -0.92301155356 10.684629868 4.8271500718 -0.92301155356 10.684629868 4.8271500718 -0.92301155356 
10.684629868 4.8271500718 -0.92301155356 10.684629868 4.8271500718 -0.92301155356 10.684629868 4.8271500718 -0.92301155356 
10.684629868 4.8271500718 -0.92301155356 10.684629868 4.8271500718 -0.92301155356 10.684629868 4.8271500718 -0.92301155356 
10.684629868 4.8271500718 -0.92301155356 10.684629868 4.8271500718 -0.92301155356 10.684629868 4.8271500718 -0.92301155356 
10.684629868 4.8271500718 -0.92301155356 10.684629868 4.8271500718 -0.92301155356 10.684629868 4.8271500718 -0.92301155356 
10.684629868 4.8271500718 -0.92301155356 10.684629868 4.8271500718 -0.92301155356 10.684629868 4.8271500718 -0.92301155356 
10.684629868 4.8271500718 -0.92301155356 10.684629868 4.8271500718 -0.92301155356 10.684629868 4.8271500718 -0.92301155356 
10.684629868 4.8271500718 -0.92301155356 10.684629868 4.8271500718 -0.92301155356 10.684629868 4.8271500718 -0.92301155356 
10.684629868 4.8271500718 -0.92301155356 10.684629868 4.8271500718 -0.92301155356 10.684629868 4.8271500718 -0.92301155356 
10.684629868 4.8271500718 -0.92301155356 10.684629868 4.8271500718 -0.92301155356 10.684629868 4.8271500718 -0.92301155356 
10.684629868 4.8271500718 -0.92301155356 10.684629868 4.8271500718 -0.92301155356 10.684629868 4.8271500718 -0.92301155356 
10.684629868 4.8271500718 -0.92301155356 10.684629868 4.8271500718 -0.92301155356 10.684629868 4.8271500718 -0.92301155356 
10.684629868 4.8271500718 -0.92301155356 10.684629868 4.8271500718 -0.92301155356 10.684629868 4.8271500718 -0.92301155356 
10.684629868 4.8271500718 -0.92301155356 10.684629868 4.8271500718 -0.92301155356 7.6263728829 7.0961865514 -0.84053442803 
7.6263728829 7.0961865514 -0.84053442803 7.6263728829 7.0961865514 -0.84053442803 7.6263728829 7.0961865514 -0.84053442803 
7.6263728829 7.0961865514 -0.84053442803 7.6263728829 7.0961865514 -0.84053442803 7.6263728829 7.0961865514 -0.84053442803 
7.6263728829 7.0961865514 -0.84053442803 7.6263728829 7.0961865514 -0.84053442803 7.6263728829 7.0961865514 -0.84053442803 
7.6263728829 7.0961865514 -0.84053442803 7.6263728829 7.0961865514 -0.84053442803 7.6263728829 7.0961865514 -0.84053442803 
7.6263728829 7.0961865514 -0.84053442803 7.6263728829 7.0961865514 -0.84053442803 7.6263728829 7.0961865514 -0.84053442803 
7.6263728829 7.0961865514 -0.84053442803 7.6263728829 7.0961865514 -0.84053442803 7.6263728829 7.0961865514 -0.84053442803 
7.6263728829 7.0961865514 -0.84053442803 7.6263728829 7.0961865514 -0.84053442803 7.6263728829 7.0961865514 -0.84053442803 
7.6263728829 7.0961865514 -0.84053442803 7.6263728829 7.0961865514 -0.84053442803 7.6263728829 7.0961865514 -0.84053442803 
7.6263728829 7.0961865514 -0.84053442803 7.6263728829 7.0961865514 -0.84053442803 7.6263728829 7.0961865514 -0.84053442803 
7.6263728829 7.0961865514 -0.84053442803 7.6263728829 7.0961865514 -0.84053442803 7.6263728829 7.0961865514 -0.84053442803 
7.6263728829 7.0961865514 -0.84053442803 7.6263728829 7.0961865514 -0.84053442803 7.6263728829 7.0961865514 -0.84053442803 
7.6263728829 7.0961865514 -0.84053442803 7.6263728829 7.0961865514 -0.84053442803 7.6263728829 7.0961865514 -0.84053442803 
7.6263728829 7.0961865514 -0.84053442803 7.6263728829 7.0961865514 -0.84053442803 7.6263728829 7.0961865514 -0.84053442803 
7.6263728829 7.0961865514 -0.84053442803 7.6263728829 7.0961865514 -0.84053442803 7.6263728829 7.0961865514 -0.84053442803 
7.6263728829 7.0961865514 -0.84053442803 7.6263728829 7.0961865514 -0.84053442803 7.6263728829 7.0961865514 -0.84053442803 
7.6263728829 7.0961865514 -0.84053442803 7.6263728829 7.0961865514 -0.84053442803 7.6263728829 7.0961865514 -0.84053442803 
7.6263728829 7.0961865514 -0.84053442803 
