# vtk DataFile Version 4.1
Generated by LIGGGHTS
ASCII
DATASET POLYDATA
POINTS 100 float
-0.117151 -0.133614 0.0185994 -0.12665 -0.134494 0.0143167 -0.136409 -0.134826 0.0120425 
-0.124786 -0.136055 0.0255821 -0.111659 -0.132834 0.0275043 -0.132845 -0.136976 0.0222284 
-0.143063 -0.137837 0.0174813 -0.117013 -0.137808 0.0292643 -0.14493 -0.135885 0.00939713 
-0.119593 -0.1305 0.00829608 -0.13092 -0.139773 0.0301857 -0.139813 -0.139374 0.0234397 
-0.125065 -0.127275 0.00743366 -0.125825 -0.140759 0.0333099 -0.131169 -0.128552 0.00735463 
-0.13636 -0.140616 0.0275166 -0.119063 -0.132148 0.0311042 -0.142773 -0.129436 0.00791453 
-0.114723 -0.135396 0.00844055 -0.148703 -0.139367 0.0135124 -0.118955 -0.139406 0.0100831 
-0.130232 -0.142234 0.0353327 -0.112574 -0.140401 0.0254348 -0.10501 -0.129041 0.028428 
-0.107075 -0.134285 0.02192 -0.121787 -0.125981 0.0118909 -0.11048 -0.126207 0.0243843 
-0.108008 -0.12688 0.030005 -0.134291 -0.142272 0.0337192 -0.129769 -0.12986 0.0225099 
-0.137169 -0.142191 0.0318615 -0.110737 -0.138676 0.0321443 -0.131018 -0.140819 0.00817034 
-0.120786 -0.14129 0.0333796 -0.149995 -0.138576 0.00764754 -0.109348 -0.139043 0.0236561 
-0.141025 -0.141933 0.0283664 -0.121739 -0.137889 0.0334221 -0.146117 -0.141338 0.022061 
-0.124513 -0.13205 0.00479164 -0.136352 -0.141789 0.0179728 -0.121906 -0.142644 0.0303157 
-0.120012 -0.129138 0.0279655 -0.118158 -0.142385 0.0245204 -0.144907 -0.132271 0.0142584 
-0.148792 -0.140962 0.0183218 -0.106728 -0.132848 0.0182836 -0.127652 -0.131421 0.00494226 
-0.140969 -0.142387 0.031421 -0.135806 -0.127038 0.00670321 -0.0482348 -0.105802 0.0166455 
-0.0576468 -0.106678 0.0121751 -0.06736 -0.107019 0.00971144 -0.0559954 -0.108311 0.0234633 
-0.0429165 -0.10507 0.0256594 -0.0639864 -0.10923 0.0199491 -0.074109 -0.110084 0.0150007 
-0.0482899 -0.110069 0.0272822 -0.0758253 -0.108081 0.00689566 -0.0504865 -0.102624 0.00631861 
-0.0622072 -0.112076 0.0279227 -0.0709697 -0.111654 0.0210098 -0.0559502 -0.0994076 0.00537319 
-0.0571705 -0.11307 0.0311374 -0.0620478 -0.1007 0.00516813 -0.0675922 -0.112915 0.0251438 
-0.0503897 -0.104427 0.0291209 -0.0736582 -0.101617 0.00549883 -0.0456074 -0.107508 0.00652325 
-0.0796673 -0.111601 0.0109138 -0.0498588 -0.111541 0.00805674 -0.0616107 -0.114571 0.0330651 
-0.0437709 -0.112624 0.0235211 -0.0362973 -0.101266 0.0267366 -0.0382225 -0.106471 0.0201544 
-0.0527616 -0.0981358 0.0099013 -0.0416961 -0.0984187 0.022608 -0.0393304 -0.0991234 0.0282705 
-0.0656377 -0.114608 0.0313735 -0.0609356 -0.102108 0.0203382 -0.0684798 -0.114522 0.0294615 
-0.0420684 -0.110941 0.0302763 -0.0618787 -0.112972 0.00590288 -0.0521318 -0.113589 0.0313003 
-0.0808483 -0.110774 0.00503071 -0.0405155 -0.111246 0.021814 -0.0722687 -0.11425 0.0258948 
-0.0530943 -0.110191 0.0313478 -0.0772405 -0.113625 0.0194968 -0.0553342 -0.104163 0.00270975 
-0.0673975 -0.114022 0.0155941 -0.0531888 -0.114925 0.0282063 -0.0512873 -0.101398 0.0259852 
-0.0493312 -0.114616 0.0224861 -0.0759059 -0.104501 0.011781 -0.0798445 -0.11323 0.0157096 
-0.0378091 -0.105007 0.0165354 -0.0584775 -0.103543 0.0028043 -0.0722707 -0.114725 0.0289467 
-0.066675 -0.0991928 0.00443806 
VERTICES 100 200
1 0 
1 1 
1 2 
1 3 
1 4 
1 5 
1 6 
1 7 
1 8 
1 9 
1 10 
1 11 
1 12 
1 13 
1 14 
1 15 
1 16 
1 17 
1 18 
1 19 
1 20 
1 21 
1 22 
1 23 
1 24 
1 25 
1 26 
1 27 
1 28 
1 29 
1 30 
1 31 
1 32 
1 33 
1 34 
1 35 
1 36 
1 37 
1 38 
1 39 
1 40 
1 41 
1 42 
1 43 
1 44 
1 45 
1 46 
1 47 
1 48 
1 49 
1 50 
1 51 
1 52 
1 53 
1 54 
1 55 
1 56 
1 57 
1 58 
1 59 
1 60 
1 61 
1 62 
1 63 
1 64 
1 65 
1 66 
1 67 
1 68 
1 69 
1 70 
1 71 
1 72 
1 73 
1 74 
1 75 
1 76 
1 77 
1 78 
1 79 
1 80 
1 81 
1 82 
1 83 
1 84 
1 85 
1 86 
1 87 
1 88 
1 89 
1 90 
1 91 
1 92 
1 93 
1 94 
1 95 
1 96 
1 97 
1 98 
1 99 

POINT_DATA 100
FIELD FieldData 7
id 1 100 int
1 2 3 4 5 6 7 8 9 
10 11 12 13 14 15 16 17 18 
19 20 21 22 23 24 25 26 27 
28 29 30 31 32 33 34 35 36 
37 38 39 40 41 42 43 44 45 
46 47 48 49 50 51 52 53 54 
55 56 57 58 59 60 61 62 63 
64 65 66 67 68 69 70 71 72 
73 74 75 76 77 78 79 80 81 
82 83 84 85 86 87 88 89 90 
91 92 93 94 95 96 97 98 99 
100 
mol 1 100 int
1 1 1 1 1 1 1 1 1 
1 1 1 1 1 1 1 1 1 
1 1 1 1 1 1 1 1 1 
1 1 1 1 1 1 1 1 1 
1 1 1 1 1 1 1 1 1 
1 1 1 1 1 2 2 2 2 
2 2 2 2 2 2 2 2 2 
2 2 2 2 2 2 2 2 2 
2 2 2 2 2 2 2 2 2 
2 2 2 2 2 2 2 2 2 
2 2 2 2 2 2 2 2 2 
2 
type 1 100 int
1 1 1 1 1 1 1 1 1 
1 1 1 1 1 1 1 1 1 
1 1 1 1 1 1 1 1 1 
1 1 1 1 1 1 1 1 1 
1 1 1 1 1 1 1 1 1 
1 1 1 1 1 1 1 1 1 
1 1 1 1 1 1 1 1 1 
1 1 1 1 1 1 1 1 1 
1 1 1 1 1 1 1 1 1 
1 1 1 1 1 1 1 1 1 
1 1 1 1 1 1 1 1 1 
1 
v 3 100 double
-0.13271136557 -0.064988858463 -0.3122485772 -0.10187595875 -0.062398954098 -0.38117028625 -0.085561240364 -0.063110140775 -0.45107810013 
-0.18127165793 -0.079442325366 -0.37039575808 -0.19636173363 -0.076682665591 -0.27196609582 -0.15702236262 -0.077689066349 -0.42915088095 
-0.122893909 -0.07468087652 -0.50315644884 -0.20667280188 -0.081843233466 -0.31791715192 -0.066286994394 -0.062684560212 -0.51333079211 
-0.060841996334 -0.049727058653 -0.32466782974 -0.21235391524 -0.08945853064 -0.41990348045 -0.16457236751 -0.082693413103 -0.48248929716 
-0.056138005115 -0.050780690146 -0.35845782476 -0.23412787327 -0.092159399906 -0.385246158 -0.055011118356 -0.053356098093 -0.40387491319 
-0.1930062559 -0.087631966163 -0.45991049181 -0.22225727858 -0.085668421421 -0.32351038907 -0.058600419981 -0.059378809069 -0.48777232233 
-0.059702981624 -0.047801543694 -0.29781454096 -0.094002193297 -0.070881341917 -0.54567635983 -0.069605199597 -0.05227913406 -0.33425813379 
-0.24785549545 -0.097317453118 -0.41890986889 -0.17830126434 -0.07380491963 -0.29047030488 -0.20460633096 -0.075205918511 -0.2186865159 
-0.15602027252 -0.065797130133 -0.24168176902 -0.088397045843 -0.056399685968 -0.33309971764 -0.17711387063 -0.071212569877 -0.25307676736 
-0.21677435792 -0.079033639663 -0.23656702256 -0.23636768843 -0.096554102638 -0.44782460984 -0.16217187956 -0.076774437732 -0.3959971418 
-0.22319689251 -0.094881149619 -0.46815809189 -0.2267634015 -0.083634454016 -0.27467915318 -0.055382196853 -0.054582812741 -0.42225369814 
-0.2343881161 -0.090040029819 -0.35026254162 -0.052658178964 -0.062150601238 -0.55360567651 -0.16625701544 -0.069556517783 -0.26538725947 
-0.19846453026 -0.091043818265 -0.49516116836 -0.23619523768 -0.090528995192 -0.35164068999 -0.1539018261 -0.083295898922 -0.53041861638 
-0.035242885969 -0.046345746625 -0.36210445396 -0.12463926364 -0.072490720932 -0.46171204453 -0.21200734283 -0.085675774207 -0.36037033477 
-0.2012762647 -0.08111049703 -0.32548904967 -0.1709233407 -0.074825634146 -0.33331639112 -0.10244474461 -0.070384992643 -0.50743870805 
-0.12748647495 -0.078548965028 -0.54884043395 -0.13080555255 -0.059875813499 -0.23693165552 -0.036592128943 -0.047973696748 -0.38342335027 
-0.21997862983 -0.095864106443 -0.49548686889 -0.051050225358 -0.054374434429 -0.43443413822 -0.13045050125 -0.054869719371 -0.24666187091 
-0.094119845761 -0.043173598546 -0.32544420035 -0.074264766514 -0.042075803352 -0.40387652786 -0.18131659581 -0.098838789649 -0.32074325839 
-0.20248613499 -0.094593895517 -0.20093225248 -0.15248452554 -0.090343788442 -0.388524298 -0.11240452813 -0.077047203069 -0.47280812193 
-0.20939118945 -0.10922582718 -0.26887714438 -0.050777150256 -0.037706270913 -0.47613810659 -0.052668907879 -0.0048207081528 -0.24822028806 
-0.21207686322 -0.12893964424 -0.38900636693 -0.15799493374 -0.10400932516 -0.45603605278 -0.04900512796 -0.0064510532911 -0.27494090925 
-0.23628473338 -0.13939680161 -0.35431188225 -0.045859309897 -0.01260928715 -0.32968008641 -0.18914556248 -0.12111895843 -0.435803734 
-0.23057587198 -0.12109218767 -0.25665841316 -0.047386249607 -0.028016022342 -0.42603415824 -0.048514139392 -0.00010013888047 -0.23462412048 
-0.078343774709 -0.062755023321 -0.52443792536 -0.055856663408 -0.012950687007 -0.28877581839 -0.24973161909 -0.15448223045 -0.39702836975 
-0.17667650955 -0.084689166022 -0.24623723803 -0.21548479629 -0.092270664069 -0.12925779602 -0.15736591066 -0.06094947565 -0.17102121851 
-0.086259861923 -0.025795472109 -0.24327385204 -0.18625200884 -0.077576987703 -0.15734938603 -0.23012781384 -0.10368358825 -0.14226715774 
-0.23633216933 -0.15060676065 -0.4290135101 -0.16397122665 -0.08872499783 -0.32808822694 -0.22133649458 -0.14420560203 -0.4510168497 
-0.23200242072 -0.11715711761 -0.2242014566 -0.037160239366 -0.01615972616 -0.39098198325 -0.2369579452 -0.13427463563 -0.3171767705 
-0.032871132007 -0.034122472411 -0.52953925191 -0.16482628648 -0.072129612818 -0.21350190914 -0.19349729172 -0.13047765211 -0.47954169592 
-0.24134735481 -0.13565386485 -0.30743205092 -0.14372009315 -0.10369625447 -0.51560707369 -0.022356932504 0.0078712347604 -0.29434951116 
-0.11243672573 -0.072145872701 -0.43991765307 -0.21095019547 -0.11973117596 -0.33234094 -0.20939662472 -0.1061476757 -0.24828502073 
-0.166150502 -0.085976346982 -0.30030754009 -0.09357976276 -0.062736682445 -0.45850049834 -0.11428466529 -0.087442615729 -0.53415011916 
-0.13052035547 -0.041988915857 -0.16028876503 -0.023836221617 0.0036746464538 -0.31600162711 -0.2170323877 -0.14605716226 -0.48198168083 
-0.04187559136 -0.014350386101 -0.35852281858 
f 3 100 double
0 0 0 0 0 0 0 0 0 
0 0 0 0 0 0 0 0 0 
0 0 0 0 0 0 0 0 0 
0 0 0 0 0 0 0 0 0 
0 0 0 0 0 0 0 0 0 
0 0 0 0 0 0 0 0 0 
0 0 0 0 0 0 0 0 0 
0 0 0 0 0 0 0 0 0 
0 0 0 0 0 0 0 0 0 
0 0 0 0 0 0 0 0 0 
0 0 0 0 0 0 0 0 0 
0 0 0 0 0 0 0 0 0 
0 0 0 0 0 0 0 0 0 
0 0 0 0 0 0 0 0 0 
0 0 0 0 0 0 0 0 0 
0 0 0 0 0 0 0 0 0 
0 0 0 0 0 0 0 0 0 
0 0 0 0 0 0 0 0 0 
0 0 0 0 0 0 0 0 0 
0 0 0 0 0 0 0 0 0 
0 0 0 0 0 0 0 0 0 
0 0 0 0 0 0 0 0 0 
0 0 0 0 0 0 0 0 0 
0 0 0 0 0 0 0 0 0 
0 0 0 0 0 0 0 0 0 
0 0 0 0 0 0 0 0 0 
0 0 0 0 0 0 0 0 0 
0 0 0 0 0 0 0 0 0 
0 0 0 0 0 0 0 0 0 
0 0 0 0 0 0 0.052172387728 -0.2097719245 6.8989880565 
0 0 0 0 0 0 0 0 0 
0 0 0 0 0 0 0 0 0 
0 0 0 0.010684061553 -0.10979158825 2.3371233375 0 0 0 
0 0 0 
radius 1 100 double
0.010434 0.00981478 0.00892069 0.00845937 0.00731974 0.00728422 0.00643447 0.00619172 0.00585956 
0.00577566 0.00537241 0.00522549 0.00513666 0.00473175 0.00466912 0.00444866 0.00441894 0.00400812 
0.00385622 0.00379948 0.00370243 0.00366942 0.00364039 0.00363813 0.00363644 0.00358692 0.0035797 
0.00341284 0.00337012 0.00336273 0.00332772 0.00323261 0.00320584 0.00320311 0.00318808 0.00313116 
0.00306026 0.00305632 0.00304383 0.00300958 0.00300137 0.00298994 0.0029567 0.00295111 0.00290849 
0.00284552 0.00282964 0.0028207 0.00281971 0.00281899 0.010434 0.00981478 0.00892069 0.00845937 
0.00731974 0.00728422 0.00643447 0.00619172 0.00585956 0.00577566 0.00537241 0.00522549 0.00513666 
0.00473175 0.00466912 0.00444866 0.00441894 0.00400812 0.00385622 0.00379948 0.00370243 0.00366942 
0.00364039 0.00363813 0.00363644 0.00358692 0.0035797 0.00341284 0.00337012 0.00336273 0.00332772 
0.00323261 0.00320584 0.00320311 0.00318808 0.00313116 0.00306026 0.00305632 0.00304383 0.00300958 
0.00300137 0.00298994 0.0029567 0.00295111 0.00290849 0.00284552 0.00282964 0.0028207 0.00281971 
0.00281899 
omega 3 100 double
1.5861045565 -7.1090618755 0.44247870942 1.5861045565 -7.1090618755 0.44247870942 1.5861045565 -7.1090618755 0.44247870942 
1.5861045565 -7.1090618755 0.44247870942 1.5861045565 -7.1090618755 0.44247870942 1.5861045565 -7.1090618755 0.44247870942 
1.5861045565 -7.1090618755 0.44247870942 1.5861045565 -7.1090618755 0.44247870942 1.5861045565 -7.1090618755 0.44247870942 
1.5861045565 -7.1090618755 0.44247870942 1.5861045565 -7.1090618755 0.44247870942 1.5861045565 -7.1090618755 0.44247870942 
1.5861045565 -7.1090618755 0.44247870942 1.5861045565 -7.1090618755 0.44247870942 1.5861045565 -7.1090618755 0.44247870942 
1.5861045565 -7.1090618755 0.44247870942 1.5861045565 -7.1090618755 0.44247870942 1.5861045565 -7.1090618755 0.44247870942 
1.5861045565 -7.1090618755 0.44247870942 1.5861045565 -7.1090618755 0.44247870942 1.5861045565 -7.1090618755 0.44247870942 
1.5861045565 -7.1090618755 0.44247870942 1.5861045565 -7.1090618755 0.44247870942 1.5861045565 -7.1090618755 0.44247870942 
1.5861045565 -7.1090618755 0.44247870942 1.5861045565 -7.1090618755 0.44247870942 1.5861045565 -7.1090618755 0.44247870942 
1.5861045565 -7.1090618755 0.44247870942 1.5861045565 -7.1090618755 0.44247870942 1.5861045565 -7.1090618755 0.44247870942 
1.5861045565 -7.1090618755 0.44247870942 1.5861045565 -7.1090618755 0.44247870942 1.5861045565 -7.1090618755 0.44247870942 
1.5861045565 -7.1090618755 0.44247870942 1.5861045565 -7.1090618755 0.44247870942 1.5861045565 -7.1090618755 0.44247870942 
1.5861045565 -7.1090618755 0.44247870942 1.5861045565 -7.1090618755 0.44247870942 1.5861045565 -7.1090618755 0.44247870942 
1.5861045565 -7.1090618755 0.44247870942 1.5861045565 -7.1090618755 0.44247870942 1.5861045565 -7.1090618755 0.44247870942 
1.5861045565 -7.1090618755 0.44247870942 1.5861045565 -7.1090618755 0.44247870942 1.5861045565 -7.1090618755 0.44247870942 
1.5861045565 -7.1090618755 0.44247870942 1.5861045565 -7.1090618755 0.44247870942 1.5861045565 -7.1090618755 0.44247870942 
1.5861045565 -7.1090618755 0.44247870942 1.5861045565 -7.1090618755 0.44247870942 5.104120682 -7.8955650992 1.1815919551 
5.104120682 -7.8955650992 1.1815919551 5.104120682 -7.8955650992 1.1815919551 5.104120682 -7.8955650992 1.1815919551 
5.104120682 -7.8955650992 1.1815919551 5.104120682 -7.8955650992 1.1815919551 5.104120682 -7.8955650992 1.1815919551 
5.104120682 -7.8955650992 1.1815919551 5.104120682 -7.8955650992 1.1815919551 5.104120682 -7.8955650992 1.1815919551 
5.104120682 -7.8955650992 1.1815919551 5.104120682 -7.8955650992 1.1815919551 5.104120682 -7.8955650992 1.1815919551 
5.104120682 -7.8955650992 1.1815919551 5.104120682 -7.8955650992 1.1815919551 5.104120682 -7.8955650992 1.1815919551 
5.104120682 -7.8955650992 1.1815919551 5.104120682 -7.8955650992 1.1815919551 5.104120682 -7.8955650992 1.1815919551 
5.104120682 -7.8955650992 1.1815919551 5.104120682 -7.8955650992 1.1815919551 5.104120682 -7.8955650992 1.1815919551 
5.104120682 -7.8955650992 1.1815919551 5.104120682 -7.8955650992 1.1815919551 5.104120682 -7.8955650992 1.1815919551 
5.104120682 -7.8955650992 1.1815919551 5.104120682 -7.8955650992 1.1815919551 5.104120682 -7.8955650992 1.1815919551 
5.104120682 -7.8955650992 1.1815919551 5.104120682 -7.8955650992 1.1815919551 5.104120682 -7.8955650992 1.1815919551 
5.104120682 -7.8955650992 1.1815919551 5.104120682 -7.8955650992 1.1815919551 5.104120682 -7.8955650992 1.1815919551 
5.104120682 -7.8955650992 1.1815919551 5.104120682 -7.8955650992 1.1815919551 5.104120682 -7.8955650992 1.1815919551 
5.104120682 -7.8955650992 1.1815919551 5.104120682 -7.8955650992 1.1815919551 5.104120682 -7.8955650992 1.1815919551 
5.104120682 -7.8955650992 1.1815919551 5.104120682 -7.8955650992 1.1815919551 5.104120682 -7.8955650992 1.1815919551 
5.104120682 -7.8955650992 1.1815919551 5.104120682 -7.8955650992 1.1815919551 5.104120682 -7.8955650992 1.1815919551 
5.104120682 -7.8955650992 1.1815919551 5.104120682 -7.8955650992 1.1815919551 5.104120682 -7.8955650992 1.1815919551 
5.104120682 -7.8955650992 1.1815919551 
