# vtk DataFile Version 4.1
Generated by LIGGGHTS
ASCII
DATASET POLYDATA
POINTS 100 float
-0.114593 -0.132332 0.0228922 -0.124607 -0.133252 0.0200259 -0.134592 -0.133553 0.0191649 
-0.121177 -0.13446 0.0309621 -0.107891 -0.131318 0.0309006 -0.129635 -0.135404 0.0288132 
-0.140427 -0.136311 0.0255883 -0.112972 -0.136174 0.0335678 -0.143407 -0.134607 0.0177867 
-0.118449 -0.129535 0.0129364 -0.126621 -0.137958 0.03651 -0.136376 -0.137686 0.0310773 
-0.123969 -0.126281 0.0127454 -0.121141 -0.138894 0.0389155 -0.13003 -0.127495 0.0135726 
-0.132388 -0.13883 0.0346659 -0.114707 -0.130434 0.035484 -0.141443 -0.128235 0.0157949 
-0.113637 -0.134475 0.0125592 -0.146581 -0.137911 0.02251 -0.117617 -0.138383 0.0149188 
-0.125226 -0.140255 0.0415893 -0.109135 -0.138939 0.0292408 -0.101157 -0.127569 0.0307462 
-0.104152 -0.133002 0.024778 -0.120085 -0.124876 0.0166483 -0.107126 -0.124811 0.0274208 
-0.103888 -0.125325 0.0326558 -0.129472 -0.140302 0.0405671 -0.126508 -0.128317 0.0284141 
-0.132584 -0.140252 0.0391327 -0.106357 -0.137013 0.035561 -0.129838 -0.139729 0.0147776 
-0.116146 -0.139477 0.0382911 -0.148684 -0.1373 0.0168627 -0.106185 -0.137676 0.0269792 
-0.136894 -0.140068 0.0362103 -0.117063 -0.136067 0.0383514 -0.142823 -0.139627 0.0306702 
-0.123824 -0.131147 0.0102167 -0.133737 -0.140317 0.0252622 -0.117696 -0.14092 0.0354641 
-0.116073 -0.12752 0.0324099 -0.114804 -0.140892 0.0291924 -0.142675 -0.130836 0.0224697 
-0.145998 -0.139346 0.0273355 -0.104314 -0.13169 0.021082 -0.126907 -0.130479 0.0107874 
-0.136409 -0.140422 0.0392401 -0.134703 -0.125953 0.0135308 -0.0456997 -0.104534 0.0218641 
-0.0556482 -0.105454 0.0187789 -0.0656119 -0.105769 0.0177029 -0.0524506 -0.106726 0.0297778 
-0.0391728 -0.103559 0.03002 -0.060859 -0.107672 0.0274428 -0.0715776 -0.108579 0.0239825 
-0.0442995 -0.108441 0.0325471 -0.0743936 -0.10683 0.0161301 -0.0493479 -0.10168 0.0118462 
-0.0580044 -0.110269 0.0351858 -0.0676417 -0.109981 0.0295479 -0.0548693 -0.0984354 0.0115582 
-0.0525754 -0.111211 0.0377017 -0.0609442 -0.0996654 0.012248 -0.0637293 -0.11114 0.0332135 
-0.0460866 -0.102717 0.0344625 -0.0724009 -0.100441 0.0142214 -0.0445193 -0.106608 0.0115404 
-0.0776607 -0.11017 0.0207634 -0.0485413 -0.110539 0.0137895 -0.0567133 -0.112596 0.040279 
-0.0403651 -0.111171 0.0282855 -0.0324439 -0.0997956 0.0300334 -0.0353007 -0.105196 0.0239681 
-0.0510729 -0.0970481 0.015552 -0.0383469 -0.0970279 0.0265989 -0.0352198 -0.0975685 0.0318986 
-0.0609368 -0.112645 0.0391661 -0.0577382 -0.100576 0.0271559 -0.064017 -0.112592 0.0376659 
-0.0377272 -0.10928 0.0346757 -0.060753 -0.111907 0.0133788 -0.0475666 -0.11178 0.0371805 
-0.0796446 -0.109527 0.0150765 -0.0373706 -0.109887 0.0260955 -0.0682641 -0.112397 0.0346533 
-0.0484913 -0.108372 0.0372429 -0.0740747 -0.111932 0.0289909 -0.054661 -0.103284 0.00900218 
-0.0648742 -0.11257 0.0237738 -0.0490529 -0.113207 0.0343118 -0.0473929 -0.0997849 0.0313785 
-0.0460281 -0.113134 0.0281036 -0.0737698 -0.103087 0.0208516 -0.0771784 -0.111635 0.0255911 
-0.0353862 -0.10386 0.020278 -0.0577563 -0.102626 0.00951117 -0.0678438 -0.112769 0.0376905 
-0.0656182 -0.0981321 0.0121164 
VERTICES 100 200
1 0 
1 1 
1 2 
1 3 
1 4 
1 5 
1 6 
1 7 
1 8 
1 9 
1 10 
1 11 
1 12 
1 13 
1 14 
1 15 
1 16 
1 17 
1 18 
1 19 
1 20 
1 21 
1 22 
1 23 
1 24 
1 25 
1 26 
1 27 
1 28 
1 29 
1 30 
1 31 
1 32 
1 33 
1 34 
1 35 
1 36 
1 37 
1 38 
1 39 
1 40 
1 41 
1 42 
1 43 
1 44 
1 45 
1 46 
1 47 
1 48 
1 49 
1 50 
1 51 
1 52 
1 53 
1 54 
1 55 
1 56 
1 57 
1 58 
1 59 
1 60 
1 61 
1 62 
1 63 
1 64 
1 65 
1 66 
1 67 
1 68 
1 69 
1 70 
1 71 
1 72 
1 73 
1 74 
1 75 
1 76 
1 77 
1 78 
1 79 
1 80 
1 81 
1 82 
1 83 
1 84 
1 85 
1 86 
1 87 
1 88 
1 89 
1 90 
1 91 
1 92 
1 93 
1 94 
1 95 
1 96 
1 97 
1 98 
1 99 

POINT_DATA 100
FIELD FieldData 7
id 1 100 int
1 2 3 4 5 6 7 8 9 
10 11 12 13 14 15 16 17 18 
19 20 21 22 23 24 25 26 27 
28 29 30 31 32 33 34 35 36 
37 38 39 40 41 42 43 44 45 
46 47 48 49 50 51 52 53 54 
55 56 57 58 59 60 61 62 63 
64 65 66 67 68 69 70 71 72 
73 74 75 76 77 78 79 80 81 
82 83 84 85 86 87 88 89 90 
91 92 93 94 95 96 97 98 99 
100 
mol 1 100 int
1 1 1 1 1 1 1 1 1 
1 1 1 1 1 1 1 1 1 
1 1 1 1 1 1 1 1 1 
1 1 1 1 1 1 1 1 1 
1 1 1 1 1 1 1 1 1 
1 1 1 1 1 2 2 2 2 
2 2 2 2 2 2 2 2 2 
2 2 2 2 2 2 2 2 2 
2 2 2 2 2 2 2 2 2 
2 2 2 2 2 2 2 2 2 
2 2 2 2 2 2 2 2 2 
2 
type 1 100 int
1 1 1 1 1 1 1 1 1 
1 1 1 1 1 1 1 1 1 
1 1 1 1 1 1 1 1 1 
1 1 1 1 1 1 1 1 1 
1 1 1 1 1 1 1 1 1 
1 1 1 1 1 1 1 1 1 
1 1 1 1 1 1 1 1 1 
1 1 1 1 1 1 1 1 1 
1 1 1 1 1 1 1 1 1 
1 1 1 1 1 1 1 1 1 
1 1 1 1 1 1 1 1 1 
1 
v 3 100 double
-0.12318129651 -0.063130622446 -0.1172709065 -0.10255499048 -0.061865433486 -0.18973946707 -0.096348986148 -0.064162462594 -0.26090341834 
-0.1794455806 -0.080037862902 -0.16763624918 -0.18021595727 -0.074830259867 -0.068063370605 -0.16388338787 -0.079453967388 -0.22914529308 
-0.1407251185 -0.077848186003 -0.30709417953 -0.19721876916 -0.08153283205 -0.11265353984 -0.086196250063 -0.065089048024 -0.32513409538 
-0.053834886774 -0.046868856366 -0.13955871301 -0.21734524093 -0.092013126735 -0.21237436531 -0.17902233464 -0.086075074686 -0.28088974193 
-0.053732697678 -0.048646784914 -0.17280701587 -0.23400039607 -0.094197064396 -0.17528412445 -0.059117722727 -0.052446455903 -0.21784025775 
-0.20396721187 -0.090940031537 -0.2547221959 -0.21297511785 -0.085613277189 -0.1146970157 -0.074553223991 -0.060786269267 -0.2998895175 
-0.049271689357 -0.044350469657 -0.1143275777 -0.11833801318 -0.074723863829 -0.35346944195 -0.064461970859 -0.05008268089 -0.149448017 
-0.25239118304 -0.10052913098 -0.20659862562 -0.16555187713 -0.072349668846 -0.090438454127 -0.18056284819 -0.071970970108 -0.013745205489 
-0.13626319264 -0.062485070262 -0.044617388995 -0.081877910259 -0.054111586663 -0.14283412913 -0.15809925697 -0.06833568874 -0.05105682908 
-0.19493130898 -0.076421937188 -0.02906424577 -0.24514285626 -0.10033702788 -0.23671941484 -0.16378061739 -0.077542898616 -0.1943945816 
-0.23501608877 -0.098974814788 -0.25863856232 -0.21099520051 -0.082546622297 -0.067362282128 -0.062946677175 -0.054520064308 -0.23828239951 
-0.22936062094 -0.091167659782 -0.14098869451 -0.078627106711 -0.065467449731 -0.3672612791 -0.15003982641 -0.067187752013 -0.067324955002 
-0.21441543553 -0.095420782191 -0.28879622831 -0.23109574234 -0.091626855109 -0.14139526732 -0.17539858826 -0.087823557069 -0.32994970725 
-0.03397939628 -0.044085073807 -0.18045429458 -0.13688155686 -0.074700091976 -0.26691317471 -0.20881062013 -0.086724539461 -0.15452198667 
-0.19234920363 -0.080659366081 -0.11916711467 -0.1644597612 -0.074438696897 -0.13401877769 -0.12076719042 -0.073153381428 -0.3132383655 
-0.15191949432 -0.083099414479 -0.35190573149 -0.11062462016 -0.055960970757 -0.043422456888 -0.038272183225 -0.046284857556 -0.20106822512 
-0.23571066136 -0.10063416422 -0.28600077769 -0.0594141263 -0.054165138372 -0.24814533459 -0.12218163287 -0.062749855631 -0.16551586927 
-0.10037623129 -0.061361974052 -0.2362432878 -0.092774113558 -0.063471448793 -0.30602548852 -0.17629673749 -0.079196749557 -0.21623432933 
-0.17924458986 -0.074315140287 -0.11846788019 -0.15969352409 -0.078497347368 -0.27630628104 -0.13528710615 -0.076765277633 -0.35236199153 
-0.19485499939 -0.080753567108 -0.16257490125 -0.081421224587 -0.064245531763 -0.36889165682 -0.053710686452 -0.046799845367 -0.18590632728 
-0.21246011897 -0.090811562743 -0.26098344022 -0.17339878578 -0.08486377781 -0.32744997477 -0.053004979306 -0.048504406789 -0.21863632796 
-0.22956632994 -0.093015115056 -0.22489517934 -0.057306871534 -0.052128952052 -0.26298574871 -0.19840736975 -0.08967075049 -0.30227761976 
-0.21044986632 -0.084795278196 -0.16504661384 -0.070709687684 -0.060133212271 -0.34394369487 -0.04961742448 -0.044340126718 -0.16091716653 
-0.11228310703 -0.073601091091 -0.3973968128 -0.063675772126 -0.049854342867 -0.19569600447 -0.24692198589 -0.099145841985 -0.2560545404 
-0.16415204332 -0.071777395288 -0.13997960267 -0.18084045073 -0.071651226017 -0.065171995281 -0.1365372608 -0.062252897532 -0.094406586509 
-0.08131069342 -0.053927879273 -0.18984508022 -0.15808043301 -0.068040837835 -0.10138131516 -0.19469016104 -0.076000653789 -0.080591269308 
-0.23916928221 -0.098898763064 -0.28548783571 -0.16053344782 -0.076752479508 -0.24229096257 -0.22876633287 -0.097522169347 -0.30679891239 
-0.20931067392 -0.081827566848 -0.1183650296 -0.060275726649 -0.054017430812 -0.28292767737 -0.22571697291 -0.090109138487 -0.19107987064 
-0.073022708283 -0.064511704096 -0.41006551073 -0.14944693664 -0.06677622333 -0.1169418383 -0.20791054635 -0.093983565328 -0.33597185538 
-0.22751210015 -0.090586944473 -0.19158300516 -0.16874974111 -0.086464987399 -0.37553934723 -0.033307345332 -0.043979793251 -0.22561348088 
-0.13224299255 -0.073725595689 -0.31271654249 -0.20521361085 -0.085718133329 -0.20388758497 -0.19019103797 -0.079958235403 -0.16902927734 
-0.16210367292 -0.073722745661 -0.18274134737 -0.11572403086 -0.072200405028 -0.35805316247 -0.14524370893 -0.081796868583 -0.39659007158 
-0.11142945707 -0.055875162436 -0.092679333204 -0.037106962728 -0.046100341385 -0.24597872823 -0.22886641795 -0.099093134383 -0.33369828126 
-0.057004270764 -0.053766757782 -0.29280025814 
f 3 100 double
0 0 0 0 0 0 0 0 0 
0 0 0 0 0 0 0 0 0 
0 0 0 0 0 0 0 0 0 
0 0 0 0 0 0 0 0 0 
0 0 0 0 0 0 0 0 0 
0 0 0 0 0 0 0 0 0 
0 0 0 0 0 0 0 0 0 
0 0 0 0 0 0 0 0 0 
0 0 0 0 0 0 0 0 0 
0 0 0 0 0 0 0 0 0 
0 0 0 0 0 0 0 0 0 
0 0 0 0 0 0 0 0 0 
0 0 0 0 0 0 0 0 0 
0 0 0 0 0 0 0 0 0 
0 0 0 0 0 0 0 0 0 
0 0 0 0 0 0 0 0 0 
0 0 0 0 0 0 0 0 0 
0 0 0 0 0 0 0 0 0 
0 0 0 0 0 0 0 0 0 
0 0 0 0 0 0 0 0 0 
0 0 0 0 0 0 0 0 0 
0 0 0 0 0 0 0 0 0 
0 0 0 0 0 0 0 0 0 
0 0 0 0 0 0 0 0 0 
0 0 0 0 0 0 0 0 0 
0 0 0 0 0 0 0 0 0 
0 0 0 0 0 0 0 0 0 
0 0 0 0 0 0 0 0 0 
0 0 0 0 0 0 0 0 0 
0 0 0 0 0 0 0 0 0 
0 0 0 0 0 0 0 0 0 
0 0 0 0 0 0 0 0 0 
0 0 0 0 0 0 0 0 0 
0 0 0 
radius 1 100 double
0.010434 0.00981478 0.00892069 0.00845937 0.00731974 0.00728422 0.00643447 0.00619172 0.00585956 
0.00577566 0.00537241 0.00522549 0.00513666 0.00473175 0.00466912 0.00444866 0.00441894 0.00400812 
0.00385622 0.00379948 0.00370243 0.00366942 0.00364039 0.00363813 0.00363644 0.00358692 0.0035797 
0.00341284 0.00337012 0.00336273 0.00332772 0.00323261 0.00320584 0.00320311 0.00318808 0.00313116 
0.00306026 0.00305632 0.00304383 0.00300958 0.00300137 0.00298994 0.0029567 0.00295111 0.00290849 
0.00284552 0.00282964 0.0028207 0.00281971 0.00281899 0.010434 0.00981478 0.00892069 0.00845937 
0.00731974 0.00728422 0.00643447 0.00619172 0.00585956 0.00577566 0.00537241 0.00522549 0.00513666 
0.00473175 0.00466912 0.00444866 0.00441894 0.00400812 0.00385622 0.00379948 0.00370243 0.00366942 
0.00364039 0.00363813 0.00363644 0.00358692 0.0035797 0.00341284 0.00337012 0.00336273 0.00332772 
0.00323261 0.00320584 0.00320311 0.00318808 0.00313116 0.00306026 0.00305632 0.00304383 0.00300958 
0.00300137 0.00298994 0.0029567 0.00295111 0.00290849 0.00284552 0.00282964 0.0028207 0.00281971 
0.00281899 
omega 3 100 double
1.7820068845 -7.0732558604 0.38371417769 1.7820068845 -7.0732558604 0.38371417769 1.7820068845 -7.0732558604 0.38371417769 
1.7820068845 -7.0732558604 0.38371417769 1.7820068845 -7.0732558604 0.38371417769 1.7820068845 -7.0732558604 0.38371417769 
1.7820068845 -7.0732558604 0.38371417769 1.7820068845 -7.0732558604 0.38371417769 1.7820068845 -7.0732558604 0.38371417769 
1.7820068845 -7.0732558604 0.38371417769 1.7820068845 -7.0732558604 0.38371417769 1.7820068845 -7.0732558604 0.38371417769 
1.7820068845 -7.0732558604 0.38371417769 1.7820068845 -7.0732558604 0.38371417769 1.7820068845 -7.0732558604 0.38371417769 
1.7820068845 -7.0732558604 0.38371417769 1.7820068845 -7.0732558604 0.38371417769 1.7820068845 -7.0732558604 0.38371417769 
1.7820068845 -7.0732558604 0.38371417769 1.7820068845 -7.0732558604 0.38371417769 1.7820068845 -7.0732558604 0.38371417769 
1.7820068845 -7.0732558604 0.38371417769 1.7820068845 -7.0732558604 0.38371417769 1.7820068845 -7.0732558604 0.38371417769 
1.7820068845 -7.0732558604 0.38371417769 1.7820068845 -7.0732558604 0.38371417769 1.7820068845 -7.0732558604 0.38371417769 
1.7820068845 -7.0732558604 0.38371417769 1.7820068845 -7.0732558604 0.38371417769 1.7820068845 -7.0732558604 0.38371417769 
1.7820068845 -7.0732558604 0.38371417769 1.7820068845 -7.0732558604 0.38371417769 1.7820068845 -7.0732558604 0.38371417769 
1.7820068845 -7.0732558604 0.38371417769 1.7820068845 -7.0732558604 0.38371417769 1.7820068845 -7.0732558604 0.38371417769 
1.7820068845 -7.0732558604 0.38371417769 1.7820068845 -7.0732558604 0.38371417769 1.7820068845 -7.0732558604 0.38371417769 
1.7820068845 -7.0732558604 0.38371417769 1.7820068845 -7.0732558604 0.38371417769 1.7820068845 -7.0732558604 0.38371417769 
1.7820068845 -7.0732558604 0.38371417769 1.7820068845 -7.0732558604 0.38371417769 1.7820068845 -7.0732558604 0.38371417769 
1.7820068845 -7.0732558604 0.38371417769 1.7820068845 -7.0732558604 0.38371417769 1.7820068845 -7.0732558604 0.38371417769 
1.7820068845 -7.0732558604 0.38371417769 1.7820068845 -7.0732558604 0.38371417769 1.7375960519 -6.9487049435 0.39935007809 
1.7375960519 -6.9487049435 0.39935007809 1.7375960519 -6.9487049435 0.39935007809 1.7375960519 -6.9487049435 0.39935007809 
1.7375960519 -6.9487049435 0.39935007809 1.7375960519 -6.9487049435 0.39935007809 1.7375960519 -6.9487049435 0.39935007809 
1.7375960519 -6.9487049435 0.39935007809 1.7375960519 -6.9487049435 0.39935007809 1.7375960519 -6.9487049435 0.39935007809 
1.7375960519 -6.9487049435 0.39935007809 1.7375960519 -6.9487049435 0.39935007809 1.7375960519 -6.9487049435 0.39935007809 
1.7375960519 -6.9487049435 0.39935007809 1.7375960519 -6.9487049435 0.39935007809 1.7375960519 -6.9487049435 0.39935007809 
1.7375960519 -6.9487049435 0.39935007809 1.7375960519 -6.9487049435 0.39935007809 1.7375960519 -6.9487049435 0.39935007809 
1.7375960519 -6.9487049435 0.39935007809 1.7375960519 -6.9487049435 0.39935007809 1.7375960519 -6.9487049435 0.39935007809 
1.7375960519 -6.9487049435 0.39935007809 1.7375960519 -6.9487049435 0.39935007809 1.7375960519 -6.9487049435 0.39935007809 
1.7375960519 -6.9487049435 0.39935007809 1.7375960519 -6.9487049435 0.39935007809 1.7375960519 -6.9487049435 0.39935007809 
1.7375960519 -6.9487049435 0.39935007809 1.7375960519 -6.9487049435 0.39935007809 1.7375960519 -6.9487049435 0.39935007809 
1.7375960519 -6.9487049435 0.39935007809 1.7375960519 -6.9487049435 0.39935007809 1.7375960519 -6.9487049435 0.39935007809 
1.7375960519 -6.9487049435 0.39935007809 1.7375960519 -6.9487049435 0.39935007809 1.7375960519 -6.9487049435 0.39935007809 
1.7375960519 -6.9487049435 0.39935007809 1.7375960519 -6.9487049435 0.39935007809 1.7375960519 -6.9487049435 0.39935007809 
1.7375960519 -6.9487049435 0.39935007809 1.7375960519 -6.9487049435 0.39935007809 1.7375960519 -6.9487049435 0.39935007809 
1.7375960519 -6.9487049435 0.39935007809 1.7375960519 -6.9487049435 0.39935007809 1.7375960519 -6.9487049435 0.39935007809 
1.7375960519 -6.9487049435 0.39935007809 1.7375960519 -6.9487049435 0.39935007809 1.7375960519 -6.9487049435 0.39935007809 
1.7375960519 -6.9487049435 0.39935007809 
