# vtk DataFile Version 4.1
Generated by LIGGGHTS
ASCII
DATASET POLYDATA
POINTS 100 float
-0.120182 -0.139548 0.0176596 -0.129265 -0.138746 0.0125415 -0.138778 -0.13794 0.00947733 
-0.128498 -0.143364 0.0230727 -0.115517 -0.141474 0.0268574 -0.136235 -0.142925 0.0189515 
-0.145991 -0.141941 0.013335 -0.121153 -0.146447 0.0267597 -0.147044 -0.137799 0.00596056 
-0.121569 -0.133664 0.0084256 -0.135137 -0.147849 0.0259796 -0.143352 -0.145188 0.0188958 
-0.126843 -0.130041 0.0080294 -0.130383 -0.149903 0.0291222 -0.132947 -0.130926 0.00711086 
-0.140328 -0.147657 0.0227491 -0.123199 -0.141386 0.0298944 -0.144574 -0.131312 0.0064648 
-0.116877 -0.138669 0.00763076 -0.151281 -0.142051 0.00865515 -0.121357 -0.142744 0.00777311 
-0.134999 -0.151631 0.0303035 -0.116455 -0.14815 0.022744 -0.108876 -0.138424 0.0293132 
-0.11048 -0.141616 0.0214805 -0.123955 -0.130163 0.0129216 -0.113864 -0.134325 0.0257603 
-0.111942 -0.136609 0.0311689 -0.13889 -0.151021 0.0284159 -0.132994 -0.136318 0.0214034 
-0.141581 -0.150294 0.0264223 -0.115198 -0.148385 0.0297961 -0.133227 -0.142953 0.0045749 
-0.12539 -0.1507 0.0294543 -0.152001 -0.139652 0.00314038 -0.113041 -0.146538 0.0216689 
-0.145088 -0.148905 0.0228273 -0.126243 -0.147389 0.030341 -0.149555 -0.146375 0.016528 
-0.126186 -0.133956 0.00424414 -0.139471 -0.146229 0.0132787 -0.12626 -0.151122 0.0260574 
-0.123767 -0.1376 0.0276244 -0.121986 -0.149519 0.0208747 -0.147367 -0.135626 0.0116054 
-0.151861 -0.14487 0.0128269 -0.109756 -0.139278 0.0184118 -0.129307 -0.133225 0.00430434 
-0.145328 -0.150164 0.0256378 -0.137458 -0.129049 0.00652054 -0.0515014 -0.111444 0.0172174 
-0.0607036 -0.110724 0.0123044 -0.0702993 -0.110208 0.00944259 -0.0594888 -0.116203 0.0223707 
-0.0465732 -0.113899 0.0261479 -0.0673101 -0.115855 0.0184014 -0.077203 -0.11495 0.0130165 
-0.0519161 -0.119166 0.0256762 -0.0786205 -0.110241 0.00605513 -0.0533837 -0.104857 0.0085638 
-0.0658088 -0.121308 0.0249474 -0.0742855 -0.118516 0.0182318 -0.058862 -0.101528 0.00855817 
-0.0608914 -0.123351 0.0278347 -0.0649212 -0.102683 0.00764 -0.0710585 -0.121136 0.0218114 
-0.0541931 -0.11453 0.0292755 -0.0765167 -0.103691 0.00710611 -0.0484284 -0.10949 0.00726697 
-0.0825595 -0.114955 0.0084114 -0.0526647 -0.113816 0.00710028 -0.065379 -0.125444 0.028914 
-0.0472 -0.120229 0.0214666 -0.0400749 -0.110696 0.0287838 -0.0416315 -0.113271 0.0207178 
-0.0558865 -0.101914 0.0133837 -0.0453504 -0.106598 0.0256733 -0.0432073 -0.109234 0.0308322 
-0.0693316 -0.124898 0.0271369 -0.0644091 -0.109312 0.0213932 -0.0720936 -0.124156 0.0252497 
-0.0458083 -0.121013 0.0284534 -0.0645574 -0.114435 0.00404352 -0.0558551 -0.12388 0.0280325 
-0.0835122 -0.112123 0.00314238 -0.0439029 -0.118332 0.0204975 -0.0757368 -0.122662 0.0218368 
-0.0568808 -0.120717 0.0292219 -0.0804514 -0.11985 0.0158446 -0.0580497 -0.105048 0.00443049 
-0.0704504 -0.118828 0.0124966 -0.0567591 -0.124051 0.0246224 -0.0550162 -0.110598 0.0273601 
-0.0526754 -0.121748 0.0195511 -0.0789679 -0.108598 0.0118751 -0.082904 -0.118161 0.0123216 
-0.0410963 -0.110632 0.0178615 -0.0612051 -0.104509 0.00459441 -0.0758557 -0.124176 0.0245265 
-0.0695414 -0.101029 0.0072756 
VERTICES 100 200
1 0 
1 1 
1 2 
1 3 
1 4 
1 5 
1 6 
1 7 
1 8 
1 9 
1 10 
1 11 
1 12 
1 13 
1 14 
1 15 
1 16 
1 17 
1 18 
1 19 
1 20 
1 21 
1 22 
1 23 
1 24 
1 25 
1 26 
1 27 
1 28 
1 29 
1 30 
1 31 
1 32 
1 33 
1 34 
1 35 
1 36 
1 37 
1 38 
1 39 
1 40 
1 41 
1 42 
1 43 
1 44 
1 45 
1 46 
1 47 
1 48 
1 49 
1 50 
1 51 
1 52 
1 53 
1 54 
1 55 
1 56 
1 57 
1 58 
1 59 
1 60 
1 61 
1 62 
1 63 
1 64 
1 65 
1 66 
1 67 
1 68 
1 69 
1 70 
1 71 
1 72 
1 73 
1 74 
1 75 
1 76 
1 77 
1 78 
1 79 
1 80 
1 81 
1 82 
1 83 
1 84 
1 85 
1 86 
1 87 
1 88 
1 89 
1 90 
1 91 
1 92 
1 93 
1 94 
1 95 
1 96 
1 97 
1 98 
1 99 

POINT_DATA 100
FIELD FieldData 7
id 1 100 int
1 2 3 4 5 6 7 8 9 
10 11 12 13 14 15 16 17 18 
19 20 21 22 23 24 25 26 27 
28 29 30 31 32 33 34 35 36 
37 38 39 40 41 42 43 44 45 
46 47 48 49 50 51 52 53 54 
55 56 57 58 59 60 61 62 63 
64 65 66 67 68 69 70 71 72 
73 74 75 76 77 78 79 80 81 
82 83 84 85 86 87 88 89 90 
91 92 93 94 95 96 97 98 99 
100 
mol 1 100 int
1 1 1 1 1 1 1 1 1 
1 1 1 1 1 1 1 1 1 
1 1 1 1 1 1 1 1 1 
1 1 1 1 1 1 1 1 1 
1 1 1 1 1 1 1 1 1 
1 1 1 1 1 2 2 2 2 
2 2 2 2 2 2 2 2 2 
2 2 2 2 2 2 2 2 2 
2 2 2 2 2 2 2 2 2 
2 2 2 2 2 2 2 2 2 
2 2 2 2 2 2 2 2 2 
2 
type 1 100 int
1 1 1 1 1 1 1 1 1 
1 1 1 1 1 1 1 1 1 
1 1 1 1 1 1 1 1 1 
1 1 1 1 1 1 1 1 1 
1 1 1 1 1 1 1 1 1 
1 1 1 1 1 1 1 1 1 
1 1 1 1 1 1 1 1 1 
1 1 1 1 1 1 1 1 1 
1 1 1 1 1 1 1 1 1 
1 1 1 1 1 1 1 1 1 
1 1 1 1 1 1 1 1 1 
1 
v 3 100 double
-0.0029888141197 -0.14528553862 -0.13216635005 -0.023385292634 -0.10202504805 -0.089188564647 -0.035179023199 -0.070902072535 -0.044386710863 
0.014780340089 -0.16806897824 -0.12092986109 0.033045752555 -0.20808773268 -0.16359186289 -0.0019090238252 -0.13269127389 -0.085828972001 
-0.024159214175 -0.085489192853 -0.038912838692 0.026262044763 -0.20026075225 -0.17072636584 -0.04972043076 -0.038580861252 -0.0089151915074 
-0.034101477931 -0.086461786669 -0.090010902856 0.021199850558 -0.17751787859 -0.12084796642 -0.0050434037959 -0.12322544572 -0.070021295631 
-0.031116595054 -0.077254709393 -0.045553540806 0.031721773954 -0.20302469408 -0.15343756411 -0.036095545449 -0.063755738849 -0.025464447019 
0.0079221932149 -0.15090611299 -0.09793220799 0.045870528514 -0.2170034612 -0.1308953381 -0.039295603554 -0.044861957531 0.020818307749 
-0.043844313883 -0.087564707813 -0.14057337606 -0.043891061484 -0.049797265081 -0.017450426645 -0.048471063595 -0.082702536747 -0.14699442205 
0.034451715199 -0.20440693446 -0.14479367391 0.0072694343504 -0.18147365648 -0.20091193557 0.047234640841 -0.23177177209 -0.17255356184 
0.010354888509 -0.18132592836 -0.18555760868 -0.010794355241 -0.11117948521 -0.058398759802 0.037615315415 -0.2034293579 -0.12635240334 
0.057329675936 -0.2393054303 -0.14850051689 0.027332779524 -0.18775811232 -0.12473188143 0.016823014151 -0.15199287284 -0.058579722627 
0.019919039293 -0.17199351941 -0.10897893107 0.036488975864 -0.2266513612 -0.20762428729 -0.062126928418 -0.047730685783 -0.098597623121 
0.032091478949 -0.21147729411 -0.1792617389 -0.063900529472 -0.014804777809 0.0003894884118 0.0048345140267 -0.17920764693 -0.20524744339 
0.0066499188758 -0.14528913597 -0.085719535383 0.04004655739 -0.21586112501 -0.15523593663 -0.016476399022 -0.10064676791 -0.051386334407 
-0.051980044129 -0.054710862636 -0.072486998527 -0.029891394394 -0.093498559408 -0.092700420037 0.017329741529 -0.18937619947 -0.17823105449 
0.041221520511 -0.20225214503 -0.10512577208 -0.0023101512835 -0.16283603618 -0.18621503838 -0.023305440155 -0.07304040074 0.0058600311406 
-0.030040323996 -0.074826613711 -0.032435780842 0.0005063298155 -0.1632956888 -0.17414086036 -0.050791072654 -0.051083552368 -0.054909395449 
0.016802353643 -0.1623438115 -0.09248541803 -0.036161431622 -0.054327526193 0.0050104761855 -0.01327968168 -0.12919276383 -0.16326266116 
-0.039150826299 -0.091127201837 -0.10923222796 -0.054214894231 -0.068698923394 -0.054676163854 0.01361536297 -0.16805728144 -0.1574684453 
0.033677807358 -0.19767484573 -0.20800636198 -0.0073004837114 -0.13728006099 -0.11355513025 -0.035649400636 -0.095570151406 -0.054466287673 
0.030872276364 -0.19375116244 -0.22003303597 -0.072084543351 -0.042334176254 -0.011033485379 -0.058527882936 -0.06300817713 -0.10304440087 
0.026898960902 -0.18734980645 -0.16311381419 -0.0083549992056 -0.13556557672 -0.097085446833 -0.058357089698 -0.06263519326 -0.048731213054 
0.042005726397 -0.2096911941 -0.20464821454 -0.063269716169 -0.055259923965 -0.025592502658 0.010368370341 -0.16309044794 -0.13410417321 
0.050136615509 -0.22109509572 -0.17263236722 -0.066146443186 -0.050485258625 0.027878585629 -0.065647262439 -0.053405208184 -0.16455193713 
-0.059939968312 -0.060087289832 -0.026253046553 -0.066787058374 -0.051877384976 -0.1752389318 0.047572549732 -0.21766135921 -0.19695641424 
0.0086039008587 -0.16189437964 -0.25302844195 0.04777423036 -0.21819157779 -0.21782365201 0.0050735746653 -0.15651296727 -0.22927426009 
-0.032927224044 -0.099657863739 -0.067370199546 0.031614226528 -0.19412484897 -0.15870690631 0.058666397848 -0.23364192137 -0.19014095693 
0.038231891291 -0.2038550079 -0.1719359081 0.0088745151935 -0.16029775137 -0.078904080702 0.028322087234 -0.18927948498 -0.15170289775 
0.045409633128 -0.21532299006 -0.26635427009 -0.082947720561 -0.027822416698 -0.1172355417 0.043016938166 -0.21150440363 -0.23525277429 
-0.087561690143 -0.019800450295 0.00039433496378 0.0036065123498 -0.15469381151 -0.25593333695 0.010410423005 -0.16300261654 -0.1210818873 
0.04948109978 -0.22052370215 -0.20568821194 -0.021027360122 -0.11696716698 -0.07474413096 -0.080341144539 -0.031168990229 -0.07988974041 
-0.038625234883 -0.092007448393 -0.11969285273 0.025019628337 -0.18541366647 -0.23178833559 0.040270167368 -0.20642092145 -0.1382643375 
-0.0015910552504 -0.14693978125 -0.23574515953 -0.041287295835 -0.086749191131 0.0033390464094 -0.039508169968 -0.089921126933 -0.048910616302 
-0.009833433074 -0.13473715377 -0.21194702129 -0.079444082815 -0.032230436083 -0.059130268122 0.024506265941 -0.18353122003 -0.13201231839 
-0.065092144935 -0.052199430498 0.011408721763 
f 3 100 double
0 0 0 0 0 0 0 0 0 
0 0 0 0 0 0 0 0 0 
0 0 0 0 0 0 0 0 0 
0 0 0 0 0 0 0 0 0 
0 0 0 0 0 0 0 0 0 
0 0 0 0 0 0 0 0 0 
0 0 0 0 0 0 0 0 0 
0 0 0 0 0 0 0 0 0 
0 0 0 0 0 0 0 0 0 
0 0 0 0 0 0 0 0 0 
0 0 0 0 0 0 0 0 0 
0 0 0 0.075677883179 -0.00457072215 0.15163157328 0 0 0 
0 0 0 0 0 0 0 0 0 
0 0 0 0 0 0 0 0 0 
0 0 0 0 0 0 0 0 0 
0 0 0 0 0 0 0 0 0 
0 0 0 0 0 0 0 0 0 
0 0 0 0 0 0 0 0 0 
0 0 0 0 0 0 0 0 0 
0 0 0 0 0 0 0 0 0 
0 0 0 0 0 0 0 0 0 
0 0 0 0 0 0 0 0 0 
0 0 0 0 0 0 0 0 0 
0 0 0 0 0 0 0 0 0 
0 0 0 0 0 0 0 0 0 
0 0 0 0 0 0 0 0 0 
0 0 0 0 0 0 0 0 0 
0 0 0 0 0 0 0 0 0 
0.070918016663 -0.0029308240138 0.14195710362 0 0 0 0 0 0 
0 0 0 0 0 0 0 0 0 
0 0 0 0 0 0 0 0 0 
0 0 0 0 0 0 0 0 0 
0 0 0 0 0 0 0 0 0 
0 0 0 
radius 1 100 double
0.010434 0.00981478 0.00892069 0.00845937 0.00731974 0.00728422 0.00643447 0.00619172 0.00585956 
0.00577566 0.00537241 0.00522549 0.00513666 0.00473175 0.00466912 0.00444866 0.00441894 0.00400812 
0.00385622 0.00379948 0.00370243 0.00366942 0.00364039 0.00363813 0.00363644 0.00358692 0.0035797 
0.00341284 0.00337012 0.00336273 0.00332772 0.00323261 0.00320584 0.00320311 0.00318808 0.00313116 
0.00306026 0.00305632 0.00304383 0.00300958 0.00300137 0.00298994 0.0029567 0.00295111 0.00290849 
0.00284552 0.00282964 0.0028207 0.00281971 0.00281899 0.010434 0.00981478 0.00892069 0.00845937 
0.00731974 0.00728422 0.00643447 0.00619172 0.00585956 0.00577566 0.00537241 0.00522549 0.00513666 
0.00473175 0.00466912 0.00444866 0.00441894 0.00400812 0.00385622 0.00379948 0.00370243 0.00366942 
0.00364039 0.00363813 0.00363644 0.00358692 0.0035797 0.00341284 0.00337012 0.00336273 0.00332772 
0.00323261 0.00320584 0.00320311 0.00318808 0.00313116 0.00306026 0.00305632 0.00304383 0.00300958 
0.00300137 0.00298994 0.0029567 0.00295111 0.00290849 0.00284552 0.00282964 0.0028207 0.00281971 
0.00281899 
omega 3 100 double
6.177865754 4.1860858391 -1.2817184574 6.177865754 4.1860858391 -1.2817184574 6.177865754 4.1860858391 -1.2817184574 
6.177865754 4.1860858391 -1.2817184574 6.177865754 4.1860858391 -1.2817184574 6.177865754 4.1860858391 -1.2817184574 
6.177865754 4.1860858391 -1.2817184574 6.177865754 4.1860858391 -1.2817184574 6.177865754 4.1860858391 -1.2817184574 
6.177865754 4.1860858391 -1.2817184574 6.177865754 4.1860858391 -1.2817184574 6.177865754 4.1860858391 -1.2817184574 
6.177865754 4.1860858391 -1.2817184574 6.177865754 4.1860858391 -1.2817184574 6.177865754 4.1860858391 -1.2817184574 
6.177865754 4.1860858391 -1.2817184574 6.177865754 4.1860858391 -1.2817184574 6.177865754 4.1860858391 -1.2817184574 
6.177865754 4.1860858391 -1.2817184574 6.177865754 4.1860858391 -1.2817184574 6.177865754 4.1860858391 -1.2817184574 
6.177865754 4.1860858391 -1.2817184574 6.177865754 4.1860858391 -1.2817184574 6.177865754 4.1860858391 -1.2817184574 
6.177865754 4.1860858391 -1.2817184574 6.177865754 4.1860858391 -1.2817184574 6.177865754 4.1860858391 -1.2817184574 
6.177865754 4.1860858391 -1.2817184574 6.177865754 4.1860858391 -1.2817184574 6.177865754 4.1860858391 -1.2817184574 
6.177865754 4.1860858391 -1.2817184574 6.177865754 4.1860858391 -1.2817184574 6.177865754 4.1860858391 -1.2817184574 
6.177865754 4.1860858391 -1.2817184574 6.177865754 4.1860858391 -1.2817184574 6.177865754 4.1860858391 -1.2817184574 
6.177865754 4.1860858391 -1.2817184574 6.177865754 4.1860858391 -1.2817184574 6.177865754 4.1860858391 -1.2817184574 
6.177865754 4.1860858391 -1.2817184574 6.177865754 4.1860858391 -1.2817184574 6.177865754 4.1860858391 -1.2817184574 
6.177865754 4.1860858391 -1.2817184574 6.177865754 4.1860858391 -1.2817184574 6.177865754 4.1860858391 -1.2817184574 
6.177865754 4.1860858391 -1.2817184574 6.177865754 4.1860858391 -1.2817184574 6.177865754 4.1860858391 -1.2817184574 
6.177865754 4.1860858391 -1.2817184574 6.177865754 4.1860858391 -1.2817184574 7.6350848426 5.2746557565 -0.060231824126 
7.6350848426 5.2746557565 -0.060231824126 7.6350848426 5.2746557565 -0.060231824126 7.6350848426 5.2746557565 -0.060231824126 
7.6350848426 5.2746557565 -0.060231824126 7.6350848426 5.2746557565 -0.060231824126 7.6350848426 5.2746557565 -0.060231824126 
7.6350848426 5.2746557565 -0.060231824126 7.6350848426 5.2746557565 -0.060231824126 7.6350848426 5.2746557565 -0.060231824126 
7.6350848426 5.2746557565 -0.060231824126 7.6350848426 5.2746557565 -0.060231824126 7.6350848426 5.2746557565 -0.060231824126 
7.6350848426 5.2746557565 -0.060231824126 7.6350848426 5.2746557565 -0.060231824126 7.6350848426 5.2746557565 -0.060231824126 
7.6350848426 5.2746557565 -0.060231824126 7.6350848426 5.2746557565 -0.060231824126 7.6350848426 5.2746557565 -0.060231824126 
7.6350848426 5.2746557565 -0.060231824126 7.6350848426 5.2746557565 -0.060231824126 7.6350848426 5.2746557565 -0.060231824126 
7.6350848426 5.2746557565 -0.060231824126 7.6350848426 5.2746557565 -0.060231824126 7.6350848426 5.2746557565 -0.060231824126 
7.6350848426 5.2746557565 -0.060231824126 7.6350848426 5.2746557565 -0.060231824126 7.6350848426 5.2746557565 -0.060231824126 
7.6350848426 5.2746557565 -0.060231824126 7.6350848426 5.2746557565 -0.060231824126 7.6350848426 5.2746557565 -0.060231824126 
7.6350848426 5.2746557565 -0.060231824126 7.6350848426 5.2746557565 -0.060231824126 7.6350848426 5.2746557565 -0.060231824126 
7.6350848426 5.2746557565 -0.060231824126 7.6350848426 5.2746557565 -0.060231824126 7.6350848426 5.2746557565 -0.060231824126 
7.6350848426 5.2746557565 -0.060231824126 7.6350848426 5.2746557565 -0.060231824126 7.6350848426 5.2746557565 -0.060231824126 
7.6350848426 5.2746557565 -0.060231824126 7.6350848426 5.2746557565 -0.060231824126 7.6350848426 5.2746557565 -0.060231824126 
7.6350848426 5.2746557565 -0.060231824126 7.6350848426 5.2746557565 -0.060231824126 7.6350848426 5.2746557565 -0.060231824126 
7.6350848426 5.2746557565 -0.060231824126 7.6350848426 5.2746557565 -0.060231824126 7.6350848426 5.2746557565 -0.060231824126 
7.6350848426 5.2746557565 -0.060231824126 
