# vtk DataFile Version 4.1
Generated by LIGGGHTS
ASCII
DATASET POLYDATA
POINTS 100 float
-0.11917 -0.142539 0.0148768 -0.128736 -0.140763 0.0110456 -0.138493 -0.139267 0.00928531 
-0.126969 -0.146867 0.02066 -0.11357 -0.145893 0.02309 -0.135101 -0.145631 0.0175969 
-0.145384 -0.143585 0.0133817 -0.119392 -0.150647 0.0229738 -0.147094 -0.138398 0.00683791 
-0.121347 -0.135352 0.0067885 -0.133421 -0.151543 0.0236855 -0.14227 -0.147669 0.0180779 
-0.126467 -0.131568 0.0075366 -0.128433 -0.154156 0.0259183 -0.13267 -0.132146 0.00724103 
-0.138935 -0.150748 0.0211584 -0.120842 -0.146036 0.027007 -0.1443 -0.132121 0.00794405 
-0.117001 -0.140316 0.00474622 -0.151176 -0.142878 0.00939966 -0.121609 -0.144246 0.00485319 
-0.132954 -0.155911 0.0273905 -0.115265 -0.151881 0.0182264 -0.106564 -0.14341 0.0251348 
-0.109194 -0.145397 0.0171819 -0.123046 -0.132471 0.0119824 -0.111741 -0.138709 0.0228124 
-0.109315 -0.141798 0.0275796 -0.137006 -0.15493 0.0260864 -0.131314 -0.139535 0.0205418 
-0.139873 -0.153851 0.0245505 -0.113219 -0.153162 0.0249748 -0.133765 -0.143671 0.00310151 
-0.123474 -0.155126 0.0255356 -0.152417 -0.139691 0.00440052 -0.111929 -0.150224 0.016986 
-0.143704 -0.151865 0.0216308 -0.124075 -0.151956 0.0269719 -0.14875 -0.148335 0.0163274 
-0.126422 -0.134914 0.00319044 -0.139108 -0.147996 0.0119466 -0.124746 -0.155032 0.0222417 
-0.1215 -0.141949 0.0253728 -0.121028 -0.152816 0.0168599 -0.146671 -0.137053 0.0127286 
-0.151396 -0.146251 0.0131758 -0.108725 -0.142662 0.0144057 -0.12948 -0.134115 0.00372531 
-0.143676 -0.153508 0.0242463 -0.137132 -0.130083 0.007463 -0.0504341 -0.113888 0.0152946 
-0.0600754 -0.112477 0.011501 -0.069904 -0.111578 0.00973387 -0.0579142 -0.119405 0.020454 
-0.0446598 -0.11764 0.02321 -0.0660907 -0.118497 0.0173931 -0.0764645 -0.116835 0.0132331 
-0.0500801 -0.122798 0.022494 -0.0785235 -0.111136 0.00723844 -0.0531054 -0.106081 0.00796506 
-0.0639982 -0.124868 0.0228588 -0.0730763 -0.121134 0.0175309 -0.0585199 -0.102813 0.00901376 
-0.0588378 -0.127301 0.0248943 -0.0646529 -0.103844 0.00854931 -0.0695344 -0.124248 0.0203313 
-0.0519331 -0.118769 0.0269609 -0.0762536 -0.10481 0.0090445 -0.0483563 -0.110443 0.00549224 
-0.0822566 -0.11617 0.0092447 -0.0526346 -0.114713 0.00510574 -0.0632166 -0.129553 0.0260944 
-0.045823 -0.123194 0.0177175 -0.0378949 -0.114841 0.0256274 -0.0402827 -0.116178 0.0174649 
-0.0550786 -0.103909 0.0134008 -0.0434116 -0.110345 0.0237179 -0.0407894 -0.113719 0.0281782 
-0.0673217 -0.128762 0.0248283 -0.0628325 -0.112467 0.0210262 -0.0702513 -0.127756 0.023363 
-0.0437444 -0.125016 0.0243302 -0.0647805 -0.114917 0.00320823 -0.0538132 -0.127832 0.0245003 
-0.0837035 -0.11258 0.00458507 -0.0426197 -0.121158 0.0167166 -0.0742027 -0.125782 0.0205994 
-0.0546797 -0.124888 0.0262494 -0.0794652 -0.122119 0.0156057 -0.0581652 -0.105667 0.00434297 
-0.069841 -0.12056 0.0114562 -0.0550573 -0.127491 0.0212123 -0.0529017 -0.114596 0.0257518 
-0.0514795 -0.124432 0.0161586 -0.078266 -0.110391 0.0132442 -0.0822411 -0.119929 0.0126429 
-0.0400088 -0.113136 0.0149987 -0.061282 -0.105173 0.0049041 -0.074067 -0.127684 0.0230289 
-0.069268 -0.102174 0.00890663 
VERTICES 100 200
1 0 
1 1 
1 2 
1 3 
1 4 
1 5 
1 6 
1 7 
1 8 
1 9 
1 10 
1 11 
1 12 
1 13 
1 14 
1 15 
1 16 
1 17 
1 18 
1 19 
1 20 
1 21 
1 22 
1 23 
1 24 
1 25 
1 26 
1 27 
1 28 
1 29 
1 30 
1 31 
1 32 
1 33 
1 34 
1 35 
1 36 
1 37 
1 38 
1 39 
1 40 
1 41 
1 42 
1 43 
1 44 
1 45 
1 46 
1 47 
1 48 
1 49 
1 50 
1 51 
1 52 
1 53 
1 54 
1 55 
1 56 
1 57 
1 58 
1 59 
1 60 
1 61 
1 62 
1 63 
1 64 
1 65 
1 66 
1 67 
1 68 
1 69 
1 70 
1 71 
1 72 
1 73 
1 74 
1 75 
1 76 
1 77 
1 78 
1 79 
1 80 
1 81 
1 82 
1 83 
1 84 
1 85 
1 86 
1 87 
1 88 
1 89 
1 90 
1 91 
1 92 
1 93 
1 94 
1 95 
1 96 
1 97 
1 98 
1 99 

POINT_DATA 100
FIELD FieldData 7
id 1 100 int
1 2 3 4 5 6 7 8 9 
10 11 12 13 14 15 16 17 18 
19 20 21 22 23 24 25 26 27 
28 29 30 31 32 33 34 35 36 
37 38 39 40 41 42 43 44 45 
46 47 48 49 50 51 52 53 54 
55 56 57 58 59 60 61 62 63 
64 65 66 67 68 69 70 71 72 
73 74 75 76 77 78 79 80 81 
82 83 84 85 86 87 88 89 90 
91 92 93 94 95 96 97 98 99 
100 
mol 1 100 int
1 1 1 1 1 1 1 1 1 
1 1 1 1 1 1 1 1 1 
1 1 1 1 1 1 1 1 1 
1 1 1 1 1 1 1 1 1 
1 1 1 1 1 1 1 1 1 
1 1 1 1 1 2 2 2 2 
2 2 2 2 2 2 2 2 2 
2 2 2 2 2 2 2 2 2 
2 2 2 2 2 2 2 2 2 
2 2 2 2 2 2 2 2 2 
2 2 2 2 2 2 2 2 2 
2 
type 1 100 int
1 1 1 1 1 1 1 1 1 
1 1 1 1 1 1 1 1 1 
1 1 1 1 1 1 1 1 1 
1 1 1 1 1 1 1 1 1 
1 1 1 1 1 1 1 1 1 
1 1 1 1 1 1 1 1 1 
1 1 1 1 1 1 1 1 1 
1 1 1 1 1 1 1 1 1 
1 1 1 1 1 1 1 1 1 
1 1 1 1 1 1 1 1 1 
1 1 1 1 1 1 1 1 1 
1 
v 3 100 double
0.11277147959 -0.14802356739 -0.075393771106 0.089539570207 -0.095804786146 0.006816523584 0.080415506223 -0.059583450583 0.088164916861 
0.14408176053 -0.17612886261 -0.054205511613 0.16360692766 -0.22597122782 -0.14189324349 0.12508868558 -0.13327381239 0.013516883949 
0.099737099483 -0.076372857692 0.10297118678 0.1519387142 -0.21177107784 -0.13815453669 0.064968559213 -0.020546317591 0.1563050552 
0.07156547966 -0.078873817383 -0.0028591849611 0.15496254454 -0.18542234281 -0.045363779674 0.12386501364 -0.12074248483 0.048386158614 
0.085521506846 -0.073132127535 0.063627480294 0.16490292894 -0.21451606155 -0.10161704297 0.082098935681 -0.056640736759 0.10321044464 
0.13878014061 -0.152792904 0.00021042642927 0.19117431042 -0.24047000009 -0.091244095792 0.087162004493 -0.035694984795 0.18622670592 
0.045700956998 -0.072578385666 -0.073196884933 0.072993974606 -0.031564935129 0.14982524252 0.03749937995 -0.062918038424 -0.071570988183 
0.17138504811 -0.21588885555 -0.083349198434 0.11531794115 -0.18351031362 -0.17733492461 0.18383230409 -0.25817679897 -0.17207670165 
0.1226676358 -0.18906826987 -0.16911586882 0.11512040973 -0.11621540067 0.032094870168 0.178015043 -0.22793793453 -0.097901740421 
0.20491796764 -0.27130307775 -0.13969494516 0.16433531411 -0.19629934139 -0.046713368892 0.15996159195 -0.16528156757 0.034916317768 
0.15585826364 -0.17757297404 -0.017738836955 0.16045159186 -0.24172743981 -0.20206818722 0.026335927925 -0.02129394152 0.019550688098 
0.15996420381 -0.22278985933 -0.14463460304 0.044663387127 0.010937826405 0.1839583335 0.11026338585 -0.18127491932 -0.18794231714 
0.13959579958 -0.14566429485 0.025306353329 0.17742276167 -0.23281805766 -0.1151999166 0.10988178987 -0.092073094393 0.08924769884 
0.046941319349 -0.038747244679 0.036750956274 0.079458827014 -0.079299408764 0.023276429042 0.13672343633 -0.19375171299 -0.13483277946 
0.18885977128 -0.22600124838 -0.054121148925 0.10345397528 -0.15952242133 -0.1437167412 0.10998626434 -0.068254715478 0.16398011052 
0.092192009329 -0.061027562013 0.12463159152 0.10913604887 -0.16810688302 -0.15074983406 0.052572163108 -0.03601817111 0.064864231011 
0.1544751565 -0.16648476233 0.012069804507 0.088385316529 -0.048225933748 0.15135736113 0.092841251295 -0.11667499601 -0.071573186571 
0.074998803349 -0.085510850601 -0.014637856051 0.066764504167 -0.069293950066 0.039412711044 0.11596110545 -0.1524999374 -0.076361174597 
0.12981205108 -0.17713094888 -0.12719878238 0.1014914527 -0.12722842688 -0.030212843914 0.081962465615 -0.093117754735 0.032115863939 
0.1247164288 -0.17010190307 -0.13926590069 0.054872881884 -0.048068955298 0.084243291733 0.059986597949 -0.061545351016 -0.0008767322679 
0.12581644623 -0.16837107605 -0.087485358808 0.10131627434 -0.1260242684 -0.016056001217 0.066083839614 -0.067586993724 0.049428156681 
0.13485588706 -0.1850878806 -0.13038324797 0.0635161538 -0.062194217252 0.071367774379 0.11382682028 -0.14789014051 -0.056197997342 
0.14753815642 -0.20259142892 -0.1004902176 0.065595948273 -0.06216661093 0.12014427046 0.046674053441 -0.04474559294 -0.05607950665 
0.062943468552 -0.061737267563 0.064969785745 0.043450342379 -0.040520756505 -0.067075230064 0.1399256464 -0.19258095424 -0.12594250427 
0.10155964916 -0.1360860166 -0.16272417038 0.14235931829 -0.19718743038 -0.13909418667 0.10257625713 -0.13597996327 -0.13748083967 
0.086887850568 -0.10117070722 0.024723542208 0.13458407849 -0.18128914591 -0.079193351283 0.1550158902 -0.21515515596 -0.11682594511 
0.13407269532 -0.18189756199 -0.10029477549 0.12092976328 -0.1551710619 -0.0012706522853 0.12732764565 -0.17011321633 -0.078722193791 
0.13286360646 -0.18571745589 -0.18623824728 0.034236188776 -0.022600564285 -0.010021341771 0.13278707452 -0.18377031851 -0.15853959555 
0.041619282666 -0.026769822623 0.098528113906 0.097382185266 -0.12969424028 -0.16309039659 0.11463146407 -0.14838922812 -0.045044535912 
0.14215841343 -0.1964474739 -0.13256318284 0.091719324545 -0.10973217061 0.0074491810473 0.042653692105 -0.033110705083 0.026583775245 
0.072208362791 -0.082068739376 -0.027409194728 0.11704206139 -0.15902517822 -0.1500142744 0.1430371622 -0.19332889502 -0.064918010882 
0.093648944847 -0.12273996484 -0.14461191607 0.084068164012 -0.092626224532 0.088518113709 0.078131044365 -0.086907229 0.03705169185 
0.091653811321 -0.11780400283 -0.11627535403 0.045516724754 -0.036273444375 0.045272469771 0.12573991429 -0.16642393867 -0.059786707079 
0.065770906227 -0.063370438254 0.10598731629 
f 3 100 double
0 0 0 0 0 0 0 0 0 
0 0 0 0 0 0 0 0 0 
0 0 0 0 0 0 0 0 0 
0 0 0 0 0 0 0 0 0 
0 0 0 0 0 0 0 0 0 
0 0 0 0 0 0 0 0 0 
0 0 0 0 0 0 0 0 0 
0 0 0 0 0 0 0 0 0 
0 0 0 0 0 0 0 0 0 
0 0 0 0 0 0 0 0 0 
0 0 0 0 0 0 0.066912145834 -0.013798707793 0.27085846076 
0 0 0 0 0 0 0 0 0 
0 0 0 0 0 0 0 0 0 
0 0 0 0 0 0 0 0 0 
0 0 0 0 0 0 0 0 0 
0 0 0 0 0 0 0 0 0 
0 0 0 0 0 0 0 0 0 
0 0 0 0 0 0 0 0 0 
0 0 0 0 0 0 0 0 0 
0 0 0 0 0 0 0 0 0 
0 0 0 0 0 0 0 0 0 
0 0 0 0 0 0 0 0 0 
0 0 0 0 0 0 0 0 0 
0 0 0 0 0 0 0 0 0 
0 0 0 0 0 0 0 0 0 
0 0 0 0 0 0 0 0 0 
0 0 0 0 0 0 0 0 0 
0 0 0 0 0 0 0 0 0 
0 0 0 0 0 0 0 0 0 
0 0 0 0 0 0 0 0 0 
0 0 0 0 0 0 0 0 0 
0 0 0 0 0 0 0 0 0 
0 0 0 0 0 0 0 0 0 
0 0 0 
radius 1 100 double
0.010434 0.00981478 0.00892069 0.00845937 0.00731974 0.00728422 0.00643447 0.00619172 0.00585956 
0.00577566 0.00537241 0.00522549 0.00513666 0.00473175 0.00466912 0.00444866 0.00441894 0.00400812 
0.00385622 0.00379948 0.00370243 0.00366942 0.00364039 0.00363813 0.00363644 0.00358692 0.0035797 
0.00341284 0.00337012 0.00336273 0.00332772 0.00323261 0.00320584 0.00320311 0.00318808 0.00313116 
0.00306026 0.00305632 0.00304383 0.00300958 0.00300137 0.00298994 0.0029567 0.00295111 0.00290849 
0.00284552 0.00282964 0.0028207 0.00281971 0.00281899 0.010434 0.00981478 0.00892069 0.00845937 
0.00731974 0.00728422 0.00643447 0.00619172 0.00585956 0.00577566 0.00537241 0.00522549 0.00513666 
0.00473175 0.00466912 0.00444866 0.00441894 0.00400812 0.00385622 0.00379948 0.00370243 0.00366942 
0.00364039 0.00363813 0.00363644 0.00358692 0.0035797 0.00341284 0.00337012 0.00336273 0.00332772 
0.00323261 0.00320584 0.00320311 0.00318808 0.00313116 0.00306026 0.00305632 0.00304383 0.00300958 
0.00300137 0.00298994 0.0029567 0.00295111 0.00290849 0.00284552 0.00282964 0.0028207 0.00281971 
0.00281899 
omega 3 100 double
7.9354864374 7.1210327611 -2.2806772663 7.9354864374 7.1210327611 -2.2806772663 7.9354864374 7.1210327611 -2.2806772663 
7.9354864374 7.1210327611 -2.2806772663 7.9354864374 7.1210327611 -2.2806772663 7.9354864374 7.1210327611 -2.2806772663 
7.9354864374 7.1210327611 -2.2806772663 7.9354864374 7.1210327611 -2.2806772663 7.9354864374 7.1210327611 -2.2806772663 
7.9354864374 7.1210327611 -2.2806772663 7.9354864374 7.1210327611 -2.2806772663 7.9354864374 7.1210327611 -2.2806772663 
7.9354864374 7.1210327611 -2.2806772663 7.9354864374 7.1210327611 -2.2806772663 7.9354864374 7.1210327611 -2.2806772663 
7.9354864374 7.1210327611 -2.2806772663 7.9354864374 7.1210327611 -2.2806772663 7.9354864374 7.1210327611 -2.2806772663 
7.9354864374 7.1210327611 -2.2806772663 7.9354864374 7.1210327611 -2.2806772663 7.9354864374 7.1210327611 -2.2806772663 
7.9354864374 7.1210327611 -2.2806772663 7.9354864374 7.1210327611 -2.2806772663 7.9354864374 7.1210327611 -2.2806772663 
7.9354864374 7.1210327611 -2.2806772663 7.9354864374 7.1210327611 -2.2806772663 7.9354864374 7.1210327611 -2.2806772663 
7.9354864374 7.1210327611 -2.2806772663 7.9354864374 7.1210327611 -2.2806772663 7.9354864374 7.1210327611 -2.2806772663 
7.9354864374 7.1210327611 -2.2806772663 7.9354864374 7.1210327611 -2.2806772663 7.9354864374 7.1210327611 -2.2806772663 
7.9354864374 7.1210327611 -2.2806772663 7.9354864374 7.1210327611 -2.2806772663 7.9354864374 7.1210327611 -2.2806772663 
7.9354864374 7.1210327611 -2.2806772663 7.9354864374 7.1210327611 -2.2806772663 7.9354864374 7.1210327611 -2.2806772663 
7.9354864374 7.1210327611 -2.2806772663 7.9354864374 7.1210327611 -2.2806772663 7.9354864374 7.1210327611 -2.2806772663 
7.9354864374 7.1210327611 -2.2806772663 7.9354864374 7.1210327611 -2.2806772663 7.9354864374 7.1210327611 -2.2806772663 
7.9354864374 7.1210327611 -2.2806772663 7.9354864374 7.1210327611 -2.2806772663 7.9354864374 7.1210327611 -2.2806772663 
7.9354864374 7.1210327611 -2.2806772663 7.9354864374 7.1210327611 -2.2806772663 7.4054395879 4.8217138761 -0.3184915555 
7.4054395879 4.8217138761 -0.3184915555 7.4054395879 4.8217138761 -0.3184915555 7.4054395879 4.8217138761 -0.3184915555 
7.4054395879 4.8217138761 -0.3184915555 7.4054395879 4.8217138761 -0.3184915555 7.4054395879 4.8217138761 -0.3184915555 
7.4054395879 4.8217138761 -0.3184915555 7.4054395879 4.8217138761 -0.3184915555 7.4054395879 4.8217138761 -0.3184915555 
7.4054395879 4.8217138761 -0.3184915555 7.4054395879 4.8217138761 -0.3184915555 7.4054395879 4.8217138761 -0.3184915555 
7.4054395879 4.8217138761 -0.3184915555 7.4054395879 4.8217138761 -0.3184915555 7.4054395879 4.8217138761 -0.3184915555 
7.4054395879 4.8217138761 -0.3184915555 7.4054395879 4.8217138761 -0.3184915555 7.4054395879 4.8217138761 -0.3184915555 
7.4054395879 4.8217138761 -0.3184915555 7.4054395879 4.8217138761 -0.3184915555 7.4054395879 4.8217138761 -0.3184915555 
7.4054395879 4.8217138761 -0.3184915555 7.4054395879 4.8217138761 -0.3184915555 7.4054395879 4.8217138761 -0.3184915555 
7.4054395879 4.8217138761 -0.3184915555 7.4054395879 4.8217138761 -0.3184915555 7.4054395879 4.8217138761 -0.3184915555 
7.4054395879 4.8217138761 -0.3184915555 7.4054395879 4.8217138761 -0.3184915555 7.4054395879 4.8217138761 -0.3184915555 
7.4054395879 4.8217138761 -0.3184915555 7.4054395879 4.8217138761 -0.3184915555 7.4054395879 4.8217138761 -0.3184915555 
7.4054395879 4.8217138761 -0.3184915555 7.4054395879 4.8217138761 -0.3184915555 7.4054395879 4.8217138761 -0.3184915555 
7.4054395879 4.8217138761 -0.3184915555 7.4054395879 4.8217138761 -0.3184915555 7.4054395879 4.8217138761 -0.3184915555 
7.4054395879 4.8217138761 -0.3184915555 7.4054395879 4.8217138761 -0.3184915555 7.4054395879 4.8217138761 -0.3184915555 
7.4054395879 4.8217138761 -0.3184915555 7.4054395879 4.8217138761 -0.3184915555 7.4054395879 4.8217138761 -0.3184915555 
7.4054395879 4.8217138761 -0.3184915555 7.4054395879 4.8217138761 -0.3184915555 7.4054395879 4.8217138761 -0.3184915555 
7.4054395879 4.8217138761 -0.3184915555 
