# vtk DataFile Version 4.1
Generated by LIGGGHTS
ASCII
DATASET POLYDATA
POINTS 100 float
-0.11719 -0.154346 0.0107933 -0.126924 -0.150548 0.0111883 -0.136636 -0.148544 0.0126704 
-0.124645 -0.161805 0.0121336 -0.111024 -0.162671 0.0124498 -0.132924 -0.158898 0.0123772 
-0.143386 -0.154654 0.0128478 -0.117239 -0.165738 0.00953953 -0.145342 -0.146361 0.0130766 
-0.119599 -0.143613 0.0116859 -0.131116 -0.167291 0.0113107 -0.140149 -0.160773 0.0121311 
-0.124225 -0.141986 0.0158154 -0.126171 -0.170511 0.00994378 -0.130447 -0.142311 0.0160818 
-0.136785 -0.164996 0.011165 -0.117781 -0.166039 0.0158038 -0.141867 -0.143205 0.0182143 
-0.115999 -0.144994 0.0059568 -0.149504 -0.151289 0.0117774 -0.120911 -0.147682 0.00364596 
-0.130637 -0.172898 0.0101459 -0.113816 -0.162684 0.00506218 -0.103628 -0.162491 0.0146208 
-0.107326 -0.157621 0.00856058 -0.120416 -0.145909 0.0173622 -0.108577 -0.157899 0.0175761 
-0.105919 -0.163472 0.0177727 -0.134703 -0.171394 0.0106865 -0.128272 -0.157258 0.0183639 
-0.137613 -0.169611 0.010989 -0.111139 -0.16868 0.00793438 -0.13308 -0.146336 0.00476681 
-0.121401 -0.170666 0.00824029 -0.151007 -0.145438 0.0113425 -0.110505 -0.160576 0.00509827 
-0.141552 -0.166213 0.0112801 -0.121534 -0.169819 0.0116665 -0.14682 -0.160028 0.0114729 
-0.12499 -0.140694 0.0105399 -0.137754 -0.156102 0.00764244 -0.123027 -0.168081 0.00646666 
-0.118237 -0.162227 0.0180559 -0.11976 -0.162384 0.00432833 -0.144124 -0.150095 0.0176884 
-0.149604 -0.15635 0.0115258 -0.106925 -0.153731 0.00889908 -0.127878 -0.140705 0.0119297 
-0.141378 -0.169278 0.0116166 -0.134642 -0.141331 0.0184603 -0.0463962 -0.124071 0.010365 
-0.0564509 -0.121451 0.0115385 -0.0661946 -0.120626 0.0137548 -0.0528125 -0.132374 0.0120691 
-0.039197 -0.131633 0.011392 -0.061333 -0.130466 0.012968 -0.0721549 -0.12749 0.0142786 
-0.0452095 -0.135371 0.00886601 -0.0750417 -0.11949 0.0148302 -0.0499671 -0.113709 0.0116649 
-0.0586433 -0.138572 0.0115895 -0.0682885 -0.133175 0.0131973 -0.0544343 -0.112695 0.0161493 
-0.0534709 -0.141168 0.00980171 -0.0605397 -0.113754 0.0168524 -0.0645362 -0.136959 0.0119 
-0.0452501 -0.135819 0.0151448 -0.0715893 -0.116017 0.019775 -0.0466612 -0.114579 0.00566394 
-0.0786855 -0.124855 0.0137229 -0.0513831 -0.117795 0.00365104 -0.0576016 -0.144067 0.0102695 
-0.0425045 -0.131874 0.00422426 -0.0317333 -0.130612 0.0130324 -0.0364091 -0.12613 0.00736123 
-0.0500908 -0.116162 0.0173328 -0.0369521 -0.126677 0.0164347 -0.0336558 -0.131899 0.0163175 
-0.0617634 -0.14306 0.0111324 -0.056476 -0.12837 0.0186417 -0.0648316 -0.141637 0.0116815 
-0.0389436 -0.137551 0.00676442 -0.0635109 -0.117907 0.0056681 -0.0488531 -0.140737 0.00775869 
-0.0808883 -0.119216 0.0135263 -0.0394674 -0.129392 0.00407029 -0.0691075 -0.13873 0.0123285 
-0.0488321 -0.139958 0.0112036 -0.0750315 -0.133212 0.0130341 -0.0557307 -0.11143 0.0109719 
-0.0667912 -0.128194 0.00865345 -0.0508954 -0.138337 0.00616346 -0.0459807 -0.132118 0.0175076 
-0.0484805 -0.132267 0.00392381 -0.0730613 -0.123116 0.0192594 -0.0782138 -0.129889 0.0133672 
-0.0364401 -0.122225 0.00775625 -0.0584878 -0.111801 0.0125638 -0.0685529 -0.141758 0.0125837 
-0.0646339 -0.113308 0.0195457 
VERTICES 100 200
1 0 
1 1 
1 2 
1 3 
1 4 
1 5 
1 6 
1 7 
1 8 
1 9 
1 10 
1 11 
1 12 
1 13 
1 14 
1 15 
1 16 
1 17 
1 18 
1 19 
1 20 
1 21 
1 22 
1 23 
1 24 
1 25 
1 26 
1 27 
1 28 
1 29 
1 30 
1 31 
1 32 
1 33 
1 34 
1 35 
1 36 
1 37 
1 38 
1 39 
1 40 
1 41 
1 42 
1 43 
1 44 
1 45 
1 46 
1 47 
1 48 
1 49 
1 50 
1 51 
1 52 
1 53 
1 54 
1 55 
1 56 
1 57 
1 58 
1 59 
1 60 
1 61 
1 62 
1 63 
1 64 
1 65 
1 66 
1 67 
1 68 
1 69 
1 70 
1 71 
1 72 
1 73 
1 74 
1 75 
1 76 
1 77 
1 78 
1 79 
1 80 
1 81 
1 82 
1 83 
1 84 
1 85 
1 86 
1 87 
1 88 
1 89 
1 90 
1 91 
1 92 
1 93 
1 94 
1 95 
1 96 
1 97 
1 98 
1 99 

POINT_DATA 100
FIELD FieldData 7
id 1 100 int
1 2 3 4 5 6 7 8 9 
10 11 12 13 14 15 16 17 18 
19 20 21 22 23 24 25 26 27 
28 29 30 31 32 33 34 35 36 
37 38 39 40 41 42 43 44 45 
46 47 48 49 50 51 52 53 54 
55 56 57 58 59 60 61 62 63 
64 65 66 67 68 69 70 71 72 
73 74 75 76 77 78 79 80 81 
82 83 84 85 86 87 88 89 90 
91 92 93 94 95 96 97 98 99 
100 
mol 1 100 int
1 1 1 1 1 1 1 1 1 
1 1 1 1 1 1 1 1 1 
1 1 1 1 1 1 1 1 1 
1 1 1 1 1 1 1 1 1 
1 1 1 1 1 1 1 1 1 
1 1 1 1 1 2 2 2 2 
2 2 2 2 2 2 2 2 2 
2 2 2 2 2 2 2 2 2 
2 2 2 2 2 2 2 2 2 
2 2 2 2 2 2 2 2 2 
2 2 2 2 2 2 2 2 2 
2 
type 1 100 int
1 1 1 1 1 1 1 1 1 
1 1 1 1 1 1 1 1 1 
1 1 1 1 1 1 1 1 1 
1 1 1 1 1 1 1 1 1 
1 1 1 1 1 1 1 1 1 
1 1 1 1 1 1 1 1 1 
1 1 1 1 1 1 1 1 1 
1 1 1 1 1 1 1 1 1 
1 1 1 1 1 1 1 1 1 
1 1 1 1 1 1 1 1 1 
1 1 1 1 1 1 1 1 1 
1 
v 3 100 double
-0.033784795422 -0.20325310453 -0.11210890012 -0.029301994849 -0.19670873965 -0.064564530425 -0.029777756769 -0.21001654662 -0.049689087651 
-0.047305535286 -0.21716110615 -0.26471822143 -0.049233447565 -0.24215968383 -0.25012810566 -0.043744181886 -0.20991399495 -0.23018120859 
-0.038800590812 -0.20372007723 -0.17613375902 -0.047074043657 -0.18032628262 -0.31990614609 -0.027601897454 -0.20513037496 -0.029312280002 
-0.020619614435 -0.21612498125 0.07820566056 -0.053216592054 -0.19302279893 -0.37916396507 -0.045842035175 -0.19522614558 -0.28046601021 
-0.027532055204 -0.28487846162 0.097543526786 -0.05471503749 -0.17508369773 -0.42684442128 -0.028584795234 -0.28094973299 0.077745844973 
-0.049651394765 -0.18236080566 -0.34997078146 -0.061468459726 -0.29376649518 -0.32659505799 -0.034603390296 -0.30370224085 0.035970893142 
-0.009793949912 -0.11676028598 0.061046812808 -0.03166273383 -0.17556714872 -0.1284366617 -0.0084356273716 -0.067695625963 0.0010923915003 
-0.058535497223 -0.17246213611 -0.48031350391 -0.032775861005 -0.10353207962 -0.25658110998 -0.05382014863 -0.29218081181 -0.23034686267 
-0.033429381304 -0.17647522945 -0.14981284463 -0.036520260227 -0.31845719226 0.034524814156 -0.053927872861 -0.33907227627 -0.15767744599 
-0.062234842119 -0.34641044983 -0.2533445557 -0.057617813333 -0.17657904162 -0.46196241878 -0.054778874946 -0.32562536296 -0.18990335863 
-0.055775135086 -0.1779835988 -0.43595197276 -0.047647461109 -0.1596750548 -0.35992645707 -0.0090352306187 -0.070946931727 -0.0015143915913 
-0.051134896166 -0.15076304408 -0.41903075552 -0.022430694926 -0.16551668421 -0.025109128364 -0.029880449405 -0.10886594859 -0.21077214733 
-0.051625386575 -0.17772927677 -0.38277338245 -0.057579185887 -0.21303849697 -0.40387965637 -0.043322099438 -0.17380570964 -0.28176079018 
-0.013942323567 -0.1876200119 0.11940005814 -0.029236782259 -0.11677306336 -0.18997282981 -0.043528814032 -0.11613178892 -0.37551994099 
-0.061108109818 -0.33417991682 -0.25811342563 -0.030716601537 -0.081760695361 -0.26437828644 -0.043158107237 -0.29092697706 -0.094662194864 
-0.038247356569 -0.17083903927 -0.22092283898 -0.028691264628 -0.18321289172 -0.077994296004 -0.017058203006 -0.20887834295 0.11274416955 
-0.056704027111 -0.18411078822 -0.43826826352 -0.032505420115 -0.31838919891 0.086255796299 0.01108572127 -0.18393972609 -0.08544803234 
0.015378020666 -0.19056735318 -0.03387305085 0.017703794414 -0.21605228384 -0.014154856928 0.00034013043817 -0.20504241306 -0.22872936262 
0.0010217444371 -0.21217630148 -0.22282467352 0.0034896492664 -0.208971682 -0.19053476275 0.0083532736124 -0.21694767978 -0.1322701096 
-0.0055517135665 -0.15912467289 -0.28568704369 0.019863904746 -0.22264284545 0.010577090088 0.026302381132 -0.2018936712 0.099473339473 
-0.0086051013295 -0.18839346976 -0.335146506 -0.00018848971304 -0.20326797645 -0.23472101224 0.030087721911 -0.27484364575 0.11973896887 
-0.013188419772 -0.16406743536 -0.38373614717 0.028972950965 -0.27870072642 0.10424788264 -0.0061798062331 -0.18561408426 -0.30355310718 
-0.002870332901 -0.26997899621 -0.29357118048 0.027340368528 -0.31483145645 0.070106132127 0.021920001599 -0.10052589557 0.082366752436 
0.011755338834 -0.19797274151 -0.082287119336 0.0163491392 -0.058347153277 0.028047038877 -0.017006785215 -0.1665384169 -0.43276070413 
-0.0030933544165 -0.080924033278 -0.22533410915 0.0033177955822 -0.25162057247 -0.208726739 0.0066148033896 -0.14488499252 -0.12708688345 
0.025848991585 -0.30184053465 0.056202757238 0.010630363035 -0.30440095123 -0.13645264256 0.003244131424 -0.30695350187 -0.23044854476 
-0.015139808194 -0.17594473451 -0.41277920389 0.0094181371167 -0.31600681055 -0.15608323335 -0.012854599357 -0.18134052479 -0.38602253018 
-0.0097167266818 -0.13078844238 -0.32750070991 0.017254129627 -0.07696946161 0.032448057164 -0.013660299485 -0.1344545217 -0.37855148738 
0.019559895631 -0.191409884 0.018485049549 0.00030671251807 -0.082463421594 -0.18308550653 -0.0084371687109 -0.18677282729 -0.33242220165 
-0.010752208856 -0.19533686179 -0.36480068606 -0.00032659784286 -0.19092862039 -0.2318235265 0.029133113381 -0.18156892451 0.14276709732 
0.0044020912459 -0.12510384905 -0.14752442286 -0.011135458362 -0.10341161944 -0.33508287321 0.0035649082677 -0.31069175319 -0.22781287586 
-0.003802741263 -0.067235942765 -0.22912557601 0.017112447479 -0.3036584254 -0.054525541411 0.0045090646191 -0.19235039557 -0.1714480245 
0.012299985191 -0.15181931867 -0.058082470423 0.029452033321 -0.20582349455 0.1376694108 -0.012548674133 -0.19205954908 -0.38619728347 
0.031018493417 -0.32053434053 0.11429251284 
f 3 100 double
0 0 0 0 0 0 0 0 0 
0 0 0 0 0 0 0 0 0 
0 0 0 0 0 0 0 0 0 
0 0 0 0 0 0 0 0 0 
0 0 0 0 0 0 0 0 0 
0 0 0 0 0 0 0 0 0 
0 0 0 0 0 0 -0.056885832556 -0.031756282301 0.20413192303 
0 0 0 0 0 0 0 0 0 
0 0 0 0 0 0 0 0 0 
0 0 0 0 0 0 0 0 0 
0 0 0 0 0 0 0 0 0 
0 0 0 0 0 0 0 0 0 
0 0 0 0 0 0 0 0 0 
0 0 0 0 0 0 0 0 0 
0 0 0 0 0 0 0 0 0 
0 0 0 0 0 0 0 0 0 
0 0 0 0 0 0 -0.058472227522 0.023791006833 1.7272088952 
0 0 0 0 0 0 0 0 0 
0 0 0 0 0 0 0 0 0 
0 0 0 0 0 0 0 0 0 
0 0 0 0 0 0 0 0 0 
0 0 0 0 0 0 0 0 0 
0 0 0 0 0 0 0 0 0 
0 0 0 -0.13498752558 -0.062172947001 -0.10130805956 0 0 0 
0 0 0 0 0 0 0 0 0 
0 0 0 0 0 0 0 0 0 
0 0 0 0 0 0 0 0 0 
0 0 0 0 0 0 0 0 0 
0 0 0 0 0 0 0 0 0 
0 0 0 0 0 0 0 0 0 
0 0 0 0 0 0 0 0 0 
0 0 0 0 0 0 0 0 0 
0 0 0 0 0 0 0 0 0 
0 0 0 
radius 1 100 double
0.010434 0.00981478 0.00892069 0.00845937 0.00731974 0.00728422 0.00643447 0.00619172 0.00585956 
0.00577566 0.00537241 0.00522549 0.00513666 0.00473175 0.00466912 0.00444866 0.00441894 0.00400812 
0.00385622 0.00379948 0.00370243 0.00366942 0.00364039 0.00363813 0.00363644 0.00358692 0.0035797 
0.00341284 0.00337012 0.00336273 0.00332772 0.00323261 0.00320584 0.00320311 0.00318808 0.00313116 
0.00306026 0.00305632 0.00304383 0.00300958 0.00300137 0.00298994 0.0029567 0.00295111 0.00290849 
0.00284552 0.00282964 0.0028207 0.00281971 0.00281899 0.010434 0.00981478 0.00892069 0.00845937 
0.00731974 0.00728422 0.00643447 0.00619172 0.00585956 0.00577566 0.00537241 0.00522549 0.00513666 
0.00473175 0.00466912 0.00444866 0.00441894 0.00400812 0.00385622 0.00379948 0.00370243 0.00366942 
0.00364039 0.00363813 0.00363644 0.00358692 0.0035797 0.00341284 0.00337012 0.00336273 0.00332772 
0.00323261 0.00320584 0.00320311 0.00318808 0.00313116 0.00306026 0.00305632 0.00304383 0.00300958 
0.00300137 0.00298994 0.0029567 0.00295111 0.00290849 0.00284552 0.00282964 0.0028207 0.00281971 
0.00281899 
omega 3 100 double
18.231119056 -2.2300880858 -1.4119855041 18.231119056 -2.2300880858 -1.4119855041 18.231119056 -2.2300880858 -1.4119855041 
18.231119056 -2.2300880858 -1.4119855041 18.231119056 -2.2300880858 -1.4119855041 18.231119056 -2.2300880858 -1.4119855041 
18.231119056 -2.2300880858 -1.4119855041 18.231119056 -2.2300880858 -1.4119855041 18.231119056 -2.2300880858 -1.4119855041 
18.231119056 -2.2300880858 -1.4119855041 18.231119056 -2.2300880858 -1.4119855041 18.231119056 -2.2300880858 -1.4119855041 
18.231119056 -2.2300880858 -1.4119855041 18.231119056 -2.2300880858 -1.4119855041 18.231119056 -2.2300880858 -1.4119855041 
18.231119056 -2.2300880858 -1.4119855041 18.231119056 -2.2300880858 -1.4119855041 18.231119056 -2.2300880858 -1.4119855041 
18.231119056 -2.2300880858 -1.4119855041 18.231119056 -2.2300880858 -1.4119855041 18.231119056 -2.2300880858 -1.4119855041 
18.231119056 -2.2300880858 -1.4119855041 18.231119056 -2.2300880858 -1.4119855041 18.231119056 -2.2300880858 -1.4119855041 
18.231119056 -2.2300880858 -1.4119855041 18.231119056 -2.2300880858 -1.4119855041 18.231119056 -2.2300880858 -1.4119855041 
18.231119056 -2.2300880858 -1.4119855041 18.231119056 -2.2300880858 -1.4119855041 18.231119056 -2.2300880858 -1.4119855041 
18.231119056 -2.2300880858 -1.4119855041 18.231119056 -2.2300880858 -1.4119855041 18.231119056 -2.2300880858 -1.4119855041 
18.231119056 -2.2300880858 -1.4119855041 18.231119056 -2.2300880858 -1.4119855041 18.231119056 -2.2300880858 -1.4119855041 
18.231119056 -2.2300880858 -1.4119855041 18.231119056 -2.2300880858 -1.4119855041 18.231119056 -2.2300880858 -1.4119855041 
18.231119056 -2.2300880858 -1.4119855041 18.231119056 -2.2300880858 -1.4119855041 18.231119056 -2.2300880858 -1.4119855041 
18.231119056 -2.2300880858 -1.4119855041 18.231119056 -2.2300880858 -1.4119855041 18.231119056 -2.2300880858 -1.4119855041 
18.231119056 -2.2300880858 -1.4119855041 18.231119056 -2.2300880858 -1.4119855041 18.231119056 -2.2300880858 -1.4119855041 
18.231119056 -2.2300880858 -1.4119855041 18.231119056 -2.2300880858 -1.4119855041 17.664469034 0.52701431412 -1.4023918832 
17.664469034 0.52701431412 -1.4023918832 17.664469034 0.52701431412 -1.4023918832 17.664469034 0.52701431412 -1.4023918832 
17.664469034 0.52701431412 -1.4023918832 17.664469034 0.52701431412 -1.4023918832 17.664469034 0.52701431412 -1.4023918832 
17.664469034 0.52701431412 -1.4023918832 17.664469034 0.52701431412 -1.4023918832 17.664469034 0.52701431412 -1.4023918832 
17.664469034 0.52701431412 -1.4023918832 17.664469034 0.52701431412 -1.4023918832 17.664469034 0.52701431412 -1.4023918832 
17.664469034 0.52701431412 -1.4023918832 17.664469034 0.52701431412 -1.4023918832 17.664469034 0.52701431412 -1.4023918832 
17.664469034 0.52701431412 -1.4023918832 17.664469034 0.52701431412 -1.4023918832 17.664469034 0.52701431412 -1.4023918832 
17.664469034 0.52701431412 -1.4023918832 17.664469034 0.52701431412 -1.4023918832 17.664469034 0.52701431412 -1.4023918832 
17.664469034 0.52701431412 -1.4023918832 17.664469034 0.52701431412 -1.4023918832 17.664469034 0.52701431412 -1.4023918832 
17.664469034 0.52701431412 -1.4023918832 17.664469034 0.52701431412 -1.4023918832 17.664469034 0.52701431412 -1.4023918832 
17.664469034 0.52701431412 -1.4023918832 17.664469034 0.52701431412 -1.4023918832 17.664469034 0.52701431412 -1.4023918832 
17.664469034 0.52701431412 -1.4023918832 17.664469034 0.52701431412 -1.4023918832 17.664469034 0.52701431412 -1.4023918832 
17.664469034 0.52701431412 -1.4023918832 17.664469034 0.52701431412 -1.4023918832 17.664469034 0.52701431412 -1.4023918832 
17.664469034 0.52701431412 -1.4023918832 17.664469034 0.52701431412 -1.4023918832 17.664469034 0.52701431412 -1.4023918832 
17.664469034 0.52701431412 -1.4023918832 17.664469034 0.52701431412 -1.4023918832 17.664469034 0.52701431412 -1.4023918832 
17.664469034 0.52701431412 -1.4023918832 17.664469034 0.52701431412 -1.4023918832 17.664469034 0.52701431412 -1.4023918832 
17.664469034 0.52701431412 -1.4023918832 17.664469034 0.52701431412 -1.4023918832 17.664469034 0.52701431412 -1.4023918832 
17.664469034 0.52701431412 -1.4023918832 
