# vtk DataFile Version 4.1
Generated by LIGGGHTS
ASCII
DATASET POLYDATA
POINTS 100 float
-0.11177 -0.130843 0.0229176 -0.122127 -0.131773 0.0218218 -0.132115 -0.131997 0.0226672 
-0.116908 -0.132533 0.032069 -0.10381 -0.129552 0.0296298 -0.125611 -0.133473 0.031419 
-0.136796 -0.134398 0.0301002 -0.108388 -0.134224 0.0333334 -0.141041 -0.133008 0.0228411 
-0.117237 -0.128447 0.0136345 -0.121353 -0.135716 0.038608 -0.131883 -0.135574 0.0348868 
-0.122698 -0.125142 0.0142258 -0.11555 -0.136609 0.040098 -0.128537 -0.126246 0.0161153 
-0.127352 -0.136603 0.0378022 -0.109752 -0.128385 0.0352489 -0.139416 -0.126754 0.0202573 
-0.112578 -0.133455 0.0126804 -0.143386 -0.136061 0.0281774 -0.116119 -0.137208 0.0158526 
-0.11913 -0.137801 0.0434802 -0.105346 -0.137224 0.0285541 -0.0971832 -0.125892 0.0281731 
-0.101164 -0.13155 0.0230493 -0.118206 -0.123609 0.0173513 -0.103617 -0.123215 0.0257762 
-0.0995446 -0.123533 0.0304099 -0.123489 -0.137844 0.0431901 -0.122568 -0.126448 0.030175 
-0.126797 -0.137822 0.0422987 -0.101536 -0.135051 0.034222 -0.128193 -0.138416 0.0178307 
-0.110733 -0.137277 0.0386697 -0.146409 -0.135678 0.0229424 -0.102815 -0.136097 0.0257731 
-0.131537 -0.137718 0.0401375 -0.111613 -0.133857 0.0387269 -0.138314 -0.137456 0.0356594 
-0.123001 -0.130116 0.0119346 -0.130272 -0.138491 0.0288376 -0.112743 -0.138826 0.0362128 
-0.111606 -0.125595 0.0323179 -0.11095 -0.139111 0.0295495 -0.139515 -0.129041 0.0271563 
-0.142004 -0.137286 0.0328968 -0.101941 -0.130401 0.019377 -0.12594 -0.129388 0.0129844 
-0.130551 -0.137942 0.0430557 -0.133144 -0.124654 0.0167895 -0.0428968 -0.103053 0.023043 
-0.053223 -0.103987 0.0216887 -0.0632287 -0.104229 0.0222893 -0.0482538 -0.104818 0.0320538 
-0.0351048 -0.101803 0.0299563 -0.0569371 -0.105765 0.0311852 -0.0680848 -0.106692 0.0295879 
-0.0397647 -0.106509 0.033512 -0.0721544 -0.105253 0.0222385 -0.0481405 -0.100593 0.0136482 
-0.0528515 -0.108057 0.0384584 -0.0632881 -0.107899 0.0344835 -0.0536184 -0.0972987 0.0141315 
-0.0470852 -0.108954 0.0400822 -0.0595006 -0.0984248 0.0158701 -0.058828 -0.108944 0.0375003 
-0.0411833 -0.100686 0.0354379 -0.0704758 -0.098977 0.0197425 -0.0434521 -0.105588 0.0127697 
-0.0746244 -0.108349 0.0274929 -0.0470642 -0.109369 0.0158264 -0.0507454 -0.110176 0.0433673 
-0.0366031 -0.109468 0.0287854 -0.0284492 -0.0981239 0.0286889 -0.032296 -0.103748 0.0234272 
-0.0492065 -0.0957848 0.0173768 -0.0348267 -0.0954374 0.0261567 -0.0308676 -0.0957849 0.0308855 
-0.0550952 -0.110222 0.042971 -0.0538741 -0.0987258 0.0300689 -0.058381 -0.110198 0.0419996 
-0.0329345 -0.107334 0.0345607 -0.0591814 -0.110607 0.017501 -0.0422346 -0.109605 0.0387664 
-0.0775198 -0.10793 0.022189 -0.0340067 -0.108318 0.0260755 -0.0630674 -0.110083 0.0397246 
-0.0431204 -0.106186 0.0388281 -0.0697334 -0.109794 0.0350852 -0.0538586 -0.102256 0.011796 
-0.0615271 -0.110768 0.0284533 -0.0441821 -0.111137 0.0362497 -0.0429687 -0.0978758 0.032484 
-0.0422269 -0.11137 0.02963 -0.0707399 -0.101316 0.0266195 -0.0733559 -0.109608 0.0322351 
-0.0329854 -0.102572 0.0197458 -0.0568239 -0.101539 0.0127795 -0.0621516 -0.110328 0.0426642 
-0.0641248 -0.0968428 0.0164441 
VERTICES 100 200
1 0 
1 1 
1 2 
1 3 
1 4 
1 5 
1 6 
1 7 
1 8 
1 9 
1 10 
1 11 
1 12 
1 13 
1 14 
1 15 
1 16 
1 17 
1 18 
1 19 
1 20 
1 21 
1 22 
1 23 
1 24 
1 25 
1 26 
1 27 
1 28 
1 29 
1 30 
1 31 
1 32 
1 33 
1 34 
1 35 
1 36 
1 37 
1 38 
1 39 
1 40 
1 41 
1 42 
1 43 
1 44 
1 45 
1 46 
1 47 
1 48 
1 49 
1 50 
1 51 
1 52 
1 53 
1 54 
1 55 
1 56 
1 57 
1 58 
1 59 
1 60 
1 61 
1 62 
1 63 
1 64 
1 65 
1 66 
1 67 
1 68 
1 69 
1 70 
1 71 
1 72 
1 73 
1 74 
1 75 
1 76 
1 77 
1 78 
1 79 
1 80 
1 81 
1 82 
1 83 
1 84 
1 85 
1 86 
1 87 
1 88 
1 89 
1 90 
1 91 
1 92 
1 93 
1 94 
1 95 
1 96 
1 97 
1 98 
1 99 

POINT_DATA 100
FIELD FieldData 7
id 1 100 int
1 2 3 4 5 6 7 8 9 
10 11 12 13 14 15 16 17 18 
19 20 21 22 23 24 25 26 27 
28 29 30 31 32 33 34 35 36 
37 38 39 40 41 42 43 44 45 
46 47 48 49 50 51 52 53 54 
55 56 57 58 59 60 61 62 63 
64 65 66 67 68 69 70 71 72 
73 74 75 76 77 78 79 80 81 
82 83 84 85 86 87 88 89 90 
91 92 93 94 95 96 97 98 99 
100 
mol 1 100 int
1 1 1 1 1 1 1 1 1 
1 1 1 1 1 1 1 1 1 
1 1 1 1 1 1 1 1 1 
1 1 1 1 1 1 1 1 1 
1 1 1 1 1 1 1 1 1 
1 1 1 1 1 2 2 2 2 
2 2 2 2 2 2 2 2 2 
2 2 2 2 2 2 2 2 2 
2 2 2 2 2 2 2 2 2 
2 2 2 2 2 2 2 2 2 
2 2 2 2 2 2 2 2 2 
2 
type 1 100 int
1 1 1 1 1 1 1 1 1 
1 1 1 1 1 1 1 1 1 
1 1 1 1 1 1 1 1 1 
1 1 1 1 1 1 1 1 1 
1 1 1 1 1 1 1 1 1 
1 1 1 1 1 1 1 1 1 
1 1 1 1 1 1 1 1 1 
1 1 1 1 1 1 1 1 1 
1 1 1 1 1 1 1 1 1 
1 1 1 1 1 1 1 1 1 
1 1 1 1 1 1 1 1 1 
1 
v 3 100 double
-0.11217982969 -0.060973145591 0.11481083912 -0.10423937276 -0.061397591593 0.04012608535 -0.11012789484 -0.065601893202 -0.030556627065 
-0.17610523277 -0.080524977935 0.075307615653 -0.15970406727 -0.072357251791 0.17335612784 -0.17129678727 -0.081421794945 0.012233208998 
-0.16179052091 -0.081610130891 -0.068257269557 -0.18456951685 -0.080899655848 0.13184508937 -0.11109592325 -0.068198692264 -0.095337841892 
-0.047506472992 -0.043832008295 0.081143582814 -0.22128378487 -0.094690231618 0.037702852244 -0.19515253212 -0.089920759444 -0.036057219043 
-0.052497334839 -0.046387939954 0.049340795811 -0.23153586198 -0.096199838666 0.076728673043 -0.065505914327 -0.051629475933 0.0060735382844 
-0.21539431574 -0.094594899831 -0.0062493643063 -0.19951060615 -0.085064832422 0.13389957558 -0.094503742628 -0.062634607163 -0.071434560705 
-0.039535006286 -0.040754033797 0.10392000555 -0.14785049041 -0.079435507722 -0.11791919295 -0.060895581725 -0.04797511019 0.071530872527 
-0.25501887596 -0.10384985756 0.049171232758 -0.15020589385 -0.070598292447 0.14725316099 -0.15038342115 -0.067780729759 0.22725939002 
-0.11292747774 -0.058562351482 0.18798166399 -0.074861482969 -0.051491023473 0.083979739678 -0.13420333347 -0.064620800859 0.18735568953 
-0.16670700385 -0.072838303181 0.21536040963 -0.25296785513 -0.10436962867 0.018438620346 -0.16432048925 -0.078173035124 0.0476501826 
-0.24670529785 -0.10342529783 -0.0047819450016 -0.19060988299 -0.080945135048 0.17838229836 -0.074500098419 -0.054964692015 -0.015784916642 
-0.22132413884 -0.092136479574 0.10926394162 -0.11113502771 -0.069753864858 -0.13841281473 -0.13093459909 -0.064412403072 0.16729923189 
-0.2315340577 -0.10030858244 -0.037906734392 -0.22258812948 -0.0924722898 0.10989962514 -0.20011073653 -0.093083030437 -0.085033445392 
-0.035132031378 -0.041893458114 0.037286672884 -0.15188022624 -0.077447011503 -0.030553371463 -0.20365699565 -0.087741659422 0.092040685175 
-0.17960404368 -0.07968489951 0.12643420729 -0.15672970014 -0.07399664093 0.10408192536 -0.14243998882 -0.076422853455 -0.076696471814 
-0.18072795992 -0.088502213096 -0.11064618772 -0.087393775439 -0.051432152146 0.18480777202 -0.042697599726 -0.04472872336 0.018068634561 
-0.25199804072 -0.10588157614 -0.031415504494 -0.070647901664 -0.054135626051 -0.023144429959 -0.11149066931 -0.060644305109 0.066945080136 
-0.10187395741 -0.060888544416 -0.0062069016946 -0.10595539326 -0.06485208566 -0.075796927589 -0.17324329148 -0.079694826375 0.026500198764 
-0.15959603181 -0.071937522295 0.12320743838 -0.16697891442 -0.080426817716 -0.035326724874 -0.1556862123 -0.080427253037 -0.1141417815 
-0.18284478913 -0.080165808345 0.081848972558 -0.1053186972 -0.067245030236 -0.13944969849 -0.047278312061 -0.043804895192 0.035514589634 
-0.21658218029 -0.093456209408 -0.011570428817 -0.18916755639 -0.088625768224 -0.083357170884 -0.051537100385 -0.046275915376 0.0040923009592 
-0.22754880182 -0.095009837795 0.02651623857 -0.063232813998 -0.051305331187 -0.038736133847 -0.20971610437 -0.093258167689 -0.054583988835 
-0.19777457958 -0.084314025764 0.08339290044 -0.089828365099 -0.061913572058 -0.1156278232 -0.039815461819 -0.040784481203 0.058171748302 
-0.14075155541 -0.078171430505 -0.16254403666 -0.059874963539 -0.047747997405 0.025852343281 -0.2499006708 -0.10243178312 -0.0011493698988 
-0.14936778416 -0.07007472176 0.097923376819 -0.15186833228 -0.067610298505 0.17635136496 -0.11395011718 -0.058433098812 0.13882079715 
-0.074377930296 -0.05136674382 0.037518687756 -0.1351256108 -0.064457345299 0.13752992799 -0.16769507351 -0.072564869133 0.16420256224 
-0.24714999914 -0.10287405701 -0.031287864136 -0.16123263048 -0.077396865336 -0.00045477474816 -0.24044676788 -0.10189895498 -0.053937890558 
-0.18985866434 -0.080302034136 0.12742346484 -0.07109782777 -0.054393540126 -0.060264340303 -0.21827770603 -0.091092217151 0.058754832689 
-0.10422925921 -0.068646490909 -0.18172912853 -0.13096867041 -0.064070180812 0.1181011785 -0.22476330904 -0.098775114935 -0.086087795262 
-0.21965807091 -0.091459647642 0.059295988639 -0.19279488811 -0.091597430237 -0.13157358002 -0.034019408602 -0.041792837826 -0.0072252825013 
-0.14671032383 -0.076385943622 -0.076782644905 -0.20046439307 -0.086732731264 0.042316221497 -0.17815381998 -0.079057597437 0.076534762122 
-0.1546708837 -0.07329015395 0.055369327134 -0.13668124729 -0.075385277099 -0.12200898817 -0.17315886966 -0.087056214267 -0.15623501691 
-0.088847932132 -0.051453477155 0.13634916101 -0.041013503301 -0.044536785857 -0.026312855469 -0.24500122198 -0.10424639242 -0.080239060969 
-0.067639619841 -0.053714604094 -0.06759766603 
f 3 100 double
0 0 0 0 0 0 0 0 0 
0 0 0 0 0 0 0 0 0 
0 0 0 0 0 0 0 0 0 
0 0 0 0 0 0 0 0 0 
0 0 0 0 0 0 0 0 0 
0 0 0 0 0 0 0 0 0 
0 0 0 0 0 0 0 0 0 
0 0 0 0 0 0 0 0 0 
0 0 0 0 0 0 0 0 0 
0 0 0 0 0 0 0 0 0 
0 0 0 0 0 0 0 0 0 
0 0 0 0 0 0 0 0 0 
0 0 0 0 0 0 0 0 0 
0 0 0 0 0 0 0 0 0 
0 0 0 0 0 0 0 0 0 
0 0 0 0 0 0 0 0 0 
0 0 0 0 0 0 0 0 0 
0 0 0 0 0 0 0 0 0 
0 0 0 0 0 0 0 0 0 
0 0 0 0 0 0 0 0 0 
0 0 0 0 0 0 0 0 0 
0 0 0 0 0 0 0 0 0 
0 0 0 0 0 0 0 0 0 
0 0 0 0 0 0 0 0 0 
0 0 0 0 0 0 0 0 0 
0 0 0 0 0 0 0 0 0 
0 0 0 0 0 0 0 0 0 
0 0 0 0 0 0 0 0 0 
0 0 0 0 0 0 0 0 0 
0 0 0 0 0 0 0 0 0 
0 0 0 0 0 0 0 0 0 
0 0 0 0 0 0 0 0 0 
0 0 0 0 0 0 0 0 0 
0 0 0 
radius 1 100 double
0.010434 0.00981478 0.00892069 0.00845937 0.00731974 0.00728422 0.00643447 0.00619172 0.00585956 
0.00577566 0.00537241 0.00522549 0.00513666 0.00473175 0.00466912 0.00444866 0.00441894 0.00400812 
0.00385622 0.00379948 0.00370243 0.00366942 0.00364039 0.00363813 0.00363644 0.00358692 0.0035797 
0.00341284 0.00337012 0.00336273 0.00332772 0.00323261 0.00320584 0.00320311 0.00318808 0.00313116 
0.00306026 0.00305632 0.00304383 0.00300958 0.00300137 0.00298994 0.0029567 0.00295111 0.00290849 
0.00284552 0.00282964 0.0028207 0.00281971 0.00281899 0.010434 0.00981478 0.00892069 0.00845937 
0.00731974 0.00728422 0.00643447 0.00619172 0.00585956 0.00577566 0.00537241 0.00522549 0.00513666 
0.00473175 0.00466912 0.00444866 0.00441894 0.00400812 0.00385622 0.00379948 0.00370243 0.00366942 
0.00364039 0.00363813 0.00363644 0.00358692 0.0035797 0.00341284 0.00337012 0.00336273 0.00332772 
0.00323261 0.00320584 0.00320311 0.00318808 0.00313116 0.00306026 0.00305632 0.00304383 0.00300958 
0.00300137 0.00298994 0.0029567 0.00295111 0.00290849 0.00284552 0.00282964 0.0028207 0.00281971 
0.00281899 
omega 3 100 double
1.9949498024 -7.0318406741 0.25206549796 1.9949498024 -7.0318406741 0.25206549796 1.9949498024 -7.0318406741 0.25206549796 
1.9949498024 -7.0318406741 0.25206549796 1.9949498024 -7.0318406741 0.25206549796 1.9949498024 -7.0318406741 0.25206549796 
1.9949498024 -7.0318406741 0.25206549796 1.9949498024 -7.0318406741 0.25206549796 1.9949498024 -7.0318406741 0.25206549796 
1.9949498024 -7.0318406741 0.25206549796 1.9949498024 -7.0318406741 0.25206549796 1.9949498024 -7.0318406741 0.25206549796 
1.9949498024 -7.0318406741 0.25206549796 1.9949498024 -7.0318406741 0.25206549796 1.9949498024 -7.0318406741 0.25206549796 
1.9949498024 -7.0318406741 0.25206549796 1.9949498024 -7.0318406741 0.25206549796 1.9949498024 -7.0318406741 0.25206549796 
1.9949498024 -7.0318406741 0.25206549796 1.9949498024 -7.0318406741 0.25206549796 1.9949498024 -7.0318406741 0.25206549796 
1.9949498024 -7.0318406741 0.25206549796 1.9949498024 -7.0318406741 0.25206549796 1.9949498024 -7.0318406741 0.25206549796 
1.9949498024 -7.0318406741 0.25206549796 1.9949498024 -7.0318406741 0.25206549796 1.9949498024 -7.0318406741 0.25206549796 
1.9949498024 -7.0318406741 0.25206549796 1.9949498024 -7.0318406741 0.25206549796 1.9949498024 -7.0318406741 0.25206549796 
1.9949498024 -7.0318406741 0.25206549796 1.9949498024 -7.0318406741 0.25206549796 1.9949498024 -7.0318406741 0.25206549796 
1.9949498024 -7.0318406741 0.25206549796 1.9949498024 -7.0318406741 0.25206549796 1.9949498024 -7.0318406741 0.25206549796 
1.9949498024 -7.0318406741 0.25206549796 1.9949498024 -7.0318406741 0.25206549796 1.9949498024 -7.0318406741 0.25206549796 
1.9949498024 -7.0318406741 0.25206549796 1.9949498024 -7.0318406741 0.25206549796 1.9949498024 -7.0318406741 0.25206549796 
1.9949498024 -7.0318406741 0.25206549796 1.9949498024 -7.0318406741 0.25206549796 1.9949498024 -7.0318406741 0.25206549796 
1.9949498024 -7.0318406741 0.25206549796 1.9949498024 -7.0318406741 0.25206549796 1.9949498024 -7.0318406741 0.25206549796 
1.9949498024 -7.0318406741 0.25206549796 1.9949498024 -7.0318406741 0.25206549796 1.9482305888 -6.9079398931 0.27918263086 
1.9482305888 -6.9079398931 0.27918263086 1.9482305888 -6.9079398931 0.27918263086 1.9482305888 -6.9079398931 0.27918263086 
1.9482305888 -6.9079398931 0.27918263086 1.9482305888 -6.9079398931 0.27918263086 1.9482305888 -6.9079398931 0.27918263086 
1.9482305888 -6.9079398931 0.27918263086 1.9482305888 -6.9079398931 0.27918263086 1.9482305888 -6.9079398931 0.27918263086 
1.9482305888 -6.9079398931 0.27918263086 1.9482305888 -6.9079398931 0.27918263086 1.9482305888 -6.9079398931 0.27918263086 
1.9482305888 -6.9079398931 0.27918263086 1.9482305888 -6.9079398931 0.27918263086 1.9482305888 -6.9079398931 0.27918263086 
1.9482305888 -6.9079398931 0.27918263086 1.9482305888 -6.9079398931 0.27918263086 1.9482305888 -6.9079398931 0.27918263086 
1.9482305888 -6.9079398931 0.27918263086 1.9482305888 -6.9079398931 0.27918263086 1.9482305888 -6.9079398931 0.27918263086 
1.9482305888 -6.9079398931 0.27918263086 1.9482305888 -6.9079398931 0.27918263086 1.9482305888 -6.9079398931 0.27918263086 
1.9482305888 -6.9079398931 0.27918263086 1.9482305888 -6.9079398931 0.27918263086 1.9482305888 -6.9079398931 0.27918263086 
1.9482305888 -6.9079398931 0.27918263086 1.9482305888 -6.9079398931 0.27918263086 1.9482305888 -6.9079398931 0.27918263086 
1.9482305888 -6.9079398931 0.27918263086 1.9482305888 -6.9079398931 0.27918263086 1.9482305888 -6.9079398931 0.27918263086 
1.9482305888 -6.9079398931 0.27918263086 1.9482305888 -6.9079398931 0.27918263086 1.9482305888 -6.9079398931 0.27918263086 
1.9482305888 -6.9079398931 0.27918263086 1.9482305888 -6.9079398931 0.27918263086 1.9482305888 -6.9079398931 0.27918263086 
1.9482305888 -6.9079398931 0.27918263086 1.9482305888 -6.9079398931 0.27918263086 1.9482305888 -6.9079398931 0.27918263086 
1.9482305888 -6.9079398931 0.27918263086 1.9482305888 -6.9079398931 0.27918263086 1.9482305888 -6.9079398931 0.27918263086 
1.9482305888 -6.9079398931 0.27918263086 1.9482305888 -6.9079398931 0.27918263086 1.9482305888 -6.9079398931 0.27918263086 
1.9482305888 -6.9079398931 0.27918263086 
