# vtk DataFile Version 4.1
Generated by LIGGGHTS
ASCII
DATASET POLYDATA
POINTS 100 float
-0.120173 -0.139258 0.0179063 -0.129217 -0.138542 0.0127074 -0.138707 -0.137798 0.00955872 
-0.128521 -0.143028 0.0233005 -0.115576 -0.141058 0.0271636 -0.136227 -0.142659 0.0191135 
-0.145941 -0.141769 0.0134086 -0.121198 -0.146047 0.0270829 -0.146946 -0.137721 0.00597556 
-0.121501 -0.133492 0.00858968 -0.135172 -0.147494 0.0262102 -0.143338 -0.144941 0.0190297 
-0.12678 -0.129887 0.00810731 -0.130439 -0.149497 0.0294152 -0.132875 -0.130799 0.00715176 
-0.140338 -0.147355 0.0229368 -0.123282 -0.140953 0.0301387 -0.144496 -0.131223 0.00641909 
-0.116791 -0.138495 0.00789364 -0.151193 -0.141951 0.00868904 -0.121261 -0.142579 0.00805105 
-0.135059 -0.151222 0.0305814 -0.116465 -0.147787 0.0231257 -0.108961 -0.137962 0.0296337 
-0.110496 -0.141254 0.0218286 -0.123931 -0.129942 0.0130232 -0.113931 -0.13392 0.0259913 
-0.112047 -0.136131 0.0314427 -0.138937 -0.150645 0.0286559 -0.133022 -0.136014 0.0215089 
-0.141613 -0.149949 0.0266324 -0.115263 -0.147932 0.0301898 -0.133105 -0.142857 0.00476238 
-0.125446 -0.150276 0.0297964 -0.151876 -0.139621 0.00313956 -0.113046 -0.14618 0.0220576 
-0.145095 -0.148614 0.022993 -0.126315 -0.146957 0.0306354 -0.149519 -0.146173 0.016628 
-0.126084 -0.133847 0.00437596 -0.13941 -0.146042 0.0134566 -0.126288 -0.150743 0.0263982 
-0.123841 -0.137196 0.0278178 -0.121977 -0.149193 0.0212299 -0.147318 -0.13548 0.0115905 
-0.151799 -0.144719 0.0128906 -0.109754 -0.138952 0.0187371 -0.129207 -0.133123 0.00440258 
-0.145355 -0.149838 0.0258169 -0.137385 -0.128941 0.00650286 -0.0514716 -0.111186 0.017526 
-0.0606239 -0.110542 0.0125103 -0.0701902 -0.110071 0.00954453 -0.0595107 -0.115867 0.0226706 
-0.0466336 -0.113505 0.0265421 -0.0672916 -0.11558 0.018618 -0.0771298 -0.114758 0.0131207 
-0.0519718 -0.118778 0.0260969 -0.078477 -0.110156 0.00607441 -0.0532664 -0.104732 0.00875452 
-0.0658566 -0.120933 0.0252611 -0.0742651 -0.118245 0.0184189 -0.0587442 -0.101404 0.00864303 
-0.0609686 -0.122931 0.0282286 -0.0647939 -0.102574 0.00768166 -0.0710744 -0.120809 0.0220702 
-0.0542847 -0.114089 0.0296021 -0.0763835 -0.10359 0.00704656 -0.0482986 -0.109383 0.00757837 
-0.0824397 -0.114834 0.00846253 -0.0525331 -0.113712 0.00743503 -0.0654669 -0.125008 0.0292945 
-0.0472136 -0.119905 0.0219517 -0.040162 -0.110261 0.0291941 -0.0416375 -0.112958 0.021153 
-0.0558174 -0.101716 0.0135036 -0.0454057 -0.106211 0.0259686 -0.0433148 -0.108768 0.0311883 
-0.0694014 -0.124489 0.0274696 -0.0644205 -0.108992 0.0215388 -0.0721442 -0.123776 0.0255435 
-0.0458923 -0.120582 0.0289632 -0.0643945 -0.114379 0.00426856 -0.0559345 -0.123457 0.0284851 
-0.0833392 -0.112083 0.00314163 -0.0439068 -0.118022 0.020987 -0.0757528 -0.122335 0.0220718 
-0.056972 -0.120275 0.0296157 -0.0804068 -0.119615 0.0159903 -0.0578906 -0.104986 0.00457787 
-0.0703725 -0.118643 0.0127279 -0.0568041 -0.123679 0.025069 -0.0550882 -0.110186 0.0276187 
-0.0526696 -0.121454 0.0200046 -0.0788828 -0.108425 0.0118649 -0.0828237 -0.11798 0.0124175 
-0.0410735 -0.110363 0.0182623 -0.0610474 -0.104445 0.00470179 -0.0758988 -0.123807 0.0247829 
-0.0694101 -0.100926 0.00724562 
VERTICES 100 200
1 0 
1 1 
1 2 
1 3 
1 4 
1 5 
1 6 
1 7 
1 8 
1 9 
1 10 
1 11 
1 12 
1 13 
1 14 
1 15 
1 16 
1 17 
1 18 
1 19 
1 20 
1 21 
1 22 
1 23 
1 24 
1 25 
1 26 
1 27 
1 28 
1 29 
1 30 
1 31 
1 32 
1 33 
1 34 
1 35 
1 36 
1 37 
1 38 
1 39 
1 40 
1 41 
1 42 
1 43 
1 44 
1 45 
1 46 
1 47 
1 48 
1 49 
1 50 
1 51 
1 52 
1 53 
1 54 
1 55 
1 56 
1 57 
1 58 
1 59 
1 60 
1 61 
1 62 
1 63 
1 64 
1 65 
1 66 
1 67 
1 68 
1 69 
1 70 
1 71 
1 72 
1 73 
1 74 
1 75 
1 76 
1 77 
1 78 
1 79 
1 80 
1 81 
1 82 
1 83 
1 84 
1 85 
1 86 
1 87 
1 88 
1 89 
1 90 
1 91 
1 92 
1 93 
1 94 
1 95 
1 96 
1 97 
1 98 
1 99 

POINT_DATA 100
FIELD FieldData 7
id 1 100 int
1 2 3 4 5 6 7 8 9 
10 11 12 13 14 15 16 17 18 
19 20 21 22 23 24 25 26 27 
28 29 30 31 32 33 34 35 36 
37 38 39 40 41 42 43 44 45 
46 47 48 49 50 51 52 53 54 
55 56 57 58 59 60 61 62 63 
64 65 66 67 68 69 70 71 72 
73 74 75 76 77 78 79 80 81 
82 83 84 85 86 87 88 89 90 
91 92 93 94 95 96 97 98 99 
100 
mol 1 100 int
1 1 1 1 1 1 1 1 1 
1 1 1 1 1 1 1 1 1 
1 1 1 1 1 1 1 1 1 
1 1 1 1 1 1 1 1 1 
1 1 1 1 1 1 1 1 1 
1 1 1 1 1 2 2 2 2 
2 2 2 2 2 2 2 2 2 
2 2 2 2 2 2 2 2 2 
2 2 2 2 2 2 2 2 2 
2 2 2 2 2 2 2 2 2 
2 2 2 2 2 2 2 2 2 
2 
type 1 100 int
1 1 1 1 1 1 1 1 1 
1 1 1 1 1 1 1 1 1 
1 1 1 1 1 1 1 1 1 
1 1 1 1 1 1 1 1 1 
1 1 1 1 1 1 1 1 1 
1 1 1 1 1 1 1 1 1 
1 1 1 1 1 1 1 1 1 
1 1 1 1 1 1 1 1 1 
1 1 1 1 1 1 1 1 1 
1 1 1 1 1 1 1 1 1 
1 1 1 1 1 1 1 1 1 
1 
v 3 100 double
-0.0064982867706 -0.14475723917 -0.11451262841 -0.024850272123 -0.10181399221 -0.076672622341 -0.035590271427 -0.070963571074 -0.03701003703 
0.008890829622 -0.16791621423 -0.10687955326 0.025545853829 -0.20733759005 -0.14259584205 -0.0061408613555 -0.1328216164 -0.076128363638 
-0.026153134559 -0.085953854644 -0.034744084835 0.019228051877 -0.20005610878 -0.15254826491 -0.048742343266 -0.038946657843 -0.0060894266143 
-0.033975922029 -0.085756362423 -0.074078922479 0.014256566857 -0.17781709873 -0.10981132286 -0.0092041394288 -0.12372539257 -0.063905949966 
-0.03140962672 -0.076414053383 -0.032360573082 0.02368526484 -0.20327442876 -0.1396495391 -0.036041248 -0.063172289666 -0.015447446271 
0.0023248123473 -0.15141603171 -0.089861916321 0.036669354373 -0.21636819732 -0.11346526252 -0.039261137079 -0.044635830995 0.024891287588 
-0.042585669826 -0.087151611706 -0.12231028519 -0.043816732447 -0.050538516682 -0.01644782953 -0.046932033348 -0.082726662673 -0.13094709702 
0.025913942581 -0.2048838554 -0.13320062915 0.002501210944 -0.18138775692 -0.18076618432 0.038412387425 -0.23053731704 -0.14796680777 
0.0055904074227 -0.18059920699 -0.16257871688 -0.0133056776 -0.11013876345 -0.043230108422 0.029826973617 -0.20210024279 -0.10469604305 
0.047307389318 -0.23795866203 -0.12528472726 0.019493609402 -0.18834158154 -0.11531026443 0.010731857461 -0.151448335 -0.047038130191 
0.012853448713 -0.1726452723 -0.10113347544 0.028436754147 -0.22635896882 -0.18609958443 -0.059423621726 -0.048173902808 -0.088886919815 
0.024153720833 -0.21164810505 -0.16290679195 -0.06151724696 -0.015525420734 0.00042785819956 0.00049255450032 -0.17893282375 -0.18350193229 
0.0010130977641 -0.14602212313 -0.080037153248 0.031260036411 -0.21576896337 -0.13924741483 -0.019567473878 -0.1014698137 -0.048646705686 
-0.049979617356 -0.054264961469 -0.059327137253 -0.031131170623 -0.094130200791 -0.085204336175 0.011030068598 -0.18969585883 -0.16266965827 
0.032624066934 -0.20139448258 -0.088253516937 -0.0062021061959 -0.16305616432 -0.16905097515 -0.025283840527 -0.073089700819 0.0090976962084 
-0.031627652336 -0.075692629145 -0.031263959214 -0.0030583182583 -0.16244832874 -0.1511383244 -0.049007817831 -0.05066123319 -0.043327150903 
0.0099735335429 -0.16310623496 -0.086618530376 -0.036198045064 -0.053731799997 0.01266870452 -0.016560632882 -0.12872207999 -0.14537778172 
-0.04059472718 -0.090875400575 -0.096667834585 -0.054809023327 -0.068640063924 -0.047282043154 0.0082292957113 -0.16814105648 -0.14250628087 
0.026681818459 -0.19715323905 -0.18618065076 -0.011181942357 -0.13757468505 -0.10307380533 -0.037527569446 -0.096087683969 -0.049725305116 
0.024732309188 -0.19395011833 -0.200747695 -0.071418637846 -0.042523337175 -0.0082582863265 -0.058774899167 -0.062046522373 -0.087682258301 
0.02080523376 -0.18806908503 -0.15067329704 -0.01204335949 -0.13629994955 -0.089964497236 -0.059423257773 -0.061386886341 -0.036137939572 
0.035080320339 -0.21047860858 -0.18927549772 -0.063985345794 -0.054280729429 -0.016076948814 0.0055252671386 -0.16397133256 -0.12474695534 
0.041351090522 -0.22069844488 -0.15399711133 -0.066990786974 -0.049847706885 0.031671664912 -0.064245317327 -0.052926795721 -0.14685387762 
-0.05982487689 -0.060829557127 -0.024883722088 -0.064782446528 -0.051982050228 -0.15951681959 0.040254421046 -0.21874300092 -0.18353995246 
0.0049264473904 -0.1622473659 -0.23210126976 0.03926611783 -0.21710798594 -0.19248077238 0.00086377520536 -0.15597877938 -0.20594391819 
-0.036143527217 -0.098267213394 -0.052521015772 0.023685029234 -0.19274739861 -0.13656488463 0.048761444746 -0.23238905026 -0.16603227705 
0.031500204478 -0.20499393063 -0.16075663341 0.002574001253 -0.15969851603 -0.066696778525 0.022255238304 -0.19043449203 -0.1422029 
0.038516398574 -0.21554888448 -0.24357886825 -0.079918375524 -0.028298699806 -0.10780597167 0.036326151086 -0.21225646575 -0.2173732932 
-0.08539241974 -0.020376942277 0.000354842749 0.00024336609779 -0.1547937668 -0.23360777085 0.0055854606323 -0.164144575 -0.11396277533 
0.041629371678 -0.22089465254 -0.18820239798 -0.023622553456 -0.11803378482 -0.070989201304 -0.078761089672 -0.030428054771 -0.067479439526 
-0.039274032785 -0.092866718708 -0.11163168074 0.019980323726 -0.18629600305 -0.21490529446 0.031721755179 -0.20563595627 -0.12045474734 
-0.0043415502613 -0.14762099043 -0.21776420022 -0.043757479865 -0.086593579749 0.0068542137748 -0.040783080734 -0.090933499466 -0.046978662281 
-0.013064091345 -0.13396602324 -0.18889751372 -0.078186471226 -0.031479625711 -0.048249007391 0.018614986272 -0.18477666629 -0.12446772199 
-0.066129561897 -0.051122135744 0.018562161283 
f 3 100 double
0 0 0 0 0 0 0 0 0 
0 0 0 0 0 0 0 0 0 
0 0 0 0 0 0 0 0 0 
0 0 0 0 0 0 0 0 0 
0 0 0 0 0 0 0 0 0 
0 0 0 0 0 0 0 0 0 
0 0 0 0 0 0 0 0 0 
0 0 0 0 0 0 0 0 0 
0 0 0 0 0 0 0 0 0 
0 0 0 0 0 0 0 0 0 
0 0 0 0 0 0 0 0 0 
0 0 0 0.077529156656 -0.0041089676789 0.15527593177 0 0 0 
0 0 0 0 0 0 0 0 0 
0 0 0 0 0 0 0 0 0 
0 0 0 0 0 0 0 0 0 
0 0 0 0 0 0 0 0 0 
0 0 0 0 0 0 0 0 0 
0 0 0 0 0 0 0 0 0 
0 0 0 0 0 0 0 0 0 
0 0 0 0 0 0 0 0 0 
0 0 0 0 0 0 0 0 0 
0 0 0 0 0 0 0 0 0 
0 0 0 0 0 0 0 0 0 
0 0 0 0 0 0 0 0 0 
0 0 0 0 0 0 0 0 0 
0 0 0 0 0 0 0 0 0 
0 0 0 0 0 0 0 0 0 
0 0 0 0 0 0 0 0 0 
0.072914549957 -0.0026404889435 0.14592468985 0 0 0 0 0 0 
0 0 0 0 0 0 0 0 0 
0 0 0 0 0 0 0 0 0 
0 0 0 0 0 0 0 0 0 
0 0 0 0 0 0 0 0 0 
0 0 0 
radius 1 100 double
0.010434 0.00981478 0.00892069 0.00845937 0.00731974 0.00728422 0.00643447 0.00619172 0.00585956 
0.00577566 0.00537241 0.00522549 0.00513666 0.00473175 0.00466912 0.00444866 0.00441894 0.00400812 
0.00385622 0.00379948 0.00370243 0.00366942 0.00364039 0.00363813 0.00363644 0.00358692 0.0035797 
0.00341284 0.00337012 0.00336273 0.00332772 0.00323261 0.00320584 0.00320311 0.00318808 0.00313116 
0.00306026 0.00305632 0.00304383 0.00300958 0.00300137 0.00298994 0.0029567 0.00295111 0.00290849 
0.00284552 0.00282964 0.0028207 0.00281971 0.00281899 0.010434 0.00981478 0.00892069 0.00845937 
0.00731974 0.00728422 0.00643447 0.00619172 0.00585956 0.00577566 0.00537241 0.00522549 0.00513666 
0.00473175 0.00466912 0.00444866 0.00441894 0.00400812 0.00385622 0.00379948 0.00370243 0.00366942 
0.00364039 0.00363813 0.00363644 0.00358692 0.0035797 0.00341284 0.00337012 0.00336273 0.00332772 
0.00323261 0.00320584 0.00320311 0.00318808 0.00313116 0.00306026 0.00305632 0.00304383 0.00300958 
0.00300137 0.00298994 0.0029567 0.00295111 0.00290849 0.00284552 0.00282964 0.0028207 0.00281971 
0.00281899 
omega 3 100 double
6.1608822963 3.6961787363 -1.2066989246 6.1608822963 3.6961787363 -1.2066989246 6.1608822963 3.6961787363 -1.2066989246 
6.1608822963 3.6961787363 -1.2066989246 6.1608822963 3.6961787363 -1.2066989246 6.1608822963 3.6961787363 -1.2066989246 
6.1608822963 3.6961787363 -1.2066989246 6.1608822963 3.6961787363 -1.2066989246 6.1608822963 3.6961787363 -1.2066989246 
6.1608822963 3.6961787363 -1.2066989246 6.1608822963 3.6961787363 -1.2066989246 6.1608822963 3.6961787363 -1.2066989246 
6.1608822963 3.6961787363 -1.2066989246 6.1608822963 3.6961787363 -1.2066989246 6.1608822963 3.6961787363 -1.2066989246 
6.1608822963 3.6961787363 -1.2066989246 6.1608822963 3.6961787363 -1.2066989246 6.1608822963 3.6961787363 -1.2066989246 
6.1608822963 3.6961787363 -1.2066989246 6.1608822963 3.6961787363 -1.2066989246 6.1608822963 3.6961787363 -1.2066989246 
6.1608822963 3.6961787363 -1.2066989246 6.1608822963 3.6961787363 -1.2066989246 6.1608822963 3.6961787363 -1.2066989246 
6.1608822963 3.6961787363 -1.2066989246 6.1608822963 3.6961787363 -1.2066989246 6.1608822963 3.6961787363 -1.2066989246 
6.1608822963 3.6961787363 -1.2066989246 6.1608822963 3.6961787363 -1.2066989246 6.1608822963 3.6961787363 -1.2066989246 
6.1608822963 3.6961787363 -1.2066989246 6.1608822963 3.6961787363 -1.2066989246 6.1608822963 3.6961787363 -1.2066989246 
6.1608822963 3.6961787363 -1.2066989246 6.1608822963 3.6961787363 -1.2066989246 6.1608822963 3.6961787363 -1.2066989246 
6.1608822963 3.6961787363 -1.2066989246 6.1608822963 3.6961787363 -1.2066989246 6.1608822963 3.6961787363 -1.2066989246 
6.1608822963 3.6961787363 -1.2066989246 6.1608822963 3.6961787363 -1.2066989246 6.1608822963 3.6961787363 -1.2066989246 
6.1608822963 3.6961787363 -1.2066989246 6.1608822963 3.6961787363 -1.2066989246 6.1608822963 3.6961787363 -1.2066989246 
6.1608822963 3.6961787363 -1.2066989246 6.1608822963 3.6961787363 -1.2066989246 6.1608822963 3.6961787363 -1.2066989246 
6.1608822963 3.6961787363 -1.2066989246 6.1608822963 3.6961787363 -1.2066989246 7.6084146926 4.7873121849 0.034438277073 
7.6084146926 4.7873121849 0.034438277073 7.6084146926 4.7873121849 0.034438277073 7.6084146926 4.7873121849 0.034438277073 
7.6084146926 4.7873121849 0.034438277073 7.6084146926 4.7873121849 0.034438277073 7.6084146926 4.7873121849 0.034438277073 
7.6084146926 4.7873121849 0.034438277073 7.6084146926 4.7873121849 0.034438277073 7.6084146926 4.7873121849 0.034438277073 
7.6084146926 4.7873121849 0.034438277073 7.6084146926 4.7873121849 0.034438277073 7.6084146926 4.7873121849 0.034438277073 
7.6084146926 4.7873121849 0.034438277073 7.6084146926 4.7873121849 0.034438277073 7.6084146926 4.7873121849 0.034438277073 
7.6084146926 4.7873121849 0.034438277073 7.6084146926 4.7873121849 0.034438277073 7.6084146926 4.7873121849 0.034438277073 
7.6084146926 4.7873121849 0.034438277073 7.6084146926 4.7873121849 0.034438277073 7.6084146926 4.7873121849 0.034438277073 
7.6084146926 4.7873121849 0.034438277073 7.6084146926 4.7873121849 0.034438277073 7.6084146926 4.7873121849 0.034438277073 
7.6084146926 4.7873121849 0.034438277073 7.6084146926 4.7873121849 0.034438277073 7.6084146926 4.7873121849 0.034438277073 
7.6084146926 4.7873121849 0.034438277073 7.6084146926 4.7873121849 0.034438277073 7.6084146926 4.7873121849 0.034438277073 
7.6084146926 4.7873121849 0.034438277073 7.6084146926 4.7873121849 0.034438277073 7.6084146926 4.7873121849 0.034438277073 
7.6084146926 4.7873121849 0.034438277073 7.6084146926 4.7873121849 0.034438277073 7.6084146926 4.7873121849 0.034438277073 
7.6084146926 4.7873121849 0.034438277073 7.6084146926 4.7873121849 0.034438277073 7.6084146926 4.7873121849 0.034438277073 
7.6084146926 4.7873121849 0.034438277073 7.6084146926 4.7873121849 0.034438277073 7.6084146926 4.7873121849 0.034438277073 
7.6084146926 4.7873121849 0.034438277073 7.6084146926 4.7873121849 0.034438277073 7.6084146926 4.7873121849 0.034438277073 
7.6084146926 4.7873121849 0.034438277073 7.6084146926 4.7873121849 0.034438277073 7.6084146926 4.7873121849 0.034438277073 
7.6084146926 4.7873121849 0.034438277073 
