# vtk DataFile Version 4.1
Generated by LIGGGHTS
ASCII
DATASET POLYDATA
POINTS 100 float
-0.113862 -0.131955 0.0234211 -0.12399 -0.132881 0.020992 -0.134003 -0.133167 0.0205583 
-0.120103 -0.133979 0.0317855 -0.106825 -0.130871 0.0311268 -0.128646 -0.134926 0.0300075 
-0.139567 -0.135841 0.0272529 -0.111798 -0.135685 0.0340597 -0.142871 -0.134215 0.0195665 
-0.118131 -0.129256 0.0136077 -0.125313 -0.137404 0.037597 -0.135289 -0.137167 0.03258 
-0.123648 -0.125991 0.0136154 -0.119738 -0.138328 0.0397782 -0.129671 -0.127181 0.0147119 
-0.131155 -0.138281 0.0360087 -0.113439 -0.129921 0.035985 -0.140981 -0.127869 0.017424 
-0.11335 -0.134212 0.0130809 -0.145848 -0.137459 0.0244559 -0.117234 -0.138085 0.0156496 
-0.123708 -0.139649 0.0426374 -0.108153 -0.138506 0.0296044 -0.100095 -0.12714 0.0306462 
-0.103352 -0.13263 0.0248699 -0.1196 -0.124554 0.0173347 -0.106195 -0.124404 0.0275469 
-0.102739 -0.124869 0.0326453 -0.127995 -0.139697 0.0417967 -0.125524 -0.127851 0.029399 
-0.131164 -0.139655 0.040495 -0.105106 -0.136519 0.0357798 -0.129452 -0.139402 0.016041 
-0.114775 -0.138929 0.038949 -0.148188 -0.136904 0.0188964 -0.1053 -0.137275 0.0272062 
-0.135594 -0.139492 0.0377559 -0.115682 -0.135516 0.0390109 -0.141752 -0.139096 0.0324677 
-0.12362 -0.130884 0.0111361 -0.132905 -0.139867 0.0266873 -0.116446 -0.140398 0.0362061 
-0.114928 -0.127036 0.0329399 -0.113823 -0.140446 0.0298176 -0.141934 -0.130394 0.0241729 
-0.145065 -0.138843 0.0292677 -0.103668 -0.131357 0.0211701 -0.126675 -0.130203 0.0118296 
-0.134982 -0.139814 0.0407662 -0.134338 -0.125628 0.0148514 -0.0449748 -0.104159 0.0226822 
-0.0550451 -0.105086 0.0200239 -0.0650457 -0.105387 0.0193671 -0.0513948 -0.10625 0.030893 
-0.0381118 -0.103114 0.0305485 -0.0598951 -0.1072 0.0289203 -0.0707504 -0.108115 0.0259192 
-0.043139 -0.107956 0.0333387 -0.0738875 -0.106443 0.0181727 -0.0490311 -0.101401 0.0127952 
-0.0567259 -0.109722 0.036565 -0.0665891 -0.109469 0.0313304 -0.054553 -0.0981462 0.0127028 
-0.0511988 -0.110651 0.0388625 -0.0605963 -0.0993534 0.013658 -0.0625298 -0.110599 0.0348421 
-0.0448327 -0.102208 0.0352657 -0.0719626 -0.100079 0.0161148 -0.0442298 -0.106345 0.012341 
-0.0769657 -0.109725 0.0229733 -0.0481629 -0.110242 0.0147973 -0.0552286 -0.111998 0.0416244 
-0.0393913 -0.110741 0.0289462 -0.0313802 -0.0993686 0.0302417 -0.0344985 -0.104825 0.0243583 
-0.0505905 -0.0967265 0.0165201 -0.0374154 -0.0966223 0.0270267 -0.0340713 -0.097115 0.032197 
-0.0594949 -0.112048 0.0406889 -0.056774 -0.100115 0.0284283 -0.0626348 -0.112003 0.0393179 
-0.0364855 -0.10879 0.0352006 -0.060384 -0.111583 0.01491 -0.0462173 -0.111239 0.0381393 
-0.0791834 -0.109137 0.0173673 -0.0364879 -0.109489 0.0266199 -0.0670033 -0.111829 0.0364828 
-0.0471314 -0.107828 0.0382039 -0.0730437 -0.111409 0.0310626 -0.0544615 -0.103022 0.010192 
-0.06407 -0.112125 0.025474 -0.0478248 -0.112692 0.0353503 -0.0462601 -0.0993057 0.0322078 
-0.045061 -0.112692 0.0290211 -0.0730596 -0.102652 0.022824 -0.0762857 -0.11114 0.0277919 
-0.0347349 -0.103528 0.020661 -0.0575316 -0.102351 0.0108224 -0.0664576 -0.112171 0.0395036 
-0.0652686 -0.0978096 0.0137047 
VERTICES 100 200
1 0 
1 1 
1 2 
1 3 
1 4 
1 5 
1 6 
1 7 
1 8 
1 9 
1 10 
1 11 
1 12 
1 13 
1 14 
1 15 
1 16 
1 17 
1 18 
1 19 
1 20 
1 21 
1 22 
1 23 
1 24 
1 25 
1 26 
1 27 
1 28 
1 29 
1 30 
1 31 
1 32 
1 33 
1 34 
1 35 
1 36 
1 37 
1 38 
1 39 
1 40 
1 41 
1 42 
1 43 
1 44 
1 45 
1 46 
1 47 
1 48 
1 49 
1 50 
1 51 
1 52 
1 53 
1 54 
1 55 
1 56 
1 57 
1 58 
1 59 
1 60 
1 61 
1 62 
1 63 
1 64 
1 65 
1 66 
1 67 
1 68 
1 69 
1 70 
1 71 
1 72 
1 73 
1 74 
1 75 
1 76 
1 77 
1 78 
1 79 
1 80 
1 81 
1 82 
1 83 
1 84 
1 85 
1 86 
1 87 
1 88 
1 89 
1 90 
1 91 
1 92 
1 93 
1 94 
1 95 
1 96 
1 97 
1 98 
1 99 

POINT_DATA 100
FIELD FieldData 7
id 1 100 int
1 2 3 4 5 6 7 8 9 
10 11 12 13 14 15 16 17 18 
19 20 21 22 23 24 25 26 27 
28 29 30 31 32 33 34 35 36 
37 38 39 40 41 42 43 44 45 
46 47 48 49 50 51 52 53 54 
55 56 57 58 59 60 61 62 63 
64 65 66 67 68 69 70 71 72 
73 74 75 76 77 78 79 80 81 
82 83 84 85 86 87 88 89 90 
91 92 93 94 95 96 97 98 99 
100 
mol 1 100 int
1 1 1 1 1 1 1 1 1 
1 1 1 1 1 1 1 1 1 
1 1 1 1 1 1 1 1 1 
1 1 1 1 1 1 1 1 1 
1 1 1 1 1 1 1 1 1 
1 1 1 1 1 2 2 2 2 
2 2 2 2 2 2 2 2 2 
2 2 2 2 2 2 2 2 2 
2 2 2 2 2 2 2 2 2 
2 2 2 2 2 2 2 2 2 
2 2 2 2 2 2 2 2 2 
2 
type 1 100 int
1 1 1 1 1 1 1 1 1 
1 1 1 1 1 1 1 1 1 
1 1 1 1 1 1 1 1 1 
1 1 1 1 1 1 1 1 1 
1 1 1 1 1 1 1 1 1 
1 1 1 1 1 1 1 1 1 
1 1 1 1 1 1 1 1 1 
1 1 1 1 1 1 1 1 1 
1 1 1 1 1 1 1 1 1 
1 1 1 1 1 1 1 1 1 
1 1 1 1 1 1 1 1 1 
1 
v 3 100 double
-0.1203734667 -0.062581337078 -0.059060537387 -0.10288766687 -0.061730521382 -0.13229356271 -0.09972218122 -0.064506298406 -0.20353890276 
-0.17872631073 -0.080183150522 -0.10685611006 -0.17518258276 -0.074234297809 -0.007368407101 -0.16583047835 -0.079963405477 -0.16893573883 
-0.14604981381 -0.078797113998 -0.24774602782 -0.19417914511 -0.081399890265 -0.051337799186 -0.092343985413 -0.065847651664 -0.26809402089 
-0.052028603173 -0.046066462086 -0.084248909366 -0.21854859987 -0.092724657496 -0.14995047829 -0.18319947064 -0.087062458801 -0.21997208761 
-0.053248079603 -0.048049257277 -0.11721144556 -0.2336235134 -0.094744562981 -0.11227549545 -0.060567528505 -0.052213866939 -0.16193521523 
-0.20701752144 -0.091889743809 -0.19282432756 -0.20983391026 -0.085524329927 -0.05232969079 -0.079476210753 -0.061234909863 -0.24308112956 
-0.04653940639 -0.043391857189 -0.059587943066 -0.12571787553 -0.075897235063 -0.29508416157 -0.063298906631 -0.049499583629 -0.094143155226 
-0.25334563754 -0.10141684393 -0.14274355604 -0.1617061969 -0.071909825333 -0.030780951981 -0.17312012809 -0.070949658626 0.047018415073 
-0.13036523798 -0.061494315627 0.013923771454 -0.08002860849 -0.053441089181 -0.085977134348 -0.15220710812 -0.067429370191 0.0089664165193 
-0.18804941215 -0.075567425172 0.032525303289 -0.24739087003 -0.10140093313 -0.1731027957 -0.16405771621 -0.077731003149 -0.13388295719 
-0.23821239923 -0.10013917562 -0.19540964291 -0.20603009902 -0.082173914405 -0.0056110589997 -0.065593885964 -0.054578948364 -0.18285414069 
-0.22755311558 -0.091449484711 -0.078327744567 -0.086651493203 -0.066513281812 -0.3105915673 -0.14520804391 -0.066483427925 -0.0083646328294 
-0.21892603722 -0.096685207225 -0.22639504683 -0.22920819476 -0.091886732998 -0.078456310446 -0.18171833502 -0.089162138617 -0.26915942415 
-0.033991211557 -0.043482009705 -0.12601044337 -0.14061863121 -0.075380182988 -0.20809379712 -0.2076565644 -0.087003991132 -0.092831678119 
-0.18935686805 -0.080458601751 -0.0575479083 -0.16251962353 -0.074324937517 -0.074391723572 -0.1262399625 -0.073980302703 -0.25445408147 
-0.15920826973 -0.084462323504 -0.29209243561 -0.10468883596 -0.054806188742 0.014033830804 -0.03913227982 -0.045846613899 -0.14632902586 
-0.24007161644 -0.1020002278 -0.22266716386 -0.062107080467 -0.054135834507 -0.19204505559 -0.11945884887 -0.062214674094 -0.10721914098 
-0.10066676499 -0.061226625134 -0.17875157038 -0.095997206135 -0.063800882596 -0.24867754761 -0.17564355039 -0.07934354901 -0.155511421 
-0.17442945491 -0.07374280854 -0.057728795975 -0.16160022852 -0.078995776377 -0.2161916051 -0.14043386615 -0.077687645867 -0.29315071431 
-0.1919718126 -0.080630962591 -0.10129014113 -0.087313886253 -0.064976498441 -0.31191741223 -0.051894465525 -0.046010879924 -0.13041887196 
-0.21369435767 -0.091512167702 -0.19872540531 -0.17747062816 -0.08582782153 -0.26670541142 -0.052474749695 -0.047916795731 -0.16289530808 
-0.22928697289 -0.09355776335 -0.16204218192 -0.058649032085 -0.051896370241 -0.20699032239 -0.20141167024 -0.090600759885 -0.24056729094 
-0.20749883485 -0.084721187039 -0.10273543376 -0.075423065356 -0.060565038787 -0.28715374647 -0.046888774777 -0.043395457674 -0.10596898645 
-0.11939041413 -0.074737835675 -0.33915986456 -0.062469270695 -0.049274613796 -0.1402447094 -0.24794451127 -0.10002111102 -0.19241742707 
-0.16045104032 -0.071350217876 -0.080280241145 -0.17370597784 -0.070667445648 -0.0043079511513 -0.13083829886 -0.061289513906 -0.035726768607 
-0.07949267955 -0.053273917427 -0.13285729723 -0.15242977047 -0.067167666706 -0.041257849384 -0.18811790321 -0.075182492387 -0.018939237557 
-0.24143506693 -0.099944460786 -0.22210803155 -0.16084371374 -0.076942697343 -0.18183560619 -0.23193897594 -0.098664283039 -0.2438126077 
-0.20457751601 -0.08147299564 -0.056621507664 -0.062747946113 -0.054061276254 -0.22744141965 -0.22404842361 -0.090392311033 -0.12853240343 
-0.080715246758 -0.065519430177 -0.35349333486 -0.14478042572 -0.066090435077 -0.057890390891 -0.21233382364 -0.095220397769 -0.27381037941 
-0.22577663422 -0.0908511353 -0.12875926483 -0.17488443063 -0.087769029406 -0.31496699093 -0.033224962531 -0.043381100935 -0.17100198572 
-0.13584079457 -0.074383369292 -0.253988707 -0.20415269115 -0.085995343354 -0.14229174793 -0.18737091744 -0.079774421003 -0.10743595172 
-0.16023880822 -0.073611463122 -0.1231158198 -0.12100816143 -0.073004832024 -0.2993771502 -0.15229263168 -0.083121616624 -0.33697873431 
-0.10567182252 -0.054749581629 -0.035040921767 -0.0378506521 -0.045663005603 -0.19109952445 -0.23316526527 -0.1004314831 -0.27063630108 
-0.059552522709 -0.053732971061 -0.23664020605 
f 3 100 double
0 0 0 0 0 0 0 0 0 
0 0 0 0 0 0 0 0 0 
0 0 0 0 0 0 0 0 0 
0 0 0 0 0 0 0 0 0 
0 0 0 0 0 0 0 0 0 
0 0 0 0 0 0 0 0 0 
0 0 0 0 0 0 0 0 0 
0 0 0 0 0 0 0 0 0 
0 0 0 0 0 0 0 0 0 
0 0 0 0 0 0 0 0 0 
0 0 0 0 0 0 0 0 0 
0 0 0 0 0 0 0 0 0 
0 0 0 0 0 0 0 0 0 
0 0 0 0 0 0 0 0 0 
0 0 0 0 0 0 0 0 0 
0 0 0 0 0 0 0 0 0 
0 0 0 0 0 0 0 0 0 
0 0 0 0 0 0 0 0 0 
0 0 0 0 0 0 0 0 0 
0 0 0 0 0 0 0 0 0 
0 0 0 0 0 0 0 0 0 
0 0 0 0 0 0 0 0 0 
0 0 0 0 0 0 0 0 0 
0 0 0 0 0 0 0 0 0 
0 0 0 0 0 0 0 0 0 
0 0 0 0 0 0 0 0 0 
0 0 0 0 0 0 0 0 0 
0 0 0 0 0 0 0 0 0 
0 0 0 0 0 0 0 0 0 
0 0 0 0 0 0 0 0 0 
0 0 0 0 0 0 0 0 0 
0 0 0 0 0 0 0 0 0 
0 0 0 0 0 0 0 0 0 
0 0 0 
radius 1 100 double
0.010434 0.00981478 0.00892069 0.00845937 0.00731974 0.00728422 0.00643447 0.00619172 0.00585956 
0.00577566 0.00537241 0.00522549 0.00513666 0.00473175 0.00466912 0.00444866 0.00441894 0.00400812 
0.00385622 0.00379948 0.00370243 0.00366942 0.00364039 0.00363813 0.00363644 0.00358692 0.0035797 
0.00341284 0.00337012 0.00336273 0.00332772 0.00323261 0.00320584 0.00320311 0.00318808 0.00313116 
0.00306026 0.00305632 0.00304383 0.00300958 0.00300137 0.00298994 0.0029567 0.00295111 0.00290849 
0.00284552 0.00282964 0.0028207 0.00281971 0.00281899 0.010434 0.00981478 0.00892069 0.00845937 
0.00731974 0.00728422 0.00643447 0.00619172 0.00585956 0.00577566 0.00537241 0.00522549 0.00513666 
0.00473175 0.00466912 0.00444866 0.00441894 0.00400812 0.00385622 0.00379948 0.00370243 0.00366942 
0.00364039 0.00363813 0.00363644 0.00358692 0.0035797 0.00341284 0.00337012 0.00336273 0.00332772 
0.00323261 0.00320584 0.00320311 0.00318808 0.00313116 0.00306026 0.00305632 0.00304383 0.00300958 
0.00300137 0.00298994 0.0029567 0.00295111 0.00290849 0.00284552 0.00282964 0.0028207 0.00281971 
0.00281899 
omega 3 100 double
1.838126874 -7.0626288111 0.35683522591 1.838126874 -7.0626288111 0.35683522591 1.838126874 -7.0626288111 0.35683522591 
1.838126874 -7.0626288111 0.35683522591 1.838126874 -7.0626288111 0.35683522591 1.838126874 -7.0626288111 0.35683522591 
1.838126874 -7.0626288111 0.35683522591 1.838126874 -7.0626288111 0.35683522591 1.838126874 -7.0626288111 0.35683522591 
1.838126874 -7.0626288111 0.35683522591 1.838126874 -7.0626288111 0.35683522591 1.838126874 -7.0626288111 0.35683522591 
1.838126874 -7.0626288111 0.35683522591 1.838126874 -7.0626288111 0.35683522591 1.838126874 -7.0626288111 0.35683522591 
1.838126874 -7.0626288111 0.35683522591 1.838126874 -7.0626288111 0.35683522591 1.838126874 -7.0626288111 0.35683522591 
1.838126874 -7.0626288111 0.35683522591 1.838126874 -7.0626288111 0.35683522591 1.838126874 -7.0626288111 0.35683522591 
1.838126874 -7.0626288111 0.35683522591 1.838126874 -7.0626288111 0.35683522591 1.838126874 -7.0626288111 0.35683522591 
1.838126874 -7.0626288111 0.35683522591 1.838126874 -7.0626288111 0.35683522591 1.838126874 -7.0626288111 0.35683522591 
1.838126874 -7.0626288111 0.35683522591 1.838126874 -7.0626288111 0.35683522591 1.838126874 -7.0626288111 0.35683522591 
1.838126874 -7.0626288111 0.35683522591 1.838126874 -7.0626288111 0.35683522591 1.838126874 -7.0626288111 0.35683522591 
1.838126874 -7.0626288111 0.35683522591 1.838126874 -7.0626288111 0.35683522591 1.838126874 -7.0626288111 0.35683522591 
1.838126874 -7.0626288111 0.35683522591 1.838126874 -7.0626288111 0.35683522591 1.838126874 -7.0626288111 0.35683522591 
1.838126874 -7.0626288111 0.35683522591 1.838126874 -7.0626288111 0.35683522591 1.838126874 -7.0626288111 0.35683522591 
1.838126874 -7.0626288111 0.35683522591 1.838126874 -7.0626288111 0.35683522591 1.838126874 -7.0626288111 0.35683522591 
1.838126874 -7.0626288111 0.35683522591 1.838126874 -7.0626288111 0.35683522591 1.838126874 -7.0626288111 0.35683522591 
1.838126874 -7.0626288111 0.35683522591 1.838126874 -7.0626288111 0.35683522591 1.7928057157 -6.9382822704 0.37514723079 
1.7928057157 -6.9382822704 0.37514723079 1.7928057157 -6.9382822704 0.37514723079 1.7928057157 -6.9382822704 0.37514723079 
1.7928057157 -6.9382822704 0.37514723079 1.7928057157 -6.9382822704 0.37514723079 1.7928057157 -6.9382822704 0.37514723079 
1.7928057157 -6.9382822704 0.37514723079 1.7928057157 -6.9382822704 0.37514723079 1.7928057157 -6.9382822704 0.37514723079 
1.7928057157 -6.9382822704 0.37514723079 1.7928057157 -6.9382822704 0.37514723079 1.7928057157 -6.9382822704 0.37514723079 
1.7928057157 -6.9382822704 0.37514723079 1.7928057157 -6.9382822704 0.37514723079 1.7928057157 -6.9382822704 0.37514723079 
1.7928057157 -6.9382822704 0.37514723079 1.7928057157 -6.9382822704 0.37514723079 1.7928057157 -6.9382822704 0.37514723079 
1.7928057157 -6.9382822704 0.37514723079 1.7928057157 -6.9382822704 0.37514723079 1.7928057157 -6.9382822704 0.37514723079 
1.7928057157 -6.9382822704 0.37514723079 1.7928057157 -6.9382822704 0.37514723079 1.7928057157 -6.9382822704 0.37514723079 
1.7928057157 -6.9382822704 0.37514723079 1.7928057157 -6.9382822704 0.37514723079 1.7928057157 -6.9382822704 0.37514723079 
1.7928057157 -6.9382822704 0.37514723079 1.7928057157 -6.9382822704 0.37514723079 1.7928057157 -6.9382822704 0.37514723079 
1.7928057157 -6.9382822704 0.37514723079 1.7928057157 -6.9382822704 0.37514723079 1.7928057157 -6.9382822704 0.37514723079 
1.7928057157 -6.9382822704 0.37514723079 1.7928057157 -6.9382822704 0.37514723079 1.7928057157 -6.9382822704 0.37514723079 
1.7928057157 -6.9382822704 0.37514723079 1.7928057157 -6.9382822704 0.37514723079 1.7928057157 -6.9382822704 0.37514723079 
1.7928057157 -6.9382822704 0.37514723079 1.7928057157 -6.9382822704 0.37514723079 1.7928057157 -6.9382822704 0.37514723079 
1.7928057157 -6.9382822704 0.37514723079 1.7928057157 -6.9382822704 0.37514723079 1.7928057157 -6.9382822704 0.37514723079 
1.7928057157 -6.9382822704 0.37514723079 1.7928057157 -6.9382822704 0.37514723079 1.7928057157 -6.9382822704 0.37514723079 
1.7928057157 -6.9382822704 0.37514723079 
