# vtk DataFile Version 4.1
Generated by LIGGGHTS
ASCII
DATASET POLYDATA
POINTS 100 float
-0.116765 -0.149846 0.0125941 -0.126613 -0.146407 0.0118565 -0.13636 -0.144247 0.0127806 
-0.123944 -0.156496 0.0167464 -0.110298 -0.156847 0.0169788 -0.13231 -0.153907 0.0161503 
-0.142898 -0.150044 0.015342 -0.116455 -0.160915 0.0155475 -0.145126 -0.142284 0.0126098 
-0.119516 -0.139582 0.00960999 -0.130241 -0.162068 0.0181423 -0.139471 -0.155924 0.0167981 
-0.124124 -0.136686 0.0129974 -0.125215 -0.16544 0.0178968 -0.130326 -0.137048 0.0135347 
-0.135985 -0.160125 0.0173327 -0.116882 -0.158939 0.0215088 -0.141673 -0.137395 0.0161602 
-0.115967 -0.142855 0.00467153 -0.149142 -0.14745 0.0132962 -0.120824 -0.14632 0.00362564 
-0.129595 -0.167702 0.0190715 -0.113211 -0.159606 0.0101758 -0.102878 -0.155707 0.0187328 
-0.106836 -0.153459 0.0114259 -0.120161 -0.139685 0.0157526 -0.107927 -0.150483 0.0199625 
-0.105082 -0.155537 0.0220881 -0.133699 -0.166207 0.0191435 -0.127616 -0.150093 0.0210076 
-0.136662 -0.164509 0.0188608 -0.110288 -0.164084 0.0149473 -0.133011 -0.144965 0.00451894 
-0.120471 -0.166082 0.0162339 -0.150847 -0.142194 0.010816 -0.109971 -0.157546 0.00935585 
-0.140707 -0.161336 0.0180113 -0.120576 -0.164054 0.0191239 -0.146174 -0.155635 0.0160991 
-0.125019 -0.137413 0.00763485 -0.137309 -0.153138 0.0108597 -0.122212 -0.164356 0.0136907 
-0.117428 -0.154583 0.0222412 -0.119173 -0.159742 0.00954753 -0.143708 -0.144061 0.0182242 
-0.149078 -0.152259 0.014895 -0.106559 -0.149702 0.0103232 -0.127882 -0.136993 0.00901382 
-0.140424 -0.164065 0.0194288 -0.134511 -0.135378 0.0155124 -0.0469358 -0.12004 0.0123124 
-0.0570788 -0.117517 0.0120143 -0.0669487 -0.116324 0.013316 -0.0533248 -0.127503 0.016372 
-0.039705 -0.126577 0.0161924 -0.0619101 -0.125691 0.0161345 -0.0728321 -0.122812 0.0158062 
-0.0455015 -0.131144 0.0147613 -0.0758597 -0.11519 0.0134869 -0.0507244 -0.109966 0.00986785 
-0.0590281 -0.133696 0.0177014 -0.0688278 -0.128398 0.0168997 -0.0554668 -0.10766 0.0135128 
-0.0537215 -0.136567 0.0171608 -0.0615879 -0.108626 0.0142133 -0.0649512 -0.132271 0.017146 
-0.0459129 -0.129465 0.0208143 -0.07276 -0.110149 0.0171491 -0.0470519 -0.112683 0.00468804 
-0.0793541 -0.120736 0.0140596 -0.0515984 -0.116543 0.00363084 -0.0578314 -0.139278 0.0183605 
-0.0425722 -0.129313 0.00936111 -0.0323686 -0.124817 0.0177791 -0.0367581 -0.12265 0.0106973 
-0.0511537 -0.110384 0.016016 -0.0378375 -0.120146 0.0193856 -0.0344666 -0.124994 0.0212013 
-0.0620513 -0.13818 0.0186179 -0.0574328 -0.121657 0.021018 -0.0651668 -0.136759 0.0184969 
-0.0390904 -0.13369 0.0138423 -0.0638227 -0.11638 0.00493679 -0.0489958 -0.13669 0.015334 
-0.0816206 -0.115565 0.0118657 -0.0395667 -0.126925 0.00853967 -0.0695145 -0.133948 0.017907 
-0.0491928 -0.134802 0.018313 -0.0755476 -0.128714 0.0164091 -0.0564675 -0.108245 0.00815151 
-0.0671308 -0.125178 0.0110306 -0.0509723 -0.135032 0.0129215 -0.0468364 -0.125214 0.0217549 
-0.0485132 -0.129984 0.00890073 -0.0740978 -0.117057 0.0189734 -0.0787908 -0.125579 0.0154408 
-0.036868 -0.118841 0.00975483 -0.0593098 -0.108153 0.00963029 -0.0689335 -0.136696 0.0191931 
-0.0658423 -0.107442 0.0163838 
VERTICES 100 200
1 0 
1 1 
1 2 
1 3 
1 4 
1 5 
1 6 
1 7 
1 8 
1 9 
1 10 
1 11 
1 12 
1 13 
1 14 
1 15 
1 16 
1 17 
1 18 
1 19 
1 20 
1 21 
1 22 
1 23 
1 24 
1 25 
1 26 
1 27 
1 28 
1 29 
1 30 
1 31 
1 32 
1 33 
1 34 
1 35 
1 36 
1 37 
1 38 
1 39 
1 40 
1 41 
1 42 
1 43 
1 44 
1 45 
1 46 
1 47 
1 48 
1 49 
1 50 
1 51 
1 52 
1 53 
1 54 
1 55 
1 56 
1 57 
1 58 
1 59 
1 60 
1 61 
1 62 
1 63 
1 64 
1 65 
1 66 
1 67 
1 68 
1 69 
1 70 
1 71 
1 72 
1 73 
1 74 
1 75 
1 76 
1 77 
1 78 
1 79 
1 80 
1 81 
1 82 
1 83 
1 84 
1 85 
1 86 
1 87 
1 88 
1 89 
1 90 
1 91 
1 92 
1 93 
1 94 
1 95 
1 96 
1 97 
1 98 
1 99 

POINT_DATA 100
FIELD FieldData 7
id 1 100 int
1 2 3 4 5 6 7 8 9 
10 11 12 13 14 15 16 17 18 
19 20 21 22 23 24 25 26 27 
28 29 30 31 32 33 34 35 36 
37 38 39 40 41 42 43 44 45 
46 47 48 49 50 51 52 53 54 
55 56 57 58 59 60 61 62 63 
64 65 66 67 68 69 70 71 72 
73 74 75 76 77 78 79 80 81 
82 83 84 85 86 87 88 89 90 
91 92 93 94 95 96 97 98 99 
100 
mol 1 100 int
1 1 1 1 1 1 1 1 1 
1 1 1 1 1 1 1 1 1 
1 1 1 1 1 1 1 1 1 
1 1 1 1 1 1 1 1 1 
1 1 1 1 1 1 1 1 1 
1 1 1 1 1 2 2 2 2 
2 2 2 2 2 2 2 2 2 
2 2 2 2 2 2 2 2 2 
2 2 2 2 2 2 2 2 2 
2 2 2 2 2 2 2 2 2 
2 2 2 2 2 2 2 2 2 
2 
type 1 100 int
1 1 1 1 1 1 1 1 1 
1 1 1 1 1 1 1 1 1 
1 1 1 1 1 1 1 1 1 
1 1 1 1 1 1 1 1 1 
1 1 1 1 1 1 1 1 1 
1 1 1 1 1 1 1 1 1 
1 1 1 1 1 1 1 1 1 
1 1 1 1 1 1 1 1 1 
1 1 1 1 1 1 1 1 1 
1 1 1 1 1 1 1 1 1 
1 1 1 1 1 1 1 1 1 
1 
v 3 100 double
-0.00083320530325 -0.17190418908 -0.046485424234 0.0031040423163 -0.15023206283 0.0019793839369 0.0060037604697 -0.15064373454 0.033527648223 
-0.0076131358372 -0.21809463708 -0.13218768537 -0.0079667928344 -0.23768939506 -0.14100909918 -0.0046604947655 -0.2000849169 -0.095397806695 
-0.00023100172434 -0.17658108193 -0.041096037246 -0.013331319616 -0.21131582539 -0.19288948082 0.0083278414411 -0.13777133064 0.062155680883 
0.01067977597 -0.12913206504 0.090016010172 -0.013931520115 -0.22891877428 -0.20389780705 -0.0069037133003 -0.19997604575 -0.1198565725 
0.015224755971 -0.16832507853 0.12970483104 -0.018089425774 -0.23176058786 -0.2500038016 0.014951166698 -0.16791604129 0.12682196899 
-0.011826841555 -0.21126364698 -0.17645381953 -0.0091108232055 -0.28959104038 -0.16663745089 0.015336126775 -0.18888021109 0.12571637989 
0.0052025745661 -0.068156116203 0.045666325665 0.0022824183174 -0.14198085895 -0.0049001902877 0.00068682835907 -0.048450861783 0.0013627069473 
-0.020468503777 -0.24198282471 -0.27856119749 -0.013392522012 -0.14424509137 -0.17657659836 -0.0060486898221 -0.26985703186 -0.1282158307 
-0.0055661122327 -0.16848690268 -0.097283290405 0.012438387617 -0.20954059954 0.088854699269 0.00065461500705 -0.27999783306 -0.05761192417 
-0.0048135839898 -0.31153725551 -0.12528635761 -0.018635967975 -0.23796535994 -0.25754062193 0.0014468916875 -0.26996939001 -0.046424660796 
-0.016667025643 -0.23064102958 -0.23419384051 -0.017352752969 -0.21085067608 -0.23666852687 0.0026013763143 -0.045500874183 0.02300824006 
-0.019376759978 -0.21552541783 -0.2599455564 0.0078871042912 -0.10713427167 0.065101402919 -0.011149908002 -0.13732993386 -0.15034608969 
-0.013084898206 -0.21451631868 -0.19100991544 -0.016035520757 -0.25359733041 -0.23311258441 -0.006768663304 -0.18262170352 -0.11398863784 
0.012700921729 -0.096362331696 0.12037488947 -0.0053517305903 -0.12410493118 -0.083706546406 -0.018067071166 -0.17980378031 -0.23660537467 
-0.0036113115065 -0.29861098411 -0.10889002631 -0.013749684919 -0.12872189474 -0.17654512744 0.0078974979695 -0.21369638481 0.038235490414 
-0.0030501293364 -0.16319012703 -0.068478506911 -0.0013546466112 -0.15424716276 -0.047706926773 0.013632528804 -0.11112224053 0.12680713523 
-0.015955527124 -0.23359351603 -0.22717483657 0.017579320976 -0.18898843584 0.15017504373 0.037256797358 -0.15000145142 -0.056897157276 
0.03838032884 -0.13808095917 0.005781357952 0.043565383941 -0.14537838164 0.051785424253 0.044186029035 -0.19291965914 -0.12489635053 
0.044372278795 -0.20204208642 -0.1578339758 0.044917358532 -0.18300460713 -0.075681659676 0.046236854477 -0.17008096963 -0.0062715340981 
0.035981206633 -0.18026076455 -0.19335400766 0.045053656462 -0.14004403062 0.093992185858 0.037695317544 -0.117848689 0.074925564506 
0.043357086111 -0.20398956657 -0.18002192732 0.045148961461 -0.18637346766 -0.085506102511 0.051359884226 -0.15720353321 0.11760294008 
0.039241029502 -0.20195605943 -0.23121790605 0.052821052676 -0.16046190263 0.12587480442 0.042743084504 -0.19250057217 -0.14399079407 
0.056895767186 -0.25178406654 -0.17210107039 0.061034144102 -0.1860847249 0.143840816 0.018739774118 -0.059387110258 0.030825255272 
0.042318448184 -0.14395601386 0.039423756897 0.012139097029 -0.043078656947 -0.00033825026427 0.040870857848 -0.21280350366 -0.25015025569 
0.020072742621 -0.11856916209 -0.18106762065 0.050945641879 -0.22694236785 -0.16060490004 0.029889376794 -0.13923695327 -0.12071962366 
0.057184704564 -0.19048700005 0.071350346363 0.059987835523 -0.24149599374 -0.08751379903 0.061839526113 -0.26583764342 -0.15593931182 
0.04260826283 -0.21237158314 -0.22350306409 0.064006149167 -0.24468349308 -0.042227197337 0.043392564444 -0.20836104401 -0.19657821849 
0.030912101571 -0.17464862743 -0.24427149901 0.016486790025 -0.048481570833 0.041031633973 0.033245991488 -0.1841727829 -0.24792267236 
0.03951368627 -0.11603558171 0.10812802379 0.019395994755 -0.11130045351 -0.1624137108 0.043812017511 -0.19776383562 -0.14918110244 
0.044416144281 -0.2193778742 -0.22488170928 0.043305569651 -0.1749955935 -0.06757121375 0.033580676857 -0.092725833811 0.1138894454 
0.028875648904 -0.11809519594 -0.052747445056 0.026833099352 -0.15389777802 -0.2218636713 0.063443567939 -0.26218815474 -0.11864692045 
0.018033313156 -0.10819399912 -0.16986369924 0.061211077617 -0.20663743445 0.066146166147 0.042771919349 -0.1608197665 -0.019896443698 
0.029996779544 -0.12795739992 -0.075141844385 0.038426730662 -0.10793362301 0.12414151125 0.045690976027 -0.21351372205 -0.18367310066 
0.060802387904 -0.1827153009 0.15366525659 
f 3 100 double
0 0 0 0 0 0 0 0 0 
0 0 0 0 0 0 0 0 0 
0 0 0 0 0 0 0 0 0 
0 0 0 0 0 0 0 0 0 
0 0 0 0 0 0 0 0 0 
0 0 0 0 0 0 0 0 0 
0 0 0 0 0 0 -0.078763607414 -0.059813027583 0.32654454331 
0 0 0 0 0 0 0 0 0 
0 0 0 0 0 0 0 0 0 
0 0 0 0 0 0 0 0 0 
0 0 0 0 0 0 0 0 0 
0 0 0 0 0 0 0 0 0 
0 0 0 0 0 0 0 0 0 
0 0 0 0 0 0 0 0 0 
0 0 0 0 0 0 0 0 0 
0 0 0 0 0 0 0 0 0 
0 0 0 0 0 0 0 0 0 
0 0 0 0 0 0 0 0 0 
0 0 0 0 0 0 0 0 0 
0 0 0 0 0 0 0 0 0 
0 0 0 0 0 0 0 0 0 
0 0 0 0 0 0 0 0 0 
0 0 0 0 0 0 0 0 0 
0 0 0 -0.060854519281 -0.068458665246 0.31178256771 0 0 0 
0 0 0 0 0 0 0 0 0 
0 0 0 0 0 0 0 0 0 
0 0 0 0 0 0 0 0 0 
0 0 0 0 0 0 0 0 0 
0 0 0 0 0 0 0 0 0 
0 0 0 0 0 0 0 0 0 
0 0 0 0 0 0 0 0 0 
0 0 0 0 0 0 0 0 0 
0 0 0 0 0 0 0 0 0 
0 0 0 
radius 1 100 double
0.010434 0.00981478 0.00892069 0.00845937 0.00731974 0.00728422 0.00643447 0.00619172 0.00585956 
0.00577566 0.00537241 0.00522549 0.00513666 0.00473175 0.00466912 0.00444866 0.00441894 0.00400812 
0.00385622 0.00379948 0.00370243 0.00366942 0.00364039 0.00363813 0.00363644 0.00358692 0.0035797 
0.00341284 0.00337012 0.00336273 0.00332772 0.00323261 0.00320584 0.00320311 0.00318808 0.00313116 
0.00306026 0.00305632 0.00304383 0.00300958 0.00300137 0.00298994 0.0029567 0.00295111 0.00290849 
0.00284552 0.00282964 0.0028207 0.00281971 0.00281899 0.010434 0.00981478 0.00892069 0.00845937 
0.00731974 0.00728422 0.00643447 0.00619172 0.00585956 0.00577566 0.00537241 0.00522549 0.00513666 
0.00473175 0.00466912 0.00444866 0.00441894 0.00400812 0.00385622 0.00379948 0.00370243 0.00366942 
0.00364039 0.00363813 0.00363644 0.00358692 0.0035797 0.00341284 0.00337012 0.00336273 0.00332772 
0.00323261 0.00320584 0.00320311 0.00318808 0.00313116 0.00306026 0.00305632 0.00304383 0.00300958 
0.00300137 0.00298994 0.0029567 0.00295111 0.00290849 0.00284552 0.00282964 0.0028207 0.00281971 
0.00281899 
omega 3 100 double
13.217334738 0.30656368648 -1.2108539963 13.217334738 0.30656368648 -1.2108539963 13.217334738 0.30656368648 -1.2108539963 
13.217334738 0.30656368648 -1.2108539963 13.217334738 0.30656368648 -1.2108539963 13.217334738 0.30656368648 -1.2108539963 
13.217334738 0.30656368648 -1.2108539963 13.217334738 0.30656368648 -1.2108539963 13.217334738 0.30656368648 -1.2108539963 
13.217334738 0.30656368648 -1.2108539963 13.217334738 0.30656368648 -1.2108539963 13.217334738 0.30656368648 -1.2108539963 
13.217334738 0.30656368648 -1.2108539963 13.217334738 0.30656368648 -1.2108539963 13.217334738 0.30656368648 -1.2108539963 
13.217334738 0.30656368648 -1.2108539963 13.217334738 0.30656368648 -1.2108539963 13.217334738 0.30656368648 -1.2108539963 
13.217334738 0.30656368648 -1.2108539963 13.217334738 0.30656368648 -1.2108539963 13.217334738 0.30656368648 -1.2108539963 
13.217334738 0.30656368648 -1.2108539963 13.217334738 0.30656368648 -1.2108539963 13.217334738 0.30656368648 -1.2108539963 
13.217334738 0.30656368648 -1.2108539963 13.217334738 0.30656368648 -1.2108539963 13.217334738 0.30656368648 -1.2108539963 
13.217334738 0.30656368648 -1.2108539963 13.217334738 0.30656368648 -1.2108539963 13.217334738 0.30656368648 -1.2108539963 
13.217334738 0.30656368648 -1.2108539963 13.217334738 0.30656368648 -1.2108539963 13.217334738 0.30656368648 -1.2108539963 
13.217334738 0.30656368648 -1.2108539963 13.217334738 0.30656368648 -1.2108539963 13.217334738 0.30656368648 -1.2108539963 
13.217334738 0.30656368648 -1.2108539963 13.217334738 0.30656368648 -1.2108539963 13.217334738 0.30656368648 -1.2108539963 
13.217334738 0.30656368648 -1.2108539963 13.217334738 0.30656368648 -1.2108539963 13.217334738 0.30656368648 -1.2108539963 
13.217334738 0.30656368648 -1.2108539963 13.217334738 0.30656368648 -1.2108539963 13.217334738 0.30656368648 -1.2108539963 
13.217334738 0.30656368648 -1.2108539963 13.217334738 0.30656368648 -1.2108539963 13.217334738 0.30656368648 -1.2108539963 
13.217334738 0.30656368648 -1.2108539963 13.217334738 0.30656368648 -1.2108539963 11.872319947 3.2261032643 -0.82637031234 
11.872319947 3.2261032643 -0.82637031234 11.872319947 3.2261032643 -0.82637031234 11.872319947 3.2261032643 -0.82637031234 
11.872319947 3.2261032643 -0.82637031234 11.872319947 3.2261032643 -0.82637031234 11.872319947 3.2261032643 -0.82637031234 
11.872319947 3.2261032643 -0.82637031234 11.872319947 3.2261032643 -0.82637031234 11.872319947 3.2261032643 -0.82637031234 
11.872319947 3.2261032643 -0.82637031234 11.872319947 3.2261032643 -0.82637031234 11.872319947 3.2261032643 -0.82637031234 
11.872319947 3.2261032643 -0.82637031234 11.872319947 3.2261032643 -0.82637031234 11.872319947 3.2261032643 -0.82637031234 
11.872319947 3.2261032643 -0.82637031234 11.872319947 3.2261032643 -0.82637031234 11.872319947 3.2261032643 -0.82637031234 
11.872319947 3.2261032643 -0.82637031234 11.872319947 3.2261032643 -0.82637031234 11.872319947 3.2261032643 -0.82637031234 
11.872319947 3.2261032643 -0.82637031234 11.872319947 3.2261032643 -0.82637031234 11.872319947 3.2261032643 -0.82637031234 
11.872319947 3.2261032643 -0.82637031234 11.872319947 3.2261032643 -0.82637031234 11.872319947 3.2261032643 -0.82637031234 
11.872319947 3.2261032643 -0.82637031234 11.872319947 3.2261032643 -0.82637031234 11.872319947 3.2261032643 -0.82637031234 
11.872319947 3.2261032643 -0.82637031234 11.872319947 3.2261032643 -0.82637031234 11.872319947 3.2261032643 -0.82637031234 
11.872319947 3.2261032643 -0.82637031234 11.872319947 3.2261032643 -0.82637031234 11.872319947 3.2261032643 -0.82637031234 
11.872319947 3.2261032643 -0.82637031234 11.872319947 3.2261032643 -0.82637031234 11.872319947 3.2261032643 -0.82637031234 
11.872319947 3.2261032643 -0.82637031234 11.872319947 3.2261032643 -0.82637031234 11.872319947 3.2261032643 -0.82637031234 
11.872319947 3.2261032643 -0.82637031234 11.872319947 3.2261032643 -0.82637031234 11.872319947 3.2261032643 -0.82637031234 
11.872319947 3.2261032643 -0.82637031234 11.872319947 3.2261032643 -0.82637031234 11.872319947 3.2261032643 -0.82637031234 
11.872319947 3.2261032643 -0.82637031234 
