# vtk DataFile Version 4.1
Generated by LIGGGHTS
ASCII
DATASET POLYDATA
POINTS 100 float
-0.116791 -0.148837 0.0128521 -0.126659 -0.145537 0.0118191 -0.136424 -0.143382 0.0125414 
-0.123939 -0.1552 0.0174791 -0.110292 -0.155434 0.0177839 -0.13232 -0.152725 0.0166574 
-0.142932 -0.149013 0.0155188 -0.116415 -0.159644 0.0166488 -0.145203 -0.141502 0.0121905 
-0.1196 -0.138853 0.00907846 -0.130203 -0.160694 0.0192779 -0.13947 -0.154738 0.0174341 
-0.124242 -0.135739 0.0122176 -0.125153 -0.164038 0.0193094 -0.130444 -0.136103 0.0127602 
-0.135957 -0.15886 0.018302 -0.116879 -0.157219 0.022439 -0.141798 -0.136329 0.0153663 
-0.116009 -0.14247 0.00441827 -0.149186 -0.146629 0.0132586 -0.120838 -0.14604 0.00362543 
-0.129522 -0.166235 0.0206397 -0.113159 -0.158728 0.0112033 -0.102887 -0.154109 0.0194701 
-0.106832 -0.152457 0.0119987 -0.120269 -0.138488 0.0152086 -0.107977 -0.148842 0.0202775 
-0.105105 -0.153697 0.0227949 -0.133636 -0.164768 0.0205826 -0.127672 -0.148515 0.021223 
-0.136609 -0.163119 0.0201602 -0.110224 -0.162805 0.0163149 -0.133038 -0.144709 0.00437073 
-0.120398 -0.164772 0.0177168 -0.150917 -0.141591 0.0103758 -0.10993 -0.156714 0.0102384 
-0.140672 -0.160049 0.0190557 -0.120528 -0.162529 0.020442 -0.146172 -0.154552 0.0166924 
-0.125111 -0.136882 0.0069238 -0.137304 -0.152402 0.0113065 -0.122141 -0.163259 0.0150426 
-0.117458 -0.152823 0.0228325 -0.119117 -0.158955 0.0105672 -0.143794 -0.142831 0.0179297 
-0.149094 -0.1513 0.0152225 -0.106577 -0.148794 0.0106113 -0.127982 -0.136378 0.0082567 
-0.140377 -0.16266 0.0206798 -0.134648 -0.134317 0.0145895 -0.0471791 -0.11916 0.012617 
-0.0573233 -0.116717 0.0119369 -0.067223 -0.115491 0.0129492 -0.0536229 -0.126362 0.0170456 
-0.0400061 -0.125378 0.0170848 -0.0622083 -0.124616 0.0165068 -0.0731321 -0.121825 0.015756 
-0.0457535 -0.130063 0.0158504 -0.0761398 -0.114395 0.0128576 -0.0509545 -0.109298 0.00940997 
-0.0593289 -0.13248 0.018678 -0.06913 -0.127301 0.0173125 -0.0557814 -0.106773 0.0127894 
-0.054001 -0.135352 0.0184453 -0.061912 -0.107722 0.0134276 -0.0652445 -0.131128 0.0179037 
-0.0462985 -0.127976 0.0217643 -0.0731374 -0.109099 0.0162291 -0.0471635 -0.112343 0.00450564 
-0.079624 -0.119907 0.0137366 -0.0516718 -0.116291 0.00362164 -0.0581246 -0.137997 0.0197427 
-0.0427185 -0.12859 0.0103992 -0.0327116 -0.123474 0.0186986 -0.0369597 -0.121821 0.0113956 
-0.0515113 -0.109296 0.0155621 -0.0382311 -0.118734 0.0198677 -0.0348803 -0.123428 0.0220807 
-0.0623533 -0.136907 0.0198369 -0.0578503 -0.120233 0.0211939 -0.065471 -0.135514 0.0195543 
-0.0393147 -0.132632 0.015241 -0.0639213 -0.116104 0.00466009 -0.0492376 -0.135575 0.0167294 
-0.0818639 -0.114911 0.011147 -0.0397057 -0.126248 0.00947844 -0.0698163 -0.132773 0.0186832 
-0.0495044 -0.133489 0.0195674 -0.0758368 -0.127685 0.0167056 -0.056667 -0.107728 0.0074612 
-0.0673226 -0.124481 0.0112728 -0.0511693 -0.134097 0.0141686 -0.047258 -0.123676 0.022392 
-0.0486459 -0.129323 0.00986305 -0.0744864 -0.115873 0.0184944 -0.0790711 -0.124642 0.0154579 
-0.0370645 -0.118086 0.0101923 -0.05954 -0.107551 0.00887111 -0.0692517 -0.135423 0.0201664 
-0.0662157 -0.106414 0.0154233 
VERTICES 100 200
1 0 
1 1 
1 2 
1 3 
1 4 
1 5 
1 6 
1 7 
1 8 
1 9 
1 10 
1 11 
1 12 
1 13 
1 14 
1 15 
1 16 
1 17 
1 18 
1 19 
1 20 
1 21 
1 22 
1 23 
1 24 
1 25 
1 26 
1 27 
1 28 
1 29 
1 30 
1 31 
1 32 
1 33 
1 34 
1 35 
1 36 
1 37 
1 38 
1 39 
1 40 
1 41 
1 42 
1 43 
1 44 
1 45 
1 46 
1 47 
1 48 
1 49 
1 50 
1 51 
1 52 
1 53 
1 54 
1 55 
1 56 
1 57 
1 58 
1 59 
1 60 
1 61 
1 62 
1 63 
1 64 
1 65 
1 66 
1 67 
1 68 
1 69 
1 70 
1 71 
1 72 
1 73 
1 74 
1 75 
1 76 
1 77 
1 78 
1 79 
1 80 
1 81 
1 82 
1 83 
1 84 
1 85 
1 86 
1 87 
1 88 
1 89 
1 90 
1 91 
1 92 
1 93 
1 94 
1 95 
1 96 
1 97 
1 98 
1 99 

POINT_DATA 100
FIELD FieldData 7
id 1 100 int
1 2 3 4 5 6 7 8 9 
10 11 12 13 14 15 16 17 18 
19 20 21 22 23 24 25 26 27 
28 29 30 31 32 33 34 35 36 
37 38 39 40 41 42 43 44 45 
46 47 48 49 50 51 52 53 54 
55 56 57 58 59 60 61 62 63 
64 65 66 67 68 69 70 71 72 
73 74 75 76 77 78 79 80 81 
82 83 84 85 86 87 88 89 90 
91 92 93 94 95 96 97 98 99 
100 
mol 1 100 int
1 1 1 1 1 1 1 1 1 
1 1 1 1 1 1 1 1 1 
1 1 1 1 1 1 1 1 1 
1 1 1 1 1 1 1 1 1 
1 1 1 1 1 1 1 1 1 
1 1 1 1 1 2 2 2 2 
2 2 2 2 2 2 2 2 2 
2 2 2 2 2 2 2 2 2 
2 2 2 2 2 2 2 2 2 
2 2 2 2 2 2 2 2 2 
2 2 2 2 2 2 2 2 2 
2 
type 1 100 int
1 1 1 1 1 1 1 1 1 
1 1 1 1 1 1 1 1 1 
1 1 1 1 1 1 1 1 1 
1 1 1 1 1 1 1 1 1 
1 1 1 1 1 1 1 1 1 
1 1 1 1 1 1 1 1 1 
1 1 1 1 1 1 1 1 1 
1 1 1 1 1 1 1 1 1 
1 1 1 1 1 1 1 1 1 
1 1 1 1 1 1 1 1 1 
1 1 1 1 1 1 1 1 1 
1 
v 3 100 double
0.00949493456 -0.16445541001 -0.040427325288 0.012393868838 -0.14010533834 0.0096741471516 0.015560051213 -0.13773740247 0.045416773409 
0.0063074429141 -0.21376879403 -0.1131716862 0.0063137430507 -0.23344661176 -0.1285184315 0.0084390402069 -0.19377985295 -0.074699240978 
0.011721567504 -0.16724877423 -0.018783716679 0.00037919611267 -0.2121823787 -0.17537922928 0.017428338053 -0.12315140756 0.076838721606 
0.017673483324 -0.11418313127 0.08648761722 0.0015545928846 -0.22888374624 -0.17588155848 0.0068049814837 -0.19513422223 -0.093249541419 
0.024159306621 -0.14788180465 0.12950850537 -0.0023084501209 -0.23515323403 -0.22213890055 0.024229769228 -0.14742212101 0.13062275187 
0.0027987479539 -0.21003162048 -0.14779793608 0.0084800696208 -0.28376247346 -0.14474596346 0.026342412153 -0.16666948587 0.13815745018 
0.0092158295674 -0.060317130293 0.038159783444 0.01243504397 -0.13181896006 0.016605794014 0.0043388331484 -0.044822310233 -0.0019013552828 
-0.0036523095203 -0.24663854832 -0.2455190357 -0.0035186141649 -0.14814590795 -0.16693609548 0.0093928834369 -0.26306678085 -0.11876458107 
0.0045040608707 -0.16541518603 -0.094596633997 0.02368632056 -0.18975967072 0.091642035201 0.016258386576 -0.26719995796 -0.048520500285 
0.012903165645 -0.30189806315 -0.11161152348 -0.0019975853056 -0.24114018247 -0.22350144531 0.017500224877 -0.25605538594 -0.026499213177 
-0.00046312759997 -0.23241859764 -0.20024623534 -0.0036040548714 -0.21522849796 -0.22039820817 0.0065677281529 -0.039907972106 0.025804119498 
-0.0046141114055 -0.22085000756 -0.23561236047 0.015670061086 -0.093897279531 0.080935386949 -0.0020545330385 -0.13988406718 -0.14479425859 
0.0021019628535 -0.21393228703 -0.15831114996 0.00048044615943 -0.25464271264 -0.20755589408 0.0063446567548 -0.17809673567 -0.084830480698 
0.018003278861 -0.080933175651 0.11606303479 0.003937803954 -0.1213330257 -0.066126532215 -0.0052919110773 -0.18551391867 -0.21518714289 
0.013954274831 -0.28798995579 -0.089466863297 -0.0043625283762 -0.13328885895 -0.16433060267 0.021112544174 -0.19627492109 0.058991244746 
0.0087894806993 -0.15638720608 -0.041657775738 0.007502499927 -0.14843159502 -0.04920052547 0.019805178944 -0.094193998274 0.12496126516 
0.0005445363505 -0.23450525583 -0.19109571079 0.027976415569 -0.16531451531 0.15670762967 0.043854560479 -0.14321864142 -0.044971076285 
0.043057573787 -0.12847322659 0.01987993146 0.047724038388 -0.13252892616 0.070430655017 0.055273966555 -0.1873457329 -0.10011795414 
0.056125231644 -0.19752257798 -0.14024433269 0.054507145259 -0.17527093723 -0.048768275687 0.053694933122 -0.15918984143 0.022833143674 
0.048152403546 -0.17982343818 -0.17029455554 0.048165097211 -0.12513886617 0.11585715281 0.038910754983 -0.10522096558 0.077702726551 
0.05700483171 -0.20122746132 -0.14609181273 0.055600595395 -0.17918411098 -0.052416457986 0.053365051243 -0.13895837766 0.12355471994 
0.054078226646 -0.20247939764 -0.19764244703 0.055074709987 -0.1415952999 0.13605608828 0.055075094716 -0.18847229301 -0.10906712245 
0.071778437437 -0.24451940772 -0.14529218426 0.06457326603 -0.16439273798 0.16290824953 0.018376987023 -0.053959399925 0.030000651645 
0.047509941312 -0.13231960511 0.068232948356 0.012243310042 -0.041003991932 0.003426145798 0.057041051746 -0.2138072125 -0.21131686004 
0.028805453386 -0.12200272967 -0.16544721919 0.063527240214 -0.22050411355 -0.14659461342 0.037379300044 -0.13709003148 -0.11249698388 
0.061936241969 -0.17253015384 0.07980511813 0.071295142393 -0.22942051242 -0.073768948424 0.076217868684 -0.25617378986 -0.13796770058 
0.058173660461 -0.211816588 -0.18349074337 0.075185577735 -0.22997461701 -0.016841115038 0.058113330307 -0.20647584357 -0.15649065764 
0.04403289325 -0.1777251932 -0.22267038261 0.01626347263 -0.043665837706 0.051327067988 0.047497248176 -0.18700422389 -0.21791899639 
0.041394273687 -0.10221598953 0.13160677275 0.027035568916 -0.11402519061 -0.15094756323 0.056814811467 -0.19377922606 -0.11006555358 
0.059610862012 -0.21804644796 -0.19396728503 0.053054859849 -0.16770577427 -0.031541121612 0.03274066864 -0.079685435121 0.1163522982 
0.035015456548 -0.11400752937 -0.028144103302 0.038971482488 -0.15743851745 -0.19441940488 0.077205706412 -0.25074085228 -0.094367266477 
0.026274835336 -0.11185963459 -0.15132165706 0.068203387206 -0.18835843009 0.093409238592 0.05056340214 -0.15165903683 0.014057951512 
0.035548945595 -0.12377152589 -0.070998230969 0.038143981706 -0.093146078729 0.12905362024 0.060469186636 -0.210506492 -0.14134042651 
0.063479638383 -0.16047904502 0.16655641722 
f 3 100 double
0 0 0 0 0 0 0 0 0 
0 0 0 0 0 0 0 0 0 
0 0 0 0 0 0 0 0 0 
0 0 0 0 0 0 0 0 0 
0 0 0 0 0 0 0 0 0 
0 0 0 0 0 0 0 0 0 
0 0 0 0 0 0 -0.08782964722 -0.057947212951 0.36543670682 
0 0 0 0 0 0 0 0 0 
0 0 0 0 0 0 0 0 0 
0 0 0 0 0 0 0 0 0 
0 0 0 0 0 0 0 0 0 
0 0 0 0 0 0 0 0 0 
0 0 0 0 0 0 0 0 0 
0 0 0 0 0 0 0 0 0 
0 0 0 0 0 0 0 0 0 
0 0 0 0 0 0 0 0 0 
0 0 0 0 0 0 0 0 0 
0 0 0 0 0 0 0 0 0 
0 0 0 0 0 0 0 0 0 
0 0 0 0 0 0 0 0 0 
0 0 0 0 0 0 0 0 0 
0 0 0 0 0 0 0 0 0 
0 0 0 0 0 0 0 0 0 
0 0 0 -0.062402820303 -0.066211496352 0.32948952193 0 0 0 
0 0 0 0 0 0 0 0 0 
0 0 0 0 0 0 0 0 0 
0 0 0 0 0 0 0 0 0 
0 0 0 0 0 0 0 0 0 
0 0 0 0 0 0 0 0 0 
0 0 0 0 0 0 0 0 0 
0 0 0 0 0 0 0 0 0 
0 0 0 0 0 0 0 0 0 
0 0 0 0 0 0 0 0 0 
0 0 0 
radius 1 100 double
0.010434 0.00981478 0.00892069 0.00845937 0.00731974 0.00728422 0.00643447 0.00619172 0.00585956 
0.00577566 0.00537241 0.00522549 0.00513666 0.00473175 0.00466912 0.00444866 0.00441894 0.00400812 
0.00385622 0.00379948 0.00370243 0.00366942 0.00364039 0.00363813 0.00363644 0.00358692 0.0035797 
0.00341284 0.00337012 0.00336273 0.00332772 0.00323261 0.00320584 0.00320311 0.00318808 0.00313116 
0.00306026 0.00305632 0.00304383 0.00300958 0.00300137 0.00298994 0.0029567 0.00295111 0.00290849 
0.00284552 0.00282964 0.0028207 0.00281971 0.00281899 0.010434 0.00981478 0.00892069 0.00845937 
0.00731974 0.00728422 0.00643447 0.00619172 0.00585956 0.00577566 0.00537241 0.00522549 0.00513666 
0.00473175 0.00466912 0.00444866 0.00441894 0.00400812 0.00385622 0.00379948 0.00370243 0.00366942 
0.00364039 0.00363813 0.00363644 0.00358692 0.0035797 0.00341284 0.00337012 0.00336273 0.00332772 
0.00323261 0.00320584 0.00320311 0.00318808 0.00313116 0.00306026 0.00305632 0.00304383 0.00300958 
0.00300137 0.00298994 0.0029567 0.00295111 0.00290849 0.00284552 0.00282964 0.0028207 0.00281971 
0.00281899 
omega 3 100 double
12.455511835 0.91158686481 -1.1637365701 12.455511835 0.91158686481 -1.1637365701 12.455511835 0.91158686481 -1.1637365701 
12.455511835 0.91158686481 -1.1637365701 12.455511835 0.91158686481 -1.1637365701 12.455511835 0.91158686481 -1.1637365701 
12.455511835 0.91158686481 -1.1637365701 12.455511835 0.91158686481 -1.1637365701 12.455511835 0.91158686481 -1.1637365701 
12.455511835 0.91158686481 -1.1637365701 12.455511835 0.91158686481 -1.1637365701 12.455511835 0.91158686481 -1.1637365701 
12.455511835 0.91158686481 -1.1637365701 12.455511835 0.91158686481 -1.1637365701 12.455511835 0.91158686481 -1.1637365701 
12.455511835 0.91158686481 -1.1637365701 12.455511835 0.91158686481 -1.1637365701 12.455511835 0.91158686481 -1.1637365701 
12.455511835 0.91158686481 -1.1637365701 12.455511835 0.91158686481 -1.1637365701 12.455511835 0.91158686481 -1.1637365701 
12.455511835 0.91158686481 -1.1637365701 12.455511835 0.91158686481 -1.1637365701 12.455511835 0.91158686481 -1.1637365701 
12.455511835 0.91158686481 -1.1637365701 12.455511835 0.91158686481 -1.1637365701 12.455511835 0.91158686481 -1.1637365701 
12.455511835 0.91158686481 -1.1637365701 12.455511835 0.91158686481 -1.1637365701 12.455511835 0.91158686481 -1.1637365701 
12.455511835 0.91158686481 -1.1637365701 12.455511835 0.91158686481 -1.1637365701 12.455511835 0.91158686481 -1.1637365701 
12.455511835 0.91158686481 -1.1637365701 12.455511835 0.91158686481 -1.1637365701 12.455511835 0.91158686481 -1.1637365701 
12.455511835 0.91158686481 -1.1637365701 12.455511835 0.91158686481 -1.1637365701 12.455511835 0.91158686481 -1.1637365701 
12.455511835 0.91158686481 -1.1637365701 12.455511835 0.91158686481 -1.1637365701 12.455511835 0.91158686481 -1.1637365701 
12.455511835 0.91158686481 -1.1637365701 12.455511835 0.91158686481 -1.1637365701 12.455511835 0.91158686481 -1.1637365701 
12.455511835 0.91158686481 -1.1637365701 12.455511835 0.91158686481 -1.1637365701 12.455511835 0.91158686481 -1.1637365701 
12.455511835 0.91158686481 -1.1637365701 12.455511835 0.91158686481 -1.1637365701 11.005535672 3.7424780668 -0.7156885874 
11.005535672 3.7424780668 -0.7156885874 11.005535672 3.7424780668 -0.7156885874 11.005535672 3.7424780668 -0.7156885874 
11.005535672 3.7424780668 -0.7156885874 11.005535672 3.7424780668 -0.7156885874 11.005535672 3.7424780668 -0.7156885874 
11.005535672 3.7424780668 -0.7156885874 11.005535672 3.7424780668 -0.7156885874 11.005535672 3.7424780668 -0.7156885874 
11.005535672 3.7424780668 -0.7156885874 11.005535672 3.7424780668 -0.7156885874 11.005535672 3.7424780668 -0.7156885874 
11.005535672 3.7424780668 -0.7156885874 11.005535672 3.7424780668 -0.7156885874 11.005535672 3.7424780668 -0.7156885874 
11.005535672 3.7424780668 -0.7156885874 11.005535672 3.7424780668 -0.7156885874 11.005535672 3.7424780668 -0.7156885874 
11.005535672 3.7424780668 -0.7156885874 11.005535672 3.7424780668 -0.7156885874 11.005535672 3.7424780668 -0.7156885874 
11.005535672 3.7424780668 -0.7156885874 11.005535672 3.7424780668 -0.7156885874 11.005535672 3.7424780668 -0.7156885874 
11.005535672 3.7424780668 -0.7156885874 11.005535672 3.7424780668 -0.7156885874 11.005535672 3.7424780668 -0.7156885874 
11.005535672 3.7424780668 -0.7156885874 11.005535672 3.7424780668 -0.7156885874 11.005535672 3.7424780668 -0.7156885874 
11.005535672 3.7424780668 -0.7156885874 11.005535672 3.7424780668 -0.7156885874 11.005535672 3.7424780668 -0.7156885874 
11.005535672 3.7424780668 -0.7156885874 11.005535672 3.7424780668 -0.7156885874 11.005535672 3.7424780668 -0.7156885874 
11.005535672 3.7424780668 -0.7156885874 11.005535672 3.7424780668 -0.7156885874 11.005535672 3.7424780668 -0.7156885874 
11.005535672 3.7424780668 -0.7156885874 11.005535672 3.7424780668 -0.7156885874 11.005535672 3.7424780668 -0.7156885874 
11.005535672 3.7424780668 -0.7156885874 11.005535672 3.7424780668 -0.7156885874 11.005535672 3.7424780668 -0.7156885874 
11.005535672 3.7424780668 -0.7156885874 11.005535672 3.7424780668 -0.7156885874 11.005535672 3.7424780668 -0.7156885874 
11.005535672 3.7424780668 -0.7156885874 
