# vtk DataFile Version 4.1
Generated by LIGGGHTS
ASCII
DATASET POLYDATA
POINTS 100 float
-0.118525 -0.13446 0.0171225 -0.12766 -0.135199 0.0120883 -0.137213 -0.13548 0.00905864 
-0.12665 -0.137251 0.0233839 -0.113736 -0.134049 0.0264486 -0.13442 -0.138063 0.0193837 
-0.144238 -0.138765 0.0138324 -0.119166 -0.139125 0.0275715 -0.145497 -0.136465 0.00572259 
-0.120198 -0.130904 0.00680919 -0.133086 -0.141202 0.0273345 -0.141439 -0.14055 0.0199494 
-0.125616 -0.127672 0.00567179 -0.128237 -0.142299 0.0307943 -0.131684 -0.128977 0.00506799 
-0.138298 -0.141954 0.0242209 -0.121399 -0.133563 0.0294959 -0.143289 -0.129945 0.0046954 
-0.115311 -0.135775 0.00711159 -0.149544 -0.140146 0.00937857 -0.119621 -0.139877 0.00824603 
-0.132772 -0.143886 0.0324058 -0.114425 -0.141521 0.0239838 -0.107211 -0.130267 0.0280464 
-0.108727 -0.135226 0.0211744 -0.1227 -0.126561 0.0104203 -0.11238 -0.127284 0.0237233 
-0.110339 -0.128193 0.0294822 -0.136695 -0.143873 0.0304851 -0.131437 -0.130951 0.0202136 
-0.139423 -0.143726 0.0284172 -0.113122 -0.140087 0.0308841 -0.131489 -0.141267 0.005352 
-0.123213 -0.142806 0.0312275 -0.15039 -0.139102 0.00347231 -0.111084 -0.140069 0.0225196 
-0.143002 -0.143332 0.024651 -0.124195 -0.139416 0.0313464 -0.147602 -0.142484 0.0180054 
-0.124822 -0.132322 0.00287232 -0.137549 -0.1427 0.0146635 -0.124083 -0.144029 0.0280299 
-0.122132 -0.130421 0.0264292 -0.119905 -0.143492 0.0225568 -0.145878 -0.133071 0.0107256 
-0.149987 -0.141955 0.014092 -0.108114 -0.133626 0.0176424 -0.127969 -0.131716 0.00280892 
-0.143177 -0.143922 0.0276779 -0.13627 -0.127459 0.00412966 -0.0496071 -0.106928 0.0176464 
-0.058654 -0.107543 0.0124394 -0.0681555 -0.107783 0.00924628 -0.0578059 -0.110028 0.0236611 
-0.0449719 -0.106844 0.027058 -0.0655047 -0.110746 0.0195066 -0.0752257 -0.11131 0.0137734 
-0.0503739 -0.112003 0.0278934 -0.0763761 -0.108704 0.00574019 -0.051147 -0.102984 0.00745398 
-0.0642694 -0.114183 0.0273493 -0.0725098 -0.11331 0.0198607 -0.0565747 -0.0997544 0.00635576 
-0.0594662 -0.115375 0.0308421 -0.0626211 -0.101083 0.00560299 -0.0694243 -0.114855 0.0241246 
-0.0526863 -0.10654 0.029997 -0.0742097 -0.102132 0.00500438 -0.0462234 -0.107823 0.00764526 
-0.0804479 -0.112559 0.00918341 -0.0505146 -0.112002 0.00854848 -0.0640123 -0.117061 0.0323165 
-0.0455551 -0.114218 0.0242924 -0.0385064 -0.103074 0.028908 -0.0398685 -0.107772 0.0218239 
-0.0537441 -0.0988063 0.0111908 -0.0436317 -0.0999661 0.0246212 -0.0416748 -0.101084 0.0303727 
-0.0679042 -0.117005 0.0303343 -0.0625971 -0.103648 0.020662 -0.0706003 -0.116799 0.0282296 
-0.044375 -0.113045 0.0312636 -0.0623228 -0.113373 0.00540997 -0.0544457 -0.115858 0.0313366 
-0.081209 -0.111291 0.00330946 -0.0422048 -0.112683 0.0229405 -0.0741227 -0.116287 0.0244241 
-0.0554596 -0.112483 0.0315719 -0.0786234 -0.115217 0.0177428 -0.0556952 -0.104284 0.00339013 
-0.0685172 -0.11522 0.0145587 -0.0552541 -0.116961 0.0280801 -0.053398 -0.103286 0.0270438 
-0.0509947 -0.116176 0.0227006 -0.0768662 -0.105512 0.010865 -0.0809499 -0.114555 0.0138148 
-0.0392142 -0.10603 0.0183675 -0.0588459 -0.103702 0.00329932 -0.07434 -0.116996 0.0274223 
-0.0672047 -0.0995677 0.00465026 
VERTICES 100 200
1 0 
1 1 
1 2 
1 3 
1 4 
1 5 
1 6 
1 7 
1 8 
1 9 
1 10 
1 11 
1 12 
1 13 
1 14 
1 15 
1 16 
1 17 
1 18 
1 19 
1 20 
1 21 
1 22 
1 23 
1 24 
1 25 
1 26 
1 27 
1 28 
1 29 
1 30 
1 31 
1 32 
1 33 
1 34 
1 35 
1 36 
1 37 
1 38 
1 39 
1 40 
1 41 
1 42 
1 43 
1 44 
1 45 
1 46 
1 47 
1 48 
1 49 
1 50 
1 51 
1 52 
1 53 
1 54 
1 55 
1 56 
1 57 
1 58 
1 59 
1 60 
1 61 
1 62 
1 63 
1 64 
1 65 
1 66 
1 67 
1 68 
1 69 
1 70 
1 71 
1 72 
1 73 
1 74 
1 75 
1 76 
1 77 
1 78 
1 79 
1 80 
1 81 
1 82 
1 83 
1 84 
1 85 
1 86 
1 87 
1 88 
1 89 
1 90 
1 91 
1 92 
1 93 
1 94 
1 95 
1 96 
1 97 
1 98 
1 99 

POINT_DATA 100
FIELD FieldData 7
id 1 100 int
1 2 3 4 5 6 7 8 9 
10 11 12 13 14 15 16 17 18 
19 20 21 22 23 24 25 26 27 
28 29 30 31 32 33 34 35 36 
37 38 39 40 41 42 43 44 45 
46 47 48 49 50 51 52 53 54 
55 56 57 58 59 60 61 62 63 
64 65 66 67 68 69 70 71 72 
73 74 75 76 77 78 79 80 81 
82 83 84 85 86 87 88 89 90 
91 92 93 94 95 96 97 98 99 
100 
mol 1 100 int
1 1 1 1 1 1 1 1 1 
1 1 1 1 1 1 1 1 1 
1 1 1 1 1 1 1 1 1 
1 1 1 1 1 1 1 1 1 
1 1 1 1 1 1 1 1 1 
1 1 1 1 1 2 2 2 2 
2 2 2 2 2 2 2 2 2 
2 2 2 2 2 2 2 2 2 
2 2 2 2 2 2 2 2 2 
2 2 2 2 2 2 2 2 2 
2 2 2 2 2 2 2 2 2 
2 
type 1 100 int
1 1 1 1 1 1 1 1 1 
1 1 1 1 1 1 1 1 1 
1 1 1 1 1 1 1 1 1 
1 1 1 1 1 1 1 1 1 
1 1 1 1 1 1 1 1 1 
1 1 1 1 1 1 1 1 1 
1 1 1 1 1 1 1 1 1 
1 1 1 1 1 1 1 1 1 
1 1 1 1 1 1 1 1 1 
1 1 1 1 1 1 1 1 1 
1 1 1 1 1 1 1 1 1 
1 
v 3 100 double
-0.12227304345 -0.13721623213 0.14692414923 -0.092336791766 -0.093497575496 0.086186875589 -0.074202769401 -0.064251256867 0.026287106919 
-0.16219138773 -0.1774857126 0.077178175906 -0.17842451933 -0.2094228779 0.17893373253 -0.13856759476 -0.14237626553 0.024152104946 
-0.10547514657 -0.094352938721 -0.040441651217 -0.1888947059 -0.21376849119 0.10865813507 -0.054723171362 -0.033665680121 -0.03110985436 
-0.057274559703 -0.059988242579 0.16301195409 -0.18896379671 -0.20194556831 0.0090949510874 -0.14379164768 -0.14146518006 -0.036659839519 
-0.048051040058 -0.047682603482 0.15403410749 -0.21069976819 -0.23095786528 0.030361188145 -0.045340526326 -0.038839359205 0.10768930637 
-0.17066231236 -0.17522359128 -0.027991868769 -0.19651701115 -0.22633661548 0.1361351091 -0.043786656073 -0.027692594407 0.030305690814 
-0.062631052002 -0.065754270162 0.15668343019 -0.079516956539 -0.05768388883 -0.082738732708 -0.072467054158 -0.070996202487 0.10036013809 
-0.22160242373 -0.23955278414 -0.0087866134745 -0.16891388795 -0.19075701005 0.11969710072 -0.18535718622 -0.2259228007 0.24630942172 
-0.14735294236 -0.17417458083 0.20058342583 -0.075988058838 -0.084793616833 0.17987740173 -0.15703128866 -0.19031658378 0.23700851935 
-0.19254705155 -0.23424171073 0.24265906773 -0.20996763981 -0.22255605235 -0.032437334582 -0.13844307257 -0.15065363866 0.094632912993 
-0.1973440254 -0.20533908778 -0.047860845009 -0.20964148264 -0.24256006595 0.13815119952 -0.05595598375 -0.041073837701 0.018281829585 
-0.2136886016 -0.23778685064 0.057029391763 -0.043011847386 -0.013537825647 -0.080162700591 -0.1590004313 -0.18238282642 0.15061814178 
-0.17426340918 -0.17498853892 -0.066625340233 -0.21195420088 -0.2379522862 0.076073184617 -0.13342485377 -0.1226754137 -0.088214629452 
-0.034472234108 -0.027623343481 0.12457039354 -0.11335382792 -0.10532011463 -0.02896185867 -0.19521940648 -0.21358875156 0.042754177032 
-0.17568051871 -0.20320177711 0.15485547318 -0.16170290968 -0.17627137226 0.071998142692 -0.082548679649 -0.070265954357 -0.0084017530998 
-0.10935540706 -0.092104632052 -0.098751913997 -0.12481622312 -0.14858388292 0.21608113926 -0.033650217208 -0.02487812089 0.10998583761 
-0.19301091567 -0.19717235299 -0.072026856669 -0.038562471877 -0.028603463912 0.091117166083 -0.1002394377 -0.12272644686 0.12773967894 
-0.085056470742 -0.082950378047 0.09665907492 -0.075809691535 -0.060400476981 0.067447822658 -0.11600242577 -0.17736254799 0.078096098553 
-0.12720359247 -0.20008095899 0.14171100896 -0.10378207722 -0.14584967189 0.04999923924 -0.087117752158 -0.10194198421 0.017426014393 
-0.12718941992 -0.20965579288 0.082663940495 -0.065350453448 -0.034609465169 0.036152042421 -0.072918549911 -0.03733341953 0.15665680504 
-0.12461749631 -0.21153386014 0.024496573388 -0.10360045827 -0.15210500334 0.0082978692205 -0.071281338524 -0.030584056309 0.16841125852 
-0.13405409908 -0.23880432623 0.028165273058 -0.068508532789 -0.027041409382 0.13988488211 -0.1150790684 -0.18669101073 0.0040757899749 
-0.13575330055 -0.22850596263 0.12220898151 -0.066307692292 -0.027383518689 0.097877131627 -0.071210986623 -0.036655456416 0.1298568104 
-0.073404779355 -0.065596633256 -0.008064451688 -0.071848044742 -0.046285717478 0.082277985151 -0.13748650331 -0.2533787315 0.0009162607124 
-0.11585570603 -0.17698761496 0.077737786234 -0.13425275541 -0.2126984328 0.19205927515 -0.11179734457 -0.15348320306 0.14846730659 
-0.085555196804 -0.070113888641 0.18451917618 -0.12343701989 -0.17886979186 0.20365078232 -0.13937013541 -0.22654916583 0.1998068138 
-0.13184192075 -0.23844543513 -0.0097438763228 -0.11039473882 -0.15425657297 0.11828573924 -0.12591718108 -0.22192071426 -0.01571257134 
-0.13634570354 -0.23533437145 0.091023987099 -0.062230190693 -0.025271713958 0.036907637078 -0.1352437977 -0.24064310565 0.038447498645 
-0.057191264652 -0.016325159606 0.00047071498117 -0.11270363182 -0.16400511646 0.10029553075 -0.11526851341 -0.1914104254 -0.021466563341 
-0.13748941175 -0.24310320848 0.06406135577 -0.096653271626 -0.13706035663 -0.025298297252 -0.060686698995 -0.005119128496 0.13265810847 
-0.087542816389 -0.10545125742 0.0035864179746 -0.12541359178 -0.21350703072 0.026816541334 -0.12882050297 -0.20388716937 0.14765958914 
-0.11038967196 -0.16607404713 0.045633829075 -0.081498768383 -0.07813513423 0.061714229331 -0.08572444685 -0.10495864326 -0.026360847235 
-0.10272066009 -0.12397638901 0.16505621386 -0.060697978835 -0.0058198516413 0.12856015825 -0.12351559047 -0.21684259434 -0.028079915066 
-0.066489204987 -0.021127946376 0.13957805385 
f 3 100 double
0 0 0 0 0 0 0 0 0 
0 0 0 0 0 0 0 0 0 
0 0 0 0 0 0 0.48485405913 0.13470105777 1.4890456583 
0 0 0 0 0 0 0 0 0 
0 0 0 0 0 0 0 0 0 
0 0 0 0 0 0 0 0 0 
0 0 0 0 0 0 0 0 0 
0 0 0 0 0 0 0 0 0 
0 0 0 0 0 0 0 0 0 
0 0 0 0 0 0 0 0 0 
0 0 0 0 0 0 0 0 0 
0 0 0 0 0 0 0 0 0 
0 0 0 0 0 0 0 0 0 
0.28160342168 0.074551257398 -0.83086919008 0 0 0 0 0 0 
0 0 0 0 0 0 0 0 0 
0 0 0 0 0 0 0.14538546031 0.03304032407 -0.71934420999 
0 0 0 0 0 0 0 0 0 
0 0 0 0 0 0 0 0 0 
0 0 0 0 0 0 0 0 0 
0 0 0 0.15307962012 -0.038829198119 0.31585488265 0 0 0 
0 0 0 0 0 0 0 0 0 
0 0 0 0 0 0 0 0 0 
0 0 0 0 0 0 0 0 0 
0 0 0 0 0 0 0 0 0 
0 0 0 0 0 0 0 0 0 
0 0 0 0 0 0 0 0 0 
0 0 0 0 0 0 0 0 0 
0 0 0 0 0 0 0 0 0 
0 0 0 0 0 0 0 0 0 
0 0 0 0 0 0 0 0 0 
0 0 0 0 0 0 0 0 0 
0 0 0 0 0 0 0 0 0 
0 0 0 0 0 0 0 0 0 
0 0 0 
radius 1 100 double
0.010434 0.00981478 0.00892069 0.00845937 0.00731974 0.00728422 0.00643447 0.00619172 0.00585956 
0.00577566 0.00537241 0.00522549 0.00513666 0.00473175 0.00466912 0.00444866 0.00441894 0.00400812 
0.00385622 0.00379948 0.00370243 0.00366942 0.00364039 0.00363813 0.00363644 0.00358692 0.0035797 
0.00341284 0.00337012 0.00336273 0.00332772 0.00323261 0.00320584 0.00320311 0.00318808 0.00313116 
0.00306026 0.00305632 0.00304383 0.00300958 0.00300137 0.00298994 0.0029567 0.00295111 0.00290849 
0.00284552 0.00282964 0.0028207 0.00281971 0.00281899 0.010434 0.00981478 0.00892069 0.00845937 
0.00731974 0.00728422 0.00643447 0.00619172 0.00585956 0.00577566 0.00537241 0.00522549 0.00513666 
0.00473175 0.00466912 0.00444866 0.00441894 0.00400812 0.00385622 0.00379948 0.00370243 0.00366942 
0.00364039 0.00363813 0.00363644 0.00358692 0.0035797 0.00341284 0.00337012 0.00336273 0.00332772 
0.00323261 0.00320584 0.00320311 0.00318808 0.00313116 0.00306026 0.00305632 0.00304383 0.00300958 
0.00300137 0.00298994 0.0029567 0.00295111 0.00290849 0.00284552 0.00282964 0.0028207 0.00281971 
0.00281899 
omega 3 100 double
7.3707579519 -6.0527620676 -0.72386787854 7.3707579519 -6.0527620676 -0.72386787854 7.3707579519 -6.0527620676 -0.72386787854 
7.3707579519 -6.0527620676 -0.72386787854 7.3707579519 -6.0527620676 -0.72386787854 7.3707579519 -6.0527620676 -0.72386787854 
7.3707579519 -6.0527620676 -0.72386787854 7.3707579519 -6.0527620676 -0.72386787854 7.3707579519 -6.0527620676 -0.72386787854 
7.3707579519 -6.0527620676 -0.72386787854 7.3707579519 -6.0527620676 -0.72386787854 7.3707579519 -6.0527620676 -0.72386787854 
7.3707579519 -6.0527620676 -0.72386787854 7.3707579519 -6.0527620676 -0.72386787854 7.3707579519 -6.0527620676 -0.72386787854 
7.3707579519 -6.0527620676 -0.72386787854 7.3707579519 -6.0527620676 -0.72386787854 7.3707579519 -6.0527620676 -0.72386787854 
7.3707579519 -6.0527620676 -0.72386787854 7.3707579519 -6.0527620676 -0.72386787854 7.3707579519 -6.0527620676 -0.72386787854 
7.3707579519 -6.0527620676 -0.72386787854 7.3707579519 -6.0527620676 -0.72386787854 7.3707579519 -6.0527620676 -0.72386787854 
7.3707579519 -6.0527620676 -0.72386787854 7.3707579519 -6.0527620676 -0.72386787854 7.3707579519 -6.0527620676 -0.72386787854 
7.3707579519 -6.0527620676 -0.72386787854 7.3707579519 -6.0527620676 -0.72386787854 7.3707579519 -6.0527620676 -0.72386787854 
7.3707579519 -6.0527620676 -0.72386787854 7.3707579519 -6.0527620676 -0.72386787854 7.3707579519 -6.0527620676 -0.72386787854 
7.3707579519 -6.0527620676 -0.72386787854 7.3707579519 -6.0527620676 -0.72386787854 7.3707579519 -6.0527620676 -0.72386787854 
7.3707579519 -6.0527620676 -0.72386787854 7.3707579519 -6.0527620676 -0.72386787854 7.3707579519 -6.0527620676 -0.72386787854 
7.3707579519 -6.0527620676 -0.72386787854 7.3707579519 -6.0527620676 -0.72386787854 7.3707579519 -6.0527620676 -0.72386787854 
7.3707579519 -6.0527620676 -0.72386787854 7.3707579519 -6.0527620676 -0.72386787854 7.3707579519 -6.0527620676 -0.72386787854 
7.3707579519 -6.0527620676 -0.72386787854 7.3707579519 -6.0527620676 -0.72386787854 7.3707579519 -6.0527620676 -0.72386787854 
7.3707579519 -6.0527620676 -0.72386787854 7.3707579519 -6.0527620676 -0.72386787854 8.4485153916 -2.8608215536 0.46592707937 
8.4485153916 -2.8608215536 0.46592707937 8.4485153916 -2.8608215536 0.46592707937 8.4485153916 -2.8608215536 0.46592707937 
8.4485153916 -2.8608215536 0.46592707937 8.4485153916 -2.8608215536 0.46592707937 8.4485153916 -2.8608215536 0.46592707937 
8.4485153916 -2.8608215536 0.46592707937 8.4485153916 -2.8608215536 0.46592707937 8.4485153916 -2.8608215536 0.46592707937 
8.4485153916 -2.8608215536 0.46592707937 8.4485153916 -2.8608215536 0.46592707937 8.4485153916 -2.8608215536 0.46592707937 
8.4485153916 -2.8608215536 0.46592707937 8.4485153916 -2.8608215536 0.46592707937 8.4485153916 -2.8608215536 0.46592707937 
8.4485153916 -2.8608215536 0.46592707937 8.4485153916 -2.8608215536 0.46592707937 8.4485153916 -2.8608215536 0.46592707937 
8.4485153916 -2.8608215536 0.46592707937 8.4485153916 -2.8608215536 0.46592707937 8.4485153916 -2.8608215536 0.46592707937 
8.4485153916 -2.8608215536 0.46592707937 8.4485153916 -2.8608215536 0.46592707937 8.4485153916 -2.8608215536 0.46592707937 
8.4485153916 -2.8608215536 0.46592707937 8.4485153916 -2.8608215536 0.46592707937 8.4485153916 -2.8608215536 0.46592707937 
8.4485153916 -2.8608215536 0.46592707937 8.4485153916 -2.8608215536 0.46592707937 8.4485153916 -2.8608215536 0.46592707937 
8.4485153916 -2.8608215536 0.46592707937 8.4485153916 -2.8608215536 0.46592707937 8.4485153916 -2.8608215536 0.46592707937 
8.4485153916 -2.8608215536 0.46592707937 8.4485153916 -2.8608215536 0.46592707937 8.4485153916 -2.8608215536 0.46592707937 
8.4485153916 -2.8608215536 0.46592707937 8.4485153916 -2.8608215536 0.46592707937 8.4485153916 -2.8608215536 0.46592707937 
8.4485153916 -2.8608215536 0.46592707937 8.4485153916 -2.8608215536 0.46592707937 8.4485153916 -2.8608215536 0.46592707937 
8.4485153916 -2.8608215536 0.46592707937 8.4485153916 -2.8608215536 0.46592707937 8.4485153916 -2.8608215536 0.46592707937 
8.4485153916 -2.8608215536 0.46592707937 8.4485153916 -2.8608215536 0.46592707937 8.4485153916 -2.8608215536 0.46592707937 
8.4485153916 -2.8608215536 0.46592707937 
