# vtk DataFile Version 4.1
Generated by LIGGGHTS
ASCII
DATASET POLYDATA
POINTS 100 float
-0.11678 -0.150543 0.0123935 -0.126611 -0.147022 0.0118481 -0.136347 -0.144867 0.0128927 
-0.123991 -0.157373 0.0161844 -0.110346 -0.157803 0.0163902 -0.132344 -0.154714 0.0157334 
-0.142913 -0.150762 0.0151407 -0.116524 -0.161757 0.0147445 -0.145103 -0.142855 0.0128328 
-0.119481 -0.14012 0.00996969 -0.130315 -0.162981 0.0172806 -0.139515 -0.156728 0.0162752 
-0.124074 -0.137389 0.013511 -0.125306 -0.166359 0.0168507 -0.130278 -0.137749 0.0140313 
-0.136049 -0.160969 0.0165803 -0.116939 -0.160104 0.0208041 -0.141625 -0.138182 0.0166404 
-0.115949 -0.143139 0.00485973 -0.149145 -0.148031 0.0132413 -0.120824 -0.146518 0.00363082 
-0.129696 -0.16866 0.0179038 -0.113274 -0.160176 0.00944969 -0.10292 -0.156796 0.0181992 
-0.106869 -0.154136 0.0110266 -0.120125 -0.140551 0.0160982 -0.107943 -0.15162 0.0197121 
-0.105122 -0.156796 0.02156 -0.133792 -0.167151 0.0180586 -0.12763 -0.151191 0.0207872 
-0.136747 -0.165426 0.0178696 -0.110373 -0.16492 0.0139708 -0.133004 -0.145154 0.00460252 
-0.120565 -0.166934 0.015153 -0.150824 -0.14264 0.0110495 -0.110025 -0.158091 0.00874044 
-0.140776 -0.162192 0.017195 -0.120659 -0.165065 0.0181484 -0.146216 -0.156369 0.0155964 
-0.124974 -0.13782 0.00811754 -0.13734 -0.153637 0.0104948 -0.122298 -0.165065 0.0127077 
-0.117464 -0.155791 0.021771 -0.119237 -0.160248 0.00881816 -0.143692 -0.144939 0.0183423 
-0.149104 -0.152919 0.014578 -0.106574 -0.150326 0.0101283 -0.127834 -0.137461 0.00951873 
-0.140507 -0.164995 0.0184628 -0.134454 -0.136168 0.0160986 -0.0467968 -0.120651 0.0120708 
-0.0569332 -0.118084 0.0120216 -0.0667819 -0.116925 0.0135018 -0.0531637 -0.128283 0.0158403 
-0.0395438 -0.127392 0.0155377 -0.0617444 -0.126435 0.0157976 -0.0726587 -0.123509 0.0157452 
-0.0453743 -0.131865 0.0139573 -0.0756858 -0.115773 0.013838 -0.0505771 -0.110458 0.0101676 
-0.0588735 -0.134516 0.0169365 -0.0686623 -0.129154 0.0165154 -0.0552661 -0.108317 0.013979 
-0.0535847 -0.137373 0.016191 -0.0613817 -0.109298 0.0147071 -0.0647976 -0.133047 0.0165245 
-0.0457056 -0.130483 0.0200896 -0.0725228 -0.110927 0.0177031 -0.0469783 -0.11293 0.00481641 
-0.0791937 -0.121329 0.0141828 -0.0515518 -0.116719 0.00362849 -0.0576898 -0.140127 0.0173078 
-0.0425043 -0.129782 0.00861708 -0.032182 -0.125735 0.0171175 -0.0366494 -0.123211 0.0102046 
-0.050933 -0.111174 0.0162929 -0.0376134 -0.121131 0.0190174 -0.0342388 -0.126072 0.0205527 
-0.0619022 -0.13903 0.0176705 -0.0571928 -0.122657 0.0208164 -0.0650135 -0.137594 0.0176576 
-0.0389846 -0.134384 0.0128361 -0.0637585 -0.116582 0.00509188 -0.0488822 -0.137422 0.0143021 
-0.0814674 -0.11605 0.0122718 -0.0395001 -0.127367 0.00787599 -0.0693576 -0.134744 0.0172592 
-0.0490357 -0.135681 0.0173718 -0.0753888 -0.129424 0.0160931 -0.0563343 -0.108637 0.00860836 
-0.067025 -0.125657 0.0107898 -0.0508817 -0.135642 0.0119979 -0.0466016 -0.12628 0.0212478 
-0.048453 -0.130411 0.00819804 -0.0738642 -0.117911 0.0192047 -0.0786318 -0.126236 0.015319 
-0.0367565 -0.11936 0.00945051 -0.0591579 -0.108609 0.0101249 -0.0687711 -0.137553 0.0184025 
-0.0656049 -0.108207 0.0169853 
VERTICES 100 200
1 0 
1 1 
1 2 
1 3 
1 4 
1 5 
1 6 
1 7 
1 8 
1 9 
1 10 
1 11 
1 12 
1 13 
1 14 
1 15 
1 16 
1 17 
1 18 
1 19 
1 20 
1 21 
1 22 
1 23 
1 24 
1 25 
1 26 
1 27 
1 28 
1 29 
1 30 
1 31 
1 32 
1 33 
1 34 
1 35 
1 36 
1 37 
1 38 
1 39 
1 40 
1 41 
1 42 
1 43 
1 44 
1 45 
1 46 
1 47 
1 48 
1 49 
1 50 
1 51 
1 52 
1 53 
1 54 
1 55 
1 56 
1 57 
1 58 
1 59 
1 60 
1 61 
1 62 
1 63 
1 64 
1 65 
1 66 
1 67 
1 68 
1 69 
1 70 
1 71 
1 72 
1 73 
1 74 
1 75 
1 76 
1 77 
1 78 
1 79 
1 80 
1 81 
1 82 
1 83 
1 84 
1 85 
1 86 
1 87 
1 88 
1 89 
1 90 
1 91 
1 92 
1 93 
1 94 
1 95 
1 96 
1 97 
1 98 
1 99 

POINT_DATA 100
FIELD FieldData 7
id 1 100 int
1 2 3 4 5 6 7 8 9 
10 11 12 13 14 15 16 17 18 
19 20 21 22 23 24 25 26 27 
28 29 30 31 32 33 34 35 36 
37 38 39 40 41 42 43 44 45 
46 47 48 49 50 51 52 53 54 
55 56 57 58 59 60 61 62 63 
64 65 66 67 68 69 70 71 72 
73 74 75 76 77 78 79 80 81 
82 83 84 85 86 87 88 89 90 
91 92 93 94 95 96 97 98 99 
100 
mol 1 100 int
1 1 1 1 1 1 1 1 1 
1 1 1 1 1 1 1 1 1 
1 1 1 1 1 1 1 1 1 
1 1 1 1 1 1 1 1 1 
1 1 1 1 1 1 1 1 1 
1 1 1 1 1 2 2 2 2 
2 2 2 2 2 2 2 2 2 
2 2 2 2 2 2 2 2 2 
2 2 2 2 2 2 2 2 2 
2 2 2 2 2 2 2 2 2 
2 2 2 2 2 2 2 2 2 
2 
type 1 100 int
1 1 1 1 1 1 1 1 1 
1 1 1 1 1 1 1 1 1 
1 1 1 1 1 1 1 1 1 
1 1 1 1 1 1 1 1 1 
1 1 1 1 1 1 1 1 1 
1 1 1 1 1 1 1 1 1 
1 1 1 1 1 1 1 1 1 
1 1 1 1 1 1 1 1 1 
1 1 1 1 1 1 1 1 1 
1 1 1 1 1 1 1 1 1 
1 1 1 1 1 1 1 1 1 
1 
v 3 100 double
-0.0065725510658 -0.17679747466 -0.054191154258 -0.0021278234476 -0.1570144548 -0.006585226712 0.00044493077462 -0.15932295608 0.022155374166 
-0.015486709846 -0.22020139056 -0.14934661828 -0.016044021022 -0.24004076586 -0.15382115079 -0.012126565362 -0.20356465841 -0.11350202693 
-0.0071395896661 -0.18220793875 -0.060015961614 -0.020793399399 -0.2096046921 -0.2091308089 0.0029573666112 -0.14758825709 0.04901766054 
0.0066707937085 -0.13993867707 0.089555340724 -0.02258963313 -0.22747198074 -0.22751960399 -0.014692855233 -0.20211887916 -0.14209663085 
0.0096930253791 -0.18315512535 0.12680465298 -0.026751345611 -0.22777114064 -0.27366339651 0.0091886459798 -0.18261637377 0.12116273934 
-0.020008194005 -0.210651137 -0.20032973109 -0.019383743233 -0.29282270122 -0.18632700099 0.0083699228326 -0.20453601324 0.11396724819 
0.0034584675772 -0.073724323129 0.048216974219 -0.0035341765682 -0.14819889384 -0.022946182055 -0.00061898199558 -0.05067042362 0.00099723646578 
-0.029730334661 -0.23685419985 -0.30592988141 -0.018255167578 -0.14048398688 -0.18692340203 -0.014983321031 -0.27428961582 -0.13910497053 
-0.010901626376 -0.17025351356 -0.10278085768 0.0054762219017 -0.22382484077 0.083525678046 -0.0086991923366 -0.28893943247 -0.068128202458 
-0.01534402427 -0.31798936734 -0.1393439285 -0.027867063265 -0.23389152352 -0.28551405952 -0.0082801049267 -0.27927312451 -0.064311185484 
-0.025698192451 -0.22759927603 -0.26199463662 -0.02464944489 -0.20657422225 -0.25217025584 0.00097627406287 -0.048926115393 0.018544631689 
-0.027284961568 -0.21021538394 -0.28109485742 0.0034163433995 -0.1158191307 0.051374105951 -0.015581841244 -0.13473068248 -0.15776120453 
-0.021596989987 -0.21325804219 -0.21773118755 -0.025278009738 -0.25149133578 -0.25527602167 -0.014173353714 -0.18439164656 -0.13785969425 
0.0097339708948 -0.10750205959 0.12074500793 -0.010222291761 -0.1249491876 -0.099145197802 -0.024694805652 -0.17426552532 -0.25545533031 
-0.014114958042 -0.30553223979 -0.12678139689 -0.018277863663 -0.1243298953 -0.18856609137 -0.00023000251749 -0.22548034616 0.020364035208 
-0.0097665518304 -0.16672084155 -0.090492644179 -0.0060595096235 -0.15820764509 -0.050100156433 0.010031053905 -0.12330190751 0.12540121255 
-0.025225149808 -0.23111314243 -0.25644420557 0.01093621032 -0.20598111214 0.14256176709 0.032132975508 -0.15564690318 -0.063637135616 
0.034304961593 -0.14588406897 -0.0018204974683 0.039675547036 -0.15556859213 0.041496064259 0.036260011566 -0.1971941408 -0.14079364828 
0.036180141459 -0.20568626525 -0.16940441495 0.037803352051 -0.18891633336 -0.092527323426 0.04028952816 -0.17841051797 -0.023935860018 
0.027526438102 -0.18059802964 -0.20849072706 0.041697205708 -0.15175282518 0.0819639216 0.035768803669 -0.12835824631 0.075288383895 
0.033839539649 -0.20579500707 -0.20230266894 0.037446797914 -0.19167989422 -0.10643449534 0.04883595992 -0.17194502985 0.11583972517 
0.029083359685 -0.20121319032 -0.25360007954 0.050078981159 -0.17556259532 0.12140914434 0.033961628506 -0.19528143949 -0.16655878078 
0.046690597771 -0.2572335724 -0.19018271661 0.057362919632 -0.20309770235 0.13352510943 0.017903537119 -0.064470765697 0.033759270796 
0.037691424857 -0.15291282796 0.022507006773 0.011013397353 -0.045441029018 -0.00042398124423 0.029861740947 -0.21152053976 -0.27615511393 
0.013802937269 -0.11619000654 -0.19074282681 0.042291470505 -0.23214841752 -0.17011904164 0.024370435866 -0.14138937974 -0.1254050531 
0.053019503014 -0.20488419746 0.067344583396 0.051996007424 -0.25108338155 -0.096494638727 0.052023754436 -0.27338917433 -0.16834199215 
0.031911518814 -0.2122708165 -0.25008254494 0.055874977122 -0.25598742118 -0.058438313013 0.033168646287 -0.20930097832 -0.22298489237 
0.021977674273 -0.17229612546 -0.258762218 0.015413012493 -0.052786900116 0.036964510777 0.023520646245 -0.18175805844 -0.26794787914 
0.036871078815 -0.12688679893 0.095380550936 0.013817169712 -0.10960285869 -0.16921366682 0.034576014832 -0.20038353825 -0.17453792824 
0.034059716643 -0.22013164067 -0.24566763457 0.035969463606 -0.18031298464 -0.09016722753 0.032856271131 -0.10360244073 0.11495665083 
0.023873538153 -0.12132426922 -0.06733728354 0.018394397575 -0.15104686191 -0.23977594824 0.053867052502 -0.27095553356 -0.13483000202 
0.012011360105 -0.105565649 -0.18124972918 0.055448673526 -0.22072622935 0.049820762256 0.036584181758 -0.16767542965 -0.040695179825 
0.025641639734 -0.13183202375 -0.076779212367 0.037312248026 -0.12008048628 0.12355599957 0.03538251162 -0.21525694005 -0.21148833007 
0.057719335575 -0.2003335447 0.14743229234 
f 3 100 double
0 0 0 0 0 0 0 0 0 
0 0 0 0 0 0 0 0 0 
0 0 0 0 0 0 0 0 0 
0 0 0 0 0 0 0 0 0 
0 0 0 0 0 0 0 0 0 
0 0 0 0 0 0 0 0 0 
0 0 0 0 0 0 -0.070905861417 -0.056951552104 0.29689449032 
0 0 0 0 0 0 0 0 0 
0 0 0 0 0 0 0 0 0 
0 0 0 0 0 0 0 0 0 
0 0 0 0 0 0 0 0 0 
0 0 0 0 0 0 0 0 0 
0 0 0 0 0 0 0 0 0 
0 0 0 0 0 0 0 0 0 
0 0 0 0 0 0 0 0 0 
0 0 0 0 0 0 0 0 0 
0 0 0 0 0 0 0 0 0 
0 0 0 0 0 0 0 0 0 
0 0 0 0 0 0 0 0 0 
0 0 0 0 0 0 0 0 0 
0 0 0 0 0 0 0 0 0 
0 0 0 0 0 0 0 0 0 
0 0 0 0 0 0 0 0 0 
0 0 0 -0.069087754032 -0.081165299603 0.32811540743 0 0 0 
0 0 0 0 0 0 0 0 0 
0 0 0 0 0 0 0 0 0 
0 0 0 0 0 0 0 0 0 
0 0 0 0 0 0 0 0 0 
0 0 0 0 0 0 0 0 0 
0 0 0 0 0 0 0 0 0 
0 0 0 0 0 0 0 0 0 
0 0 0 0 0 0 0 0 0 
0 0 0 0 0 0 0 0 0 
0 0 0 
radius 1 100 double
0.010434 0.00981478 0.00892069 0.00845937 0.00731974 0.00728422 0.00643447 0.00619172 0.00585956 
0.00577566 0.00537241 0.00522549 0.00513666 0.00473175 0.00466912 0.00444866 0.00441894 0.00400812 
0.00385622 0.00379948 0.00370243 0.00366942 0.00364039 0.00363813 0.00363644 0.00358692 0.0035797 
0.00341284 0.00337012 0.00336273 0.00332772 0.00323261 0.00320584 0.00320311 0.00318808 0.00313116 
0.00306026 0.00305632 0.00304383 0.00300958 0.00300137 0.00298994 0.0029567 0.00295111 0.00290849 
0.00284552 0.00282964 0.0028207 0.00281971 0.00281899 0.010434 0.00981478 0.00892069 0.00845937 
0.00731974 0.00728422 0.00643447 0.00619172 0.00585956 0.00577566 0.00537241 0.00522549 0.00513666 
0.00473175 0.00466912 0.00444866 0.00441894 0.00400812 0.00385622 0.00379948 0.00370243 0.00366942 
0.00364039 0.00363813 0.00363644 0.00358692 0.0035797 0.00341284 0.00337012 0.00336273 0.00332772 
0.00323261 0.00320584 0.00320311 0.00318808 0.00313116 0.00306026 0.00305632 0.00304383 0.00300958 
0.00300137 0.00298994 0.0029567 0.00295111 0.00290849 0.00284552 0.00282964 0.0028207 0.00281971 
0.00281899 
omega 3 100 double
13.818793443 -0.10725077118 -1.2456227993 13.818793443 -0.10725077118 -1.2456227993 13.818793443 -0.10725077118 -1.2456227993 
13.818793443 -0.10725077118 -1.2456227993 13.818793443 -0.10725077118 -1.2456227993 13.818793443 -0.10725077118 -1.2456227993 
13.818793443 -0.10725077118 -1.2456227993 13.818793443 -0.10725077118 -1.2456227993 13.818793443 -0.10725077118 -1.2456227993 
13.818793443 -0.10725077118 -1.2456227993 13.818793443 -0.10725077118 -1.2456227993 13.818793443 -0.10725077118 -1.2456227993 
13.818793443 -0.10725077118 -1.2456227993 13.818793443 -0.10725077118 -1.2456227993 13.818793443 -0.10725077118 -1.2456227993 
13.818793443 -0.10725077118 -1.2456227993 13.818793443 -0.10725077118 -1.2456227993 13.818793443 -0.10725077118 -1.2456227993 
13.818793443 -0.10725077118 -1.2456227993 13.818793443 -0.10725077118 -1.2456227993 13.818793443 -0.10725077118 -1.2456227993 
13.818793443 -0.10725077118 -1.2456227993 13.818793443 -0.10725077118 -1.2456227993 13.818793443 -0.10725077118 -1.2456227993 
13.818793443 -0.10725077118 -1.2456227993 13.818793443 -0.10725077118 -1.2456227993 13.818793443 -0.10725077118 -1.2456227993 
13.818793443 -0.10725077118 -1.2456227993 13.818793443 -0.10725077118 -1.2456227993 13.818793443 -0.10725077118 -1.2456227993 
13.818793443 -0.10725077118 -1.2456227993 13.818793443 -0.10725077118 -1.2456227993 13.818793443 -0.10725077118 -1.2456227993 
13.818793443 -0.10725077118 -1.2456227993 13.818793443 -0.10725077118 -1.2456227993 13.818793443 -0.10725077118 -1.2456227993 
13.818793443 -0.10725077118 -1.2456227993 13.818793443 -0.10725077118 -1.2456227993 13.818793443 -0.10725077118 -1.2456227993 
13.818793443 -0.10725077118 -1.2456227993 13.818793443 -0.10725077118 -1.2456227993 13.818793443 -0.10725077118 -1.2456227993 
13.818793443 -0.10725077118 -1.2456227993 13.818793443 -0.10725077118 -1.2456227993 13.818793443 -0.10725077118 -1.2456227993 
13.818793443 -0.10725077118 -1.2456227993 13.818793443 -0.10725077118 -1.2456227993 13.818793443 -0.10725077118 -1.2456227993 
13.818793443 -0.10725077118 -1.2456227993 13.818793443 -0.10725077118 -1.2456227993 12.545800543 2.9217686547 -0.9022497639 
12.545800543 2.9217686547 -0.9022497639 12.545800543 2.9217686547 -0.9022497639 12.545800543 2.9217686547 -0.9022497639 
12.545800543 2.9217686547 -0.9022497639 12.545800543 2.9217686547 -0.9022497639 12.545800543 2.9217686547 -0.9022497639 
12.545800543 2.9217686547 -0.9022497639 12.545800543 2.9217686547 -0.9022497639 12.545800543 2.9217686547 -0.9022497639 
12.545800543 2.9217686547 -0.9022497639 12.545800543 2.9217686547 -0.9022497639 12.545800543 2.9217686547 -0.9022497639 
12.545800543 2.9217686547 -0.9022497639 12.545800543 2.9217686547 -0.9022497639 12.545800543 2.9217686547 -0.9022497639 
12.545800543 2.9217686547 -0.9022497639 12.545800543 2.9217686547 -0.9022497639 12.545800543 2.9217686547 -0.9022497639 
12.545800543 2.9217686547 -0.9022497639 12.545800543 2.9217686547 -0.9022497639 12.545800543 2.9217686547 -0.9022497639 
12.545800543 2.9217686547 -0.9022497639 12.545800543 2.9217686547 -0.9022497639 12.545800543 2.9217686547 -0.9022497639 
12.545800543 2.9217686547 -0.9022497639 12.545800543 2.9217686547 -0.9022497639 12.545800543 2.9217686547 -0.9022497639 
12.545800543 2.9217686547 -0.9022497639 12.545800543 2.9217686547 -0.9022497639 12.545800543 2.9217686547 -0.9022497639 
12.545800543 2.9217686547 -0.9022497639 12.545800543 2.9217686547 -0.9022497639 12.545800543 2.9217686547 -0.9022497639 
12.545800543 2.9217686547 -0.9022497639 12.545800543 2.9217686547 -0.9022497639 12.545800543 2.9217686547 -0.9022497639 
12.545800543 2.9217686547 -0.9022497639 12.545800543 2.9217686547 -0.9022497639 12.545800543 2.9217686547 -0.9022497639 
12.545800543 2.9217686547 -0.9022497639 12.545800543 2.9217686547 -0.9022497639 12.545800543 2.9217686547 -0.9022497639 
12.545800543 2.9217686547 -0.9022497639 12.545800543 2.9217686547 -0.9022497639 12.545800543 2.9217686547 -0.9022497639 
12.545800543 2.9217686547 -0.9022497639 12.545800543 2.9217686547 -0.9022497639 12.545800543 2.9217686547 -0.9022497639 
12.545800543 2.9217686547 -0.9022497639 
