# vtk DataFile Version 4.1
Generated by LIGGGHTS
ASCII
DATASET POLYDATA
POINTS 100 float
-0.11534 -0.132713 0.0220136 -0.125221 -0.133623 0.0187152 -0.13516 -0.133937 0.0174277 
-0.122256 -0.13494 0.0297739 -0.108988 -0.131769 0.0303095 -0.130613 -0.13588 0.0272579 
-0.141255 -0.136776 0.0235683 -0.114164 -0.136663 0.0327076 -0.143906 -0.134996 0.0156655 
-0.118777 -0.129818 0.0119328 -0.127921 -0.138508 0.0350487 -0.137437 -0.1382 0.0292097 
-0.124293 -0.126575 0.0115417 -0.122546 -0.139458 0.0376748 -0.13038 -0.12781 0.0120979 
-0.133603 -0.139373 0.0329523 -0.115994 -0.130948 0.0346084 -0.141876 -0.128598 0.0138257 
-0.113941 -0.134744 0.0117087 -0.147268 -0.138356 0.0202149 -0.118008 -0.138686 0.0138561 
-0.126737 -0.140855 0.0401583 -0.11014 -0.139374 0.0285188 -0.102262 -0.128004 0.0304806 
-0.104988 -0.13338 0.024334 -0.120582 -0.125203 0.0156205 -0.108092 -0.125224 0.0269337 
-0.105078 -0.125786 0.0322959 -0.130936 -0.140901 0.0389563 -0.12749 -0.128782 0.0270663 
-0.133984 -0.140843 0.0373916 -0.107638 -0.13751 0.0349711 -0.130208 -0.140056 0.0131819 
-0.117527 -0.140023 0.0372571 -0.149132 -0.13769 0.01449 -0.1071 -0.138081 0.0263979 
-0.138166 -0.140637 0.0342908 -0.118454 -0.136616 0.0373141 -0.143856 -0.14015 0.0285089 
-0.124028 -0.131413 0.00897058 -0.134547 -0.140763 0.0234847 -0.118952 -0.141439 0.0343518 
-0.117236 -0.128004 0.0315097 -0.115797 -0.141339 0.0282092 -0.143383 -0.131272 0.0204145 
-0.146888 -0.13984 0.0250455 -0.104996 -0.132029 0.0206485 -0.127134 -0.130758 0.00941679 
-0.13781 -0.141021 0.0373347 -0.135051 -0.126278 0.0118739 -0.046441 -0.104912 0.0206958 
-0.0562497 -0.105822 0.0171889 -0.0661591 -0.106148 0.0156951 -0.0535102 -0.1072 0.0282982 
-0.0402626 -0.104006 0.0291265 -0.0618113 -0.108141 0.0256049 -0.0723739 -0.109036 0.0216913 
-0.0454771 -0.108925 0.0313875 -0.0748647 -0.107214 0.0137465 -0.0496759 -0.101963 0.0105641 
-0.0592752 -0.110812 0.0334333 -0.0686697 -0.110488 0.0274014 -0.0551892 -0.0987283 0.0100791 
-0.0539533 -0.111767 0.0361638 -0.0612842 -0.099979 0.0105022 -0.0649105 -0.111675 0.0312151 
-0.0473577 -0.103226 0.0332849 -0.0728112 -0.100801 0.0119879 -0.0448256 -0.106877 0.0104097 
-0.0783132 -0.110608 0.0182052 -0.0489274 -0.11084 0.0124488 -0.0581913 -0.113188 0.0385519 
-0.0413611 -0.111603 0.0272662 -0.0335501 -0.100228 0.029459 -0.036137 -0.105572 0.0232249 
-0.0515663 -0.0973736 0.0142418 -0.0393122 -0.0974387 0.0258096 -0.0364073 -0.0980269 0.0312293 
-0.0623646 -0.113235 0.0372633 -0.0587002 -0.101036 0.0255208 -0.0653797 -0.113173 0.0356366 
-0.0389971 -0.109772 0.0337798 -0.0611076 -0.112231 0.011515 -0.0489256 -0.11232 0.0358462 
-0.0800599 -0.109911 0.0124472 -0.0382813 -0.11029 0.0252162 -0.069498 -0.112957 0.0324516 
-0.0498612 -0.108915 0.0359048 -0.0750686 -0.112446 0.0265567 -0.0548615 -0.10355 0.00748461 
-0.0656569 -0.11301 0.0217218 -0.0502872 -0.113721 0.0329036 -0.0485421 -0.100265 0.0301792 
-0.0470063 -0.113577 0.0268281 -0.0744482 -0.103518 0.0185278 -0.0780286 -0.112121 0.0230335 
-0.0360722 -0.104198 0.0195483 -0.0579771 -0.102904 0.0078707 -0.0692037 -0.11336 0.0354997 
-0.0659528 -0.0984549 0.0101913 
VERTICES 100 200
1 0 
1 1 
1 2 
1 3 
1 4 
1 5 
1 6 
1 7 
1 8 
1 9 
1 10 
1 11 
1 12 
1 13 
1 14 
1 15 
1 16 
1 17 
1 18 
1 19 
1 20 
1 21 
1 22 
1 23 
1 24 
1 25 
1 26 
1 27 
1 28 
1 29 
1 30 
1 31 
1 32 
1 33 
1 34 
1 35 
1 36 
1 37 
1 38 
1 39 
1 40 
1 41 
1 42 
1 43 
1 44 
1 45 
1 46 
1 47 
1 48 
1 49 
1 50 
1 51 
1 52 
1 53 
1 54 
1 55 
1 56 
1 57 
1 58 
1 59 
1 60 
1 61 
1 62 
1 63 
1 64 
1 65 
1 66 
1 67 
1 68 
1 69 
1 70 
1 71 
1 72 
1 73 
1 74 
1 75 
1 76 
1 77 
1 78 
1 79 
1 80 
1 81 
1 82 
1 83 
1 84 
1 85 
1 86 
1 87 
1 88 
1 89 
1 90 
1 91 
1 92 
1 93 
1 94 
1 95 
1 96 
1 97 
1 98 
1 99 

POINT_DATA 100
FIELD FieldData 7
id 1 100 int
1 2 3 4 5 6 7 8 9 
10 11 12 13 14 15 16 17 18 
19 20 21 22 23 24 25 26 27 
28 29 30 31 32 33 34 35 36 
37 38 39 40 41 42 43 44 45 
46 47 48 49 50 51 52 53 54 
55 56 57 58 59 60 61 62 63 
64 65 66 67 68 69 70 71 72 
73 74 75 76 77 78 79 80 81 
82 83 84 85 86 87 88 89 90 
91 92 93 94 95 96 97 98 99 
100 
mol 1 100 int
1 1 1 1 1 1 1 1 1 
1 1 1 1 1 1 1 1 1 
1 1 1 1 1 1 1 1 1 
1 1 1 1 1 1 1 1 1 
1 1 1 1 1 1 1 1 1 
1 1 1 1 1 2 2 2 2 
2 2 2 2 2 2 2 2 2 
2 2 2 2 2 2 2 2 2 
2 2 2 2 2 2 2 2 2 
2 2 2 2 2 2 2 2 2 
2 2 2 2 2 2 2 2 2 
2 
type 1 100 int
1 1 1 1 1 1 1 1 1 
1 1 1 1 1 1 1 1 1 
1 1 1 1 1 1 1 1 1 
1 1 1 1 1 1 1 1 1 
1 1 1 1 1 1 1 1 1 
1 1 1 1 1 1 1 1 1 
1 1 1 1 1 1 1 1 1 
1 1 1 1 1 1 1 1 1 
1 1 1 1 1 1 1 1 1 
1 1 1 1 1 1 1 1 1 
1 1 1 1 1 1 1 1 1 
1 
v 3 100 double
-0.12601750751 -0.063684591337 -0.17561091199 -0.10228173351 -0.062012078 -0.247175801 -0.093034038328 -0.063830887085 -0.31812230548 
-0.18008624699 -0.079877074066 -0.22844077117 -0.18516951257 -0.075408803968 -0.12898068592 -0.16188132862 -0.078934512178 -0.28926052154 
-0.13538019455 -0.076897072217 -0.3661985483 -0.20016837916 -0.081647868594 -0.17409286706 -0.080119927446 -0.064346169869 -0.38190400362 
-0.05578197171 -0.047697748648 -0.19496748879 -0.21600283768 -0.09127536751 -0.2747257499 -0.17476474221 -0.085073651392 -0.34160748366 
-0.054329120311 -0.049264666315 -0.22844664009 -0.23421989128 -0.093619561128 -0.23828743694 -0.057767609809 -0.052697715118 -0.2736999839 
-0.20080086095 -0.089969247448 -0.3164654305 -0.21595611263 -0.085669164022 -0.17719793291 -0.069686874474 -0.060348749872 -0.35649321645 
-0.052192603021 -0.045345906471 -0.1692017346 -0.11098266307 -0.073557964916 -0.4115198276 -0.065802676125 -0.050701652487 -0.20480927304 
-0.2512456546 -0.099605363658 -0.27038392864 -0.16939323012 -0.072788957799 -0.15025678002 -0.18791146298 -0.072970665231 -0.074844473887 
-0.14218409265 -0.063478878588 -0.10342410465 -0.083780734709 -0.054790305569 -0.19979413364 -0.16391468446 -0.06922356888 -0.1113532343 
-0.20167239275 -0.077245239917 -0.090965133557 -0.24271180417 -0.099238960577 -0.30020919169 -0.16340833605 -0.077334889105 -0.25489658512 
-0.23165154489 -0.097779421091 -0.32169964258 -0.21585871442 -0.082898885664 -0.12932035545 -0.060469963371 -0.054496808441 -0.29359428037 
-0.23103121162 -0.090859676419 -0.20370850289 -0.070698094029 -0.064443097841 -0.42357399423 -0.15489419843 -0.067896334269 -0.1264944733 
-0.20976927883 -0.094132037341 -0.35097390344 -0.23281981475 -0.091334801672 -0.20440106814 -0.16900801113 -0.086473754264 -0.3904417282 
-0.034149422452 -0.044723511831 -0.23491625503 -0.13316758639 -0.074026896333 -0.3255552066 -0.20987493882 -0.086428714686 -0.21624294607 
-0.195201146 -0.080830374934 -0.1809203284 -0.16640149645 -0.074553937345 -0.19371855497 -0.11527501538 -0.072323262277 -0.37178270996 
-0.14459933623 -0.08173323411 -0.41138117689 -0.11662507131 -0.057126748361 -0.10115167626 -0.037576523322 -0.046755083433 -0.25578768707 
-0.23117533488 -0.099236158265 -0.34911389734 -0.056803297596 -0.05420958562 -0.30414651078 -0.12492845074 -0.063289087363 -0.2239361528 
-0.10014198517 -0.061508421519 -0.29372719767 -0.08960898408 -0.063153976407 -0.36323647895 -0.1768752769 -0.079035265981 -0.27697872842 
-0.18397952423 -0.074870372984 -0.17941604205 -0.15773702051 -0.077989751429 -0.33633038075 -0.13012650347 -0.075841556453 -0.41134168063 
-0.19765098204 -0.080859004108 -0.22397522641 -0.075601614761 -0.063530154731 -0.42561113041 -0.055657411097 -0.047613471997 -0.24149044626 
-0.21109653855 -0.090086489448 -0.32317000082 -0.16925549116 -0.083887106541 -0.38800339328 -0.053638995606 -0.049110928873 -0.27442093569 
-0.2296977822 -0.092444281122 -0.28774015912 -0.056059015394 -0.052379121637 -0.31893978074 -0.19529723215 -0.088721382955 -0.36383910558 
-0.21324641192 -0.084837701013 -0.22748076443 -0.066053244532 -0.05971227931 -0.40054009364 -0.052521700619 -0.045319254908 -0.2159972771 
-0.10520627725 -0.072472399699 -0.45531682836 -0.065049605049 -0.050467945475 -0.25120519901 -0.24572120558 -0.098236878279 -0.31962184616 
-0.16784641452 -0.07220377468 -0.19983202648 -0.18787844829 -0.072613541732 -0.12635198696 -0.14225246798 -0.063218454581 -0.15333891671 
-0.083176053815 -0.054589098105 -0.24693099305 -0.16365194318 -0.068895634071 -0.16176153726 -0.20112200781 -0.076788290142 -0.14253493171 
-0.236733992 -0.097821308906 -0.34874383803 -0.16013274885 -0.076543337409 -0.30273458604 -0.22543899266 -0.096351361165 -0.36962282304 
-0.21394412389 -0.082162377019 -0.18030297424 -0.057967747165 -0.0540077153 -0.33830780974 -0.22725574341 -0.089801261945 -0.25368074155 
-0.065427965356 -0.063525305199 -0.46630128012 -0.15413110655 -0.067465598791 -0.17619273695 -0.20336454599 -0.092724520624 -0.39791880162 
-0.22909208317 -0.090292250724 -0.25446682018 -0.16255493228 -0.085151290501 -0.43582760186 -0.033560850218 -0.044611787505 -0.28024594291 
-0.12867147632 -0.073074984314 -0.37127718692 -0.20619008513 -0.085425576771 -0.2655112284 -0.19287500791 -0.080113422347 -0.23074612859 
-0.16396953666 -0.073835437356 -0.2424366282 -0.11042604137 -0.071393508358 -0.41650073441 -0.13817269984 -0.080470071591 -0.45588057358 
-0.1172424359 -0.057010363828 -0.15057805462 -0.036518626234 -0.046567855665 -0.30084252796 -0.22440815807 -0.097725374374 -0.39654776814 
-0.054534606987 -0.0538148988 -0.34886732862 
f 3 100 double
0 0 0 0 0 0 0 0 0 
0 0 0 0 0 0 0 0 0 
0 0 0 0 0 0 0 0 0 
0 0 0 0 0 0 0 0 0 
0 0 0 0 0 0 0 0 0 
0 0 0 0 0 0 0 0 0 
0 0 0 0 0 0 0 0 0 
0 0 0 0 0 0 0 0 0 
0 0 0 0 0 0 0 0 0 
0 0 0 0 0 0 0 0 0 
0 0 0 0 0 0 0 0 0 
0 0 0 0 0 0 0 0 0 
0 0 0 0 0 0 0 0 0 
0 0 0 0 0 0 0 0 0 
0 0 0 0 0 0 0 0 0 
0 0 0 0 0 0 0 0 0 
0 0 0 0 0 0 0 0 0 
0 0 0 0 0 0 0 0 0 
0 0 0 0 0 0 0 0 0 
0 0 0 0 0 0 0 0 0 
0 0 0 0 0 0 0 0 0 
0 0 0 0 0 0 0 0 0 
0 0 0 0 0 0 0 0 0 
0 0 0 0 0 0 0 0 0 
0 0 0 0 0 0 0 0 0 
0 0 0 0 0 0 0 0 0 
0 0 0 0 0 0 0 0 0 
0 0 0 0 0 0 0 0 0 
0 0 0 0 0 0 0 0 0 
0 0 0 0 0 0 0 0 0 
0 0 0 0 0 0 0 0 0 
0 0 0 0 0 0 0 0 0 
0 0 0 0 0 0 0 0 0 
0 0 0 
radius 1 100 double
0.010434 0.00981478 0.00892069 0.00845937 0.00731974 0.00728422 0.00643447 0.00619172 0.00585956 
0.00577566 0.00537241 0.00522549 0.00513666 0.00473175 0.00466912 0.00444866 0.00441894 0.00400812 
0.00385622 0.00379948 0.00370243 0.00366942 0.00364039 0.00363813 0.00363644 0.00358692 0.0035797 
0.00341284 0.00337012 0.00336273 0.00332772 0.00323261 0.00320584 0.00320311 0.00318808 0.00313116 
0.00306026 0.00305632 0.00304383 0.00300958 0.00300137 0.00298994 0.0029567 0.00295111 0.00290849 
0.00284552 0.00282964 0.0028207 0.00281971 0.00281899 0.010434 0.00981478 0.00892069 0.00845937 
0.00731974 0.00728422 0.00643447 0.00619172 0.00585956 0.00577566 0.00537241 0.00522549 0.00513666 
0.00473175 0.00466912 0.00444866 0.00441894 0.00400812 0.00385622 0.00379948 0.00370243 0.00366942 
0.00364039 0.00363813 0.00363644 0.00358692 0.0035797 0.00341284 0.00337012 0.00336273 0.00332772 
0.00323261 0.00320584 0.00320311 0.00318808 0.00313116 0.00306026 0.00305632 0.00304383 0.00300958 
0.00300137 0.00298994 0.0029567 0.00295111 0.00290849 0.00284552 0.00282964 0.0028207 0.00281971 
0.00281899 
omega 3 100 double
1.724434964 -7.0839772866 0.40638296931 1.724434964 -7.0839772866 0.40638296931 1.724434964 -7.0839772866 0.40638296931 
1.724434964 -7.0839772866 0.40638296931 1.724434964 -7.0839772866 0.40638296931 1.724434964 -7.0839772866 0.40638296931 
1.724434964 -7.0839772866 0.40638296931 1.724434964 -7.0839772866 0.40638296931 1.724434964 -7.0839772866 0.40638296931 
1.724434964 -7.0839772866 0.40638296931 1.724434964 -7.0839772866 0.40638296931 1.724434964 -7.0839772866 0.40638296931 
1.724434964 -7.0839772866 0.40638296931 1.724434964 -7.0839772866 0.40638296931 1.724434964 -7.0839772866 0.40638296931 
1.724434964 -7.0839772866 0.40638296931 1.724434964 -7.0839772866 0.40638296931 1.724434964 -7.0839772866 0.40638296931 
1.724434964 -7.0839772866 0.40638296931 1.724434964 -7.0839772866 0.40638296931 1.724434964 -7.0839772866 0.40638296931 
1.724434964 -7.0839772866 0.40638296931 1.724434964 -7.0839772866 0.40638296931 1.724434964 -7.0839772866 0.40638296931 
1.724434964 -7.0839772866 0.40638296931 1.724434964 -7.0839772866 0.40638296931 1.724434964 -7.0839772866 0.40638296931 
1.724434964 -7.0839772866 0.40638296931 1.724434964 -7.0839772866 0.40638296931 1.724434964 -7.0839772866 0.40638296931 
1.724434964 -7.0839772866 0.40638296931 1.724434964 -7.0839772866 0.40638296931 1.724434964 -7.0839772866 0.40638296931 
1.724434964 -7.0839772866 0.40638296931 1.724434964 -7.0839772866 0.40638296931 1.724434964 -7.0839772866 0.40638296931 
1.724434964 -7.0839772866 0.40638296931 1.724434964 -7.0839772866 0.40638296931 1.724434964 -7.0839772866 0.40638296931 
1.724434964 -7.0839772866 0.40638296931 1.724434964 -7.0839772866 0.40638296931 1.724434964 -7.0839772866 0.40638296931 
1.724434964 -7.0839772866 0.40638296931 1.724434964 -7.0839772866 0.40638296931 1.724434964 -7.0839772866 0.40638296931 
1.724434964 -7.0839772866 0.40638296931 1.724434964 -7.0839772866 0.40638296931 1.724434964 -7.0839772866 0.40638296931 
1.724434964 -7.0839772866 0.40638296931 1.724434964 -7.0839772866 0.40638296931 1.6811317264 -6.9591989375 0.41949946249 
1.6811317264 -6.9591989375 0.41949946249 1.6811317264 -6.9591989375 0.41949946249 1.6811317264 -6.9591989375 0.41949946249 
1.6811317264 -6.9591989375 0.41949946249 1.6811317264 -6.9591989375 0.41949946249 1.6811317264 -6.9591989375 0.41949946249 
1.6811317264 -6.9591989375 0.41949946249 1.6811317264 -6.9591989375 0.41949946249 1.6811317264 -6.9591989375 0.41949946249 
1.6811317264 -6.9591989375 0.41949946249 1.6811317264 -6.9591989375 0.41949946249 1.6811317264 -6.9591989375 0.41949946249 
1.6811317264 -6.9591989375 0.41949946249 1.6811317264 -6.9591989375 0.41949946249 1.6811317264 -6.9591989375 0.41949946249 
1.6811317264 -6.9591989375 0.41949946249 1.6811317264 -6.9591989375 0.41949946249 1.6811317264 -6.9591989375 0.41949946249 
1.6811317264 -6.9591989375 0.41949946249 1.6811317264 -6.9591989375 0.41949946249 1.6811317264 -6.9591989375 0.41949946249 
1.6811317264 -6.9591989375 0.41949946249 1.6811317264 -6.9591989375 0.41949946249 1.6811317264 -6.9591989375 0.41949946249 
1.6811317264 -6.9591989375 0.41949946249 1.6811317264 -6.9591989375 0.41949946249 1.6811317264 -6.9591989375 0.41949946249 
1.6811317264 -6.9591989375 0.41949946249 1.6811317264 -6.9591989375 0.41949946249 1.6811317264 -6.9591989375 0.41949946249 
1.6811317264 -6.9591989375 0.41949946249 1.6811317264 -6.9591989375 0.41949946249 1.6811317264 -6.9591989375 0.41949946249 
1.6811317264 -6.9591989375 0.41949946249 1.6811317264 -6.9591989375 0.41949946249 1.6811317264 -6.9591989375 0.41949946249 
1.6811317264 -6.9591989375 0.41949946249 1.6811317264 -6.9591989375 0.41949946249 1.6811317264 -6.9591989375 0.41949946249 
1.6811317264 -6.9591989375 0.41949946249 1.6811317264 -6.9591989375 0.41949946249 1.6811317264 -6.9591989375 0.41949946249 
1.6811317264 -6.9591989375 0.41949946249 1.6811317264 -6.9591989375 0.41949946249 1.6811317264 -6.9591989375 0.41949946249 
1.6811317264 -6.9591989375 0.41949946249 1.6811317264 -6.9591989375 0.41949946249 1.6811317264 -6.9591989375 0.41949946249 
1.6811317264 -6.9591989375 0.41949946249 
