# vtk DataFile Version 4.1
Generated by LIGGGHTS
ASCII
DATASET POLYDATA
POINTS 100 float
-0.120156 -0.138969 0.0181178 -0.129166 -0.138338 0.0128483 -0.138636 -0.137656 0.00962545 
-0.128533 -0.142692 0.0235004 -0.115619 -0.140644 0.027428 -0.136211 -0.142394 0.0192562 
-0.145886 -0.141597 0.0134741 -0.121229 -0.145647 0.0273701 -0.146849 -0.137643 0.00598499 
-0.121433 -0.133321 0.00872194 -0.135194 -0.147138 0.0264191 -0.143315 -0.144693 0.0191516 
-0.126717 -0.129735 0.00815888 -0.130478 -0.14909 0.029681 -0.132803 -0.130673 0.00717269 
-0.140337 -0.147052 0.0231087 -0.123346 -0.140521 0.0303484 -0.144417 -0.131134 0.0063653 
-0.116707 -0.138321 0.00812002 -0.151106 -0.141849 0.00872105 -0.121169 -0.142413 0.00829693 
-0.135102 -0.150812 0.0308365 -0.116465 -0.147425 0.0234672 -0.109029 -0.137502 0.0299053 
-0.110502 -0.140894 0.022131 -0.123902 -0.129723 0.0130946 -0.113983 -0.133517 0.0261793 
-0.112132 -0.135657 0.0316703 -0.138968 -0.150268 0.0288774 -0.133037 -0.135712 0.0215917 
-0.141632 -0.149603 0.0268271 -0.115312 -0.14748 0.0305407 -0.132989 -0.14276 0.00493048 
-0.125486 -0.149853 0.0301061 -0.151755 -0.13959 0.00313873 -0.113043 -0.145823 0.022403 
-0.145092 -0.148321 0.0231477 -0.126368 -0.146526 0.0308982 -0.149477 -0.145969 0.0167227 
-0.125987 -0.133739 0.00448146 -0.139346 -0.145853 0.0136197 -0.126303 -0.150363 0.0267082 
-0.123897 -0.136794 0.0279776 -0.121961 -0.148867 0.021551 -0.147266 -0.135334 0.0115692 
-0.151734 -0.144567 0.0129521 -0.109744 -0.138628 0.0190165 -0.129111 -0.133023 0.00447766 
-0.145368 -0.149511 0.0259845 -0.137313 -0.128834 0.00646991 -0.051435 -0.110929 0.0177991 
-0.0605412 -0.110361 0.0126912 -0.0700801 -0.109933 0.00963175 -0.0595216 -0.11553 0.0229409 
-0.0466797 -0.113111 0.0268929 -0.0672653 -0.115304 0.0188138 -0.0770529 -0.114566 0.0132155 
-0.0520148 -0.11839 0.0264794 -0.078335 -0.110071 0.00608817 -0.0531486 -0.104609 0.00891455 
-0.0658919 -0.120556 0.0255503 -0.0742373 -0.117971 0.0185918 -0.0586244 -0.101283 0.00870273 
-0.0610315 -0.122509 0.0285921 -0.0646654 -0.102466 0.00770431 -0.0710806 -0.12048 0.0223106 
-0.0543584 -0.113648 0.0298917 -0.076249 -0.103491 0.00697944 -0.0481714 -0.109278 0.00785439 
-0.0823203 -0.114712 0.00851098 -0.0524054 -0.113608 0.00773836 -0.0655398 -0.124569 0.0296484 
-0.0472194 -0.11958 0.0223951 -0.0402317 -0.109827 0.029554 -0.0416347 -0.112647 0.0215417 
-0.055742 -0.101521 0.0135939 -0.045445 -0.105827 0.0262198 -0.0434021 -0.108305 0.0314965 
-0.0694574 -0.124078 0.0277802 -0.0644194 -0.108673 0.0216602 -0.0721825 -0.123394 0.0258187 
-0.045962 -0.120151 0.0294279 -0.0642377 -0.114322 0.00447473 -0.0560001 -0.123031 0.0289022 
-0.0831708 -0.112042 0.00314094 -0.0439036 -0.117713 0.021432 -0.0757591 -0.122005 0.0222929 
-0.0570471 -0.119833 0.0299749 -0.080357 -0.119378 0.0161287 -0.0577348 -0.104926 0.00470039 
-0.0702933 -0.118457 0.0129432 -0.0568387 -0.123306 0.0254822 -0.055143 -0.109775 0.0278421 
-0.0526578 -0.121158 0.0204223 -0.078793 -0.108252 0.0118477 -0.082741 -0.117797 0.0125096 
-0.0410439 -0.110096 0.0186172 -0.0608924 -0.104383 0.00478738 -0.07593 -0.123437 0.0250246 
-0.069277 -0.100825 0.00720135 
VERTICES 100 200
1 0 
1 1 
1 2 
1 3 
1 4 
1 5 
1 6 
1 7 
1 8 
1 9 
1 10 
1 11 
1 12 
1 13 
1 14 
1 15 
1 16 
1 17 
1 18 
1 19 
1 20 
1 21 
1 22 
1 23 
1 24 
1 25 
1 26 
1 27 
1 28 
1 29 
1 30 
1 31 
1 32 
1 33 
1 34 
1 35 
1 36 
1 37 
1 38 
1 39 
1 40 
1 41 
1 42 
1 43 
1 44 
1 45 
1 46 
1 47 
1 48 
1 49 
1 50 
1 51 
1 52 
1 53 
1 54 
1 55 
1 56 
1 57 
1 58 
1 59 
1 60 
1 61 
1 62 
1 63 
1 64 
1 65 
1 66 
1 67 
1 68 
1 69 
1 70 
1 71 
1 72 
1 73 
1 74 
1 75 
1 76 
1 77 
1 78 
1 79 
1 80 
1 81 
1 82 
1 83 
1 84 
1 85 
1 86 
1 87 
1 88 
1 89 
1 90 
1 91 
1 92 
1 93 
1 94 
1 95 
1 96 
1 97 
1 98 
1 99 

POINT_DATA 100
FIELD FieldData 7
id 1 100 int
1 2 3 4 5 6 7 8 9 
10 11 12 13 14 15 16 17 18 
19 20 21 22 23 24 25 26 27 
28 29 30 31 32 33 34 35 36 
37 38 39 40 41 42 43 44 45 
46 47 48 49 50 51 52 53 54 
55 56 57 58 59 60 61 62 63 
64 65 66 67 68 69 70 71 72 
73 74 75 76 77 78 79 80 81 
82 83 84 85 86 87 88 89 90 
91 92 93 94 95 96 97 98 99 
100 
mol 1 100 int
1 1 1 1 1 1 1 1 1 
1 1 1 1 1 1 1 1 1 
1 1 1 1 1 1 1 1 1 
1 1 1 1 1 1 1 1 1 
1 1 1 1 1 1 1 1 1 
1 1 1 1 1 2 2 2 2 
2 2 2 2 2 2 2 2 2 
2 2 2 2 2 2 2 2 2 
2 2 2 2 2 2 2 2 2 
2 2 2 2 2 2 2 2 2 
2 2 2 2 2 2 2 2 2 
2 
type 1 100 int
1 1 1 1 1 1 1 1 1 
1 1 1 1 1 1 1 1 1 
1 1 1 1 1 1 1 1 1 
1 1 1 1 1 1 1 1 1 
1 1 1 1 1 1 1 1 1 
1 1 1 1 1 1 1 1 1 
1 1 1 1 1 1 1 1 1 
1 1 1 1 1 1 1 1 1 
1 1 1 1 1 1 1 1 1 
1 1 1 1 1 1 1 1 1 
1 1 1 1 1 1 1 1 1 
1 
v 3 100 double
-0.010191678477 -0.14423561271 -0.097014072865 -0.02635174317 -0.10159732533 -0.064282708193 -0.035897806182 -0.071021119076 -0.029755184575 
0.0028177000356 -0.16781843113 -0.093079015404 0.017722444447 -0.20664059282 -0.12184701597 -0.010436160068 -0.13299774898 -0.066655745181 
-0.028049453986 -0.086450475866 -0.030770504091 0.011853948506 -0.19991111722 -0.13464140609 -0.047542824777 -0.039303979682 -0.0033727649198 
-0.033867006393 -0.085007812147 -0.058193678811 0.0071146970275 -0.17819948038 -0.099085614503 -0.013383777489 -0.12428373058 -0.058044656337 
-0.031597192808 -0.075542578556 -0.019222895865 0.015343434896 -0.20361508681 -0.12619507377 -0.035820745216 -0.0625643508 -0.0054967958165 
-0.0033894566199 -0.15199989233 -0.082082750633 0.027215893582 -0.21582181184 -0.096342747034 -0.038930029245 -0.044405544615 0.028865870435 
-0.041474729817 -0.086675410647 -0.10407545008 -0.043558323145 -0.051293231678 -0.015604729952 -0.045557201562 -0.082694131305 -0.11494981338 
0.017088242446 -0.20546733533 -0.12197230276 -0.0026649240942 -0.18132434659 -0.160832153 0.029226139571 -0.22936041247 -0.12362923976 
0.00047443030969 -0.17988064979 -0.13976881652 -0.015775630105 -0.10909196162 -0.028163194417 0.02182004087 -0.20082082795 -0.08325975127 
0.036974939879 -0.23668954186 -0.1023473306 0.011432240701 -0.1890285452 -0.10624403695 0.004634037063 -0.15096472456 -0.035733365393 
0.0056201954583 -0.17339433423 -0.093628695816 0.019926495931 -0.22613086922 -0.16486336312 -0.056733222049 -0.048565302451 -0.079229696989 
0.015838501024 -0.21190050609 -0.14687348157 -0.05886950312 -0.016228458134 0.00037044013754 -0.0042535185254 -0.17866797519 -0.16194236751 
-0.0047071392409 -0.14683847383 -0.074664313308 0.02215487467 -0.21576909582 -0.1235893479 -0.022611932562 -0.10234830342 -0.046156322814 
-0.047922986096 -0.053758984399 -0.046182015286 -0.032417939545 -0.094775310533 -0.077886361876 0.0043761280323 -0.19007700882 -0.14739448717 
0.023856444981 -0.20061624538 -0.071659969456 -0.010440087588 -0.1632973808 -0.15209750397 -0.027034998913 -0.073169148058 0.012163347296 
-0.03309531076 -0.076597022176 -0.030304864987 -0.006926130443 -0.1615904329 -0.12826429306 -0.047121043236 -0.050186596863 -0.031769862252 
0.0030267021208 -0.16396911725 -0.081095732952 -0.035982576084 -0.053119312642 0.020254598303 -0.020025191159 -0.12824713886 -0.12765666616 
-0.042055496998 -0.090622237875 -0.084198570022 -0.055261439552 -0.068592076346 -0.039946045286 0.0026501434522 -0.16825693679 -0.12780029175 
0.019341204351 -0.19665003586 -0.16465433401 -0.015121129084 -0.13790446854 -0.09279391586 -0.039281037895 -0.096643192663 -0.045110175153 
0.018216788733 -0.19417328035 -0.18176819484 -0.070479161376 -0.042729699193 -0.005496320443 -0.059003734617 -0.061055833206 -0.072342638141 
0.014490373672 -0.18884159114 -0.13854185796 -0.015745386977 -0.13708324688 -0.083052462421 -0.060325964531 -0.060126449688 -0.023565115669 
0.027809417537 -0.2113170968 -0.17425551164 -0.064471915042 -0.05329932635 -0.0065745959777 0.00055281991519 -0.16490546011 -0.11565506349 
0.032300451181 -0.2203514204 -0.1357152862 -0.067461492654 -0.049233281693 0.035449140624 -0.062983853358 -0.05239695128 -0.12916351361 
-0.059488639862 -0.061603754571 -0.023574722309 -0.062946895548 -0.052040596359 -0.14381091904 0.032605822171 -0.21988914996 -0.17049966661 
0.00080492247127 -0.16259423523 -0.21141481348 0.030375700288 -0.21604107622 -0.16746641098 -0.0037219389796 -0.15542874889 -0.18282617022 
-0.039268436976 -0.096876872685 -0.037763621431 0.015546153086 -0.19139084364 -0.114700882 0.038538672118 -0.23117065079 -0.14228270691 
0.024512996011 -0.20620024105 -0.14992865139 -0.003704516872 -0.15914650587 -0.054722003543 0.015995626154 -0.19165657068 -0.13302640715 
0.031111058846 -0.21579363485 -0.22115005462 -0.076889669088 -0.028744783036 -0.09835644185 0.029207384819 -0.21304746306 -0.19984674469 
-0.082906050595 -0.020968591735 0.00033902221229 -0.0035666898913 -0.15487736797 -0.21150238081 0.00066537448889 -0.16534985551 -0.10711563411 
0.03342349952 -0.2213152868 -0.17108247348 -0.026161161488 -0.11915318686 -0.067414162743 -0.077082099145 -0.029652117778 -0.055033079759 
-0.039970135047 -0.093741156964 -0.10369055226 0.014538039396 -0.18720507266 -0.19832468736 0.023009408973 -0.2048986749 -0.10296311913 
-0.0074815531986 -0.14830002142 -0.20000187993 -0.045942486079 -0.086482043242 0.010271017106 -0.04191595685 -0.091991710235 -0.04517216069 
-0.016610746703 -0.13316849675 -0.16601227305 -0.076775319435 -0.030702835016 -0.037335528119 0.012586699645 -0.18609541936 -0.11723854803 
-0.06683740193 -0.050054202306 0.025707477103 
f 3 100 double
0 0 0 0 0 0 0 0 0 
0 0 0 0 0 0 0 0 0 
0 0 0 0 0 0 0 0 0 
0 0 0 0 0 0 0 0 0 
0 0 0 0 0 0 0 0 0 
0 0 0 0 0 0 0 0 0 
0 0 0 0 0 0 0 0 0 
0 0 0 0 0 0 0 0 0 
0 0 0 0 0 0 0 0 0 
0 0 0 0 0 0 0 0 0 
0 0 0 0 0 0 0 0 0 
0 0 0 0.079882642213 -0.0036274607151 0.15992992213 0 0 0 
0 0 0 0 0 0 0 0 0 
0 0 0 0 0 0 0 0 0 
0 0 0 0 0 0 0 0 0 
0 0 0 0 0 0 0 0 0 
0 0 0 0 0 0 0 0 0 
0 0 0 0 0 0 0 0 0 
0 0 0 0 0 0 0 0 0 
0 0 0 0 0 0 0 0 0 
0 0 0 0 0 0 0 0 0 
0 0 0 0 0 0 0 0 0 
0 0 0 0 0 0 0 0 0 
0 0 0 0 0 0 0 0 0 
0 0 0 0 0 0 0 0 0 
0 0 0 0 0 0 0 0 0 
0 0 0 0 0 0 0 0 0 
0 0 0 0 0 0 0 0 0 
0.074661761635 -0.0023011516192 0.14939443027 0 0 0 0 0 0 
0 0 0 0 0 0 0 0 0 
0 0 0 0 0 0 0 0 0 
0 0 0 0 0 0 0 0 0 
0 0 0 0 0 0 0 0 0 
0 0 0 
radius 1 100 double
0.010434 0.00981478 0.00892069 0.00845937 0.00731974 0.00728422 0.00643447 0.00619172 0.00585956 
0.00577566 0.00537241 0.00522549 0.00513666 0.00473175 0.00466912 0.00444866 0.00441894 0.00400812 
0.00385622 0.00379948 0.00370243 0.00366942 0.00364039 0.00363813 0.00363644 0.00358692 0.0035797 
0.00341284 0.00337012 0.00336273 0.00332772 0.00323261 0.00320584 0.00320311 0.00318808 0.00313116 
0.00306026 0.00305632 0.00304383 0.00300958 0.00300137 0.00298994 0.0029567 0.00295111 0.00290849 
0.00284552 0.00282964 0.0028207 0.00281971 0.00281899 0.010434 0.00981478 0.00892069 0.00845937 
0.00731974 0.00728422 0.00643447 0.00619172 0.00585956 0.00577566 0.00537241 0.00522549 0.00513666 
0.00473175 0.00466912 0.00444866 0.00441894 0.00400812 0.00385622 0.00379948 0.00370243 0.00366942 
0.00364039 0.00363813 0.00363644 0.00358692 0.0035797 0.00341284 0.00337012 0.00336273 0.00332772 
0.00323261 0.00320584 0.00320311 0.00318808 0.00313116 0.00306026 0.00305632 0.00304383 0.00300958 
0.00300137 0.00298994 0.0029567 0.00295111 0.00290849 0.00284552 0.00282964 0.0028207 0.00281971 
0.00281899 
omega 3 100 double
6.1492556455 3.2026575968 -1.1360194208 6.1492556455 3.2026575968 -1.1360194208 6.1492556455 3.2026575968 -1.1360194208 
6.1492556455 3.2026575968 -1.1360194208 6.1492556455 3.2026575968 -1.1360194208 6.1492556455 3.2026575968 -1.1360194208 
6.1492556455 3.2026575968 -1.1360194208 6.1492556455 3.2026575968 -1.1360194208 6.1492556455 3.2026575968 -1.1360194208 
6.1492556455 3.2026575968 -1.1360194208 6.1492556455 3.2026575968 -1.1360194208 6.1492556455 3.2026575968 -1.1360194208 
6.1492556455 3.2026575968 -1.1360194208 6.1492556455 3.2026575968 -1.1360194208 6.1492556455 3.2026575968 -1.1360194208 
6.1492556455 3.2026575968 -1.1360194208 6.1492556455 3.2026575968 -1.1360194208 6.1492556455 3.2026575968 -1.1360194208 
6.1492556455 3.2026575968 -1.1360194208 6.1492556455 3.2026575968 -1.1360194208 6.1492556455 3.2026575968 -1.1360194208 
6.1492556455 3.2026575968 -1.1360194208 6.1492556455 3.2026575968 -1.1360194208 6.1492556455 3.2026575968 -1.1360194208 
6.1492556455 3.2026575968 -1.1360194208 6.1492556455 3.2026575968 -1.1360194208 6.1492556455 3.2026575968 -1.1360194208 
6.1492556455 3.2026575968 -1.1360194208 6.1492556455 3.2026575968 -1.1360194208 6.1492556455 3.2026575968 -1.1360194208 
6.1492556455 3.2026575968 -1.1360194208 6.1492556455 3.2026575968 -1.1360194208 6.1492556455 3.2026575968 -1.1360194208 
6.1492556455 3.2026575968 -1.1360194208 6.1492556455 3.2026575968 -1.1360194208 6.1492556455 3.2026575968 -1.1360194208 
6.1492556455 3.2026575968 -1.1360194208 6.1492556455 3.2026575968 -1.1360194208 6.1492556455 3.2026575968 -1.1360194208 
6.1492556455 3.2026575968 -1.1360194208 6.1492556455 3.2026575968 -1.1360194208 6.1492556455 3.2026575968 -1.1360194208 
6.1492556455 3.2026575968 -1.1360194208 6.1492556455 3.2026575968 -1.1360194208 6.1492556455 3.2026575968 -1.1360194208 
6.1492556455 3.2026575968 -1.1360194208 6.1492556455 3.2026575968 -1.1360194208 6.1492556455 3.2026575968 -1.1360194208 
6.1492556455 3.2026575968 -1.1360194208 6.1492556455 3.2026575968 -1.1360194208 7.5866163554 4.2992292241 0.12373769726 
7.5866163554 4.2992292241 0.12373769726 7.5866163554 4.2992292241 0.12373769726 7.5866163554 4.2992292241 0.12373769726 
7.5866163554 4.2992292241 0.12373769726 7.5866163554 4.2992292241 0.12373769726 7.5866163554 4.2992292241 0.12373769726 
7.5866163554 4.2992292241 0.12373769726 7.5866163554 4.2992292241 0.12373769726 7.5866163554 4.2992292241 0.12373769726 
7.5866163554 4.2992292241 0.12373769726 7.5866163554 4.2992292241 0.12373769726 7.5866163554 4.2992292241 0.12373769726 
7.5866163554 4.2992292241 0.12373769726 7.5866163554 4.2992292241 0.12373769726 7.5866163554 4.2992292241 0.12373769726 
7.5866163554 4.2992292241 0.12373769726 7.5866163554 4.2992292241 0.12373769726 7.5866163554 4.2992292241 0.12373769726 
7.5866163554 4.2992292241 0.12373769726 7.5866163554 4.2992292241 0.12373769726 7.5866163554 4.2992292241 0.12373769726 
7.5866163554 4.2992292241 0.12373769726 7.5866163554 4.2992292241 0.12373769726 7.5866163554 4.2992292241 0.12373769726 
7.5866163554 4.2992292241 0.12373769726 7.5866163554 4.2992292241 0.12373769726 7.5866163554 4.2992292241 0.12373769726 
7.5866163554 4.2992292241 0.12373769726 7.5866163554 4.2992292241 0.12373769726 7.5866163554 4.2992292241 0.12373769726 
7.5866163554 4.2992292241 0.12373769726 7.5866163554 4.2992292241 0.12373769726 7.5866163554 4.2992292241 0.12373769726 
7.5866163554 4.2992292241 0.12373769726 7.5866163554 4.2992292241 0.12373769726 7.5866163554 4.2992292241 0.12373769726 
7.5866163554 4.2992292241 0.12373769726 7.5866163554 4.2992292241 0.12373769726 7.5866163554 4.2992292241 0.12373769726 
7.5866163554 4.2992292241 0.12373769726 7.5866163554 4.2992292241 0.12373769726 7.5866163554 4.2992292241 0.12373769726 
7.5866163554 4.2992292241 0.12373769726 7.5866163554 4.2992292241 0.12373769726 7.5866163554 4.2992292241 0.12373769726 
7.5866163554 4.2992292241 0.12373769726 7.5866163554 4.2992292241 0.12373769726 7.5866163554 4.2992292241 0.12373769726 
7.5866163554 4.2992292241 0.12373769726 
