# vtk DataFile Version 4.1
Generated by LIGGGHTS
ASCII
DATASET POLYDATA
POINTS 100 float
-0.118243 -0.134194 0.0167952 -0.127451 -0.135004 0.0119071 -0.137048 -0.135326 0.00902214 
-0.126277 -0.136882 0.023217 -0.113319 -0.133642 0.0260429 -0.134106 -0.137751 0.0193439 
-0.144003 -0.138532 0.0139482 -0.118734 -0.138696 0.0273232 -0.14538 -0.136357 0.00582314 
-0.120065 -0.130796 0.00645377 -0.132656 -0.140768 0.0273218 -0.141117 -0.140224 0.0200505 
-0.125498 -0.127579 0.00534595 -0.127757 -0.141814 0.030727 -0.131576 -0.128888 0.00485114 
-0.137914 -0.141564 0.0242968 -0.120936 -0.133104 0.029194 -0.143185 -0.129855 0.00466325 
-0.115177 -0.135665 0.00675988 -0.149375 -0.139979 0.0095943 -0.119472 -0.139746 0.00802041 
-0.132269 -0.143373 0.0324289 -0.114046 -0.14115 0.023704 -0.10677 -0.129839 0.0274865 
-0.108387 -0.134903 0.0207148 -0.122512 -0.126396 0.0100336 -0.112 -0.12692 0.0231938 
-0.109875 -0.127742 0.0289357 -0.13622 -0.143388 0.0305658 -0.131107 -0.130629 0.0200202 
-0.138978 -0.14327 0.0285359 -0.112642 -0.139611 0.0305615 -0.131382 -0.141173 0.00532199 
-0.122728 -0.142318 0.0310944 -0.150306 -0.139025 0.00368562 -0.110727 -0.139723 0.0221689 
-0.142612 -0.142932 0.0248169 -0.123707 -0.138926 0.0311753 -0.147308 -0.142184 0.0182269 
-0.124747 -0.132271 0.00260729 -0.137305 -0.142458 0.0147421 -0.123645 -0.143589 0.0279292 
-0.121713 -0.130009 0.0260902 -0.119548 -0.143139 0.0223879 -0.145686 -0.132886 0.0107782 
-0.149749 -0.141714 0.014341 -0.107826 -0.133358 0.0171499 -0.127894 -0.131665 0.00258057 
-0.142742 -0.143475 0.0278547 -0.136174 -0.127382 0.00395663 -0.0493919 -0.106683 0.0173879 
-0.0584756 -0.107378 0.0122556 -0.0679995 -0.107664 0.0091336 -0.0575508 -0.109673 0.0235117 
-0.0446907 -0.106444 0.0267641 -0.0652792 -0.110455 0.0194239 -0.0750406 -0.111107 0.0137692 
-0.050091 -0.111584 0.0277247 -0.0762452 -0.108636 0.00570125 -0.051 -0.102911 0.00714119 
-0.0639916 -0.11376 0.0273149 -0.0722836 -0.113006 0.0198704 -0.0564326 -0.0996959 0.00602639 
-0.0591651 -0.114897 0.0307937 -0.0624853 -0.101032 0.00533859 -0.0691696 -0.114481 0.0241382 
-0.0523841 -0.106083 0.0297515 -0.0740787 -0.102079 0.00483896 -0.0460792 -0.107751 0.00738003 
-0.0802959 -0.112428 0.00923773 -0.0503673 -0.11191 0.00838397 -0.0637021 -0.116553 0.0323282 
-0.0452993 -0.113864 0.0241281 -0.0382093 -0.102649 0.0285047 -0.0396249 -0.107466 0.021511 
-0.0535675 -0.0986686 0.0108247 -0.0433621 -0.09961 0.0242018 -0.0413658 -0.100632 0.0299575 
-0.0676078 -0.116527 0.0303726 -0.0623578 -0.103341 0.0204384 -0.0703184 -0.116354 0.0282837 
-0.0440694 -0.112574 0.03107 -0.0621983 -0.113323 0.00535189 -0.0541416 -0.115376 0.0312612 
-0.0810971 -0.111259 0.00334861 -0.0419574 -0.112355 0.022727 -0.0738669 -0.115904 0.0244948 
-0.0551511 -0.111997 0.0314463 -0.0784135 -0.114942 0.0178279 -0.0555777 -0.104276 0.00313191 
-0.0683299 -0.115009 0.0145738 -0.0549738 -0.116533 0.0280296 -0.0531138 -0.10288 0.0267486 
-0.0507515 -0.115844 0.0226079 -0.0766967 -0.105358 0.0107745 -0.080767 -0.114345 0.0139057 
-0.0389935 -0.105783 0.018021 -0.0587284 -0.103693 0.00305329 -0.0740638 -0.116562 0.0275061 
-0.0670743 -0.0995282 0.00439241 
VERTICES 100 200
1 0 
1 1 
1 2 
1 3 
1 4 
1 5 
1 6 
1 7 
1 8 
1 9 
1 10 
1 11 
1 12 
1 13 
1 14 
1 15 
1 16 
1 17 
1 18 
1 19 
1 20 
1 21 
1 22 
1 23 
1 24 
1 25 
1 26 
1 27 
1 28 
1 29 
1 30 
1 31 
1 32 
1 33 
1 34 
1 35 
1 36 
1 37 
1 38 
1 39 
1 40 
1 41 
1 42 
1 43 
1 44 
1 45 
1 46 
1 47 
1 48 
1 49 
1 50 
1 51 
1 52 
1 53 
1 54 
1 55 
1 56 
1 57 
1 58 
1 59 
1 60 
1 61 
1 62 
1 63 
1 64 
1 65 
1 66 
1 67 
1 68 
1 69 
1 70 
1 71 
1 72 
1 73 
1 74 
1 75 
1 76 
1 77 
1 78 
1 79 
1 80 
1 81 
1 82 
1 83 
1 84 
1 85 
1 86 
1 87 
1 88 
1 89 
1 90 
1 91 
1 92 
1 93 
1 94 
1 95 
1 96 
1 97 
1 98 
1 99 

POINT_DATA 100
FIELD FieldData 7
id 1 100 int
1 2 3 4 5 6 7 8 9 
10 11 12 13 14 15 16 17 18 
19 20 21 22 23 24 25 26 27 
28 29 30 31 32 33 34 35 36 
37 38 39 40 41 42 43 44 45 
46 47 48 49 50 51 52 53 54 
55 56 57 58 59 60 61 62 63 
64 65 66 67 68 69 70 71 72 
73 74 75 76 77 78 79 80 81 
82 83 84 85 86 87 88 89 90 
91 92 93 94 95 96 97 98 99 
100 
mol 1 100 int
1 1 1 1 1 1 1 1 1 
1 1 1 1 1 1 1 1 1 
1 1 1 1 1 1 1 1 1 
1 1 1 1 1 1 1 1 1 
1 1 1 1 1 1 1 1 1 
1 1 1 1 1 2 2 2 2 
2 2 2 2 2 2 2 2 2 
2 2 2 2 2 2 2 2 2 
2 2 2 2 2 2 2 2 2 
2 2 2 2 2 2 2 2 2 
2 2 2 2 2 2 2 2 2 
2 
type 1 100 int
1 1 1 1 1 1 1 1 1 
1 1 1 1 1 1 1 1 1 
1 1 1 1 1 1 1 1 1 
1 1 1 1 1 1 1 1 1 
1 1 1 1 1 1 1 1 1 
1 1 1 1 1 1 1 1 1 
1 1 1 1 1 1 1 1 1 
1 1 1 1 1 1 1 1 1 
1 1 1 1 1 1 1 1 1 
1 1 1 1 1 1 1 1 1 
1 1 1 1 1 1 1 1 1 
1 
v 3 100 double
-0.15186404148 -0.12503867412 0.15684426561 -0.10773906706 -0.10126525917 0.069782863815 -0.081920133487 -0.093167627285 -0.017011487049 
-0.20448406 -0.18496293335 0.065931729321 -0.2339430684 -0.18782499779 0.20429480105 -0.16919789026 -0.16688581183 -0.0094517268494 
-0.1206534136 -0.14026433786 -0.10235317146 -0.23799403471 -0.20520678544 0.11854492769 -0.052330047942 -0.080896123365 -0.098035135585 
-0.065799704175 -0.049575172007 0.16647519517 -0.23502929089 -0.22504011651 -0.019480324123 -0.17188455416 -0.18221213793 -0.089749702111 
-0.060646339609 -0.048956554597 0.14299831997 -0.26347088303 -0.24376084591 0.015684686276 -0.054430164401 -0.053883344509 0.079690967224 
-0.20730236848 -0.20969906461 -0.071704919311 -0.26241012619 -0.22246759342 0.14139506056 -0.05140023982 -0.069012190993 -0.029664128408 
-0.061550660578 -0.044918591103 0.17269213256 -0.080318287799 -0.11505501185 -0.16048738975 -0.066814243708 -0.060554482885 0.10413226486 
-0.27620947596 -0.26303786256 -0.035744456879 -0.20268158881 -0.17120704899 0.14122654758 -0.25205273227 -0.18938676634 0.29057135868 
-0.18530831025 -0.14057768031 0.2381270673 -0.1035388598 -0.080084412335 0.1781734131 -0.2184781453 -0.16443903613 0.26662758686 
-0.26778140072 -0.20475244449 0.27910122793 -0.25981130761 -0.25460544283 -0.070581530119 -0.18529437519 -0.16771732973 0.070666910316 
-0.24213531159 -0.24321443078 -0.093938589862 -0.26515731242 -0.22096860426 0.16518933659 -0.041060467332 -0.057161075719 -0.011330764246 
-0.26598242932 -0.23936577366 0.056092878029 -0.029736482516 -0.071782545765 -0.16148197165 -0.1912213394 -0.15488895709 0.1811763589 
-0.20992384609 -0.22032115183 -0.12333428299 -0.27152913372 -0.24137225634 0.073093093453 -0.15306067825 -0.17727099598 -0.1589661266 
-0.029883406158 -0.027213511549 0.11417987445 -0.12203663876 -0.13671013457 -0.07310671561 -0.23634718053 -0.21678132891 0.038436083411 
-0.23953597816 -0.20014535586 0.15792791764 -0.18827661203 -0.16911359111 0.077849284268 -0.10083420363 -0.11873457024 -0.074528973384 
-0.11957138509 -0.15141912471 -0.17688180623 -0.15617246434 -0.11286885213 0.25472023391 -0.030512839799 -0.031497489406 0.091091520689 
-0.2358544078 -0.24343728591 -0.12857678268 -0.048713275742 -0.053685694326 0.050633309073 -0.12151079225 -0.1218264074 0.12409588377 
-0.098609816477 -0.08347603379 0.078369730001 -0.08474856373 -0.062164162463 0.034136601799 -0.14690916986 -0.17716542908 0.063238712184 
-0.16282823023 -0.19788602894 0.14675371463 -0.12855396771 -0.14686905389 0.022742130943 -0.10338005112 -0.10449167483 -0.025599650551 
-0.16445642456 -0.20864442683 0.080031698922 -0.069177224875 -0.037611519959 -0.010226342557 -0.078391361907 -0.036924407487 0.14858509581 
-0.16155891417 -0.21222768862 0.0007563225032 -0.12922931142 -0.15413674464 -0.029372780207 -0.075114755039 -0.03033916024 0.15161010994 
-0.17627012691 -0.23889276445 0.012449726023 -0.071418927441 -0.027638348571 0.11384073554 -0.1472370839 -0.18826567954 -0.028027921254 
-0.17613616024 -0.22675531265 0.11596926279 -0.068695462813 -0.029305923826 0.05414153994 -0.076999792436 -0.036440539922 0.12972003462 
-0.082803214756 -0.069236713832 -0.059744960284 -0.07931355563 -0.0470011048 0.076092358662 -0.18217707388 -0.25401705911 -0.021340768051 
-0.14750411018 -0.17614308431 0.082013038477 -0.17238965635 -0.20917666729 0.20697508856 -0.13923181771 -0.15138919632 0.16046504041 
-0.09671554839 -0.069031510717 0.1727921863 -0.15501672084 -0.17578254816 0.20975789406 -0.17979073726 -0.22292178064 0.20998167112 
-0.17359787246 -0.23962862356 -0.038282986817 -0.13659943193 -0.15388218045 0.095085511339 -0.1645071288 -0.22352229603 -0.048743346866 
-0.17865584374 -0.23359115839 0.09820673307 -0.065278262987 -0.02760484267 0.012283820698 -0.17808249403 -0.24026976171 0.030513172779 
-0.057517284675 -0.020378931307 -0.053487306024 -0.14210897076 -0.16273715167 0.10932197911 -0.14808645353 -0.19361774333 -0.060567499832 
-0.18060021509 -0.24232726894 0.054346988157 -0.11927874018 -0.14014347409 -0.072503163002 -0.060087128288 -0.0056959160796 0.11705447488 
-0.10494706544 -0.10783717694 -0.02875523357 -0.16329989465 -0.21365736318 0.017176828717 -0.16455773371 -0.20200433263 0.13956052152 
-0.13982617251 -0.16617629588 0.041497746565 -0.093121588974 -0.080276833312 0.015213645759 -0.10234652267 -0.10852102941 -0.077845457251 
-0.12474614401 -0.12187733518 0.17731361751 -0.060035806366 -0.0066273472494 0.10808862141 -0.16098556446 -0.21890629195 -0.066937237789 
-0.068019969597 -0.022038003277 0.10625597356 
f 3 100 double
0 0 0 0 0 0 0 0 0 
0 0 0 0 0 0 0 0 0 
0 0 0 0 0 0 -6.2271558345e-06 0.38318588665 1.1916907128 
0 0 0 0 0 0 0 0 0 
0 0 0 0 0 0 0 0 0 
0 0 0 0 0 0 0 0 0 
0 0 0 0 0 0 0 0 0 
0 0 0 0 0 0 0 0 0 
0 0 0 0 0 0 0 0 0 
0 0 0 0 0 0 0 0 0 
0 0 0 0 0 0 0 0 0 
0 0 0 0 0 0 0 0 0 
0 0 0 0 0 0 0 0 0 
-0.05583482045 -0.46629211294 1.8256168584 0 0 0 0 0 0 
0 0 0 0 0 0 0 0 0 
0 0 0 0 0 0 -0.044894769894 -0.17430115933 0.35998019116 
0 0 0 0 0 0 0 0 0 
0 0 0 0 0 0 0 0 0 
0 0 0 0 0 0 0 0 0 
0 0 0 1.1430586646 0.023903580293 1.4346934589 0 0 0 
0 0 0 0 0 0 0 0 0 
0 0 0 0 0 0 0 0 0 
0 0 0 0 0 0 0 0 0 
0 0 0 0 0 0 0 0 0 
0 0 0 0 0 0 0 0 0 
0 0 0 0 0 0 0 0 0 
0 0 0 0 0 0 0 0 0 
0 0 0 0 0 0 0 0 0 
0 0 0 0 0 0 0 0 0 
0 0 0 0 0 0 0 0 0 
0 0 0 0 0 0 0 0 0 
0 0 0 0 0 0 0 0 0 
0 0 0 0 0 0 0 0 0 
0 0 0 
radius 1 100 double
0.010434 0.00981478 0.00892069 0.00845937 0.00731974 0.00728422 0.00643447 0.00619172 0.00585956 
0.00577566 0.00537241 0.00522549 0.00513666 0.00473175 0.00466912 0.00444866 0.00441894 0.00400812 
0.00385622 0.00379948 0.00370243 0.00366942 0.00364039 0.00363813 0.00363644 0.00358692 0.0035797 
0.00341284 0.00337012 0.00336273 0.00332772 0.00323261 0.00320584 0.00320311 0.00318808 0.00313116 
0.00306026 0.00305632 0.00304383 0.00300958 0.00300137 0.00298994 0.0029567 0.00295111 0.00290849 
0.00284552 0.00282964 0.0028207 0.00281971 0.00281899 0.010434 0.00981478 0.00892069 0.00845937 
0.00731974 0.00728422 0.00643447 0.00619172 0.00585956 0.00577566 0.00537241 0.00522549 0.00513666 
0.00473175 0.00466912 0.00444866 0.00441894 0.00400812 0.00385622 0.00379948 0.00370243 0.00366942 
0.00364039 0.00363813 0.00363644 0.00358692 0.0035797 0.00341284 0.00337012 0.00336273 0.00332772 
0.00323261 0.00320584 0.00320311 0.00318808 0.00313116 0.00306026 0.00305632 0.00304383 0.00300958 
0.00300137 0.00298994 0.0029567 0.00295111 0.00290849 0.00284552 0.00282964 0.0028207 0.00281971 
0.00281899 
omega 3 100 double
7.5483380738 -8.7906013911 1.4252884433 7.5483380738 -8.7906013911 1.4252884433 7.5483380738 -8.7906013911 1.4252884433 
7.5483380738 -8.7906013911 1.4252884433 7.5483380738 -8.7906013911 1.4252884433 7.5483380738 -8.7906013911 1.4252884433 
7.5483380738 -8.7906013911 1.4252884433 7.5483380738 -8.7906013911 1.4252884433 7.5483380738 -8.7906013911 1.4252884433 
7.5483380738 -8.7906013911 1.4252884433 7.5483380738 -8.7906013911 1.4252884433 7.5483380738 -8.7906013911 1.4252884433 
7.5483380738 -8.7906013911 1.4252884433 7.5483380738 -8.7906013911 1.4252884433 7.5483380738 -8.7906013911 1.4252884433 
7.5483380738 -8.7906013911 1.4252884433 7.5483380738 -8.7906013911 1.4252884433 7.5483380738 -8.7906013911 1.4252884433 
7.5483380738 -8.7906013911 1.4252884433 7.5483380738 -8.7906013911 1.4252884433 7.5483380738 -8.7906013911 1.4252884433 
7.5483380738 -8.7906013911 1.4252884433 7.5483380738 -8.7906013911 1.4252884433 7.5483380738 -8.7906013911 1.4252884433 
7.5483380738 -8.7906013911 1.4252884433 7.5483380738 -8.7906013911 1.4252884433 7.5483380738 -8.7906013911 1.4252884433 
7.5483380738 -8.7906013911 1.4252884433 7.5483380738 -8.7906013911 1.4252884433 7.5483380738 -8.7906013911 1.4252884433 
7.5483380738 -8.7906013911 1.4252884433 7.5483380738 -8.7906013911 1.4252884433 7.5483380738 -8.7906013911 1.4252884433 
7.5483380738 -8.7906013911 1.4252884433 7.5483380738 -8.7906013911 1.4252884433 7.5483380738 -8.7906013911 1.4252884433 
7.5483380738 -8.7906013911 1.4252884433 7.5483380738 -8.7906013911 1.4252884433 7.5483380738 -8.7906013911 1.4252884433 
7.5483380738 -8.7906013911 1.4252884433 7.5483380738 -8.7906013911 1.4252884433 7.5483380738 -8.7906013911 1.4252884433 
7.5483380738 -8.7906013911 1.4252884433 7.5483380738 -8.7906013911 1.4252884433 7.5483380738 -8.7906013911 1.4252884433 
7.5483380738 -8.7906013911 1.4252884433 7.5483380738 -8.7906013911 1.4252884433 7.5483380738 -8.7906013911 1.4252884433 
7.5483380738 -8.7906013911 1.4252884433 7.5483380738 -8.7906013911 1.4252884433 8.3648888302 -4.3937718873 0.50433550772 
8.3648888302 -4.3937718873 0.50433550772 8.3648888302 -4.3937718873 0.50433550772 8.3648888302 -4.3937718873 0.50433550772 
8.3648888302 -4.3937718873 0.50433550772 8.3648888302 -4.3937718873 0.50433550772 8.3648888302 -4.3937718873 0.50433550772 
8.3648888302 -4.3937718873 0.50433550772 8.3648888302 -4.3937718873 0.50433550772 8.3648888302 -4.3937718873 0.50433550772 
8.3648888302 -4.3937718873 0.50433550772 8.3648888302 -4.3937718873 0.50433550772 8.3648888302 -4.3937718873 0.50433550772 
8.3648888302 -4.3937718873 0.50433550772 8.3648888302 -4.3937718873 0.50433550772 8.3648888302 -4.3937718873 0.50433550772 
8.3648888302 -4.3937718873 0.50433550772 8.3648888302 -4.3937718873 0.50433550772 8.3648888302 -4.3937718873 0.50433550772 
8.3648888302 -4.3937718873 0.50433550772 8.3648888302 -4.3937718873 0.50433550772 8.3648888302 -4.3937718873 0.50433550772 
8.3648888302 -4.3937718873 0.50433550772 8.3648888302 -4.3937718873 0.50433550772 8.3648888302 -4.3937718873 0.50433550772 
8.3648888302 -4.3937718873 0.50433550772 8.3648888302 -4.3937718873 0.50433550772 8.3648888302 -4.3937718873 0.50433550772 
8.3648888302 -4.3937718873 0.50433550772 8.3648888302 -4.3937718873 0.50433550772 8.3648888302 -4.3937718873 0.50433550772 
8.3648888302 -4.3937718873 0.50433550772 8.3648888302 -4.3937718873 0.50433550772 8.3648888302 -4.3937718873 0.50433550772 
8.3648888302 -4.3937718873 0.50433550772 8.3648888302 -4.3937718873 0.50433550772 8.3648888302 -4.3937718873 0.50433550772 
8.3648888302 -4.3937718873 0.50433550772 8.3648888302 -4.3937718873 0.50433550772 8.3648888302 -4.3937718873 0.50433550772 
8.3648888302 -4.3937718873 0.50433550772 8.3648888302 -4.3937718873 0.50433550772 8.3648888302 -4.3937718873 0.50433550772 
8.3648888302 -4.3937718873 0.50433550772 8.3648888302 -4.3937718873 0.50433550772 8.3648888302 -4.3937718873 0.50433550772 
8.3648888302 -4.3937718873 0.50433550772 8.3648888302 -4.3937718873 0.50433550772 8.3648888302 -4.3937718873 0.50433550772 
8.3648888302 -4.3937718873 0.50433550772 
