# vtk DataFile Version 4.1
Generated by LIGGGHTS
ASCII
DATASET POLYDATA
POINTS 100 float
-0.120011 -0.137823 0.0186181 -0.12893 -0.137529 0.0131683 -0.138346 -0.137087 0.00975165 
-0.128453 -0.141349 0.0240311 -0.115627 -0.139001 0.0280769 -0.136056 -0.141325 0.0196446 
-0.145633 -0.140897 0.0136631 -0.121197 -0.144048 0.0281679 -0.146494 -0.137323 0.00597282 
-0.121164 -0.132654 0.00893488 -0.13513 -0.145703 0.0270489 -0.143139 -0.143688 0.0195299 
-0.126465 -0.129146 0.00810428 -0.130458 -0.147453 0.0304845 -0.132525 -0.130183 0.00705985 
-0.140215 -0.145824 0.0236495 -0.123405 -0.1388 0.0308531 -0.144119 -0.130783 0.00607445 
-0.116389 -0.137637 0.00866202 -0.150766 -0.141426 0.00883824 -0.120822 -0.141754 0.00896261 
-0.135089 -0.149155 0.0316428 -0.11635 -0.145974 0.0244406 -0.109107 -0.135684 0.0305107 
-0.110415 -0.139466 0.0228883 -0.123737 -0.128867 0.0130816 -0.114024 -0.131929 0.0265075 
-0.112254 -0.133781 0.0321285 -0.138923 -0.148741 0.0295924 -0.132976 -0.13451 0.0217031 
-0.141555 -0.148201 0.0274659 -0.115322 -0.145672 0.0315272 -0.132578 -0.142367 0.00541247 
-0.125469 -0.148151 0.0310333 -0.151333 -0.139449 0.00314102 -0.112922 -0.144397 0.0233585 
-0.144959 -0.147131 0.0236683 -0.12639 -0.144797 0.0316452 -0.149247 -0.145135 0.0170601 
-0.125638 -0.133319 0.00464165 -0.139064 -0.145084 0.0141316 -0.126222 -0.148835 0.0276509 
-0.123943 -0.135199 0.0282925 -0.1218 -0.147555 0.0225025 -0.147027 -0.134746 0.0114285 
-0.151448 -0.143939 0.0131864 -0.109619 -0.137349 0.0196797 -0.128767 -0.13263 0.0045483 
-0.145276 -0.148182 0.026555 -0.137036 -0.12842 0.00618915 -0.0512149 -0.10991 0.0185412 
-0.060181 -0.10964 0.0131678 -0.0696342 -0.109385 0.00983538 -0.0594485 -0.114181 0.0237347 
-0.0467086 -0.111545 0.0278736 -0.0670795 -0.114195 0.0193969 -0.0767132 -0.113783 0.0135057 
-0.0520466 -0.116832 0.0276381 -0.0777927 -0.109725 0.00608815 -0.0526738 -0.104137 0.00924843 
-0.0659006 -0.119031 0.0264727 -0.0740511 -0.116861 0.0191511 -0.0581321 -0.100822 0.0086903 
-0.0611283 -0.120803 0.0297553 -0.0641481 -0.102056 0.00760486 -0.0710014 -0.119144 0.0230974 
-0.0544655 -0.111888 0.030694 -0.0757114 -0.103107 0.00663528 -0.0476842 -0.108869 0.00860527 
-0.0818546 -0.114206 0.00868017 -0.0519266 -0.113192 0.00863857 -0.0656691 -0.122789 0.0308139 
-0.0471483 -0.118273 0.0237623 -0.0403235 -0.108115 0.030502 -0.0415223 -0.111412 0.0226403 
-0.0553809 -0.100768 0.0136618 -0.0454348 -0.104316 0.0267945 -0.0435397 -0.106473 0.0322639 
-0.0695344 -0.122406 0.0288157 -0.0642902 -0.107407 0.021912 -0.0722046 -0.121839 0.0267447 
-0.0460792 -0.118419 0.0308477 -0.0636704 -0.114086 0.00511034 -0.0561084 -0.121312 0.0302302 
-0.0825546 -0.111865 0.00313783 -0.0438025 -0.116472 0.0227767 -0.0756823 -0.120661 0.0230474 
-0.057174 -0.118054 0.0310794 -0.0801075 -0.118405 0.0166155 -0.0571477 -0.104703 0.00494062 
-0.0699603 -0.117692 0.0136491 -0.056857 -0.121792 0.0268119 -0.055184 -0.108146 0.0283939 
-0.0525372 -0.11996 0.0217445 -0.0783976 -0.107561 0.011713 -0.0823902 -0.117043 0.0128453 
-0.0408466 -0.109044 0.0195837 -0.0603049 -0.104151 0.00491055 -0.0759298 -0.121924 0.0258552 
-0.0687399 -0.100441 0.00688104 
VERTICES 100 200
1 0 
1 1 
1 2 
1 3 
1 4 
1 5 
1 6 
1 7 
1 8 
1 9 
1 10 
1 11 
1 12 
1 13 
1 14 
1 15 
1 16 
1 17 
1 18 
1 19 
1 20 
1 21 
1 22 
1 23 
1 24 
1 25 
1 26 
1 27 
1 28 
1 29 
1 30 
1 31 
1 32 
1 33 
1 34 
1 35 
1 36 
1 37 
1 38 
1 39 
1 40 
1 41 
1 42 
1 43 
1 44 
1 45 
1 46 
1 47 
1 48 
1 49 
1 50 
1 51 
1 52 
1 53 
1 54 
1 55 
1 56 
1 57 
1 58 
1 59 
1 60 
1 61 
1 62 
1 63 
1 64 
1 65 
1 66 
1 67 
1 68 
1 69 
1 70 
1 71 
1 72 
1 73 
1 74 
1 75 
1 76 
1 77 
1 78 
1 79 
1 80 
1 81 
1 82 
1 83 
1 84 
1 85 
1 86 
1 87 
1 88 
1 89 
1 90 
1 91 
1 92 
1 93 
1 94 
1 95 
1 96 
1 97 
1 98 
1 99 

POINT_DATA 100
FIELD FieldData 7
id 1 100 int
1 2 3 4 5 6 7 8 9 
10 11 12 13 14 15 16 17 18 
19 20 21 22 23 24 25 26 27 
28 29 30 31 32 33 34 35 36 
37 38 39 40 41 42 43 44 45 
46 47 48 49 50 51 52 53 54 
55 56 57 58 59 60 61 62 63 
64 65 66 67 68 69 70 71 72 
73 74 75 76 77 78 79 80 81 
82 83 84 85 86 87 88 89 90 
91 92 93 94 95 96 97 98 99 
100 
mol 1 100 int
1 1 1 1 1 1 1 1 1 
1 1 1 1 1 1 1 1 1 
1 1 1 1 1 1 1 1 1 
1 1 1 1 1 1 1 1 1 
1 1 1 1 1 1 1 1 1 
1 1 1 1 1 2 2 2 2 
2 2 2 2 2 2 2 2 2 
2 2 2 2 2 2 2 2 2 
2 2 2 2 2 2 2 2 2 
2 2 2 2 2 2 2 2 2 
2 2 2 2 2 2 2 2 2 
2 
type 1 100 int
1 1 1 1 1 1 1 1 1 
1 1 1 1 1 1 1 1 1 
1 1 1 1 1 1 1 1 1 
1 1 1 1 1 1 1 1 1 
1 1 1 1 1 1 1 1 1 
1 1 1 1 1 1 1 1 1 
1 1 1 1 1 1 1 1 1 
1 1 1 1 1 1 1 1 1 
1 1 1 1 1 1 1 1 1 
1 1 1 1 1 1 1 1 1 
1 1 1 1 1 1 1 1 1 
1 
v 3 100 double
-0.026181281968 -0.14230673373 -0.0282059849 -0.032579998419 -0.10069365818 -0.015490877768 -0.03635908817 -0.071165605108 -0.0012511401678 
-0.022734802276 -0.16807706643 -0.039617233443 -0.015676042909 -0.20455016496 -0.040822668454 -0.028076327031 -0.13420173005 -0.030175216122 
-0.035003715668 -0.088719629925 -0.015823876533 -0.020104653517 -0.2001011364 -0.065123045031 -0.041191942723 -0.040545974457 0.0072512435023 
-0.03337076428 -0.081585776428 0.0050630324703 -0.022961570387 -0.18067213543 -0.058291298133 -0.030341884701 -0.12712349322 -0.03607910121 
-0.031230959373 -0.071698539592 0.033165832357 -0.020334951871 -0.2060496293 -0.074786810752 -0.033440634835 -0.059810221344 0.0341830883 
-0.027226196886 -0.1551458585 -0.052818277312 -0.012101726938 -0.21466555297 -0.030078602689 -0.035184565551 -0.043308273147 0.044663107414 
-0.03818605266 -0.084198359313 -0.031485754868 -0.04137917658 -0.054364981626 -0.012815568253 -0.041521501557 -0.082063873095 -0.05144114264 
-0.020450075307 -0.20902412733 -0.079618859194 -0.026393997776 -0.18148742632 -0.082920790614 -0.0097175123305 -0.22541558708 -0.028352564156 
-0.022438164616 -0.17725736876 -0.0500629817 -0.024894939209 -0.10482957492 0.031550469878 -0.011234608989 -0.19631885432 0.00080158492587 
-0.0060279852077 -0.2325566162 -0.012776038004 -0.022584215382 -0.19293724921 -0.072377008279 -0.019429666533 -0.14966022154 0.0080652332246 
-0.024698518525 -0.17746282379 -0.065831709924 -0.017458247241 -0.22609065124 -0.08231486034 -0.046413569174 -0.049608954303 -0.040849874704 
-0.020291868863 -0.21392027905 -0.085189914092 -0.046566049815 -0.018739040212 6.5769546714e-05 -0.026298649568 -0.17790092718 -0.077392380634 
-0.028378789221 -0.15099446752 -0.055073751585 -0.016526793822 -0.21686276816 -0.06338873412 -0.034662370654 -0.10640726603 -0.037527022428 
-0.039217715146 -0.051099612508 0.0064347314674 -0.038197196514 -0.097515852285 -0.049664186811 -0.02504208359 -0.19239527508 -0.088483278888 
-0.011993530357 -0.19839875438 -0.0072261982068 -0.030185910839 -0.16463971245 -0.086004929817 -0.032203906739 -0.073692468747 0.023788257338 
-0.038322804418 -0.080551362467 -0.027465616648 -0.024457107969 -0.1581968163 -0.037989699781 -0.038712336905 -0.047709896003 0.014505461249 
-0.025795192009 -0.16850176324 -0.061166351884 -0.032919089046 -0.050386275094 0.050566755562 -0.035423010698 -0.12637277293 -0.058282146224 
-0.048080726811 -0.089589720697 -0.035311171402 -0.055967772997 -0.068441431601 -0.011321448169 -0.021475715423 -0.16914553467 -0.071344348756 
-0.012941692515 -0.19498478436 -0.08115268066 -0.031594959412 -0.13961941901 -0.05363465123 -0.045521929597 -0.09920777658 -0.028033385137 
-0.011232207044 -0.19548603094 -0.1086550662 -0.064569085024 -0.043604480015 0.0051527000088 -0.059580151249 -0.056758515498 -0.011241645012 
-0.013012699746 -0.19259680397 -0.092941921422 -0.031029658795 -0.14074032029 -0.057511375273 -0.062299300879 -0.054872101137 0.026554551394 
-0.0045935817778 -0.21536839838 -0.11747595877 -0.064305706645 -0.049238439224 0.031271443111 -0.020842962717 -0.16926460373 -0.081887226838 
-0.006211463787 -0.21961691606 -0.065646434867 -0.066119738217 -0.046850648307 0.050317194269 -0.059059757388 -0.049765364216 -0.058650415916 
-0.056604459533 -0.064931400827 -0.019233543439 -0.057134816485 -0.051829661029 -0.081425367338 -0.0012742123243 -0.22530971655 -0.12188667571 
-0.01966276616 -0.16409867723 -0.13098586483 -0.0082718935607 -0.21212320421 -0.070135172389 -0.025213206661 -0.15321430792 -0.092259500805 
-0.050718279553 -0.091273190397 0.020543584252 -0.018548797164 -0.18628462575 -0.029491757814 -0.0048609963077 -0.22681423228 -0.050217709438 
-0.0061016871685 -0.21185874196 -0.10997068131 -0.028624479691 -0.15743715262 -0.0088452871756 -0.011178172185 -0.19734614219 -0.099449294038 
-0.0030622419755 -0.21719560729 -0.13458333215 -0.064988313868 -0.030179908301 -0.060768576837 -0.0032675371066 -0.21681307882 -0.13304140176 
-0.070541477976 -0.023339576159 9.8230944176e-05 -0.022732977288 -0.15521940778 -0.12518084784 -0.020311216329 -0.17088693798 -0.08243108961 
-0.0026777035061 -0.22368682487 -0.10592476467 -0.036288175444 -0.12416286851 -0.055049990756 -0.069393594467 -0.026110115263 -0.0050724920828 
-0.043516777038 -0.097406362137 -0.073345356753 -0.011041130504 -0.19129669852 -0.13492119454 -0.013179283241 -0.20253879588 -0.035682737639 
-0.023652193168 -0.15114930017 -0.13115467891 -0.052364728663 -0.086377625438 0.022925039169 -0.04567022976 -0.096642039121 -0.039426393452 
-0.033359776354 -0.12982273963 -0.075933689436 -0.069699598012 -0.027231849244 0.0064686316701 -0.013217994878 -0.1922142755 -0.091399991032 
-0.066685110409 -0.045729466723 0.054193653127 
f 3 100 double
0 0 0 0 0 0 0 0 0 
0 0 0 0 0 0 0 0 0 
0 0 0 0 0 0 0 0 0 
0 0 0 0 0 0 0 0 0 
0 0 0 0 0 0 0 0 0 
0 0 0 0 0 0 0 0 0 
0 0 0 0 0 0 0 0 0 
0 0 0 0 0 0 0 0 0 
0 0 0 0 0 0 0 0 0 
0 0 0 0 0 0 0 0 0 
0 0 0 0 0 0 0 0 0 
0 0 0 0.075831295677 -0.0010449395263 0.15167698972 0 0 0 
0 0 0 0 0 0 0 0 0 
0 0 0 0 0 0 0 0 0 
0 0 0 0 0 0 0 0 0 
0 0 0 0 0 0 0 0 0 
0 0 0 0 0 0 0 0 0 
0 0 0 0 0 0 0 0 0 
0 0 0 0 0 0 0 0 0 
0 0 0 0 0 0 0 0 0 
0 0 0 0 0 0 0 0 0 
0 0 0 0 0 0 0 0 0 
0 0 0 0 0 0 0 0 0 
0 0 0 0 0 0 0 0 0 
0 0 0 0 0 0 0 0 0 
0 0 0 0 0 0 0 0 0 
0 0 0 0 0 0 0 0 0 
0 0 0 0 0 0 0 0 0 
0.083574124749 -0.00051176203045 0.16715138322 0 0 0 0 0 0 
0 0 0 0 0 0 0 0 0 
0 0 0 0 0 0 0 0 0 
0 0 0 0 0 0 0 0 0 
0 0 0 0 0 0 0 0 0 
0 0 0 
radius 1 100 double
0.010434 0.00981478 0.00892069 0.00845937 0.00731974 0.00728422 0.00643447 0.00619172 0.00585956 
0.00577566 0.00537241 0.00522549 0.00513666 0.00473175 0.00466912 0.00444866 0.00441894 0.00400812 
0.00385622 0.00379948 0.00370243 0.00366942 0.00364039 0.00363813 0.00363644 0.00358692 0.0035797 
0.00341284 0.00337012 0.00336273 0.00332772 0.00323261 0.00320584 0.00320311 0.00318808 0.00313116 
0.00306026 0.00305632 0.00304383 0.00300958 0.00300137 0.00298994 0.0029567 0.00295111 0.00290849 
0.00284552 0.00282964 0.0028207 0.00281971 0.00281899 0.010434 0.00981478 0.00892069 0.00845937 
0.00731974 0.00728422 0.00643447 0.00619172 0.00585956 0.00577566 0.00537241 0.00522549 0.00513666 
0.00473175 0.00466912 0.00444866 0.00441894 0.00400812 0.00385622 0.00379948 0.00370243 0.00366942 
0.00364039 0.00363813 0.00363644 0.00358692 0.0035797 0.00341284 0.00337012 0.00336273 0.00332772 
0.00323261 0.00320584 0.00320311 0.00318808 0.00313116 0.00306026 0.00305632 0.00304383 0.00300958 
0.00300137 0.00298994 0.0029567 0.00295111 0.00290849 0.00284552 0.00282964 0.0028207 0.00281971 
0.00281899 
omega 3 100 double
6.1636278611 1.2225940524 -0.89944910102 6.1636278611 1.2225940524 -0.89944910102 6.1636278611 1.2225940524 -0.89944910102 
6.1636278611 1.2225940524 -0.89944910102 6.1636278611 1.2225940524 -0.89944910102 6.1636278611 1.2225940524 -0.89944910102 
6.1636278611 1.2225940524 -0.89944910102 6.1636278611 1.2225940524 -0.89944910102 6.1636278611 1.2225940524 -0.89944910102 
6.1636278611 1.2225940524 -0.89944910102 6.1636278611 1.2225940524 -0.89944910102 6.1636278611 1.2225940524 -0.89944910102 
6.1636278611 1.2225940524 -0.89944910102 6.1636278611 1.2225940524 -0.89944910102 6.1636278611 1.2225940524 -0.89944910102 
6.1636278611 1.2225940524 -0.89944910102 6.1636278611 1.2225940524 -0.89944910102 6.1636278611 1.2225940524 -0.89944910102 
6.1636278611 1.2225940524 -0.89944910102 6.1636278611 1.2225940524 -0.89944910102 6.1636278611 1.2225940524 -0.89944910102 
6.1636278611 1.2225940524 -0.89944910102 6.1636278611 1.2225940524 -0.89944910102 6.1636278611 1.2225940524 -0.89944910102 
6.1636278611 1.2225940524 -0.89944910102 6.1636278611 1.2225940524 -0.89944910102 6.1636278611 1.2225940524 -0.89944910102 
6.1636278611 1.2225940524 -0.89944910102 6.1636278611 1.2225940524 -0.89944910102 6.1636278611 1.2225940524 -0.89944910102 
6.1636278611 1.2225940524 -0.89944910102 6.1636278611 1.2225940524 -0.89944910102 6.1636278611 1.2225940524 -0.89944910102 
6.1636278611 1.2225940524 -0.89944910102 6.1636278611 1.2225940524 -0.89944910102 6.1636278611 1.2225940524 -0.89944910102 
6.1636278611 1.2225940524 -0.89944910102 6.1636278611 1.2225940524 -0.89944910102 6.1636278611 1.2225940524 -0.89944910102 
6.1636278611 1.2225940524 -0.89944910102 6.1636278611 1.2225940524 -0.89944910102 6.1636278611 1.2225940524 -0.89944910102 
6.1636278611 1.2225940524 -0.89944910102 6.1636278611 1.2225940524 -0.89944910102 6.1636278611 1.2225940524 -0.89944910102 
6.1636278611 1.2225940524 -0.89944910102 6.1636278611 1.2225940524 -0.89944910102 6.1636278611 1.2225940524 -0.89944910102 
6.1636278611 1.2225940524 -0.89944910102 6.1636278611 1.2225940524 -0.89944910102 7.558339409 2.334133303 0.42726821095 
7.558339409 2.334133303 0.42726821095 7.558339409 2.334133303 0.42726821095 7.558339409 2.334133303 0.42726821095 
7.558339409 2.334133303 0.42726821095 7.558339409 2.334133303 0.42726821095 7.558339409 2.334133303 0.42726821095 
7.558339409 2.334133303 0.42726821095 7.558339409 2.334133303 0.42726821095 7.558339409 2.334133303 0.42726821095 
7.558339409 2.334133303 0.42726821095 7.558339409 2.334133303 0.42726821095 7.558339409 2.334133303 0.42726821095 
7.558339409 2.334133303 0.42726821095 7.558339409 2.334133303 0.42726821095 7.558339409 2.334133303 0.42726821095 
7.558339409 2.334133303 0.42726821095 7.558339409 2.334133303 0.42726821095 7.558339409 2.334133303 0.42726821095 
7.558339409 2.334133303 0.42726821095 7.558339409 2.334133303 0.42726821095 7.558339409 2.334133303 0.42726821095 
7.558339409 2.334133303 0.42726821095 7.558339409 2.334133303 0.42726821095 7.558339409 2.334133303 0.42726821095 
7.558339409 2.334133303 0.42726821095 7.558339409 2.334133303 0.42726821095 7.558339409 2.334133303 0.42726821095 
7.558339409 2.334133303 0.42726821095 7.558339409 2.334133303 0.42726821095 7.558339409 2.334133303 0.42726821095 
7.558339409 2.334133303 0.42726821095 7.558339409 2.334133303 0.42726821095 7.558339409 2.334133303 0.42726821095 
7.558339409 2.334133303 0.42726821095 7.558339409 2.334133303 0.42726821095 7.558339409 2.334133303 0.42726821095 
7.558339409 2.334133303 0.42726821095 7.558339409 2.334133303 0.42726821095 7.558339409 2.334133303 0.42726821095 
7.558339409 2.334133303 0.42726821095 7.558339409 2.334133303 0.42726821095 7.558339409 2.334133303 0.42726821095 
7.558339409 2.334133303 0.42726821095 7.558339409 2.334133303 0.42726821095 7.558339409 2.334133303 0.42726821095 
7.558339409 2.334133303 0.42726821095 7.558339409 2.334133303 0.42726821095 7.558339409 2.334133303 0.42726821095 
7.558339409 2.334133303 0.42726821095 
