# vtk DataFile Version 4.1
Generated by LIGGGHTS
ASCII
DATASET POLYDATA
POINTS 100 float
-0.115089 -0.132586 0.0223453 -0.125016 -0.133499 0.0191904 -0.134972 -0.13381 0.0180449 
-0.121896 -0.13478 0.0302105 -0.108619 -0.131619 0.0305472 -0.130288 -0.135721 0.0278164 
-0.140983 -0.136621 0.024281 -0.113765 -0.1365 0.0330353 -0.143743 -0.134867 0.0164104 
-0.118666 -0.129723 0.0123043 -0.127489 -0.138325 0.0355773 -0.137086 -0.138029 0.0298727 
-0.124184 -0.126477 0.01198 -0.122078 -0.13927 0.0381303 -0.130264 -0.127705 0.0126267 
-0.1332 -0.139192 0.0335647 -0.115563 -0.130777 0.0349419 -0.141735 -0.128477 0.0145198 
-0.113838 -0.134653 0.0120288 -0.147044 -0.138208 0.0210186 -0.117877 -0.138585 0.0142472 
-0.126234 -0.140656 0.0406778 -0.109802 -0.139229 0.0287993 -0.101889 -0.127858 0.0306099 
-0.104705 -0.133254 0.0245212 -0.120415 -0.125094 0.016001 -0.107767 -0.125086 0.0271362 
-0.104677 -0.125631 0.0324572 -0.13045 -0.140702 0.0395355 -0.127163 -0.128627 0.0275559 
-0.133519 -0.140647 0.038014 -0.107208 -0.137344 0.035209 -0.130086 -0.139947 0.0137507 
-0.117066 -0.139842 0.0376436 -0.148988 -0.137561 0.0153184 -0.106792 -0.137946 0.0266311 
-0.137745 -0.140448 0.0349721 -0.117989 -0.136433 0.0377019 -0.143516 -0.139977 0.0292697 
-0.12396 -0.131324 0.00942225 -0.13428 -0.140615 0.0241163 -0.118532 -0.141266 0.0347637 
-0.116847 -0.127842 0.0318509 -0.115464 -0.14119 0.0285767 -0.143151 -0.131127 0.0211386 
-0.146596 -0.139676 0.0258485 -0.104765 -0.131915 0.0208315 -0.127059 -0.130665 0.00991012 
-0.137346 -0.140822 0.0380119 -0.134937 -0.12617 0.0124635 -0.0461921 -0.104785 0.0211241 
-0.0560494 -0.105699 0.0177572 -0.0659788 -0.106022 0.0164025 -0.0531566 -0.107042 0.0288319 
-0.0398962 -0.103857 0.029465 -0.0614952 -0.107985 0.0262575 -0.0721119 -0.108884 0.0224944 
-0.0450827 -0.108764 0.031815 -0.0747115 -0.107086 0.0145788 -0.0495653 -0.101868 0.0110285 
-0.0588525 -0.110631 0.0340589 -0.0683298 -0.110319 0.0281573 -0.0550822 -0.0986302 0.0106093 
-0.0534939 -0.111582 0.0367183 -0.0611717 -0.0998743 0.0111215 -0.0645189 -0.111498 0.0319223 
-0.0469322 -0.103056 0.0337191 -0.0726775 -0.100681 0.0127701 -0.0447216 -0.106787 0.0108234 
-0.0781004 -0.110463 0.0190965 -0.0487978 -0.110739 0.0129327 -0.0576994 -0.112991 0.03917 
-0.0410267 -0.111458 0.0276458 -0.0331767 -0.100083 0.0296913 -0.0358544 -0.105446 0.0235119 
-0.0514006 -0.0972647 0.0147166 -0.0389867 -0.0973012 0.026113 -0.0360072 -0.0978736 0.0314937 
-0.0618903 -0.113039 0.0379398 -0.0583798 -0.100883 0.0261061 -0.0649277 -0.11298 0.0363549 
-0.0385707 -0.109608 0.0341198 -0.0609909 -0.112123 0.0121732 -0.0484716 -0.11214 0.0363327 
-0.0799265 -0.109784 0.0133611 -0.0379746 -0.110155 0.0255488 -0.0690897 -0.112771 0.0332268 
-0.0494035 -0.108734 0.0363928 -0.0747414 -0.112276 0.0274083 -0.0547945 -0.103461 0.00802689 
-0.0653984 -0.112864 0.0224448 -0.0498751 -0.11355 0.0334141 -0.0481572 -0.100105 0.0306201 
-0.046679 -0.113429 0.027293 -0.0742256 -0.103375 0.0193414 -0.0777499 -0.11196 0.0239255 
-0.0358397 -0.104085 0.0198301 -0.0579039 -0.102811 0.00845409 -0.0687534 -0.113164 0.0362719 
-0.0658429 -0.0983472 0.0108704 
VERTICES 100 200
1 0 
1 1 
1 2 
1 3 
1 4 
1 5 
1 6 
1 7 
1 8 
1 9 
1 10 
1 11 
1 12 
1 13 
1 14 
1 15 
1 16 
1 17 
1 18 
1 19 
1 20 
1 21 
1 22 
1 23 
1 24 
1 25 
1 26 
1 27 
1 28 
1 29 
1 30 
1 31 
1 32 
1 33 
1 34 
1 35 
1 36 
1 37 
1 38 
1 39 
1 40 
1 41 
1 42 
1 43 
1 44 
1 45 
1 46 
1 47 
1 48 
1 49 
1 50 
1 51 
1 52 
1 53 
1 54 
1 55 
1 56 
1 57 
1 58 
1 59 
1 60 
1 61 
1 62 
1 63 
1 64 
1 65 
1 66 
1 67 
1 68 
1 69 
1 70 
1 71 
1 72 
1 73 
1 74 
1 75 
1 76 
1 77 
1 78 
1 79 
1 80 
1 81 
1 82 
1 83 
1 84 
1 85 
1 86 
1 87 
1 88 
1 89 
1 90 
1 91 
1 92 
1 93 
1 94 
1 95 
1 96 
1 97 
1 98 
1 99 

POINT_DATA 100
FIELD FieldData 7
id 1 100 int
1 2 3 4 5 6 7 8 9 
10 11 12 13 14 15 16 17 18 
19 20 21 22 23 24 25 26 27 
28 29 30 31 32 33 34 35 36 
37 38 39 40 41 42 43 44 45 
46 47 48 49 50 51 52 53 54 
55 56 57 58 59 60 61 62 63 
64 65 66 67 68 69 70 71 72 
73 74 75 76 77 78 79 80 81 
82 83 84 85 86 87 88 89 90 
91 92 93 94 95 96 97 98 99 
100 
mol 1 100 int
1 1 1 1 1 1 1 1 1 
1 1 1 1 1 1 1 1 1 
1 1 1 1 1 1 1 1 1 
1 1 1 1 1 1 1 1 1 
1 1 1 1 1 1 1 1 1 
1 1 1 1 1 2 2 2 2 
2 2 2 2 2 2 2 2 2 
2 2 2 2 2 2 2 2 2 
2 2 2 2 2 2 2 2 2 
2 2 2 2 2 2 2 2 2 
2 2 2 2 2 2 2 2 2 
2 
type 1 100 int
1 1 1 1 1 1 1 1 1 
1 1 1 1 1 1 1 1 1 
1 1 1 1 1 1 1 1 1 
1 1 1 1 1 1 1 1 1 
1 1 1 1 1 1 1 1 1 
1 1 1 1 1 1 1 1 1 
1 1 1 1 1 1 1 1 1 
1 1 1 1 1 1 1 1 1 
1 1 1 1 1 1 1 1 1 
1 1 1 1 1 1 1 1 1 
1 1 1 1 1 1 1 1 1 
1 
v 3 100 double
-0.12506932495 -0.063499486486 -0.15614975081 -0.10236620552 -0.061961902525 -0.22803126964 -0.094132157578 -0.063939991904 -0.29906541105 
-0.17988147043 -0.079932385423 -0.20817007541 -0.18352781213 -0.075217984196 -0.10865040495 -0.16255450361 -0.079108715793 -0.2692327321 
-0.13716338411 -0.077214225493 -0.34652425028 -0.19919548378 -0.081611550067 -0.15359951343 -0.082136692064 -0.064591931245 -0.36301058603 
-0.055117631256 -0.047418592705 -0.17648657434 -0.21646549433 -0.091524129067 -0.2539503184 -0.17619227949 -0.085408897776 -0.32139064157 
-0.05411808613 -0.049056498893 -0.20989503906 -0.23416412943 -0.093815351637 -0.21728724156 -0.058206507643 -0.052611894095 -0.25508497982 
-0.20186871525 -0.090295075119 -0.29590178572 -0.2149806076 -0.085654239333 -0.15634990788 -0.071302178584 -0.060493270983 -0.33764807749 
-0.051198413694 -0.045010112861 -0.15089483598 -0.11343076916 -0.073945604299 -0.39220685432 -0.065336198115 -0.050491408251 -0.18634866172 
-0.25164844824 -0.09991720673 -0.24913031292 -0.16811366898 -0.072642663508 -0.13029932411 -0.18547333377 -0.072639984115 -0.0544410352 
-0.14020865592 -0.063147406932 -0.083792232213 -0.08314086988 -0.05456322358 -0.18079602373 -0.16198553522 -0.068929781978 -0.091224387705 
-0.19944190157 -0.076974401062 -0.07029736843 -0.24354205581 -0.099608667059 -0.27906042063 -0.16354299492 -0.077406414646 -0.23473068734 
-0.23279120517 -0.098181205316 -0.30069829877 -0.21424935993 -0.082783811319 -0.10864482445 -0.061276262141 -0.054500579198 -0.27516936707 
-0.23048965501 -0.090965235619 -0.18279559228 -0.073329505346 -0.064782004819 -0.40484252811 -0.15327412213 -0.067659772146 -0.10674785083 
-0.21133236614 -0.094564173119 -0.33027314529 -0.23226342189 -0.091435720106 -0.18339207842 -0.17114518956 -0.086924766066 -0.37031101746 
-0.034072648169 -0.04450682279 -0.21675981066 -0.1344024763 -0.074250440763 -0.30602742063 -0.20953015278 -0.086529129726 -0.1956659709 
-0.19426648154 -0.080776716454 -0.16032149774 -0.16575422629 -0.074515389233 -0.17381037429 -0.11710724515 -0.072600203334 -0.35229476821 
-0.14704189232 -0.082188811797 -0.39159363441 -0.1146185201 -0.056737085828 -0.081878061779 -0.037790140746 -0.046594819744 -0.23754968578 
-0.23270578941 -0.099705553367 -0.32810108624 -0.057664243475 -0.054193064428 -0.28549042771 -0.12401052554 -0.063108960881 -0.20444892302 
-0.10021380523 -0.061458381821 -0.27456662314 -0.090657223509 -0.06325841716 -0.34418125329 -0.17669076335 -0.079090718316 -0.25672838113 
-0.18241069422 -0.074687281848 -0.15907695281 -0.15839445261 -0.078159911194 -0.31633253348 -0.13184758882 -0.076149494348 -0.39170756631 
-0.19672896138 -0.080825801225 -0.2034957575 -0.0775326783 -0.063766771737 -0.40673280836 -0.05499431793 -0.047339603541 -0.2229513746 
-0.21156518894 -0.090330831215 -0.30244936501 -0.17064396602 -0.084213952999 -0.36784032207 -0.053416308292 -0.048906704147 -0.25582107994 
-0.22967031572 -0.092637649228 -0.26679301213 -0.056464430437 -0.05229378309 -0.30029291832 -0.19634524421 -0.089039888216 -0.34333536794 
-0.21233171919 -0.084827106387 -0.20665614984 -0.067598578228 -0.059851301164 -0.38169614228 -0.051534487284 -0.044989154847 -0.19762206562 
-0.10756094625 -0.072847582729 -0.43604529819 -0.064573233709 -0.05025971109 -0.2326951525 -0.2461410053 -0.098543529979 -0.29844086041 
-0.16661608182 -0.072061807183 -0.1798640825 -0.18554405036 -0.072295293054 -0.10592383153 -0.14034629326 -0.06289648963 -0.13366664698 
-0.082549335776 -0.054367951034 -0.22789146866 -0.16180430682 -0.068612858605 -0.14160657312 -0.19899447924 -0.076529254147 -0.121855087 
-0.2375641763 -0.09818388403 -0.32767261091 -0.16027634331 -0.076615131389 -0.28258835849 -0.22656477907 -0.096744698445 -0.34869988753 
-0.21241121228 -0.082053040072 -0.15963553107 -0.058718531855 -0.054007142444 -0.3198590377 -0.22675732563 -0.089906624817 -0.23280806323 
-0.067947756185 -0.063851588749 -0.44759316956 -0.1525682815 -0.067235508069 -0.15642009444 -0.20489286441 -0.093146531534 -0.37729391482 
-0.22858281672 -0.09039386349 -0.2334992175 -0.16462572212 -0.085590103836 -0.4157632063 -0.033457441853 -0.044397473857 -0.26203238463 
-0.12985856904 -0.073290977631 -0.35177539774 -0.20587399309 -0.08552478998 -0.244966997 -0.19199582534 -0.080064908352 -0.21016056012 
-0.16334762033 -0.073797746388 -0.22253028767 -0.11219296451 -0.071662634278 -0.39704374772 -0.14053123923 -0.080912397289 -0.4361527597 
-0.1152993633 -0.056631037045 -0.13124937517 -0.036697484695 -0.04640869462 -0.28255596301 -0.2259113023 -0.09818441596 -0.37562189717 
-0.055348901741 -0.053797234398 -0.33018860441 
f 3 100 double
0 0 0 0 0 0 0 0 0 
0 0 0 0 0 0 0 0 0 
0 0 0 0 0 0 0 0 0 
0 0 0 0 0 0 0 0 0 
0 0 0 0 0 0 0 0 0 
0 0 0 0 0 0 0 0 0 
0 0 0 0 0 0 0 0 0 
0 0 0 0 0 0 0 0 0 
0 0 0 0 0 0 0 0 0 
0 0 0 0 0 0 0 0 0 
0 0 0 0 0 0 0 0 0 
0 0 0 0 0 0 0 0 0 
0 0 0 0 0 0 0 0 0 
0 0 0 0 0 0 0 0 0 
0 0 0 0 0 0 0 0 0 
0 0 0 0 0 0 0 0 0 
0 0 0 0 0 0 0 0 0 
0 0 0 0 0 0 0 0 0 
0 0 0 0 0 0 0 0 0 
0 0 0 0 0 0 0 0 0 
0 0 0 0 0 0 0 0 0 
0 0 0 0 0 0 0 0 0 
0 0 0 0 0 0 0 0 0 
0 0 0 0 0 0 0 0 0 
0 0 0 0 0 0 0 0 0 
0 0 0 0 0 0 0 0 0 
0 0 0 0 0 0 0 0 0 
0 0 0 0 0 0 0 0 0 
0 0 0 0 0 0 0 0 0 
0 0 0 0 0 0 0 0 0 
0 0 0 0 0 0 0 0 0 
0 0 0 0 0 0 0 0 0 
0 0 0 0 0 0 0 0 0 
0 0 0 
radius 1 100 double
0.010434 0.00981478 0.00892069 0.00845937 0.00731974 0.00728422 0.00643447 0.00619172 0.00585956 
0.00577566 0.00537241 0.00522549 0.00513666 0.00473175 0.00466912 0.00444866 0.00441894 0.00400812 
0.00385622 0.00379948 0.00370243 0.00366942 0.00364039 0.00363813 0.00363644 0.00358692 0.0035797 
0.00341284 0.00337012 0.00336273 0.00332772 0.00323261 0.00320584 0.00320311 0.00318808 0.00313116 
0.00306026 0.00305632 0.00304383 0.00300958 0.00300137 0.00298994 0.0029567 0.00295111 0.00290849 
0.00284552 0.00282964 0.0028207 0.00281971 0.00281899 0.010434 0.00981478 0.00892069 0.00845937 
0.00731974 0.00728422 0.00643447 0.00619172 0.00585956 0.00577566 0.00537241 0.00522549 0.00513666 
0.00473175 0.00466912 0.00444866 0.00441894 0.00400812 0.00385622 0.00379948 0.00370243 0.00366942 
0.00364039 0.00363813 0.00363644 0.00358692 0.0035797 0.00341284 0.00337012 0.00336273 0.00332772 
0.00323261 0.00320584 0.00320311 0.00318808 0.00313116 0.00306026 0.00305632 0.00304383 0.00300958 
0.00300137 0.00298994 0.0029567 0.00295111 0.00290849 0.00284552 0.00282964 0.0028207 0.00281971 
0.00281899 
omega 3 100 double
1.7437689931 -7.0803962751 0.39930002088 1.7437689931 -7.0803962751 0.39930002088 1.7437689931 -7.0803962751 0.39930002088 
1.7437689931 -7.0803962751 0.39930002088 1.7437689931 -7.0803962751 0.39930002088 1.7437689931 -7.0803962751 0.39930002088 
1.7437689931 -7.0803962751 0.39930002088 1.7437689931 -7.0803962751 0.39930002088 1.7437689931 -7.0803962751 0.39930002088 
1.7437689931 -7.0803962751 0.39930002088 1.7437689931 -7.0803962751 0.39930002088 1.7437689931 -7.0803962751 0.39930002088 
1.7437689931 -7.0803962751 0.39930002088 1.7437689931 -7.0803962751 0.39930002088 1.7437689931 -7.0803962751 0.39930002088 
1.7437689931 -7.0803962751 0.39930002088 1.7437689931 -7.0803962751 0.39930002088 1.7437689931 -7.0803962751 0.39930002088 
1.7437689931 -7.0803962751 0.39930002088 1.7437689931 -7.0803962751 0.39930002088 1.7437689931 -7.0803962751 0.39930002088 
1.7437689931 -7.0803962751 0.39930002088 1.7437689931 -7.0803962751 0.39930002088 1.7437689931 -7.0803962751 0.39930002088 
1.7437689931 -7.0803962751 0.39930002088 1.7437689931 -7.0803962751 0.39930002088 1.7437689931 -7.0803962751 0.39930002088 
1.7437689931 -7.0803962751 0.39930002088 1.7437689931 -7.0803962751 0.39930002088 1.7437689931 -7.0803962751 0.39930002088 
1.7437689931 -7.0803962751 0.39930002088 1.7437689931 -7.0803962751 0.39930002088 1.7437689931 -7.0803962751 0.39930002088 
1.7437689931 -7.0803962751 0.39930002088 1.7437689931 -7.0803962751 0.39930002088 1.7437689931 -7.0803962751 0.39930002088 
1.7437689931 -7.0803962751 0.39930002088 1.7437689931 -7.0803962751 0.39930002088 1.7437689931 -7.0803962751 0.39930002088 
1.7437689931 -7.0803962751 0.39930002088 1.7437689931 -7.0803962751 0.39930002088 1.7437689931 -7.0803962751 0.39930002088 
1.7437689931 -7.0803962751 0.39930002088 1.7437689931 -7.0803962751 0.39930002088 1.7437689931 -7.0803962751 0.39930002088 
1.7437689931 -7.0803962751 0.39930002088 1.7437689931 -7.0803962751 0.39930002088 1.7437689931 -7.0803962751 0.39930002088 
1.7437689931 -7.0803962751 0.39930002088 1.7437689931 -7.0803962751 0.39930002088 1.7000756444 -6.9556961103 0.41323800148 
1.7000756444 -6.9556961103 0.41323800148 1.7000756444 -6.9556961103 0.41323800148 1.7000756444 -6.9556961103 0.41323800148 
1.7000756444 -6.9556961103 0.41323800148 1.7000756444 -6.9556961103 0.41323800148 1.7000756444 -6.9556961103 0.41323800148 
1.7000756444 -6.9556961103 0.41323800148 1.7000756444 -6.9556961103 0.41323800148 1.7000756444 -6.9556961103 0.41323800148 
1.7000756444 -6.9556961103 0.41323800148 1.7000756444 -6.9556961103 0.41323800148 1.7000756444 -6.9556961103 0.41323800148 
1.7000756444 -6.9556961103 0.41323800148 1.7000756444 -6.9556961103 0.41323800148 1.7000756444 -6.9556961103 0.41323800148 
1.7000756444 -6.9556961103 0.41323800148 1.7000756444 -6.9556961103 0.41323800148 1.7000756444 -6.9556961103 0.41323800148 
1.7000756444 -6.9556961103 0.41323800148 1.7000756444 -6.9556961103 0.41323800148 1.7000756444 -6.9556961103 0.41323800148 
1.7000756444 -6.9556961103 0.41323800148 1.7000756444 -6.9556961103 0.41323800148 1.7000756444 -6.9556961103 0.41323800148 
1.7000756444 -6.9556961103 0.41323800148 1.7000756444 -6.9556961103 0.41323800148 1.7000756444 -6.9556961103 0.41323800148 
1.7000756444 -6.9556961103 0.41323800148 1.7000756444 -6.9556961103 0.41323800148 1.7000756444 -6.9556961103 0.41323800148 
1.7000756444 -6.9556961103 0.41323800148 1.7000756444 -6.9556961103 0.41323800148 1.7000756444 -6.9556961103 0.41323800148 
1.7000756444 -6.9556961103 0.41323800148 1.7000756444 -6.9556961103 0.41323800148 1.7000756444 -6.9556961103 0.41323800148 
1.7000756444 -6.9556961103 0.41323800148 1.7000756444 -6.9556961103 0.41323800148 1.7000756444 -6.9556961103 0.41323800148 
1.7000756444 -6.9556961103 0.41323800148 1.7000756444 -6.9556961103 0.41323800148 1.7000756444 -6.9556961103 0.41323800148 
1.7000756444 -6.9556961103 0.41323800148 1.7000756444 -6.9556961103 0.41323800148 1.7000756444 -6.9556961103 0.41323800148 
1.7000756444 -6.9556961103 0.41323800148 1.7000756444 -6.9556961103 0.41323800148 1.7000756444 -6.9556961103 0.41323800148 
1.7000756444 -6.9556961103 0.41323800148 
