# vtk DataFile Version 4.1
Generated by LIGGGHTS
ASCII
DATASET POLYDATA
POINTS 100 float
-0.119955 -0.137539 0.0186572 -0.128863 -0.137328 0.0131862 -0.138273 -0.136944 0.00974551 
-0.128402 -0.141013 0.0240963 -0.115588 -0.138592 0.0281386 -0.135996 -0.141056 0.0196946 
-0.145562 -0.140719 0.013689 -0.121149 -0.143647 0.0282806 -0.146413 -0.137242 0.00595354 
-0.121097 -0.132492 0.00890857 -0.135077 -0.145341 0.0271543 -0.143075 -0.143433 0.0195949 
-0.126402 -0.129004 0.00802408 -0.130409 -0.14704 0.0306205 -0.132459 -0.130064 0.00698037 
-0.140155 -0.145513 0.0237464 -0.123372 -0.138371 0.0308964 -0.14405 -0.130696 0.00597918 
-0.116314 -0.137469 0.00870683 -0.150683 -0.141317 0.00886082 -0.12074 -0.14159 0.00904932 
-0.135039 -0.148736 0.0317905 -0.116292 -0.145611 0.0245872 -0.109079 -0.135234 0.0305443 
-0.110365 -0.139112 0.0229666 -0.123686 -0.128659 0.013003 -0.113994 -0.131538 0.0264852 
-0.112233 -0.133317 0.0321322 -0.138871 -0.148354 0.0297274 -0.132932 -0.134211 0.021675 
-0.141499 -0.147845 0.0275891 -0.115279 -0.145219 0.0316716 -0.132487 -0.142268 0.00548344 
-0.12542 -0.147722 0.0311879 -0.151243 -0.139411 0.00313849 -0.112864 -0.144041 0.0234926 
-0.144897 -0.146828 0.0237718 -0.126349 -0.144362 0.0317565 -0.149175 -0.144921 0.0171309 
-0.125562 -0.133218 0.0046149 -0.138986 -0.144888 0.0142224 -0.126165 -0.148449 0.0278128 
-0.123912 -0.134803 0.0282905 -0.121735 -0.147226 0.0226578 -0.146962 -0.134599 0.0113759 
-0.15137 -0.143777 0.0132383 -0.109566 -0.137033 0.0197337 -0.128692 -0.132536 0.00450678 
-0.145218 -0.147844 0.0266706 -0.136971 -0.12832 0.00607892 -0.0511398 -0.109658 0.0186408 
-0.0600832 -0.109461 0.0132266 -0.0695223 -0.109249 0.0098514 -0.059399 -0.113843 0.023864 
-0.0466738 -0.111155 0.0280155 -0.0670119 -0.113915 0.0194952 -0.0766206 -0.113583 0.0135583 
-0.0520158 -0.11644 0.0278378 -0.0776655 -0.109638 0.00607579 -0.0525547 -0.104025 0.0092558 
-0.065867 -0.118645 0.0266481 -0.0739849 -0.116578 0.0192607 -0.0580075 -0.100714 0.00862487 
-0.06111 -0.120371 0.0299769 -0.06402 -0.101959 0.00753317 -0.0709538 -0.118804 0.0232537 
-0.0544427 -0.111449 0.0308085 -0.0755802 -0.103014 0.00653145 -0.0475669 -0.10877 0.00870505 
-0.0817424 -0.114075 0.00871835 -0.0518135 -0.113089 0.00878605 -0.065657 -0.122337 0.0310465 
-0.0471028 -0.117945 0.0240047 -0.0402965 -0.107692 0.0306183 -0.0414657 -0.111107 0.0228025 
-0.0552769 -0.100587 0.0136064 -0.0453887 -0.103945 0.0268326 -0.0435184 -0.10602 0.0323418 
-0.0695136 -0.121981 0.0290267 -0.0642266 -0.107093 0.0219189 -0.0721746 -0.121442 0.0269363 
-0.0460634 -0.117984 0.0310959 -0.0635434 -0.114025 0.00522287 -0.0560926 -0.120878 0.0304804 
-0.0824172 -0.111817 0.00313836 -0.0437513 -0.116162 0.0230059 -0.0756359 -0.120318 0.0232072 
-0.0571586 -0.117606 0.0312758 -0.0800323 -0.118155 0.0167235 -0.0570111 -0.104651 0.00493843 
-0.0698722 -0.117496 0.0137889 -0.0568275 -0.121409 0.0270667 -0.0551481 -0.107741 0.0284491 
-0.052485 -0.119657 0.0219901 -0.0782917 -0.107388 0.0116647 -0.0822979 -0.116848 0.0129237 
-0.0407751 -0.108785 0.0197133 -0.0601677 -0.104097 0.00488687 -0.0758963 -0.121538 0.0260326 
-0.0686072 -0.100351 0.00676589 
VERTICES 100 200
1 0 
1 1 
1 2 
1 3 
1 4 
1 5 
1 6 
1 7 
1 8 
1 9 
1 10 
1 11 
1 12 
1 13 
1 14 
1 15 
1 16 
1 17 
1 18 
1 19 
1 20 
1 21 
1 22 
1 23 
1 24 
1 25 
1 26 
1 27 
1 28 
1 29 
1 30 
1 31 
1 32 
1 33 
1 34 
1 35 
1 36 
1 37 
1 38 
1 39 
1 40 
1 41 
1 42 
1 43 
1 44 
1 45 
1 46 
1 47 
1 48 
1 49 
1 50 
1 51 
1 52 
1 53 
1 54 
1 55 
1 56 
1 57 
1 58 
1 59 
1 60 
1 61 
1 62 
1 63 
1 64 
1 65 
1 66 
1 67 
1 68 
1 69 
1 70 
1 71 
1 72 
1 73 
1 74 
1 75 
1 76 
1 77 
1 78 
1 79 
1 80 
1 81 
1 82 
1 83 
1 84 
1 85 
1 86 
1 87 
1 88 
1 89 
1 90 
1 91 
1 92 
1 93 
1 94 
1 95 
1 96 
1 97 
1 98 
1 99 

POINT_DATA 100
FIELD FieldData 7
id 1 100 int
1 2 3 4 5 6 7 8 9 
10 11 12 13 14 15 16 17 18 
19 20 21 22 23 24 25 26 27 
28 29 30 31 32 33 34 35 36 
37 38 39 40 41 42 43 44 45 
46 47 48 49 50 51 52 53 54 
55 56 57 58 59 60 61 62 63 
64 65 66 67 68 69 70 71 72 
73 74 75 76 77 78 79 80 81 
82 83 84 85 86 87 88 89 90 
91 92 93 94 95 96 97 98 99 
100 
mol 1 100 int
1 1 1 1 1 1 1 1 1 
1 1 1 1 1 1 1 1 1 
1 1 1 1 1 1 1 1 1 
1 1 1 1 1 1 1 1 1 
1 1 1 1 1 1 1 1 1 
1 1 1 1 1 2 2 2 2 
2 2 2 2 2 2 2 2 2 
2 2 2 2 2 2 2 2 2 
2 2 2 2 2 2 2 2 2 
2 2 2 2 2 2 2 2 2 
2 2 2 2 2 2 2 2 2 
2 
type 1 100 int
1 1 1 1 1 1 1 1 1 
1 1 1 1 1 1 1 1 1 
1 1 1 1 1 1 1 1 1 
1 1 1 1 1 1 1 1 1 
1 1 1 1 1 1 1 1 1 
1 1 1 1 1 1 1 1 1 
1 1 1 1 1 1 1 1 1 
1 1 1 1 1 1 1 1 1 
1 1 1 1 1 1 1 1 1 
1 1 1 1 1 1 1 1 1 
1 1 1 1 1 1 1 1 1 
1 
v 3 100 double
-0.029733890275 -0.14194951136 -0.010824656874 -0.033950382798 -0.10047164185 -0.0023614716785 -0.036386252444 -0.071113012333 0.0075740067149 
-0.0283481105 -0.16831115593 -0.025508937724 -0.023017702592 -0.20431418821 -0.020842822403 -0.031923938065 -0.13457281746 -0.019675587246 
-0.03646083008 -0.089225033946 -0.0098978277403 -0.027249602452 -0.20041193953 -0.047625320372 -0.039690222556 -0.040675180504 0.012276142124 
-0.033231309891 -0.080704653938 0.021292347757 -0.029611005715 -0.18147572006 -0.046899780467 -0.034047223469 -0.12787067064 -0.028677166047 
-0.030943708481 -0.070676482109 0.047119108705 -0.028285132956 -0.20691575782 -0.061153104497 -0.032694381024 -0.059018340093 0.045431038829 
-0.032497792566 -0.15604430555 -0.043878936076 -0.020611080056 -0.21467098061 -0.01322104494 -0.034042548042 -0.042865040415 0.050840530037 
-0.037672149864 -0.083569880919 -0.013320516101 -0.040856330433 -0.05497584909 -0.0094810187156 -0.040939233973 -0.081881954951 -0.03523558717 
-0.028802882036 -0.21016791637 -0.067917113467 -0.031906265029 -0.18175636492 -0.063667234081 -0.018197388537 -0.22478142542 -0.0053180889124 
-0.027622141103 -0.17683272362 -0.02825659392 -0.026644923278 -0.10378988447 0.047068835824 -0.018282618417 -0.19546384994 0.021482276904 
-0.015272942035 -0.23188619382 0.0090681102178 -0.0301326305 -0.19412138449 -0.062475008489 -0.024447304491 -0.14944916229 0.02017827632 
-0.031413945117 -0.17864339114 -0.057216228362 -0.025875322542 -0.22642008334 -0.062061756823 -0.044388333695 -0.049740588261 -0.029984186462 
-0.028415699111 -0.21471274363 -0.069382527254 -0.04381762532 -0.019121411355 0.002750037983 -0.031436912403 -0.17793611954 -0.056720053734 
-0.033607858592 -0.15212487669 -0.048196496149 -0.025070317832 -0.21742914138 -0.047866094313 -0.037306607433 -0.10739522345 -0.032969691285 
-0.037306536951 -0.050324848726 0.020394174639 -0.039616484904 -0.098174574922 -0.04095812767 -0.031753435512 -0.19320804531 -0.073276083052 
-0.019638521718 -0.19809818672 0.0092688546583 -0.03484531899 -0.16515032236 -0.069274357025 -0.033059354077 -0.073722082934 0.029057886105 
-0.039452087061 -0.081445247541 -0.024133283923 -0.028434108492 -0.15753485972 -0.016051022747 -0.036807155454 -0.046965767259 0.027126081415 
-0.032151382285 -0.16976838035 -0.054220550897 -0.031919327347 -0.049566955614 0.059841860097 -0.039706981112 -0.1259066107 -0.041346406533 
-0.049671332391 -0.089329404839 -0.023556274891 -0.05592730311 -0.068427222404 -0.0047443605515 -0.028129571546 -0.16949883472 -0.057962938968 
-0.021885065483 -0.19466010593 -0.060814551401 -0.036056362817 -0.1401784868 -0.044635674711 -0.047039496383 -0.099972739428 -0.024614491334 
-0.019609615252 -0.19594250818 -0.091079234544 -0.06261702489 -0.043857431174 0.0071507105044 -0.059581740315 -0.055575110851 0.0038652206789 
-0.020693745264 -0.19375039513 -0.082519240299 -0.035174060812 -0.14183308732 -0.052081695986 -0.062359948856 -0.053481720689 0.038861448968 
-0.013777740501 -0.21660418837 -0.10425596972 -0.063737477328 -0.048176443869 0.040399429845 -0.026801923014 -0.17056242116 -0.074452705368 
-0.016649996663 -0.21961865492 -0.048883088708 -0.065044128517 -0.046280358774 0.053480886631 -0.058251904962 -0.048954007191 -0.041137097493 
-0.055618595063 -0.065861746681 -0.019002570173 -0.055980443416 -0.051655494987 -0.066081371236 -0.010861757684 -0.22693515981 -0.11084454986 
-0.025855627564 -0.16451670137 -0.11142035229 -0.018844461861 -0.21122255693 -0.046227529074 -0.031409688051 -0.15264590995 -0.069940543837 
-0.053343381722 -0.089840318541 0.03484673406 -0.027586825547 -0.18507539842 -0.0085897172073 -0.016525358304 -0.22585034229 -0.027706986252 
-0.014717941243 -0.21354580917 -0.10112123886 -0.034994063677 -0.15715178007 0.0019182599827 -0.018792673511 -0.19903338873 -0.092196670446 
-0.012912275608 -0.21767283776 -0.11361437467 -0.062013885318 -0.030457250817 -0.051791162217 -0.01261114975 -0.21794695075 -0.11723259336 
-0.066898777499 -0.023963140058 -0.00068367907845 -0.028552942755 -0.15530922327 -0.10403329002 -0.026142152335 -0.17251305373 -0.077377092749 
-0.012770698773 -0.22449069199 -0.090526648986 -0.039022377543 -0.12560518122 -0.052998927136 -0.067142174412 -0.025092053605 0.0072456556244 
-0.044694819681 -0.098399365948 -0.066527804449 -0.018571625415 -0.19247292255 -0.11991101274 -0.022773616671 -0.20210893095 -0.019535732531 
-0.02868528845 -0.15191682418 -0.11456858901 -0.053537504899 -0.086463488055 0.02531983213 -0.046590405075 -0.097961776415 -0.03897809203 
-0.038181626621 -0.1289263162 -0.053629459321 -0.06750870076 -0.026254206573 0.017193026571 -0.020392619405 -0.19402450812 -0.086137458987 
-0.065926478735 -0.044625482756 0.060926628906 
f 3 100 double
0 0 0 0 0 0 0 0 0 
0 0 0 0 0 0 0 0 0 
0 0 0 0 0 0 0 0 0 
0 0 0 0 0 0 0 0 0 
0 0 0 0 0 0 0 0 0 
0 0 0 0 0 0 0 0 0 
0 0 0 0 0 0 0 0 0 
0 0 0 0 0 0 0 0 0 
0 0 0 0 0 0 0 0 0 
0 0 0 0 0 0 0 0 0 
0 0 0 0 0 0 0 0 0 
0 0 0 0.068748025157 -0.0005739853902 0.1375008425 0 0 0 
0 0 0 0 0 0 0 0 0 
0 0 0 0 0 0 0 0 0 
0 0 0 0 0 0 0 0 0 
0 0 0 0 0 0 0 0 0 
0 0 0 0 0 0 0 0 0 
0 0 0 0 0 0 0 0 0 
0 0 0 0 0 0 0 0 0 
0 0 0 0 0 0 0 0 0 
0 0 0 0 0 0 0 0 0 
0 0 0 0 0 0 0 0 0 
0 0 0 0 0 0 0 0 0 
0 0 0 0 0 0 0 0 0 
0 0 0 0 0 0 0 0 0 
0 0 0 0 0 0 0 0 0 
0 0 0 0 0 0 0 0 0 
0 0 0 0 0 0 0 0 0 
0.086124956342 0.0001517326301 0.17225018 0 0 0 0 0 0 
0 0 0 0 0 0 0 0 0 
0 0 0 0 0 0 0 0 0 
0 0 0 0 0 0 0 0 0 
0 0 0 0 0 0 0 0 0 
0 0 0 
radius 1 100 double
0.010434 0.00981478 0.00892069 0.00845937 0.00731974 0.00728422 0.00643447 0.00619172 0.00585956 
0.00577566 0.00537241 0.00522549 0.00513666 0.00473175 0.00466912 0.00444866 0.00441894 0.00400812 
0.00385622 0.00379948 0.00370243 0.00366942 0.00364039 0.00363813 0.00363644 0.00358692 0.0035797 
0.00341284 0.00337012 0.00336273 0.00332772 0.00323261 0.00320584 0.00320311 0.00318808 0.00313116 
0.00306026 0.00305632 0.00304383 0.00300958 0.00300137 0.00298994 0.0029567 0.00295111 0.00290849 
0.00284552 0.00282964 0.0028207 0.00281971 0.00281899 0.010434 0.00981478 0.00892069 0.00845937 
0.00731974 0.00728422 0.00643447 0.00619172 0.00585956 0.00577566 0.00537241 0.00522549 0.00513666 
0.00473175 0.00466912 0.00444866 0.00441894 0.00400812 0.00385622 0.00379948 0.00370243 0.00366942 
0.00364039 0.00363813 0.00363644 0.00358692 0.0035797 0.00341284 0.00337012 0.00336273 0.00332772 
0.00323261 0.00320584 0.00320311 0.00318808 0.00313116 0.00306026 0.00305632 0.00304383 0.00300958 
0.00300137 0.00298994 0.0029567 0.00295111 0.00290849 0.00284552 0.00282964 0.0028207 0.00281971 
0.00281899 
omega 3 100 double
6.1816818692 0.80381168215 -0.85965041736 6.1816818692 0.80381168215 -0.85965041736 6.1816818692 0.80381168215 -0.85965041736 
6.1816818692 0.80381168215 -0.85965041736 6.1816818692 0.80381168215 -0.85965041736 6.1816818692 0.80381168215 -0.85965041736 
6.1816818692 0.80381168215 -0.85965041736 6.1816818692 0.80381168215 -0.85965041736 6.1816818692 0.80381168215 -0.85965041736 
6.1816818692 0.80381168215 -0.85965041736 6.1816818692 0.80381168215 -0.85965041736 6.1816818692 0.80381168215 -0.85965041736 
6.1816818692 0.80381168215 -0.85965041736 6.1816818692 0.80381168215 -0.85965041736 6.1816818692 0.80381168215 -0.85965041736 
6.1816818692 0.80381168215 -0.85965041736 6.1816818692 0.80381168215 -0.85965041736 6.1816818692 0.80381168215 -0.85965041736 
6.1816818692 0.80381168215 -0.85965041736 6.1816818692 0.80381168215 -0.85965041736 6.1816818692 0.80381168215 -0.85965041736 
6.1816818692 0.80381168215 -0.85965041736 6.1816818692 0.80381168215 -0.85965041736 6.1816818692 0.80381168215 -0.85965041736 
6.1816818692 0.80381168215 -0.85965041736 6.1816818692 0.80381168215 -0.85965041736 6.1816818692 0.80381168215 -0.85965041736 
6.1816818692 0.80381168215 -0.85965041736 6.1816818692 0.80381168215 -0.85965041736 6.1816818692 0.80381168215 -0.85965041736 
6.1816818692 0.80381168215 -0.85965041736 6.1816818692 0.80381168215 -0.85965041736 6.1816818692 0.80381168215 -0.85965041736 
6.1816818692 0.80381168215 -0.85965041736 6.1816818692 0.80381168215 -0.85965041736 6.1816818692 0.80381168215 -0.85965041736 
6.1816818692 0.80381168215 -0.85965041736 6.1816818692 0.80381168215 -0.85965041736 6.1816818692 0.80381168215 -0.85965041736 
6.1816818692 0.80381168215 -0.85965041736 6.1816818692 0.80381168215 -0.85965041736 6.1816818692 0.80381168215 -0.85965041736 
6.1816818692 0.80381168215 -0.85965041736 6.1816818692 0.80381168215 -0.85965041736 6.1816818692 0.80381168215 -0.85965041736 
6.1816818692 0.80381168215 -0.85965041736 6.1816818692 0.80381168215 -0.85965041736 6.1816818692 0.80381168215 -0.85965041736 
6.1816818692 0.80381168215 -0.85965041736 6.1816818692 0.80381168215 -0.85965041736 7.5681985281 1.822533912 0.4917889747 
7.5681985281 1.822533912 0.4917889747 7.5681985281 1.822533912 0.4917889747 7.5681985281 1.822533912 0.4917889747 
7.5681985281 1.822533912 0.4917889747 7.5681985281 1.822533912 0.4917889747 7.5681985281 1.822533912 0.4917889747 
7.5681985281 1.822533912 0.4917889747 7.5681985281 1.822533912 0.4917889747 7.5681985281 1.822533912 0.4917889747 
7.5681985281 1.822533912 0.4917889747 7.5681985281 1.822533912 0.4917889747 7.5681985281 1.822533912 0.4917889747 
7.5681985281 1.822533912 0.4917889747 7.5681985281 1.822533912 0.4917889747 7.5681985281 1.822533912 0.4917889747 
7.5681985281 1.822533912 0.4917889747 7.5681985281 1.822533912 0.4917889747 7.5681985281 1.822533912 0.4917889747 
7.5681985281 1.822533912 0.4917889747 7.5681985281 1.822533912 0.4917889747 7.5681985281 1.822533912 0.4917889747 
7.5681985281 1.822533912 0.4917889747 7.5681985281 1.822533912 0.4917889747 7.5681985281 1.822533912 0.4917889747 
7.5681985281 1.822533912 0.4917889747 7.5681985281 1.822533912 0.4917889747 7.5681985281 1.822533912 0.4917889747 
7.5681985281 1.822533912 0.4917889747 7.5681985281 1.822533912 0.4917889747 7.5681985281 1.822533912 0.4917889747 
7.5681985281 1.822533912 0.4917889747 7.5681985281 1.822533912 0.4917889747 7.5681985281 1.822533912 0.4917889747 
7.5681985281 1.822533912 0.4917889747 7.5681985281 1.822533912 0.4917889747 7.5681985281 1.822533912 0.4917889747 
7.5681985281 1.822533912 0.4917889747 7.5681985281 1.822533912 0.4917889747 7.5681985281 1.822533912 0.4917889747 
7.5681985281 1.822533912 0.4917889747 7.5681985281 1.822533912 0.4917889747 7.5681985281 1.822533912 0.4917889747 
7.5681985281 1.822533912 0.4917889747 7.5681985281 1.822533912 0.4917889747 7.5681985281 1.822533912 0.4917889747 
7.5681985281 1.822533912 0.4917889747 7.5681985281 1.822533912 0.4917889747 7.5681985281 1.822533912 0.4917889747 
7.5681985281 1.822533912 0.4917889747 
