# vtk DataFile Version 4.1
Generated by LIGGGHTS
ASCII
DATASET POLYDATA
POINTS 100 float
-0.117418 -0.133744 0.0179553 -0.126853 -0.134619 0.0135352 -0.136579 -0.134952 0.0111214 
-0.125149 -0.136214 0.024821 -0.112053 -0.132987 0.0269398 -0.133159 -0.137131 0.0213501 
-0.143307 -0.137986 0.0164555 -0.117427 -0.137972 0.0286079 -0.145061 -0.13601 0.00835181 
-0.119715 -0.1306 0.00762816 -0.131345 -0.139952 0.0293252 -0.140141 -0.139539 0.0224547 
-0.125178 -0.127377 0.00669815 -0.126294 -0.140943 0.0325184 -0.131279 -0.128659 0.0065283 
-0.136745 -0.140791 0.0265764 -0.119508 -0.132319 0.0304362 -0.142889 -0.129555 0.00692032 
-0.114844 -0.135492 0.00782648 -0.148889 -0.139508 0.012402 -0.119095 -0.139511 0.00939605 
-0.130727 -0.142428 0.0344737 -0.112931 -0.140548 0.0248337 -0.105422 -0.129192 0.0279699 
-0.107389 -0.134417 0.0214167 -0.121965 -0.126094 0.0112056 -0.110836 -0.12635 0.0238578 
-0.108444 -0.127038 0.029511 -0.134762 -0.142464 0.0328025 -0.130093 -0.130014 0.0216977 
-0.137614 -0.142381 0.0309043 -0.111192 -0.138843 0.0315741 -0.131128 -0.140928 0.00730749 
-0.121255 -0.14147 0.0326581 -0.150098 -0.1387 0.0065219 -0.109682 -0.139183 0.0231054 
-0.14142 -0.142115 0.0273556 -0.122211 -0.13807 0.0326978 -0.146422 -0.141505 0.0209803 
-0.124584 -0.132143 0.00404925 -0.1366 -0.141934 0.01703 -0.12233 -0.142815 0.0295743 
-0.120416 -0.1293 0.0272939 -0.1185 -0.142534 0.0238338 -0.14511 -0.132412 0.0132242 
-0.149045 -0.141119 0.0172046 -0.106991 -0.132968 0.0177903 -0.127725 -0.131517 0.00415719 
-0.141407 -0.142579 0.0304092 -0.135907 -0.127147 0.00581577 -0.0485041 -0.105958 0.0165625 
-0.0578343 -0.106798 0.011917 -0.0675022 -0.107133 0.00928037 -0.0563732 -0.108591 0.0232072 
-0.0433452 -0.105342 0.0256771 -0.064299 -0.109483 0.0195417 -0.0743315 -0.110296 0.0144063 
-0.048729 -0.110381 0.0271332 -0.0759139 -0.10818 0.00630282 -0.0505872 -0.102637 0.00624555 
-0.0626486 -0.11244 0.0275026 -0.0712914 -0.111944 0.0204455 -0.0560445 -0.0994233 0.00525246 
-0.057665 -0.113466 0.0307894 -0.0621333 -0.100731 0.00492272 -0.0679818 -0.113255 0.0246187 
-0.0508793 -0.104773 0.0290173 -0.0737446 -0.101689 0.00503834 -0.0456961 -0.107508 0.00646355 
-0.0798131 -0.11177 0.0102018 -0.0499599 -0.111576 0.00786395 -0.0621329 -0.115008 0.0326176 
-0.0441371 -0.112867 0.0234142 -0.0367584 -0.101534 0.0269244 -0.0385519 -0.106647 0.0202346 
-0.0529391 -0.0982082 0.00985333 -0.0420944 -0.0986429 0.0227447 -0.0398247 -0.0994233 0.0284366 
-0.0661299 -0.115033 0.030856 -0.0612792 -0.102358 0.0200876 -0.0689387 -0.114928 0.0288964 
-0.0425574 -0.111277 0.0302219 -0.0619358 -0.113012 0.00548106 -0.0526282 -0.113971 0.0310322 
-0.0808948 -0.11086 0.00431183 -0.0408573 -0.111454 0.0217842 -0.0726662 -0.114615 0.0252688 
-0.0536027 -0.110577 0.0311125 -0.0775284 -0.113912 0.0187952 -0.0553666 -0.104137 0.00253098 
-0.067618 -0.114221 0.0150586 -0.053627 -0.115265 0.0279011 -0.0517326 -0.101701 0.0259111 
-0.0496719 -0.114861 0.0222538 -0.076091 -0.104672 0.0112377 -0.0800678 -0.113469 0.0149695 
-0.0380808 -0.10513 0.016645 -0.0585131 -0.103528 0.00257998 -0.0727193 -0.115135 0.0283129 
-0.0667522 -0.099228 0.00413449 
VERTICES 100 200
1 0 
1 1 
1 2 
1 3 
1 4 
1 5 
1 6 
1 7 
1 8 
1 9 
1 10 
1 11 
1 12 
1 13 
1 14 
1 15 
1 16 
1 17 
1 18 
1 19 
1 20 
1 21 
1 22 
1 23 
1 24 
1 25 
1 26 
1 27 
1 28 
1 29 
1 30 
1 31 
1 32 
1 33 
1 34 
1 35 
1 36 
1 37 
1 38 
1 39 
1 40 
1 41 
1 42 
1 43 
1 44 
1 45 
1 46 
1 47 
1 48 
1 49 
1 50 
1 51 
1 52 
1 53 
1 54 
1 55 
1 56 
1 57 
1 58 
1 59 
1 60 
1 61 
1 62 
1 63 
1 64 
1 65 
1 66 
1 67 
1 68 
1 69 
1 70 
1 71 
1 72 
1 73 
1 74 
1 75 
1 76 
1 77 
1 78 
1 79 
1 80 
1 81 
1 82 
1 83 
1 84 
1 85 
1 86 
1 87 
1 88 
1 89 
1 90 
1 91 
1 92 
1 93 
1 94 
1 95 
1 96 
1 97 
1 98 
1 99 

POINT_DATA 100
FIELD FieldData 7
id 1 100 int
1 2 3 4 5 6 7 8 9 
10 11 12 13 14 15 16 17 18 
19 20 21 22 23 24 25 26 27 
28 29 30 31 32 33 34 35 36 
37 38 39 40 41 42 43 44 45 
46 47 48 49 50 51 52 53 54 
55 56 57 58 59 60 61 62 63 
64 65 66 67 68 69 70 71 72 
73 74 75 76 77 78 79 80 81 
82 83 84 85 86 87 88 89 90 
91 92 93 94 95 96 97 98 99 
100 
mol 1 100 int
1 1 1 1 1 1 1 1 1 
1 1 1 1 1 1 1 1 1 
1 1 1 1 1 1 1 1 1 
1 1 1 1 1 1 1 1 1 
1 1 1 1 1 1 1 1 1 
1 1 1 1 1 2 2 2 2 
2 2 2 2 2 2 2 2 2 
2 2 2 2 2 2 2 2 2 
2 2 2 2 2 2 2 2 2 
2 2 2 2 2 2 2 2 2 
2 2 2 2 2 2 2 2 2 
2 
type 1 100 int
1 1 1 1 1 1 1 1 1 
1 1 1 1 1 1 1 1 1 
1 1 1 1 1 1 1 1 1 
1 1 1 1 1 1 1 1 1 
1 1 1 1 1 1 1 1 1 
1 1 1 1 1 1 1 1 1 
1 1 1 1 1 1 1 1 1 
1 1 1 1 1 1 1 1 1 
1 1 1 1 1 1 1 1 1 
1 1 1 1 1 1 1 1 1 
1 1 1 1 1 1 1 1 1 
1 
v 3 100 double
-0.13367296438 -0.065175884718 -0.3318270959 -0.10184450854 -0.062459235051 -0.40031095792 -0.084527073419 -0.063013726748 -0.47000965436 
-0.18140531855 -0.079373485844 -0.39068228094 -0.19791347548 -0.076855167102 -0.2924869451 -0.15630937681 -0.077507869311 -0.44909099975 
-0.12111466461 -0.074365738621 -0.5226129982 -0.20755609488 -0.081862462184 -0.33851515995 -0.064356809946 -0.062456403462 -0.53198936654 
-0.061620878732 -0.050027085264 -0.34324618697 -0.21177597942 -0.089188718004 -0.44060544631 -0.16309217741 -0.082349456567 -0.50252350091 
-0.056442456942 -0.051005307245 -0.37705325256 -0.23404647388 -0.091938317738 -0.4062320187 -0.054662987114 -0.053458362875 -0.42245367498 
-0.19185065791 -0.087290769759 -0.48032975886 -0.22307980988 -0.085653117941 -0.34446241884 -0.057052098004 -0.059246832262 -0.50643571885 
-0.060851319877 -0.048166516664 -0.31625786037 -0.091605562976 -0.070505377621 -0.5646949279 -0.070223546353 -0.052519051364 -0.35278700587 
-0.2472917612 -0.096976217469 -0.44008965675 -0.17956366272 -0.073948328459 -0.3105746125 -0.20693150404 -0.075512868139 -0.23937811742 
-0.1579925316 -0.066127023396 -0.26155244496 -0.089073738228 -0.056631964413 -0.35218858087 -0.17895044146 -0.071486248555 -0.27343756842 
-0.21885265661 -0.079272937915 -0.25749588036 -0.23538856659 -0.09615750538 -0.46884924779 -0.16195366793 -0.076686056697 -0.41614307223 
-0.22192496103 -0.094455772949 -0.488999863 -0.22826580053 -0.083728994579 -0.29553333419 -0.05473680548 -0.054611238637 -0.44059277383 
-0.23480496579 -0.089911451242 -0.37122054489 -0.050142386787 -0.06183559839 -0.57202846345 -0.16787917927 -0.069793498734 -0.28532536219 
-0.19680274919 -0.090594658772 -0.5156551989 -0.23660240864 -0.090399755964 -0.37269746604 -0.15172933868 -0.082840148371 -0.55028087636 
-0.035477583489 -0.046592141554 -0.38029054423 -0.12344113897 -0.072275941097 -0.48108767414 -0.21227156225 -0.085561119147 -0.38097205618 
-0.20207494195 -0.081136670084 -0.34619198591 -0.17156664222 -0.074864443621 -0.35329447077 -0.10061609862 -0.070109039961 -0.52670880869 
-0.1250467159 -0.078096013853 -0.56832723643 -0.13284477524 -0.060270500236 -0.25645326335 -0.036524359223 -0.048161365966 -0.40165529593 
-0.21831514467 -0.095371174667 -0.51629265701 -0.050269104181 -0.054405216774 -0.45300344608 -0.14212114328 -0.10915707171 0.11572394351 
-0.098271940568 -0.090076447634 0.024207310017 -0.073621440849 -0.086600622046 -0.066620758828 -0.19839521812 -0.17213274838 0.024128748921 
-0.2264247077 -0.16870879862 0.16746986426 -0.16340990455 -0.15802535747 -0.054950631262 -0.1151286598 -0.13645823727 -0.15268697944 
-0.23124996235 -0.18866398916 0.08056136283 -0.044658713803 -0.078460100617 -0.15130479422 -0.053459059423 -0.035432241827 0.1215593066 
-0.23116090163 -0.21484159189 -0.06201413083 -0.16752672006 -0.1765522379 -0.13725440311 -0.049791567532 -0.037177421555 0.09575858568 
-0.25946320561 -0.23106357251 -0.02416234206 -0.04457945092 -0.044950329626 0.030344985979 -0.20344584015 -0.20222441926 -0.1168313043 
-0.25789549031 -0.20638499415 0.10289802024 -0.044024127718 -0.065345900643 -0.082901489535 -0.047257644668 -0.028837367402 0.12977899179 
-0.074239341106 -0.11420509725 -0.21379975238 -0.053208455675 -0.046491922854 0.060375252372 -0.27356997709 -0.25226329917 -0.076523174539 
-0.19309530827 -0.15310161767 0.10390593816 -0.24422379902 -0.1669670195 0.25614443557 -0.17450911119 -0.11990597244 0.20148496337 
-0.09386635977 -0.066394622537 0.13322413159 -0.2109034038 -0.14465438421 0.22904010035 -0.2615880323 -0.18344358492 0.24393388823 
-0.25743570891 -0.24579979254 -0.11322289982 -0.18038018574 -0.15703284168 0.025965847329 -0.2397096005 -0.23585489947 -0.13809851957 
-0.25795994052 -0.20140430689 0.13023659747 -0.029024156002 -0.048797795802 -0.059780302871 -0.26083074485 -0.22440907286 0.018066622464 
-0.021962148122 -0.071934103773 -0.21687045109 -0.18058089435 -0.13538356768 0.14444339108 -0.20709642388 -0.21496958737 -0.16980765606 
-0.26727285829 -0.22664923738 0.034570015857 -0.14914084007 -0.17468947168 -0.20896299636 -0.01700108329 -0.015665241592 0.066665070723 
-0.11448499778 -0.13004944738 -0.12074334453 -0.23005082193 -0.20265068321 -0.00074169556718 -0.23468509062 -0.18456774788 0.11809734044 
-0.17914085779 -0.15372501595 0.03841613466 -0.095641577386 -0.11569905287 -0.1266638118 -0.11493582323 -0.15032277314 -0.22884802732 
-0.14426897924 -0.092243264439 0.21714725726 -0.018473042451 -0.021324323386 0.042479661098 -0.23403170596 -0.23784635786 -0.17418410584 
-0.039906998336 -0.046818864166 -0.00059826705824 
f 3 100 double
0 0 0 0 0 0 0 0 0 
0 0 0 0 0 0 0 0 0 
0 0 0 0 0 0 0 0 0 
0 0 0 0 0 0 0 0 0 
0 0 0 0 0 0 0 0 0 
0 0 0 0 0 0 0 0 0 
0 0 0 0 0 0 0 0 0 
0 0 0 0 0 0 0 0 0 
0 0 0 0 0 0 0 0 0 
0 0 0 0 0 0 0 0 0 
0 0 0 0 0 0 0 0 0 
0 0 0 0 0 0 0 0 0 
0 0 0 0 0 0 0 0 0 
0 0 0 0 0 0 0 0 0 
0 0 0 0 0 0 0 0 0 
0 0 0 0 0 0 0 0 0 
0 0 0 0 0 0 0 0 0 
0 0 0 0 0 0 0 0 0 
0 0 0 0 0 0 0 0 0 
0 0 0 0 0 0 0 0 0 
0 0 0 0 0 0 0 0 0 
0 0 0 0 0 0 0 0 0 
0 0 0 0 0 0 0 0 0 
0 0 0 0 0 0 0 0 0 
0 0 0 0 0 0 0 0 0 
0 0 0 0 0 0 0 0 0 
0 0 0 0 0 0 0 0 0 
0 0 0 0 0 0 0 0 0 
0 0 0 0 0 0 0 0 0 
0 0 0 0 0 0 -0.22210533575 -0.69180224639 3.6633903949 
0 0 0 0 0 0 0 0 0 
0 0 0 0 0 0 0 0 0 
0 0 0 -0.15917836493 -0.39439584226 1.0595073686 0 0 0 
0 0 0 
radius 1 100 double
0.010434 0.00981478 0.00892069 0.00845937 0.00731974 0.00728422 0.00643447 0.00619172 0.00585956 
0.00577566 0.00537241 0.00522549 0.00513666 0.00473175 0.00466912 0.00444866 0.00441894 0.00400812 
0.00385622 0.00379948 0.00370243 0.00366942 0.00364039 0.00363813 0.00363644 0.00358692 0.0035797 
0.00341284 0.00337012 0.00336273 0.00332772 0.00323261 0.00320584 0.00320311 0.00318808 0.00313116 
0.00306026 0.00305632 0.00304383 0.00300958 0.00300137 0.00298994 0.0029567 0.00295111 0.00290849 
0.00284552 0.00282964 0.0028207 0.00281971 0.00281899 0.010434 0.00981478 0.00892069 0.00845937 
0.00731974 0.00728422 0.00643447 0.00619172 0.00585956 0.00577566 0.00537241 0.00522549 0.00513666 
0.00473175 0.00466912 0.00444866 0.00441894 0.00400812 0.00385622 0.00379948 0.00370243 0.00366942 
0.00364039 0.00363813 0.00363644 0.00358692 0.0035797 0.00341284 0.00337012 0.00336273 0.00332772 
0.00323261 0.00320584 0.00320311 0.00318808 0.00313116 0.00306026 0.00305632 0.00304383 0.00300958 
0.00300137 0.00298994 0.0029567 0.00295111 0.00290849 0.00284552 0.00282964 0.0028207 0.00281971 
0.00281899 
omega 3 100 double
1.5660485527 -7.1126242725 0.4456874647 1.5660485527 -7.1126242725 0.4456874647 1.5660485527 -7.1126242725 0.4456874647 
1.5660485527 -7.1126242725 0.4456874647 1.5660485527 -7.1126242725 0.4456874647 1.5660485527 -7.1126242725 0.4456874647 
1.5660485527 -7.1126242725 0.4456874647 1.5660485527 -7.1126242725 0.4456874647 1.5660485527 -7.1126242725 0.4456874647 
1.5660485527 -7.1126242725 0.4456874647 1.5660485527 -7.1126242725 0.4456874647 1.5660485527 -7.1126242725 0.4456874647 
1.5660485527 -7.1126242725 0.4456874647 1.5660485527 -7.1126242725 0.4456874647 1.5660485527 -7.1126242725 0.4456874647 
1.5660485527 -7.1126242725 0.4456874647 1.5660485527 -7.1126242725 0.4456874647 1.5660485527 -7.1126242725 0.4456874647 
1.5660485527 -7.1126242725 0.4456874647 1.5660485527 -7.1126242725 0.4456874647 1.5660485527 -7.1126242725 0.4456874647 
1.5660485527 -7.1126242725 0.4456874647 1.5660485527 -7.1126242725 0.4456874647 1.5660485527 -7.1126242725 0.4456874647 
1.5660485527 -7.1126242725 0.4456874647 1.5660485527 -7.1126242725 0.4456874647 1.5660485527 -7.1126242725 0.4456874647 
1.5660485527 -7.1126242725 0.4456874647 1.5660485527 -7.1126242725 0.4456874647 1.5660485527 -7.1126242725 0.4456874647 
1.5660485527 -7.1126242725 0.4456874647 1.5660485527 -7.1126242725 0.4456874647 1.5660485527 -7.1126242725 0.4456874647 
1.5660485527 -7.1126242725 0.4456874647 1.5660485527 -7.1126242725 0.4456874647 1.5660485527 -7.1126242725 0.4456874647 
1.5660485527 -7.1126242725 0.4456874647 1.5660485527 -7.1126242725 0.4456874647 1.5660485527 -7.1126242725 0.4456874647 
1.5660485527 -7.1126242725 0.4456874647 1.5660485527 -7.1126242725 0.4456874647 1.5660485527 -7.1126242725 0.4456874647 
1.5660485527 -7.1126242725 0.4456874647 1.5660485527 -7.1126242725 0.4456874647 1.5660485527 -7.1126242725 0.4456874647 
1.5660485527 -7.1126242725 0.4456874647 1.5660485527 -7.1126242725 0.4456874647 1.5660485527 -7.1126242725 0.4456874647 
1.5660485527 -7.1126242725 0.4456874647 1.5660485527 -7.1126242725 0.4456874647 7.4856351813 -9.1354163023 1.6819859338 
7.4856351813 -9.1354163023 1.6819859338 7.4856351813 -9.1354163023 1.6819859338 7.4856351813 -9.1354163023 1.6819859338 
7.4856351813 -9.1354163023 1.6819859338 7.4856351813 -9.1354163023 1.6819859338 7.4856351813 -9.1354163023 1.6819859338 
7.4856351813 -9.1354163023 1.6819859338 7.4856351813 -9.1354163023 1.6819859338 7.4856351813 -9.1354163023 1.6819859338 
7.4856351813 -9.1354163023 1.6819859338 7.4856351813 -9.1354163023 1.6819859338 7.4856351813 -9.1354163023 1.6819859338 
7.4856351813 -9.1354163023 1.6819859338 7.4856351813 -9.1354163023 1.6819859338 7.4856351813 -9.1354163023 1.6819859338 
7.4856351813 -9.1354163023 1.6819859338 7.4856351813 -9.1354163023 1.6819859338 7.4856351813 -9.1354163023 1.6819859338 
7.4856351813 -9.1354163023 1.6819859338 7.4856351813 -9.1354163023 1.6819859338 7.4856351813 -9.1354163023 1.6819859338 
7.4856351813 -9.1354163023 1.6819859338 7.4856351813 -9.1354163023 1.6819859338 7.4856351813 -9.1354163023 1.6819859338 
7.4856351813 -9.1354163023 1.6819859338 7.4856351813 -9.1354163023 1.6819859338 7.4856351813 -9.1354163023 1.6819859338 
7.4856351813 -9.1354163023 1.6819859338 7.4856351813 -9.1354163023 1.6819859338 7.4856351813 -9.1354163023 1.6819859338 
7.4856351813 -9.1354163023 1.6819859338 7.4856351813 -9.1354163023 1.6819859338 7.4856351813 -9.1354163023 1.6819859338 
7.4856351813 -9.1354163023 1.6819859338 7.4856351813 -9.1354163023 1.6819859338 7.4856351813 -9.1354163023 1.6819859338 
7.4856351813 -9.1354163023 1.6819859338 7.4856351813 -9.1354163023 1.6819859338 7.4856351813 -9.1354163023 1.6819859338 
7.4856351813 -9.1354163023 1.6819859338 7.4856351813 -9.1354163023 1.6819859338 7.4856351813 -9.1354163023 1.6819859338 
7.4856351813 -9.1354163023 1.6819859338 7.4856351813 -9.1354163023 1.6819859338 7.4856351813 -9.1354163023 1.6819859338 
7.4856351813 -9.1354163023 1.6819859338 7.4856351813 -9.1354163023 1.6819859338 7.4856351813 -9.1354163023 1.6819859338 
7.4856351813 -9.1354163023 1.6819859338 
