# vtk DataFile Version 4.1
Generated by LIGGGHTS
ASCII
DATASET POLYDATA
POINTS 100 float
-0.119247 -0.158167 0.0125091 -0.128971 -0.154332 0.0122584 -0.138835 -0.152542 0.0124529 
-0.126632 -0.165386 0.00999071 -0.1133 -0.16681 0.0125616 -0.134877 -0.162402 0.00958905 
-0.145341 -0.158141 0.00941378 -0.118773 -0.168568 0.00771832 -0.147512 -0.15028 0.0118924 
-0.122048 -0.148185 0.0162947 -0.132692 -0.170088 0.0062721 -0.141876 -0.163834 0.0074118 
-0.127411 -0.147779 0.0197832 -0.127499 -0.17289 0.00490559 -0.133561 -0.147941 0.0187621 
-0.138286 -0.167657 0.00580299 -0.120483 -0.170814 0.0133447 -0.145152 -0.149042 0.0183211 
-0.117395 -0.147816 0.011205 -0.151228 -0.154387 0.00834061 -0.121712 -0.149452 0.00728345 
-0.131861 -0.175052 0.00349921 -0.114642 -0.164382 0.00516712 -0.106456 -0.167599 0.0160225 
-0.10906 -0.160929 0.011242 -0.123867 -0.152127 0.0206896 -0.111987 -0.163998 0.0193001 
-0.109277 -0.169441 0.0182119 -0.135992 -0.173647 0.0037176 -0.131485 -0.162912 0.0165464 
-0.13895 -0.171945 0.00401939 -0.112409 -0.171073 0.00643523 -0.133903 -0.148081 0.00647268 
-0.12249 -0.172675 0.00416656 -0.152768 -0.148647 0.00951217 -0.111451 -0.162518 0.00649007 
-0.142957 -0.16867 0.00463094 -0.12329 -0.17295 0.00759553 -0.148318 -0.162673 0.00578657 
-0.127195 -0.144857 0.0151461 -0.138792 -0.158075 0.00517036 -0.123815 -0.169603 0.0030339 
-0.121453 -0.167895 0.0165627 -0.120345 -0.163647 0.00346645 -0.147096 -0.155323 0.0152224 
-0.151153 -0.159101 0.00648153 -0.108827 -0.157363 0.0128667 -0.130293 -0.145201 0.0158931 
-0.142773 -0.171689 0.00400343 -0.138153 -0.147609 0.0204983 -0.0478036 -0.12798 0.0122341 
-0.0579664 -0.125585 0.0127962 -0.0679406 -0.12524 0.0137606 -0.0542533 -0.136152 0.0100836 
-0.0406972 -0.135675 0.0116305 -0.0628463 -0.134383 0.0103649 -0.0737941 -0.131674 0.0110674 
-0.0462173 -0.138133 0.00715974 -0.0768687 -0.124246 0.013897 -0.0517038 -0.118563 0.0164669 
-0.0598458 -0.141624 0.00670278 -0.0697142 -0.136778 0.00867255 -0.0567873 -0.118985 0.0203494 
-0.0544256 -0.143628 0.00488765 -0.062911 -0.120018 0.0197794 -0.065749 -0.140019 0.00670792 
-0.0471543 -0.140684 0.0128379 -0.0742254 -0.122773 0.0201641 -0.0475533 -0.117452 0.0110597 
-0.0802212 -0.128794 0.0105253 -0.0518794 -0.119637 0.00742608 -0.0585296 -0.146376 0.00375159 
-0.042933 -0.133359 0.00441844 -0.0335666 -0.135518 0.0145577 -0.0374537 -0.129225 0.0101519 
-0.0526001 -0.122789 0.0208824 -0.0392886 -0.132801 0.0183232 -0.0359197 -0.137779 0.0169012 
-0.0627892 -0.145585 0.00430854 -0.0588944 -0.134499 0.0170388 -0.0659287 -0.144333 0.00487003 
-0.0396772 -0.139676 0.00534917 -0.0641674 -0.120028 0.00754881 -0.0495698 -0.142682 0.00378803 
-0.0824703 -0.123353 0.0119518 -0.039949 -0.131073 0.00554994 -0.070303 -0.141679 0.00585719 
-0.0500587 -0.143119 0.00725853 -0.0763617 -0.136536 0.00755531 -0.0573461 -0.115995 0.0157844 
-0.0676646 -0.130603 0.00635693 -0.0514023 -0.139817 0.00283396 -0.0482817 -0.137983 0.0161914 
-0.0487957 -0.13343 0.00316085 -0.0754843 -0.129223 0.0170588 -0.079616 -0.13342 0.00854701 
-0.0376091 -0.125687 0.0118449 -0.0602969 -0.116794 0.0167482 -0.0697385 -0.14463 0.00514165 
-0.0673576 -0.120377 0.0218564 
VERTICES 100 200
1 0 
1 1 
1 2 
1 3 
1 4 
1 5 
1 6 
1 7 
1 8 
1 9 
1 10 
1 11 
1 12 
1 13 
1 14 
1 15 
1 16 
1 17 
1 18 
1 19 
1 20 
1 21 
1 22 
1 23 
1 24 
1 25 
1 26 
1 27 
1 28 
1 29 
1 30 
1 31 
1 32 
1 33 
1 34 
1 35 
1 36 
1 37 
1 38 
1 39 
1 40 
1 41 
1 42 
1 43 
1 44 
1 45 
1 46 
1 47 
1 48 
1 49 
1 50 
1 51 
1 52 
1 53 
1 54 
1 55 
1 56 
1 57 
1 58 
1 59 
1 60 
1 61 
1 62 
1 63 
1 64 
1 65 
1 66 
1 67 
1 68 
1 69 
1 70 
1 71 
1 72 
1 73 
1 74 
1 75 
1 76 
1 77 
1 78 
1 79 
1 80 
1 81 
1 82 
1 83 
1 84 
1 85 
1 86 
1 87 
1 88 
1 89 
1 90 
1 91 
1 92 
1 93 
1 94 
1 95 
1 96 
1 97 
1 98 
1 99 

POINT_DATA 100
FIELD FieldData 7
id 1 100 int
1 2 3 4 5 6 7 8 9 
10 11 12 13 14 15 16 17 18 
19 20 21 22 23 24 25 26 27 
28 29 30 31 32 33 34 35 36 
37 38 39 40 41 42 43 44 45 
46 47 48 49 50 51 52 53 54 
55 56 57 58 59 60 61 62 63 
64 65 66 67 68 69 70 71 72 
73 74 75 76 77 78 79 80 81 
82 83 84 85 86 87 88 89 90 
91 92 93 94 95 96 97 98 99 
100 
mol 1 100 int
1 1 1 1 1 1 1 1 1 
1 1 1 1 1 1 1 1 1 
1 1 1 1 1 1 1 1 1 
1 1 1 1 1 1 1 1 1 
1 1 1 1 1 1 1 1 1 
1 1 1 1 1 2 2 2 2 
2 2 2 2 2 2 2 2 2 
2 2 2 2 2 2 2 2 2 
2 2 2 2 2 2 2 2 2 
2 2 2 2 2 2 2 2 2 
2 2 2 2 2 2 2 2 2 
2 
type 1 100 int
1 1 1 1 1 1 1 1 1 
1 1 1 1 1 1 1 1 1 
1 1 1 1 1 1 1 1 1 
1 1 1 1 1 1 1 1 1 
1 1 1 1 1 1 1 1 1 
1 1 1 1 1 1 1 1 1 
1 1 1 1 1 1 1 1 1 
1 1 1 1 1 1 1 1 1 
1 1 1 1 1 1 1 1 1 
1 1 1 1 1 1 1 1 1 
1 1 1 1 1 1 1 1 1 
1 
v 3 100 double
-0.12363805184 -0.066055348317 0.17905598279 -0.12173747387 -0.066004071416 0.10611699271 -0.12354981389 -0.067279534742 0.025918282891 
-0.10129765158 -0.059129449491 0.093686374195 -0.12347990586 -0.065788617287 0.20503099619 -0.098028255572 -0.058526571774 0.03105193605 
-0.096811535097 -0.058750911937 -0.047039928406 -0.081376200791 -0.051849097613 0.15239242478 -0.11885244497 -0.066237427574 -0.0425960593 
-0.15715819378 -0.077453313502 0.18430508283 -0.068733372693 -0.048558835262 0.027258100197 -0.079055503191 -0.05258240244 -0.033842911064 
-0.18742287748 -0.08815398944 0.13902723659 -0.056690268892 -0.044147586897 0.063976008178 -0.17856084705 -0.08556977625 0.085241890408 
-0.064839925989 -0.047568184125 -0.014038091088 -0.12998229297 -0.068614956805 0.13092599351 -0.17466031705 -0.085087991109 -0.018476835566 
-0.11306934581 -0.062065778782 0.22573112765 -0.087776467221 -0.055994060024 -0.086958520993 -0.078964100208 -0.050771221999 0.18347493667 
-0.044347264103 -0.040296810513 0.019768748378 -0.059561057185 -0.04400853847 0.20058162171 -0.15342029329 -0.075540995123 0.26201689149 
-0.11245942638 -0.061583660317 0.25917681208 -0.19497002769 -0.090583723408 0.15688027964 -0.18208406878 -0.085629840512 0.22472555744 
-0.17226627798 -0.082218313784 0.23211909545 -0.046339794109 -0.041236068886 -0.011874020048 -0.15829357491 -0.078867622471 0.058945037462 
-0.049076339407 -0.042338904036 -0.032483834578 -0.070077276828 -0.047601487175 0.20014267758 -0.072034120352 -0.049238188594 0.081862104214 
-0.050300199081 -0.041605720407 0.10803014353 -0.098338385125 -0.059569208589 -0.083319947183 -0.071159966819 -0.047695705891 0.23375652909 
-0.054609408801 -0.044432482556 -0.057518807964 -0.080000828875 -0.051806539597 0.10027491765 -0.065051417028 -0.04823183399 -0.086249906393 
-0.14743857016 -0.074420609583 0.14953895178 -0.06003688368 -0.045732586667 0.0099211270083 -0.040701043335 -0.038348996858 0.10563457377 
-0.15808182983 -0.078203885709 0.13115687555 -0.044872939347 -0.039382298244 0.15332692204 -0.147357405 -0.076059313427 -0.053912379351 
-0.071328501714 -0.050488989287 -0.10025192588 -0.12679446272 -0.066373514841 0.2717425368 -0.15388919837 -0.076850575381 0.121670295 
-0.048956294946 -0.042563068495 -0.064854433851 -0.19363266998 -0.09103202527 0.046417869077 -0.11836364587 -0.12846061958 0.16959370552 
-0.12523295922 -0.13860397107 0.088627239851 -0.1351898038 -0.15238318503 -0.009428447035 -0.092565749488 -0.11166433898 0.02839385385 
-0.10850020869 -0.11941669816 0.1704296204 -0.096280409499 -0.11844337712 -0.042441826537 -0.10472644818 -0.13026837673 -0.12847452902 
-0.061923169041 -0.080668272835 0.091610894024 -0.13705746415 -0.15798228435 -0.090845632963 -0.1659038718 -0.16957792887 0.21726820091 
-0.055589610246 -0.083050922314 -0.079083195538 -0.077937870083 -0.10609543681 -0.13435551606 -0.20511092925 -0.20802366912 0.16175544993 
-0.036190674259 -0.063599043747 -0.042634100957 -0.1988233936 -0.20571522822 0.090018083873 -0.056420888019 -0.085964724191 -0.12413776578 
-0.11832507897 -0.13374073341 0.058464358546 -0.20139065891 -0.21477337006 -0.050366260316 -0.11155371778 -0.11745646482 0.26969069859 
-0.10062231051 -0.12836575397 -0.16702523251 -0.073607465782 -0.085885509634 0.20553290195 -0.023324301812 -0.055064256939 -0.10975538362 
-0.036413750485 -0.053671086743 0.16919086312 -0.13829105 -0.14307985893 0.24426845403 -0.096622616815 -0.10414074923 0.26311966461 
-0.20867447723 -0.21092975564 0.1690089416 -0.17783448931 -0.18075151783 0.21135972337 -0.16098297588 -0.16593930847 0.1994243941 
-0.02936194702 -0.062293448001 -0.14566723291 -0.16397215064 -0.17836917272 -0.0034014339151 -0.035669857539 -0.069020885691 -0.16593059058 
-0.042794780048 -0.060714926872 0.14370787732 -0.074663365004 -0.092989024133 0.077169485383 -0.025487960177 -0.051051683549 0.015431471886 
-0.11774434699 -0.14267648483 -0.13944223953 -0.049009673529 -0.062707430586 0.22066424553 -0.046979196372 -0.080292393696 -0.18574371408 
-0.06050516451 -0.083448854686 0.0064129171863 -0.066714307708 -0.098969977107 -0.19958825958 -0.16022227775 -0.1659930083 0.18378336494 
-0.057429879842 -0.083642321033 -0.056325312807 -0.017193921251 -0.043100417878 0.023375588633 -0.15367843817 -0.16536365089 0.072049094488 
-0.023613354096 -0.044863906342 0.10902379963 -0.16673670395 -0.18660932435 -0.1229184156 -0.078293911852 -0.10973973174 -0.20375289146 
-0.11552587592 -0.11990397587 0.29433032687 -0.16961909495 -0.17635748738 0.1464323887 -0.038282790375 -0.073387678992 -0.20735960098 
-0.2197327656 -0.22712092107 0.041547309465 
f 3 100 double
0 0 0 0 0 0 0 0 0 
0 0 0 0 0 0 0 0 0 
0 0 0 0 0 0 0 0 0 
0 0 0 0 0 0 0 0 0 
0 0 0 0 0 0 0 0 0 
0 0 0 0 0 0 0 0 0 
0 0 0 0 0 0 0 0 0 
0.071592115651 0.4198923693 0.85190382747 0 0 0 0 0 0 
0 0 0 0 0 0 0 0 0 
0 0 0 0 0 0 0 0 0 
0 0 0 0 0 0 0 0 0 
0 0 0 0 0 0 0 0 0 
0 0 0 0 0 0 0 0 0 
0 0 0 0 0 0 0 0 0 
0 0 0 0 0 0 0 0 0 
0 0 0 0 0 0 0 0 0 
0 0 0 0 0 0 0 0 0 
0 0 0 0 0 0 0 0 0 
0 0 0 0 0 0 0 0 0 
0 0 0 0 0 0 0 0 0 
0 0 0 0 0 0 0 0 0 
0 0 0 0 0 0 0 0 0 
0 0 0 0 0 0 0 0 0 
0 0 0 0 0 0 0 0 0 
0 0 0 0 0 0 0 0 0 
0 0 0 0 0 0 0 0 0 
0 0 0 0 0 0 0 0 0 
0 0 0 0 0 0 0 0 0 
0 0 0 0 0 0 0 0 0 
0 0 0 0 0 0 0 0 0 
0 0 0 -0.10544225729 0.27438681318 0.58789860646 0 0 0 
0 0 0 0 0 0 0 0 0 
0 0 0 0 0 0 0 0 0 
0 0 0 
radius 1 100 double
0.010434 0.00981478 0.00892069 0.00845937 0.00731974 0.00728422 0.00643447 0.00619172 0.00585956 
0.00577566 0.00537241 0.00522549 0.00513666 0.00473175 0.00466912 0.00444866 0.00441894 0.00400812 
0.00385622 0.00379948 0.00370243 0.00366942 0.00364039 0.00363813 0.00363644 0.00358692 0.0035797 
0.00341284 0.00337012 0.00336273 0.00332772 0.00323261 0.00320584 0.00320311 0.00318808 0.00313116 
0.00306026 0.00305632 0.00304383 0.00300958 0.00300137 0.00298994 0.0029567 0.00295111 0.00290849 
0.00284552 0.00282964 0.0028207 0.00281971 0.00281899 0.010434 0.00981478 0.00892069 0.00845937 
0.00731974 0.00728422 0.00643447 0.00619172 0.00585956 0.00577566 0.00537241 0.00522549 0.00513666 
0.00473175 0.00466912 0.00444866 0.00441894 0.00400812 0.00385622 0.00379948 0.00370243 0.00366942 
0.00364039 0.00363813 0.00363644 0.00358692 0.0035797 0.00341284 0.00337012 0.00336273 0.00332772 
0.00323261 0.00320584 0.00320311 0.00318808 0.00313116 0.00306026 0.00305632 0.00304383 0.00300958 
0.00300137 0.00298994 0.0029567 0.00295111 0.00290849 0.00284552 0.00282964 0.0028207 0.00281971 
0.00281899 
omega 3 100 double
2.9583135514 -8.6673757587 0.070991788893 2.9583135514 -8.6673757587 0.070991788893 2.9583135514 -8.6673757587 0.070991788893 
2.9583135514 -8.6673757587 0.070991788893 2.9583135514 -8.6673757587 0.070991788893 2.9583135514 -8.6673757587 0.070991788893 
2.9583135514 -8.6673757587 0.070991788893 2.9583135514 -8.6673757587 0.070991788893 2.9583135514 -8.6673757587 0.070991788893 
2.9583135514 -8.6673757587 0.070991788893 2.9583135514 -8.6673757587 0.070991788893 2.9583135514 -8.6673757587 0.070991788893 
2.9583135514 -8.6673757587 0.070991788893 2.9583135514 -8.6673757587 0.070991788893 2.9583135514 -8.6673757587 0.070991788893 
2.9583135514 -8.6673757587 0.070991788893 2.9583135514 -8.6673757587 0.070991788893 2.9583135514 -8.6673757587 0.070991788893 
2.9583135514 -8.6673757587 0.070991788893 2.9583135514 -8.6673757587 0.070991788893 2.9583135514 -8.6673757587 0.070991788893 
2.9583135514 -8.6673757587 0.070991788893 2.9583135514 -8.6673757587 0.070991788893 2.9583135514 -8.6673757587 0.070991788893 
2.9583135514 -8.6673757587 0.070991788893 2.9583135514 -8.6673757587 0.070991788893 2.9583135514 -8.6673757587 0.070991788893 
2.9583135514 -8.6673757587 0.070991788893 2.9583135514 -8.6673757587 0.070991788893 2.9583135514 -8.6673757587 0.070991788893 
2.9583135514 -8.6673757587 0.070991788893 2.9583135514 -8.6673757587 0.070991788893 2.9583135514 -8.6673757587 0.070991788893 
2.9583135514 -8.6673757587 0.070991788893 2.9583135514 -8.6673757587 0.070991788893 2.9583135514 -8.6673757587 0.070991788893 
2.9583135514 -8.6673757587 0.070991788893 2.9583135514 -8.6673757587 0.070991788893 2.9583135514 -8.6673757587 0.070991788893 
2.9583135514 -8.6673757587 0.070991788893 2.9583135514 -8.6673757587 0.070991788893 2.9583135514 -8.6673757587 0.070991788893 
2.9583135514 -8.6673757587 0.070991788893 2.9583135514 -8.6673757587 0.070991788893 2.9583135514 -8.6673757587 0.070991788893 
2.9583135514 -8.6673757587 0.070991788893 2.9583135514 -8.6673757587 0.070991788893 2.9583135514 -8.6673757587 0.070991788893 
2.9583135514 -8.6673757587 0.070991788893 2.9583135514 -8.6673757587 0.070991788893 9.2666269884 -10.151200182 0.48553221085 
9.2666269884 -10.151200182 0.48553221085 9.2666269884 -10.151200182 0.48553221085 9.2666269884 -10.151200182 0.48553221085 
9.2666269884 -10.151200182 0.48553221085 9.2666269884 -10.151200182 0.48553221085 9.2666269884 -10.151200182 0.48553221085 
9.2666269884 -10.151200182 0.48553221085 9.2666269884 -10.151200182 0.48553221085 9.2666269884 -10.151200182 0.48553221085 
9.2666269884 -10.151200182 0.48553221085 9.2666269884 -10.151200182 0.48553221085 9.2666269884 -10.151200182 0.48553221085 
9.2666269884 -10.151200182 0.48553221085 9.2666269884 -10.151200182 0.48553221085 9.2666269884 -10.151200182 0.48553221085 
9.2666269884 -10.151200182 0.48553221085 9.2666269884 -10.151200182 0.48553221085 9.2666269884 -10.151200182 0.48553221085 
9.2666269884 -10.151200182 0.48553221085 9.2666269884 -10.151200182 0.48553221085 9.2666269884 -10.151200182 0.48553221085 
9.2666269884 -10.151200182 0.48553221085 9.2666269884 -10.151200182 0.48553221085 9.2666269884 -10.151200182 0.48553221085 
9.2666269884 -10.151200182 0.48553221085 9.2666269884 -10.151200182 0.48553221085 9.2666269884 -10.151200182 0.48553221085 
9.2666269884 -10.151200182 0.48553221085 9.2666269884 -10.151200182 0.48553221085 9.2666269884 -10.151200182 0.48553221085 
9.2666269884 -10.151200182 0.48553221085 9.2666269884 -10.151200182 0.48553221085 9.2666269884 -10.151200182 0.48553221085 
9.2666269884 -10.151200182 0.48553221085 9.2666269884 -10.151200182 0.48553221085 9.2666269884 -10.151200182 0.48553221085 
9.2666269884 -10.151200182 0.48553221085 9.2666269884 -10.151200182 0.48553221085 9.2666269884 -10.151200182 0.48553221085 
9.2666269884 -10.151200182 0.48553221085 9.2666269884 -10.151200182 0.48553221085 9.2666269884 -10.151200182 0.48553221085 
9.2666269884 -10.151200182 0.48553221085 9.2666269884 -10.151200182 0.48553221085 9.2666269884 -10.151200182 0.48553221085 
9.2666269884 -10.151200182 0.48553221085 9.2666269884 -10.151200182 0.48553221085 9.2666269884 -10.151200182 0.48553221085 
9.2666269884 -10.151200182 0.48553221085 
