# vtk DataFile Version 4.1
Generated by LIGGGHTS
ASCII
DATASET POLYDATA
POINTS 100 float
-0.119056 -0.13529 0.017888 -0.128081 -0.135756 0.0126275 -0.137566 -0.135845 0.0093792 
-0.127335 -0.138285 0.0238466 -0.114474 -0.135302 0.0273263 -0.135019 -0.138876 0.0196458 
-0.144714 -0.139279 0.0138553 -0.119958 -0.140383 0.0281156 -0.145779 -0.136633 0.00582332 
-0.120478 -0.131295 0.00769862 -0.133881 -0.142354 0.0274854 -0.142064 -0.141336 0.0199522 
-0.12585 -0.127982 0.00657876 -0.129116 -0.143627 0.0310021 -0.131911 -0.129218 0.0057874 
-0.139026 -0.142939 0.0242291 -0.1222 -0.134892 0.0302219 -0.143511 -0.130091 0.00511923 
-0.115628 -0.136208 0.00790395 -0.149928 -0.140436 0.00923178 -0.119986 -0.140324 0.00877026 
-0.133695 -0.14525 0.0324454 -0.115152 -0.14266 0.0245358 -0.107964 -0.131635 0.0292245 
-0.109355 -0.136292 0.0221189 -0.123034 -0.12709 0.0114327 -0.113018 -0.128439 0.0249175 
-0.111111 -0.129602 0.0306768 -0.137574 -0.14513 0.0304411 -0.132013 -0.131826 0.0208387 
-0.140255 -0.144877 0.0283217 -0.113994 -0.141524 0.0315171 -0.131795 -0.141511 0.00556004 
-0.124106 -0.144187 0.031524 -0.150636 -0.13914 0.00335732 -0.111771 -0.14117 0.0232077 
-0.143747 -0.144302 0.0244975 -0.125071 -0.140798 0.0317634 -0.148193 -0.143145 0.0177936 
-0.125021 -0.132516 0.00360495 -0.138069 -0.14329 0.0146676 -0.124912 -0.145268 0.0282597 
-0.122846 -0.13162 0.0272742 -0.120611 -0.144532 0.0229071 -0.146251 -0.133449 0.0109546 
-0.150486 -0.142437 0.0138543 -0.108655 -0.13455 0.0186714 -0.128162 -0.131887 0.00349776 
-0.143992 -0.145016 0.0274923 -0.136466 -0.127631 0.00481285 -0.0501976 -0.107668 0.018253 
-0.0591552 -0.108048 0.0128721 -0.0686019 -0.108156 0.00951361 -0.0584822 -0.11109 0.0239678 
-0.045718 -0.108042 0.0277327 -0.0661089 -0.111622 0.0196551 -0.075732 -0.111926 0.0137401 
-0.0511133 -0.113253 0.0282185 -0.0767602 -0.108924 0.00582968 -0.0515847 -0.103221 0.00824701 
-0.0649895 -0.115445 0.0273351 -0.0731089 -0.114221 0.0197638 -0.0570059 -0.0999574 0.00722205 
-0.0602399 -0.116796 0.030843 -0.063034 -0.101265 0.00630324 -0.0700881 -0.115969 0.0239955 
-0.0534809 -0.107909 0.0305547 -0.0746071 -0.102316 0.00546039 -0.0466465 -0.108049 0.00827721 
-0.0808733 -0.112959 0.00900718 -0.0509359 -0.112281 0.00889839 -0.0648031 -0.118568 0.0321553 
-0.0462275 -0.11527 0.0245916 -0.0392983 -0.10435 0.0298766 -0.0405258 -0.108691 0.0225442 
-0.0542588 -0.0992446 0.0121449 -0.0443643 -0.101047 0.0256665 -0.042498 -0.102446 0.0313864 
-0.0686622 -0.118424 0.030114 -0.0632478 -0.104582 0.0212131 -0.071324 -0.11812 0.0279779 
-0.0451667 -0.114445 0.0316315 -0.0626855 -0.113529 0.00549931 -0.0552264 -0.117288 0.031396 
-0.0815425 -0.1114 0.00319236 -0.0428614 -0.113659 0.0233742 -0.0747853 -0.117428 0.0241447 
-0.056257 -0.113932 0.0317833 -0.0791796 -0.116037 0.0174517 -0.0560604 -0.10433 0.00404808 
-0.0690225 -0.115851 0.0144398 -0.055977 -0.118229 0.0280753 -0.0541563 -0.104514 0.0277569 
-0.0516327 -0.117162 0.0228135 -0.0773466 -0.105995 0.0110992 -0.0814437 -0.115186 0.0135237 
-0.0398214 -0.106776 0.0191908 -0.0592114 -0.103754 0.00393422 -0.0750492 -0.118288 0.0270997 
-0.0676071 -0.0997171 0.00535168 
VERTICES 100 200
1 0 
1 1 
1 2 
1 3 
1 4 
1 5 
1 6 
1 7 
1 8 
1 9 
1 10 
1 11 
1 12 
1 13 
1 14 
1 15 
1 16 
1 17 
1 18 
1 19 
1 20 
1 21 
1 22 
1 23 
1 24 
1 25 
1 26 
1 27 
1 28 
1 29 
1 30 
1 31 
1 32 
1 33 
1 34 
1 35 
1 36 
1 37 
1 38 
1 39 
1 40 
1 41 
1 42 
1 43 
1 44 
1 45 
1 46 
1 47 
1 48 
1 49 
1 50 
1 51 
1 52 
1 53 
1 54 
1 55 
1 56 
1 57 
1 58 
1 59 
1 60 
1 61 
1 62 
1 63 
1 64 
1 65 
1 66 
1 67 
1 68 
1 69 
1 70 
1 71 
1 72 
1 73 
1 74 
1 75 
1 76 
1 77 
1 78 
1 79 
1 80 
1 81 
1 82 
1 83 
1 84 
1 85 
1 86 
1 87 
1 88 
1 89 
1 90 
1 91 
1 92 
1 93 
1 94 
1 95 
1 96 
1 97 
1 98 
1 99 

POINT_DATA 100
FIELD FieldData 7
id 1 100 int
1 2 3 4 5 6 7 8 9 
10 11 12 13 14 15 16 17 18 
19 20 21 22 23 24 25 26 27 
28 29 30 31 32 33 34 35 36 
37 38 39 40 41 42 43 44 45 
46 47 48 49 50 51 52 53 54 
55 56 57 58 59 60 61 62 63 
64 65 66 67 68 69 70 71 72 
73 74 75 76 77 78 79 80 81 
82 83 84 85 86 87 88 89 90 
91 92 93 94 95 96 97 98 99 
100 
mol 1 100 int
1 1 1 1 1 1 1 1 1 
1 1 1 1 1 1 1 1 1 
1 1 1 1 1 1 1 1 1 
1 1 1 1 1 1 1 1 1 
1 1 1 1 1 1 1 1 1 
1 1 1 1 1 2 2 2 2 
2 2 2 2 2 2 2 2 2 
2 2 2 2 2 2 2 2 2 
2 2 2 2 2 2 2 2 2 
2 2 2 2 2 2 2 2 2 
2 2 2 2 2 2 2 2 2 
2 
type 1 100 int
1 1 1 1 1 1 1 1 1 
1 1 1 1 1 1 1 1 1 
1 1 1 1 1 1 1 1 1 
1 1 1 1 1 1 1 1 1 
1 1 1 1 1 1 1 1 1 
1 1 1 1 1 1 1 1 1 
1 1 1 1 1 1 1 1 1 
1 1 1 1 1 1 1 1 1 
1 1 1 1 1 1 1 1 1 
1 1 1 1 1 1 1 1 1 
1 1 1 1 1 1 1 1 1 
1 
v 3 100 double
-0.08041258554 -0.13900697988 0.10493538822 -0.064556544553 -0.093801117452 0.073734230669 -0.054567795758 -0.061976530464 0.043691750276 
-0.10189213927 -0.17171707304 0.058655270132 -0.10970723826 -0.2085073911 0.11906785835 -0.08945059715 -0.13514079993 0.030742725062 
-0.071887351765 -0.085620031661 -0.0021033937117 -0.11723477806 -0.2084552133 0.06710706382 -0.044322945994 -0.029307796263 0.012791489859 
-0.044805202217 -0.067498074435 0.12800837637 -0.11724932506 -0.19020341621 0.010356831746 -0.092860133616 -0.13020653032 -0.0080341710611 
-0.038019106113 -0.05442486717 0.13412839933 -0.12943334033 -0.21915565012 0.016377904593 -0.036799876467 -0.042922910191 0.10681831521 
-0.10773164572 -0.16266177359 -0.009633742615 -0.11828050523 -0.2207019418 0.097922691062 -0.035599700275 -0.026732268186 0.064824326928 
-0.050353119815 -0.073758104396 0.10926174748 -0.05869979051 -0.048605826492 -0.02624165689 -0.057155809669 -0.075360606339 0.067424636259 
-0.13553269387 -0.22450613676 -0.0089863406841 -0.10840374143 -0.18863609422 0.066360787203 -0.11192996856 -0.22807124776 0.16449522261 
-0.094540228382 -0.17780569339 0.12814349661 -0.052187094589 -0.090627710019 0.14900178736 -0.095372797815 -0.19339459693 0.1707993945 
-0.11440386283 -0.2349154139 0.16871474928 -0.12919434317 -0.20684185862 -0.020197180266 -0.086103975905 -0.14635144398 0.088567366826 
-0.12236607961 -0.18958397952 -0.026775423645 -0.12892867846 -0.23781335718 0.077760604988 -0.048381789371 -0.04147504816 0.022626446362 
-0.13161168236 -0.22775339463 0.028073974666 -0.039178533651 -0.0074907034432 -0.019524684243 -0.10279450003 -0.18287971219 0.087092628259 
-0.10992645643 -0.15978846058 -0.033654993333 -0.12896645284 -0.22843525419 0.048392809981 -0.087971272134 -0.10923255685 -0.039491970016 
-0.033324710576 -0.034798240944 0.10551434395 -0.078417737364 -0.097849771388 -0.0090817739869 -0.12256492768 -0.20449415992 0.018134637665 
-0.10586435771 -0.19978061698 0.11842540193 -0.10522189328 -0.17197647919 0.036547565196 -0.057060429945 -0.064131389625 0.033227599904 
-0.075041736096 -0.07984343695 -0.041738943501 -0.08210293365 -0.15479187759 0.14229702987 -0.032363350005 -0.030921158909 0.10009597114 
-0.11993232896 -0.18014345365 -0.039329798576 -0.032190117713 -0.031666313792 0.10360084496 -0.096547017035 -0.123893511 0.074537920972 
-0.082128927612 -0.08514355707 0.047796902942 -0.073214891142 -0.063496686667 0.022027551068 -0.10933988156 -0.17677001434 0.024327522377 
-0.12126004197 -0.19960417329 0.083224866274 -0.097634120932 -0.14600686569 -0.00017011940984 -0.08185979524 -0.10326346302 -0.028033546736 
-0.11910690491 -0.20718861653 0.025776200333 -0.063009402062 -0.038301224371 -0.005826438073 -0.073129882525 -0.041779107577 0.10777888439 
-0.11533783171 -0.20899723495 -0.028941296538 -0.096208274868 -0.15151885327 -0.040170309841 -0.072580889342 -0.036844579521 0.12058926939 
-0.12368376599 -0.2349769282 -0.027651259112 -0.069300444971 -0.033190574074 0.093866502076 -0.10619953829 -0.18464381802 -0.046715878732 
-0.12877785177 -0.22813341006 0.063888716585 -0.066388812774 -0.033818867401 0.054670704191 -0.070029590482 -0.038777375164 0.080718226373 
-0.068718158311 -0.06737639033 -0.050137587174 -0.068878297698 -0.046756863799 0.034312610074 -0.12597226055 -0.24887121361 -0.05436470024 
-0.10822902667 -0.1738751592 0.021904754384 -0.12933618409 -0.21316551097 0.13076176366 -0.10717134253 -0.1531312972 0.091508510771 
-0.086011866248 -0.07588405499 0.13373608864 -0.1204267562 -0.18156713999 0.14483450679 -0.13456559303 -0.22780062343 0.13813959148 
-0.120692411 -0.23447458455 -0.063331442581 -0.10637265119 -0.15705035642 0.065778116287 -0.11526815499 -0.2185025562 -0.067819460805 
-0.12730828781 -0.23159246738 0.031544907523 -0.059106837451 -0.026290251343 -0.0069779552847 -0.12481570865 -0.23626392233 -0.018534909475 
-0.054434693394 -0.019566855013 -0.038964131116 -0.10608509688 -0.1615567392 0.044139602376 -0.10563110263 -0.18897552464 -0.071194932305 
-0.1280457258 -0.24015643419 0.00659901995 -0.088924623408 -0.13633165937 -0.071222684732 -0.061344234761 -0.0098849035985 0.086796458832 
-0.081117600269 -0.10465039273 -0.042929209066 -0.11545303025 -0.20920369973 -0.028315299176 -0.12364752593 -0.20536244603 0.090284692408 
-0.10230141302 -0.16268087886 -0.0080255720688 -0.078812876195 -0.082413284944 0.016932624257 -0.079143164578 -0.10522922852 -0.070119432115 
-0.099603261491 -0.12484122293 0.10925516501 -0.06142393368 -0.011015301798 0.083281498248 -0.11284525255 -0.2136686899 -0.079021113536 
-0.067814544424 -0.028306624909 0.094670472198 
f 3 100 double
0 0 0 0 0 0 0 0 0 
0 0 0 0 0 0 0 0 0 
0 0 0 0 0 0 0.0012993181893 -0.00053916931738 0.0028134898684 
0 0 0 0 0 0 0 0 0 
0 0 0 0 0 0 0 0 0 
0 0 0 0 0 0 0 0 0 
0 0 0 0 0 0 0 0 0 
0 0 0 0 0 0 0 0 0 
0 0 0 0 0 0 0 0 0 
0 0 0 0 0 0 0 0 0 
0 0 0 0 0 0 0 0 0 
0 0 0 0 0 0 0 0 0 
0 0 0 0 0 0 0 0 0 
0 0 0 0 0 0 0 0 0 
0 0 0 0 0 0 0 0 0 
0 0 0 0 0 0 0 0 0 
0 0 0 0 0 0 0 0 0 
0 0 0 0 0 0 0 0 0 
0 0 0 0 0 0 0 0 0 
0 0 0 0.079728464434 -0.017959104394 0.16345222509 0 0 0 
0 0 0 0 0 0 0 0 0 
0 0 0 0 0 0 0 0 0 
0 0 0 0 0 0 0 0 0 
0 0 0 0 0 0 0 0 0 
0 0 0 0 0 0 0 0 0 
0 0 0 0 0 0 0 0 0 
0 0 0 0 0 0 0 0 0 
0 0 0 0 0 0 0 0 0 
0 0 0 0 0 0 0 0 0 
0 0 0 0 0 0 0 0 0 
0 0 0 0 0 0 0 0 0 
0 0 0 0 0 0 0 0 0 
0 0 0 0 0 0 0 0 0 
0 0 0 
radius 1 100 double
0.010434 0.00981478 0.00892069 0.00845937 0.00731974 0.00728422 0.00643447 0.00619172 0.00585956 
0.00577566 0.00537241 0.00522549 0.00513666 0.00473175 0.00466912 0.00444866 0.00441894 0.00400812 
0.00385622 0.00379948 0.00370243 0.00366942 0.00364039 0.00363813 0.00363644 0.00358692 0.0035797 
0.00341284 0.00337012 0.00336273 0.00332772 0.00323261 0.00320584 0.00320311 0.00318808 0.00313116 
0.00306026 0.00305632 0.00304383 0.00300958 0.00300137 0.00298994 0.0029567 0.00295111 0.00290849 
0.00284552 0.00282964 0.0028207 0.00281971 0.00281899 0.010434 0.00981478 0.00892069 0.00845937 
0.00731974 0.00728422 0.00643447 0.00619172 0.00585956 0.00577566 0.00537241 0.00522549 0.00513666 
0.00473175 0.00466912 0.00444866 0.00441894 0.00400812 0.00385622 0.00379948 0.00370243 0.00366942 
0.00364039 0.00363813 0.00363644 0.00358692 0.0035797 0.00341284 0.00337012 0.00336273 0.00332772 
0.00323261 0.00320584 0.00320311 0.00318808 0.00313116 0.00306026 0.00305632 0.00304383 0.00300958 
0.00300137 0.00298994 0.0029567 0.00295111 0.00290849 0.00284552 0.00282964 0.0028207 0.00281971 
0.00281899 
omega 3 100 double
6.8784594356 -3.1025547356 -0.99959521566 6.8784594356 -3.1025547356 -0.99959521566 6.8784594356 -3.1025547356 -0.99959521566 
6.8784594356 -3.1025547356 -0.99959521566 6.8784594356 -3.1025547356 -0.99959521566 6.8784594356 -3.1025547356 -0.99959521566 
6.8784594356 -3.1025547356 -0.99959521566 6.8784594356 -3.1025547356 -0.99959521566 6.8784594356 -3.1025547356 -0.99959521566 
6.8784594356 -3.1025547356 -0.99959521566 6.8784594356 -3.1025547356 -0.99959521566 6.8784594356 -3.1025547356 -0.99959521566 
6.8784594356 -3.1025547356 -0.99959521566 6.8784594356 -3.1025547356 -0.99959521566 6.8784594356 -3.1025547356 -0.99959521566 
6.8784594356 -3.1025547356 -0.99959521566 6.8784594356 -3.1025547356 -0.99959521566 6.8784594356 -3.1025547356 -0.99959521566 
6.8784594356 -3.1025547356 -0.99959521566 6.8784594356 -3.1025547356 -0.99959521566 6.8784594356 -3.1025547356 -0.99959521566 
6.8784594356 -3.1025547356 -0.99959521566 6.8784594356 -3.1025547356 -0.99959521566 6.8784594356 -3.1025547356 -0.99959521566 
6.8784594356 -3.1025547356 -0.99959521566 6.8784594356 -3.1025547356 -0.99959521566 6.8784594356 -3.1025547356 -0.99959521566 
6.8784594356 -3.1025547356 -0.99959521566 6.8784594356 -3.1025547356 -0.99959521566 6.8784594356 -3.1025547356 -0.99959521566 
6.8784594356 -3.1025547356 -0.99959521566 6.8784594356 -3.1025547356 -0.99959521566 6.8784594356 -3.1025547356 -0.99959521566 
6.8784594356 -3.1025547356 -0.99959521566 6.8784594356 -3.1025547356 -0.99959521566 6.8784594356 -3.1025547356 -0.99959521566 
6.8784594356 -3.1025547356 -0.99959521566 6.8784594356 -3.1025547356 -0.99959521566 6.8784594356 -3.1025547356 -0.99959521566 
6.8784594356 -3.1025547356 -0.99959521566 6.8784594356 -3.1025547356 -0.99959521566 6.8784594356 -3.1025547356 -0.99959521566 
6.8784594356 -3.1025547356 -0.99959521566 6.8784594356 -3.1025547356 -0.99959521566 6.8784594356 -3.1025547356 -0.99959521566 
6.8784594356 -3.1025547356 -0.99959521566 6.8784594356 -3.1025547356 -0.99959521566 6.8784594356 -3.1025547356 -0.99959521566 
6.8784594356 -3.1025547356 -0.99959521566 6.8784594356 -3.1025547356 -0.99959521566 8.2978162249 -2.6329566756 0.65860269186 
8.2978162249 -2.6329566756 0.65860269186 8.2978162249 -2.6329566756 0.65860269186 8.2978162249 -2.6329566756 0.65860269186 
8.2978162249 -2.6329566756 0.65860269186 8.2978162249 -2.6329566756 0.65860269186 8.2978162249 -2.6329566756 0.65860269186 
8.2978162249 -2.6329566756 0.65860269186 8.2978162249 -2.6329566756 0.65860269186 8.2978162249 -2.6329566756 0.65860269186 
8.2978162249 -2.6329566756 0.65860269186 8.2978162249 -2.6329566756 0.65860269186 8.2978162249 -2.6329566756 0.65860269186 
8.2978162249 -2.6329566756 0.65860269186 8.2978162249 -2.6329566756 0.65860269186 8.2978162249 -2.6329566756 0.65860269186 
8.2978162249 -2.6329566756 0.65860269186 8.2978162249 -2.6329566756 0.65860269186 8.2978162249 -2.6329566756 0.65860269186 
8.2978162249 -2.6329566756 0.65860269186 8.2978162249 -2.6329566756 0.65860269186 8.2978162249 -2.6329566756 0.65860269186 
8.2978162249 -2.6329566756 0.65860269186 8.2978162249 -2.6329566756 0.65860269186 8.2978162249 -2.6329566756 0.65860269186 
8.2978162249 -2.6329566756 0.65860269186 8.2978162249 -2.6329566756 0.65860269186 8.2978162249 -2.6329566756 0.65860269186 
8.2978162249 -2.6329566756 0.65860269186 8.2978162249 -2.6329566756 0.65860269186 8.2978162249 -2.6329566756 0.65860269186 
8.2978162249 -2.6329566756 0.65860269186 8.2978162249 -2.6329566756 0.65860269186 8.2978162249 -2.6329566756 0.65860269186 
8.2978162249 -2.6329566756 0.65860269186 8.2978162249 -2.6329566756 0.65860269186 8.2978162249 -2.6329566756 0.65860269186 
8.2978162249 -2.6329566756 0.65860269186 8.2978162249 -2.6329566756 0.65860269186 8.2978162249 -2.6329566756 0.65860269186 
8.2978162249 -2.6329566756 0.65860269186 8.2978162249 -2.6329566756 0.65860269186 8.2978162249 -2.6329566756 0.65860269186 
8.2978162249 -2.6329566756 0.65860269186 8.2978162249 -2.6329566756 0.65860269186 8.2978162249 -2.6329566756 0.65860269186 
8.2978162249 -2.6329566756 0.65860269186 8.2978162249 -2.6329566756 0.65860269186 8.2978162249 -2.6329566756 0.65860269186 
8.2978162249 -2.6329566756 0.65860269186 
