# vtk DataFile Version 4.1
Generated by LIGGGHTS
ASCII
DATASET POLYDATA
POINTS 100 float
-0.118895 -0.135013 0.0176587 -0.127951 -0.135569 0.0124606 -0.137456 -0.135721 0.00927223 
-0.127131 -0.137941 0.0237086 -0.114256 -0.134885 0.0270679 -0.13484 -0.138606 0.0195637 
-0.144569 -0.139107 0.013839 -0.119724 -0.139966 0.0279607 -0.145689 -0.136575 0.00577808 
-0.120388 -0.131161 0.00742412 -0.133646 -0.141973 0.0274433 -0.141877 -0.141076 0.0199472 
-0.125774 -0.127874 0.0062918 -0.128858 -0.143188 0.0309479 -0.131837 -0.129133 0.00555483 
-0.13881 -0.142613 0.0242271 -0.121965 -0.13445 0.030005 -0.143439 -0.130039 0.00497006 
-0.115527 -0.13606 0.00766726 -0.149809 -0.140339 0.00926404 -0.119871 -0.140173 0.00861696 
-0.133424 -0.144799 0.0324415 -0.114935 -0.142282 0.0243831 -0.107742 -0.131179 0.0288753 
-0.109167 -0.135936 0.0218432 -0.12293 -0.12691 0.0111156 -0.112829 -0.128053 0.0245559 
-0.110884 -0.129132 0.0303188 -0.137316 -0.144715 0.0304596 -0.131841 -0.131534 0.020641 
-0.14001 -0.144497 0.0283534 -0.113738 -0.141048 0.0313409 -0.131697 -0.141427 0.00549603 
-0.123843 -0.14373 0.0314467 -0.150556 -0.139126 0.00337675 -0.111566 -0.140804 0.0230139 
-0.143527 -0.143982 0.0245432 -0.124814 -0.14034 0.0316452 -0.148016 -0.142926 0.0178515 
-0.124954 -0.132447 0.00337566 -0.137911 -0.143094 0.0146657 -0.124667 -0.144858 0.0282025 
-0.122636 -0.13122 0.0270165 -0.1204 -0.144187 0.022814 -0.146136 -0.133321 0.0108679 
-0.150335 -0.142277 0.013917 -0.108491 -0.134241 0.0183678 -0.128097 -0.131826 0.00327914 
-0.143752 -0.144655 0.0275491 -0.136401 -0.127569 0.00458653 -0.050002 -0.10742 0.0180876 
-0.0589895 -0.107879 0.0127628 -0.0684546 -0.10803 0.00945822 -0.0582593 -0.110736 0.0239038 
-0.045471 -0.107643 0.0275476 -0.0659102 -0.11133 0.0196423 -0.075566 -0.111721 0.0137859 
-0.0508698 -0.112838 0.0281496 -0.0766339 -0.108849 0.00583224 -0.0514387 -0.10314 0.00801663 
-0.0647533 -0.115026 0.0273787 -0.0729126 -0.113919 0.0198325 -0.0568615 -0.0998861 0.00696708 
-0.0599862 -0.116325 0.0308826 -0.0628961 -0.101201 0.00610313 -0.0698707 -0.115599 0.0240762 
-0.0532181 -0.107453 0.0304094 -0.074475 -0.102251 0.00534116 -0.0465062 -0.107973 0.00810028 
-0.0807343 -0.112825 0.00909894 -0.0507972 -0.112188 0.00881529 -0.0645442 -0.118068 0.0322491 
-0.0460064 -0.114922 0.0245301 -0.0390352 -0.103924 0.0295946 -0.0403081 -0.108385 0.0223423 
-0.0540866 -0.099095 0.0118623 -0.0441202 -0.100685 0.0253577 -0.0422243 -0.101991 0.0310899 
-0.0684142 -0.117954 0.0302268 -0.0630322 -0.104269 0.0210671 -0.0710874 -0.117682 0.0281005 
-0.044906 -0.113981 0.0315494 -0.0625668 -0.113477 0.00550172 -0.0549702 -0.116814 0.0314163 
-0.0814336 -0.111363 0.0032627 -0.0426451 -0.113335 0.0232677 -0.0745688 -0.11705 0.0242754 
-0.0559947 -0.113451 0.0317533 -0.0789981 -0.115765 0.0175841 -0.0559387 -0.104312 0.00386127 
-0.0688574 -0.115641 0.0145142 -0.0557402 -0.117809 0.0281159 -0.0539048 -0.104103 0.0275591 
-0.0514235 -0.116836 0.0228134 -0.0771879 -0.105832 0.0110554 -0.0812827 -0.114976 0.013655 
-0.0396199 -0.106527 0.0189537 -0.0590896 -0.103734 0.00375504 -0.0748175 -0.11786 0.0272456 
-0.0674725 -0.0996633 0.00515092 
VERTICES 100 200
1 0 
1 1 
1 2 
1 3 
1 4 
1 5 
1 6 
1 7 
1 8 
1 9 
1 10 
1 11 
1 12 
1 13 
1 14 
1 15 
1 16 
1 17 
1 18 
1 19 
1 20 
1 21 
1 22 
1 23 
1 24 
1 25 
1 26 
1 27 
1 28 
1 29 
1 30 
1 31 
1 32 
1 33 
1 34 
1 35 
1 36 
1 37 
1 38 
1 39 
1 40 
1 41 
1 42 
1 43 
1 44 
1 45 
1 46 
1 47 
1 48 
1 49 
1 50 
1 51 
1 52 
1 53 
1 54 
1 55 
1 56 
1 57 
1 58 
1 59 
1 60 
1 61 
1 62 
1 63 
1 64 
1 65 
1 66 
1 67 
1 68 
1 69 
1 70 
1 71 
1 72 
1 73 
1 74 
1 75 
1 76 
1 77 
1 78 
1 79 
1 80 
1 81 
1 82 
1 83 
1 84 
1 85 
1 86 
1 87 
1 88 
1 89 
1 90 
1 91 
1 92 
1 93 
1 94 
1 95 
1 96 
1 97 
1 98 
1 99 

POINT_DATA 100
FIELD FieldData 7
id 1 100 int
1 2 3 4 5 6 7 8 9 
10 11 12 13 14 15 16 17 18 
19 20 21 22 23 24 25 26 27 
28 29 30 31 32 33 34 35 36 
37 38 39 40 41 42 43 44 45 
46 47 48 49 50 51 52 53 54 
55 56 57 58 59 60 61 62 63 
64 65 66 67 68 69 70 71 72 
73 74 75 76 77 78 79 80 81 
82 83 84 85 86 87 88 89 90 
91 92 93 94 95 96 97 98 99 
100 
mol 1 100 int
1 1 1 1 1 1 1 1 1 
1 1 1 1 1 1 1 1 1 
1 1 1 1 1 1 1 1 1 
1 1 1 1 1 1 1 1 1 
1 1 1 1 1 1 1 1 1 
1 1 1 1 1 2 2 2 2 
2 2 2 2 2 2 2 2 2 
2 2 2 2 2 2 2 2 2 
2 2 2 2 2 2 2 2 2 
2 2 2 2 2 2 2 2 2 
2 2 2 2 2 2 2 2 2 
2 
type 1 100 int
1 1 1 1 1 1 1 1 1 
1 1 1 1 1 1 1 1 1 
1 1 1 1 1 1 1 1 1 
1 1 1 1 1 1 1 1 1 
1 1 1 1 1 1 1 1 1 
1 1 1 1 1 1 1 1 1 
1 1 1 1 1 1 1 1 1 
1 1 1 1 1 1 1 1 1 
1 1 1 1 1 1 1 1 1 
1 1 1 1 1 1 1 1 1 
1 1 1 1 1 1 1 1 1 
1 
v 3 100 double
-0.080335828844 -0.13880888026 0.12432261028 -0.065060980955 -0.093474855023 0.092863388019 -0.055495288073 -0.061538899168 0.06281499876 
-0.10185136673 -0.17194504862 0.078995036039 -0.10890397528 -0.20858306487 0.13935236435 -0.089903189913 -0.13528624726 0.050891582332 
-0.072965059111 -0.085614504916 0.017753821572 -0.11693832178 -0.20902805138 0.087617955657 -0.045728811816 -0.028822521364 0.031814657992 
-0.045090193931 -0.066629001761 0.14634959803 -0.11745799185 -0.19090442053 0.031302853187 -0.093654677223 -0.13057607367 0.012384554336 
-0.03820067175 -0.053185454291 0.1525973932 -0.12941883876 -0.22009215686 0.03752205544 -0.037269158434 -0.041761997197 0.12541237312 
-0.10831693532 -0.16331379354 0.011131235993 -0.11740836888 -0.2207910704 0.1188398527 -0.036432043974 -0.025599551614 0.083775846812 
-0.050953913703 -0.073388182673 0.12736786223 -0.060297265292 -0.048569420158 -0.0067267826483 -0.058150267722 -0.07539995326 0.085736736833 
-0.13565916589 -0.2256244789 0.012474438069 -0.10844636214 -0.18934845198 0.086246231411 -0.11054238923 -0.22786379652 0.18479887628 
-0.094065728372 -0.17785247855 0.14762417404 -0.051906715677 -0.089443333815 0.16792767581 -0.094098838715 -0.19274231487 0.19085426491 
-0.11280642966 -0.23453957589 0.1893344337 -0.1295253894 -0.20788102587 0.0011865748885 -0.08579599864 -0.14585415502 0.10883943934 
-0.12287278067 -0.19053189556 -0.0055259589524 -0.12838013858 -0.23860961781 0.098412355878 -0.049941360736 -0.041502996312 0.041010299752 
-0.13150683351 -0.22877510207 0.049076573787 -0.041070570291 -0.0071657730077 -0.00063189636262 -0.10272506141 -0.18342231354 0.10671871534 
-0.11071164046 -0.16056460734 -0.01269780871 -0.12856860704 -0.2291308992 0.069509352648 -0.089196674477 -0.1096987116 -0.019109475813 
-0.034085561191 -0.033921105776 0.12354679482 -0.079654186091 -0.098278316361 0.010553514173 -0.12279027606 -0.20552926534 0.038781063184 
-0.10491627065 -0.19946919587 0.13907995756 -0.10565145931 -0.17280825961 0.056430350276 -0.057853418088 -0.063475064113 0.052899264871 
-0.076516702013 -0.080125746111 -0.021705996231 -0.081692027949 -0.15457766133 0.16138406191 -0.033141709898 -0.029969551032 0.11824627729 
-0.12058468678 -0.18106990479 -0.018032928904 -0.032680517022 -0.030309504819 0.12228249339 -0.098520756544 -0.12339476001 0.091400639343 
-0.083325713788 -0.084245703349 0.06238387549 -0.073974100244 -0.062251831303 0.034588743462 -0.11285770794 -0.1768618247 0.040563769021 
-0.12490243477 -0.19972070122 0.1022423629 -0.10056214306 -0.1458013506 0.014158263799 -0.083917296169 -0.10260796405 -0.016164866027 
-0.12351247654 -0.20794635232 0.043717911095 -0.06332667312 -0.036812203264 0.0048262559124 -0.072830466711 -0.040133583615 0.12312625272 
-0.12005607979 -0.20973037429 -0.013464213477 -0.099562308994 -0.15153735585 -0.027083792241 -0.07181586816 -0.034579556236 0.13510084266 
-0.12910695736 -0.23617137908 -0.010953876987 -0.06861564151 -0.03093808463 0.10720471108 -0.11046076031 -0.18517910074 -0.032594225647 
-0.13303560874 -0.22821064357 0.082116137449 -0.065858008737 -0.031432063114 0.065980676599 -0.070202225142 -0.03791074404 0.096582898771 
-0.070127173396 -0.06652411388 -0.039874946097 -0.06970975453 -0.046424003711 0.049353313581 -0.13190426438 -0.25028402549 -0.038289461319 
-0.11213435881 -0.17483617542 0.039948972678 -0.13284189838 -0.21300496737 0.15133836239 -0.10987413313 -0.15318873938 0.11051306038 
-0.086004011127 -0.073820390355 0.14948460553 -0.12288606103 -0.18063095452 0.16414202757 -0.13817785494 -0.22738241582 0.15854826315 
-0.1263044899 -0.23568615523 -0.048176522648 -0.10873760316 -0.15599685327 0.081198288007 -0.12050598585 -0.21951060049 -0.053400290601 
-0.13236446812 -0.23280922234 0.05089146592 -0.05965939176 -0.025720110755 0.0056006041649 -0.13031302758 -0.23765840455 -0.0009832451792 
-0.054636413001 -0.018194307196 -0.029618101744 -0.10953595059 -0.16230168557 0.062621416087 -0.11015966267 -0.18962510511 -0.057878781711 
-0.13324944911 -0.24107947614 0.02423580325 -0.092167430918 -0.13636378696 -0.059560118426 -0.060489897485 -0.0080934895886 0.10072171996 
-0.083636372131 -0.10471723832 -0.030107453813 -0.12047386896 -0.21054946345 -0.011448756909 -0.12703089415 -0.20481210169 0.10816394855 
-0.10618907724 -0.16370639899 0.0087786277808 -0.079752394669 -0.080763910127 0.028471010105 -0.081622378162 -0.10490060709 -0.05937531616 
-0.10147733888 -0.12447907971 0.12796157864 -0.060534694033 -0.0090724402861 0.096720984055 -0.11800463925 -0.2145795565 -0.065338924576 
-0.066857728031 -0.025695807312 0.10722229985 
f 3 100 double
0 0 0 0 0 0 0 0 0 
0 0 0 0 0 0 0 0 0 
0 0 0 0 0 0 0.02548950616 -0.010432757335 0.055083839732 
0 0 0 0 0 0 0 0 0 
0 0 0 0 0 0 0 0 0 
0 0 0 0 0 0 0 0 0 
0 0 0 0 0 0 0 0 0 
0 0 0 0 0 0 0 0 0 
0 0 0 0 0 0 0 0 0 
0 0 0 0 0 0 0 0 0 
0 0 0 0 0 0 0 0 0 
0 0 0 0 0 0 0 0 0 
0 0 0 0 0 0 0 0 0 
0 0 0 0 0 0 0 0 0 
0 0 0 0 0 0 0 0 0 
0 0 0 0 0 0 0 0 0 
0 0 0 0 0 0 0 0 0 
0 0 0 0 0 0 0 0 0 
0 0 0 0 0 0 0 0 0 
0 0 0 0.02085096811 -0.0053535889017 0.043054560049 0 0 0 
0 0 0 0 0 0 0 0 0 
0 0 0 0 0 0 0 0 0 
0 0 0 0 0 0 0 0 0 
0 0 0 0 0 0 0 0 0 
0 0 0 0 0 0 0 0 0 
0 0 0 0 0 0 0 0 0 
0 0 0 0 0 0 0 0 0 
0 0 0 0 0 0 0 0 0 
0 0 0 0 0 0 0 0 0 
0 0 0 0 0 0 0 0 0 
0 0 0 0 0 0 0 0 0 
0 0 0 0 0 0 0 0 0 
0 0 0 0 0 0 0 0 0 
0 0 0 
radius 1 100 double
0.010434 0.00981478 0.00892069 0.00845937 0.00731974 0.00728422 0.00643447 0.00619172 0.00585956 
0.00577566 0.00537241 0.00522549 0.00513666 0.00473175 0.00466912 0.00444866 0.00441894 0.00400812 
0.00385622 0.00379948 0.00370243 0.00366942 0.00364039 0.00363813 0.00363644 0.00358692 0.0035797 
0.00341284 0.00337012 0.00336273 0.00332772 0.00323261 0.00320584 0.00320311 0.00318808 0.00313116 
0.00306026 0.00305632 0.00304383 0.00300958 0.00300137 0.00298994 0.0029567 0.00295111 0.00290849 
0.00284552 0.00282964 0.0028207 0.00281971 0.00281899 0.010434 0.00981478 0.00892069 0.00845937 
0.00731974 0.00728422 0.00643447 0.00619172 0.00585956 0.00577566 0.00537241 0.00522549 0.00513666 
0.00473175 0.00466912 0.00444866 0.00441894 0.00400812 0.00385622 0.00379948 0.00370243 0.00366942 
0.00364039 0.00363813 0.00363644 0.00358692 0.0035797 0.00341284 0.00337012 0.00336273 0.00332772 
0.00323261 0.00320584 0.00320311 0.00318808 0.00313116 0.00306026 0.00305632 0.00304383 0.00300958 
0.00300137 0.00298994 0.0029567 0.00295111 0.00290849 0.00284552 0.00282964 0.0028207 0.00281971 
0.00281899 
omega 3 100 double
6.9001221127 -3.0503411435 -1.0453509121 6.9001221127 -3.0503411435 -1.0453509121 6.9001221127 -3.0503411435 -1.0453509121 
6.9001221127 -3.0503411435 -1.0453509121 6.9001221127 -3.0503411435 -1.0453509121 6.9001221127 -3.0503411435 -1.0453509121 
6.9001221127 -3.0503411435 -1.0453509121 6.9001221127 -3.0503411435 -1.0453509121 6.9001221127 -3.0503411435 -1.0453509121 
6.9001221127 -3.0503411435 -1.0453509121 6.9001221127 -3.0503411435 -1.0453509121 6.9001221127 -3.0503411435 -1.0453509121 
6.9001221127 -3.0503411435 -1.0453509121 6.9001221127 -3.0503411435 -1.0453509121 6.9001221127 -3.0503411435 -1.0453509121 
6.9001221127 -3.0503411435 -1.0453509121 6.9001221127 -3.0503411435 -1.0453509121 6.9001221127 -3.0503411435 -1.0453509121 
6.9001221127 -3.0503411435 -1.0453509121 6.9001221127 -3.0503411435 -1.0453509121 6.9001221127 -3.0503411435 -1.0453509121 
6.9001221127 -3.0503411435 -1.0453509121 6.9001221127 -3.0503411435 -1.0453509121 6.9001221127 -3.0503411435 -1.0453509121 
6.9001221127 -3.0503411435 -1.0453509121 6.9001221127 -3.0503411435 -1.0453509121 6.9001221127 -3.0503411435 -1.0453509121 
6.9001221127 -3.0503411435 -1.0453509121 6.9001221127 -3.0503411435 -1.0453509121 6.9001221127 -3.0503411435 -1.0453509121 
6.9001221127 -3.0503411435 -1.0453509121 6.9001221127 -3.0503411435 -1.0453509121 6.9001221127 -3.0503411435 -1.0453509121 
6.9001221127 -3.0503411435 -1.0453509121 6.9001221127 -3.0503411435 -1.0453509121 6.9001221127 -3.0503411435 -1.0453509121 
6.9001221127 -3.0503411435 -1.0453509121 6.9001221127 -3.0503411435 -1.0453509121 6.9001221127 -3.0503411435 -1.0453509121 
6.9001221127 -3.0503411435 -1.0453509121 6.9001221127 -3.0503411435 -1.0453509121 6.9001221127 -3.0503411435 -1.0453509121 
6.9001221127 -3.0503411435 -1.0453509121 6.9001221127 -3.0503411435 -1.0453509121 6.9001221127 -3.0503411435 -1.0453509121 
6.9001221127 -3.0503411435 -1.0453509121 6.9001221127 -3.0503411435 -1.0453509121 6.9001221127 -3.0503411435 -1.0453509121 
6.9001221127 -3.0503411435 -1.0453509121 6.9001221127 -3.0503411435 -1.0453509121 8.3519483034 -2.8026788798 0.59227753243 
8.3519483034 -2.8026788798 0.59227753243 8.3519483034 -2.8026788798 0.59227753243 8.3519483034 -2.8026788798 0.59227753243 
8.3519483034 -2.8026788798 0.59227753243 8.3519483034 -2.8026788798 0.59227753243 8.3519483034 -2.8026788798 0.59227753243 
8.3519483034 -2.8026788798 0.59227753243 8.3519483034 -2.8026788798 0.59227753243 8.3519483034 -2.8026788798 0.59227753243 
8.3519483034 -2.8026788798 0.59227753243 8.3519483034 -2.8026788798 0.59227753243 8.3519483034 -2.8026788798 0.59227753243 
8.3519483034 -2.8026788798 0.59227753243 8.3519483034 -2.8026788798 0.59227753243 8.3519483034 -2.8026788798 0.59227753243 
8.3519483034 -2.8026788798 0.59227753243 8.3519483034 -2.8026788798 0.59227753243 8.3519483034 -2.8026788798 0.59227753243 
8.3519483034 -2.8026788798 0.59227753243 8.3519483034 -2.8026788798 0.59227753243 8.3519483034 -2.8026788798 0.59227753243 
8.3519483034 -2.8026788798 0.59227753243 8.3519483034 -2.8026788798 0.59227753243 8.3519483034 -2.8026788798 0.59227753243 
8.3519483034 -2.8026788798 0.59227753243 8.3519483034 -2.8026788798 0.59227753243 8.3519483034 -2.8026788798 0.59227753243 
8.3519483034 -2.8026788798 0.59227753243 8.3519483034 -2.8026788798 0.59227753243 8.3519483034 -2.8026788798 0.59227753243 
8.3519483034 -2.8026788798 0.59227753243 8.3519483034 -2.8026788798 0.59227753243 8.3519483034 -2.8026788798 0.59227753243 
8.3519483034 -2.8026788798 0.59227753243 8.3519483034 -2.8026788798 0.59227753243 8.3519483034 -2.8026788798 0.59227753243 
8.3519483034 -2.8026788798 0.59227753243 8.3519483034 -2.8026788798 0.59227753243 8.3519483034 -2.8026788798 0.59227753243 
8.3519483034 -2.8026788798 0.59227753243 8.3519483034 -2.8026788798 0.59227753243 8.3519483034 -2.8026788798 0.59227753243 
8.3519483034 -2.8026788798 0.59227753243 8.3519483034 -2.8026788798 0.59227753243 8.3519483034 -2.8026788798 0.59227753243 
8.3519483034 -2.8026788798 0.59227753243 8.3519483034 -2.8026788798 0.59227753243 8.3519483034 -2.8026788798 0.59227753243 
8.3519483034 -2.8026788798 0.59227753243 
