# vtk DataFile Version 4.1
Generated by LIGGGHTS
ASCII
DATASET POLYDATA
POINTS 100 float
-0.117334 -0.155167 0.0103335 -0.127051 -0.15135 0.0109121 -0.136768 -0.149405 0.0124395 
-0.124842 -0.162661 0.0110284 -0.11123 -0.163631 0.0114211 -0.133107 -0.15973 0.0114041 
-0.143551 -0.15547 0.0120841 -0.117429 -0.166432 0.00822246 -0.145466 -0.147206 0.0129181 
-0.119696 -0.144517 0.012009 -0.131333 -0.168029 0.00972574 -0.140339 -0.161536 0.0109414 
-0.124358 -0.143179 0.0162008 -0.12639 -0.171167 0.00817138 -0.130584 -0.143485 0.0163766 
-0.136987 -0.165696 0.00969427 -0.11804 -0.167201 0.0144401 -0.142031 -0.144468 0.0183156 
-0.11604 -0.145484 0.0062299 -0.14964 -0.151997 0.0112068 -0.120941 -0.14796 0.00367129 
-0.130871 -0.173535 0.00814582 -0.113941 -0.163068 0.00402475 -0.103858 -0.163659 0.0136769 
-0.107463 -0.158324 0.00796336 -0.120586 -0.14723 0.0174868 -0.108814 -0.159274 0.0169185 
-0.106187 -0.164862 0.0167215 -0.134933 -0.172052 0.00875587 -0.128512 -0.158574 0.0175459 
-0.137838 -0.170279 0.00916158 -0.111328 -0.16928 0.00646379 -0.133114 -0.146629 0.00476293 
-0.121602 -0.171222 0.00651116 -0.151107 -0.14612 0.0111994 -0.110619 -0.16099 0.00425463 
-0.141762 -0.166888 0.00966725 -0.121768 -0.170635 0.00999002 -0.146999 -0.160703 0.0102714 
-0.125058 -0.141487 0.0110302 -0.137871 -0.156555 0.00684362 -0.123195 -0.1685 0.00492093 
-0.118501 -0.163567 0.0169688 -0.119875 -0.162678 0.00325333 -0.144318 -0.151284 0.0172472 
-0.149764 -0.157023 0.0105727 -0.107046 -0.154473 0.00859891 -0.127961 -0.141586 0.0123847 
-0.141607 -0.169971 0.00977311 -0.134799 -0.142662 0.0187782 -0.0464207 -0.124824 0.0103246 
-0.0564711 -0.12224 0.0116089 -0.0662287 -0.121525 0.0138023 -0.0528941 -0.133193 0.0113557 
-0.0392697 -0.132483 0.0108446 -0.0614119 -0.131308 0.0123256 -0.0722288 -0.128375 0.0137671 
-0.0452801 -0.135989 0.00799983 -0.0750785 -0.120421 0.0148883 -0.0499484 -0.114567 0.012362 
-0.0587528 -0.139305 0.0103703 -0.068383 -0.133986 0.0122974 -0.0544479 -0.113862 0.0168735 
-0.0535792 -0.141791 0.00843612 -0.0605644 -0.114935 0.017447 -0.0646397 -0.137685 0.0107526 
-0.0453759 -0.136901 0.0142275 -0.0716498 -0.117344 0.0201049 -0.0465967 -0.115008 0.00633969 
-0.0787406 -0.125668 0.0133563 -0.0513181 -0.118038 0.00405571 -0.0577286 -0.144692 0.00865424 
-0.042518 -0.132172 0.00365252 -0.0318149 -0.131631 0.012616 -0.0364195 -0.126713 0.00725619 
-0.0501326 -0.117433 0.0178308 -0.0370417 -0.127928 0.0162593 -0.0337717 -0.133147 0.0157809 
-0.0618923 -0.143728 0.00955622 -0.056592 -0.129668 0.0181781 -0.0649576 -0.142332 0.0101849 
-0.0390081 -0.138043 0.00579233 -0.0634629 -0.11823 0.00596165 -0.0489422 -0.141236 0.00646782 
-0.0809124 -0.120017 0.0135615 -0.0394669 -0.129703 0.0037077 -0.0692236 -0.139456 0.0110118 
-0.048946 -0.140715 0.00996116 -0.0751245 -0.133971 0.0120779 -0.055694 -0.112209 0.0117941 
-0.0668217 -0.12869 0.00814828 -0.0509585 -0.138713 0.00503898 -0.0461071 -0.133381 0.0168527 
-0.0484932 -0.132507 0.00327587 -0.0731543 -0.124377 0.0190515 -0.0782922 -0.130664 0.0126315 
-0.0364335 -0.122847 0.00793999 -0.0584663 -0.112681 0.013332 -0.0686869 -0.142498 0.0110458 
-0.0646787 -0.114666 0.0201331 
VERTICES 100 200
1 0 
1 1 
1 2 
1 3 
1 4 
1 5 
1 6 
1 7 
1 8 
1 9 
1 10 
1 11 
1 12 
1 13 
1 14 
1 15 
1 16 
1 17 
1 18 
1 19 
1 20 
1 21 
1 22 
1 23 
1 24 
1 25 
1 26 
1 27 
1 28 
1 29 
1 30 
1 31 
1 32 
1 33 
1 34 
1 35 
1 36 
1 37 
1 38 
1 39 
1 40 
1 41 
1 42 
1 43 
1 44 
1 45 
1 46 
1 47 
1 48 
1 49 
1 50 
1 51 
1 52 
1 53 
1 54 
1 55 
1 56 
1 57 
1 58 
1 59 
1 60 
1 61 
1 62 
1 63 
1 64 
1 65 
1 66 
1 67 
1 68 
1 69 
1 70 
1 71 
1 72 
1 73 
1 74 
1 75 
1 76 
1 77 
1 78 
1 79 
1 80 
1 81 
1 82 
1 83 
1 84 
1 85 
1 86 
1 87 
1 88 
1 89 
1 90 
1 91 
1 92 
1 93 
1 94 
1 95 
1 96 
1 97 
1 98 
1 99 

POINT_DATA 100
FIELD FieldData 7
id 1 100 int
1 2 3 4 5 6 7 8 9 
10 11 12 13 14 15 16 17 18 
19 20 21 22 23 24 25 26 27 
28 29 30 31 32 33 34 35 36 
37 38 39 40 41 42 43 44 45 
46 47 48 49 50 51 52 53 54 
55 56 57 58 59 60 61 62 63 
64 65 66 67 68 69 70 71 72 
73 74 75 76 77 78 79 80 81 
82 83 84 85 86 87 88 89 90 
91 92 93 94 95 96 97 98 99 
100 
mol 1 100 int
1 1 1 1 1 1 1 1 1 
1 1 1 1 1 1 1 1 1 
1 1 1 1 1 1 1 1 1 
1 1 1 1 1 1 1 1 1 
1 1 1 1 1 1 1 1 1 
1 1 1 1 1 2 2 2 2 
2 2 2 2 2 2 2 2 2 
2 2 2 2 2 2 2 2 2 
2 2 2 2 2 2 2 2 2 
2 2 2 2 2 2 2 2 2 
2 2 2 2 2 2 2 2 2 
2 
type 1 100 int
1 1 1 1 1 1 1 1 1 
1 1 1 1 1 1 1 1 1 
1 1 1 1 1 1 1 1 1 
1 1 1 1 1 1 1 1 1 
1 1 1 1 1 1 1 1 1 
1 1 1 1 1 1 1 1 1 
1 1 1 1 1 1 1 1 1 
1 1 1 1 1 1 1 1 1 
1 1 1 1 1 1 1 1 1 
1 1 1 1 1 1 1 1 1 
1 1 1 1 1 1 1 1 1 
1 
v 3 100 double
-0.037761200119 -0.20646056343 -0.080542324734 -0.03493901536 -0.20396928654 -0.049579234478 -0.03918504699 -0.22031527717 -0.055772617121 
-0.05174540372 -0.20945493768 -0.26394598372 -0.054952276049 -0.23683418573 -0.22042242703 -0.049262496768 -0.20502440524 -0.24388311809 
-0.046270483247 -0.20350170737 -0.20747065773 -0.044228683709 -0.16441065642 -0.30462451622 -0.038229858633 -0.21730555092 -0.052239299988 
-0.030168137269 -0.23632713215 0.12001236501 -0.053460568443 -0.17425561602 -0.40047423742 -0.04972723197 -0.185435274 -0.31310398041 
-0.04757648725 -0.31284533282 0.12508253056 -0.050805434795 -0.15050533783 -0.43997744224 -0.048828062567 -0.30738010277 0.090286151842 
-0.049958476733 -0.16549616019 -0.38022441956 -0.074012674424 -0.28697718549 -0.32271746616 -0.059185759283 -0.32940954036 0.017964374595 
-0.0049049509862 -0.12684763012 0.11767072429 -0.037228288339 -0.17732572763 -0.16659956216 0.0033344623111 -0.068999266849 0.04591399133 
-0.054093718528 -0.14355238343 -0.50765358431 -0.02002984208 -0.086085689925 -0.22176796573 -0.065398115041 -0.29222609242 -0.18699378009 
-0.031370490631 -0.17360189748 -0.09769200696 -0.059335651361 -0.34380274784 0.062043204809 -0.074040909176 -0.34945544758 -0.122789011 
-0.081170543682 -0.34932343291 -0.22161256598 -0.054773446051 -0.1498197702 -0.49694037544 -0.07592801271 -0.33357542285 -0.19974865996 
-0.054094908123 -0.15369691554 -0.47514454925 -0.040215309663 -0.13827044801 -0.33304445174 0.00021444014535 -0.073160268476 0.01619375189 
-0.043227119356 -0.12443079919 -0.41898496922 -0.028740360657 -0.17506765929 -0.056692499323 -0.018099843602 -0.095428772604 -0.16517507708 
-0.051549176542 -0.15809181991 -0.42591844096 -0.05842774506 -0.19326095454 -0.40809415165 -0.045438548425 -0.16255259209 -0.32727990826 
-0.021295351568 -0.2091808815 0.15543445644 -0.023661196689 -0.10762806653 -0.20281714783 -0.031977087926 -0.090566487111 -0.37229259274 
-0.080447806446 -0.3365183968 -0.2526932189 -0.015910832923 -0.062233948012 -0.24139267522 -0.064063367862 -0.30490695532 -0.12791469663 
-0.041534551393 -0.16455725503 -0.26697118265 -0.028761794599 -0.18682122017 -0.019303991736 -0.027685273737 -0.23189724065 0.14007668636 
-0.056472378136 -0.16041596721 -0.4864147549 -0.058720793855 -0.34899771531 0.087185348346 -0.025815892495 -0.19518369422 0.032918191602 
-0.026245419779 -0.20494636401 0.04919767704 -0.032438223764 -0.2325571899 0.030653162147 -0.041580229592 -0.20537830464 -0.14879388998 
-0.03884312496 -0.21570226841 -0.090173202214 -0.042001764243 -0.21138169778 -0.14082529369 -0.042435189177 -0.22302307802 -0.12039116041 
-0.034617009549 -0.15233312984 -0.17718481696 -0.03439662728 -0.24029508044 0.022564380136 -0.017404269573 -0.22900460769 0.21775624118 
-0.047347387253 -0.17785132687 -0.2852338079 -0.045862459392 -0.20054753365 -0.21516578889 -0.031274431598 -0.3087843178 0.21637576599 
-0.044626255083 -0.14843738045 -0.31576782016 -0.03475406461 -0.31074028412 0.17560811102 -0.046219625341 -0.17648204488 -0.2736668244 
-0.05654573483 -0.27149153633 -0.19497607748 -0.047095059967 -0.34528905397 0.092824692266 0.0018478240402 -0.11858668622 0.22038437343 
-0.037081463567 -0.20554024119 -0.090063084748 0.0049221695661 -0.067862558231 0.14673334893 -0.049630771944 -0.14648909023 -0.3850588778 
-0.014614465539 -0.073132157168 -0.094945567677 -0.043438412695 -0.26064350881 -0.04919947971 -0.018463447899 -0.15117032644 0.029793552104 
-0.039710635531 -0.33349585542 0.16223507965 -0.050012492842 -0.32271990432 0.0044553240604 -0.056136725762 -0.31838239554 -0.08471117857 
-0.051187935394 -0.15762028281 -0.38034644373 -0.058922075484 -0.33060990341 -0.09347965945 -0.051204027569 -0.16513750329 -0.36372903578 
-0.030354838011 -0.11930562051 -0.19581335341 -0.0016598052827 -0.086442133825 0.10292448924 -0.037301845695 -0.11757822478 -0.28981242734 
-0.02941616003 -0.20626408501 0.011009070715 -0.011151019483 -0.078694200104 -0.037559968881 -0.049691118189 -0.17467894126 -0.32274299177 
-0.048077720637 -0.18449252756 -0.27984402018 -0.045116002396 -0.18638892268 -0.23717300153 -0.012046363759 -0.20964152771 0.24392990427 
-0.024330913827 -0.12337077847 -0.10855790355 -0.028853729697 -0.087229665951 -0.24813483337 -0.060025604118 -0.32070245621 -0.12997353323 
-0.013864017054 -0.057094485722 -0.1211069941 -0.053997688445 -0.32288855369 -0.046872297147 -0.042062021742 -0.19231638855 -0.18428198365 
-0.015015967802 -0.16424861128 0.10379600602 -0.01782582723 -0.23500870861 0.22572612327 -0.054294394937 -0.17612393114 -0.37923288183 
-0.043234207775 -0.35612233491 0.16716524812 
f 3 100 double
-0.13573254998 0.02884737085 2.1427740507 0 0 0 0 0 0 
0 0 0 0 0 0 0 0 0 
0 0 0 0 0 0 0 0 0 
0 0 0 0 0 0 0 0 0 
0 0 0 0 0 0 0 0 0 
0 0 0 0 0 0 0 0 0 
0 0 0 0 0 0 -0.18325225483 -0.03889967601 -0.32950417135 
0 0 0 0 0 0 0 0 0 
0 0 0 0 0 0 0 0 0 
0 0 0 0 0 0 0 0 0 
0 0 0 0 0 0 0 0 0 
0 0 0 0 0 0 0 0 0 
0 0 0 0 0 0 0 0 0 
0 0 0 0 0 0 0 0 0 
0 0 0 0 0 0 0 0 0 
0 0 0 0 0 0 0 0 0 
0 0 0 0 0 0 -0.21396240742 -0.057389632247 0.44305070446 
0 0 0 0 0 0 0 0 0 
0 0 0 0 0 0 0 0 0 
0 0 0 0 0 0 0 0 0 
0 0 0 0 0 0 0 0 0 
0 0 0 0 0 0 0 0 0 
0 0 0 0 0 0 0 0 0 
0 0 0 0 0 0 0 0 0 
0 0 0 0 0 0 0 0 0 
0 0 0 0 0 0 0 0 0 
0 0 0 0 0 0 0 0 0 
0 0 0 0 0 0 0 0 0 
0 0 0 0 0 0 0 0 0 
0 0 0 0 0 0 0 0 0 
0 0 0 0 0 0 0 0 0 
0 0 0 0 0 0 0 0 0 
0 0 0 0 0 0 0 0 0 
0 0 0 
radius 1 100 double
0.010434 0.00981478 0.00892069 0.00845937 0.00731974 0.00728422 0.00643447 0.00619172 0.00585956 
0.00577566 0.00537241 0.00522549 0.00513666 0.00473175 0.00466912 0.00444866 0.00441894 0.00400812 
0.00385622 0.00379948 0.00370243 0.00366942 0.00364039 0.00363813 0.00363644 0.00358692 0.0035797 
0.00341284 0.00337012 0.00336273 0.00332772 0.00323261 0.00320584 0.00320311 0.00318808 0.00313116 
0.00306026 0.00305632 0.00304383 0.00300958 0.00300137 0.00298994 0.0029567 0.00295111 0.00290849 
0.00284552 0.00282964 0.0028207 0.00281971 0.00281899 0.010434 0.00981478 0.00892069 0.00845937 
0.00731974 0.00728422 0.00643447 0.00619172 0.00585956 0.00577566 0.00537241 0.00522549 0.00513666 
0.00473175 0.00466912 0.00444866 0.00441894 0.00400812 0.00385622 0.00379948 0.00370243 0.00366942 
0.00364039 0.00363813 0.00363644 0.00358692 0.0035797 0.00341284 0.00337012 0.00336273 0.00332772 
0.00323261 0.00320584 0.00320311 0.00318808 0.00313116 0.00306026 0.00305632 0.00304383 0.00300958 
0.00300137 0.00298994 0.0029567 0.00295111 0.00290849 0.00284552 0.00282964 0.0028207 0.00281971 
0.00281899 
omega 3 100 double
19.854116697 -4.6122495933 -1.4385384142 19.854116697 -4.6122495933 -1.4385384142 19.854116697 -4.6122495933 -1.4385384142 
19.854116697 -4.6122495933 -1.4385384142 19.854116697 -4.6122495933 -1.4385384142 19.854116697 -4.6122495933 -1.4385384142 
19.854116697 -4.6122495933 -1.4385384142 19.854116697 -4.6122495933 -1.4385384142 19.854116697 -4.6122495933 -1.4385384142 
19.854116697 -4.6122495933 -1.4385384142 19.854116697 -4.6122495933 -1.4385384142 19.854116697 -4.6122495933 -1.4385384142 
19.854116697 -4.6122495933 -1.4385384142 19.854116697 -4.6122495933 -1.4385384142 19.854116697 -4.6122495933 -1.4385384142 
19.854116697 -4.6122495933 -1.4385384142 19.854116697 -4.6122495933 -1.4385384142 19.854116697 -4.6122495933 -1.4385384142 
19.854116697 -4.6122495933 -1.4385384142 19.854116697 -4.6122495933 -1.4385384142 19.854116697 -4.6122495933 -1.4385384142 
19.854116697 -4.6122495933 -1.4385384142 19.854116697 -4.6122495933 -1.4385384142 19.854116697 -4.6122495933 -1.4385384142 
19.854116697 -4.6122495933 -1.4385384142 19.854116697 -4.6122495933 -1.4385384142 19.854116697 -4.6122495933 -1.4385384142 
19.854116697 -4.6122495933 -1.4385384142 19.854116697 -4.6122495933 -1.4385384142 19.854116697 -4.6122495933 -1.4385384142 
19.854116697 -4.6122495933 -1.4385384142 19.854116697 -4.6122495933 -1.4385384142 19.854116697 -4.6122495933 -1.4385384142 
19.854116697 -4.6122495933 -1.4385384142 19.854116697 -4.6122495933 -1.4385384142 19.854116697 -4.6122495933 -1.4385384142 
19.854116697 -4.6122495933 -1.4385384142 19.854116697 -4.6122495933 -1.4385384142 19.854116697 -4.6122495933 -1.4385384142 
19.854116697 -4.6122495933 -1.4385384142 19.854116697 -4.6122495933 -1.4385384142 19.854116697 -4.6122495933 -1.4385384142 
19.854116697 -4.6122495933 -1.4385384142 19.854116697 -4.6122495933 -1.4385384142 19.854116697 -4.6122495933 -1.4385384142 
19.854116697 -4.6122495933 -1.4385384142 19.854116697 -4.6122495933 -1.4385384142 19.854116697 -4.6122495933 -1.4385384142 
19.854116697 -4.6122495933 -1.4385384142 19.854116697 -4.6122495933 -1.4385384142 19.156456167 -3.3049116006 -1.4764926142 
19.156456167 -3.3049116006 -1.4764926142 19.156456167 -3.3049116006 -1.4764926142 19.156456167 -3.3049116006 -1.4764926142 
19.156456167 -3.3049116006 -1.4764926142 19.156456167 -3.3049116006 -1.4764926142 19.156456167 -3.3049116006 -1.4764926142 
19.156456167 -3.3049116006 -1.4764926142 19.156456167 -3.3049116006 -1.4764926142 19.156456167 -3.3049116006 -1.4764926142 
19.156456167 -3.3049116006 -1.4764926142 19.156456167 -3.3049116006 -1.4764926142 19.156456167 -3.3049116006 -1.4764926142 
19.156456167 -3.3049116006 -1.4764926142 19.156456167 -3.3049116006 -1.4764926142 19.156456167 -3.3049116006 -1.4764926142 
19.156456167 -3.3049116006 -1.4764926142 19.156456167 -3.3049116006 -1.4764926142 19.156456167 -3.3049116006 -1.4764926142 
19.156456167 -3.3049116006 -1.4764926142 19.156456167 -3.3049116006 -1.4764926142 19.156456167 -3.3049116006 -1.4764926142 
19.156456167 -3.3049116006 -1.4764926142 19.156456167 -3.3049116006 -1.4764926142 19.156456167 -3.3049116006 -1.4764926142 
19.156456167 -3.3049116006 -1.4764926142 19.156456167 -3.3049116006 -1.4764926142 19.156456167 -3.3049116006 -1.4764926142 
19.156456167 -3.3049116006 -1.4764926142 19.156456167 -3.3049116006 -1.4764926142 19.156456167 -3.3049116006 -1.4764926142 
19.156456167 -3.3049116006 -1.4764926142 19.156456167 -3.3049116006 -1.4764926142 19.156456167 -3.3049116006 -1.4764926142 
19.156456167 -3.3049116006 -1.4764926142 19.156456167 -3.3049116006 -1.4764926142 19.156456167 -3.3049116006 -1.4764926142 
19.156456167 -3.3049116006 -1.4764926142 19.156456167 -3.3049116006 -1.4764926142 19.156456167 -3.3049116006 -1.4764926142 
19.156456167 -3.3049116006 -1.4764926142 19.156456167 -3.3049116006 -1.4764926142 19.156456167 -3.3049116006 -1.4764926142 
19.156456167 -3.3049116006 -1.4764926142 19.156456167 -3.3049116006 -1.4764926142 19.156456167 -3.3049116006 -1.4764926142 
19.156456167 -3.3049116006 -1.4764926142 19.156456167 -3.3049116006 -1.4764926142 19.156456167 -3.3049116006 -1.4764926142 
19.156456167 -3.3049116006 -1.4764926142 
