# vtk DataFile Version 4.1
Generated by LIGGGHTS
ASCII
DATASET POLYDATA
POINTS 100 float
-0.11067 -0.130238 0.0212887 -0.12108 -0.13116 0.0209412 -0.130984 -0.131337 0.0224897 
-0.115156 -0.131727 0.0308106 -0.102257 -0.128834 0.0273981 -0.123884 -0.132655 0.0307919 
-0.135135 -0.133574 0.0302801 -0.10657 -0.133417 0.0315083 -0.139877 -0.13232 0.0233099 
-0.116772 -0.128015 0.012365 -0.119135 -0.134765 0.0377088 -0.1299 -0.134667 0.0347333 
-0.122173 -0.124682 0.0132703 -0.113243 -0.135643 0.0388059 -0.127867 -0.125731 0.015587 
-0.125177 -0.13565 0.0373441 -0.107788 -0.127536 0.0333952 -0.138429 -0.126124 0.0204914 
-0.112198 -0.133054 0.0111888 -0.141847 -0.135257 0.0288588 -0.115513 -0.136732 0.0146775 
-0.116579 -0.136756 0.0424546 -0.103876 -0.136521 0.0265896 -0.0957432 -0.125223 0.0254057 
-0.100082 -0.130972 0.0206903 -0.117471 -0.1231 0.0160411 -0.102326 -0.122577 0.023412 
-0.0979384 -0.122812 0.0277541 -0.120947 -0.136793 0.0424719 -0.120925 -0.125665 0.0291944 
-0.12431 -0.13678 0.0418146 -0.0996735 -0.134245 0.0319307 -0.127421 -0.137865 0.0175219 
-0.10854 -0.136354 0.0370572 -0.145229 -0.134971 0.023842 -0.101544 -0.135458 0.0236155 
-0.12919 -0.136706 0.0399895 -0.109408 -0.132931 0.0371061 -0.136264 -0.136514 0.0359933 
-0.122643 -0.129701 0.011108 -0.128722 -0.137711 0.0286468 -0.110719 -0.137946 0.0347794 
-0.109839 -0.1248 0.0305452 -0.109399 -0.138372 0.028014 -0.138047 -0.12827 0.0274256 
-0.140139 -0.13639 0.0334937 -0.101113 -0.129896 0.0170589 -0.125501 -0.128943 0.0123463 
-0.128001 -0.136873 0.0428353 -0.132413 -0.124112 0.01655 -0.0418033 -0.102451 0.0218918 
-0.0522 -0.103379 0.0212712 -0.0621408 -0.103577 0.0225646 -0.0465293 -0.104021 0.0312837 
-0.0335509 -0.101089 0.0282253 -0.0552534 -0.104957 0.0310346 -0.0664864 -0.10588 0.0302282 
-0.0379628 -0.105709 0.0321869 -0.0710506 -0.104574 0.0231495 -0.047678 -0.100161 0.0128335 
-0.0506801 -0.107118 0.0380533 -0.0613656 -0.107005 0.0348047 -0.0531036 -0.0968401 0.0136274 
-0.0448172 -0.108 0.0392934 -0.058854 -0.0979131 0.0157893 -0.05671 -0.108005 0.0375273 
-0.0392349 -0.0998449 0.0340895 -0.069537 -0.098354 0.020419 -0.0430702 -0.105186 0.0117338 
-0.0731578 -0.107557 0.0286223 -0.0464697 -0.108895 0.0151069 -0.0482443 -0.109146 0.0428466 
-0.03514 -0.108771 0.0273137 -0.026992 -0.0974565 0.0264292 -0.0312025 -0.103171 0.0215583 
-0.0484758 -0.0952763 0.01653 -0.0335242 -0.0948006 0.0242894 -0.029249 -0.0950669 0.0287401 
-0.0526111 -0.109186 0.042752 -0.0522622 -0.0979509 0.0295697 -0.055956 -0.10917 0.0420091 
-0.0310781 -0.106535 0.0327786 -0.0584447 -0.110062 0.017637 -0.04007 -0.108693 0.0376598 
-0.0764113 -0.107234 0.0235232 -0.0327346 -0.107682 0.0244088 -0.060788 -0.109086 0.0400607 
-0.0409434 -0.105271 0.0377141 -0.0677575 -0.108868 0.0358868 -0.0535132 -0.101842 0.0114133 
-0.0600298 -0.109999 0.0287259 -0.0421892 -0.110268 0.0353143 -0.0412148 -0.0970877 0.0312101 
-0.0406956 -0.110638 0.0285815 -0.0693303 -0.100556 0.0273431 -0.0715676 -0.108727 0.03329 
-0.032142 -0.102067 0.0179105 -0.0564023 -0.101097 0.0125843 -0.0596721 -0.109276 0.0429344 
-0.0634248 -0.0963055 0.0166489 
VERTICES 100 200
1 0 
1 1 
1 2 
1 3 
1 4 
1 5 
1 6 
1 7 
1 8 
1 9 
1 10 
1 11 
1 12 
1 13 
1 14 
1 15 
1 16 
1 17 
1 18 
1 19 
1 20 
1 21 
1 22 
1 23 
1 24 
1 25 
1 26 
1 27 
1 28 
1 29 
1 30 
1 31 
1 32 
1 33 
1 34 
1 35 
1 36 
1 37 
1 38 
1 39 
1 40 
1 41 
1 42 
1 43 
1 44 
1 45 
1 46 
1 47 
1 48 
1 49 
1 50 
1 51 
1 52 
1 53 
1 54 
1 55 
1 56 
1 57 
1 58 
1 59 
1 60 
1 61 
1 62 
1 63 
1 64 
1 65 
1 66 
1 67 
1 68 
1 69 
1 70 
1 71 
1 72 
1 73 
1 74 
1 75 
1 76 
1 77 
1 78 
1 79 
1 80 
1 81 
1 82 
1 83 
1 84 
1 85 
1 86 
1 87 
1 88 
1 89 
1 90 
1 91 
1 92 
1 93 
1 94 
1 95 
1 96 
1 97 
1 98 
1 99 

POINT_DATA 100
FIELD FieldData 7
id 1 100 int
1 2 3 4 5 6 7 8 9 
10 11 12 13 14 15 16 17 18 
19 20 21 22 23 24 25 26 27 
28 29 30 31 32 33 34 35 36 
37 38 39 40 41 42 43 44 45 
46 47 48 49 50 51 52 53 54 
55 56 57 58 59 60 61 62 63 
64 65 66 67 68 69 70 71 72 
73 74 75 76 77 78 79 80 81 
82 83 84 85 86 87 88 89 90 
91 92 93 94 95 96 97 98 99 
100 
mol 1 100 int
1 1 1 1 1 1 1 1 1 
1 1 1 1 1 1 1 1 1 
1 1 1 1 1 1 1 1 1 
1 1 1 1 1 1 1 1 1 
1 1 1 1 1 1 1 1 1 
1 1 1 1 1 2 2 2 2 
2 2 2 2 2 2 2 2 2 
2 2 2 2 2 2 2 2 2 
2 2 2 2 2 2 2 2 2 
2 2 2 2 2 2 2 2 2 
2 2 2 2 2 2 2 2 2 
2 
type 1 100 int
1 1 1 1 1 1 1 1 1 
1 1 1 1 1 1 1 1 1 
1 1 1 1 1 1 1 1 1 
1 1 1 1 1 1 1 1 1 
1 1 1 1 1 1 1 1 1 
1 1 1 1 1 1 1 1 1 
1 1 1 1 1 1 1 1 1 
1 1 1 1 1 1 1 1 1 
1 1 1 1 1 1 1 1 1 
1 1 1 1 1 1 1 1 1 
1 1 1 1 1 1 1 1 1 
1 
v 3 100 double
-0.10781908276 -0.060113773076 0.21093072287 -0.10521638961 -0.061260042375 0.13598607291 -0.11604801747 -0.066245109641 0.066128257808 
-0.1743560909 -0.080653347589 0.17637280552 -0.15093390559 -0.071268172678 0.27286347243 -0.17405889099 -0.082179612296 0.11321077654 
-0.17030369004 -0.0831359682 0.032374277801 -0.17894860205 -0.080560365837 0.2331032376 -0.12162663407 -0.069539514704 0.0017023647908 
-0.045611059436 -0.042712464005 0.17272644884 -0.22220845439 -0.095664276345 0.14215917586 -0.2013502087 -0.091427118534 0.066836604926 
-0.052559855661 -0.045557041565 0.14174333528 -0.22974778634 -0.096881751945 0.18167520069 -0.068625316075 -0.051379587718 0.099618903898 
-0.21949112529 -0.09599164806 0.097934616496 -0.19324110728 -0.084689601096 0.2367456551 -0.1029634788 -0.063438128623 0.024707724793 
-0.036455087177 -0.039454456007 0.19437192951 -0.16002985574 -0.081393291061 -0.018201689598 -0.060272275028 -0.047279754737 0.16348923556 
-0.25514716692 -0.10504236329 0.15596193364 -0.14388281557 -0.069882464761 0.24557509772 -0.13760293294 -0.065970826239 0.32604774908 
-0.10348976019 -0.056975399426 0.28369324411 -0.072282929839 -0.05045688871 0.17801017185 -0.12408939018 -0.063018640788 0.28534988604 
-0.15451079715 -0.071231652441 0.31564333957 -0.25526177824 -0.10586125566 0.1252417626 -0.16410438893 -0.078338127434 0.14845762213 
-0.25065224912 -0.10510168946 0.10167675246 -0.18176366518 -0.080199362003 0.27977375572 -0.080025075192 -0.055310012678 0.077599559245 
-0.21735186407 -0.092414148844 0.21319938953 -0.12488411997 -0.071601789802 -0.041340945037 -0.12320770998 -0.06330033415 0.26413389158 
-0.23786126454 -0.10219396232 0.067592285976 -0.21830888535 -0.092671322564 0.21419926048 -0.20985930071 -0.095179637216 0.018361510332 
-0.036489569903 -0.041159670785 0.12804159902 -0.15810296677 -0.078601056525 0.068789008686 -0.20108600115 -0.088083988418 0.19460658307 
-0.17373619504 -0.079150134363 0.22803066796 -0.1535442624 -0.073824870757 0.20299110384 -0.15122785144 -0.0777417162 0.022937021642 
-0.19234417568 -0.090693451507 -0.0085677952448 -0.078205235363 -0.049633719558 0.27868763511 -0.045313469054 -0.044238627882 0.10956385147 
-0.25779665328 -0.10787906319 0.075584809678 -0.075672089961 -0.054190609211 0.07108158953 -0.10723352538 -0.05980255753 0.16324726968 
-0.10275960449 -0.060745636149 0.089713146236 -0.11163191232 -0.065470312311 0.020798178559 -0.17163046908 -0.079831619208 0.12749520627 
-0.15117270699 -0.070888102857 0.22288311128 -0.16971569635 -0.081173518575 0.065471801947 -0.16396241986 -0.081917267462 -0.013818215581 
-0.1774980097 -0.079848385571 0.18311530489 -0.11545193068 -0.068541151344 -0.042627176041 -0.045287648837 -0.042692971367 0.12739858267 
-0.21763150938 -0.09442604124 0.092612742285 -0.19526547615 -0.090105698081 0.019195522782 -0.05146205189 -0.045449859662 0.096732956885 
-0.2259915089 -0.095697618678 0.13123266165 -0.066135204139 -0.051047291072 0.05492716999 -0.21381815687 -0.094636501625 0.049257115741 
-0.19185182052 -0.083972418851 0.1862290697 -0.097949937017 -0.062688624089 -0.019593632983 -0.036644880578 -0.039489629943 0.14897348658 
-0.15253957283 -0.080075664251 -0.063195698956 -0.059107719742 -0.047043444604 0.1180299354 -0.25023806958 -0.10362215685 0.10529208396 
-0.14326341869 -0.069377337307 0.1963659278 -0.13956238627 -0.065860695453 0.27544636675 -0.10478213977 -0.056882978208 0.23484835184 
-0.071798406446 -0.050351390845 0.13179693244 -0.1253767175 -0.062907804207 0.23580770152 -0.1559949877 -0.071020483378 0.26473303911 
-0.24957747344 -0.10435476931 0.075113509202 -0.16110215277 -0.077572320153 0.10028136667 -0.24446061008 -0.10355754326 0.05209225988 
-0.1814015996 -0.079590102678 0.2288918973 -0.076298311988 -0.054704270359 0.033134225649 -0.21458569664 -0.091382905458 0.16254698354 
-0.11746482634 -0.070433113999 -0.084964651707 -0.12347327457 -0.062982660914 0.21514985191 -0.23104964531 -0.1006325301 0.018961559182 
-0.21568455663 -0.091677875879 0.1634608875 -0.20232928531 -0.093651088044 -0.028631392573 -0.035143975476 -0.041050666291 0.083776280707 
-0.15273678373 -0.077506862692 0.022336694315 -0.19808706164 -0.087079306838 0.14474921026 -0.1725910035 -0.078557729406 0.17816981659 
-0.1516064133 -0.073122029406 0.15429417628 -0.14520537307 -0.076673791557 -0.022630222569 -0.18446205332 -0.089196236368 -0.054604767834 
-0.079875253857 -0.049691093267 0.23061162063 -0.04337247977 -0.04403477105 0.065374630325 -0.25081560642 -0.10621884402 0.02626782852 
-0.072400077714 -0.05375643039 0.026682347298 
f 3 100 double
0 0 0 0 0 0 0 0 0 
0 0 0 0 0 0 0 0 0 
0 0 0 0 0 0 0 0 0 
0 0 0 0 0 0 0 0 0 
0 0 0 0 0 0 0 0 0 
0 0 0 0 0 0 0 0 0 
0 0 0 0 0 0 0 0 0 
0 0 0 0 0 0 0 0 0 
0 0 0 0 0 0 0 0 0 
0 0 0 0 0 0 0 0 0 
0 0 0 0 0 0 0 0 0 
0 0 0 0 0 0 0 0 0 
0 0 0 0 0 0 0 0 0 
0 0 0 0 0 0 0 0 0 
0 0 0 0 0 0 0 0 0 
0 0 0 0 0 0 0 0 0 
0 0 0 0 0 0 0 0 0 
0 0 0 0 0 0 0 0 0 
0 0 0 0 0 0 0 0 0 
0 0 0 0 0 0 0 0 0 
0 0 0 0 0 0 0 0 0 
0 0 0 0 0 0 0 0 0 
0 0 0 0 0 0 0 0 0 
0 0 0 0 0 0 0 0 0 
0 0 0 0 0 0 0 0 0 
0 0 0 0 0 0 0 0 0 
0 0 0 0 0 0 0 0 0 
0 0 0 0 0 0 0 0 0 
0 0 0 0 0 0 0 0 0 
0 0 0 0 0 0 0 0 0 
0 0 0 0 0 0 0 0 0 
0 0 0 0 0 0 0 0 0 
0 0 0 0 0 0 0 0 0 
0 0 0 
radius 1 100 double
0.010434 0.00981478 0.00892069 0.00845937 0.00731974 0.00728422 0.00643447 0.00619172 0.00585956 
0.00577566 0.00537241 0.00522549 0.00513666 0.00473175 0.00466912 0.00444866 0.00441894 0.00400812 
0.00385622 0.00379948 0.00370243 0.00366942 0.00364039 0.00363813 0.00363644 0.00358692 0.0035797 
0.00341284 0.00337012 0.00336273 0.00332772 0.00323261 0.00320584 0.00320311 0.00318808 0.00313116 
0.00306026 0.00305632 0.00304383 0.00300958 0.00300137 0.00298994 0.0029567 0.00295111 0.00290849 
0.00284552 0.00282964 0.0028207 0.00281971 0.00281899 0.010434 0.00981478 0.00892069 0.00845937 
0.00731974 0.00728422 0.00643447 0.00619172 0.00585956 0.00577566 0.00537241 0.00522549 0.00513666 
0.00473175 0.00466912 0.00444866 0.00441894 0.00400812 0.00385622 0.00379948 0.00370243 0.00366942 
0.00364039 0.00363813 0.00363644 0.00358692 0.0035797 0.00341284 0.00337012 0.00336273 0.00332772 
0.00323261 0.00320584 0.00320311 0.00318808 0.00313116 0.00306026 0.00305632 0.00304383 0.00300958 
0.00300137 0.00298994 0.0029567 0.00295111 0.00290849 0.00284552 0.00282964 0.0028207 0.00281971 
0.00281899 
omega 3 100 double
2.0726254636 -7.0158222314 0.17928470863 2.0726254636 -7.0158222314 0.17928470863 2.0726254636 -7.0158222314 0.17928470863 
2.0726254636 -7.0158222314 0.17928470863 2.0726254636 -7.0158222314 0.17928470863 2.0726254636 -7.0158222314 0.17928470863 
2.0726254636 -7.0158222314 0.17928470863 2.0726254636 -7.0158222314 0.17928470863 2.0726254636 -7.0158222314 0.17928470863 
2.0726254636 -7.0158222314 0.17928470863 2.0726254636 -7.0158222314 0.17928470863 2.0726254636 -7.0158222314 0.17928470863 
2.0726254636 -7.0158222314 0.17928470863 2.0726254636 -7.0158222314 0.17928470863 2.0726254636 -7.0158222314 0.17928470863 
2.0726254636 -7.0158222314 0.17928470863 2.0726254636 -7.0158222314 0.17928470863 2.0726254636 -7.0158222314 0.17928470863 
2.0726254636 -7.0158222314 0.17928470863 2.0726254636 -7.0158222314 0.17928470863 2.0726254636 -7.0158222314 0.17928470863 
2.0726254636 -7.0158222314 0.17928470863 2.0726254636 -7.0158222314 0.17928470863 2.0726254636 -7.0158222314 0.17928470863 
2.0726254636 -7.0158222314 0.17928470863 2.0726254636 -7.0158222314 0.17928470863 2.0726254636 -7.0158222314 0.17928470863 
2.0726254636 -7.0158222314 0.17928470863 2.0726254636 -7.0158222314 0.17928470863 2.0726254636 -7.0158222314 0.17928470863 
2.0726254636 -7.0158222314 0.17928470863 2.0726254636 -7.0158222314 0.17928470863 2.0726254636 -7.0158222314 0.17928470863 
2.0726254636 -7.0158222314 0.17928470863 2.0726254636 -7.0158222314 0.17928470863 2.0726254636 -7.0158222314 0.17928470863 
2.0726254636 -7.0158222314 0.17928470863 2.0726254636 -7.0158222314 0.17928470863 2.0726254636 -7.0158222314 0.17928470863 
2.0726254636 -7.0158222314 0.17928470863 2.0726254636 -7.0158222314 0.17928470863 2.0726254636 -7.0158222314 0.17928470863 
2.0726254636 -7.0158222314 0.17928470863 2.0726254636 -7.0158222314 0.17928470863 2.0726254636 -7.0158222314 0.17928470863 
2.0726254636 -7.0158222314 0.17928470863 2.0726254636 -7.0158222314 0.17928470863 2.0726254636 -7.0158222314 0.17928470863 
2.0726254636 -7.0158222314 0.17928470863 2.0726254636 -7.0158222314 0.17928470863 2.0260869658 -6.8920411689 0.21166077367 
2.0260869658 -6.8920411689 0.21166077367 2.0260869658 -6.8920411689 0.21166077367 2.0260869658 -6.8920411689 0.21166077367 
2.0260869658 -6.8920411689 0.21166077367 2.0260869658 -6.8920411689 0.21166077367 2.0260869658 -6.8920411689 0.21166077367 
2.0260869658 -6.8920411689 0.21166077367 2.0260869658 -6.8920411689 0.21166077367 2.0260869658 -6.8920411689 0.21166077367 
2.0260869658 -6.8920411689 0.21166077367 2.0260869658 -6.8920411689 0.21166077367 2.0260869658 -6.8920411689 0.21166077367 
2.0260869658 -6.8920411689 0.21166077367 2.0260869658 -6.8920411689 0.21166077367 2.0260869658 -6.8920411689 0.21166077367 
2.0260869658 -6.8920411689 0.21166077367 2.0260869658 -6.8920411689 0.21166077367 2.0260869658 -6.8920411689 0.21166077367 
2.0260869658 -6.8920411689 0.21166077367 2.0260869658 -6.8920411689 0.21166077367 2.0260869658 -6.8920411689 0.21166077367 
2.0260869658 -6.8920411689 0.21166077367 2.0260869658 -6.8920411689 0.21166077367 2.0260869658 -6.8920411689 0.21166077367 
2.0260869658 -6.8920411689 0.21166077367 2.0260869658 -6.8920411689 0.21166077367 2.0260869658 -6.8920411689 0.21166077367 
2.0260869658 -6.8920411689 0.21166077367 2.0260869658 -6.8920411689 0.21166077367 2.0260869658 -6.8920411689 0.21166077367 
2.0260869658 -6.8920411689 0.21166077367 2.0260869658 -6.8920411689 0.21166077367 2.0260869658 -6.8920411689 0.21166077367 
2.0260869658 -6.8920411689 0.21166077367 2.0260869658 -6.8920411689 0.21166077367 2.0260869658 -6.8920411689 0.21166077367 
2.0260869658 -6.8920411689 0.21166077367 2.0260869658 -6.8920411689 0.21166077367 2.0260869658 -6.8920411689 0.21166077367 
2.0260869658 -6.8920411689 0.21166077367 2.0260869658 -6.8920411689 0.21166077367 2.0260869658 -6.8920411689 0.21166077367 
2.0260869658 -6.8920411689 0.21166077367 2.0260869658 -6.8920411689 0.21166077367 2.0260869658 -6.8920411689 0.21166077367 
2.0260869658 -6.8920411689 0.21166077367 2.0260869658 -6.8920411689 0.21166077367 2.0260869658 -6.8920411689 0.21166077367 
2.0260869658 -6.8920411689 0.21166077367 
