# vtk DataFile Version 4.1
Generated by LIGGGHTS
ASCII
DATASET POLYDATA
POINTS 100 float
-0.119989 -0.15852 0.0134485 -0.129692 -0.154686 0.012752 -0.139555 -0.152903 0.0124715 
-0.127233 -0.165715 0.0104873 -0.114045 -0.167161 0.0137071 -0.13545 -0.16273 0.00970515 
-0.145896 -0.158471 0.00905148 -0.119267 -0.168869 0.0085776 -0.148195 -0.150638 0.0115014 
-0.122986 -0.14858 0.0171946 -0.133095 -0.170379 0.00642059 -0.14233 -0.164142 0.00716534 
-0.128516 -0.148213 0.0204144 -0.127837 -0.173165 0.0052861 -0.134608 -0.148367 0.0190851 
-0.13866 -0.167946 0.00569784 -0.121254 -0.171176 0.0140872 -0.146161 -0.149467 0.0180529 
-0.118083 -0.148155 0.0123482 -0.151726 -0.154708 0.00772481 -0.122197 -0.149751 0.00819851 
-0.132122 -0.175313 0.00364036 -0.115017 -0.164656 0.00628078 -0.107382 -0.167984 0.0174976 
-0.109749 -0.161265 0.0126636 -0.125018 -0.152569 0.0214509 -0.113073 -0.164421 0.0205322 
-0.110307 -0.169851 0.0195235 -0.136259 -0.173913 0.00366661 -0.13241 -0.163313 0.0168177 
-0.139231 -0.172215 0.00383794 -0.112844 -0.171359 0.0075882 -0.134334 -0.148377 0.00679315 
-0.122797 -0.17294 0.00480103 -0.153327 -0.148982 0.00887854 -0.111898 -0.162804 0.00778145 
-0.143266 -0.168948 0.00428284 -0.123769 -0.173252 0.00818252 -0.148684 -0.162966 0.00523208 
-0.128072 -0.145242 0.015825 -0.139143 -0.158358 0.00514209 -0.124067 -0.169857 0.00363604 
-0.122386 -0.168292 0.0172834 -0.120629 -0.163904 0.0043047 -0.147942 -0.155716 0.0147945 
-0.151553 -0.159402 0.00582205 -0.109602 -0.157717 0.0143355 -0.131203 -0.145595 0.0164124 
-0.143048 -0.17196 0.00363342 -0.139281 -0.148055 0.0205926 -0.048557 -0.128552 0.0132359 
-0.0587453 -0.126201 0.0133235 -0.0687584 -0.125912 0.0137554 -0.0548463 -0.136664 0.010471 
-0.0413962 -0.136206 0.0127668 -0.0634493 -0.134926 0.010343 -0.0744303 -0.132269 0.0105383 
-0.0466554 -0.138529 0.00792448 -0.0776849 -0.124945 0.0134392 -0.0527204 -0.119289 0.0175576 
-0.0602243 -0.142035 0.00661341 -0.0702052 -0.137281 0.00820228 -0.0580051 -0.119852 0.0211423 
-0.0547053 -0.143965 0.00503056 -0.0640845 -0.12088 0.0202068 -0.0661258 -0.140446 0.00635056 
-0.0478882 -0.141268 0.0134565 -0.0753915 -0.123673 0.0198856 -0.0482875 -0.117991 0.0124233 
-0.0808306 -0.129387 0.00974278 -0.0524011 -0.120065 0.00849026 -0.0587301 -0.146684 0.00358359 
-0.0432474 -0.133659 0.00552395 -0.0344355 -0.136128 0.0160807 -0.0381043 -0.129703 0.0116793 
-0.053837 -0.123661 0.0217767 -0.0403645 -0.133551 0.019617 -0.0369026 -0.138472 0.0182174 
-0.0630169 -0.145922 0.00393399 -0.0598646 -0.135253 0.0172143 -0.0661875 -0.144696 0.00436493 
-0.0400203 -0.139995 0.00642218 -0.0646759 -0.120489 0.00793235 -0.0498011 -0.142971 0.00422805 
-0.0831765 -0.124002 0.0112229 -0.0403386 -0.131404 0.00689037 -0.07062 -0.142087 0.00519963 
-0.0504756 -0.143524 0.0076506 -0.0767833 -0.137018 0.00673413 -0.058328 -0.116715 0.0166543 
-0.068059 -0.131027 0.00620552 -0.0515912 -0.140081 0.00327045 -0.0492071 -0.138681 0.0168307 
-0.0490328 -0.133702 0.00394809 -0.0764531 -0.130021 0.0165063 -0.0800996 -0.133944 0.00764938 
-0.0383661 -0.126223 0.0134766 -0.0613234 -0.117551 0.0174297 -0.0700051 -0.145012 0.00441927 
-0.0686356 -0.121319 0.0220263 
VERTICES 100 200
1 0 
1 1 
1 2 
1 3 
1 4 
1 5 
1 6 
1 7 
1 8 
1 9 
1 10 
1 11 
1 12 
1 13 
1 14 
1 15 
1 16 
1 17 
1 18 
1 19 
1 20 
1 21 
1 22 
1 23 
1 24 
1 25 
1 26 
1 27 
1 28 
1 29 
1 30 
1 31 
1 32 
1 33 
1 34 
1 35 
1 36 
1 37 
1 38 
1 39 
1 40 
1 41 
1 42 
1 43 
1 44 
1 45 
1 46 
1 47 
1 48 
1 49 
1 50 
1 51 
1 52 
1 53 
1 54 
1 55 
1 56 
1 57 
1 58 
1 59 
1 60 
1 61 
1 62 
1 63 
1 64 
1 65 
1 66 
1 67 
1 68 
1 69 
1 70 
1 71 
1 72 
1 73 
1 74 
1 75 
1 76 
1 77 
1 78 
1 79 
1 80 
1 81 
1 82 
1 83 
1 84 
1 85 
1 86 
1 87 
1 88 
1 89 
1 90 
1 91 
1 92 
1 93 
1 94 
1 95 
1 96 
1 97 
1 98 
1 99 

POINT_DATA 100
FIELD FieldData 7
id 1 100 int
1 2 3 4 5 6 7 8 9 
10 11 12 13 14 15 16 17 18 
19 20 21 22 23 24 25 26 27 
28 29 30 31 32 33 34 35 36 
37 38 39 40 41 42 43 44 45 
46 47 48 49 50 51 52 53 54 
55 56 57 58 59 60 61 62 63 
64 65 66 67 68 69 70 71 72 
73 74 75 76 77 78 79 80 81 
82 83 84 85 86 87 88 89 90 
91 92 93 94 95 96 97 98 99 
100 
mol 1 100 int
1 1 1 1 1 1 1 1 1 
1 1 1 1 1 1 1 1 1 
1 1 1 1 1 1 1 1 1 
1 1 1 1 1 1 1 1 1 
1 1 1 1 1 1 1 1 1 
1 1 1 1 1 2 2 2 2 
2 2 2 2 2 2 2 2 2 
2 2 2 2 2 2 2 2 2 
2 2 2 2 2 2 2 2 2 
2 2 2 2 2 2 2 2 2 
2 2 2 2 2 2 2 2 2 
2 
type 1 100 int
1 1 1 1 1 1 1 1 1 
1 1 1 1 1 1 1 1 1 
1 1 1 1 1 1 1 1 1 
1 1 1 1 1 1 1 1 1 
1 1 1 1 1 1 1 1 1 
1 1 1 1 1 1 1 1 1 
1 1 1 1 1 1 1 1 1 
1 1 1 1 1 1 1 1 1 
1 1 1 1 1 1 1 1 1 
1 1 1 1 1 1 1 1 1 
1 1 1 1 1 1 1 1 1 
1 
v 3 100 double
-0.12520064333 -0.057169655003 0.12843441593 -0.12000334687 -0.057520550102 0.054094106199 -0.11794680255 -0.058580334047 -0.024945758522 
-0.099479419606 -0.053415455436 0.056391666503 -0.12601758107 -0.056678227278 0.16362771561 -0.093438679882 -0.053396131471 -0.0069956366643 
-0.088662548089 -0.053932035869 -0.086812989207 -0.083119994308 -0.049044894448 0.11741084076 -0.11023327239 -0.058317108405 -0.093032091569 
-0.15786971205 -0.063794776724 0.11988374128 -0.064959117017 -0.047629132753 -1.9096678899e-07 -0.072111184912 -0.05027885458 -0.066496274259 
-0.18468795432 -0.069945031768 0.074517795757 -0.055099988607 -0.044951762205 0.039113093828 -0.1736156442 -0.068697648098 0.023638218333 
-0.059327239211 -0.047298608583 -0.0422579839 -0.12855763287 -0.058415682984 0.097097954739 -0.16486696501 -0.068781627167 -0.074197466804 
-0.11765492987 -0.055065653014 0.16132641752 -0.078216314581 -0.052648593823 -0.12907206731 -0.082918154987 -0.048873221078 0.12450854233 
-0.041089993887 -0.042905180654 -3.4861500278e-05 -0.064679866419 -0.044610692045 0.15966717718 -0.15739542425 -0.061886460126 0.21765294034 
-0.11825388335 -0.054298943526 0.20902806032 -0.19263122171 -0.071110735573 0.09642526645 -0.1831670284 -0.067756772146 0.17620835418 
-0.17394603534 -0.065670610312 0.19027107131 -0.041524252627 -0.043586535392 -0.032117342023 -0.15246519771 -0.064628513862 0.017315836125 
-0.043210054121 -0.0443267659 -0.054023740404 -0.074512538504 -0.046426437406 0.16669955931 -0.071449463264 -0.048433248521 0.02589471977 
-0.051103021737 -0.043376373385 0.081371056817 -0.088688919276 -0.054793661671 -0.13295959736 -0.077438269186 -0.046598376224 0.18863968969 
-0.04741181099 -0.045681072063 -0.082184654585 -0.079160282337 -0.049089278112 0.072786275615 -0.056224137445 -0.04807846258 -0.11737633339 
-0.14700162736 -0.062326197469 0.083101276151 -0.056187012398 -0.046458727832 -0.030494453645 -0.041895794186 -0.041655571961 0.075893499392 
-0.15556805751 -0.063848611467 0.092434212824 -0.048371461531 -0.042225263951 0.11426354874 -0.13682117399 -0.0636958658 -0.099283369432 
-0.061677437068 -0.049491644512 -0.13536116543 -0.1326977158 -0.05702677208 0.21609485005 -0.1518293416 -0.063775534151 0.056495991007 
-0.041549600251 -0.044579068732 -0.085328693457 -0.18619407148 -0.071898829876 -0.014696975658 -0.1282660083 -0.06982143301 0.15609169013 
-0.13029674612 -0.075716310857 0.078113061731 -0.13399997693 -0.08233016938 -0.003321629395 -0.10106180098 -0.06677337511 0.085269324419 
-0.12014672103 -0.064711477025 0.19666473625 -0.10098270559 -0.07127205651 0.018838012401 -0.10406783871 -0.077864921262 -0.064914853993 
-0.079137067425 -0.056160692246 0.14802261098 -0.13194694761 -0.086562884014 -0.074233595398 -0.16887969788 -0.082396921359 0.14391970593 
-0.066427385379 -0.060624917264 0.028423608754 -0.082111851531 -0.069965217667 -0.042153813926 -0.19796420333 -0.093849946835 0.099245591872 
-0.052368651574 -0.053789506628 0.069107456768 -0.1897184556 -0.095024568413 0.0469474355 -0.065158920765 -0.063295630084 -0.016205206329 
-0.12297743366 -0.069971317921 0.1314156596 -0.18552454865 -0.10057411784 -0.052409335182 -0.1274969984 -0.067743402778 0.18335444968 
-0.09915205886 -0.079550549637 -0.11057002236 -0.094083721492 -0.060710016017 0.14469947427 -0.038984396806 -0.052603836488 0.029650816764 
-0.062168366391 -0.0485640394 0.18752476231 -0.1473671629 -0.068686699515 0.25393407194 -0.11485759957 -0.060294294258 0.23908631642 
-0.20104078446 -0.093028268026 0.12439179294 -0.17780763389 -0.080384745679 0.21142228541 -0.16358267587 -0.075132369838 0.22814161343 
-0.042283287488 -0.055827910496 -0.0036989840632 -0.15715305441 -0.085570446906 0.047461265007 -0.046501746332 -0.058619977742 -0.026793963967 
-0.065998102832 -0.048893379088 0.19896060279 -0.089271169706 -0.066238452509 0.043023954002 -0.046342141736 -0.049148333424 0.11168638622 
-0.1142967574 -0.084371032794 -0.11703547308 -0.074632929884 -0.050181634817 0.2167272554 -0.054803771363 -0.063074190516 -0.056956200388 
-0.074102371041 -0.057643478932 0.10484228014 -0.070218329087 -0.070154565999 -0.095477502284 -0.16290891979 -0.083384423221 0.10403826444 
-0.069226716685 -0.064030710349 -0.0097189191182 -0.040102075382 -0.047876055203 0.10386157297 -0.15209341228 -0.078711442725 0.12673357033 
-0.049220337952 -0.048055414046 0.1399746473 -0.15426752014 -0.093150800301 -0.076172378227 -0.07943992228 -0.074176772012 -0.11538491778 
-0.13154018704 -0.064703784417 0.2451945161 -0.16880105161 -0.086895764934 0.077487919759 -0.046771424283 -0.0608798716 -0.058850607815 
-0.20439504996 -0.10188086735 0.0085823045524 
f 3 100 double
0 0 0 0 0 0 0 0 0 
0 0 0 0 0 0 0 0 0 
0 0 0 0 0 0 0 0 0 
0 0 0 0 0 0 0 0 0 
0 0 0 0 0 0 0 0 0 
0 0 0 0 0 0 0 0 0 
0 0 0 0 0 0 0 0 0 
0.011275135369 0.038075815451 0.07942030974 0 0 0 0 0 0 
0 0 0 0 0 0 0 0 0 
0 0 0 0 0 0 0 0 0 
0 0 0 0 0 0 0 0 0 
0 0 0 0 0 0 0 0 0 
0 0 0 0 0 0 0 0 0 
0 0 0 0 0 0 0 0 0 
0 0 0 0 0 0 0 0 0 
0 0 0 0 0 0 0 0 0 
0 0 0 0 0 0 0 0 0 
0 0 0 0 0 0 0 0 0 
0 0 0 0 0 0 0 0 0 
0 0 0 0 0 0 0 0 0 
0 0 0 0 0 0 0 0 0 
0 0 0 0 0 0 0 0 0 
0 0 0 0 0 0 0 0 0 
0 0 0 0 0 0 0.0055827090785 0.026261280836 0.053696238668 
0 0 0 0 0 0 0 0 0 
0 0 0 0 0 0 0 0 0 
0 0 0 0 0 0 0 0 0 
0 0 0 0 0 0 0 0 0 
0 0 0 0 0 0 0 0 0 
0 0 0 0 0 0 0 0 0 
0 0 0 0 0 0 0 0 0 
0 0 0 0 0 0 0 0 0 
0 0 0 0 0 0 0 0 0 
0 0 0 
radius 1 100 double
0.010434 0.00981478 0.00892069 0.00845937 0.00731974 0.00728422 0.00643447 0.00619172 0.00585956 
0.00577566 0.00537241 0.00522549 0.00513666 0.00473175 0.00466912 0.00444866 0.00441894 0.00400812 
0.00385622 0.00379948 0.00370243 0.00366942 0.00364039 0.00363813 0.00363644 0.00358692 0.0035797 
0.00341284 0.00337012 0.00336273 0.00332772 0.00323261 0.00320584 0.00320311 0.00318808 0.00313116 
0.00306026 0.00305632 0.00304383 0.00300958 0.00300137 0.00298994 0.0029567 0.00295111 0.00290849 
0.00284552 0.00282964 0.0028207 0.00281971 0.00281899 0.010434 0.00981478 0.00892069 0.00845937 
0.00731974 0.00728422 0.00643447 0.00619172 0.00585956 0.00577566 0.00537241 0.00522549 0.00513666 
0.00473175 0.00466912 0.00444866 0.00441894 0.00400812 0.00385622 0.00379948 0.00370243 0.00366942 
0.00364039 0.00363813 0.00363644 0.00358692 0.0035797 0.00341284 0.00337012 0.00336273 0.00332772 
0.00323261 0.00320584 0.00320311 0.00318808 0.00313116 0.00306026 0.00305632 0.00304383 0.00300958 
0.00300137 0.00298994 0.0029567 0.00295111 0.00290849 0.00284552 0.00282964 0.0028207 0.00281971 
0.00281899 
omega 3 100 double
1.6451655029 -8.3115385709 0.15424863078 1.6451655029 -8.3115385709 0.15424863078 1.6451655029 -8.3115385709 0.15424863078 
1.6451655029 -8.3115385709 0.15424863078 1.6451655029 -8.3115385709 0.15424863078 1.6451655029 -8.3115385709 0.15424863078 
1.6451655029 -8.3115385709 0.15424863078 1.6451655029 -8.3115385709 0.15424863078 1.6451655029 -8.3115385709 0.15424863078 
1.6451655029 -8.3115385709 0.15424863078 1.6451655029 -8.3115385709 0.15424863078 1.6451655029 -8.3115385709 0.15424863078 
1.6451655029 -8.3115385709 0.15424863078 1.6451655029 -8.3115385709 0.15424863078 1.6451655029 -8.3115385709 0.15424863078 
1.6451655029 -8.3115385709 0.15424863078 1.6451655029 -8.3115385709 0.15424863078 1.6451655029 -8.3115385709 0.15424863078 
1.6451655029 -8.3115385709 0.15424863078 1.6451655029 -8.3115385709 0.15424863078 1.6451655029 -8.3115385709 0.15424863078 
1.6451655029 -8.3115385709 0.15424863078 1.6451655029 -8.3115385709 0.15424863078 1.6451655029 -8.3115385709 0.15424863078 
1.6451655029 -8.3115385709 0.15424863078 1.6451655029 -8.3115385709 0.15424863078 1.6451655029 -8.3115385709 0.15424863078 
1.6451655029 -8.3115385709 0.15424863078 1.6451655029 -8.3115385709 0.15424863078 1.6451655029 -8.3115385709 0.15424863078 
1.6451655029 -8.3115385709 0.15424863078 1.6451655029 -8.3115385709 0.15424863078 1.6451655029 -8.3115385709 0.15424863078 
1.6451655029 -8.3115385709 0.15424863078 1.6451655029 -8.3115385709 0.15424863078 1.6451655029 -8.3115385709 0.15424863078 
1.6451655029 -8.3115385709 0.15424863078 1.6451655029 -8.3115385709 0.15424863078 1.6451655029 -8.3115385709 0.15424863078 
1.6451655029 -8.3115385709 0.15424863078 1.6451655029 -8.3115385709 0.15424863078 1.6451655029 -8.3115385709 0.15424863078 
1.6451655029 -8.3115385709 0.15424863078 1.6451655029 -8.3115385709 0.15424863078 1.6451655029 -8.3115385709 0.15424863078 
1.6451655029 -8.3115385709 0.15424863078 1.6451655029 -8.3115385709 0.15424863078 1.6451655029 -8.3115385709 0.15424863078 
1.6451655029 -8.3115385709 0.15424863078 1.6451655029 -8.3115385709 0.15424863078 2.3720923431 -8.2011807903 0.55820244885 
2.3720923431 -8.2011807903 0.55820244885 2.3720923431 -8.2011807903 0.55820244885 2.3720923431 -8.2011807903 0.55820244885 
2.3720923431 -8.2011807903 0.55820244885 2.3720923431 -8.2011807903 0.55820244885 2.3720923431 -8.2011807903 0.55820244885 
2.3720923431 -8.2011807903 0.55820244885 2.3720923431 -8.2011807903 0.55820244885 2.3720923431 -8.2011807903 0.55820244885 
2.3720923431 -8.2011807903 0.55820244885 2.3720923431 -8.2011807903 0.55820244885 2.3720923431 -8.2011807903 0.55820244885 
2.3720923431 -8.2011807903 0.55820244885 2.3720923431 -8.2011807903 0.55820244885 2.3720923431 -8.2011807903 0.55820244885 
2.3720923431 -8.2011807903 0.55820244885 2.3720923431 -8.2011807903 0.55820244885 2.3720923431 -8.2011807903 0.55820244885 
2.3720923431 -8.2011807903 0.55820244885 2.3720923431 -8.2011807903 0.55820244885 2.3720923431 -8.2011807903 0.55820244885 
2.3720923431 -8.2011807903 0.55820244885 2.3720923431 -8.2011807903 0.55820244885 2.3720923431 -8.2011807903 0.55820244885 
2.3720923431 -8.2011807903 0.55820244885 2.3720923431 -8.2011807903 0.55820244885 2.3720923431 -8.2011807903 0.55820244885 
2.3720923431 -8.2011807903 0.55820244885 2.3720923431 -8.2011807903 0.55820244885 2.3720923431 -8.2011807903 0.55820244885 
2.3720923431 -8.2011807903 0.55820244885 2.3720923431 -8.2011807903 0.55820244885 2.3720923431 -8.2011807903 0.55820244885 
2.3720923431 -8.2011807903 0.55820244885 2.3720923431 -8.2011807903 0.55820244885 2.3720923431 -8.2011807903 0.55820244885 
2.3720923431 -8.2011807903 0.55820244885 2.3720923431 -8.2011807903 0.55820244885 2.3720923431 -8.2011807903 0.55820244885 
2.3720923431 -8.2011807903 0.55820244885 2.3720923431 -8.2011807903 0.55820244885 2.3720923431 -8.2011807903 0.55820244885 
2.3720923431 -8.2011807903 0.55820244885 2.3720923431 -8.2011807903 0.55820244885 2.3720923431 -8.2011807903 0.55820244885 
2.3720923431 -8.2011807903 0.55820244885 2.3720923431 -8.2011807903 0.55820244885 2.3720923431 -8.2011807903 0.55820244885 
2.3720923431 -8.2011807903 0.55820244885 
