# vtk DataFile Version 4.1
Generated by LIGGGHTS
ASCII
DATASET POLYDATA
POINTS 100 float
-0.110886 -0.130358 0.0216913 -0.12129 -0.131282 0.021194 -0.131215 -0.13147 0.0226025 
-0.115505 -0.131888 0.0311431 -0.102561 -0.128976 0.027924 -0.124232 -0.13282 0.0309981 
-0.135474 -0.13374 0.0303247 -0.106929 -0.133578 0.0319543 -0.140118 -0.132458 0.0232938 
-0.116864 -0.1281 0.0126922 -0.119579 -0.134956 0.0379722 -0.130301 -0.13485 0.0348464 
-0.122278 -0.124773 0.0135353 -0.113703 -0.135837 0.0391483 -0.128004 -0.125834 0.0157675 
-0.125615 -0.135841 0.0375191 -0.108176 -0.127706 0.0338482 -0.138633 -0.12625 0.0205216 
-0.112272 -0.133133 0.0115594 -0.142164 -0.135419 0.0288023 -0.115634 -0.136827 0.0149861 
-0.117089 -0.136966 0.0427452 -0.104165 -0.136661 0.0270611 -0.096021 -0.125355 0.0260382 
-0.100291 -0.131087 0.0212387 -0.117616 -0.123201 0.0163783 -0.102576 -0.122704 0.0239632 
-0.0982498 -0.122955 0.0283654 -0.121457 -0.137005 0.042701 -0.121254 -0.125822 0.0294712 
-0.12481 -0.13699 0.0419966 -0.100039 -0.134406 0.0324701 -0.12758 -0.137975 0.0176584 
-0.108975 -0.136539 0.0374628 -0.145476 -0.135114 0.0237398 -0.101792 -0.135585 0.0241244 
-0.129664 -0.13691 0.0401035 -0.109846 -0.133116 0.0375137 -0.136681 -0.136704 0.0360093 
-0.122716 -0.129783 0.0113459 -0.129037 -0.137868 0.0287645 -0.111122 -0.138122 0.0351482 
-0.110188 -0.124959 0.030981 -0.109706 -0.13852 0.0284002 -0.138348 -0.128425 0.0274515 
-0.140521 -0.136571 0.033456 -0.101271 -0.129996 0.0175976 -0.125591 -0.129032 0.0125472 
-0.128516 -0.137089 0.042965 -0.132563 -0.12422 0.0166733 -0.0420186 -0.102571 0.0221991 
-0.0524053 -0.1035 0.0214314 -0.0623629 -0.103708 0.0225868 -0.0468729 -0.10418 0.0315185 
-0.0338549 -0.101231 0.0286512 -0.0555923 -0.105119 0.0311454 -0.0668127 -0.106044 0.0301805 
-0.0383189 -0.105869 0.0325329 -0.0712794 -0.104711 0.0230448 -0.047769 -0.100246 0.0130699 
-0.0511152 -0.107306 0.0382177 -0.061755 -0.107185 0.0348225 -0.0532065 -0.0969312 0.0138023 
-0.0452695 -0.108191 0.0395349 -0.0589857 -0.0980152 0.0158804 -0.0571369 -0.108194 0.037605 
-0.0396198 -0.100013 0.0344414 -0.0697313 -0.0984793 0.0203606 -0.0431441 -0.105266 0.0120136 
-0.0734606 -0.107717 0.028476 -0.046588 -0.108989 0.0153245 -0.0487447 -0.109353 0.0430359 
-0.0354277 -0.10891 0.0276868 -0.0272736 -0.0975886 0.0269603 -0.0314139 -0.103286 0.0220088 
-0.0486199 -0.0953772 0.0167748 -0.0337769 -0.0949267 0.0247414 -0.0295633 -0.0952093 0.0292495 
-0.0531098 -0.109395 0.042881 -0.0525845 -0.098106 0.0297501 -0.0564442 -0.109377 0.0420921 
-0.0314426 -0.106694 0.0332162 -0.0585963 -0.110171 0.0176846 -0.0405 -0.108875 0.0379641 
-0.0766436 -0.107375 0.0233339 -0.0329831 -0.107808 0.0248197 -0.0612489 -0.109287 0.0400775 
-0.0413756 -0.105454 0.0380202 -0.0681602 -0.109055 0.0358089 -0.0535832 -0.101924 0.0115626 
-0.0603341 -0.110154 0.0287507 -0.0425858 -0.110442 0.0355833 -0.0415611 -0.0972449 0.0315462 
-0.0409994 -0.110784 0.0288703 -0.069619 -0.100709 0.027278 -0.0719342 -0.108905 0.0331604 
-0.0323036 -0.102166 0.0183529 -0.0564885 -0.101185 0.0126967 -0.0601726 -0.109488 0.0429656 
-0.0635686 -0.096413 0.0166834 
VERTICES 100 200
1 0 
1 1 
1 2 
1 3 
1 4 
1 5 
1 6 
1 7 
1 8 
1 9 
1 10 
1 11 
1 12 
1 13 
1 14 
1 15 
1 16 
1 17 
1 18 
1 19 
1 20 
1 21 
1 22 
1 23 
1 24 
1 25 
1 26 
1 27 
1 28 
1 29 
1 30 
1 31 
1 32 
1 33 
1 34 
1 35 
1 36 
1 37 
1 38 
1 39 
1 40 
1 41 
1 42 
1 43 
1 44 
1 45 
1 46 
1 47 
1 48 
1 49 
1 50 
1 51 
1 52 
1 53 
1 54 
1 55 
1 56 
1 57 
1 58 
1 59 
1 60 
1 61 
1 62 
1 63 
1 64 
1 65 
1 66 
1 67 
1 68 
1 69 
1 70 
1 71 
1 72 
1 73 
1 74 
1 75 
1 76 
1 77 
1 78 
1 79 
1 80 
1 81 
1 82 
1 83 
1 84 
1 85 
1 86 
1 87 
1 88 
1 89 
1 90 
1 91 
1 92 
1 93 
1 94 
1 95 
1 96 
1 97 
1 98 
1 99 

POINT_DATA 100
FIELD FieldData 7
id 1 100 int
1 2 3 4 5 6 7 8 9 
10 11 12 13 14 15 16 17 18 
19 20 21 22 23 24 25 26 27 
28 29 30 31 32 33 34 35 36 
37 38 39 40 41 42 43 44 45 
46 47 48 49 50 51 52 53 54 
55 56 57 58 59 60 61 62 63 
64 65 66 67 68 69 70 71 72 
73 74 75 76 77 78 79 80 81 
82 83 84 85 86 87 88 89 90 
91 92 93 94 95 96 97 98 99 
100 
mol 1 100 int
1 1 1 1 1 1 1 1 1 
1 1 1 1 1 1 1 1 1 
1 1 1 1 1 1 1 1 1 
1 1 1 1 1 1 1 1 1 
1 1 1 1 1 1 1 1 1 
1 1 1 1 1 2 2 2 2 
2 2 2 2 2 2 2 2 2 
2 2 2 2 2 2 2 2 2 
2 2 2 2 2 2 2 2 2 
2 2 2 2 2 2 2 2 2 
2 2 2 2 2 2 2 2 2 
2 
type 1 100 int
1 1 1 1 1 1 1 1 1 
1 1 1 1 1 1 1 1 1 
1 1 1 1 1 1 1 1 1 
1 1 1 1 1 1 1 1 1 
1 1 1 1 1 1 1 1 1 
1 1 1 1 1 1 1 1 1 
1 1 1 1 1 1 1 1 1 
1 1 1 1 1 1 1 1 1 
1 1 1 1 1 1 1 1 1 
1 1 1 1 1 1 1 1 1 
1 1 1 1 1 1 1 1 1 
1 
v 3 100 double
-0.10867851489 -0.060283342365 0.19173303201 -0.10500824604 -0.06128481119 0.11680920137 -0.11485804756 -0.066114796738 0.046757713637 
-0.17472230108 -0.080631209117 0.15616856707 -0.15269446067 -0.071488123718 0.25301354413 -0.17352349434 -0.082031345677 0.092997582411 
-0.1686177248 -0.082833563173 0.012196787614 -0.18008736081 -0.080631544719 0.21288133668 -0.11951780135 -0.069269980832 -0.017766462568 
-0.045953433908 -0.04292899156 0.1544249579 -0.22205864472 -0.095476565341 0.12125823139 -0.20013886219 -0.091131124181 0.04621848041 
-0.052518910166 -0.045717649215 0.12326880984 -0.2301415941 -0.096752826551 0.16069099054 -0.067980192365 -0.051425226857 0.08089721541 
-0.21870591417 -0.095718914509 0.077069418796 -0.19452328888 -0.08477126253 0.21621358039 -0.10126753454 -0.063276312888 0.005435005176 
-0.037023245404 -0.039704420955 0.17630017825 -0.15760547346 -0.081003046764 -0.038218298597 -0.060356142142 -0.047409951215 0.14509906724 
-0.25516850965 -0.10481338758 0.13459657248 -0.14514195825 -0.070024591859 0.22594313349 -0.14016246477 -0.066334799387 0.30636736817 
-0.10535947836 -0.057289720049 0.26460590423 -0.072779938109 -0.050660474452 0.15922583874 -0.12611411725 -0.063340729891 0.26581516963 
-0.15696442358 -0.071557386842 0.29566196156 -0.25485094498 -0.10557250171 0.10386147496 -0.16416786335 -0.078309730533 0.12830052234 
-0.2499094803 -0.10477558827 0.080355994203 -0.18354627255 -0.08035175648 0.25954304646 -0.078889382258 -0.055233695296 0.058887714289 
-0.21817507618 -0.092364617628 0.19242970645 -0.12213106521 -0.07123032968 -0.06083643415 -0.12473908693 -0.063520081662 0.24480862078 
-0.23663783683 -0.1018249331 0.046450162142 -0.21919819471 -0.092638742954 0.19336081662 -0.20794077028 -0.094765858628 -0.0023786439255 
-0.03617650857 -0.041297695441 0.10988610823 -0.15686328084 -0.078370429595 0.048879925923 -0.20162021575 -0.088019490195 0.17410205896 
-0.17493298746 -0.07926278227 0.20774852546 -0.15417920306 -0.073858550234 0.18322222772 -0.14948533246 -0.077480679312 0.0029616234766 
-0.19004522679 -0.090259175888 -0.029054859227 -0.080015260209 -0.049988314142 0.25996651727 -0.044754229122 -0.044329027043 0.091253410022 
-0.25668744835 -0.10748942649 0.054144891372 -0.074652090469 -0.054176520499 0.052213802037 -0.10807357084 -0.059968815139 0.14401210492 
-0.10257033607 -0.060771619123 0.070524857885 -0.1104902385 -0.065344997114 0.0014474691837 -0.17196868381 -0.079807616091 0.10730411562 
-0.15286478263 -0.07110016733 0.20299666618 -0.16918396724 -0.081027226156 0.045294878114 -0.16232168363 -0.081621706021 -0.033931910715 
-0.17858170993 -0.079915066268 0.16288988589 -0.11342133991 -0.068280455322 -0.062049269321 -0.045651577261 -0.042908464576 0.10903704424 
-0.21745446068 -0.09423871156 0.071766022324 -0.19407149884 -0.089814549241 -0.0013530773759 -0.051450596516 -0.045609891073 0.078211171035 
-0.22633708872 -0.095567071477 0.11029329662 -0.065534601447 -0.051094821385 0.036183027901 -0.21302918968 -0.094366956475 0.02846108503 
-0.19306406521 -0.084047118631 0.16569624689 -0.096321063932 -0.062532488123 -0.038842446383 -0.03723416825 -0.039739248689 0.13083215461 
-0.15019102585 -0.079695814239 -0.083134986756 -0.059222449823 -0.047175937144 0.099597047072 -0.2502145994 -0.10339299747 0.083995749138 
-0.14447963471 -0.069515877041 0.17670841951 -0.1420287904 -0.066212767049 0.25570051548 -0.10660013923 -0.057190262726 0.21569548957 
-0.072297461308 -0.050551539138 0.11296230224 -0.12733011049 -0.063219534388 0.21621279833 -0.15835061377 -0.071333802957 0.24469777816 
-0.24913660622 -0.10406755048 0.05381336256 -0.16114770205 -0.077541652325 0.080137658454 -0.24370100437 -0.10323435119 0.030857512581 
-0.18310657802 -0.07973565108 0.20864304604 -0.075228172029 -0.054635123449 0.014422294421 -0.21535144346 -0.091330432481 0.14180436944 
-0.1148126918 -0.070073759325 -0.10439436791 -0.12495989135 -0.063197727665 0.19578010035 -0.22983089416 -0.10026846973 -0.0020895257205 
-0.21651127607 -0.091641092601 0.14264740787 -0.20045027795 -0.093245365977 -0.049278632157 -0.034879775257 -0.041190863829 0.065572801143 
-0.15153491526 -0.077282677846 0.002474267927 -0.19858135647 -0.087013697537 0.12427038926 -0.17372659172 -0.078663238279 0.15787731801 
-0.15221728197 -0.073154989036 0.13452167895 -0.14351379712 -0.076418560303 -0.042552645889 -0.18222255907 -0.088771732214 -0.074999133859 
-0.081644923251 -0.050038932315 0.21181191354 -0.042866457166 -0.044127974734 0.047027263851 -0.24969932611 -0.10583349296 0.0049273457161 
-0.071433447979 -0.053745150171 0.0078052120691 
f 3 100 double
0 0 0 0 0 0 0 0 0 
0 0 0 0 0 0 0 0 0 
0 0 0 0 0 0 0 0 0 
0 0 0 0 0 0 0 0 0 
0 0 0 0 0 0 0 0 0 
0 0 0 0 0 0 0 0 0 
0 0 0 0 0 0 0 0 0 
0 0 0 0 0 0 0 0 0 
0 0 0 0 0 0 0 0 0 
0 0 0 0 0 0 0 0 0 
0 0 0 0 0 0 0 0 0 
0 0 0 0 0 0 0 0 0 
0 0 0 0 0 0 0 0 0 
0 0 0 0 0 0 0 0 0 
0 0 0 0 0 0 0 0 0 
0 0 0 0 0 0 0 0 0 
0 0 0 0 0 0 0 0 0 
0 0 0 0 0 0 0 0 0 
0 0 0 0 0 0 0 0 0 
0 0 0 0 0 0 0 0 0 
0 0 0 0 0 0 0 0 0 
0 0 0 0 0 0 0 0 0 
0 0 0 0 0 0 0 0 0 
0 0 0 0 0 0 0 0 0 
0 0 0 0 0 0 0 0 0 
0 0 0 0 0 0 0 0 0 
0 0 0 0 0 0 0 0 0 
0 0 0 0 0 0 0 0 0 
0 0 0 0 0 0 0 0 0 
0 0 0 0 0 0 0 0 0 
0 0 0 0 0 0 0 0 0 
0 0 0 0 0 0 0 0 0 
0 0 0 0 0 0 0 0 0 
0 0 0 
radius 1 100 double
0.010434 0.00981478 0.00892069 0.00845937 0.00731974 0.00728422 0.00643447 0.00619172 0.00585956 
0.00577566 0.00537241 0.00522549 0.00513666 0.00473175 0.00466912 0.00444866 0.00441894 0.00400812 
0.00385622 0.00379948 0.00370243 0.00366942 0.00364039 0.00363813 0.00363644 0.00358692 0.0035797 
0.00341284 0.00337012 0.00336273 0.00332772 0.00323261 0.00320584 0.00320311 0.00318808 0.00313116 
0.00306026 0.00305632 0.00304383 0.00300958 0.00300137 0.00298994 0.0029567 0.00295111 0.00290849 
0.00284552 0.00282964 0.0028207 0.00281971 0.00281899 0.010434 0.00981478 0.00892069 0.00845937 
0.00731974 0.00728422 0.00643447 0.00619172 0.00585956 0.00577566 0.00537241 0.00522549 0.00513666 
0.00473175 0.00466912 0.00444866 0.00441894 0.00400812 0.00385622 0.00379948 0.00370243 0.00366942 
0.00364039 0.00363813 0.00363644 0.00358692 0.0035797 0.00341284 0.00337012 0.00336273 0.00332772 
0.00323261 0.00320584 0.00320311 0.00318808 0.00313116 0.00306026 0.00305632 0.00304383 0.00300958 
0.00300137 0.00298994 0.0029567 0.00295111 0.00290849 0.00284552 0.00282964 0.0028207 0.00281971 
0.00281899 
omega 3 100 double
2.057711954 -7.0189478143 0.19461916684 2.057711954 -7.0189478143 0.19461916684 2.057711954 -7.0189478143 0.19461916684 
2.057711954 -7.0189478143 0.19461916684 2.057711954 -7.0189478143 0.19461916684 2.057711954 -7.0189478143 0.19461916684 
2.057711954 -7.0189478143 0.19461916684 2.057711954 -7.0189478143 0.19461916684 2.057711954 -7.0189478143 0.19461916684 
2.057711954 -7.0189478143 0.19461916684 2.057711954 -7.0189478143 0.19461916684 2.057711954 -7.0189478143 0.19461916684 
2.057711954 -7.0189478143 0.19461916684 2.057711954 -7.0189478143 0.19461916684 2.057711954 -7.0189478143 0.19461916684 
2.057711954 -7.0189478143 0.19461916684 2.057711954 -7.0189478143 0.19461916684 2.057711954 -7.0189478143 0.19461916684 
2.057711954 -7.0189478143 0.19461916684 2.057711954 -7.0189478143 0.19461916684 2.057711954 -7.0189478143 0.19461916684 
2.057711954 -7.0189478143 0.19461916684 2.057711954 -7.0189478143 0.19461916684 2.057711954 -7.0189478143 0.19461916684 
2.057711954 -7.0189478143 0.19461916684 2.057711954 -7.0189478143 0.19461916684 2.057711954 -7.0189478143 0.19461916684 
2.057711954 -7.0189478143 0.19461916684 2.057711954 -7.0189478143 0.19461916684 2.057711954 -7.0189478143 0.19461916684 
2.057711954 -7.0189478143 0.19461916684 2.057711954 -7.0189478143 0.19461916684 2.057711954 -7.0189478143 0.19461916684 
2.057711954 -7.0189478143 0.19461916684 2.057711954 -7.0189478143 0.19461916684 2.057711954 -7.0189478143 0.19461916684 
2.057711954 -7.0189478143 0.19461916684 2.057711954 -7.0189478143 0.19461916684 2.057711954 -7.0189478143 0.19461916684 
2.057711954 -7.0189478143 0.19461916684 2.057711954 -7.0189478143 0.19461916684 2.057711954 -7.0189478143 0.19461916684 
2.057711954 -7.0189478143 0.19461916684 2.057711954 -7.0189478143 0.19461916684 2.057711954 -7.0189478143 0.19461916684 
2.057711954 -7.0189478143 0.19461916684 2.057711954 -7.0189478143 0.19461916684 2.057711954 -7.0189478143 0.19461916684 
2.057711954 -7.0189478143 0.19461916684 2.057711954 -7.0189478143 0.19461916684 2.0110791456 -6.8951508903 0.22592893263 
2.0110791456 -6.8951508903 0.22592893263 2.0110791456 -6.8951508903 0.22592893263 2.0110791456 -6.8951508903 0.22592893263 
2.0110791456 -6.8951508903 0.22592893263 2.0110791456 -6.8951508903 0.22592893263 2.0110791456 -6.8951508903 0.22592893263 
2.0110791456 -6.8951508903 0.22592893263 2.0110791456 -6.8951508903 0.22592893263 2.0110791456 -6.8951508903 0.22592893263 
2.0110791456 -6.8951508903 0.22592893263 2.0110791456 -6.8951508903 0.22592893263 2.0110791456 -6.8951508903 0.22592893263 
2.0110791456 -6.8951508903 0.22592893263 2.0110791456 -6.8951508903 0.22592893263 2.0110791456 -6.8951508903 0.22592893263 
2.0110791456 -6.8951508903 0.22592893263 2.0110791456 -6.8951508903 0.22592893263 2.0110791456 -6.8951508903 0.22592893263 
2.0110791456 -6.8951508903 0.22592893263 2.0110791456 -6.8951508903 0.22592893263 2.0110791456 -6.8951508903 0.22592893263 
2.0110791456 -6.8951508903 0.22592893263 2.0110791456 -6.8951508903 0.22592893263 2.0110791456 -6.8951508903 0.22592893263 
2.0110791456 -6.8951508903 0.22592893263 2.0110791456 -6.8951508903 0.22592893263 2.0110791456 -6.8951508903 0.22592893263 
2.0110791456 -6.8951508903 0.22592893263 2.0110791456 -6.8951508903 0.22592893263 2.0110791456 -6.8951508903 0.22592893263 
2.0110791456 -6.8951508903 0.22592893263 2.0110791456 -6.8951508903 0.22592893263 2.0110791456 -6.8951508903 0.22592893263 
2.0110791456 -6.8951508903 0.22592893263 2.0110791456 -6.8951508903 0.22592893263 2.0110791456 -6.8951508903 0.22592893263 
2.0110791456 -6.8951508903 0.22592893263 2.0110791456 -6.8951508903 0.22592893263 2.0110791456 -6.8951508903 0.22592893263 
2.0110791456 -6.8951508903 0.22592893263 2.0110791456 -6.8951508903 0.22592893263 2.0110791456 -6.8951508903 0.22592893263 
2.0110791456 -6.8951508903 0.22592893263 2.0110791456 -6.8951508903 0.22592893263 2.0110791456 -6.8951508903 0.22592893263 
2.0110791456 -6.8951508903 0.22592893263 2.0110791456 -6.8951508903 0.22592893263 2.0110791456 -6.8951508903 0.22592893263 
2.0110791456 -6.8951508903 0.22592893263 
