# vtk DataFile Version 4.1
Generated by LIGGGHTS
ASCII
DATASET POLYDATA
POINTS 100 float
-0.11974 -0.158405 0.0131733 -0.129452 -0.15457 0.0126253 -0.139318 -0.152784 0.012503 
-0.127034 -0.165608 0.0103589 -0.113794 -0.167046 0.0133632 -0.135262 -0.162622 0.00970336 
-0.145717 -0.158363 0.00920903 -0.119102 -0.168771 0.00832766 -0.147972 -0.15052 0.0116692 
-0.122671 -0.148451 0.0169337 -0.132963 -0.170284 0.00640701 -0.142183 -0.164041 0.00728369 
-0.128147 -0.14807 0.020244 -0.127726 -0.173076 0.00519482 -0.134259 -0.148227 0.0190171 
-0.13854 -0.167851 0.00576863 -0.120997 -0.171057 0.0138778 -0.145829 -0.149327 0.0181817 
-0.11785 -0.148044 0.0120048 -0.151566 -0.154603 0.00796652 -0.122033 -0.149653 0.00792995 
-0.132039 -0.175228 0.00362839 -0.114889 -0.164567 0.00594537 -0.107069 -0.167858 0.0170449 
-0.109515 -0.161155 0.0122274 -0.124633 -0.152424 0.0212374 -0.112708 -0.164282 0.0201614 
-0.10996 -0.169716 0.0191259 -0.136175 -0.173826 0.00371872 -0.132104 -0.163181 0.0167662 
-0.139143 -0.172127 0.00393361 -0.112697 -0.171266 0.00724003 -0.134191 -0.14828 0.00672244 
-0.122696 -0.172854 0.00462493 -0.153147 -0.148872 0.00912656 -0.111745 -0.162711 0.00738723 
-0.143169 -0.168857 0.00443422 -0.12361 -0.173154 0.00802323 -0.148569 -0.16287 0.00545258 
-0.127778 -0.145115 0.0156374 -0.139029 -0.158266 0.00518713 -0.123983 -0.169774 0.00347039 
-0.122075 -0.168162 0.0170822 -0.120533 -0.163821 0.00406055 -0.147666 -0.155586 0.0149756 
-0.151427 -0.159304 0.00607775 -0.109338 -0.157601 0.0138841 -0.130899 -0.145465 0.0162782 
-0.142962 -0.171872 0.00379191 -0.138907 -0.147908 0.0206013 -0.0483012 -0.128408 0.0129093 
-0.0584842 -0.126045 0.0131518 -0.0684886 -0.125743 0.0137473 -0.0546436 -0.136528 0.0102946 
-0.0411569 -0.136072 0.0123654 -0.0632458 -0.134781 0.0102988 -0.0742193 -0.13211 0.0106603 
-0.0464978 -0.138416 0.0076238 -0.0774181 -0.124766 0.013573 -0.0523831 -0.119116 0.0172466 
-0.0600901 -0.141915 0.00655681 -0.0700385 -0.13714 0.00828328 -0.0576085 -0.119652 0.0209212 
-0.0546 -0.14386 0.00489401 -0.0637036 -0.120679 0.0200921 -0.0659935 -0.14032 0.00638242 
-0.0476418 -0.141122 0.0131909 -0.0750172 -0.123461 0.0199734 -0.0480343 -0.117852 0.0120326 
-0.0806289 -0.129226 0.00995425 -0.0522144 -0.119943 0.00817977 -0.0586509 -0.146582 0.00352911 
-0.0431249 -0.133564 0.00513979 -0.0341424 -0.135983 0.0155634 -0.0378768 -0.129579 0.0111869 
-0.0534344 -0.123463 0.0215083 -0.0400096 -0.13338 0.0191824 -0.0365763 -0.138312 0.0177538 
-0.0629306 -0.145814 0.00394591 -0.0595484 -0.135074 0.0171117 -0.0660923 -0.144582 0.00442219 
-0.0398899 -0.139898 0.0060205 -0.0644972 -0.120357 0.00782699 -0.0497086 -0.142876 0.00400503 
-0.0829445 -0.123831 0.0114424 -0.0401917 -0.131305 0.0064452 -0.0705077 -0.141963 0.00531516 
-0.0503271 -0.143409 0.00744133 -0.0766397 -0.136878 0.00692246 -0.0580023 -0.11654 0.0164215 
-0.0679192 -0.130901 0.00621597 -0.0515113 -0.139989 0.00306076 -0.0489022 -0.138516 0.0165717 
-0.0489356 -0.133609 0.00365992 -0.076141 -0.129826 0.0166481 -0.0799373 -0.133796 0.00787491 
-0.0381053 -0.126089 0.0129685 -0.0609853 -0.117369 0.0172509 -0.0699088 -0.144893 0.00454133 
-0.0682245 -0.121102 0.0219888 
VERTICES 100 200
1 0 
1 1 
1 2 
1 3 
1 4 
1 5 
1 6 
1 7 
1 8 
1 9 
1 10 
1 11 
1 12 
1 13 
1 14 
1 15 
1 16 
1 17 
1 18 
1 19 
1 20 
1 21 
1 22 
1 23 
1 24 
1 25 
1 26 
1 27 
1 28 
1 29 
1 30 
1 31 
1 32 
1 33 
1 34 
1 35 
1 36 
1 37 
1 38 
1 39 
1 40 
1 41 
1 42 
1 43 
1 44 
1 45 
1 46 
1 47 
1 48 
1 49 
1 50 
1 51 
1 52 
1 53 
1 54 
1 55 
1 56 
1 57 
1 58 
1 59 
1 60 
1 61 
1 62 
1 63 
1 64 
1 65 
1 66 
1 67 
1 68 
1 69 
1 70 
1 71 
1 72 
1 73 
1 74 
1 75 
1 76 
1 77 
1 78 
1 79 
1 80 
1 81 
1 82 
1 83 
1 84 
1 85 
1 86 
1 87 
1 88 
1 89 
1 90 
1 91 
1 92 
1 93 
1 94 
1 95 
1 96 
1 97 
1 98 
1 99 

POINT_DATA 100
FIELD FieldData 7
id 1 100 int
1 2 3 4 5 6 7 8 9 
10 11 12 13 14 15 16 17 18 
19 20 21 22 23 24 25 26 27 
28 29 30 31 32 33 34 35 36 
37 38 39 40 41 42 43 44 45 
46 47 48 49 50 51 52 53 54 
55 56 57 58 59 60 61 62 63 
64 65 66 67 68 69 70 71 72 
73 74 75 76 77 78 79 80 81 
82 83 84 85 86 87 88 89 90 
91 92 93 94 95 96 97 98 99 
100 
mol 1 100 int
1 1 1 1 1 1 1 1 1 
1 1 1 1 1 1 1 1 1 
1 1 1 1 1 1 1 1 1 
1 1 1 1 1 1 1 1 1 
1 1 1 1 1 1 1 1 1 
1 1 1 1 1 2 2 2 2 
2 2 2 2 2 2 2 2 2 
2 2 2 2 2 2 2 2 2 
2 2 2 2 2 2 2 2 2 
2 2 2 2 2 2 2 2 2 
2 2 2 2 2 2 2 2 2 
2 
type 1 100 int
1 1 1 1 1 1 1 1 1 
1 1 1 1 1 1 1 1 1 
1 1 1 1 1 1 1 1 1 
1 1 1 1 1 1 1 1 1 
1 1 1 1 1 1 1 1 1 
1 1 1 1 1 1 1 1 1 
1 1 1 1 1 1 1 1 1 
1 1 1 1 1 1 1 1 1 
1 1 1 1 1 1 1 1 1 
1 1 1 1 1 1 1 1 1 
1 1 1 1 1 1 1 1 1 
1 
v 3 100 double
-0.12420826484 -0.058194684201 0.14713474401 -0.12011659404 -0.058437197027 0.072921545316 -0.11932262187 -0.059473413622 -0.0062970362774 
-0.099764113054 -0.054007857216 0.073068848827 -0.12469379021 -0.057781609268 0.18112339916 -0.094665442726 -0.053865602048 0.009715287089 
-0.091076720791 -0.054300387475 -0.069928283074 -0.082381704159 -0.049302764708 0.13362048751 -0.11264190205 -0.059061379377 -0.074522618367 
-0.15691107593 -0.065405893837 0.14073514184 -0.06613421276 -0.047578827183 0.014999053992 -0.074258660928 -0.050348934988 -0.050717267807 
-0.18463036973 -0.072123434959 0.095650852209 -0.055645404611 -0.044706711516 0.053698720582 -0.17435450763 -0.070672286071 0.044272308303 
-0.061108309298 -0.047129447653 -0.027191977045 -0.12848313773 -0.059636064534 0.11361665771 -0.16723136952 -0.070629172799 -0.054434157633 
-0.11576259068 -0.055829033641 0.18176899928 -0.081170288724 -0.052787383899 -0.11198782385 -0.081496006776 -0.048953565609 0.14387836975 
-0.042277247789 -0.042408669313 0.013738759402 -0.063004656279 -0.044433881047 0.17647394285 -0.15536506692 -0.063617917513 0.23586167436 
-0.1159506922 -0.055170534192 0.22760048596 -0.19237889207 -0.073481481814 0.11710608029 -0.18187182465 -0.070003845134 0.19522422823 
-0.17252314051 -0.067770539666 0.20831483771 -0.043211155176 -0.043100490421 -0.018283376036 -0.153632143 -0.066304693927 0.035101156059 
-0.045224075501 -0.043869798463 -0.040003089162 -0.072972049014 -0.046508176238 0.18262193448 -0.071577708344 -0.048308942453 0.044746221428 
-0.050910073205 -0.043028762494 0.096155472189 -0.091598068056 -0.055098207733 -0.11477689844 -0.075293741416 -0.046654413865 0.20613211559 
-0.049825772442 -0.045293602534 -0.06771095716 -0.0792779976 -0.049324372454 0.087965035947 -0.059101874442 -0.047834063864 -0.10196352858 
-0.14650101011 -0.063700475314 0.10410553793 -0.057470389663 -0.046134547358 -0.013851967343 -0.041652252545 -0.041093818054 0.090990147141 
-0.1556383339 -0.065600024281 0.10987273176 -0.047344735719 -0.041726706337 0.13065744383 -0.13963354047 -0.065034091815 -0.081171408307 
-0.064782584321 -0.049335354869 -0.11936897427 -0.13025231364 -0.058160281352 0.23553961167 -0.1518127822 -0.065263727156 0.077381149571 
-0.044072236951 -0.044099413438 -0.071467408302 -0.18763776234 -0.074145757534 0.0059982473753 -0.12756485626 -0.077199145842 0.16780606113 
-0.13083630476 -0.083446586439 0.091295272875 -0.13599498474 -0.090945030673 0.0084377387915 -0.10136220989 -0.070558216322 0.083624183095 
-0.11899057661 -0.071392600374 0.19861429039 -0.10231133953 -0.075071999889 0.01804299824 -0.10674342408 -0.082186070272 -0.063933211764 
-0.077948233058 -0.056128900528 0.14483854257 -0.13504188124 -0.094950173258 -0.062828717856 -0.16884454668 -0.095849900654 0.16891246243 
-0.067159113563 -0.059172497826 0.0173774456 -0.084152987149 -0.070948427481 -0.047980899284 -0.19942017669 -0.11257456838 0.12299316773 
-0.052179127595 -0.049970043577 0.056071872271 -0.19192110955 -0.11260417879 0.067900462049 -0.066528445232 -0.061595005983 -0.026122663309 
-0.12328121464 -0.077926460231 0.1249264024 -0.18946944001 -0.11806742692 -0.037698325992 -0.125721829 -0.073720913107 0.21024529475 
-0.10232242541 -0.082848676165 -0.10677401377 -0.092275492764 -0.061234946475 0.16718078422 -0.039294510398 -0.046890525322 0.01168950951 
-0.059626560752 -0.04490624637 0.19164036174 -0.14589081551 -0.07990293176 0.25785323354 -0.11248890562 -0.065189795426 0.25088187452 
-0.20235786716 -0.11262787351 0.14353282148 -0.17764222087 -0.09675194255 0.21850031763 -0.16306663082 -0.089516566093 0.2285476724 
-0.043196307178 -0.05071531135 -0.02132114931 -0.15936843775 -0.099082549236 0.047978004621 -0.047839725067 -0.054182112616 -0.043181004517 
-0.063710083725 -0.046568599297 0.19468312975 -0.089096688721 -0.06631363114 0.062462439408 -0.045228736575 -0.044027373082 0.10089343804 
-0.11763982629 -0.089726209507 -0.10567145808 -0.071769421326 -0.04834364821 0.22487255885 -0.056707496875 -0.059891156541 -0.070285744974 
-0.073805495806 -0.057436219634 0.093669918631 -0.072863107006 -0.069217867804 -0.10241351198 -0.16326230026 -0.095645628274 0.13153661798 
-0.070055668762 -0.061968015982 -0.0064239653641 -0.038808848856 -0.041374124722 0.096748809536 -0.15303353595 -0.091459577606 0.12426886868 
-0.047175940027 -0.042309048274 0.14267254822 -0.1582183804 -0.10599235587 -0.071373427258 -0.082472499923 -0.074568926967 -0.11836744882 
-0.12927472852 -0.072093750943 0.26225487491 -0.16979414071 -0.10036391897 0.1033308897 -0.048677766413 -0.056631271611 -0.076412246111 
-0.20762743299 -0.12219084667 0.028325405796 
f 3 100 double
0 0 0 0 0 0 0 0 0 
0 0 0 0 0 0 0 0 0 
0 0 0 0 0 0 0 0 0 
0 0 0 0 0 0 0 0 0 
0 0 0 0 0 0 0 0 0 
0 0 0 0 0 0 0 0 0 
0 0 0 0 0 0 0 0 0 
0.00027098040958 0.00082266978319 -0.0017323001525 0 0 0 0 0 0 
0 0 0 0 0 0 0 0 0 
0 0 0 0 0 0 0 0 0 
0 0 0 0 0 0 0 0 0 
0 0 0 0 0 0 0 0 0 
0 0 0 0 0 0 0 0 0 
0 0 0 0 0 0 0 0 0 
0 0 0 0 0 0 0 0 0 
0 0 0 0 0 0 0 0 0 
0 0 0 0 0 0 0 0 0 
0 0 0 0 0 0 0 0 0 
0 0 0 0 0 0 0 0 0 
0 0 0 0 0 0 0 0 0 
0 0 0 0 0 0 0 0 0 
0 0 0 0 0 0 0 0 0 
0 0 0 0 0 0 0 0 0 
0 0 0 0 0 0 -0.011636031774 0.34403159078 0.68845662954 
0 0 0 0 0 0 0 0 0 
0 0 0 0 0 0 0 0 0 
0 0 0 0 0 0 0 0 0 
0 0 0 0 0 0 0 0 0 
0 0 0 0 0 0 0 0 0 
0 0 0 0 0 0 0 0 0 
0 0 0 0 0 0 0 0 0 
0 0 0 0 0 0 0 0 0 
0 0 0 0 0 0 0 0 0 
0 0 0 
radius 1 100 double
0.010434 0.00981478 0.00892069 0.00845937 0.00731974 0.00728422 0.00643447 0.00619172 0.00585956 
0.00577566 0.00537241 0.00522549 0.00513666 0.00473175 0.00466912 0.00444866 0.00441894 0.00400812 
0.00385622 0.00379948 0.00370243 0.00366942 0.00364039 0.00363813 0.00363644 0.00358692 0.0035797 
0.00341284 0.00337012 0.00336273 0.00332772 0.00323261 0.00320584 0.00320311 0.00318808 0.00313116 
0.00306026 0.00305632 0.00304383 0.00300958 0.00300137 0.00298994 0.0029567 0.00295111 0.00290849 
0.00284552 0.00282964 0.0028207 0.00281971 0.00281899 0.010434 0.00981478 0.00892069 0.00845937 
0.00731974 0.00728422 0.00643447 0.00619172 0.00585956 0.00577566 0.00537241 0.00522549 0.00513666 
0.00473175 0.00466912 0.00444866 0.00441894 0.00400812 0.00385622 0.00379948 0.00370243 0.00366942 
0.00364039 0.00363813 0.00363644 0.00358692 0.0035797 0.00341284 0.00337012 0.00336273 0.00332772 
0.00323261 0.00320584 0.00320311 0.00318808 0.00313116 0.00306026 0.00305632 0.00304383 0.00300958 
0.00300137 0.00298994 0.0029567 0.00295111 0.00290849 0.00284552 0.00282964 0.0028207 0.00281971 
0.00281899 
omega 3 100 double
1.8182411259 -8.3589225203 0.12756208055 1.8182411259 -8.3589225203 0.12756208055 1.8182411259 -8.3589225203 0.12756208055 
1.8182411259 -8.3589225203 0.12756208055 1.8182411259 -8.3589225203 0.12756208055 1.8182411259 -8.3589225203 0.12756208055 
1.8182411259 -8.3589225203 0.12756208055 1.8182411259 -8.3589225203 0.12756208055 1.8182411259 -8.3589225203 0.12756208055 
1.8182411259 -8.3589225203 0.12756208055 1.8182411259 -8.3589225203 0.12756208055 1.8182411259 -8.3589225203 0.12756208055 
1.8182411259 -8.3589225203 0.12756208055 1.8182411259 -8.3589225203 0.12756208055 1.8182411259 -8.3589225203 0.12756208055 
1.8182411259 -8.3589225203 0.12756208055 1.8182411259 -8.3589225203 0.12756208055 1.8182411259 -8.3589225203 0.12756208055 
1.8182411259 -8.3589225203 0.12756208055 1.8182411259 -8.3589225203 0.12756208055 1.8182411259 -8.3589225203 0.12756208055 
1.8182411259 -8.3589225203 0.12756208055 1.8182411259 -8.3589225203 0.12756208055 1.8182411259 -8.3589225203 0.12756208055 
1.8182411259 -8.3589225203 0.12756208055 1.8182411259 -8.3589225203 0.12756208055 1.8182411259 -8.3589225203 0.12756208055 
1.8182411259 -8.3589225203 0.12756208055 1.8182411259 -8.3589225203 0.12756208055 1.8182411259 -8.3589225203 0.12756208055 
1.8182411259 -8.3589225203 0.12756208055 1.8182411259 -8.3589225203 0.12756208055 1.8182411259 -8.3589225203 0.12756208055 
1.8182411259 -8.3589225203 0.12756208055 1.8182411259 -8.3589225203 0.12756208055 1.8182411259 -8.3589225203 0.12756208055 
1.8182411259 -8.3589225203 0.12756208055 1.8182411259 -8.3589225203 0.12756208055 1.8182411259 -8.3589225203 0.12756208055 
1.8182411259 -8.3589225203 0.12756208055 1.8182411259 -8.3589225203 0.12756208055 1.8182411259 -8.3589225203 0.12756208055 
1.8182411259 -8.3589225203 0.12756208055 1.8182411259 -8.3589225203 0.12756208055 1.8182411259 -8.3589225203 0.12756208055 
1.8182411259 -8.3589225203 0.12756208055 1.8182411259 -8.3589225203 0.12756208055 1.8182411259 -8.3589225203 0.12756208055 
1.8182411259 -8.3589225203 0.12756208055 1.8182411259 -8.3589225203 0.12756208055 3.808006909 -8.3972400849 0.52284862126 
3.808006909 -8.3972400849 0.52284862126 3.808006909 -8.3972400849 0.52284862126 3.808006909 -8.3972400849 0.52284862126 
3.808006909 -8.3972400849 0.52284862126 3.808006909 -8.3972400849 0.52284862126 3.808006909 -8.3972400849 0.52284862126 
3.808006909 -8.3972400849 0.52284862126 3.808006909 -8.3972400849 0.52284862126 3.808006909 -8.3972400849 0.52284862126 
3.808006909 -8.3972400849 0.52284862126 3.808006909 -8.3972400849 0.52284862126 3.808006909 -8.3972400849 0.52284862126 
3.808006909 -8.3972400849 0.52284862126 3.808006909 -8.3972400849 0.52284862126 3.808006909 -8.3972400849 0.52284862126 
3.808006909 -8.3972400849 0.52284862126 3.808006909 -8.3972400849 0.52284862126 3.808006909 -8.3972400849 0.52284862126 
3.808006909 -8.3972400849 0.52284862126 3.808006909 -8.3972400849 0.52284862126 3.808006909 -8.3972400849 0.52284862126 
3.808006909 -8.3972400849 0.52284862126 3.808006909 -8.3972400849 0.52284862126 3.808006909 -8.3972400849 0.52284862126 
3.808006909 -8.3972400849 0.52284862126 3.808006909 -8.3972400849 0.52284862126 3.808006909 -8.3972400849 0.52284862126 
3.808006909 -8.3972400849 0.52284862126 3.808006909 -8.3972400849 0.52284862126 3.808006909 -8.3972400849 0.52284862126 
3.808006909 -8.3972400849 0.52284862126 3.808006909 -8.3972400849 0.52284862126 3.808006909 -8.3972400849 0.52284862126 
3.808006909 -8.3972400849 0.52284862126 3.808006909 -8.3972400849 0.52284862126 3.808006909 -8.3972400849 0.52284862126 
3.808006909 -8.3972400849 0.52284862126 3.808006909 -8.3972400849 0.52284862126 3.808006909 -8.3972400849 0.52284862126 
3.808006909 -8.3972400849 0.52284862126 3.808006909 -8.3972400849 0.52284862126 3.808006909 -8.3972400849 0.52284862126 
3.808006909 -8.3972400849 0.52284862126 3.808006909 -8.3972400849 0.52284862126 3.808006909 -8.3972400849 0.52284862126 
3.808006909 -8.3972400849 0.52284862126 3.808006909 -8.3972400849 0.52284862126 3.808006909 -8.3972400849 0.52284862126 
3.808006909 -8.3972400849 0.52284862126 
