# vtk DataFile Version 4.1
Generated by LIGGGHTS
ASCII
DATASET POLYDATA
POINTS 100 float
-0.115593 -0.13284 0.0216429 -0.125426 -0.133748 0.0182017 -0.135345 -0.134065 0.0167725 
-0.122616 -0.1351 0.0292967 -0.10936 -0.13192 0.0300312 -0.130936 -0.136037 0.0266594 
-0.141524 -0.136929 0.0228163 -0.114566 -0.136827 0.0323389 -0.144064 -0.135124 0.0148828 
-0.11889 -0.129914 0.0115244 -0.128353 -0.13869 0.0344784 -0.137785 -0.13837 0.0285063 
-0.124402 -0.126674 0.0110662 -0.123015 -0.139645 0.0371772 -0.130495 -0.127916 0.0115319 
-0.134003 -0.139552 0.0322988 -0.116427 -0.131119 0.0342331 -0.142014 -0.128719 0.0130939 
-0.114047 -0.134835 0.011352 -0.147488 -0.138502 0.0193726 -0.11814 -0.138787 0.013428 
-0.127239 -0.141054 0.0395963 -0.11048 -0.13952 0.0281983 -0.10264 -0.12815 0.0303105 
-0.105274 -0.133508 0.0241075 -0.12075 -0.125313 0.0152019 -0.108422 -0.125363 0.0266908 
-0.105483 -0.12594 0.0320933 -0.13142 -0.141099 0.0383347 -0.127816 -0.128936 0.0265363 
-0.134446 -0.141038 0.0367272 -0.108071 -0.137676 0.0346917 -0.130328 -0.140165 0.0125763 
-0.11799 -0.140205 0.0368287 -0.149271 -0.137819 0.0136242 -0.107411 -0.138217 0.0261251 
-0.138584 -0.140825 0.0335682 -0.118921 -0.136798 0.0368843 -0.144192 -0.140323 0.0277079 
-0.124097 -0.131503 0.00848258 -0.134812 -0.140911 0.0228141 -0.119372 -0.141612 0.0338987 
-0.117627 -0.128166 0.0311272 -0.11613 -0.141488 0.0278018 -0.143612 -0.131416 0.0196514 
-0.147174 -0.140003 0.024203 -0.105231 -0.132143 0.0204269 -0.127209 -0.130852 0.00888697 
-0.138271 -0.141219 0.0366154 -0.135164 -0.126386 0.011247 -0.0466918 -0.105039 0.0202284 
-0.05645 -0.105945 0.0165823 -0.0663372 -0.106275 0.0149496 -0.0538641 -0.107358 0.027724 
-0.0406321 -0.104156 0.0287473 -0.0621261 -0.108297 0.0249122 -0.0726324 -0.109188 0.020849 
-0.0458733 -0.109087 0.0309191 -0.0750139 -0.10734 0.0128764 -0.0497879 -0.102058 0.0100626 
-0.0596969 -0.110992 0.0327663 -0.0690068 -0.110655 0.0266053 -0.0552967 -0.0988267 0.00951165 
-0.0544127 -0.111952 0.0355674 -0.0613959 -0.100084 0.0098457 -0.0653 -0.111853 0.0304669 
-0.0477851 -0.103395 0.0328091 -0.0729418 -0.10092 0.011168 -0.0449317 -0.106968 0.00995935 
-0.0785213 -0.110753 0.0172753 -0.049058 -0.110941 0.0119279 -0.0586823 -0.113384 0.0378915 
-0.0416981 -0.111747 0.0268465 -0.0339282 -0.100374 0.0291859 -0.0364234 -0.105699 0.0228986 
-0.0517333 -0.097483 0.0137288 -0.0396413 -0.0975768 0.0254659 -0.0368117 -0.0981808 0.0309236 
-0.0628373 -0.11343 0.0365448 -0.0590203 -0.101189 0.0248952 -0.0658295 -0.113366 0.0348764 
-0.0394265 -0.109937 0.0333985 -0.0612228 -0.112339 0.01082 -0.0493806 -0.112499 0.035318 
-0.0801883 -0.110038 0.0114959 -0.0385912 -0.110425 0.0248441 -0.0699032 -0.113142 0.0316351 
-0.0503199 -0.109095 0.0353749 -0.0753917 -0.112616 0.025665 -0.0549287 -0.103639 0.00690591 
-0.0659131 -0.113156 0.0209597 -0.0506999 -0.113892 0.0323521 -0.0489287 -0.100425 0.0296971 
-0.0473348 -0.113725 0.0263233 -0.0746673 -0.103661 0.0176754 -0.0783026 -0.112282 0.022102 
-0.0363086 -0.104313 0.0192278 -0.05805 -0.102997 0.00725072 -0.069651 -0.113555 0.0346857 
-0.0660611 -0.0985625 0.0094749 
VERTICES 100 200
1 0 
1 1 
1 2 
1 3 
1 4 
1 5 
1 6 
1 7 
1 8 
1 9 
1 10 
1 11 
1 12 
1 13 
1 14 
1 15 
1 16 
1 17 
1 18 
1 19 
1 20 
1 21 
1 22 
1 23 
1 24 
1 25 
1 26 
1 27 
1 28 
1 29 
1 30 
1 31 
1 32 
1 33 
1 34 
1 35 
1 36 
1 37 
1 38 
1 39 
1 40 
1 41 
1 42 
1 43 
1 44 
1 45 
1 46 
1 47 
1 48 
1 49 
1 50 
1 51 
1 52 
1 53 
1 54 
1 55 
1 56 
1 57 
1 58 
1 59 
1 60 
1 61 
1 62 
1 63 
1 64 
1 65 
1 66 
1 67 
1 68 
1 69 
1 70 
1 71 
1 72 
1 73 
1 74 
1 75 
1 76 
1 77 
1 78 
1 79 
1 80 
1 81 
1 82 
1 83 
1 84 
1 85 
1 86 
1 87 
1 88 
1 89 
1 90 
1 91 
1 92 
1 93 
1 94 
1 95 
1 96 
1 97 
1 98 
1 99 

POINT_DATA 100
FIELD FieldData 7
id 1 100 int
1 2 3 4 5 6 7 8 9 
10 11 12 13 14 15 16 17 18 
19 20 21 22 23 24 25 26 27 
28 29 30 31 32 33 34 35 36 
37 38 39 40 41 42 43 44 45 
46 47 48 49 50 51 52 53 54 
55 56 57 58 59 60 61 62 63 
64 65 66 67 68 69 70 71 72 
73 74 75 76 77 78 79 80 81 
82 83 84 85 86 87 88 89 90 
91 92 93 94 95 96 97 98 99 
100 
mol 1 100 int
1 1 1 1 1 1 1 1 1 
1 1 1 1 1 1 1 1 1 
1 1 1 1 1 1 1 1 1 
1 1 1 1 1 1 1 1 1 
1 1 1 1 1 1 1 1 1 
1 1 1 1 1 2 2 2 2 
2 2 2 2 2 2 2 2 2 
2 2 2 2 2 2 2 2 2 
2 2 2 2 2 2 2 2 2 
2 2 2 2 2 2 2 2 2 
2 2 2 2 2 2 2 2 2 
2 
type 1 100 int
1 1 1 1 1 1 1 1 1 
1 1 1 1 1 1 1 1 1 
1 1 1 1 1 1 1 1 1 
1 1 1 1 1 1 1 1 1 
1 1 1 1 1 1 1 1 1 
1 1 1 1 1 1 1 1 1 
1 1 1 1 1 1 1 1 1 
1 1 1 1 1 1 1 1 1 
1 1 1 1 1 1 1 1 1 
1 1 1 1 1 1 1 1 1 
1 1 1 1 1 1 1 1 1 
1 
v 3 100 double
-0.12696816713 -0.063870087202 -0.19508662742 -0.10220388204 -0.062063539396 -0.26631953865 -0.091943095311 -0.063723248852 -0.33716323081 
-0.18028221096 -0.079820053806 -0.24871383877 -0.18680123826 -0.075597521994 -0.14933530493 -0.16120256259 -0.078759305693 -0.30927758709 
-0.1335960184 -0.076579905419 -0.38584564823 -0.20113072089 -0.081682130035 -0.1945996698 -0.078112432331 -0.064102366656 -0.40076765942 
-0.056461354354 -0.047979694332 -0.21345997604 -0.21552520365 -0.0910238222 -0.29549258058 -0.17332934777 -0.084737063303 -0.36180178228 
-0.054552226192 -0.049474997875 -0.24700342524 -0.2342583192 -0.093420516679 -0.25928647392 -0.057339904744 -0.052785599629 -0.29231018692 
-0.19972099675 -0.089641273297 -0.33701145418 -0.21691317997 -0.085680361533 -0.19805997076 -0.068078804939 -0.060205614944 -0.37531559129 
-0.053207005396 -0.045685591445 -0.18752458736 -0.10853899697 -0.073171449001 -0.43079571266 -0.066288586252 -0.050915762043 -0.2232772132 
-0.25082213691 -0.099289668221 -0.29162908239 -0.17067156574 -0.072935056314 -0.17023235701 -0.19033742633 -0.073298678448 -0.095284683506 
-0.14416073095 -0.063810442436 -0.12308569527 -0.084425909299 -0.055018174535 -0.21880367168 -0.16583387429 -0.069515085401 -0.13151186131 
-0.20388564518 -0.07751238385 -0.111666648 -0.24186200451 -0.098865659373 -0.32134317309 -0.16326313131 -0.077261194596 -0.27506075243 
-0.23049418018 -0.097374419846 -0.3426816922 -0.21745582629 -0.0830115528 -0.15001860102 -0.059683186959 -0.054497034324 -0.31200726052 
-0.23155738505 -0.090751225436 -0.22462753621 -0.068079069666 -0.064106858944 -0.44226622621 -0.15651577174 -0.068133178971 -0.14626469739 
-0.20819238094 -0.093697465595 -0.37164930748 -0.2333578065 -0.091230322722 -0.22541681647 -0.1668645557 -0.086021799822 -0.41053904056 
-0.034246204675 -0.044944033187 -0.25307550816 -0.13193621773 -0.073804274857 -0.34506356567 -0.21020972088 -0.086326501733 -0.23682317843 
-0.19611953171 -0.080880660612 -0.20153320585 -0.16704866037 -0.074592594321 -0.21363512793 -0.11344180985 -0.072046184158 -0.39124368314 
-0.14215506453 -0.081277614892 -0.43113108424 -0.11863739017 -0.057517359142 -0.12045598507 -0.037381169722 -0.046918842911 -0.27402416533 
-0.22962676241 -0.098763494837 -0.37010151577 -0.055951852491 -0.054227831847 -0.32279164925 -0.1258484125 -0.063469542432 -0.24343723476 
-0.10007643129 -0.061559677352 -0.3128871539 -0.088567838701 -0.063050962251 -0.38227669772 -0.17705142873 -0.078978195154 -0.29723115114 
-0.18553841923 -0.075051409292 -0.19977799739 -0.15707454124 -0.077818676545 -0.35631795161 -0.12840505813 -0.075533683082 -0.43094998865 
-0.19856280124 -0.080890235905 -0.24446726654 -0.073679908973 -0.063295467143 -0.44446140969 -0.056334433573 -0.047889935463 -0.26004077379 
-0.21061396528 -0.089839551475 -0.34388220587 -0.16786009173 -0.083559061491 -0.4081449467 -0.053872886943 -0.0493171647 -0.29302588616 
-0.22970896548 -0.092247856064 -0.30868589987 -0.055664187001 -0.05246640518 -0.33758225521 -0.19423829048 -0.088400909236 -0.38432592264 
-0.21414336457 -0.084844728875 -0.24831825793 -0.064515121242 -0.059574610569 -0.41936253254 -0.053527710091 -0.04565299357 -0.23438806475 
-0.10285659207 -0.072098385408 -0.47455329626 -0.065544257736 -0.050679826932 -0.26972266087 -0.2452820818 -0.097926626697 -0.34079443711 
-0.16907530524 -0.072345525687 -0.2198172016 -0.19020054507 -0.072929158213 -0.1468147226 -0.14415918474 -0.063540428761 -0.17303941176 
-0.083807444759 -0.054810935006 -0.26598138151 -0.16548946317 -0.069176163148 -0.1819444632 -0.20323247096 -0.077043724921 -0.16324635804 
-0.23588572004 -0.097455393709 -0.36980068968 -0.15997915194 -0.076469483481 -0.32287889274 -0.22429694848 -0.095955052121 -0.39052714582 
-0.21546506728 -0.082269390642 -0.20099175644 -0.057235726585 -0.054012112469 -0.35674573126 -0.2277395858 -0.089693167306 -0.27455897164 
-0.06292070099 -0.063201653733 -0.48497245182 -0.15569493693 -0.067695907442 -0.19598785592 -0.20182376569 -0.092300291007 -0.41851940372 
-0.22958386371 -0.090187263084 -0.27544047805 -0.16047895103 -0.084711688934 -0.45586023094 -0.033683074295 -0.044829708314 -0.29846256037 
-0.12748818451 -0.072859931747 -0.39076068353 -0.2064967604 -0.085324676822 -0.28605842021 -0.19373844988 -0.080158696173 -0.25134462209 
-0.16459128671 -0.073873230117 -0.26235101047 -0.10865868928 -0.071124314265 -0.43593207382 -0.13581335845 -0.080027819218 -0.47557269239 
-0.11919032772 -0.057390502567 -0.16993596753 -0.036357011714 -0.046730315106 -0.31912799684 -0.2228884838 -0.097263328139 -0.41744942106 
-0.053729400097 -0.053834199804 -0.36753578166 
f 3 100 double
0 0 0 0 0 0 0 0 0 
0 0 0 0 0 0 0 0 0 
0 0 0 0 0 0 0 0 0 
0 0 0 0 0 0 0 0 0 
0 0 0 0 0 0 0 0 0 
0 0 0 0 0 0 0 0 0 
0 0 0 0 0 0 0 0 0 
0 0 0 0 0 0 0 0 0 
0 0 0 0 0 0 0 0 0 
0 0 0 0 0 0 0 0 0 
0 0 0 0 0 0 0 0 0 
0 0 0 0 0 0 0 0 0 
0 0 0 0 0 0 0 0 0 
0 0 0 0 0 0 0 0 0 
0 0 0 0 0 0 0 0 0 
0 0 0 0 0 0 0 0 0 
0 0 0 0 0 0 0 0 0 
0 0 0 0 0 0 0 0 0 
0 0 0 0 0 0 0 0 0 
0 0 0 0 0 0 0 0 0 
0 0 0 0 0 0 0 0 0 
0 0 0 0 0 0 0 0 0 
0 0 0 0 0 0 0 0 0 
0 0 0 0 0 0 0 0 0 
0 0 0 0 0 0 0 0 0 
0 0 0 0 0 0 0 0 0 
0 0 0 0 0 0 0 0 0 
0 0 0 0 0 0 0 0 0 
0 0 0 0 0 0 0 0 0 
0 0 0 0 0 0 0 0 0 
0 0 0 0 0 0 0 0 0 
0 0 0 0 0 0 0 0 0 
0 0 0 0 0 0 0 0 0 
0 0 0 
radius 1 100 double
0.010434 0.00981478 0.00892069 0.00845937 0.00731974 0.00728422 0.00643447 0.00619172 0.00585956 
0.00577566 0.00537241 0.00522549 0.00513666 0.00473175 0.00466912 0.00444866 0.00441894 0.00400812 
0.00385622 0.00379948 0.00370243 0.00366942 0.00364039 0.00363813 0.00363644 0.00358692 0.0035797 
0.00341284 0.00337012 0.00336273 0.00332772 0.00323261 0.00320584 0.00320311 0.00318808 0.00313116 
0.00306026 0.00305632 0.00304383 0.00300958 0.00300137 0.00298994 0.0029567 0.00295111 0.00290849 
0.00284552 0.00282964 0.0028207 0.00281971 0.00281899 0.010434 0.00981478 0.00892069 0.00845937 
0.00731974 0.00728422 0.00643447 0.00619172 0.00585956 0.00577566 0.00537241 0.00522549 0.00513666 
0.00473175 0.00466912 0.00444866 0.00441894 0.00400812 0.00385622 0.00379948 0.00370243 0.00366942 
0.00364039 0.00363813 0.00363644 0.00358692 0.0035797 0.00341284 0.00337012 0.00336273 0.00332772 
0.00323261 0.00320584 0.00320311 0.00318808 0.00313116 0.00306026 0.00305632 0.00304383 0.00300958 
0.00300137 0.00298994 0.0029567 0.00295111 0.00290849 0.00284552 0.00282964 0.0028207 0.00281971 
0.00281899 
omega 3 100 double
1.7049720517 -7.0875628691 0.41298877591 1.7049720517 -7.0875628691 0.41298877591 1.7049720517 -7.0875628691 0.41298877591 
1.7049720517 -7.0875628691 0.41298877591 1.7049720517 -7.0875628691 0.41298877591 1.7049720517 -7.0875628691 0.41298877591 
1.7049720517 -7.0875628691 0.41298877591 1.7049720517 -7.0875628691 0.41298877591 1.7049720517 -7.0875628691 0.41298877591 
1.7049720517 -7.0875628691 0.41298877591 1.7049720517 -7.0875628691 0.41298877591 1.7049720517 -7.0875628691 0.41298877591 
1.7049720517 -7.0875628691 0.41298877591 1.7049720517 -7.0875628691 0.41298877591 1.7049720517 -7.0875628691 0.41298877591 
1.7049720517 -7.0875628691 0.41298877591 1.7049720517 -7.0875628691 0.41298877591 1.7049720517 -7.0875628691 0.41298877591 
1.7049720517 -7.0875628691 0.41298877591 1.7049720517 -7.0875628691 0.41298877591 1.7049720517 -7.0875628691 0.41298877591 
1.7049720517 -7.0875628691 0.41298877591 1.7049720517 -7.0875628691 0.41298877591 1.7049720517 -7.0875628691 0.41298877591 
1.7049720517 -7.0875628691 0.41298877591 1.7049720517 -7.0875628691 0.41298877591 1.7049720517 -7.0875628691 0.41298877591 
1.7049720517 -7.0875628691 0.41298877591 1.7049720517 -7.0875628691 0.41298877591 1.7049720517 -7.0875628691 0.41298877591 
1.7049720517 -7.0875628691 0.41298877591 1.7049720517 -7.0875628691 0.41298877591 1.7049720517 -7.0875628691 0.41298877591 
1.7049720517 -7.0875628691 0.41298877591 1.7049720517 -7.0875628691 0.41298877591 1.7049720517 -7.0875628691 0.41298877591 
1.7049720517 -7.0875628691 0.41298877591 1.7049720517 -7.0875628691 0.41298877591 1.7049720517 -7.0875628691 0.41298877591 
1.7049720517 -7.0875628691 0.41298877591 1.7049720517 -7.0875628691 0.41298877591 1.7049720517 -7.0875628691 0.41298877591 
1.7049720517 -7.0875628691 0.41298877591 1.7049720517 -7.0875628691 0.41298877591 1.7049720517 -7.0875628691 0.41298877591 
1.7049720517 -7.0875628691 0.41298877591 1.7049720517 -7.0875628691 0.41298877591 1.7049720517 -7.0875628691 0.41298877591 
1.7049720517 -7.0875628691 0.41298877591 1.7049720517 -7.0875628691 0.41298877591 1.6620790031 -6.9627041155 0.42530277579 
1.6620790031 -6.9627041155 0.42530277579 1.6620790031 -6.9627041155 0.42530277579 1.6620790031 -6.9627041155 0.42530277579 
1.6620790031 -6.9627041155 0.42530277579 1.6620790031 -6.9627041155 0.42530277579 1.6620790031 -6.9627041155 0.42530277579 
1.6620790031 -6.9627041155 0.42530277579 1.6620790031 -6.9627041155 0.42530277579 1.6620790031 -6.9627041155 0.42530277579 
1.6620790031 -6.9627041155 0.42530277579 1.6620790031 -6.9627041155 0.42530277579 1.6620790031 -6.9627041155 0.42530277579 
1.6620790031 -6.9627041155 0.42530277579 1.6620790031 -6.9627041155 0.42530277579 1.6620790031 -6.9627041155 0.42530277579 
1.6620790031 -6.9627041155 0.42530277579 1.6620790031 -6.9627041155 0.42530277579 1.6620790031 -6.9627041155 0.42530277579 
1.6620790031 -6.9627041155 0.42530277579 1.6620790031 -6.9627041155 0.42530277579 1.6620790031 -6.9627041155 0.42530277579 
1.6620790031 -6.9627041155 0.42530277579 1.6620790031 -6.9627041155 0.42530277579 1.6620790031 -6.9627041155 0.42530277579 
1.6620790031 -6.9627041155 0.42530277579 1.6620790031 -6.9627041155 0.42530277579 1.6620790031 -6.9627041155 0.42530277579 
1.6620790031 -6.9627041155 0.42530277579 1.6620790031 -6.9627041155 0.42530277579 1.6620790031 -6.9627041155 0.42530277579 
1.6620790031 -6.9627041155 0.42530277579 1.6620790031 -6.9627041155 0.42530277579 1.6620790031 -6.9627041155 0.42530277579 
1.6620790031 -6.9627041155 0.42530277579 1.6620790031 -6.9627041155 0.42530277579 1.6620790031 -6.9627041155 0.42530277579 
1.6620790031 -6.9627041155 0.42530277579 1.6620790031 -6.9627041155 0.42530277579 1.6620790031 -6.9627041155 0.42530277579 
1.6620790031 -6.9627041155 0.42530277579 1.6620790031 -6.9627041155 0.42530277579 1.6620790031 -6.9627041155 0.42530277579 
1.6620790031 -6.9627041155 0.42530277579 1.6620790031 -6.9627041155 0.42530277579 1.6620790031 -6.9627041155 0.42530277579 
1.6620790031 -6.9627041155 0.42530277579 1.6620790031 -6.9627041155 0.42530277579 1.6620790031 -6.9627041155 0.42530277579 
1.6620790031 -6.9627041155 0.42530277579 
