# vtk DataFile Version 4.1
Generated by LIGGGHTS
ASCII
DATASET POLYDATA
POINTS 100 float
-0.116818 -0.15126 0.0121587 -0.12663 -0.147664 0.0118024 -0.136357 -0.145522 0.0129565 
-0.124067 -0.158257 0.0155489 -0.110426 -0.158767 0.0157453 -0.132406 -0.155535 0.0152398 
-0.142955 -0.151502 0.0148598 -0.11662 -0.162591 0.0138715 -0.145102 -0.143465 0.0130008 
-0.119463 -0.140703 0.0103257 -0.130421 -0.163886 0.0163189 -0.139588 -0.15754 0.0156587 
-0.124047 -0.138153 0.0140108 -0.125428 -0.16726 0.0157041 -0.130253 -0.138511 0.0145029 
-0.136145 -0.161808 0.0157271 -0.117036 -0.161281 0.0200145 -0.141606 -0.139033 0.0170706 
-0.115939 -0.143446 0.00505701 -0.14917 -0.148636 0.0131111 -0.120829 -0.146725 0.00363336 
-0.129832 -0.169594 0.0166203 -0.113356 -0.160728 0.00867837 -0.102997 -0.157902 0.0176168 
-0.106923 -0.154821 0.0106017 -0.120117 -0.141477 0.0164192 -0.107996 -0.152795 0.0194145 
-0.105204 -0.158081 0.0209697 -0.133921 -0.168076 0.0168558 -0.127682 -0.152327 0.0204901 
-0.136866 -0.166328 0.0167614 -0.110484 -0.165736 0.0129269 -0.133003 -0.145356 0.00466708 
-0.120688 -0.167761 0.0139819 -0.15082 -0.143121 0.0112261 -0.110095 -0.158623 0.00809191 
-0.140878 -0.16304 0.0162664 -0.120777 -0.166064 0.0170782 -0.146287 -0.157109 0.0149938 
-0.124942 -0.138275 0.00860051 -0.13739 -0.154137 0.0100649 -0.122408 -0.165748 0.0116443 
-0.11754 -0.157027 0.0212234 -0.119318 -0.160735 0.00803708 -0.14371 -0.145865 0.018385 
-0.149156 -0.153592 0.014169 -0.106608 -0.150968 0.00992086 -0.127802 -0.137981 0.0100166 
-0.140625 -0.165912 0.0173738 -0.134425 -0.137028 0.0166516 -0.0466789 -0.121286 0.0118034 
-0.0568048 -0.118685 0.0120003 -0.0666319 -0.11757 0.0136486 -0.0530348 -0.129081 0.0152451 
-0.0394155 -0.128223 0.0148363 -0.0616079 -0.127203 0.015394 -0.0725102 -0.124241 0.0156149 
-0.0452812 -0.132588 0.0130926 -0.0755268 -0.116406 0.0141436 -0.0504388 -0.110995 0.0104711 
-0.0587574 -0.135342 0.0160821 -0.0685285 -0.129932 0.016048 -0.0550767 -0.109038 0.0144402 
-0.0534887 -0.138175 0.0151309 -0.0611879 -0.110034 0.0151853 -0.0646796 -0.133833 0.015813 
-0.0455394 -0.131523 0.0192913 -0.0723019 -0.111776 0.018218 -0.0469092 -0.1132 0.00495955 
-0.0790532 -0.12196 0.0142404 -0.0515108 -0.116908 0.00362898 -0.0575924 -0.140969 0.0161501 
-0.0424618 -0.130242 0.00783512 -0.0320302 -0.126674 0.0164169 -0.0365632 -0.123782 0.00969393 
-0.05073 -0.112025 0.0165549 -0.0374216 -0.122156 0.0186126 -0.0340503 -0.127182 0.0198529 
-0.061796 -0.139877 0.0166161 -0.0569861 -0.123706 0.0205497 -0.0649015 -0.138432 0.0167121 
-0.0389144 -0.135068 0.0117713 -0.0636999 -0.116804 0.00523422 -0.0488075 -0.138142 0.0131894 
-0.0813264 -0.116581 0.01263 -0.0394562 -0.127802 0.00718605 -0.0692381 -0.13555 0.01651 
-0.0489202 -0.136563 0.0163464 -0.0752602 -0.130156 0.0156878 -0.0562053 -0.109076 0.00907261 
-0.0669402 -0.126149 0.0104925 -0.0508251 -0.136239 0.0110028 -0.0464055 -0.127382 0.0206749 
-0.0484172 -0.130828 0.00745089 -0.0736549 -0.118824 0.0193721 -0.0784986 -0.126921 0.0151156 
-0.036663 -0.119897 0.00914081 -0.059012 -0.109117 0.0106201 -0.0686505 -0.138416 0.0175003 
-0.0653813 -0.109047 0.0175639 
VERTICES 100 200
1 0 
1 1 
1 2 
1 3 
1 4 
1 5 
1 6 
1 7 
1 8 
1 9 
1 10 
1 11 
1 12 
1 13 
1 14 
1 15 
1 16 
1 17 
1 18 
1 19 
1 20 
1 21 
1 22 
1 23 
1 24 
1 25 
1 26 
1 27 
1 28 
1 29 
1 30 
1 31 
1 32 
1 33 
1 34 
1 35 
1 36 
1 37 
1 38 
1 39 
1 40 
1 41 
1 42 
1 43 
1 44 
1 45 
1 46 
1 47 
1 48 
1 49 
1 50 
1 51 
1 52 
1 53 
1 54 
1 55 
1 56 
1 57 
1 58 
1 59 
1 60 
1 61 
1 62 
1 63 
1 64 
1 65 
1 66 
1 67 
1 68 
1 69 
1 70 
1 71 
1 72 
1 73 
1 74 
1 75 
1 76 
1 77 
1 78 
1 79 
1 80 
1 81 
1 82 
1 83 
1 84 
1 85 
1 86 
1 87 
1 88 
1 89 
1 90 
1 91 
1 92 
1 93 
1 94 
1 95 
1 96 
1 97 
1 98 
1 99 

POINT_DATA 100
FIELD FieldData 7
id 1 100 int
1 2 3 4 5 6 7 8 9 
10 11 12 13 14 15 16 17 18 
19 20 21 22 23 24 25 26 27 
28 29 30 31 32 33 34 35 36 
37 38 39 40 41 42 43 44 45 
46 47 48 49 50 51 52 53 54 
55 56 57 58 59 60 61 62 63 
64 65 66 67 68 69 70 71 72 
73 74 75 76 77 78 79 80 81 
82 83 84 85 86 87 88 89 90 
91 92 93 94 95 96 97 98 99 
100 
mol 1 100 int
1 1 1 1 1 1 1 1 1 
1 1 1 1 1 1 1 1 1 
1 1 1 1 1 1 1 1 1 
1 1 1 1 1 1 1 1 1 
1 1 1 1 1 1 1 1 1 
1 1 1 1 1 2 2 2 2 
2 2 2 2 2 2 2 2 2 
2 2 2 2 2 2 2 2 2 
2 2 2 2 2 2 2 2 2 
2 2 2 2 2 2 2 2 2 
2 2 2 2 2 2 2 2 2 
2 
type 1 100 int
1 1 1 1 1 1 1 1 1 
1 1 1 1 1 1 1 1 1 
1 1 1 1 1 1 1 1 1 
1 1 1 1 1 1 1 1 1 
1 1 1 1 1 1 1 1 1 
1 1 1 1 1 1 1 1 1 
1 1 1 1 1 1 1 1 1 
1 1 1 1 1 1 1 1 1 
1 1 1 1 1 1 1 1 1 
1 1 1 1 1 1 1 1 1 
1 1 1 1 1 1 1 1 1 
1 
v 3 100 double
-0.012103287956 -0.18186938644 -0.063314177657 -0.0073115983502 -0.16413671452 -0.016283261029 -0.0051740562814 -0.16842644036 0.0096947188329 
-0.022840163717 -0.22177206971 -0.16862863763 -0.02359610222 -0.24208829482 -0.16887171737 -0.019192334602 -0.20660999634 -0.13350587014 
-0.013828741567 -0.1875914119 -0.080521434008 -0.027509052191 -0.20697141876 -0.22759534378 -0.0025641999537 -0.15787033639 0.034942949701 
0.0023755528298 -0.15188812955 0.088465157205 -0.030451055315 -0.22480771988 -0.2536248326 -0.021978706537 -0.20349217251 -0.16635573475 
0.0037072805146 -0.19948322688 0.12305240233 -0.03444828277 -0.22228123935 -0.29995277452 0.002991455686 -0.19867573912 0.11461053507 
-0.02748052691 -0.20889428978 -0.22648441782 -0.02905384971 -0.29556213179 -0.20880844808 0.00097636147384 -0.22139207882 0.10108304624 
0.0016272380242 -0.079960874134 0.050520962199 -0.0092423817674 -0.1542627182 -0.04220603252 -0.0018250461644 -0.053045582232 0.00037695949774 
-0.037917904185 -0.22993596353 -0.33613163555 -0.02240058151 -0.13580781751 -0.19886290625 -0.02346939652 -0.27875119585 -0.152417062 
-0.01584518107 -0.17194925163 -0.10977770864 -0.0018118227835 -0.23945593657 0.076889712321 -0.017873700436 -0.29843264719 -0.080949191639 
-0.025457523064 -0.32457125028 -0.15617455128 -0.036096742716 -0.22811618364 -0.31624135108 -0.017839347378 -0.28883174767 -0.084492937968 
-0.033809330344 -0.22297513598 -0.29242848844 -0.031039962053 -0.20112365494 -0.26999995822 -0.0006143785293 -0.05245479224 0.013853134535 
-0.034187254032 -0.20336384559 -0.30474453449 -0.0011922147766 -0.12480263728 0.03694287824 -0.019397277755 -0.13147451114 -0.16660731836 
-0.029340024344 -0.21065684726 -0.24683253195 -0.033638394346 -0.24817174241 -0.2801698177 -0.021078779811 -0.18526906312 -0.16362366664 
0.0063900632101 -0.11984401766 0.12082710606 -0.014688342228 -0.12515133019 -0.11584020337 -0.030383727038 -0.16724763175 -0.27644139348 
-0.024241094275 -0.31245657077 -0.14735385218 -0.022072491255 -0.11887006704 -0.20208382571 -0.0084613109208 -0.23776960494 0.00085291509175 
-0.016143222908 -0.16962950664 -0.11410513198 -0.01055453143 -0.16247450955 -0.053710170449 0.0060234969781 -0.13672609459 0.12358924387 
-0.033598347294 -0.22704791053 -0.28836940887 0.0037627537726 -0.22450918504 0.13393284762 0.026824196809 -0.16204584929 -0.070298143183 
0.029903728944 -0.15469673582 -0.0090117949046 0.035350780454 -0.16693181554 0.031740370054 0.028233566609 -0.20153260371 -0.15712767815 
0.027999813924 -0.20950366946 -0.18165389225 0.030475304805 -0.19507388684 -0.10954142908 0.033973604853 -0.18727905852 -0.041405389062 
0.019102102209 -0.18055573827 -0.22419572728 0.037802470911 -0.16475532606 0.07068137732 0.033437501937 -0.14063938818 0.076392547475 
0.024279965518 -0.20702472648 -0.22523844042 0.029514938731 -0.19695409719 -0.12755027119 0.045836581286 -0.18882574851 0.1146379065 
0.018981516206 -0.19956804516 -0.27679447177 0.046822949796 -0.19271362689 0.11753409715 0.025055208978 -0.19761829497 -0.18955219295 
0.036506445525 -0.26268616313 -0.20936381409 0.053109717693 -0.22207981879 0.12369813877 0.016724186109 -0.070861794335 0.037774892257 
0.032591286512 -0.16257177529 0.0061668849735 0.009564262537 -0.048648901093 0.0006429246975 0.018921148243 -0.20907393888 -0.30309415993 
0.0075385968546 -0.1134567293 -0.20045478904 0.033694278097 -0.23777999208 -0.18056608137 0.018801838693 -0.1439667371 -0.13015818736 
0.048476596619 -0.2212093484 0.063469173525 0.043934741515 -0.26165479245 -0.10629196276 0.042261471045 -0.28145745602 -0.18197601997 
0.021225326412 -0.21113076322 -0.27749422775 0.047521297066 -0.26814408086 -0.075258719894 0.022900693399 -0.20935003456 -0.25009718504 
0.013174918237 -0.1692615754 -0.2739538064 0.013902293761 -0.057986221286 0.034188262768 0.013890903142 -0.17837220308 -0.2887104595 
0.033635814252 -0.13893148595 0.083649172089 0.0082277271047 -0.10778844056 -0.17595301096 0.025203835563 -0.20239614143 -0.20035425032 
0.023775933374 -0.2202187364 -0.26741661441 0.028343576261 -0.18554069251 -0.11276918206 0.031636206162 -0.11637666738 0.11711539004 
0.018579208553 -0.12468192376 -0.081463440944 0.0099944884757 -0.14732477981 -0.25808949768 0.044232846904 -0.28022131304 -0.15204185724 
0.0059484324881 -0.10248861722 -0.19252271855 0.049218335323 -0.236086954 0.033599489585 0.030017907244 -0.17474924638 -0.061229136833 
0.021166176531 -0.13651727796 -0.078260334749 0.035679362103 -0.13418078962 0.12398012636 0.024995950422 -0.21613535416 -0.23999509352 
0.054069960305 -0.22019897571 0.14170700998 
f 3 100 double
0 0 0 0 0 0 0 0 0 
0 0 0 0 0 0 0 0 0 
0 0 0 0 0 0 0 0 0 
0 0 0 0 0 0 0 0 0 
0 0 0 0 0 0 0 0 0 
0 0 0 0 0 0 0 0 0 
0 0 0 0 0 0 -0.072028494132 -0.059145356841 0.28768249662 
0 0 0 0 0 0 0 0 0 
0 0 0 0 0 0 0 0 0 
0 0 0 0 0 0 0 0 0 
0 0 0 0 0 0 0 0 0 
0 0 0 0 0 0 0 0 0 
0 0 0 0 0 0 0 0 0 
0 0 0 0 0 0 0 0 0 
0 0 0 0 0 0 0 0 0 
0 0 0 0 0 0 0 0 0 
0 0 0 0 0 0 0 0 0 
0 0 0 0 0 0 0 0 0 
0 0 0 0 0 0 0 0 0 
0 0 0 0 0 0 0 0 0 
0 0 0 0 0 0 0 0 0 
0 0 0 0 0 0 0 0 0 
0 0 0 0 0 0 0 0 0 
0 0 0 -0.066520836299 -0.082129600616 0.31279017919 0 0 0 
0 0 0 0 0 0 0 0 0 
0 0 0 0 0 0 0 0 0 
0 0 0 0 0 0 0 0 0 
0 0 0 0 0 0 0 0 0 
0 0 0 0 0 0 0 0 0 
0 0 0 0 0 0 0 0 0 
0 0 0 0 0 0 0 0 0 
0 0 0 0 0 0 0 0 0 
0 0 0 0 0 0 0 0 0 
0 0 0 
radius 1 100 double
0.010434 0.00981478 0.00892069 0.00845937 0.00731974 0.00728422 0.00643447 0.00619172 0.00585956 
0.00577566 0.00537241 0.00522549 0.00513666 0.00473175 0.00466912 0.00444866 0.00441894 0.00400812 
0.00385622 0.00379948 0.00370243 0.00366942 0.00364039 0.00363813 0.00363644 0.00358692 0.0035797 
0.00341284 0.00337012 0.00336273 0.00332772 0.00323261 0.00320584 0.00320311 0.00318808 0.00313116 
0.00306026 0.00305632 0.00304383 0.00300958 0.00300137 0.00298994 0.0029567 0.00295111 0.00290849 
0.00284552 0.00282964 0.0028207 0.00281971 0.00281899 0.010434 0.00981478 0.00892069 0.00845937 
0.00731974 0.00728422 0.00643447 0.00619172 0.00585956 0.00577566 0.00537241 0.00522549 0.00513666 
0.00473175 0.00466912 0.00444866 0.00441894 0.00400812 0.00385622 0.00379948 0.00370243 0.00366942 
0.00364039 0.00363813 0.00363644 0.00358692 0.0035797 0.00341284 0.00337012 0.00336273 0.00332772 
0.00323261 0.00320584 0.00320311 0.00318808 0.00313116 0.00306026 0.00305632 0.00304383 0.00300958 
0.00300137 0.00298994 0.0029567 0.00295111 0.00290849 0.00284552 0.00282964 0.0028207 0.00281971 
0.00281899 
omega 3 100 double
14.50820132 -0.52451041051 -1.2803881096 14.50820132 -0.52451041051 -1.2803881096 14.50820132 -0.52451041051 -1.2803881096 
14.50820132 -0.52451041051 -1.2803881096 14.50820132 -0.52451041051 -1.2803881096 14.50820132 -0.52451041051 -1.2803881096 
14.50820132 -0.52451041051 -1.2803881096 14.50820132 -0.52451041051 -1.2803881096 14.50820132 -0.52451041051 -1.2803881096 
14.50820132 -0.52451041051 -1.2803881096 14.50820132 -0.52451041051 -1.2803881096 14.50820132 -0.52451041051 -1.2803881096 
14.50820132 -0.52451041051 -1.2803881096 14.50820132 -0.52451041051 -1.2803881096 14.50820132 -0.52451041051 -1.2803881096 
14.50820132 -0.52451041051 -1.2803881096 14.50820132 -0.52451041051 -1.2803881096 14.50820132 -0.52451041051 -1.2803881096 
14.50820132 -0.52451041051 -1.2803881096 14.50820132 -0.52451041051 -1.2803881096 14.50820132 -0.52451041051 -1.2803881096 
14.50820132 -0.52451041051 -1.2803881096 14.50820132 -0.52451041051 -1.2803881096 14.50820132 -0.52451041051 -1.2803881096 
14.50820132 -0.52451041051 -1.2803881096 14.50820132 -0.52451041051 -1.2803881096 14.50820132 -0.52451041051 -1.2803881096 
14.50820132 -0.52451041051 -1.2803881096 14.50820132 -0.52451041051 -1.2803881096 14.50820132 -0.52451041051 -1.2803881096 
14.50820132 -0.52451041051 -1.2803881096 14.50820132 -0.52451041051 -1.2803881096 14.50820132 -0.52451041051 -1.2803881096 
14.50820132 -0.52451041051 -1.2803881096 14.50820132 -0.52451041051 -1.2803881096 14.50820132 -0.52451041051 -1.2803881096 
14.50820132 -0.52451041051 -1.2803881096 14.50820132 -0.52451041051 -1.2803881096 14.50820132 -0.52451041051 -1.2803881096 
14.50820132 -0.52451041051 -1.2803881096 14.50820132 -0.52451041051 -1.2803881096 14.50820132 -0.52451041051 -1.2803881096 
14.50820132 -0.52451041051 -1.2803881096 14.50820132 -0.52451041051 -1.2803881096 14.50820132 -0.52451041051 -1.2803881096 
14.50820132 -0.52451041051 -1.2803881096 14.50820132 -0.52451041051 -1.2803881096 14.50820132 -0.52451041051 -1.2803881096 
14.50820132 -0.52451041051 -1.2803881096 14.50820132 -0.52451041051 -1.2803881096 13.290463752 2.6386531615 -0.98423504391 
13.290463752 2.6386531615 -0.98423504391 13.290463752 2.6386531615 -0.98423504391 13.290463752 2.6386531615 -0.98423504391 
13.290463752 2.6386531615 -0.98423504391 13.290463752 2.6386531615 -0.98423504391 13.290463752 2.6386531615 -0.98423504391 
13.290463752 2.6386531615 -0.98423504391 13.290463752 2.6386531615 -0.98423504391 13.290463752 2.6386531615 -0.98423504391 
13.290463752 2.6386531615 -0.98423504391 13.290463752 2.6386531615 -0.98423504391 13.290463752 2.6386531615 -0.98423504391 
13.290463752 2.6386531615 -0.98423504391 13.290463752 2.6386531615 -0.98423504391 13.290463752 2.6386531615 -0.98423504391 
13.290463752 2.6386531615 -0.98423504391 13.290463752 2.6386531615 -0.98423504391 13.290463752 2.6386531615 -0.98423504391 
13.290463752 2.6386531615 -0.98423504391 13.290463752 2.6386531615 -0.98423504391 13.290463752 2.6386531615 -0.98423504391 
13.290463752 2.6386531615 -0.98423504391 13.290463752 2.6386531615 -0.98423504391 13.290463752 2.6386531615 -0.98423504391 
13.290463752 2.6386531615 -0.98423504391 13.290463752 2.6386531615 -0.98423504391 13.290463752 2.6386531615 -0.98423504391 
13.290463752 2.6386531615 -0.98423504391 13.290463752 2.6386531615 -0.98423504391 13.290463752 2.6386531615 -0.98423504391 
13.290463752 2.6386531615 -0.98423504391 13.290463752 2.6386531615 -0.98423504391 13.290463752 2.6386531615 -0.98423504391 
13.290463752 2.6386531615 -0.98423504391 13.290463752 2.6386531615 -0.98423504391 13.290463752 2.6386531615 -0.98423504391 
13.290463752 2.6386531615 -0.98423504391 13.290463752 2.6386531615 -0.98423504391 13.290463752 2.6386531615 -0.98423504391 
13.290463752 2.6386531615 -0.98423504391 13.290463752 2.6386531615 -0.98423504391 13.290463752 2.6386531615 -0.98423504391 
13.290463752 2.6386531615 -0.98423504391 13.290463752 2.6386531615 -0.98423504391 13.290463752 2.6386531615 -0.98423504391 
13.290463752 2.6386531615 -0.98423504391 13.290463752 2.6386531615 -0.98423504391 13.290463752 2.6386531615 -0.98423504391 
13.290463752 2.6386531615 -0.98423504391 
