# vtk DataFile Version 4.1
Generated by LIGGGHTS
ASCII
DATASET POLYDATA
POINTS 100 float
-0.119892 -0.137255 0.0186614 -0.128794 -0.137127 0.0131775 -0.1382 -0.136802 0.00972105 
-0.12834 -0.140676 0.024133 -0.115535 -0.138183 0.0281603 -0.135929 -0.140787 0.0197231 
-0.145488 -0.14054 0.0137023 -0.121088 -0.143246 0.0283583 -0.146335 -0.137161 0.00592331 
-0.121031 -0.132331 0.00884963 -0.135012 -0.144977 0.0272363 -0.143003 -0.143177 0.0196443 
-0.126341 -0.128863 0.00791564 -0.130345 -0.146625 0.0307289 -0.132394 -0.129947 0.00687788 
-0.140085 -0.1452 0.0238247 -0.123323 -0.137941 0.0309059 -0.143983 -0.130611 0.00587069 
-0.116239 -0.137303 0.0087153 -0.150602 -0.141207 0.00887571 -0.120659 -0.141426 0.0091035 
-0.134974 -0.148314 0.0319143 -0.116222 -0.145247 0.0246953 -0.109034 -0.134785 0.030532 
-0.110305 -0.138758 0.0230014 -0.123631 -0.128452 0.0128932 -0.113951 -0.131147 0.0264216 
-0.112193 -0.132853 0.0320923 -0.138803 -0.147964 0.029842 -0.132878 -0.133912 0.0216222 
-0.14143 -0.147486 0.0276944 -0.115219 -0.144766 0.0317755 -0.1324 -0.142168 0.0055322 
-0.125355 -0.147292 0.0313108 -0.151158 -0.139373 0.00312954 -0.112796 -0.143685 0.0235855 
-0.144825 -0.146522 0.0238607 -0.12629 -0.143927 0.0318366 -0.149098 -0.144705 0.0171916 
-0.125489 -0.133118 0.00455993 -0.138906 -0.144691 0.0142951 -0.126095 -0.148062 0.027944 
-0.123865 -0.134407 0.0282553 -0.12166 -0.146895 0.0227796 -0.146895 -0.134451 0.0113118 
-0.15129 -0.143613 0.0132825 -0.109505 -0.136719 0.019744 -0.12862 -0.132442 0.00443961 
-0.145148 -0.147503 0.0267716 -0.136908 -0.128222 0.00594947 -0.051056 -0.109407 0.0187066 
-0.0599823 -0.109283 0.013262 -0.0694105 -0.109112 0.00985435 -0.0593359 -0.113503 0.0239667 
-0.0466209 -0.110766 0.0281169 -0.0669353 -0.113634 0.0195755 -0.076525 -0.113383 0.0136042 
-0.051968 -0.116048 0.0280026 -0.0775423 -0.10955 0.00605951 -0.0524356 -0.103915 0.00923298 
-0.0658177 -0.118256 0.0268029 -0.0739103 -0.116293 0.0193595 -0.0578828 -0.100608 0.00853483 
-0.0610731 -0.119937 0.0301724 -0.0638933 -0.101863 0.00744323 -0.0708941 -0.118461 0.0233953 
-0.0543989 -0.11101 0.0308896 -0.0754514 -0.102922 0.00642131 -0.0474511 -0.108673 0.00876985 
-0.0816321 -0.113943 0.00875617 -0.0517026 -0.112985 0.00890293 -0.0656255 -0.121881 0.0312574 
-0.0470447 -0.117615 0.0242081 -0.0402481 -0.10727 0.030687 -0.0413965 -0.110802 0.0229202 
-0.0551677 -0.100409 0.0135225 -0.0453245 -0.103576 0.0268289 -0.0434736 -0.10557 0.0323748 
-0.0694754 -0.121552 0.0292203 -0.0641503 -0.106779 0.0219043 -0.0721293 -0.121043 0.0271136 
-0.0460274 -0.117549 0.0313023 -0.0634223 -0.113964 0.00531752 -0.0560578 -0.120441 0.0306992 
-0.0822871 -0.111769 0.00314052 -0.0436882 -0.115851 0.023193 -0.0755777 -0.119971 0.023357 
-0.0571228 -0.117156 0.0314416 -0.0799514 -0.117903 0.0168275 -0.0568792 -0.104602 0.00491162 
-0.0697815 -0.117299 0.0139153 -0.0567826 -0.121022 0.0272917 -0.055093 -0.107338 0.0284721 
-0.0524223 -0.119352 0.0222028 -0.0781836 -0.107215 0.0116117 -0.0822038 -0.116651 0.0130013 
-0.0406939 -0.108528 0.0197983 -0.0600349 -0.104046 0.00484176 -0.0758482 -0.121148 0.0261998 
-0.0684763 -0.100263 0.00663729 
VERTICES 100 200
1 0 
1 1 
1 2 
1 3 
1 4 
1 5 
1 6 
1 7 
1 8 
1 9 
1 10 
1 11 
1 12 
1 13 
1 14 
1 15 
1 16 
1 17 
1 18 
1 19 
1 20 
1 21 
1 22 
1 23 
1 24 
1 25 
1 26 
1 27 
1 28 
1 29 
1 30 
1 31 
1 32 
1 33 
1 34 
1 35 
1 36 
1 37 
1 38 
1 39 
1 40 
1 41 
1 42 
1 43 
1 44 
1 45 
1 46 
1 47 
1 48 
1 49 
1 50 
1 51 
1 52 
1 53 
1 54 
1 55 
1 56 
1 57 
1 58 
1 59 
1 60 
1 61 
1 62 
1 63 
1 64 
1 65 
1 66 
1 67 
1 68 
1 69 
1 70 
1 71 
1 72 
1 73 
1 74 
1 75 
1 76 
1 77 
1 78 
1 79 
1 80 
1 81 
1 82 
1 83 
1 84 
1 85 
1 86 
1 87 
1 88 
1 89 
1 90 
1 91 
1 92 
1 93 
1 94 
1 95 
1 96 
1 97 
1 98 
1 99 

POINT_DATA 100
FIELD FieldData 7
id 1 100 int
1 2 3 4 5 6 7 8 9 
10 11 12 13 14 15 16 17 18 
19 20 21 22 23 24 25 26 27 
28 29 30 31 32 33 34 35 36 
37 38 39 40 41 42 43 44 45 
46 47 48 49 50 51 52 53 54 
55 56 57 58 59 60 61 62 63 
64 65 66 67 68 69 70 71 72 
73 74 75 76 77 78 79 80 81 
82 83 84 85 86 87 88 89 90 
91 92 93 94 95 96 97 98 99 
100 
mol 1 100 int
1 1 1 1 1 1 1 1 1 
1 1 1 1 1 1 1 1 1 
1 1 1 1 1 1 1 1 1 
1 1 1 1 1 1 1 1 1 
1 1 1 1 1 1 1 1 1 
1 1 1 1 1 2 2 2 2 
2 2 2 2 2 2 2 2 2 
2 2 2 2 2 2 2 2 2 
2 2 2 2 2 2 2 2 2 
2 2 2 2 2 2 2 2 2 
2 2 2 2 2 2 2 2 2 
2 
type 1 100 int
1 1 1 1 1 1 1 1 1 
1 1 1 1 1 1 1 1 1 
1 1 1 1 1 1 1 1 1 
1 1 1 1 1 1 1 1 1 
1 1 1 1 1 1 1 1 1 
1 1 1 1 1 1 1 1 1 
1 1 1 1 1 1 1 1 1 
1 1 1 1 1 1 1 1 1 
1 1 1 1 1 1 1 1 1 
1 1 1 1 1 1 1 1 1 
1 1 1 1 1 1 1 1 1 
1 
v 3 100 double
-0.033178707566 -0.14162818777 0.0065945114545 -0.035274808551 -0.10023563237 0.010962064147 -0.036393913399 -0.071008943052 0.016756269735 
-0.033808841683 -0.16860564633 -0.01124292374 -0.030131816719 -0.20418367113 -0.00091389039587 -0.035671338069 -0.13496362557 -0.0088862726586 
-0.037884300194 -0.08969566071 -0.0035136419723 -0.034236724514 -0.20082347748 -0.030107289665 -0.038214964478 -0.04071552327 0.017797428184 
-0.033048600375 -0.079790758359 0.037611717211 -0.036117963688 -0.18235189711 -0.035261075438 -0.037678017572 -0.12862727363 -0.020877255609 
-0.030557438489 -0.069605461999 0.061267009842 -0.036077544658 -0.207885504 -0.047361587203 -0.031869737979 -0.058161826358 0.056971546161 
-0.037671480071 -0.15698518696 -0.034604227566 -0.028829658397 -0.21478762295 0.0037133305095 -0.032822989057 -0.042332869179 0.05750270916 
-0.037211169105 -0.082917785375 0.0048338698568 -0.040373384199 -0.055512667054 -0.0055995425697 -0.040463436689 -0.081674219441 -0.018984879964 
-0.03699794805 -0.21141676482 -0.055988806076 -0.0373610104 -0.18211062789 -0.044478513224 -0.026370836833 -0.22427664022 0.017568127345 
-0.032678574659 -0.17648814695 -0.0065844575768 -0.02821900458 -0.10273788172 0.062731966392 -0.02501494701 -0.19470172472 0.042117441874 
-0.024148211603 -0.23134946127 0.030822980922 -0.037540568948 -0.19539084526 -0.052278337712 -0.029227021056 -0.14927146732 0.032556605742 
-0.03800782742 -0.17989086174 -0.048257431953 -0.03412094762 -0.22688258664 -0.041897187573 -0.042510525819 -0.049805085395 -0.018875681212 
-0.036395140144 -0.21562075698 -0.053504295623 -0.041164776272 -0.019390233244 0.0060055200633 -0.036515955797 -0.17805388339 -0.036161849095 
-0.038750184365 -0.15329126117 -0.040910262795 -0.033402827246 -0.21811131269 -0.032243450888 -0.039925904616 -0.10836782299 -0.027915845033 
-0.035420915813 -0.049482645074 0.03452030047 -0.041077401932 -0.098814806989 -0.031922215769 -0.038383081421 -0.19411353088 -0.057984665259 
-0.026972623732 -0.19788877555 0.025868045868 -0.039492077161 -0.16572607863 -0.052522240637 -0.033812257761 -0.073695897269 0.034837879683 
-0.040592899135 -0.082294158461 -0.020258238479 -0.032300801186 -0.15693179697 0.0057527585081 -0.034911085112 -0.046148184574 0.039968724423 
-0.038392156212 -0.17109006744 -0.046868183488 -0.030816359014 -0.04866899252 0.069493431744 -0.044035779263 -0.12545516857 -0.024493966917 
-0.051257820081 -0.089076578017 -0.011825259849 -0.055829442641 -0.068424465722 0.0018599289178 -0.034867450995 -0.16991430766 -0.044686142146 
-0.030922538661 -0.1943879403 -0.040630721476 -0.040564972777 -0.14079495041 -0.035693314761 -0.048549260707 -0.10078664013 -0.021187084451 
-0.028162538149 -0.19646658455 -0.073668675572 -0.060574113105 -0.044121421317 0.0092209867504 -0.059509160817 -0.054358583978 0.018973070276 
-0.028522151275 -0.19499804233 -0.072220170734 -0.039383638843 -0.14299959809 -0.046698455651 -0.062248337723 -0.052064540277 0.051210699589 
-0.023168811079 -0.21794138308 -0.091202810183 -0.062991138912 -0.047096506697 0.049589057157 -0.032886261058 -0.17194883316 -0.067107997513 
-0.027144956296 -0.21970416427 -0.032262471125 -0.063750564161 -0.045713547613 0.056745568924 -0.057496121745 -0.048099501774 -0.023664939098 
-0.054610629713 -0.066828739337 -0.018723884037 -0.054945154644 -0.051451367518 -0.050789042291 -0.020671914093 -0.22867891046 -0.099970032457 
-0.032284412305 -0.164973638 -0.092026904606 -0.029471726879 -0.21037050666 -0.022489454241 -0.037730795261 -0.1520926215 -0.047767857377 
-0.055805108956 -0.088399213241 0.049158591272 -0.036576367703 -0.18390430565 0.012201102795 -0.028191042975 -0.22494940442 -0.0053534815949 
-0.023529844284 -0.21534941414 -0.092413784337 -0.041282129775 -0.1569242988 0.012642803239 -0.026578569176 -0.20083226605 -0.085063192025 
-0.023000081838 -0.21822187861 -0.092856684876 -0.059116960462 -0.030713631759 -0.042812020224 -0.022199028063 -0.21917402967 -0.10161361072 
-0.063186873706 -0.024595395678 -0.0013746551253 -0.034590425615 -0.15542418604 -0.083054241046 -0.032104743656 -0.17423907557 -0.072405043135 
-0.023033473374 -0.22539149342 -0.075299676086 -0.041823591642 -0.12712326635 -0.050969614042 -0.064808351996 -0.024029805337 0.01959827618 
-0.045982962588 -0.099430609139 -0.059749128107 -0.026355691972 -0.19372746738 -0.10507414311 -0.032344798559 -0.20174977939 -0.0034957945273 
-0.033962206335 -0.1527265161 -0.098135586013 -0.054565520539 -0.086587719766 0.027774239226 -0.047540560823 -0.099342424112 -0.038517120961 
-0.043085443646 -0.12802633018 -0.031445101753 -0.06520681671 -0.025238664313 0.027966402694 -0.0277210975 -0.1959501934 -0.080977096573 
-0.064931923734 -0.043508629138 0.067750417012 
f 3 100 double
0 0 0 0 0 0 0 0 0 
0 0 0 0 0 0 0 0 0 
0 0 0 0 0 0 0 0 0 
0 0 0 0 0 0 0 0 0 
0 0 0 0 0 0 0 0 0 
0 0 0 0 0 0 0 0 0 
0 0 0 0 0 0 0 0 0 
0 0 0 0 0 0 0 0 0 
0 0 0 0 0 0 0 0 0 
0 0 0 0 0 0 0 0 0 
0 0 0 0 0 0 0 0 0 
0 0 0 0.0746744511 -0.00026867003673 0.14934986884 0 0 0 
0 0 0 0 0 0 0 0 0 
0 0 0 0 0 0 0 0 0 
0 0 0 0 0 0 0 0 0 
0 0 0 0 0 0 0 0 0 
0 0 0 0 0 0 0 0 0 
0 0 0 0 0 0 0 0 0 
0 0 0 0 0 0 0 0 0 
0 0 0 0 0 0 0 0 0 
0 0 0 0 0 0 0 0 0 
0 0 0 0 0 0 0 0 0 
0 0 0 0 0 0 0 0 0 
0 0 0 0 0 0 0 0 0 
0 0 0 0 0 0 0 0 0 
0 0 0 0 0 0 0 0 0 
0 0 0 0 0 0 0 0 0 
0 0 0 0 0 0 0 0 0 
0.084113628338 0.0008799559892 0.1682364621 0 0 0 0 0 0 
0 0 0 0 0 0 0 0 0 
0 0 0 0 0 0 0 0 0 
0 0 0 0 0 0 0 0 0 
0 0 0 0 0 0 0 0 0 
0 0 0 
radius 1 100 double
0.010434 0.00981478 0.00892069 0.00845937 0.00731974 0.00728422 0.00643447 0.00619172 0.00585956 
0.00577566 0.00537241 0.00522549 0.00513666 0.00473175 0.00466912 0.00444866 0.00441894 0.00400812 
0.00385622 0.00379948 0.00370243 0.00366942 0.00364039 0.00363813 0.00363644 0.00358692 0.0035797 
0.00341284 0.00337012 0.00336273 0.00332772 0.00323261 0.00320584 0.00320311 0.00318808 0.00313116 
0.00306026 0.00305632 0.00304383 0.00300958 0.00300137 0.00298994 0.0029567 0.00295111 0.00290849 
0.00284552 0.00282964 0.0028207 0.00281971 0.00281899 0.010434 0.00981478 0.00892069 0.00845937 
0.00731974 0.00728422 0.00643447 0.00619172 0.00585956 0.00577566 0.00537241 0.00522549 0.00513666 
0.00473175 0.00466912 0.00444866 0.00441894 0.00400812 0.00385622 0.00379948 0.00370243 0.00366942 
0.00364039 0.00363813 0.00363644 0.00358692 0.0035797 0.00341284 0.00337012 0.00336273 0.00332772 
0.00323261 0.00320584 0.00320311 0.00318808 0.00313116 0.00306026 0.00305632 0.00304383 0.00300958 
0.00300137 0.00298994 0.0029567 0.00295111 0.00290849 0.00284552 0.00282964 0.0028207 0.00281971 
0.00281899 
omega 3 100 double
6.2064514059 0.40149851313 -0.82648128021 6.2064514059 0.40149851313 -0.82648128021 6.2064514059 0.40149851313 -0.82648128021 
6.2064514059 0.40149851313 -0.82648128021 6.2064514059 0.40149851313 -0.82648128021 6.2064514059 0.40149851313 -0.82648128021 
6.2064514059 0.40149851313 -0.82648128021 6.2064514059 0.40149851313 -0.82648128021 6.2064514059 0.40149851313 -0.82648128021 
6.2064514059 0.40149851313 -0.82648128021 6.2064514059 0.40149851313 -0.82648128021 6.2064514059 0.40149851313 -0.82648128021 
6.2064514059 0.40149851313 -0.82648128021 6.2064514059 0.40149851313 -0.82648128021 6.2064514059 0.40149851313 -0.82648128021 
6.2064514059 0.40149851313 -0.82648128021 6.2064514059 0.40149851313 -0.82648128021 6.2064514059 0.40149851313 -0.82648128021 
6.2064514059 0.40149851313 -0.82648128021 6.2064514059 0.40149851313 -0.82648128021 6.2064514059 0.40149851313 -0.82648128021 
6.2064514059 0.40149851313 -0.82648128021 6.2064514059 0.40149851313 -0.82648128021 6.2064514059 0.40149851313 -0.82648128021 
6.2064514059 0.40149851313 -0.82648128021 6.2064514059 0.40149851313 -0.82648128021 6.2064514059 0.40149851313 -0.82648128021 
6.2064514059 0.40149851313 -0.82648128021 6.2064514059 0.40149851313 -0.82648128021 6.2064514059 0.40149851313 -0.82648128021 
6.2064514059 0.40149851313 -0.82648128021 6.2064514059 0.40149851313 -0.82648128021 6.2064514059 0.40149851313 -0.82648128021 
6.2064514059 0.40149851313 -0.82648128021 6.2064514059 0.40149851313 -0.82648128021 6.2064514059 0.40149851313 -0.82648128021 
6.2064514059 0.40149851313 -0.82648128021 6.2064514059 0.40149851313 -0.82648128021 6.2064514059 0.40149851313 -0.82648128021 
6.2064514059 0.40149851313 -0.82648128021 6.2064514059 0.40149851313 -0.82648128021 6.2064514059 0.40149851313 -0.82648128021 
6.2064514059 0.40149851313 -0.82648128021 6.2064514059 0.40149851313 -0.82648128021 6.2064514059 0.40149851313 -0.82648128021 
6.2064514059 0.40149851313 -0.82648128021 6.2064514059 0.40149851313 -0.82648128021 6.2064514059 0.40149851313 -0.82648128021 
6.2064514059 0.40149851313 -0.82648128021 6.2064514059 0.40149851313 -0.82648128021 7.5849119667 1.3139145525 0.55097842711 
7.5849119667 1.3139145525 0.55097842711 7.5849119667 1.3139145525 0.55097842711 7.5849119667 1.3139145525 0.55097842711 
7.5849119667 1.3139145525 0.55097842711 7.5849119667 1.3139145525 0.55097842711 7.5849119667 1.3139145525 0.55097842711 
7.5849119667 1.3139145525 0.55097842711 7.5849119667 1.3139145525 0.55097842711 7.5849119667 1.3139145525 0.55097842711 
7.5849119667 1.3139145525 0.55097842711 7.5849119667 1.3139145525 0.55097842711 7.5849119667 1.3139145525 0.55097842711 
7.5849119667 1.3139145525 0.55097842711 7.5849119667 1.3139145525 0.55097842711 7.5849119667 1.3139145525 0.55097842711 
7.5849119667 1.3139145525 0.55097842711 7.5849119667 1.3139145525 0.55097842711 7.5849119667 1.3139145525 0.55097842711 
7.5849119667 1.3139145525 0.55097842711 7.5849119667 1.3139145525 0.55097842711 7.5849119667 1.3139145525 0.55097842711 
7.5849119667 1.3139145525 0.55097842711 7.5849119667 1.3139145525 0.55097842711 7.5849119667 1.3139145525 0.55097842711 
7.5849119667 1.3139145525 0.55097842711 7.5849119667 1.3139145525 0.55097842711 7.5849119667 1.3139145525 0.55097842711 
7.5849119667 1.3139145525 0.55097842711 7.5849119667 1.3139145525 0.55097842711 7.5849119667 1.3139145525 0.55097842711 
7.5849119667 1.3139145525 0.55097842711 7.5849119667 1.3139145525 0.55097842711 7.5849119667 1.3139145525 0.55097842711 
7.5849119667 1.3139145525 0.55097842711 7.5849119667 1.3139145525 0.55097842711 7.5849119667 1.3139145525 0.55097842711 
7.5849119667 1.3139145525 0.55097842711 7.5849119667 1.3139145525 0.55097842711 7.5849119667 1.3139145525 0.55097842711 
7.5849119667 1.3139145525 0.55097842711 7.5849119667 1.3139145525 0.55097842711 7.5849119667 1.3139145525 0.55097842711 
7.5849119667 1.3139145525 0.55097842711 7.5849119667 1.3139145525 0.55097842711 7.5849119667 1.3139145525 0.55097842711 
7.5849119667 1.3139145525 0.55097842711 7.5849119667 1.3139145525 0.55097842711 7.5849119667 1.3139145525 0.55097842711 
7.5849119667 1.3139145525 0.55097842711 
