# vtk DataFile Version 4.1
Generated by LIGGGHTS
ASCII
DATASET POLYDATA
POINTS 100 float
-0.10789 -0.128712 0.0237739 -0.118169 -0.129569 0.0254871 -0.127592 -0.129569 0.0289137 
-0.11046 -0.129569 0.0340534 -0.0984668 -0.126999 0.028057 -0.119026 -0.130426 0.0357667 
-0.130162 -0.131282 0.0374799 -0.101893 -0.131282 0.0331968 -0.136158 -0.130426 0.0314835 
-0.115599 -0.126999 0.0160642 -0.11303 -0.132139 0.0417631 -0.124166 -0.132139 0.0409064 
-0.120739 -0.123573 0.0177775 -0.107033 -0.132995 0.0417631 -0.125879 -0.124429 0.021204 
-0.119026 -0.132995 0.0426197 -0.10275 -0.125286 0.03491 -0.135302 -0.124429 0.028057 
-0.111316 -0.132139 0.0143509 -0.137015 -0.132995 0.0374799 -0.113886 -0.135565 0.0186341 
-0.109603 -0.133852 0.0460462 -0.10018 -0.134709 0.028057 -0.0924704 -0.123573 0.0246305 
-0.0976102 -0.129569 0.021204 -0.115599 -0.121859 0.0194908 -0.0993234 -0.121003 0.0237739 
-0.0941837 -0.121003 0.0272004 -0.113886 -0.133852 0.0469028 -0.116456 -0.123573 0.0331968 
-0.117313 -0.133852 0.0469028 -0.0950403 -0.132139 0.0323402 -0.125022 -0.136422 0.0237739 
-0.10275 -0.133852 0.0391932 -0.141298 -0.132995 0.0331968 -0.0984668 -0.133852 0.0246305 
-0.122452 -0.133852 0.0460462 -0.103607 -0.130426 0.0391932 -0.130162 -0.133852 0.0434763 
-0.121596 -0.128712 0.0160642 -0.124166 -0.135565 0.03491 -0.10532 -0.135565 0.0374799 
-0.10532 -0.122716 0.0323402 -0.10532 -0.136422 0.0306269 -0.133589 -0.126142 0.03491 
-0.134445 -0.133852 0.0417631 -0.0993234 -0.128712 0.0177775 -0.124166 -0.127856 0.0177775 
-0.120739 -0.133852 0.0486161 -0.130162 -0.122716 0.0229173 -0.0386312 -0.100689 0.0133154 
-0.0489107 -0.101546 0.0150286 -0.0583336 -0.101546 0.0184552 -0.0412011 -0.101546 0.0235948 
-0.0292083 -0.0989761 0.0175985 -0.0497673 -0.102403 0.0253081 -0.0609035 -0.103259 0.0270213 
-0.0326348 -0.103259 0.0227382 -0.0668999 -0.102403 0.021025 -0.0463408 -0.0989756 0.00560579 
-0.0437709 -0.104116 0.0313045 -0.054907 -0.104116 0.0304478 -0.0514806 -0.0955491 0.00731919 
-0.0377745 -0.104973 0.0313044 -0.0566204 -0.0964058 0.0107457 -0.0497672 -0.104973 0.032161 
-0.0334913 -0.0972631 0.0244516 -0.0660432 -0.096406 0.0175987 -0.0420577 -0.104115 0.00389234 
-0.0677565 -0.104973 0.0270213 -0.0446276 -0.107542 0.00817534 -0.0403443 -0.10583 0.0355875 
-0.0309215 -0.106686 0.0175982 -0.0232119 -0.0955494 0.0141721 -0.0283517 -0.101546 0.0107454 
-0.0463408 -0.0938359 0.00903254 -0.0300649 -0.0929795 0.0133156 -0.0249252 -0.0929796 0.0167421 
-0.0446275 -0.10583 0.0364441 -0.0471974 -0.0955497 0.0227385 -0.048054 -0.10583 0.0364441 
-0.0257818 -0.104116 0.0218815 -0.0557637 -0.108399 0.0133151 -0.0334914 -0.105829 0.0287345 
-0.0720396 -0.104972 0.0227382 -0.0292083 -0.105829 0.0141718 -0.0531938 -0.10583 0.0355875 
-0.034348 -0.102403 0.0287346 -0.0609034 -0.10583 0.0330177 -0.0523372 -0.100689 0.00560575 
-0.0549071 -0.107542 0.0244513 -0.0360613 -0.107543 0.0270211 -0.0360612 -0.0946931 0.0218819 
-0.0360613 -0.108399 0.0201681 -0.0643299 -0.0981196 0.0244516 -0.0651866 -0.105829 0.0313045 
-0.0300649 -0.100689 0.00731894 -0.0549071 -0.0998322 0.00731905 -0.0514805 -0.10583 0.0381574 
-0.0609035 -0.0946926 0.0124591 
VERTICES 100 200
1 0 
1 1 
1 2 
1 3 
1 4 
1 5 
1 6 
1 7 
1 8 
1 9 
1 10 
1 11 
1 12 
1 13 
1 14 
1 15 
1 16 
1 17 
1 18 
1 19 
1 20 
1 21 
1 22 
1 23 
1 24 
1 25 
1 26 
1 27 
1 28 
1 29 
1 30 
1 31 
1 32 
1 33 
1 34 
1 35 
1 36 
1 37 
1 38 
1 39 
1 40 
1 41 
1 42 
1 43 
1 44 
1 45 
1 46 
1 47 
1 48 
1 49 
1 50 
1 51 
1 52 
1 53 
1 54 
1 55 
1 56 
1 57 
1 58 
1 59 
1 60 
1 61 
1 62 
1 63 
1 64 
1 65 
1 66 
1 67 
1 68 
1 69 
1 70 
1 71 
1 72 
1 73 
1 74 
1 75 
1 76 
1 77 
1 78 
1 79 
1 80 
1 81 
1 82 
1 83 
1 84 
1 85 
1 86 
1 87 
1 88 
1 89 
1 90 
1 91 
1 92 
1 93 
1 94 
1 95 
1 96 
1 97 
1 98 
1 99 

POINT_DATA 100
FIELD FieldData 7
id 1 100 int
1 2 3 4 5 6 7 8 9 
10 11 12 13 14 15 16 17 18 
19 20 21 22 23 24 25 26 27 
28 29 30 31 32 33 34 35 36 
37 38 39 40 41 42 43 44 45 
46 47 48 49 50 51 52 53 54 
55 56 57 58 59 60 61 62 63 
64 65 66 67 68 69 70 71 72 
73 74 75 76 77 78 79 80 81 
82 83 84 85 86 87 88 89 90 
91 92 93 94 95 96 97 98 99 
100 
mol 1 100 int
1 1 1 1 1 1 1 1 1 
1 1 1 1 1 1 1 1 1 
1 1 1 1 1 1 1 1 1 
1 1 1 1 1 1 1 1 1 
1 1 1 1 1 1 1 1 1 
1 1 1 1 1 2 2 2 2 
2 2 2 2 2 2 2 2 2 
2 2 2 2 2 2 2 2 2 
2 2 2 2 2 2 2 2 2 
2 2 2 2 2 2 2 2 2 
2 2 2 2 2 2 2 2 2 
2 
type 1 100 int
1 1 1 1 1 1 1 1 1 
1 1 1 1 1 1 1 1 1 
1 1 1 1 1 1 1 1 1 
1 1 1 1 1 1 1 1 1 
1 1 1 1 1 1 1 1 1 
1 1 1 1 1 1 1 1 1 
1 1 1 1 1 1 1 1 1 
1 1 1 1 1 1 1 1 1 
1 1 1 1 1 1 1 1 1 
1 1 1 1 1 1 1 1 1 
1 1 1 1 1 1 1 1 1 
1 
v 3 100 double
0 0 -2.45183095 0 0 -2.45183095 0 0 -2.45183095 
0 0 -2.45183095 0 0 -2.45183095 0 0 -2.45183095 
0 0 -2.45183095 0 0 -2.45183095 0 0 -2.45183095 
0 0 -2.45183095 0 0 -2.45183095 0 0 -2.45183095 
0 0 -2.45183095 0 0 -2.45183095 0 0 -2.45183095 
0 0 -2.45183095 0 0 -2.45183095 0 0 -2.45183095 
0 0 -2.45183095 0 0 -2.45183095 0 0 -2.45183095 
0 0 -2.45183095 0 0 -2.45183095 0 0 -2.45183095 
0 0 -2.45183095 0 0 -2.45183095 0 0 -2.45183095 
0 0 -2.45183095 0 0 -2.45183095 0 0 -2.45183095 
0 0 -2.45183095 0 0 -2.45183095 0 0 -2.45183095 
0 0 -2.45183095 0 0 -2.45183095 0 0 -2.45183095 
0 0 -2.45183095 0 0 -2.45183095 0 0 -2.45183095 
0 0 -2.45183095 0 0 -2.45183095 0 0 -2.45183095 
0 0 -2.45183095 0 0 -2.45183095 0 0 -2.45183095 
0 0 -2.45183095 0 0 -2.45183095 0 0 -2.45183095 
0 0 -2.45183095 0 0 -2.45183095 -0.00048700498518 0.0055578071288 -2.4062892455 
-0.00040686068649 0.0047156953826 -2.4062294291 -4.0885614487e-05 0.00169430908 -2.4052231138 0.00050803158532 -0.0065909894708 -2.4070532749 
0.00017611961371 -0.00076397880687 -2.4052196183 0.00058818044434 -0.0076388972788 -2.4071765058 0.00066832059979 -0.0083781655824 -2.4070252332 
0.00021085509733 -0.006581182657 -2.4100444439 0.00013073918048 -0.00039154817346 -2.4053463728 -0.0011047182832 0.015826286315 -2.4033891547 
0.0010229214225 -0.015625466007 -2.4098934616 0.00093143269119 -0.013250418698 -2.4087039691 -0.00051037052405 0.01436691185 -2.3986878004 
0.00092007516889 -0.016345272193 -2.4115720584 -0.00024724746656 0.010831515423 -2.3991770467 0.0010115710087 -0.015943677506 -2.4102911475 
0.0011137132771 -0.0085547792324 -2.4026862782 0.00048467406973 0.0036577997759 -2.3981708857 -0.0019047487995 0.017388567858 -2.4100752508 
0.00046264378764 -0.0075554119271 -2.4083694795 -0.0018586673607 0.012506685197 -2.4139534034 0.0012746792642 -0.021227268372 -2.4123358824 
-0.00074945264362 -0.00055797503696 -2.4143796723 0.00022152202309 0.0026684725501 -2.4017075025 -0.0008643202593 0.0074381972487 -2.4084251614 
-0.00012170247919 0.011673539408 -2.3971605789 0.00043856680347 0.0045291158528 -2.3978611274 0.00080451999496 -0.00024033169945 -2.3984102536 
0.0013661691746 -0.021751168617 -2.4118784286 0.0011364386721 -0.0048333291133 -2.3991459617 0.0013661718099 -0.021339830867 -2.4115124417 
1.6522769321e-05 -0.0063657388438 -2.4118144849 -0.0014125593806 0.0076148367734 -2.4138022926 0.00054275970446 -0.013745050012 -2.4130675538 
5.2033212765e-06 -0.0018507095735 -2.4079118053 -0.001012569464 0.0033887711425 -2.4135243921 0.001274689147 -0.019684736804 -2.4109634183 
0.00095412572972 -0.013642358081 -2.4088235926 0.0010002245481 -0.015644864374 -2.4101398371 -0.0013104017569 0.016546206135 -2.4048249578 
-0.00012036034811 -0.0059834547653 -2.412856161 0.00015409568574 -0.011360183886 -2.4148692075 0.0011477815312 -0.0051321422443 -2.3992973085 
-0.000680660245 -0.003055252149 -2.4159070222 0.0010108989555 -0.0048526896025 -2.4004304665 0.00081725461014 -0.013054532316 -2.4096822806 
-0.0011274392466 0.011796269175 -2.4072039534 -0.0010245700946 0.014778438985 -2.4035123386 0.0015491583577 -0.023004777175 -2.4111465305 
0.00014141582022 0.0092693247991 -2.3966434798 
f 3 100 double
0 0 0 0 0 0 0 0 0 
0 0 0 0 0 0 0 0 0 
0 0 0 0 0 0 0 0 0 
0 0 0 0 0 0 0 0 0 
0 0 0 0 0 0 0 0 0 
0 0 0 0 0 0 0 0 0 
0 0 0 0 0 0 0 0 0 
0 0 0 0 0 0 0 0 0 
0 0 0 0 0 0 0 0 0 
0 0 0 0 0 0 0 0 0 
0 0 0 0 0 0 0 0 0 
0 0 0 0 0 0 0 0 0 
0 0 0 0 0 0 0 0 0 
0 0 0 0 0 0 0 0 0 
0 0 0 0 0 0 0 0 0 
0 0 0 0 0 0 0 0 0 
0 0 0 0 0 0 0 0 0 
0 0 0 0 0 0 0 0 0 
0 0 0 0 0 0 0 0 0 
0 0 0 0 0 0 0.020946126629 -0.27814858843 39.013040915 
0 0 0 0 0 0 0 0 0 
0 0 0 0 0 0 0 0 0 
0 0 0 0 0 0 0 0 0 
0 0 0 0 0 0 0 0 0 
0 0 0 0 0 0 0 0 0 
0 0 0 0 0 0 0 0 0 
0 0 0 0 0 0 0 0 0 
0 0 0 0 0 0 0 0 0 
0 0 0 0 0 0 0 0 0 
0 0 0 0 0 0 0 0 0 
0 0 0 0 0 0 0 0 0 
0 0 0 0 0 0 0 0 0 
0 0 0 0 0 0 0 0 0 
0 0 0 
radius 1 100 double
0.010434 0.00981478 0.00892069 0.00845937 0.00731974 0.00728422 0.00643447 0.00619172 0.00585956 
0.00577566 0.00537241 0.00522549 0.00513666 0.00473175 0.00466912 0.00444866 0.00441894 0.00400812 
0.00385622 0.00379948 0.00370243 0.00366942 0.00364039 0.00363813 0.00363644 0.00358692 0.0035797 
0.00341284 0.00337012 0.00336273 0.00332772 0.00323261 0.00320584 0.00320311 0.00318808 0.00313116 
0.00306026 0.00305632 0.00304383 0.00300958 0.00300137 0.00298994 0.0029567 0.00295111 0.00290849 
0.00284552 0.00282964 0.0028207 0.00281971 0.00281899 0.010434 0.00981478 0.00892069 0.00845937 
0.00731974 0.00728422 0.00643447 0.00619172 0.00585956 0.00577566 0.00537241 0.00522549 0.00513666 
0.00473175 0.00466912 0.00444866 0.00441894 0.00400812 0.00385622 0.00379948 0.00370243 0.00366942 
0.00364039 0.00363813 0.00363644 0.00358692 0.0035797 0.00341284 0.00337012 0.00336273 0.00332772 
0.00323261 0.00320584 0.00320311 0.00318808 0.00313116 0.00306026 0.00305632 0.00304383 0.00300958 
0.00300137 0.00298994 0.0029567 0.00295111 0.00290849 0.00284552 0.00282964 0.0028207 0.00281971 
0.00281899 
omega 3 100 double
0 0 0 0 0 0 0 0 0 
0 0 0 0 0 0 0 0 0 
0 0 0 0 0 0 0 0 0 
0 0 0 0 0 0 0 0 0 
0 0 0 0 0 0 0 0 0 
0 0 0 0 0 0 0 0 0 
0 0 0 0 0 0 0 0 0 
0 0 0 0 0 0 0 0 0 
0 0 0 0 0 0 0 0 0 
0 0 0 0 0 0 0 0 0 
0 0 0 0 0 0 0 0 0 
0 0 0 0 0 0 0 0 0 
0 0 0 0 0 0 0 0 0 
0 0 0 0 0 0 0 0 0 
0 0 0 0 0 0 0 0 0 
0 0 0 0 0 0 0 0 0 
0 0 0 0 0 0 1.2118621408 0.10680636443 -0.12004988844 
1.2118621408 0.10680636443 -0.12004988844 1.2118621408 0.10680636443 -0.12004988844 1.2118621408 0.10680636443 -0.12004988844 
1.2118621408 0.10680636443 -0.12004988844 1.2118621408 0.10680636443 -0.12004988844 1.2118621408 0.10680636443 -0.12004988844 
1.2118621408 0.10680636443 -0.12004988844 1.2118621408 0.10680636443 -0.12004988844 1.2118621408 0.10680636443 -0.12004988844 
1.2118621408 0.10680636443 -0.12004988844 1.2118621408 0.10680636443 -0.12004988844 1.2118621408 0.10680636443 -0.12004988844 
1.2118621408 0.10680636443 -0.12004988844 1.2118621408 0.10680636443 -0.12004988844 1.2118621408 0.10680636443 -0.12004988844 
1.2118621408 0.10680636443 -0.12004988844 1.2118621408 0.10680636443 -0.12004988844 1.2118621408 0.10680636443 -0.12004988844 
1.2118621408 0.10680636443 -0.12004988844 1.2118621408 0.10680636443 -0.12004988844 1.2118621408 0.10680636443 -0.12004988844 
1.2118621408 0.10680636443 -0.12004988844 1.2118621408 0.10680636443 -0.12004988844 1.2118621408 0.10680636443 -0.12004988844 
1.2118621408 0.10680636443 -0.12004988844 1.2118621408 0.10680636443 -0.12004988844 1.2118621408 0.10680636443 -0.12004988844 
1.2118621408 0.10680636443 -0.12004988844 1.2118621408 0.10680636443 -0.12004988844 1.2118621408 0.10680636443 -0.12004988844 
1.2118621408 0.10680636443 -0.12004988844 1.2118621408 0.10680636443 -0.12004988844 1.2118621408 0.10680636443 -0.12004988844 
1.2118621408 0.10680636443 -0.12004988844 1.2118621408 0.10680636443 -0.12004988844 1.2118621408 0.10680636443 -0.12004988844 
1.2118621408 0.10680636443 -0.12004988844 1.2118621408 0.10680636443 -0.12004988844 1.2118621408 0.10680636443 -0.12004988844 
1.2118621408 0.10680636443 -0.12004988844 1.2118621408 0.10680636443 -0.12004988844 1.2118621408 0.10680636443 -0.12004988844 
1.2118621408 0.10680636443 -0.12004988844 1.2118621408 0.10680636443 -0.12004988844 1.2118621408 0.10680636443 -0.12004988844 
1.2118621408 0.10680636443 -0.12004988844 1.2118621408 0.10680636443 -0.12004988844 1.2118621408 0.10680636443 -0.12004988844 
1.2118621408 0.10680636443 -0.12004988844 
