# vtk DataFile Version 4.1
Generated by LIGGGHTS
ASCII
DATASET POLYDATA
POINTS 100 float
-0.118271 -0.143724 0.0140574 -0.128007 -0.141544 0.0109275 -0.137817 -0.139769 0.00985517 
-0.125805 -0.148265 0.0200267 -0.112267 -0.147682 0.0216967 -0.134076 -0.146697 0.0175423 
-0.144545 -0.144212 0.0140896 -0.118187 -0.152315 0.0216429 -0.146528 -0.138598 0.00799009 
-0.12077 -0.13601 0.00656953 -0.132165 -0.153005 0.0231458 -0.141245 -0.148634 0.0183307 
-0.125755 -0.132191 0.00785559 -0.127111 -0.15584 0.0249091 -0.131975 -0.132639 0.00790101 
-0.137801 -0.151957 0.0210102 -0.119296 -0.14794 0.0260304 -0.14354 -0.132452 0.00930642 
-0.11666 -0.140914 0.00396888 -0.150546 -0.143156 0.0105158 -0.121337 -0.144761 0.00411424 
-0.131573 -0.157603 0.0265423 -0.114375 -0.153324 0.016588 -0.105101 -0.145455 0.0234618 
-0.10824 -0.146896 0.0155761 -0.122096 -0.133429 0.0120229 -0.110305 -0.140528 0.0217481 
-0.107667 -0.14395 0.0261624 -0.135673 -0.156471 0.0255479 -0.129991 -0.140865 0.0206194 
-0.138602 -0.155248 0.024257 -0.111961 -0.155058 0.0231095 -0.13356 -0.143863 0.00313939 
-0.122205 -0.156873 0.0241686 -0.152013 -0.139642 0.00580483 -0.111084 -0.151653 0.0152516 
-0.142556 -0.153017 0.021701 -0.122651 -0.153788 0.0258295 -0.14783 -0.149075 0.016938 
-0.126039 -0.13526 0.00331847 -0.13846 -0.148635 0.0120109 -0.123667 -0.156551 0.0209696 
-0.119962 -0.143747 0.0246916 -0.120228 -0.15407 0.0155181 -0.145728 -0.137629 0.0139157 
-0.150614 -0.146752 0.0140854 -0.107878 -0.144002 0.0129487 -0.129041 -0.134442 0.00408509 
-0.142408 -0.154819 0.0242049 -0.136371 -0.130515 0.00851802 -0.0497326 -0.114832 0.014524 
-0.0595356 -0.113171 0.011287 -0.069432 -0.112139 0.0100495 -0.0569897 -0.120623 0.0197017 
-0.043609 -0.119063 0.0219182 -0.0652975 -0.119511 0.0170954 -0.0758482 -0.117575 0.0135431 
-0.0490869 -0.124154 0.0211598 -0.0781581 -0.111526 0.00800075 -0.0527055 -0.106596 0.0078044 
-0.0629834 -0.126201 0.022069 -0.0722837 -0.122131 0.0174123 -0.0580449 -0.103381 0.00930255 
-0.0577459 -0.128765 0.0237075 -0.0641989 -0.104364 0.0090728 -0.0686302 -0.125416 0.0198509 
-0.0507014 -0.12039 0.0259404 -0.0757681 -0.105325 0.0100659 -0.048105 -0.110819 0.00485358 
-0.0818202 -0.116658 0.00988329 -0.0524214 -0.115046 0.00442144 -0.0620754 -0.131071 0.0249814 
-0.0450649 -0.124279 0.0161696 -0.0367204 -0.116432 0.0241692 -0.0395026 -0.117276 0.016066 
-0.0544045 -0.104744 0.0134472 -0.042296 -0.111814 0.0227951 -0.0394834 -0.115454 0.0269176 
-0.0662315 -0.130195 0.0239625 -0.0618351 -0.113717 0.0209175 -0.0692219 -0.129096 0.0227013 
-0.0426837 -0.126495 0.0225559 -0.0646449 -0.115102 0.00309996 -0.0527489 -0.129286 0.0230424 
-0.083467 -0.112795 0.00551833 -0.0419012 -0.122196 0.0151381 -0.0732892 -0.126949 0.0202518 
-0.053514 -0.126449 0.0250017 -0.0787627 -0.122982 0.0157409 -0.0579298 -0.105954 0.00445989 
-0.0693386 -0.121208 0.0112339 -0.0541465 -0.128747 0.0198437 -0.0517026 -0.116151 0.0250275 
-0.0507964 -0.125405 0.0148135 -0.07761 -0.111138 0.0140207 -0.0816642 -0.120612 0.0130491 
-0.0393291 -0.114095 0.0137733 -0.0610134 -0.105485 0.00519805 -0.0730487 -0.128992 0.0225555 
-0.068782 -0.102705 0.00974897 
VERTICES 100 200
1 0 
1 1 
1 2 
1 3 
1 4 
1 5 
1 6 
1 7 
1 8 
1 9 
1 10 
1 11 
1 12 
1 13 
1 14 
1 15 
1 16 
1 17 
1 18 
1 19 
1 20 
1 21 
1 22 
1 23 
1 24 
1 25 
1 26 
1 27 
1 28 
1 29 
1 30 
1 31 
1 32 
1 33 
1 34 
1 35 
1 36 
1 37 
1 38 
1 39 
1 40 
1 41 
1 42 
1 43 
1 44 
1 45 
1 46 
1 47 
1 48 
1 49 
1 50 
1 51 
1 52 
1 53 
1 54 
1 55 
1 56 
1 57 
1 58 
1 59 
1 60 
1 61 
1 62 
1 63 
1 64 
1 65 
1 66 
1 67 
1 68 
1 69 
1 70 
1 71 
1 72 
1 73 
1 74 
1 75 
1 76 
1 77 
1 78 
1 79 
1 80 
1 81 
1 82 
1 83 
1 84 
1 85 
1 86 
1 87 
1 88 
1 89 
1 90 
1 91 
1 92 
1 93 
1 94 
1 95 
1 96 
1 97 
1 98 
1 99 

POINT_DATA 100
FIELD FieldData 7
id 1 100 int
1 2 3 4 5 6 7 8 9 
10 11 12 13 14 15 16 17 18 
19 20 21 22 23 24 25 26 27 
28 29 30 31 32 33 34 35 36 
37 38 39 40 41 42 43 44 45 
46 47 48 49 50 51 52 53 54 
55 56 57 58 59 60 61 62 63 
64 65 66 67 68 69 70 71 72 
73 74 75 76 77 78 79 80 81 
82 83 84 85 86 87 88 89 90 
91 92 93 94 95 96 97 98 99 
100 
mol 1 100 int
1 1 1 1 1 1 1 1 1 
1 1 1 1 1 1 1 1 1 
1 1 1 1 1 1 1 1 1 
1 1 1 1 1 1 1 1 1 
1 1 1 1 1 1 1 1 1 
1 1 1 1 1 2 2 2 2 
2 2 2 2 2 2 2 2 2 
2 2 2 2 2 2 2 2 2 
2 2 2 2 2 2 2 2 2 
2 2 2 2 2 2 2 2 2 
2 2 2 2 2 2 2 2 2 
2 
type 1 100 int
1 1 1 1 1 1 1 1 1 
1 1 1 1 1 1 1 1 1 
1 1 1 1 1 1 1 1 1 
1 1 1 1 1 1 1 1 1 
1 1 1 1 1 1 1 1 1 
1 1 1 1 1 1 1 1 1 
1 1 1 1 1 1 1 1 1 
1 1 1 1 1 1 1 1 1 
1 1 1 1 1 1 1 1 1 
1 1 1 1 1 1 1 1 1 
1 1 1 1 1 1 1 1 1 
1 
v 3 100 double
0.11124018998 -0.14778569462 -0.12758029111 0.091841965534 -0.09829773353 -0.032776572608 0.087901426194 -0.064306072671 0.059532580309 
0.1472242701 -0.17348098523 -0.10171608009 0.16216994801 -0.22183923034 -0.20597505641 0.13140083011 -0.1327695688 -0.023335574205 
0.11021493149 -0.078893009528 0.079679927944 0.1495458775 -0.20585298584 -0.19377408825 0.076006916008 -0.02716276579 0.13841005568 
0.071409300768 -0.084111336781 -0.048695864255 0.15979803355 -0.18052962055 -0.086789039538 0.13263384795 -0.11991597254 0.019461207456 
0.091787778927 -0.080800149843 0.020461602652 0.16649811813 -0.20727617172 -0.14899253192 0.090972471883 -0.064778449149 0.066990420648 
0.14540634972 -0.14941301422 -0.033538851906 0.19629227367 -0.23639122282 -0.15150125591 0.10275030044 -0.04506289082 0.16128394482 
0.037622013608 -0.075094551605 -0.11908988717 0.084295602506 -0.035849169748 0.13592194653 0.028665908035 -0.063896669131 -0.11087187094 
0.17497418379 -0.20798804542 -0.12660276885 0.10629939852 -0.17733547974 -0.23207120891 0.1822045934 -0.25415820987 -0.2465420986 
0.11508753782 -0.18576506797 -0.23232830193 0.12199262834 -0.12220670882 -0.018365469769 0.18140919032 -0.22739437188 -0.16717515919 
0.20785132822 -0.26799865305 -0.21445767513 0.16996737184 -0.18961650529 -0.085049458587 0.17145862615 -0.16698401802 -0.011663330024 
0.1628183864 -0.17206439077 -0.052204317275 0.15410364779 -0.2334184967 -0.26468473588 0.023199440843 -0.02429740425 -0.0058725526808 
0.15783462659 -0.21453954347 -0.19626248497 0.055710999036 0.0039364029637 0.17449763551 0.099965714983 -0.17580469269 -0.24575376159 
0.14816522759 -0.14216697564 -0.0034322907322 0.17928992433 -0.22603019355 -0.16915351408 0.12029087478 -0.09196746773 0.068980485538 
0.047276868552 -0.045455268311 -0.00066535881175 0.081883195609 -0.079053165853 -0.0029090279734 0.13299190758 -0.18629743016 -0.18206923243 
0.19657389759 -0.22442942549 -0.11418283292 0.095743687388 -0.15377492184 -0.19076292137 0.12614070745 -0.07445204155 0.13938188445 
0.10349554249 -0.062889478206 0.10904434312 0.10160480614 -0.16668249327 -0.21316689245 0.055585672133 -0.043399380474 0.029685742471 
0.16352901235 -0.16165066732 -0.018366788629 0.10151688085 -0.057916101697 0.11848717498 0.092255567542 -0.1193310889 -0.1015443166 
0.071326335618 -0.088033863189 -0.02209956368 0.063608570455 -0.071660407157 0.053259344252 0.12348640909 -0.15294852723 -0.09536870168 
0.13975114655 -0.17915925517 -0.17511096629 0.10647284556 -0.12745167473 -0.030262574367 0.083585562428 -0.093254021285 0.056351520216 
0.13091875416 -0.16954618569 -0.17584972284 0.050048380908 -0.050044158399 0.11749146852 0.05224039653 -0.066819064731 -0.019483787839 
0.13566459443 -0.16640083359 -0.096234745211 0.10676046567 -0.12481943004 -0.0021637781079 0.064783437832 -0.074223737898 0.041112506428 
0.14502311222 -0.18244029337 -0.15125056433 0.062508471334 -0.068089318689 0.075794164423 0.12106973266 -0.14572217574 -0.051760685649 
0.16628573965 -0.2042318636 -0.13659982256 0.068606706242 -0.067241410356 0.1476533878 0.029048941128 -0.047993260206 -0.082576645706 
0.0592335968 -0.061533306068 0.10403719713 0.023065151152 -0.041658810449 -0.084776093853 0.15207529281 -0.18888743432 -0.13895179911 
0.096728458483 -0.13501548274 -0.20427073834 0.15701961663 -0.20097496159 -0.20246220186 0.10104026378 -0.1382259997 -0.18977972197 
0.092128740807 -0.10790802976 0.0060149210257 0.1509401023 -0.18667519791 -0.12973667318 0.17650238421 -0.21960077721 -0.17624942843 
0.14574071975 -0.17826866751 -0.10398133143 0.13674547313 -0.15859030089 -0.010479944098 0.13791001213 -0.16666876796 -0.075305572711 
0.13878095957 -0.18460422391 -0.23715935763 0.013994834503 -0.022987847906 -0.0016624739029 0.14010403861 -0.18103543492 -0.18930424529 
0.032174860376 -0.027626120065 0.14425641505 0.091172640994 -0.12954981307 -0.21027563148 0.12270985354 -0.14538738784 -0.031416657827 
0.15552725035 -0.19517695268 -0.16280260576 0.094728466654 -0.10764316077 0.035728267306 0.029845842757 -0.0379980588 0.021032709146 
0.065200719039 -0.08060724652 -0.015371637438 0.11863207712 -0.15605140103 -0.17571340605 0.16308658697 -0.19666916666 -0.097969066311 
0.086654129963 -0.12073915345 -0.17354736697 0.091464016935 -0.095572129253 0.11664997985 0.078032173496 -0.085380647896 0.073322473222 
0.087653764298 -0.12116057008 -0.16710991896 0.035226595359 -0.041321841658 0.045623386467 0.13698767347 -0.1628320446 -0.048379632873 
0.068318763943 -0.069873304803 0.11955456051 
f 3 100 double
0 0 0 0 0 0 0 0 0 
0 0 0 0 0 0 0 0 0 
0 0 0 0 0 0 0 0 0 
0 0 0 0 0 0 0 0 0 
0 0 0 0 0 0 0 0 0 
0 0 0 0 0 0 0 0 0 
0 0 0 0 0 0 0 0 0 
0 0 0 0 0 0 0 0 0 
0 0 0 0 0 0 0 0 0 
0 0 0 0 0 0 0 0 0 
0 0 0 0 0 0 0.0437467309 0.0040225676978 0.31886633861 
0 0 0 0 0 0 0 0 0 
0 0 0 0 0 0 0 0 0 
0 0 0 0 0 0 0 0 0 
0 0 0 0 0 0 0 0 0 
0 0 0 0 0 0 0 0 0 
0 0 0 0 0 0 0 0 0 
0 0 0 0 0 0 0 0 0 
0 0 0 0 0 0 0 0 0 
0 0 0 0 0 0 0 0 0 
0 0 0 0 0 0 0 0 0 
0 0 0 0 0 0 0 0 0 
0 0 0 0 0 0 0 0 0 
0 0 0 0 0 0 0 0 0 
0 0 0 0 0 0 0 0 0 
0 0 0 0 0 0 0 0 0 
0 0 0 0 0 0 0 0 0 
0 0 0 0.18200089269 -0.023147399063 0.53567370037 0 0 0 
0 0 0 0 0 0 0 0 0 
0 0 0 0 0 0 0 0 0 
0 0 0 0 0 0 0 0 0 
0 0 0 0 0 0 0 0 0 
0 0 0 0 0 0 0 0 0 
0 0 0 
radius 1 100 double
0.010434 0.00981478 0.00892069 0.00845937 0.00731974 0.00728422 0.00643447 0.00619172 0.00585956 
0.00577566 0.00537241 0.00522549 0.00513666 0.00473175 0.00466912 0.00444866 0.00441894 0.00400812 
0.00385622 0.00379948 0.00370243 0.00366942 0.00364039 0.00363813 0.00363644 0.00358692 0.0035797 
0.00341284 0.00337012 0.00336273 0.00332772 0.00323261 0.00320584 0.00320311 0.00318808 0.00313116 
0.00306026 0.00305632 0.00304383 0.00300958 0.00300137 0.00298994 0.0029567 0.00295111 0.00290849 
0.00284552 0.00282964 0.0028207 0.00281971 0.00281899 0.010434 0.00981478 0.00892069 0.00845937 
0.00731974 0.00728422 0.00643447 0.00619172 0.00585956 0.00577566 0.00537241 0.00522549 0.00513666 
0.00473175 0.00466912 0.00444866 0.00441894 0.00400812 0.00385622 0.00379948 0.00370243 0.00366942 
0.00364039 0.00363813 0.00363644 0.00358692 0.0035797 0.00341284 0.00337012 0.00336273 0.00332772 
0.00323261 0.00320584 0.00320311 0.00318808 0.00313116 0.00306026 0.00305632 0.00304383 0.00300958 
0.00300137 0.00298994 0.0029567 0.00295111 0.00290849 0.00284552 0.00282964 0.0028207 0.00281971 
0.00281899 
omega 3 100 double
7.6256028087 8.0302142386 -2.6314977821 7.6256028087 8.0302142386 -2.6314977821 7.6256028087 8.0302142386 -2.6314977821 
7.6256028087 8.0302142386 -2.6314977821 7.6256028087 8.0302142386 -2.6314977821 7.6256028087 8.0302142386 -2.6314977821 
7.6256028087 8.0302142386 -2.6314977821 7.6256028087 8.0302142386 -2.6314977821 7.6256028087 8.0302142386 -2.6314977821 
7.6256028087 8.0302142386 -2.6314977821 7.6256028087 8.0302142386 -2.6314977821 7.6256028087 8.0302142386 -2.6314977821 
7.6256028087 8.0302142386 -2.6314977821 7.6256028087 8.0302142386 -2.6314977821 7.6256028087 8.0302142386 -2.6314977821 
7.6256028087 8.0302142386 -2.6314977821 7.6256028087 8.0302142386 -2.6314977821 7.6256028087 8.0302142386 -2.6314977821 
7.6256028087 8.0302142386 -2.6314977821 7.6256028087 8.0302142386 -2.6314977821 7.6256028087 8.0302142386 -2.6314977821 
7.6256028087 8.0302142386 -2.6314977821 7.6256028087 8.0302142386 -2.6314977821 7.6256028087 8.0302142386 -2.6314977821 
7.6256028087 8.0302142386 -2.6314977821 7.6256028087 8.0302142386 -2.6314977821 7.6256028087 8.0302142386 -2.6314977821 
7.6256028087 8.0302142386 -2.6314977821 7.6256028087 8.0302142386 -2.6314977821 7.6256028087 8.0302142386 -2.6314977821 
7.6256028087 8.0302142386 -2.6314977821 7.6256028087 8.0302142386 -2.6314977821 7.6256028087 8.0302142386 -2.6314977821 
7.6256028087 8.0302142386 -2.6314977821 7.6256028087 8.0302142386 -2.6314977821 7.6256028087 8.0302142386 -2.6314977821 
7.6256028087 8.0302142386 -2.6314977821 7.6256028087 8.0302142386 -2.6314977821 7.6256028087 8.0302142386 -2.6314977821 
7.6256028087 8.0302142386 -2.6314977821 7.6256028087 8.0302142386 -2.6314977821 7.6256028087 8.0302142386 -2.6314977821 
7.6256028087 8.0302142386 -2.6314977821 7.6256028087 8.0302142386 -2.6314977821 7.6256028087 8.0302142386 -2.6314977821 
7.6256028087 8.0302142386 -2.6314977821 7.6256028087 8.0302142386 -2.6314977821 7.6256028087 8.0302142386 -2.6314977821 
7.6256028087 8.0302142386 -2.6314977821 7.6256028087 8.0302142386 -2.6314977821 7.497561669 6.8335914336 -0.71690381547 
7.497561669 6.8335914336 -0.71690381547 7.497561669 6.8335914336 -0.71690381547 7.497561669 6.8335914336 -0.71690381547 
7.497561669 6.8335914336 -0.71690381547 7.497561669 6.8335914336 -0.71690381547 7.497561669 6.8335914336 -0.71690381547 
7.497561669 6.8335914336 -0.71690381547 7.497561669 6.8335914336 -0.71690381547 7.497561669 6.8335914336 -0.71690381547 
7.497561669 6.8335914336 -0.71690381547 7.497561669 6.8335914336 -0.71690381547 7.497561669 6.8335914336 -0.71690381547 
7.497561669 6.8335914336 -0.71690381547 7.497561669 6.8335914336 -0.71690381547 7.497561669 6.8335914336 -0.71690381547 
7.497561669 6.8335914336 -0.71690381547 7.497561669 6.8335914336 -0.71690381547 7.497561669 6.8335914336 -0.71690381547 
7.497561669 6.8335914336 -0.71690381547 7.497561669 6.8335914336 -0.71690381547 7.497561669 6.8335914336 -0.71690381547 
7.497561669 6.8335914336 -0.71690381547 7.497561669 6.8335914336 -0.71690381547 7.497561669 6.8335914336 -0.71690381547 
7.497561669 6.8335914336 -0.71690381547 7.497561669 6.8335914336 -0.71690381547 7.497561669 6.8335914336 -0.71690381547 
7.497561669 6.8335914336 -0.71690381547 7.497561669 6.8335914336 -0.71690381547 7.497561669 6.8335914336 -0.71690381547 
7.497561669 6.8335914336 -0.71690381547 7.497561669 6.8335914336 -0.71690381547 7.497561669 6.8335914336 -0.71690381547 
7.497561669 6.8335914336 -0.71690381547 7.497561669 6.8335914336 -0.71690381547 7.497561669 6.8335914336 -0.71690381547 
7.497561669 6.8335914336 -0.71690381547 7.497561669 6.8335914336 -0.71690381547 7.497561669 6.8335914336 -0.71690381547 
7.497561669 6.8335914336 -0.71690381547 7.497561669 6.8335914336 -0.71690381547 7.497561669 6.8335914336 -0.71690381547 
7.497561669 6.8335914336 -0.71690381547 7.497561669 6.8335914336 -0.71690381547 7.497561669 6.8335914336 -0.71690381547 
7.497561669 6.8335914336 -0.71690381547 7.497561669 6.8335914336 -0.71690381547 7.497561669 6.8335914336 -0.71690381547 
7.497561669 6.8335914336 -0.71690381547 
