# vtk DataFile Version 4.1
Generated by LIGGGHTS
ASCII
DATASET POLYDATA
POINTS 100 float
-0.116767 -0.149504 0.0126842 -0.126622 -0.14611 0.0118492 -0.136375 -0.14395 0.0127089 
-0.123933 -0.156062 0.0170035 -0.110287 -0.156373 0.0172556 -0.132305 -0.153509 0.0163332 
-0.142901 -0.149694 0.0154158 -0.116432 -0.160492 0.0159264 -0.145145 -0.142013 0.0124798 
-0.119539 -0.139329 0.00943048 -0.130218 -0.16161 0.0185396 -0.139462 -0.155525 0.0170279 
-0.124157 -0.136357 0.0127374 -0.125184 -0.164975 0.0183864 -0.130359 -0.136719 0.0132791 
-0.135966 -0.159702 0.017675 -0.116869 -0.158362 0.0218336 -0.141707 -0.137025 0.0159039 
-0.115978 -0.142722 0.00458211 -0.14915 -0.14717 0.013298 -0.120826 -0.146224 0.00362341 
-0.12956 -0.167216 0.0196164 -0.113187 -0.159316 0.0105249 -0.10287 -0.15517 0.018985 
-0.106828 -0.153123 0.0116187 -0.120189 -0.139273 0.0155732 -0.107933 -0.149927 0.0200737 
-0.105078 -0.154917 0.022333 -0.133667 -0.165729 0.019646 -0.127624 -0.149558 0.0210928 
-0.136634 -0.164047 0.0193167 -0.110258 -0.163661 0.0154142 -0.133018 -0.144876 0.00447139 
-0.120437 -0.165649 0.0167446 -0.150865 -0.141984 0.0106798 -0.109952 -0.15727 0.00965382 
-0.140685 -0.160906 0.0183813 -0.120549 -0.163546 0.0195805 -0.146164 -0.155271 0.0163164 
-0.125046 -0.137226 0.00739495 -0.137301 -0.152891 0.0110204 -0.12218 -0.163994 0.0141558 
-0.117426 -0.153989 0.0224514 -0.119148 -0.159483 0.00989566 -0.143728 -0.143639 0.0181399 
-0.149075 -0.151935 0.0150221 -0.106559 -0.149395 0.0104183 -0.127911 -0.136776 0.00876021 
-0.140398 -0.163597 0.01987 -0.13455 -0.135009 0.0152091 -0.0470126 -0.119742 0.0124222 
-0.0571573 -0.117244 0.0119982 -0.0670374 -0.116037 0.0132064 -0.0534169 -0.127119 0.0166134 
-0.0397977 -0.126174 0.016502 -0.0620032 -0.125328 0.0162769 -0.0729272 -0.122476 0.0158091 
-0.0455775 -0.130783 0.01514 -0.075951 -0.114915 0.0132919 -0.0508004 -0.109735 0.00971732 
-0.0591193 -0.133289 0.01805 -0.0689216 -0.128028 0.0170597 -0.0555704 -0.107352 0.0132759 
-0.0538049 -0.136162 0.0176117 -0.0616945 -0.108312 0.0139584 -0.0650408 -0.131887 0.0174222 
-0.0460316 -0.128964 0.0211492 -0.0728835 -0.109785 0.0168554 -0.0470895 -0.112566 0.00462693 
-0.0794406 -0.120452 0.0139714 -0.0516229 -0.116457 0.00363054 -0.0579185 -0.138852 0.0188476 
-0.0426153 -0.129074 0.00971791 -0.0324747 -0.124365 0.0180953 -0.0368204 -0.122372 0.0109359 
-0.0512698 -0.110009 0.0158706 -0.0379612 -0.119668 0.0195558 -0.034595 -0.124465 0.0215068 
-0.0621417 -0.137756 0.0190513 -0.0575646 -0.121172 0.0210939 -0.0652585 -0.136343 0.0188765 
-0.0391566 -0.13334 0.0143233 -0.0638558 -0.116285 0.00485166 -0.049067 -0.13632 0.0158195 
-0.0817005 -0.115338 0.011642 -0.0396081 -0.126701 0.00886058 -0.0696065 -0.133554 0.0181922 
-0.0492866 -0.134364 0.0187521 -0.0756376 -0.128366 0.0165323 -0.0565346 -0.108064 0.00792328 
-0.0671907 -0.124943 0.011128 -0.05103 -0.134723 0.0133559 -0.0469678 -0.124694 0.0219838 
-0.0485521 -0.129766 0.00923421 -0.0742228 -0.11665 0.0188322 -0.0788791 -0.125261 0.0154695 
-0.0369299 -0.118586 0.00990372 -0.0593868 -0.107943 0.00938074 -0.0690298 -0.136269 0.0195462 
-0.0659651 -0.107084 0.0160725 
VERTICES 100 200
1 0 
1 1 
1 2 
1 3 
1 4 
1 5 
1 6 
1 7 
1 8 
1 9 
1 10 
1 11 
1 12 
1 13 
1 14 
1 15 
1 16 
1 17 
1 18 
1 19 
1 20 
1 21 
1 22 
1 23 
1 24 
1 25 
1 26 
1 27 
1 28 
1 29 
1 30 
1 31 
1 32 
1 33 
1 34 
1 35 
1 36 
1 37 
1 38 
1 39 
1 40 
1 41 
1 42 
1 43 
1 44 
1 45 
1 46 
1 47 
1 48 
1 49 
1 50 
1 51 
1 52 
1 53 
1 54 
1 55 
1 56 
1 57 
1 58 
1 59 
1 60 
1 61 
1 62 
1 63 
1 64 
1 65 
1 66 
1 67 
1 68 
1 69 
1 70 
1 71 
1 72 
1 73 
1 74 
1 75 
1 76 
1 77 
1 78 
1 79 
1 80 
1 81 
1 82 
1 83 
1 84 
1 85 
1 86 
1 87 
1 88 
1 89 
1 90 
1 91 
1 92 
1 93 
1 94 
1 95 
1 96 
1 97 
1 98 
1 99 

POINT_DATA 100
FIELD FieldData 7
id 1 100 int
1 2 3 4 5 6 7 8 9 
10 11 12 13 14 15 16 17 18 
19 20 21 22 23 24 25 26 27 
28 29 30 31 32 33 34 35 36 
37 38 39 40 41 42 43 44 45 
46 47 48 49 50 51 52 53 54 
55 56 57 58 59 60 61 62 63 
64 65 66 67 68 69 70 71 72 
73 74 75 76 77 78 79 80 81 
82 83 84 85 86 87 88 89 90 
91 92 93 94 95 96 97 98 99 
100 
mol 1 100 int
1 1 1 1 1 1 1 1 1 
1 1 1 1 1 1 1 1 1 
1 1 1 1 1 1 1 1 1 
1 1 1 1 1 1 1 1 1 
1 1 1 1 1 1 1 1 1 
1 1 1 1 1 2 2 2 2 
2 2 2 2 2 2 2 2 2 
2 2 2 2 2 2 2 2 2 
2 2 2 2 2 2 2 2 2 
2 2 2 2 2 2 2 2 2 
2 2 2 2 2 2 2 2 2 
2 
type 1 100 int
1 1 1 1 1 1 1 1 1 
1 1 1 1 1 1 1 1 1 
1 1 1 1 1 1 1 1 1 
1 1 1 1 1 1 1 1 1 
1 1 1 1 1 1 1 1 1 
1 1 1 1 1 1 1 1 1 
1 1 1 1 1 1 1 1 1 
1 1 1 1 1 1 1 1 1 
1 1 1 1 1 1 1 1 1 
1 1 1 1 1 1 1 1 1 
1 1 1 1 1 1 1 1 1 
1 
v 3 100 double
0.0024052625686 -0.16939306721 -0.04377388035 0.0060345169173 -0.14681144556 0.0051842383246 0.0090532007058 -0.14628964394 0.038122663969 
-0.0032282049354 -0.21675037114 -0.12501333755 -0.0034722070585 -0.2363165465 -0.13599736813 -0.00052014818028 -0.19807283686 -0.087703029658 
0.0035696407808 -0.17353868855 -0.032921495358 -0.0090691275057 -0.21176614673 -0.18619194377 0.011249591563 -0.13284829271 0.067655830173 
0.012903546144 -0.12395823378 0.089370287041 -0.0090736998052 -0.22912994094 -0.19364236374 -0.0025749233497 -0.19851760978 -0.11016193345 
0.01813781695 -0.16125362166 0.13020230275 -0.013171118277 -0.23316014037 -0.23976731004 0.017980269661 -0.16085781965 0.12866353028 
-0.0072354279767 -0.21107057059 -0.16602212473 -0.0035165991206 -0.28772001601 -0.15838787557 0.018951841209 -0.18128408437 0.13048710568 
0.0063825157189 -0.065444319453 0.04363641804 0.0055066235692 -0.13865710961 0.0029385868691 0.0017105710498 -0.047241530525 0.00076108056261 
-0.015222142652 -0.24385700313 -0.26655525021 -0.01041408841 -0.14571416872 -0.17261547965 -0.0011541929364 -0.26756390738 -0.12419347043 
-0.0024593952706 -0.16747157935 -0.095677294463 0.016098331399 -0.20270662972 0.09043041075 0.0056628502623 -0.27561137022 -0.053741447787 
0.00085251076743 -0.3082713013 -0.11979559949 -0.013431200927 -0.23933430202 -0.24521762096 0.0066229237284 -0.26528214217 -0.038933757132 
-0.011589060581 -0.23152667825 -0.22192499617 -0.013115283397 -0.21251130809 -0.23036115213 0.0037530906472 -0.043656830797 0.0244254726 
-0.014812111628 -0.21757503198 -0.250909391 0.010368236951 -0.10271193687 0.070948685803 -0.0084143164175 -0.13830245646 -0.1477832148 
-0.0083140491538 -0.21457812916 -0.17920705751 -0.010856908712 -0.25415563926 -0.22363505574 -0.0026338649875 -0.18129942279 -0.10346192885 
0.01437994554 -0.091027987109 0.11940693405 -0.0024870131719 -0.12332470646 -0.077160155464 -0.014154193782 -0.18197836099 -0.22860682454 
0.0020213301428 -0.29505295261 -0.10149414082 -0.010933541495 -0.13044794315 -0.1717383987 0.01218908892 -0.20781831242 0.045883932202 
0.00069234506027 -0.16106595105 -0.058788994646 0.0013824225104 -0.15225202137 -0.047553335008 0.015611711155 -0.10528056445 0.12668182575 
-0.010770528037 -0.23419366483 -0.21419060262 0.021006581513 -0.18083868081 0.15294590039 0.039497995773 -0.14764361846 -0.05285564241 
0.04003206372 -0.13473479749 0.01042970241 0.045080486828 -0.14090918285 0.057878185327 0.047886367885 -0.19105621168 -0.1164512521 
0.048254395088 -0.2005151517 -0.15169651172 0.048159220938 -0.18038794409 -0.066619510594 0.048823757809 -0.16635844054 0.0033923498848 
0.039999521776 -0.18020474397 -0.18539758821 0.046256177657 -0.13486408072 0.10107703417 0.038224804258 -0.11337613592 0.07570993008 
0.047887843725 -0.20316754502 -0.16846299334 0.048682475779 -0.18398090657 -0.074388468357 0.052170225021 -0.15076174312 0.11943595394 
0.044134705289 -0.20229407778 -0.21970559031 0.053726691445 -0.15382200612 0.12909539466 0.046865887925 -0.19123548011 -0.13217466279 
0.061808797695 -0.24933483508 -0.16282382666 0.062386827834 -0.17849172245 0.15000614668 0.018731953928 -0.05744071947 0.030391382707 
0.044190505998 -0.1399676097 0.04888241606 0.012282507409 -0.042340992537 0.00075905465329 0.046202212526 -0.21333855469 -0.23686001357 
0.02296456267 -0.11984227731 -0.17568059701 0.055084388244 -0.2247193641 -0.15560316749 0.032383149631 -0.13849940471 -0.11782455783 
0.058870782417 -0.18416095238 0.074128614823 0.063743225059 -0.23727845112 -0.082681116046 0.066571515605 -0.2624952827 -0.14957571926 
0.047758103707 -0.2123613917 -0.20986319354 0.067770535941 -0.23959411009 -0.03361705625 0.048280463933 -0.20788068141 -0.18295870955 
0.035212900772 -0.1758277004 -0.23673168748 0.016558957707 -0.046807991082 0.044231085607 0.037933845544 -0.18530831218 -0.23759244187 
0.040328705841 -0.11124704775 0.11568578249 0.021930571143 -0.11230147846 -0.15843462288 0.048161082432 -0.19653572767 -0.13596721715 
0.049420430804 -0.21904690652 -0.21422756576 0.046627495332 -0.17258215362 -0.055528428478 0.033460797444 -0.088104967446 0.11447367173 
0.031005774945 -0.11675419644 -0.044584468739 0.030841679875 -0.15527017698 -0.21246341925 0.068008829109 -0.25824713138 -0.11026343623 
0.020779029119 -0.10956377098 -0.16354643327 0.063671150178 -0.20029387404 0.075157906364 0.045474582876 -0.15773365259 -0.0086292721276 
0.03187137052 -0.12647761941 -0.073675079127 0.038497729817 -0.10270782685 0.12554291224 0.050608788497 -0.21264815679 -0.16932374774 
0.06186341186 -0.17489821208 0.15777509722 
f 3 100 double
0 0 0 0 0 0 0 0 0 
0 0 0 0 0 0 0 0 0 
0 0 0 0 0 0 0 0 0 
0 0 0 0 0 0 0 0 0 
0 0 0 0 0 0 0 0 0 
0 0 0 0 0 0 0 0 0 
0 0 0 0 0 0 -0.085790897481 -0.062044399102 0.34847479429 
0 0 0 0 0 0 0 0 0 
0 0 0 0 0 0 0 0 0 
0 0 0 0 0 0 0 0 0 
0 0 0 0 0 0 0 0 0 
0 0 0 0 0 0 0 0 0 
0 0 0 0 0 0 0 0 0 
0 0 0 0 0 0 0 0 0 
0 0 0 0 0 0 0 0 0 
0 0 0 0 0 0 0 0 0 
0 0 0 0 0 0 0 0 0 
0 0 0 0 0 0 0 0 0 
0 0 0 0 0 0 0 0 0 
0 0 0 0 0 0 0 0 0 
0 0 0 0 0 0 0 0 0 
0 0 0 0 0 0 0 0 0 
0 0 0 0 0 0 0 0 0 
0 0 0 -0.055614800691 -0.06239126041 0.30138898414 0 0 0 
0 0 0 0 0 0 0 0 0 
0 0 0 0 0 0 0 0 0 
0 0 0 0 0 0 0 0 0 
0 0 0 0 0 0 0 0 0 
0 0 0 0 0 0 0 0 0 
0 0 0 0 0 0 0 0 0 
0 0 0 0 0 0 0 0 0 
0 0 0 0 0 0 0 0 0 
0 0 0 0 0 0 0 0 0 
0 0 0 
radius 1 100 double
0.010434 0.00981478 0.00892069 0.00845937 0.00731974 0.00728422 0.00643447 0.00619172 0.00585956 
0.00577566 0.00537241 0.00522549 0.00513666 0.00473175 0.00466912 0.00444866 0.00441894 0.00400812 
0.00385622 0.00379948 0.00370243 0.00366942 0.00364039 0.00363813 0.00363644 0.00358692 0.0035797 
0.00341284 0.00337012 0.00336273 0.00332772 0.00323261 0.00320584 0.00320311 0.00318808 0.00313116 
0.00306026 0.00305632 0.00304383 0.00300958 0.00300137 0.00298994 0.0029567 0.00295111 0.00290849 
0.00284552 0.00282964 0.0028207 0.00281971 0.00281899 0.010434 0.00981478 0.00892069 0.00845937 
0.00731974 0.00728422 0.00643447 0.00619172 0.00585956 0.00577566 0.00537241 0.00522549 0.00513666 
0.00473175 0.00466912 0.00444866 0.00441894 0.00400812 0.00385622 0.00379948 0.00370243 0.00366942 
0.00364039 0.00363813 0.00363644 0.00358692 0.0035797 0.00341284 0.00337012 0.00336273 0.00332772 
0.00323261 0.00320584 0.00320311 0.00318808 0.00313116 0.00306026 0.00305632 0.00304383 0.00300958 
0.00300137 0.00298994 0.0029567 0.00295111 0.00290849 0.00284552 0.00282964 0.0028207 0.00281971 
0.00281899 
omega 3 100 double
12.946153395 0.50913834505 -1.1945322771 12.946153395 0.50913834505 -1.1945322771 12.946153395 0.50913834505 -1.1945322771 
12.946153395 0.50913834505 -1.1945322771 12.946153395 0.50913834505 -1.1945322771 12.946153395 0.50913834505 -1.1945322771 
12.946153395 0.50913834505 -1.1945322771 12.946153395 0.50913834505 -1.1945322771 12.946153395 0.50913834505 -1.1945322771 
12.946153395 0.50913834505 -1.1945322771 12.946153395 0.50913834505 -1.1945322771 12.946153395 0.50913834505 -1.1945322771 
12.946153395 0.50913834505 -1.1945322771 12.946153395 0.50913834505 -1.1945322771 12.946153395 0.50913834505 -1.1945322771 
12.946153395 0.50913834505 -1.1945322771 12.946153395 0.50913834505 -1.1945322771 12.946153395 0.50913834505 -1.1945322771 
12.946153395 0.50913834505 -1.1945322771 12.946153395 0.50913834505 -1.1945322771 12.946153395 0.50913834505 -1.1945322771 
12.946153395 0.50913834505 -1.1945322771 12.946153395 0.50913834505 -1.1945322771 12.946153395 0.50913834505 -1.1945322771 
12.946153395 0.50913834505 -1.1945322771 12.946153395 0.50913834505 -1.1945322771 12.946153395 0.50913834505 -1.1945322771 
12.946153395 0.50913834505 -1.1945322771 12.946153395 0.50913834505 -1.1945322771 12.946153395 0.50913834505 -1.1945322771 
12.946153395 0.50913834505 -1.1945322771 12.946153395 0.50913834505 -1.1945322771 12.946153395 0.50913834505 -1.1945322771 
12.946153395 0.50913834505 -1.1945322771 12.946153395 0.50913834505 -1.1945322771 12.946153395 0.50913834505 -1.1945322771 
12.946153395 0.50913834505 -1.1945322771 12.946153395 0.50913834505 -1.1945322771 12.946153395 0.50913834505 -1.1945322771 
12.946153395 0.50913834505 -1.1945322771 12.946153395 0.50913834505 -1.1945322771 12.946153395 0.50913834505 -1.1945322771 
12.946153395 0.50913834505 -1.1945322771 12.946153395 0.50913834505 -1.1945322771 12.946153395 0.50913834505 -1.1945322771 
12.946153395 0.50913834505 -1.1945322771 12.946153395 0.50913834505 -1.1945322771 12.946153395 0.50913834505 -1.1945322771 
12.946153395 0.50913834505 -1.1945322771 12.946153395 0.50913834505 -1.1945322771 11.563739397 3.3904535144 -0.78916501326 
11.563739397 3.3904535144 -0.78916501326 11.563739397 3.3904535144 -0.78916501326 11.563739397 3.3904535144 -0.78916501326 
11.563739397 3.3904535144 -0.78916501326 11.563739397 3.3904535144 -0.78916501326 11.563739397 3.3904535144 -0.78916501326 
11.563739397 3.3904535144 -0.78916501326 11.563739397 3.3904535144 -0.78916501326 11.563739397 3.3904535144 -0.78916501326 
11.563739397 3.3904535144 -0.78916501326 11.563739397 3.3904535144 -0.78916501326 11.563739397 3.3904535144 -0.78916501326 
11.563739397 3.3904535144 -0.78916501326 11.563739397 3.3904535144 -0.78916501326 11.563739397 3.3904535144 -0.78916501326 
11.563739397 3.3904535144 -0.78916501326 11.563739397 3.3904535144 -0.78916501326 11.563739397 3.3904535144 -0.78916501326 
11.563739397 3.3904535144 -0.78916501326 11.563739397 3.3904535144 -0.78916501326 11.563739397 3.3904535144 -0.78916501326 
11.563739397 3.3904535144 -0.78916501326 11.563739397 3.3904535144 -0.78916501326 11.563739397 3.3904535144 -0.78916501326 
11.563739397 3.3904535144 -0.78916501326 11.563739397 3.3904535144 -0.78916501326 11.563739397 3.3904535144 -0.78916501326 
11.563739397 3.3904535144 -0.78916501326 11.563739397 3.3904535144 -0.78916501326 11.563739397 3.3904535144 -0.78916501326 
11.563739397 3.3904535144 -0.78916501326 11.563739397 3.3904535144 -0.78916501326 11.563739397 3.3904535144 -0.78916501326 
11.563739397 3.3904535144 -0.78916501326 11.563739397 3.3904535144 -0.78916501326 11.563739397 3.3904535144 -0.78916501326 
11.563739397 3.3904535144 -0.78916501326 11.563739397 3.3904535144 -0.78916501326 11.563739397 3.3904535144 -0.78916501326 
11.563739397 3.3904535144 -0.78916501326 11.563739397 3.3904535144 -0.78916501326 11.563739397 3.3904535144 -0.78916501326 
11.563739397 3.3904535144 -0.78916501326 11.563739397 3.3904535144 -0.78916501326 11.563739397 3.3904535144 -0.78916501326 
11.563739397 3.3904535144 -0.78916501326 11.563739397 3.3904535144 -0.78916501326 11.563739397 3.3904535144 -0.78916501326 
11.563739397 3.3904535144 -0.78916501326 
