# vtk DataFile Version 4.1
Generated by LIGGGHTS
ASCII
DATASET POLYDATA
POINTS 100 float
-0.107953 -0.128732 0.0121244 -0.118251 -0.129595 0.0137163 -0.127713 -0.129609 0.0170342 
-0.110641 -0.129624 0.0223706 -0.09858 -0.127032 0.0165216 -0.119226 -0.130488 0.0239823 
-0.130381 -0.131352 0.0255643 -0.102065 -0.131333 0.0216067 -0.136308 -0.130475 0.0195023 
-0.115573 -0.126993 0.00433258 -0.113299 -0.132221 0.0300413 -0.124424 -0.13222 0.0290565 
-0.120733 -0.123573 0.00599849 -0.107302 -0.133077 0.0301073 -0.125912 -0.124442 0.00936264 
-0.119304 -0.133082 0.0308259 -0.102942 -0.125343 0.0233307 -0.135413 -0.124467 0.0161067 
-0.11127 -0.132126 0.00265087 -0.137233 -0.133066 0.0254795 -0.113888 -0.135567 0.00689221 
-0.109921 -0.133949 0.0343576 -0.100292 -0.134742 0.0164751 -0.0925452 -0.123593 0.0131762 
-0.0976442 -0.129578 0.00966998 -0.115614 -0.121865 0.00777675 -0.0993884 -0.121021 0.0122497 
-0.0942885 -0.121032 0.0157351 -0.114214 -0.133952 0.0351648 -0.116628 -0.123626 0.0214659 
-0.11764 -0.133953 0.0351254 -0.0952021 -0.132186 0.020826 -0.125083 -0.136443 0.0119006 
-0.10299 -0.133924 0.0275839 -0.141467 -0.133052 0.0211474 -0.0985394 -0.133873 0.0130715 
-0.12277 -0.133951 0.0342097 -0.103847 -0.130498 0.0275859 -0.130449 -0.133943 0.0315513 
-0.121569 -0.128707 0.00425765 -0.124354 -0.135625 0.0230487 -0.105539 -0.135632 0.0258352 
-0.105483 -0.122765 0.0207405 -0.10546 -0.136465 0.0189797 -0.133778 -0.126204 0.022973 
-0.134712 -0.133937 0.029789 -0.099318 -0.128709 0.006227 -0.124159 -0.127856 0.0059442 
-0.121086 -0.133959 0.0367992 -0.130215 -0.122735 0.0110325 -0.0391518 -0.100923 0.0144065 
-0.0494914 -0.101803 0.0156937 -0.0590437 -0.101853 0.0187406 -0.0421303 -0.101942 0.0245602 
-0.029908 -0.0992823 0.0190895 -0.0507579 -0.102823 0.0259159 -0.0619535 -0.103702 0.0271689 
-0.0335362 -0.103645 0.0240194 -0.0677056 -0.102747 0.020952 -0.0465475 -0.0990841 0.00642323 
-0.0450056 -0.104634 0.0321191 -0.0560986 -0.104615 0.0308182 -0.0517524 -0.0956832 0.00798411 
-0.0390138 -0.105493 0.0323451 -0.0570249 -0.0965922 0.0111884 -0.0510312 -0.105501 0.0327216 
-0.0344619 -0.0976767 0.0257923 -0.0667141 -0.0966974 0.0176585 -0.0421982 -0.104198 0.00480083 
-0.0688006 -0.105412 0.0268677 -0.0449365 -0.107691 0.00892267 -0.0417526 -0.106416 0.0365079 
-0.0316181 -0.10699 0.0188982 -0.0237802 -0.0958042 0.0159604 -0.0287776 -0.101743 0.0122362 
-0.0466856 -0.0939996 0.00992852 -0.030594 -0.0932181 0.0148717 -0.0255954 -0.0932748 0.0185004 
-0.0460666 -0.106428 0.0371925 -0.048089 -0.0959307 0.0235603 -0.0494903 -0.106427 0.0370556 
-0.0266542 -0.104491 0.0234238 -0.0562689 -0.108625 0.013599 -0.0346312 -0.10631 0.0299351 
-0.0729092 -0.105342 0.0224174 -0.0297695 -0.10608 0.015557 -0.0545918 -0.106411 0.0359944 
-0.0354879 -0.102884 0.0299554 -0.0621925 -0.106367 0.0331188 -0.0525387 -0.100795 0.0061563 
-0.0558582 -0.107946 0.0247727 -0.0371302 -0.107995 0.0280933 -0.0369276 -0.0950652 0.0231632 
-0.0368561 -0.108742 0.021233 -0.0652757 -0.0985204 0.0245463 -0.0664038 -0.106338 0.031236 
-0.0303527 -0.100831 0.00875802 -0.0551752 -0.0999644 0.00777893 -0.0529826 -0.106453 0.0386304 
-0.0613734 -0.0949047 0.0127562 
VERTICES 100 200
1 0 
1 1 
1 2 
1 3 
1 4 
1 5 
1 6 
1 7 
1 8 
1 9 
1 10 
1 11 
1 12 
1 13 
1 14 
1 15 
1 16 
1 17 
1 18 
1 19 
1 20 
1 21 
1 22 
1 23 
1 24 
1 25 
1 26 
1 27 
1 28 
1 29 
1 30 
1 31 
1 32 
1 33 
1 34 
1 35 
1 36 
1 37 
1 38 
1 39 
1 40 
1 41 
1 42 
1 43 
1 44 
1 45 
1 46 
1 47 
1 48 
1 49 
1 50 
1 51 
1 52 
1 53 
1 54 
1 55 
1 56 
1 57 
1 58 
1 59 
1 60 
1 61 
1 62 
1 63 
1 64 
1 65 
1 66 
1 67 
1 68 
1 69 
1 70 
1 71 
1 72 
1 73 
1 74 
1 75 
1 76 
1 77 
1 78 
1 79 
1 80 
1 81 
1 82 
1 83 
1 84 
1 85 
1 86 
1 87 
1 88 
1 89 
1 90 
1 91 
1 92 
1 93 
1 94 
1 95 
1 96 
1 97 
1 98 
1 99 

POINT_DATA 100
FIELD FieldData 7
id 1 100 int
1 2 3 4 5 6 7 8 9 
10 11 12 13 14 15 16 17 18 
19 20 21 22 23 24 25 26 27 
28 29 30 31 32 33 34 35 36 
37 38 39 40 41 42 43 44 45 
46 47 48 49 50 51 52 53 54 
55 56 57 58 59 60 61 62 63 
64 65 66 67 68 69 70 71 72 
73 74 75 76 77 78 79 80 81 
82 83 84 85 86 87 88 89 90 
91 92 93 94 95 96 97 98 99 
100 
mol 1 100 int
1 1 1 1 1 1 1 1 1 
1 1 1 1 1 1 1 1 1 
1 1 1 1 1 1 1 1 1 
1 1 1 1 1 1 1 1 1 
1 1 1 1 1 1 1 1 1 
1 1 1 1 1 2 2 2 2 
2 2 2 2 2 2 2 2 2 
2 2 2 2 2 2 2 2 2 
2 2 2 2 2 2 2 2 2 
2 2 2 2 2 2 2 2 2 
2 2 2 2 2 2 2 2 2 
2 
type 1 100 int
1 1 1 1 1 1 1 1 1 
1 1 1 1 1 1 1 1 1 
1 1 1 1 1 1 1 1 1 
1 1 1 1 1 1 1 1 1 
1 1 1 1 1 1 1 1 1 
1 1 1 1 1 1 1 1 1 
1 1 1 1 1 1 1 1 1 
1 1 1 1 1 1 1 1 1 
1 1 1 1 1 1 1 1 1 
1 1 1 1 1 1 1 1 1 
1 1 1 1 1 1 1 1 1 
1 
v 3 100 double
-0.12121364226 -0.032015880218 0.62495122702 -0.13354066493 -0.035912417786 0.54308738764 -0.15913076884 -0.044729859049 0.47007781605 
-0.20028815675 -0.060782873646 0.60170189939 -0.15502756129 -0.0449712636 0.70203502824 -0.21276794377 -0.064834624312 0.53305137123 
-0.22501896731 -0.068653691317 0.44458031642 -0.1944953774 -0.059123487214 0.6630181936 -0.17821590036 -0.051198563491 0.40134220531 
-0.061019178755 -0.0095795624671 0.57108615718 -0.25959770373 -0.082281353729 0.57387195079 -0.25200289257 -0.078856805639 0.48807173771 
-0.073669117455 -0.013982996415 0.54094523025 -0.26015636335 -0.082815209343 0.61770094705 -0.099665116958 -0.023179080097 0.49855131548 
-0.26569857926 -0.084147970526 0.5251255961 -0.20744472602 -0.063939246287 0.67316095593 -0.15167971828 -0.041665500493 0.42520438193 
-0.048346719705 -0.0050819057325 0.589786221 -0.22446441799 -0.068017201759 0.38689426579 -0.081257007948 -0.016902482864 0.55987701879 
-0.29298647975 -0.094660938306 0.59504308582 -0.15511588966 -0.044740828126 0.6670706028 -0.12902744908 -0.035877812249 0.75828589955 
-0.1023331248 -0.025685036401 0.70206596897 -0.087284698995 -0.019299332799 0.58524979847 -0.12173327134 -0.032866032237 0.71276872981 
-0.14861449523 -0.043000066659 0.75206988597 -0.29921262814 -0.096690858685 0.56192548827 -0.19296316626 -0.057882115942 0.57245843899 
-0.29890865322 -0.096381005129 0.53549939163 -0.18852390454 -0.057317559949 0.71353794776 -0.11993407751 -0.030391099714 0.47106912218 
-0.24074389769 -0.075942128195 0.64857048545 -0.19105305838 -0.055543380743 0.35428353083 -0.12881590544 -0.03523488214 0.68303773435 
-0.29184656272 -0.09349897617 0.4959442594 -0.24056109242 -0.0758982194 0.6516308173 -0.27134347911 -0.085549793426 0.43673893962 
-0.06054062428 -0.0090205353561 0.52000645108 -0.20586528925 -0.061901971147 0.47899511131 -0.227356298 -0.070858184728 0.62408582358 
-0.18731826734 -0.056480292748 0.66084501083 -0.1745324674 -0.051511277138 0.62234416428 -0.20473564326 -0.061142165172 0.43290853395 
-0.25775126531 -0.080327990532 0.4038753083 -0.075729175777 -0.015869245511 0.69160766225 -0.073498647485 -0.013631191507 0.50243494638 
-0.31181769688 -0.10090592197 0.50890448848 -0.11244476837 -0.027643315963 0.47018364301 -0.096930423703 -0.057756841966 0.41221477431 
-0.10575916123 -0.060527462992 0.33940270948 -0.12664785412 -0.067157577424 0.27380388313 -0.16654563074 -0.079990369565 0.38956219879 
-0.12902772428 -0.068062319241 0.47918317832 -0.1758444379 -0.082919462281 0.32848494626 -0.18443846312 -0.085610950193 0.249804986 
-0.16284637243 -0.078846791723 0.44474918468 -0.14181317501 -0.071961455848 0.21246145564 -0.042190380211 -0.0402288547 0.36554165831 
-0.21838024013 -0.096539039941 0.36395243832 -0.20946140009 -0.093635188189 0.28794240589 -0.052874945601 -0.043623892688 0.33731008479 
-0.21993359781 -0.097063007054 0.40314822486 -0.074846925495 -0.050619502194 0.29917221079 -0.22251520863 -0.097830277533 0.32074185979 
-0.17497236797 -0.082727054018 0.45148085784 -0.11920451991 -0.06474967104 0.23251523227 -0.0310922496 -0.036694889091 0.38415451148 
-0.18238203346 -0.084918132938 0.19911563019 -0.059367202026 -0.045713183212 0.35772772362 -0.2484768949 -0.10617101434 0.38234843439 
-0.12775320343 -0.067634896138 0.4505699606 -0.10755881298 -0.061235558728 0.5288145284 -0.082054861724 -0.05305117449 0.48154074709 
-0.066197145125 -0.047908709593 0.37573595753 -0.10008247682 -0.058817274016 0.48776711775 -0.12496016688 -0.066792288667 0.52191215164 
-0.25317065975 -0.10765039637 0.35274686051 -0.15966182126 -0.077770841171 0.36188362039 -0.25223190941 -0.10733389722 0.32927768391 
-0.15876718857 -0.077574868754 0.49007670545 -0.091431517827 -0.055905169784 0.27799002885 -0.2034152391 -0.091803471584 0.4314035647 
-0.15187178985 -0.075147224162 0.17110203466 -0.10484244893 -0.060322779286 0.46523803874 -0.24495654687 -0.10498413095 0.29433816595 
-0.203538379 -0.091843974403 0.43303750997 -0.22524201052 -0.098646752535 0.24232648895 -0.040368631544 -0.039615160026 0.32071945293 
-0.16803161889 -0.080390025497 0.28229284045 -0.19079711441 -0.087756033102 0.41057985512 -0.15693501623 -0.076954365122 0.44029892555 
-0.14376849565 -0.072725583313 0.41082118847 -0.16643412834 -0.079848644694 0.23838220537 -0.21233413279 -0.094501105076 0.21351936825 
-0.058205380097 -0.045422566321 0.47274024598 -0.051488889133 -0.04315785167 0.30446379889 -0.26302829066 -0.11076764277 0.30527929758 
-0.08558754428 -0.054033940616 0.27305745769 
f 3 100 double
0 0 0 0 0 0 0 0 0 
0 0 0 0 0 0 0 0 0 
0 0 0 0 0 0 0 0 0 
-1.6730644205 -0.73086846999 19.679159524 0 0 0 0 0 0 
0 0 0 0 0 0 0 0 0 
0 0 0 0 0 0 0 0 0 
-1.1622915921 -0.53551297534 8.2007250433 0 0 0 0 0 0 
0 0 0 0 0 0 0 0 0 
0 0 0 0 0 0 0 0 0 
0 0 0 0 0 0 0 0 0 
0 0 0 0 0 0 0 0 0 
0 0 0 0 0 0 0 0 0 
0 0 0 0 0 0 0 0 0 
0 0 0 0 0 0 0 0 0 
0 0 0 0 0 0 0 0 0 
0 0 0 0 0 0 0 0 0 
0 0 0 0 0 0 0 0 0 
0 0 0 0 0 0 0 0 0 
0 0 0 0 0 0 0 0 0 
0 0 0 0 0 0 0 0 0 
0 0 0 0 0 0 0 0 0 
0 0 0 0 0 0 0 0 0 
0 0 0 0 0 0 0 0 0 
0 0 0 0 0 0 0 0 0 
0 0 0 0 0 0 0 0 0 
0 0 0 0 0 0 0 0 0 
0 0 0 0 0 0 0 0 0 
0 0 0 0 0 0 0 0 0 
0 0 0 0 0 0 0 0 0 
0 0 0 0 0 0 0 0 0 
0 0 0 0 0 0 0 0 0 
0 0 0 0 0 0 0 0 0 
0 0 0 0 0 0 0 0 0 
0 0 0 
radius 1 100 double
0.010434 0.00981478 0.00892069 0.00845937 0.00731974 0.00728422 0.00643447 0.00619172 0.00585956 
0.00577566 0.00537241 0.00522549 0.00513666 0.00473175 0.00466912 0.00444866 0.00441894 0.00400812 
0.00385622 0.00379948 0.00370243 0.00366942 0.00364039 0.00363813 0.00363644 0.00358692 0.0035797 
0.00341284 0.00337012 0.00336273 0.00332772 0.00323261 0.00320584 0.00320311 0.00318808 0.00313116 
0.00306026 0.00305632 0.00304383 0.00300958 0.00300137 0.00298994 0.0029567 0.00295111 0.00290849 
0.00284552 0.00282964 0.0028207 0.00281971 0.00281899 0.010434 0.00981478 0.00892069 0.00845937 
0.00731974 0.00728422 0.00643447 0.00619172 0.00585956 0.00577566 0.00537241 0.00522549 0.00513666 
0.00473175 0.00466912 0.00444866 0.00441894 0.00400812 0.00385622 0.00379948 0.00370243 0.00366942 
0.00364039 0.00363813 0.00363644 0.00358692 0.0035797 0.00341284 0.00337012 0.00336273 0.00332772 
0.00323261 0.00320584 0.00320311 0.00318808 0.00313116 0.00306026 0.00305632 0.00304383 0.00300958 
0.00300137 0.00298994 0.0029567 0.00295111 0.00290849 0.00284552 0.00282964 0.0028207 0.00281971 
0.00281899 
omega 3 100 double
2.822775866 -7.7123840097 -0.057959999295 2.822775866 -7.7123840097 -0.057959999295 2.822775866 -7.7123840097 -0.057959999295 
2.822775866 -7.7123840097 -0.057959999295 2.822775866 -7.7123840097 -0.057959999295 2.822775866 -7.7123840097 -0.057959999295 
2.822775866 -7.7123840097 -0.057959999295 2.822775866 -7.7123840097 -0.057959999295 2.822775866 -7.7123840097 -0.057959999295 
2.822775866 -7.7123840097 -0.057959999295 2.822775866 -7.7123840097 -0.057959999295 2.822775866 -7.7123840097 -0.057959999295 
2.822775866 -7.7123840097 -0.057959999295 2.822775866 -7.7123840097 -0.057959999295 2.822775866 -7.7123840097 -0.057959999295 
2.822775866 -7.7123840097 -0.057959999295 2.822775866 -7.7123840097 -0.057959999295 2.822775866 -7.7123840097 -0.057959999295 
2.822775866 -7.7123840097 -0.057959999295 2.822775866 -7.7123840097 -0.057959999295 2.822775866 -7.7123840097 -0.057959999295 
2.822775866 -7.7123840097 -0.057959999295 2.822775866 -7.7123840097 -0.057959999295 2.822775866 -7.7123840097 -0.057959999295 
2.822775866 -7.7123840097 -0.057959999295 2.822775866 -7.7123840097 -0.057959999295 2.822775866 -7.7123840097 -0.057959999295 
2.822775866 -7.7123840097 -0.057959999295 2.822775866 -7.7123840097 -0.057959999295 2.822775866 -7.7123840097 -0.057959999295 
2.822775866 -7.7123840097 -0.057959999295 2.822775866 -7.7123840097 -0.057959999295 2.822775866 -7.7123840097 -0.057959999295 
2.822775866 -7.7123840097 -0.057959999295 2.822775866 -7.7123840097 -0.057959999295 2.822775866 -7.7123840097 -0.057959999295 
2.822775866 -7.7123840097 -0.057959999295 2.822775866 -7.7123840097 -0.057959999295 2.822775866 -7.7123840097 -0.057959999295 
2.822775866 -7.7123840097 -0.057959999295 2.822775866 -7.7123840097 -0.057959999295 2.822775866 -7.7123840097 -0.057959999295 
2.822775866 -7.7123840097 -0.057959999295 2.822775866 -7.7123840097 -0.057959999295 2.822775866 -7.7123840097 -0.057959999295 
2.822775866 -7.7123840097 -0.057959999295 2.822775866 -7.7123840097 -0.057959999295 2.822775866 -7.7123840097 -0.057959999295 
2.822775866 -7.7123840097 -0.057959999295 2.822775866 -7.7123840097 -0.057959999295 2.1911222976 -6.8557026313 -0.0048108757688 
2.1911222976 -6.8557026313 -0.0048108757688 2.1911222976 -6.8557026313 -0.0048108757688 2.1911222976 -6.8557026313 -0.0048108757688 
2.1911222976 -6.8557026313 -0.0048108757688 2.1911222976 -6.8557026313 -0.0048108757688 2.1911222976 -6.8557026313 -0.0048108757688 
2.1911222976 -6.8557026313 -0.0048108757688 2.1911222976 -6.8557026313 -0.0048108757688 2.1911222976 -6.8557026313 -0.0048108757688 
2.1911222976 -6.8557026313 -0.0048108757688 2.1911222976 -6.8557026313 -0.0048108757688 2.1911222976 -6.8557026313 -0.0048108757688 
2.1911222976 -6.8557026313 -0.0048108757688 2.1911222976 -6.8557026313 -0.0048108757688 2.1911222976 -6.8557026313 -0.0048108757688 
2.1911222976 -6.8557026313 -0.0048108757688 2.1911222976 -6.8557026313 -0.0048108757688 2.1911222976 -6.8557026313 -0.0048108757688 
2.1911222976 -6.8557026313 -0.0048108757688 2.1911222976 -6.8557026313 -0.0048108757688 2.1911222976 -6.8557026313 -0.0048108757688 
2.1911222976 -6.8557026313 -0.0048108757688 2.1911222976 -6.8557026313 -0.0048108757688 2.1911222976 -6.8557026313 -0.0048108757688 
2.1911222976 -6.8557026313 -0.0048108757688 2.1911222976 -6.8557026313 -0.0048108757688 2.1911222976 -6.8557026313 -0.0048108757688 
2.1911222976 -6.8557026313 -0.0048108757688 2.1911222976 -6.8557026313 -0.0048108757688 2.1911222976 -6.8557026313 -0.0048108757688 
2.1911222976 -6.8557026313 -0.0048108757688 2.1911222976 -6.8557026313 -0.0048108757688 2.1911222976 -6.8557026313 -0.0048108757688 
2.1911222976 -6.8557026313 -0.0048108757688 2.1911222976 -6.8557026313 -0.0048108757688 2.1911222976 -6.8557026313 -0.0048108757688 
2.1911222976 -6.8557026313 -0.0048108757688 2.1911222976 -6.8557026313 -0.0048108757688 2.1911222976 -6.8557026313 -0.0048108757688 
2.1911222976 -6.8557026313 -0.0048108757688 2.1911222976 -6.8557026313 -0.0048108757688 2.1911222976 -6.8557026313 -0.0048108757688 
2.1911222976 -6.8557026313 -0.0048108757688 2.1911222976 -6.8557026313 -0.0048108757688 2.1911222976 -6.8557026313 -0.0048108757688 
2.1911222976 -6.8557026313 -0.0048108757688 2.1911222976 -6.8557026313 -0.0048108757688 2.1911222976 -6.8557026313 -0.0048108757688 
2.1911222976 -6.8557026313 -0.0048108757688 
