# vtk DataFile Version 4.1
Generated by LIGGGHTS
ASCII
DATASET POLYDATA
POINTS 100 float
-0.1201 -0.138394 0.0184366 -0.129054 -0.137933 0.0130567 -0.138491 -0.137371 0.00971644 
-0.128519 -0.142021 0.0238188 -0.115657 -0.13982 0.0278334 -0.136151 -0.141861 0.0194863 
-0.145767 -0.141249 0.0135827 -0.121246 -0.144847 0.0278383 -0.146665 -0.137485 0.00598871 
-0.121298 -0.132984 0.00889151 -0.135192 -0.146423 0.0267742 -0.143244 -0.144194 0.0193619 
-0.12659 -0.129437 0.00818367 -0.130504 -0.148274 0.0301337 -0.132661 -0.130425 0.00715549 
-0.1403 -0.146441 0.0234077 -0.123415 -0.139659 0.0306668 -0.144264 -0.130957 0.00623492 
-0.116545 -0.137976 0.00846358 -0.150933 -0.141641 0.0087815 -0.120992 -0.142083 0.00869313 
-0.135134 -0.149987 0.0312814 -0.116431 -0.146699 0.0240318 -0.109108 -0.136589 0.0303033 
-0.110482 -0.140177 0.0225994 -0.123829 -0.129291 0.0131475 -0.114037 -0.132719 0.0264274 
-0.112236 -0.134715 0.031989 -0.13898 -0.149508 0.0292681 -0.133031 -0.13511 0.0216907 
-0.141624 -0.148906 0.0271735 -0.115355 -0.146576 0.0311165 -0.132773 -0.142565 0.00520941 
-0.125514 -0.149004 0.0306311 -0.151532 -0.139522 0.00313863 -0.113005 -0.145109 0.0229653 
-0.145049 -0.14773 0.0234267 -0.126418 -0.145662 0.0313316 -0.149374 -0.145556 0.0168992 
-0.125803 -0.133526 0.0046139 -0.139211 -0.145471 0.0139032 -0.126292 -0.149601 0.0272382 
-0.123957 -0.135995 0.0281992 -0.1219 -0.148212 0.0220926 -0.147152 -0.135041 0.0115096 
-0.151597 -0.144257 0.0130711 -0.109699 -0.137985 0.0194385 -0.12893 -0.132824 0.00455891 
-0.145351 -0.148851 0.0262889 -0.137171 -0.128624 0.00635927 -0.0513403 -0.110418 0.0182395 
-0.0603671 -0.109999 0.0129784 -0.0698578 -0.109659 0.00976234 -0.0595091 -0.114857 0.0233943 
-0.0467263 -0.112326 0.0274667 -0.0671889 -0.114751 0.0191446 -0.0768893 -0.114177 0.0133779 
-0.0520601 -0.117612 0.0271319 -0.0780579 -0.109899 0.00609902 -0.0529118 -0.104369 0.00914263 
-0.0659237 -0.119797 0.0260572 -0.0741594 -0.117419 0.0188972 -0.0583803 -0.101047 0.00874671 
-0.0611122 -0.12166 0.0292305 -0.0644066 -0.102257 0.00769254 -0.0710623 -0.119816 0.0227379 
-0.0544504 -0.112767 0.0303629 -0.0759788 -0.103297 0.00682241 -0.0479239 -0.109071 0.00830036 
-0.0820845 -0.114462 0.00860015 -0.0521602 -0.1134 0.0082509 -0.0656382 -0.123684 0.0302799 
-0.0472042 -0.118928 0.0231592 -0.0403162 -0.108967 0.0301252 -0.0415999 -0.112028 0.0221815 
-0.0555729 -0.101139 0.0136862 -0.0454739 -0.105066 0.0265923 -0.0435142 -0.107384 0.0319722 
-0.0695264 -0.123248 0.028338 -0.0643796 -0.108039 0.021832 -0.0722206 -0.122622 0.0263154 
-0.0460547 -0.119286 0.0302244 -0.0639422 -0.114205 0.00483025 -0.0560867 -0.122176 0.029633 
-0.0828504 -0.111956 0.00313939 -0.0438722 -0.117093 0.0221907 -0.0757416 -0.121339 0.022695 
-0.0571466 -0.118946 0.0305923 -0.0802423 -0.118896 0.0163847 -0.0574336 -0.104811 0.00487054 
-0.0701303 -0.118078 0.0133267 -0.0568734 -0.122553 0.0262105 -0.0551996 -0.108958 0.0281853 
-0.0526136 -0.120562 0.0211523 -0.0786017 -0.107906 0.0117932 -0.0825693 -0.117425 0.0126834 
-0.040962 -0.109567 0.0191905 -0.0605916 -0.104263 0.00489287 -0.0759556 -0.122687 0.0254659 
-0.0690083 -0.100629 0.00706982 
VERTICES 100 200
1 0 
1 1 
1 2 
1 3 
1 4 
1 5 
1 6 
1 7 
1 8 
1 9 
1 10 
1 11 
1 12 
1 13 
1 14 
1 15 
1 16 
1 17 
1 18 
1 19 
1 20 
1 21 
1 22 
1 23 
1 24 
1 25 
1 26 
1 27 
1 28 
1 29 
1 30 
1 31 
1 32 
1 33 
1 34 
1 35 
1 36 
1 37 
1 38 
1 39 
1 40 
1 41 
1 42 
1 43 
1 44 
1 45 
1 46 
1 47 
1 48 
1 49 
1 50 
1 51 
1 52 
1 53 
1 54 
1 55 
1 56 
1 57 
1 58 
1 59 
1 60 
1 61 
1 62 
1 63 
1 64 
1 65 
1 66 
1 67 
1 68 
1 69 
1 70 
1 71 
1 72 
1 73 
1 74 
1 75 
1 76 
1 77 
1 78 
1 79 
1 80 
1 81 
1 82 
1 83 
1 84 
1 85 
1 86 
1 87 
1 88 
1 89 
1 90 
1 91 
1 92 
1 93 
1 94 
1 95 
1 96 
1 97 
1 98 
1 99 

POINT_DATA 100
FIELD FieldData 7
id 1 100 int
1 2 3 4 5 6 7 8 9 
10 11 12 13 14 15 16 17 18 
19 20 21 22 23 24 25 26 27 
28 29 30 31 32 33 34 35 36 
37 38 39 40 41 42 43 44 45 
46 47 48 49 50 51 52 53 54 
55 56 57 58 59 60 61 62 63 
64 65 66 67 68 69 70 71 72 
73 74 75 76 77 78 79 80 81 
82 83 84 85 86 87 88 89 90 
91 92 93 94 95 96 97 98 99 
100 
mol 1 100 int
1 1 1 1 1 1 1 1 1 
1 1 1 1 1 1 1 1 1 
1 1 1 1 1 1 1 1 1 
1 1 1 1 1 1 1 1 1 
1 1 1 1 1 1 1 1 1 
1 1 1 1 1 2 2 2 2 
2 2 2 2 2 2 2 2 2 
2 2 2 2 2 2 2 2 2 
2 2 2 2 2 2 2 2 2 
2 2 2 2 2 2 2 2 2 
2 2 2 2 2 2 2 2 2 
2 
type 1 100 int
1 1 1 1 1 1 1 1 1 
1 1 1 1 1 1 1 1 1 
1 1 1 1 1 1 1 1 1 
1 1 1 1 1 1 1 1 1 
1 1 1 1 1 1 1 1 1 
1 1 1 1 1 1 1 1 1 
1 1 1 1 1 1 1 1 1 
1 1 1 1 1 1 1 1 1 
1 1 1 1 1 1 1 1 1 
1 1 1 1 1 1 1 1 1 
1 1 1 1 1 1 1 1 1 
1 
v 3 100 double
-0.018147025607 -0.14321258611 -0.062498277193 -0.029484714727 -0.10114673899 -0.040022509227 -0.036246938287 -0.07112612141 -0.015870140213 
-0.009990401982 -0.16780604621 -0.06631069447 0.0010310528648 -0.20541664824 -0.081006634538 -0.019333454362 -0.13350572043 -0.048584350415 
-0.031668561928 -0.087556943752 -0.023734113256 -0.0040182482738 -0.19982168496 -0.099633837634 -0.044538356952 -0.039996594215 0.0013647492535 
-0.033640692992 -0.083363146842 -0.026631839256 -0.0079380799595 -0.17924665421 -0.078717805689 -0.021954444703 -0.12560225937 -0.04735760289 
-0.031623230887 -0.073687341506 0.00677120686 -0.0024315478829 -0.20460527137 -0.10037425081 -0.034873576321 -0.061259798506 0.014016495889 
-0.015341300446 -0.15342200886 -0.067623201256 0.0074084692429 -0.21501552324 -0.062998979039 -0.037428319814 -0.043925623865 0.036201735864 
-0.039604175745 -0.085518065169 -0.067730047619 -0.042595332433 -0.052858778533 -0.014807829856 -0.043233865231 -0.082452633633 -0.083204904892 
-0.0016381512727 -0.20699732206 -0.10074473527 -0.014232393804 -0.18128062492 -0.12157183067 0.0097016478652 -0.22718369113 -0.075521588858 
-0.010809848994 -0.17846859794 -0.094551558099 -0.020587018616 -0.1069642632 0.0016105466343 0.0050947046415 -0.19840918524 -0.040929094364 
0.015285788109 -0.23439066407 -0.057143037466 -0.0055726887494 -0.19075603535 -0.089363806841 -0.0077028314265 -0.15018998435 -0.013953199357 
-0.0095617379087 -0.17522601654 -0.079865821235 0.0014336729135 -0.225891138 -0.12317288961 -0.051361165648 -0.049191357659 -0.060322105624 
-0.0020751888289 -0.21268400525 -0.1158064999 -0.052841090567 -0.017587933059 -0.00047644151076 -0.014971162314 -0.17817775957 -0.11931868057 
-0.016597231142 -0.14875918495 -0.065126942761 0.0028247765835 -0.21607725572 -0.093292250333 -0.028728269298 -0.10430165544 -0.042281202627 
-0.043570293082 -0.052547357493 -0.020080332277 -0.035215034308 -0.096124386555 -0.064054703055 -0.010119499071 -0.19105481715 -0.1177691043 
0.0056840857928 -0.19931027408 -0.039295374313 -0.020008968003 -0.16386243362 -0.11886979873 -0.029967371032 -0.073425935259 0.017448443916 
-0.035818274214 -0.078546091735 -0.029425266978 -0.015537619089 -0.15983608206 -0.082800934693 -0.042983859275 -0.049062283436 -0.0089050187182 
-0.011446941702 -0.16603952146 -0.071351415979 -0.034807450452 -0.051828842791 0.034974777619 -0.027410873546 -0.12730426737 -0.092663199258 
-0.045020063929 -0.090110360897 -0.059492980937 -0.055808695938 -0.068508598639 -0.025370849894 -0.0090062502 -0.1686073583 -0.099064545886 
0.0038088013273 -0.19574183348 -0.1224280615 -0.023163870834 -0.13867446886 -0.072737488455 -0.042498897163 -0.097849913592 -0.036145970567 
0.0042058761272 -0.19473446164 -0.14465872298 -0.067918496744 -0.043157162351 7.8691370503e-05 -0.059380188044 -0.058982726915 -0.041710274099 
0.0012575007269 -0.1905704999 -0.11509126594 -0.023224225628 -0.13879509639 -0.069736564051 -0.061645284191 -0.05755179319 0.0015796684162 
0.012338960529 -0.21318563709 -0.14516991602 -0.064804037798 -0.051304118446 0.01246623871 -0.009771634125 -0.1669454131 -0.098150086467 
0.013563107395 -0.21984351046 -0.10008709627 -0.067399648404 -0.04803196134 0.043076337478 -0.06083698572 -0.051190420383 -0.09383780574 
-0.058300148609 -0.063215515515 -0.021034622317 -0.059764708447 -0.052026696114 -0.11248196515 0.016405578794 -0.2224113648 -0.14542589647 
-0.0086248881398 -0.16331433424 -0.17075153613 0.011687329591 -0.21400874964 -0.11834710697 -0.013846186049 -0.15432278765 -0.13721385764 
-0.045198470976 -0.094091354809 -0.0084449281243 -0.0011718299605 -0.18877392404 -0.071710127719 0.01737509895 -0.22888492742 -0.09574966042 
0.0098254766591 -0.20884241454 -0.12919714384 -0.01614762333 -0.15818801499 -0.031330781478 0.002922923625 -0.19432161301 -0.11551199887 
0.014964695234 -0.21639735641 -0.17728050979 -0.070906094135 -0.02953311254 -0.0794029641 0.013824284696 -0.21479294194 -0.16577215648 
-0.077169810443 -0.022152067555 0.00046186186212 -0.012368854059 -0.1550408816 -0.16795234741 -0.0094792468918 -0.16795782931 -0.094106103621 
0.01609071718 -0.22234787686 -0.13783245604 -0.031154900697 -0.12153848833 -0.060680590465 -0.073455869558 -0.027978344814 -0.030020549891 
-0.041554607377 -0.095531986828 -0.088108626915 0.0025544948736 -0.18914425064 -0.16601116074 0.0052356082891 -0.20359484183 -0.068800492143 
-0.014829963661 -0.14968785326 -0.16511667739 -0.049558094775 -0.086359599331 0.016950275889 -0.043879522113 -0.094222853343 -0.041818302882 
-0.024492550161 -0.13152882668 -0.12073020956 -0.073538070816 -0.029049297646 -0.015382561616 0.00011709018869 -0.18896608543 -0.10358291264 
-0.067339412299 -0.047911043454 0.040075175121 
f 3 100 double
0 0 0 0 0 0 0 0 0 
0 0 0 0 0 0 0 0 0 
0 0 0 0 0 0 0 0 0 
0 0 0 0 0 0 0 0 0 
0 0 0 0 0 0 0 0 0 
0 0 0 0 0 0 0 0 0 
0 0 0 0 0 0 0 0 0 
0 0 0 0 0 0 0 0 0 
0 0 0 0 0 0 0 0 0 
0 0 0 0 0 0 0 0 0 
0 0 0 0 0 0 0 0 0 
0 0 0 0.084361721484 -0.0024617719659 0.16879526502 0 0 0 
0 0 0 0 0 0 0 0 0 
0 0 0 0 0 0 0 0 0 
0 0 0 0 0 0 0 0 0 
0 0 0 0 0 0 0 0 0 
0 0 0 0 0 0 0 0 0 
0 0 0 0 0 0 0 0 0 
0 0 0 0 0 0 0 0 0 
0 0 0 0 0 0 0 0 0 
0 0 0 0 0 0 0 0 0 
0 0 0 0 0 0 0 0 0 
0 0 0 0 0 0 0 0 0 
0 0 0 0 0 0 0 0 0 
0 0 0 0 0 0 0 0 0 
0 0 0 0 0 0 0 0 0 
0 0 0 0 0 0 0 0 0 
0 0 0 0 0 0 0 0 0 
0.077865267394 -0.001504246979 0.155759592 0 0 0 0 0 0 
0 0 0 0 0 0 0 0 0 
0 0 0 0 0 0 0 0 0 
0 0 0 0 0 0 0 0 0 
0 0 0 0 0 0 0 0 0 
0 0 0 
radius 1 100 double
0.010434 0.00981478 0.00892069 0.00845937 0.00731974 0.00728422 0.00643447 0.00619172 0.00585956 
0.00577566 0.00537241 0.00522549 0.00513666 0.00473175 0.00466912 0.00444866 0.00441894 0.00400812 
0.00385622 0.00379948 0.00370243 0.00366942 0.00364039 0.00363813 0.00363644 0.00358692 0.0035797 
0.00341284 0.00337012 0.00336273 0.00332772 0.00323261 0.00320584 0.00320311 0.00318808 0.00313116 
0.00306026 0.00305632 0.00304383 0.00300958 0.00300137 0.00298994 0.0029567 0.00295111 0.00290849 
0.00284552 0.00282964 0.0028207 0.00281971 0.00281899 0.010434 0.00981478 0.00892069 0.00845937 
0.00731974 0.00728422 0.00643447 0.00619172 0.00585956 0.00577566 0.00537241 0.00522549 0.00513666 
0.00473175 0.00466912 0.00444866 0.00441894 0.00400812 0.00385622 0.00379948 0.00370243 0.00366942 
0.00364039 0.00363813 0.00363644 0.00358692 0.0035797 0.00341284 0.00337012 0.00336273 0.00332772 
0.00323261 0.00320584 0.00320311 0.00318808 0.00313116 0.00306026 0.00305632 0.00304383 0.00300958 
0.00300137 0.00298994 0.0029567 0.00295111 0.00290849 0.00284552 0.00282964 0.0028207 0.00281971 
0.00281899 
omega 3 100 double
6.1438334908 2.1936800071 -1.006512156 6.1438334908 2.1936800071 -1.006512156 6.1438334908 2.1936800071 -1.006512156 
6.1438334908 2.1936800071 -1.006512156 6.1438334908 2.1936800071 -1.006512156 6.1438334908 2.1936800071 -1.006512156 
6.1438334908 2.1936800071 -1.006512156 6.1438334908 2.1936800071 -1.006512156 6.1438334908 2.1936800071 -1.006512156 
6.1438334908 2.1936800071 -1.006512156 6.1438334908 2.1936800071 -1.006512156 6.1438334908 2.1936800071 -1.006512156 
6.1438334908 2.1936800071 -1.006512156 6.1438334908 2.1936800071 -1.006512156 6.1438334908 2.1936800071 -1.006512156 
6.1438334908 2.1936800071 -1.006512156 6.1438334908 2.1936800071 -1.006512156 6.1438334908 2.1936800071 -1.006512156 
6.1438334908 2.1936800071 -1.006512156 6.1438334908 2.1936800071 -1.006512156 6.1438334908 2.1936800071 -1.006512156 
6.1438334908 2.1936800071 -1.006512156 6.1438334908 2.1936800071 -1.006512156 6.1438334908 2.1936800071 -1.006512156 
6.1438334908 2.1936800071 -1.006512156 6.1438334908 2.1936800071 -1.006512156 6.1438334908 2.1936800071 -1.006512156 
6.1438334908 2.1936800071 -1.006512156 6.1438334908 2.1936800071 -1.006512156 6.1438334908 2.1936800071 -1.006512156 
6.1438334908 2.1936800071 -1.006512156 6.1438334908 2.1936800071 -1.006512156 6.1438334908 2.1936800071 -1.006512156 
6.1438334908 2.1936800071 -1.006512156 6.1438334908 2.1936800071 -1.006512156 6.1438334908 2.1936800071 -1.006512156 
6.1438334908 2.1936800071 -1.006512156 6.1438334908 2.1936800071 -1.006512156 6.1438334908 2.1936800071 -1.006512156 
6.1438334908 2.1936800071 -1.006512156 6.1438334908 2.1936800071 -1.006512156 6.1438334908 2.1936800071 -1.006512156 
6.1438334908 2.1936800071 -1.006512156 6.1438334908 2.1936800071 -1.006512156 6.1438334908 2.1936800071 -1.006512156 
6.1438334908 2.1936800071 -1.006512156 6.1438334908 2.1936800071 -1.006512156 6.1438334908 2.1936800071 -1.006512156 
6.1438334908 2.1936800071 -1.006512156 6.1438334908 2.1936800071 -1.006512156 7.5597954985 3.3243638891 0.28567187955 
7.5597954985 3.3243638891 0.28567187955 7.5597954985 3.3243638891 0.28567187955 7.5597954985 3.3243638891 0.28567187955 
7.5597954985 3.3243638891 0.28567187955 7.5597954985 3.3243638891 0.28567187955 7.5597954985 3.3243638891 0.28567187955 
7.5597954985 3.3243638891 0.28567187955 7.5597954985 3.3243638891 0.28567187955 7.5597954985 3.3243638891 0.28567187955 
7.5597954985 3.3243638891 0.28567187955 7.5597954985 3.3243638891 0.28567187955 7.5597954985 3.3243638891 0.28567187955 
7.5597954985 3.3243638891 0.28567187955 7.5597954985 3.3243638891 0.28567187955 7.5597954985 3.3243638891 0.28567187955 
7.5597954985 3.3243638891 0.28567187955 7.5597954985 3.3243638891 0.28567187955 7.5597954985 3.3243638891 0.28567187955 
7.5597954985 3.3243638891 0.28567187955 7.5597954985 3.3243638891 0.28567187955 7.5597954985 3.3243638891 0.28567187955 
7.5597954985 3.3243638891 0.28567187955 7.5597954985 3.3243638891 0.28567187955 7.5597954985 3.3243638891 0.28567187955 
7.5597954985 3.3243638891 0.28567187955 7.5597954985 3.3243638891 0.28567187955 7.5597954985 3.3243638891 0.28567187955 
7.5597954985 3.3243638891 0.28567187955 7.5597954985 3.3243638891 0.28567187955 7.5597954985 3.3243638891 0.28567187955 
7.5597954985 3.3243638891 0.28567187955 7.5597954985 3.3243638891 0.28567187955 7.5597954985 3.3243638891 0.28567187955 
7.5597954985 3.3243638891 0.28567187955 7.5597954985 3.3243638891 0.28567187955 7.5597954985 3.3243638891 0.28567187955 
7.5597954985 3.3243638891 0.28567187955 7.5597954985 3.3243638891 0.28567187955 7.5597954985 3.3243638891 0.28567187955 
7.5597954985 3.3243638891 0.28567187955 7.5597954985 3.3243638891 0.28567187955 7.5597954985 3.3243638891 0.28567187955 
7.5597954985 3.3243638891 0.28567187955 7.5597954985 3.3243638891 0.28567187955 7.5597954985 3.3243638891 0.28567187955 
7.5597954985 3.3243638891 0.28567187955 7.5597954985 3.3243638891 0.28567187955 7.5597954985 3.3243638891 0.28567187955 
7.5597954985 3.3243638891 0.28567187955 
