# vtk DataFile Version 4.1
Generated by LIGGGHTS
ASCII
DATASET POLYDATA
POINTS 100 float
-0.118235 -0.157022 0.0113377 -0.127964 -0.153199 0.0116039 -0.137784 -0.151379 0.0124909 
-0.125773 -0.164407 0.0100544 -0.112264 -0.165645 0.0115884 -0.134037 -0.161448 0.0101142 
-0.144499 -0.157193 0.0104836 -0.118121 -0.16778 0.0073882 -0.146488 -0.149151 0.0124886 
-0.120753 -0.146759 0.0145214 -0.132104 -0.169383 0.00726106 -0.141188 -0.163038 0.00866478 
-0.125801 -0.146057 0.018409 -0.127033 -0.1723 0.00569051 -0.132015 -0.146289 0.0179318 
-0.13773 -0.166987 0.00707329 -0.119335 -0.169556 0.0133041 -0.143596 -0.147397 0.0185705 
-0.116551 -0.146816 0.00904081 -0.150473 -0.153527 0.00961298 -0.121177 -0.148758 0.00564761 
-0.131489 -0.174559 0.00484166 -0.114242 -0.163826 0.00416171 -0.105147 -0.166163 0.0145067 
-0.10818 -0.159901 0.00943738 -0.122172 -0.150324 0.0193619 -0.110397 -0.162295 0.0179388 
-0.107762 -0.167814 0.0170713 -0.135592 -0.173132 0.00529562 -0.130063 -0.161395 0.0167757 
-0.138523 -0.171405 0.00570843 -0.111876 -0.170396 0.00577653 -0.1334 -0.147432 0.00576872 
-0.122106 -0.172156 0.00451257 -0.151935 -0.147707 0.0104393 -0.110958 -0.161867 0.00505171 
-0.142478 -0.168083 0.00638972 -0.122611 -0.172148 0.00800826 -0.147751 -0.162 0.00750475 
-0.125995 -0.143524 0.0135476 -0.138334 -0.157488 0.00570677 -0.123537 -0.169184 0.00325009 
-0.120042 -0.166382 0.0163443 -0.120072 -0.16322 0.0028985 -0.145767 -0.153906 0.0161713 
-0.150534 -0.158377 0.0081449 -0.107827 -0.156214 0.0107401 -0.129016 -0.143799 0.0145812 
-0.142334 -0.171143 0.00599711 -0.136445 -0.145807 0.0200199 -0.0469912 -0.126667 0.0112053 
-0.0570993 -0.124198 0.0122379 -0.0669811 -0.123727 0.0138696 -0.0535391 -0.135001 0.0103827 
-0.0399096 -0.134402 0.0109012 -0.0620985 -0.133188 0.0110901 -0.0729811 -0.130391 0.0122853 
-0.0457223 -0.137298 0.00711572 -0.0758814 -0.122699 0.0145378 -0.0506244 -0.116849 0.0147016 
-0.0593322 -0.14078 0.00799741 -0.069058 -0.135728 0.0101503 -0.0554166 -0.11685 0.0189593 
-0.0540456 -0.142977 0.00601914 -0.0615605 -0.11792 0.018938 -0.0652276 -0.139167 0.0082562 
-0.0462407 -0.13924 0.0130809 -0.0728057 -0.120589 0.020413 -0.0468746 -0.116319 0.00892614 
-0.079444 -0.127565 0.0119057 -0.051438 -0.118859 0.00585742 -0.058207 -0.145817 0.00547082 
-0.042664 -0.132844 0.00366507 -0.0325896 -0.13396 0.0132804 -0.03681 -0.12815 0.00853165 
-0.0511843 -0.120589 0.0195857 -0.0380418 -0.13085 0.0171407 -0.0347592 -0.135959 0.0160084 
-0.0624198 -0.144961 0.0062446 -0.057681 -0.132619 0.017441 -0.0655173 -0.143648 0.00689496 
-0.0393205 -0.139038 0.00501405 -0.0636842 -0.119201 0.00689583 -0.0492849 -0.142163 0.00448358 
-0.0816114 -0.122 0.0129146 -0.0396177 -0.130461 0.00433678 -0.0698227 -0.140894 0.00790969 
-0.0495235 -0.142236 0.00800676 -0.0757693 -0.135585 0.00949055 -0.056313 -0.114351 0.0141594 
-0.0672076 -0.129833 0.00706399 -0.0511941 -0.139409 0.00336945 -0.0471393 -0.136201 0.0162067 
-0.0486009 -0.133029 0.00284278 -0.0742521 -0.127324 0.018094 -0.0789593 -0.132374 0.0103819 
-0.0368611 -0.124455 0.00985367 -0.0591839 -0.115037 0.015409 -0.0692966 -0.143905 0.00746695 
-0.0658462 -0.118049 0.0213528 
VERTICES 100 200
1 0 
1 1 
1 2 
1 3 
1 4 
1 5 
1 6 
1 7 
1 8 
1 9 
1 10 
1 11 
1 12 
1 13 
1 14 
1 15 
1 16 
1 17 
1 18 
1 19 
1 20 
1 21 
1 22 
1 23 
1 24 
1 25 
1 26 
1 27 
1 28 
1 29 
1 30 
1 31 
1 32 
1 33 
1 34 
1 35 
1 36 
1 37 
1 38 
1 39 
1 40 
1 41 
1 42 
1 43 
1 44 
1 45 
1 46 
1 47 
1 48 
1 49 
1 50 
1 51 
1 52 
1 53 
1 54 
1 55 
1 56 
1 57 
1 58 
1 59 
1 60 
1 61 
1 62 
1 63 
1 64 
1 65 
1 66 
1 67 
1 68 
1 69 
1 70 
1 71 
1 72 
1 73 
1 74 
1 75 
1 76 
1 77 
1 78 
1 79 
1 80 
1 81 
1 82 
1 83 
1 84 
1 85 
1 86 
1 87 
1 88 
1 89 
1 90 
1 91 
1 92 
1 93 
1 94 
1 95 
1 96 
1 97 
1 98 
1 99 

POINT_DATA 100
FIELD FieldData 7
id 1 100 int
1 2 3 4 5 6 7 8 9 
10 11 12 13 14 15 16 17 18 
19 20 21 22 23 24 25 26 27 
28 29 30 31 32 33 34 35 36 
37 38 39 40 41 42 43 44 45 
46 47 48 49 50 51 52 53 54 
55 56 57 58 59 60 61 62 63 
64 65 66 67 68 69 70 71 72 
73 74 75 76 77 78 79 80 81 
82 83 84 85 86 87 88 89 90 
91 92 93 94 95 96 97 98 99 
100 
mol 1 100 int
1 1 1 1 1 1 1 1 1 
1 1 1 1 1 1 1 1 1 
1 1 1 1 1 1 1 1 1 
1 1 1 1 1 1 1 1 1 
1 1 1 1 1 1 1 1 1 
1 1 1 1 1 2 2 2 2 
2 2 2 2 2 2 2 2 2 
2 2 2 2 2 2 2 2 2 
2 2 2 2 2 2 2 2 2 
2 2 2 2 2 2 2 2 2 
2 2 2 2 2 2 2 2 2 
2 
type 1 100 int
1 1 1 1 1 1 1 1 1 
1 1 1 1 1 1 1 1 1 
1 1 1 1 1 1 1 1 1 
1 1 1 1 1 1 1 1 1 
1 1 1 1 1 1 1 1 1 
1 1 1 1 1 1 1 1 1 
1 1 1 1 1 1 1 1 1 
1 1 1 1 1 1 1 1 1 
1 1 1 1 1 1 1 1 1 
1 1 1 1 1 1 1 1 1 
1 1 1 1 1 1 1 1 1 
1 
v 3 100 double
-0.12128369699 -0.16808069081 0.14087890004 -0.12243324433 -0.16740426877 0.089157018355 -0.13144589756 -0.17587742357 0.0067661007941 
-0.11049967041 -0.14549702793 -0.05243081438 -0.12816947657 -0.17462869778 0.079676474342 -0.10976017255 -0.14245870303 -0.10062640352 
-0.11185361251 -0.14296235385 -0.15411238785 -0.082410811337 -0.10964492547 -0.017169562285 -0.13036301887 -0.17171116791 -0.05717365496 
-0.15186396907 -0.2140349278 0.26484472447 -0.081756080742 -0.10112283615 -0.19662762779 -0.094374906473 -0.11759836413 -0.20381181453 
-0.19482184 -0.26921088945 0.21901713008 -0.065651384513 -0.080271577175 -0.1833419275 -0.18961873137 -0.2591945412 0.14638563121 
-0.078527355624 -0.095671123249 -0.22378353184 -0.14913160022 -0.19667946013 -0.056989010277 -0.197257271 -0.26315490868 0.0010114975749 
-0.090860528281 -0.13486481908 0.31078340935 -0.1004179809 -0.12723233876 -0.16634896611 -0.053996199856 -0.082416299731 0.23051107122 
-0.057271525503 -0.065584757596 -0.26642697962 -0.044603979493 -0.063703976236 0.0845879264 -0.16091315676 -0.22122664153 0.1512587881 
-0.10148880563 -0.14471195899 0.21022376158 -0.20745941899 -0.28504620769 0.1962322543 -0.1972955007 -0.26956140431 0.15007954603 
-0.1902559153 -0.25796525204 0.097678278977 -0.061649354597 -0.070359460705 -0.29099291347 -0.18391703805 -0.24300012224 -0.055596902665 
-0.065426367843 -0.075081689698 -0.29804888142 -0.065705520329 -0.088741477129 0.013625887033 -0.054715368837 -0.078406803344 0.1140383386 
-0.052465740301 -0.065166054974 -0.12634481166 -0.10685690478 -0.13877620985 -0.096438021452 -0.053584544121 -0.078443132115 0.15016321855 
-0.071435462962 -0.08329328859 -0.29288711686 -0.091389547411 -0.11669586379 -0.13185976671 -0.080964315718 -0.097302960559 -0.26152369671 
-0.13948353546 -0.19712362766 0.25437218264 -0.058800156502 -0.075146784794 -0.089836593319 -0.036995928024 -0.045789765235 -0.098267963167 
-0.18147974543 -0.24136784411 -0.017856704957 -0.030249273824 -0.042228196814 0.028639973777 -0.17363026669 -0.22659277592 -0.11955525575 
-0.08637259499 -0.10546208534 -0.23885196625 -0.11424582992 -0.16417261829 0.26874333548 -0.15112492999 -0.21099723422 0.21664963185 
-0.068516300715 -0.077547413998 -0.33659832648 -0.21264201594 -0.28801455423 0.10419690154 -0.086486355096 -0.17977092459 0.10139852376 
-0.09293255611 -0.18951494341 0.061594190555 -0.10525892997 -0.20871219671 -0.0075158951279 -0.085322968642 -0.16290259984 -0.078770444943 
-0.088959206151 -0.17946182506 0.035947985132 -0.089663320509 -0.16855781288 -0.11680070369 -0.097162058946 -0.1803453855 -0.15749295544 
-0.061488602707 -0.11700179254 -0.054016497594 -0.10978587873 -0.21354609848 -0.060379535299 -0.10740304634 -0.2318446467 0.2258871977 
-0.070479547573 -0.12221625544 -0.21339411092 -0.083978757481 -0.14960976374 -0.21009957946 -0.14033305461 -0.29502993904 0.18880843926 
-0.05655011549 -0.094767063885 -0.20665891704 -0.14083576895 -0.29086665317 0.12465947907 -0.071475084154 -0.12256116124 -0.23392399661 
-0.10883486256 -0.20939004533 -0.088215126208 -0.1539081382 -0.3067773472 -0.003790655498 -0.062405526727 -0.14442093357 0.26311807073 
-0.092463892029 -0.17041506918 -0.16355567851 -0.040255891688 -0.093880046488 0.18835788752 -0.054080699809 -0.083649432201 -0.28297915415 
-0.0320234614 -0.065278922648 0.038853311087 -0.10708426855 -0.22100497334 0.099424441642 -0.066733956214 -0.14456742564 0.15707978477 
-0.14751010862 -0.30740558799 0.16342366103 -0.13500027068 -0.27760229425 0.10559619796 -0.12942987671 -0.26205189913 0.051581524916 
-0.05953105792 -0.093047931588 -0.30225357738 -0.13842658152 -0.27002038215 -0.073791280285 -0.063742064218 -0.10122388547 -0.30580503778 
-0.046320018288 -0.088330447501 -0.031558450606 -0.04850058304 -0.10238070098 0.088322195737 -0.044166579137 -0.073870691654 -0.15719260971 
-0.096795106234 -0.18474325285 -0.093818187735 -0.035732105998 -0.077618861227 0.09945068902 -0.069872127048 -0.11430955752 -0.29629726021 
-0.07145990765 -0.1284795561 -0.16016099554 -0.078787314525 -0.13517035579 -0.25978122837 -0.10165175109 -0.21986958681 0.22071236491 
-0.056432672705 -0.10279661202 -0.10417053281 -0.033831622586 -0.055363784673 -0.12914424062 -0.13111412141 -0.25741072738 -0.047934030311 
-0.025779374174 -0.048795739284 -0.0099405047039 -0.14017413155 -0.26983311649 -0.1196582794 -0.083678025542 -0.14703348234 -0.23455048797 
-0.074653177893 -0.16508246587 0.21412583024 -0.11174374213 -0.23750059692 0.18785750984 -0.068326108422 -0.10775649959 -0.33902827002 
-0.1595923552 -0.32572470089 0.089508219538 
f 3 100 double
0 0 0 0 0 0 0 0 0 
0 0 0 0 0 0 0 0 0 
0 0 0 0 0 0 0 0 0 
0 0 0 0 0 0 0 0 0 
0 0 0 0 0 0 0 0 0 
0 0 0 0 0 0 0 0 0 
0 0 0 0 0 0 0 0 0 
0 0 0 0 0 0 0 0 0 
0 0 0 0 0 0 0 0 0 
0 0 0 0 0 0 0 0 0 
0 0 0 0 0 0 0 0 0 
0 0 0 0 0 0 0 0 0 
0 0 0 0 0 0 0 0 0 
0 0 0 0 0 0 0 0 0 
0 0 0 -0.045893808626 -0.010486614902 -0.1095308673 0 0 0 
0 0 0 0 0 0 0 0 0 
0 0 0 0 0 0 0 0 0 
0 0 0 0 0 0 0 0 0 
0 0 0 0 0 0 0 0 0 
0 0 0 0 0 0 0 0 0 
0 0 0 0 0 0 0 0 0 
0 0 0 0 0 0 0 0 0 
0 0 0 0 0 0 0 0 0 
0 0 0 0 0 0 0 0 0 
0 0 0 0 0 0 0 0 0 
0 0 0 0 0 0 0 0 0 
0 0 0 0 0 0 0 0 0 
0 0 0 0 0 0 0 0 0 
0 0 0 0 0 0 0 0 0 
0 0 0 0 0 0 0 0 0 
0 0 0 0 0 0 0 0 0 
-0.15189285081 0.074949733908 0.62979199422 0 0 0 0 0 0 
0 0 0 0 0 0 0 0 0 
0 0 0 
radius 1 100 double
0.010434 0.00981478 0.00892069 0.00845937 0.00731974 0.00728422 0.00643447 0.00619172 0.00585956 
0.00577566 0.00537241 0.00522549 0.00513666 0.00473175 0.00466912 0.00444866 0.00441894 0.00400812 
0.00385622 0.00379948 0.00370243 0.00366942 0.00364039 0.00363813 0.00363644 0.00358692 0.0035797 
0.00341284 0.00337012 0.00336273 0.00332772 0.00323261 0.00320584 0.00320311 0.00318808 0.00313116 
0.00306026 0.00305632 0.00304383 0.00300958 0.00300137 0.00298994 0.0029567 0.00295111 0.00290849 
0.00284552 0.00282964 0.0028207 0.00281971 0.00281899 0.010434 0.00981478 0.00892069 0.00845937 
0.00731974 0.00728422 0.00643447 0.00619172 0.00585956 0.00577566 0.00537241 0.00522549 0.00513666 
0.00473175 0.00466912 0.00444866 0.00441894 0.00400812 0.00385622 0.00379948 0.00370243 0.00366942 
0.00364039 0.00363813 0.00363644 0.00358692 0.0035797 0.00341284 0.00337012 0.00336273 0.00332772 
0.00323261 0.00320584 0.00320311 0.00318808 0.00313116 0.00306026 0.00305632 0.00304383 0.00300958 
0.00300137 0.00298994 0.0029567 0.00295111 0.00290849 0.00284552 0.00282964 0.0028207 0.00281971 
0.00281899 
omega 3 100 double
14.809531549 -11.135786205 -0.47478451856 14.809531549 -11.135786205 -0.47478451856 14.809531549 -11.135786205 -0.47478451856 
14.809531549 -11.135786205 -0.47478451856 14.809531549 -11.135786205 -0.47478451856 14.809531549 -11.135786205 -0.47478451856 
14.809531549 -11.135786205 -0.47478451856 14.809531549 -11.135786205 -0.47478451856 14.809531549 -11.135786205 -0.47478451856 
14.809531549 -11.135786205 -0.47478451856 14.809531549 -11.135786205 -0.47478451856 14.809531549 -11.135786205 -0.47478451856 
14.809531549 -11.135786205 -0.47478451856 14.809531549 -11.135786205 -0.47478451856 14.809531549 -11.135786205 -0.47478451856 
14.809531549 -11.135786205 -0.47478451856 14.809531549 -11.135786205 -0.47478451856 14.809531549 -11.135786205 -0.47478451856 
14.809531549 -11.135786205 -0.47478451856 14.809531549 -11.135786205 -0.47478451856 14.809531549 -11.135786205 -0.47478451856 
14.809531549 -11.135786205 -0.47478451856 14.809531549 -11.135786205 -0.47478451856 14.809531549 -11.135786205 -0.47478451856 
14.809531549 -11.135786205 -0.47478451856 14.809531549 -11.135786205 -0.47478451856 14.809531549 -11.135786205 -0.47478451856 
14.809531549 -11.135786205 -0.47478451856 14.809531549 -11.135786205 -0.47478451856 14.809531549 -11.135786205 -0.47478451856 
14.809531549 -11.135786205 -0.47478451856 14.809531549 -11.135786205 -0.47478451856 14.809531549 -11.135786205 -0.47478451856 
14.809531549 -11.135786205 -0.47478451856 14.809531549 -11.135786205 -0.47478451856 14.809531549 -11.135786205 -0.47478451856 
14.809531549 -11.135786205 -0.47478451856 14.809531549 -11.135786205 -0.47478451856 14.809531549 -11.135786205 -0.47478451856 
14.809531549 -11.135786205 -0.47478451856 14.809531549 -11.135786205 -0.47478451856 14.809531549 -11.135786205 -0.47478451856 
14.809531549 -11.135786205 -0.47478451856 14.809531549 -11.135786205 -0.47478451856 14.809531549 -11.135786205 -0.47478451856 
14.809531549 -11.135786205 -0.47478451856 14.809531549 -11.135786205 -0.47478451856 14.809531549 -11.135786205 -0.47478451856 
14.809531549 -11.135786205 -0.47478451856 14.809531549 -11.135786205 -0.47478451856 15.542142981 -7.7340066245 -0.62373791401 
15.542142981 -7.7340066245 -0.62373791401 15.542142981 -7.7340066245 -0.62373791401 15.542142981 -7.7340066245 -0.62373791401 
15.542142981 -7.7340066245 -0.62373791401 15.542142981 -7.7340066245 -0.62373791401 15.542142981 -7.7340066245 -0.62373791401 
15.542142981 -7.7340066245 -0.62373791401 15.542142981 -7.7340066245 -0.62373791401 15.542142981 -7.7340066245 -0.62373791401 
15.542142981 -7.7340066245 -0.62373791401 15.542142981 -7.7340066245 -0.62373791401 15.542142981 -7.7340066245 -0.62373791401 
15.542142981 -7.7340066245 -0.62373791401 15.542142981 -7.7340066245 -0.62373791401 15.542142981 -7.7340066245 -0.62373791401 
15.542142981 -7.7340066245 -0.62373791401 15.542142981 -7.7340066245 -0.62373791401 15.542142981 -7.7340066245 -0.62373791401 
15.542142981 -7.7340066245 -0.62373791401 15.542142981 -7.7340066245 -0.62373791401 15.542142981 -7.7340066245 -0.62373791401 
15.542142981 -7.7340066245 -0.62373791401 15.542142981 -7.7340066245 -0.62373791401 15.542142981 -7.7340066245 -0.62373791401 
15.542142981 -7.7340066245 -0.62373791401 15.542142981 -7.7340066245 -0.62373791401 15.542142981 -7.7340066245 -0.62373791401 
15.542142981 -7.7340066245 -0.62373791401 15.542142981 -7.7340066245 -0.62373791401 15.542142981 -7.7340066245 -0.62373791401 
15.542142981 -7.7340066245 -0.62373791401 15.542142981 -7.7340066245 -0.62373791401 15.542142981 -7.7340066245 -0.62373791401 
15.542142981 -7.7340066245 -0.62373791401 15.542142981 -7.7340066245 -0.62373791401 15.542142981 -7.7340066245 -0.62373791401 
15.542142981 -7.7340066245 -0.62373791401 15.542142981 -7.7340066245 -0.62373791401 15.542142981 -7.7340066245 -0.62373791401 
15.542142981 -7.7340066245 -0.62373791401 15.542142981 -7.7340066245 -0.62373791401 15.542142981 -7.7340066245 -0.62373791401 
15.542142981 -7.7340066245 -0.62373791401 15.542142981 -7.7340066245 -0.62373791401 15.542142981 -7.7340066245 -0.62373791401 
15.542142981 -7.7340066245 -0.62373791401 15.542142981 -7.7340066245 -0.62373791401 15.542142981 -7.7340066245 -0.62373791401 
15.542142981 -7.7340066245 -0.62373791401 
